<?xml version="1.0" encoding="UTF-8" standalone="no"?>
<!DOCTYPE svg PUBLIC "-//W3C//DTD SVG 1.1//EN"
 "http://www.w3.org/Graphics/SVG/1.1/DTD/svg11.dtd">
<!-- Generated by graphviz version 2.43.0 (0)
 -->
<!-- Title: /home/runner/work/beluga/beluga/beluga_amcl/include/beluga_amcl/amcl_node.hpp Pages: 1 -->
<svg width="3140pt" height="184pt"
 viewBox="0.00 0.00 3140.00 184.00" xmlns="http://www.w3.org/2000/svg" xmlns:xlink="http://www.w3.org/1999/xlink">
<g id="graph0" class="graph" transform="scale(1 1) rotate(0) translate(4 180)">
<title>/home/runner/work/beluga/beluga/beluga_amcl/include/beluga_amcl/amcl_node.hpp</title>
<!-- Node1 -->
<g id="node1" class="node">
<title>Node1</title>
<g id="a_node1"><a xlink:title="ROS 2 integration of the 2D AMCL algorithm.">
<polygon fill="#bfbfbf" stroke="black" points="773.5,-134.5 773.5,-175.5 932.5,-175.5 932.5,-134.5 773.5,-134.5"/>
<text text-anchor="start" x="781.5" y="-163.5" font-family="Helvetica,sans-Serif" font-size="10.00">/home/runner/work/beluga</text>
<text text-anchor="start" x="781.5" y="-152.5" font-family="Helvetica,sans-Serif" font-size="10.00">/beluga/beluga_amcl/include</text>
<text text-anchor="middle" x="853" y="-141.5" font-family="Helvetica,sans-Serif" font-size="10.00">/beluga_amcl/amcl_node.hpp</text>
</a>
</g>
</g>
<!-- Node2 -->
<g id="node2" class="node">
<title>Node2</title>
<g id="a_node2"><a xlink:title=" ">
<polygon fill="none" stroke="#bfbfbf" points="0,-73 0,-92 58,-92 58,-73 0,-73"/>
<text text-anchor="middle" x="29" y="-80" font-family="Helvetica,sans-Serif" font-size="10.00">memory</text>
</a>
</g>
</g>
<!-- Node1&#45;&gt;Node2 -->
<g id="edge1" class="edge">
<title>Node1&#45;&gt;Node2</title>
<path fill="none" stroke="midnightblue" d="M773.22,-151.28C601.13,-144.94 199.9,-127.42 67,-98 63.99,-97.33 60.91,-96.48 57.86,-95.51"/>
<polygon fill="midnightblue" stroke="midnightblue" points="58.98,-92.19 48.39,-92.15 56.64,-98.79 58.98,-92.19"/>
</g>
<!-- Node3 -->
<g id="node3" class="node">
<title>Node3</title>
<g id="a_node3"><a xlink:title=" ">
<polygon fill="none" stroke="#bfbfbf" points="76,-73 76,-92 132,-92 132,-73 76,-73"/>
<text text-anchor="middle" x="104" y="-80" font-family="Helvetica,sans-Serif" font-size="10.00">optional</text>
</a>
</g>
</g>
<!-- Node1&#45;&gt;Node3 -->
<g id="edge2" class="edge">
<title>Node1&#45;&gt;Node3</title>
<path fill="none" stroke="midnightblue" d="M773.21,-150.69C613.42,-143.57 259.35,-125.21 141,-98 138.16,-97.35 135.26,-96.52 132.38,-95.58"/>
<polygon fill="midnightblue" stroke="midnightblue" points="133.46,-92.25 122.86,-92.13 131.07,-98.83 133.46,-92.25"/>
</g>
<!-- Node4 -->
<g id="node4" class="node">
<title>Node4</title>
<g id="a_node4"><a xlink:title=" ">
<polygon fill="none" stroke="#bfbfbf" points="150.5,-73 150.5,-92 219.5,-92 219.5,-73 150.5,-73"/>
<text text-anchor="middle" x="185" y="-80" font-family="Helvetica,sans-Serif" font-size="10.00">type_traits</text>
</a>
</g>
</g>
<!-- Node1&#45;&gt;Node4 -->
<g id="edge3" class="edge">
<title>Node1&#45;&gt;Node4</title>
<path fill="none" stroke="midnightblue" d="M773.19,-152.85C653.5,-149.77 420.96,-138.58 228,-98 224.31,-97.22 220.5,-96.23 216.75,-95.13"/>
<polygon fill="midnightblue" stroke="midnightblue" points="217.63,-91.74 207.04,-92.04 215.51,-98.41 217.63,-91.74"/>
</g>
<!-- Node5 -->
<g id="node5" class="node">
<title>Node5</title>
<g id="a_node5"><a xlink:title=" ">
<polygon fill="none" stroke="#bfbfbf" points="237.5,-73 237.5,-92 282.5,-92 282.5,-73 237.5,-73"/>
<text text-anchor="middle" x="260" y="-80" font-family="Helvetica,sans-Serif" font-size="10.00">utility</text>
</a>
</g>
</g>
<!-- Node1&#45;&gt;Node5 -->
<g id="edge4" class="edge">
<title>Node1&#45;&gt;Node5</title>
<path fill="none" stroke="midnightblue" d="M773.14,-152.77C664.1,-149.55 463.21,-138.14 297,-98 294.17,-97.32 291.27,-96.46 288.4,-95.52"/>
<polygon fill="midnightblue" stroke="midnightblue" points="289.48,-92.19 278.88,-92.05 287.08,-98.76 289.48,-92.19"/>
</g>
<!-- Node6 -->
<g id="node6" class="node">
<title>Node6</title>
<g id="a_node6"><a xlink:title=" ">
<polygon fill="none" stroke="#bfbfbf" points="82.5,-6 82.5,-25 249.5,-25 249.5,-6 82.5,-6"/>
<text text-anchor="middle" x="166" y="-13" font-family="Helvetica,sans-Serif" font-size="10.00">message_filters/subscriber.hpp</text>
</a>
</g>
</g>
<!-- Node1&#45;&gt;Node6 -->
<g id="edge5" class="edge">
<title>Node1&#45;&gt;Node6</title>
<path fill="none" stroke="midnightblue" d="M773.42,-149.5C650.34,-141.84 419.84,-124.46 342,-98 316.89,-89.46 314.71,-78.9 291,-67 261.08,-51.99 225.58,-37.99 200.07,-28.55"/>
<polygon fill="midnightblue" stroke="midnightblue" points="201.07,-25.19 190.48,-25.05 198.67,-31.77 201.07,-25.19"/>
</g>
<!-- Node7 -->
<g id="node7" class="node">
<title>Node7</title>
<g id="a_node7"><a xlink:title=" ">
<polygon fill="none" stroke="#bfbfbf" points="723,-6 723,-25 829,-25 829,-6 723,-6"/>
<text text-anchor="middle" x="776" y="-13" font-family="Helvetica,sans-Serif" font-size="10.00">bondcpp/bond.hpp</text>
</a>
</g>
</g>
<!-- Node1&#45;&gt;Node7 -->
<g id="edge6" class="edge">
<title>Node1&#45;&gt;Node7</title>
<path fill="none" stroke="midnightblue" d="M850.62,-134.15C847.72,-115.69 841.55,-87.97 829,-67 820.68,-53.1 807.5,-40.51 796.36,-31.39"/>
<polygon fill="midnightblue" stroke="midnightblue" points="798.39,-28.53 788.36,-25.12 794.08,-34.04 798.39,-28.53"/>
</g>
<!-- Node8 -->
<g id="node8" class="node">
<title>Node8</title>
<g id="a_node8"><a xlink:title=" ">
<polygon fill="none" stroke="#bfbfbf" points="567.5,-0.5 567.5,-30.5 704.5,-30.5 704.5,-0.5 567.5,-0.5"/>
<text text-anchor="start" x="575.5" y="-18.5" font-family="Helvetica,sans-Serif" font-size="10.00">rclcpp_lifecycle/lifecycle</text>
<text text-anchor="middle" x="636" y="-7.5" font-family="Helvetica,sans-Serif" font-size="10.00">_node.hpp</text>
</a>
</g>
</g>
<!-- Node1&#45;&gt;Node8 -->
<g id="edge7" class="edge">
<title>Node1&#45;&gt;Node8</title>
<path fill="none" stroke="midnightblue" d="M844.85,-134.2C835.74,-114.44 819.17,-84.55 796,-67 781.03,-55.66 740.53,-42.93 704.03,-33.08"/>
<polygon fill="midnightblue" stroke="midnightblue" points="704.92,-29.7 694.36,-30.52 703.13,-36.47 704.92,-29.7"/>
</g>
<!-- Node9 -->
<g id="node9" class="node">
<title>Node9</title>
<g id="a_node9"><a xlink:title=" ">
<polygon fill="none" stroke="#bfbfbf" points="521,-73 521,-92 623,-92 623,-73 521,-73"/>
<text text-anchor="middle" x="572" y="-80" font-family="Helvetica,sans-Serif" font-size="10.00">tf2_ros/buffer.hpp</text>
</a>
</g>
</g>
<!-- Node1&#45;&gt;Node9 -->
<g id="edge8" class="edge">
<title>Node1&#45;&gt;Node9</title>
<path fill="none" stroke="midnightblue" d="M775.1,-134.46C723.67,-121.55 658.18,-105.12 615.69,-94.46"/>
<polygon fill="midnightblue" stroke="midnightblue" points="616.48,-91.05 605.93,-92.01 614.78,-97.84 616.48,-91.05"/>
</g>
<!-- Node10 -->
<g id="node10" class="node">
<title>Node10</title>
<g id="a_node10"><a xlink:title=" ">
<polygon fill="none" stroke="#bfbfbf" points="641,-73 641,-92 787,-92 787,-73 641,-73"/>
<text text-anchor="middle" x="714" y="-80" font-family="Helvetica,sans-Serif" font-size="10.00">tf2_ros/message_filter.hpp</text>
</a>
</g>
</g>
<!-- Node1&#45;&gt;Node10 -->
<g id="edge9" class="edge">
<title>Node1&#45;&gt;Node10</title>
<path fill="none" stroke="midnightblue" d="M814.28,-134.36C790.6,-122.35 760.93,-107.3 740.03,-96.7"/>
<polygon fill="midnightblue" stroke="midnightblue" points="741.6,-93.58 731.1,-92.17 738.44,-99.82 741.6,-93.58"/>
</g>
<!-- Node11 -->
<g id="node11" class="node">
<title>Node11</title>
<g id="a_node11"><a xlink:title=" ">
<polygon fill="none" stroke="#bfbfbf" points="847.5,-6 847.5,-25 1032.5,-25 1032.5,-6 847.5,-6"/>
<text text-anchor="middle" x="940" y="-13" font-family="Helvetica,sans-Serif" font-size="10.00">tf2_ros/transform_broadcaster.hpp</text>
</a>
</g>
</g>
<!-- Node1&#45;&gt;Node11 -->
<g id="edge10" class="edge">
<title>Node1&#45;&gt;Node11</title>
<path fill="none" stroke="midnightblue" d="M865.46,-134.3C882.55,-107.3 912.95,-59.25 929.14,-33.66"/>
<polygon fill="midnightblue" stroke="midnightblue" points="932.21,-35.36 934.6,-25.04 926.29,-31.62 932.21,-35.36"/>
</g>
<!-- Node12 -->
<g id="node12" class="node">
<title>Node12</title>
<g id="a_node12"><a xlink:title=" ">
<polygon fill="none" stroke="#bfbfbf" points="1051,-6 1051,-25 1215,-25 1215,-6 1051,-6"/>
<text text-anchor="middle" x="1133" y="-13" font-family="Helvetica,sans-Serif" font-size="10.00">tf2_ros/transform_listener.hpp</text>
</a>
</g>
</g>
<!-- Node1&#45;&gt;Node12 -->
<g id="edge11" class="edge">
<title>Node1&#45;&gt;Node12</title>
<path fill="none" stroke="midnightblue" d="M932.54,-143.74C994.13,-134.37 1073.03,-118.81 1098,-98 1117.09,-82.08 1126.02,-53.84 1130.02,-35.14"/>
<polygon fill="midnightblue" stroke="midnightblue" points="1133.48,-35.63 1131.87,-25.16 1126.6,-34.35 1133.48,-35.63"/>
</g>
<!-- Node13 -->
<g id="node13" class="node">
<title>Node13</title>
<g id="a_node13"><a xlink:title=" ">
<polygon fill="none" stroke="#bfbfbf" points="1233,-0.5 1233,-30.5 1379,-30.5 1379,-0.5 1233,-0.5"/>
<text text-anchor="start" x="1241" y="-18.5" font-family="Helvetica,sans-Serif" font-size="10.00">geometry_msgs/msg/pose</text>
<text text-anchor="middle" x="1306" y="-7.5" font-family="Helvetica,sans-Serif" font-size="10.00">_array.hpp</text>
</a>
</g>
</g>
<!-- Node1&#45;&gt;Node13 -->
<g id="edge12" class="edge">
<title>Node1&#45;&gt;Node13</title>
<path fill="none" stroke="midnightblue" d="M932.74,-144.76C987.61,-136.65 1061.42,-122.26 1123,-98 1147.68,-88.28 1150.18,-78.68 1174,-67 1199.67,-54.41 1229.33,-42.82 1254.01,-33.93"/>
<polygon fill="midnightblue" stroke="midnightblue" points="1255.31,-37.18 1263.56,-30.53 1252.97,-30.59 1255.31,-37.18"/>
</g>
<!-- Node14 -->
<g id="node14" class="node">
<title>Node14</title>
<g id="a_node14"><a xlink:title=" ">
<polygon fill="none" stroke="#bfbfbf" points="919,-67.5 919,-97.5 1089,-97.5 1089,-67.5 919,-67.5"/>
<text text-anchor="start" x="927" y="-85.5" font-family="Helvetica,sans-Serif" font-size="10.00">geometry_msgs/msg/pose</text>
<text text-anchor="middle" x="1004" y="-74.5" font-family="Helvetica,sans-Serif" font-size="10.00">_with_covariance_stamped.hpp</text>
</a>
</g>
</g>
<!-- Node1&#45;&gt;Node14 -->
<g id="edge13" class="edge">
<title>Node1&#45;&gt;Node14</title>
<path fill="none" stroke="midnightblue" d="M895.06,-134.36C916.8,-124.21 943.18,-111.9 964.53,-101.93"/>
<polygon fill="midnightblue" stroke="midnightblue" points="966.07,-105.07 973.65,-97.67 963.11,-98.73 966.07,-105.07"/>
</g>
<!-- Node15 -->
<g id="node15" class="node">
<title>Node15</title>
<g id="a_node15"><a xlink:title=" ">
<polygon fill="none" stroke="#bfbfbf" points="1397.5,-0.5 1397.5,-30.5 1542.5,-30.5 1542.5,-0.5 1397.5,-0.5"/>
<text text-anchor="start" x="1405.5" y="-18.5" font-family="Helvetica,sans-Serif" font-size="10.00">nav_msgs/msg/occupancy</text>
<text text-anchor="middle" x="1470" y="-7.5" font-family="Helvetica,sans-Serif" font-size="10.00">_grid.hpp</text>
</a>
</g>
</g>
<!-- Node1&#45;&gt;Node15 -->
<g id="edge14" class="edge">
<title>Node1&#45;&gt;Node15</title>
<path fill="none" stroke="midnightblue" d="M932.85,-149.71C1047.57,-142.66 1252.75,-126.48 1321,-98 1341.43,-89.47 1341.13,-78.59 1360,-67 1380.25,-54.56 1404.07,-43.25 1424.36,-34.51"/>
<polygon fill="midnightblue" stroke="midnightblue" points="1425.86,-37.68 1433.71,-30.55 1423.14,-31.23 1425.86,-37.68"/>
</g>
<!-- Node16 -->
<g id="node16" class="node">
<title>Node16</title>
<g id="a_node16"><a xlink:title=" ">
<polygon fill="none" stroke="#bfbfbf" points="267.5,-0.5 267.5,-30.5 398.5,-30.5 398.5,-0.5 267.5,-0.5"/>
<text text-anchor="start" x="275.5" y="-18.5" font-family="Helvetica,sans-Serif" font-size="10.00">sensor_msgs/msg/laser</text>
<text text-anchor="middle" x="333" y="-7.5" font-family="Helvetica,sans-Serif" font-size="10.00">_scan.hpp</text>
</a>
</g>
</g>
<!-- Node1&#45;&gt;Node16 -->
<g id="edge15" class="edge">
<title>Node1&#45;&gt;Node16</title>
<path fill="none" stroke="midnightblue" d="M773.34,-154.25C652.52,-153.08 430.37,-144.45 368,-98 349.74,-84.41 340.9,-59.34 336.69,-40.58"/>
<polygon fill="midnightblue" stroke="midnightblue" points="340.1,-39.8 334.75,-30.66 333.23,-41.15 340.1,-39.8"/>
</g>
<!-- Node17 -->
<g id="node17" class="node">
<title>Node17</title>
<g id="a_node17"><a xlink:title=" ">
<polygon fill="none" stroke="#bfbfbf" points="1183.5,-73 1183.5,-92 1312.5,-92 1312.5,-73 1183.5,-73"/>
<text text-anchor="middle" x="1248" y="-80" font-family="Helvetica,sans-Serif" font-size="10.00">std_srvs/srv/empty.hpp</text>
</a>
</g>
</g>
<!-- Node1&#45;&gt;Node17 -->
<g id="edge16" class="edge">
<title>Node1&#45;&gt;Node17</title>
<path fill="none" stroke="midnightblue" d="M932.57,-140.04C996.48,-128.79 1088.54,-112.51 1169,-98 1176.35,-96.67 1184.08,-95.27 1191.71,-93.88"/>
<polygon fill="midnightblue" stroke="midnightblue" points="1192.43,-97.3 1201.64,-92.06 1191.17,-90.42 1192.43,-97.3"/>
</g>
<!-- Node18 -->
<g id="node18" class="node">
<title>Node18</title>
<g id="a_node18"><a xlink:title=" ">
<polygon fill="none" stroke="#bfbfbf" points="1561,-0.5 1561,-30.5 1689,-30.5 1689,-0.5 1561,-0.5"/>
<text text-anchor="start" x="1569" y="-18.5" font-family="Helvetica,sans-Serif" font-size="10.00">visualization_msgs</text>
<text text-anchor="middle" x="1625" y="-7.5" font-family="Helvetica,sans-Serif" font-size="10.00">/msg/marker_array.hpp</text>
</a>
</g>
</g>
<!-- Node1&#45;&gt;Node18 -->
<g id="edge17" class="edge">
<title>Node1&#45;&gt;Node18</title>
<path fill="none" stroke="midnightblue" d="M932.51,-154.08C1119.48,-153.45 1574.86,-146.86 1622,-98 1636.3,-83.18 1635.32,-58.89 1631.8,-40.68"/>
<polygon fill="midnightblue" stroke="midnightblue" points="1635.18,-39.74 1629.54,-30.77 1628.36,-41.3 1635.18,-39.74"/>
</g>
<!-- Node19 -->
<g id="node19" class="node">
<title>Node19</title>
<g id="a_node19"><a target="_parent" xlink:href="../../../../../../beluga/docs/_doxygen/generated/reference/html/beluga_8hpp.html.html" xlink:title=" ">
<polygon fill="none" stroke="black" points="1369.5,-73 1369.5,-92 1476.5,-92 1476.5,-73 1369.5,-73"/>
<text text-anchor="middle" x="1423" y="-80" font-family="Helvetica,sans-Serif" font-size="10.00">beluga/beluga.hpp</text>
</a>
</g>
</g>
<!-- Node1&#45;&gt;Node19 -->
<g id="edge18" class="edge">
<title>Node1&#45;&gt;Node19</title>
<path fill="none" stroke="midnightblue" d="M932.88,-147.55C1032.21,-138.96 1206.76,-122.01 1355,-98 1361.8,-96.9 1368.96,-95.57 1375.96,-94.16"/>
<polygon fill="midnightblue" stroke="midnightblue" points="1376.99,-97.52 1386.07,-92.07 1375.57,-90.67 1376.99,-97.52"/>
</g>
<!-- Node20 -->
<g id="node20" class="node">
<title>Node20</title>
<g id="a_node20"><a target="_parent" xlink:href="../../../../../../beluga_ros/docs/_doxygen/generated/reference/html/amcl_8hpp.html.html" xlink:title=" ">
<polygon fill="none" stroke="black" points="1495,-73 1495,-92 1613,-92 1613,-73 1495,-73"/>
<text text-anchor="middle" x="1554" y="-80" font-family="Helvetica,sans-Serif" font-size="10.00">beluga_ros/amcl.hpp</text>
</a>
</g>
</g>
<!-- Node1&#45;&gt;Node20 -->
<g id="edge19" class="edge">
<title>Node1&#45;&gt;Node20</title>
<path fill="none" stroke="midnightblue" d="M932.67,-149.98C1052.87,-143.24 1287.52,-127.39 1485,-98 1492.24,-96.92 1499.87,-95.56 1507.3,-94.1"/>
<polygon fill="midnightblue" stroke="midnightblue" points="1508.16,-97.49 1517.26,-92.06 1506.76,-90.63 1508.16,-97.49"/>
</g>
<!-- Node21 -->
<g id="node21" class="node">
<title>Node21</title>
<g id="a_node21"><a xlink:href="message__filters_8hpp.html" target="_top" xlink:title="Compatibility layer for message_filters.">
<polygon fill="none" stroke="black" points="377,-67.5 377,-97.5 503,-97.5 503,-67.5 377,-67.5"/>
<text text-anchor="start" x="385" y="-85.5" font-family="Helvetica,sans-Serif" font-size="10.00">beluga_amcl/message</text>
<text text-anchor="middle" x="440" y="-74.5" font-family="Helvetica,sans-Serif" font-size="10.00">_filters.hpp</text>
</a>
</g>
</g>
<!-- Node1&#45;&gt;Node21 -->
<g id="edge20" class="edge">
<title>Node1&#45;&gt;Node21</title>
<path fill="none" stroke="midnightblue" d="M773.28,-141.74C706.45,-131.27 608.25,-115.44 513.26,-98.2"/>
<polygon fill="midnightblue" stroke="midnightblue" points="513.66,-94.71 503.19,-96.36 512.4,-101.6 513.66,-94.71"/>
</g>
<!-- Node23 -->
<g id="node23" class="node">
<title>Node23</title>
<g id="a_node23"><a xlink:href="ros2__common_8hpp_source.html" target="_top" xlink:title=" ">
<polygon fill="none" stroke="black" points="1856,-73 1856,-92 2028,-92 2028,-73 1856,-73"/>
<text text-anchor="middle" x="1942" y="-80" font-family="Helvetica,sans-Serif" font-size="10.00">beluga_amcl/ros2_common.hpp</text>
</a>
</g>
</g>
<!-- Node1&#45;&gt;Node23 -->
<g id="edge25" class="edge">
<title>Node1&#45;&gt;Node23</title>
<path fill="none" stroke="midnightblue" d="M932.64,-148.84C1128.5,-136.16 1633.14,-103.5 1845.52,-89.75"/>
<polygon fill="midnightblue" stroke="midnightblue" points="1845.97,-93.22 1855.72,-89.09 1845.52,-86.24 1845.97,-93.22"/>
</g>
<!-- Node21&#45;&gt;Node6 -->
<g id="edge21" class="edge">
<title>Node21&#45;&gt;Node6</title>
<path fill="none" stroke="midnightblue" d="M380.88,-67.48C330.17,-55.45 258.14,-38.36 211.73,-27.35"/>
<polygon fill="midnightblue" stroke="midnightblue" points="212.49,-23.93 201.95,-25.03 210.87,-30.74 212.49,-23.93"/>
</g>
<!-- Node21&#45;&gt;Node8 -->
<g id="edge22" class="edge">
<title>Node21&#45;&gt;Node8</title>
<path fill="none" stroke="midnightblue" d="M482.53,-67.4C512.32,-57.52 552.32,-44.25 584.01,-33.74"/>
<polygon fill="midnightblue" stroke="midnightblue" points="585.16,-37.05 593.55,-30.58 582.96,-30.4 585.16,-37.05"/>
</g>
<!-- Node21&#45;&gt;Node16 -->
<g id="edge23" class="edge">
<title>Node21&#45;&gt;Node16</title>
<path fill="none" stroke="midnightblue" d="M416.78,-67.4C401.64,-58.2 381.67,-46.07 365.03,-35.95"/>
<polygon fill="midnightblue" stroke="midnightblue" points="366.54,-32.78 356.17,-30.58 362.9,-38.76 366.54,-32.78"/>
</g>
<!-- Node22 -->
<g id="node22" class="node">
<title>Node22</title>
<g id="a_node22"><a xlink:title=" ">
<polygon fill="none" stroke="#bfbfbf" points="417,-0.5 417,-30.5 549,-30.5 549,-0.5 417,-0.5"/>
<text text-anchor="start" x="425" y="-18.5" font-family="Helvetica,sans-Serif" font-size="10.00">sensor_msgs/msg/point</text>
<text text-anchor="middle" x="483" y="-7.5" font-family="Helvetica,sans-Serif" font-size="10.00">_cloud2.hpp</text>
</a>
</g>
</g>
<!-- Node21&#45;&gt;Node22 -->
<g id="edge24" class="edge">
<title>Node21&#45;&gt;Node22</title>
<path fill="none" stroke="midnightblue" d="M449.33,-67.4C454.8,-59.13 461.83,-48.51 468.05,-39.1"/>
<polygon fill="midnightblue" stroke="midnightblue" points="471.09,-40.85 473.69,-30.58 465.25,-36.99 471.09,-40.85"/>
</g>
<!-- Node23&#45;&gt;Node7 -->
<g id="edge32" class="edge">
<title>Node23&#45;&gt;Node7</title>
<path fill="none" stroke="midnightblue" d="M1855.65,-77.58C1596.2,-65.78 841.15,-31.44 838,-31 831.23,-30.06 824.12,-28.73 817.22,-27.25"/>
<polygon fill="midnightblue" stroke="midnightblue" points="817.86,-23.81 807.33,-25.01 816.31,-30.64 817.86,-23.81"/>
</g>
<!-- Node23&#45;&gt;Node8 -->
<g id="edge28" class="edge">
<title>Node23&#45;&gt;Node8</title>
<path fill="none" stroke="midnightblue" d="M1855.76,-77.46C1791.36,-74.48 1701.18,-70.36 1622,-67 1221.84,-50 1117.09,-75.59 714.98,-30.99"/>
<polygon fill="midnightblue" stroke="midnightblue" points="715.15,-27.48 704.82,-29.85 714.37,-34.44 715.15,-27.48"/>
</g>
<!-- Node23&#45;&gt;Node11 -->
<g id="edge42" class="edge">
<title>Node23&#45;&gt;Node11</title>
<path fill="none" stroke="midnightblue" d="M1855.81,-77.6C1662.34,-68.7 1198.22,-46.46 1042,-31 1029.64,-29.78 1016.48,-28.15 1003.87,-26.43"/>
<polygon fill="midnightblue" stroke="midnightblue" points="1004.28,-22.95 993.89,-25.04 1003.31,-29.89 1004.28,-22.95"/>
</g>
<!-- Node23&#45;&gt;Node12 -->
<g id="edge43" class="edge">
<title>Node23&#45;&gt;Node12</title>
<path fill="none" stroke="midnightblue" d="M1855.84,-77.89C1720.84,-71.68 1451.35,-57.06 1224,-31 1213.52,-29.8 1202.4,-28.25 1191.67,-26.62"/>
<polygon fill="midnightblue" stroke="midnightblue" points="1191.96,-23.13 1181.54,-25.04 1190.88,-30.04 1191.96,-23.13"/>
</g>
<!-- Node23&#45;&gt;Node13 -->
<g id="edge33" class="edge">
<title>Node23&#45;&gt;Node13</title>
<path fill="none" stroke="midnightblue" d="M1855.86,-75.9C1748.78,-68.44 1560.24,-53.63 1389.21,-31.09"/>
<polygon fill="midnightblue" stroke="midnightblue" points="1389.64,-27.62 1379.27,-29.77 1388.72,-34.56 1389.64,-27.62"/>
</g>
<!-- Node23&#45;&gt;Node15 -->
<g id="edge35" class="edge">
<title>Node23&#45;&gt;Node15</title>
<path fill="none" stroke="midnightblue" d="M1868.18,-72.97C1791.87,-63.92 1669.04,-48.71 1552.98,-31.11"/>
<polygon fill="midnightblue" stroke="midnightblue" points="1553.26,-27.61 1542.85,-29.56 1552.21,-34.53 1553.26,-27.61"/>
</g>
<!-- Node23&#45;&gt;Node18 -->
<g id="edge36" class="edge">
<title>Node23&#45;&gt;Node18</title>
<path fill="none" stroke="midnightblue" d="M1900.23,-72.94C1849.08,-62.45 1761.55,-44.5 1698.92,-31.66"/>
<polygon fill="midnightblue" stroke="midnightblue" points="1699.59,-28.22 1689.09,-29.64 1698.19,-35.08 1699.59,-28.22"/>
</g>
<!-- Node24 -->
<g id="node24" class="node">
<title>Node24</title>
<g id="a_node24"><a xlink:title=" ">
<polygon fill="none" stroke="#bfbfbf" points="2693,-6 2693,-25 2757,-25 2757,-6 2693,-6"/>
<text text-anchor="middle" x="2725" y="-13" font-family="Helvetica,sans-Serif" font-size="10.00">execution</text>
</a>
</g>
</g>
<!-- Node23&#45;&gt;Node24 -->
<g id="edge26" class="edge">
<title>Node23&#45;&gt;Node24</title>
<path fill="none" stroke="midnightblue" d="M2028.28,-78.57C2196.14,-72.39 2560.96,-56.45 2684,-31 2687.43,-30.29 2690.97,-29.36 2694.45,-28.32"/>
<polygon fill="midnightblue" stroke="midnightblue" points="2695.64,-31.61 2704.03,-25.15 2693.44,-24.97 2695.64,-31.61"/>
</g>
<!-- Node25 -->
<g id="node25" class="node">
<title>Node25</title>
<g id="a_node25"><a xlink:title=" ">
<polygon fill="none" stroke="#bfbfbf" points="2775.5,-6 2775.5,-25 2910.5,-25 2910.5,-6 2775.5,-6"/>
<text text-anchor="middle" x="2843" y="-13" font-family="Helvetica,sans-Serif" font-size="10.00">rclcpp/node_options.hpp</text>
</a>
</g>
</g>
<!-- Node23&#45;&gt;Node25 -->
<g id="edge27" class="edge">
<title>Node23&#45;&gt;Node25</title>
<path fill="none" stroke="midnightblue" d="M2028.03,-79.76C2178.29,-75.94 2498.08,-64.3 2766,-31 2774.73,-29.91 2783.96,-28.45 2792.89,-26.87"/>
<polygon fill="midnightblue" stroke="midnightblue" points="2793.58,-30.3 2802.79,-25.05 2792.32,-23.42 2793.58,-30.3"/>
</g>
<!-- Node26 -->
<g id="node26" class="node">
<title>Node26</title>
<g id="a_node26"><a xlink:title=" ">
<polygon fill="none" stroke="#bfbfbf" points="2928.5,-6 2928.5,-25 3069.5,-25 3069.5,-6 2928.5,-6"/>
<text text-anchor="middle" x="2999" y="-13" font-family="Helvetica,sans-Serif" font-size="10.00">rclcpp_lifecycle/state.hpp</text>
</a>
</g>
</g>
<!-- Node23&#45;&gt;Node26 -->
<g id="edge29" class="edge">
<title>Node23&#45;&gt;Node26</title>
<path fill="none" stroke="midnightblue" d="M2028,-80.81C2198.66,-78.6 2591.98,-69.41 2920,-31 2929.15,-29.93 2938.85,-28.44 2948.19,-26.83"/>
<polygon fill="midnightblue" stroke="midnightblue" points="2948.93,-30.25 2958.15,-25.04 2947.69,-23.36 2948.93,-30.25"/>
</g>
<!-- Node27 -->
<g id="node27" class="node">
<title>Node27</title>
<g id="a_node27"><a xlink:title=" ">
<polygon fill="none" stroke="#bfbfbf" points="3088,-6 3088,-25 3132,-25 3132,-6 3088,-6"/>
<text text-anchor="middle" x="3110" y="-13" font-family="Helvetica,sans-Serif" font-size="10.00">string</text>
</a>
</g>
</g>
<!-- Node23&#45;&gt;Node27 -->
<g id="edge30" class="edge">
<title>Node23&#45;&gt;Node27</title>
<path fill="none" stroke="midnightblue" d="M2028.36,-82.02C2258.08,-82.71 2880.16,-79.86 3079,-31 3080.99,-30.51 3083.01,-29.89 3085.01,-29.18"/>
<polygon fill="midnightblue" stroke="midnightblue" points="3086.81,-32.22 3094.67,-25.12 3084.09,-25.77 3086.81,-32.22"/>
</g>
<!-- Node28 -->
<g id="node28" class="node">
<title>Node28</title>
<g id="a_node28"><a xlink:title=" ">
<polygon fill="none" stroke="#bfbfbf" points="1707.5,-6 1707.5,-25 1780.5,-25 1780.5,-6 1707.5,-6"/>
<text text-anchor="middle" x="1744" y="-13" font-family="Helvetica,sans-Serif" font-size="10.00">string_view</text>
</a>
</g>
</g>
<!-- Node23&#45;&gt;Node28 -->
<g id="edge31" class="edge">
<title>Node23&#45;&gt;Node28</title>
<path fill="none" stroke="midnightblue" d="M1915.71,-72.87C1880.77,-61.4 1818.92,-41.09 1779.76,-28.24"/>
<polygon fill="midnightblue" stroke="midnightblue" points="1780.68,-24.86 1770.09,-25.06 1778.5,-31.51 1780.68,-24.86"/>
</g>
<!-- Node29 -->
<g id="node29" class="node">
<title>Node29</title>
<g id="a_node29"><a xlink:title=" ">
<polygon fill="none" stroke="#bfbfbf" points="1799,-0.5 1799,-30.5 1945,-30.5 1945,-0.5 1799,-0.5"/>
<text text-anchor="start" x="1807" y="-18.5" font-family="Helvetica,sans-Serif" font-size="10.00">geometry_msgs/msg/pose</text>
<text text-anchor="middle" x="1872" y="-7.5" font-family="Helvetica,sans-Serif" font-size="10.00">_stamped.hpp</text>
</a>
</g>
</g>
<!-- Node23&#45;&gt;Node29 -->
<g id="edge34" class="edge">
<title>Node23&#45;&gt;Node29</title>
<path fill="none" stroke="midnightblue" d="M1932.56,-72.73C1922.92,-63.78 1907.58,-49.54 1894.76,-37.63"/>
<polygon fill="midnightblue" stroke="midnightblue" points="1896.88,-34.83 1887.17,-30.59 1892.12,-39.96 1896.88,-34.83"/>
</g>
<!-- Node30 -->
<g id="node30" class="node">
<title>Node30</title>
<g id="a_node30"><a xlink:title=" ">
<polygon fill="none" stroke="#bfbfbf" points="1963.5,-6 1963.5,-25 2062.5,-25 2062.5,-6 1963.5,-6"/>
<text text-anchor="middle" x="2013" y="-13" font-family="Helvetica,sans-Serif" font-size="10.00">rclcpp/rclcpp.hpp</text>
</a>
</g>
</g>
<!-- Node23&#45;&gt;Node30 -->
<g id="edge37" class="edge">
<title>Node23&#45;&gt;Node30</title>
<path fill="none" stroke="midnightblue" d="M1951.58,-72.73C1962.97,-62.31 1982.19,-44.71 1996.1,-31.97"/>
<polygon fill="midnightblue" stroke="midnightblue" points="1998.56,-34.46 2003.58,-25.13 1993.84,-29.3 1998.56,-34.46"/>
</g>
<!-- Node31 -->
<g id="node31" class="node">
<title>Node31</title>
<g id="a_node31"><a xlink:title=" ">
<polygon fill="none" stroke="#bfbfbf" points="2081,-6 2081,-25 2173,-25 2173,-6 2081,-6"/>
<text text-anchor="middle" x="2127" y="-13" font-family="Helvetica,sans-Serif" font-size="10.00">rclcpp/time.hpp</text>
</a>
</g>
</g>
<!-- Node23&#45;&gt;Node31 -->
<g id="edge38" class="edge">
<title>Node23&#45;&gt;Node31</title>
<path fill="none" stroke="midnightblue" d="M1966.57,-72.87C1999,-61.47 2056.27,-41.35 2092.88,-28.49"/>
<polygon fill="midnightblue" stroke="midnightblue" points="2094.35,-31.68 2102.63,-25.06 2092.03,-25.08 2094.35,-31.68"/>
</g>
<!-- Node32 -->
<g id="node32" class="node">
<title>Node32</title>
<g id="a_node32"><a xlink:title=" ">
<polygon fill="none" stroke="#bfbfbf" points="2191.5,-6 2191.5,-25 2282.5,-25 2282.5,-6 2191.5,-6"/>
<text text-anchor="middle" x="2237" y="-13" font-family="Helvetica,sans-Serif" font-size="10.00">tf2/convert.hpp</text>
</a>
</g>
</g>
<!-- Node23&#45;&gt;Node32 -->
<g id="edge39" class="edge">
<title>Node23&#45;&gt;Node32</title>
<path fill="none" stroke="midnightblue" d="M1985.94,-72.94C2034.18,-63.39 2113.84,-47.14 2182,-31 2186.44,-29.95 2191.08,-28.8 2195.69,-27.63"/>
<polygon fill="midnightblue" stroke="midnightblue" points="2196.85,-30.95 2205.66,-25.06 2195.1,-24.17 2196.85,-30.95"/>
</g>
<!-- Node33 -->
<g id="node33" class="node">
<title>Node33</title>
<g id="a_node33"><a xlink:title=" ">
<polygon fill="none" stroke="#bfbfbf" points="2300.5,-6 2300.5,-25 2375.5,-25 2375.5,-6 2300.5,-6"/>
<text text-anchor="middle" x="2338" y="-13" font-family="Helvetica,sans-Serif" font-size="10.00">tf2/utils.hpp</text>
</a>
</g>
</g>
<!-- Node23&#45;&gt;Node33 -->
<g id="edge40" class="edge">
<title>Node23&#45;&gt;Node33</title>
<path fill="none" stroke="midnightblue" d="M2028.3,-72.99C2099.58,-65.03 2203.12,-51.28 2292,-31 2295.84,-30.12 2299.82,-29.08 2303.76,-27.96"/>
<polygon fill="midnightblue" stroke="midnightblue" points="2304.8,-31.3 2313.37,-25.07 2302.79,-24.6 2304.8,-31.3"/>
</g>
<!-- Node34 -->
<g id="node34" class="node">
<title>Node34</title>
<g id="a_node34"><a xlink:title=" ">
<polygon fill="none" stroke="#bfbfbf" points="2393,-0.5 2393,-30.5 2509,-30.5 2509,-0.5 2393,-0.5"/>
<text text-anchor="start" x="2401" y="-18.5" font-family="Helvetica,sans-Serif" font-size="10.00">tf2_ros/create_timer</text>
<text text-anchor="middle" x="2451" y="-7.5" font-family="Helvetica,sans-Serif" font-size="10.00">_ros.hpp</text>
</a>
</g>
</g>
<!-- Node23&#45;&gt;Node34 -->
<g id="edge41" class="edge">
<title>Node23&#45;&gt;Node34</title>
<path fill="none" stroke="midnightblue" d="M2028.12,-74.32C2115.38,-66.45 2254.4,-52.26 2382.75,-31.29"/>
<polygon fill="midnightblue" stroke="midnightblue" points="2383.46,-34.72 2392.76,-29.64 2382.32,-27.81 2383.46,-34.72"/>
</g>
<!-- Node35 -->
<g id="node35" class="node">
<title>Node35</title>
<g id="a_node35"><a target="_parent" xlink:href="../../../../../../beluga_ros/docs/_doxygen/generated/reference/html/tf2__sophus_8hpp.html.html" xlink:title=" ">
<polygon fill="none" stroke="black" points="2527.5,-6 2527.5,-25 2674.5,-25 2674.5,-6 2527.5,-6"/>
<text text-anchor="middle" x="2601" y="-13" font-family="Helvetica,sans-Serif" font-size="10.00">beluga_ros/tf2_sophus.hpp</text>
</a>
</g>
</g>
<!-- Node23&#45;&gt;Node35 -->
<g id="edge44" class="edge">
<title>Node23&#45;&gt;Node35</title>
<path fill="none" stroke="midnightblue" d="M2028.13,-76.26C2140.95,-68.86 2344.81,-53.68 2518,-31 2527.16,-29.8 2536.85,-28.31 2546.26,-26.75"/>
<polygon fill="midnightblue" stroke="midnightblue" points="2547.04,-30.16 2556.31,-25.03 2545.86,-23.26 2547.04,-30.16"/>
</g>
</g>
</svg>
