<?xml version="1.0" encoding="UTF-8" standalone="no"?>
<!DOCTYPE svg PUBLIC "-//W3C//DTD SVG 1.1//EN"
 "http://www.w3.org/Graphics/SVG/1.1/DTD/svg11.dtd">
<!-- Generated by graphviz version 2.43.0 (0)
 -->
<!-- Title: /home/runner/work/beluga/beluga/beluga_amcl/include/beluga_amcl/amcl_node.hpp Pages: 1 -->
<svg width="2352pt" height="117pt"
 viewBox="0.00 0.00 2351.50 117.00" xmlns="http://www.w3.org/2000/svg" xmlns:xlink="http://www.w3.org/1999/xlink">
<g id="graph0" class="graph" transform="scale(1 1) rotate(0) translate(4 113)">
<title>/home/runner/work/beluga/beluga/beluga_amcl/include/beluga_amcl/amcl_node.hpp</title>
<!-- Node1 -->
<g id="node1" class="node">
<title>Node1</title>
<g id="a_node1"><a xlink:title="ROS 2 integration of the 2D AMCL algorithm.">
<polygon fill="#bfbfbf" stroke="black" points="983,-67.5 983,-108.5 1142,-108.5 1142,-67.5 983,-67.5"/>
<text text-anchor="start" x="991" y="-96.5" font-family="Helvetica,sans-Serif" font-size="10.00">/home/runner/work/beluga</text>
<text text-anchor="start" x="991" y="-85.5" font-family="Helvetica,sans-Serif" font-size="10.00">/beluga/beluga_amcl/include</text>
<text text-anchor="middle" x="1062.5" y="-74.5" font-family="Helvetica,sans-Serif" font-size="10.00">/beluga_amcl/amcl_node.hpp</text>
</a>
</g>
</g>
<!-- Node2 -->
<g id="node2" class="node">
<title>Node2</title>
<g id="a_node2"><a xlink:title=" ">
<polygon fill="none" stroke="#bfbfbf" points="0,-6 0,-25 155,-25 155,-6 0,-6"/>
<text text-anchor="middle" x="77.5" y="-13" font-family="Helvetica,sans-Serif" font-size="10.00">message_filters/subscriber.h</text>
</a>
</g>
</g>
<!-- Node1&#45;&gt;Node2 -->
<g id="edge1" class="edge">
<title>Node1&#45;&gt;Node2</title>
<path fill="none" stroke="midnightblue" d="M982.98,-84.79C826.04,-79.82 465.58,-65.39 164.5,-31 154.46,-29.85 143.81,-28.33 133.54,-26.71"/>
<polygon fill="midnightblue" stroke="midnightblue" points="133.86,-23.22 123.43,-25.06 132.74,-30.13 133.86,-23.22"/>
</g>
<!-- Node3 -->
<g id="node3" class="node">
<title>Node3</title>
<g id="a_node3"><a xlink:title=" ">
<polygon fill="none" stroke="#bfbfbf" points="173.5,-6 173.5,-25 263.5,-25 263.5,-6 173.5,-6"/>
<text text-anchor="middle" x="218.5" y="-13" font-family="Helvetica,sans-Serif" font-size="10.00">tf2_ros/buffer.h</text>
</a>
</g>
</g>
<!-- Node1&#45;&gt;Node3 -->
<g id="edge2" class="edge">
<title>Node1&#45;&gt;Node3</title>
<path fill="none" stroke="midnightblue" d="M982.85,-86.38C839.69,-84.15 529.79,-74.25 272.5,-31 267.12,-30.09 261.49,-28.89 255.99,-27.55"/>
<polygon fill="midnightblue" stroke="midnightblue" points="256.86,-24.16 246.3,-25.06 255.11,-30.94 256.86,-24.16"/>
</g>
<!-- Node4 -->
<g id="node4" class="node">
<title>Node4</title>
<g id="a_node4"><a xlink:title=" ">
<polygon fill="none" stroke="#bfbfbf" points="281.5,-6 281.5,-25 415.5,-25 415.5,-6 281.5,-6"/>
<text text-anchor="middle" x="348.5" y="-13" font-family="Helvetica,sans-Serif" font-size="10.00">tf2_ros/message_filter.h</text>
</a>
</g>
</g>
<!-- Node1&#45;&gt;Node4 -->
<g id="edge3" class="edge">
<title>Node1&#45;&gt;Node4</title>
<path fill="none" stroke="midnightblue" d="M982.64,-82.59C861.54,-75.31 624.39,-58.77 424.5,-31 416.18,-29.84 407.39,-28.39 398.86,-26.85"/>
<polygon fill="midnightblue" stroke="midnightblue" points="399.47,-23.4 389,-25.01 398.19,-30.28 399.47,-23.4"/>
</g>
<!-- Node5 -->
<g id="node5" class="node">
<title>Node5</title>
<g id="a_node5"><a xlink:title=" ">
<polygon fill="none" stroke="#bfbfbf" points="434,-6 434,-25 607,-25 607,-6 434,-6"/>
<text text-anchor="middle" x="520.5" y="-13" font-family="Helvetica,sans-Serif" font-size="10.00">tf2_ros/transform_broadcaster.h</text>
</a>
</g>
</g>
<!-- Node1&#45;&gt;Node5 -->
<g id="edge4" class="edge">
<title>Node1&#45;&gt;Node5</title>
<path fill="none" stroke="midnightblue" d="M982.66,-77.59C893.36,-66.91 744.44,-48.69 616.5,-31 606.38,-29.6 595.67,-28.05 585.21,-26.5"/>
<polygon fill="midnightblue" stroke="midnightblue" points="585.7,-23.03 575.29,-25.02 584.67,-29.96 585.7,-23.03"/>
</g>
<!-- Node6 -->
<g id="node6" class="node">
<title>Node6</title>
<g id="a_node6"><a xlink:title=" ">
<polygon fill="none" stroke="#bfbfbf" points="625.5,-6 625.5,-25 777.5,-25 777.5,-6 625.5,-6"/>
<text text-anchor="middle" x="701.5" y="-13" font-family="Helvetica,sans-Serif" font-size="10.00">tf2_ros/transform_listener.h</text>
</a>
</g>
</g>
<!-- Node1&#45;&gt;Node6 -->
<g id="edge5" class="edge">
<title>Node1&#45;&gt;Node6</title>
<path fill="none" stroke="midnightblue" d="M982.83,-71.44C913.74,-57.95 815.63,-38.79 755.4,-27.03"/>
<polygon fill="midnightblue" stroke="midnightblue" points="755.82,-23.54 745.34,-25.06 754.48,-30.41 755.82,-23.54"/>
</g>
<!-- Node7 -->
<g id="node7" class="node">
<title>Node7</title>
<g id="a_node7"><a xlink:title=" ">
<polygon fill="none" stroke="#bfbfbf" points="795.5,-6 795.5,-25 853.5,-25 853.5,-6 795.5,-6"/>
<text text-anchor="middle" x="824.5" y="-13" font-family="Helvetica,sans-Serif" font-size="10.00">memory</text>
</a>
</g>
</g>
<!-- Node1&#45;&gt;Node7 -->
<g id="edge6" class="edge">
<title>Node1&#45;&gt;Node7</title>
<path fill="none" stroke="midnightblue" d="M986.5,-67.48C948.94,-57.38 903.08,-44.39 862.5,-31 860.24,-30.25 857.91,-29.45 855.58,-28.62"/>
<polygon fill="midnightblue" stroke="midnightblue" points="856.67,-25.3 846.08,-25.13 854.26,-31.87 856.67,-25.3"/>
</g>
<!-- Node8 -->
<g id="node8" class="node">
<title>Node8</title>
<g id="a_node8"><a xlink:title=" ">
<polygon fill="none" stroke="#bfbfbf" points="871.5,-6 871.5,-25 927.5,-25 927.5,-6 871.5,-6"/>
<text text-anchor="middle" x="899.5" y="-13" font-family="Helvetica,sans-Serif" font-size="10.00">optional</text>
</a>
</g>
</g>
<!-- Node1&#45;&gt;Node8 -->
<g id="edge7" class="edge">
<title>Node1&#45;&gt;Node8</title>
<path fill="none" stroke="midnightblue" d="M1017.1,-67.36C988.95,-55.19 953.6,-39.9 929.04,-29.28"/>
<polygon fill="midnightblue" stroke="midnightblue" points="930.12,-25.93 919.55,-25.17 927.34,-32.36 930.12,-25.93"/>
</g>
<!-- Node9 -->
<g id="node9" class="node">
<title>Node9</title>
<g id="a_node9"><a xlink:title=" ">
<polygon fill="none" stroke="#bfbfbf" points="946,-6 946,-25 991,-25 991,-6 946,-6"/>
<text text-anchor="middle" x="968.5" y="-13" font-family="Helvetica,sans-Serif" font-size="10.00">utility</text>
</a>
</g>
</g>
<!-- Node1&#45;&gt;Node9 -->
<g id="edge8" class="edge">
<title>Node1&#45;&gt;Node9</title>
<path fill="none" stroke="midnightblue" d="M1036.32,-67.36C1021.16,-56 1002.4,-41.92 988.45,-31.46"/>
<polygon fill="midnightblue" stroke="midnightblue" points="990.16,-28.37 980.06,-25.17 985.96,-33.97 990.16,-28.37"/>
</g>
<!-- Node10 -->
<g id="node10" class="node">
<title>Node10</title>
<g id="a_node10"><a xlink:title=" ">
<polygon fill="none" stroke="#bfbfbf" points="1009.5,-6 1009.5,-25 1115.5,-25 1115.5,-6 1009.5,-6"/>
<text text-anchor="middle" x="1062.5" y="-13" font-family="Helvetica,sans-Serif" font-size="10.00">bondcpp/bond.hpp</text>
</a>
</g>
</g>
<!-- Node1&#45;&gt;Node10 -->
<g id="edge9" class="edge">
<title>Node1&#45;&gt;Node10</title>
<path fill="none" stroke="midnightblue" d="M1062.5,-67.36C1062.5,-57.3 1062.5,-45.1 1062.5,-35.18"/>
<polygon fill="midnightblue" stroke="midnightblue" points="1066,-35.17 1062.5,-25.17 1059,-35.17 1066,-35.17"/>
</g>
<!-- Node11 -->
<g id="node11" class="node">
<title>Node11</title>
<g id="a_node11"><a xlink:title=" ">
<polygon fill="none" stroke="#bfbfbf" points="1133.5,-0.5 1133.5,-30.5 1279.5,-30.5 1279.5,-0.5 1133.5,-0.5"/>
<text text-anchor="start" x="1141.5" y="-18.5" font-family="Helvetica,sans-Serif" font-size="10.00">geometry_msgs/msg/pose</text>
<text text-anchor="middle" x="1206.5" y="-7.5" font-family="Helvetica,sans-Serif" font-size="10.00">_array.hpp</text>
</a>
</g>
</g>
<!-- Node1&#45;&gt;Node11 -->
<g id="edge10" class="edge">
<title>Node1&#45;&gt;Node11</title>
<path fill="none" stroke="midnightblue" d="M1102.61,-67.36C1123.16,-57.3 1148.05,-45.12 1168.31,-35.2"/>
<polygon fill="midnightblue" stroke="midnightblue" points="1170.11,-38.21 1177.56,-30.67 1167.04,-31.92 1170.11,-38.21"/>
</g>
<!-- Node12 -->
<g id="node12" class="node">
<title>Node12</title>
<g id="a_node12"><a xlink:title=" ">
<polygon fill="none" stroke="#bfbfbf" points="1297.5,-0.5 1297.5,-30.5 1467.5,-30.5 1467.5,-0.5 1297.5,-0.5"/>
<text text-anchor="start" x="1305.5" y="-18.5" font-family="Helvetica,sans-Serif" font-size="10.00">geometry_msgs/msg/pose</text>
<text text-anchor="middle" x="1382.5" y="-7.5" font-family="Helvetica,sans-Serif" font-size="10.00">_with_covariance_stamped.hpp</text>
</a>
</g>
</g>
<!-- Node1&#45;&gt;Node12 -->
<g id="edge11" class="edge">
<title>Node1&#45;&gt;Node12</title>
<path fill="none" stroke="midnightblue" d="M1142.01,-69.48C1193.1,-58.23 1258.99,-43.71 1308.87,-32.72"/>
<polygon fill="midnightblue" stroke="midnightblue" points="1309.93,-36.07 1318.95,-30.5 1308.43,-29.24 1309.93,-36.07"/>
</g>
<!-- Node13 -->
<g id="node13" class="node">
<title>Node13</title>
<g id="a_node13"><a xlink:title=" ">
<polygon fill="none" stroke="#bfbfbf" points="1486,-0.5 1486,-30.5 1631,-30.5 1631,-0.5 1486,-0.5"/>
<text text-anchor="start" x="1494" y="-18.5" font-family="Helvetica,sans-Serif" font-size="10.00">nav_msgs/msg/occupancy</text>
<text text-anchor="middle" x="1558.5" y="-7.5" font-family="Helvetica,sans-Serif" font-size="10.00">_grid.hpp</text>
</a>
</g>
</g>
<!-- Node1&#45;&gt;Node13 -->
<g id="edge12" class="edge">
<title>Node1&#45;&gt;Node13</title>
<path fill="none" stroke="midnightblue" d="M1142.01,-77.22C1223.26,-67 1353.33,-50.03 1475.72,-31.08"/>
<polygon fill="midnightblue" stroke="midnightblue" points="1476.3,-34.54 1485.65,-29.54 1475.23,-27.62 1476.3,-34.54"/>
</g>
<!-- Node14 -->
<g id="node14" class="node">
<title>Node14</title>
<g id="a_node14"><a xlink:title=" ">
<polygon fill="none" stroke="#bfbfbf" points="1649,-0.5 1649,-30.5 1786,-30.5 1786,-0.5 1649,-0.5"/>
<text text-anchor="start" x="1657" y="-18.5" font-family="Helvetica,sans-Serif" font-size="10.00">rclcpp_lifecycle/lifecycle</text>
<text text-anchor="middle" x="1717.5" y="-7.5" font-family="Helvetica,sans-Serif" font-size="10.00">_node.hpp</text>
</a>
</g>
</g>
<!-- Node1&#45;&gt;Node14 -->
<g id="edge13" class="edge">
<title>Node1&#45;&gt;Node14</title>
<path fill="none" stroke="midnightblue" d="M1142.24,-81.54C1251.96,-73.53 1455.8,-56.83 1638.63,-31.2"/>
<polygon fill="midnightblue" stroke="midnightblue" points="1639.29,-34.64 1648.7,-29.77 1638.31,-27.71 1639.29,-34.64"/>
</g>
<!-- Node15 -->
<g id="node15" class="node">
<title>Node15</title>
<g id="a_node15"><a xlink:title=" ">
<polygon fill="none" stroke="#bfbfbf" points="1804,-0.5 1804,-30.5 1935,-30.5 1935,-0.5 1804,-0.5"/>
<text text-anchor="start" x="1812" y="-18.5" font-family="Helvetica,sans-Serif" font-size="10.00">sensor_msgs/msg/laser</text>
<text text-anchor="middle" x="1869.5" y="-7.5" font-family="Helvetica,sans-Serif" font-size="10.00">_scan.hpp</text>
</a>
</g>
</g>
<!-- Node1&#45;&gt;Node15 -->
<g id="edge14" class="edge">
<title>Node1&#45;&gt;Node15</title>
<path fill="none" stroke="midnightblue" d="M1142,-83.98C1275.05,-78.26 1551.32,-63.5 1793.74,-31.14"/>
<polygon fill="midnightblue" stroke="midnightblue" points="1794.36,-34.59 1803.8,-29.79 1793.42,-27.66 1794.36,-34.59"/>
</g>
<!-- Node16 -->
<g id="node16" class="node">
<title>Node16</title>
<g id="a_node16"><a xlink:title=" ">
<polygon fill="none" stroke="#bfbfbf" points="1953,-6 1953,-25 2082,-25 2082,-6 1953,-6"/>
<text text-anchor="middle" x="2017.5" y="-13" font-family="Helvetica,sans-Serif" font-size="10.00">std_srvs/srv/empty.hpp</text>
</a>
</g>
</g>
<!-- Node1&#45;&gt;Node16 -->
<g id="edge15" class="edge">
<title>Node1&#45;&gt;Node16</title>
<path fill="none" stroke="midnightblue" d="M1142.2,-85.48C1297.3,-81.73 1650.29,-69.39 1944.5,-31 1952.61,-29.94 1961.17,-28.52 1969.46,-26.98"/>
<polygon fill="midnightblue" stroke="midnightblue" points="1970.24,-30.4 1979.39,-25.06 1968.91,-23.52 1970.24,-30.4"/>
</g>
<!-- Node17 -->
<g id="node17" class="node">
<title>Node17</title>
<g id="a_node17"><a target="_parent" xlink:href="../../../../../../beluga/docs/_doxygen/generated/reference/html/beluga_8hpp.html.html" xlink:title=" ">
<polygon fill="none" stroke="black" points="2100,-6 2100,-25 2207,-25 2207,-6 2100,-6"/>
<text text-anchor="middle" x="2153.5" y="-13" font-family="Helvetica,sans-Serif" font-size="10.00">beluga/beluga.hpp</text>
</a>
</g>
</g>
<!-- Node1&#45;&gt;Node17 -->
<g id="edge16" class="edge">
<title>Node1&#45;&gt;Node17</title>
<path fill="none" stroke="midnightblue" d="M1142.04,-87.4C1315.44,-87.25 1740.16,-81.25 2091.5,-31 2098.19,-30.04 2105.22,-28.72 2112.05,-27.25"/>
<polygon fill="midnightblue" stroke="midnightblue" points="2112.86,-30.65 2121.84,-25.03 2111.32,-23.83 2112.86,-30.65"/>
</g>
<!-- Node18 -->
<g id="node18" class="node">
<title>Node18</title>
<g id="a_node18"><a target="_parent" xlink:href="../../../../../../beluga_ros/docs/_doxygen/generated/reference/html/amcl_8hpp.html.html" xlink:title=" ">
<polygon fill="none" stroke="black" points="2225.5,-6 2225.5,-25 2343.5,-25 2343.5,-6 2225.5,-6"/>
<text text-anchor="middle" x="2284.5" y="-13" font-family="Helvetica,sans-Serif" font-size="10.00">beluga_ros/amcl.hpp</text>
</a>
</g>
</g>
<!-- Node1&#45;&gt;Node18 -->
<g id="edge17" class="edge">
<title>Node1&#45;&gt;Node18</title>
<path fill="none" stroke="midnightblue" d="M1142.29,-87.55C1330.29,-87.89 1815.45,-83.14 2216.5,-31 2224.07,-30.02 2232.06,-28.63 2239.79,-27.11"/>
<polygon fill="midnightblue" stroke="midnightblue" points="2240.66,-30.5 2249.74,-25.04 2239.24,-23.64 2240.66,-30.5"/>
</g>
</g>
</svg>
