<?xml version="1.0" encoding="UTF-8" standalone="no"?>
<!DOCTYPE svg PUBLIC "-//W3C//DTD SVG 1.1//EN"
 "http://www.w3.org/Graphics/SVG/1.1/DTD/svg11.dtd">
<!-- Generated by graphviz version 2.43.0 (0)
 -->
<!-- Title: /home/runner/work/beluga/beluga/beluga_amcl/include/beluga_amcl/amcl_node.hpp Pages: 1 -->
<!--zoomable 117 -->
<svg id="main" version="1.1" xmlns="http://www.w3.org/2000/svg" xmlns:xlink="http://www.w3.org/1999/xlink" xml:space="preserve" onload="init(evt)">
<style type="text/css"><![CDATA[
.edge:hover path { stroke: red; }
.edge:hover polygon { stroke: red; fill: red; }
]]></style>
<script type="text/javascript"><![CDATA[
var edges = document.getElementsByTagName('g');
if (edges && edges.length) {
  for (var i=0;i<edges.length;i++) {
    if (edges[i].id.substr(0,4)=='edge') {
      edges[i].setAttribute('class','edge');
    }
  }
}
]]></script>
        <defs>
                <circle id="rim" cx="0" cy="0" r="7"/>
                <circle id="rim2" cx="0" cy="0" r="3.5"/>
                <g id="zoomPlus">
                        <use xlink:href="#rim" fill="#404040">
                                <set attributeName="fill" to="#808080" begin="zoomplus.mouseover" end="zoomplus.mouseout"/>
                        </use>
                        <path d="M-4,0h8M0,-4v8" fill="none" stroke="white" stroke-width="1.5" pointer-events="none"/>
                </g>
                <g id="zoomMin">
                        <use xlink:href="#rim" fill="#404040">
                                <set attributeName="fill" to="#808080" begin="zoomminus.mouseover" end="zoomminus.mouseout"/>
                        </use>
                        <path d="M-4,0h8" fill="none" stroke="white" stroke-width="1.5" pointer-events="none"/>
                </g>
                <g id="dirArrow">
                        <path fill="none" stroke="white" stroke-width="1.5" d="M0,-3.0v7 M-2.5,-0.5L0,-3.0L2.5,-0.5"/>
                </g>
               <g id="resetDef">
                       <use xlink:href="#rim2" fill="#404040">
                               <set attributeName="fill" to="#808080" begin="reset.mouseover" end="reset.mouseout"/>
                       </use>
               </g>
        </defs>

<script type="text/javascript">
var viewWidth = 2499;
var viewHeight = 117;
var sectionId = 'dynsection-0';
</script>
<script xlink:href="svgpan.js"/>
<svg id="graph" class="graph">
<g id="viewport">
<title>/home/runner/work/beluga/beluga/beluga_amcl/include/beluga_amcl/amcl_node.hpp</title>
<!-- Node1 -->
<g id="node1" class="node">
<title>Node1</title>
<g id="a_node1"><a xlink:title="ROS 2 integration of the 2D AMCL algorithm.">
<polygon fill="#bfbfbf" stroke="black" points="1052.5,-67.5 1052.5,-108.5 1211.5,-108.5 1211.5,-67.5 1052.5,-67.5"/>
<text text-anchor="start" x="1060.5" y="-96.5" font-family="Helvetica,sans-Serif" font-size="10.00">/home/runner/work/beluga</text>
<text text-anchor="start" x="1060.5" y="-85.5" font-family="Helvetica,sans-Serif" font-size="10.00">/beluga/beluga_amcl/include</text>
<text text-anchor="middle" x="1132" y="-74.5" font-family="Helvetica,sans-Serif" font-size="10.00">/beluga_amcl/amcl_node.hpp</text>
</a>
</g>
</g>
<!-- Node2 -->
<g id="node2" class="node">
<title>Node2</title>
<g id="a_node2"><a xlink:title=" ">
<polygon fill="none" stroke="#bfbfbf" points="0,-6 0,-25 58,-25 58,-6 0,-6"/>
<text text-anchor="middle" x="29" y="-13" font-family="Helvetica,sans-Serif" font-size="10.00">memory</text>
</a>
</g>
</g>
<!-- Node1&#45;&gt;Node2 -->
<g id="edge1" class="edge">
<title>Node1&#45;&gt;Node2</title>
<path fill="none" stroke="midnightblue" d="M1052.43,-86.02C838.6,-82.87 255.05,-70.79 67,-31 63.92,-30.35 60.76,-29.48 57.65,-28.5"/>
<polygon fill="midnightblue" stroke="midnightblue" points="58.57,-25.12 47.98,-25.07 56.23,-31.71 58.57,-25.12"/>
</g>
<!-- Node3 -->
<g id="node3" class="node">
<title>Node3</title>
<g id="a_node3"><a xlink:title=" ">
<polygon fill="none" stroke="#bfbfbf" points="76,-6 76,-25 132,-25 132,-6 76,-6"/>
<text text-anchor="middle" x="104" y="-13" font-family="Helvetica,sans-Serif" font-size="10.00">optional</text>
</a>
</g>
</g>
<!-- Node1&#45;&gt;Node3 -->
<g id="edge2" class="edge">
<title>Node1&#45;&gt;Node3</title>
<path fill="none" stroke="midnightblue" d="M1052.46,-85.75C849.13,-82.02 314.2,-68.82 141,-31 138,-30.34 134.92,-29.48 131.88,-28.49"/>
<polygon fill="midnightblue" stroke="midnightblue" points="133.06,-25.2 122.46,-25.06 130.66,-31.77 133.06,-25.2"/>
</g>
<!-- Node4 -->
<g id="node4" class="node">
<title>Node4</title>
<g id="a_node4"><a xlink:title=" ">
<polygon fill="none" stroke="#bfbfbf" points="150.5,-6 150.5,-25 195.5,-25 195.5,-6 150.5,-6"/>
<text text-anchor="middle" x="173" y="-13" font-family="Helvetica,sans-Serif" font-size="10.00">utility</text>
</a>
</g>
</g>
<!-- Node1&#45;&gt;Node4 -->
<g id="edge3" class="edge">
<title>Node1&#45;&gt;Node4</title>
<path fill="none" stroke="midnightblue" d="M1052.44,-86.03C858.11,-83.04 363.56,-71.55 204,-31 202.01,-30.5 200,-29.86 198,-29.15"/>
<polygon fill="midnightblue" stroke="midnightblue" points="198.92,-25.74 188.34,-25.07 196.2,-32.18 198.92,-25.74"/>
</g>
<!-- Node5 -->
<g id="node5" class="node">
<title>Node5</title>
<g id="a_node5"><a xlink:title=" ">
<polygon fill="none" stroke="#bfbfbf" points="213.5,-6 213.5,-25 368.5,-25 368.5,-6 213.5,-6"/>
<text text-anchor="middle" x="291" y="-13" font-family="Helvetica,sans-Serif" font-size="10.00">message_filters/subscriber.h</text>
</a>
</g>
</g>
<!-- Node1&#45;&gt;Node5 -->
<g id="edge4" class="edge">
<title>Node1&#45;&gt;Node5</title>
<path fill="none" stroke="midnightblue" d="M1052.25,-83.47C914.41,-76.83 622.85,-60.43 378,-31 368.08,-29.81 357.56,-28.28 347.4,-26.67"/>
<polygon fill="midnightblue" stroke="midnightblue" points="347.83,-23.19 337.39,-25.04 346.7,-30.1 347.83,-23.19"/>
</g>
<!-- Node6 -->
<g id="node6" class="node">
<title>Node6</title>
<g id="a_node6"><a xlink:title=" ">
<polygon fill="none" stroke="#bfbfbf" points="387,-6 387,-25 477,-25 477,-6 387,-6"/>
<text text-anchor="middle" x="432" y="-13" font-family="Helvetica,sans-Serif" font-size="10.00">tf2_ros/buffer.h</text>
</a>
</g>
</g>
<!-- Node1&#45;&gt;Node6 -->
<g id="edge5" class="edge">
<title>Node1&#45;&gt;Node6</title>
<path fill="none" stroke="midnightblue" d="M1052.36,-84.6C929.82,-79.89 688.05,-66.6 486,-31 480.82,-30.09 475.4,-28.91 470.09,-27.62"/>
<polygon fill="midnightblue" stroke="midnightblue" points="470.65,-24.15 460.1,-25.05 468.91,-30.93 470.65,-24.15"/>
</g>
<!-- Node7 -->
<g id="node7" class="node">
<title>Node7</title>
<g id="a_node7"><a xlink:title=" ">
<polygon fill="none" stroke="#bfbfbf" points="495,-6 495,-25 629,-25 629,-6 495,-6"/>
<text text-anchor="middle" x="562" y="-13" font-family="Helvetica,sans-Serif" font-size="10.00">tf2_ros/message_filter.h</text>
</a>
</g>
</g>
<!-- Node1&#45;&gt;Node7 -->
<g id="edge6" class="edge">
<title>Node1&#45;&gt;Node7</title>
<path fill="none" stroke="midnightblue" d="M1052.19,-79.83C954.31,-70.6 783.5,-53.09 638,-31 630.16,-29.81 621.89,-28.4 613.8,-26.93"/>
<polygon fill="midnightblue" stroke="midnightblue" points="614.19,-23.44 603.71,-25.05 612.91,-30.32 614.19,-23.44"/>
</g>
<!-- Node8 -->
<g id="node8" class="node">
<title>Node8</title>
<g id="a_node8"><a xlink:title=" ">
<polygon fill="none" stroke="#bfbfbf" points="647.5,-6 647.5,-25 820.5,-25 820.5,-6 647.5,-6"/>
<text text-anchor="middle" x="734" y="-13" font-family="Helvetica,sans-Serif" font-size="10.00">tf2_ros/transform_broadcaster.h</text>
</a>
</g>
</g>
<!-- Node1&#45;&gt;Node8 -->
<g id="edge7" class="edge">
<title>Node1&#45;&gt;Node8</title>
<path fill="none" stroke="midnightblue" d="M1052.42,-72.9C975.6,-59.3 861.12,-39.02 792.39,-26.84"/>
<polygon fill="midnightblue" stroke="midnightblue" points="792.63,-23.33 782.18,-25.03 791.41,-30.22 792.63,-23.33"/>
</g>
<!-- Node9 -->
<g id="node9" class="node">
<title>Node9</title>
<g id="a_node9"><a xlink:title=" ">
<polygon fill="none" stroke="#bfbfbf" points="839,-6 839,-25 991,-25 991,-6 839,-6"/>
<text text-anchor="middle" x="915" y="-13" font-family="Helvetica,sans-Serif" font-size="10.00">tf2_ros/transform_listener.h</text>
</a>
</g>
</g>
<!-- Node1&#45;&gt;Node9 -->
<g id="edge8" class="edge">
<title>Node1&#45;&gt;Node9</title>
<path fill="none" stroke="midnightblue" d="M1071.84,-67.46C1032.97,-54.83 983.68,-38.81 950.84,-28.14"/>
<polygon fill="midnightblue" stroke="midnightblue" points="951.8,-24.77 941.2,-25.01 949.63,-31.43 951.8,-24.77"/>
</g>
<!-- Node10 -->
<g id="node10" class="node">
<title>Node10</title>
<g id="a_node10"><a xlink:title=" ">
<polygon fill="none" stroke="#bfbfbf" points="1009,-6 1009,-25 1115,-25 1115,-6 1009,-6"/>
<text text-anchor="middle" x="1062" y="-13" font-family="Helvetica,sans-Serif" font-size="10.00">bondcpp/bond.hpp</text>
</a>
</g>
</g>
<!-- Node1&#45;&gt;Node10 -->
<g id="edge9" class="edge">
<title>Node1&#45;&gt;Node10</title>
<path fill="none" stroke="midnightblue" d="M1112.5,-67.36C1101.54,-56.32 1088.04,-42.72 1077.75,-32.37"/>
<polygon fill="midnightblue" stroke="midnightblue" points="1080.14,-29.8 1070.61,-25.17 1075.17,-34.74 1080.14,-29.8"/>
</g>
<!-- Node11 -->
<g id="node11" class="node">
<title>Node11</title>
<g id="a_node11"><a xlink:title=" ">
<polygon fill="none" stroke="#bfbfbf" points="1133.5,-0.5 1133.5,-30.5 1270.5,-30.5 1270.5,-0.5 1133.5,-0.5"/>
<text text-anchor="start" x="1141.5" y="-18.5" font-family="Helvetica,sans-Serif" font-size="10.00">rclcpp_lifecycle/lifecycle</text>
<text text-anchor="middle" x="1202" y="-7.5" font-family="Helvetica,sans-Serif" font-size="10.00">_node.hpp</text>
</a>
</g>
</g>
<!-- Node1&#45;&gt;Node11 -->
<g id="edge10" class="edge">
<title>Node1&#45;&gt;Node11</title>
<path fill="none" stroke="midnightblue" d="M1151.5,-67.36C1160.56,-58.23 1171.37,-47.35 1180.65,-38"/>
<polygon fill="midnightblue" stroke="midnightblue" points="1183.15,-40.45 1187.71,-30.89 1178.18,-35.52 1183.15,-40.45"/>
</g>
<!-- Node12 -->
<g id="node12" class="node">
<title>Node12</title>
<g id="a_node12"><a xlink:title=" ">
<polygon fill="none" stroke="#bfbfbf" points="1289,-0.5 1289,-30.5 1435,-30.5 1435,-0.5 1289,-0.5"/>
<text text-anchor="start" x="1297" y="-18.5" font-family="Helvetica,sans-Serif" font-size="10.00">geometry_msgs/msg/pose</text>
<text text-anchor="middle" x="1362" y="-7.5" font-family="Helvetica,sans-Serif" font-size="10.00">_array.hpp</text>
</a>
</g>
</g>
<!-- Node1&#45;&gt;Node12 -->
<g id="edge11" class="edge">
<title>Node1&#45;&gt;Node12</title>
<path fill="none" stroke="midnightblue" d="M1195.76,-67.46C1230.49,-56.81 1273.05,-43.76 1306.42,-33.54"/>
<polygon fill="midnightblue" stroke="midnightblue" points="1307.48,-36.87 1316.01,-30.6 1305.42,-30.18 1307.48,-36.87"/>
</g>
<!-- Node13 -->
<g id="node13" class="node">
<title>Node13</title>
<g id="a_node13"><a xlink:title=" ">
<polygon fill="none" stroke="#bfbfbf" points="1453,-0.5 1453,-30.5 1623,-30.5 1623,-0.5 1453,-0.5"/>
<text text-anchor="start" x="1461" y="-18.5" font-family="Helvetica,sans-Serif" font-size="10.00">geometry_msgs/msg/pose</text>
<text text-anchor="middle" x="1538" y="-7.5" font-family="Helvetica,sans-Serif" font-size="10.00">_with_covariance_stamped.hpp</text>
</a>
</g>
</g>
<!-- Node1&#45;&gt;Node13 -->
<g id="edge12" class="edge">
<title>Node1&#45;&gt;Node13</title>
<path fill="none" stroke="midnightblue" d="M1211.73,-73.16C1279.3,-61.42 1376.2,-44.6 1446.84,-32.33"/>
<polygon fill="midnightblue" stroke="midnightblue" points="1447.81,-35.71 1457.07,-30.55 1446.61,-28.82 1447.81,-35.71"/>
</g>
<!-- Node14 -->
<g id="node14" class="node">
<title>Node14</title>
<g id="a_node14"><a xlink:title=" ">
<polygon fill="none" stroke="#bfbfbf" points="1641.5,-0.5 1641.5,-30.5 1786.5,-30.5 1786.5,-0.5 1641.5,-0.5"/>
<text text-anchor="start" x="1649.5" y="-18.5" font-family="Helvetica,sans-Serif" font-size="10.00">nav_msgs/msg/occupancy</text>
<text text-anchor="middle" x="1714" y="-7.5" font-family="Helvetica,sans-Serif" font-size="10.00">_grid.hpp</text>
</a>
</g>
</g>
<!-- Node1&#45;&gt;Node14 -->
<g id="edge13" class="edge">
<title>Node1&#45;&gt;Node14</title>
<path fill="none" stroke="midnightblue" d="M1211.87,-79.63C1308.61,-70.35 1476.75,-53.09 1631.02,-31.08"/>
<polygon fill="midnightblue" stroke="midnightblue" points="1631.76,-34.51 1641.16,-29.63 1630.77,-27.58 1631.76,-34.51"/>
</g>
<!-- Node15 -->
<g id="node15" class="node">
<title>Node15</title>
<g id="a_node15"><a xlink:title=" ">
<polygon fill="none" stroke="#bfbfbf" points="1804.5,-0.5 1804.5,-30.5 1935.5,-30.5 1935.5,-0.5 1804.5,-0.5"/>
<text text-anchor="start" x="1812.5" y="-18.5" font-family="Helvetica,sans-Serif" font-size="10.00">sensor_msgs/msg/laser</text>
<text text-anchor="middle" x="1870" y="-7.5" font-family="Helvetica,sans-Serif" font-size="10.00">_scan.hpp</text>
</a>
</g>
</g>
<!-- Node1&#45;&gt;Node15 -->
<g id="edge14" class="edge">
<title>Node1&#45;&gt;Node15</title>
<path fill="none" stroke="midnightblue" d="M1211.53,-83.11C1334.55,-76.47 1578.51,-60.82 1794.36,-31.14"/>
<polygon fill="midnightblue" stroke="midnightblue" points="1794.87,-34.6 1804.3,-29.76 1793.91,-27.67 1794.87,-34.6"/>
</g>
<!-- Node16 -->
<g id="node16" class="node">
<title>Node16</title>
<g id="a_node16"><a xlink:title=" ">
<polygon fill="none" stroke="#bfbfbf" points="1953.5,-6 1953.5,-25 2082.5,-25 2082.5,-6 1953.5,-6"/>
<text text-anchor="middle" x="2018" y="-13" font-family="Helvetica,sans-Serif" font-size="10.00">std_srvs/srv/empty.hpp</text>
</a>
</g>
</g>
<!-- Node1&#45;&gt;Node16 -->
<g id="edge15" class="edge">
<title>Node1&#45;&gt;Node16</title>
<path fill="none" stroke="midnightblue" d="M1211.68,-84.88C1357.67,-80.24 1677.66,-66.61 1945,-31 1953.1,-29.92 1961.66,-28.49 1969.95,-26.95"/>
<polygon fill="midnightblue" stroke="midnightblue" points="1970.73,-30.36 1979.89,-25.02 1969.4,-23.49 1970.73,-30.36"/>
</g>
<!-- Node17 -->
<g id="node17" class="node">
<title>Node17</title>
<g id="a_node17"><a xlink:title=" ">
<polygon fill="none" stroke="#bfbfbf" points="2101,-0.5 2101,-30.5 2229,-30.5 2229,-0.5 2101,-0.5"/>
<text text-anchor="start" x="2109" y="-18.5" font-family="Helvetica,sans-Serif" font-size="10.00">visualization_msgs</text>
<text text-anchor="middle" x="2165" y="-7.5" font-family="Helvetica,sans-Serif" font-size="10.00">/msg/marker_array.hpp</text>
</a>
</g>
</g>
<!-- Node1&#45;&gt;Node17 -->
<g id="edge16" class="edge">
<title>Node1&#45;&gt;Node17</title>
<path fill="none" stroke="midnightblue" d="M1211.68,-86.06C1374.93,-83.32 1759.23,-72.75 2090.7,-31.04"/>
<polygon fill="midnightblue" stroke="midnightblue" points="2091.51,-34.47 2100.99,-29.73 2090.63,-27.52 2091.51,-34.47"/>
</g>
<!-- Node18 -->
<g id="node18" class="node">
<title>Node18</title>
<g id="a_node18"><a target="_parent" xlink:href="../../../../../../beluga/docs/_doxygen/generated/reference/html/beluga_8hpp.html.html" xlink:title=" ">
<polygon fill="none" stroke="black" points="2247.5,-6 2247.5,-25 2354.5,-25 2354.5,-6 2247.5,-6"/>
<text text-anchor="middle" x="2301" y="-13" font-family="Helvetica,sans-Serif" font-size="10.00">beluga/beluga.hpp</text>
</a>
</g>
</g>
<!-- Node1&#45;&gt;Node18 -->
<g id="edge17" class="edge">
<title>Node1&#45;&gt;Node18</title>
<path fill="none" stroke="midnightblue" d="M1211.58,-87.74C1394.03,-88.41 1856.21,-84.18 2238,-31 2244.8,-30.05 2251.94,-28.73 2258.88,-27.27"/>
<polygon fill="midnightblue" stroke="midnightblue" points="2259.83,-30.64 2268.83,-25.05 2258.31,-23.81 2259.83,-30.64"/>
</g>
<!-- Node19 -->
<g id="node19" class="node">
<title>Node19</title>
<g id="a_node19"><a target="_parent" xlink:href="../../../../../../beluga_ros/docs/_doxygen/generated/reference/html/amcl_8hpp.html.html" xlink:title=" ">
<polygon fill="none" stroke="black" points="2373,-6 2373,-25 2491,-25 2491,-6 2373,-6"/>
<text text-anchor="middle" x="2432" y="-13" font-family="Helvetica,sans-Serif" font-size="10.00">beluga_ros/amcl.hpp</text>
</a>
</g>
</g>
<!-- Node1&#45;&gt;Node19 -->
<g id="edge18" class="edge">
<title>Node1&#45;&gt;Node19</title>
<path fill="none" stroke="midnightblue" d="M1211.63,-85.1C1447.47,-79.18 2139.82,-59.8 2364,-31 2371.58,-30.03 2379.56,-28.65 2387.29,-27.13"/>
<polygon fill="midnightblue" stroke="midnightblue" points="2388.17,-30.52 2397.25,-25.06 2386.74,-23.66 2388.17,-30.52"/>
</g>
</g>
</svg>
        <g id="navigator" transform="translate(0 0)" fill="#404254">
                <rect fill="#f2f5e9" fill-opacity="0.5" stroke="#606060" stroke-width=".5" x="0" y="0" width="60" height="60"/>
                <use id="zoomplus" xlink:href="#zoomPlus" x="17" y="9" onmousedown="handleZoom(evt,'in')"/>
                <use id="zoomminus" xlink:href="#zoomMin" x="42" y="9" onmousedown="handleZoom(evt,'out')"/>
                <use id="reset" xlink:href="#resetDef" x="30" y="36" onmousedown="handleReset()"/>
                <g id="arrowUp" xlink:href="#dirArrow" transform="translate(30 24)" onmousedown="handlePan(0,-1)">
                  <use xlink:href="#rim" fill="#404040">
                        <set attributeName="fill" to="#808080" begin="arrowUp.mouseover" end="arrowUp.mouseout"/>
                  </use>
                  <path fill="none" stroke="white" stroke-width="1.5" d="M0,-3.0v7 M-2.5,-0.5L0,-3.0L2.5,-0.5"/>
                </g>
                <g id="arrowRight" xlink:href="#dirArrow" transform="rotate(90) translate(36 -43)" onmousedown="handlePan(1,0)">
                  <use xlink:href="#rim" fill="#404040">
                        <set attributeName="fill" to="#808080" begin="arrowRight.mouseover" end="arrowRight.mouseout"/>
                  </use>
                  <path fill="none" stroke="white" stroke-width="1.5" d="M0,-3.0v7 M-2.5,-0.5L0,-3.0L2.5,-0.5"/>
                </g>
                <g id="arrowDown" xlink:href="#dirArrow" transform="rotate(180) translate(-30 -48)" onmousedown="handlePan(0,1)">
                  <use xlink:href="#rim" fill="#404040">
                        <set attributeName="fill" to="#808080" begin="arrowDown.mouseover" end="arrowDown.mouseout"/>
                  </use>
                  <path fill="none" stroke="white" stroke-width="1.5" d="M0,-3.0v7 M-2.5,-0.5L0,-3.0L2.5,-0.5"/>
                </g>
                <g id="arrowLeft" xlink:href="#dirArrow" transform="rotate(270) translate(-36 17)" onmousedown="handlePan(-1,0)">
                  <use xlink:href="#rim" fill="#404040">
                        <set attributeName="fill" to="#808080" begin="arrowLeft.mouseover" end="arrowLeft.mouseout"/>
                  </use>
                  <path fill="none" stroke="white" stroke-width="1.5" d="M0,-3.0v7 M-2.5,-0.5L0,-3.0L2.5,-0.5"/>
                </g>
        </g>
        <svg viewBox="0 0 15 15" width="100%" height="30px" preserveAspectRatio="xMaxYMin meet">
         <g id="arrow_out" transform="scale(0.3 0.3)">
          <a xlink:href="amcl__node_8hpp__incl_org.svg" target="_base">
           <rect id="button" ry="5" rx="5" y="6" x="6" height="38" width="38"
                fill="#f2f5e9" fill-opacity="0.5" stroke="#606060" stroke-width="1.0"/>
           <path id="arrow"
             d="M 11.500037,31.436501 C 11.940474,20.09759 22.043105,11.32322 32.158766,21.979434 L 37.068811,17.246167 C 37.068811,17.246167 37.088388,32 37.088388,32 L 22.160133,31.978069 C 22.160133,31.978069 26.997745,27.140456 26.997745,27.140456 C 18.528582,18.264221 13.291696,25.230495 11.500037,31.436501 z"
             style="fill:#404040;"/>
          </a>
         </g>
        </svg>
</svg>
