<?xml version="1.0" encoding="UTF-8" standalone="no"?>
<!DOCTYPE svg PUBLIC "-//W3C//DTD SVG 1.1//EN"
 "http://www.w3.org/Graphics/SVG/1.1/DTD/svg11.dtd">
<!-- Generated by graphviz version 2.43.0 (0)
 -->
<!-- Title: /home/runner/work/beluga/beluga/beluga_amcl/include/beluga_amcl/amcl_node.hpp Pages: 1 -->
<svg width="3013pt" height="184pt"
 viewBox="0.00 0.00 3013.00 184.00" xmlns="http://www.w3.org/2000/svg" xmlns:xlink="http://www.w3.org/1999/xlink">
<g id="graph0" class="graph" transform="scale(1 1) rotate(0) translate(4 180)">
<title>/home/runner/work/beluga/beluga/beluga_amcl/include/beluga_amcl/amcl_node.hpp</title>
<!-- Node1 -->
<g id="node1" class="node">
<title>Node1</title>
<g id="a_node1"><a xlink:title="ROS 2 integration of the 2D AMCL algorithm.">
<polygon fill="#bfbfbf" stroke="black" points="749.5,-134.5 749.5,-175.5 908.5,-175.5 908.5,-134.5 749.5,-134.5"/>
<text text-anchor="start" x="757.5" y="-163.5" font-family="Helvetica,sans-Serif" font-size="10.00">/home/runner/work/beluga</text>
<text text-anchor="start" x="757.5" y="-152.5" font-family="Helvetica,sans-Serif" font-size="10.00">/beluga/beluga_amcl/include</text>
<text text-anchor="middle" x="829" y="-141.5" font-family="Helvetica,sans-Serif" font-size="10.00">/beluga_amcl/amcl_node.hpp</text>
</a>
</g>
</g>
<!-- Node2 -->
<g id="node2" class="node">
<title>Node2</title>
<g id="a_node2"><a xlink:title=" ">
<polygon fill="none" stroke="#bfbfbf" points="0,-73 0,-92 58,-92 58,-73 0,-73"/>
<text text-anchor="middle" x="29" y="-80" font-family="Helvetica,sans-Serif" font-size="10.00">memory</text>
</a>
</g>
</g>
<!-- Node1&#45;&gt;Node2 -->
<g id="edge1" class="edge">
<title>Node1&#45;&gt;Node2</title>
<path fill="none" stroke="midnightblue" d="M749.44,-151.08C581.4,-144.45 195.27,-126.54 67,-98 64,-97.33 60.91,-96.47 57.86,-95.5"/>
<polygon fill="midnightblue" stroke="midnightblue" points="58.98,-92.18 48.39,-92.14 56.64,-98.78 58.98,-92.18"/>
</g>
<!-- Node3 -->
<g id="node3" class="node">
<title>Node3</title>
<g id="a_node3"><a xlink:title=" ">
<polygon fill="none" stroke="#bfbfbf" points="76,-73 76,-92 132,-92 132,-73 76,-73"/>
<text text-anchor="middle" x="104" y="-80" font-family="Helvetica,sans-Serif" font-size="10.00">optional</text>
</a>
</g>
</g>
<!-- Node1&#45;&gt;Node3 -->
<g id="edge2" class="edge">
<title>Node1&#45;&gt;Node3</title>
<path fill="none" stroke="midnightblue" d="M749.44,-155C620.11,-154.96 357,-147.97 141,-98 138.16,-97.34 135.26,-96.51 132.38,-95.58"/>
<polygon fill="midnightblue" stroke="midnightblue" points="133.46,-92.24 122.87,-92.12 131.07,-98.82 133.46,-92.24"/>
</g>
<!-- Node4 -->
<g id="node4" class="node">
<title>Node4</title>
<g id="a_node4"><a xlink:title=" ">
<polygon fill="none" stroke="#bfbfbf" points="150.5,-73 150.5,-92 219.5,-92 219.5,-73 150.5,-73"/>
<text text-anchor="middle" x="185" y="-80" font-family="Helvetica,sans-Serif" font-size="10.00">type_traits</text>
</a>
</g>
</g>
<!-- Node1&#45;&gt;Node4 -->
<g id="edge3" class="edge">
<title>Node1&#45;&gt;Node4</title>
<path fill="none" stroke="midnightblue" d="M749.36,-152.45C633.45,-148.87 412.01,-137.04 228,-98 224.32,-97.22 220.51,-96.22 216.75,-95.12"/>
<polygon fill="midnightblue" stroke="midnightblue" points="217.63,-91.73 207.04,-92.03 215.51,-98.4 217.63,-91.73"/>
</g>
<!-- Node5 -->
<g id="node5" class="node">
<title>Node5</title>
<g id="a_node5"><a xlink:title=" ">
<polygon fill="none" stroke="#bfbfbf" points="237.5,-73 237.5,-92 282.5,-92 282.5,-73 237.5,-73"/>
<text text-anchor="middle" x="260" y="-80" font-family="Helvetica,sans-Serif" font-size="10.00">utility</text>
</a>
</g>
</g>
<!-- Node1&#45;&gt;Node5 -->
<g id="edge4" class="edge">
<title>Node1&#45;&gt;Node5</title>
<path fill="none" stroke="midnightblue" d="M749.45,-152.26C644.43,-148.47 454.45,-136.39 297,-98 294.17,-97.31 291.27,-96.45 288.4,-95.51"/>
<polygon fill="midnightblue" stroke="midnightblue" points="289.48,-92.17 278.89,-92.03 287.08,-98.75 289.48,-92.17"/>
</g>
<!-- Node6 -->
<g id="node6" class="node">
<title>Node6</title>
<g id="a_node6"><a xlink:title=" ">
<polygon fill="none" stroke="#bfbfbf" points="271.5,-6 271.5,-25 438.5,-25 438.5,-6 271.5,-6"/>
<text text-anchor="middle" x="355" y="-13" font-family="Helvetica,sans-Serif" font-size="10.00">message_filters/subscriber.hpp</text>
</a>
</g>
</g>
<!-- Node1&#45;&gt;Node6 -->
<g id="edge5" class="edge">
<title>Node1&#45;&gt;Node6</title>
<path fill="none" stroke="midnightblue" d="M749.46,-150.79C615.67,-144.55 357.42,-128.67 330,-98 313.87,-79.96 328.54,-51.72 341.25,-33.67"/>
<polygon fill="midnightblue" stroke="midnightblue" points="344.35,-35.36 347.54,-25.26 338.75,-31.17 344.35,-35.36"/>
</g>
<!-- Node7 -->
<g id="node7" class="node">
<title>Node7</title>
<g id="a_node7"><a xlink:title=" ">
<polygon fill="none" stroke="#bfbfbf" points="339,-73 339,-92 429,-92 429,-73 339,-73"/>
<text text-anchor="middle" x="384" y="-80" font-family="Helvetica,sans-Serif" font-size="10.00">tf2_ros/buffer.h</text>
</a>
</g>
</g>
<!-- Node1&#45;&gt;Node7 -->
<g id="edge6" class="edge">
<title>Node1&#45;&gt;Node7</title>
<path fill="none" stroke="midnightblue" d="M749.14,-145.41C669.77,-136.2 544.81,-119.91 438,-98 433.2,-97.02 428.2,-95.86 423.25,-94.63"/>
<polygon fill="midnightblue" stroke="midnightblue" points="423.83,-91.16 413.27,-92.05 422.08,-97.94 423.83,-91.16"/>
</g>
<!-- Node8 -->
<g id="node8" class="node">
<title>Node8</title>
<g id="a_node8"><a xlink:title=" ">
<polygon fill="none" stroke="#bfbfbf" points="447,-73 447,-92 581,-92 581,-73 447,-73"/>
<text text-anchor="middle" x="514" y="-80" font-family="Helvetica,sans-Serif" font-size="10.00">tf2_ros/message_filter.h</text>
</a>
</g>
</g>
<!-- Node1&#45;&gt;Node8 -->
<g id="edge7" class="edge">
<title>Node1&#45;&gt;Node8</title>
<path fill="none" stroke="midnightblue" d="M749.1,-136.12C690.1,-122.91 611.73,-105.37 562.07,-94.26"/>
<polygon fill="midnightblue" stroke="midnightblue" points="562.75,-90.82 552.23,-92.06 561.22,-97.66 562.75,-90.82"/>
</g>
<!-- Node9 -->
<g id="node9" class="node">
<title>Node9</title>
<g id="a_node9"><a xlink:title=" ">
<polygon fill="none" stroke="#bfbfbf" points="930.5,-6 930.5,-25 1103.5,-25 1103.5,-6 930.5,-6"/>
<text text-anchor="middle" x="1017" y="-13" font-family="Helvetica,sans-Serif" font-size="10.00">tf2_ros/transform_broadcaster.h</text>
</a>
</g>
</g>
<!-- Node1&#45;&gt;Node9 -->
<g id="edge8" class="edge">
<title>Node1&#45;&gt;Node9</title>
<path fill="none" stroke="midnightblue" d="M827.92,-134.49C827.92,-114.96 831.07,-85.25 848,-67 863.33,-50.47 916.9,-36.26 959.67,-27.16"/>
<polygon fill="midnightblue" stroke="midnightblue" points="960.65,-30.53 969.73,-25.07 959.22,-23.68 960.65,-30.53"/>
</g>
<!-- Node10 -->
<g id="node10" class="node">
<title>Node10</title>
<g id="a_node10"><a xlink:title=" ">
<polygon fill="none" stroke="#bfbfbf" points="1122,-6 1122,-25 1274,-25 1274,-6 1122,-6"/>
<text text-anchor="middle" x="1198" y="-13" font-family="Helvetica,sans-Serif" font-size="10.00">tf2_ros/transform_listener.h</text>
</a>
</g>
</g>
<!-- Node1&#45;&gt;Node10 -->
<g id="edge9" class="edge">
<title>Node1&#45;&gt;Node10</title>
<path fill="none" stroke="midnightblue" d="M908.7,-153.64C1006.29,-151.3 1163.2,-140.77 1200,-98 1214.82,-80.78 1210.27,-53.12 1204.81,-34.87"/>
<polygon fill="midnightblue" stroke="midnightblue" points="1208.13,-33.75 1201.64,-25.37 1201.49,-35.97 1208.13,-33.75"/>
</g>
<!-- Node11 -->
<g id="node11" class="node">
<title>Node11</title>
<g id="a_node11"><a xlink:title=" ">
<polygon fill="none" stroke="#bfbfbf" points="1292,-6 1292,-25 1398,-25 1398,-6 1292,-6"/>
<text text-anchor="middle" x="1345" y="-13" font-family="Helvetica,sans-Serif" font-size="10.00">bondcpp/bond.hpp</text>
</a>
</g>
</g>
<!-- Node1&#45;&gt;Node11 -->
<g id="edge10" class="edge">
<title>Node1&#45;&gt;Node11</title>
<path fill="none" stroke="midnightblue" d="M908.78,-152.49C989.39,-148.7 1116.35,-136.45 1219,-98 1241.11,-89.72 1295.07,-52.31 1324.7,-31.17"/>
<polygon fill="midnightblue" stroke="midnightblue" points="1326.96,-33.85 1333.05,-25.18 1322.89,-28.16 1326.96,-33.85"/>
</g>
<!-- Node12 -->
<g id="node12" class="node">
<title>Node12</title>
<g id="a_node12"><a xlink:title=" ">
<polygon fill="none" stroke="#bfbfbf" points="775.5,-0.5 775.5,-30.5 912.5,-30.5 912.5,-0.5 775.5,-0.5"/>
<text text-anchor="start" x="783.5" y="-18.5" font-family="Helvetica,sans-Serif" font-size="10.00">rclcpp_lifecycle/lifecycle</text>
<text text-anchor="middle" x="844" y="-7.5" font-family="Helvetica,sans-Serif" font-size="10.00">_node.hpp</text>
</a>
</g>
</g>
<!-- Node1&#45;&gt;Node12 -->
<g id="edge11" class="edge">
<title>Node1&#45;&gt;Node12</title>
<path fill="none" stroke="midnightblue" d="M821.21,-134.41C815.23,-116.62 808.93,-89.76 815,-67 817.6,-57.24 822.59,-47.41 827.7,-39.05"/>
<polygon fill="midnightblue" stroke="midnightblue" points="830.66,-40.92 833.19,-30.63 824.8,-37.09 830.66,-40.92"/>
</g>
<!-- Node13 -->
<g id="node13" class="node">
<title>Node13</title>
<g id="a_node13"><a xlink:title=" ">
<polygon fill="none" stroke="#bfbfbf" points="857,-67.5 857,-97.5 1003,-97.5 1003,-67.5 857,-67.5"/>
<text text-anchor="start" x="865" y="-85.5" font-family="Helvetica,sans-Serif" font-size="10.00">geometry_msgs/msg/pose</text>
<text text-anchor="middle" x="930" y="-74.5" font-family="Helvetica,sans-Serif" font-size="10.00">_array.hpp</text>
</a>
</g>
</g>
<!-- Node1&#45;&gt;Node13 -->
<g id="edge12" class="edge">
<title>Node1&#45;&gt;Node13</title>
<path fill="none" stroke="midnightblue" d="M857.13,-134.36C870.96,-124.71 887.59,-113.11 901.46,-103.42"/>
<polygon fill="midnightblue" stroke="midnightblue" points="903.5,-106.26 909.7,-97.67 899.5,-100.52 903.5,-106.26"/>
</g>
<!-- Node14 -->
<g id="node14" class="node">
<title>Node14</title>
<g id="a_node14"><a xlink:title=" ">
<polygon fill="none" stroke="#bfbfbf" points="1021,-67.5 1021,-97.5 1191,-97.5 1191,-67.5 1021,-67.5"/>
<text text-anchor="start" x="1029" y="-85.5" font-family="Helvetica,sans-Serif" font-size="10.00">geometry_msgs/msg/pose</text>
<text text-anchor="middle" x="1106" y="-74.5" font-family="Helvetica,sans-Serif" font-size="10.00">_with_covariance_stamped.hpp</text>
</a>
</g>
</g>
<!-- Node1&#45;&gt;Node14 -->
<g id="edge13" class="edge">
<title>Node1&#45;&gt;Node14</title>
<path fill="none" stroke="midnightblue" d="M905.79,-134.46C948.24,-123.65 1000.42,-110.37 1040.86,-100.08"/>
<polygon fill="midnightblue" stroke="midnightblue" points="1041.78,-103.46 1050.61,-97.6 1040.06,-96.67 1041.78,-103.46"/>
</g>
<!-- Node15 -->
<g id="node15" class="node">
<title>Node15</title>
<g id="a_node15"><a xlink:title=" ">
<polygon fill="none" stroke="#bfbfbf" points="1416.5,-0.5 1416.5,-30.5 1561.5,-30.5 1561.5,-0.5 1416.5,-0.5"/>
<text text-anchor="start" x="1424.5" y="-18.5" font-family="Helvetica,sans-Serif" font-size="10.00">nav_msgs/msg/occupancy</text>
<text text-anchor="middle" x="1489" y="-7.5" font-family="Helvetica,sans-Serif" font-size="10.00">_grid.hpp</text>
</a>
</g>
</g>
<!-- Node1&#45;&gt;Node15 -->
<g id="edge14" class="edge">
<title>Node1&#45;&gt;Node15</title>
<path fill="none" stroke="midnightblue" d="M908.56,-152.51C1140.3,-147.77 1800.41,-131.4 1832,-98 1896.98,-29.29 1946.44,-89.13 1571.92,-31.1"/>
<polygon fill="midnightblue" stroke="midnightblue" points="1572.27,-27.62 1561.85,-29.53 1571.19,-34.53 1572.27,-27.62"/>
</g>
<!-- Node16 -->
<g id="node16" class="node">
<title>Node16</title>
<g id="a_node16"><a xlink:title=" ">
<polygon fill="none" stroke="#bfbfbf" points="475.5,-0.5 475.5,-30.5 606.5,-30.5 606.5,-0.5 475.5,-0.5"/>
<text text-anchor="start" x="483.5" y="-18.5" font-family="Helvetica,sans-Serif" font-size="10.00">sensor_msgs/msg/laser</text>
<text text-anchor="middle" x="541" y="-7.5" font-family="Helvetica,sans-Serif" font-size="10.00">_scan.hpp</text>
</a>
</g>
</g>
<!-- Node1&#45;&gt;Node16 -->
<g id="edge15" class="edge">
<title>Node1&#45;&gt;Node16</title>
<path fill="none" stroke="midnightblue" d="M749.23,-140.99C710.87,-132.49 665.26,-118.95 628,-98 613.38,-89.78 582.39,-59.29 561.63,-38.04"/>
<polygon fill="midnightblue" stroke="midnightblue" points="563.97,-35.42 554.49,-30.68 558.94,-40.29 563.97,-35.42"/>
</g>
<!-- Node17 -->
<g id="node17" class="node">
<title>Node17</title>
<g id="a_node17"><a xlink:title=" ">
<polygon fill="none" stroke="#bfbfbf" points="1285.5,-73 1285.5,-92 1414.5,-92 1414.5,-73 1285.5,-73"/>
<text text-anchor="middle" x="1350" y="-80" font-family="Helvetica,sans-Serif" font-size="10.00">std_srvs/srv/empty.hpp</text>
</a>
</g>
</g>
<!-- Node1&#45;&gt;Node17 -->
<g id="edge16" class="edge">
<title>Node1&#45;&gt;Node17</title>
<path fill="none" stroke="midnightblue" d="M908.63,-145.26C997.27,-135.21 1144.69,-117.58 1271,-98 1279.03,-96.75 1287.5,-95.32 1295.8,-93.86"/>
<polygon fill="midnightblue" stroke="midnightblue" points="1296.56,-97.28 1305.78,-92.06 1295.32,-90.39 1296.56,-97.28"/>
</g>
<!-- Node18 -->
<g id="node18" class="node">
<title>Node18</title>
<g id="a_node18"><a xlink:title=" ">
<polygon fill="none" stroke="#bfbfbf" points="1433,-67.5 1433,-97.5 1561,-97.5 1561,-67.5 1433,-67.5"/>
<text text-anchor="start" x="1441" y="-85.5" font-family="Helvetica,sans-Serif" font-size="10.00">visualization_msgs</text>
<text text-anchor="middle" x="1497" y="-74.5" font-family="Helvetica,sans-Serif" font-size="10.00">/msg/marker_array.hpp</text>
</a>
</g>
</g>
<!-- Node1&#45;&gt;Node18 -->
<g id="edge17" class="edge">
<title>Node1&#45;&gt;Node18</title>
<path fill="none" stroke="midnightblue" d="M908.56,-149.03C1022.81,-141.31 1239.76,-124.52 1423,-98 1423.1,-97.99 1423.2,-97.97 1423.3,-97.96"/>
<polygon fill="midnightblue" stroke="midnightblue" points="1423.55,-101.46 1432.89,-96.47 1422.47,-94.54 1423.55,-101.46"/>
</g>
<!-- Node19 -->
<g id="node19" class="node">
<title>Node19</title>
<g id="a_node19"><a target="_parent" xlink:href="../../../../../../beluga/docs/_doxygen/generated/reference/html/beluga_8hpp.html.html" xlink:title=" ">
<polygon fill="none" stroke="black" points="1579.5,-73 1579.5,-92 1686.5,-92 1686.5,-73 1579.5,-73"/>
<text text-anchor="middle" x="1633" y="-80" font-family="Helvetica,sans-Serif" font-size="10.00">beluga/beluga.hpp</text>
</a>
</g>
</g>
<!-- Node1&#45;&gt;Node19 -->
<g id="edge18" class="edge">
<title>Node1&#45;&gt;Node19</title>
<path fill="none" stroke="midnightblue" d="M908.67,-151.92C1044.89,-147.47 1331.01,-134.32 1570,-98 1576.48,-97.02 1583.28,-95.72 1589.92,-94.32"/>
<polygon fill="midnightblue" stroke="midnightblue" points="1591.15,-97.63 1600.16,-92.04 1589.64,-90.8 1591.15,-97.63"/>
</g>
<!-- Node20 -->
<g id="node20" class="node">
<title>Node20</title>
<g id="a_node20"><a target="_parent" xlink:href="../../../../../../beluga_ros/docs/_doxygen/generated/reference/html/amcl_8hpp.html.html" xlink:title=" ">
<polygon fill="none" stroke="black" points="1705,-73 1705,-92 1823,-92 1823,-73 1705,-73"/>
<text text-anchor="middle" x="1764" y="-80" font-family="Helvetica,sans-Serif" font-size="10.00">beluga_ros/amcl.hpp</text>
</a>
</g>
</g>
<!-- Node1&#45;&gt;Node20 -->
<g id="edge19" class="edge">
<title>Node1&#45;&gt;Node20</title>
<path fill="none" stroke="midnightblue" d="M908.58,-152.73C1061.74,-149.42 1407.82,-137.82 1696,-98 1703.48,-96.97 1711.37,-95.57 1719.02,-94.05"/>
<polygon fill="midnightblue" stroke="midnightblue" points="1719.8,-97.47 1728.88,-92.01 1718.38,-90.61 1719.8,-97.47"/>
</g>
<!-- Node21 -->
<g id="node21" class="node">
<title>Node21</title>
<g id="a_node21"><a xlink:href="message__filters_8hpp.html" target="_top" xlink:title="Compatibility layer for message_filters.">
<polygon fill="none" stroke="black" points="637,-67.5 637,-97.5 763,-97.5 763,-67.5 637,-67.5"/>
<text text-anchor="start" x="645" y="-85.5" font-family="Helvetica,sans-Serif" font-size="10.00">beluga_amcl/message</text>
<text text-anchor="middle" x="700" y="-74.5" font-family="Helvetica,sans-Serif" font-size="10.00">_filters.hpp</text>
</a>
</g>
</g>
<!-- Node1&#45;&gt;Node21 -->
<g id="edge20" class="edge">
<title>Node1&#45;&gt;Node21</title>
<path fill="none" stroke="midnightblue" d="M793.07,-134.36C774.91,-124.44 752.97,-112.45 734.95,-102.6"/>
<polygon fill="midnightblue" stroke="midnightblue" points="736.38,-99.39 725.93,-97.67 733.02,-105.54 736.38,-99.39"/>
</g>
<!-- Node23 -->
<g id="node23" class="node">
<title>Node23</title>
<g id="a_node23"><a xlink:href="ros2__common_8hpp_source.html" target="_top" xlink:title=" ">
<polygon fill="none" stroke="black" points="1896,-73 1896,-92 2068,-92 2068,-73 1896,-73"/>
<text text-anchor="middle" x="1982" y="-80" font-family="Helvetica,sans-Serif" font-size="10.00">beluga_amcl/ros2_common.hpp</text>
</a>
</g>
</g>
<!-- Node1&#45;&gt;Node23 -->
<g id="edge25" class="edge">
<title>Node1&#45;&gt;Node23</title>
<path fill="none" stroke="midnightblue" d="M908.75,-151.57C1082.68,-145.87 1509.08,-129.64 1865,-98 1879.49,-96.71 1894.96,-95.02 1909.74,-93.25"/>
<polygon fill="midnightblue" stroke="midnightblue" points="1910.35,-96.7 1919.85,-92.02 1909.5,-89.75 1910.35,-96.7"/>
</g>
<!-- Node21&#45;&gt;Node6 -->
<g id="edge21" class="edge">
<title>Node21&#45;&gt;Node6</title>
<path fill="none" stroke="midnightblue" d="M636.72,-69.58C571.86,-57.36 472,-38.54 410.23,-26.91"/>
<polygon fill="midnightblue" stroke="midnightblue" points="410.76,-23.44 400.28,-25.03 409.46,-30.32 410.76,-23.44"/>
</g>
<!-- Node21&#45;&gt;Node12 -->
<g id="edge22" class="edge">
<title>Node21&#45;&gt;Node12</title>
<path fill="none" stroke="midnightblue" d="M731.25,-67.4C752.47,-57.81 780.75,-45.05 803.68,-34.7"/>
<polygon fill="midnightblue" stroke="midnightblue" points="805.14,-37.88 812.82,-30.58 802.26,-31.5 805.14,-37.88"/>
</g>
<!-- Node21&#45;&gt;Node16 -->
<g id="edge23" class="edge">
<title>Node21&#45;&gt;Node16</title>
<path fill="none" stroke="midnightblue" d="M665.5,-67.4C641.85,-57.73 610.28,-44.82 584.85,-34.43"/>
<polygon fill="midnightblue" stroke="midnightblue" points="586.01,-31.12 575.43,-30.58 583.37,-37.6 586.01,-31.12"/>
</g>
<!-- Node22 -->
<g id="node22" class="node">
<title>Node22</title>
<g id="a_node22"><a xlink:title=" ">
<polygon fill="none" stroke="#bfbfbf" points="625,-0.5 625,-30.5 757,-30.5 757,-0.5 625,-0.5"/>
<text text-anchor="start" x="633" y="-18.5" font-family="Helvetica,sans-Serif" font-size="10.00">sensor_msgs/msg/point</text>
<text text-anchor="middle" x="691" y="-7.5" font-family="Helvetica,sans-Serif" font-size="10.00">_cloud2.hpp</text>
</a>
</g>
</g>
<!-- Node21&#45;&gt;Node22 -->
<g id="edge24" class="edge">
<title>Node21&#45;&gt;Node22</title>
<path fill="none" stroke="midnightblue" d="M698.05,-67.4C696.96,-59.56 695.58,-49.6 694.33,-40.57"/>
<polygon fill="midnightblue" stroke="midnightblue" points="697.79,-40 692.95,-30.58 690.85,-40.96 697.79,-40"/>
</g>
<!-- Node23&#45;&gt;Node9 -->
<g id="edge38" class="edge">
<title>Node23&#45;&gt;Node9</title>
<path fill="none" stroke="midnightblue" d="M1901.1,-72.99C1878.73,-70.82 1854.44,-68.65 1832,-67 1512.9,-43.6 1431.36,-62.93 1113,-31 1101.46,-29.84 1089.18,-28.26 1077.4,-26.56"/>
<polygon fill="midnightblue" stroke="midnightblue" points="1077.61,-23.05 1067.2,-25.05 1076.58,-29.98 1077.61,-23.05"/>
</g>
<!-- Node23&#45;&gt;Node10 -->
<g id="edge39" class="edge">
<title>Node23&#45;&gt;Node10</title>
<path fill="none" stroke="midnightblue" d="M1898.73,-72.99C1877.02,-70.9 1853.64,-68.76 1832,-67 1588.28,-47.23 1525.85,-59.6 1283,-31 1273.19,-29.84 1262.78,-28.32 1252.75,-26.7"/>
<polygon fill="midnightblue" stroke="midnightblue" points="1253.31,-23.24 1242.87,-25.05 1252.16,-30.15 1253.31,-23.24"/>
</g>
<!-- Node23&#45;&gt;Node11 -->
<g id="edge32" class="edge">
<title>Node23&#45;&gt;Node11</title>
<path fill="none" stroke="midnightblue" d="M1895.95,-73.01C1875.03,-70.99 1852.71,-68.88 1832,-67 1643.21,-49.88 1594.23,-60.66 1407,-31 1400.69,-30 1394.08,-28.71 1387.61,-27.32"/>
<polygon fill="midnightblue" stroke="midnightblue" points="1388.17,-23.86 1377.64,-25.07 1386.63,-30.69 1388.17,-23.86"/>
</g>
<!-- Node23&#45;&gt;Node12 -->
<g id="edge28" class="edge">
<title>Node23&#45;&gt;Node12</title>
<path fill="none" stroke="midnightblue" d="M1902.67,-72.98C1879.87,-70.76 1854.97,-68.56 1832,-67 1431.09,-39.72 1325.38,-76 922.94,-31.11"/>
<polygon fill="midnightblue" stroke="midnightblue" points="923.1,-27.61 912.77,-29.97 922.32,-34.56 923.1,-27.61"/>
</g>
<!-- Node23&#45;&gt;Node15 -->
<g id="edge34" class="edge">
<title>Node23&#45;&gt;Node15</title>
<path fill="none" stroke="midnightblue" d="M1913.33,-72.97C1897.46,-71.01 1880.64,-68.93 1865,-67 1737.53,-51.3 1702.87,-50.5 1571.86,-31.08"/>
<polygon fill="midnightblue" stroke="midnightblue" points="1572.25,-27.6 1561.84,-29.59 1571.22,-34.52 1572.25,-27.6"/>
</g>
<!-- Node24 -->
<g id="node24" class="node">
<title>Node24</title>
<g id="a_node24"><a xlink:title=" ">
<polygon fill="none" stroke="#bfbfbf" points="2082,-6 2082,-25 2146,-25 2146,-6 2082,-6"/>
<text text-anchor="middle" x="2114" y="-13" font-family="Helvetica,sans-Serif" font-size="10.00">execution</text>
</a>
</g>
</g>
<!-- Node23&#45;&gt;Node24 -->
<g id="edge26" class="edge">
<title>Node23&#45;&gt;Node24</title>
<path fill="none" stroke="midnightblue" d="M1999.53,-72.87C2022.01,-61.8 2061.23,-42.49 2087.4,-29.6"/>
<polygon fill="midnightblue" stroke="midnightblue" points="2088.97,-32.72 2096.4,-25.17 2085.88,-26.44 2088.97,-32.72"/>
</g>
<!-- Node25 -->
<g id="node25" class="node">
<title>Node25</title>
<g id="a_node25"><a xlink:title=" ">
<polygon fill="none" stroke="#bfbfbf" points="2164.5,-6 2164.5,-25 2299.5,-25 2299.5,-6 2164.5,-6"/>
<text text-anchor="middle" x="2232" y="-13" font-family="Helvetica,sans-Serif" font-size="10.00">rclcpp/node_options.hpp</text>
</a>
</g>
</g>
<!-- Node23&#45;&gt;Node25 -->
<g id="edge27" class="edge">
<title>Node23&#45;&gt;Node25</title>
<path fill="none" stroke="midnightblue" d="M2014.94,-72.94C2059.72,-61.29 2139.87,-40.45 2189.24,-27.62"/>
<polygon fill="midnightblue" stroke="midnightblue" points="2190.19,-30.99 2198.99,-25.08 2188.43,-24.21 2190.19,-30.99"/>
</g>
<!-- Node26 -->
<g id="node26" class="node">
<title>Node26</title>
<g id="a_node26"><a xlink:title=" ">
<polygon fill="none" stroke="#bfbfbf" points="2317.5,-6 2317.5,-25 2458.5,-25 2458.5,-6 2317.5,-6"/>
<text text-anchor="middle" x="2388" y="-13" font-family="Helvetica,sans-Serif" font-size="10.00">rclcpp_lifecycle/state.hpp</text>
</a>
</g>
</g>
<!-- Node23&#45;&gt;Node26 -->
<g id="edge29" class="edge">
<title>Node23&#45;&gt;Node26</title>
<path fill="none" stroke="midnightblue" d="M2040.56,-72.97C2106.06,-63.3 2215.26,-46.84 2309,-31 2316.73,-29.69 2324.88,-28.26 2332.89,-26.82"/>
<polygon fill="midnightblue" stroke="midnightblue" points="2333.71,-30.23 2342.92,-25 2332.46,-23.34 2333.71,-30.23"/>
</g>
<!-- Node27 -->
<g id="node27" class="node">
<title>Node27</title>
<g id="a_node27"><a xlink:title=" ">
<polygon fill="none" stroke="#bfbfbf" points="2477,-6 2477,-25 2521,-25 2521,-6 2477,-6"/>
<text text-anchor="middle" x="2499" y="-13" font-family="Helvetica,sans-Serif" font-size="10.00">string</text>
</a>
</g>
</g>
<!-- Node23&#45;&gt;Node27 -->
<g id="edge30" class="edge">
<title>Node23&#45;&gt;Node27</title>
<path fill="none" stroke="midnightblue" d="M2068.32,-81.15C2166.76,-78.78 2331.69,-68.8 2468,-31 2469.93,-30.46 2471.89,-29.82 2473.84,-29.1"/>
<polygon fill="midnightblue" stroke="midnightblue" points="2475.47,-32.21 2483.3,-25.08 2472.73,-25.77 2475.47,-32.21"/>
</g>
<!-- Node28 -->
<g id="node28" class="node">
<title>Node28</title>
<g id="a_node28"><a xlink:title=" ">
<polygon fill="none" stroke="#bfbfbf" points="2539.5,-6 2539.5,-25 2612.5,-25 2612.5,-6 2539.5,-6"/>
<text text-anchor="middle" x="2576" y="-13" font-family="Helvetica,sans-Serif" font-size="10.00">string_view</text>
</a>
</g>
</g>
<!-- Node23&#45;&gt;Node28 -->
<g id="edge31" class="edge">
<title>Node23&#45;&gt;Node28</title>
<path fill="none" stroke="midnightblue" d="M2068.25,-79.23C2176.9,-75.08 2368.9,-63.43 2530,-31 2534.16,-30.16 2538.47,-29.09 2542.71,-27.91"/>
<polygon fill="midnightblue" stroke="midnightblue" points="2543.81,-31.23 2552.38,-25.01 2541.79,-24.53 2543.81,-31.23"/>
</g>
<!-- Node29 -->
<g id="node29" class="node">
<title>Node29</title>
<g id="a_node29"><a xlink:title=" ">
<polygon fill="none" stroke="#bfbfbf" points="2631,-0.5 2631,-30.5 2777,-30.5 2777,-0.5 2631,-0.5"/>
<text text-anchor="start" x="2639" y="-18.5" font-family="Helvetica,sans-Serif" font-size="10.00">geometry_msgs/msg/pose</text>
<text text-anchor="middle" x="2704" y="-7.5" font-family="Helvetica,sans-Serif" font-size="10.00">_stamped.hpp</text>
</a>
</g>
</g>
<!-- Node23&#45;&gt;Node29 -->
<g id="edge33" class="edge">
<title>Node23&#45;&gt;Node29</title>
<path fill="none" stroke="midnightblue" d="M2068.19,-77.34C2189.37,-70.9 2417.16,-56.64 2620.75,-31.08"/>
<polygon fill="midnightblue" stroke="midnightblue" points="2621.26,-34.55 2630.74,-29.82 2620.38,-27.6 2621.26,-34.55"/>
</g>
<!-- Node30 -->
<g id="node30" class="node">
<title>Node30</title>
<g id="a_node30"><a xlink:title=" ">
<polygon fill="none" stroke="#bfbfbf" points="2795.5,-6 2795.5,-25 2894.5,-25 2894.5,-6 2795.5,-6"/>
<text text-anchor="middle" x="2845" y="-13" font-family="Helvetica,sans-Serif" font-size="10.00">rclcpp/rclcpp.hpp</text>
</a>
</g>
</g>
<!-- Node23&#45;&gt;Node30 -->
<g id="edge35" class="edge">
<title>Node23&#45;&gt;Node30</title>
<path fill="none" stroke="midnightblue" d="M2068.21,-81.11C2215.98,-79.32 2526.78,-70.67 2786,-31 2792.01,-30.08 2798.31,-28.84 2804.46,-27.47"/>
<polygon fill="midnightblue" stroke="midnightblue" points="2805.66,-30.78 2814.59,-25.07 2804.05,-23.97 2805.66,-30.78"/>
</g>
<!-- Node31 -->
<g id="node31" class="node">
<title>Node31</title>
<g id="a_node31"><a xlink:title=" ">
<polygon fill="none" stroke="#bfbfbf" points="2913,-6 2913,-25 3005,-25 3005,-6 2913,-6"/>
<text text-anchor="middle" x="2959" y="-13" font-family="Helvetica,sans-Serif" font-size="10.00">rclcpp/time.hpp</text>
</a>
</g>
</g>
<!-- Node23&#45;&gt;Node31 -->
<g id="edge36" class="edge">
<title>Node23&#45;&gt;Node31</title>
<path fill="none" stroke="midnightblue" d="M2068.24,-79.01C2265.45,-72.97 2744.55,-56.12 2904,-31 2909.55,-30.13 2915.35,-28.92 2921.01,-27.58"/>
<polygon fill="midnightblue" stroke="midnightblue" points="2922.14,-30.91 2930.97,-25.06 2920.42,-24.12 2922.14,-30.91"/>
</g>
<!-- Node32 -->
<g id="node32" class="node">
<title>Node32</title>
<g id="a_node32"><a xlink:title=" ">
<polygon fill="none" stroke="#bfbfbf" points="1580,-0.5 1580,-30.5 1696,-30.5 1696,-0.5 1580,-0.5"/>
<text text-anchor="start" x="1588" y="-18.5" font-family="Helvetica,sans-Serif" font-size="10.00">tf2_ros/create_timer</text>
<text text-anchor="middle" x="1638" y="-7.5" font-family="Helvetica,sans-Serif" font-size="10.00">_ros.h</text>
</a>
</g>
</g>
<!-- Node23&#45;&gt;Node32 -->
<g id="edge37" class="edge">
<title>Node23&#45;&gt;Node32</title>
<path fill="none" stroke="midnightblue" d="M1933.06,-72.99C1879.87,-63.64 1792.14,-47.93 1706.15,-30.99"/>
<polygon fill="midnightblue" stroke="midnightblue" points="1706.7,-27.54 1696.22,-29.03 1705.35,-34.4 1706.7,-27.54"/>
</g>
<!-- Node33 -->
<g id="node33" class="node">
<title>Node33</title>
<g id="a_node33"><a xlink:title=" ">
<polygon fill="none" stroke="#bfbfbf" points="1714.5,-6 1714.5,-25 1805.5,-25 1805.5,-6 1714.5,-6"/>
<text text-anchor="middle" x="1760" y="-13" font-family="Helvetica,sans-Serif" font-size="10.00">tf2/convert.hpp</text>
</a>
</g>
</g>
<!-- Node23&#45;&gt;Node33 -->
<g id="edge40" class="edge">
<title>Node23&#45;&gt;Node33</title>
<path fill="none" stroke="midnightblue" d="M1952.52,-72.87C1913.02,-61.3 1842.82,-40.75 1798.98,-27.91"/>
<polygon fill="midnightblue" stroke="midnightblue" points="1799.83,-24.51 1789.25,-25.06 1797.86,-31.23 1799.83,-24.51"/>
</g>
<!-- Node34 -->
<g id="node34" class="node">
<title>Node34</title>
<g id="a_node34"><a xlink:title=" ">
<polygon fill="none" stroke="#bfbfbf" points="1823.5,-6 1823.5,-25 1898.5,-25 1898.5,-6 1823.5,-6"/>
<text text-anchor="middle" x="1861" y="-13" font-family="Helvetica,sans-Serif" font-size="10.00">tf2/utils.hpp</text>
</a>
</g>
</g>
<!-- Node23&#45;&gt;Node34 -->
<g id="edge41" class="edge">
<title>Node23&#45;&gt;Node34</title>
<path fill="none" stroke="midnightblue" d="M1965.68,-72.73C1945.18,-61.72 1909.8,-42.71 1885.91,-29.88"/>
<polygon fill="midnightblue" stroke="midnightblue" points="1887.53,-26.78 1877.06,-25.13 1884.21,-32.94 1887.53,-26.78"/>
</g>
<!-- Node35 -->
<g id="node35" class="node">
<title>Node35</title>
<g id="a_node35"><a target="_parent" xlink:href="../../../../../../beluga_ros/docs/_doxygen/generated/reference/html/tf2__sophus_8hpp.html.html" xlink:title=" ">
<polygon fill="none" stroke="black" points="1916.5,-6 1916.5,-25 2063.5,-25 2063.5,-6 1916.5,-6"/>
<text text-anchor="middle" x="1990" y="-13" font-family="Helvetica,sans-Serif" font-size="10.00">beluga_ros/tf2_sophus.hpp</text>
</a>
</g>
</g>
<!-- Node23&#45;&gt;Node35 -->
<g id="edge42" class="edge">
<title>Node23&#45;&gt;Node35</title>
<path fill="none" stroke="midnightblue" d="M1983.08,-72.73C1984.25,-63.18 1986.17,-47.62 1987.69,-35.28"/>
<polygon fill="midnightblue" stroke="midnightblue" points="1991.19,-35.48 1988.94,-25.13 1984.24,-34.62 1991.19,-35.48"/>
</g>
</g>
</svg>
