<?xml version="1.0" encoding="UTF-8" standalone="no"?>
<!DOCTYPE svg PUBLIC "-//W3C//DTD SVG 1.1//EN"
 "http://www.w3.org/Graphics/SVG/1.1/DTD/svg11.dtd">
<!-- Generated by graphviz version 2.43.0 (0)
 -->
<!-- Title: /home/runner/work/beluga/beluga/beluga_amcl/include/beluga_amcl/amcl_node.hpp Pages: 1 -->
<!--zoomable 184 -->
<svg id="main" version="1.1" xmlns="http://www.w3.org/2000/svg" xmlns:xlink="http://www.w3.org/1999/xlink" xml:space="preserve" onload="init(evt)">
<style type="text/css"><![CDATA[
.edge:hover path { stroke: red; }
.edge:hover polygon { stroke: red; fill: red; }
]]></style>
<script type="text/javascript"><![CDATA[
var edges = document.getElementsByTagName('g');
if (edges && edges.length) {
  for (var i=0;i<edges.length;i++) {
    if (edges[i].id.substr(0,4)=='edge') {
      edges[i].setAttribute('class','edge');
    }
  }
}
]]></script>
        <defs>
                <circle id="rim" cx="0" cy="0" r="7"/>
                <circle id="rim2" cx="0" cy="0" r="3.5"/>
                <g id="zoomPlus">
                        <use xlink:href="#rim" fill="#404040">
                                <set attributeName="fill" to="#808080" begin="zoomplus.mouseover" end="zoomplus.mouseout"/>
                        </use>
                        <path d="M-4,0h8M0,-4v8" fill="none" stroke="white" stroke-width="1.5" pointer-events="none"/>
                </g>
                <g id="zoomMin">
                        <use xlink:href="#rim" fill="#404040">
                                <set attributeName="fill" to="#808080" begin="zoomminus.mouseover" end="zoomminus.mouseout"/>
                        </use>
                        <path d="M-4,0h8" fill="none" stroke="white" stroke-width="1.5" pointer-events="none"/>
                </g>
                <g id="dirArrow">
                        <path fill="none" stroke="white" stroke-width="1.5" d="M0,-3.0v7 M-2.5,-0.5L0,-3.0L2.5,-0.5"/>
                </g>
               <g id="resetDef">
                       <use xlink:href="#rim2" fill="#404040">
                               <set attributeName="fill" to="#808080" begin="reset.mouseover" end="reset.mouseout"/>
                       </use>
               </g>
        </defs>

<script type="text/javascript">
var viewWidth = 2926;
var viewHeight = 184;
var sectionId = 'dynsection-0';
</script>
<script xlink:href="svgpan.js"/>
<svg id="graph" class="graph">
<g id="viewport">
<title>/home/runner/work/beluga/beluga/beluga_amcl/include/beluga_amcl/amcl_node.hpp</title>
<!-- Node1 -->
<g id="node1" class="node">
<title>Node1</title>
<g id="a_node1"><a xlink:title="ROS 2 integration of the 2D AMCL algorithm.">
<polygon fill="#bfbfbf" stroke="black" points="712.5,-134.5 712.5,-175.5 871.5,-175.5 871.5,-134.5 712.5,-134.5"/>
<text text-anchor="start" x="720.5" y="-163.5" font-family="Helvetica,sans-Serif" font-size="10.00">/home/runner/work/beluga</text>
<text text-anchor="start" x="720.5" y="-152.5" font-family="Helvetica,sans-Serif" font-size="10.00">/beluga/beluga_amcl/include</text>
<text text-anchor="middle" x="792" y="-141.5" font-family="Helvetica,sans-Serif" font-size="10.00">/beluga_amcl/amcl_node.hpp</text>
</a>
</g>
</g>
<!-- Node2 -->
<g id="node2" class="node">
<title>Node2</title>
<g id="a_node2"><a xlink:title=" ">
<polygon fill="none" stroke="#bfbfbf" points="0,-73 0,-92 58,-92 58,-73 0,-73"/>
<text text-anchor="middle" x="29" y="-80" font-family="Helvetica,sans-Serif" font-size="10.00">memory</text>
</a>
</g>
</g>
<!-- Node1&#45;&gt;Node2 -->
<g id="edge1" class="edge">
<title>Node1&#45;&gt;Node2</title>
<path fill="none" stroke="midnightblue" d="M712.32,-150.73C550.41,-143.62 188.02,-125.17 67,-98 64,-97.33 60.91,-96.46 57.87,-95.49"/>
<polygon fill="midnightblue" stroke="midnightblue" points="58.99,-92.17 48.39,-92.13 56.65,-98.77 58.99,-92.17"/>
</g>
<!-- Node3 -->
<g id="node3" class="node">
<title>Node3</title>
<g id="a_node3"><a xlink:title=" ">
<polygon fill="none" stroke="#bfbfbf" points="76,-73 76,-92 132,-92 132,-73 76,-73"/>
<text text-anchor="middle" x="104" y="-80" font-family="Helvetica,sans-Serif" font-size="10.00">optional</text>
</a>
</g>
</g>
<!-- Node1&#45;&gt;Node3 -->
<g id="edge2" class="edge">
<title>Node1&#45;&gt;Node3</title>
<path fill="none" stroke="midnightblue" d="M712.44,-154.46C588.61,-153.56 343,-145.22 141,-98 138.17,-97.34 135.26,-96.5 132.39,-95.56"/>
<polygon fill="midnightblue" stroke="midnightblue" points="133.46,-92.23 122.87,-92.1 131.07,-98.81 133.46,-92.23"/>
</g>
<!-- Node4 -->
<g id="node4" class="node">
<title>Node4</title>
<g id="a_node4"><a xlink:title=" ">
<polygon fill="none" stroke="#bfbfbf" points="150.5,-73 150.5,-92 195.5,-92 195.5,-73 150.5,-73"/>
<text text-anchor="middle" x="173" y="-80" font-family="Helvetica,sans-Serif" font-size="10.00">utility</text>
</a>
</g>
</g>
<!-- Node1&#45;&gt;Node4 -->
<g id="edge3" class="edge">
<title>Node1&#45;&gt;Node4</title>
<path fill="none" stroke="midnightblue" d="M712.25,-153.29C599.06,-150.71 385.98,-140.08 210,-98 207.17,-97.32 204.27,-96.48 201.39,-95.53"/>
<polygon fill="midnightblue" stroke="midnightblue" points="202.47,-92.2 191.88,-92.06 200.07,-98.78 202.47,-92.2"/>
</g>
<!-- Node5 -->
<g id="node5" class="node">
<title>Node5</title>
<g id="a_node5"><a xlink:title=" ">
<polygon fill="none" stroke="#bfbfbf" points="184.5,-6 184.5,-25 351.5,-25 351.5,-6 184.5,-6"/>
<text text-anchor="middle" x="268" y="-13" font-family="Helvetica,sans-Serif" font-size="10.00">message_filters/subscriber.hpp</text>
</a>
</g>
</g>
<!-- Node1&#45;&gt;Node5 -->
<g id="edge4" class="edge">
<title>Node1&#45;&gt;Node5</title>
<path fill="none" stroke="midnightblue" d="M712.28,-151.66C567.61,-146.58 273.84,-132.15 243,-98 226.78,-80.04 241.48,-51.78 254.21,-33.7"/>
<polygon fill="midnightblue" stroke="midnightblue" points="257.33,-35.38 260.52,-25.28 251.72,-31.18 257.33,-35.38"/>
</g>
<!-- Node6 -->
<g id="node6" class="node">
<title>Node6</title>
<g id="a_node6"><a xlink:title=" ">
<polygon fill="none" stroke="#bfbfbf" points="252,-73 252,-92 342,-92 342,-73 252,-73"/>
<text text-anchor="middle" x="297" y="-80" font-family="Helvetica,sans-Serif" font-size="10.00">tf2_ros/buffer.h</text>
</a>
</g>
</g>
<!-- Node1&#45;&gt;Node6 -->
<g id="edge5" class="edge">
<title>Node1&#45;&gt;Node6</title>
<path fill="none" stroke="midnightblue" d="M712.21,-147.16C623.47,-138.79 476.14,-122.63 351,-98 346.01,-97.02 340.8,-95.83 335.67,-94.56"/>
<polygon fill="midnightblue" stroke="midnightblue" points="336.53,-91.17 325.98,-92.06 334.78,-97.95 336.53,-91.17"/>
</g>
<!-- Node7 -->
<g id="node7" class="node">
<title>Node7</title>
<g id="a_node7"><a xlink:title=" ">
<polygon fill="none" stroke="#bfbfbf" points="360,-73 360,-92 494,-92 494,-73 360,-73"/>
<text text-anchor="middle" x="427" y="-80" font-family="Helvetica,sans-Serif" font-size="10.00">tf2_ros/message_filter.h</text>
</a>
</g>
</g>
<!-- Node1&#45;&gt;Node7 -->
<g id="edge6" class="edge">
<title>Node1&#45;&gt;Node7</title>
<path fill="none" stroke="midnightblue" d="M712.35,-138.62C642.21,-125.07 541.97,-105.71 480.87,-93.91"/>
<polygon fill="midnightblue" stroke="midnightblue" points="481.52,-90.47 471.04,-92.01 480.2,-97.34 481.52,-90.47"/>
</g>
<!-- Node8 -->
<g id="node8" class="node">
<title>Node8</title>
<g id="a_node8"><a xlink:title=" ">
<polygon fill="none" stroke="#bfbfbf" points="843.5,-6 843.5,-25 1016.5,-25 1016.5,-6 843.5,-6"/>
<text text-anchor="middle" x="930" y="-13" font-family="Helvetica,sans-Serif" font-size="10.00">tf2_ros/transform_broadcaster.h</text>
</a>
</g>
</g>
<!-- Node1&#45;&gt;Node8 -->
<g id="edge7" class="edge">
<title>Node1&#45;&gt;Node8</title>
<path fill="none" stroke="midnightblue" d="M775.2,-134.45C761.22,-115.7 745.87,-87.32 761,-67 774.08,-49.44 825.3,-35.73 867.96,-27.06"/>
<polygon fill="midnightblue" stroke="midnightblue" points="868.9,-30.44 878.03,-25.07 867.54,-23.58 868.9,-30.44"/>
</g>
<!-- Node9 -->
<g id="node9" class="node">
<title>Node9</title>
<g id="a_node9"><a xlink:title=" ">
<polygon fill="none" stroke="#bfbfbf" points="1035,-6 1035,-25 1187,-25 1187,-6 1035,-6"/>
<text text-anchor="middle" x="1111" y="-13" font-family="Helvetica,sans-Serif" font-size="10.00">tf2_ros/transform_listener.h</text>
</a>
</g>
</g>
<!-- Node1&#45;&gt;Node9 -->
<g id="edge8" class="edge">
<title>Node1&#45;&gt;Node9</title>
<path fill="none" stroke="midnightblue" d="M871.54,-151.45C956.4,-146.86 1082.74,-134 1113,-98 1127.55,-80.69 1123.16,-53.25 1117.81,-35.06"/>
<polygon fill="midnightblue" stroke="midnightblue" points="1121.05,-33.73 1114.59,-25.33 1114.41,-35.93 1121.05,-33.73"/>
</g>
<!-- Node10 -->
<g id="node10" class="node">
<title>Node10</title>
<g id="a_node10"><a xlink:title=" ">
<polygon fill="none" stroke="#bfbfbf" points="1205,-6 1205,-25 1311,-25 1311,-6 1205,-6"/>
<text text-anchor="middle" x="1258" y="-13" font-family="Helvetica,sans-Serif" font-size="10.00">bondcpp/bond.hpp</text>
</a>
</g>
</g>
<!-- Node1&#45;&gt;Node10 -->
<g id="edge9" class="edge">
<title>Node1&#45;&gt;Node10</title>
<path fill="none" stroke="midnightblue" d="M871.71,-150.09C942.19,-144.5 1046.76,-130.93 1132,-98 1154.02,-89.49 1208.02,-52.18 1237.68,-31.11"/>
<polygon fill="midnightblue" stroke="midnightblue" points="1239.93,-33.8 1246.04,-25.15 1235.87,-28.11 1239.93,-33.8"/>
</g>
<!-- Node11 -->
<g id="node11" class="node">
<title>Node11</title>
<g id="a_node11"><a xlink:title=" ">
<polygon fill="none" stroke="#bfbfbf" points="688.5,-0.5 688.5,-30.5 825.5,-30.5 825.5,-0.5 688.5,-0.5"/>
<text text-anchor="start" x="696.5" y="-18.5" font-family="Helvetica,sans-Serif" font-size="10.00">rclcpp_lifecycle/lifecycle</text>
<text text-anchor="middle" x="757" y="-7.5" font-family="Helvetica,sans-Serif" font-size="10.00">_node.hpp</text>
</a>
</g>
</g>
<!-- Node1&#45;&gt;Node11 -->
<g id="edge10" class="edge">
<title>Node1&#45;&gt;Node11</title>
<path fill="none" stroke="midnightblue" d="M759.51,-134.31C747.24,-124.98 734.65,-112.65 728,-98 719.2,-78.61 729.04,-55.71 739.57,-39.13"/>
<polygon fill="midnightblue" stroke="midnightblue" points="742.63,-40.86 745.38,-30.63 736.85,-36.91 742.63,-40.86"/>
</g>
<!-- Node12 -->
<g id="node12" class="node">
<title>Node12</title>
<g id="a_node12"><a xlink:title=" ">
<polygon fill="none" stroke="#bfbfbf" points="770,-67.5 770,-97.5 916,-97.5 916,-67.5 770,-67.5"/>
<text text-anchor="start" x="778" y="-85.5" font-family="Helvetica,sans-Serif" font-size="10.00">geometry_msgs/msg/pose</text>
<text text-anchor="middle" x="843" y="-74.5" font-family="Helvetica,sans-Serif" font-size="10.00">_array.hpp</text>
</a>
</g>
</g>
<!-- Node1&#45;&gt;Node12 -->
<g id="edge11" class="edge">
<title>Node1&#45;&gt;Node12</title>
<path fill="none" stroke="midnightblue" d="M806.21,-134.36C812.55,-125.59 820.06,-115.21 826.64,-106.12"/>
<polygon fill="midnightblue" stroke="midnightblue" points="829.56,-108.05 832.59,-97.89 823.89,-103.94 829.56,-108.05"/>
</g>
<!-- Node13 -->
<g id="node13" class="node">
<title>Node13</title>
<g id="a_node13"><a xlink:title=" ">
<polygon fill="none" stroke="#bfbfbf" points="934,-67.5 934,-97.5 1104,-97.5 1104,-67.5 934,-67.5"/>
<text text-anchor="start" x="942" y="-85.5" font-family="Helvetica,sans-Serif" font-size="10.00">geometry_msgs/msg/pose</text>
<text text-anchor="middle" x="1019" y="-74.5" font-family="Helvetica,sans-Serif" font-size="10.00">_with_covariance_stamped.hpp</text>
</a>
</g>
</g>
<!-- Node1&#45;&gt;Node13 -->
<g id="edge12" class="edge">
<title>Node1&#45;&gt;Node13</title>
<path fill="none" stroke="midnightblue" d="M854.93,-134.46C889.06,-123.86 930.85,-110.88 963.72,-100.67"/>
<polygon fill="midnightblue" stroke="midnightblue" points="965.1,-103.91 973.61,-97.6 963.02,-97.22 965.1,-103.91"/>
</g>
<!-- Node14 -->
<g id="node14" class="node">
<title>Node14</title>
<g id="a_node14"><a xlink:title=" ">
<polygon fill="none" stroke="#bfbfbf" points="1329.5,-0.5 1329.5,-30.5 1474.5,-30.5 1474.5,-0.5 1329.5,-0.5"/>
<text text-anchor="start" x="1337.5" y="-18.5" font-family="Helvetica,sans-Serif" font-size="10.00">nav_msgs/msg/occupancy</text>
<text text-anchor="middle" x="1402" y="-7.5" font-family="Helvetica,sans-Serif" font-size="10.00">_grid.hpp</text>
</a>
</g>
</g>
<!-- Node1&#45;&gt;Node14 -->
<g id="edge13" class="edge">
<title>Node1&#45;&gt;Node14</title>
<path fill="none" stroke="midnightblue" d="M871.56,-152.26C1095.21,-147 1715.21,-129.6 1745,-98 1809.81,-29.27 1858.05,-88.91 1484.88,-31.1"/>
<polygon fill="midnightblue" stroke="midnightblue" points="1485.27,-27.62 1474.85,-29.53 1484.19,-34.53 1485.27,-27.62"/>
</g>
<!-- Node15 -->
<g id="node15" class="node">
<title>Node15</title>
<g id="a_node15"><a xlink:title=" ">
<polygon fill="none" stroke="#bfbfbf" points="388.5,-0.5 388.5,-30.5 519.5,-30.5 519.5,-0.5 388.5,-0.5"/>
<text text-anchor="start" x="396.5" y="-18.5" font-family="Helvetica,sans-Serif" font-size="10.00">sensor_msgs/msg/laser</text>
<text text-anchor="middle" x="454" y="-7.5" font-family="Helvetica,sans-Serif" font-size="10.00">_scan.hpp</text>
</a>
</g>
</g>
<!-- Node1&#45;&gt;Node15 -->
<g id="edge14" class="edge">
<title>Node1&#45;&gt;Node15</title>
<path fill="none" stroke="midnightblue" d="M712.22,-147.13C660.93,-140.14 594.19,-126.11 541,-98 526.17,-90.16 495.24,-59.58 474.54,-38.19"/>
<polygon fill="midnightblue" stroke="midnightblue" points="476.88,-35.57 467.43,-30.79 471.84,-40.42 476.88,-35.57"/>
</g>
<!-- Node16 -->
<g id="node16" class="node">
<title>Node16</title>
<g id="a_node16"><a xlink:title=" ">
<polygon fill="none" stroke="#bfbfbf" points="1198.5,-73 1198.5,-92 1327.5,-92 1327.5,-73 1198.5,-73"/>
<text text-anchor="middle" x="1263" y="-80" font-family="Helvetica,sans-Serif" font-size="10.00">std_srvs/srv/empty.hpp</text>
</a>
</g>
</g>
<!-- Node1&#45;&gt;Node16 -->
<g id="edge15" class="edge">
<title>Node1&#45;&gt;Node16</title>
<path fill="none" stroke="midnightblue" d="M871.72,-143.55C951.03,-132.94 1076.12,-115.6 1184,-98 1191.93,-96.71 1200.28,-95.26 1208.48,-93.8"/>
<polygon fill="midnightblue" stroke="midnightblue" points="1209.13,-97.24 1218.35,-92.01 1207.89,-90.35 1209.13,-97.24"/>
</g>
<!-- Node17 -->
<g id="node17" class="node">
<title>Node17</title>
<g id="a_node17"><a xlink:title=" ">
<polygon fill="none" stroke="#bfbfbf" points="1346,-67.5 1346,-97.5 1474,-97.5 1474,-67.5 1346,-67.5"/>
<text text-anchor="start" x="1354" y="-85.5" font-family="Helvetica,sans-Serif" font-size="10.00">visualization_msgs</text>
<text text-anchor="middle" x="1410" y="-74.5" font-family="Helvetica,sans-Serif" font-size="10.00">/msg/marker_array.hpp</text>
</a>
</g>
</g>
<!-- Node1&#45;&gt;Node17 -->
<g id="edge16" class="edge">
<title>Node1&#45;&gt;Node17</title>
<path fill="none" stroke="midnightblue" d="M871.56,-148.09C977.8,-139.68 1171.67,-122.51 1336,-98 1336.1,-97.98 1336.2,-97.97 1336.3,-97.95"/>
<polygon fill="midnightblue" stroke="midnightblue" points="1336.56,-101.46 1345.89,-96.43 1335.46,-94.54 1336.56,-101.46"/>
</g>
<!-- Node18 -->
<g id="node18" class="node">
<title>Node18</title>
<g id="a_node18"><a target="_parent" xlink:href="../../../../../../beluga/docs/_doxygen/generated/reference/html/beluga_8hpp.html.html" xlink:title=" ">
<polygon fill="none" stroke="black" points="1492.5,-73 1492.5,-92 1599.5,-92 1599.5,-73 1492.5,-73"/>
<text text-anchor="middle" x="1546" y="-80" font-family="Helvetica,sans-Serif" font-size="10.00">beluga/beluga.hpp</text>
</a>
</g>
</g>
<!-- Node1&#45;&gt;Node18 -->
<g id="edge17" class="edge">
<title>Node1&#45;&gt;Node18</title>
<path fill="none" stroke="midnightblue" d="M871.72,-151.3C1000.79,-146.1 1263.25,-132.01 1483,-98 1489.48,-97 1496.28,-95.7 1502.92,-94.29"/>
<polygon fill="midnightblue" stroke="midnightblue" points="1504.15,-97.6 1513.15,-92.01 1502.63,-90.77 1504.15,-97.6"/>
</g>
<!-- Node19 -->
<g id="node19" class="node">
<title>Node19</title>
<g id="a_node19"><a target="_parent" xlink:href="../../../../../../beluga_ros/docs/_doxygen/generated/reference/html/amcl_8hpp.html.html" xlink:title=" ">
<polygon fill="none" stroke="black" points="1618,-73 1618,-92 1736,-92 1736,-73 1618,-73"/>
<text text-anchor="middle" x="1677" y="-80" font-family="Helvetica,sans-Serif" font-size="10.00">beluga_ros/amcl.hpp</text>
</a>
</g>
</g>
<!-- Node1&#45;&gt;Node19 -->
<g id="edge18" class="edge">
<title>Node1&#45;&gt;Node19</title>
<path fill="none" stroke="midnightblue" d="M871.54,-152.29C1018.07,-148.3 1340.25,-135.67 1609,-98 1616.31,-96.97 1624.02,-95.61 1631.5,-94.13"/>
<polygon fill="midnightblue" stroke="midnightblue" points="1632.44,-97.51 1641.52,-92.06 1631.02,-90.66 1632.44,-97.51"/>
</g>
<!-- Node20 -->
<g id="node20" class="node">
<title>Node20</title>
<g id="a_node20"><a xlink:href="message__filters_8hpp.html" target="_top" xlink:title="Compatibility layer for message_filters.">
<polygon fill="none" stroke="black" points="550,-67.5 550,-97.5 676,-97.5 676,-67.5 550,-67.5"/>
<text text-anchor="start" x="558" y="-85.5" font-family="Helvetica,sans-Serif" font-size="10.00">beluga_amcl/message</text>
<text text-anchor="middle" x="613" y="-74.5" font-family="Helvetica,sans-Serif" font-size="10.00">_filters.hpp</text>
</a>
</g>
</g>
<!-- Node1&#45;&gt;Node20 -->
<g id="edge19" class="edge">
<title>Node1&#45;&gt;Node20</title>
<path fill="none" stroke="midnightblue" d="M742.14,-134.36C715.81,-123.99 683.75,-111.37 658.16,-101.29"/>
<polygon fill="midnightblue" stroke="midnightblue" points="659.28,-97.97 648.7,-97.56 656.72,-104.48 659.28,-97.97"/>
</g>
<!-- Node22 -->
<g id="node22" class="node">
<title>Node22</title>
<g id="a_node22"><a xlink:href="ros2__common_8hpp_source.html" target="_top" xlink:title=" ">
<polygon fill="none" stroke="black" points="1809,-73 1809,-92 1981,-92 1981,-73 1809,-73"/>
<text text-anchor="middle" x="1895" y="-80" font-family="Helvetica,sans-Serif" font-size="10.00">beluga_amcl/ros2_common.hpp</text>
</a>
</g>
</g>
<!-- Node1&#45;&gt;Node22 -->
<g id="edge24" class="edge">
<title>Node1&#45;&gt;Node22</title>
<path fill="none" stroke="midnightblue" d="M871.69,-151.27C1039.56,-145.14 1441.81,-128.35 1778,-98 1792.41,-96.7 1807.78,-95.01 1822.49,-93.25"/>
<polygon fill="midnightblue" stroke="midnightblue" points="1823.04,-96.71 1832.54,-92.02 1822.19,-89.76 1823.04,-96.71"/>
</g>
<!-- Node20&#45;&gt;Node5 -->
<g id="edge20" class="edge">
<title>Node20&#45;&gt;Node5</title>
<path fill="none" stroke="midnightblue" d="M549.72,-69.58C484.86,-57.36 385,-38.54 323.23,-26.91"/>
<polygon fill="midnightblue" stroke="midnightblue" points="323.76,-23.44 313.28,-25.03 322.46,-30.32 323.76,-23.44"/>
</g>
<!-- Node20&#45;&gt;Node11 -->
<g id="edge21" class="edge">
<title>Node20&#45;&gt;Node11</title>
<path fill="none" stroke="midnightblue" d="M644.25,-67.4C665.47,-57.81 693.75,-45.05 716.68,-34.7"/>
<polygon fill="midnightblue" stroke="midnightblue" points="718.14,-37.88 725.82,-30.58 715.26,-31.5 718.14,-37.88"/>
</g>
<!-- Node20&#45;&gt;Node15 -->
<g id="edge22" class="edge">
<title>Node20&#45;&gt;Node15</title>
<path fill="none" stroke="midnightblue" d="M578.5,-67.4C554.85,-57.73 523.28,-44.82 497.85,-34.43"/>
<polygon fill="midnightblue" stroke="midnightblue" points="499.01,-31.12 488.43,-30.58 496.37,-37.6 499.01,-31.12"/>
</g>
<!-- Node21 -->
<g id="node21" class="node">
<title>Node21</title>
<g id="a_node21"><a xlink:title=" ">
<polygon fill="none" stroke="#bfbfbf" points="538,-0.5 538,-30.5 670,-30.5 670,-0.5 538,-0.5"/>
<text text-anchor="start" x="546" y="-18.5" font-family="Helvetica,sans-Serif" font-size="10.00">sensor_msgs/msg/point</text>
<text text-anchor="middle" x="604" y="-7.5" font-family="Helvetica,sans-Serif" font-size="10.00">_cloud2.hpp</text>
</a>
</g>
</g>
<!-- Node20&#45;&gt;Node21 -->
<g id="edge23" class="edge">
<title>Node20&#45;&gt;Node21</title>
<path fill="none" stroke="midnightblue" d="M611.05,-67.4C609.96,-59.56 608.58,-49.6 607.33,-40.57"/>
<polygon fill="midnightblue" stroke="midnightblue" points="610.79,-40 605.95,-30.58 603.85,-40.96 610.79,-40"/>
</g>
<!-- Node22&#45;&gt;Node8 -->
<g id="edge37" class="edge">
<title>Node22&#45;&gt;Node8</title>
<path fill="none" stroke="midnightblue" d="M1814.1,-72.99C1791.73,-70.82 1767.44,-68.65 1745,-67 1425.9,-43.6 1344.36,-62.93 1026,-31 1014.46,-29.84 1002.18,-28.26 990.4,-26.56"/>
<polygon fill="midnightblue" stroke="midnightblue" points="990.61,-23.05 980.2,-25.05 989.58,-29.98 990.61,-23.05"/>
</g>
<!-- Node22&#45;&gt;Node9 -->
<g id="edge38" class="edge">
<title>Node22&#45;&gt;Node9</title>
<path fill="none" stroke="midnightblue" d="M1811.73,-72.99C1790.02,-70.9 1766.64,-68.76 1745,-67 1501.28,-47.23 1438.85,-59.6 1196,-31 1186.19,-29.84 1175.78,-28.32 1165.75,-26.7"/>
<polygon fill="midnightblue" stroke="midnightblue" points="1166.31,-23.24 1155.87,-25.05 1165.16,-30.15 1166.31,-23.24"/>
</g>
<!-- Node22&#45;&gt;Node10 -->
<g id="edge31" class="edge">
<title>Node22&#45;&gt;Node10</title>
<path fill="none" stroke="midnightblue" d="M1808.95,-73.01C1788.03,-70.99 1765.71,-68.88 1745,-67 1556.21,-49.88 1507.23,-60.66 1320,-31 1313.69,-30 1307.08,-28.71 1300.61,-27.32"/>
<polygon fill="midnightblue" stroke="midnightblue" points="1301.17,-23.86 1290.64,-25.07 1299.63,-30.69 1301.17,-23.86"/>
</g>
<!-- Node22&#45;&gt;Node11 -->
<g id="edge27" class="edge">
<title>Node22&#45;&gt;Node11</title>
<path fill="none" stroke="midnightblue" d="M1815.67,-72.98C1792.87,-70.76 1767.97,-68.56 1745,-67 1344.09,-39.72 1238.38,-76 835.94,-31.11"/>
<polygon fill="midnightblue" stroke="midnightblue" points="836.1,-27.61 825.77,-29.97 835.32,-34.56 836.1,-27.61"/>
</g>
<!-- Node22&#45;&gt;Node14 -->
<g id="edge33" class="edge">
<title>Node22&#45;&gt;Node14</title>
<path fill="none" stroke="midnightblue" d="M1826.33,-72.97C1810.46,-71.01 1793.64,-68.93 1778,-67 1650.53,-51.3 1615.87,-50.5 1484.86,-31.08"/>
<polygon fill="midnightblue" stroke="midnightblue" points="1485.25,-27.6 1474.84,-29.59 1484.22,-34.52 1485.25,-27.6"/>
</g>
<!-- Node23 -->
<g id="node23" class="node">
<title>Node23</title>
<g id="a_node23"><a xlink:title=" ">
<polygon fill="none" stroke="#bfbfbf" points="1995,-6 1995,-25 2059,-25 2059,-6 1995,-6"/>
<text text-anchor="middle" x="2027" y="-13" font-family="Helvetica,sans-Serif" font-size="10.00">execution</text>
</a>
</g>
</g>
<!-- Node22&#45;&gt;Node23 -->
<g id="edge25" class="edge">
<title>Node22&#45;&gt;Node23</title>
<path fill="none" stroke="midnightblue" d="M1912.53,-72.87C1935.01,-61.8 1974.23,-42.49 2000.4,-29.6"/>
<polygon fill="midnightblue" stroke="midnightblue" points="2001.97,-32.72 2009.4,-25.17 1998.88,-26.44 2001.97,-32.72"/>
</g>
<!-- Node24 -->
<g id="node24" class="node">
<title>Node24</title>
<g id="a_node24"><a xlink:title=" ">
<polygon fill="none" stroke="#bfbfbf" points="2077.5,-6 2077.5,-25 2212.5,-25 2212.5,-6 2077.5,-6"/>
<text text-anchor="middle" x="2145" y="-13" font-family="Helvetica,sans-Serif" font-size="10.00">rclcpp/node_options.hpp</text>
</a>
</g>
</g>
<!-- Node22&#45;&gt;Node24 -->
<g id="edge26" class="edge">
<title>Node22&#45;&gt;Node24</title>
<path fill="none" stroke="midnightblue" d="M1927.94,-72.94C1972.72,-61.29 2052.87,-40.45 2102.24,-27.62"/>
<polygon fill="midnightblue" stroke="midnightblue" points="2103.19,-30.99 2111.99,-25.08 2101.43,-24.21 2103.19,-30.99"/>
</g>
<!-- Node25 -->
<g id="node25" class="node">
<title>Node25</title>
<g id="a_node25"><a xlink:title=" ">
<polygon fill="none" stroke="#bfbfbf" points="2230.5,-6 2230.5,-25 2371.5,-25 2371.5,-6 2230.5,-6"/>
<text text-anchor="middle" x="2301" y="-13" font-family="Helvetica,sans-Serif" font-size="10.00">rclcpp_lifecycle/state.hpp</text>
</a>
</g>
</g>
<!-- Node22&#45;&gt;Node25 -->
<g id="edge28" class="edge">
<title>Node22&#45;&gt;Node25</title>
<path fill="none" stroke="midnightblue" d="M1953.56,-72.97C2019.06,-63.3 2128.26,-46.84 2222,-31 2229.73,-29.69 2237.88,-28.26 2245.89,-26.82"/>
<polygon fill="midnightblue" stroke="midnightblue" points="2246.71,-30.23 2255.92,-25 2245.46,-23.34 2246.71,-30.23"/>
</g>
<!-- Node26 -->
<g id="node26" class="node">
<title>Node26</title>
<g id="a_node26"><a xlink:title=" ">
<polygon fill="none" stroke="#bfbfbf" points="2390,-6 2390,-25 2434,-25 2434,-6 2390,-6"/>
<text text-anchor="middle" x="2412" y="-13" font-family="Helvetica,sans-Serif" font-size="10.00">string</text>
</a>
</g>
</g>
<!-- Node22&#45;&gt;Node26 -->
<g id="edge29" class="edge">
<title>Node22&#45;&gt;Node26</title>
<path fill="none" stroke="midnightblue" d="M1981.32,-81.15C2079.76,-78.78 2244.69,-68.8 2381,-31 2382.93,-30.46 2384.89,-29.82 2386.84,-29.1"/>
<polygon fill="midnightblue" stroke="midnightblue" points="2388.47,-32.21 2396.3,-25.08 2385.73,-25.77 2388.47,-32.21"/>
</g>
<!-- Node27 -->
<g id="node27" class="node">
<title>Node27</title>
<g id="a_node27"><a xlink:title=" ">
<polygon fill="none" stroke="#bfbfbf" points="2452.5,-6 2452.5,-25 2525.5,-25 2525.5,-6 2452.5,-6"/>
<text text-anchor="middle" x="2489" y="-13" font-family="Helvetica,sans-Serif" font-size="10.00">string_view</text>
</a>
</g>
</g>
<!-- Node22&#45;&gt;Node27 -->
<g id="edge30" class="edge">
<title>Node22&#45;&gt;Node27</title>
<path fill="none" stroke="midnightblue" d="M1981.25,-79.23C2089.9,-75.08 2281.9,-63.43 2443,-31 2447.16,-30.16 2451.47,-29.09 2455.71,-27.91"/>
<polygon fill="midnightblue" stroke="midnightblue" points="2456.81,-31.23 2465.38,-25.01 2454.79,-24.53 2456.81,-31.23"/>
</g>
<!-- Node28 -->
<g id="node28" class="node">
<title>Node28</title>
<g id="a_node28"><a xlink:title=" ">
<polygon fill="none" stroke="#bfbfbf" points="2544,-0.5 2544,-30.5 2690,-30.5 2690,-0.5 2544,-0.5"/>
<text text-anchor="start" x="2552" y="-18.5" font-family="Helvetica,sans-Serif" font-size="10.00">geometry_msgs/msg/pose</text>
<text text-anchor="middle" x="2617" y="-7.5" font-family="Helvetica,sans-Serif" font-size="10.00">_stamped.hpp</text>
</a>
</g>
</g>
<!-- Node22&#45;&gt;Node28 -->
<g id="edge32" class="edge">
<title>Node22&#45;&gt;Node28</title>
<path fill="none" stroke="midnightblue" d="M1981.19,-77.34C2102.37,-70.9 2330.16,-56.64 2533.75,-31.08"/>
<polygon fill="midnightblue" stroke="midnightblue" points="2534.26,-34.55 2543.74,-29.82 2533.38,-27.6 2534.26,-34.55"/>
</g>
<!-- Node29 -->
<g id="node29" class="node">
<title>Node29</title>
<g id="a_node29"><a xlink:title=" ">
<polygon fill="none" stroke="#bfbfbf" points="2708.5,-6 2708.5,-25 2807.5,-25 2807.5,-6 2708.5,-6"/>
<text text-anchor="middle" x="2758" y="-13" font-family="Helvetica,sans-Serif" font-size="10.00">rclcpp/rclcpp.hpp</text>
</a>
</g>
</g>
<!-- Node22&#45;&gt;Node29 -->
<g id="edge34" class="edge">
<title>Node22&#45;&gt;Node29</title>
<path fill="none" stroke="midnightblue" d="M1981.21,-81.11C2128.98,-79.32 2439.78,-70.67 2699,-31 2705.01,-30.08 2711.31,-28.84 2717.46,-27.47"/>
<polygon fill="midnightblue" stroke="midnightblue" points="2718.66,-30.78 2727.59,-25.07 2717.05,-23.97 2718.66,-30.78"/>
</g>
<!-- Node30 -->
<g id="node30" class="node">
<title>Node30</title>
<g id="a_node30"><a xlink:title=" ">
<polygon fill="none" stroke="#bfbfbf" points="2826,-6 2826,-25 2918,-25 2918,-6 2826,-6"/>
<text text-anchor="middle" x="2872" y="-13" font-family="Helvetica,sans-Serif" font-size="10.00">rclcpp/time.hpp</text>
</a>
</g>
</g>
<!-- Node22&#45;&gt;Node30 -->
<g id="edge35" class="edge">
<title>Node22&#45;&gt;Node30</title>
<path fill="none" stroke="midnightblue" d="M1981.24,-79.01C2178.45,-72.97 2657.55,-56.12 2817,-31 2822.55,-30.13 2828.35,-28.92 2834.01,-27.58"/>
<polygon fill="midnightblue" stroke="midnightblue" points="2835.14,-30.91 2843.97,-25.06 2833.42,-24.12 2835.14,-30.91"/>
</g>
<!-- Node31 -->
<g id="node31" class="node">
<title>Node31</title>
<g id="a_node31"><a xlink:title=" ">
<polygon fill="none" stroke="#bfbfbf" points="1493,-0.5 1493,-30.5 1609,-30.5 1609,-0.5 1493,-0.5"/>
<text text-anchor="start" x="1501" y="-18.5" font-family="Helvetica,sans-Serif" font-size="10.00">tf2_ros/create_timer</text>
<text text-anchor="middle" x="1551" y="-7.5" font-family="Helvetica,sans-Serif" font-size="10.00">_ros.h</text>
</a>
</g>
</g>
<!-- Node22&#45;&gt;Node31 -->
<g id="edge36" class="edge">
<title>Node22&#45;&gt;Node31</title>
<path fill="none" stroke="midnightblue" d="M1846.06,-72.99C1792.87,-63.64 1705.14,-47.93 1619.15,-30.99"/>
<polygon fill="midnightblue" stroke="midnightblue" points="1619.7,-27.54 1609.22,-29.03 1618.35,-34.4 1619.7,-27.54"/>
</g>
<!-- Node32 -->
<g id="node32" class="node">
<title>Node32</title>
<g id="a_node32"><a xlink:title=" ">
<polygon fill="none" stroke="#bfbfbf" points="1627.5,-6 1627.5,-25 1718.5,-25 1718.5,-6 1627.5,-6"/>
<text text-anchor="middle" x="1673" y="-13" font-family="Helvetica,sans-Serif" font-size="10.00">tf2/convert.hpp</text>
</a>
</g>
</g>
<!-- Node22&#45;&gt;Node32 -->
<g id="edge39" class="edge">
<title>Node22&#45;&gt;Node32</title>
<path fill="none" stroke="midnightblue" d="M1865.52,-72.87C1826.02,-61.3 1755.82,-40.75 1711.98,-27.91"/>
<polygon fill="midnightblue" stroke="midnightblue" points="1712.83,-24.51 1702.25,-25.06 1710.86,-31.23 1712.83,-24.51"/>
</g>
<!-- Node33 -->
<g id="node33" class="node">
<title>Node33</title>
<g id="a_node33"><a xlink:title=" ">
<polygon fill="none" stroke="#bfbfbf" points="1736.5,-6 1736.5,-25 1811.5,-25 1811.5,-6 1736.5,-6"/>
<text text-anchor="middle" x="1774" y="-13" font-family="Helvetica,sans-Serif" font-size="10.00">tf2/utils.hpp</text>
</a>
</g>
</g>
<!-- Node22&#45;&gt;Node33 -->
<g id="edge40" class="edge">
<title>Node22&#45;&gt;Node33</title>
<path fill="none" stroke="midnightblue" d="M1878.68,-72.73C1858.18,-61.72 1822.8,-42.71 1798.91,-29.88"/>
<polygon fill="midnightblue" stroke="midnightblue" points="1800.53,-26.78 1790.06,-25.13 1797.21,-32.94 1800.53,-26.78"/>
</g>
<!-- Node34 -->
<g id="node34" class="node">
<title>Node34</title>
<g id="a_node34"><a target="_parent" xlink:href="../../../../../../beluga_ros/docs/_doxygen/generated/reference/html/tf2__sophus_8hpp.html.html" xlink:title=" ">
<polygon fill="none" stroke="black" points="1829.5,-6 1829.5,-25 1976.5,-25 1976.5,-6 1829.5,-6"/>
<text text-anchor="middle" x="1903" y="-13" font-family="Helvetica,sans-Serif" font-size="10.00">beluga_ros/tf2_sophus.hpp</text>
</a>
</g>
</g>
<!-- Node22&#45;&gt;Node34 -->
<g id="edge41" class="edge">
<title>Node22&#45;&gt;Node34</title>
<path fill="none" stroke="midnightblue" d="M1896.08,-72.73C1897.25,-63.18 1899.17,-47.62 1900.69,-35.28"/>
<polygon fill="midnightblue" stroke="midnightblue" points="1904.19,-35.48 1901.94,-25.13 1897.24,-34.62 1904.19,-35.48"/>
</g>
</g>
</svg>
        <g id="navigator" transform="translate(0 0)" fill="#404254">
                <rect fill="#f2f5e9" fill-opacity="0.5" stroke="#606060" stroke-width=".5" x="0" y="0" width="60" height="60"/>
                <use id="zoomplus" xlink:href="#zoomPlus" x="17" y="9" onmousedown="handleZoom(evt,'in')"/>
                <use id="zoomminus" xlink:href="#zoomMin" x="42" y="9" onmousedown="handleZoom(evt,'out')"/>
                <use id="reset" xlink:href="#resetDef" x="30" y="36" onmousedown="handleReset()"/>
                <g id="arrowUp" xlink:href="#dirArrow" transform="translate(30 24)" onmousedown="handlePan(0,-1)">
                  <use xlink:href="#rim" fill="#404040">
                        <set attributeName="fill" to="#808080" begin="arrowUp.mouseover" end="arrowUp.mouseout"/>
                  </use>
                  <path fill="none" stroke="white" stroke-width="1.5" d="M0,-3.0v7 M-2.5,-0.5L0,-3.0L2.5,-0.5"/>
                </g>
                <g id="arrowRight" xlink:href="#dirArrow" transform="rotate(90) translate(36 -43)" onmousedown="handlePan(1,0)">
                  <use xlink:href="#rim" fill="#404040">
                        <set attributeName="fill" to="#808080" begin="arrowRight.mouseover" end="arrowRight.mouseout"/>
                  </use>
                  <path fill="none" stroke="white" stroke-width="1.5" d="M0,-3.0v7 M-2.5,-0.5L0,-3.0L2.5,-0.5"/>
                </g>
                <g id="arrowDown" xlink:href="#dirArrow" transform="rotate(180) translate(-30 -48)" onmousedown="handlePan(0,1)">
                  <use xlink:href="#rim" fill="#404040">
                        <set attributeName="fill" to="#808080" begin="arrowDown.mouseover" end="arrowDown.mouseout"/>
                  </use>
                  <path fill="none" stroke="white" stroke-width="1.5" d="M0,-3.0v7 M-2.5,-0.5L0,-3.0L2.5,-0.5"/>
                </g>
                <g id="arrowLeft" xlink:href="#dirArrow" transform="rotate(270) translate(-36 17)" onmousedown="handlePan(-1,0)">
                  <use xlink:href="#rim" fill="#404040">
                        <set attributeName="fill" to="#808080" begin="arrowLeft.mouseover" end="arrowLeft.mouseout"/>
                  </use>
                  <path fill="none" stroke="white" stroke-width="1.5" d="M0,-3.0v7 M-2.5,-0.5L0,-3.0L2.5,-0.5"/>
                </g>
        </g>
        <svg viewBox="0 0 15 15" width="100%" height="30px" preserveAspectRatio="xMaxYMin meet">
         <g id="arrow_out" transform="scale(0.3 0.3)">
          <a xlink:href="amcl__node_8hpp__incl_org.svg" target="_base">
           <rect id="button" ry="5" rx="5" y="6" x="6" height="38" width="38"
                fill="#f2f5e9" fill-opacity="0.5" stroke="#606060" stroke-width="1.0"/>
           <path id="arrow"
             d="M 11.500037,31.436501 C 11.940474,20.09759 22.043105,11.32322 32.158766,21.979434 L 37.068811,17.246167 C 37.068811,17.246167 37.088388,32 37.088388,32 L 22.160133,31.978069 C 22.160133,31.978069 26.997745,27.140456 26.997745,27.140456 C 18.528582,18.264221 13.291696,25.230495 11.500037,31.436501 z"
             style="fill:#404040;"/>
          </a>
         </g>
        </svg>
</svg>
