<?xml version="1.0" encoding="UTF-8" standalone="no"?>
<!DOCTYPE svg PUBLIC "-//W3C//DTD SVG 1.1//EN"
 "http://www.w3.org/Graphics/SVG/1.1/DTD/svg11.dtd">
<!-- Generated by graphviz version 2.43.0 (0)
 -->
<!-- Title: /home/runner/work/beluga/beluga/beluga_amcl/include/beluga_amcl/amcl_node.hpp Pages: 1 -->
<!--zoomable 184 -->
<svg id="main" version="1.1" xmlns="http://www.w3.org/2000/svg" xmlns:xlink="http://www.w3.org/1999/xlink" xml:space="preserve" onload="init(evt)">
<style type="text/css"><![CDATA[
.edge:hover path { stroke: red; }
.edge:hover polygon { stroke: red; fill: red; }
]]></style>
<script type="text/javascript"><![CDATA[
var edges = document.getElementsByTagName('g');
if (edges && edges.length) {
  for (var i=0;i<edges.length;i++) {
    if (edges[i].id.substr(0,4)=='edge') {
      edges[i].setAttribute('class','edge');
    }
  }
}
]]></script>
        <defs>
                <circle id="rim" cx="0" cy="0" r="7"/>
                <circle id="rim2" cx="0" cy="0" r="3.5"/>
                <g id="zoomPlus">
                        <use xlink:href="#rim" fill="#404040">
                                <set attributeName="fill" to="#808080" begin="zoomplus.mouseover" end="zoomplus.mouseout"/>
                        </use>
                        <path d="M-4,0h8M0,-4v8" fill="none" stroke="white" stroke-width="1.5" pointer-events="none"/>
                </g>
                <g id="zoomMin">
                        <use xlink:href="#rim" fill="#404040">
                                <set attributeName="fill" to="#808080" begin="zoomminus.mouseover" end="zoomminus.mouseout"/>
                        </use>
                        <path d="M-4,0h8" fill="none" stroke="white" stroke-width="1.5" pointer-events="none"/>
                </g>
                <g id="dirArrow">
                        <path fill="none" stroke="white" stroke-width="1.5" d="M0,-3.0v7 M-2.5,-0.5L0,-3.0L2.5,-0.5"/>
                </g>
               <g id="resetDef">
                       <use xlink:href="#rim2" fill="#404040">
                               <set attributeName="fill" to="#808080" begin="reset.mouseover" end="reset.mouseout"/>
                       </use>
               </g>
        </defs>

<script type="text/javascript">
var viewWidth = 2921;
var viewHeight = 184;
var sectionId = 'dynsection-0';
</script>
<script xlink:href="svgpan.js"/>
<svg id="graph" class="graph">
<g id="viewport">
<title>/home/runner/work/beluga/beluga/beluga_amcl/include/beluga_amcl/amcl_node.hpp</title>
<!-- Node1 -->
<g id="node1" class="node">
<title>Node1</title>
<g id="a_node1"><a xlink:title="ROS 2 integration of the 2D AMCL algorithm.">
<polygon fill="#bfbfbf" stroke="black" points="712.5,-134.5 712.5,-175.5 871.5,-175.5 871.5,-134.5 712.5,-134.5"/>
<text text-anchor="start" x="720.5" y="-163.5" font-family="Helvetica,sans-Serif" font-size="10.00">/home/runner/work/beluga</text>
<text text-anchor="start" x="720.5" y="-152.5" font-family="Helvetica,sans-Serif" font-size="10.00">/beluga/beluga_amcl/include</text>
<text text-anchor="middle" x="792" y="-141.5" font-family="Helvetica,sans-Serif" font-size="10.00">/beluga_amcl/amcl_node.hpp</text>
</a>
</g>
</g>
<!-- Node2 -->
<g id="node2" class="node">
<title>Node2</title>
<g id="a_node2"><a xlink:title=" ">
<polygon fill="none" stroke="#bfbfbf" points="0,-73 0,-92 58,-92 58,-73 0,-73"/>
<text text-anchor="middle" x="29" y="-80" font-family="Helvetica,sans-Serif" font-size="10.00">memory</text>
</a>
</g>
</g>
<!-- Node1&#45;&gt;Node2 -->
<g id="edge1" class="edge">
<title>Node1&#45;&gt;Node2</title>
<path fill="none" stroke="midnightblue" d="M712.32,-150.73C550.41,-143.62 188.02,-125.17 67,-98 64,-97.33 60.91,-96.46 57.87,-95.49"/>
<polygon fill="midnightblue" stroke="midnightblue" points="58.99,-92.17 48.39,-92.13 56.65,-98.77 58.99,-92.17"/>
</g>
<!-- Node3 -->
<g id="node3" class="node">
<title>Node3</title>
<g id="a_node3"><a xlink:title=" ">
<polygon fill="none" stroke="#bfbfbf" points="76,-73 76,-92 132,-92 132,-73 76,-73"/>
<text text-anchor="middle" x="104" y="-80" font-family="Helvetica,sans-Serif" font-size="10.00">optional</text>
</a>
</g>
</g>
<!-- Node1&#45;&gt;Node3 -->
<g id="edge2" class="edge">
<title>Node1&#45;&gt;Node3</title>
<path fill="none" stroke="midnightblue" d="M712.44,-154.46C588.61,-153.56 343,-145.22 141,-98 138.17,-97.34 135.26,-96.5 132.39,-95.56"/>
<polygon fill="midnightblue" stroke="midnightblue" points="133.46,-92.23 122.87,-92.1 131.07,-98.81 133.46,-92.23"/>
</g>
<!-- Node4 -->
<g id="node4" class="node">
<title>Node4</title>
<g id="a_node4"><a xlink:title=" ">
<polygon fill="none" stroke="#bfbfbf" points="150.5,-73 150.5,-92 195.5,-92 195.5,-73 150.5,-73"/>
<text text-anchor="middle" x="173" y="-80" font-family="Helvetica,sans-Serif" font-size="10.00">utility</text>
</a>
</g>
</g>
<!-- Node1&#45;&gt;Node4 -->
<g id="edge3" class="edge">
<title>Node1&#45;&gt;Node4</title>
<path fill="none" stroke="midnightblue" d="M712.25,-153.29C599.06,-150.71 385.98,-140.08 210,-98 207.17,-97.32 204.27,-96.48 201.39,-95.53"/>
<polygon fill="midnightblue" stroke="midnightblue" points="202.47,-92.2 191.88,-92.06 200.07,-98.78 202.47,-92.2"/>
</g>
<!-- Node5 -->
<g id="node5" class="node">
<title>Node5</title>
<g id="a_node5"><a xlink:title=" ">
<polygon fill="none" stroke="#bfbfbf" points="205.5,-6 205.5,-25 372.5,-25 372.5,-6 205.5,-6"/>
<text text-anchor="middle" x="289" y="-13" font-family="Helvetica,sans-Serif" font-size="10.00">message_filters/subscriber.hpp</text>
</a>
</g>
</g>
<!-- Node1&#45;&gt;Node5 -->
<g id="edge4" class="edge">
<title>Node1&#45;&gt;Node5</title>
<path fill="none" stroke="midnightblue" d="M712.28,-151.66C567.61,-146.58 273.84,-132.15 243,-98 224.72,-77.76 250.19,-49.02 269.9,-31.63"/>
<polygon fill="midnightblue" stroke="midnightblue" points="272.2,-34.27 277.59,-25.14 267.69,-28.92 272.2,-34.27"/>
</g>
<!-- Node6 -->
<g id="node6" class="node">
<title>Node6</title>
<g id="a_node6"><a xlink:title=" ">
<polygon fill="none" stroke="#bfbfbf" points="252,-73 252,-92 342,-92 342,-73 252,-73"/>
<text text-anchor="middle" x="297" y="-80" font-family="Helvetica,sans-Serif" font-size="10.00">tf2_ros/buffer.h</text>
</a>
</g>
</g>
<!-- Node1&#45;&gt;Node6 -->
<g id="edge5" class="edge">
<title>Node1&#45;&gt;Node6</title>
<path fill="none" stroke="midnightblue" d="M712.21,-147.16C623.47,-138.79 476.14,-122.63 351,-98 346.01,-97.02 340.8,-95.83 335.67,-94.56"/>
<polygon fill="midnightblue" stroke="midnightblue" points="336.53,-91.17 325.98,-92.06 334.78,-97.95 336.53,-91.17"/>
</g>
<!-- Node7 -->
<g id="node7" class="node">
<title>Node7</title>
<g id="a_node7"><a xlink:title=" ">
<polygon fill="none" stroke="#bfbfbf" points="360,-73 360,-92 494,-92 494,-73 360,-73"/>
<text text-anchor="middle" x="427" y="-80" font-family="Helvetica,sans-Serif" font-size="10.00">tf2_ros/message_filter.h</text>
</a>
</g>
</g>
<!-- Node1&#45;&gt;Node7 -->
<g id="edge6" class="edge">
<title>Node1&#45;&gt;Node7</title>
<path fill="none" stroke="midnightblue" d="M712.35,-138.62C642.21,-125.07 541.97,-105.71 480.87,-93.91"/>
<polygon fill="midnightblue" stroke="midnightblue" points="481.52,-90.47 471.04,-92.01 480.2,-97.34 481.52,-90.47"/>
</g>
<!-- Node8 -->
<g id="node8" class="node">
<title>Node8</title>
<g id="a_node8"><a xlink:title=" ">
<polygon fill="none" stroke="#bfbfbf" points="940.5,-6 940.5,-25 1113.5,-25 1113.5,-6 940.5,-6"/>
<text text-anchor="middle" x="1027" y="-13" font-family="Helvetica,sans-Serif" font-size="10.00">tf2_ros/transform_broadcaster.h</text>
</a>
</g>
</g>
<!-- Node1&#45;&gt;Node8 -->
<g id="edge7" class="edge">
<title>Node1&#45;&gt;Node8</title>
<path fill="none" stroke="midnightblue" d="M775.02,-134.45C760.64,-115.44 744.74,-86.64 761,-67 772.97,-52.54 873.57,-36.46 947.53,-26.42"/>
<polygon fill="midnightblue" stroke="midnightblue" points="948.33,-29.84 957.78,-25.04 947.4,-22.9 948.33,-29.84"/>
</g>
<!-- Node9 -->
<g id="node9" class="node">
<title>Node9</title>
<g id="a_node9"><a xlink:title=" ">
<polygon fill="none" stroke="#bfbfbf" points="1194,-6 1194,-25 1346,-25 1346,-6 1194,-6"/>
<text text-anchor="middle" x="1270" y="-13" font-family="Helvetica,sans-Serif" font-size="10.00">tf2_ros/transform_listener.h</text>
</a>
</g>
</g>
<!-- Node1&#45;&gt;Node9 -->
<g id="edge8" class="edge">
<title>Node1&#45;&gt;Node9</title>
<path fill="none" stroke="midnightblue" d="M871.75,-150.48C1002.25,-143.88 1249.62,-127.6 1276,-98 1291.22,-80.92 1284.88,-53.02 1278.11,-34.71"/>
<polygon fill="midnightblue" stroke="midnightblue" points="1281.34,-33.37 1274.34,-25.42 1274.86,-36 1281.34,-33.37"/>
</g>
<!-- Node10 -->
<g id="node10" class="node">
<title>Node10</title>
<g id="a_node10"><a xlink:title=" ">
<polygon fill="none" stroke="#bfbfbf" points="1364,-6 1364,-25 1470,-25 1470,-6 1364,-6"/>
<text text-anchor="middle" x="1417" y="-13" font-family="Helvetica,sans-Serif" font-size="10.00">bondcpp/bond.hpp</text>
</a>
</g>
</g>
<!-- Node1&#45;&gt;Node10 -->
<g id="edge9" class="edge">
<title>Node1&#45;&gt;Node10</title>
<path fill="none" stroke="midnightblue" d="M871.9,-152.83C1115.88,-148.87 1836.69,-134.13 1871,-98 1880.49,-88.01 1880.29,-77.18 1871,-67 1841.6,-34.77 1523.08,-37.91 1480,-31 1473.6,-29.97 1466.88,-28.67 1460.31,-27.27"/>
<polygon fill="midnightblue" stroke="midnightblue" points="1460.71,-23.77 1450.19,-25.02 1459.19,-30.61 1460.71,-23.77"/>
</g>
<!-- Node11 -->
<g id="node11" class="node">
<title>Node11</title>
<g id="a_node11"><a xlink:title=" ">
<polygon fill="none" stroke="#bfbfbf" points="726.5,-0.5 726.5,-30.5 863.5,-30.5 863.5,-0.5 726.5,-0.5"/>
<text text-anchor="start" x="734.5" y="-18.5" font-family="Helvetica,sans-Serif" font-size="10.00">rclcpp_lifecycle/lifecycle</text>
<text text-anchor="middle" x="795" y="-7.5" font-family="Helvetica,sans-Serif" font-size="10.00">_node.hpp</text>
</a>
</g>
</g>
<!-- Node1&#45;&gt;Node11 -->
<g id="edge10" class="edge">
<title>Node1&#45;&gt;Node11</title>
<path fill="none" stroke="midnightblue" d="M759.51,-134.31C747.24,-124.98 734.65,-112.65 728,-98 722.31,-85.45 721.85,-79.33 728,-67 734.27,-54.43 745.32,-44.17 756.66,-36.25"/>
<polygon fill="midnightblue" stroke="midnightblue" points="758.81,-39.03 765.31,-30.66 755.02,-33.15 758.81,-39.03"/>
</g>
<!-- Node12 -->
<g id="node12" class="node">
<title>Node12</title>
<g id="a_node12"><a xlink:title=" ">
<polygon fill="none" stroke="#bfbfbf" points="770,-67.5 770,-97.5 916,-97.5 916,-67.5 770,-67.5"/>
<text text-anchor="start" x="778" y="-85.5" font-family="Helvetica,sans-Serif" font-size="10.00">geometry_msgs/msg/pose</text>
<text text-anchor="middle" x="843" y="-74.5" font-family="Helvetica,sans-Serif" font-size="10.00">_array.hpp</text>
</a>
</g>
</g>
<!-- Node1&#45;&gt;Node12 -->
<g id="edge11" class="edge">
<title>Node1&#45;&gt;Node12</title>
<path fill="none" stroke="midnightblue" d="M806.21,-134.36C812.55,-125.59 820.06,-115.21 826.64,-106.12"/>
<polygon fill="midnightblue" stroke="midnightblue" points="829.56,-108.05 832.59,-97.89 823.89,-103.94 829.56,-108.05"/>
</g>
<!-- Node13 -->
<g id="node13" class="node">
<title>Node13</title>
<g id="a_node13"><a xlink:title=" ">
<polygon fill="none" stroke="#bfbfbf" points="934,-67.5 934,-97.5 1104,-97.5 1104,-67.5 934,-67.5"/>
<text text-anchor="start" x="942" y="-85.5" font-family="Helvetica,sans-Serif" font-size="10.00">geometry_msgs/msg/pose</text>
<text text-anchor="middle" x="1019" y="-74.5" font-family="Helvetica,sans-Serif" font-size="10.00">_with_covariance_stamped.hpp</text>
</a>
</g>
</g>
<!-- Node1&#45;&gt;Node13 -->
<g id="edge12" class="edge">
<title>Node1&#45;&gt;Node13</title>
<path fill="none" stroke="midnightblue" d="M854.93,-134.46C889.06,-123.86 930.85,-110.88 963.72,-100.67"/>
<polygon fill="midnightblue" stroke="midnightblue" points="965.1,-103.91 973.61,-97.6 963.02,-97.22 965.1,-103.91"/>
</g>
<!-- Node14 -->
<g id="node14" class="node">
<title>Node14</title>
<g id="a_node14"><a xlink:title=" ">
<polygon fill="none" stroke="#bfbfbf" points="1122.5,-67.5 1122.5,-97.5 1267.5,-97.5 1267.5,-67.5 1122.5,-67.5"/>
<text text-anchor="start" x="1130.5" y="-85.5" font-family="Helvetica,sans-Serif" font-size="10.00">nav_msgs/msg/occupancy</text>
<text text-anchor="middle" x="1195" y="-74.5" font-family="Helvetica,sans-Serif" font-size="10.00">_grid.hpp</text>
</a>
</g>
</g>
<!-- Node1&#45;&gt;Node14 -->
<g id="edge13" class="edge">
<title>Node1&#45;&gt;Node14</title>
<path fill="none" stroke="midnightblue" d="M871.82,-140.13C934.43,-129.23 1024.06,-113.61 1112.22,-98.14"/>
<polygon fill="midnightblue" stroke="midnightblue" points="1112.88,-101.57 1122.12,-96.4 1111.67,-94.68 1112.88,-101.57"/>
</g>
<!-- Node15 -->
<g id="node15" class="node">
<title>Node15</title>
<g id="a_node15"><a xlink:title=" ">
<polygon fill="none" stroke="#bfbfbf" points="426.5,-0.5 426.5,-30.5 557.5,-30.5 557.5,-0.5 426.5,-0.5"/>
<text text-anchor="start" x="434.5" y="-18.5" font-family="Helvetica,sans-Serif" font-size="10.00">sensor_msgs/msg/laser</text>
<text text-anchor="middle" x="492" y="-7.5" font-family="Helvetica,sans-Serif" font-size="10.00">_scan.hpp</text>
</a>
</g>
</g>
<!-- Node1&#45;&gt;Node15 -->
<g id="edge14" class="edge">
<title>Node1&#45;&gt;Node15</title>
<path fill="none" stroke="midnightblue" d="M712.46,-152.18C659.52,-147.39 590.8,-133.89 541,-98 521.22,-83.75 507.96,-58.82 500.27,-40.28"/>
<polygon fill="midnightblue" stroke="midnightblue" points="503.45,-38.8 496.57,-30.74 496.93,-41.33 503.45,-38.8"/>
</g>
<!-- Node16 -->
<g id="node16" class="node">
<title>Node16</title>
<g id="a_node16"><a xlink:title=" ">
<polygon fill="none" stroke="#bfbfbf" points="1324.5,-73 1324.5,-92 1453.5,-92 1453.5,-73 1324.5,-73"/>
<text text-anchor="middle" x="1389" y="-80" font-family="Helvetica,sans-Serif" font-size="10.00">std_srvs/srv/empty.hpp</text>
</a>
</g>
</g>
<!-- Node1&#45;&gt;Node16 -->
<g id="edge15" class="edge">
<title>Node1&#45;&gt;Node16</title>
<path fill="none" stroke="midnightblue" d="M871.65,-147.23C973.55,-138.15 1155.37,-120.52 1310,-98 1318.33,-96.79 1327.13,-95.34 1335.7,-93.84"/>
<polygon fill="midnightblue" stroke="midnightblue" points="1336.41,-97.27 1345.63,-92.06 1335.17,-90.38 1336.41,-97.27"/>
</g>
<!-- Node17 -->
<g id="node17" class="node">
<title>Node17</title>
<g id="a_node17"><a xlink:title=" ">
<polygon fill="none" stroke="#bfbfbf" points="1472,-67.5 1472,-97.5 1600,-97.5 1600,-67.5 1472,-67.5"/>
<text text-anchor="start" x="1480" y="-85.5" font-family="Helvetica,sans-Serif" font-size="10.00">visualization_msgs</text>
<text text-anchor="middle" x="1536" y="-74.5" font-family="Helvetica,sans-Serif" font-size="10.00">/msg/marker_array.hpp</text>
</a>
</g>
</g>
<!-- Node1&#45;&gt;Node17 -->
<g id="edge16" class="edge">
<title>Node1&#45;&gt;Node17</title>
<path fill="none" stroke="midnightblue" d="M871.6,-150.27C995.68,-143.81 1242.81,-128.36 1461.89,-98.05"/>
<polygon fill="midnightblue" stroke="midnightblue" points="1462.56,-101.49 1471.98,-96.64 1461.59,-94.56 1462.56,-101.49"/>
</g>
<!-- Node18 -->
<g id="node18" class="node">
<title>Node18</title>
<g id="a_node18"><a target="_parent" xlink:href="../../../../../../beluga/docs/_doxygen/generated/reference/html/beluga_8hpp.html.html" xlink:title=" ">
<polygon fill="none" stroke="black" points="1618.5,-73 1618.5,-92 1725.5,-92 1725.5,-73 1618.5,-73"/>
<text text-anchor="middle" x="1672" y="-80" font-family="Helvetica,sans-Serif" font-size="10.00">beluga/beluga.hpp</text>
</a>
</g>
</g>
<!-- Node1&#45;&gt;Node18 -->
<g id="edge17" class="edge">
<title>Node1&#45;&gt;Node18</title>
<path fill="none" stroke="midnightblue" d="M871.6,-152.71C1018.23,-149.4 1340.57,-137.84 1609,-98 1615.71,-97 1622.77,-95.67 1629.63,-94.21"/>
<polygon fill="midnightblue" stroke="midnightblue" points="1630.49,-97.61 1639.49,-92.01 1628.97,-90.77 1630.49,-97.61"/>
</g>
<!-- Node19 -->
<g id="node19" class="node">
<title>Node19</title>
<g id="a_node19"><a target="_parent" xlink:href="../../../../../../beluga_ros/docs/_doxygen/generated/reference/html/amcl_8hpp.html.html" xlink:title=" ">
<polygon fill="none" stroke="black" points="1744,-73 1744,-92 1862,-92 1862,-73 1744,-73"/>
<text text-anchor="middle" x="1803" y="-80" font-family="Helvetica,sans-Serif" font-size="10.00">beluga_ros/amcl.hpp</text>
</a>
</g>
</g>
<!-- Node1&#45;&gt;Node19 -->
<g id="edge18" class="edge">
<title>Node1&#45;&gt;Node19</title>
<path fill="none" stroke="midnightblue" d="M871.56,-153.31C1034.38,-151.02 1417.07,-141.09 1735,-98 1742.49,-96.99 1750.37,-95.6 1758.02,-94.09"/>
<polygon fill="midnightblue" stroke="midnightblue" points="1758.8,-97.5 1767.88,-92.04 1757.38,-90.65 1758.8,-97.5"/>
</g>
<!-- Node20 -->
<g id="node20" class="node">
<title>Node20</title>
<g id="a_node20"><a xlink:href="message__filters_8hpp.html" target="_top" xlink:title="Compatibility layer for message_filters.">
<polygon fill="none" stroke="black" points="550,-67.5 550,-97.5 676,-97.5 676,-67.5 550,-67.5"/>
<text text-anchor="start" x="558" y="-85.5" font-family="Helvetica,sans-Serif" font-size="10.00">beluga_amcl/message</text>
<text text-anchor="middle" x="613" y="-74.5" font-family="Helvetica,sans-Serif" font-size="10.00">_filters.hpp</text>
</a>
</g>
</g>
<!-- Node1&#45;&gt;Node20 -->
<g id="edge19" class="edge">
<title>Node1&#45;&gt;Node20</title>
<path fill="none" stroke="midnightblue" d="M742.14,-134.36C715.81,-123.99 683.75,-111.37 658.16,-101.29"/>
<polygon fill="midnightblue" stroke="midnightblue" points="659.28,-97.97 648.7,-97.56 656.72,-104.48 659.28,-97.97"/>
</g>
<!-- Node22 -->
<g id="node22" class="node">
<title>Node22</title>
<g id="a_node22"><a xlink:href="ros2__common_8hpp_source.html" target="_top" xlink:title=" ">
<polygon fill="none" stroke="black" points="1918,-73 1918,-92 2090,-92 2090,-73 1918,-73"/>
<text text-anchor="middle" x="2004" y="-80" font-family="Helvetica,sans-Serif" font-size="10.00">beluga_amcl/ros2_common.hpp</text>
</a>
</g>
</g>
<!-- Node1&#45;&gt;Node22 -->
<g id="edge24" class="edge">
<title>Node1&#45;&gt;Node22</title>
<path fill="none" stroke="midnightblue" d="M871.74,-152.55C1054.64,-148.65 1518.26,-135.6 1904,-98 1916.14,-96.82 1929.06,-95.21 1941.45,-93.49"/>
<polygon fill="midnightblue" stroke="midnightblue" points="1942.29,-96.9 1951.69,-92.03 1941.3,-89.97 1942.29,-96.9"/>
</g>
<!-- Node20&#45;&gt;Node5 -->
<g id="edge20" class="edge">
<title>Node20&#45;&gt;Node5</title>
<path fill="none" stroke="midnightblue" d="M549.76,-68.81C488.96,-56.61 398.13,-38.39 341.29,-26.99"/>
<polygon fill="midnightblue" stroke="midnightblue" points="341.93,-23.55 331.44,-25.01 340.55,-30.41 341.93,-23.55"/>
</g>
<!-- Node20&#45;&gt;Node11 -->
<g id="edge21" class="edge">
<title>Node20&#45;&gt;Node11</title>
<path fill="none" stroke="midnightblue" d="M652.49,-67.4C679.92,-57.6 716.65,-44.48 745.96,-34.02"/>
<polygon fill="midnightblue" stroke="midnightblue" points="747.35,-37.24 755.59,-30.58 744.99,-30.64 747.35,-37.24"/>
</g>
<!-- Node20&#45;&gt;Node15 -->
<g id="edge22" class="edge">
<title>Node20&#45;&gt;Node15</title>
<path fill="none" stroke="midnightblue" d="M586.74,-67.4C569.3,-58.03 546.2,-45.62 527.17,-35.39"/>
<polygon fill="midnightblue" stroke="midnightblue" points="528.67,-32.23 518.2,-30.58 525.36,-38.39 528.67,-32.23"/>
</g>
<!-- Node21 -->
<g id="node21" class="node">
<title>Node21</title>
<g id="a_node21"><a xlink:title=" ">
<polygon fill="none" stroke="#bfbfbf" points="576,-0.5 576,-30.5 708,-30.5 708,-0.5 576,-0.5"/>
<text text-anchor="start" x="584" y="-18.5" font-family="Helvetica,sans-Serif" font-size="10.00">sensor_msgs/msg/point</text>
<text text-anchor="middle" x="642" y="-7.5" font-family="Helvetica,sans-Serif" font-size="10.00">_cloud2.hpp</text>
</a>
</g>
</g>
<!-- Node20&#45;&gt;Node21 -->
<g id="edge23" class="edge">
<title>Node20&#45;&gt;Node21</title>
<path fill="none" stroke="midnightblue" d="M619.29,-67.4C622.86,-59.39 627.43,-49.16 631.53,-39.98"/>
<polygon fill="midnightblue" stroke="midnightblue" points="634.84,-41.13 635.72,-30.58 628.45,-38.28 634.84,-41.13"/>
</g>
<!-- Node22&#45;&gt;Node8 -->
<g id="edge36" class="edge">
<title>Node22&#45;&gt;Node8</title>
<path fill="none" stroke="midnightblue" d="M1932.63,-72.97C1912.7,-70.8 1891.03,-68.62 1871,-67 1566.68,-42.45 1489.52,-52.95 1185,-31 1165.02,-29.56 1143.65,-27.77 1123.28,-25.94"/>
<polygon fill="midnightblue" stroke="midnightblue" points="1123.33,-22.43 1113.05,-25.01 1122.69,-29.4 1123.33,-22.43"/>
</g>
<!-- Node22&#45;&gt;Node9 -->
<g id="edge37" class="edge">
<title>Node22&#45;&gt;Node9</title>
<path fill="none" stroke="midnightblue" d="M1930.53,-72.97C1911.18,-70.87 1890.32,-68.73 1871,-67 1642.02,-46.54 1583.26,-58.36 1355,-31 1345.19,-29.82 1334.79,-28.29 1324.75,-26.66"/>
<polygon fill="midnightblue" stroke="midnightblue" points="1325.31,-23.21 1314.87,-25.01 1324.16,-30.11 1325.31,-23.21"/>
</g>
<!-- Node22&#45;&gt;Node10 -->
<g id="edge31" class="edge">
<title>Node22&#45;&gt;Node10</title>
<path fill="none" stroke="midnightblue" d="M1949.32,-72.97C1934.63,-70.85 1918.73,-68.69 1904,-67 1716.11,-45.42 1666.84,-60.28 1480,-31 1473.6,-30 1466.88,-28.71 1460.31,-27.31"/>
<polygon fill="midnightblue" stroke="midnightblue" points="1460.7,-23.82 1450.18,-25.06 1459.18,-30.65 1460.7,-23.82"/>
</g>
<!-- Node22&#45;&gt;Node11 -->
<g id="edge27" class="edge">
<title>Node22&#45;&gt;Node11</title>
<path fill="none" stroke="midnightblue" d="M1934.37,-72.98C1913.97,-70.73 1891.62,-68.52 1871,-67 1454.04,-36.32 1347.99,-61.18 931,-31 912.43,-29.66 892.48,-27.78 873.73,-25.81"/>
<polygon fill="midnightblue" stroke="midnightblue" points="874.07,-22.33 863.76,-24.75 873.33,-29.29 874.07,-22.33"/>
</g>
<!-- Node23 -->
<g id="node23" class="node">
<title>Node23</title>
<g id="a_node23"><a xlink:title=" ">
<polygon fill="none" stroke="#bfbfbf" points="2474,-6 2474,-25 2538,-25 2538,-6 2474,-6"/>
<text text-anchor="middle" x="2506" y="-13" font-family="Helvetica,sans-Serif" font-size="10.00">execution</text>
</a>
</g>
</g>
<!-- Node22&#45;&gt;Node23 -->
<g id="edge25" class="edge">
<title>Node22&#45;&gt;Node23</title>
<path fill="none" stroke="midnightblue" d="M2090.37,-77.99C2183.75,-72.82 2336.47,-60.35 2465,-31 2468.24,-30.26 2471.58,-29.35 2474.88,-28.34"/>
<polygon fill="midnightblue" stroke="midnightblue" points="2476.18,-31.6 2484.57,-25.13 2473.98,-24.95 2476.18,-31.6"/>
</g>
<!-- Node24 -->
<g id="node24" class="node">
<title>Node24</title>
<g id="a_node24"><a xlink:title=" ">
<polygon fill="none" stroke="#bfbfbf" points="2556.5,-6 2556.5,-25 2691.5,-25 2691.5,-6 2556.5,-6"/>
<text text-anchor="middle" x="2624" y="-13" font-family="Helvetica,sans-Serif" font-size="10.00">rclcpp/node_options.hpp</text>
</a>
</g>
</g>
<!-- Node22&#45;&gt;Node24 -->
<g id="edge26" class="edge">
<title>Node22&#45;&gt;Node24</title>
<path fill="none" stroke="midnightblue" d="M2090.34,-75.97C2197.7,-68.52 2386.44,-53.53 2547,-31 2555.33,-29.83 2564.12,-28.38 2572.67,-26.85"/>
<polygon fill="midnightblue" stroke="midnightblue" points="2573.35,-30.29 2582.56,-25.04 2572.09,-23.4 2573.35,-30.29"/>
</g>
<!-- Node25 -->
<g id="node25" class="node">
<title>Node25</title>
<g id="a_node25"><a xlink:title=" ">
<polygon fill="none" stroke="#bfbfbf" points="2709.5,-6 2709.5,-25 2850.5,-25 2850.5,-6 2709.5,-6"/>
<text text-anchor="middle" x="2780" y="-13" font-family="Helvetica,sans-Serif" font-size="10.00">rclcpp_lifecycle/state.hpp</text>
</a>
</g>
</g>
<!-- Node22&#45;&gt;Node25 -->
<g id="edge28" class="edge">
<title>Node22&#45;&gt;Node25</title>
<path fill="none" stroke="midnightblue" d="M2090.14,-78.29C2222.08,-72.68 2481.97,-58.95 2701,-31 2709.84,-29.87 2719.2,-28.4 2728.26,-26.83"/>
<polygon fill="midnightblue" stroke="midnightblue" points="2729.09,-30.24 2738.31,-25.03 2727.85,-23.35 2729.09,-30.24"/>
</g>
<!-- Node26 -->
<g id="node26" class="node">
<title>Node26</title>
<g id="a_node26"><a xlink:title=" ">
<polygon fill="none" stroke="#bfbfbf" points="2869,-6 2869,-25 2913,-25 2913,-6 2869,-6"/>
<text text-anchor="middle" x="2891" y="-13" font-family="Helvetica,sans-Serif" font-size="10.00">string</text>
</a>
</g>
</g>
<!-- Node22&#45;&gt;Node26 -->
<g id="edge29" class="edge">
<title>Node22&#45;&gt;Node26</title>
<path fill="none" stroke="midnightblue" d="M2090.35,-80.53C2277.71,-77.75 2716.23,-67.44 2860,-31 2861.99,-30.5 2864,-29.87 2866,-29.15"/>
<polygon fill="midnightblue" stroke="midnightblue" points="2867.8,-32.19 2875.66,-25.07 2865.08,-25.74 2867.8,-32.19"/>
</g>
<!-- Node27 -->
<g id="node27" class="node">
<title>Node27</title>
<g id="a_node27"><a xlink:title=" ">
<polygon fill="none" stroke="#bfbfbf" points="1488.5,-6 1488.5,-25 1561.5,-25 1561.5,-6 1488.5,-6"/>
<text text-anchor="middle" x="1525" y="-13" font-family="Helvetica,sans-Serif" font-size="10.00">string_view</text>
</a>
</g>
</g>
<!-- Node22&#45;&gt;Node27 -->
<g id="edge30" class="edge">
<title>Node22&#45;&gt;Node27</title>
<path fill="none" stroke="midnightblue" d="M1947.72,-72.97C1933.47,-70.92 1918.18,-68.79 1904,-67 1756.31,-48.32 1716.7,-61.53 1571,-31 1567.06,-30.17 1562.97,-29.15 1558.93,-28.02"/>
<polygon fill="midnightblue" stroke="midnightblue" points="1559.7,-24.6 1549.11,-25.09 1557.69,-31.3 1559.7,-24.6"/>
</g>
<!-- Node28 -->
<g id="node28" class="node">
<title>Node28</title>
<g id="a_node28"><a xlink:title=" ">
<polygon fill="none" stroke="#bfbfbf" points="1580,-0.5 1580,-30.5 1726,-30.5 1726,-0.5 1580,-0.5"/>
<text text-anchor="start" x="1588" y="-18.5" font-family="Helvetica,sans-Serif" font-size="10.00">geometry_msgs/msg/pose</text>
<text text-anchor="middle" x="1653" y="-7.5" font-family="Helvetica,sans-Serif" font-size="10.00">_stamped.hpp</text>
</a>
</g>
</g>
<!-- Node22&#45;&gt;Node28 -->
<g id="edge32" class="edge">
<title>Node22&#45;&gt;Node28</title>
<path fill="none" stroke="midnightblue" d="M1957.75,-72.94C1901.51,-62.52 1805.52,-44.74 1736.28,-31.92"/>
<polygon fill="midnightblue" stroke="midnightblue" points="1736.73,-28.45 1726.26,-30.07 1735.46,-35.33 1736.73,-28.45"/>
</g>
<!-- Node29 -->
<g id="node29" class="node">
<title>Node29</title>
<g id="a_node29"><a xlink:title=" ">
<polygon fill="none" stroke="#bfbfbf" points="1744.5,-6 1744.5,-25 1843.5,-25 1843.5,-6 1744.5,-6"/>
<text text-anchor="middle" x="1794" y="-13" font-family="Helvetica,sans-Serif" font-size="10.00">rclcpp/rclcpp.hpp</text>
</a>
</g>
</g>
<!-- Node22&#45;&gt;Node29 -->
<g id="edge33" class="edge">
<title>Node22&#45;&gt;Node29</title>
<path fill="none" stroke="midnightblue" d="M1976.11,-72.87C1938.9,-61.35 1872.9,-40.92 1831.4,-28.08"/>
<polygon fill="midnightblue" stroke="midnightblue" points="1832.26,-24.68 1821.67,-25.06 1830.19,-31.36 1832.26,-24.68"/>
</g>
<!-- Node30 -->
<g id="node30" class="node">
<title>Node30</title>
<g id="a_node30"><a xlink:title=" ">
<polygon fill="none" stroke="#bfbfbf" points="1862,-6 1862,-25 1954,-25 1954,-6 1862,-6"/>
<text text-anchor="middle" x="1908" y="-13" font-family="Helvetica,sans-Serif" font-size="10.00">rclcpp/time.hpp</text>
</a>
</g>
</g>
<!-- Node22&#45;&gt;Node30 -->
<g id="edge34" class="edge">
<title>Node22&#45;&gt;Node30</title>
<path fill="none" stroke="midnightblue" d="M1991.05,-72.73C1975.15,-61.96 1947.95,-43.55 1929.03,-30.74"/>
<polygon fill="midnightblue" stroke="midnightblue" points="1930.98,-27.84 1920.74,-25.13 1927.06,-33.63 1930.98,-27.84"/>
</g>
<!-- Node31 -->
<g id="node31" class="node">
<title>Node31</title>
<g id="a_node31"><a xlink:title=" ">
<polygon fill="none" stroke="#bfbfbf" points="1972,-0.5 1972,-30.5 2088,-30.5 2088,-0.5 1972,-0.5"/>
<text text-anchor="start" x="1980" y="-18.5" font-family="Helvetica,sans-Serif" font-size="10.00">tf2_ros/create_timer</text>
<text text-anchor="middle" x="2030" y="-7.5" font-family="Helvetica,sans-Serif" font-size="10.00">_ros.h</text>
</a>
</g>
</g>
<!-- Node22&#45;&gt;Node31 -->
<g id="edge35" class="edge">
<title>Node22&#45;&gt;Node31</title>
<path fill="none" stroke="midnightblue" d="M2007.51,-72.73C2010.85,-64.37 2016.04,-51.4 2020.59,-40.02"/>
<polygon fill="midnightblue" stroke="midnightblue" points="2023.9,-41.17 2024.36,-30.59 2017.4,-38.57 2023.9,-41.17"/>
</g>
<!-- Node32 -->
<g id="node32" class="node">
<title>Node32</title>
<g id="a_node32"><a xlink:title=" ">
<polygon fill="none" stroke="#bfbfbf" points="2106.5,-6 2106.5,-25 2197.5,-25 2197.5,-6 2106.5,-6"/>
<text text-anchor="middle" x="2152" y="-13" font-family="Helvetica,sans-Serif" font-size="10.00">tf2/convert.hpp</text>
</a>
</g>
</g>
<!-- Node22&#45;&gt;Node32 -->
<g id="edge38" class="edge">
<title>Node22&#45;&gt;Node32</title>
<path fill="none" stroke="midnightblue" d="M2023.65,-72.87C2049.09,-61.7 2093.6,-42.15 2122.95,-29.26"/>
<polygon fill="midnightblue" stroke="midnightblue" points="2124.52,-32.39 2132.27,-25.17 2121.7,-25.98 2124.52,-32.39"/>
</g>
<!-- Node33 -->
<g id="node33" class="node">
<title>Node33</title>
<g id="a_node33"><a xlink:title=" ">
<polygon fill="none" stroke="#bfbfbf" points="2215.5,-6 2215.5,-25 2290.5,-25 2290.5,-6 2215.5,-6"/>
<text text-anchor="middle" x="2253" y="-13" font-family="Helvetica,sans-Serif" font-size="10.00">tf2/utils.hpp</text>
</a>
</g>
</g>
<!-- Node22&#45;&gt;Node33 -->
<g id="edge39" class="edge">
<title>Node22&#45;&gt;Node33</title>
<path fill="none" stroke="midnightblue" d="M2041.22,-72.97C2082.07,-63.43 2149.5,-47.2 2207,-31 2210.32,-30.06 2213.77,-29.05 2217.22,-28.01"/>
<polygon fill="midnightblue" stroke="midnightblue" points="2218.28,-31.35 2226.81,-25.06 2216.22,-24.66 2218.28,-31.35"/>
</g>
<!-- Node34 -->
<g id="node34" class="node">
<title>Node34</title>
<g id="a_node34"><a target="_parent" xlink:href="../../../../../../beluga_ros/docs/_doxygen/generated/reference/html/tf2__sophus_8hpp.html.html" xlink:title=" ">
<polygon fill="none" stroke="black" points="2308.5,-6 2308.5,-25 2455.5,-25 2455.5,-6 2308.5,-6"/>
<text text-anchor="middle" x="2382" y="-13" font-family="Helvetica,sans-Serif" font-size="10.00">beluga_ros/tf2_sophus.hpp</text>
</a>
</g>
</g>
<!-- Node22&#45;&gt;Node34 -->
<g id="edge40" class="edge">
<title>Node22&#45;&gt;Node34</title>
<path fill="none" stroke="midnightblue" d="M2054.56,-72.97C2113.5,-63 2213.84,-45.97 2300,-31 2307.71,-29.66 2315.83,-28.24 2323.84,-26.83"/>
<polygon fill="midnightblue" stroke="midnightblue" points="2324.64,-30.24 2333.88,-25.06 2323.42,-23.35 2324.64,-30.24"/>
</g>
</g>
</svg>
        <g id="navigator" transform="translate(0 0)" fill="#404254">
                <rect fill="#f2f5e9" fill-opacity="0.5" stroke="#606060" stroke-width=".5" x="0" y="0" width="60" height="60"/>
                <use id="zoomplus" xlink:href="#zoomPlus" x="17" y="9" onmousedown="handleZoom(evt,'in')"/>
                <use id="zoomminus" xlink:href="#zoomMin" x="42" y="9" onmousedown="handleZoom(evt,'out')"/>
                <use id="reset" xlink:href="#resetDef" x="30" y="36" onmousedown="handleReset()"/>
                <g id="arrowUp" xlink:href="#dirArrow" transform="translate(30 24)" onmousedown="handlePan(0,-1)">
                  <use xlink:href="#rim" fill="#404040">
                        <set attributeName="fill" to="#808080" begin="arrowUp.mouseover" end="arrowUp.mouseout"/>
                  </use>
                  <path fill="none" stroke="white" stroke-width="1.5" d="M0,-3.0v7 M-2.5,-0.5L0,-3.0L2.5,-0.5"/>
                </g>
                <g id="arrowRight" xlink:href="#dirArrow" transform="rotate(90) translate(36 -43)" onmousedown="handlePan(1,0)">
                  <use xlink:href="#rim" fill="#404040">
                        <set attributeName="fill" to="#808080" begin="arrowRight.mouseover" end="arrowRight.mouseout"/>
                  </use>
                  <path fill="none" stroke="white" stroke-width="1.5" d="M0,-3.0v7 M-2.5,-0.5L0,-3.0L2.5,-0.5"/>
                </g>
                <g id="arrowDown" xlink:href="#dirArrow" transform="rotate(180) translate(-30 -48)" onmousedown="handlePan(0,1)">
                  <use xlink:href="#rim" fill="#404040">
                        <set attributeName="fill" to="#808080" begin="arrowDown.mouseover" end="arrowDown.mouseout"/>
                  </use>
                  <path fill="none" stroke="white" stroke-width="1.5" d="M0,-3.0v7 M-2.5,-0.5L0,-3.0L2.5,-0.5"/>
                </g>
                <g id="arrowLeft" xlink:href="#dirArrow" transform="rotate(270) translate(-36 17)" onmousedown="handlePan(-1,0)">
                  <use xlink:href="#rim" fill="#404040">
                        <set attributeName="fill" to="#808080" begin="arrowLeft.mouseover" end="arrowLeft.mouseout"/>
                  </use>
                  <path fill="none" stroke="white" stroke-width="1.5" d="M0,-3.0v7 M-2.5,-0.5L0,-3.0L2.5,-0.5"/>
                </g>
        </g>
        <svg viewBox="0 0 15 15" width="100%" height="30px" preserveAspectRatio="xMaxYMin meet">
         <g id="arrow_out" transform="scale(0.3 0.3)">
          <a xlink:href="amcl__node_8hpp__incl_org.svg" target="_base">
           <rect id="button" ry="5" rx="5" y="6" x="6" height="38" width="38"
                fill="#f2f5e9" fill-opacity="0.5" stroke="#606060" stroke-width="1.0"/>
           <path id="arrow"
             d="M 11.500037,31.436501 C 11.940474,20.09759 22.043105,11.32322 32.158766,21.979434 L 37.068811,17.246167 C 37.068811,17.246167 37.088388,32 37.088388,32 L 22.160133,31.978069 C 22.160133,31.978069 26.997745,27.140456 26.997745,27.140456 C 18.528582,18.264221 13.291696,25.230495 11.500037,31.436501 z"
             style="fill:#404040;"/>
          </a>
         </g>
        </svg>
</svg>
