<?xml version="1.0" encoding="UTF-8" standalone="no"?>
<!DOCTYPE svg PUBLIC "-//W3C//DTD SVG 1.1//EN"
 "http://www.w3.org/Graphics/SVG/1.1/DTD/svg11.dtd">
<!-- Generated by graphviz version 2.43.0 (0)
 -->
<!-- Title: /home/runner/work/beluga/beluga/beluga_amcl/include/beluga_amcl/amcl_node.hpp Pages: 1 -->
<!--zoomable 184 -->
<svg id="main" version="1.1" xmlns="http://www.w3.org/2000/svg" xmlns:xlink="http://www.w3.org/1999/xlink" xml:space="preserve" onload="init(evt)">
<style type="text/css"><![CDATA[
.edge:hover path { stroke: red; }
.edge:hover polygon { stroke: red; fill: red; }
]]></style>
<script type="text/javascript"><![CDATA[
var edges = document.getElementsByTagName('g');
if (edges && edges.length) {
  for (var i=0;i<edges.length;i++) {
    if (edges[i].id.substr(0,4)=='edge') {
      edges[i].setAttribute('class','edge');
    }
  }
}
]]></script>
        <defs>
                <circle id="rim" cx="0" cy="0" r="7"/>
                <circle id="rim2" cx="0" cy="0" r="3.5"/>
                <g id="zoomPlus">
                        <use xlink:href="#rim" fill="#404040">
                                <set attributeName="fill" to="#808080" begin="zoomplus.mouseover" end="zoomplus.mouseout"/>
                        </use>
                        <path d="M-4,0h8M0,-4v8" fill="none" stroke="white" stroke-width="1.5" pointer-events="none"/>
                </g>
                <g id="zoomMin">
                        <use xlink:href="#rim" fill="#404040">
                                <set attributeName="fill" to="#808080" begin="zoomminus.mouseover" end="zoomminus.mouseout"/>
                        </use>
                        <path d="M-4,0h8" fill="none" stroke="white" stroke-width="1.5" pointer-events="none"/>
                </g>
                <g id="dirArrow">
                        <path fill="none" stroke="white" stroke-width="1.5" d="M0,-3.0v7 M-2.5,-0.5L0,-3.0L2.5,-0.5"/>
                </g>
               <g id="resetDef">
                       <use xlink:href="#rim2" fill="#404040">
                               <set attributeName="fill" to="#808080" begin="reset.mouseover" end="reset.mouseout"/>
                       </use>
               </g>
        </defs>

<script type="text/javascript">
var viewWidth = 2199;
var viewHeight = 184;
var sectionId = 'dynsection-0';
</script>
<script xlink:href="svgpan.js"/>
<svg id="graph" class="graph">
<g id="viewport">
<title>/home/runner/work/beluga/beluga/beluga_amcl/include/beluga_amcl/amcl_node.hpp</title>
<!-- Node1 -->
<g id="node1" class="node">
<title>Node1</title>
<g id="a_node1"><a xlink:title="ROS 2 integration of the 2D AMCL algorithm.">
<polygon fill="#bfbfbf" stroke="black" points="691.5,-134.5 691.5,-175.5 850.5,-175.5 850.5,-134.5 691.5,-134.5"/>
<text text-anchor="start" x="699.5" y="-163.5" font-family="Helvetica,sans-Serif" font-size="10.00">/home/runner/work/beluga</text>
<text text-anchor="start" x="699.5" y="-152.5" font-family="Helvetica,sans-Serif" font-size="10.00">/beluga/beluga_amcl/include</text>
<text text-anchor="middle" x="771" y="-141.5" font-family="Helvetica,sans-Serif" font-size="10.00">/beluga_amcl/amcl_node.hpp</text>
</a>
</g>
</g>
<!-- Node2 -->
<g id="node2" class="node">
<title>Node2</title>
<g id="a_node2"><a xlink:title=" ">
<polygon fill="none" stroke="#bfbfbf" points="0,-73 0,-92 58,-92 58,-73 0,-73"/>
<text text-anchor="middle" x="29" y="-80" font-family="Helvetica,sans-Serif" font-size="10.00">memory</text>
</a>
</g>
</g>
<!-- Node1&#45;&gt;Node2 -->
<g id="edge1" class="edge">
<title>Node1&#45;&gt;Node2</title>
<path fill="none" stroke="midnightblue" d="M691.24,-154.99C559.57,-155 289.16,-148.13 67,-98 64,-97.32 60.92,-96.46 57.87,-95.48"/>
<polygon fill="midnightblue" stroke="midnightblue" points="58.99,-92.17 48.39,-92.12 56.65,-98.76 58.99,-92.17"/>
</g>
<!-- Node3 -->
<g id="node3" class="node">
<title>Node3</title>
<g id="a_node3"><a xlink:title=" ">
<polygon fill="none" stroke="#bfbfbf" points="76,-73 76,-92 132,-92 132,-73 76,-73"/>
<text text-anchor="middle" x="104" y="-80" font-family="Helvetica,sans-Serif" font-size="10.00">optional</text>
</a>
</g>
</g>
<!-- Node1&#45;&gt;Node3 -->
<g id="edge2" class="edge">
<title>Node1&#45;&gt;Node3</title>
<path fill="none" stroke="midnightblue" d="M691.28,-154.13C570.59,-152.72 335,-143.64 141,-98 138.17,-97.33 135.26,-96.49 132.39,-95.55"/>
<polygon fill="midnightblue" stroke="midnightblue" points="133.47,-92.22 122.87,-92.09 131.07,-98.8 133.47,-92.22"/>
</g>
<!-- Node4 -->
<g id="node4" class="node">
<title>Node4</title>
<g id="a_node4"><a xlink:title=" ">
<polygon fill="none" stroke="#bfbfbf" points="150.5,-73 150.5,-92 195.5,-92 195.5,-73 150.5,-73"/>
<text text-anchor="middle" x="173" y="-80" font-family="Helvetica,sans-Serif" font-size="10.00">utility</text>
</a>
</g>
</g>
<!-- Node1&#45;&gt;Node4 -->
<g id="edge3" class="edge">
<title>Node1&#45;&gt;Node4</title>
<path fill="none" stroke="midnightblue" d="M691.04,-154.54C579.84,-153.41 373.07,-144.42 204,-98 202.07,-97.47 200.1,-96.83 198.15,-96.11"/>
<polygon fill="midnightblue" stroke="midnightblue" points="199.27,-92.78 188.7,-92.1 196.53,-99.22 199.27,-92.78"/>
</g>
<!-- Node5 -->
<g id="node5" class="node">
<title>Node5</title>
<g id="a_node5"><a xlink:title=" ">
<polygon fill="none" stroke="#bfbfbf" points="213.5,-73 213.5,-92 368.5,-92 368.5,-73 213.5,-73"/>
<text text-anchor="middle" x="291" y="-80" font-family="Helvetica,sans-Serif" font-size="10.00">message_filters/subscriber.h</text>
</a>
</g>
</g>
<!-- Node1&#45;&gt;Node5 -->
<g id="edge4" class="edge">
<title>Node1&#45;&gt;Node5</title>
<path fill="none" stroke="midnightblue" d="M691.13,-143.18C611.67,-132.29 486.29,-114.74 378,-98 369.31,-96.66 360.15,-95.19 351.16,-93.72"/>
<polygon fill="midnightblue" stroke="midnightblue" points="351.55,-90.23 341.11,-92.06 350.41,-97.14 351.55,-90.23"/>
</g>
<!-- Node6 -->
<g id="node6" class="node">
<title>Node6</title>
<g id="a_node6"><a xlink:title=" ">
<polygon fill="none" stroke="#bfbfbf" points="387,-73 387,-92 477,-92 477,-73 387,-73"/>
<text text-anchor="middle" x="432" y="-80" font-family="Helvetica,sans-Serif" font-size="10.00">tf2_ros/buffer.h</text>
</a>
</g>
</g>
<!-- Node1&#45;&gt;Node6 -->
<g id="edge5" class="edge">
<title>Node1&#45;&gt;Node6</title>
<path fill="none" stroke="midnightblue" d="M691.45,-139.87C634.12,-129.33 555.01,-114.03 486,-98 481.57,-96.97 476.96,-95.83 472.37,-94.66"/>
<polygon fill="midnightblue" stroke="midnightblue" points="473.03,-91.22 462.47,-92.07 471.25,-97.99 473.03,-91.22"/>
</g>
<!-- Node7 -->
<g id="node7" class="node">
<title>Node7</title>
<g id="a_node7"><a xlink:title=" ">
<polygon fill="none" stroke="#bfbfbf" points="495,-73 495,-92 629,-92 629,-73 495,-73"/>
<text text-anchor="middle" x="562" y="-80" font-family="Helvetica,sans-Serif" font-size="10.00">tf2_ros/message_filter.h</text>
</a>
</g>
</g>
<!-- Node1&#45;&gt;Node7 -->
<g id="edge6" class="edge">
<title>Node1&#45;&gt;Node7</title>
<path fill="none" stroke="midnightblue" d="M713.06,-134.46C675.78,-121.88 628.56,-105.95 596.93,-95.28"/>
<polygon fill="midnightblue" stroke="midnightblue" points="597.83,-91.89 587.24,-92.01 595.59,-98.53 597.83,-91.89"/>
</g>
<!-- Node8 -->
<g id="node8" class="node">
<title>Node8</title>
<g id="a_node8"><a xlink:title=" ">
<polygon fill="none" stroke="#bfbfbf" points="62.5,-6 62.5,-25 235.5,-25 235.5,-6 62.5,-6"/>
<text text-anchor="middle" x="149" y="-13" font-family="Helvetica,sans-Serif" font-size="10.00">tf2_ros/transform_broadcaster.h</text>
</a>
</g>
</g>
<!-- Node1&#45;&gt;Node8 -->
<g id="edge7" class="edge">
<title>Node1&#45;&gt;Node8</title>
<path fill="none" stroke="midnightblue" d="M730.69,-134.31C711.9,-124.42 689.62,-111.64 671,-98 654.77,-86.11 656.35,-75.26 638,-67 558.02,-31.02 332.06,-41.55 245,-31 234.24,-29.7 222.83,-28.13 211.77,-26.52"/>
<polygon fill="midnightblue" stroke="midnightblue" points="212.15,-23.04 201.74,-25.03 211.12,-29.96 212.15,-23.04"/>
</g>
<!-- Node9 -->
<g id="node9" class="node">
<title>Node9</title>
<g id="a_node9"><a xlink:title=" ">
<polygon fill="none" stroke="#bfbfbf" points="254,-6 254,-25 406,-25 406,-6 254,-6"/>
<text text-anchor="middle" x="330" y="-13" font-family="Helvetica,sans-Serif" font-size="10.00">tf2_ros/transform_listener.h</text>
</a>
</g>
</g>
<!-- Node1&#45;&gt;Node9 -->
<g id="edge8" class="edge">
<title>Node1&#45;&gt;Node9</title>
<path fill="none" stroke="midnightblue" d="M749.16,-134.44C721.14,-109.43 675.61,-69.1 671,-67 566.46,-19.33 528.53,-48.66 415,-31 406.4,-29.66 397.33,-28.18 388.43,-26.7"/>
<polygon fill="midnightblue" stroke="midnightblue" points="388.95,-23.24 378.51,-25.03 387.79,-30.14 388.95,-23.24"/>
</g>
<!-- Node10 -->
<g id="node10" class="node">
<title>Node10</title>
<g id="a_node10"><a xlink:title=" ">
<polygon fill="none" stroke="#bfbfbf" points="424,-6 424,-25 530,-25 530,-6 424,-6"/>
<text text-anchor="middle" x="477" y="-13" font-family="Helvetica,sans-Serif" font-size="10.00">bondcpp/bond.hpp</text>
</a>
</g>
</g>
<!-- Node1&#45;&gt;Node10 -->
<g id="edge9" class="edge">
<title>Node1&#45;&gt;Node10</title>
<path fill="none" stroke="midnightblue" d="M762.4,-134.46C752.5,-114.32 734.28,-83.59 709,-67 644.79,-24.87 614.98,-47.61 540,-31 534.66,-29.82 529.07,-28.56 523.51,-27.3"/>
<polygon fill="midnightblue" stroke="midnightblue" points="524.15,-23.85 513.62,-25.04 522.59,-30.68 524.15,-23.85"/>
</g>
<!-- Node11 -->
<g id="node11" class="node">
<title>Node11</title>
<g id="a_node11"><a xlink:title=" ">
<polygon fill="none" stroke="#bfbfbf" points="548.5,-0.5 548.5,-30.5 685.5,-30.5 685.5,-0.5 548.5,-0.5"/>
<text text-anchor="start" x="556.5" y="-18.5" font-family="Helvetica,sans-Serif" font-size="10.00">rclcpp_lifecycle/lifecycle</text>
<text text-anchor="middle" x="617" y="-7.5" font-family="Helvetica,sans-Serif" font-size="10.00">_node.hpp</text>
</a>
</g>
</g>
<!-- Node1&#45;&gt;Node11 -->
<g id="edge10" class="edge">
<title>Node1&#45;&gt;Node11</title>
<path fill="none" stroke="midnightblue" d="M770.5,-134.32C768.98,-114.94 763.81,-85.6 747,-67 733.19,-51.71 714.2,-41.01 695,-33.53"/>
<polygon fill="midnightblue" stroke="midnightblue" points="696.17,-30.24 685.58,-30.12 693.79,-36.82 696.17,-30.24"/>
</g>
<!-- Node12 -->
<g id="node12" class="node">
<title>Node12</title>
<g id="a_node12"><a xlink:title=" ">
<polygon fill="none" stroke="#bfbfbf" points="989,-67.5 989,-97.5 1135,-97.5 1135,-67.5 989,-67.5"/>
<text text-anchor="start" x="997" y="-85.5" font-family="Helvetica,sans-Serif" font-size="10.00">geometry_msgs/msg/pose</text>
<text text-anchor="middle" x="1062" y="-74.5" font-family="Helvetica,sans-Serif" font-size="10.00">_array.hpp</text>
</a>
</g>
</g>
<!-- Node1&#45;&gt;Node12 -->
<g id="edge11" class="edge">
<title>Node1&#45;&gt;Node12</title>
<path fill="none" stroke="midnightblue" d="M850.52,-134.74C895.48,-123.84 951.11,-110.37 994.02,-99.97"/>
<polygon fill="midnightblue" stroke="midnightblue" points="994.92,-103.35 1003.81,-97.6 993.27,-96.55 994.92,-103.35"/>
</g>
<!-- Node13 -->
<g id="node13" class="node">
<title>Node13</title>
<g id="a_node13"><a xlink:title=" ">
<polygon fill="none" stroke="#bfbfbf" points="1153,-67.5 1153,-97.5 1323,-97.5 1323,-67.5 1153,-67.5"/>
<text text-anchor="start" x="1161" y="-85.5" font-family="Helvetica,sans-Serif" font-size="10.00">geometry_msgs/msg/pose</text>
<text text-anchor="middle" x="1238" y="-74.5" font-family="Helvetica,sans-Serif" font-size="10.00">_with_covariance_stamped.hpp</text>
</a>
</g>
</g>
<!-- Node1&#45;&gt;Node13 -->
<g id="edge12" class="edge">
<title>Node1&#45;&gt;Node13</title>
<path fill="none" stroke="midnightblue" d="M850.69,-142.13C923.93,-131.2 1035.82,-114.45 1142.93,-98.16"/>
<polygon fill="midnightblue" stroke="midnightblue" points="1143.59,-101.6 1152.95,-96.64 1142.54,-94.68 1143.59,-101.6"/>
</g>
<!-- Node14 -->
<g id="node14" class="node">
<title>Node14</title>
<g id="a_node14"><a xlink:title=" ">
<polygon fill="none" stroke="#bfbfbf" points="1341.5,-67.5 1341.5,-97.5 1486.5,-97.5 1486.5,-67.5 1341.5,-67.5"/>
<text text-anchor="start" x="1349.5" y="-85.5" font-family="Helvetica,sans-Serif" font-size="10.00">nav_msgs/msg/occupancy</text>
<text text-anchor="middle" x="1414" y="-74.5" font-family="Helvetica,sans-Serif" font-size="10.00">_grid.hpp</text>
</a>
</g>
</g>
<!-- Node1&#45;&gt;Node14 -->
<g id="edge13" class="edge">
<title>Node1&#45;&gt;Node14</title>
<path fill="none" stroke="midnightblue" d="M850.66,-147.95C957.59,-139.41 1153.66,-122.26 1331.12,-98.05"/>
<polygon fill="midnightblue" stroke="midnightblue" points="1331.74,-101.5 1341.17,-96.67 1330.78,-94.57 1331.74,-101.5"/>
</g>
<!-- Node15 -->
<g id="node15" class="node">
<title>Node15</title>
<g id="a_node15"><a xlink:title=" ">
<polygon fill="none" stroke="#bfbfbf" points="1504.5,-67.5 1504.5,-97.5 1635.5,-97.5 1635.5,-67.5 1504.5,-67.5"/>
<text text-anchor="start" x="1512.5" y="-85.5" font-family="Helvetica,sans-Serif" font-size="10.00">sensor_msgs/msg/laser</text>
<text text-anchor="middle" x="1570" y="-74.5" font-family="Helvetica,sans-Serif" font-size="10.00">_scan.hpp</text>
</a>
</g>
</g>
<!-- Node1&#45;&gt;Node15 -->
<g id="edge14" class="edge">
<title>Node1&#45;&gt;Node15</title>
<path fill="none" stroke="midnightblue" d="M850.71,-150.88C982.72,-145.04 1255.13,-130.17 1494.37,-98.13"/>
<polygon fill="midnightblue" stroke="midnightblue" points="1494.86,-101.59 1504.3,-96.79 1493.92,-94.66 1494.86,-101.59"/>
</g>
<!-- Node16 -->
<g id="node16" class="node">
<title>Node16</title>
<g id="a_node16"><a xlink:title=" ">
<polygon fill="none" stroke="#bfbfbf" points="1653.5,-73 1653.5,-92 1782.5,-92 1782.5,-73 1653.5,-73"/>
<text text-anchor="middle" x="1718" y="-80" font-family="Helvetica,sans-Serif" font-size="10.00">std_srvs/srv/empty.hpp</text>
</a>
</g>
</g>
<!-- Node1&#45;&gt;Node16 -->
<g id="edge15" class="edge">
<title>Node1&#45;&gt;Node16</title>
<path fill="none" stroke="midnightblue" d="M850.58,-152.42C1004.57,-148.57 1353.84,-136.08 1645,-98 1653.11,-96.94 1661.67,-95.52 1669.96,-93.98"/>
<polygon fill="midnightblue" stroke="midnightblue" points="1670.74,-97.39 1679.89,-92.06 1669.41,-90.52 1670.74,-97.39"/>
</g>
<!-- Node17 -->
<g id="node17" class="node">
<title>Node17</title>
<g id="a_node17"><a xlink:title=" ">
<polygon fill="none" stroke="#bfbfbf" points="1801,-67.5 1801,-97.5 1929,-97.5 1929,-67.5 1801,-67.5"/>
<text text-anchor="start" x="1809" y="-85.5" font-family="Helvetica,sans-Serif" font-size="10.00">visualization_msgs</text>
<text text-anchor="middle" x="1865" y="-74.5" font-family="Helvetica,sans-Serif" font-size="10.00">/msg/marker_array.hpp</text>
</a>
</g>
</g>
<!-- Node1&#45;&gt;Node17 -->
<g id="edge16" class="edge">
<title>Node1&#45;&gt;Node17</title>
<path fill="none" stroke="midnightblue" d="M850.78,-153.45C1021.61,-151.44 1435.49,-142.15 1791.02,-98"/>
<polygon fill="midnightblue" stroke="midnightblue" points="1791.5,-101.46 1800.99,-96.75 1790.63,-94.52 1791.5,-101.46"/>
</g>
<!-- Node18 -->
<g id="node18" class="node">
<title>Node18</title>
<g id="a_node18"><a target="_parent" xlink:href="../../../../../../beluga/docs/_doxygen/generated/reference/html/beluga_8hpp.html.html" xlink:title=" ">
<polygon fill="none" stroke="black" points="1947.5,-73 1947.5,-92 2054.5,-92 2054.5,-73 1947.5,-73"/>
<text text-anchor="middle" x="2001" y="-80" font-family="Helvetica,sans-Serif" font-size="10.00">beluga/beluga.hpp</text>
</a>
</g>
</g>
<!-- Node1&#45;&gt;Node18 -->
<g id="edge17" class="edge">
<title>Node1&#45;&gt;Node18</title>
<path fill="none" stroke="midnightblue" d="M850.87,-152.02C1078.44,-146.1 1727.27,-127.07 1938,-98 1944.8,-97.06 1951.94,-95.75 1958.88,-94.28"/>
<polygon fill="midnightblue" stroke="midnightblue" points="1959.83,-97.66 1968.83,-92.07 1958.31,-90.83 1959.83,-97.66"/>
</g>
<!-- Node19 -->
<g id="node19" class="node">
<title>Node19</title>
<g id="a_node19"><a target="_parent" xlink:href="../../../../../../beluga_ros/docs/_doxygen/generated/reference/html/amcl_8hpp.html.html" xlink:title=" ">
<polygon fill="none" stroke="black" points="2073,-73 2073,-92 2191,-92 2191,-73 2073,-73"/>
<text text-anchor="middle" x="2132" y="-80" font-family="Helvetica,sans-Serif" font-size="10.00">beluga_ros/amcl.hpp</text>
</a>
</g>
</g>
<!-- Node1&#45;&gt;Node19 -->
<g id="edge18" class="edge">
<title>Node1&#45;&gt;Node19</title>
<path fill="none" stroke="midnightblue" d="M850.66,-152.29C1094.33,-146.79 1827.46,-128.13 2064,-98 2071.66,-97.02 2079.74,-95.63 2087.55,-94.09"/>
<polygon fill="midnightblue" stroke="midnightblue" points="2088.52,-97.46 2097.6,-92 2087.09,-90.61 2088.52,-97.46"/>
</g>
<!-- Node20 -->
<g id="node20" class="node">
<title>Node20</title>
<g id="a_node20"><a xlink:href="ros2__common_8hpp_source.html" target="_top" xlink:title=" ">
<polygon fill="none" stroke="black" points="799,-73 799,-92 971,-92 971,-73 799,-73"/>
<text text-anchor="middle" x="885" y="-80" font-family="Helvetica,sans-Serif" font-size="10.00">beluga_amcl/ros2_common.hpp</text>
</a>
</g>
</g>
<!-- Node1&#45;&gt;Node20 -->
<g id="edge19" class="edge">
<title>Node1&#45;&gt;Node20</title>
<path fill="none" stroke="midnightblue" d="M802.76,-134.36C821.66,-122.67 845.2,-108.12 862.24,-97.57"/>
<polygon fill="midnightblue" stroke="midnightblue" points="864.31,-100.41 870.97,-92.17 860.63,-94.46 864.31,-100.41"/>
</g>
<!-- Node20&#45;&gt;Node8 -->
<g id="edge32" class="edge">
<title>Node20&#45;&gt;Node8</title>
<path fill="none" stroke="midnightblue" d="M798.82,-75.47C649.8,-64.9 349.85,-43.04 245,-31 233.86,-29.72 222.03,-28.13 210.62,-26.47"/>
<polygon fill="midnightblue" stroke="midnightblue" points="211.13,-23.01 200.73,-25 210.1,-29.93 211.13,-23.01"/>
</g>
<!-- Node20&#45;&gt;Node9 -->
<g id="edge33" class="edge">
<title>Node20&#45;&gt;Node9</title>
<path fill="none" stroke="midnightblue" d="M798.61,-73.83C704.18,-65.08 548.51,-49.54 415,-31 405.96,-29.74 396.41,-28.27 387.1,-26.74"/>
<polygon fill="midnightblue" stroke="midnightblue" points="387.57,-23.27 377.13,-25.07 386.41,-30.17 387.57,-23.27"/>
</g>
<!-- Node20&#45;&gt;Node10 -->
<g id="edge25" class="edge">
<title>Node20&#45;&gt;Node10</title>
<path fill="none" stroke="midnightblue" d="M815.34,-72.99C745.46,-64.05 634.89,-48.83 540,-31 534.13,-29.9 527.99,-28.63 521.93,-27.31"/>
<polygon fill="midnightblue" stroke="midnightblue" points="522.41,-23.83 511.88,-25.06 520.88,-30.66 522.41,-23.83"/>
</g>
<!-- Node20&#45;&gt;Node11 -->
<g id="edge21" class="edge">
<title>Node20&#45;&gt;Node11</title>
<path fill="none" stroke="midnightblue" d="M849.69,-72.94C807.89,-62.8 737.36,-45.69 684.88,-32.96"/>
<polygon fill="midnightblue" stroke="midnightblue" points="685.51,-29.51 674.97,-30.56 683.86,-36.32 685.51,-29.51"/>
</g>
<!-- Node21 -->
<g id="node21" class="node">
<title>Node21</title>
<g id="a_node21"><a xlink:title=" ">
<polygon fill="none" stroke="#bfbfbf" points="1887.5,-6 1887.5,-25 2022.5,-25 2022.5,-6 1887.5,-6"/>
<text text-anchor="middle" x="1955" y="-13" font-family="Helvetica,sans-Serif" font-size="10.00">rclcpp/node_options.hpp</text>
</a>
</g>
</g>
<!-- Node20&#45;&gt;Node21 -->
<g id="edge20" class="edge">
<title>Node20&#45;&gt;Node21</title>
<path fill="none" stroke="midnightblue" d="M934.18,-72.93C948.87,-70.65 965.05,-68.44 980,-67 1378.04,-28.77 1481.73,-76.6 1879,-31 1887.82,-29.99 1897.16,-28.53 1906.15,-26.93"/>
<polygon fill="midnightblue" stroke="midnightblue" points="1906.93,-30.34 1916.12,-25.07 1905.64,-23.46 1906.93,-30.34"/>
</g>
<!-- Node22 -->
<g id="node22" class="node">
<title>Node22</title>
<g id="a_node22"><a xlink:title=" ">
<polygon fill="none" stroke="#bfbfbf" points="703.5,-6 703.5,-25 844.5,-25 844.5,-6 703.5,-6"/>
<text text-anchor="middle" x="774" y="-13" font-family="Helvetica,sans-Serif" font-size="10.00">rclcpp_lifecycle/state.hpp</text>
</a>
</g>
</g>
<!-- Node20&#45;&gt;Node22 -->
<g id="edge22" class="edge">
<title>Node20&#45;&gt;Node22</title>
<path fill="none" stroke="midnightblue" d="M870.03,-72.73C851.39,-61.82 819.34,-43.05 797.43,-30.22"/>
<polygon fill="midnightblue" stroke="midnightblue" points="799.13,-27.16 788.73,-25.13 795.59,-33.2 799.13,-27.16"/>
</g>
<!-- Node23 -->
<g id="node23" class="node">
<title>Node23</title>
<g id="a_node23"><a xlink:title=" ">
<polygon fill="none" stroke="#bfbfbf" points="863,-6 863,-25 907,-25 907,-6 863,-6"/>
<text text-anchor="middle" x="885" y="-13" font-family="Helvetica,sans-Serif" font-size="10.00">string</text>
</a>
</g>
</g>
<!-- Node20&#45;&gt;Node23 -->
<g id="edge23" class="edge">
<title>Node20&#45;&gt;Node23</title>
<path fill="none" stroke="midnightblue" d="M885,-72.73C885,-63.18 885,-47.62 885,-35.28"/>
<polygon fill="midnightblue" stroke="midnightblue" points="888.5,-35.13 885,-25.13 881.5,-35.13 888.5,-35.13"/>
</g>
<!-- Node24 -->
<g id="node24" class="node">
<title>Node24</title>
<g id="a_node24"><a xlink:title=" ">
<polygon fill="none" stroke="#bfbfbf" points="925.5,-6 925.5,-25 998.5,-25 998.5,-6 925.5,-6"/>
<text text-anchor="middle" x="962" y="-13" font-family="Helvetica,sans-Serif" font-size="10.00">string_view</text>
</a>
</g>
</g>
<!-- Node20&#45;&gt;Node24 -->
<g id="edge24" class="edge">
<title>Node20&#45;&gt;Node24</title>
<path fill="none" stroke="midnightblue" d="M895.38,-72.73C907.85,-62.21 928.97,-44.38 944.09,-31.62"/>
<polygon fill="midnightblue" stroke="midnightblue" points="946.4,-34.25 951.78,-25.13 941.88,-28.9 946.4,-34.25"/>
</g>
<!-- Node25 -->
<g id="node25" class="node">
<title>Node25</title>
<g id="a_node25"><a xlink:title=" ">
<polygon fill="none" stroke="#bfbfbf" points="1017,-0.5 1017,-30.5 1163,-30.5 1163,-0.5 1017,-0.5"/>
<text text-anchor="start" x="1025" y="-18.5" font-family="Helvetica,sans-Serif" font-size="10.00">geometry_msgs/msg/pose</text>
<text text-anchor="middle" x="1090" y="-7.5" font-family="Helvetica,sans-Serif" font-size="10.00">_stamped.hpp</text>
</a>
</g>
</g>
<!-- Node20&#45;&gt;Node25 -->
<g id="edge26" class="edge">
<title>Node20&#45;&gt;Node25</title>
<path fill="none" stroke="midnightblue" d="M912.22,-72.87C943.72,-62.88 996.34,-46.2 1036.18,-33.56"/>
<polygon fill="midnightblue" stroke="midnightblue" points="1037.28,-36.89 1045.76,-30.53 1035.17,-30.21 1037.28,-36.89"/>
</g>
<!-- Node26 -->
<g id="node26" class="node">
<title>Node26</title>
<g id="a_node26"><a xlink:title=" ">
<polygon fill="none" stroke="#bfbfbf" points="1181.5,-6 1181.5,-25 1280.5,-25 1280.5,-6 1181.5,-6"/>
<text text-anchor="middle" x="1231" y="-13" font-family="Helvetica,sans-Serif" font-size="10.00">rclcpp/rclcpp.hpp</text>
</a>
</g>
</g>
<!-- Node20&#45;&gt;Node26 -->
<g id="edge27" class="edge">
<title>Node20&#45;&gt;Node26</title>
<path fill="none" stroke="midnightblue" d="M939.69,-72.99C997.6,-63.72 1091.55,-47.94 1172,-31 1177.16,-29.91 1182.55,-28.7 1187.89,-27.45"/>
<polygon fill="midnightblue" stroke="midnightblue" points="1189.1,-30.76 1198.01,-25.02 1187.47,-23.95 1189.1,-30.76"/>
</g>
<!-- Node27 -->
<g id="node27" class="node">
<title>Node27</title>
<g id="a_node27"><a xlink:title=" ">
<polygon fill="none" stroke="#bfbfbf" points="1299,-6 1299,-25 1391,-25 1391,-6 1299,-6"/>
<text text-anchor="middle" x="1345" y="-13" font-family="Helvetica,sans-Serif" font-size="10.00">rclcpp/time.hpp</text>
</a>
</g>
</g>
<!-- Node20&#45;&gt;Node27 -->
<g id="edge28" class="edge">
<title>Node20&#45;&gt;Node27</title>
<path fill="none" stroke="midnightblue" d="M938.71,-72.96C952.18,-70.91 966.61,-68.8 980,-67 1117.47,-48.53 1153.71,-56.74 1290,-31 1295.14,-30.03 1300.52,-28.84 1305.8,-27.56"/>
<polygon fill="midnightblue" stroke="midnightblue" points="1306.94,-30.88 1315.78,-25.03 1305.22,-24.1 1306.94,-30.88"/>
</g>
<!-- Node28 -->
<g id="node28" class="node">
<title>Node28</title>
<g id="a_node28"><a xlink:title=" ">
<polygon fill="none" stroke="#bfbfbf" points="1409.5,-6 1409.5,-25 1488.5,-25 1488.5,-6 1409.5,-6"/>
<text text-anchor="middle" x="1449" y="-13" font-family="Helvetica,sans-Serif" font-size="10.00">tf2/convert.h</text>
</a>
</g>
</g>
<!-- Node20&#45;&gt;Node28 -->
<g id="edge29" class="edge">
<title>Node20&#45;&gt;Node28</title>
<path fill="none" stroke="midnightblue" d="M936.69,-72.98C950.71,-70.84 965.92,-68.68 980,-67 1166.04,-44.85 1215.9,-65.76 1400,-31 1404.54,-30.14 1409.25,-29.04 1413.89,-27.82"/>
<polygon fill="midnightblue" stroke="midnightblue" points="1415.13,-31.1 1423.81,-25.02 1413.23,-24.36 1415.13,-31.1"/>
</g>
<!-- Node29 -->
<g id="node29" class="node">
<title>Node29</title>
<g id="a_node29"><a xlink:title=" ">
<polygon fill="none" stroke="#bfbfbf" points="1506.5,-6 1506.5,-25 1569.5,-25 1569.5,-6 1506.5,-6"/>
<text text-anchor="middle" x="1538" y="-13" font-family="Helvetica,sans-Serif" font-size="10.00">tf2/utils.h</text>
</a>
</g>
</g>
<!-- Node20&#45;&gt;Node29 -->
<g id="edge30" class="edge">
<title>Node20&#45;&gt;Node29</title>
<path fill="none" stroke="midnightblue" d="M935.68,-72.98C949.98,-70.79 965.57,-68.6 980,-67 1209.37,-41.57 1272.22,-78.79 1498,-31 1501.25,-30.31 1504.6,-29.42 1507.9,-28.41"/>
<polygon fill="midnightblue" stroke="midnightblue" points="1509.21,-31.66 1517.56,-25.15 1506.97,-25.03 1509.21,-31.66"/>
</g>
<!-- Node30 -->
<g id="node30" class="node">
<title>Node30</title>
<g id="a_node30"><a xlink:title=" ">
<polygon fill="none" stroke="#bfbfbf" points="1588,-0.5 1588,-30.5 1704,-30.5 1704,-0.5 1588,-0.5"/>
<text text-anchor="start" x="1596" y="-18.5" font-family="Helvetica,sans-Serif" font-size="10.00">tf2_ros/create_timer</text>
<text text-anchor="middle" x="1646" y="-7.5" font-family="Helvetica,sans-Serif" font-size="10.00">_ros.h</text>
</a>
</g>
</g>
<!-- Node20&#45;&gt;Node30 -->
<g id="edge31" class="edge">
<title>Node20&#45;&gt;Node30</title>
<path fill="none" stroke="midnightblue" d="M935.18,-72.96C949.61,-70.75 965.4,-68.55 980,-67 1241.98,-39.19 1313.05,-66.63 1578.08,-30.97"/>
<polygon fill="midnightblue" stroke="midnightblue" points="1578.56,-34.44 1587.99,-29.62 1577.61,-27.5 1578.56,-34.44"/>
</g>
<!-- Node31 -->
<g id="node31" class="node">
<title>Node31</title>
<g id="a_node31"><a target="_parent" xlink:href="../../../../../../beluga_ros/docs/_doxygen/generated/reference/html/tf2__sophus_8hpp.html.html" xlink:title=" ">
<polygon fill="none" stroke="black" points="1722.5,-6 1722.5,-25 1869.5,-25 1869.5,-6 1722.5,-6"/>
<text text-anchor="middle" x="1796" y="-13" font-family="Helvetica,sans-Serif" font-size="10.00">beluga_ros/tf2_sophus.hpp</text>
</a>
</g>
</g>
<!-- Node20&#45;&gt;Node31 -->
<g id="edge34" class="edge">
<title>Node20&#45;&gt;Node31</title>
<path fill="none" stroke="midnightblue" d="M934.68,-72.94C949.24,-70.69 965.23,-68.49 980,-67 1304.53,-34.35 1388.84,-67.14 1713,-31 1722.71,-29.92 1733,-28.41 1742.92,-26.78"/>
<polygon fill="midnightblue" stroke="midnightblue" points="1743.8,-30.18 1753.07,-25.04 1742.62,-23.28 1743.8,-30.18"/>
</g>
</g>
</svg>
        <g id="navigator" transform="translate(0 0)" fill="#404254">
                <rect fill="#f2f5e9" fill-opacity="0.5" stroke="#606060" stroke-width=".5" x="0" y="0" width="60" height="60"/>
                <use id="zoomplus" xlink:href="#zoomPlus" x="17" y="9" onmousedown="handleZoom(evt,'in')"/>
                <use id="zoomminus" xlink:href="#zoomMin" x="42" y="9" onmousedown="handleZoom(evt,'out')"/>
                <use id="reset" xlink:href="#resetDef" x="30" y="36" onmousedown="handleReset()"/>
                <g id="arrowUp" xlink:href="#dirArrow" transform="translate(30 24)" onmousedown="handlePan(0,-1)">
                  <use xlink:href="#rim" fill="#404040">
                        <set attributeName="fill" to="#808080" begin="arrowUp.mouseover" end="arrowUp.mouseout"/>
                  </use>
                  <path fill="none" stroke="white" stroke-width="1.5" d="M0,-3.0v7 M-2.5,-0.5L0,-3.0L2.5,-0.5"/>
                </g>
                <g id="arrowRight" xlink:href="#dirArrow" transform="rotate(90) translate(36 -43)" onmousedown="handlePan(1,0)">
                  <use xlink:href="#rim" fill="#404040">
                        <set attributeName="fill" to="#808080" begin="arrowRight.mouseover" end="arrowRight.mouseout"/>
                  </use>
                  <path fill="none" stroke="white" stroke-width="1.5" d="M0,-3.0v7 M-2.5,-0.5L0,-3.0L2.5,-0.5"/>
                </g>
                <g id="arrowDown" xlink:href="#dirArrow" transform="rotate(180) translate(-30 -48)" onmousedown="handlePan(0,1)">
                  <use xlink:href="#rim" fill="#404040">
                        <set attributeName="fill" to="#808080" begin="arrowDown.mouseover" end="arrowDown.mouseout"/>
                  </use>
                  <path fill="none" stroke="white" stroke-width="1.5" d="M0,-3.0v7 M-2.5,-0.5L0,-3.0L2.5,-0.5"/>
                </g>
                <g id="arrowLeft" xlink:href="#dirArrow" transform="rotate(270) translate(-36 17)" onmousedown="handlePan(-1,0)">
                  <use xlink:href="#rim" fill="#404040">
                        <set attributeName="fill" to="#808080" begin="arrowLeft.mouseover" end="arrowLeft.mouseout"/>
                  </use>
                  <path fill="none" stroke="white" stroke-width="1.5" d="M0,-3.0v7 M-2.5,-0.5L0,-3.0L2.5,-0.5"/>
                </g>
        </g>
        <svg viewBox="0 0 15 15" width="100%" height="30px" preserveAspectRatio="xMaxYMin meet">
         <g id="arrow_out" transform="scale(0.3 0.3)">
          <a xlink:href="amcl__node_8hpp__incl_org.svg" target="_base">
           <rect id="button" ry="5" rx="5" y="6" x="6" height="38" width="38"
                fill="#f2f5e9" fill-opacity="0.5" stroke="#606060" stroke-width="1.0"/>
           <path id="arrow"
             d="M 11.500037,31.436501 C 11.940474,20.09759 22.043105,11.32322 32.158766,21.979434 L 37.068811,17.246167 C 37.068811,17.246167 37.088388,32 37.088388,32 L 22.160133,31.978069 C 22.160133,31.978069 26.997745,27.140456 26.997745,27.140456 C 18.528582,18.264221 13.291696,25.230495 11.500037,31.436501 z"
             style="fill:#404040;"/>
          </a>
         </g>
        </svg>
</svg>
