<?xml version="1.0" encoding="UTF-8" standalone="no"?>
<!DOCTYPE svg PUBLIC "-//W3C//DTD SVG 1.1//EN"
 "http://www.w3.org/Graphics/SVG/1.1/DTD/svg11.dtd">
<!-- Generated by graphviz version 2.43.0 (0)
 -->
<!-- Title: /home/runner/work/beluga/beluga/beluga_amcl/include/beluga_amcl/amcl_node.hpp Pages: 1 -->
<!--zoomable 117 -->
<svg id="main" version="1.1" xmlns="http://www.w3.org/2000/svg" xmlns:xlink="http://www.w3.org/1999/xlink" xml:space="preserve" onload="init(evt)">
<style type="text/css"><![CDATA[
.edge:hover path { stroke: red; }
.edge:hover polygon { stroke: red; fill: red; }
]]></style>
<script type="text/javascript"><![CDATA[
var edges = document.getElementsByTagName('g');
if (edges && edges.length) {
  for (var i=0;i<edges.length;i++) {
    if (edges[i].id.substr(0,4)=='edge') {
      edges[i].setAttribute('class','edge');
    }
  }
}
]]></script>
        <defs>
                <circle id="rim" cx="0" cy="0" r="7"/>
                <circle id="rim2" cx="0" cy="0" r="3.5"/>
                <g id="zoomPlus">
                        <use xlink:href="#rim" fill="#404040">
                                <set attributeName="fill" to="#808080" begin="zoomplus.mouseover" end="zoomplus.mouseout"/>
                        </use>
                        <path d="M-4,0h8M0,-4v8" fill="none" stroke="white" stroke-width="1.5" pointer-events="none"/>
                </g>
                <g id="zoomMin">
                        <use xlink:href="#rim" fill="#404040">
                                <set attributeName="fill" to="#808080" begin="zoomminus.mouseover" end="zoomminus.mouseout"/>
                        </use>
                        <path d="M-4,0h8" fill="none" stroke="white" stroke-width="1.5" pointer-events="none"/>
                </g>
                <g id="dirArrow">
                        <path fill="none" stroke="white" stroke-width="1.5" d="M0,-3.0v7 M-2.5,-0.5L0,-3.0L2.5,-0.5"/>
                </g>
               <g id="resetDef">
                       <use xlink:href="#rim2" fill="#404040">
                               <set attributeName="fill" to="#808080" begin="reset.mouseover" end="reset.mouseout"/>
                       </use>
               </g>
        </defs>

<script type="text/javascript">
var viewWidth = 2342;
var viewHeight = 117;
var sectionId = 'dynsection-0';
</script>
<script xlink:href="svgpan.js"/>
<svg id="graph" class="graph">
<g id="viewport">
<title>/home/runner/work/beluga/beluga/beluga_amcl/include/beluga_amcl/amcl_node.hpp</title>
<!-- Node1 -->
<g id="node1" class="node">
<title>Node1</title>
<g id="a_node1"><a xlink:title="ROS 2 integration of the 2D AMCL algorithm.">
<polygon fill="#bfbfbf" stroke="black" points="983,-67.5 983,-108.5 1142,-108.5 1142,-67.5 983,-67.5"/>
<text text-anchor="start" x="991" y="-96.5" font-family="Helvetica,sans-Serif" font-size="10.00">/home/runner/work/beluga</text>
<text text-anchor="start" x="991" y="-85.5" font-family="Helvetica,sans-Serif" font-size="10.00">/beluga/beluga_amcl/include</text>
<text text-anchor="middle" x="1062.5" y="-74.5" font-family="Helvetica,sans-Serif" font-size="10.00">/beluga_amcl/amcl_node.hpp</text>
</a>
</g>
</g>
<!-- Node2 -->
<g id="node2" class="node">
<title>Node2</title>
<g id="a_node2"><a xlink:title=" ">
<polygon fill="none" stroke="#bfbfbf" points="0,-6 0,-25 155,-25 155,-6 0,-6"/>
<text text-anchor="middle" x="77.5" y="-13" font-family="Helvetica,sans-Serif" font-size="10.00">message_filters/subscriber.h</text>
</a>
</g>
</g>
<!-- Node1&#45;&gt;Node2 -->
<g id="edge1" class="edge">
<title>Node1&#45;&gt;Node2</title>
<path fill="none" stroke="midnightblue" d="M982.98,-84.79C826.04,-79.82 465.58,-65.39 164.5,-31 154.46,-29.85 143.81,-28.33 133.54,-26.71"/>
<polygon fill="midnightblue" stroke="midnightblue" points="133.86,-23.22 123.43,-25.06 132.74,-30.13 133.86,-23.22"/>
</g>
<!-- Node3 -->
<g id="node3" class="node">
<title>Node3</title>
<g id="a_node3"><a xlink:title=" ">
<polygon fill="none" stroke="#bfbfbf" points="173.5,-6 173.5,-25 263.5,-25 263.5,-6 173.5,-6"/>
<text text-anchor="middle" x="218.5" y="-13" font-family="Helvetica,sans-Serif" font-size="10.00">tf2_ros/buffer.h</text>
</a>
</g>
</g>
<!-- Node1&#45;&gt;Node3 -->
<g id="edge2" class="edge">
<title>Node1&#45;&gt;Node3</title>
<path fill="none" stroke="midnightblue" d="M982.85,-86.38C839.69,-84.15 529.79,-74.25 272.5,-31 267.12,-30.09 261.49,-28.89 255.99,-27.55"/>
<polygon fill="midnightblue" stroke="midnightblue" points="256.86,-24.16 246.3,-25.06 255.11,-30.94 256.86,-24.16"/>
</g>
<!-- Node4 -->
<g id="node4" class="node">
<title>Node4</title>
<g id="a_node4"><a xlink:title=" ">
<polygon fill="none" stroke="#bfbfbf" points="281.5,-6 281.5,-25 415.5,-25 415.5,-6 281.5,-6"/>
<text text-anchor="middle" x="348.5" y="-13" font-family="Helvetica,sans-Serif" font-size="10.00">tf2_ros/message_filter.h</text>
</a>
</g>
</g>
<!-- Node1&#45;&gt;Node4 -->
<g id="edge3" class="edge">
<title>Node1&#45;&gt;Node4</title>
<path fill="none" stroke="midnightblue" d="M982.64,-82.59C861.54,-75.31 624.39,-58.77 424.5,-31 416.18,-29.84 407.39,-28.39 398.86,-26.85"/>
<polygon fill="midnightblue" stroke="midnightblue" points="399.47,-23.4 389,-25.01 398.19,-30.28 399.47,-23.4"/>
</g>
<!-- Node5 -->
<g id="node5" class="node">
<title>Node5</title>
<g id="a_node5"><a xlink:title=" ">
<polygon fill="none" stroke="#bfbfbf" points="434,-6 434,-25 607,-25 607,-6 434,-6"/>
<text text-anchor="middle" x="520.5" y="-13" font-family="Helvetica,sans-Serif" font-size="10.00">tf2_ros/transform_broadcaster.h</text>
</a>
</g>
</g>
<!-- Node1&#45;&gt;Node5 -->
<g id="edge4" class="edge">
<title>Node1&#45;&gt;Node5</title>
<path fill="none" stroke="midnightblue" d="M982.66,-77.59C893.36,-66.91 744.44,-48.69 616.5,-31 606.38,-29.6 595.67,-28.05 585.21,-26.5"/>
<polygon fill="midnightblue" stroke="midnightblue" points="585.7,-23.03 575.29,-25.02 584.67,-29.96 585.7,-23.03"/>
</g>
<!-- Node6 -->
<g id="node6" class="node">
<title>Node6</title>
<g id="a_node6"><a xlink:title=" ">
<polygon fill="none" stroke="#bfbfbf" points="625.5,-6 625.5,-25 777.5,-25 777.5,-6 625.5,-6"/>
<text text-anchor="middle" x="701.5" y="-13" font-family="Helvetica,sans-Serif" font-size="10.00">tf2_ros/transform_listener.h</text>
</a>
</g>
</g>
<!-- Node1&#45;&gt;Node6 -->
<g id="edge5" class="edge">
<title>Node1&#45;&gt;Node6</title>
<path fill="none" stroke="midnightblue" d="M982.83,-71.44C913.74,-57.95 815.63,-38.79 755.4,-27.03"/>
<polygon fill="midnightblue" stroke="midnightblue" points="755.82,-23.54 745.34,-25.06 754.48,-30.41 755.82,-23.54"/>
</g>
<!-- Node7 -->
<g id="node7" class="node">
<title>Node7</title>
<g id="a_node7"><a xlink:title=" ">
<polygon fill="none" stroke="#bfbfbf" points="795.5,-6 795.5,-25 853.5,-25 853.5,-6 795.5,-6"/>
<text text-anchor="middle" x="824.5" y="-13" font-family="Helvetica,sans-Serif" font-size="10.00">memory</text>
</a>
</g>
</g>
<!-- Node1&#45;&gt;Node7 -->
<g id="edge6" class="edge">
<title>Node1&#45;&gt;Node7</title>
<path fill="none" stroke="midnightblue" d="M986.5,-67.48C948.94,-57.38 903.08,-44.39 862.5,-31 860.24,-30.25 857.91,-29.45 855.58,-28.62"/>
<polygon fill="midnightblue" stroke="midnightblue" points="856.67,-25.3 846.08,-25.13 854.26,-31.87 856.67,-25.3"/>
</g>
<!-- Node8 -->
<g id="node8" class="node">
<title>Node8</title>
<g id="a_node8"><a xlink:title=" ">
<polygon fill="none" stroke="#bfbfbf" points="871.5,-6 871.5,-25 927.5,-25 927.5,-6 871.5,-6"/>
<text text-anchor="middle" x="899.5" y="-13" font-family="Helvetica,sans-Serif" font-size="10.00">optional</text>
</a>
</g>
</g>
<!-- Node1&#45;&gt;Node8 -->
<g id="edge7" class="edge">
<title>Node1&#45;&gt;Node8</title>
<path fill="none" stroke="midnightblue" d="M1017.1,-67.36C988.95,-55.19 953.6,-39.9 929.04,-29.28"/>
<polygon fill="midnightblue" stroke="midnightblue" points="930.12,-25.93 919.55,-25.17 927.34,-32.36 930.12,-25.93"/>
</g>
<!-- Node9 -->
<g id="node9" class="node">
<title>Node9</title>
<g id="a_node9"><a xlink:title=" ">
<polygon fill="none" stroke="#bfbfbf" points="946,-6 946,-25 991,-25 991,-6 946,-6"/>
<text text-anchor="middle" x="968.5" y="-13" font-family="Helvetica,sans-Serif" font-size="10.00">utility</text>
</a>
</g>
</g>
<!-- Node1&#45;&gt;Node9 -->
<g id="edge8" class="edge">
<title>Node1&#45;&gt;Node9</title>
<path fill="none" stroke="midnightblue" d="M1036.32,-67.36C1021.16,-56 1002.4,-41.92 988.45,-31.46"/>
<polygon fill="midnightblue" stroke="midnightblue" points="990.16,-28.37 980.06,-25.17 985.96,-33.97 990.16,-28.37"/>
</g>
<!-- Node10 -->
<g id="node10" class="node">
<title>Node10</title>
<g id="a_node10"><a xlink:title=" ">
<polygon fill="none" stroke="#bfbfbf" points="1009.5,-6 1009.5,-25 1115.5,-25 1115.5,-6 1009.5,-6"/>
<text text-anchor="middle" x="1062.5" y="-13" font-family="Helvetica,sans-Serif" font-size="10.00">bondcpp/bond.hpp</text>
</a>
</g>
</g>
<!-- Node1&#45;&gt;Node10 -->
<g id="edge9" class="edge">
<title>Node1&#45;&gt;Node10</title>
<path fill="none" stroke="midnightblue" d="M1062.5,-67.36C1062.5,-57.3 1062.5,-45.1 1062.5,-35.18"/>
<polygon fill="midnightblue" stroke="midnightblue" points="1066,-35.17 1062.5,-25.17 1059,-35.17 1066,-35.17"/>
</g>
<!-- Node11 -->
<g id="node11" class="node">
<title>Node11</title>
<g id="a_node11"><a xlink:title=" ">
<polygon fill="none" stroke="#bfbfbf" points="1133.5,-0.5 1133.5,-30.5 1303.5,-30.5 1303.5,-0.5 1133.5,-0.5"/>
<text text-anchor="start" x="1141.5" y="-18.5" font-family="Helvetica,sans-Serif" font-size="10.00">geometry_msgs/msg/pose</text>
<text text-anchor="middle" x="1218.5" y="-7.5" font-family="Helvetica,sans-Serif" font-size="10.00">_with_covariance_stamped.hpp</text>
</a>
</g>
</g>
<!-- Node1&#45;&gt;Node11 -->
<g id="edge10" class="edge">
<title>Node1&#45;&gt;Node11</title>
<path fill="none" stroke="midnightblue" d="M1105.95,-67.36C1128.52,-57.17 1155.91,-44.79 1178.02,-34.79"/>
<polygon fill="midnightblue" stroke="midnightblue" points="1179.47,-37.98 1187.15,-30.67 1176.59,-31.6 1179.47,-37.98"/>
</g>
<!-- Node12 -->
<g id="node12" class="node">
<title>Node12</title>
<g id="a_node12"><a xlink:title=" ">
<polygon fill="none" stroke="#bfbfbf" points="1321.5,-0.5 1321.5,-30.5 1457.5,-30.5 1457.5,-0.5 1321.5,-0.5"/>
<text text-anchor="start" x="1329.5" y="-18.5" font-family="Helvetica,sans-Serif" font-size="10.00">nav2_msgs/msg/particle</text>
<text text-anchor="middle" x="1389.5" y="-7.5" font-family="Helvetica,sans-Serif" font-size="10.00">_cloud.hpp</text>
</a>
</g>
</g>
<!-- Node1&#45;&gt;Node12 -->
<g id="edge11" class="edge">
<title>Node1&#45;&gt;Node12</title>
<path fill="none" stroke="midnightblue" d="M1142.08,-69.84C1194.54,-58.53 1262.81,-43.81 1314.35,-32.7"/>
<polygon fill="midnightblue" stroke="midnightblue" points="1315.39,-36.06 1324.42,-30.53 1313.91,-29.22 1315.39,-36.06"/>
</g>
<!-- Node13 -->
<g id="node13" class="node">
<title>Node13</title>
<g id="a_node13"><a xlink:title=" ">
<polygon fill="none" stroke="#bfbfbf" points="1476,-0.5 1476,-30.5 1621,-30.5 1621,-0.5 1476,-0.5"/>
<text text-anchor="start" x="1484" y="-18.5" font-family="Helvetica,sans-Serif" font-size="10.00">nav_msgs/msg/occupancy</text>
<text text-anchor="middle" x="1548.5" y="-7.5" font-family="Helvetica,sans-Serif" font-size="10.00">_grid.hpp</text>
</a>
</g>
</g>
<!-- Node1&#45;&gt;Node13 -->
<g id="edge12" class="edge">
<title>Node1&#45;&gt;Node13</title>
<path fill="none" stroke="midnightblue" d="M1142.35,-76.82C1221.71,-66.51 1347.15,-49.65 1465.67,-31.1"/>
<polygon fill="midnightblue" stroke="midnightblue" points="1466.31,-34.54 1475.65,-29.53 1465.22,-27.62 1466.31,-34.54"/>
</g>
<!-- Node14 -->
<g id="node14" class="node">
<title>Node14</title>
<g id="a_node14"><a xlink:title=" ">
<polygon fill="none" stroke="#bfbfbf" points="1639,-0.5 1639,-30.5 1776,-30.5 1776,-0.5 1639,-0.5"/>
<text text-anchor="start" x="1647" y="-18.5" font-family="Helvetica,sans-Serif" font-size="10.00">rclcpp_lifecycle/lifecycle</text>
<text text-anchor="middle" x="1707.5" y="-7.5" font-family="Helvetica,sans-Serif" font-size="10.00">_node.hpp</text>
</a>
</g>
</g>
<!-- Node1&#45;&gt;Node14 -->
<g id="edge13" class="edge">
<title>Node1&#45;&gt;Node14</title>
<path fill="none" stroke="midnightblue" d="M1142.25,-81.36C1250.35,-73.22 1449.56,-56.46 1628.57,-31.21"/>
<polygon fill="midnightblue" stroke="midnightblue" points="1629.3,-34.64 1638.7,-29.77 1628.31,-27.71 1629.3,-34.64"/>
</g>
<!-- Node15 -->
<g id="node15" class="node">
<title>Node15</title>
<g id="a_node15"><a xlink:title=" ">
<polygon fill="none" stroke="#bfbfbf" points="1794,-0.5 1794,-30.5 1925,-30.5 1925,-0.5 1794,-0.5"/>
<text text-anchor="start" x="1802" y="-18.5" font-family="Helvetica,sans-Serif" font-size="10.00">sensor_msgs/msg/laser</text>
<text text-anchor="middle" x="1859.5" y="-7.5" font-family="Helvetica,sans-Serif" font-size="10.00">_scan.hpp</text>
</a>
</g>
</g>
<!-- Node1&#45;&gt;Node15 -->
<g id="edge14" class="edge">
<title>Node1&#45;&gt;Node15</title>
<path fill="none" stroke="midnightblue" d="M1142.26,-83.85C1273.94,-77.99 1545.19,-63.1 1783.55,-31.17"/>
<polygon fill="midnightblue" stroke="midnightblue" points="1784.36,-34.59 1793.8,-29.79 1783.42,-27.66 1784.36,-34.59"/>
</g>
<!-- Node16 -->
<g id="node16" class="node">
<title>Node16</title>
<g id="a_node16"><a xlink:title=" ">
<polygon fill="none" stroke="#bfbfbf" points="1943,-6 1943,-25 2072,-25 2072,-6 1943,-6"/>
<text text-anchor="middle" x="2007.5" y="-13" font-family="Helvetica,sans-Serif" font-size="10.00">std_srvs/srv/empty.hpp</text>
</a>
</g>
</g>
<!-- Node1&#45;&gt;Node16 -->
<g id="edge15" class="edge">
<title>Node1&#45;&gt;Node16</title>
<path fill="none" stroke="midnightblue" d="M1142.19,-85.4C1295.99,-81.52 1644.19,-68.99 1934.5,-31 1942.61,-29.94 1951.17,-28.52 1959.46,-26.98"/>
<polygon fill="midnightblue" stroke="midnightblue" points="1960.24,-30.39 1969.39,-25.06 1958.91,-23.52 1960.24,-30.39"/>
</g>
<!-- Node17 -->
<g id="node17" class="node">
<title>Node17</title>
<g id="a_node17"><a target="_parent" xlink:href="../../../../../../beluga/docs/_doxygen/generated/reference/html/beluga_8hpp.html.html" xlink:title=" ">
<polygon fill="none" stroke="black" points="2090,-6 2090,-25 2197,-25 2197,-6 2090,-6"/>
<text text-anchor="middle" x="2143.5" y="-13" font-family="Helvetica,sans-Serif" font-size="10.00">beluga/beluga.hpp</text>
</a>
</g>
</g>
<!-- Node1&#45;&gt;Node17 -->
<g id="edge16" class="edge">
<title>Node1&#45;&gt;Node17</title>
<path fill="none" stroke="midnightblue" d="M1142.24,-87.34C1314.58,-87.05 1734.24,-80.76 2081.5,-31 2088.19,-30.04 2095.22,-28.71 2102.05,-27.25"/>
<polygon fill="midnightblue" stroke="midnightblue" points="2102.86,-30.65 2111.84,-25.03 2101.32,-23.82 2102.86,-30.65"/>
</g>
<!-- Node18 -->
<g id="node18" class="node">
<title>Node18</title>
<g id="a_node18"><a target="_parent" xlink:href="../../../../../../beluga_ros/docs/_doxygen/generated/reference/html/amcl_8hpp.html.html" xlink:title=" ">
<polygon fill="none" stroke="black" points="2215.5,-6 2215.5,-25 2333.5,-25 2333.5,-6 2215.5,-6"/>
<text text-anchor="middle" x="2274.5" y="-13" font-family="Helvetica,sans-Serif" font-size="10.00">beluga_ros/amcl.hpp</text>
</a>
</g>
</g>
<!-- Node1&#45;&gt;Node18 -->
<g id="edge17" class="edge">
<title>Node1&#45;&gt;Node18</title>
<path fill="none" stroke="midnightblue" d="M1142.29,-87.5C1329.17,-87.72 1809.42,-82.71 2206.5,-31 2214.07,-30.01 2222.06,-28.63 2229.79,-27.1"/>
<polygon fill="midnightblue" stroke="midnightblue" points="2230.66,-30.5 2239.74,-25.04 2229.24,-23.64 2230.66,-30.5"/>
</g>
</g>
</svg>
        <g id="navigator" transform="translate(0 0)" fill="#404254">
                <rect fill="#f2f5e9" fill-opacity="0.5" stroke="#606060" stroke-width=".5" x="0" y="0" width="60" height="60"/>
                <use id="zoomplus" xlink:href="#zoomPlus" x="17" y="9" onmousedown="handleZoom(evt,'in')"/>
                <use id="zoomminus" xlink:href="#zoomMin" x="42" y="9" onmousedown="handleZoom(evt,'out')"/>
                <use id="reset" xlink:href="#resetDef" x="30" y="36" onmousedown="handleReset()"/>
                <g id="arrowUp" xlink:href="#dirArrow" transform="translate(30 24)" onmousedown="handlePan(0,-1)">
                  <use xlink:href="#rim" fill="#404040">
                        <set attributeName="fill" to="#808080" begin="arrowUp.mouseover" end="arrowUp.mouseout"/>
                  </use>
                  <path fill="none" stroke="white" stroke-width="1.5" d="M0,-3.0v7 M-2.5,-0.5L0,-3.0L2.5,-0.5"/>
                </g>
                <g id="arrowRight" xlink:href="#dirArrow" transform="rotate(90) translate(36 -43)" onmousedown="handlePan(1,0)">
                  <use xlink:href="#rim" fill="#404040">
                        <set attributeName="fill" to="#808080" begin="arrowRight.mouseover" end="arrowRight.mouseout"/>
                  </use>
                  <path fill="none" stroke="white" stroke-width="1.5" d="M0,-3.0v7 M-2.5,-0.5L0,-3.0L2.5,-0.5"/>
                </g>
                <g id="arrowDown" xlink:href="#dirArrow" transform="rotate(180) translate(-30 -48)" onmousedown="handlePan(0,1)">
                  <use xlink:href="#rim" fill="#404040">
                        <set attributeName="fill" to="#808080" begin="arrowDown.mouseover" end="arrowDown.mouseout"/>
                  </use>
                  <path fill="none" stroke="white" stroke-width="1.5" d="M0,-3.0v7 M-2.5,-0.5L0,-3.0L2.5,-0.5"/>
                </g>
                <g id="arrowLeft" xlink:href="#dirArrow" transform="rotate(270) translate(-36 17)" onmousedown="handlePan(-1,0)">
                  <use xlink:href="#rim" fill="#404040">
                        <set attributeName="fill" to="#808080" begin="arrowLeft.mouseover" end="arrowLeft.mouseout"/>
                  </use>
                  <path fill="none" stroke="white" stroke-width="1.5" d="M0,-3.0v7 M-2.5,-0.5L0,-3.0L2.5,-0.5"/>
                </g>
        </g>
        <svg viewBox="0 0 15 15" width="100%" height="30px" preserveAspectRatio="xMaxYMin meet">
         <g id="arrow_out" transform="scale(0.3 0.3)">
          <a xlink:href="amcl__node_8hpp__incl_org.svg" target="_base">
           <rect id="button" ry="5" rx="5" y="6" x="6" height="38" width="38"
                fill="#f2f5e9" fill-opacity="0.5" stroke="#606060" stroke-width="1.0"/>
           <path id="arrow"
             d="M 11.500037,31.436501 C 11.940474,20.09759 22.043105,11.32322 32.158766,21.979434 L 37.068811,17.246167 C 37.068811,17.246167 37.088388,32 37.088388,32 L 22.160133,31.978069 C 22.160133,31.978069 26.997745,27.140456 26.997745,27.140456 C 18.528582,18.264221 13.291696,25.230495 11.500037,31.436501 z"
             style="fill:#404040;"/>
          </a>
         </g>
        </svg>
</svg>
