<?xml version="1.0" encoding="UTF-8" standalone="no"?>
<!DOCTYPE svg PUBLIC "-//W3C//DTD SVG 1.1//EN"
 "http://www.w3.org/Graphics/SVG/1.1/DTD/svg11.dtd">
<!-- Generated by graphviz version 2.43.0 (0)
 -->
<!-- Title: /home/runner/work/beluga/beluga/beluga_amcl/include/beluga_amcl/amcl_nodelet.hpp Pages: 1 -->
<!--zoomable 117 -->
<svg id="main" version="1.1" xmlns="http://www.w3.org/2000/svg" xmlns:xlink="http://www.w3.org/1999/xlink" xml:space="preserve" onload="init(evt)">
<style type="text/css"><![CDATA[
.edge:hover path { stroke: red; }
.edge:hover polygon { stroke: red; fill: red; }
]]></style>
<script type="text/javascript"><![CDATA[
var edges = document.getElementsByTagName('g');
if (edges && edges.length) {
  for (var i=0;i<edges.length;i++) {
    if (edges[i].id.substr(0,4)=='edge') {
      edges[i].setAttribute('class','edge');
    }
  }
}
]]></script>
        <defs>
                <circle id="rim" cx="0" cy="0" r="7"/>
                <circle id="rim2" cx="0" cy="0" r="3.5"/>
                <g id="zoomPlus">
                        <use xlink:href="#rim" fill="#404040">
                                <set attributeName="fill" to="#808080" begin="zoomplus.mouseover" end="zoomplus.mouseout"/>
                        </use>
                        <path d="M-4,0h8M0,-4v8" fill="none" stroke="white" stroke-width="1.5" pointer-events="none"/>
                </g>
                <g id="zoomMin">
                        <use xlink:href="#rim" fill="#404040">
                                <set attributeName="fill" to="#808080" begin="zoomminus.mouseover" end="zoomminus.mouseout"/>
                        </use>
                        <path d="M-4,0h8" fill="none" stroke="white" stroke-width="1.5" pointer-events="none"/>
                </g>
                <g id="dirArrow">
                        <path fill="none" stroke="white" stroke-width="1.5" d="M0,-3.0v7 M-2.5,-0.5L0,-3.0L2.5,-0.5"/>
                </g>
               <g id="resetDef">
                       <use xlink:href="#rim2" fill="#404040">
                               <set attributeName="fill" to="#808080" begin="reset.mouseover" end="reset.mouseout"/>
                       </use>
               </g>
        </defs>

<script type="text/javascript">
var viewWidth = 2809;
var viewHeight = 117;
var sectionId = 'dynsection-0';
</script>
<script xlink:href="svgpan.js"/>
<svg id="graph" class="graph">
<g id="viewport">
<title>/home/runner/work/beluga/beluga/beluga_amcl/include/beluga_amcl/amcl_nodelet.hpp</title>
<!-- Node1 -->
<g id="node1" class="node">
<title>Node1</title>
<g id="a_node1"><a xlink:title="ROS (1) integration of the 2D AMCL algorithm.">
<polygon fill="#bfbfbf" stroke="black" points="1459,-67.5 1459,-108.5 1631,-108.5 1631,-67.5 1459,-67.5"/>
<text text-anchor="start" x="1467" y="-96.5" font-family="Helvetica,sans-Serif" font-size="10.00">/home/runner/work/beluga</text>
<text text-anchor="start" x="1467" y="-85.5" font-family="Helvetica,sans-Serif" font-size="10.00">/beluga/beluga_amcl/include</text>
<text text-anchor="middle" x="1545" y="-74.5" font-family="Helvetica,sans-Serif" font-size="10.00">/beluga_amcl/amcl_nodelet.hpp</text>
</a>
</g>
</g>
<!-- Node2 -->
<g id="node2" class="node">
<title>Node2</title>
<g id="a_node2"><a xlink:title=" ">
<polygon fill="none" stroke="#bfbfbf" points="0,-6 0,-25 102,-25 102,-6 0,-6"/>
<text text-anchor="middle" x="51" y="-13" font-family="Helvetica,sans-Serif" font-size="10.00">nodelet/nodelet.h</text>
</a>
</g>
</g>
<!-- Node1&#45;&gt;Node2 -->
<g id="edge1" class="edge">
<title>Node1&#45;&gt;Node2</title>
<path fill="none" stroke="midnightblue" d="M1458.99,-85.88C1191.05,-82.02 373.66,-67.5 111,-31 104.59,-30.11 97.87,-28.83 91.34,-27.4"/>
<polygon fill="midnightblue" stroke="midnightblue" points="91.83,-23.92 81.3,-25.06 90.24,-30.74 91.83,-23.92"/>
</g>
<!-- Node3 -->
<g id="node3" class="node">
<title>Node3</title>
<g id="a_node3"><a xlink:title=" ">
<polygon fill="none" stroke="#bfbfbf" points="120.5,-6 120.5,-25 179.5,-25 179.5,-6 120.5,-6"/>
<text text-anchor="middle" x="150" y="-13" font-family="Helvetica,sans-Serif" font-size="10.00">ros/ros.h</text>
</a>
</g>
</g>
<!-- Node1&#45;&gt;Node3 -->
<g id="edge2" class="edge">
<title>Node1&#45;&gt;Node3</title>
<path fill="none" stroke="midnightblue" d="M1458.84,-87.07C1200.05,-86.7 432.38,-81.27 188,-31 184.92,-30.37 181.76,-29.51 178.64,-28.54"/>
<polygon fill="midnightblue" stroke="midnightblue" points="179.56,-25.15 168.97,-25.12 177.23,-31.75 179.56,-25.15"/>
</g>
<!-- Node4 -->
<g id="node4" class="node">
<title>Node4</title>
<g id="a_node4"><a xlink:title=" ">
<polygon fill="none" stroke="#bfbfbf" points="197.5,-0.5 197.5,-30.5 318.5,-30.5 318.5,-0.5 197.5,-0.5"/>
<text text-anchor="start" x="205.5" y="-18.5" font-family="Helvetica,sans-Serif" font-size="10.00">diagnostic_updater</text>
<text text-anchor="middle" x="258" y="-7.5" font-family="Helvetica,sans-Serif" font-size="10.00">/diagnostic_updater.h</text>
</a>
</g>
</g>
<!-- Node1&#45;&gt;Node4 -->
<g id="edge3" class="edge">
<title>Node1&#45;&gt;Node4</title>
<path fill="none" stroke="midnightblue" d="M1458.94,-87.79C1260.78,-88.59 757.03,-84.76 328.96,-31.12"/>
<polygon fill="midnightblue" stroke="midnightblue" points="329.22,-27.63 318.86,-29.85 328.34,-34.57 329.22,-27.63"/>
</g>
<!-- Node5 -->
<g id="node5" class="node">
<title>Node5</title>
<g id="a_node5"><a xlink:title=" ">
<polygon fill="none" stroke="#bfbfbf" points="336.5,-0.5 336.5,-30.5 455.5,-30.5 455.5,-0.5 336.5,-0.5"/>
<text text-anchor="start" x="344.5" y="-18.5" font-family="Helvetica,sans-Serif" font-size="10.00">dynamic_reconfigure</text>
<text text-anchor="middle" x="396" y="-7.5" font-family="Helvetica,sans-Serif" font-size="10.00">/server.h</text>
</a>
</g>
</g>
<!-- Node1&#45;&gt;Node5 -->
<g id="edge4" class="edge">
<title>Node1&#45;&gt;Node5</title>
<path fill="none" stroke="midnightblue" d="M1458.75,-87.15C1276.63,-86.47 839.51,-79.55 465.54,-31.07"/>
<polygon fill="midnightblue" stroke="midnightblue" points="465.98,-27.6 455.61,-29.77 465.07,-34.54 465.98,-27.6"/>
</g>
<!-- Node6 -->
<g id="node6" class="node">
<title>Node6</title>
<g id="a_node6"><a xlink:title=" ">
<polygon fill="none" stroke="#bfbfbf" points="473.5,-6 473.5,-25 628.5,-25 628.5,-6 473.5,-6"/>
<text text-anchor="middle" x="551" y="-13" font-family="Helvetica,sans-Serif" font-size="10.00">message_filters/subscriber.h</text>
</a>
</g>
</g>
<!-- Node1&#45;&gt;Node6 -->
<g id="edge5" class="edge">
<title>Node1&#45;&gt;Node6</title>
<path fill="none" stroke="midnightblue" d="M1458.77,-84.65C1297.26,-79.58 938.38,-65.21 638,-31 627.96,-29.86 617.31,-28.34 607.04,-26.72"/>
<polygon fill="midnightblue" stroke="midnightblue" points="607.36,-23.22 596.93,-25.07 606.24,-30.13 607.36,-23.22"/>
</g>
<!-- Node7 -->
<g id="node7" class="node">
<title>Node7</title>
<g id="a_node7"><a xlink:title=" ">
<polygon fill="none" stroke="#bfbfbf" points="647,-6 647,-25 737,-25 737,-6 647,-6"/>
<text text-anchor="middle" x="692" y="-13" font-family="Helvetica,sans-Serif" font-size="10.00">tf2_ros/buffer.h</text>
</a>
</g>
</g>
<!-- Node1&#45;&gt;Node7 -->
<g id="edge6" class="edge">
<title>Node1&#45;&gt;Node7</title>
<path fill="none" stroke="midnightblue" d="M1458.93,-86.37C1311.81,-84.1 1002.97,-74.09 746,-31 740.61,-30.1 734.99,-28.89 729.49,-27.56"/>
<polygon fill="midnightblue" stroke="midnightblue" points="730.36,-24.17 719.8,-25.06 728.61,-30.95 730.36,-24.17"/>
</g>
<!-- Node8 -->
<g id="node8" class="node">
<title>Node8</title>
<g id="a_node8"><a xlink:title=" ">
<polygon fill="none" stroke="#bfbfbf" points="755,-6 755,-25 889,-25 889,-6 755,-6"/>
<text text-anchor="middle" x="822" y="-13" font-family="Helvetica,sans-Serif" font-size="10.00">tf2_ros/message_filter.h</text>
</a>
</g>
</g>
<!-- Node1&#45;&gt;Node8 -->
<g id="edge7" class="edge">
<title>Node1&#45;&gt;Node8</title>
<path fill="none" stroke="midnightblue" d="M1458.87,-82.35C1334.58,-75.01 1097.91,-58.65 898,-31 889.68,-29.85 880.89,-28.4 872.36,-26.86"/>
<polygon fill="midnightblue" stroke="midnightblue" points="872.97,-23.41 862.5,-25.02 871.69,-30.29 872.97,-23.41"/>
</g>
<!-- Node9 -->
<g id="node9" class="node">
<title>Node9</title>
<g id="a_node9"><a xlink:title=" ">
<polygon fill="none" stroke="#bfbfbf" points="907.5,-6 907.5,-25 1080.5,-25 1080.5,-6 907.5,-6"/>
<text text-anchor="middle" x="994" y="-13" font-family="Helvetica,sans-Serif" font-size="10.00">tf2_ros/transform_broadcaster.h</text>
</a>
</g>
</g>
<!-- Node1&#45;&gt;Node9 -->
<g id="edge8" class="edge">
<title>Node1&#45;&gt;Node9</title>
<path fill="none" stroke="midnightblue" d="M1458.95,-77.12C1367.39,-66.44 1218.33,-48.59 1090,-31 1079.81,-29.6 1069.03,-28.05 1058.51,-26.49"/>
<polygon fill="midnightblue" stroke="midnightblue" points="1058.95,-23.02 1048.54,-25 1057.91,-29.94 1058.95,-23.02"/>
</g>
<!-- Node10 -->
<g id="node10" class="node">
<title>Node10</title>
<g id="a_node10"><a xlink:title=" ">
<polygon fill="none" stroke="#bfbfbf" points="1099,-6 1099,-25 1251,-25 1251,-6 1099,-6"/>
<text text-anchor="middle" x="1175" y="-13" font-family="Helvetica,sans-Serif" font-size="10.00">tf2_ros/transform_listener.h</text>
</a>
</g>
</g>
<!-- Node1&#45;&gt;Node10 -->
<g id="edge9" class="edge">
<title>Node1&#45;&gt;Node10</title>
<path fill="none" stroke="midnightblue" d="M1458.72,-70.56C1388.07,-57.1 1290.25,-38.46 1229.88,-26.96"/>
<polygon fill="midnightblue" stroke="midnightblue" points="1230.27,-23.47 1219.79,-25.03 1228.96,-30.34 1230.27,-23.47"/>
</g>
<!-- Node11 -->
<g id="node11" class="node">
<title>Node11</title>
<g id="a_node11"><a xlink:title=" ">
<polygon fill="none" stroke="#bfbfbf" points="1269.5,-0.5 1269.5,-30.5 1468.5,-30.5 1468.5,-0.5 1269.5,-0.5"/>
<text text-anchor="start" x="1277.5" y="-18.5" font-family="Helvetica,sans-Serif" font-size="10.00">geometry_msgs/PoseWithCovariance</text>
<text text-anchor="middle" x="1369" y="-7.5" font-family="Helvetica,sans-Serif" font-size="10.00">Stamped.h</text>
</a>
</g>
</g>
<!-- Node1&#45;&gt;Node11 -->
<g id="edge10" class="edge">
<title>Node1&#45;&gt;Node11</title>
<path fill="none" stroke="midnightblue" d="M1495.97,-67.36C1470.09,-56.99 1438.57,-44.37 1413.41,-34.29"/>
<polygon fill="midnightblue" stroke="midnightblue" points="1414.68,-31.03 1404.1,-30.56 1412.08,-37.53 1414.68,-31.03"/>
</g>
<!-- Node12 -->
<g id="node12" class="node">
<title>Node12</title>
<g id="a_node12"><a xlink:title=" ">
<polygon fill="none" stroke="#bfbfbf" points="1487,-6 1487,-25 1603,-25 1603,-6 1487,-6"/>
<text text-anchor="middle" x="1545" y="-13" font-family="Helvetica,sans-Serif" font-size="10.00">nav_msgs/GetMap.h</text>
</a>
</g>
</g>
<!-- Node1&#45;&gt;Node12 -->
<g id="edge11" class="edge">
<title>Node1&#45;&gt;Node12</title>
<path fill="none" stroke="midnightblue" d="M1545,-67.36C1545,-57.3 1545,-45.1 1545,-35.18"/>
<polygon fill="midnightblue" stroke="midnightblue" points="1548.5,-35.17 1545,-25.17 1541.5,-35.17 1548.5,-35.17"/>
</g>
<!-- Node13 -->
<g id="node13" class="node">
<title>Node13</title>
<g id="a_node13"><a xlink:title=" ">
<polygon fill="none" stroke="#bfbfbf" points="1621,-6 1621,-25 1773,-25 1773,-6 1621,-6"/>
<text text-anchor="middle" x="1697" y="-13" font-family="Helvetica,sans-Serif" font-size="10.00">nav_msgs/OccupancyGrid.h</text>
</a>
</g>
</g>
<!-- Node1&#45;&gt;Node13 -->
<g id="edge12" class="edge">
<title>Node1&#45;&gt;Node13</title>
<path fill="none" stroke="midnightblue" d="M1587.34,-67.36C1613.47,-55.24 1646.26,-40.03 1669.15,-29.42"/>
<polygon fill="midnightblue" stroke="midnightblue" points="1670.7,-32.56 1678.3,-25.17 1667.76,-26.21 1670.7,-32.56"/>
</g>
<!-- Node14 -->
<g id="node14" class="node">
<title>Node14</title>
<g id="a_node14"><a xlink:title=" ">
<polygon fill="none" stroke="#bfbfbf" points="1791.5,-6 1791.5,-25 1906.5,-25 1906.5,-6 1791.5,-6"/>
<text text-anchor="middle" x="1849" y="-13" font-family="Helvetica,sans-Serif" font-size="10.00">nav_msgs/SetMap.h</text>
</a>
</g>
</g>
<!-- Node1&#45;&gt;Node14 -->
<g id="edge13" class="edge">
<title>Node1&#45;&gt;Node14</title>
<path fill="none" stroke="midnightblue" d="M1629.28,-67.46C1685.15,-54.5 1756.36,-37.98 1802.32,-27.33"/>
<polygon fill="midnightblue" stroke="midnightblue" points="1803.34,-30.68 1812.29,-25.01 1801.76,-23.86 1803.34,-30.68"/>
</g>
<!-- Node15 -->
<g id="node15" class="node">
<title>Node15</title>
<g id="a_node15"><a xlink:title=" ">
<polygon fill="none" stroke="#bfbfbf" points="1925,-6 1925,-25 2067,-25 2067,-6 1925,-6"/>
<text text-anchor="middle" x="1996" y="-13" font-family="Helvetica,sans-Serif" font-size="10.00">sensor_msgs/LaserScan.h</text>
</a>
</g>
</g>
<!-- Node1&#45;&gt;Node15 -->
<g id="edge14" class="edge">
<title>Node1&#45;&gt;Node15</title>
<path fill="none" stroke="midnightblue" d="M1631.32,-74.71C1706.59,-63.81 1818.65,-47.17 1916,-31 1923.92,-29.68 1932.27,-28.24 1940.47,-26.78"/>
<polygon fill="midnightblue" stroke="midnightblue" points="1941.12,-30.22 1950.35,-25.01 1939.89,-23.33 1941.12,-30.22"/>
</g>
<!-- Node16 -->
<g id="node16" class="node">
<title>Node16</title>
<g id="a_node16"><a xlink:title=" ">
<polygon fill="none" stroke="#bfbfbf" points="2085.5,-6 2085.5,-25 2184.5,-25 2184.5,-6 2085.5,-6"/>
<text text-anchor="middle" x="2135" y="-13" font-family="Helvetica,sans-Serif" font-size="10.00">std_srvs/Empty.h</text>
</a>
</g>
</g>
<!-- Node1&#45;&gt;Node16 -->
<g id="edge15" class="edge">
<title>Node1&#45;&gt;Node16</title>
<path fill="none" stroke="midnightblue" d="M1631.03,-81.54C1736.46,-74.02 1920.31,-58.21 2076,-31 2081.79,-29.99 2087.86,-28.73 2093.8,-27.38"/>
<polygon fill="midnightblue" stroke="midnightblue" points="2094.71,-30.76 2103.63,-25.05 2093.09,-23.95 2094.71,-30.76"/>
</g>
<!-- Node17 -->
<g id="node17" class="node">
<title>Node17</title>
<g id="a_node17"><a xlink:title=" ">
<polygon fill="none" stroke="#bfbfbf" points="2203,-6 2203,-25 2261,-25 2261,-6 2203,-6"/>
<text text-anchor="middle" x="2232" y="-13" font-family="Helvetica,sans-Serif" font-size="10.00">memory</text>
</a>
</g>
</g>
<!-- Node1&#45;&gt;Node17 -->
<g id="edge16" class="edge">
<title>Node1&#45;&gt;Node17</title>
<path fill="none" stroke="midnightblue" d="M1631.22,-87.14C1756.67,-85.64 1996.13,-76.35 2194,-31 2197,-30.31 2200.08,-29.44 2203.13,-28.46"/>
<polygon fill="midnightblue" stroke="midnightblue" points="2204.35,-31.74 2212.6,-25.09 2202.01,-25.15 2204.35,-31.74"/>
</g>
<!-- Node18 -->
<g id="node18" class="node">
<title>Node18</title>
<g id="a_node18"><a xlink:title=" ">
<polygon fill="none" stroke="#bfbfbf" points="2279,-6 2279,-25 2327,-25 2327,-6 2279,-6"/>
<text text-anchor="middle" x="2303" y="-13" font-family="Helvetica,sans-Serif" font-size="10.00">mutex</text>
</a>
</g>
</g>
<!-- Node1&#45;&gt;Node18 -->
<g id="edge17" class="edge">
<title>Node1&#45;&gt;Node18</title>
<path fill="none" stroke="midnightblue" d="M1631.07,-83.97C1796.11,-77.58 2151.22,-60.77 2270,-31 2272.36,-30.41 2274.76,-29.66 2277.13,-28.83"/>
<polygon fill="midnightblue" stroke="midnightblue" points="2278.64,-31.99 2286.6,-25 2276.02,-25.5 2278.64,-31.99"/>
</g>
<!-- Node19 -->
<g id="node19" class="node">
<title>Node19</title>
<g id="a_node19"><a xlink:title=" ">
<polygon fill="none" stroke="#bfbfbf" points="2345.5,-6 2345.5,-25 2390.5,-25 2390.5,-6 2345.5,-6"/>
<text text-anchor="middle" x="2368" y="-13" font-family="Helvetica,sans-Serif" font-size="10.00">utility</text>
</a>
</g>
</g>
<!-- Node1&#45;&gt;Node19 -->
<g id="edge18" class="edge">
<title>Node1&#45;&gt;Node19</title>
<path fill="none" stroke="midnightblue" d="M1631.07,-84.74C1807.5,-79.49 2204.63,-64.27 2336,-31 2338.21,-30.44 2340.46,-29.73 2342.68,-28.94"/>
<polygon fill="midnightblue" stroke="midnightblue" points="2344.22,-32.09 2352.13,-25.03 2341.55,-25.62 2344.22,-32.09"/>
</g>
<!-- Node20 -->
<g id="node20" class="node">
<title>Node20</title>
<g id="a_node20"><a xlink:title=" ">
<polygon fill="none" stroke="#bfbfbf" points="2409,-6 2409,-25 2501,-25 2501,-6 2409,-6"/>
<text text-anchor="middle" x="2455" y="-13" font-family="Helvetica,sans-Serif" font-size="10.00">sophus/se2.hpp</text>
</a>
</g>
</g>
<!-- Node1&#45;&gt;Node20 -->
<g id="edge19" class="edge">
<title>Node1&#45;&gt;Node20</title>
<path fill="none" stroke="midnightblue" d="M1631.17,-86.81C1786.08,-85.27 2121.41,-76.41 2400,-31 2405.54,-30.1 2411.34,-28.88 2417,-27.53"/>
<polygon fill="midnightblue" stroke="midnightblue" points="2418.13,-30.86 2426.96,-25 2416.41,-24.07 2418.13,-30.86"/>
</g>
<!-- Node21 -->
<g id="node21" class="node">
<title>Node21</title>
<g id="a_node21"><a xlink:title=" ">
<polygon fill="none" stroke="#bfbfbf" points="2519,-6 2519,-25 2665,-25 2665,-6 2519,-6"/>
<text text-anchor="middle" x="2592" y="-13" font-family="Helvetica,sans-Serif" font-size="10.00">beluga_amcl/AmclConfig.h</text>
</a>
</g>
</g>
<!-- Node1&#45;&gt;Node21 -->
<g id="edge20" class="edge">
<title>Node1&#45;&gt;Node21</title>
<path fill="none" stroke="midnightblue" d="M1631.14,-85.38C1800.19,-81.46 2187.06,-68.79 2510,-31 2519.48,-29.89 2529.53,-28.39 2539.23,-26.77"/>
<polygon fill="midnightblue" stroke="midnightblue" points="2539.9,-30.2 2549.16,-25.05 2538.71,-23.31 2539.9,-30.2"/>
</g>
<!-- Node22 -->
<g id="node22" class="node">
<title>Node22</title>
<g id="a_node22"><a target="_parent" xlink:href="../../../../../../beluga_ros/docs/_doxygen/generated/reference/html/amcl_8hpp.html.html" xlink:title=" ">
<polygon fill="none" stroke="black" points="2683,-6 2683,-25 2801,-25 2801,-6 2683,-6"/>
<text text-anchor="middle" x="2742" y="-13" font-family="Helvetica,sans-Serif" font-size="10.00">beluga_ros/amcl.hpp</text>
</a>
</g>
</g>
<!-- Node1&#45;&gt;Node22 -->
<g id="edge21" class="edge">
<title>Node1&#45;&gt;Node22</title>
<path fill="none" stroke="midnightblue" d="M1631.11,-87.43C1820.52,-87.34 2287.24,-81.5 2674,-31 2681.57,-30.01 2689.56,-28.63 2697.29,-27.1"/>
<polygon fill="midnightblue" stroke="midnightblue" points="2698.16,-30.49 2707.24,-25.03 2696.74,-23.64 2698.16,-30.49"/>
</g>
</g>
</svg>
        <g id="navigator" transform="translate(0 0)" fill="#404254">
                <rect fill="#f2f5e9" fill-opacity="0.5" stroke="#606060" stroke-width=".5" x="0" y="0" width="60" height="60"/>
                <use id="zoomplus" xlink:href="#zoomPlus" x="17" y="9" onmousedown="handleZoom(evt,'in')"/>
                <use id="zoomminus" xlink:href="#zoomMin" x="42" y="9" onmousedown="handleZoom(evt,'out')"/>
                <use id="reset" xlink:href="#resetDef" x="30" y="36" onmousedown="handleReset()"/>
                <g id="arrowUp" xlink:href="#dirArrow" transform="translate(30 24)" onmousedown="handlePan(0,-1)">
                  <use xlink:href="#rim" fill="#404040">
                        <set attributeName="fill" to="#808080" begin="arrowUp.mouseover" end="arrowUp.mouseout"/>
                  </use>
                  <path fill="none" stroke="white" stroke-width="1.5" d="M0,-3.0v7 M-2.5,-0.5L0,-3.0L2.5,-0.5"/>
                </g>
                <g id="arrowRight" xlink:href="#dirArrow" transform="rotate(90) translate(36 -43)" onmousedown="handlePan(1,0)">
                  <use xlink:href="#rim" fill="#404040">
                        <set attributeName="fill" to="#808080" begin="arrowRight.mouseover" end="arrowRight.mouseout"/>
                  </use>
                  <path fill="none" stroke="white" stroke-width="1.5" d="M0,-3.0v7 M-2.5,-0.5L0,-3.0L2.5,-0.5"/>
                </g>
                <g id="arrowDown" xlink:href="#dirArrow" transform="rotate(180) translate(-30 -48)" onmousedown="handlePan(0,1)">
                  <use xlink:href="#rim" fill="#404040">
                        <set attributeName="fill" to="#808080" begin="arrowDown.mouseover" end="arrowDown.mouseout"/>
                  </use>
                  <path fill="none" stroke="white" stroke-width="1.5" d="M0,-3.0v7 M-2.5,-0.5L0,-3.0L2.5,-0.5"/>
                </g>
                <g id="arrowLeft" xlink:href="#dirArrow" transform="rotate(270) translate(-36 17)" onmousedown="handlePan(-1,0)">
                  <use xlink:href="#rim" fill="#404040">
                        <set attributeName="fill" to="#808080" begin="arrowLeft.mouseover" end="arrowLeft.mouseout"/>
                  </use>
                  <path fill="none" stroke="white" stroke-width="1.5" d="M0,-3.0v7 M-2.5,-0.5L0,-3.0L2.5,-0.5"/>
                </g>
        </g>
        <svg viewBox="0 0 15 15" width="100%" height="30px" preserveAspectRatio="xMaxYMin meet">
         <g id="arrow_out" transform="scale(0.3 0.3)">
          <a xlink:href="amcl__nodelet_8hpp__incl_org.svg" target="_base">
           <rect id="button" ry="5" rx="5" y="6" x="6" height="38" width="38"
                fill="#f2f5e9" fill-opacity="0.5" stroke="#606060" stroke-width="1.0"/>
           <path id="arrow"
             d="M 11.500037,31.436501 C 11.940474,20.09759 22.043105,11.32322 32.158766,21.979434 L 37.068811,17.246167 C 37.068811,17.246167 37.088388,32 37.088388,32 L 22.160133,31.978069 C 22.160133,31.978069 26.997745,27.140456 26.997745,27.140456 C 18.528582,18.264221 13.291696,25.230495 11.500037,31.436501 z"
             style="fill:#404040;"/>
          </a>
         </g>
        </svg>
</svg>
