<?xml version="1.0" encoding="UTF-8" standalone="no"?>
<!DOCTYPE svg PUBLIC "-//W3C//DTD SVG 1.1//EN"
 "http://www.w3.org/Graphics/SVG/1.1/DTD/svg11.dtd">
<!-- Generated by graphviz version 2.43.0 (0)
 -->
<!-- Title: beluga_amcl::BaseAMCLNode Pages: 1 -->
<svg width="498pt" height="140pt"
 viewBox="0.00 0.00 497.50 140.00" xmlns="http://www.w3.org/2000/svg" xmlns:xlink="http://www.w3.org/1999/xlink">
<g id="graph0" class="graph" transform="scale(1 1) rotate(0) translate(4 136)">
<title>beluga_amcl::BaseAMCLNode</title>
<!-- Node1 -->
<g id="node1" class="node">
<title>Node1</title>
<g id="a_node1"><a xlink:title=" ">
<polygon fill="#bfbfbf" stroke="black" points="148.5,-56.5 148.5,-75.5 310.5,-75.5 310.5,-56.5 148.5,-56.5"/>
<text text-anchor="middle" x="229.5" y="-63.5" font-family="Helvetica,sans-Serif" font-size="10.00">beluga_amcl::BaseAMCLNode</text>
</a>
</g>
</g>
<!-- Node3 -->
<g id="node3" class="node">
<title>Node3</title>
<g id="a_node3"><a xlink:href="classbeluga__amcl_1_1AmclNode.html" target="_top" xlink:title="2D AMCL as a ROS 2 composable lifecycle node.">
<polygon fill="none" stroke="black" points="0,-0.5 0,-19.5 135,-19.5 135,-0.5 0,-0.5"/>
<text text-anchor="middle" x="67.5" y="-7.5" font-family="Helvetica,sans-Serif" font-size="10.00">beluga_amcl::AmclNode</text>
</a>
</g>
</g>
<!-- Node1&#45;&gt;Node3 -->
<g id="edge2" class="edge">
<title>Node1&#45;&gt;Node3</title>
<path fill="none" stroke="midnightblue" d="M194.02,-53.17C163.51,-43 120.26,-28.59 93.05,-19.52"/>
<polygon fill="midnightblue" stroke="midnightblue" points="193.24,-56.6 203.83,-56.44 195.45,-49.96 193.24,-56.6"/>
</g>
<!-- Node4 -->
<g id="node4" class="node">
<title>Node4</title>
<g id="a_node4"><a xlink:href="classbeluga__amcl_1_1NdtAmclNode.html" target="_top" xlink:title="2D NDT AMCL as a ROS 2 composable lifecycle node.">
<polygon fill="none" stroke="black" points="153.5,-0.5 153.5,-19.5 305.5,-19.5 305.5,-0.5 153.5,-0.5"/>
<text text-anchor="middle" x="229.5" y="-7.5" font-family="Helvetica,sans-Serif" font-size="10.00">beluga_amcl::NdtAmclNode</text>
</a>
</g>
</g>
<!-- Node1&#45;&gt;Node4 -->
<g id="edge3" class="edge">
<title>Node1&#45;&gt;Node4</title>
<path fill="none" stroke="midnightblue" d="M229.5,-45.8C229.5,-36.91 229.5,-26.78 229.5,-19.75"/>
<polygon fill="midnightblue" stroke="midnightblue" points="226,-46.08 229.5,-56.08 233,-46.08 226,-46.08"/>
</g>
<!-- Node5 -->
<g id="node5" class="node">
<title>Node5</title>
<g id="a_node5"><a xlink:href="classbeluga__amcl_1_1NdtAmclNode3D.html" target="_top" xlink:title="3D NDT AMCL as a ROS 2 composable lifecycle node.">
<polygon fill="none" stroke="black" points="323.5,-0.5 323.5,-19.5 489.5,-19.5 489.5,-0.5 323.5,-0.5"/>
<text text-anchor="middle" x="406.5" y="-7.5" font-family="Helvetica,sans-Serif" font-size="10.00">beluga_amcl::NdtAmclNode3D</text>
</a>
</g>
</g>
<!-- Node1&#45;&gt;Node5 -->
<g id="edge4" class="edge">
<title>Node1&#45;&gt;Node5</title>
<path fill="none" stroke="midnightblue" d="M267.4,-53.44C300.78,-43.26 348.6,-28.66 378.59,-19.52"/>
<polygon fill="midnightblue" stroke="midnightblue" points="266.09,-50.18 257.55,-56.44 268.13,-56.87 266.09,-50.18"/>
</g>
<!-- Node2 -->
<g id="node2" class="node">
<title>Node2</title>
<g id="a_node2"><a xlink:title=" ">
<polygon fill="none" stroke="#bfbfbf" points="146,-112.5 146,-131.5 313,-131.5 313,-112.5 146,-112.5"/>
<text text-anchor="middle" x="229.5" y="-119.5" font-family="Helvetica,sans-Serif" font-size="10.00">rclcpp_lifecycle::LifecycleNode</text>
</a>
</g>
</g>
<!-- Node2&#45;&gt;Node1 -->
<g id="edge1" class="edge">
<title>Node2&#45;&gt;Node1</title>
<path fill="none" stroke="midnightblue" d="M229.5,-101.8C229.5,-92.91 229.5,-82.78 229.5,-75.75"/>
<polygon fill="midnightblue" stroke="midnightblue" points="226,-102.08 229.5,-112.08 233,-102.08 226,-102.08"/>
</g>
</g>
</svg>
