<?xml version="1.0" encoding="UTF-8" standalone="no"?>
<!DOCTYPE svg PUBLIC "-//W3C//DTD SVG 1.1//EN"
 "http://www.w3.org/Graphics/SVG/1.1/DTD/svg11.dtd">
<!-- Generated by graphviz version 2.43.0 (0)
 -->
<!-- Title: beluga_amcl::BaseAMCLNode Pages: 1 -->
<svg width="314pt" height="140pt"
 viewBox="0.00 0.00 313.50 140.00" xmlns="http://www.w3.org/2000/svg" xmlns:xlink="http://www.w3.org/1999/xlink">
<g id="graph0" class="graph" transform="scale(1 1) rotate(0) translate(4 136)">
<title>beluga_amcl::BaseAMCLNode</title>
<!-- Node1 -->
<g id="node1" class="node">
<title>Node1</title>
<g id="a_node1"><a xlink:title=" ">
<polygon fill="#bfbfbf" stroke="black" points="67.5,-56.5 67.5,-75.5 229.5,-75.5 229.5,-56.5 67.5,-56.5"/>
<text text-anchor="middle" x="148.5" y="-63.5" font-family="Helvetica,sans-Serif" font-size="10.00">beluga_amcl::BaseAMCLNode</text>
</a>
</g>
</g>
<!-- Node3 -->
<g id="node3" class="node">
<title>Node3</title>
<g id="a_node3"><a xlink:href="classbeluga__amcl_1_1AmclNode.html" target="_top" xlink:title="2D AMCL as a ROS 2 composable lifecycle node.">
<polygon fill="none" stroke="black" points="0,-0.5 0,-19.5 135,-19.5 135,-0.5 0,-0.5"/>
<text text-anchor="middle" x="67.5" y="-7.5" font-family="Helvetica,sans-Serif" font-size="10.00">beluga_amcl::AmclNode</text>
</a>
</g>
</g>
<!-- Node1&#45;&gt;Node3 -->
<g id="edge2" class="edge">
<title>Node1&#45;&gt;Node3</title>
<path fill="none" stroke="midnightblue" d="M126.93,-50.62C112.14,-40.76 92.99,-27.99 80.48,-19.65"/>
<polygon fill="midnightblue" stroke="midnightblue" points="125.22,-53.69 135.49,-56.32 129.11,-47.86 125.22,-53.69"/>
</g>
<!-- Node4 -->
<g id="node4" class="node">
<title>Node4</title>
<g id="a_node4"><a xlink:href="classbeluga__amcl_1_1NdtAmclNode.html" target="_top" xlink:title="2D NDT AMCL as a ROS 2 composable lifecycle node.">
<polygon fill="none" stroke="black" points="153.5,-0.5 153.5,-19.5 305.5,-19.5 305.5,-0.5 153.5,-0.5"/>
<text text-anchor="middle" x="229.5" y="-7.5" font-family="Helvetica,sans-Serif" font-size="10.00">beluga_amcl::NdtAmclNode</text>
</a>
</g>
</g>
<!-- Node1&#45;&gt;Node4 -->
<g id="edge3" class="edge">
<title>Node1&#45;&gt;Node4</title>
<path fill="none" stroke="midnightblue" d="M170.07,-50.62C184.86,-40.76 204.01,-27.99 216.52,-19.65"/>
<polygon fill="midnightblue" stroke="midnightblue" points="167.89,-47.86 161.51,-56.32 171.78,-53.69 167.89,-47.86"/>
</g>
<!-- Node2 -->
<g id="node2" class="node">
<title>Node2</title>
<g id="a_node2"><a xlink:title=" ">
<polygon fill="none" stroke="#bfbfbf" points="65,-112.5 65,-131.5 232,-131.5 232,-112.5 65,-112.5"/>
<text text-anchor="middle" x="148.5" y="-119.5" font-family="Helvetica,sans-Serif" font-size="10.00">rclcpp_lifecycle::LifecycleNode</text>
</a>
</g>
</g>
<!-- Node2&#45;&gt;Node1 -->
<g id="edge1" class="edge">
<title>Node2&#45;&gt;Node1</title>
<path fill="none" stroke="midnightblue" d="M148.5,-101.8C148.5,-92.91 148.5,-82.78 148.5,-75.75"/>
<polygon fill="midnightblue" stroke="midnightblue" points="145,-102.08 148.5,-112.08 152,-102.08 145,-102.08"/>
</g>
</g>
</svg>
