<?xml version="1.0" encoding="UTF-8" standalone="no"?>
<!DOCTYPE svg PUBLIC "-//W3C//DTD SVG 1.1//EN"
 "http://www.w3.org/Graphics/SVG/1.1/DTD/svg11.dtd">
<!-- Generated by graphviz version 2.43.0 (0)
 -->
<!-- Title: Graphical Class Hierarchy Pages: 1 -->
<svg width="543pt" height="66pt"
 viewBox="0.00 0.00 543.00 66.00" xmlns="http://www.w3.org/2000/svg" xmlns:xlink="http://www.w3.org/1999/xlink">
<g id="graph0" class="graph" transform="scale(1 1) rotate(0) translate(4 62)">
<title>Graphical Class Hierarchy</title>
<!-- Node1 -->
<g id="node1" class="node">
<title>Node1</title>
<g id="a_node1"><a xlink:href="classbeluga__amcl_1_1AmclNode.html" target="_top" xlink:title="2D AMCL as a ROS 2 composable lifecycle node.">
<polygon fill="none" stroke="black" points="0,-19.5 0,-38.5 135,-38.5 135,-19.5 0,-19.5"/>
<text text-anchor="middle" x="67.5" y="-26.5" font-family="Helvetica,sans-Serif" font-size="10.00">beluga_amcl::AmclNode</text>
</a>
</g>
</g>
<!-- Node0 -->
<g id="node2" class="node">
<title>Node0</title>
<g id="a_node2"><a xlink:href="classbeluga__amcl_1_1BaseAMCLNode.html" target="_top" xlink:title=" ">
<polygon fill="none" stroke="black" points="171,-19.5 171,-38.5 333,-38.5 333,-19.5 171,-19.5"/>
<text text-anchor="middle" x="252" y="-26.5" font-family="Helvetica,sans-Serif" font-size="10.00">beluga_amcl::BaseAMCLNode</text>
</a>
</g>
</g>
<!-- Node1&#45;&gt;Node0 -->
<g id="edge1" class="edge">
<title>Node1&#45;&gt;Node0</title>
<path fill="none" stroke="midnightblue" d="M145.35,-22.33C153.79,-22.24 162.4,-22.23 170.88,-22.29"/>
<polygon fill="midnightblue" stroke="midnightblue" points="145.11,-18.83 135.16,-22.47 145.21,-25.83 145.11,-18.83"/>
</g>
<!-- Node0&#45;&gt;Node1 -->
<g id="edge2" class="edge">
<title>Node0&#45;&gt;Node1</title>
<path fill="none" stroke="midnightblue" d="M160.77,-35.75C152.14,-35.76 143.5,-35.68 135.16,-35.53"/>
<polygon fill="midnightblue" stroke="midnightblue" points="160.89,-39.25 170.88,-35.71 160.86,-32.25 160.89,-39.25"/>
</g>
<!-- Node2 -->
<g id="node3" class="node">
<title>Node2</title>
<g id="a_node3"><a xlink:href="classbeluga__amcl_1_1NdtAmclNode.html" target="_top" xlink:title="2D NDT AMCL as a ROS 2 composable lifecycle node.">
<polygon fill="none" stroke="black" points="376,-38.5 376,-57.5 528,-57.5 528,-38.5 376,-38.5"/>
<text text-anchor="middle" x="452" y="-45.5" font-family="Helvetica,sans-Serif" font-size="10.00">beluga_amcl::NdtAmclNode</text>
</a>
</g>
</g>
<!-- Node0&#45;&gt;Node2 -->
<g id="edge3" class="edge">
<title>Node0&#45;&gt;Node2</title>
<path fill="none" stroke="midnightblue" d="M343.53,-37.69C354.31,-38.72 365.22,-39.77 375.76,-40.78"/>
<polygon fill="midnightblue" stroke="midnightblue" points="343.54,-34.17 333.25,-36.7 342.87,-41.14 343.54,-34.17"/>
</g>
<!-- Node3 -->
<g id="node4" class="node">
<title>Node3</title>
<g id="a_node4"><a xlink:href="classbeluga__amcl_1_1NdtAmclNode3D.html" target="_top" xlink:title="3D NDT AMCL as a ROS 2 composable lifecycle node.">
<polygon fill="none" stroke="black" points="369,-0.5 369,-19.5 535,-19.5 535,-0.5 369,-0.5"/>
<text text-anchor="middle" x="452" y="-7.5" font-family="Helvetica,sans-Serif" font-size="10.00">beluga_amcl::NdtAmclNode3D</text>
</a>
</g>
</g>
<!-- Node0&#45;&gt;Node3 -->
<g id="edge4" class="edge">
<title>Node0&#45;&gt;Node3</title>
<path fill="none" stroke="midnightblue" d="M343.46,-20.32C351.87,-19.51 360.37,-18.7 368.7,-17.9"/>
<polygon fill="midnightblue" stroke="midnightblue" points="342.87,-16.86 333.25,-21.3 343.54,-23.83 342.87,-16.86"/>
</g>
</g>
</svg>
