<?xml version="1.0" encoding="UTF-8" standalone="no"?>
<!DOCTYPE svg PUBLIC "-//W3C//DTD SVG 1.1//EN"
 "http://www.w3.org/Graphics/SVG/1.1/DTD/svg11.dtd">
<!-- Generated by graphviz version 2.43.0 (0)
 -->
<!-- Title: Graphical Class Hierarchy Pages: 1 -->
<svg width="529pt" height="28pt"
 viewBox="0.00 0.00 529.00 28.00" xmlns="http://www.w3.org/2000/svg" xmlns:xlink="http://www.w3.org/1999/xlink">
<g id="graph0" class="graph" transform="scale(1 1) rotate(0) translate(4 24)">
<title>Graphical Class Hierarchy</title>
<!-- Node1 -->
<g id="node1" class="node">
<title>Node1</title>
<g id="a_node1"><a xlink:href="classbeluga__amcl_1_1AmclNode.html" target="_top" xlink:title="2D AMCL as a ROS 2 composable lifecycle node.">
<polygon fill="none" stroke="black" points="0,-0.5 0,-19.5 135,-19.5 135,-0.5 0,-0.5"/>
<text text-anchor="middle" x="67.5" y="-7.5" font-family="Helvetica,sans-Serif" font-size="10.00">beluga_amcl::AmclNode</text>
</a>
</g>
</g>
<!-- Node0 -->
<g id="node2" class="node">
<title>Node0</title>
<g id="a_node2"><a xlink:href="classbeluga__amcl_1_1BaseAMCLNode.html" target="_top" xlink:title=" ">
<polygon fill="none" stroke="black" points="171,-0.5 171,-19.5 333,-19.5 333,-0.5 171,-0.5"/>
<text text-anchor="middle" x="252" y="-7.5" font-family="Helvetica,sans-Serif" font-size="10.00">beluga_amcl::BaseAMCLNode</text>
</a>
</g>
</g>
<!-- Node1&#45;&gt;Node0 -->
<g id="edge1" class="edge">
<title>Node1&#45;&gt;Node0</title>
<path fill="none" stroke="midnightblue" d="M145.35,-3.33C153.79,-3.24 162.4,-3.23 170.88,-3.29"/>
<polygon fill="midnightblue" stroke="midnightblue" points="145.11,0.17 135.16,-3.47 145.21,-6.83 145.11,0.17"/>
</g>
<!-- Node0&#45;&gt;Node1 -->
<g id="edge2" class="edge">
<title>Node0&#45;&gt;Node1</title>
<path fill="none" stroke="midnightblue" d="M160.77,-16.75C152.14,-16.76 143.5,-16.68 135.16,-16.53"/>
<polygon fill="midnightblue" stroke="midnightblue" points="160.89,-20.25 170.88,-16.71 160.86,-13.25 160.89,-20.25"/>
</g>
<!-- Node2 -->
<g id="node3" class="node">
<title>Node2</title>
<g id="a_node3"><a xlink:href="classbeluga__amcl_1_1NdtAmclNode.html" target="_top" xlink:title="2D NDT AMCL as a ROS 2 composable lifecycle node.">
<polygon fill="none" stroke="black" points="369,-0.5 369,-19.5 521,-19.5 521,-0.5 369,-0.5"/>
<text text-anchor="middle" x="445" y="-7.5" font-family="Helvetica,sans-Serif" font-size="10.00">beluga_amcl::NdtAmclNode</text>
</a>
</g>
</g>
<!-- Node0&#45;&gt;Node2 -->
<g id="edge3" class="edge">
<title>Node0&#45;&gt;Node2</title>
<path fill="none" stroke="midnightblue" d="M343.22,-10C351.82,-10 360.48,-10 368.91,-10"/>
<polygon fill="midnightblue" stroke="midnightblue" points="343.17,-6.5 333.17,-10 343.17,-13.5 343.17,-6.5"/>
</g>
</g>
</svg>
