<?xml version="1.0" encoding="UTF-8" standalone="no"?>
<!DOCTYPE svg PUBLIC "-//W3C//DTD SVG 1.1//EN"
 "http://www.w3.org/Graphics/SVG/1.1/DTD/svg11.dtd">
<!-- Generated by graphviz version 2.43.0 (0)
 -->
<!-- Title: Graphical Class Hierarchy Pages: 1 -->
<svg width="363pt" height="66pt"
 viewBox="0.00 0.00 363.00 66.00" xmlns="http://www.w3.org/2000/svg" xmlns:xlink="http://www.w3.org/1999/xlink">
<g id="graph0" class="graph" transform="scale(1 1) rotate(0) translate(4 62)">
<title>Graphical Class Hierarchy</title>
<!-- Node1 -->
<g id="node1" class="node">
<title>Node1</title>
<g id="a_node1"><a xlink:title=" ">
<polygon fill="none" stroke="#bfbfbf" points="0,-19.5 0,-38.5 167,-38.5 167,-19.5 0,-19.5"/>
<text text-anchor="middle" x="83.5" y="-26.5" font-family="Helvetica,sans-Serif" font-size="10.00">rclcpp_lifecycle::LifecycleNode</text>
</a>
</g>
</g>
<!-- Node0 -->
<g id="node2" class="node">
<title>Node0</title>
<g id="a_node2"><a xlink:href="classbeluga__amcl_1_1AmclNode.html" target="_top" xlink:title="2D AMCL as a ROS 2 composable lifecycle node.">
<polygon fill="none" stroke="black" points="211.5,-38.5 211.5,-57.5 346.5,-57.5 346.5,-38.5 211.5,-38.5"/>
<text text-anchor="middle" x="279" y="-45.5" font-family="Helvetica,sans-Serif" font-size="10.00">beluga_amcl::AmclNode</text>
</a>
</g>
</g>
<!-- Node1&#45;&gt;Node0 -->
<g id="edge1" class="edge">
<title>Node1&#45;&gt;Node0</title>
<path fill="none" stroke="midnightblue" d="M177.23,-38.11C188.77,-39.24 200.39,-40.38 211.43,-41.46"/>
<polygon fill="midnightblue" stroke="midnightblue" points="177.42,-34.61 167.12,-37.11 176.73,-41.57 177.42,-34.61"/>
</g>
<!-- Node3 -->
<g id="node3" class="node">
<title>Node3</title>
<g id="a_node3"><a xlink:href="classbeluga__amcl_1_1NdtAmclNode.html" target="_top" xlink:title="2D NDT AMCL as a ROS 2 composable lifecycle node.">
<polygon fill="none" stroke="black" points="203,-0.5 203,-19.5 355,-19.5 355,-0.5 203,-0.5"/>
<text text-anchor="middle" x="279" y="-7.5" font-family="Helvetica,sans-Serif" font-size="10.00">beluga_amcl::NdtAmclNode</text>
</a>
</g>
</g>
<!-- Node1&#45;&gt;Node3 -->
<g id="edge2" class="edge">
<title>Node1&#45;&gt;Node3</title>
<path fill="none" stroke="midnightblue" d="M177.14,-19.9C185.71,-19.06 194.32,-18.22 202.7,-17.39"/>
<polygon fill="midnightblue" stroke="midnightblue" points="176.73,-16.43 167.12,-20.89 177.42,-23.39 176.73,-16.43"/>
</g>
</g>
</svg>
