<?xml version="1.0" encoding="UTF-8" standalone="no"?>
<!DOCTYPE svg PUBLIC "-//W3C//DTD SVG 1.1//EN"
 "http://www.w3.org/Graphics/SVG/1.1/DTD/svg11.dtd">
<!-- Generated by graphviz version 2.43.0 (0)
 -->
<!-- Title: /home/runner/work/beluga/beluga/beluga_amcl/include/beluga_amcl/message_filters.hpp Pages: 1 -->
<svg width="581pt" height="128pt"
 viewBox="0.00 0.00 581.00 128.00" xmlns="http://www.w3.org/2000/svg" xmlns:xlink="http://www.w3.org/1999/xlink">
<g id="graph0" class="graph" transform="scale(1 1) rotate(0) translate(4 124)">
<title>/home/runner/work/beluga/beluga/beluga_amcl/include/beluga_amcl/message_filters.hpp</title>
<!-- Node1 -->
<g id="node1" class="node">
<title>Node1</title>
<g id="a_node1"><a xlink:title="Compatibility layer for message_filters.">
<polygon fill="#bfbfbf" stroke="black" points="176,-78.5 176,-119.5 359,-119.5 359,-78.5 176,-78.5"/>
<text text-anchor="start" x="184" y="-107.5" font-family="Helvetica,sans-Serif" font-size="10.00">/home/runner/work/beluga</text>
<text text-anchor="start" x="184" y="-96.5" font-family="Helvetica,sans-Serif" font-size="10.00">/beluga/beluga_amcl/include</text>
<text text-anchor="middle" x="267.5" y="-85.5" font-family="Helvetica,sans-Serif" font-size="10.00">/beluga_amcl/message_filters.hpp</text>
</a>
</g>
</g>
<!-- Node2 -->
<g id="node2" class="node">
<title>Node2</title>
<g id="a_node2"><a xlink:href="amcl__node_8hpp.html" target="_top" xlink:title="ROS 2 integration of the 2D AMCL algorithm.">
<polygon fill="none" stroke="black" points="0,-0.5 0,-41.5 159,-41.5 159,-0.5 0,-0.5"/>
<text text-anchor="start" x="8" y="-29.5" font-family="Helvetica,sans-Serif" font-size="10.00">/home/runner/work/beluga</text>
<text text-anchor="start" x="8" y="-18.5" font-family="Helvetica,sans-Serif" font-size="10.00">/beluga/beluga_amcl/include</text>
<text text-anchor="middle" x="79.5" y="-7.5" font-family="Helvetica,sans-Serif" font-size="10.00">/beluga_amcl/amcl_node.hpp</text>
</a>
</g>
</g>
<!-- Node1&#45;&gt;Node2 -->
<g id="edge1" class="edge">
<title>Node1&#45;&gt;Node2</title>
<path fill="none" stroke="midnightblue" d="M209.64,-74.61C183.4,-64 152.72,-51.6 127.75,-41.51"/>
<polygon fill="midnightblue" stroke="midnightblue" points="208.5,-77.93 219.09,-78.43 211.13,-71.44 208.5,-77.93"/>
</g>
<!-- Node3 -->
<g id="node3" class="node">
<title>Node3</title>
<g id="a_node3"><a xlink:href="ndt__amcl__node_8hpp.html" target="_top" xlink:title="ROS 2 integration of the 2D NDT&#45;AMCL algorithm.">
<polygon fill="none" stroke="black" points="177.5,-0.5 177.5,-41.5 357.5,-41.5 357.5,-0.5 177.5,-0.5"/>
<text text-anchor="start" x="185.5" y="-29.5" font-family="Helvetica,sans-Serif" font-size="10.00">/home/runner/work/beluga</text>
<text text-anchor="start" x="185.5" y="-18.5" font-family="Helvetica,sans-Serif" font-size="10.00">/beluga/beluga_amcl/include</text>
<text text-anchor="middle" x="267.5" y="-7.5" font-family="Helvetica,sans-Serif" font-size="10.00">/beluga_amcl/ndt_amcl_node.hpp</text>
</a>
</g>
</g>
<!-- Node1&#45;&gt;Node3 -->
<g id="edge2" class="edge">
<title>Node1&#45;&gt;Node3</title>
<path fill="none" stroke="midnightblue" d="M267.5,-68.3C267.5,-59.3 267.5,-49.65 267.5,-41.51"/>
<polygon fill="midnightblue" stroke="midnightblue" points="264,-68.43 267.5,-78.43 271,-68.43 264,-68.43"/>
</g>
<!-- Node4 -->
<g id="node4" class="node">
<title>Node4</title>
<g id="a_node4"><a xlink:href="ndt__amcl__node__3d_8hpp.html" target="_top" xlink:title="ROS 2 integration of the 3D NDT&#45;AMCL algorithm.">
<polygon fill="none" stroke="black" points="376,-0.5 376,-41.5 573,-41.5 573,-0.5 376,-0.5"/>
<text text-anchor="start" x="384" y="-29.5" font-family="Helvetica,sans-Serif" font-size="10.00">/home/runner/work/beluga</text>
<text text-anchor="start" x="384" y="-18.5" font-family="Helvetica,sans-Serif" font-size="10.00">/beluga/beluga_amcl/include</text>
<text text-anchor="middle" x="474.5" y="-7.5" font-family="Helvetica,sans-Serif" font-size="10.00">/beluga_amcl/ndt_amcl_node_3d.hpp</text>
</a>
</g>
</g>
<!-- Node1&#45;&gt;Node4 -->
<g id="edge3" class="edge">
<title>Node1&#45;&gt;Node4</title>
<path fill="none" stroke="midnightblue" d="M330.45,-74.89C359.51,-64.22 393.63,-51.69 421.37,-41.51"/>
<polygon fill="midnightblue" stroke="midnightblue" points="328.99,-71.7 320.81,-78.43 331.4,-78.27 328.99,-71.7"/>
</g>
</g>
</svg>
