<?xml version="1.0" encoding="UTF-8" standalone="no"?>
<!DOCTYPE svg PUBLIC "-//W3C//DTD SVG 1.1//EN"
 "http://www.w3.org/Graphics/SVG/1.1/DTD/svg11.dtd">
<!-- Generated by graphviz version 2.43.0 (0)
 -->
<!-- Title: /home/runner/work/beluga/beluga/beluga_amcl/include/beluga_amcl/ndt_amcl_node_3d.hpp Pages: 1 -->
<!--zoomable 184 -->
<svg id="main" version="1.1" xmlns="http://www.w3.org/2000/svg" xmlns:xlink="http://www.w3.org/1999/xlink" xml:space="preserve" onload="init(evt)">
<style type="text/css"><![CDATA[
.edge:hover path { stroke: red; }
.edge:hover polygon { stroke: red; fill: red; }
]]></style>
<script type="text/javascript"><![CDATA[
var edges = document.getElementsByTagName('g');
if (edges && edges.length) {
  for (var i=0;i<edges.length;i++) {
    if (edges[i].id.substr(0,4)=='edge') {
      edges[i].setAttribute('class','edge');
    }
  }
}
]]></script>
        <defs>
                <circle id="rim" cx="0" cy="0" r="7"/>
                <circle id="rim2" cx="0" cy="0" r="3.5"/>
                <g id="zoomPlus">
                        <use xlink:href="#rim" fill="#404040">
                                <set attributeName="fill" to="#808080" begin="zoomplus.mouseover" end="zoomplus.mouseout"/>
                        </use>
                        <path d="M-4,0h8M0,-4v8" fill="none" stroke="white" stroke-width="1.5" pointer-events="none"/>
                </g>
                <g id="zoomMin">
                        <use xlink:href="#rim" fill="#404040">
                                <set attributeName="fill" to="#808080" begin="zoomminus.mouseover" end="zoomminus.mouseout"/>
                        </use>
                        <path d="M-4,0h8" fill="none" stroke="white" stroke-width="1.5" pointer-events="none"/>
                </g>
                <g id="dirArrow">
                        <path fill="none" stroke="white" stroke-width="1.5" d="M0,-3.0v7 M-2.5,-0.5L0,-3.0L2.5,-0.5"/>
                </g>
               <g id="resetDef">
                       <use xlink:href="#rim2" fill="#404040">
                               <set attributeName="fill" to="#808080" begin="reset.mouseover" end="reset.mouseout"/>
                       </use>
               </g>
        </defs>

<script type="text/javascript">
var viewWidth = 3630;
var viewHeight = 184;
var sectionId = 'dynsection-0';
</script>
<script xlink:href="svgpan.js"/>
<svg id="graph" class="graph">
<g id="viewport">
<title>/home/runner/work/beluga/beluga/beluga_amcl/include/beluga_amcl/ndt_amcl_node_3d.hpp</title>
<!-- Node1 -->
<g id="node1" class="node">
<title>Node1</title>
<g id="a_node1"><a xlink:title="ROS 2 integration of the 3D NDT&#45;AMCL algorithm.">
<polygon fill="#bfbfbf" stroke="black" points="983.5,-134.5 983.5,-175.5 1180.5,-175.5 1180.5,-134.5 983.5,-134.5"/>
<text text-anchor="start" x="991.5" y="-163.5" font-family="Helvetica,sans-Serif" font-size="10.00">/home/runner/work/beluga</text>
<text text-anchor="start" x="991.5" y="-152.5" font-family="Helvetica,sans-Serif" font-size="10.00">/beluga/beluga_amcl/include</text>
<text text-anchor="middle" x="1082" y="-141.5" font-family="Helvetica,sans-Serif" font-size="10.00">/beluga_amcl/ndt_amcl_node_3d.hpp</text>
</a>
</g>
</g>
<!-- Node2 -->
<g id="node2" class="node">
<title>Node2</title>
<g id="a_node2"><a xlink:title=" ">
<polygon fill="none" stroke="#bfbfbf" points="0,-73 0,-92 90,-92 90,-73 0,-73"/>
<text text-anchor="middle" x="45" y="-80" font-family="Helvetica,sans-Serif" font-size="10.00">tf2_ros/buffer.h</text>
</a>
</g>
</g>
<!-- Node1&#45;&gt;Node2 -->
<g id="edge1" class="edge">
<title>Node1&#45;&gt;Node2</title>
<path fill="none" stroke="midnightblue" d="M983.28,-150.95C769.03,-143.92 267.13,-125.07 99,-98 93.55,-97.12 87.86,-95.92 82.29,-94.58"/>
<polygon fill="midnightblue" stroke="midnightblue" points="83.07,-91.16 72.51,-92.06 81.32,-97.94 83.07,-91.16"/>
</g>
<!-- Node3 -->
<g id="node3" class="node">
<title>Node3</title>
<g id="a_node3"><a xlink:title=" ">
<polygon fill="none" stroke="#bfbfbf" points="108,-73 108,-92 242,-92 242,-73 108,-73"/>
<text text-anchor="middle" x="175" y="-80" font-family="Helvetica,sans-Serif" font-size="10.00">tf2_ros/message_filter.h</text>
</a>
</g>
</g>
<!-- Node1&#45;&gt;Node3 -->
<g id="edge2" class="edge">
<title>Node1&#45;&gt;Node3</title>
<path fill="none" stroke="midnightblue" d="M983.45,-150.81C828.24,-144.99 517.6,-130.18 256,-98 246.84,-96.87 237.14,-95.39 227.76,-93.8"/>
<polygon fill="midnightblue" stroke="midnightblue" points="228.2,-90.33 217.75,-92.05 226.99,-97.22 228.2,-90.33"/>
</g>
<!-- Node4 -->
<g id="node4" class="node">
<title>Node4</title>
<g id="a_node4"><a xlink:title=" ">
<polygon fill="none" stroke="#bfbfbf" points="1549.5,-6 1549.5,-25 1722.5,-25 1722.5,-6 1549.5,-6"/>
<text text-anchor="middle" x="1636" y="-13" font-family="Helvetica,sans-Serif" font-size="10.00">tf2_ros/transform_broadcaster.h</text>
</a>
</g>
</g>
<!-- Node1&#45;&gt;Node4 -->
<g id="edge3" class="edge">
<title>Node1&#45;&gt;Node4</title>
<path fill="none" stroke="midnightblue" d="M1180.53,-148.15C1294.1,-140.31 1473.08,-124.25 1535,-98 1570.4,-82.99 1603.48,-51.79 1621.6,-32.64"/>
<polygon fill="midnightblue" stroke="midnightblue" points="1624.21,-34.98 1628.42,-25.26 1619.06,-30.23 1624.21,-34.98"/>
</g>
<!-- Node5 -->
<g id="node5" class="node">
<title>Node5</title>
<g id="a_node5"><a xlink:title=" ">
<polygon fill="none" stroke="#bfbfbf" points="1741,-6 1741,-25 1893,-25 1893,-6 1741,-6"/>
<text text-anchor="middle" x="1817" y="-13" font-family="Helvetica,sans-Serif" font-size="10.00">tf2_ros/transform_listener.h</text>
</a>
</g>
</g>
<!-- Node1&#45;&gt;Node5 -->
<g id="edge4" class="edge">
<title>Node1&#45;&gt;Node5</title>
<path fill="none" stroke="midnightblue" d="M1180.79,-154.85C1392.93,-155.63 1876.96,-151.47 1927,-98 1954.37,-68.76 1898.06,-42.71 1856.36,-28.31"/>
<polygon fill="midnightblue" stroke="midnightblue" points="1857.26,-24.92 1846.67,-25.08 1855.05,-31.56 1857.26,-24.92"/>
</g>
<!-- Node6 -->
<g id="node6" class="node">
<title>Node6</title>
<g id="a_node6"><a xlink:title=" ">
<polygon fill="none" stroke="#bfbfbf" points="336.5,-67.5 336.5,-97.5 463.5,-97.5 463.5,-67.5 336.5,-67.5"/>
<text text-anchor="start" x="344.5" y="-85.5" font-family="Helvetica,sans-Serif" font-size="10.00">beluga/algorithm/amcl</text>
<text text-anchor="middle" x="400" y="-74.5" font-family="Helvetica,sans-Serif" font-size="10.00">_core.hpp</text>
</a>
</g>
</g>
<!-- Node1&#45;&gt;Node6 -->
<g id="edge5" class="edge">
<title>Node1&#45;&gt;Node6</title>
<path fill="none" stroke="midnightblue" d="M983.27,-148.1C864.62,-140.3 659.4,-124.51 473.59,-97.98"/>
<polygon fill="midnightblue" stroke="midnightblue" points="474.03,-94.51 463.63,-96.55 473.03,-101.44 474.03,-94.51"/>
</g>
<!-- Node7 -->
<g id="node7" class="node">
<title>Node7</title>
<g id="a_node7"><a target="_parent" xlink:href="../../../../../../beluga/docs/_doxygen/generated/reference/html/beluga_8hpp.html.html" xlink:title=" ">
<polygon fill="none" stroke="black" points="481.5,-73 481.5,-92 588.5,-92 588.5,-73 481.5,-73"/>
<text text-anchor="middle" x="535" y="-80" font-family="Helvetica,sans-Serif" font-size="10.00">beluga/beluga.hpp</text>
</a>
</g>
</g>
<!-- Node1&#45;&gt;Node7 -->
<g id="edge6" class="edge">
<title>Node1&#45;&gt;Node7</title>
<path fill="none" stroke="midnightblue" d="M983.28,-145.81C885.15,-136.92 730.54,-120.85 598,-98 591.76,-96.92 585.21,-95.62 578.78,-94.23"/>
<polygon fill="midnightblue" stroke="midnightblue" points="579.39,-90.78 568.86,-92.02 577.86,-97.62 579.39,-90.78"/>
</g>
<!-- Node8 -->
<g id="node8" class="node">
<title>Node8</title>
<g id="a_node8"><a xlink:title=" ">
<polygon fill="none" stroke="#bfbfbf" points="1911,-6 1911,-25 1975,-25 1975,-6 1911,-6"/>
<text text-anchor="middle" x="1943" y="-13" font-family="Helvetica,sans-Serif" font-size="10.00">execution</text>
</a>
</g>
</g>
<!-- Node1&#45;&gt;Node8 -->
<g id="edge7" class="edge">
<title>Node1&#45;&gt;Node8</title>
<path fill="none" stroke="midnightblue" d="M1180.7,-151.16C1401.53,-144.34 1918.23,-125.49 1944,-98 1959.69,-81.26 1955.1,-53.02 1949.63,-34.57"/>
<polygon fill="midnightblue" stroke="midnightblue" points="1952.92,-33.39 1946.45,-25 1946.28,-35.59 1952.92,-33.39"/>
</g>
<!-- Node9 -->
<g id="node9" class="node">
<title>Node9</title>
<g id="a_node9"><a xlink:title=" ">
<polygon fill="none" stroke="#bfbfbf" points="751.5,-73 751.5,-92 816.5,-92 816.5,-73 751.5,-73"/>
<text text-anchor="middle" x="784" y="-80" font-family="Helvetica,sans-Serif" font-size="10.00">functional</text>
</a>
</g>
</g>
<!-- Node1&#45;&gt;Node9 -->
<g id="edge8" class="edge">
<title>Node1&#45;&gt;Node9</title>
<path fill="none" stroke="midnightblue" d="M983.48,-135.26C935.62,-125.44 877.46,-112.46 826,-98 823.05,-97.17 820,-96.25 816.96,-95.29"/>
<polygon fill="midnightblue" stroke="midnightblue" points="817.99,-91.94 807.39,-92.12 815.79,-98.58 817.99,-91.94"/>
</g>
<!-- Node10 -->
<g id="node10" class="node">
<title>Node10</title>
<g id="a_node10"><a xlink:title=" ">
<polygon fill="none" stroke="#bfbfbf" points="835,-73 835,-92 891,-92 891,-73 835,-73"/>
<text text-anchor="middle" x="863" y="-80" font-family="Helvetica,sans-Serif" font-size="10.00">optional</text>
</a>
</g>
</g>
<!-- Node1&#45;&gt;Node10 -->
<g id="edge9" class="edge">
<title>Node1&#45;&gt;Node10</title>
<path fill="none" stroke="midnightblue" d="M1014.19,-134.45C979.78,-124.2 937.45,-111.08 900,-98 897.88,-97.26 895.71,-96.48 893.52,-95.67"/>
<polygon fill="midnightblue" stroke="midnightblue" points="894.62,-92.34 884.03,-92.06 892.13,-98.88 894.62,-92.34"/>
</g>
<!-- Node11 -->
<g id="node11" class="node">
<title>Node11</title>
<g id="a_node11"><a xlink:title=" ">
<polygon fill="none" stroke="#bfbfbf" points="909,-73 909,-92 1011,-92 1011,-73 909,-73"/>
<text text-anchor="middle" x="960" y="-80" font-family="Helvetica,sans-Serif" font-size="10.00">sophus/types.hpp</text>
</a>
</g>
</g>
<!-- Node1&#45;&gt;Node11 -->
<g id="edge10" class="edge">
<title>Node1&#45;&gt;Node11</title>
<path fill="none" stroke="midnightblue" d="M1048.02,-134.36C1027.6,-122.57 1002.13,-107.85 983.85,-97.28"/>
<polygon fill="midnightblue" stroke="midnightblue" points="985.42,-94.15 975.01,-92.17 981.92,-100.21 985.42,-94.15"/>
</g>
<!-- Node12 -->
<g id="node12" class="node">
<title>Node12</title>
<g id="a_node12"><a xlink:title=" ">
<polygon fill="none" stroke="#bfbfbf" points="1029.5,-73 1029.5,-92 1070.5,-92 1070.5,-73 1029.5,-73"/>
<text text-anchor="middle" x="1050" y="-80" font-family="Helvetica,sans-Serif" font-size="10.00">tuple</text>
</a>
</g>
</g>
<!-- Node1&#45;&gt;Node12 -->
<g id="edge11" class="edge">
<title>Node1&#45;&gt;Node12</title>
<path fill="none" stroke="midnightblue" d="M1073.09,-134.36C1068.42,-124.08 1062.75,-111.58 1058.19,-101.54"/>
<polygon fill="midnightblue" stroke="midnightblue" points="1061.26,-99.83 1053.94,-92.17 1054.88,-102.73 1061.26,-99.83"/>
</g>
<!-- Node13 -->
<g id="node13" class="node">
<title>Node13</title>
<g id="a_node13"><a xlink:title=" ">
<polygon fill="none" stroke="#bfbfbf" points="1088.5,-73 1088.5,-92 1139.5,-92 1139.5,-73 1088.5,-73"/>
<text text-anchor="middle" x="1114" y="-80" font-family="Helvetica,sans-Serif" font-size="10.00">variant</text>
</a>
</g>
</g>
<!-- Node1&#45;&gt;Node13 -->
<g id="edge12" class="edge">
<title>Node1&#45;&gt;Node13</title>
<path fill="none" stroke="midnightblue" d="M1090.91,-134.36C1095.58,-124.08 1101.25,-111.58 1105.81,-101.54"/>
<polygon fill="midnightblue" stroke="midnightblue" points="1109.12,-102.73 1110.06,-92.17 1102.74,-99.83 1109.12,-102.73"/>
</g>
<!-- Node14 -->
<g id="node14" class="node">
<title>Node14</title>
<g id="a_node14"><a xlink:title=" ">
<polygon fill="none" stroke="#bfbfbf" points="1158,-67.5 1158,-97.5 1304,-97.5 1304,-67.5 1158,-67.5"/>
<text text-anchor="start" x="1166" y="-85.5" font-family="Helvetica,sans-Serif" font-size="10.00">geometry_msgs/msg/pose</text>
<text text-anchor="middle" x="1231" y="-74.5" font-family="Helvetica,sans-Serif" font-size="10.00">_array.hpp</text>
</a>
</g>
</g>
<!-- Node1&#45;&gt;Node14 -->
<g id="edge13" class="edge">
<title>Node1&#45;&gt;Node14</title>
<path fill="none" stroke="midnightblue" d="M1123.5,-134.36C1144.86,-124.26 1170.75,-112.01 1191.77,-102.06"/>
<polygon fill="midnightblue" stroke="midnightblue" points="1193.51,-105.11 1201.05,-97.67 1190.52,-98.78 1193.51,-105.11"/>
</g>
<!-- Node15 -->
<g id="node15" class="node">
<title>Node15</title>
<g id="a_node15"><a xlink:title=" ">
<polygon fill="none" stroke="#bfbfbf" points="1322,-67.5 1322,-97.5 1492,-97.5 1492,-67.5 1322,-67.5"/>
<text text-anchor="start" x="1330" y="-85.5" font-family="Helvetica,sans-Serif" font-size="10.00">geometry_msgs/msg/pose</text>
<text text-anchor="middle" x="1407" y="-74.5" font-family="Helvetica,sans-Serif" font-size="10.00">_with_covariance_stamped.hpp</text>
</a>
</g>
</g>
<!-- Node1&#45;&gt;Node15 -->
<g id="edge14" class="edge">
<title>Node1&#45;&gt;Node15</title>
<path fill="none" stroke="midnightblue" d="M1172.1,-134.46C1222.52,-123.52 1284.63,-110.04 1332.32,-99.7"/>
<polygon fill="midnightblue" stroke="midnightblue" points="1333.24,-103.08 1342.27,-97.54 1331.75,-96.24 1333.24,-103.08"/>
</g>
<!-- Node16 -->
<g id="node16" class="node">
<title>Node16</title>
<g id="a_node16"><a xlink:title=" ">
<polygon fill="none" stroke="#bfbfbf" points="1394.5,-0.5 1394.5,-30.5 1531.5,-30.5 1531.5,-0.5 1394.5,-0.5"/>
<text text-anchor="start" x="1402.5" y="-18.5" font-family="Helvetica,sans-Serif" font-size="10.00">rclcpp_lifecycle/lifecycle</text>
<text text-anchor="middle" x="1463" y="-7.5" font-family="Helvetica,sans-Serif" font-size="10.00">_node.hpp</text>
</a>
</g>
</g>
<!-- Node1&#45;&gt;Node16 -->
<g id="edge15" class="edge">
<title>Node1&#45;&gt;Node16</title>
<path fill="none" stroke="midnightblue" d="M1180.53,-148.13C1302.25,-139.86 1496.06,-122.94 1518,-98 1535,-78.68 1512.91,-53.86 1491.87,-36.71"/>
<polygon fill="midnightblue" stroke="midnightblue" points="1493.98,-33.92 1483.94,-30.54 1489.68,-39.44 1493.98,-33.92"/>
</g>
<!-- Node17 -->
<g id="node17" class="node">
<title>Node17</title>
<g id="a_node17"><a xlink:title=" ">
<polygon fill="none" stroke="#bfbfbf" points="319.5,-0.5 319.5,-30.5 450.5,-30.5 450.5,-0.5 319.5,-0.5"/>
<text text-anchor="start" x="327.5" y="-18.5" font-family="Helvetica,sans-Serif" font-size="10.00">sensor_msgs/msg/laser</text>
<text text-anchor="middle" x="385" y="-7.5" font-family="Helvetica,sans-Serif" font-size="10.00">_scan.hpp</text>
</a>
</g>
</g>
<!-- Node1&#45;&gt;Node17 -->
<g id="edge16" class="edge">
<title>Node1&#45;&gt;Node17</title>
<path fill="none" stroke="midnightblue" d="M983.33,-154.09C786.79,-153.24 361.45,-145.83 317,-98 298.06,-77.63 325.1,-52.95 350.47,-36.12"/>
<polygon fill="midnightblue" stroke="midnightblue" points="352.39,-39.05 358.95,-30.73 348.63,-33.14 352.39,-39.05"/>
</g>
<!-- Node18 -->
<g id="node18" class="node">
<title>Node18</title>
<g id="a_node18"><a xlink:title=" ">
<polygon fill="none" stroke="#bfbfbf" points="510,-0.5 510,-30.5 642,-30.5 642,-0.5 510,-0.5"/>
<text text-anchor="start" x="518" y="-18.5" font-family="Helvetica,sans-Serif" font-size="10.00">sensor_msgs/msg/point</text>
<text text-anchor="middle" x="576" y="-7.5" font-family="Helvetica,sans-Serif" font-size="10.00">_cloud2.hpp</text>
</a>
</g>
</g>
<!-- Node1&#45;&gt;Node18 -->
<g id="edge17" class="edge">
<title>Node1&#45;&gt;Node18</title>
<path fill="none" stroke="midnightblue" d="M983.5,-153.99C789.04,-152.93 370.77,-145.13 327,-98 317.62,-87.9 318.28,-77.67 327,-67 338.06,-53.47 430.83,-37.34 499.91,-27.02"/>
<polygon fill="midnightblue" stroke="midnightblue" points="500.54,-30.46 509.92,-25.54 499.52,-23.54 500.54,-30.46"/>
</g>
<!-- Node19 -->
<g id="node19" class="node">
<title>Node19</title>
<g id="a_node19"><a xlink:title=" ">
<polygon fill="none" stroke="#bfbfbf" points="1624.5,-73 1624.5,-92 1753.5,-92 1753.5,-73 1624.5,-73"/>
<text text-anchor="middle" x="1689" y="-80" font-family="Helvetica,sans-Serif" font-size="10.00">std_srvs/srv/empty.hpp</text>
</a>
</g>
</g>
<!-- Node1&#45;&gt;Node19 -->
<g id="edge18" class="edge">
<title>Node1&#45;&gt;Node19</title>
<path fill="none" stroke="midnightblue" d="M1180.56,-145.8C1286.83,-136.43 1460.84,-119.57 1610,-98 1618.33,-96.8 1627.13,-95.35 1635.71,-93.85"/>
<polygon fill="midnightblue" stroke="midnightblue" points="1636.41,-97.28 1645.63,-92.07 1635.17,-90.39 1636.41,-97.28"/>
</g>
<!-- Node20 -->
<g id="node20" class="node">
<title>Node20</title>
<g id="a_node20"><a target="_parent" xlink:href="../../../../../../beluga_ros/docs/_doxygen/generated/reference/html/laser__scan_8hpp.html.html" xlink:title=" ">
<polygon fill="none" stroke="black" points="1772,-73 1772,-92 1918,-92 1918,-73 1772,-73"/>
<text text-anchor="middle" x="1845" y="-80" font-family="Helvetica,sans-Serif" font-size="10.00">beluga_ros/laser_scan.hpp</text>
</a>
</g>
</g>
<!-- Node1&#45;&gt;Node20 -->
<g id="edge19" class="edge">
<title>Node1&#45;&gt;Node20</title>
<path fill="none" stroke="midnightblue" d="M1180.7,-148.77C1313.44,-141.08 1556.67,-124.67 1763,-98 1772.16,-96.82 1781.86,-95.32 1791.25,-93.74"/>
<polygon fill="midnightblue" stroke="midnightblue" points="1792.03,-97.16 1801.28,-92.01 1790.83,-90.26 1792.03,-97.16"/>
</g>
<!-- Node21 -->
<g id="node21" class="node">
<title>Node21</title>
<g id="a_node21"><a xlink:href="message__filters_8hpp.html" target="_top" xlink:title="Compatibility layer for message_filters.">
<polygon fill="none" stroke="black" points="607,-67.5 607,-97.5 733,-97.5 733,-67.5 607,-67.5"/>
<text text-anchor="start" x="615" y="-85.5" font-family="Helvetica,sans-Serif" font-size="10.00">beluga_amcl/message</text>
<text text-anchor="middle" x="670" y="-74.5" font-family="Helvetica,sans-Serif" font-size="10.00">_filters.hpp</text>
</a>
</g>
</g>
<!-- Node1&#45;&gt;Node21 -->
<g id="edge20" class="edge">
<title>Node1&#45;&gt;Node21</title>
<path fill="none" stroke="midnightblue" d="M983.21,-138.55C918.02,-128.14 830.48,-113.79 743.35,-98.03"/>
<polygon fill="midnightblue" stroke="midnightblue" points="743.75,-94.54 733.28,-96.2 742.5,-101.43 743.75,-94.54"/>
</g>
<!-- Node22 -->
<g id="node22" class="node">
<title>Node22</title>
<g id="a_node22"><a xlink:title=" ">
<polygon fill="none" stroke="#bfbfbf" points="680.5,-6 680.5,-25 847.5,-25 847.5,-6 680.5,-6"/>
<text text-anchor="middle" x="764" y="-13" font-family="Helvetica,sans-Serif" font-size="10.00">message_filters/subscriber.hpp</text>
</a>
</g>
</g>
<!-- Node1&#45;&gt;Node22 -->
<g id="edge43" class="edge">
<title>Node1&#45;&gt;Node22</title>
<path fill="none" stroke="midnightblue" d="M1180.51,-147.58C1297.69,-138.91 1480.19,-121.78 1501,-98 1510.07,-87.63 1510.4,-77.07 1501,-67 1458,-20.95 1046.75,-15.84 857.94,-15.95"/>
<polygon fill="midnightblue" stroke="midnightblue" points="857.74,-12.45 847.74,-15.96 857.75,-19.45 857.74,-12.45"/>
</g>
<!-- Node23 -->
<g id="node23" class="node">
<title>Node23</title>
<g id="a_node23"><a xlink:href="ros2__common_8hpp_source.html" target="_top" xlink:title=" ">
<polygon fill="none" stroke="black" points="2397,-73 2397,-92 2569,-92 2569,-73 2397,-73"/>
<text text-anchor="middle" x="2483" y="-80" font-family="Helvetica,sans-Serif" font-size="10.00">beluga_amcl/ros2_common.hpp</text>
</a>
</g>
</g>
<!-- Node1&#45;&gt;Node23 -->
<g id="edge25" class="edge">
<title>Node1&#45;&gt;Node23</title>
<path fill="none" stroke="midnightblue" d="M1180.52,-149.04C1438.51,-136.06 2131.55,-101.19 2386.85,-88.34"/>
<polygon fill="midnightblue" stroke="midnightblue" points="2387.04,-91.83 2396.85,-87.84 2386.69,-84.84 2387.04,-91.83"/>
</g>
<!-- Node21&#45;&gt;Node16 -->
<g id="edge22" class="edge">
<title>Node21&#45;&gt;Node16</title>
<path fill="none" stroke="midnightblue" d="M733.23,-68.43C736.53,-67.91 739.8,-67.43 743,-67 974.95,-35.95 1251.67,-23.33 1384.38,-18.77"/>
<polygon fill="midnightblue" stroke="midnightblue" points="1384.58,-22.27 1394.46,-18.43 1384.35,-15.27 1384.58,-22.27"/>
</g>
<!-- Node21&#45;&gt;Node17 -->
<g id="edge23" class="edge">
<title>Node21&#45;&gt;Node17</title>
<path fill="none" stroke="midnightblue" d="M608.51,-67.48C563.9,-57.3 503.43,-43.51 456.64,-32.84"/>
<polygon fill="midnightblue" stroke="midnightblue" points="457.4,-29.42 446.87,-30.61 455.84,-36.25 457.4,-29.42"/>
</g>
<!-- Node21&#45;&gt;Node18 -->
<g id="edge24" class="edge">
<title>Node21&#45;&gt;Node18</title>
<path fill="none" stroke="midnightblue" d="M649.6,-67.4C636.55,-58.37 619.4,-46.51 604.95,-36.52"/>
<polygon fill="midnightblue" stroke="midnightblue" points="606.57,-33.39 596.36,-30.58 602.59,-39.14 606.57,-33.39"/>
</g>
<!-- Node21&#45;&gt;Node22 -->
<g id="edge21" class="edge">
<title>Node21&#45;&gt;Node22</title>
<path fill="none" stroke="midnightblue" d="M690.4,-67.4C706.01,-56.6 727.48,-41.76 743.19,-30.89"/>
<polygon fill="midnightblue" stroke="midnightblue" points="745.46,-33.57 751.7,-25.01 741.48,-27.82 745.46,-33.57"/>
</g>
<!-- Node23&#45;&gt;Node4 -->
<g id="edge38" class="edge">
<title>Node23&#45;&gt;Node4</title>
<path fill="none" stroke="midnightblue" d="M2396.92,-78.03C2257.12,-71.88 1972.17,-57.17 1732,-31 1720.72,-29.77 1708.74,-28.19 1697.21,-26.52"/>
<polygon fill="midnightblue" stroke="midnightblue" points="1697.62,-23.04 1687.21,-25.04 1696.59,-29.97 1697.62,-23.04"/>
</g>
<!-- Node23&#45;&gt;Node5 -->
<g id="edge39" class="edge">
<title>Node23&#45;&gt;Node5</title>
<path fill="none" stroke="midnightblue" d="M2396.63,-76.22C2282.94,-68.76 2076.99,-53.49 1902,-31 1892.52,-29.78 1882.49,-28.27 1872.76,-26.69"/>
<polygon fill="midnightblue" stroke="midnightblue" points="1873.21,-23.21 1862.77,-25.02 1872.06,-30.12 1873.21,-23.21"/>
</g>
<!-- Node23&#45;&gt;Node8 -->
<g id="edge26" class="edge">
<title>Node23&#45;&gt;Node8</title>
<path fill="none" stroke="midnightblue" d="M2396.8,-79.02C2296.53,-74.7 2126.53,-62.93 1984,-31 1980.58,-30.23 1977.05,-29.27 1973.57,-28.2"/>
<polygon fill="midnightblue" stroke="midnightblue" points="1974.59,-24.85 1964,-25.01 1972.38,-31.49 1974.59,-24.85"/>
</g>
<!-- Node23&#45;&gt;Node16 -->
<g id="edge28" class="edge">
<title>Node23&#45;&gt;Node16</title>
<path fill="none" stroke="midnightblue" d="M2396.96,-80.63C2232.59,-78.15 1862.55,-68.62 1541.78,-30.98"/>
<polygon fill="midnightblue" stroke="midnightblue" points="1542.17,-27.5 1531.83,-29.8 1541.35,-34.45 1542.17,-27.5"/>
</g>
<!-- Node24 -->
<g id="node24" class="node">
<title>Node24</title>
<g id="a_node24"><a xlink:title=" ">
<polygon fill="none" stroke="#bfbfbf" points="2494.5,-6 2494.5,-25 2629.5,-25 2629.5,-6 2494.5,-6"/>
<text text-anchor="middle" x="2562" y="-13" font-family="Helvetica,sans-Serif" font-size="10.00">rclcpp/node_options.hpp</text>
</a>
</g>
</g>
<!-- Node23&#45;&gt;Node24 -->
<g id="edge27" class="edge">
<title>Node23&#45;&gt;Node24</title>
<path fill="none" stroke="midnightblue" d="M2493.65,-72.73C2506.45,-62.21 2528.12,-44.38 2543.63,-31.62"/>
<polygon fill="midnightblue" stroke="midnightblue" points="2546.02,-34.18 2551.51,-25.13 2541.57,-28.78 2546.02,-34.18"/>
</g>
<!-- Node25 -->
<g id="node25" class="node">
<title>Node25</title>
<g id="a_node25"><a xlink:title=" ">
<polygon fill="none" stroke="#bfbfbf" points="2647.5,-6 2647.5,-25 2788.5,-25 2788.5,-6 2647.5,-6"/>
<text text-anchor="middle" x="2718" y="-13" font-family="Helvetica,sans-Serif" font-size="10.00">rclcpp_lifecycle/state.hpp</text>
</a>
</g>
</g>
<!-- Node23&#45;&gt;Node25 -->
<g id="edge29" class="edge">
<title>Node23&#45;&gt;Node25</title>
<path fill="none" stroke="midnightblue" d="M2514.21,-72.87C2556.2,-61.25 2630.96,-40.58 2677.32,-27.75"/>
<polygon fill="midnightblue" stroke="midnightblue" points="2678.33,-31.1 2687.04,-25.06 2676.47,-24.36 2678.33,-31.1"/>
</g>
<!-- Node26 -->
<g id="node26" class="node">
<title>Node26</title>
<g id="a_node26"><a xlink:title=" ">
<polygon fill="none" stroke="#bfbfbf" points="2807,-6 2807,-25 2851,-25 2851,-6 2807,-6"/>
<text text-anchor="middle" x="2829" y="-13" font-family="Helvetica,sans-Serif" font-size="10.00">string</text>
</a>
</g>
</g>
<!-- Node23&#45;&gt;Node26 -->
<g id="edge30" class="edge">
<title>Node23&#45;&gt;Node26</title>
<path fill="none" stroke="midnightblue" d="M2569.03,-74.23C2633.19,-67.26 2722.43,-54.23 2798,-31 2799.87,-30.42 2801.78,-29.76 2803.68,-29.03"/>
<polygon fill="midnightblue" stroke="midnightblue" points="2805.12,-32.22 2812.93,-25.05 2802.36,-25.79 2805.12,-32.22"/>
</g>
<!-- Node27 -->
<g id="node27" class="node">
<title>Node27</title>
<g id="a_node27"><a xlink:title=" ">
<polygon fill="none" stroke="#bfbfbf" points="2869.5,-6 2869.5,-25 2942.5,-25 2942.5,-6 2869.5,-6"/>
<text text-anchor="middle" x="2906" y="-13" font-family="Helvetica,sans-Serif" font-size="10.00">string_view</text>
</a>
</g>
</g>
<!-- Node23&#45;&gt;Node27 -->
<g id="edge31" class="edge">
<title>Node23&#45;&gt;Node27</title>
<path fill="none" stroke="midnightblue" d="M2569.09,-74.23C2645.98,-66.72 2761.38,-52.98 2860,-31 2863.84,-30.14 2867.83,-29.11 2871.77,-28"/>
<polygon fill="midnightblue" stroke="midnightblue" points="2872.81,-31.34 2881.38,-25.12 2870.8,-24.64 2872.81,-31.34"/>
</g>
<!-- Node28 -->
<g id="node28" class="node">
<title>Node28</title>
<g id="a_node28"><a xlink:title=" ">
<polygon fill="none" stroke="#bfbfbf" points="2961,-6 2961,-25 3067,-25 3067,-6 2961,-6"/>
<text text-anchor="middle" x="3014" y="-13" font-family="Helvetica,sans-Serif" font-size="10.00">bondcpp/bond.hpp</text>
</a>
</g>
</g>
<!-- Node23&#45;&gt;Node28 -->
<g id="edge32" class="edge">
<title>Node23&#45;&gt;Node28</title>
<path fill="none" stroke="midnightblue" d="M2569.02,-75.42C2663.41,-68 2819.19,-53.59 2952,-31 2958.22,-29.94 2964.75,-28.63 2971.14,-27.24"/>
<polygon fill="midnightblue" stroke="midnightblue" points="2972.03,-30.63 2981.01,-25.01 2970.48,-23.8 2972.03,-30.63"/>
</g>
<!-- Node29 -->
<g id="node29" class="node">
<title>Node29</title>
<g id="a_node29"><a xlink:title=" ">
<polygon fill="none" stroke="#bfbfbf" points="3085,-0.5 3085,-30.5 3231,-30.5 3231,-0.5 3085,-0.5"/>
<text text-anchor="start" x="3093" y="-18.5" font-family="Helvetica,sans-Serif" font-size="10.00">geometry_msgs/msg/pose</text>
<text text-anchor="middle" x="3158" y="-7.5" font-family="Helvetica,sans-Serif" font-size="10.00">_stamped.hpp</text>
</a>
</g>
</g>
<!-- Node23&#45;&gt;Node29 -->
<g id="edge33" class="edge">
<title>Node23&#45;&gt;Node29</title>
<path fill="none" stroke="midnightblue" d="M2569.19,-76.6C2682.8,-69.6 2889.04,-55 3074.78,-31.09"/>
<polygon fill="midnightblue" stroke="midnightblue" points="3075.27,-34.55 3084.73,-29.79 3074.37,-27.61 3075.27,-34.55"/>
</g>
<!-- Node30 -->
<g id="node30" class="node">
<title>Node30</title>
<g id="a_node30"><a xlink:title=" ">
<polygon fill="none" stroke="#bfbfbf" points="3249.5,-0.5 3249.5,-30.5 3394.5,-30.5 3394.5,-0.5 3249.5,-0.5"/>
<text text-anchor="start" x="3257.5" y="-18.5" font-family="Helvetica,sans-Serif" font-size="10.00">nav_msgs/msg/occupancy</text>
<text text-anchor="middle" x="3322" y="-7.5" font-family="Helvetica,sans-Serif" font-size="10.00">_grid.hpp</text>
</a>
</g>
</g>
<!-- Node23&#45;&gt;Node30 -->
<g id="edge34" class="edge">
<title>Node23&#45;&gt;Node30</title>
<path fill="none" stroke="midnightblue" d="M2569.28,-78.79C2708.25,-73.75 2990.37,-60.74 3239.23,-31"/>
<polygon fill="midnightblue" stroke="midnightblue" points="3239.67,-34.47 3249.18,-29.8 3238.84,-27.52 3239.67,-34.47"/>
</g>
<!-- Node31 -->
<g id="node31" class="node">
<title>Node31</title>
<g id="a_node31"><a xlink:title=" ">
<polygon fill="none" stroke="#bfbfbf" points="3412.5,-6 3412.5,-25 3511.5,-25 3511.5,-6 3412.5,-6"/>
<text text-anchor="middle" x="3462" y="-13" font-family="Helvetica,sans-Serif" font-size="10.00">rclcpp/rclcpp.hpp</text>
</a>
</g>
</g>
<!-- Node23&#45;&gt;Node31 -->
<g id="edge35" class="edge">
<title>Node23&#45;&gt;Node31</title>
<path fill="none" stroke="midnightblue" d="M2569.26,-82.22C2732.98,-82.38 3099.59,-76.97 3404,-31 3409.98,-30.1 3416.25,-28.85 3422.36,-27.47"/>
<polygon fill="midnightblue" stroke="midnightblue" points="3423.51,-30.79 3432.42,-25.05 3421.87,-23.99 3423.51,-30.79"/>
</g>
<!-- Node32 -->
<g id="node32" class="node">
<title>Node32</title>
<g id="a_node32"><a xlink:title=" ">
<polygon fill="none" stroke="#bfbfbf" points="3530,-6 3530,-25 3622,-25 3622,-6 3530,-6"/>
<text text-anchor="middle" x="3576" y="-13" font-family="Helvetica,sans-Serif" font-size="10.00">rclcpp/time.hpp</text>
</a>
</g>
</g>
<!-- Node23&#45;&gt;Node32 -->
<g id="edge36" class="edge">
<title>Node23&#45;&gt;Node32</title>
<path fill="none" stroke="midnightblue" d="M2569.2,-79.63C2783.92,-74.59 3338.46,-59.19 3521,-31 3526.61,-30.13 3532.48,-28.92 3538.2,-27.57"/>
<polygon fill="midnightblue" stroke="midnightblue" points="3539.43,-30.87 3548.26,-25.02 3537.71,-24.09 3539.43,-30.87"/>
</g>
<!-- Node33 -->
<g id="node33" class="node">
<title>Node33</title>
<g id="a_node33"><a xlink:title=" ">
<polygon fill="none" stroke="#bfbfbf" points="1993,-0.5 1993,-30.5 2109,-30.5 2109,-0.5 1993,-0.5"/>
<text text-anchor="start" x="2001" y="-18.5" font-family="Helvetica,sans-Serif" font-size="10.00">tf2_ros/create_timer</text>
<text text-anchor="middle" x="2051" y="-7.5" font-family="Helvetica,sans-Serif" font-size="10.00">_ros.h</text>
</a>
</g>
</g>
<!-- Node23&#45;&gt;Node33 -->
<g id="edge37" class="edge">
<title>Node23&#45;&gt;Node33</title>
<path fill="none" stroke="midnightblue" d="M2410.24,-72.98C2338.82,-64.25 2226.59,-49.59 2119.22,-30.95"/>
<polygon fill="midnightblue" stroke="midnightblue" points="2119.64,-27.47 2109.18,-29.2 2118.43,-34.37 2119.64,-27.47"/>
</g>
<!-- Node34 -->
<g id="node34" class="node">
<title>Node34</title>
<g id="a_node34"><a xlink:title=" ">
<polygon fill="none" stroke="#bfbfbf" points="2127.5,-6 2127.5,-25 2218.5,-25 2218.5,-6 2127.5,-6"/>
<text text-anchor="middle" x="2173" y="-13" font-family="Helvetica,sans-Serif" font-size="10.00">tf2/convert.hpp</text>
</a>
</g>
</g>
<!-- Node23&#45;&gt;Node34 -->
<g id="edge40" class="edge">
<title>Node23&#45;&gt;Node34</title>
<path fill="none" stroke="midnightblue" d="M2435.34,-72.98C2383.98,-63.58 2299.9,-47.58 2228,-31 2223.37,-29.93 2218.54,-28.75 2213.75,-27.55"/>
<polygon fill="midnightblue" stroke="midnightblue" points="2214.6,-24.15 2204.04,-25.04 2212.85,-30.93 2214.6,-24.15"/>
</g>
<!-- Node35 -->
<g id="node35" class="node">
<title>Node35</title>
<g id="a_node35"><a xlink:title=" ">
<polygon fill="none" stroke="#bfbfbf" points="2236.5,-6 2236.5,-25 2311.5,-25 2311.5,-6 2236.5,-6"/>
<text text-anchor="middle" x="2274" y="-13" font-family="Helvetica,sans-Serif" font-size="10.00">tf2/utils.hpp</text>
</a>
</g>
</g>
<!-- Node23&#45;&gt;Node35 -->
<g id="edge41" class="edge">
<title>Node23&#45;&gt;Node35</title>
<path fill="none" stroke="midnightblue" d="M2455.25,-72.87C2418.21,-61.35 2352.53,-40.92 2311.22,-28.08"/>
<polygon fill="midnightblue" stroke="midnightblue" points="2312.12,-24.69 2301.54,-25.06 2310.04,-31.38 2312.12,-24.69"/>
</g>
<!-- Node36 -->
<g id="node36" class="node">
<title>Node36</title>
<g id="a_node36"><a target="_parent" xlink:href="../../../../../../beluga_ros/docs/_doxygen/generated/reference/html/tf2__sophus_8hpp.html.html" xlink:title=" ">
<polygon fill="none" stroke="black" points="2329.5,-6 2329.5,-25 2476.5,-25 2476.5,-6 2329.5,-6"/>
<text text-anchor="middle" x="2403" y="-13" font-family="Helvetica,sans-Serif" font-size="10.00">beluga_ros/tf2_sophus.hpp</text>
</a>
</g>
</g>
<!-- Node23&#45;&gt;Node36 -->
<g id="edge42" class="edge">
<title>Node23&#45;&gt;Node36</title>
<path fill="none" stroke="midnightblue" d="M2472.21,-72.73C2459.26,-62.21 2437.31,-44.38 2421.61,-31.62"/>
<polygon fill="midnightblue" stroke="midnightblue" points="2423.59,-28.72 2413.62,-25.13 2419.17,-34.15 2423.59,-28.72"/>
</g>
</g>
</svg>
        <g id="navigator" transform="translate(0 0)" fill="#404254">
                <rect fill="#f2f5e9" fill-opacity="0.5" stroke="#606060" stroke-width=".5" x="0" y="0" width="60" height="60"/>
                <use id="zoomplus" xlink:href="#zoomPlus" x="17" y="9" onmousedown="handleZoom(evt,'in')"/>
                <use id="zoomminus" xlink:href="#zoomMin" x="42" y="9" onmousedown="handleZoom(evt,'out')"/>
                <use id="reset" xlink:href="#resetDef" x="30" y="36" onmousedown="handleReset()"/>
                <g id="arrowUp" xlink:href="#dirArrow" transform="translate(30 24)" onmousedown="handlePan(0,-1)">
                  <use xlink:href="#rim" fill="#404040">
                        <set attributeName="fill" to="#808080" begin="arrowUp.mouseover" end="arrowUp.mouseout"/>
                  </use>
                  <path fill="none" stroke="white" stroke-width="1.5" d="M0,-3.0v7 M-2.5,-0.5L0,-3.0L2.5,-0.5"/>
                </g>
                <g id="arrowRight" xlink:href="#dirArrow" transform="rotate(90) translate(36 -43)" onmousedown="handlePan(1,0)">
                  <use xlink:href="#rim" fill="#404040">
                        <set attributeName="fill" to="#808080" begin="arrowRight.mouseover" end="arrowRight.mouseout"/>
                  </use>
                  <path fill="none" stroke="white" stroke-width="1.5" d="M0,-3.0v7 M-2.5,-0.5L0,-3.0L2.5,-0.5"/>
                </g>
                <g id="arrowDown" xlink:href="#dirArrow" transform="rotate(180) translate(-30 -48)" onmousedown="handlePan(0,1)">
                  <use xlink:href="#rim" fill="#404040">
                        <set attributeName="fill" to="#808080" begin="arrowDown.mouseover" end="arrowDown.mouseout"/>
                  </use>
                  <path fill="none" stroke="white" stroke-width="1.5" d="M0,-3.0v7 M-2.5,-0.5L0,-3.0L2.5,-0.5"/>
                </g>
                <g id="arrowLeft" xlink:href="#dirArrow" transform="rotate(270) translate(-36 17)" onmousedown="handlePan(-1,0)">
                  <use xlink:href="#rim" fill="#404040">
                        <set attributeName="fill" to="#808080" begin="arrowLeft.mouseover" end="arrowLeft.mouseout"/>
                  </use>
                  <path fill="none" stroke="white" stroke-width="1.5" d="M0,-3.0v7 M-2.5,-0.5L0,-3.0L2.5,-0.5"/>
                </g>
        </g>
        <svg viewBox="0 0 15 15" width="100%" height="30px" preserveAspectRatio="xMaxYMin meet">
         <g id="arrow_out" transform="scale(0.3 0.3)">
          <a xlink:href="ndt__amcl__node__3d_8hpp__incl_org.svg" target="_base">
           <rect id="button" ry="5" rx="5" y="6" x="6" height="38" width="38"
                fill="#f2f5e9" fill-opacity="0.5" stroke="#606060" stroke-width="1.0"/>
           <path id="arrow"
             d="M 11.500037,31.436501 C 11.940474,20.09759 22.043105,11.32322 32.158766,21.979434 L 37.068811,17.246167 C 37.068811,17.246167 37.088388,32 37.088388,32 L 22.160133,31.978069 C 22.160133,31.978069 26.997745,27.140456 26.997745,27.140456 C 18.528582,18.264221 13.291696,25.230495 11.500037,31.436501 z"
             style="fill:#404040;"/>
          </a>
         </g>
        </svg>
</svg>
