<?xml version="1.0" encoding="UTF-8" standalone="no"?>
<!DOCTYPE svg PUBLIC "-//W3C//DTD SVG 1.1//EN"
 "http://www.w3.org/Graphics/SVG/1.1/DTD/svg11.dtd">
<!-- Generated by graphviz version 2.43.0 (0)
 -->
<!-- Title: /home/runner/work/beluga/beluga/beluga_amcl/include/beluga_amcl/ndt_amcl_node.hpp Pages: 1 -->
<svg width="4164pt" height="184pt"
 viewBox="0.00 0.00 4163.50 184.00" xmlns="http://www.w3.org/2000/svg" xmlns:xlink="http://www.w3.org/1999/xlink">
<g id="graph0" class="graph" transform="scale(1 1) rotate(0) translate(4 180)">
<title>/home/runner/work/beluga/beluga/beluga_amcl/include/beluga_amcl/ndt_amcl_node.hpp</title>
<!-- Node1 -->
<g id="node1" class="node">
<title>Node1</title>
<g id="a_node1"><a xlink:title="ROS 2 integration of the 2D NDT&#45;AMCL algorithm.">
<polygon fill="#bfbfbf" stroke="black" points="2014.5,-134.5 2014.5,-175.5 2194.5,-175.5 2194.5,-134.5 2014.5,-134.5"/>
<text text-anchor="start" x="2022.5" y="-163.5" font-family="Helvetica,sans-Serif" font-size="10.00">/home/runner/work/beluga</text>
<text text-anchor="start" x="2022.5" y="-152.5" font-family="Helvetica,sans-Serif" font-size="10.00">/beluga/beluga_amcl/include</text>
<text text-anchor="middle" x="2104.5" y="-141.5" font-family="Helvetica,sans-Serif" font-size="10.00">/beluga_amcl/ndt_amcl_node.hpp</text>
</a>
</g>
</g>
<!-- Node2 -->
<g id="node2" class="node">
<title>Node2</title>
<g id="a_node2"><a xlink:title=" ">
<polygon fill="none" stroke="#bfbfbf" points="168.5,-73 168.5,-92 270.5,-92 270.5,-73 168.5,-73"/>
<text text-anchor="middle" x="219.5" y="-80" font-family="Helvetica,sans-Serif" font-size="10.00">tf2_ros/buffer.hpp</text>
</a>
</g>
</g>
<!-- Node1&#45;&gt;Node2 -->
<g id="edge1" class="edge">
<title>Node1&#45;&gt;Node2</title>
<path fill="none" stroke="midnightblue" d="M2014.35,-153.7C1695.27,-152.23 620.45,-143.93 279.5,-98 273.02,-97.13 266.22,-95.85 259.62,-94.4"/>
<polygon fill="midnightblue" stroke="midnightblue" points="260.02,-90.9 249.49,-92.03 258.43,-97.72 260.02,-90.9"/>
</g>
<!-- Node3 -->
<g id="node3" class="node">
<title>Node3</title>
<g id="a_node3"><a xlink:title=" ">
<polygon fill="none" stroke="#bfbfbf" points="288.5,-73 288.5,-92 434.5,-92 434.5,-73 288.5,-73"/>
<text text-anchor="middle" x="361.5" y="-80" font-family="Helvetica,sans-Serif" font-size="10.00">tf2_ros/message_filter.hpp</text>
</a>
</g>
</g>
<!-- Node1&#45;&gt;Node3 -->
<g id="edge2" class="edge">
<title>Node1&#45;&gt;Node3</title>
<path fill="none" stroke="midnightblue" d="M2014.35,-152.51C1715.1,-147.34 756.21,-128.71 448.5,-98 437.88,-96.94 426.59,-95.38 415.78,-93.68"/>
<polygon fill="midnightblue" stroke="midnightblue" points="416.04,-90.17 405.61,-92.01 414.91,-97.08 416.04,-90.17"/>
</g>
<!-- Node4 -->
<g id="node4" class="node">
<title>Node4</title>
<g id="a_node4"><a xlink:title=" ">
<polygon fill="none" stroke="#bfbfbf" points="640,-6 640,-25 825,-25 825,-6 640,-6"/>
<text text-anchor="middle" x="732.5" y="-13" font-family="Helvetica,sans-Serif" font-size="10.00">tf2_ros/transform_broadcaster.hpp</text>
</a>
</g>
</g>
<!-- Node1&#45;&gt;Node4 -->
<g id="edge3" class="edge">
<title>Node1&#45;&gt;Node4</title>
<path fill="none" stroke="midnightblue" d="M2014.38,-151.88C1790.61,-146.21 1214.08,-128.98 1024.5,-98 928.86,-82.37 819.73,-47.06 766,-28.47"/>
<polygon fill="midnightblue" stroke="midnightblue" points="766.92,-25.08 756.32,-25.09 764.61,-31.69 766.92,-25.08"/>
</g>
<!-- Node5 -->
<g id="node5" class="node">
<title>Node5</title>
<g id="a_node5"><a xlink:title=" ">
<polygon fill="none" stroke="#bfbfbf" points="843.5,-6 843.5,-25 1007.5,-25 1007.5,-6 843.5,-6"/>
<text text-anchor="middle" x="925.5" y="-13" font-family="Helvetica,sans-Serif" font-size="10.00">tf2_ros/transform_listener.hpp</text>
</a>
</g>
</g>
<!-- Node1&#45;&gt;Node5 -->
<g id="edge4" class="edge">
<title>Node1&#45;&gt;Node5</title>
<path fill="none" stroke="midnightblue" d="M2014.21,-152.95C1803.25,-149.83 1283.06,-138.19 1113.5,-98 1051.49,-83.3 984.2,-49.26 949.39,-30.15"/>
<polygon fill="midnightblue" stroke="midnightblue" points="950.9,-26.99 940.46,-25.18 947.5,-33.1 950.9,-26.99"/>
</g>
<!-- Node6 -->
<g id="node6" class="node">
<title>Node6</title>
<g id="a_node6"><a target="_parent" xlink:href="../../../../../../beluga/docs/_doxygen/generated/reference/html/beluga_8hpp.html.html" xlink:title=" ">
<polygon fill="none" stroke="black" points="1413,-73 1413,-92 1520,-92 1520,-73 1413,-73"/>
<text text-anchor="middle" x="1466.5" y="-80" font-family="Helvetica,sans-Serif" font-size="10.00">beluga/beluga.hpp</text>
</a>
</g>
</g>
<!-- Node1&#45;&gt;Node6 -->
<g id="edge5" class="edge">
<title>Node1&#45;&gt;Node6</title>
<path fill="none" stroke="midnightblue" d="M2014.4,-148.84C1900.8,-141.5 1699.76,-125.77 1529.5,-98 1523.18,-96.97 1516.54,-95.68 1510.04,-94.29"/>
<polygon fill="midnightblue" stroke="midnightblue" points="1510.54,-90.81 1500.02,-92.06 1509.02,-97.65 1510.54,-90.81"/>
</g>
<!-- Node7 -->
<g id="node7" class="node">
<title>Node7</title>
<g id="a_node7"><a target="_parent" xlink:href="../../../../../../beluga/docs/_doxygen/generated/reference/html/differential__drive__model_8hpp.html.html" xlink:title=" ">
<polygon fill="none" stroke="black" points="1538,-67.5 1538,-97.5 1681,-97.5 1681,-67.5 1538,-67.5"/>
<text text-anchor="start" x="1546" y="-85.5" font-family="Helvetica,sans-Serif" font-size="10.00">beluga/motion/differential</text>
<text text-anchor="middle" x="1609.5" y="-74.5" font-family="Helvetica,sans-Serif" font-size="10.00">_drive_model.hpp</text>
</a>
</g>
</g>
<!-- Node1&#45;&gt;Node7 -->
<g id="edge6" class="edge">
<title>Node1&#45;&gt;Node7</title>
<path fill="none" stroke="midnightblue" d="M2014.29,-142.92C1932.61,-132.64 1808.74,-116.39 1690.94,-98.03"/>
<polygon fill="midnightblue" stroke="midnightblue" points="1691.45,-94.56 1681.03,-96.47 1690.36,-101.48 1691.45,-94.56"/>
</g>
<!-- Node8 -->
<g id="node8" class="node">
<title>Node8</title>
<g id="a_node8"><a target="_parent" xlink:href="../../../../../../beluga/docs/_doxygen/generated/reference/html/omnidirectional__drive__model_8hpp.html.html" xlink:title=" ">
<polygon fill="none" stroke="black" points="1699,-67.5 1699,-97.5 1866,-97.5 1866,-67.5 1699,-67.5"/>
<text text-anchor="start" x="1707" y="-85.5" font-family="Helvetica,sans-Serif" font-size="10.00">beluga/motion/omnidirectional</text>
<text text-anchor="middle" x="1782.5" y="-74.5" font-family="Helvetica,sans-Serif" font-size="10.00">_drive_model.hpp</text>
</a>
</g>
</g>
<!-- Node1&#45;&gt;Node8 -->
<g id="edge7" class="edge">
<title>Node1&#45;&gt;Node8</title>
<path fill="none" stroke="midnightblue" d="M2015.23,-134.46C1965.28,-123.52 1903.74,-110.04 1856.49,-99.7"/>
<polygon fill="midnightblue" stroke="midnightblue" points="1857.15,-96.26 1846.63,-97.54 1855.65,-103.1 1857.15,-96.26"/>
</g>
<!-- Node9 -->
<g id="node9" class="node">
<title>Node9</title>
<g id="a_node9"><a target="_parent" xlink:href="../../../../../../beluga/docs/_doxygen/generated/reference/html/stationary__model_8hpp.html.html" xlink:title=" ">
<polygon fill="none" stroke="black" points="1884.5,-67.5 1884.5,-97.5 2024.5,-97.5 2024.5,-67.5 1884.5,-67.5"/>
<text text-anchor="start" x="1892.5" y="-85.5" font-family="Helvetica,sans-Serif" font-size="10.00">beluga/motion/stationary</text>
<text text-anchor="middle" x="1954.5" y="-74.5" font-family="Helvetica,sans-Serif" font-size="10.00">_model.hpp</text>
</a>
</g>
</g>
<!-- Node1&#45;&gt;Node9 -->
<g id="edge8" class="edge">
<title>Node1&#45;&gt;Node9</title>
<path fill="none" stroke="midnightblue" d="M2062.72,-134.36C2041.12,-124.21 2014.92,-111.9 1993.71,-101.93"/>
<polygon fill="midnightblue" stroke="midnightblue" points="1995.19,-98.76 1984.65,-97.67 1992.21,-105.09 1995.19,-98.76"/>
</g>
<!-- Node10 -->
<g id="node10" class="node">
<title>Node10</title>
<g id="a_node10"><a target="_parent" xlink:href="../../../../../../beluga/docs/_doxygen/generated/reference/html/primitives_8hpp.html.html" xlink:title=" ">
<polygon fill="none" stroke="black" points="2043,-73 2043,-92 2166,-92 2166,-73 2043,-73"/>
<text text-anchor="middle" x="2104.5" y="-80" font-family="Helvetica,sans-Serif" font-size="10.00">beluga/primitives.hpp</text>
</a>
</g>
</g>
<!-- Node1&#45;&gt;Node10 -->
<g id="edge9" class="edge">
<title>Node1&#45;&gt;Node10</title>
<path fill="none" stroke="midnightblue" d="M2104.5,-134.36C2104.5,-124.3 2104.5,-112.1 2104.5,-102.18"/>
<polygon fill="midnightblue" stroke="midnightblue" points="2108,-102.17 2104.5,-92.17 2101,-102.17 2108,-102.17"/>
</g>
<!-- Node11 -->
<g id="node11" class="node">
<title>Node11</title>
<g id="a_node11"><a xlink:title=" ">
<polygon fill="none" stroke="#bfbfbf" points="2184.5,-67.5 2184.5,-97.5 2294.5,-97.5 2294.5,-67.5 2184.5,-67.5"/>
<text text-anchor="start" x="2192.5" y="-85.5" font-family="Helvetica,sans-Serif" font-size="10.00">beluga/sensor/data</text>
<text text-anchor="middle" x="2239.5" y="-74.5" font-family="Helvetica,sans-Serif" font-size="10.00">/ndt_cell.hpp</text>
</a>
</g>
</g>
<!-- Node1&#45;&gt;Node11 -->
<g id="edge10" class="edge">
<title>Node1&#45;&gt;Node11</title>
<path fill="none" stroke="midnightblue" d="M2142.11,-134.36C2161.28,-124.35 2184.49,-112.23 2203.44,-102.33"/>
<polygon fill="midnightblue" stroke="midnightblue" points="2205.12,-105.4 2212.37,-97.67 2201.88,-99.2 2205.12,-105.4"/>
</g>
<!-- Node12 -->
<g id="node12" class="node">
<title>Node12</title>
<g id="a_node12"><a target="_parent" xlink:href="../../../../../../beluga/docs/_doxygen/generated/reference/html/sparse__value__grid_8hpp.html.html" xlink:title=" ">
<polygon fill="none" stroke="black" points="2313,-67.5 2313,-97.5 2442,-97.5 2442,-67.5 2313,-67.5"/>
<text text-anchor="start" x="2321" y="-85.5" font-family="Helvetica,sans-Serif" font-size="10.00">beluga/sensor/data</text>
<text text-anchor="middle" x="2377.5" y="-74.5" font-family="Helvetica,sans-Serif" font-size="10.00">/sparse_value_grid.hpp</text>
</a>
</g>
</g>
<!-- Node1&#45;&gt;Node12 -->
<g id="edge11" class="edge">
<title>Node1&#45;&gt;Node12</title>
<path fill="none" stroke="midnightblue" d="M2180.18,-134.46C2221.93,-123.67 2273.22,-110.43 2313.05,-100.14"/>
<polygon fill="midnightblue" stroke="midnightblue" points="2314.11,-103.49 2322.91,-97.6 2312.35,-96.71 2314.11,-103.49"/>
</g>
<!-- Node13 -->
<g id="node13" class="node">
<title>Node13</title>
<g id="a_node13"><a xlink:title=" ">
<polygon fill="none" stroke="#bfbfbf" points="2460,-67.5 2460,-97.5 2601,-97.5 2601,-67.5 2460,-67.5"/>
<text text-anchor="start" x="2468" y="-85.5" font-family="Helvetica,sans-Serif" font-size="10.00">beluga/sensor/ndt_sensor</text>
<text text-anchor="middle" x="2530.5" y="-74.5" font-family="Helvetica,sans-Serif" font-size="10.00">_model.hpp</text>
</a>
</g>
</g>
<!-- Node1&#45;&gt;Node13 -->
<g id="edge12" class="edge">
<title>Node1&#45;&gt;Node13</title>
<path fill="none" stroke="midnightblue" d="M2194.82,-139.97C2262.44,-129.34 2357.49,-114.13 2449.8,-98.27"/>
<polygon fill="midnightblue" stroke="midnightblue" points="2450.62,-101.69 2459.88,-96.54 2449.43,-94.79 2450.62,-101.69"/>
</g>
<!-- Node14 -->
<g id="node14" class="node">
<title>Node14</title>
<g id="a_node14"><a xlink:title=" ">
<polygon fill="none" stroke="#bfbfbf" points="1025.5,-6 1025.5,-25 1089.5,-25 1089.5,-6 1025.5,-6"/>
<text text-anchor="middle" x="1057.5" y="-13" font-family="Helvetica,sans-Serif" font-size="10.00">execution</text>
</a>
</g>
</g>
<!-- Node1&#45;&gt;Node14 -->
<g id="edge13" class="edge">
<title>Node1&#45;&gt;Node14</title>
<path fill="none" stroke="midnightblue" d="M2014.45,-154.85C1811.87,-155.74 1325.98,-152 1172.5,-98 1132.56,-83.95 1094.07,-51.66 1073.32,-32.21"/>
<polygon fill="midnightblue" stroke="midnightblue" points="1075.67,-29.61 1066.03,-25.21 1070.82,-34.66 1075.67,-29.61"/>
</g>
<!-- Node15 -->
<g id="node15" class="node">
<title>Node15</title>
<g id="a_node15"><a xlink:title=" ">
<polygon fill="none" stroke="#bfbfbf" points="2619,-73 2619,-92 2684,-92 2684,-73 2619,-73"/>
<text text-anchor="middle" x="2651.5" y="-80" font-family="Helvetica,sans-Serif" font-size="10.00">functional</text>
</a>
</g>
</g>
<!-- Node1&#45;&gt;Node15 -->
<g id="edge14" class="edge">
<title>Node1&#45;&gt;Node15</title>
<path fill="none" stroke="midnightblue" d="M2194.66,-150.27C2296.67,-144.61 2467.27,-130.79 2610.5,-98 2613.74,-97.26 2617.07,-96.34 2620.38,-95.34"/>
<polygon fill="midnightblue" stroke="midnightblue" points="2621.68,-98.59 2630.07,-92.12 2619.48,-91.95 2621.68,-98.59"/>
</g>
<!-- Node16 -->
<g id="node16" class="node">
<title>Node16</title>
<g id="a_node16"><a xlink:title=" ">
<polygon fill="none" stroke="#bfbfbf" points="2702.5,-73 2702.5,-92 2758.5,-92 2758.5,-73 2702.5,-73"/>
<text text-anchor="middle" x="2730.5" y="-80" font-family="Helvetica,sans-Serif" font-size="10.00">optional</text>
</a>
</g>
</g>
<!-- Node1&#45;&gt;Node16 -->
<g id="edge15" class="edge">
<title>Node1&#45;&gt;Node16</title>
<path fill="none" stroke="midnightblue" d="M2194.57,-153.18C2311.23,-150.37 2520.15,-139.35 2693.5,-98 2696.33,-97.32 2699.23,-96.48 2702.11,-95.54"/>
<polygon fill="midnightblue" stroke="midnightblue" points="2703.43,-98.78 2711.62,-92.07 2701.03,-92.2 2703.43,-98.78"/>
</g>
<!-- Node17 -->
<g id="node17" class="node">
<title>Node17</title>
<g id="a_node17"><a xlink:title=" ">
<polygon fill="none" stroke="#bfbfbf" points="2777,-73 2777,-92 2920,-92 2920,-73 2777,-73"/>
<text text-anchor="middle" x="2848.5" y="-80" font-family="Helvetica,sans-Serif" font-size="10.00">rclcpp/callback_group.hpp</text>
</a>
</g>
</g>
<!-- Node1&#45;&gt;Node17 -->
<g id="edge16" class="edge">
<title>Node1&#45;&gt;Node17</title>
<path fill="none" stroke="midnightblue" d="M2194.6,-149.05C2322.4,-141.43 2563.5,-124.82 2767.5,-98 2776.35,-96.84 2785.71,-95.38 2794.79,-93.84"/>
<polygon fill="midnightblue" stroke="midnightblue" points="2795.65,-97.24 2804.9,-92.07 2794.44,-90.34 2795.65,-97.24"/>
</g>
<!-- Node18 -->
<g id="node18" class="node">
<title>Node18</title>
<g id="a_node18"><a xlink:title=" ">
<polygon fill="none" stroke="#bfbfbf" points="2938.5,-67.5 2938.5,-97.5 3046.5,-97.5 3046.5,-67.5 2938.5,-67.5"/>
<text text-anchor="start" x="2946.5" y="-85.5" font-family="Helvetica,sans-Serif" font-size="10.00">rclcpp/subscription</text>
<text text-anchor="middle" x="2992.5" y="-74.5" font-family="Helvetica,sans-Serif" font-size="10.00">_options.hpp</text>
</a>
</g>
</g>
<!-- Node1&#45;&gt;Node18 -->
<g id="edge17" class="edge">
<title>Node1&#45;&gt;Node18</title>
<path fill="none" stroke="midnightblue" d="M2194.73,-152.54C2345.13,-149.09 2656.57,-137.55 2928.25,-98.03"/>
<polygon fill="midnightblue" stroke="midnightblue" points="2928.92,-101.46 2938.31,-96.55 2927.9,-94.54 2928.92,-101.46"/>
</g>
<!-- Node19 -->
<g id="node19" class="node">
<title>Node19</title>
<g id="a_node19"><a xlink:title=" ">
<polygon fill="none" stroke="#bfbfbf" points="3064.5,-73 3064.5,-92 3156.5,-92 3156.5,-73 3064.5,-73"/>
<text text-anchor="middle" x="3110.5" y="-80" font-family="Helvetica,sans-Serif" font-size="10.00">sophus/se2.hpp</text>
</a>
</g>
</g>
<!-- Node1&#45;&gt;Node19 -->
<g id="edge18" class="edge">
<title>Node1&#45;&gt;Node19</title>
<path fill="none" stroke="midnightblue" d="M2194.63,-154.64C2364.27,-154.52 2742.13,-148.02 3055.5,-98 3061.05,-97.11 3066.84,-95.91 3072.5,-94.56"/>
<polygon fill="midnightblue" stroke="midnightblue" points="3073.63,-97.89 3082.47,-92.04 3071.91,-91.1 3073.63,-97.89"/>
</g>
<!-- Node20 -->
<g id="node20" class="node">
<title>Node20</title>
<g id="a_node20"><a xlink:title=" ">
<polygon fill="none" stroke="#bfbfbf" points="3175,-73 3175,-92 3216,-92 3216,-73 3175,-73"/>
<text text-anchor="middle" x="3195.5" y="-80" font-family="Helvetica,sans-Serif" font-size="10.00">tuple</text>
</a>
</g>
</g>
<!-- Node1&#45;&gt;Node20 -->
<g id="edge19" class="edge">
<title>Node1&#45;&gt;Node20</title>
<path fill="none" stroke="midnightblue" d="M2194.67,-153.81C2416.34,-152.6 2983.05,-144.88 3165.5,-98 3167.43,-97.5 3169.39,-96.88 3171.33,-96.17"/>
<polygon fill="midnightblue" stroke="midnightblue" points="3172.91,-99.29 3180.69,-92.1 3170.12,-92.88 3172.91,-99.29"/>
</g>
<!-- Node21 -->
<g id="node21" class="node">
<title>Node21</title>
<g id="a_node21"><a xlink:title=" ">
<polygon fill="none" stroke="#bfbfbf" points="3234,-73 3234,-92 3285,-92 3285,-73 3234,-73"/>
<text text-anchor="middle" x="3259.5" y="-80" font-family="Helvetica,sans-Serif" font-size="10.00">variant</text>
</a>
</g>
</g>
<!-- Node1&#45;&gt;Node21 -->
<g id="edge20" class="edge">
<title>Node1&#45;&gt;Node21</title>
<path fill="none" stroke="midnightblue" d="M2194.54,-153.58C2424.7,-151.85 3030.16,-143.02 3225.5,-98 3228.02,-97.42 3230.58,-96.66 3233.12,-95.8"/>
<polygon fill="midnightblue" stroke="midnightblue" points="3234.56,-99 3242.6,-92.1 3232.01,-92.48 3234.56,-99"/>
</g>
<!-- Node22 -->
<g id="node22" class="node">
<title>Node22</title>
<g id="a_node22"><a xlink:title=" ">
<polygon fill="none" stroke="#bfbfbf" points="3303.5,-73 3303.5,-92 3433.5,-92 3433.5,-73 3303.5,-73"/>
<text text-anchor="middle" x="3368.5" y="-80" font-family="Helvetica,sans-Serif" font-size="10.00">Eigen/src/Core/Matrix.h</text>
</a>
</g>
</g>
<!-- Node1&#45;&gt;Node22 -->
<g id="edge21" class="edge">
<title>Node1&#45;&gt;Node22</title>
<path fill="none" stroke="midnightblue" d="M2194.82,-154.25C2394.09,-153.82 2886.15,-147.35 3294.5,-98 3303,-96.97 3311.99,-95.52 3320.66,-93.94"/>
<polygon fill="midnightblue" stroke="midnightblue" points="3321.48,-97.34 3330.64,-92.02 3320.16,-90.47 3321.48,-97.34"/>
</g>
<!-- Node23 -->
<g id="node23" class="node">
<title>Node23</title>
<g id="a_node23"><a xlink:title=" ">
<polygon fill="none" stroke="#bfbfbf" points="3451.5,-73 3451.5,-92 3509.5,-92 3509.5,-73 3451.5,-73"/>
<text text-anchor="middle" x="3480.5" y="-80" font-family="Helvetica,sans-Serif" font-size="10.00">H5Cpp.h</text>
</a>
</g>
</g>
<!-- Node1&#45;&gt;Node23 -->
<g id="edge22" class="edge">
<title>Node1&#45;&gt;Node23</title>
<path fill="none" stroke="midnightblue" d="M2194.95,-154C2455.33,-153.39 3203.26,-147.29 3442.5,-98 3445.58,-97.37 3448.74,-96.51 3451.86,-95.54"/>
<polygon fill="midnightblue" stroke="midnightblue" points="3453.27,-98.75 3461.53,-92.11 3450.93,-92.15 3453.27,-98.75"/>
</g>
<!-- Node24 -->
<g id="node24" class="node">
<title>Node24</title>
<g id="a_node24"><a xlink:title=" ">
<polygon fill="none" stroke="#bfbfbf" points="3528,-67.5 3528,-97.5 3655,-97.5 3655,-67.5 3528,-67.5"/>
<text text-anchor="start" x="3536" y="-85.5" font-family="Helvetica,sans-Serif" font-size="10.00">beluga/algorithm/amcl</text>
<text text-anchor="middle" x="3591.5" y="-74.5" font-family="Helvetica,sans-Serif" font-size="10.00">_core.hpp</text>
</a>
</g>
</g>
<!-- Node1&#45;&gt;Node24 -->
<g id="edge23" class="edge">
<title>Node1&#45;&gt;Node24</title>
<path fill="none" stroke="midnightblue" d="M2194.91,-152.27C2461.31,-146.89 3241.29,-128.97 3517.87,-97.9"/>
<polygon fill="midnightblue" stroke="midnightblue" points="3518.36,-101.37 3527.89,-96.74 3517.56,-94.41 3518.36,-101.37"/>
</g>
<!-- Node25 -->
<g id="node25" class="node">
<title>Node25</title>
<g id="a_node25"><a xlink:title=" ">
<polygon fill="none" stroke="#bfbfbf" points="1107.5,-6 1107.5,-25 1213.5,-25 1213.5,-6 1107.5,-6"/>
<text text-anchor="middle" x="1160.5" y="-13" font-family="Helvetica,sans-Serif" font-size="10.00">bondcpp/bond.hpp</text>
</a>
</g>
</g>
<!-- Node1&#45;&gt;Node25 -->
<g id="edge24" class="edge">
<title>Node1&#45;&gt;Node25</title>
<path fill="none" stroke="midnightblue" d="M2014.29,-153.4C1799.24,-151.27 1269.29,-141.62 1202.5,-98 1180.56,-83.67 1169.47,-54.07 1164.35,-34.77"/>
<polygon fill="midnightblue" stroke="midnightblue" points="1167.75,-33.94 1162.04,-25.02 1160.94,-35.56 1167.75,-33.94"/>
</g>
<!-- Node26 -->
<g id="node26" class="node">
<title>Node26</title>
<g id="a_node26"><a xlink:title=" ">
<polygon fill="none" stroke="#bfbfbf" points="1231.5,-0.5 1231.5,-30.5 1377.5,-30.5 1377.5,-0.5 1231.5,-0.5"/>
<text text-anchor="start" x="1239.5" y="-18.5" font-family="Helvetica,sans-Serif" font-size="10.00">geometry_msgs/msg/pose</text>
<text text-anchor="middle" x="1304.5" y="-7.5" font-family="Helvetica,sans-Serif" font-size="10.00">_array.hpp</text>
</a>
</g>
</g>
<!-- Node1&#45;&gt;Node26 -->
<g id="edge25" class="edge">
<title>Node1&#45;&gt;Node26</title>
<path fill="none" stroke="midnightblue" d="M2014.12,-151.62C1792.98,-145.36 1240.62,-126.88 1213.5,-98 1191.67,-74.75 1226.88,-50.7 1259.65,-34.8"/>
<polygon fill="midnightblue" stroke="midnightblue" points="1261.2,-37.95 1268.78,-30.55 1258.24,-31.6 1261.2,-37.95"/>
</g>
<!-- Node27 -->
<g id="node27" class="node">
<title>Node27</title>
<g id="a_node27"><a xlink:title=" ">
<polygon fill="none" stroke="#bfbfbf" points="3673.5,-67.5 3673.5,-97.5 3843.5,-97.5 3843.5,-67.5 3673.5,-67.5"/>
<text text-anchor="start" x="3681.5" y="-85.5" font-family="Helvetica,sans-Serif" font-size="10.00">geometry_msgs/msg/pose</text>
<text text-anchor="middle" x="3758.5" y="-74.5" font-family="Helvetica,sans-Serif" font-size="10.00">_with_covariance_stamped.hpp</text>
</a>
</g>
</g>
<!-- Node1&#45;&gt;Node27 -->
<g id="edge26" class="edge">
<title>Node1&#45;&gt;Node27</title>
<path fill="none" stroke="midnightblue" d="M2194.86,-154.45C2433.35,-154.84 3099.5,-150.81 3662.88,-98.07"/>
<polygon fill="midnightblue" stroke="midnightblue" points="3663.62,-101.52 3673.25,-97.1 3662.96,-94.55 3663.62,-101.52"/>
</g>
<!-- Node28 -->
<g id="node28" class="node">
<title>Node28</title>
<g id="a_node28"><a xlink:title=" ">
<polygon fill="none" stroke="#bfbfbf" points="485,-0.5 485,-30.5 622,-30.5 622,-0.5 485,-0.5"/>
<text text-anchor="start" x="493" y="-18.5" font-family="Helvetica,sans-Serif" font-size="10.00">rclcpp_lifecycle/lifecycle</text>
<text text-anchor="middle" x="553.5" y="-7.5" font-family="Helvetica,sans-Serif" font-size="10.00">_node.hpp</text>
</a>
</g>
</g>
<!-- Node1&#45;&gt;Node28 -->
<g id="edge27" class="edge">
<title>Node1&#45;&gt;Node28</title>
<path fill="none" stroke="midnightblue" d="M2014.06,-152.07C1770.99,-146.53 1107.34,-128.93 890.5,-98 837.96,-90.51 697.91,-54.67 615.83,-33.09"/>
<polygon fill="midnightblue" stroke="midnightblue" points="616.68,-29.69 606.12,-30.53 614.9,-36.46 616.68,-29.69"/>
</g>
<!-- Node29 -->
<g id="node29" class="node">
<title>Node29</title>
<g id="a_node29"><a xlink:title=" ">
<polygon fill="none" stroke="#bfbfbf" points="0,-0.5 0,-30.5 131,-30.5 131,-0.5 0,-0.5"/>
<text text-anchor="start" x="8" y="-18.5" font-family="Helvetica,sans-Serif" font-size="10.00">sensor_msgs/msg/laser</text>
<text text-anchor="middle" x="65.5" y="-7.5" font-family="Helvetica,sans-Serif" font-size="10.00">_scan.hpp</text>
</a>
</g>
</g>
<!-- Node1&#45;&gt;Node29 -->
<g id="edge28" class="edge">
<title>Node1&#45;&gt;Node29</title>
<path fill="none" stroke="midnightblue" d="M2014.33,-154.24C1694.36,-154.64 624.89,-151.87 481.5,-98 461.1,-90.33 463.56,-75.51 443.5,-67 321.58,-15.27 276.61,-50.16 141.21,-30.98"/>
<polygon fill="midnightblue" stroke="midnightblue" points="141.71,-27.51 131.3,-29.5 140.68,-34.44 141.71,-27.51"/>
</g>
<!-- Node30 -->
<g id="node30" class="node">
<title>Node30</title>
<g id="a_node30"><a xlink:title=" ">
<polygon fill="none" stroke="#bfbfbf" points="3862,-73 3862,-92 3991,-92 3991,-73 3862,-73"/>
<text text-anchor="middle" x="3926.5" y="-80" font-family="Helvetica,sans-Serif" font-size="10.00">std_srvs/srv/empty.hpp</text>
</a>
</g>
</g>
<!-- Node1&#45;&gt;Node30 -->
<g id="edge29" class="edge">
<title>Node1&#45;&gt;Node30</title>
<path fill="none" stroke="midnightblue" d="M2194.52,-153.04C2504.48,-149.42 3526.38,-134.93 3852.5,-98 3861.1,-97.03 3870.2,-95.59 3878.96,-93.99"/>
<polygon fill="midnightblue" stroke="midnightblue" points="3879.87,-97.38 3889.04,-92.06 3878.56,-90.5 3879.87,-97.38"/>
</g>
<!-- Node31 -->
<g id="node31" class="node">
<title>Node31</title>
<g id="a_node31"><a target="_parent" xlink:href="../../../../../../beluga_ros/docs/_doxygen/generated/reference/html/laser__scan_8hpp.html.html" xlink:title=" ">
<polygon fill="none" stroke="black" points="4009.5,-73 4009.5,-92 4155.5,-92 4155.5,-73 4009.5,-73"/>
<text text-anchor="middle" x="4082.5" y="-80" font-family="Helvetica,sans-Serif" font-size="10.00">beluga_ros/laser_scan.hpp</text>
</a>
</g>
</g>
<!-- Node1&#45;&gt;Node31 -->
<g id="edge30" class="edge">
<title>Node1&#45;&gt;Node31</title>
<path fill="none" stroke="midnightblue" d="M2194.66,-153.08C2521.53,-149.46 3643.73,-134.62 4000.5,-98 4010.42,-96.98 4020.95,-95.46 4031.04,-93.78"/>
<polygon fill="midnightblue" stroke="midnightblue" points="4031.7,-97.22 4040.95,-92.06 4030.5,-90.32 4031.7,-97.22"/>
</g>
<!-- Node32 -->
<g id="node32" class="node">
<title>Node32</title>
<g id="a_node32"><a xlink:href="message__filters_8hpp.html" target="_top" xlink:title="Compatibility layer for message_filters.">
<polygon fill="none" stroke="black" points="490.5,-67.5 490.5,-97.5 616.5,-97.5 616.5,-67.5 490.5,-67.5"/>
<text text-anchor="start" x="498.5" y="-85.5" font-family="Helvetica,sans-Serif" font-size="10.00">beluga_amcl/message</text>
<text text-anchor="middle" x="553.5" y="-74.5" font-family="Helvetica,sans-Serif" font-size="10.00">_filters.hpp</text>
</a>
</g>
</g>
<!-- Node1&#45;&gt;Node32 -->
<g id="edge31" class="edge">
<title>Node1&#45;&gt;Node32</title>
<path fill="none" stroke="midnightblue" d="M2014.31,-152C1792.37,-146.72 1202.02,-130.55 710.5,-98 683.25,-96.2 653.4,-93.6 627.11,-91.09"/>
<polygon fill="midnightblue" stroke="midnightblue" points="627.13,-87.58 616.84,-90.11 626.46,-94.55 627.13,-87.58"/>
</g>
<!-- Node33 -->
<g id="node33" class="node">
<title>Node33</title>
<g id="a_node33"><a xlink:title=" ">
<polygon fill="none" stroke="#bfbfbf" points="300,-6 300,-25 467,-25 467,-6 300,-6"/>
<text text-anchor="middle" x="383.5" y="-13" font-family="Helvetica,sans-Serif" font-size="10.00">message_filters/subscriber.hpp</text>
</a>
</g>
</g>
<!-- Node1&#45;&gt;Node33 -->
<g id="edge56" class="edge">
<title>Node1&#45;&gt;Node33</title>
<path fill="none" stroke="midnightblue" d="M2014.29,-152.59C1752.74,-148.14 997.18,-132.58 752.5,-98 694.97,-89.87 682.17,-79.83 625.5,-67 560.63,-52.32 485.61,-36.9 436.51,-27.03"/>
<polygon fill="midnightblue" stroke="midnightblue" points="436.93,-23.54 426.43,-25.01 435.55,-30.4 436.93,-23.54"/>
</g>
<!-- Node35 -->
<g id="node35" class="node">
<title>Node35</title>
<g id="a_node35"><a xlink:href="ros2__common_8hpp_source.html" target="_top" xlink:title=" ">
<polygon fill="none" stroke="black" points="1222.5,-73 1222.5,-92 1394.5,-92 1394.5,-73 1222.5,-73"/>
<text text-anchor="middle" x="1308.5" y="-80" font-family="Helvetica,sans-Serif" font-size="10.00">beluga_amcl/ros2_common.hpp</text>
</a>
</g>
</g>
<!-- Node1&#45;&gt;Node35 -->
<g id="edge36" class="edge">
<title>Node1&#45;&gt;Node35</title>
<path fill="none" stroke="midnightblue" d="M2014.25,-148.81C1880.72,-140.67 1622.81,-123.19 1404.5,-98 1393.6,-96.74 1382.04,-95.19 1370.86,-93.57"/>
<polygon fill="midnightblue" stroke="midnightblue" points="1371.13,-90.07 1360.73,-92.07 1370.11,-96.99 1371.13,-90.07"/>
</g>
<!-- Node32&#45;&gt;Node28 -->
<g id="edge33" class="edge">
<title>Node32&#45;&gt;Node28</title>
<path fill="none" stroke="midnightblue" d="M553.5,-67.4C553.5,-59.64 553.5,-49.81 553.5,-40.86"/>
<polygon fill="midnightblue" stroke="midnightblue" points="557,-40.58 553.5,-30.58 550,-40.58 557,-40.58"/>
</g>
<!-- Node32&#45;&gt;Node29 -->
<g id="edge34" class="edge">
<title>Node32&#45;&gt;Node29</title>
<path fill="none" stroke="midnightblue" d="M490.12,-69.15C485.52,-68.38 480.94,-67.65 476.5,-67 331.11,-45.56 290.75,-52.94 141.3,-31.03"/>
<polygon fill="midnightblue" stroke="midnightblue" points="141.7,-27.55 131.3,-29.55 140.67,-34.48 141.7,-27.55"/>
</g>
<!-- Node32&#45;&gt;Node33 -->
<g id="edge32" class="edge">
<title>Node32&#45;&gt;Node33</title>
<path fill="none" stroke="midnightblue" d="M516.61,-67.4C486.39,-55.84 444.06,-39.66 415.31,-28.66"/>
<polygon fill="midnightblue" stroke="midnightblue" points="416.34,-25.31 405.75,-25.01 413.84,-31.85 416.34,-25.31"/>
</g>
<!-- Node34 -->
<g id="node34" class="node">
<title>Node34</title>
<g id="a_node34"><a xlink:title=" ">
<polygon fill="none" stroke="#bfbfbf" points="149.5,-0.5 149.5,-30.5 281.5,-30.5 281.5,-0.5 149.5,-0.5"/>
<text text-anchor="start" x="157.5" y="-18.5" font-family="Helvetica,sans-Serif" font-size="10.00">sensor_msgs/msg/point</text>
<text text-anchor="middle" x="215.5" y="-7.5" font-family="Helvetica,sans-Serif" font-size="10.00">_cloud2.hpp</text>
</a>
</g>
</g>
<!-- Node32&#45;&gt;Node34 -->
<g id="edge35" class="edge">
<title>Node32&#45;&gt;Node34</title>
<path fill="none" stroke="midnightblue" d="M490.32,-69.35C434.06,-58.53 351.61,-42.67 291.7,-31.15"/>
<polygon fill="midnightblue" stroke="midnightblue" points="292.02,-27.65 281.54,-29.2 290.7,-34.53 292.02,-27.65"/>
</g>
<!-- Node35&#45;&gt;Node4 -->
<g id="edge53" class="edge">
<title>Node35&#45;&gt;Node4</title>
<path fill="none" stroke="midnightblue" d="M1222.33,-73.24C1127.27,-63.91 969.8,-47.82 834.5,-31 823.31,-29.61 811.45,-28.02 799.92,-26.42"/>
<polygon fill="midnightblue" stroke="midnightblue" points="800.29,-22.94 789.9,-25.02 799.32,-29.87 800.29,-22.94"/>
</g>
<!-- Node35&#45;&gt;Node5 -->
<g id="edge54" class="edge">
<title>Node35&#45;&gt;Node5</title>
<path fill="none" stroke="midnightblue" d="M1258.04,-72.94C1187.9,-61.03 1061.14,-39.52 986.02,-26.77"/>
<polygon fill="midnightblue" stroke="midnightblue" points="986.22,-23.25 975.77,-25.03 985.04,-30.16 986.22,-23.25"/>
</g>
<!-- Node35&#45;&gt;Node14 -->
<g id="edge37" class="edge">
<title>Node35&#45;&gt;Node14</title>
<path fill="none" stroke="midnightblue" d="M1267.52,-72.97C1224.95,-63.8 1156.57,-48.2 1098.5,-31 1095.72,-30.18 1092.85,-29.27 1089.98,-28.33"/>
<polygon fill="midnightblue" stroke="midnightblue" points="1090.94,-24.96 1080.35,-25.05 1088.69,-31.59 1090.94,-24.96"/>
</g>
<!-- Node35&#45;&gt;Node25 -->
<g id="edge43" class="edge">
<title>Node35&#45;&gt;Node25</title>
<path fill="none" stroke="midnightblue" d="M1288.85,-72.87C1263.41,-61.7 1218.9,-42.15 1189.55,-29.26"/>
<polygon fill="midnightblue" stroke="midnightblue" points="1190.8,-25.98 1180.23,-25.17 1187.98,-32.39 1190.8,-25.98"/>
</g>
<!-- Node35&#45;&gt;Node26 -->
<g id="edge44" class="edge">
<title>Node35&#45;&gt;Node26</title>
<path fill="none" stroke="midnightblue" d="M1307.96,-72.73C1307.46,-64.54 1306.68,-51.92 1305.99,-40.71"/>
<polygon fill="midnightblue" stroke="midnightblue" points="1309.47,-40.36 1305.37,-30.59 1302.49,-40.79 1309.47,-40.36"/>
</g>
<!-- Node35&#45;&gt;Node28 -->
<g id="edge39" class="edge">
<title>Node35&#45;&gt;Node28</title>
<path fill="none" stroke="midnightblue" d="M1222.43,-78.1C1095.49,-72.41 850.47,-58.87 632.37,-31.01"/>
<polygon fill="midnightblue" stroke="midnightblue" points="632.7,-27.53 622.34,-29.72 631.81,-34.47 632.7,-27.53"/>
</g>
<!-- Node36 -->
<g id="node36" class="node">
<title>Node36</title>
<g id="a_node36"><a xlink:title=" ">
<polygon fill="none" stroke="#bfbfbf" points="2913,-6 2913,-25 3048,-25 3048,-6 2913,-6"/>
<text text-anchor="middle" x="2980.5" y="-13" font-family="Helvetica,sans-Serif" font-size="10.00">rclcpp/node_options.hpp</text>
</a>
</g>
</g>
<!-- Node35&#45;&gt;Node36 -->
<g id="edge38" class="edge">
<title>Node35&#45;&gt;Node36</title>
<path fill="none" stroke="midnightblue" d="M1357.2,-72.93C1372.31,-70.6 1389.05,-68.35 1404.5,-67 2068.84,-9.09 2241.4,-101.73 2904.5,-31 2913.62,-30.03 2923.29,-28.54 2932.55,-26.89"/>
<polygon fill="midnightblue" stroke="midnightblue" points="2933.23,-30.32 2942.41,-25.04 2931.94,-23.44 2933.23,-30.32"/>
</g>
<!-- Node37 -->
<g id="node37" class="node">
<title>Node37</title>
<g id="a_node37"><a xlink:title=" ">
<polygon fill="none" stroke="#bfbfbf" points="1396,-6 1396,-25 1537,-25 1537,-6 1396,-6"/>
<text text-anchor="middle" x="1466.5" y="-13" font-family="Helvetica,sans-Serif" font-size="10.00">rclcpp_lifecycle/state.hpp</text>
</a>
</g>
</g>
<!-- Node35&#45;&gt;Node37 -->
<g id="edge40" class="edge">
<title>Node35&#45;&gt;Node37</title>
<path fill="none" stroke="midnightblue" d="M1329.48,-72.87C1356.75,-61.65 1404.57,-41.98 1435.89,-29.09"/>
<polygon fill="midnightblue" stroke="midnightblue" points="1437.52,-32.21 1445.43,-25.17 1434.85,-25.74 1437.52,-32.21"/>
</g>
<!-- Node38 -->
<g id="node38" class="node">
<title>Node38</title>
<g id="a_node38"><a xlink:title=" ">
<polygon fill="none" stroke="#bfbfbf" points="1555.5,-6 1555.5,-25 1599.5,-25 1599.5,-6 1555.5,-6"/>
<text text-anchor="middle" x="1577.5" y="-13" font-family="Helvetica,sans-Serif" font-size="10.00">string</text>
</a>
</g>
</g>
<!-- Node35&#45;&gt;Node38 -->
<g id="edge41" class="edge">
<title>Node35&#45;&gt;Node38</title>
<path fill="none" stroke="midnightblue" d="M1366.71,-72.97C1415.51,-64.91 1486.62,-51.06 1546.5,-31 1548.17,-30.44 1549.86,-29.82 1551.55,-29.15"/>
<polygon fill="midnightblue" stroke="midnightblue" points="1553.27,-32.23 1561.05,-25.04 1550.49,-25.8 1553.27,-32.23"/>
</g>
<!-- Node39 -->
<g id="node39" class="node">
<title>Node39</title>
<g id="a_node39"><a xlink:title=" ">
<polygon fill="none" stroke="#bfbfbf" points="1618,-6 1618,-25 1691,-25 1691,-6 1618,-6"/>
<text text-anchor="middle" x="1654.5" y="-13" font-family="Helvetica,sans-Serif" font-size="10.00">string_view</text>
</a>
</g>
</g>
<!-- Node35&#45;&gt;Node39 -->
<g id="edge42" class="edge">
<title>Node35&#45;&gt;Node39</title>
<path fill="none" stroke="midnightblue" d="M1364.84,-72.97C1438.46,-61.66 1563.31,-41.87 1608.5,-31 1612.13,-30.13 1615.9,-29.12 1619.64,-28.04"/>
<polygon fill="midnightblue" stroke="midnightblue" points="1620.8,-31.35 1629.37,-25.11 1618.78,-24.65 1620.8,-31.35"/>
</g>
<!-- Node40 -->
<g id="node40" class="node">
<title>Node40</title>
<g id="a_node40"><a xlink:title=" ">
<polygon fill="none" stroke="#bfbfbf" points="1709.5,-0.5 1709.5,-30.5 1855.5,-30.5 1855.5,-0.5 1709.5,-0.5"/>
<text text-anchor="start" x="1717.5" y="-18.5" font-family="Helvetica,sans-Serif" font-size="10.00">geometry_msgs/msg/pose</text>
<text text-anchor="middle" x="1782.5" y="-7.5" font-family="Helvetica,sans-Serif" font-size="10.00">_stamped.hpp</text>
</a>
</g>
</g>
<!-- Node35&#45;&gt;Node40 -->
<g id="edge45" class="edge">
<title>Node35&#45;&gt;Node40</title>
<path fill="none" stroke="midnightblue" d="M1363.04,-72.98C1376.57,-70.95 1391.06,-68.83 1404.5,-67 1532.6,-49.54 1567.72,-50.49 1699.16,-31.15"/>
<polygon fill="midnightblue" stroke="midnightblue" points="1699.84,-34.59 1709.21,-29.66 1698.81,-27.67 1699.84,-34.59"/>
</g>
<!-- Node41 -->
<g id="node41" class="node">
<title>Node41</title>
<g id="a_node41"><a xlink:title=" ">
<polygon fill="none" stroke="#bfbfbf" points="1874,-0.5 1874,-30.5 2019,-30.5 2019,-0.5 1874,-0.5"/>
<text text-anchor="start" x="1882" y="-18.5" font-family="Helvetica,sans-Serif" font-size="10.00">nav_msgs/msg/occupancy</text>
<text text-anchor="middle" x="1946.5" y="-7.5" font-family="Helvetica,sans-Serif" font-size="10.00">_grid.hpp</text>
</a>
</g>
</g>
<!-- Node35&#45;&gt;Node41 -->
<g id="edge46" class="edge">
<title>Node35&#45;&gt;Node41</title>
<path fill="none" stroke="midnightblue" d="M1360.22,-72.99C1374.54,-70.83 1390.1,-68.65 1404.5,-67 1604.96,-44.05 1659.33,-56.47 1863.52,-31.03"/>
<polygon fill="midnightblue" stroke="midnightblue" points="1864.19,-34.48 1873.68,-29.75 1863.32,-27.53 1864.19,-34.48"/>
</g>
<!-- Node42 -->
<g id="node42" class="node">
<title>Node42</title>
<g id="a_node42"><a xlink:title=" ">
<polygon fill="none" stroke="#bfbfbf" points="2037.5,-0.5 2037.5,-30.5 2165.5,-30.5 2165.5,-0.5 2037.5,-0.5"/>
<text text-anchor="start" x="2045.5" y="-18.5" font-family="Helvetica,sans-Serif" font-size="10.00">visualization_msgs</text>
<text text-anchor="middle" x="2101.5" y="-7.5" font-family="Helvetica,sans-Serif" font-size="10.00">/msg/marker_array.hpp</text>
</a>
</g>
</g>
<!-- Node35&#45;&gt;Node42 -->
<g id="edge47" class="edge">
<title>Node35&#45;&gt;Node42</title>
<path fill="none" stroke="midnightblue" d="M1359.21,-72.95C1373.79,-70.73 1389.75,-68.54 1404.5,-67 1677.43,-38.58 1751.15,-65.47 2027.16,-31.04"/>
<polygon fill="midnightblue" stroke="midnightblue" points="2028.01,-34.46 2037.49,-29.74 2027.13,-27.52 2028.01,-34.46"/>
</g>
<!-- Node43 -->
<g id="node43" class="node">
<title>Node43</title>
<g id="a_node43"><a xlink:title=" ">
<polygon fill="none" stroke="#bfbfbf" points="2184,-6 2184,-25 2283,-25 2283,-6 2184,-6"/>
<text text-anchor="middle" x="2233.5" y="-13" font-family="Helvetica,sans-Serif" font-size="10.00">rclcpp/rclcpp.hpp</text>
</a>
</g>
</g>
<!-- Node35&#45;&gt;Node43 -->
<g id="edge48" class="edge">
<title>Node35&#45;&gt;Node43</title>
<path fill="none" stroke="midnightblue" d="M1358.2,-72.99C1373.06,-70.72 1389.4,-68.49 1404.5,-67 1745.44,-33.37 1835.44,-80.11 2174.5,-31 2180.8,-30.09 2187.41,-28.8 2193.84,-27.36"/>
<polygon fill="midnightblue" stroke="midnightblue" points="2194.79,-30.73 2203.71,-25.02 2193.17,-23.92 2194.79,-30.73"/>
</g>
<!-- Node44 -->
<g id="node44" class="node">
<title>Node44</title>
<g id="a_node44"><a xlink:title=" ">
<polygon fill="none" stroke="#bfbfbf" points="2301.5,-6 2301.5,-25 2393.5,-25 2393.5,-6 2301.5,-6"/>
<text text-anchor="middle" x="2347.5" y="-13" font-family="Helvetica,sans-Serif" font-size="10.00">rclcpp/time.hpp</text>
</a>
</g>
</g>
<!-- Node35&#45;&gt;Node44 -->
<g id="edge49" class="edge">
<title>Node35&#45;&gt;Node44</title>
<path fill="none" stroke="midnightblue" d="M1358.2,-72.94C1373.05,-70.66 1389.4,-68.44 1404.5,-67 1797.7,-29.45 1901.89,-89.69 2292.5,-31 2298.12,-30.16 2303.98,-28.96 2309.71,-27.61"/>
<polygon fill="midnightblue" stroke="midnightblue" points="2310.93,-30.91 2319.77,-25.07 2309.21,-24.13 2310.93,-30.91"/>
</g>
<!-- Node45 -->
<g id="node45" class="node">
<title>Node45</title>
<g id="a_node45"><a xlink:title=" ">
<polygon fill="none" stroke="#bfbfbf" points="2412,-6 2412,-25 2503,-25 2503,-6 2412,-6"/>
<text text-anchor="middle" x="2457.5" y="-13" font-family="Helvetica,sans-Serif" font-size="10.00">tf2/convert.hpp</text>
</a>
</g>
</g>
<!-- Node35&#45;&gt;Node45 -->
<g id="edge50" class="edge">
<title>Node35&#45;&gt;Node45</title>
<path fill="none" stroke="midnightblue" d="M1357.7,-72.97C1372.68,-70.67 1389.23,-68.42 1404.5,-67 1846.43,-25.79 1963.44,-95.97 2402.5,-31 2408.32,-30.14 2414.41,-28.89 2420.33,-27.49"/>
<polygon fill="midnightblue" stroke="midnightblue" points="2421.22,-30.87 2430.05,-25.01 2419.5,-24.09 2421.22,-30.87"/>
</g>
<!-- Node46 -->
<g id="node46" class="node">
<title>Node46</title>
<g id="a_node46"><a xlink:title=" ">
<polygon fill="none" stroke="#bfbfbf" points="2521,-6 2521,-25 2596,-25 2596,-6 2521,-6"/>
<text text-anchor="middle" x="2558.5" y="-13" font-family="Helvetica,sans-Serif" font-size="10.00">tf2/utils.hpp</text>
</a>
</g>
</g>
<!-- Node35&#45;&gt;Node46 -->
<g id="edge51" class="edge">
<title>Node35&#45;&gt;Node46</title>
<path fill="none" stroke="midnightblue" d="M1357.7,-72.93C1372.68,-70.63 1389.23,-68.4 1404.5,-67 1649.83,-44.57 2269.65,-72.42 2512.5,-31 2516.77,-30.27 2521.2,-29.25 2525.54,-28.07"/>
<polygon fill="midnightblue" stroke="midnightblue" points="2526.82,-31.34 2535.4,-25.13 2524.82,-24.63 2526.82,-31.34"/>
</g>
<!-- Node47 -->
<g id="node47" class="node">
<title>Node47</title>
<g id="a_node47"><a xlink:title=" ">
<polygon fill="none" stroke="#bfbfbf" points="2613.5,-0.5 2613.5,-30.5 2729.5,-30.5 2729.5,-0.5 2613.5,-0.5"/>
<text text-anchor="start" x="2621.5" y="-18.5" font-family="Helvetica,sans-Serif" font-size="10.00">tf2_ros/create_timer</text>
<text text-anchor="middle" x="2671.5" y="-7.5" font-family="Helvetica,sans-Serif" font-size="10.00">_ros.hpp</text>
</a>
</g>
</g>
<!-- Node35&#45;&gt;Node47 -->
<g id="edge52" class="edge">
<title>Node35&#45;&gt;Node47</title>
<path fill="none" stroke="midnightblue" d="M1357.2,-72.99C1372.31,-70.66 1389.06,-68.39 1404.5,-67 1932.98,-19.34 2073.74,-95.6 2603.11,-31.16"/>
<polygon fill="midnightblue" stroke="midnightblue" points="2603.8,-34.6 2613.3,-29.9 2602.95,-27.65 2603.8,-34.6"/>
</g>
<!-- Node48 -->
<g id="node48" class="node">
<title>Node48</title>
<g id="a_node48"><a target="_parent" xlink:href="../../../../../../beluga_ros/docs/_doxygen/generated/reference/html/tf2__sophus_8hpp.html.html" xlink:title=" ">
<polygon fill="none" stroke="black" points="2748,-6 2748,-25 2895,-25 2895,-6 2748,-6"/>
<text text-anchor="middle" x="2821.5" y="-13" font-family="Helvetica,sans-Serif" font-size="10.00">beluga_ros/tf2_sophus.hpp</text>
</a>
</g>
</g>
<!-- Node35&#45;&gt;Node48 -->
<g id="edge55" class="edge">
<title>Node35&#45;&gt;Node48</title>
<path fill="none" stroke="midnightblue" d="M1357.2,-72.96C1372.31,-70.63 1389.05,-68.37 1404.5,-67 1995.29,-14.61 2148.36,-90.19 2738.5,-31 2748.54,-29.99 2759.2,-28.47 2769.41,-26.8"/>
<polygon fill="midnightblue" stroke="midnightblue" points="2770.18,-30.22 2779.44,-25.07 2768.99,-23.32 2770.18,-30.22"/>
</g>
</g>
</svg>
