<?xml version="1.0" encoding="UTF-8" standalone="no"?>
<!DOCTYPE svg PUBLIC "-//W3C//DTD SVG 1.1//EN"
 "http://www.w3.org/Graphics/SVG/1.1/DTD/svg11.dtd">
<!-- Generated by graphviz version 2.43.0 (0)
 -->
<!-- Title: /home/runner/work/beluga/beluga/beluga_amcl/include/beluga_amcl/ndt_amcl_node.hpp Pages: 1 -->
<!--zoomable 184 -->
<svg id="main" version="1.1" xmlns="http://www.w3.org/2000/svg" xmlns:xlink="http://www.w3.org/1999/xlink" xml:space="preserve" onload="init(evt)">
<style type="text/css"><![CDATA[
.edge:hover path { stroke: red; }
.edge:hover polygon { stroke: red; fill: red; }
]]></style>
<script type="text/javascript"><![CDATA[
var edges = document.getElementsByTagName('g');
if (edges && edges.length) {
  for (var i=0;i<edges.length;i++) {
    if (edges[i].id.substr(0,4)=='edge') {
      edges[i].setAttribute('class','edge');
    }
  }
}
]]></script>
        <defs>
                <circle id="rim" cx="0" cy="0" r="7"/>
                <circle id="rim2" cx="0" cy="0" r="3.5"/>
                <g id="zoomPlus">
                        <use xlink:href="#rim" fill="#404040">
                                <set attributeName="fill" to="#808080" begin="zoomplus.mouseover" end="zoomplus.mouseout"/>
                        </use>
                        <path d="M-4,0h8M0,-4v8" fill="none" stroke="white" stroke-width="1.5" pointer-events="none"/>
                </g>
                <g id="zoomMin">
                        <use xlink:href="#rim" fill="#404040">
                                <set attributeName="fill" to="#808080" begin="zoomminus.mouseover" end="zoomminus.mouseout"/>
                        </use>
                        <path d="M-4,0h8" fill="none" stroke="white" stroke-width="1.5" pointer-events="none"/>
                </g>
                <g id="dirArrow">
                        <path fill="none" stroke="white" stroke-width="1.5" d="M0,-3.0v7 M-2.5,-0.5L0,-3.0L2.5,-0.5"/>
                </g>
               <g id="resetDef">
                       <use xlink:href="#rim2" fill="#404040">
                               <set attributeName="fill" to="#808080" begin="reset.mouseover" end="reset.mouseout"/>
                       </use>
               </g>
        </defs>

<script type="text/javascript">
var viewWidth = 4138;
var viewHeight = 184;
var sectionId = 'dynsection-0';
</script>
<script xlink:href="svgpan.js"/>
<svg id="graph" class="graph">
<g id="viewport">
<title>/home/runner/work/beluga/beluga/beluga_amcl/include/beluga_amcl/ndt_amcl_node.hpp</title>
<!-- Node1 -->
<g id="node1" class="node">
<title>Node1</title>
<g id="a_node1"><a xlink:title="ROS 2 integration of the 2D NDT&#45;AMCL algorithm.">
<polygon fill="#bfbfbf" stroke="black" points="1988.5,-134.5 1988.5,-175.5 2168.5,-175.5 2168.5,-134.5 1988.5,-134.5"/>
<text text-anchor="start" x="1996.5" y="-163.5" font-family="Helvetica,sans-Serif" font-size="10.00">/home/runner/work/beluga</text>
<text text-anchor="start" x="1996.5" y="-152.5" font-family="Helvetica,sans-Serif" font-size="10.00">/beluga/beluga_amcl/include</text>
<text text-anchor="middle" x="2078.5" y="-141.5" font-family="Helvetica,sans-Serif" font-size="10.00">/beluga_amcl/ndt_amcl_node.hpp</text>
</a>
</g>
</g>
<!-- Node2 -->
<g id="node2" class="node">
<title>Node2</title>
<g id="a_node2"><a xlink:title=" ">
<polygon fill="none" stroke="#bfbfbf" points="260.5,-73 260.5,-92 350.5,-92 350.5,-73 260.5,-73"/>
<text text-anchor="middle" x="305.5" y="-80" font-family="Helvetica,sans-Serif" font-size="10.00">tf2_ros/buffer.h</text>
</a>
</g>
</g>
<!-- Node1&#45;&gt;Node2 -->
<g id="edge1" class="edge">
<title>Node1&#45;&gt;Node2</title>
<path fill="none" stroke="midnightblue" d="M1988.28,-153.79C1681.22,-152.66 678.21,-145.34 359.5,-98 353.92,-97.17 348.09,-95.97 342.41,-94.61"/>
<polygon fill="midnightblue" stroke="midnightblue" points="343,-91.15 332.44,-92.04 341.25,-97.93 343,-91.15"/>
</g>
<!-- Node3 -->
<g id="node3" class="node">
<title>Node3</title>
<g id="a_node3"><a xlink:title=" ">
<polygon fill="none" stroke="#bfbfbf" points="368.5,-73 368.5,-92 502.5,-92 502.5,-73 368.5,-73"/>
<text text-anchor="middle" x="435.5" y="-80" font-family="Helvetica,sans-Serif" font-size="10.00">tf2_ros/message_filter.h</text>
</a>
</g>
</g>
<!-- Node1&#45;&gt;Node3 -->
<g id="edge2" class="edge">
<title>Node1&#45;&gt;Node3</title>
<path fill="none" stroke="midnightblue" d="M1988.47,-152.45C1700.65,-147.22 804.87,-128.82 516.5,-98 506.8,-96.96 496.51,-95.45 486.64,-93.78"/>
<polygon fill="midnightblue" stroke="midnightblue" points="487,-90.29 476.55,-92.01 485.79,-97.19 487,-90.29"/>
</g>
<!-- Node4 -->
<g id="node4" class="node">
<title>Node4</title>
<g id="a_node4"><a xlink:title=" ">
<polygon fill="none" stroke="#bfbfbf" points="0,-6 0,-25 173,-25 173,-6 0,-6"/>
<text text-anchor="middle" x="86.5" y="-13" font-family="Helvetica,sans-Serif" font-size="10.00">tf2_ros/transform_broadcaster.h</text>
</a>
</g>
</g>
<!-- Node1&#45;&gt;Node4 -->
<g id="edge3" class="edge">
<title>Node1&#45;&gt;Node4</title>
<path fill="none" stroke="midnightblue" d="M1988.38,-154.38C1679.82,-155.19 677.42,-153.47 544.5,-98 525.93,-90.25 529.78,-75.42 511.5,-67 377.89,-5.47 328.36,-49.99 182.5,-31 172.11,-29.65 161.11,-28.1 150.41,-26.53"/>
<polygon fill="midnightblue" stroke="midnightblue" points="150.67,-23.03 140.27,-25.02 149.64,-29.95 150.67,-23.03"/>
</g>
<!-- Node5 -->
<g id="node5" class="node">
<title>Node5</title>
<g id="a_node5"><a xlink:title=" ">
<polygon fill="none" stroke="#bfbfbf" points="191.5,-6 191.5,-25 343.5,-25 343.5,-6 191.5,-6"/>
<text text-anchor="middle" x="267.5" y="-13" font-family="Helvetica,sans-Serif" font-size="10.00">tf2_ros/transform_listener.h</text>
</a>
</g>
</g>
<!-- Node1&#45;&gt;Node5 -->
<g id="edge4" class="edge">
<title>Node1&#45;&gt;Node5</title>
<path fill="none" stroke="midnightblue" d="M1988.38,-153.95C1685.18,-153.33 713.58,-147.47 582.5,-98 562.11,-90.3 564.29,-76.13 544.5,-67 539.53,-64.7 405.59,-40.84 325.82,-26.76"/>
<polygon fill="midnightblue" stroke="midnightblue" points="326.35,-23.3 315.89,-25.01 325.13,-30.19 326.35,-23.3"/>
</g>
<!-- Node6 -->
<g id="node6" class="node">
<title>Node6</title>
<g id="a_node6"><a target="_parent" xlink:href="../../../../../../beluga/docs/_doxygen/generated/reference/html/beluga_8hpp.html.html" xlink:title=" ">
<polygon fill="none" stroke="black" points="901,-73 901,-92 1008,-92 1008,-73 901,-73"/>
<text text-anchor="middle" x="954.5" y="-80" font-family="Helvetica,sans-Serif" font-size="10.00">beluga/beluga.hpp</text>
</a>
</g>
</g>
<!-- Node1&#45;&gt;Node6 -->
<g id="edge5" class="edge">
<title>Node1&#45;&gt;Node6</title>
<path fill="none" stroke="midnightblue" d="M1988.22,-154.5C1804.51,-154.35 1374.38,-148.1 1017.5,-98 1010.7,-97.05 1003.56,-95.72 996.62,-94.26"/>
<polygon fill="midnightblue" stroke="midnightblue" points="997.19,-90.8 986.67,-92.04 995.67,-97.63 997.19,-90.8"/>
</g>
<!-- Node7 -->
<g id="node7" class="node">
<title>Node7</title>
<g id="a_node7"><a target="_parent" xlink:href="../../../../../../beluga/docs/_doxygen/generated/reference/html/differential__drive__model_8hpp.html.html" xlink:title=" ">
<polygon fill="none" stroke="black" points="1026,-67.5 1026,-97.5 1169,-97.5 1169,-67.5 1026,-67.5"/>
<text text-anchor="start" x="1034" y="-85.5" font-family="Helvetica,sans-Serif" font-size="10.00">beluga/motion/differential</text>
<text text-anchor="middle" x="1097.5" y="-74.5" font-family="Helvetica,sans-Serif" font-size="10.00">_drive_model.hpp</text>
</a>
</g>
</g>
<!-- Node1&#45;&gt;Node7 -->
<g id="edge6" class="edge">
<title>Node1&#45;&gt;Node7</title>
<path fill="none" stroke="midnightblue" d="M1988.45,-151.82C1827.89,-147.19 1481.52,-133.78 1179.69,-98.04"/>
<polygon fill="midnightblue" stroke="midnightblue" points="1179.77,-94.53 1169.42,-96.82 1178.94,-101.48 1179.77,-94.53"/>
</g>
<!-- Node8 -->
<g id="node8" class="node">
<title>Node8</title>
<g id="a_node8"><a target="_parent" xlink:href="../../../../../../beluga/docs/_doxygen/generated/reference/html/omnidirectional__drive__model_8hpp.html.html" xlink:title=" ">
<polygon fill="none" stroke="black" points="1187,-67.5 1187,-97.5 1354,-97.5 1354,-67.5 1187,-67.5"/>
<text text-anchor="start" x="1195" y="-85.5" font-family="Helvetica,sans-Serif" font-size="10.00">beluga/motion/omnidirectional</text>
<text text-anchor="middle" x="1270.5" y="-74.5" font-family="Helvetica,sans-Serif" font-size="10.00">_drive_model.hpp</text>
</a>
</g>
</g>
<!-- Node1&#45;&gt;Node8 -->
<g id="edge7" class="edge">
<title>Node1&#45;&gt;Node8</title>
<path fill="none" stroke="midnightblue" d="M1988.27,-149.15C1854.44,-141.47 1595.23,-124.7 1364.39,-98.04"/>
<polygon fill="midnightblue" stroke="midnightblue" points="1364.45,-94.52 1354.11,-96.84 1363.64,-101.48 1364.45,-94.52"/>
</g>
<!-- Node9 -->
<g id="node9" class="node">
<title>Node9</title>
<g id="a_node9"><a target="_parent" xlink:href="../../../../../../beluga/docs/_doxygen/generated/reference/html/stationary__model_8hpp.html.html" xlink:title=" ">
<polygon fill="none" stroke="black" points="1372.5,-67.5 1372.5,-97.5 1512.5,-97.5 1512.5,-67.5 1372.5,-67.5"/>
<text text-anchor="start" x="1380.5" y="-85.5" font-family="Helvetica,sans-Serif" font-size="10.00">beluga/motion/stationary</text>
<text text-anchor="middle" x="1442.5" y="-74.5" font-family="Helvetica,sans-Serif" font-size="10.00">_model.hpp</text>
</a>
</g>
</g>
<!-- Node1&#45;&gt;Node9 -->
<g id="edge8" class="edge">
<title>Node1&#45;&gt;Node9</title>
<path fill="none" stroke="midnightblue" d="M1988.2,-147.11C1880.08,-138.36 1693.34,-121.67 1522.61,-97.94"/>
<polygon fill="midnightblue" stroke="midnightblue" points="1523.08,-94.47 1512.69,-96.55 1522.11,-101.4 1523.08,-94.47"/>
</g>
<!-- Node10 -->
<g id="node10" class="node">
<title>Node10</title>
<g id="a_node10"><a target="_parent" xlink:href="../../../../../../beluga/docs/_doxygen/generated/reference/html/primitives_8hpp.html.html" xlink:title=" ">
<polygon fill="none" stroke="black" points="1531,-73 1531,-92 1654,-92 1654,-73 1531,-73"/>
<text text-anchor="middle" x="1592.5" y="-80" font-family="Helvetica,sans-Serif" font-size="10.00">beluga/primitives.hpp</text>
</a>
</g>
</g>
<!-- Node1&#45;&gt;Node10 -->
<g id="edge9" class="edge">
<title>Node1&#45;&gt;Node10</title>
<path fill="none" stroke="midnightblue" d="M1988.38,-143.61C1904.14,-133.49 1774.96,-116.88 1663.5,-98 1656.42,-96.8 1648.97,-95.42 1641.67,-93.99"/>
<polygon fill="midnightblue" stroke="midnightblue" points="1642.34,-90.55 1631.84,-92.03 1640.97,-97.42 1642.34,-90.55"/>
</g>
<!-- Node11 -->
<g id="node11" class="node">
<title>Node11</title>
<g id="a_node11"><a xlink:title=" ">
<polygon fill="none" stroke="#bfbfbf" points="1672.5,-67.5 1672.5,-97.5 1782.5,-97.5 1782.5,-67.5 1672.5,-67.5"/>
<text text-anchor="start" x="1680.5" y="-85.5" font-family="Helvetica,sans-Serif" font-size="10.00">beluga/sensor/data</text>
<text text-anchor="middle" x="1727.5" y="-74.5" font-family="Helvetica,sans-Serif" font-size="10.00">/ndt_cell.hpp</text>
</a>
</g>
</g>
<!-- Node1&#45;&gt;Node11 -->
<g id="edge10" class="edge">
<title>Node1&#45;&gt;Node11</title>
<path fill="none" stroke="midnightblue" d="M1988.21,-136.95C1934.4,-126.63 1864.48,-112.98 1792.91,-98.05"/>
<polygon fill="midnightblue" stroke="midnightblue" points="1793.3,-94.56 1782.8,-95.94 1791.87,-101.41 1793.3,-94.56"/>
</g>
<!-- Node12 -->
<g id="node12" class="node">
<title>Node12</title>
<g id="a_node12"><a target="_parent" xlink:href="../../../../../../beluga/docs/_doxygen/generated/reference/html/sparse__value__grid_8hpp.html.html" xlink:title=" ">
<polygon fill="none" stroke="black" points="1801,-67.5 1801,-97.5 1930,-97.5 1930,-67.5 1801,-67.5"/>
<text text-anchor="start" x="1809" y="-85.5" font-family="Helvetica,sans-Serif" font-size="10.00">beluga/sensor/data</text>
<text text-anchor="middle" x="1865.5" y="-74.5" font-family="Helvetica,sans-Serif" font-size="10.00">/sparse_value_grid.hpp</text>
</a>
</g>
</g>
<!-- Node1&#45;&gt;Node12 -->
<g id="edge11" class="edge">
<title>Node1&#45;&gt;Node12</title>
<path fill="none" stroke="midnightblue" d="M2019.45,-134.46C1987.57,-123.9 1948.55,-110.99 1917.77,-100.8"/>
<polygon fill="midnightblue" stroke="midnightblue" points="1918.68,-97.42 1908.09,-97.6 1916.48,-104.06 1918.68,-97.42"/>
</g>
<!-- Node13 -->
<g id="node13" class="node">
<title>Node13</title>
<g id="a_node13"><a xlink:title=" ">
<polygon fill="none" stroke="#bfbfbf" points="1948,-67.5 1948,-97.5 2089,-97.5 2089,-67.5 1948,-67.5"/>
<text text-anchor="start" x="1956" y="-85.5" font-family="Helvetica,sans-Serif" font-size="10.00">beluga/sensor/ndt_sensor</text>
<text text-anchor="middle" x="2018.5" y="-74.5" font-family="Helvetica,sans-Serif" font-size="10.00">_model.hpp</text>
</a>
</g>
</g>
<!-- Node1&#45;&gt;Node13 -->
<g id="edge12" class="edge">
<title>Node1&#45;&gt;Node13</title>
<path fill="none" stroke="midnightblue" d="M2061.79,-134.36C2054.17,-125.41 2045.12,-114.78 2037.27,-105.56"/>
<polygon fill="midnightblue" stroke="midnightblue" points="2039.89,-103.24 2030.75,-97.89 2034.56,-107.78 2039.89,-103.24"/>
</g>
<!-- Node14 -->
<g id="node14" class="node">
<title>Node14</title>
<g id="a_node14"><a xlink:title=" ">
<polygon fill="none" stroke="#bfbfbf" points="361.5,-6 361.5,-25 425.5,-25 425.5,-6 361.5,-6"/>
<text text-anchor="middle" x="393.5" y="-13" font-family="Helvetica,sans-Serif" font-size="10.00">execution</text>
</a>
</g>
</g>
<!-- Node1&#45;&gt;Node14 -->
<g id="edge13" class="edge">
<title>Node1&#45;&gt;Node14</title>
<path fill="none" stroke="midnightblue" d="M1988.35,-153.86C1690.23,-152.92 747.9,-146.15 620.5,-98 600.11,-90.29 602.02,-76.7 582.5,-67 521.88,-36.86 499.38,-50.31 434.5,-31 431.72,-30.17 428.85,-29.27 425.98,-28.32"/>
<polygon fill="midnightblue" stroke="midnightblue" points="426.95,-24.96 416.35,-25.04 424.69,-31.58 426.95,-24.96"/>
</g>
<!-- Node15 -->
<g id="node15" class="node">
<title>Node15</title>
<g id="a_node15"><a xlink:title=" ">
<polygon fill="none" stroke="#bfbfbf" points="2107,-73 2107,-92 2172,-92 2172,-73 2107,-73"/>
<text text-anchor="middle" x="2139.5" y="-80" font-family="Helvetica,sans-Serif" font-size="10.00">functional</text>
</a>
</g>
</g>
<!-- Node1&#45;&gt;Node15 -->
<g id="edge14" class="edge">
<title>Node1&#45;&gt;Node15</title>
<path fill="none" stroke="midnightblue" d="M2095.49,-134.36C2104.86,-123.54 2116.35,-110.26 2125.24,-99.98"/>
<polygon fill="midnightblue" stroke="midnightblue" points="2128.1,-102.03 2132,-92.17 2122.81,-97.45 2128.1,-102.03"/>
</g>
<!-- Node16 -->
<g id="node16" class="node">
<title>Node16</title>
<g id="a_node16"><a xlink:title=" ">
<polygon fill="none" stroke="#bfbfbf" points="2190.5,-73 2190.5,-92 2246.5,-92 2246.5,-73 2190.5,-73"/>
<text text-anchor="middle" x="2218.5" y="-80" font-family="Helvetica,sans-Serif" font-size="10.00">optional</text>
</a>
</g>
</g>
<!-- Node1&#45;&gt;Node16 -->
<g id="edge15" class="edge">
<title>Node1&#45;&gt;Node16</title>
<path fill="none" stroke="midnightblue" d="M2117.5,-134.36C2141.35,-122.35 2171.23,-107.3 2192.28,-96.7"/>
<polygon fill="midnightblue" stroke="midnightblue" points="2193.92,-99.8 2201.28,-92.17 2190.77,-93.55 2193.92,-99.8"/>
</g>
<!-- Node17 -->
<g id="node17" class="node">
<title>Node17</title>
<g id="a_node17"><a xlink:title=" ">
<polygon fill="none" stroke="#bfbfbf" points="2265,-73 2265,-92 2408,-92 2408,-73 2265,-73"/>
<text text-anchor="middle" x="2336.5" y="-80" font-family="Helvetica,sans-Serif" font-size="10.00">rclcpp/callback_group.hpp</text>
</a>
</g>
</g>
<!-- Node1&#45;&gt;Node17 -->
<g id="edge16" class="edge">
<title>Node1&#45;&gt;Node17</title>
<path fill="none" stroke="midnightblue" d="M2150.02,-134.46C2196.84,-121.66 2256.36,-105.4 2295.39,-94.73"/>
<polygon fill="midnightblue" stroke="midnightblue" points="2296.62,-98.03 2305.35,-92.01 2294.78,-91.27 2296.62,-98.03"/>
</g>
<!-- Node18 -->
<g id="node18" class="node">
<title>Node18</title>
<g id="a_node18"><a xlink:title=" ">
<polygon fill="none" stroke="#bfbfbf" points="2426.5,-67.5 2426.5,-97.5 2534.5,-97.5 2534.5,-67.5 2426.5,-67.5"/>
<text text-anchor="start" x="2434.5" y="-85.5" font-family="Helvetica,sans-Serif" font-size="10.00">rclcpp/subscription</text>
<text text-anchor="middle" x="2480.5" y="-74.5" font-family="Helvetica,sans-Serif" font-size="10.00">_options.hpp</text>
</a>
</g>
</g>
<!-- Node1&#45;&gt;Node18 -->
<g id="edge17" class="edge">
<title>Node1&#45;&gt;Node18</title>
<path fill="none" stroke="midnightblue" d="M2168.71,-140.67C2234.7,-130.55 2326.6,-115.7 2416.19,-98.19"/>
<polygon fill="midnightblue" stroke="midnightblue" points="2417.11,-101.58 2426.25,-96.21 2415.76,-94.71 2417.11,-101.58"/>
</g>
<!-- Node19 -->
<g id="node19" class="node">
<title>Node19</title>
<g id="a_node19"><a xlink:title=" ">
<polygon fill="none" stroke="#bfbfbf" points="2552.5,-73 2552.5,-92 2644.5,-92 2644.5,-73 2552.5,-73"/>
<text text-anchor="middle" x="2598.5" y="-80" font-family="Helvetica,sans-Serif" font-size="10.00">sophus/se2.hpp</text>
</a>
</g>
</g>
<!-- Node1&#45;&gt;Node19 -->
<g id="edge18" class="edge">
<title>Node1&#45;&gt;Node19</title>
<path fill="none" stroke="midnightblue" d="M2168.64,-146.86C2262.74,-138.53 2414.31,-122.69 2543.5,-98 2548.64,-97.02 2554.01,-95.82 2559.3,-94.54"/>
<polygon fill="midnightblue" stroke="midnightblue" points="2560.44,-97.86 2569.27,-92.01 2558.72,-91.08 2560.44,-97.86"/>
</g>
<!-- Node20 -->
<g id="node20" class="node">
<title>Node20</title>
<g id="a_node20"><a xlink:title=" ">
<polygon fill="none" stroke="#bfbfbf" points="2663,-73 2663,-92 2704,-92 2704,-73 2663,-73"/>
<text text-anchor="middle" x="2683.5" y="-80" font-family="Helvetica,sans-Serif" font-size="10.00">tuple</text>
</a>
</g>
</g>
<!-- Node1&#45;&gt;Node20 -->
<g id="edge19" class="edge">
<title>Node1&#45;&gt;Node20</title>
<path fill="none" stroke="midnightblue" d="M2168.57,-149.1C2306.83,-140.93 2564.72,-122.92 2653.5,-98 2655.38,-97.47 2657.29,-96.83 2659.18,-96.12"/>
<polygon fill="midnightblue" stroke="midnightblue" points="2660.58,-99.32 2668.34,-92.11 2657.78,-92.91 2660.58,-99.32"/>
</g>
<!-- Node21 -->
<g id="node21" class="node">
<title>Node21</title>
<g id="a_node21"><a xlink:title=" ">
<polygon fill="none" stroke="#bfbfbf" points="2722,-73 2722,-92 2773,-92 2773,-73 2722,-73"/>
<text text-anchor="middle" x="2747.5" y="-80" font-family="Helvetica,sans-Serif" font-size="10.00">variant</text>
</a>
</g>
</g>
<!-- Node1&#45;&gt;Node21 -->
<g id="edge20" class="edge">
<title>Node1&#45;&gt;Node21</title>
<path fill="none" stroke="midnightblue" d="M2168.57,-154.89C2293,-154.15 2523.62,-145.58 2713.5,-98 2715.86,-97.41 2718.27,-96.67 2720.66,-95.85"/>
<polygon fill="midnightblue" stroke="midnightblue" points="2722.18,-99.01 2730.22,-92.11 2719.63,-92.5 2722.18,-99.01"/>
</g>
<!-- Node22 -->
<g id="node22" class="node">
<title>Node22</title>
<g id="a_node22"><a xlink:title=" ">
<polygon fill="none" stroke="#bfbfbf" points="2791.5,-73 2791.5,-92 2921.5,-92 2921.5,-73 2791.5,-73"/>
<text text-anchor="middle" x="2856.5" y="-80" font-family="Helvetica,sans-Serif" font-size="10.00">Eigen/src/Core/Matrix.h</text>
</a>
</g>
</g>
<!-- Node1&#45;&gt;Node22 -->
<g id="edge21" class="edge">
<title>Node1&#45;&gt;Node22</title>
<path fill="none" stroke="midnightblue" d="M2168.59,-150.13C2302.83,-143.62 2563.1,-128.12 2782.5,-98 2790.61,-96.89 2799.18,-95.45 2807.5,-93.92"/>
<polygon fill="midnightblue" stroke="midnightblue" points="2808.3,-97.33 2817.47,-92.01 2806.99,-90.45 2808.3,-97.33"/>
</g>
<!-- Node23 -->
<g id="node23" class="node">
<title>Node23</title>
<g id="a_node23"><a xlink:title=" ">
<polygon fill="none" stroke="#bfbfbf" points="2939.5,-73 2939.5,-92 2997.5,-92 2997.5,-73 2939.5,-73"/>
<text text-anchor="middle" x="2968.5" y="-80" font-family="Helvetica,sans-Serif" font-size="10.00">H5Cpp.h</text>
</a>
</g>
</g>
<!-- Node1&#45;&gt;Node23 -->
<g id="edge22" class="edge">
<title>Node1&#45;&gt;Node23</title>
<path fill="none" stroke="midnightblue" d="M2168.52,-151.48C2356.95,-145.65 2787.31,-129.28 2930.5,-98 2933.57,-97.33 2936.73,-96.45 2939.84,-95.46"/>
<polygon fill="midnightblue" stroke="midnightblue" points="2941.26,-98.67 2949.51,-92.02 2938.91,-92.08 2941.26,-98.67"/>
</g>
<!-- Node24 -->
<g id="node24" class="node">
<title>Node24</title>
<g id="a_node24"><a xlink:title=" ">
<polygon fill="none" stroke="#bfbfbf" points="3016,-67.5 3016,-97.5 3143,-97.5 3143,-67.5 3016,-67.5"/>
<text text-anchor="start" x="3024" y="-85.5" font-family="Helvetica,sans-Serif" font-size="10.00">beluga/algorithm/amcl</text>
<text text-anchor="middle" x="3079.5" y="-74.5" font-family="Helvetica,sans-Serif" font-size="10.00">_core.hpp</text>
</a>
</g>
</g>
<!-- Node1&#45;&gt;Node24 -->
<g id="edge23" class="edge">
<title>Node1&#45;&gt;Node24</title>
<path fill="none" stroke="midnightblue" d="M2168.79,-152.62C2333.35,-149.21 2693.11,-137.63 3005.72,-97.97"/>
<polygon fill="midnightblue" stroke="midnightblue" points="3006.41,-101.41 3015.88,-96.66 3005.52,-94.46 3006.41,-101.41"/>
</g>
<!-- Node25 -->
<g id="node25" class="node">
<title>Node25</title>
<g id="a_node25"><a xlink:title=" ">
<polygon fill="none" stroke="#bfbfbf" points="443.5,-6 443.5,-25 549.5,-25 549.5,-6 443.5,-6"/>
<text text-anchor="middle" x="496.5" y="-13" font-family="Helvetica,sans-Serif" font-size="10.00">bondcpp/bond.hpp</text>
</a>
</g>
</g>
<!-- Node1&#45;&gt;Node25 -->
<g id="edge24" class="edge">
<title>Node1&#45;&gt;Node25</title>
<path fill="none" stroke="midnightblue" d="M1988.49,-153.51C1696.45,-151.48 786.94,-141.7 662.5,-98 640.61,-90.31 640.73,-78.35 620.5,-67 592.22,-51.14 557.95,-37.57 532.61,-28.5"/>
<polygon fill="midnightblue" stroke="midnightblue" points="533.62,-25.15 523.02,-25.14 531.3,-31.75 533.62,-25.15"/>
</g>
<!-- Node26 -->
<g id="node26" class="node">
<title>Node26</title>
<g id="a_node26"><a xlink:title=" ">
<polygon fill="none" stroke="#bfbfbf" points="3161.5,-67.5 3161.5,-97.5 3307.5,-97.5 3307.5,-67.5 3161.5,-67.5"/>
<text text-anchor="start" x="3169.5" y="-85.5" font-family="Helvetica,sans-Serif" font-size="10.00">geometry_msgs/msg/pose</text>
<text text-anchor="middle" x="3234.5" y="-74.5" font-family="Helvetica,sans-Serif" font-size="10.00">_array.hpp</text>
</a>
</g>
</g>
<!-- Node1&#45;&gt;Node26 -->
<g id="edge25" class="edge">
<title>Node1&#45;&gt;Node26</title>
<path fill="none" stroke="midnightblue" d="M2168.62,-153.04C2351.95,-150.26 2781.51,-139.61 3151.15,-98.06"/>
<polygon fill="midnightblue" stroke="midnightblue" points="3151.71,-101.52 3161.25,-96.91 3150.92,-94.56 3151.71,-101.52"/>
</g>
<!-- Node27 -->
<g id="node27" class="node">
<title>Node27</title>
<g id="a_node27"><a xlink:title=" ">
<polygon fill="none" stroke="#bfbfbf" points="3325.5,-67.5 3325.5,-97.5 3495.5,-97.5 3495.5,-67.5 3325.5,-67.5"/>
<text text-anchor="start" x="3333.5" y="-85.5" font-family="Helvetica,sans-Serif" font-size="10.00">geometry_msgs/msg/pose</text>
<text text-anchor="middle" x="3410.5" y="-74.5" font-family="Helvetica,sans-Serif" font-size="10.00">_with_covariance_stamped.hpp</text>
</a>
</g>
</g>
<!-- Node1&#45;&gt;Node27 -->
<g id="edge26" class="edge">
<title>Node1&#45;&gt;Node27</title>
<path fill="none" stroke="midnightblue" d="M2168.83,-153.25C2371.95,-150.83 2880.29,-140.74 3315.24,-98.05"/>
<polygon fill="midnightblue" stroke="midnightblue" points="3315.89,-101.5 3325.5,-97.03 3315.2,-94.53 3315.89,-101.5"/>
</g>
<!-- Node28 -->
<g id="node28" class="node">
<title>Node28</title>
<g id="a_node28"><a xlink:title=" ">
<polygon fill="none" stroke="#bfbfbf" points="568,-0.5 568,-30.5 705,-30.5 705,-0.5 568,-0.5"/>
<text text-anchor="start" x="576" y="-18.5" font-family="Helvetica,sans-Serif" font-size="10.00">rclcpp_lifecycle/lifecycle</text>
<text text-anchor="middle" x="636.5" y="-7.5" font-family="Helvetica,sans-Serif" font-size="10.00">_node.hpp</text>
</a>
</g>
</g>
<!-- Node1&#45;&gt;Node28 -->
<g id="edge27" class="edge">
<title>Node1&#45;&gt;Node28</title>
<path fill="none" stroke="midnightblue" d="M1988.27,-152.39C1691.12,-146.81 758.86,-127.07 701.5,-98 676.81,-85.48 658.41,-58.83 647.61,-39.4"/>
<polygon fill="midnightblue" stroke="midnightblue" points="650.69,-37.73 642.92,-30.53 644.5,-41.01 650.69,-37.73"/>
</g>
<!-- Node29 -->
<g id="node29" class="node">
<title>Node29</title>
<g id="a_node29"><a xlink:title=" ">
<polygon fill="none" stroke="#bfbfbf" points="3514,-67.5 3514,-97.5 3645,-97.5 3645,-67.5 3514,-67.5"/>
<text text-anchor="start" x="3522" y="-85.5" font-family="Helvetica,sans-Serif" font-size="10.00">sensor_msgs/msg/laser</text>
<text text-anchor="middle" x="3579.5" y="-74.5" font-family="Helvetica,sans-Serif" font-size="10.00">_scan.hpp</text>
</a>
</g>
</g>
<!-- Node1&#45;&gt;Node29 -->
<g id="edge28" class="edge">
<title>Node1&#45;&gt;Node29</title>
<path fill="none" stroke="midnightblue" d="M2168.71,-152.25C2436.43,-146.78 3224.52,-128.56 3503.63,-97.94"/>
<polygon fill="midnightblue" stroke="midnightblue" points="3504.19,-101.4 3513.74,-96.8 3503.41,-94.44 3504.19,-101.4"/>
</g>
<!-- Node30 -->
<g id="node30" class="node">
<title>Node30</title>
<g id="a_node30"><a xlink:title=" ">
<polygon fill="none" stroke="#bfbfbf" points="3663,-73 3663,-92 3792,-92 3792,-73 3663,-73"/>
<text text-anchor="middle" x="3727.5" y="-80" font-family="Helvetica,sans-Serif" font-size="10.00">std_srvs/srv/empty.hpp</text>
</a>
</g>
</g>
<!-- Node1&#45;&gt;Node30 -->
<g id="edge29" class="edge">
<title>Node1&#45;&gt;Node30</title>
<path fill="none" stroke="midnightblue" d="M2168.6,-152.7C2458.25,-148.23 3363.6,-131.84 3654.5,-98 3662.99,-97.01 3671.96,-95.57 3680.6,-93.97"/>
<polygon fill="midnightblue" stroke="midnightblue" points="3681.4,-97.38 3690.55,-92.04 3680.06,-90.51 3681.4,-97.38"/>
</g>
<!-- Node31 -->
<g id="node31" class="node">
<title>Node31</title>
<g id="a_node31"><a target="_parent" xlink:href="../../../../../../beluga_ros/docs/_doxygen/generated/reference/html/laser__scan_8hpp.html.html" xlink:title=" ">
<polygon fill="none" stroke="black" points="3810.5,-73 3810.5,-92 3956.5,-92 3956.5,-73 3810.5,-73"/>
<text text-anchor="middle" x="3883.5" y="-80" font-family="Helvetica,sans-Serif" font-size="10.00">beluga_ros/laser_scan.hpp</text>
</a>
</g>
</g>
<!-- Node1&#45;&gt;Node31 -->
<g id="edge30" class="edge">
<title>Node1&#45;&gt;Node31</title>
<path fill="none" stroke="midnightblue" d="M2168.54,-152.77C2475.57,-148.31 3480.19,-131.46 3801.5,-98 3811.42,-96.97 3821.95,-95.44 3832.04,-93.75"/>
<polygon fill="midnightblue" stroke="midnightblue" points="3832.69,-97.19 3841.95,-92.03 3831.49,-90.3 3832.69,-97.19"/>
</g>
<!-- Node32 -->
<g id="node32" class="node">
<title>Node32</title>
<g id="a_node32"><a xlink:href="ros2__common_8hpp_source.html" target="_top" xlink:title=" ">
<polygon fill="none" stroke="black" points="710.5,-73 710.5,-92 882.5,-92 882.5,-73 710.5,-73"/>
<text text-anchor="middle" x="796.5" y="-80" font-family="Helvetica,sans-Serif" font-size="10.00">beluga_amcl/ros2_common.hpp</text>
</a>
</g>
</g>
<!-- Node1&#45;&gt;Node32 -->
<g id="edge31" class="edge">
<title>Node1&#45;&gt;Node32</title>
<path fill="none" stroke="midnightblue" d="M1988.26,-152.9C1789.71,-149.78 1300.2,-138.31 892.5,-98 880.71,-96.83 868.15,-95.21 856.14,-93.48"/>
<polygon fill="midnightblue" stroke="midnightblue" points="856.61,-90.01 846.2,-92 855.58,-96.93 856.61,-90.01"/>
</g>
<!-- Node44 -->
<g id="node44" class="node">
<title>Node44</title>
<g id="a_node44"><a xlink:title=" ">
<polygon fill="none" stroke="#bfbfbf" points="3975,-73 3975,-92 4130,-92 4130,-73 3975,-73"/>
<text text-anchor="middle" x="4052.5" y="-80" font-family="Helvetica,sans-Serif" font-size="10.00">message_filters/subscriber.h</text>
</a>
</g>
</g>
<!-- Node1&#45;&gt;Node44 -->
<g id="edge48" class="edge">
<title>Node1&#45;&gt;Node44</title>
<path fill="none" stroke="midnightblue" d="M2168.51,-152.95C2494.14,-148.89 3610.36,-132.7 3965.5,-98 3976.13,-96.96 3987.42,-95.41 3998.22,-93.71"/>
<polygon fill="midnightblue" stroke="midnightblue" points="3999.09,-97.11 4008.39,-92.04 3997.96,-90.21 3999.09,-97.11"/>
</g>
<!-- Node32&#45;&gt;Node4 -->
<g id="edge45" class="edge">
<title>Node32&#45;&gt;Node4</title>
<path fill="none" stroke="midnightblue" d="M710.39,-76.27C591.45,-68.62 370.28,-52.88 182.5,-31 171.6,-29.73 160.04,-28.17 148.86,-26.55"/>
<polygon fill="midnightblue" stroke="midnightblue" points="149.13,-23.05 138.73,-25.05 148.11,-29.97 149.13,-23.05"/>
</g>
<!-- Node32&#45;&gt;Node5 -->
<g id="edge46" class="edge">
<title>Node32&#45;&gt;Node5</title>
<path fill="none" stroke="midnightblue" d="M710.37,-73.14C620.79,-64.11 476.55,-48.62 352.5,-31 343.47,-29.72 333.92,-28.22 324.61,-26.69"/>
<polygon fill="midnightblue" stroke="midnightblue" points="325.08,-23.22 314.63,-25.02 323.92,-30.12 325.08,-23.22"/>
</g>
<!-- Node32&#45;&gt;Node14 -->
<g id="edge32" class="edge">
<title>Node32&#45;&gt;Node14</title>
<path fill="none" stroke="midnightblue" d="M710.37,-74.41C636.45,-67.15 527.43,-53.67 434.5,-31 431.27,-30.21 427.94,-29.27 424.64,-28.24"/>
<polygon fill="midnightblue" stroke="midnightblue" points="425.55,-24.86 414.96,-25 423.33,-31.49 425.55,-24.86"/>
</g>
<!-- Node32&#45;&gt;Node25 -->
<g id="edge38" class="edge">
<title>Node32&#45;&gt;Node25</title>
<path fill="none" stroke="midnightblue" d="M755.35,-72.94C708.05,-63.06 628.09,-46.2 559.5,-31 554.16,-29.82 548.57,-28.56 543.01,-27.3"/>
<polygon fill="midnightblue" stroke="midnightblue" points="543.65,-23.85 533.12,-25.03 542.09,-30.67 543.65,-23.85"/>
</g>
<!-- Node32&#45;&gt;Node28 -->
<g id="edge34" class="edge">
<title>Node32&#45;&gt;Node28</title>
<path fill="none" stroke="midnightblue" d="M775.25,-72.87C751.24,-63.12 711.5,-46.97 680.69,-34.45"/>
<polygon fill="midnightblue" stroke="midnightblue" points="681.61,-31.05 671.03,-30.53 678.98,-37.53 681.61,-31.05"/>
</g>
<!-- Node33 -->
<g id="node33" class="node">
<title>Node33</title>
<g id="a_node33"><a xlink:title=" ">
<polygon fill="none" stroke="#bfbfbf" points="1594,-6 1594,-25 1729,-25 1729,-6 1594,-6"/>
<text text-anchor="middle" x="1661.5" y="-13" font-family="Helvetica,sans-Serif" font-size="10.00">rclcpp/node_options.hpp</text>
</a>
</g>
</g>
<!-- Node32&#45;&gt;Node33 -->
<g id="edge33" class="edge">
<title>Node32&#45;&gt;Node33</title>
<path fill="none" stroke="midnightblue" d="M846.7,-72.97C861.42,-70.72 877.57,-68.51 892.5,-67 1199.35,-35.93 1279.31,-67.99 1585.5,-31 1594.22,-29.95 1603.44,-28.49 1612.35,-26.89"/>
<polygon fill="midnightblue" stroke="midnightblue" points="1613.02,-30.33 1622.21,-25.05 1611.74,-23.45 1613.02,-30.33"/>
</g>
<!-- Node34 -->
<g id="node34" class="node">
<title>Node34</title>
<g id="a_node34"><a xlink:title=" ">
<polygon fill="none" stroke="#bfbfbf" points="1747,-6 1747,-25 1888,-25 1888,-6 1747,-6"/>
<text text-anchor="middle" x="1817.5" y="-13" font-family="Helvetica,sans-Serif" font-size="10.00">rclcpp_lifecycle/state.hpp</text>
</a>
</g>
</g>
<!-- Node32&#45;&gt;Node34 -->
<g id="edge35" class="edge">
<title>Node32&#45;&gt;Node34</title>
<path fill="none" stroke="midnightblue" d="M846.2,-72.95C861.05,-70.68 877.4,-68.46 892.5,-67 1267.1,-30.85 1364.52,-73.07 1738.5,-31 1747.76,-29.96 1757.57,-28.47 1767.01,-26.84"/>
<polygon fill="midnightblue" stroke="midnightblue" points="1767.84,-30.25 1777.07,-25.04 1766.6,-23.36 1767.84,-30.25"/>
</g>
<!-- Node35 -->
<g id="node35" class="node">
<title>Node35</title>
<g id="a_node35"><a xlink:title=" ">
<polygon fill="none" stroke="#bfbfbf" points="1906.5,-6 1906.5,-25 1950.5,-25 1950.5,-6 1906.5,-6"/>
<text text-anchor="middle" x="1928.5" y="-13" font-family="Helvetica,sans-Serif" font-size="10.00">string</text>
</a>
</g>
</g>
<!-- Node32&#45;&gt;Node35 -->
<g id="edge36" class="edge">
<title>Node32&#45;&gt;Node35</title>
<path fill="none" stroke="midnightblue" d="M845.7,-72.97C860.68,-70.67 877.23,-68.42 892.5,-67 1115.01,-46.28 1680.25,-83.4 1897.5,-31 1899.49,-30.52 1901.51,-29.9 1903.51,-29.2"/>
<polygon fill="midnightblue" stroke="midnightblue" points="1905.31,-32.24 1913.18,-25.15 1902.6,-25.79 1905.31,-32.24"/>
</g>
<!-- Node36 -->
<g id="node36" class="node">
<title>Node36</title>
<g id="a_node36"><a xlink:title=" ">
<polygon fill="none" stroke="#bfbfbf" points="1969,-6 1969,-25 2042,-25 2042,-6 1969,-6"/>
<text text-anchor="middle" x="2005.5" y="-13" font-family="Helvetica,sans-Serif" font-size="10.00">string_view</text>
</a>
</g>
</g>
<!-- Node32&#45;&gt;Node36 -->
<g id="edge37" class="edge">
<title>Node32&#45;&gt;Node36</title>
<path fill="none" stroke="midnightblue" d="M845.7,-72.95C860.68,-70.65 877.23,-68.41 892.5,-67 1364.99,-23.49 1491.81,-111.06 1959.5,-31 1963.77,-30.27 1968.2,-29.24 1972.54,-28.07"/>
<polygon fill="midnightblue" stroke="midnightblue" points="1973.82,-31.34 1982.4,-25.13 1971.82,-24.63 1973.82,-31.34"/>
</g>
<!-- Node37 -->
<g id="node37" class="node">
<title>Node37</title>
<g id="a_node37"><a xlink:title=" ">
<polygon fill="none" stroke="#bfbfbf" points="723.5,-0.5 723.5,-30.5 869.5,-30.5 869.5,-0.5 723.5,-0.5"/>
<text text-anchor="start" x="731.5" y="-18.5" font-family="Helvetica,sans-Serif" font-size="10.00">geometry_msgs/msg/pose</text>
<text text-anchor="middle" x="796.5" y="-7.5" font-family="Helvetica,sans-Serif" font-size="10.00">_stamped.hpp</text>
</a>
</g>
</g>
<!-- Node32&#45;&gt;Node37 -->
<g id="edge39" class="edge">
<title>Node32&#45;&gt;Node37</title>
<path fill="none" stroke="midnightblue" d="M796.5,-72.73C796.5,-64.54 796.5,-51.92 796.5,-40.71"/>
<polygon fill="midnightblue" stroke="midnightblue" points="800,-40.59 796.5,-30.59 793,-40.59 800,-40.59"/>
</g>
<!-- Node38 -->
<g id="node38" class="node">
<title>Node38</title>
<g id="a_node38"><a xlink:title=" ">
<polygon fill="none" stroke="#bfbfbf" points="888,-6 888,-25 987,-25 987,-6 888,-6"/>
<text text-anchor="middle" x="937.5" y="-13" font-family="Helvetica,sans-Serif" font-size="10.00">rclcpp/rclcpp.hpp</text>
</a>
</g>
</g>
<!-- Node32&#45;&gt;Node38 -->
<g id="edge40" class="edge">
<title>Node32&#45;&gt;Node38</title>
<path fill="none" stroke="midnightblue" d="M815.22,-72.87C839.35,-61.75 881.5,-42.32 909.45,-29.43"/>
<polygon fill="midnightblue" stroke="midnightblue" points="911.08,-32.53 918.7,-25.17 908.15,-26.18 911.08,-32.53"/>
</g>
<!-- Node39 -->
<g id="node39" class="node">
<title>Node39</title>
<g id="a_node39"><a xlink:title=" ">
<polygon fill="none" stroke="#bfbfbf" points="1005.5,-6 1005.5,-25 1097.5,-25 1097.5,-6 1005.5,-6"/>
<text text-anchor="middle" x="1051.5" y="-13" font-family="Helvetica,sans-Serif" font-size="10.00">rclcpp/time.hpp</text>
</a>
</g>
</g>
<!-- Node32&#45;&gt;Node39 -->
<g id="edge41" class="edge">
<title>Node32&#45;&gt;Node39</title>
<path fill="none" stroke="midnightblue" d="M830.86,-72.94C870.72,-62.98 938.42,-45.99 996.5,-31 1000.64,-29.93 1004.96,-28.81 1009.27,-27.68"/>
<polygon fill="midnightblue" stroke="midnightblue" points="1010.45,-30.99 1019.23,-25.07 1008.67,-24.22 1010.45,-30.99"/>
</g>
<!-- Node40 -->
<g id="node40" class="node">
<title>Node40</title>
<g id="a_node40"><a xlink:title=" ">
<polygon fill="none" stroke="#bfbfbf" points="1116,-6 1116,-25 1195,-25 1195,-6 1116,-6"/>
<text text-anchor="middle" x="1155.5" y="-13" font-family="Helvetica,sans-Serif" font-size="10.00">tf2/convert.h</text>
</a>
</g>
</g>
<!-- Node32&#45;&gt;Node40 -->
<g id="edge42" class="edge">
<title>Node32&#45;&gt;Node40</title>
<path fill="none" stroke="midnightblue" d="M851.14,-72.98C933.41,-60.1 1082.11,-36.57 1106.5,-31 1110.64,-30.06 1114.93,-28.96 1119.19,-27.8"/>
<polygon fill="midnightblue" stroke="midnightblue" points="1120.3,-31.12 1128.96,-25.02 1118.38,-24.39 1120.3,-31.12"/>
</g>
<!-- Node41 -->
<g id="node41" class="node">
<title>Node41</title>
<g id="a_node41"><a xlink:title=" ">
<polygon fill="none" stroke="#bfbfbf" points="1213,-6 1213,-25 1276,-25 1276,-6 1213,-6"/>
<text text-anchor="middle" x="1244.5" y="-13" font-family="Helvetica,sans-Serif" font-size="10.00">tf2/utils.h</text>
</a>
</g>
</g>
<!-- Node32&#45;&gt;Node41 -->
<g id="edge43" class="edge">
<title>Node32&#45;&gt;Node41</title>
<path fill="none" stroke="midnightblue" d="M850.78,-72.96C864.39,-70.92 878.97,-68.8 892.5,-67 1030.87,-48.57 1068.63,-63 1204.5,-31 1207.56,-30.28 1210.72,-29.39 1213.84,-28.42"/>
<polygon fill="midnightblue" stroke="midnightblue" points="1215.26,-31.64 1223.6,-25.11 1213.01,-25.01 1215.26,-31.64"/>
</g>
<!-- Node42 -->
<g id="node42" class="node">
<title>Node42</title>
<g id="a_node42"><a xlink:title=" ">
<polygon fill="none" stroke="#bfbfbf" points="1294.5,-0.5 1294.5,-30.5 1410.5,-30.5 1410.5,-0.5 1294.5,-0.5"/>
<text text-anchor="start" x="1302.5" y="-18.5" font-family="Helvetica,sans-Serif" font-size="10.00">tf2_ros/create_timer</text>
<text text-anchor="middle" x="1352.5" y="-7.5" font-family="Helvetica,sans-Serif" font-size="10.00">_ros.h</text>
</a>
</g>
</g>
<!-- Node32&#45;&gt;Node42 -->
<g id="edge44" class="edge">
<title>Node32&#45;&gt;Node42</title>
<path fill="none" stroke="midnightblue" d="M849.24,-72.97C863.28,-70.85 878.44,-68.7 892.5,-67 1063.39,-46.28 1110.4,-57.18 1284.47,-31.03"/>
<polygon fill="midnightblue" stroke="midnightblue" points="1285.12,-34.47 1294.48,-29.51 1284.06,-27.55 1285.12,-34.47"/>
</g>
<!-- Node43 -->
<g id="node43" class="node">
<title>Node43</title>
<g id="a_node43"><a target="_parent" xlink:href="../../../../../../beluga_ros/docs/_doxygen/generated/reference/html/tf2__sophus_8hpp.html.html" xlink:title=" ">
<polygon fill="none" stroke="black" points="1429,-6 1429,-25 1576,-25 1576,-6 1429,-6"/>
<text text-anchor="middle" x="1502.5" y="-13" font-family="Helvetica,sans-Serif" font-size="10.00">beluga_ros/tf2_sophus.hpp</text>
</a>
</g>
</g>
<!-- Node32&#45;&gt;Node43 -->
<g id="edge47" class="edge">
<title>Node32&#45;&gt;Node43</title>
<path fill="none" stroke="midnightblue" d="M847.72,-72.97C862.17,-70.78 877.92,-68.6 892.5,-67 1125.87,-41.45 1186.44,-59.24 1419.5,-31 1428.98,-29.85 1439.03,-28.34 1448.74,-26.74"/>
<polygon fill="midnightblue" stroke="midnightblue" points="1449.42,-30.17 1458.69,-25.04 1448.24,-23.27 1449.42,-30.17"/>
</g>
</g>
</svg>
        <g id="navigator" transform="translate(0 0)" fill="#404254">
                <rect fill="#f2f5e9" fill-opacity="0.5" stroke="#606060" stroke-width=".5" x="0" y="0" width="60" height="60"/>
                <use id="zoomplus" xlink:href="#zoomPlus" x="17" y="9" onmousedown="handleZoom(evt,'in')"/>
                <use id="zoomminus" xlink:href="#zoomMin" x="42" y="9" onmousedown="handleZoom(evt,'out')"/>
                <use id="reset" xlink:href="#resetDef" x="30" y="36" onmousedown="handleReset()"/>
                <g id="arrowUp" xlink:href="#dirArrow" transform="translate(30 24)" onmousedown="handlePan(0,-1)">
                  <use xlink:href="#rim" fill="#404040">
                        <set attributeName="fill" to="#808080" begin="arrowUp.mouseover" end="arrowUp.mouseout"/>
                  </use>
                  <path fill="none" stroke="white" stroke-width="1.5" d="M0,-3.0v7 M-2.5,-0.5L0,-3.0L2.5,-0.5"/>
                </g>
                <g id="arrowRight" xlink:href="#dirArrow" transform="rotate(90) translate(36 -43)" onmousedown="handlePan(1,0)">
                  <use xlink:href="#rim" fill="#404040">
                        <set attributeName="fill" to="#808080" begin="arrowRight.mouseover" end="arrowRight.mouseout"/>
                  </use>
                  <path fill="none" stroke="white" stroke-width="1.5" d="M0,-3.0v7 M-2.5,-0.5L0,-3.0L2.5,-0.5"/>
                </g>
                <g id="arrowDown" xlink:href="#dirArrow" transform="rotate(180) translate(-30 -48)" onmousedown="handlePan(0,1)">
                  <use xlink:href="#rim" fill="#404040">
                        <set attributeName="fill" to="#808080" begin="arrowDown.mouseover" end="arrowDown.mouseout"/>
                  </use>
                  <path fill="none" stroke="white" stroke-width="1.5" d="M0,-3.0v7 M-2.5,-0.5L0,-3.0L2.5,-0.5"/>
                </g>
                <g id="arrowLeft" xlink:href="#dirArrow" transform="rotate(270) translate(-36 17)" onmousedown="handlePan(-1,0)">
                  <use xlink:href="#rim" fill="#404040">
                        <set attributeName="fill" to="#808080" begin="arrowLeft.mouseover" end="arrowLeft.mouseout"/>
                  </use>
                  <path fill="none" stroke="white" stroke-width="1.5" d="M0,-3.0v7 M-2.5,-0.5L0,-3.0L2.5,-0.5"/>
                </g>
        </g>
        <svg viewBox="0 0 15 15" width="100%" height="30px" preserveAspectRatio="xMaxYMin meet">
         <g id="arrow_out" transform="scale(0.3 0.3)">
          <a xlink:href="ndt__amcl__node_8hpp__incl_org.svg" target="_base">
           <rect id="button" ry="5" rx="5" y="6" x="6" height="38" width="38"
                fill="#f2f5e9" fill-opacity="0.5" stroke="#606060" stroke-width="1.0"/>
           <path id="arrow"
             d="M 11.500037,31.436501 C 11.940474,20.09759 22.043105,11.32322 32.158766,21.979434 L 37.068811,17.246167 C 37.068811,17.246167 37.088388,32 37.088388,32 L 22.160133,31.978069 C 22.160133,31.978069 26.997745,27.140456 26.997745,27.140456 C 18.528582,18.264221 13.291696,25.230495 11.500037,31.436501 z"
             style="fill:#404040;"/>
          </a>
         </g>
        </svg>
</svg>
