<?xml version="1.0" encoding="UTF-8" standalone="no"?>
<!DOCTYPE svg PUBLIC "-//W3C//DTD SVG 1.1//EN"
 "http://www.w3.org/Graphics/SVG/1.1/DTD/svg11.dtd">
<!-- Generated by graphviz version 2.43.0 (0)
 -->
<!-- Title: /home/runner/work/beluga/beluga/beluga_amcl/include/beluga_amcl/ndt_amcl_node.hpp Pages: 1 -->
<!--zoomable 117 -->
<svg id="main" version="1.1" xmlns="http://www.w3.org/2000/svg" xmlns:xlink="http://www.w3.org/1999/xlink" xml:space="preserve" onload="init(evt)">
<style type="text/css"><![CDATA[
.edge:hover path { stroke: red; }
.edge:hover polygon { stroke: red; fill: red; }
]]></style>
<script type="text/javascript"><![CDATA[
var edges = document.getElementsByTagName('g');
if (edges && edges.length) {
  for (var i=0;i<edges.length;i++) {
    if (edges[i].id.substr(0,4)=='edge') {
      edges[i].setAttribute('class','edge');
    }
  }
}
]]></script>
        <defs>
                <circle id="rim" cx="0" cy="0" r="7"/>
                <circle id="rim2" cx="0" cy="0" r="3.5"/>
                <g id="zoomPlus">
                        <use xlink:href="#rim" fill="#404040">
                                <set attributeName="fill" to="#808080" begin="zoomplus.mouseover" end="zoomplus.mouseout"/>
                        </use>
                        <path d="M-4,0h8M0,-4v8" fill="none" stroke="white" stroke-width="1.5" pointer-events="none"/>
                </g>
                <g id="zoomMin">
                        <use xlink:href="#rim" fill="#404040">
                                <set attributeName="fill" to="#808080" begin="zoomminus.mouseover" end="zoomminus.mouseout"/>
                        </use>
                        <path d="M-4,0h8" fill="none" stroke="white" stroke-width="1.5" pointer-events="none"/>
                </g>
                <g id="dirArrow">
                        <path fill="none" stroke="white" stroke-width="1.5" d="M0,-3.0v7 M-2.5,-0.5L0,-3.0L2.5,-0.5"/>
                </g>
               <g id="resetDef">
                       <use xlink:href="#rim2" fill="#404040">
                               <set attributeName="fill" to="#808080" begin="reset.mouseover" end="reset.mouseout"/>
                       </use>
               </g>
        </defs>

<script type="text/javascript">
var viewWidth = 3924;
var viewHeight = 117;
var sectionId = 'dynsection-0';
</script>
<script xlink:href="svgpan.js"/>
<svg id="graph" class="graph">
<g id="viewport">
<title>/home/runner/work/beluga/beluga/beluga_amcl/include/beluga_amcl/ndt_amcl_node.hpp</title>
<!-- Node1 -->
<g id="node1" class="node">
<title>Node1</title>
<g id="a_node1"><a xlink:title="ROS 2 integration of the 2D NDT&#45;AMCL algorithm.">
<polygon fill="#bfbfbf" stroke="black" points="1933,-67.5 1933,-108.5 2113,-108.5 2113,-67.5 1933,-67.5"/>
<text text-anchor="start" x="1941" y="-96.5" font-family="Helvetica,sans-Serif" font-size="10.00">/home/runner/work/beluga</text>
<text text-anchor="start" x="1941" y="-85.5" font-family="Helvetica,sans-Serif" font-size="10.00">/beluga/beluga_amcl/include</text>
<text text-anchor="middle" x="2023" y="-74.5" font-family="Helvetica,sans-Serif" font-size="10.00">/beluga_amcl/ndt_amcl_node.hpp</text>
</a>
</g>
</g>
<!-- Node2 -->
<g id="node2" class="node">
<title>Node2</title>
<g id="a_node2"><a xlink:title=" ">
<polygon fill="none" stroke="#bfbfbf" points="0,-6 0,-25 90,-25 90,-6 0,-6"/>
<text text-anchor="middle" x="45" y="-13" font-family="Helvetica,sans-Serif" font-size="10.00">tf2_ros/buffer.h</text>
</a>
</g>
</g>
<!-- Node1&#45;&gt;Node2 -->
<g id="edge1" class="edge">
<title>Node1&#45;&gt;Node2</title>
<path fill="none" stroke="midnightblue" d="M1932.8,-87.16C1602.5,-87.31 459.59,-83.92 99,-31 93.42,-30.18 87.59,-28.99 81.91,-27.63"/>
<polygon fill="midnightblue" stroke="midnightblue" points="82.49,-24.16 71.93,-25.06 80.74,-30.94 82.49,-24.16"/>
</g>
<!-- Node3 -->
<g id="node3" class="node">
<title>Node3</title>
<g id="a_node3"><a xlink:title=" ">
<polygon fill="none" stroke="#bfbfbf" points="108,-6 108,-25 242,-25 242,-6 108,-6"/>
<text text-anchor="middle" x="175" y="-13" font-family="Helvetica,sans-Serif" font-size="10.00">tf2_ros/message_filter.h</text>
</a>
</g>
</g>
<!-- Node1&#45;&gt;Node3 -->
<g id="edge2" class="edge">
<title>Node1&#45;&gt;Node3</title>
<path fill="none" stroke="midnightblue" d="M1932.84,-86.02C1619.96,-82.34 582.07,-67.59 251,-31 242.08,-30.01 232.63,-28.55 223.54,-26.94"/>
<polygon fill="midnightblue" stroke="midnightblue" points="223.96,-23.45 213.49,-25.06 222.67,-30.33 223.96,-23.45"/>
</g>
<!-- Node4 -->
<g id="node4" class="node">
<title>Node4</title>
<g id="a_node4"><a xlink:title=" ">
<polygon fill="none" stroke="#bfbfbf" points="260.5,-6 260.5,-25 433.5,-25 433.5,-6 260.5,-6"/>
<text text-anchor="middle" x="347" y="-13" font-family="Helvetica,sans-Serif" font-size="10.00">tf2_ros/transform_broadcaster.h</text>
</a>
</g>
</g>
<!-- Node1&#45;&gt;Node4 -->
<g id="edge3" class="edge">
<title>Node1&#45;&gt;Node4</title>
<path fill="none" stroke="midnightblue" d="M1932.81,-87.41C1690.96,-87.73 1008.05,-83.51 443,-31 431.07,-29.89 418.36,-28.28 406.23,-26.53"/>
<polygon fill="midnightblue" stroke="midnightblue" points="406.61,-23.05 396.2,-25.04 405.57,-29.97 406.61,-23.05"/>
</g>
<!-- Node5 -->
<g id="node5" class="node">
<title>Node5</title>
<g id="a_node5"><a xlink:title=" ">
<polygon fill="none" stroke="#bfbfbf" points="452,-6 452,-25 604,-25 604,-6 452,-6"/>
<text text-anchor="middle" x="528" y="-13" font-family="Helvetica,sans-Serif" font-size="10.00">tf2_ros/transform_listener.h</text>
</a>
</g>
</g>
<!-- Node1&#45;&gt;Node5 -->
<g id="edge4" class="edge">
<title>Node1&#45;&gt;Node5</title>
<path fill="none" stroke="midnightblue" d="M1932.81,-87.45C1708.82,-87.69 1109.44,-82.98 613,-31 602.84,-29.94 592.05,-28.41 581.7,-26.74"/>
<polygon fill="midnightblue" stroke="midnightblue" points="581.97,-23.24 571.53,-25.04 580.81,-30.14 581.97,-23.24"/>
</g>
<!-- Node6 -->
<g id="node6" class="node">
<title>Node6</title>
<g id="a_node6"><a target="_parent" xlink:href="../../../../../../beluga/docs/_doxygen/generated/reference/html/beluga_8hpp.html.html" xlink:title=" ">
<polygon fill="none" stroke="black" points="622.5,-6 622.5,-25 729.5,-25 729.5,-6 622.5,-6"/>
<text text-anchor="middle" x="676" y="-13" font-family="Helvetica,sans-Serif" font-size="10.00">beluga/beluga.hpp</text>
</a>
</g>
</g>
<!-- Node1&#45;&gt;Node6 -->
<g id="edge5" class="edge">
<title>Node1&#45;&gt;Node6</title>
<path fill="none" stroke="midnightblue" d="M1932.79,-85.25C1680.21,-80.02 969.31,-62.81 738,-31 731.23,-30.07 724.12,-28.74 717.22,-27.27"/>
<polygon fill="midnightblue" stroke="midnightblue" points="717.86,-23.82 707.33,-25.02 716.31,-30.65 717.86,-23.82"/>
</g>
<!-- Node7 -->
<g id="node7" class="node">
<title>Node7</title>
<g id="a_node7"><a target="_parent" xlink:href="../../../../../../beluga/docs/_doxygen/generated/reference/html/differential__drive__model_8hpp.html.html" xlink:title=" ">
<polygon fill="none" stroke="black" points="747.5,-0.5 747.5,-30.5 890.5,-30.5 890.5,-0.5 747.5,-0.5"/>
<text text-anchor="start" x="755.5" y="-18.5" font-family="Helvetica,sans-Serif" font-size="10.00">beluga/motion/differential</text>
<text text-anchor="middle" x="819" y="-7.5" font-family="Helvetica,sans-Serif" font-size="10.00">_drive_model.hpp</text>
</a>
</g>
</g>
<!-- Node1&#45;&gt;Node7 -->
<g id="edge6" class="edge">
<title>Node1&#45;&gt;Node7</title>
<path fill="none" stroke="midnightblue" d="M1932.71,-86.46C1743.08,-84.47 1289.46,-75.18 900.92,-31.13"/>
<polygon fill="midnightblue" stroke="midnightblue" points="901.23,-27.64 890.89,-29.98 900.43,-34.6 901.23,-27.64"/>
</g>
<!-- Node8 -->
<g id="node8" class="node">
<title>Node8</title>
<g id="a_node8"><a target="_parent" xlink:href="../../../../../../beluga/docs/_doxygen/generated/reference/html/omnidirectional__drive__model_8hpp.html.html" xlink:title=" ">
<polygon fill="none" stroke="black" points="908.5,-0.5 908.5,-30.5 1075.5,-30.5 1075.5,-0.5 908.5,-0.5"/>
<text text-anchor="start" x="916.5" y="-18.5" font-family="Helvetica,sans-Serif" font-size="10.00">beluga/motion/omnidirectional</text>
<text text-anchor="middle" x="992" y="-7.5" font-family="Helvetica,sans-Serif" font-size="10.00">_drive_model.hpp</text>
</a>
</g>
</g>
<!-- Node1&#45;&gt;Node8 -->
<g id="edge7" class="edge">
<title>Node1&#45;&gt;Node8</title>
<path fill="none" stroke="midnightblue" d="M1932.87,-84.47C1767.23,-79.19 1403.14,-64.68 1085.92,-31.02"/>
<polygon fill="midnightblue" stroke="midnightblue" points="1085.92,-27.5 1075.6,-29.92 1085.17,-34.46 1085.92,-27.5"/>
</g>
<!-- Node9 -->
<g id="node9" class="node">
<title>Node9</title>
<g id="a_node9"><a target="_parent" xlink:href="../../../../../../beluga/docs/_doxygen/generated/reference/html/stationary__model_8hpp.html.html" xlink:title=" ">
<polygon fill="none" stroke="black" points="1094,-0.5 1094,-30.5 1234,-30.5 1234,-0.5 1094,-0.5"/>
<text text-anchor="start" x="1102" y="-18.5" font-family="Helvetica,sans-Serif" font-size="10.00">beluga/motion/stationary</text>
<text text-anchor="middle" x="1164" y="-7.5" font-family="Helvetica,sans-Serif" font-size="10.00">_model.hpp</text>
</a>
</g>
</g>
<!-- Node1&#45;&gt;Node9 -->
<g id="edge8" class="edge">
<title>Node1&#45;&gt;Node9</title>
<path fill="none" stroke="midnightblue" d="M1932.9,-83.75C1789.26,-77.85 1499.42,-63.05 1244.35,-31.08"/>
<polygon fill="midnightblue" stroke="midnightblue" points="1244.51,-27.57 1234.15,-29.79 1243.63,-34.52 1244.51,-27.57"/>
</g>
<!-- Node10 -->
<g id="node10" class="node">
<title>Node10</title>
<g id="a_node10"><a target="_parent" xlink:href="../../../../../../beluga/docs/_doxygen/generated/reference/html/primitives_8hpp.html.html" xlink:title=" ">
<polygon fill="none" stroke="black" points="1252.5,-6 1252.5,-25 1375.5,-25 1375.5,-6 1252.5,-6"/>
<text text-anchor="middle" x="1314" y="-13" font-family="Helvetica,sans-Serif" font-size="10.00">beluga/primitives.hpp</text>
</a>
</g>
</g>
<!-- Node1&#45;&gt;Node10 -->
<g id="edge9" class="edge">
<title>Node1&#45;&gt;Node10</title>
<path fill="none" stroke="midnightblue" d="M1932.82,-82.33C1808.89,-75.17 1579.2,-59.26 1385,-31 1377.47,-29.9 1369.53,-28.52 1361.8,-27.04"/>
<polygon fill="midnightblue" stroke="midnightblue" points="1362.3,-23.57 1351.81,-25.05 1360.94,-30.43 1362.3,-23.57"/>
</g>
<!-- Node11 -->
<g id="node11" class="node">
<title>Node11</title>
<g id="a_node11"><a xlink:title=" ">
<polygon fill="none" stroke="#bfbfbf" points="1394,-0.5 1394,-30.5 1504,-30.5 1504,-0.5 1394,-0.5"/>
<text text-anchor="start" x="1402" y="-18.5" font-family="Helvetica,sans-Serif" font-size="10.00">beluga/sensor/data</text>
<text text-anchor="middle" x="1449" y="-7.5" font-family="Helvetica,sans-Serif" font-size="10.00">/ndt_cell.hpp</text>
</a>
</g>
</g>
<!-- Node1&#45;&gt;Node11 -->
<g id="edge10" class="edge">
<title>Node1&#45;&gt;Node11</title>
<path fill="none" stroke="midnightblue" d="M1932.75,-80.2C1832.69,-71.96 1666.38,-56.18 1514.09,-31.06"/>
<polygon fill="midnightblue" stroke="midnightblue" points="1514.52,-27.59 1504.08,-29.4 1513.37,-34.49 1514.52,-27.59"/>
</g>
<!-- Node12 -->
<g id="node12" class="node">
<title>Node12</title>
<g id="a_node12"><a target="_parent" xlink:href="../../../../../../beluga/docs/_doxygen/generated/reference/html/sparse__value__grid_8hpp.html.html" xlink:title=" ">
<polygon fill="none" stroke="black" points="1522.5,-0.5 1522.5,-30.5 1651.5,-30.5 1651.5,-0.5 1522.5,-0.5"/>
<text text-anchor="start" x="1530.5" y="-18.5" font-family="Helvetica,sans-Serif" font-size="10.00">beluga/sensor/data</text>
<text text-anchor="middle" x="1587" y="-7.5" font-family="Helvetica,sans-Serif" font-size="10.00">/sparse_value_grid.hpp</text>
</a>
</g>
</g>
<!-- Node1&#45;&gt;Node12 -->
<g id="edge11" class="edge">
<title>Node1&#45;&gt;Node12</title>
<path fill="none" stroke="midnightblue" d="M1932.94,-74.21C1861.82,-63.85 1759.83,-48.43 1661.92,-31.3"/>
<polygon fill="midnightblue" stroke="midnightblue" points="1662.31,-27.82 1651.85,-29.53 1661.09,-34.71 1662.31,-27.82"/>
</g>
<!-- Node13 -->
<g id="node13" class="node">
<title>Node13</title>
<g id="a_node13"><a xlink:title=" ">
<polygon fill="none" stroke="#bfbfbf" points="1669.5,-0.5 1669.5,-30.5 1810.5,-30.5 1810.5,-0.5 1669.5,-0.5"/>
<text text-anchor="start" x="1677.5" y="-18.5" font-family="Helvetica,sans-Serif" font-size="10.00">beluga/sensor/ndt_sensor</text>
<text text-anchor="middle" x="1740" y="-7.5" font-family="Helvetica,sans-Serif" font-size="10.00">_model.hpp</text>
</a>
</g>
</g>
<!-- Node1&#45;&gt;Node13 -->
<g id="edge12" class="edge">
<title>Node1&#45;&gt;Node13</title>
<path fill="none" stroke="midnightblue" d="M1944.54,-67.46C1901.17,-56.65 1847.87,-43.37 1806.55,-33.08"/>
<polygon fill="midnightblue" stroke="midnightblue" points="1807.14,-29.62 1796.59,-30.6 1805.44,-36.41 1807.14,-29.62"/>
</g>
<!-- Node14 -->
<g id="node14" class="node">
<title>Node14</title>
<g id="a_node14"><a xlink:title=" ">
<polygon fill="none" stroke="#bfbfbf" points="1829,-6 1829,-25 1893,-25 1893,-6 1829,-6"/>
<text text-anchor="middle" x="1861" y="-13" font-family="Helvetica,sans-Serif" font-size="10.00">execution</text>
</a>
</g>
</g>
<!-- Node1&#45;&gt;Node14 -->
<g id="edge13" class="edge">
<title>Node1&#45;&gt;Node14</title>
<path fill="none" stroke="midnightblue" d="M1977.87,-67.36C1949.9,-55.19 1914.76,-39.9 1890.36,-29.28"/>
<polygon fill="midnightblue" stroke="midnightblue" points="1891.5,-25.95 1880.93,-25.17 1888.7,-32.37 1891.5,-25.95"/>
</g>
<!-- Node15 -->
<g id="node15" class="node">
<title>Node15</title>
<g id="a_node15"><a xlink:title=" ">
<polygon fill="none" stroke="#bfbfbf" points="1911.5,-6 1911.5,-25 1976.5,-25 1976.5,-6 1911.5,-6"/>
<text text-anchor="middle" x="1944" y="-13" font-family="Helvetica,sans-Serif" font-size="10.00">functional</text>
</a>
</g>
</g>
<!-- Node1&#45;&gt;Node15 -->
<g id="edge14" class="edge">
<title>Node1&#45;&gt;Node15</title>
<path fill="none" stroke="midnightblue" d="M2000.99,-67.36C1988.5,-56.21 1973.09,-42.46 1961.44,-32.06"/>
<polygon fill="midnightblue" stroke="midnightblue" points="1963.51,-29.22 1953.72,-25.17 1958.85,-34.44 1963.51,-29.22"/>
</g>
<!-- Node16 -->
<g id="node16" class="node">
<title>Node16</title>
<g id="a_node16"><a xlink:title=" ">
<polygon fill="none" stroke="#bfbfbf" points="1995,-6 1995,-25 2051,-25 2051,-6 1995,-6"/>
<text text-anchor="middle" x="2023" y="-13" font-family="Helvetica,sans-Serif" font-size="10.00">optional</text>
</a>
</g>
</g>
<!-- Node1&#45;&gt;Node16 -->
<g id="edge15" class="edge">
<title>Node1&#45;&gt;Node16</title>
<path fill="none" stroke="midnightblue" d="M2023,-67.36C2023,-57.3 2023,-45.1 2023,-35.18"/>
<polygon fill="midnightblue" stroke="midnightblue" points="2026.5,-35.17 2023,-25.17 2019.5,-35.17 2026.5,-35.17"/>
</g>
<!-- Node17 -->
<g id="node17" class="node">
<title>Node17</title>
<g id="a_node17"><a xlink:title=" ">
<polygon fill="none" stroke="#bfbfbf" points="2069,-6 2069,-25 2161,-25 2161,-6 2069,-6"/>
<text text-anchor="middle" x="2115" y="-13" font-family="Helvetica,sans-Serif" font-size="10.00">sophus/se2.hpp</text>
</a>
</g>
</g>
<!-- Node1&#45;&gt;Node17 -->
<g id="edge16" class="edge">
<title>Node1&#45;&gt;Node17</title>
<path fill="none" stroke="midnightblue" d="M2048.63,-67.36C2063.46,-56 2081.82,-41.92 2095.48,-31.46"/>
<polygon fill="midnightblue" stroke="midnightblue" points="2097.87,-34.03 2103.68,-25.17 2093.62,-28.48 2097.87,-34.03"/>
</g>
<!-- Node18 -->
<g id="node18" class="node">
<title>Node18</title>
<g id="a_node18"><a xlink:title=" ">
<polygon fill="none" stroke="#bfbfbf" points="2179.5,-6 2179.5,-25 2220.5,-25 2220.5,-6 2179.5,-6"/>
<text text-anchor="middle" x="2200" y="-13" font-family="Helvetica,sans-Serif" font-size="10.00">tuple</text>
</a>
</g>
</g>
<!-- Node1&#45;&gt;Node18 -->
<g id="edge17" class="edge">
<title>Node1&#45;&gt;Node18</title>
<path fill="none" stroke="midnightblue" d="M2077.55,-67.49C2105.44,-57.2 2139.78,-44.03 2170,-31 2171.2,-30.48 2172.41,-29.95 2173.64,-29.4"/>
<polygon fill="midnightblue" stroke="midnightblue" points="2175.4,-32.44 2182.98,-25.04 2172.44,-26.09 2175.4,-32.44"/>
</g>
<!-- Node19 -->
<g id="node19" class="node">
<title>Node19</title>
<g id="a_node19"><a xlink:title=" ">
<polygon fill="none" stroke="#bfbfbf" points="2238.5,-6 2238.5,-25 2289.5,-25 2289.5,-6 2238.5,-6"/>
<text text-anchor="middle" x="2264" y="-13" font-family="Helvetica,sans-Serif" font-size="10.00">variant</text>
</a>
</g>
</g>
<!-- Node1&#45;&gt;Node19 -->
<g id="edge18" class="edge">
<title>Node1&#45;&gt;Node19</title>
<path fill="none" stroke="midnightblue" d="M2105.9,-67.38C2144.07,-57.64 2189.72,-44.96 2230,-31 2231.86,-30.35 2233.77,-29.65 2235.68,-28.92"/>
<polygon fill="midnightblue" stroke="midnightblue" points="2237.17,-32.1 2245.12,-25.1 2234.54,-25.61 2237.17,-32.1"/>
</g>
<!-- Node20 -->
<g id="node20" class="node">
<title>Node20</title>
<g id="a_node20"><a xlink:title=" ">
<polygon fill="none" stroke="#bfbfbf" points="2308,-6 2308,-25 2438,-25 2438,-6 2308,-6"/>
<text text-anchor="middle" x="2373" y="-13" font-family="Helvetica,sans-Serif" font-size="10.00">Eigen/src/Core/Matrix.h</text>
</a>
</g>
</g>
<!-- Node1&#45;&gt;Node20 -->
<g id="edge19" class="edge">
<title>Node1&#45;&gt;Node20</title>
<path fill="none" stroke="midnightblue" d="M2113.13,-68.84C2178.92,-55.59 2265.81,-38.09 2320.56,-27.06"/>
<polygon fill="midnightblue" stroke="midnightblue" points="2321.29,-30.49 2330.4,-25.08 2319.9,-23.62 2321.29,-30.49"/>
</g>
<!-- Node21 -->
<g id="node21" class="node">
<title>Node21</title>
<g id="a_node21"><a xlink:title=" ">
<polygon fill="none" stroke="#bfbfbf" points="2456,-6 2456,-25 2514,-25 2514,-6 2456,-6"/>
<text text-anchor="middle" x="2485" y="-13" font-family="Helvetica,sans-Serif" font-size="10.00">H5Cpp.h</text>
</a>
</g>
</g>
<!-- Node1&#45;&gt;Node21 -->
<g id="edge20" class="edge">
<title>Node1&#45;&gt;Node21</title>
<path fill="none" stroke="midnightblue" d="M2113.07,-81.22C2199.7,-74.23 2333.81,-59.65 2447,-31 2449.82,-30.29 2452.72,-29.42 2455.6,-28.48"/>
<polygon fill="midnightblue" stroke="midnightblue" points="2456.93,-31.73 2465.17,-25.07 2454.57,-25.13 2456.93,-31.73"/>
</g>
<!-- Node22 -->
<g id="node22" class="node">
<title>Node22</title>
<g id="a_node22"><a xlink:title=" ">
<polygon fill="none" stroke="#bfbfbf" points="2532.5,-0.5 2532.5,-30.5 2659.5,-30.5 2659.5,-0.5 2532.5,-0.5"/>
<text text-anchor="start" x="2540.5" y="-18.5" font-family="Helvetica,sans-Serif" font-size="10.00">beluga/algorithm/amcl</text>
<text text-anchor="middle" x="2596" y="-7.5" font-family="Helvetica,sans-Serif" font-size="10.00">_core.hpp</text>
</a>
</g>
</g>
<!-- Node1&#45;&gt;Node22 -->
<g id="edge21" class="edge">
<title>Node1&#45;&gt;Node22</title>
<path fill="none" stroke="midnightblue" d="M2113.18,-79.21C2211.28,-70.22 2372.9,-53.87 2522.09,-31.05"/>
<polygon fill="midnightblue" stroke="midnightblue" points="2523.01,-34.45 2532.35,-29.47 2521.94,-27.54 2523.01,-34.45"/>
</g>
<!-- Node23 -->
<g id="node23" class="node">
<title>Node23</title>
<g id="a_node23"><a xlink:title=" ">
<polygon fill="none" stroke="#bfbfbf" points="2678,-6 2678,-25 2784,-25 2784,-6 2678,-6"/>
<text text-anchor="middle" x="2731" y="-13" font-family="Helvetica,sans-Serif" font-size="10.00">bondcpp/bond.hpp</text>
</a>
</g>
</g>
<!-- Node1&#45;&gt;Node23 -->
<g id="edge22" class="edge">
<title>Node1&#45;&gt;Node23</title>
<path fill="none" stroke="midnightblue" d="M2113.11,-83.27C2238.41,-77.15 2472.09,-62.39 2669,-31 2675.3,-29.99 2681.92,-28.71 2688.38,-27.31"/>
<polygon fill="midnightblue" stroke="midnightblue" points="2689.37,-30.68 2698.35,-25.06 2687.83,-23.85 2689.37,-30.68"/>
</g>
<!-- Node24 -->
<g id="node24" class="node">
<title>Node24</title>
<g id="a_node24"><a xlink:title=" ">
<polygon fill="none" stroke="#bfbfbf" points="2802,-0.5 2802,-30.5 2972,-30.5 2972,-0.5 2802,-0.5"/>
<text text-anchor="start" x="2810" y="-18.5" font-family="Helvetica,sans-Serif" font-size="10.00">geometry_msgs/msg/pose</text>
<text text-anchor="middle" x="2887" y="-7.5" font-family="Helvetica,sans-Serif" font-size="10.00">_with_covariance_stamped.hpp</text>
</a>
</g>
</g>
<!-- Node1&#45;&gt;Node24 -->
<g id="edge23" class="edge">
<title>Node1&#45;&gt;Node24</title>
<path fill="none" stroke="midnightblue" d="M2113.02,-82.81C2255.08,-75.67 2540.14,-59.23 2791.91,-31.06"/>
<polygon fill="midnightblue" stroke="midnightblue" points="2792.44,-34.53 2801.99,-29.93 2791.66,-27.57 2792.44,-34.53"/>
</g>
<!-- Node25 -->
<g id="node25" class="node">
<title>Node25</title>
<g id="a_node25"><a xlink:title=" ">
<polygon fill="none" stroke="#bfbfbf" points="2990,-0.5 2990,-30.5 3126,-30.5 3126,-0.5 2990,-0.5"/>
<text text-anchor="start" x="2998" y="-18.5" font-family="Helvetica,sans-Serif" font-size="10.00">nav2_msgs/msg/particle</text>
<text text-anchor="middle" x="3058" y="-7.5" font-family="Helvetica,sans-Serif" font-size="10.00">_cloud.hpp</text>
</a>
</g>
</g>
<!-- Node1&#45;&gt;Node25 -->
<g id="edge24" class="edge">
<title>Node1&#45;&gt;Node25</title>
<path fill="none" stroke="midnightblue" d="M2113.16,-85.56C2281.63,-82.04 2655.74,-70.26 2979.59,-31.07"/>
<polygon fill="midnightblue" stroke="midnightblue" points="2980.13,-34.53 2989.64,-29.84 2979.29,-27.58 2980.13,-34.53"/>
</g>
<!-- Node26 -->
<g id="node26" class="node">
<title>Node26</title>
<g id="a_node26"><a xlink:title=" ">
<polygon fill="none" stroke="#bfbfbf" points="3144.5,-0.5 3144.5,-30.5 3281.5,-30.5 3281.5,-0.5 3144.5,-0.5"/>
<text text-anchor="start" x="3152.5" y="-18.5" font-family="Helvetica,sans-Serif" font-size="10.00">rclcpp_lifecycle/lifecycle</text>
<text text-anchor="middle" x="3213" y="-7.5" font-family="Helvetica,sans-Serif" font-size="10.00">_node.hpp</text>
</a>
</g>
</g>
<!-- Node1&#45;&gt;Node26 -->
<g id="edge25" class="edge">
<title>Node1&#45;&gt;Node26</title>
<path fill="none" stroke="midnightblue" d="M2113.07,-86.53C2301.13,-84.67 2749.3,-75.6 3134.23,-30.97"/>
<polygon fill="midnightblue" stroke="midnightblue" points="3134.65,-34.45 3144.17,-29.81 3133.83,-27.5 3134.65,-34.45"/>
</g>
<!-- Node27 -->
<g id="node27" class="node">
<title>Node27</title>
<g id="a_node27"><a xlink:title=" ">
<polygon fill="none" stroke="#bfbfbf" points="3299.5,-0.5 3299.5,-30.5 3430.5,-30.5 3430.5,-0.5 3299.5,-0.5"/>
<text text-anchor="start" x="3307.5" y="-18.5" font-family="Helvetica,sans-Serif" font-size="10.00">sensor_msgs/msg/laser</text>
<text text-anchor="middle" x="3365" y="-7.5" font-family="Helvetica,sans-Serif" font-size="10.00">_scan.hpp</text>
</a>
</g>
</g>
<!-- Node1&#45;&gt;Node27 -->
<g id="edge26" class="edge">
<title>Node1&#45;&gt;Node27</title>
<path fill="none" stroke="midnightblue" d="M2113.31,-87.63C2320.09,-88.07 2843.75,-83.51 3289.14,-31.11"/>
<polygon fill="midnightblue" stroke="midnightblue" points="3289.8,-34.55 3299.31,-29.9 3288.97,-27.6 3289.8,-34.55"/>
</g>
<!-- Node28 -->
<g id="node28" class="node">
<title>Node28</title>
<g id="a_node28"><a xlink:title=" ">
<polygon fill="none" stroke="#bfbfbf" points="3448.5,-6 3448.5,-25 3577.5,-25 3577.5,-6 3448.5,-6"/>
<text text-anchor="middle" x="3513" y="-13" font-family="Helvetica,sans-Serif" font-size="10.00">std_srvs/srv/empty.hpp</text>
</a>
</g>
</g>
<!-- Node1&#45;&gt;Node28 -->
<g id="edge27" class="edge">
<title>Node1&#45;&gt;Node28</title>
<path fill="none" stroke="midnightblue" d="M2113.13,-85.29C2382.93,-79.86 3181.45,-61.6 3440,-31 3448.48,-30 3457.46,-28.54 3466.1,-26.94"/>
<polygon fill="midnightblue" stroke="midnightblue" points="3466.89,-30.35 3476.04,-25.01 3465.56,-23.48 3466.89,-30.35"/>
</g>
<!-- Node29 -->
<g id="node29" class="node">
<title>Node29</title>
<g id="a_node29"><a target="_parent" xlink:href="../../../../../../beluga_ros/docs/_doxygen/generated/reference/html/laser__scan_8hpp.html.html" xlink:title=" ">
<polygon fill="none" stroke="black" points="3596,-6 3596,-25 3742,-25 3742,-6 3596,-6"/>
<text text-anchor="middle" x="3669" y="-13" font-family="Helvetica,sans-Serif" font-size="10.00">beluga_ros/laser_scan.hpp</text>
</a>
</g>
</g>
<!-- Node1&#45;&gt;Node29 -->
<g id="edge28" class="edge">
<title>Node1&#45;&gt;Node29</title>
<path fill="none" stroke="midnightblue" d="M2113.14,-85.42C2401.33,-80.13 3298.23,-61.55 3587,-31 3596.92,-29.95 3607.45,-28.41 3617.54,-26.73"/>
<polygon fill="midnightblue" stroke="midnightblue" points="3618.19,-30.17 3627.44,-25.01 3616.99,-23.27 3618.19,-30.17"/>
</g>
<!-- Node30 -->
<g id="node30" class="node">
<title>Node30</title>
<g id="a_node30"><a xlink:title=" ">
<polygon fill="none" stroke="#bfbfbf" points="3760.5,-6 3760.5,-25 3915.5,-25 3915.5,-6 3760.5,-6"/>
<text text-anchor="middle" x="3838" y="-13" font-family="Helvetica,sans-Serif" font-size="10.00">message_filters/subscriber.h</text>
</a>
</g>
</g>
<!-- Node1&#45;&gt;Node30 -->
<g id="edge29" class="edge">
<title>Node1&#45;&gt;Node30</title>
<path fill="none" stroke="midnightblue" d="M2113.02,-85.66C2420.59,-80.85 3428.5,-62.96 3751,-31 3761.62,-29.95 3772.91,-28.39 3783.72,-26.69"/>
<polygon fill="midnightblue" stroke="midnightblue" points="3784.59,-30.09 3793.89,-25.02 3783.46,-23.18 3784.59,-30.09"/>
</g>
</g>
</svg>
        <g id="navigator" transform="translate(0 0)" fill="#404254">
                <rect fill="#f2f5e9" fill-opacity="0.5" stroke="#606060" stroke-width=".5" x="0" y="0" width="60" height="60"/>
                <use id="zoomplus" xlink:href="#zoomPlus" x="17" y="9" onmousedown="handleZoom(evt,'in')"/>
                <use id="zoomminus" xlink:href="#zoomMin" x="42" y="9" onmousedown="handleZoom(evt,'out')"/>
                <use id="reset" xlink:href="#resetDef" x="30" y="36" onmousedown="handleReset()"/>
                <g id="arrowUp" xlink:href="#dirArrow" transform="translate(30 24)" onmousedown="handlePan(0,-1)">
                  <use xlink:href="#rim" fill="#404040">
                        <set attributeName="fill" to="#808080" begin="arrowUp.mouseover" end="arrowUp.mouseout"/>
                  </use>
                  <path fill="none" stroke="white" stroke-width="1.5" d="M0,-3.0v7 M-2.5,-0.5L0,-3.0L2.5,-0.5"/>
                </g>
                <g id="arrowRight" xlink:href="#dirArrow" transform="rotate(90) translate(36 -43)" onmousedown="handlePan(1,0)">
                  <use xlink:href="#rim" fill="#404040">
                        <set attributeName="fill" to="#808080" begin="arrowRight.mouseover" end="arrowRight.mouseout"/>
                  </use>
                  <path fill="none" stroke="white" stroke-width="1.5" d="M0,-3.0v7 M-2.5,-0.5L0,-3.0L2.5,-0.5"/>
                </g>
                <g id="arrowDown" xlink:href="#dirArrow" transform="rotate(180) translate(-30 -48)" onmousedown="handlePan(0,1)">
                  <use xlink:href="#rim" fill="#404040">
                        <set attributeName="fill" to="#808080" begin="arrowDown.mouseover" end="arrowDown.mouseout"/>
                  </use>
                  <path fill="none" stroke="white" stroke-width="1.5" d="M0,-3.0v7 M-2.5,-0.5L0,-3.0L2.5,-0.5"/>
                </g>
                <g id="arrowLeft" xlink:href="#dirArrow" transform="rotate(270) translate(-36 17)" onmousedown="handlePan(-1,0)">
                  <use xlink:href="#rim" fill="#404040">
                        <set attributeName="fill" to="#808080" begin="arrowLeft.mouseover" end="arrowLeft.mouseout"/>
                  </use>
                  <path fill="none" stroke="white" stroke-width="1.5" d="M0,-3.0v7 M-2.5,-0.5L0,-3.0L2.5,-0.5"/>
                </g>
        </g>
        <svg viewBox="0 0 15 15" width="100%" height="30px" preserveAspectRatio="xMaxYMin meet">
         <g id="arrow_out" transform="scale(0.3 0.3)">
          <a xlink:href="ndt__amcl__node_8hpp__incl_org.svg" target="_base">
           <rect id="button" ry="5" rx="5" y="6" x="6" height="38" width="38"
                fill="#f2f5e9" fill-opacity="0.5" stroke="#606060" stroke-width="1.0"/>
           <path id="arrow"
             d="M 11.500037,31.436501 C 11.940474,20.09759 22.043105,11.32322 32.158766,21.979434 L 37.068811,17.246167 C 37.068811,17.246167 37.088388,32 37.088388,32 L 22.160133,31.978069 C 22.160133,31.978069 26.997745,27.140456 26.997745,27.140456 C 18.528582,18.264221 13.291696,25.230495 11.500037,31.436501 z"
             style="fill:#404040;"/>
          </a>
         </g>
        </svg>
</svg>
