<?xml version="1.0" encoding="UTF-8" standalone="no"?>
<!DOCTYPE svg PUBLIC "-//W3C//DTD SVG 1.1//EN"
 "http://www.w3.org/Graphics/SVG/1.1/DTD/svg11.dtd">
<!-- Generated by graphviz version 2.43.0 (0)
 -->
<!-- Title: /home/runner/work/beluga/beluga/beluga_amcl/include/beluga_amcl/ndt_amcl_node.hpp Pages: 1 -->
<!--zoomable 184 -->
<svg id="main" version="1.1" xmlns="http://www.w3.org/2000/svg" xmlns:xlink="http://www.w3.org/1999/xlink" xml:space="preserve" onload="init(evt)">
<style type="text/css"><![CDATA[
.edge:hover path { stroke: red; }
.edge:hover polygon { stroke: red; fill: red; }
]]></style>
<script type="text/javascript"><![CDATA[
var edges = document.getElementsByTagName('g');
if (edges && edges.length) {
  for (var i=0;i<edges.length;i++) {
    if (edges[i].id.substr(0,4)=='edge') {
      edges[i].setAttribute('class','edge');
    }
  }
}
]]></script>
        <defs>
                <circle id="rim" cx="0" cy="0" r="7"/>
                <circle id="rim2" cx="0" cy="0" r="3.5"/>
                <g id="zoomPlus">
                        <use xlink:href="#rim" fill="#404040">
                                <set attributeName="fill" to="#808080" begin="zoomplus.mouseover" end="zoomplus.mouseout"/>
                        </use>
                        <path d="M-4,0h8M0,-4v8" fill="none" stroke="white" stroke-width="1.5" pointer-events="none"/>
                </g>
                <g id="zoomMin">
                        <use xlink:href="#rim" fill="#404040">
                                <set attributeName="fill" to="#808080" begin="zoomminus.mouseover" end="zoomminus.mouseout"/>
                        </use>
                        <path d="M-4,0h8" fill="none" stroke="white" stroke-width="1.5" pointer-events="none"/>
                </g>
                <g id="dirArrow">
                        <path fill="none" stroke="white" stroke-width="1.5" d="M0,-3.0v7 M-2.5,-0.5L0,-3.0L2.5,-0.5"/>
                </g>
               <g id="resetDef">
                       <use xlink:href="#rim2" fill="#404040">
                               <set attributeName="fill" to="#808080" begin="reset.mouseover" end="reset.mouseout"/>
                       </use>
               </g>
        </defs>

<script type="text/javascript">
var viewWidth = 4247;
var viewHeight = 184;
var sectionId = 'dynsection-0';
</script>
<script xlink:href="svgpan.js"/>
<svg id="graph" class="graph">
<g id="viewport">
<title>/home/runner/work/beluga/beluga/beluga_amcl/include/beluga_amcl/ndt_amcl_node.hpp</title>
<!-- Node1 -->
<g id="node1" class="node">
<title>Node1</title>
<g id="a_node1"><a xlink:title="ROS 2 integration of the 2D NDT&#45;AMCL algorithm.">
<polygon fill="#bfbfbf" stroke="black" points="2116.5,-134.5 2116.5,-175.5 2296.5,-175.5 2296.5,-134.5 2116.5,-134.5"/>
<text text-anchor="start" x="2124.5" y="-163.5" font-family="Helvetica,sans-Serif" font-size="10.00">/home/runner/work/beluga</text>
<text text-anchor="start" x="2124.5" y="-152.5" font-family="Helvetica,sans-Serif" font-size="10.00">/beluga/beluga_amcl/include</text>
<text text-anchor="middle" x="2206.5" y="-141.5" font-family="Helvetica,sans-Serif" font-size="10.00">/beluga_amcl/ndt_amcl_node.hpp</text>
</a>
</g>
</g>
<!-- Node2 -->
<g id="node2" class="node">
<title>Node2</title>
<g id="a_node2"><a xlink:title=" ">
<polygon fill="none" stroke="#bfbfbf" points="324.5,-73 324.5,-92 414.5,-92 414.5,-73 324.5,-73"/>
<text text-anchor="middle" x="369.5" y="-80" font-family="Helvetica,sans-Serif" font-size="10.00">tf2_ros/buffer.h</text>
</a>
</g>
</g>
<!-- Node1&#45;&gt;Node2 -->
<g id="edge1" class="edge">
<title>Node1&#45;&gt;Node2</title>
<path fill="none" stroke="midnightblue" d="M2116.48,-153.92C1802.28,-153.2 755.33,-147.09 423.5,-98 417.92,-97.17 412.09,-95.98 406.41,-94.62"/>
<polygon fill="midnightblue" stroke="midnightblue" points="406.99,-91.15 396.44,-92.04 405.24,-97.93 406.99,-91.15"/>
</g>
<!-- Node3 -->
<g id="node3" class="node">
<title>Node3</title>
<g id="a_node3"><a xlink:title=" ">
<polygon fill="none" stroke="#bfbfbf" points="432.5,-73 432.5,-92 566.5,-92 566.5,-73 432.5,-73"/>
<text text-anchor="middle" x="499.5" y="-80" font-family="Helvetica,sans-Serif" font-size="10.00">tf2_ros/message_filter.h</text>
</a>
</g>
</g>
<!-- Node1&#45;&gt;Node3 -->
<g id="edge2" class="edge">
<title>Node1&#45;&gt;Node3</title>
<path fill="none" stroke="midnightblue" d="M2116.43,-152.59C1820.81,-147.71 881.92,-130 580.5,-98 570.8,-96.97 560.51,-95.46 550.64,-93.79"/>
<polygon fill="midnightblue" stroke="midnightblue" points="551,-90.3 540.54,-92.02 549.79,-97.2 551,-90.3"/>
</g>
<!-- Node4 -->
<g id="node4" class="node">
<title>Node4</title>
<g id="a_node4"><a xlink:title=" ">
<polygon fill="none" stroke="#bfbfbf" points="0,-6 0,-25 173,-25 173,-6 0,-6"/>
<text text-anchor="middle" x="86.5" y="-13" font-family="Helvetica,sans-Serif" font-size="10.00">tf2_ros/transform_broadcaster.h</text>
</a>
</g>
</g>
<!-- Node1&#45;&gt;Node4 -->
<g id="edge3" class="edge">
<title>Node1&#45;&gt;Node4</title>
<path fill="none" stroke="midnightblue" d="M2116.49,-154.53C1799.66,-155.88 747.57,-155.91 608.5,-98 589.92,-90.26 593.85,-75.26 575.5,-67 495.52,-31.02 269.56,-41.55 182.5,-31 171.74,-29.7 160.33,-28.13 149.27,-26.52"/>
<polygon fill="midnightblue" stroke="midnightblue" points="149.65,-23.04 139.24,-25.03 148.62,-29.96 149.65,-23.04"/>
</g>
<!-- Node5 -->
<g id="node5" class="node">
<title>Node5</title>
<g id="a_node5"><a xlink:title=" ">
<polygon fill="none" stroke="#bfbfbf" points="191.5,-6 191.5,-25 343.5,-25 343.5,-6 191.5,-6"/>
<text text-anchor="middle" x="267.5" y="-13" font-family="Helvetica,sans-Serif" font-size="10.00">tf2_ros/transform_listener.h</text>
</a>
</g>
</g>
<!-- Node1&#45;&gt;Node5 -->
<g id="edge4" class="edge">
<title>Node1&#45;&gt;Node5</title>
<path fill="none" stroke="midnightblue" d="M2116.35,-154.1C1804.6,-154 783.78,-149.68 646.5,-98 626.1,-90.32 628.47,-75.73 608.5,-67 503.22,-20.99 466.03,-48.66 352.5,-31 343.9,-29.66 334.83,-28.18 325.93,-26.7"/>
<polygon fill="midnightblue" stroke="midnightblue" points="326.45,-23.24 316.01,-25.03 325.29,-30.14 326.45,-23.24"/>
</g>
<!-- Node6 -->
<g id="node6" class="node">
<title>Node6</title>
<g id="a_node6"><a target="_parent" xlink:href="../../../../../../beluga/docs/_doxygen/generated/reference/html/beluga_8hpp.html.html" xlink:title=" ">
<polygon fill="none" stroke="black" points="927,-73 927,-92 1034,-92 1034,-73 927,-73"/>
<text text-anchor="middle" x="980.5" y="-80" font-family="Helvetica,sans-Serif" font-size="10.00">beluga/beluga.hpp</text>
</a>
</g>
</g>
<!-- Node1&#45;&gt;Node6 -->
<g id="edge5" class="edge">
<title>Node1&#45;&gt;Node6</title>
<path fill="none" stroke="midnightblue" d="M2116.49,-151.74C1880.95,-145.5 1250.38,-126.56 1043.5,-98 1036.7,-97.06 1029.56,-95.74 1022.62,-94.28"/>
<polygon fill="midnightblue" stroke="midnightblue" points="1023.19,-90.82 1012.67,-92.07 1021.67,-97.66 1023.19,-90.82"/>
</g>
<!-- Node7 -->
<g id="node7" class="node">
<title>Node7</title>
<g id="a_node7"><a target="_parent" xlink:href="../../../../../../beluga/docs/_doxygen/generated/reference/html/differential__drive__model_8hpp.html.html" xlink:title=" ">
<polygon fill="none" stroke="black" points="1052,-67.5 1052,-97.5 1195,-97.5 1195,-67.5 1052,-67.5"/>
<text text-anchor="start" x="1060" y="-85.5" font-family="Helvetica,sans-Serif" font-size="10.00">beluga/motion/differential</text>
<text text-anchor="middle" x="1123.5" y="-74.5" font-family="Helvetica,sans-Serif" font-size="10.00">_drive_model.hpp</text>
</a>
</g>
</g>
<!-- Node1&#45;&gt;Node7 -->
<g id="edge6" class="edge">
<title>Node1&#45;&gt;Node7</title>
<path fill="none" stroke="midnightblue" d="M2116.37,-152.62C1942.18,-149.16 1547.16,-137.41 1205.51,-98.02"/>
<polygon fill="midnightblue" stroke="midnightblue" points="1205.76,-94.52 1195.42,-96.84 1204.95,-101.47 1205.76,-94.52"/>
</g>
<!-- Node8 -->
<g id="node8" class="node">
<title>Node8</title>
<g id="a_node8"><a target="_parent" xlink:href="../../../../../../beluga/docs/_doxygen/generated/reference/html/omnidirectional__drive__model_8hpp.html.html" xlink:title=" ">
<polygon fill="none" stroke="black" points="1213,-67.5 1213,-97.5 1380,-97.5 1380,-67.5 1213,-67.5"/>
<text text-anchor="start" x="1221" y="-85.5" font-family="Helvetica,sans-Serif" font-size="10.00">beluga/motion/omnidirectional</text>
<text text-anchor="middle" x="1296.5" y="-74.5" font-family="Helvetica,sans-Serif" font-size="10.00">_drive_model.hpp</text>
</a>
</g>
</g>
<!-- Node1&#45;&gt;Node8 -->
<g id="edge7" class="edge">
<title>Node1&#45;&gt;Node8</title>
<path fill="none" stroke="midnightblue" d="M2116.2,-150.36C1967.19,-143.79 1660.26,-127.87 1390.1,-98"/>
<polygon fill="midnightblue" stroke="midnightblue" points="1390.43,-94.51 1380.11,-96.88 1389.66,-101.47 1390.43,-94.51"/>
</g>
<!-- Node9 -->
<g id="node9" class="node">
<title>Node9</title>
<g id="a_node9"><a target="_parent" xlink:href="../../../../../../beluga/docs/_doxygen/generated/reference/html/stationary__model_8hpp.html.html" xlink:title=" ">
<polygon fill="none" stroke="black" points="1398.5,-67.5 1398.5,-97.5 1538.5,-97.5 1538.5,-67.5 1398.5,-67.5"/>
<text text-anchor="start" x="1406.5" y="-85.5" font-family="Helvetica,sans-Serif" font-size="10.00">beluga/motion/stationary</text>
<text text-anchor="middle" x="1468.5" y="-74.5" font-family="Helvetica,sans-Serif" font-size="10.00">_model.hpp</text>
</a>
</g>
</g>
<!-- Node1&#45;&gt;Node9 -->
<g id="edge8" class="edge">
<title>Node1&#45;&gt;Node9</title>
<path fill="none" stroke="midnightblue" d="M2116.27,-149.03C1991.2,-141.53 1757.95,-125.36 1548.63,-97.92"/>
<polygon fill="midnightblue" stroke="midnightblue" points="1549.05,-94.45 1538.68,-96.61 1548.14,-101.39 1549.05,-94.45"/>
</g>
<!-- Node10 -->
<g id="node10" class="node">
<title>Node10</title>
<g id="a_node10"><a target="_parent" xlink:href="../../../../../../beluga/docs/_doxygen/generated/reference/html/primitives_8hpp.html.html" xlink:title=" ">
<polygon fill="none" stroke="black" points="1557,-73 1557,-92 1680,-92 1680,-73 1557,-73"/>
<text text-anchor="middle" x="1618.5" y="-80" font-family="Helvetica,sans-Serif" font-size="10.00">beluga/primitives.hpp</text>
</a>
</g>
</g>
<!-- Node1&#45;&gt;Node10 -->
<g id="edge9" class="edge">
<title>Node1&#45;&gt;Node10</title>
<path fill="none" stroke="midnightblue" d="M2116.04,-146.78C2012.57,-137.93 1838.25,-121.19 1689.5,-98 1682.24,-96.87 1674.59,-95.5 1667.11,-94.05"/>
<polygon fill="midnightblue" stroke="midnightblue" points="1667.56,-90.58 1657.07,-92.06 1666.2,-97.44 1667.56,-90.58"/>
</g>
<!-- Node11 -->
<g id="node11" class="node">
<title>Node11</title>
<g id="a_node11"><a xlink:title=" ">
<polygon fill="none" stroke="#bfbfbf" points="1698.5,-67.5 1698.5,-97.5 1808.5,-97.5 1808.5,-67.5 1698.5,-67.5"/>
<text text-anchor="start" x="1706.5" y="-85.5" font-family="Helvetica,sans-Serif" font-size="10.00">beluga/sensor/data</text>
<text text-anchor="middle" x="1753.5" y="-74.5" font-family="Helvetica,sans-Serif" font-size="10.00">/ndt_cell.hpp</text>
</a>
</g>
</g>
<!-- Node1&#45;&gt;Node11 -->
<g id="edge10" class="edge">
<title>Node1&#45;&gt;Node11</title>
<path fill="none" stroke="midnightblue" d="M2116.41,-142.97C2039.96,-133.16 1927.16,-117.61 1818.89,-97.98"/>
<polygon fill="midnightblue" stroke="midnightblue" points="1819.23,-94.48 1808.76,-96.13 1817.97,-101.37 1819.23,-94.48"/>
</g>
<!-- Node12 -->
<g id="node12" class="node">
<title>Node12</title>
<g id="a_node12"><a target="_parent" xlink:href="../../../../../../beluga/docs/_doxygen/generated/reference/html/sparse__value__grid_8hpp.html.html" xlink:title=" ">
<polygon fill="none" stroke="black" points="1827,-67.5 1827,-97.5 1956,-97.5 1956,-67.5 1827,-67.5"/>
<text text-anchor="start" x="1835" y="-85.5" font-family="Helvetica,sans-Serif" font-size="10.00">beluga/sensor/data</text>
<text text-anchor="middle" x="1891.5" y="-74.5" font-family="Helvetica,sans-Serif" font-size="10.00">/sparse_value_grid.hpp</text>
</a>
</g>
</g>
<!-- Node1&#45;&gt;Node12 -->
<g id="edge11" class="edge">
<title>Node1&#45;&gt;Node12</title>
<path fill="none" stroke="midnightblue" d="M2119.17,-134.46C2070.49,-123.56 2010.56,-110.15 1964.41,-99.82"/>
<polygon fill="midnightblue" stroke="midnightblue" points="1965.01,-96.37 1954.49,-97.6 1963.48,-103.2 1965.01,-96.37"/>
</g>
<!-- Node13 -->
<g id="node13" class="node">
<title>Node13</title>
<g id="a_node13"><a xlink:title=" ">
<polygon fill="none" stroke="#bfbfbf" points="1974,-67.5 1974,-97.5 2115,-97.5 2115,-67.5 1974,-67.5"/>
<text text-anchor="start" x="1982" y="-85.5" font-family="Helvetica,sans-Serif" font-size="10.00">beluga/sensor/ndt_sensor</text>
<text text-anchor="middle" x="2044.5" y="-74.5" font-family="Helvetica,sans-Serif" font-size="10.00">_model.hpp</text>
</a>
</g>
</g>
<!-- Node1&#45;&gt;Node13 -->
<g id="edge12" class="edge">
<title>Node1&#45;&gt;Node13</title>
<path fill="none" stroke="midnightblue" d="M2161.37,-134.36C2137.76,-124.08 2109.04,-111.59 2085.99,-101.55"/>
<polygon fill="midnightblue" stroke="midnightblue" points="2087.37,-98.34 2076.81,-97.56 2084.58,-104.76 2087.37,-98.34"/>
</g>
<!-- Node14 -->
<g id="node14" class="node">
<title>Node14</title>
<g id="a_node14"><a xlink:title=" ">
<polygon fill="none" stroke="#bfbfbf" points="2133.5,-73 2133.5,-92 2197.5,-92 2197.5,-73 2133.5,-73"/>
<text text-anchor="middle" x="2165.5" y="-80" font-family="Helvetica,sans-Serif" font-size="10.00">execution</text>
</a>
</g>
</g>
<!-- Node1&#45;&gt;Node14 -->
<g id="edge13" class="edge">
<title>Node1&#45;&gt;Node14</title>
<path fill="none" stroke="midnightblue" d="M2195.08,-134.36C2188.97,-123.86 2181.52,-111.05 2175.63,-100.91"/>
<polygon fill="midnightblue" stroke="midnightblue" points="2178.6,-99.06 2170.54,-92.17 2172.55,-102.58 2178.6,-99.06"/>
</g>
<!-- Node15 -->
<g id="node15" class="node">
<title>Node15</title>
<g id="a_node15"><a xlink:title=" ">
<polygon fill="none" stroke="#bfbfbf" points="2216,-73 2216,-92 2281,-92 2281,-73 2216,-73"/>
<text text-anchor="middle" x="2248.5" y="-80" font-family="Helvetica,sans-Serif" font-size="10.00">functional</text>
</a>
</g>
</g>
<!-- Node1&#45;&gt;Node15 -->
<g id="edge14" class="edge">
<title>Node1&#45;&gt;Node15</title>
<path fill="none" stroke="midnightblue" d="M2218.2,-134.36C2224.45,-123.86 2232.09,-111.05 2238.13,-100.91"/>
<polygon fill="midnightblue" stroke="midnightblue" points="2241.22,-102.56 2243.33,-92.17 2235.21,-98.97 2241.22,-102.56"/>
</g>
<!-- Node16 -->
<g id="node16" class="node">
<title>Node16</title>
<g id="a_node16"><a xlink:title=" ">
<polygon fill="none" stroke="#bfbfbf" points="2299.5,-73 2299.5,-92 2355.5,-92 2355.5,-73 2299.5,-73"/>
<text text-anchor="middle" x="2327.5" y="-80" font-family="Helvetica,sans-Serif" font-size="10.00">optional</text>
</a>
</g>
</g>
<!-- Node1&#45;&gt;Node16 -->
<g id="edge15" class="edge">
<title>Node1&#45;&gt;Node16</title>
<path fill="none" stroke="midnightblue" d="M2240.21,-134.36C2260.45,-122.57 2285.71,-107.85 2303.85,-97.28"/>
<polygon fill="midnightblue" stroke="midnightblue" points="2305.74,-100.23 2312.61,-92.17 2302.21,-94.18 2305.74,-100.23"/>
</g>
<!-- Node17 -->
<g id="node17" class="node">
<title>Node17</title>
<g id="a_node17"><a xlink:title=" ">
<polygon fill="none" stroke="#bfbfbf" points="2374,-73 2374,-92 2517,-92 2517,-73 2374,-73"/>
<text text-anchor="middle" x="2445.5" y="-80" font-family="Helvetica,sans-Serif" font-size="10.00">rclcpp/callback_group.hpp</text>
</a>
</g>
</g>
<!-- Node1&#45;&gt;Node17 -->
<g id="edge16" class="edge">
<title>Node1&#45;&gt;Node17</title>
<path fill="none" stroke="midnightblue" d="M2272.76,-134.46C2315.94,-121.72 2370.79,-105.54 2406.96,-94.87"/>
<polygon fill="midnightblue" stroke="midnightblue" points="2408.04,-98.2 2416.64,-92.01 2406.06,-91.49 2408.04,-98.2"/>
</g>
<!-- Node18 -->
<g id="node18" class="node">
<title>Node18</title>
<g id="a_node18"><a xlink:title=" ">
<polygon fill="none" stroke="#bfbfbf" points="2535.5,-67.5 2535.5,-97.5 2643.5,-97.5 2643.5,-67.5 2535.5,-67.5"/>
<text text-anchor="start" x="2543.5" y="-85.5" font-family="Helvetica,sans-Serif" font-size="10.00">rclcpp/subscription</text>
<text text-anchor="middle" x="2589.5" y="-74.5" font-family="Helvetica,sans-Serif" font-size="10.00">_options.hpp</text>
</a>
</g>
</g>
<!-- Node1&#45;&gt;Node18 -->
<g id="edge17" class="edge">
<title>Node1&#45;&gt;Node18</title>
<path fill="none" stroke="midnightblue" d="M2296.74,-139.52C2358.53,-129.3 2442.56,-114.79 2525.41,-98.16"/>
<polygon fill="midnightblue" stroke="midnightblue" points="2526.13,-101.59 2535.24,-96.18 2524.75,-94.73 2526.13,-101.59"/>
</g>
<!-- Node19 -->
<g id="node19" class="node">
<title>Node19</title>
<g id="a_node19"><a xlink:title=" ">
<polygon fill="none" stroke="#bfbfbf" points="2661.5,-73 2661.5,-92 2753.5,-92 2753.5,-73 2661.5,-73"/>
<text text-anchor="middle" x="2707.5" y="-80" font-family="Helvetica,sans-Serif" font-size="10.00">sophus/se2.hpp</text>
</a>
</g>
</g>
<!-- Node1&#45;&gt;Node19 -->
<g id="edge18" class="edge">
<title>Node1&#45;&gt;Node19</title>
<path fill="none" stroke="midnightblue" d="M2296.75,-146.22C2387.24,-137.58 2530.3,-121.67 2652.5,-98 2657.58,-97.02 2662.89,-95.83 2668.11,-94.56"/>
<polygon fill="midnightblue" stroke="midnightblue" points="2669.15,-97.91 2677.98,-92.05 2667.43,-91.12 2669.15,-97.91"/>
</g>
<!-- Node20 -->
<g id="node20" class="node">
<title>Node20</title>
<g id="a_node20"><a xlink:title=" ">
<polygon fill="none" stroke="#bfbfbf" points="2772,-73 2772,-92 2813,-92 2813,-73 2772,-73"/>
<text text-anchor="middle" x="2792.5" y="-80" font-family="Helvetica,sans-Serif" font-size="10.00">tuple</text>
</a>
</g>
</g>
<!-- Node1&#45;&gt;Node20 -->
<g id="edge19" class="edge">
<title>Node1&#45;&gt;Node20</title>
<path fill="none" stroke="midnightblue" d="M2296.88,-154.49C2408.4,-152.93 2602.85,-143.1 2762.5,-98 2764.38,-97.47 2766.28,-96.83 2768.18,-96.11"/>
<polygon fill="midnightblue" stroke="midnightblue" points="2769.58,-99.32 2777.34,-92.1 2766.77,-92.9 2769.58,-99.32"/>
</g>
<!-- Node21 -->
<g id="node21" class="node">
<title>Node21</title>
<g id="a_node21"><a xlink:title=" ">
<polygon fill="none" stroke="#bfbfbf" points="2831,-73 2831,-92 2882,-92 2882,-73 2831,-73"/>
<text text-anchor="middle" x="2856.5" y="-80" font-family="Helvetica,sans-Serif" font-size="10.00">variant</text>
</a>
</g>
</g>
<!-- Node1&#45;&gt;Node21 -->
<g id="edge20" class="edge">
<title>Node1&#45;&gt;Node21</title>
<path fill="none" stroke="midnightblue" d="M2296.71,-154.53C2418.07,-153.28 2639.75,-144.06 2822.5,-98 2824.86,-97.4 2827.27,-96.67 2829.66,-95.84"/>
<polygon fill="midnightblue" stroke="midnightblue" points="2831.18,-99.01 2839.22,-92.1 2828.63,-92.49 2831.18,-99.01"/>
</g>
<!-- Node22 -->
<g id="node22" class="node">
<title>Node22</title>
<g id="a_node22"><a xlink:title=" ">
<polygon fill="none" stroke="#bfbfbf" points="2900.5,-73 2900.5,-92 3030.5,-92 3030.5,-73 2900.5,-73"/>
<text text-anchor="middle" x="2965.5" y="-80" font-family="Helvetica,sans-Serif" font-size="10.00">Eigen/src/Core/Matrix.h</text>
</a>
</g>
</g>
<!-- Node1&#45;&gt;Node22 -->
<g id="edge21" class="edge">
<title>Node1&#45;&gt;Node22</title>
<path fill="none" stroke="midnightblue" d="M2296.61,-149.85C2427.93,-143.08 2679.34,-127.36 2891.5,-98 2899.52,-96.89 2907.99,-95.47 2916.21,-93.95"/>
<polygon fill="midnightblue" stroke="midnightblue" points="2916.91,-97.38 2926.08,-92.07 2915.6,-90.51 2916.91,-97.38"/>
</g>
<!-- Node23 -->
<g id="node23" class="node">
<title>Node23</title>
<g id="a_node23"><a xlink:title=" ">
<polygon fill="none" stroke="#bfbfbf" points="3048.5,-73 3048.5,-92 3106.5,-92 3106.5,-73 3048.5,-73"/>
<text text-anchor="middle" x="3077.5" y="-80" font-family="Helvetica,sans-Serif" font-size="10.00">H5Cpp.h</text>
</a>
</g>
</g>
<!-- Node1&#45;&gt;Node23 -->
<g id="edge22" class="edge">
<title>Node1&#45;&gt;Node23</title>
<path fill="none" stroke="midnightblue" d="M2296.62,-151.32C2481.93,-145.26 2900.04,-128.57 3039.5,-98 3042.57,-97.33 3045.73,-96.45 3048.84,-95.46"/>
<polygon fill="midnightblue" stroke="midnightblue" points="3050.26,-98.67 3058.51,-92.02 3047.91,-92.07 3050.26,-98.67"/>
</g>
<!-- Node24 -->
<g id="node24" class="node">
<title>Node24</title>
<g id="a_node24"><a xlink:title=" ">
<polygon fill="none" stroke="#bfbfbf" points="3125,-67.5 3125,-97.5 3252,-97.5 3252,-67.5 3125,-67.5"/>
<text text-anchor="start" x="3133" y="-85.5" font-family="Helvetica,sans-Serif" font-size="10.00">beluga/algorithm/amcl</text>
<text text-anchor="middle" x="3188.5" y="-74.5" font-family="Helvetica,sans-Serif" font-size="10.00">_core.hpp</text>
</a>
</g>
</g>
<!-- Node1&#45;&gt;Node24 -->
<g id="edge23" class="edge">
<title>Node1&#45;&gt;Node24</title>
<path fill="none" stroke="midnightblue" d="M2296.55,-152.46C2458.47,-148.82 2809.54,-136.9 3114.95,-97.94"/>
<polygon fill="midnightblue" stroke="midnightblue" points="3115.41,-101.41 3124.88,-96.66 3114.52,-94.47 3115.41,-101.41"/>
</g>
<!-- Node25 -->
<g id="node25" class="node">
<title>Node25</title>
<g id="a_node25"><a xlink:title=" ">
<polygon fill="none" stroke="#bfbfbf" points="361.5,-6 361.5,-25 467.5,-25 467.5,-6 361.5,-6"/>
<text text-anchor="middle" x="414.5" y="-13" font-family="Helvetica,sans-Serif" font-size="10.00">bondcpp/bond.hpp</text>
</a>
</g>
</g>
<!-- Node1&#45;&gt;Node25 -->
<g id="edge24" class="edge">
<title>Node1&#45;&gt;Node25</title>
<path fill="none" stroke="midnightblue" d="M2116.42,-154.01C1809.78,-153.61 818.1,-148.37 684.5,-98 664.11,-90.31 666.15,-76.42 646.5,-67 577.25,-33.8 552.48,-47.61 477.5,-31 472.16,-29.82 466.57,-28.56 461.01,-27.3"/>
<polygon fill="midnightblue" stroke="midnightblue" points="461.65,-23.85 451.12,-25.04 460.09,-30.68 461.65,-23.85"/>
</g>
<!-- Node26 -->
<g id="node26" class="node">
<title>Node26</title>
<g id="a_node26"><a xlink:title=" ">
<polygon fill="none" stroke="#bfbfbf" points="3270.5,-67.5 3270.5,-97.5 3416.5,-97.5 3416.5,-67.5 3270.5,-67.5"/>
<text text-anchor="start" x="3278.5" y="-85.5" font-family="Helvetica,sans-Serif" font-size="10.00">geometry_msgs/msg/pose</text>
<text text-anchor="middle" x="3343.5" y="-74.5" font-family="Helvetica,sans-Serif" font-size="10.00">_array.hpp</text>
</a>
</g>
</g>
<!-- Node1&#45;&gt;Node26 -->
<g id="edge25" class="edge">
<title>Node1&#45;&gt;Node26</title>
<path fill="none" stroke="midnightblue" d="M2296.78,-152.91C2477.79,-149.93 2898.04,-138.93 3260.09,-98.07"/>
<polygon fill="midnightblue" stroke="midnightblue" points="3260.71,-101.52 3270.25,-96.91 3259.92,-94.56 3260.71,-101.52"/>
</g>
<!-- Node27 -->
<g id="node27" class="node">
<title>Node27</title>
<g id="a_node27"><a xlink:title=" ">
<polygon fill="none" stroke="#bfbfbf" points="3434.5,-67.5 3434.5,-97.5 3604.5,-97.5 3604.5,-67.5 3434.5,-67.5"/>
<text text-anchor="start" x="3442.5" y="-85.5" font-family="Helvetica,sans-Serif" font-size="10.00">geometry_msgs/msg/pose</text>
<text text-anchor="middle" x="3519.5" y="-74.5" font-family="Helvetica,sans-Serif" font-size="10.00">_with_covariance_stamped.hpp</text>
</a>
</g>
</g>
<!-- Node1&#45;&gt;Node27 -->
<g id="edge26" class="edge">
<title>Node1&#45;&gt;Node27</title>
<path fill="none" stroke="midnightblue" d="M2296.59,-153.16C2497.34,-150.57 2996.79,-140.17 3424.41,-98.03"/>
<polygon fill="midnightblue" stroke="midnightblue" points="3424.89,-101.5 3434.5,-97.03 3424.2,-94.53 3424.89,-101.5"/>
</g>
<!-- Node28 -->
<g id="node28" class="node">
<title>Node28</title>
<g id="a_node28"><a xlink:title=" ">
<polygon fill="none" stroke="#bfbfbf" points="486,-0.5 486,-30.5 623,-30.5 623,-0.5 486,-0.5"/>
<text text-anchor="start" x="494" y="-18.5" font-family="Helvetica,sans-Serif" font-size="10.00">rclcpp_lifecycle/lifecycle</text>
<text text-anchor="middle" x="554.5" y="-7.5" font-family="Helvetica,sans-Serif" font-size="10.00">_node.hpp</text>
</a>
</g>
</g>
<!-- Node1&#45;&gt;Node28 -->
<g id="edge27" class="edge">
<title>Node1&#45;&gt;Node28</title>
<path fill="none" stroke="midnightblue" d="M2116.47,-153.62C1815.86,-151.92 858.33,-143 727.5,-98 705.22,-90.34 705.2,-78.25 684.5,-67 660.47,-53.95 632.34,-42.58 608.41,-33.96"/>
<polygon fill="midnightblue" stroke="midnightblue" points="609.37,-30.59 598.77,-30.55 607.03,-37.19 609.37,-30.59"/>
</g>
<!-- Node29 -->
<g id="node29" class="node">
<title>Node29</title>
<g id="a_node29"><a xlink:title=" ">
<polygon fill="none" stroke="#bfbfbf" points="3623,-67.5 3623,-97.5 3754,-97.5 3754,-67.5 3623,-67.5"/>
<text text-anchor="start" x="3631" y="-85.5" font-family="Helvetica,sans-Serif" font-size="10.00">sensor_msgs/msg/laser</text>
<text text-anchor="middle" x="3688.5" y="-74.5" font-family="Helvetica,sans-Serif" font-size="10.00">_scan.hpp</text>
</a>
</g>
</g>
<!-- Node1&#45;&gt;Node29 -->
<g id="edge28" class="edge">
<title>Node1&#45;&gt;Node29</title>
<path fill="none" stroke="midnightblue" d="M2296.94,-152.19C2562.45,-146.59 3337.76,-128.18 3612.77,-97.92"/>
<polygon fill="midnightblue" stroke="midnightblue" points="3613.19,-101.4 3622.74,-96.8 3612.41,-94.44 3613.19,-101.4"/>
</g>
<!-- Node30 -->
<g id="node30" class="node">
<title>Node30</title>
<g id="a_node30"><a xlink:title=" ">
<polygon fill="none" stroke="#bfbfbf" points="3772,-73 3772,-92 3901,-92 3901,-73 3772,-73"/>
<text text-anchor="middle" x="3836.5" y="-80" font-family="Helvetica,sans-Serif" font-size="10.00">std_srvs/srv/empty.hpp</text>
</a>
</g>
</g>
<!-- Node1&#45;&gt;Node30 -->
<g id="edge29" class="edge">
<title>Node1&#45;&gt;Node30</title>
<path fill="none" stroke="midnightblue" d="M2296.52,-152.66C2583.77,-148.08 3476.44,-131.45 3763.5,-98 3771.99,-97.01 3780.96,-95.57 3789.6,-93.97"/>
<polygon fill="midnightblue" stroke="midnightblue" points="3790.4,-97.38 3799.55,-92.03 3789.06,-90.5 3790.4,-97.38"/>
</g>
<!-- Node31 -->
<g id="node31" class="node">
<title>Node31</title>
<g id="a_node31"><a target="_parent" xlink:href="../../../../../../beluga_ros/docs/_doxygen/generated/reference/html/laser__scan_8hpp.html.html" xlink:title=" ">
<polygon fill="none" stroke="black" points="3919.5,-73 3919.5,-92 4065.5,-92 4065.5,-73 3919.5,-73"/>
<text text-anchor="middle" x="3992.5" y="-80" font-family="Helvetica,sans-Serif" font-size="10.00">beluga_ros/laser_scan.hpp</text>
</a>
</g>
</g>
<!-- Node1&#45;&gt;Node31 -->
<g id="edge30" class="edge">
<title>Node1&#45;&gt;Node31</title>
<path fill="none" stroke="midnightblue" d="M2296.6,-152.73C2601.49,-148.17 3593.1,-131.11 3910.5,-98 3920.42,-96.97 3930.95,-95.43 3941.04,-93.75"/>
<polygon fill="midnightblue" stroke="midnightblue" points="3941.69,-97.19 3950.95,-92.03 3940.49,-90.29 3941.69,-97.19"/>
</g>
<!-- Node32 -->
<g id="node32" class="node">
<title>Node32</title>
<g id="a_node32"><a xlink:href="ros2__common_8hpp_source.html" target="_top" xlink:title=" ">
<polygon fill="none" stroke="black" points="736.5,-73 736.5,-92 908.5,-92 908.5,-73 736.5,-73"/>
<text text-anchor="middle" x="822.5" y="-80" font-family="Helvetica,sans-Serif" font-size="10.00">beluga_amcl/ros2_common.hpp</text>
</a>
</g>
</g>
<!-- Node1&#45;&gt;Node32 -->
<g id="edge31" class="edge">
<title>Node1&#45;&gt;Node32</title>
<path fill="none" stroke="midnightblue" d="M2116.48,-153.38C1906.26,-151.21 1366.84,-141.48 918.5,-98 906.7,-96.86 894.15,-95.25 882.13,-93.51"/>
<polygon fill="midnightblue" stroke="midnightblue" points="882.61,-90.05 872.2,-92.04 881.58,-96.97 882.61,-90.05"/>
</g>
<!-- Node44 -->
<g id="node44" class="node">
<title>Node44</title>
<g id="a_node44"><a xlink:title=" ">
<polygon fill="none" stroke="#bfbfbf" points="4084,-73 4084,-92 4239,-92 4239,-73 4084,-73"/>
<text text-anchor="middle" x="4161.5" y="-80" font-family="Helvetica,sans-Serif" font-size="10.00">message_filters/subscriber.h</text>
</a>
</g>
</g>
<!-- Node1&#45;&gt;Node44 -->
<g id="edge47" class="edge">
<title>Node1&#45;&gt;Node44</title>
<path fill="none" stroke="midnightblue" d="M2296.71,-152.91C2620.49,-148.76 3723.34,-132.37 4074.5,-98 4085.12,-96.96 4096.42,-95.41 4107.22,-93.71"/>
<polygon fill="midnightblue" stroke="midnightblue" points="4108.09,-97.11 4117.39,-92.04 4106.96,-90.2 4108.09,-97.11"/>
</g>
<!-- Node32&#45;&gt;Node4 -->
<g id="edge44" class="edge">
<title>Node32&#45;&gt;Node4</title>
<path fill="none" stroke="midnightblue" d="M736.32,-75.47C587.3,-64.9 287.35,-43.04 182.5,-31 171.36,-29.72 159.53,-28.13 148.12,-26.47"/>
<polygon fill="midnightblue" stroke="midnightblue" points="148.63,-23.01 138.23,-25 147.6,-29.93 148.63,-23.01"/>
</g>
<!-- Node32&#45;&gt;Node5 -->
<g id="edge45" class="edge">
<title>Node32&#45;&gt;Node5</title>
<path fill="none" stroke="midnightblue" d="M736.11,-73.83C641.68,-65.08 486.01,-49.54 352.5,-31 343.46,-29.74 333.91,-28.27 324.6,-26.74"/>
<polygon fill="midnightblue" stroke="midnightblue" points="325.07,-23.27 314.63,-25.07 323.91,-30.17 325.07,-23.27"/>
</g>
<!-- Node32&#45;&gt;Node25 -->
<g id="edge37" class="edge">
<title>Node32&#45;&gt;Node25</title>
<path fill="none" stroke="midnightblue" d="M752.84,-72.99C682.96,-64.05 572.39,-48.83 477.5,-31 471.63,-29.9 465.49,-28.63 459.43,-27.31"/>
<polygon fill="midnightblue" stroke="midnightblue" points="459.91,-23.83 449.38,-25.06 458.38,-30.66 459.91,-23.83"/>
</g>
<!-- Node32&#45;&gt;Node28 -->
<g id="edge33" class="edge">
<title>Node32&#45;&gt;Node28</title>
<path fill="none" stroke="midnightblue" d="M787.19,-72.94C745.39,-62.8 674.86,-45.69 622.38,-32.96"/>
<polygon fill="midnightblue" stroke="midnightblue" points="623.01,-29.51 612.47,-30.56 621.36,-36.32 623.01,-29.51"/>
</g>
<!-- Node33 -->
<g id="node33" class="node">
<title>Node33</title>
<g id="a_node33"><a xlink:title=" ">
<polygon fill="none" stroke="#bfbfbf" points="1825,-6 1825,-25 1960,-25 1960,-6 1825,-6"/>
<text text-anchor="middle" x="1892.5" y="-13" font-family="Helvetica,sans-Serif" font-size="10.00">rclcpp/node_options.hpp</text>
</a>
</g>
</g>
<!-- Node32&#45;&gt;Node33 -->
<g id="edge32" class="edge">
<title>Node32&#45;&gt;Node33</title>
<path fill="none" stroke="midnightblue" d="M872.2,-72.93C887.05,-70.66 903.4,-68.44 918.5,-67 1316.13,-29.12 1419.67,-76.55 1816.5,-31 1825.32,-29.99 1834.66,-28.53 1843.65,-26.93"/>
<polygon fill="midnightblue" stroke="midnightblue" points="1844.43,-30.34 1853.62,-25.07 1843.14,-23.46 1844.43,-30.34"/>
</g>
<!-- Node34 -->
<g id="node34" class="node">
<title>Node34</title>
<g id="a_node34"><a xlink:title=" ">
<polygon fill="none" stroke="#bfbfbf" points="641,-6 641,-25 782,-25 782,-6 641,-6"/>
<text text-anchor="middle" x="711.5" y="-13" font-family="Helvetica,sans-Serif" font-size="10.00">rclcpp_lifecycle/state.hpp</text>
</a>
</g>
</g>
<!-- Node32&#45;&gt;Node34 -->
<g id="edge34" class="edge">
<title>Node32&#45;&gt;Node34</title>
<path fill="none" stroke="midnightblue" d="M807.53,-72.73C788.89,-61.82 756.84,-43.05 734.93,-30.22"/>
<polygon fill="midnightblue" stroke="midnightblue" points="736.63,-27.16 726.23,-25.13 733.09,-33.2 736.63,-27.16"/>
</g>
<!-- Node35 -->
<g id="node35" class="node">
<title>Node35</title>
<g id="a_node35"><a xlink:title=" ">
<polygon fill="none" stroke="#bfbfbf" points="800.5,-6 800.5,-25 844.5,-25 844.5,-6 800.5,-6"/>
<text text-anchor="middle" x="822.5" y="-13" font-family="Helvetica,sans-Serif" font-size="10.00">string</text>
</a>
</g>
</g>
<!-- Node32&#45;&gt;Node35 -->
<g id="edge35" class="edge">
<title>Node32&#45;&gt;Node35</title>
<path fill="none" stroke="midnightblue" d="M822.5,-72.73C822.5,-63.18 822.5,-47.62 822.5,-35.28"/>
<polygon fill="midnightblue" stroke="midnightblue" points="826,-35.13 822.5,-25.13 819,-35.13 826,-35.13"/>
</g>
<!-- Node36 -->
<g id="node36" class="node">
<title>Node36</title>
<g id="a_node36"><a xlink:title=" ">
<polygon fill="none" stroke="#bfbfbf" points="863,-6 863,-25 936,-25 936,-6 863,-6"/>
<text text-anchor="middle" x="899.5" y="-13" font-family="Helvetica,sans-Serif" font-size="10.00">string_view</text>
</a>
</g>
</g>
<!-- Node32&#45;&gt;Node36 -->
<g id="edge36" class="edge">
<title>Node32&#45;&gt;Node36</title>
<path fill="none" stroke="midnightblue" d="M832.88,-72.73C845.35,-62.21 866.47,-44.38 881.59,-31.62"/>
<polygon fill="midnightblue" stroke="midnightblue" points="883.9,-34.25 889.28,-25.13 879.38,-28.9 883.9,-34.25"/>
</g>
<!-- Node37 -->
<g id="node37" class="node">
<title>Node37</title>
<g id="a_node37"><a xlink:title=" ">
<polygon fill="none" stroke="#bfbfbf" points="954.5,-0.5 954.5,-30.5 1100.5,-30.5 1100.5,-0.5 954.5,-0.5"/>
<text text-anchor="start" x="962.5" y="-18.5" font-family="Helvetica,sans-Serif" font-size="10.00">geometry_msgs/msg/pose</text>
<text text-anchor="middle" x="1027.5" y="-7.5" font-family="Helvetica,sans-Serif" font-size="10.00">_stamped.hpp</text>
</a>
</g>
</g>
<!-- Node32&#45;&gt;Node37 -->
<g id="edge38" class="edge">
<title>Node32&#45;&gt;Node37</title>
<path fill="none" stroke="midnightblue" d="M849.72,-72.87C881.22,-62.88 933.84,-46.2 973.68,-33.56"/>
<polygon fill="midnightblue" stroke="midnightblue" points="974.78,-36.89 983.26,-30.53 972.67,-30.21 974.78,-36.89"/>
</g>
<!-- Node38 -->
<g id="node38" class="node">
<title>Node38</title>
<g id="a_node38"><a xlink:title=" ">
<polygon fill="none" stroke="#bfbfbf" points="1119,-6 1119,-25 1218,-25 1218,-6 1119,-6"/>
<text text-anchor="middle" x="1168.5" y="-13" font-family="Helvetica,sans-Serif" font-size="10.00">rclcpp/rclcpp.hpp</text>
</a>
</g>
</g>
<!-- Node32&#45;&gt;Node38 -->
<g id="edge39" class="edge">
<title>Node32&#45;&gt;Node38</title>
<path fill="none" stroke="midnightblue" d="M877.19,-72.99C935.1,-63.72 1029.05,-47.94 1109.5,-31 1114.66,-29.91 1120.05,-28.7 1125.39,-27.45"/>
<polygon fill="midnightblue" stroke="midnightblue" points="1126.6,-30.76 1135.51,-25.02 1124.97,-23.95 1126.6,-30.76"/>
</g>
<!-- Node39 -->
<g id="node39" class="node">
<title>Node39</title>
<g id="a_node39"><a xlink:title=" ">
<polygon fill="none" stroke="#bfbfbf" points="1236.5,-6 1236.5,-25 1328.5,-25 1328.5,-6 1236.5,-6"/>
<text text-anchor="middle" x="1282.5" y="-13" font-family="Helvetica,sans-Serif" font-size="10.00">rclcpp/time.hpp</text>
</a>
</g>
</g>
<!-- Node32&#45;&gt;Node39 -->
<g id="edge40" class="edge">
<title>Node32&#45;&gt;Node39</title>
<path fill="none" stroke="midnightblue" d="M876.78,-72.97C890.39,-70.93 904.97,-68.81 918.5,-67 1055.54,-48.67 1091.65,-56.69 1227.5,-31 1232.64,-30.03 1238.02,-28.84 1243.3,-27.56"/>
<polygon fill="midnightblue" stroke="midnightblue" points="1244.44,-30.88 1253.28,-25.03 1242.72,-24.09 1244.44,-30.88"/>
</g>
<!-- Node40 -->
<g id="node40" class="node">
<title>Node40</title>
<g id="a_node40"><a xlink:title=" ">
<polygon fill="none" stroke="#bfbfbf" points="1347,-6 1347,-25 1426,-25 1426,-6 1347,-6"/>
<text text-anchor="middle" x="1386.5" y="-13" font-family="Helvetica,sans-Serif" font-size="10.00">tf2/convert.h</text>
</a>
</g>
</g>
<!-- Node32&#45;&gt;Node40 -->
<g id="edge41" class="edge">
<title>Node32&#45;&gt;Node40</title>
<path fill="none" stroke="midnightblue" d="M874.73,-72.99C888.91,-70.85 904.27,-68.68 918.5,-67 1104.11,-45.03 1153.84,-65.69 1337.5,-31 1342.04,-30.14 1346.75,-29.04 1351.39,-27.81"/>
<polygon fill="midnightblue" stroke="midnightblue" points="1352.63,-31.1 1361.31,-25.01 1350.73,-24.36 1352.63,-31.1"/>
</g>
<!-- Node41 -->
<g id="node41" class="node">
<title>Node41</title>
<g id="a_node41"><a xlink:title=" ">
<polygon fill="none" stroke="#bfbfbf" points="1444,-6 1444,-25 1507,-25 1507,-6 1444,-6"/>
<text text-anchor="middle" x="1475.5" y="-13" font-family="Helvetica,sans-Serif" font-size="10.00">tf2/utils.h</text>
</a>
</g>
</g>
<!-- Node32&#45;&gt;Node41 -->
<g id="edge42" class="edge">
<title>Node32&#45;&gt;Node41</title>
<path fill="none" stroke="midnightblue" d="M873.72,-72.99C888.17,-70.79 903.92,-68.61 918.5,-67 1147.45,-41.78 1210.16,-78.71 1435.5,-31 1438.75,-30.31 1442.1,-29.42 1445.4,-28.41"/>
<polygon fill="midnightblue" stroke="midnightblue" points="1446.71,-31.66 1455.06,-25.15 1444.47,-25.03 1446.71,-31.66"/>
</g>
<!-- Node42 -->
<g id="node42" class="node">
<title>Node42</title>
<g id="a_node42"><a xlink:title=" ">
<polygon fill="none" stroke="#bfbfbf" points="1525.5,-0.5 1525.5,-30.5 1641.5,-30.5 1641.5,-0.5 1525.5,-0.5"/>
<text text-anchor="start" x="1533.5" y="-18.5" font-family="Helvetica,sans-Serif" font-size="10.00">tf2_ros/create_timer</text>
<text text-anchor="middle" x="1583.5" y="-7.5" font-family="Helvetica,sans-Serif" font-size="10.00">_ros.h</text>
</a>
</g>
</g>
<!-- Node32&#45;&gt;Node42 -->
<g id="edge43" class="edge">
<title>Node32&#45;&gt;Node42</title>
<path fill="none" stroke="midnightblue" d="M873.21,-72.97C887.8,-70.75 903.75,-68.55 918.5,-67 1179.93,-39.44 1250.93,-66.56 1515.2,-31.02"/>
<polygon fill="midnightblue" stroke="midnightblue" points="1516.06,-34.44 1525.49,-29.62 1515.11,-27.5 1516.06,-34.44"/>
</g>
<!-- Node43 -->
<g id="node43" class="node">
<title>Node43</title>
<g id="a_node43"><a target="_parent" xlink:href="../../../../../../beluga_ros/docs/_doxygen/generated/reference/html/tf2__sophus_8hpp.html.html" xlink:title=" ">
<polygon fill="none" stroke="black" points="1660,-6 1660,-25 1807,-25 1807,-6 1660,-6"/>
<text text-anchor="middle" x="1733.5" y="-13" font-family="Helvetica,sans-Serif" font-size="10.00">beluga_ros/tf2_sophus.hpp</text>
</a>
</g>
</g>
<!-- Node32&#45;&gt;Node43 -->
<g id="edge46" class="edge">
<title>Node32&#45;&gt;Node43</title>
<path fill="none" stroke="midnightblue" d="M872.7,-72.94C887.42,-70.7 903.57,-68.49 918.5,-67 1242.61,-34.64 1326.78,-67.1 1650.5,-31 1660.21,-29.92 1670.5,-28.41 1680.42,-26.78"/>
<polygon fill="midnightblue" stroke="midnightblue" points="1681.3,-30.18 1690.57,-25.04 1680.12,-23.28 1681.3,-30.18"/>
</g>
</g>
</svg>
        <g id="navigator" transform="translate(0 0)" fill="#404254">
                <rect fill="#f2f5e9" fill-opacity="0.5" stroke="#606060" stroke-width=".5" x="0" y="0" width="60" height="60"/>
                <use id="zoomplus" xlink:href="#zoomPlus" x="17" y="9" onmousedown="handleZoom(evt,'in')"/>
                <use id="zoomminus" xlink:href="#zoomMin" x="42" y="9" onmousedown="handleZoom(evt,'out')"/>
                <use id="reset" xlink:href="#resetDef" x="30" y="36" onmousedown="handleReset()"/>
                <g id="arrowUp" xlink:href="#dirArrow" transform="translate(30 24)" onmousedown="handlePan(0,-1)">
                  <use xlink:href="#rim" fill="#404040">
                        <set attributeName="fill" to="#808080" begin="arrowUp.mouseover" end="arrowUp.mouseout"/>
                  </use>
                  <path fill="none" stroke="white" stroke-width="1.5" d="M0,-3.0v7 M-2.5,-0.5L0,-3.0L2.5,-0.5"/>
                </g>
                <g id="arrowRight" xlink:href="#dirArrow" transform="rotate(90) translate(36 -43)" onmousedown="handlePan(1,0)">
                  <use xlink:href="#rim" fill="#404040">
                        <set attributeName="fill" to="#808080" begin="arrowRight.mouseover" end="arrowRight.mouseout"/>
                  </use>
                  <path fill="none" stroke="white" stroke-width="1.5" d="M0,-3.0v7 M-2.5,-0.5L0,-3.0L2.5,-0.5"/>
                </g>
                <g id="arrowDown" xlink:href="#dirArrow" transform="rotate(180) translate(-30 -48)" onmousedown="handlePan(0,1)">
                  <use xlink:href="#rim" fill="#404040">
                        <set attributeName="fill" to="#808080" begin="arrowDown.mouseover" end="arrowDown.mouseout"/>
                  </use>
                  <path fill="none" stroke="white" stroke-width="1.5" d="M0,-3.0v7 M-2.5,-0.5L0,-3.0L2.5,-0.5"/>
                </g>
                <g id="arrowLeft" xlink:href="#dirArrow" transform="rotate(270) translate(-36 17)" onmousedown="handlePan(-1,0)">
                  <use xlink:href="#rim" fill="#404040">
                        <set attributeName="fill" to="#808080" begin="arrowLeft.mouseover" end="arrowLeft.mouseout"/>
                  </use>
                  <path fill="none" stroke="white" stroke-width="1.5" d="M0,-3.0v7 M-2.5,-0.5L0,-3.0L2.5,-0.5"/>
                </g>
        </g>
        <svg viewBox="0 0 15 15" width="100%" height="30px" preserveAspectRatio="xMaxYMin meet">
         <g id="arrow_out" transform="scale(0.3 0.3)">
          <a xlink:href="ndt__amcl__node_8hpp__incl_org.svg" target="_base">
           <rect id="button" ry="5" rx="5" y="6" x="6" height="38" width="38"
                fill="#f2f5e9" fill-opacity="0.5" stroke="#606060" stroke-width="1.0"/>
           <path id="arrow"
             d="M 11.500037,31.436501 C 11.940474,20.09759 22.043105,11.32322 32.158766,21.979434 L 37.068811,17.246167 C 37.068811,17.246167 37.088388,32 37.088388,32 L 22.160133,31.978069 C 22.160133,31.978069 26.997745,27.140456 26.997745,27.140456 C 18.528582,18.264221 13.291696,25.230495 11.500037,31.436501 z"
             style="fill:#404040;"/>
          </a>
         </g>
        </svg>
</svg>
