<?xml version="1.0" encoding="UTF-8" standalone="no"?>
<!DOCTYPE svg PUBLIC "-//W3C//DTD SVG 1.1//EN"
 "http://www.w3.org/Graphics/SVG/1.1/DTD/svg11.dtd">
<!-- Generated by graphviz version 2.43.0 (0)
 -->
<!-- Title: /home/runner/work/beluga/beluga/beluga_amcl/include/beluga_amcl/ndt_amcl_node_3d.hpp Pages: 1 -->
<!--zoomable 184 -->
<svg id="main" version="1.1" xmlns="http://www.w3.org/2000/svg" xmlns:xlink="http://www.w3.org/1999/xlink" xml:space="preserve" onload="init(evt)">
<style type="text/css"><![CDATA[
.edge:hover path { stroke: red; }
.edge:hover polygon { stroke: red; fill: red; }
]]></style>
<script type="text/javascript"><![CDATA[
var edges = document.getElementsByTagName('g');
if (edges && edges.length) {
  for (var i=0;i<edges.length;i++) {
    if (edges[i].id.substr(0,4)=='edge') {
      edges[i].setAttribute('class','edge');
    }
  }
}
]]></script>
        <defs>
                <circle id="rim" cx="0" cy="0" r="7"/>
                <circle id="rim2" cx="0" cy="0" r="3.5"/>
                <g id="zoomPlus">
                        <use xlink:href="#rim" fill="#404040">
                                <set attributeName="fill" to="#808080" begin="zoomplus.mouseover" end="zoomplus.mouseout"/>
                        </use>
                        <path d="M-4,0h8M0,-4v8" fill="none" stroke="white" stroke-width="1.5" pointer-events="none"/>
                </g>
                <g id="zoomMin">
                        <use xlink:href="#rim" fill="#404040">
                                <set attributeName="fill" to="#808080" begin="zoomminus.mouseover" end="zoomminus.mouseout"/>
                        </use>
                        <path d="M-4,0h8" fill="none" stroke="white" stroke-width="1.5" pointer-events="none"/>
                </g>
                <g id="dirArrow">
                        <path fill="none" stroke="white" stroke-width="1.5" d="M0,-3.0v7 M-2.5,-0.5L0,-3.0L2.5,-0.5"/>
                </g>
               <g id="resetDef">
                       <use xlink:href="#rim2" fill="#404040">
                               <set attributeName="fill" to="#808080" begin="reset.mouseover" end="reset.mouseout"/>
                       </use>
               </g>
        </defs>

<script type="text/javascript">
var viewWidth = 2786;
var viewHeight = 184;
var sectionId = 'dynsection-0';
</script>
<script xlink:href="svgpan.js"/>
<svg id="graph" class="graph">
<g id="viewport">
<title>/home/runner/work/beluga/beluga/beluga_amcl/include/beluga_amcl/ndt_amcl_node_3d.hpp</title>
<!-- Node1 -->
<g id="node1" class="node">
<title>Node1</title>
<g id="a_node1"><a xlink:title="ROS 2 integration of the 3D NDT&#45;AMCL algorithm.">
<polygon fill="#bfbfbf" stroke="black" points="1265,-134.5 1265,-175.5 1462,-175.5 1462,-134.5 1265,-134.5"/>
<text text-anchor="start" x="1273" y="-163.5" font-family="Helvetica,sans-Serif" font-size="10.00">/home/runner/work/beluga</text>
<text text-anchor="start" x="1273" y="-152.5" font-family="Helvetica,sans-Serif" font-size="10.00">/beluga/beluga_amcl/include</text>
<text text-anchor="middle" x="1363.5" y="-141.5" font-family="Helvetica,sans-Serif" font-size="10.00">/beluga_amcl/ndt_amcl_node_3d.hpp</text>
</a>
</g>
</g>
<!-- Node2 -->
<g id="node2" class="node">
<title>Node2</title>
<g id="a_node2"><a xlink:title=" ">
<polygon fill="none" stroke="#bfbfbf" points="379.5,-73 379.5,-92 469.5,-92 469.5,-73 379.5,-73"/>
<text text-anchor="middle" x="424.5" y="-80" font-family="Helvetica,sans-Serif" font-size="10.00">tf2_ros/buffer.h</text>
</a>
</g>
</g>
<!-- Node1&#45;&gt;Node2 -->
<g id="edge1" class="edge">
<title>Node1&#45;&gt;Node2</title>
<path fill="none" stroke="midnightblue" d="M1264.89,-154.14C1100.67,-152.95 761.26,-144.43 478.5,-98 473.05,-97.11 467.36,-95.89 461.8,-94.55"/>
<polygon fill="midnightblue" stroke="midnightblue" points="462.58,-91.13 452.02,-92.02 460.83,-97.91 462.58,-91.13"/>
</g>
<!-- Node3 -->
<g id="node3" class="node">
<title>Node3</title>
<g id="a_node3"><a xlink:title=" ">
<polygon fill="none" stroke="#bfbfbf" points="487.5,-73 487.5,-92 621.5,-92 621.5,-73 487.5,-73"/>
<text text-anchor="middle" x="554.5" y="-80" font-family="Helvetica,sans-Serif" font-size="10.00">tf2_ros/message_filter.h</text>
</a>
</g>
</g>
<!-- Node1&#45;&gt;Node3 -->
<g id="edge2" class="edge">
<title>Node1&#45;&gt;Node3</title>
<path fill="none" stroke="midnightblue" d="M1264.86,-149.56C1124.59,-142.53 859.64,-126.61 635.5,-98 626.45,-96.84 616.87,-95.36 607.59,-93.79"/>
<polygon fill="midnightblue" stroke="midnightblue" points="608.13,-90.33 597.67,-92.06 606.92,-97.23 608.13,-90.33"/>
</g>
<!-- Node4 -->
<g id="node4" class="node">
<title>Node4</title>
<g id="a_node4"><a xlink:title=" ">
<polygon fill="none" stroke="#bfbfbf" points="0,-6 0,-25 173,-25 173,-6 0,-6"/>
<text text-anchor="middle" x="86.5" y="-13" font-family="Helvetica,sans-Serif" font-size="10.00">tf2_ros/transform_broadcaster.h</text>
</a>
</g>
</g>
<!-- Node1&#45;&gt;Node4 -->
<g id="edge3" class="edge">
<title>Node1&#45;&gt;Node4</title>
<path fill="none" stroke="midnightblue" d="M1264.75,-154.08C1097.99,-152.89 768.49,-144.51 663.5,-98 645.1,-89.85 648.9,-75.15 630.5,-67 539.19,-26.53 281.72,-42.47 182.5,-31 171.6,-29.74 160.04,-28.18 148.86,-26.56"/>
<polygon fill="midnightblue" stroke="midnightblue" points="149.13,-23.07 138.73,-25.06 148.11,-29.99 149.13,-23.07"/>
</g>
<!-- Node5 -->
<g id="node5" class="node">
<title>Node5</title>
<g id="a_node5"><a xlink:title=" ">
<polygon fill="none" stroke="#bfbfbf" points="191.5,-6 191.5,-25 343.5,-25 343.5,-6 191.5,-6"/>
<text text-anchor="middle" x="267.5" y="-13" font-family="Helvetica,sans-Serif" font-size="10.00">tf2_ros/transform_listener.h</text>
</a>
</g>
</g>
<!-- Node1&#45;&gt;Node5 -->
<g id="edge4" class="edge">
<title>Node1&#45;&gt;Node5</title>
<path fill="none" stroke="midnightblue" d="M1264.7,-152.76C1105.76,-149.57 801.01,-138.25 701.5,-98 681.29,-89.83 683.58,-75.48 663.5,-67 535.33,-12.84 490.24,-50.71 352.5,-31 343.47,-29.71 333.92,-28.21 324.61,-26.67"/>
<polygon fill="midnightblue" stroke="midnightblue" points="325.08,-23.2 314.64,-25 323.92,-30.11 325.08,-23.2"/>
</g>
<!-- Node6 -->
<g id="node6" class="node">
<title>Node6</title>
<g id="a_node6"><a xlink:title=" ">
<polygon fill="none" stroke="#bfbfbf" points="982,-67.5 982,-97.5 1109,-97.5 1109,-67.5 982,-67.5"/>
<text text-anchor="start" x="990" y="-85.5" font-family="Helvetica,sans-Serif" font-size="10.00">beluga/algorithm/amcl</text>
<text text-anchor="middle" x="1045.5" y="-74.5" font-family="Helvetica,sans-Serif" font-size="10.00">_core.hpp</text>
</a>
</g>
</g>
<!-- Node1&#45;&gt;Node6 -->
<g id="edge5" class="edge">
<title>Node1&#45;&gt;Node6</title>
<path fill="none" stroke="midnightblue" d="M1275.34,-134.46C1226.19,-123.56 1165.7,-110.15 1119.11,-99.82"/>
<polygon fill="midnightblue" stroke="midnightblue" points="1119.61,-96.34 1109.09,-97.6 1118.09,-103.18 1119.61,-96.34"/>
</g>
<!-- Node7 -->
<g id="node7" class="node">
<title>Node7</title>
<g id="a_node7"><a target="_parent" xlink:href="../../../../../../beluga/docs/_doxygen/generated/reference/html/beluga_8hpp.html.html" xlink:title=" ">
<polygon fill="none" stroke="black" points="1127,-73 1127,-92 1234,-92 1234,-73 1127,-73"/>
<text text-anchor="middle" x="1180.5" y="-80" font-family="Helvetica,sans-Serif" font-size="10.00">beluga/beluga.hpp</text>
</a>
</g>
</g>
<!-- Node1&#45;&gt;Node7 -->
<g id="edge6" class="edge">
<title>Node1&#45;&gt;Node7</title>
<path fill="none" stroke="midnightblue" d="M1312.52,-134.36C1280.5,-122.02 1240.17,-106.49 1212.57,-95.85"/>
<polygon fill="midnightblue" stroke="midnightblue" points="1213.6,-92.5 1203.01,-92.17 1211.09,-99.03 1213.6,-92.5"/>
</g>
<!-- Node8 -->
<g id="node8" class="node">
<title>Node8</title>
<g id="a_node8"><a xlink:title=" ">
<polygon fill="none" stroke="#bfbfbf" points="361.5,-6 361.5,-25 425.5,-25 425.5,-6 361.5,-6"/>
<text text-anchor="middle" x="393.5" y="-13" font-family="Helvetica,sans-Serif" font-size="10.00">execution</text>
</a>
</g>
</g>
<!-- Node1&#45;&gt;Node8 -->
<g id="edge7" class="edge">
<title>Node1&#45;&gt;Node8</title>
<path fill="none" stroke="midnightblue" d="M1264.87,-152.15C1113.6,-148.15 832.11,-135.73 739.5,-98 719.32,-89.78 721.49,-75.68 701.5,-67 592.06,-19.51 551.56,-58.6 435.5,-31 432.09,-30.19 428.58,-29.21 425.09,-28.15"/>
<polygon fill="midnightblue" stroke="midnightblue" points="426.08,-24.79 415.49,-25.01 423.91,-31.44 426.08,-24.79"/>
</g>
<!-- Node9 -->
<g id="node9" class="node">
<title>Node9</title>
<g id="a_node9"><a xlink:title=" ">
<polygon fill="none" stroke="#bfbfbf" points="1252,-73 1252,-92 1317,-92 1317,-73 1252,-73"/>
<text text-anchor="middle" x="1284.5" y="-80" font-family="Helvetica,sans-Serif" font-size="10.00">functional</text>
</a>
</g>
</g>
<!-- Node1&#45;&gt;Node9 -->
<g id="edge8" class="edge">
<title>Node1&#45;&gt;Node9</title>
<path fill="none" stroke="midnightblue" d="M1341.49,-134.36C1329,-123.21 1313.59,-109.46 1301.94,-99.06"/>
<polygon fill="midnightblue" stroke="midnightblue" points="1304.01,-96.22 1294.22,-92.17 1299.35,-101.44 1304.01,-96.22"/>
</g>
<!-- Node10 -->
<g id="node10" class="node">
<title>Node10</title>
<g id="a_node10"><a xlink:title=" ">
<polygon fill="none" stroke="#bfbfbf" points="1335.5,-73 1335.5,-92 1391.5,-92 1391.5,-73 1335.5,-73"/>
<text text-anchor="middle" x="1363.5" y="-80" font-family="Helvetica,sans-Serif" font-size="10.00">optional</text>
</a>
</g>
</g>
<!-- Node1&#45;&gt;Node10 -->
<g id="edge9" class="edge">
<title>Node1&#45;&gt;Node10</title>
<path fill="none" stroke="midnightblue" d="M1363.5,-134.36C1363.5,-124.3 1363.5,-112.1 1363.5,-102.18"/>
<polygon fill="midnightblue" stroke="midnightblue" points="1367,-102.17 1363.5,-92.17 1360,-102.17 1367,-102.17"/>
</g>
<!-- Node11 -->
<g id="node11" class="node">
<title>Node11</title>
<g id="a_node11"><a xlink:title=" ">
<polygon fill="none" stroke="#bfbfbf" points="1409.5,-73 1409.5,-92 1511.5,-92 1511.5,-73 1409.5,-73"/>
<text text-anchor="middle" x="1460.5" y="-80" font-family="Helvetica,sans-Serif" font-size="10.00">sophus/types.hpp</text>
</a>
</g>
</g>
<!-- Node1&#45;&gt;Node11 -->
<g id="edge10" class="edge">
<title>Node1&#45;&gt;Node11</title>
<path fill="none" stroke="midnightblue" d="M1390.52,-134.36C1406.3,-122.89 1425.89,-108.65 1440.33,-98.16"/>
<polygon fill="midnightblue" stroke="midnightblue" points="1442.53,-100.88 1448.57,-92.17 1438.42,-95.22 1442.53,-100.88"/>
</g>
<!-- Node12 -->
<g id="node12" class="node">
<title>Node12</title>
<g id="a_node12"><a xlink:title=" ">
<polygon fill="none" stroke="#bfbfbf" points="1530,-73 1530,-92 1571,-92 1571,-73 1530,-73"/>
<text text-anchor="middle" x="1550.5" y="-80" font-family="Helvetica,sans-Serif" font-size="10.00">tuple</text>
</a>
</g>
</g>
<!-- Node1&#45;&gt;Node12 -->
<g id="edge11" class="edge">
<title>Node1&#45;&gt;Node12</title>
<path fill="none" stroke="midnightblue" d="M1422.97,-134.48C1452.58,-124.33 1488.73,-111.3 1520.5,-98 1521.7,-97.5 1522.92,-96.97 1524.15,-96.43"/>
<polygon fill="midnightblue" stroke="midnightblue" points="1525.9,-99.48 1533.51,-92.1 1522.97,-93.12 1525.9,-99.48"/>
</g>
<!-- Node13 -->
<g id="node13" class="node">
<title>Node13</title>
<g id="a_node13"><a xlink:title=" ">
<polygon fill="none" stroke="#bfbfbf" points="1589,-73 1589,-92 1640,-92 1640,-73 1589,-73"/>
<text text-anchor="middle" x="1614.5" y="-80" font-family="Helvetica,sans-Serif" font-size="10.00">variant</text>
</a>
</g>
</g>
<!-- Node1&#45;&gt;Node13 -->
<g id="edge12" class="edge">
<title>Node1&#45;&gt;Node13</title>
<path fill="none" stroke="midnightblue" d="M1451.49,-134.48C1491.3,-124.84 1538.69,-112.22 1580.5,-98 1582.37,-97.36 1584.28,-96.67 1586.19,-95.95"/>
<polygon fill="midnightblue" stroke="midnightblue" points="1587.67,-99.13 1595.63,-92.14 1585.05,-92.63 1587.67,-99.13"/>
</g>
<!-- Node14 -->
<g id="node14" class="node">
<title>Node14</title>
<g id="a_node14"><a xlink:title=" ">
<polygon fill="none" stroke="#bfbfbf" points="1658.5,-67.5 1658.5,-97.5 1804.5,-97.5 1804.5,-67.5 1658.5,-67.5"/>
<text text-anchor="start" x="1666.5" y="-85.5" font-family="Helvetica,sans-Serif" font-size="10.00">geometry_msgs/msg/pose</text>
<text text-anchor="middle" x="1731.5" y="-74.5" font-family="Helvetica,sans-Serif" font-size="10.00">_array.hpp</text>
</a>
</g>
</g>
<!-- Node1&#45;&gt;Node14 -->
<g id="edge13" class="edge">
<title>Node1&#45;&gt;Node14</title>
<path fill="none" stroke="midnightblue" d="M1462.12,-135.11C1520.24,-123.97 1592.97,-110.04 1648.2,-99.46"/>
<polygon fill="midnightblue" stroke="midnightblue" points="1649.14,-102.84 1658.31,-97.52 1647.83,-95.97 1649.14,-102.84"/>
</g>
<!-- Node15 -->
<g id="node15" class="node">
<title>Node15</title>
<g id="a_node15"><a xlink:title=" ">
<polygon fill="none" stroke="#bfbfbf" points="1822.5,-67.5 1822.5,-97.5 1992.5,-97.5 1992.5,-67.5 1822.5,-67.5"/>
<text text-anchor="start" x="1830.5" y="-85.5" font-family="Helvetica,sans-Serif" font-size="10.00">geometry_msgs/msg/pose</text>
<text text-anchor="middle" x="1907.5" y="-74.5" font-family="Helvetica,sans-Serif" font-size="10.00">_with_covariance_stamped.hpp</text>
</a>
</g>
</g>
<!-- Node1&#45;&gt;Node15 -->
<g id="edge14" class="edge">
<title>Node1&#45;&gt;Node15</title>
<path fill="none" stroke="midnightblue" d="M1462.37,-142.54C1551.21,-132.05 1685.53,-115.7 1812.19,-98.16"/>
<polygon fill="midnightblue" stroke="midnightblue" points="1813.04,-101.57 1822.46,-96.73 1812.08,-94.64 1813.04,-101.57"/>
</g>
<!-- Node16 -->
<g id="node16" class="node">
<title>Node16</title>
<g id="a_node16"><a xlink:title=" ">
<polygon fill="none" stroke="#bfbfbf" points="444,-0.5 444,-30.5 581,-30.5 581,-0.5 444,-0.5"/>
<text text-anchor="start" x="452" y="-18.5" font-family="Helvetica,sans-Serif" font-size="10.00">rclcpp_lifecycle/lifecycle</text>
<text text-anchor="middle" x="512.5" y="-7.5" font-family="Helvetica,sans-Serif" font-size="10.00">_node.hpp</text>
</a>
</g>
</g>
<!-- Node1&#45;&gt;Node16 -->
<g id="edge15" class="edge">
<title>Node1&#45;&gt;Node16</title>
<path fill="none" stroke="midnightblue" d="M1264.92,-150.71C1122.87,-144.92 868.26,-130.32 782.5,-98 760.45,-89.69 761,-76.64 739.5,-67 725.76,-60.84 650.94,-44.7 590.89,-32.32"/>
<polygon fill="midnightblue" stroke="midnightblue" points="591.52,-28.87 581.02,-30.29 590.11,-35.73 591.52,-28.87"/>
</g>
<!-- Node17 -->
<g id="node17" class="node">
<title>Node17</title>
<g id="a_node17"><a xlink:title=" ">
<polygon fill="none" stroke="#bfbfbf" points="2011,-67.5 2011,-97.5 2142,-97.5 2142,-67.5 2011,-67.5"/>
<text text-anchor="start" x="2019" y="-85.5" font-family="Helvetica,sans-Serif" font-size="10.00">sensor_msgs/msg/laser</text>
<text text-anchor="middle" x="2076.5" y="-74.5" font-family="Helvetica,sans-Serif" font-size="10.00">_scan.hpp</text>
</a>
</g>
</g>
<!-- Node1&#45;&gt;Node17 -->
<g id="edge16" class="edge">
<title>Node1&#45;&gt;Node17</title>
<path fill="none" stroke="midnightblue" d="M1462.22,-148.51C1585.82,-140.92 1804.16,-125.16 2000.78,-98"/>
<polygon fill="midnightblue" stroke="midnightblue" points="2001.29,-101.46 2010.71,-96.62 2000.33,-94.53 2001.29,-101.46"/>
</g>
<!-- Node18 -->
<g id="node18" class="node">
<title>Node18</title>
<g id="a_node18"><a xlink:title=" ">
<polygon fill="none" stroke="#bfbfbf" points="2160.5,-67.5 2160.5,-97.5 2292.5,-97.5 2292.5,-67.5 2160.5,-67.5"/>
<text text-anchor="start" x="2168.5" y="-85.5" font-family="Helvetica,sans-Serif" font-size="10.00">sensor_msgs/msg/point</text>
<text text-anchor="middle" x="2226.5" y="-74.5" font-family="Helvetica,sans-Serif" font-size="10.00">_cloud2.hpp</text>
</a>
</g>
</g>
<!-- Node1&#45;&gt;Node18 -->
<g id="edge17" class="edge">
<title>Node1&#45;&gt;Node18</title>
<path fill="none" stroke="midnightblue" d="M1462.16,-150.79C1609.79,-145.14 1897,-130.89 2150.19,-98.07"/>
<polygon fill="midnightblue" stroke="midnightblue" points="2150.86,-101.51 2160.32,-96.74 2149.95,-94.57 2150.86,-101.51"/>
</g>
<!-- Node19 -->
<g id="node19" class="node">
<title>Node19</title>
<g id="a_node19"><a xlink:title=" ">
<polygon fill="none" stroke="#bfbfbf" points="2311,-73 2311,-92 2440,-92 2440,-73 2311,-73"/>
<text text-anchor="middle" x="2375.5" y="-80" font-family="Helvetica,sans-Serif" font-size="10.00">std_srvs/srv/empty.hpp</text>
</a>
</g>
</g>
<!-- Node1&#45;&gt;Node19 -->
<g id="edge18" class="edge">
<title>Node1&#45;&gt;Node19</title>
<path fill="none" stroke="midnightblue" d="M1462.15,-152.45C1633.52,-148.78 1997.05,-136.74 2301.5,-98 2309.9,-96.93 2318.78,-95.48 2327.36,-93.9"/>
<polygon fill="midnightblue" stroke="midnightblue" points="2328.09,-97.32 2337.25,-92.01 2326.77,-90.45 2328.09,-97.32"/>
</g>
<!-- Node20 -->
<g id="node20" class="node">
<title>Node20</title>
<g id="a_node20"><a target="_parent" xlink:href="../../../../../../beluga_ros/docs/_doxygen/generated/reference/html/laser__scan_8hpp.html.html" xlink:title=" ">
<polygon fill="none" stroke="black" points="2458.5,-73 2458.5,-92 2604.5,-92 2604.5,-73 2458.5,-73"/>
<text text-anchor="middle" x="2531.5" y="-80" font-family="Helvetica,sans-Serif" font-size="10.00">beluga_ros/laser_scan.hpp</text>
</a>
</g>
</g>
<!-- Node1&#45;&gt;Node20 -->
<g id="edge19" class="edge">
<title>Node1&#45;&gt;Node20</title>
<path fill="none" stroke="midnightblue" d="M1462.29,-152.98C1653.5,-150.11 2087.23,-139.21 2449.5,-98 2459.09,-96.91 2469.27,-95.4 2479.06,-93.76"/>
<polygon fill="midnightblue" stroke="midnightblue" points="2479.83,-97.18 2489.09,-92.03 2478.64,-90.29 2479.83,-97.18"/>
</g>
<!-- Node21 -->
<g id="node21" class="node">
<title>Node21</title>
<g id="a_node21"><a xlink:href="ros2__common_8hpp_source.html" target="_top" xlink:title=" ">
<polygon fill="none" stroke="black" points="791.5,-73 791.5,-92 963.5,-92 963.5,-73 791.5,-73"/>
<text text-anchor="middle" x="877.5" y="-80" font-family="Helvetica,sans-Serif" font-size="10.00">beluga_amcl/ros2_common.hpp</text>
</a>
</g>
</g>
<!-- Node1&#45;&gt;Node21 -->
<g id="edge20" class="edge">
<title>Node1&#45;&gt;Node21</title>
<path fill="none" stroke="midnightblue" d="M1264.9,-140.04C1186.03,-128.83 1072.64,-112.6 973.5,-98 963.74,-96.56 953.43,-95.03 943.33,-93.51"/>
<polygon fill="midnightblue" stroke="midnightblue" points="943.74,-90.03 933.33,-92 942.7,-96.95 943.74,-90.03"/>
</g>
<!-- Node34 -->
<g id="node34" class="node">
<title>Node34</title>
<g id="a_node34"><a xlink:title=" ">
<polygon fill="none" stroke="#bfbfbf" points="2623,-73 2623,-92 2778,-92 2778,-73 2623,-73"/>
<text text-anchor="middle" x="2700.5" y="-80" font-family="Helvetica,sans-Serif" font-size="10.00">message_filters/subscriber.h</text>
</a>
</g>
</g>
<!-- Node1&#45;&gt;Node34 -->
<g id="edge37" class="edge">
<title>Node1&#45;&gt;Node34</title>
<path fill="none" stroke="midnightblue" d="M1462.25,-153.61C1673.86,-151.88 2186.56,-142.98 2613.5,-98 2623.89,-96.91 2634.91,-95.37 2645.5,-93.69"/>
<polygon fill="midnightblue" stroke="midnightblue" points="2646.18,-97.13 2655.49,-92.06 2645.05,-90.22 2646.18,-97.13"/>
</g>
<!-- Node21&#45;&gt;Node4 -->
<g id="edge34" class="edge">
<title>Node21&#45;&gt;Node4</title>
<path fill="none" stroke="midnightblue" d="M791.23,-75.61C618.47,-63.75 241.49,-37.59 182.5,-31 171.36,-29.76 159.52,-28.18 148.11,-26.53"/>
<polygon fill="midnightblue" stroke="midnightblue" points="148.62,-23.06 138.22,-25.06 147.6,-29.99 148.62,-23.06"/>
</g>
<!-- Node21&#45;&gt;Node5 -->
<g id="edge35" class="edge">
<title>Node21&#45;&gt;Node5</title>
<path fill="none" stroke="midnightblue" d="M791.44,-73.99C664.97,-62.83 434.98,-41.99 352.5,-31 343.14,-29.75 333.23,-28.24 323.61,-26.67"/>
<polygon fill="midnightblue" stroke="midnightblue" points="324.17,-23.21 313.73,-25.02 323.01,-30.12 324.17,-23.21"/>
</g>
<!-- Node21&#45;&gt;Node8 -->
<g id="edge21" class="edge">
<title>Node21&#45;&gt;Node8</title>
<path fill="none" stroke="midnightblue" d="M798.88,-72.97C676.59,-59.63 452.94,-34.96 435.5,-31 432.09,-30.23 428.56,-29.27 425.08,-28.22"/>
<polygon fill="midnightblue" stroke="midnightblue" points="426.06,-24.86 415.47,-25.1 423.9,-31.52 426.06,-24.86"/>
</g>
<!-- Node21&#45;&gt;Node16 -->
<g id="edge23" class="edge">
<title>Node21&#45;&gt;Node16</title>
<path fill="none" stroke="midnightblue" d="M828.21,-72.98C773.09,-63.41 680.85,-47.3 591.44,-31.16"/>
<polygon fill="midnightblue" stroke="midnightblue" points="591.86,-27.68 581.4,-29.34 590.61,-34.57 591.86,-27.68"/>
</g>
<!-- Node22 -->
<g id="node22" class="node">
<title>Node22</title>
<g id="a_node22"><a xlink:title=" ">
<polygon fill="none" stroke="#bfbfbf" points="599,-6 599,-25 734,-25 734,-6 599,-6"/>
<text text-anchor="middle" x="666.5" y="-13" font-family="Helvetica,sans-Serif" font-size="10.00">rclcpp/node_options.hpp</text>
</a>
</g>
</g>
<!-- Node21&#45;&gt;Node22 -->
<g id="edge22" class="edge">
<title>Node21&#45;&gt;Node22</title>
<path fill="none" stroke="midnightblue" d="M849.48,-72.87C812.09,-61.35 745.78,-40.92 704.08,-28.08"/>
<polygon fill="midnightblue" stroke="midnightblue" points="704.89,-24.66 694.3,-25.06 702.83,-31.35 704.89,-24.66"/>
</g>
<!-- Node23 -->
<g id="node23" class="node">
<title>Node23</title>
<g id="a_node23"><a xlink:title=" ">
<polygon fill="none" stroke="#bfbfbf" points="752,-6 752,-25 893,-25 893,-6 752,-6"/>
<text text-anchor="middle" x="822.5" y="-13" font-family="Helvetica,sans-Serif" font-size="10.00">rclcpp_lifecycle/state.hpp</text>
</a>
</g>
</g>
<!-- Node21&#45;&gt;Node23 -->
<g id="edge24" class="edge">
<title>Node21&#45;&gt;Node23</title>
<path fill="none" stroke="midnightblue" d="M870.08,-72.73C861.51,-62.6 847.2,-45.69 836.51,-33.06"/>
<polygon fill="midnightblue" stroke="midnightblue" points="838.93,-30.5 829.8,-25.13 833.59,-35.02 838.93,-30.5"/>
</g>
<!-- Node24 -->
<g id="node24" class="node">
<title>Node24</title>
<g id="a_node24"><a xlink:title=" ">
<polygon fill="none" stroke="#bfbfbf" points="911.5,-6 911.5,-25 955.5,-25 955.5,-6 911.5,-6"/>
<text text-anchor="middle" x="933.5" y="-13" font-family="Helvetica,sans-Serif" font-size="10.00">string</text>
</a>
</g>
</g>
<!-- Node21&#45;&gt;Node24 -->
<g id="edge25" class="edge">
<title>Node21&#45;&gt;Node24</title>
<path fill="none" stroke="midnightblue" d="M885.05,-72.73C893.78,-62.6 908.35,-45.69 919.24,-33.06"/>
<polygon fill="midnightblue" stroke="midnightblue" points="922.19,-34.99 926.07,-25.13 916.89,-30.42 922.19,-34.99"/>
</g>
<!-- Node25 -->
<g id="node25" class="node">
<title>Node25</title>
<g id="a_node25"><a xlink:title=" ">
<polygon fill="none" stroke="#bfbfbf" points="974,-6 974,-25 1047,-25 1047,-6 974,-6"/>
<text text-anchor="middle" x="1010.5" y="-13" font-family="Helvetica,sans-Serif" font-size="10.00">string_view</text>
</a>
</g>
</g>
<!-- Node21&#45;&gt;Node25 -->
<g id="edge26" class="edge">
<title>Node21&#45;&gt;Node25</title>
<path fill="none" stroke="midnightblue" d="M895.16,-72.87C917.82,-61.8 957.33,-42.49 983.7,-29.6"/>
<polygon fill="midnightblue" stroke="midnightblue" points="985.32,-32.7 992.77,-25.17 982.24,-26.41 985.32,-32.7"/>
</g>
<!-- Node26 -->
<g id="node26" class="node">
<title>Node26</title>
<g id="a_node26"><a xlink:title=" ">
<polygon fill="none" stroke="#bfbfbf" points="1065.5,-6 1065.5,-25 1171.5,-25 1171.5,-6 1065.5,-6"/>
<text text-anchor="middle" x="1118.5" y="-13" font-family="Helvetica,sans-Serif" font-size="10.00">bondcpp/bond.hpp</text>
</a>
</g>
</g>
<!-- Node21&#45;&gt;Node26 -->
<g id="edge27" class="edge">
<title>Node21&#45;&gt;Node26</title>
<path fill="none" stroke="midnightblue" d="M909.5,-72.87C952.66,-61.23 1029.56,-40.49 1077.08,-27.67"/>
<polygon fill="midnightblue" stroke="midnightblue" points="1078,-31.05 1086.75,-25.06 1076.18,-24.29 1078,-31.05"/>
</g>
<!-- Node27 -->
<g id="node27" class="node">
<title>Node27</title>
<g id="a_node27"><a xlink:title=" ">
<polygon fill="none" stroke="#bfbfbf" points="1189.5,-0.5 1189.5,-30.5 1335.5,-30.5 1335.5,-0.5 1189.5,-0.5"/>
<text text-anchor="start" x="1197.5" y="-18.5" font-family="Helvetica,sans-Serif" font-size="10.00">geometry_msgs/msg/pose</text>
<text text-anchor="middle" x="1262.5" y="-7.5" font-family="Helvetica,sans-Serif" font-size="10.00">_stamped.hpp</text>
</a>
</g>
</g>
<!-- Node21&#45;&gt;Node27 -->
<g id="edge28" class="edge">
<title>Node21&#45;&gt;Node27</title>
<path fill="none" stroke="midnightblue" d="M929.53,-72.99C987.85,-63.41 1085.5,-47.27 1179.25,-31.21"/>
<polygon fill="midnightblue" stroke="midnightblue" points="1179.92,-34.64 1189.19,-29.5 1178.74,-27.74 1179.92,-34.64"/>
</g>
<!-- Node28 -->
<g id="node28" class="node">
<title>Node28</title>
<g id="a_node28"><a xlink:title=" ">
<polygon fill="none" stroke="#bfbfbf" points="1354,-6 1354,-25 1453,-25 1453,-6 1354,-6"/>
<text text-anchor="middle" x="1403.5" y="-13" font-family="Helvetica,sans-Serif" font-size="10.00">rclcpp/rclcpp.hpp</text>
</a>
</g>
</g>
<!-- Node21&#45;&gt;Node28 -->
<g id="edge29" class="edge">
<title>Node21&#45;&gt;Node28</title>
<path fill="none" stroke="midnightblue" d="M930.5,-72.98C944.46,-70.88 959.53,-68.73 973.5,-67 1137.91,-46.62 1181.19,-58.84 1344.5,-31 1350.36,-30 1356.5,-28.74 1362.52,-27.38"/>
<polygon fill="midnightblue" stroke="midnightblue" points="1363.52,-30.74 1372.44,-25.02 1361.91,-23.92 1363.52,-30.74"/>
</g>
<!-- Node29 -->
<g id="node29" class="node">
<title>Node29</title>
<g id="a_node29"><a xlink:title=" ">
<polygon fill="none" stroke="#bfbfbf" points="1471.5,-6 1471.5,-25 1563.5,-25 1563.5,-6 1471.5,-6"/>
<text text-anchor="middle" x="1517.5" y="-13" font-family="Helvetica,sans-Serif" font-size="10.00">rclcpp/time.hpp</text>
</a>
</g>
</g>
<!-- Node21&#45;&gt;Node29 -->
<g id="edge30" class="edge">
<title>Node21&#45;&gt;Node29</title>
<path fill="none" stroke="midnightblue" d="M929.22,-72.95C943.53,-70.78 959.09,-68.62 973.5,-67 1190.06,-42.71 1247.56,-66.93 1462.5,-31 1467.98,-30.08 1473.7,-28.87 1479.31,-27.53"/>
<polygon fill="midnightblue" stroke="midnightblue" points="1480.34,-30.88 1489.17,-25.04 1478.62,-24.1 1480.34,-30.88"/>
</g>
<!-- Node30 -->
<g id="node30" class="node">
<title>Node30</title>
<g id="a_node30"><a xlink:title=" ">
<polygon fill="none" stroke="#bfbfbf" points="1582,-6 1582,-25 1661,-25 1661,-6 1582,-6"/>
<text text-anchor="middle" x="1621.5" y="-13" font-family="Helvetica,sans-Serif" font-size="10.00">tf2/convert.h</text>
</a>
</g>
</g>
<!-- Node21&#45;&gt;Node30 -->
<g id="edge31" class="edge">
<title>Node21&#45;&gt;Node30</title>
<path fill="none" stroke="midnightblue" d="M928.21,-72.97C942.8,-70.75 958.75,-68.55 973.5,-67 1238.73,-39.06 1309.82,-77.14 1572.5,-31 1577.22,-30.17 1582.13,-29.05 1586.94,-27.79"/>
<polygon fill="midnightblue" stroke="midnightblue" points="1587.91,-31.15 1596.58,-25.07 1586.01,-24.41 1587.91,-31.15"/>
</g>
<!-- Node31 -->
<g id="node31" class="node">
<title>Node31</title>
<g id="a_node31"><a xlink:title=" ">
<polygon fill="none" stroke="#bfbfbf" points="1679,-6 1679,-25 1742,-25 1742,-6 1679,-6"/>
<text text-anchor="middle" x="1710.5" y="-13" font-family="Helvetica,sans-Serif" font-size="10.00">tf2/utils.h</text>
</a>
</g>
</g>
<!-- Node21&#45;&gt;Node31 -->
<g id="edge32" class="edge">
<title>Node21&#45;&gt;Node31</title>
<path fill="none" stroke="midnightblue" d="M927.7,-72.97C942.42,-70.72 958.57,-68.51 973.5,-67 1282.12,-35.8 1366.47,-92.53 1670.5,-31 1673.93,-30.3 1677.47,-29.37 1680.95,-28.31"/>
<polygon fill="midnightblue" stroke="midnightblue" points="1682.14,-31.6 1690.49,-25.07 1679.89,-24.97 1682.14,-31.6"/>
</g>
<!-- Node32 -->
<g id="node32" class="node">
<title>Node32</title>
<g id="a_node32"><a xlink:title=" ">
<polygon fill="none" stroke="#bfbfbf" points="1760.5,-0.5 1760.5,-30.5 1876.5,-30.5 1876.5,-0.5 1760.5,-0.5"/>
<text text-anchor="start" x="1768.5" y="-18.5" font-family="Helvetica,sans-Serif" font-size="10.00">tf2_ros/create_timer</text>
<text text-anchor="middle" x="1818.5" y="-7.5" font-family="Helvetica,sans-Serif" font-size="10.00">_ros.h</text>
</a>
</g>
</g>
<!-- Node21&#45;&gt;Node32 -->
<g id="edge33" class="edge">
<title>Node21&#45;&gt;Node32</title>
<path fill="none" stroke="midnightblue" d="M927.2,-72.99C942.06,-70.72 958.4,-68.49 973.5,-67 1314.7,-33.43 1406.52,-74.96 1750.51,-30.96"/>
<polygon fill="midnightblue" stroke="midnightblue" points="1751.03,-34.43 1760.5,-29.67 1750.13,-27.48 1751.03,-34.43"/>
</g>
<!-- Node33 -->
<g id="node33" class="node">
<title>Node33</title>
<g id="a_node33"><a target="_parent" xlink:href="../../../../../../beluga_ros/docs/_doxygen/generated/reference/html/tf2__sophus_8hpp.html.html" xlink:title=" ">
<polygon fill="none" stroke="black" points="1895,-6 1895,-25 2042,-25 2042,-6 1895,-6"/>
<text text-anchor="middle" x="1968.5" y="-13" font-family="Helvetica,sans-Serif" font-size="10.00">beluga_ros/tf2_sophus.hpp</text>
</a>
</g>
</g>
<!-- Node21&#45;&gt;Node33 -->
<g id="edge36" class="edge">
<title>Node21&#45;&gt;Node33</title>
<path fill="none" stroke="midnightblue" d="M927.2,-72.93C942.05,-70.65 958.4,-68.43 973.5,-67 1377.33,-28.65 1482.14,-74 1885.5,-31 1895.43,-29.94 1905.96,-28.42 1916.07,-26.75"/>
<polygon fill="midnightblue" stroke="midnightblue" points="1916.74,-30.19 1926,-25.05 1915.56,-23.29 1916.74,-30.19"/>
</g>
</g>
</svg>
        <g id="navigator" transform="translate(0 0)" fill="#404254">
                <rect fill="#f2f5e9" fill-opacity="0.5" stroke="#606060" stroke-width=".5" x="0" y="0" width="60" height="60"/>
                <use id="zoomplus" xlink:href="#zoomPlus" x="17" y="9" onmousedown="handleZoom(evt,'in')"/>
                <use id="zoomminus" xlink:href="#zoomMin" x="42" y="9" onmousedown="handleZoom(evt,'out')"/>
                <use id="reset" xlink:href="#resetDef" x="30" y="36" onmousedown="handleReset()"/>
                <g id="arrowUp" xlink:href="#dirArrow" transform="translate(30 24)" onmousedown="handlePan(0,-1)">
                  <use xlink:href="#rim" fill="#404040">
                        <set attributeName="fill" to="#808080" begin="arrowUp.mouseover" end="arrowUp.mouseout"/>
                  </use>
                  <path fill="none" stroke="white" stroke-width="1.5" d="M0,-3.0v7 M-2.5,-0.5L0,-3.0L2.5,-0.5"/>
                </g>
                <g id="arrowRight" xlink:href="#dirArrow" transform="rotate(90) translate(36 -43)" onmousedown="handlePan(1,0)">
                  <use xlink:href="#rim" fill="#404040">
                        <set attributeName="fill" to="#808080" begin="arrowRight.mouseover" end="arrowRight.mouseout"/>
                  </use>
                  <path fill="none" stroke="white" stroke-width="1.5" d="M0,-3.0v7 M-2.5,-0.5L0,-3.0L2.5,-0.5"/>
                </g>
                <g id="arrowDown" xlink:href="#dirArrow" transform="rotate(180) translate(-30 -48)" onmousedown="handlePan(0,1)">
                  <use xlink:href="#rim" fill="#404040">
                        <set attributeName="fill" to="#808080" begin="arrowDown.mouseover" end="arrowDown.mouseout"/>
                  </use>
                  <path fill="none" stroke="white" stroke-width="1.5" d="M0,-3.0v7 M-2.5,-0.5L0,-3.0L2.5,-0.5"/>
                </g>
                <g id="arrowLeft" xlink:href="#dirArrow" transform="rotate(270) translate(-36 17)" onmousedown="handlePan(-1,0)">
                  <use xlink:href="#rim" fill="#404040">
                        <set attributeName="fill" to="#808080" begin="arrowLeft.mouseover" end="arrowLeft.mouseout"/>
                  </use>
                  <path fill="none" stroke="white" stroke-width="1.5" d="M0,-3.0v7 M-2.5,-0.5L0,-3.0L2.5,-0.5"/>
                </g>
        </g>
        <svg viewBox="0 0 15 15" width="100%" height="30px" preserveAspectRatio="xMaxYMin meet">
         <g id="arrow_out" transform="scale(0.3 0.3)">
          <a xlink:href="ndt__amcl__node__3d_8hpp__incl_org.svg" target="_base">
           <rect id="button" ry="5" rx="5" y="6" x="6" height="38" width="38"
                fill="#f2f5e9" fill-opacity="0.5" stroke="#606060" stroke-width="1.0"/>
           <path id="arrow"
             d="M 11.500037,31.436501 C 11.940474,20.09759 22.043105,11.32322 32.158766,21.979434 L 37.068811,17.246167 C 37.068811,17.246167 37.088388,32 37.088388,32 L 22.160133,31.978069 C 22.160133,31.978069 26.997745,27.140456 26.997745,27.140456 C 18.528582,18.264221 13.291696,25.230495 11.500037,31.436501 z"
             style="fill:#404040;"/>
          </a>
         </g>
        </svg>
</svg>
