<?xml version="1.0" encoding="UTF-8" standalone="no"?>
<!DOCTYPE svg PUBLIC "-//W3C//DTD SVG 1.1//EN"
 "http://www.w3.org/Graphics/SVG/1.1/DTD/svg11.dtd">
<!-- Generated by graphviz version 2.43.0 (0)
 -->
<!-- Title: /home/runner/work/beluga/beluga/beluga_amcl/include/beluga_amcl/ndt_amcl_node_3d.hpp Pages: 1 -->
<svg width="3758pt" height="184pt"
 viewBox="0.00 0.00 3757.50 184.00" xmlns="http://www.w3.org/2000/svg" xmlns:xlink="http://www.w3.org/1999/xlink">
<g id="graph0" class="graph" transform="scale(1 1) rotate(0) translate(4 180)">
<title>/home/runner/work/beluga/beluga/beluga_amcl/include/beluga_amcl/ndt_amcl_node_3d.hpp</title>
<!-- Node1 -->
<g id="node1" class="node">
<title>Node1</title>
<g id="a_node1"><a xlink:title="ROS 2 integration of the 3D NDT&#45;AMCL algorithm.">
<polygon fill="#bfbfbf" stroke="black" points="1007.5,-134.5 1007.5,-175.5 1204.5,-175.5 1204.5,-134.5 1007.5,-134.5"/>
<text text-anchor="start" x="1015.5" y="-163.5" font-family="Helvetica,sans-Serif" font-size="10.00">/home/runner/work/beluga</text>
<text text-anchor="start" x="1015.5" y="-152.5" font-family="Helvetica,sans-Serif" font-size="10.00">/beluga/beluga_amcl/include</text>
<text text-anchor="middle" x="1106" y="-141.5" font-family="Helvetica,sans-Serif" font-size="10.00">/beluga_amcl/ndt_amcl_node_3d.hpp</text>
</a>
</g>
</g>
<!-- Node2 -->
<g id="node2" class="node">
<title>Node2</title>
<g id="a_node2"><a xlink:title=" ">
<polygon fill="none" stroke="#bfbfbf" points="0,-73 0,-92 102,-92 102,-73 0,-73"/>
<text text-anchor="middle" x="51" y="-80" font-family="Helvetica,sans-Serif" font-size="10.00">tf2_ros/buffer.hpp</text>
</a>
</g>
</g>
<!-- Node1&#45;&gt;Node2 -->
<g id="edge1" class="edge">
<title>Node1&#45;&gt;Node2</title>
<path fill="none" stroke="midnightblue" d="M1007.25,-154.34C827.8,-153.64 436.63,-146.11 111,-98 104.67,-97.06 98.03,-95.78 91.56,-94.35"/>
<polygon fill="midnightblue" stroke="midnightblue" points="92.16,-90.9 81.62,-92.03 90.56,-97.71 92.16,-90.9"/>
</g>
<!-- Node3 -->
<g id="node3" class="node">
<title>Node3</title>
<g id="a_node3"><a xlink:title=" ">
<polygon fill="none" stroke="#bfbfbf" points="120,-73 120,-92 266,-92 266,-73 120,-73"/>
<text text-anchor="middle" x="193" y="-80" font-family="Helvetica,sans-Serif" font-size="10.00">tf2_ros/message_filter.hpp</text>
</a>
</g>
</g>
<!-- Node1&#45;&gt;Node3 -->
<g id="edge2" class="edge">
<title>Node1&#45;&gt;Node3</title>
<path fill="none" stroke="midnightblue" d="M1007.49,-150.43C852.35,-144.1 541.78,-128.62 280,-98 269.96,-96.83 259.32,-95.29 249.05,-93.67"/>
<polygon fill="midnightblue" stroke="midnightblue" points="249.37,-90.17 238.94,-92.02 248.24,-97.08 249.37,-90.17"/>
</g>
<!-- Node4 -->
<g id="node4" class="node">
<title>Node4</title>
<g id="a_node4"><a xlink:title=" ">
<polygon fill="none" stroke="#bfbfbf" points="1341.5,-6 1341.5,-25 1526.5,-25 1526.5,-6 1341.5,-6"/>
<text text-anchor="middle" x="1434" y="-13" font-family="Helvetica,sans-Serif" font-size="10.00">tf2_ros/transform_broadcaster.hpp</text>
</a>
</g>
</g>
<!-- Node1&#45;&gt;Node4 -->
<g id="edge3" class="edge">
<title>Node1&#45;&gt;Node4</title>
<path fill="none" stroke="midnightblue" d="M1204.65,-147.91C1283.74,-140.97 1386.24,-126.63 1416,-98 1432.78,-81.86 1435.59,-53.88 1435.35,-35.28"/>
<polygon fill="midnightblue" stroke="midnightblue" points="1438.84,-34.93 1434.91,-25.1 1431.85,-35.24 1438.84,-34.93"/>
</g>
<!-- Node5 -->
<g id="node5" class="node">
<title>Node5</title>
<g id="a_node5"><a xlink:title=" ">
<polygon fill="none" stroke="#bfbfbf" points="1545,-6 1545,-25 1709,-25 1709,-6 1545,-6"/>
<text text-anchor="middle" x="1627" y="-13" font-family="Helvetica,sans-Serif" font-size="10.00">tf2_ros/transform_listener.hpp</text>
</a>
</g>
</g>
<!-- Node1&#45;&gt;Node5 -->
<g id="edge4" class="edge">
<title>Node1&#45;&gt;Node5</title>
<path fill="none" stroke="midnightblue" d="M1204.79,-143.52C1271.32,-134.96 1360.55,-120.52 1437,-98 1453.31,-93.2 1549.53,-50.87 1598.46,-29.19"/>
<polygon fill="midnightblue" stroke="midnightblue" points="1600.14,-32.27 1607.86,-25.02 1597.3,-25.87 1600.14,-32.27"/>
</g>
<!-- Node6 -->
<g id="node6" class="node">
<title>Node6</title>
<g id="a_node6"><a xlink:title=" ">
<polygon fill="none" stroke="#bfbfbf" points="360.5,-67.5 360.5,-97.5 487.5,-97.5 487.5,-67.5 360.5,-67.5"/>
<text text-anchor="start" x="368.5" y="-85.5" font-family="Helvetica,sans-Serif" font-size="10.00">beluga/algorithm/amcl</text>
<text text-anchor="middle" x="424" y="-74.5" font-family="Helvetica,sans-Serif" font-size="10.00">_core.hpp</text>
</a>
</g>
</g>
<!-- Node1&#45;&gt;Node6 -->
<g id="edge5" class="edge">
<title>Node1&#45;&gt;Node6</title>
<path fill="none" stroke="midnightblue" d="M1007.27,-148.1C888.62,-140.3 683.4,-124.51 497.59,-97.98"/>
<polygon fill="midnightblue" stroke="midnightblue" points="498.03,-94.51 487.63,-96.55 497.03,-101.44 498.03,-94.51"/>
</g>
<!-- Node7 -->
<g id="node7" class="node">
<title>Node7</title>
<g id="a_node7"><a target="_parent" xlink:href="../../../../../../beluga/docs/_doxygen/generated/reference/html/beluga_8hpp.html.html" xlink:title=" ">
<polygon fill="none" stroke="black" points="505.5,-73 505.5,-92 612.5,-92 612.5,-73 505.5,-73"/>
<text text-anchor="middle" x="559" y="-80" font-family="Helvetica,sans-Serif" font-size="10.00">beluga/beluga.hpp</text>
</a>
</g>
</g>
<!-- Node1&#45;&gt;Node7 -->
<g id="edge6" class="edge">
<title>Node1&#45;&gt;Node7</title>
<path fill="none" stroke="midnightblue" d="M1007.28,-145.81C909.15,-136.92 754.54,-120.85 622,-98 615.76,-96.92 609.21,-95.62 602.78,-94.23"/>
<polygon fill="midnightblue" stroke="midnightblue" points="603.39,-90.78 592.86,-92.02 601.86,-97.62 603.39,-90.78"/>
</g>
<!-- Node8 -->
<g id="node8" class="node">
<title>Node8</title>
<g id="a_node8"><a xlink:title=" ">
<polygon fill="none" stroke="#bfbfbf" points="1727,-6 1727,-25 1791,-25 1791,-6 1727,-6"/>
<text text-anchor="middle" x="1759" y="-13" font-family="Helvetica,sans-Serif" font-size="10.00">execution</text>
</a>
</g>
</g>
<!-- Node1&#45;&gt;Node8 -->
<g id="edge7" class="edge">
<title>Node1&#45;&gt;Node8</title>
<path fill="none" stroke="midnightblue" d="M1204.83,-153.58C1392.12,-151.75 1783.76,-142.57 1825,-98 1845.9,-75.4 1810.41,-47.11 1783.9,-30.5"/>
<polygon fill="midnightblue" stroke="midnightblue" points="1785.37,-27.3 1775,-25.13 1781.76,-33.29 1785.37,-27.3"/>
</g>
<!-- Node9 -->
<g id="node9" class="node">
<title>Node9</title>
<g id="a_node9"><a xlink:title=" ">
<polygon fill="none" stroke="#bfbfbf" points="775.5,-73 775.5,-92 840.5,-92 840.5,-73 775.5,-73"/>
<text text-anchor="middle" x="808" y="-80" font-family="Helvetica,sans-Serif" font-size="10.00">functional</text>
</a>
</g>
</g>
<!-- Node1&#45;&gt;Node9 -->
<g id="edge8" class="edge">
<title>Node1&#45;&gt;Node9</title>
<path fill="none" stroke="midnightblue" d="M1007.48,-135.26C959.62,-125.44 901.46,-112.46 850,-98 847.05,-97.17 844,-96.25 840.96,-95.29"/>
<polygon fill="midnightblue" stroke="midnightblue" points="841.99,-91.94 831.39,-92.12 839.79,-98.58 841.99,-91.94"/>
</g>
<!-- Node10 -->
<g id="node10" class="node">
<title>Node10</title>
<g id="a_node10"><a xlink:title=" ">
<polygon fill="none" stroke="#bfbfbf" points="859,-73 859,-92 915,-92 915,-73 859,-73"/>
<text text-anchor="middle" x="887" y="-80" font-family="Helvetica,sans-Serif" font-size="10.00">optional</text>
</a>
</g>
</g>
<!-- Node1&#45;&gt;Node10 -->
<g id="edge9" class="edge">
<title>Node1&#45;&gt;Node10</title>
<path fill="none" stroke="midnightblue" d="M1038.19,-134.45C1003.78,-124.2 961.45,-111.08 924,-98 921.88,-97.26 919.71,-96.48 917.52,-95.67"/>
<polygon fill="midnightblue" stroke="midnightblue" points="918.62,-92.34 908.03,-92.06 916.13,-98.88 918.62,-92.34"/>
</g>
<!-- Node11 -->
<g id="node11" class="node">
<title>Node11</title>
<g id="a_node11"><a xlink:title=" ">
<polygon fill="none" stroke="#bfbfbf" points="933,-73 933,-92 1035,-92 1035,-73 933,-73"/>
<text text-anchor="middle" x="984" y="-80" font-family="Helvetica,sans-Serif" font-size="10.00">sophus/types.hpp</text>
</a>
</g>
</g>
<!-- Node1&#45;&gt;Node11 -->
<g id="edge10" class="edge">
<title>Node1&#45;&gt;Node11</title>
<path fill="none" stroke="midnightblue" d="M1072.02,-134.36C1051.6,-122.57 1026.13,-107.85 1007.85,-97.28"/>
<polygon fill="midnightblue" stroke="midnightblue" points="1009.42,-94.15 999.01,-92.17 1005.92,-100.21 1009.42,-94.15"/>
</g>
<!-- Node12 -->
<g id="node12" class="node">
<title>Node12</title>
<g id="a_node12"><a xlink:title=" ">
<polygon fill="none" stroke="#bfbfbf" points="1053.5,-73 1053.5,-92 1094.5,-92 1094.5,-73 1053.5,-73"/>
<text text-anchor="middle" x="1074" y="-80" font-family="Helvetica,sans-Serif" font-size="10.00">tuple</text>
</a>
</g>
</g>
<!-- Node1&#45;&gt;Node12 -->
<g id="edge11" class="edge">
<title>Node1&#45;&gt;Node12</title>
<path fill="none" stroke="midnightblue" d="M1097.09,-134.36C1092.42,-124.08 1086.75,-111.58 1082.19,-101.54"/>
<polygon fill="midnightblue" stroke="midnightblue" points="1085.26,-99.83 1077.94,-92.17 1078.88,-102.73 1085.26,-99.83"/>
</g>
<!-- Node13 -->
<g id="node13" class="node">
<title>Node13</title>
<g id="a_node13"><a xlink:title=" ">
<polygon fill="none" stroke="#bfbfbf" points="1112.5,-73 1112.5,-92 1163.5,-92 1163.5,-73 1112.5,-73"/>
<text text-anchor="middle" x="1138" y="-80" font-family="Helvetica,sans-Serif" font-size="10.00">variant</text>
</a>
</g>
</g>
<!-- Node1&#45;&gt;Node13 -->
<g id="edge12" class="edge">
<title>Node1&#45;&gt;Node13</title>
<path fill="none" stroke="midnightblue" d="M1114.91,-134.36C1119.58,-124.08 1125.25,-111.58 1129.81,-101.54"/>
<polygon fill="midnightblue" stroke="midnightblue" points="1133.12,-102.73 1134.06,-92.17 1126.74,-99.83 1133.12,-102.73"/>
</g>
<!-- Node14 -->
<g id="node14" class="node">
<title>Node14</title>
<g id="a_node14"><a xlink:title=" ">
<polygon fill="none" stroke="#bfbfbf" points="1809,-0.5 1809,-30.5 1955,-30.5 1955,-0.5 1809,-0.5"/>
<text text-anchor="start" x="1817" y="-18.5" font-family="Helvetica,sans-Serif" font-size="10.00">geometry_msgs/msg/pose</text>
<text text-anchor="middle" x="1882" y="-7.5" font-family="Helvetica,sans-Serif" font-size="10.00">_array.hpp</text>
</a>
</g>
</g>
<!-- Node1&#45;&gt;Node14 -->
<g id="edge13" class="edge">
<title>Node1&#45;&gt;Node14</title>
<path fill="none" stroke="midnightblue" d="M1204.81,-151.89C1393.38,-147.08 1790.47,-132.89 1842,-98 1861.49,-84.8 1871.85,-59.27 1877.11,-40.28"/>
<polygon fill="midnightblue" stroke="midnightblue" points="1880.51,-41.07 1879.52,-30.52 1873.72,-39.39 1880.51,-41.07"/>
</g>
<!-- Node15 -->
<g id="node15" class="node">
<title>Node15</title>
<g id="a_node15"><a xlink:title=" ">
<polygon fill="none" stroke="#bfbfbf" points="1220,-67.5 1220,-97.5 1390,-97.5 1390,-67.5 1220,-67.5"/>
<text text-anchor="start" x="1228" y="-85.5" font-family="Helvetica,sans-Serif" font-size="10.00">geometry_msgs/msg/pose</text>
<text text-anchor="middle" x="1305" y="-74.5" font-family="Helvetica,sans-Serif" font-size="10.00">_with_covariance_stamped.hpp</text>
</a>
</g>
</g>
<!-- Node1&#45;&gt;Node15 -->
<g id="edge14" class="edge">
<title>Node1&#45;&gt;Node15</title>
<path fill="none" stroke="midnightblue" d="M1161.17,-134.46C1190.7,-123.99 1226.78,-111.21 1255.41,-101.07"/>
<polygon fill="midnightblue" stroke="midnightblue" points="1256.95,-104.24 1265.21,-97.6 1254.61,-97.64 1256.95,-104.24"/>
</g>
<!-- Node16 -->
<g id="node16" class="node">
<title>Node16</title>
<g id="a_node16"><a xlink:title=" ">
<polygon fill="none" stroke="#bfbfbf" points="1186.5,-0.5 1186.5,-30.5 1323.5,-30.5 1323.5,-0.5 1186.5,-0.5"/>
<text text-anchor="start" x="1194.5" y="-18.5" font-family="Helvetica,sans-Serif" font-size="10.00">rclcpp_lifecycle/lifecycle</text>
<text text-anchor="middle" x="1255" y="-7.5" font-family="Helvetica,sans-Serif" font-size="10.00">_node.hpp</text>
</a>
</g>
</g>
<!-- Node1&#45;&gt;Node16 -->
<g id="edge15" class="edge">
<title>Node1&#45;&gt;Node16</title>
<path fill="none" stroke="midnightblue" d="M1204.64,-148.35C1279.83,-141.73 1374.49,-127.63 1399,-98 1424.47,-67.21 1379.74,-45.81 1333.58,-32.7"/>
<polygon fill="midnightblue" stroke="midnightblue" points="1334.3,-29.27 1323.74,-30.02 1332.47,-36.02 1334.3,-29.27"/>
</g>
<!-- Node17 -->
<g id="node17" class="node">
<title>Node17</title>
<g id="a_node17"><a xlink:title=" ">
<polygon fill="none" stroke="#bfbfbf" points="343.5,-0.5 343.5,-30.5 474.5,-30.5 474.5,-0.5 343.5,-0.5"/>
<text text-anchor="start" x="351.5" y="-18.5" font-family="Helvetica,sans-Serif" font-size="10.00">sensor_msgs/msg/laser</text>
<text text-anchor="middle" x="409" y="-7.5" font-family="Helvetica,sans-Serif" font-size="10.00">_scan.hpp</text>
</a>
</g>
</g>
<!-- Node1&#45;&gt;Node17 -->
<g id="edge16" class="edge">
<title>Node1&#45;&gt;Node17</title>
<path fill="none" stroke="midnightblue" d="M1007.33,-154.09C810.79,-153.24 385.45,-145.83 341,-98 322.06,-77.63 349.1,-52.95 374.47,-36.12"/>
<polygon fill="midnightblue" stroke="midnightblue" points="376.39,-39.05 382.95,-30.73 372.63,-33.14 376.39,-39.05"/>
</g>
<!-- Node18 -->
<g id="node18" class="node">
<title>Node18</title>
<g id="a_node18"><a xlink:title=" ">
<polygon fill="none" stroke="#bfbfbf" points="534,-0.5 534,-30.5 666,-30.5 666,-0.5 534,-0.5"/>
<text text-anchor="start" x="542" y="-18.5" font-family="Helvetica,sans-Serif" font-size="10.00">sensor_msgs/msg/point</text>
<text text-anchor="middle" x="600" y="-7.5" font-family="Helvetica,sans-Serif" font-size="10.00">_cloud2.hpp</text>
</a>
</g>
</g>
<!-- Node1&#45;&gt;Node18 -->
<g id="edge17" class="edge">
<title>Node1&#45;&gt;Node18</title>
<path fill="none" stroke="midnightblue" d="M1007.5,-153.99C813.04,-152.93 394.77,-145.13 351,-98 341.62,-87.9 342.28,-77.67 351,-67 362.06,-53.47 454.83,-37.34 523.91,-27.02"/>
<polygon fill="midnightblue" stroke="midnightblue" points="524.54,-30.46 533.92,-25.54 523.52,-23.54 524.54,-30.46"/>
</g>
<!-- Node19 -->
<g id="node19" class="node">
<title>Node19</title>
<g id="a_node19"><a xlink:title=" ">
<polygon fill="none" stroke="#bfbfbf" points="1522.5,-73 1522.5,-92 1651.5,-92 1651.5,-73 1522.5,-73"/>
<text text-anchor="middle" x="1587" y="-80" font-family="Helvetica,sans-Serif" font-size="10.00">std_srvs/srv/empty.hpp</text>
</a>
</g>
</g>
<!-- Node1&#45;&gt;Node19 -->
<g id="edge18" class="edge">
<title>Node1&#45;&gt;Node19</title>
<path fill="none" stroke="midnightblue" d="M1204.89,-141.43C1286.37,-130.79 1404.87,-114.64 1508,-98 1515.93,-96.72 1524.29,-95.28 1532.48,-93.82"/>
<polygon fill="midnightblue" stroke="midnightblue" points="1533.13,-97.26 1542.35,-92.04 1531.89,-90.37 1533.13,-97.26"/>
</g>
<!-- Node20 -->
<g id="node20" class="node">
<title>Node20</title>
<g id="a_node20"><a target="_parent" xlink:href="../../../../../../beluga_ros/docs/_doxygen/generated/reference/html/laser__scan_8hpp.html.html" xlink:title=" ">
<polygon fill="none" stroke="black" points="1670,-73 1670,-92 1816,-92 1816,-73 1670,-73"/>
<text text-anchor="middle" x="1743" y="-80" font-family="Helvetica,sans-Serif" font-size="10.00">beluga_ros/laser_scan.hpp</text>
</a>
</g>
</g>
<!-- Node1&#45;&gt;Node20 -->
<g id="edge19" class="edge">
<title>Node1&#45;&gt;Node20</title>
<path fill="none" stroke="midnightblue" d="M1204.51,-146.29C1315.68,-137.07 1501.76,-120.08 1661,-98 1669.84,-96.77 1679.19,-95.3 1688.29,-93.76"/>
<polygon fill="midnightblue" stroke="midnightblue" points="1689.15,-97.16 1698.41,-92.01 1687.96,-90.26 1689.15,-97.16"/>
</g>
<!-- Node21 -->
<g id="node21" class="node">
<title>Node21</title>
<g id="a_node21"><a xlink:href="message__filters_8hpp.html" target="_top" xlink:title="Compatibility layer for message_filters.">
<polygon fill="none" stroke="black" points="631,-67.5 631,-97.5 757,-97.5 757,-67.5 631,-67.5"/>
<text text-anchor="start" x="639" y="-85.5" font-family="Helvetica,sans-Serif" font-size="10.00">beluga_amcl/message</text>
<text text-anchor="middle" x="694" y="-74.5" font-family="Helvetica,sans-Serif" font-size="10.00">_filters.hpp</text>
</a>
</g>
</g>
<!-- Node1&#45;&gt;Node21 -->
<g id="edge20" class="edge">
<title>Node1&#45;&gt;Node21</title>
<path fill="none" stroke="midnightblue" d="M1007.21,-138.55C942.02,-128.14 854.48,-113.79 767.35,-98.03"/>
<polygon fill="midnightblue" stroke="midnightblue" points="767.75,-94.54 757.28,-96.2 766.5,-101.43 767.75,-94.54"/>
</g>
<!-- Node22 -->
<g id="node22" class="node">
<title>Node22</title>
<g id="a_node22"><a xlink:title=" ">
<polygon fill="none" stroke="#bfbfbf" points="704.5,-6 704.5,-25 871.5,-25 871.5,-6 704.5,-6"/>
<text text-anchor="middle" x="788" y="-13" font-family="Helvetica,sans-Serif" font-size="10.00">message_filters/subscriber.hpp</text>
</a>
</g>
</g>
<!-- Node1&#45;&gt;Node22 -->
<g id="edge45" class="edge">
<title>Node1&#45;&gt;Node22</title>
<path fill="none" stroke="midnightblue" d="M1138.16,-134.43C1163.82,-116.42 1192.49,-89.21 1173,-67 1154.05,-45.4 989.56,-30.17 881.81,-22.41"/>
<polygon fill="midnightblue" stroke="midnightblue" points="881.79,-18.9 871.56,-21.68 881.29,-25.88 881.79,-18.9"/>
</g>
<!-- Node23 -->
<g id="node23" class="node">
<title>Node23</title>
<g id="a_node23"><a xlink:href="ros2__common_8hpp_source.html" target="_top" xlink:title=" ">
<polygon fill="none" stroke="black" points="2465,-73 2465,-92 2637,-92 2637,-73 2465,-73"/>
<text text-anchor="middle" x="2551" y="-80" font-family="Helvetica,sans-Serif" font-size="10.00">beluga_amcl/ros2_common.hpp</text>
</a>
</g>
</g>
<!-- Node1&#45;&gt;Node23 -->
<g id="edge25" class="edge">
<title>Node1&#45;&gt;Node23</title>
<path fill="none" stroke="midnightblue" d="M1204.75,-149.18C1469.47,-136.27 2192.57,-100.99 2454.58,-88.2"/>
<polygon fill="midnightblue" stroke="midnightblue" points="2455.01,-91.69 2464.83,-87.7 2454.67,-84.7 2455.01,-91.69"/>
</g>
<!-- Node21&#45;&gt;Node16 -->
<g id="edge22" class="edge">
<title>Node21&#45;&gt;Node16</title>
<path fill="none" stroke="midnightblue" d="M757.24,-68.56C760.54,-68.01 763.81,-67.48 767,-67 910.78,-45.33 1079.8,-30.1 1176.47,-22.37"/>
<polygon fill="midnightblue" stroke="midnightblue" points="1176.76,-25.85 1186.45,-21.57 1176.21,-18.87 1176.76,-25.85"/>
</g>
<!-- Node21&#45;&gt;Node17 -->
<g id="edge23" class="edge">
<title>Node21&#45;&gt;Node17</title>
<path fill="none" stroke="midnightblue" d="M632.51,-67.48C587.9,-57.3 527.43,-43.51 480.64,-32.84"/>
<polygon fill="midnightblue" stroke="midnightblue" points="481.4,-29.42 470.87,-30.61 479.84,-36.25 481.4,-29.42"/>
</g>
<!-- Node21&#45;&gt;Node18 -->
<g id="edge24" class="edge">
<title>Node21&#45;&gt;Node18</title>
<path fill="none" stroke="midnightblue" d="M673.6,-67.4C660.55,-58.37 643.4,-46.51 628.95,-36.52"/>
<polygon fill="midnightblue" stroke="midnightblue" points="630.57,-33.39 620.36,-30.58 626.59,-39.14 630.57,-33.39"/>
</g>
<!-- Node21&#45;&gt;Node22 -->
<g id="edge21" class="edge">
<title>Node21&#45;&gt;Node22</title>
<path fill="none" stroke="midnightblue" d="M714.4,-67.4C730.01,-56.6 751.48,-41.76 767.19,-30.89"/>
<polygon fill="midnightblue" stroke="midnightblue" points="769.46,-33.57 775.7,-25.01 765.48,-27.82 769.46,-33.57"/>
</g>
<!-- Node23&#45;&gt;Node4 -->
<g id="edge42" class="edge">
<title>Node23&#45;&gt;Node4</title>
<path fill="none" stroke="midnightblue" d="M2464.92,-79.87C2289.71,-75.98 1879.14,-63.86 1536,-31 1523.5,-29.8 1510.18,-28.17 1497.43,-26.43"/>
<polygon fill="midnightblue" stroke="midnightblue" points="1497.75,-22.94 1487.36,-25.02 1496.78,-29.88 1497.75,-22.94"/>
</g>
<!-- Node23&#45;&gt;Node5 -->
<g id="edge43" class="edge">
<title>Node23&#45;&gt;Node5</title>
<path fill="none" stroke="midnightblue" d="M2464.73,-79.04C2313.23,-74.11 1989.66,-60.81 1718,-31 1707.29,-29.82 1695.91,-28.26 1684.96,-26.6"/>
<polygon fill="midnightblue" stroke="midnightblue" points="1685.47,-23.14 1675.05,-25.05 1684.39,-30.06 1685.47,-23.14"/>
</g>
<!-- Node23&#45;&gt;Node8 -->
<g id="edge26" class="edge">
<title>Node23&#45;&gt;Node8</title>
<path fill="none" stroke="midnightblue" d="M2464.98,-78.66C2295.68,-72.59 1924.86,-56.77 1800,-31 1796.57,-30.29 1793.03,-29.36 1789.55,-28.32"/>
<polygon fill="midnightblue" stroke="midnightblue" points="1790.56,-24.97 1779.97,-25.15 1788.36,-31.61 1790.56,-24.97"/>
</g>
<!-- Node23&#45;&gt;Node14 -->
<g id="edge33" class="edge">
<title>Node23&#45;&gt;Node14</title>
<path fill="none" stroke="midnightblue" d="M2464.7,-76.49C2352.09,-69.42 2148.74,-54.79 1965.37,-31.11"/>
<polygon fill="midnightblue" stroke="midnightblue" points="1965.64,-27.61 1955.27,-29.79 1964.73,-34.55 1965.64,-27.61"/>
</g>
<!-- Node23&#45;&gt;Node16 -->
<g id="edge28" class="edge">
<title>Node23&#45;&gt;Node16</title>
<path fill="none" stroke="midnightblue" d="M2464.7,-79.52C2228.11,-73.85 1571.58,-56.34 1333.81,-30.94"/>
<polygon fill="midnightblue" stroke="midnightblue" points="1334.15,-27.46 1323.82,-29.84 1333.38,-34.42 1334.15,-27.46"/>
</g>
<!-- Node24 -->
<g id="node24" class="node">
<title>Node24</title>
<g id="a_node24"><a xlink:title=" ">
<polygon fill="none" stroke="#bfbfbf" points="2272.5,-6 2272.5,-25 2407.5,-25 2407.5,-6 2272.5,-6"/>
<text text-anchor="middle" x="2340" y="-13" font-family="Helvetica,sans-Serif" font-size="10.00">rclcpp/node_options.hpp</text>
</a>
</g>
</g>
<!-- Node23&#45;&gt;Node24 -->
<g id="edge27" class="edge">
<title>Node23&#45;&gt;Node24</title>
<path fill="none" stroke="midnightblue" d="M2522.98,-72.87C2485.59,-61.35 2419.28,-40.92 2377.58,-28.08"/>
<polygon fill="midnightblue" stroke="midnightblue" points="2378.39,-24.66 2367.8,-25.06 2376.33,-31.35 2378.39,-24.66"/>
</g>
<!-- Node25 -->
<g id="node25" class="node">
<title>Node25</title>
<g id="a_node25"><a xlink:title=" ">
<polygon fill="none" stroke="#bfbfbf" points="2425.5,-6 2425.5,-25 2566.5,-25 2566.5,-6 2425.5,-6"/>
<text text-anchor="middle" x="2496" y="-13" font-family="Helvetica,sans-Serif" font-size="10.00">rclcpp_lifecycle/state.hpp</text>
</a>
</g>
</g>
<!-- Node23&#45;&gt;Node25 -->
<g id="edge29" class="edge">
<title>Node23&#45;&gt;Node25</title>
<path fill="none" stroke="midnightblue" d="M2543.58,-72.73C2535.01,-62.6 2520.7,-45.69 2510.01,-33.06"/>
<polygon fill="midnightblue" stroke="midnightblue" points="2512.43,-30.5 2503.3,-25.13 2507.09,-35.02 2512.43,-30.5"/>
</g>
<!-- Node26 -->
<g id="node26" class="node">
<title>Node26</title>
<g id="a_node26"><a xlink:title=" ">
<polygon fill="none" stroke="#bfbfbf" points="2585,-6 2585,-25 2629,-25 2629,-6 2585,-6"/>
<text text-anchor="middle" x="2607" y="-13" font-family="Helvetica,sans-Serif" font-size="10.00">string</text>
</a>
</g>
</g>
<!-- Node23&#45;&gt;Node26 -->
<g id="edge30" class="edge">
<title>Node23&#45;&gt;Node26</title>
<path fill="none" stroke="midnightblue" d="M2558.55,-72.73C2567.28,-62.6 2581.85,-45.69 2592.74,-33.06"/>
<polygon fill="midnightblue" stroke="midnightblue" points="2595.69,-34.99 2599.57,-25.13 2590.39,-30.42 2595.69,-34.99"/>
</g>
<!-- Node27 -->
<g id="node27" class="node">
<title>Node27</title>
<g id="a_node27"><a xlink:title=" ">
<polygon fill="none" stroke="#bfbfbf" points="2647.5,-6 2647.5,-25 2720.5,-25 2720.5,-6 2647.5,-6"/>
<text text-anchor="middle" x="2684" y="-13" font-family="Helvetica,sans-Serif" font-size="10.00">string_view</text>
</a>
</g>
</g>
<!-- Node23&#45;&gt;Node27 -->
<g id="edge31" class="edge">
<title>Node23&#45;&gt;Node27</title>
<path fill="none" stroke="midnightblue" d="M2568.66,-72.87C2591.32,-61.8 2630.83,-42.49 2657.2,-29.6"/>
<polygon fill="midnightblue" stroke="midnightblue" points="2658.82,-32.7 2666.27,-25.17 2655.74,-26.41 2658.82,-32.7"/>
</g>
<!-- Node28 -->
<g id="node28" class="node">
<title>Node28</title>
<g id="a_node28"><a xlink:title=" ">
<polygon fill="none" stroke="#bfbfbf" points="2739,-6 2739,-25 2845,-25 2845,-6 2739,-6"/>
<text text-anchor="middle" x="2792" y="-13" font-family="Helvetica,sans-Serif" font-size="10.00">bondcpp/bond.hpp</text>
</a>
</g>
</g>
<!-- Node23&#45;&gt;Node28 -->
<g id="edge32" class="edge">
<title>Node23&#45;&gt;Node28</title>
<path fill="none" stroke="midnightblue" d="M2583,-72.87C2626.16,-61.23 2703.06,-40.49 2750.58,-27.67"/>
<polygon fill="midnightblue" stroke="midnightblue" points="2751.5,-31.05 2760.25,-25.06 2749.68,-24.29 2751.5,-31.05"/>
</g>
<!-- Node29 -->
<g id="node29" class="node">
<title>Node29</title>
<g id="a_node29"><a xlink:title=" ">
<polygon fill="none" stroke="#bfbfbf" points="2863,-0.5 2863,-30.5 3009,-30.5 3009,-0.5 2863,-0.5"/>
<text text-anchor="start" x="2871" y="-18.5" font-family="Helvetica,sans-Serif" font-size="10.00">geometry_msgs/msg/pose</text>
<text text-anchor="middle" x="2936" y="-7.5" font-family="Helvetica,sans-Serif" font-size="10.00">_stamped.hpp</text>
</a>
</g>
</g>
<!-- Node23&#45;&gt;Node29 -->
<g id="edge34" class="edge">
<title>Node23&#45;&gt;Node29</title>
<path fill="none" stroke="midnightblue" d="M2603.03,-72.99C2661.35,-63.41 2759,-47.27 2852.75,-31.21"/>
<polygon fill="midnightblue" stroke="midnightblue" points="2853.42,-34.64 2862.69,-29.5 2852.24,-27.74 2853.42,-34.64"/>
</g>
<!-- Node30 -->
<g id="node30" class="node">
<title>Node30</title>
<g id="a_node30"><a xlink:title=" ">
<polygon fill="none" stroke="#bfbfbf" points="3027.5,-0.5 3027.5,-30.5 3172.5,-30.5 3172.5,-0.5 3027.5,-0.5"/>
<text text-anchor="start" x="3035.5" y="-18.5" font-family="Helvetica,sans-Serif" font-size="10.00">nav_msgs/msg/occupancy</text>
<text text-anchor="middle" x="3100" y="-7.5" font-family="Helvetica,sans-Serif" font-size="10.00">_grid.hpp</text>
</a>
</g>
</g>
<!-- Node23&#45;&gt;Node30 -->
<g id="edge35" class="edge">
<title>Node23&#45;&gt;Node30</title>
<path fill="none" stroke="midnightblue" d="M2637.29,-73.92C2728.98,-65.47 2878.39,-50.56 3017.19,-31.05"/>
<polygon fill="midnightblue" stroke="midnightblue" points="3017.75,-34.51 3027.16,-29.64 3016.77,-27.58 3017.75,-34.51"/>
</g>
<!-- Node31 -->
<g id="node31" class="node">
<title>Node31</title>
<g id="a_node31"><a xlink:title=" ">
<polygon fill="none" stroke="#bfbfbf" points="3191,-0.5 3191,-30.5 3319,-30.5 3319,-0.5 3191,-0.5"/>
<text text-anchor="start" x="3199" y="-18.5" font-family="Helvetica,sans-Serif" font-size="10.00">visualization_msgs</text>
<text text-anchor="middle" x="3255" y="-7.5" font-family="Helvetica,sans-Serif" font-size="10.00">/msg/marker_array.hpp</text>
</a>
</g>
</g>
<!-- Node23&#45;&gt;Node31 -->
<g id="edge36" class="edge">
<title>Node23&#45;&gt;Node31</title>
<path fill="none" stroke="midnightblue" d="M2637.08,-77.79C2756.84,-71.91 2980.65,-58.36 3180.86,-31.05"/>
<polygon fill="midnightblue" stroke="midnightblue" points="3181.55,-34.49 3190.98,-29.65 3180.59,-27.55 3181.55,-34.49"/>
</g>
<!-- Node32 -->
<g id="node32" class="node">
<title>Node32</title>
<g id="a_node32"><a xlink:title=" ">
<polygon fill="none" stroke="#bfbfbf" points="3337.5,-6 3337.5,-25 3436.5,-25 3436.5,-6 3337.5,-6"/>
<text text-anchor="middle" x="3387" y="-13" font-family="Helvetica,sans-Serif" font-size="10.00">rclcpp/rclcpp.hpp</text>
</a>
</g>
</g>
<!-- Node23&#45;&gt;Node32 -->
<g id="edge37" class="edge">
<title>Node23&#45;&gt;Node32</title>
<path fill="none" stroke="midnightblue" d="M2637.19,-80.84C2781.13,-78.63 3079.17,-69.36 3328,-31 3334.01,-30.07 3340.31,-28.83 3346.45,-27.46"/>
<polygon fill="midnightblue" stroke="midnightblue" points="3347.66,-30.77 3356.58,-25.06 3346.05,-23.96 3347.66,-30.77"/>
</g>
<!-- Node33 -->
<g id="node33" class="node">
<title>Node33</title>
<g id="a_node33"><a xlink:title=" ">
<polygon fill="none" stroke="#bfbfbf" points="3455,-6 3455,-25 3547,-25 3547,-6 3455,-6"/>
<text text-anchor="middle" x="3501" y="-13" font-family="Helvetica,sans-Serif" font-size="10.00">rclcpp/time.hpp</text>
</a>
</g>
</g>
<!-- Node23&#45;&gt;Node33 -->
<g id="edge38" class="edge">
<title>Node23&#45;&gt;Node33</title>
<path fill="none" stroke="midnightblue" d="M2637.07,-82.38C2797.31,-82.74 3151.83,-77.59 3446,-31 3451.55,-30.12 3457.34,-28.92 3463.01,-27.58"/>
<polygon fill="midnightblue" stroke="midnightblue" points="3464.13,-30.9 3472.97,-25.05 3462.42,-24.12 3464.13,-30.9"/>
</g>
<!-- Node34 -->
<g id="node34" class="node">
<title>Node34</title>
<g id="a_node34"><a xlink:title=" ">
<polygon fill="none" stroke="#bfbfbf" points="3565.5,-6 3565.5,-25 3656.5,-25 3656.5,-6 3565.5,-6"/>
<text text-anchor="middle" x="3611" y="-13" font-family="Helvetica,sans-Serif" font-size="10.00">tf2/convert.hpp</text>
</a>
</g>
</g>
<!-- Node23&#45;&gt;Node34 -->
<g id="edge39" class="edge">
<title>Node23&#45;&gt;Node34</title>
<path fill="none" stroke="midnightblue" d="M2637.14,-79.47C2846.93,-74.15 3380.02,-58.31 3556,-31 3561.61,-30.13 3567.48,-28.92 3573.2,-27.56"/>
<polygon fill="midnightblue" stroke="midnightblue" points="3574.42,-30.86 3583.26,-25.01 3572.7,-24.08 3574.42,-30.86"/>
</g>
<!-- Node35 -->
<g id="node35" class="node">
<title>Node35</title>
<g id="a_node35"><a xlink:title=" ">
<polygon fill="none" stroke="#bfbfbf" points="3674.5,-6 3674.5,-25 3749.5,-25 3749.5,-6 3674.5,-6"/>
<text text-anchor="middle" x="3712" y="-13" font-family="Helvetica,sans-Serif" font-size="10.00">tf2/utils.hpp</text>
</a>
</g>
</g>
<!-- Node23&#45;&gt;Node35 -->
<g id="edge40" class="edge">
<title>Node23&#45;&gt;Node35</title>
<path fill="none" stroke="midnightblue" d="M2637.02,-80.49C2862.85,-77.38 3468.76,-65.94 3666,-31 3670.27,-30.24 3674.69,-29.2 3679.03,-28.02"/>
<polygon fill="midnightblue" stroke="midnightblue" points="3680.31,-31.29 3688.89,-25.07 3678.31,-24.58 3680.31,-31.29"/>
</g>
<!-- Node36 -->
<g id="node36" class="node">
<title>Node36</title>
<g id="a_node36"><a xlink:title=" ">
<polygon fill="none" stroke="#bfbfbf" points="1973,-0.5 1973,-30.5 2089,-30.5 2089,-0.5 1973,-0.5"/>
<text text-anchor="start" x="1981" y="-18.5" font-family="Helvetica,sans-Serif" font-size="10.00">tf2_ros/create_timer</text>
<text text-anchor="middle" x="2031" y="-7.5" font-family="Helvetica,sans-Serif" font-size="10.00">_ros.hpp</text>
</a>
</g>
</g>
<!-- Node23&#45;&gt;Node36 -->
<g id="edge41" class="edge">
<title>Node23&#45;&gt;Node36</title>
<path fill="none" stroke="midnightblue" d="M2464.85,-74.43C2375.87,-66.54 2232.85,-52.25 2099.18,-30.91"/>
<polygon fill="midnightblue" stroke="midnightblue" points="2099.6,-27.43 2089.17,-29.3 2098.48,-34.35 2099.6,-27.43"/>
</g>
<!-- Node37 -->
<g id="node37" class="node">
<title>Node37</title>
<g id="a_node37"><a target="_parent" xlink:href="../../../../../../beluga_ros/docs/_doxygen/generated/reference/html/tf2__sophus_8hpp.html.html" xlink:title=" ">
<polygon fill="none" stroke="black" points="2107.5,-6 2107.5,-25 2254.5,-25 2254.5,-6 2107.5,-6"/>
<text text-anchor="middle" x="2181" y="-13" font-family="Helvetica,sans-Serif" font-size="10.00">beluga_ros/tf2_sophus.hpp</text>
</a>
</g>
</g>
<!-- Node23&#45;&gt;Node37 -->
<g id="edge44" class="edge">
<title>Node23&#45;&gt;Node37</title>
<path fill="none" stroke="midnightblue" d="M2502.25,-72.94C2434.5,-61.03 2312.04,-39.52 2239.46,-26.77"/>
<polygon fill="midnightblue" stroke="midnightblue" points="2240.02,-23.31 2229.57,-25.03 2238.81,-30.21 2240.02,-23.31"/>
</g>
</g>
</svg>
