<?xml version="1.0" encoding="UTF-8" standalone="no"?>
<!DOCTYPE svg PUBLIC "-//W3C//DTD SVG 1.1//EN"
 "http://www.w3.org/Graphics/SVG/1.1/DTD/svg11.dtd">
<!-- Generated by graphviz version 2.43.0 (0)
 -->
<!-- Title: /home/runner/work/beluga/beluga/beluga_amcl/include/beluga_amcl/ndt_amcl_node.hpp Pages: 1 -->
<!--zoomable 184 -->
<svg id="main" version="1.1" xmlns="http://www.w3.org/2000/svg" xmlns:xlink="http://www.w3.org/1999/xlink" xml:space="preserve" onload="init(evt)">
<style type="text/css"><![CDATA[
.edge:hover path { stroke: red; }
.edge:hover polygon { stroke: red; fill: red; }
]]></style>
<script type="text/javascript"><![CDATA[
var edges = document.getElementsByTagName('g');
if (edges && edges.length) {
  for (var i=0;i<edges.length;i++) {
    if (edges[i].id.substr(0,4)=='edge') {
      edges[i].setAttribute('class','edge');
    }
  }
}
]]></script>
        <defs>
                <circle id="rim" cx="0" cy="0" r="7"/>
                <circle id="rim2" cx="0" cy="0" r="3.5"/>
                <g id="zoomPlus">
                        <use xlink:href="#rim" fill="#404040">
                                <set attributeName="fill" to="#808080" begin="zoomplus.mouseover" end="zoomplus.mouseout"/>
                        </use>
                        <path d="M-4,0h8M0,-4v8" fill="none" stroke="white" stroke-width="1.5" pointer-events="none"/>
                </g>
                <g id="zoomMin">
                        <use xlink:href="#rim" fill="#404040">
                                <set attributeName="fill" to="#808080" begin="zoomminus.mouseover" end="zoomminus.mouseout"/>
                        </use>
                        <path d="M-4,0h8" fill="none" stroke="white" stroke-width="1.5" pointer-events="none"/>
                </g>
                <g id="dirArrow">
                        <path fill="none" stroke="white" stroke-width="1.5" d="M0,-3.0v7 M-2.5,-0.5L0,-3.0L2.5,-0.5"/>
                </g>
               <g id="resetDef">
                       <use xlink:href="#rim2" fill="#404040">
                               <set attributeName="fill" to="#808080" begin="reset.mouseover" end="reset.mouseout"/>
                       </use>
               </g>
        </defs>

<script type="text/javascript">
var viewWidth = 4180;
var viewHeight = 184;
var sectionId = 'dynsection-0';
</script>
<script xlink:href="svgpan.js"/>
<svg id="graph" class="graph">
<g id="viewport">
<title>/home/runner/work/beluga/beluga/beluga_amcl/include/beluga_amcl/ndt_amcl_node.hpp</title>
<!-- Node1 -->
<g id="node1" class="node">
<title>Node1</title>
<g id="a_node1"><a xlink:title="ROS 2 integration of the 2D NDT&#45;AMCL algorithm.">
<polygon fill="#bfbfbf" stroke="black" points="2001.5,-134.5 2001.5,-175.5 2181.5,-175.5 2181.5,-134.5 2001.5,-134.5"/>
<text text-anchor="start" x="2009.5" y="-163.5" font-family="Helvetica,sans-Serif" font-size="10.00">/home/runner/work/beluga</text>
<text text-anchor="start" x="2009.5" y="-152.5" font-family="Helvetica,sans-Serif" font-size="10.00">/beluga/beluga_amcl/include</text>
<text text-anchor="middle" x="2091.5" y="-141.5" font-family="Helvetica,sans-Serif" font-size="10.00">/beluga_amcl/ndt_amcl_node.hpp</text>
</a>
</g>
</g>
<!-- Node2 -->
<g id="node2" class="node">
<title>Node2</title>
<g id="a_node2"><a xlink:title=" ">
<polygon fill="none" stroke="#bfbfbf" points="192.5,-73 192.5,-92 282.5,-92 282.5,-73 192.5,-73"/>
<text text-anchor="middle" x="237.5" y="-80" font-family="Helvetica,sans-Serif" font-size="10.00">tf2_ros/buffer.h</text>
</a>
</g>
</g>
<!-- Node1&#45;&gt;Node2 -->
<g id="edge1" class="edge">
<title>Node1&#45;&gt;Node2</title>
<path fill="none" stroke="midnightblue" d="M2001.45,-153.95C1685.25,-153.34 626.79,-147.55 291.5,-98 285.92,-97.18 280.09,-95.98 274.41,-94.62"/>
<polygon fill="midnightblue" stroke="midnightblue" points="274.99,-91.15 264.44,-92.04 273.24,-97.93 274.99,-91.15"/>
</g>
<!-- Node3 -->
<g id="node3" class="node">
<title>Node3</title>
<g id="a_node3"><a xlink:title=" ">
<polygon fill="none" stroke="#bfbfbf" points="300.5,-73 300.5,-92 434.5,-92 434.5,-73 300.5,-73"/>
<text text-anchor="middle" x="367.5" y="-80" font-family="Helvetica,sans-Serif" font-size="10.00">tf2_ros/message_filter.h</text>
</a>
</g>
</g>
<!-- Node1&#45;&gt;Node3 -->
<g id="edge2" class="edge">
<title>Node1&#45;&gt;Node3</title>
<path fill="none" stroke="midnightblue" d="M2001.27,-152.63C1703.44,-147.83 753.34,-130.31 448.5,-98 438.8,-96.97 428.51,-95.46 418.64,-93.8"/>
<polygon fill="midnightblue" stroke="midnightblue" points="419,-90.31 408.54,-92.02 417.79,-97.2 419,-90.31"/>
</g>
<!-- Node4 -->
<g id="node4" class="node">
<title>Node4</title>
<g id="a_node4"><a xlink:title=" ">
<polygon fill="none" stroke="#bfbfbf" points="640,-6 640,-25 813,-25 813,-6 640,-6"/>
<text text-anchor="middle" x="726.5" y="-13" font-family="Helvetica,sans-Serif" font-size="10.00">tf2_ros/transform_broadcaster.h</text>
</a>
</g>
</g>
<!-- Node1&#45;&gt;Node4 -->
<g id="edge3" class="edge">
<title>Node1&#45;&gt;Node4</title>
<path fill="none" stroke="midnightblue" d="M2001.32,-152.73C1770.77,-148.98 1164.11,-135.71 966.5,-98 887.54,-82.93 799.05,-47.87 754.85,-29.02"/>
<polygon fill="midnightblue" stroke="midnightblue" points="756.17,-25.78 745.6,-25.03 753.4,-32.21 756.17,-25.78"/>
</g>
<!-- Node5 -->
<g id="node5" class="node">
<title>Node5</title>
<g id="a_node5"><a xlink:title=" ">
<polygon fill="none" stroke="#bfbfbf" points="831.5,-6 831.5,-25 983.5,-25 983.5,-6 831.5,-6"/>
<text text-anchor="middle" x="907.5" y="-13" font-family="Helvetica,sans-Serif" font-size="10.00">tf2_ros/transform_listener.h</text>
</a>
</g>
</g>
<!-- Node1&#45;&gt;Node5 -->
<g id="edge4" class="edge">
<title>Node1&#45;&gt;Node5</title>
<path fill="none" stroke="midnightblue" d="M2001.22,-151.91C1761.88,-145.99 1123.24,-127.6 1032.5,-98 989.69,-84.04 947.4,-51.47 924.65,-31.99"/>
<polygon fill="midnightblue" stroke="midnightblue" points="926.76,-29.19 916.93,-25.24 922.15,-34.46 926.76,-29.19"/>
</g>
<!-- Node6 -->
<g id="node6" class="node">
<title>Node6</title>
<g id="a_node6"><a target="_parent" xlink:href="../../../../../../beluga/docs/_doxygen/generated/reference/html/beluga_8hpp.html.html" xlink:title=" ">
<polygon fill="none" stroke="black" points="1265,-73 1265,-92 1372,-92 1372,-73 1265,-73"/>
<text text-anchor="middle" x="1318.5" y="-80" font-family="Helvetica,sans-Serif" font-size="10.00">beluga/beluga.hpp</text>
</a>
</g>
</g>
<!-- Node1&#45;&gt;Node6 -->
<g id="edge5" class="edge">
<title>Node1&#45;&gt;Node6</title>
<path fill="none" stroke="midnightblue" d="M2001.35,-151.15C1866.04,-145.91 1602.7,-131.99 1381.5,-98 1375.02,-97 1368.22,-95.71 1361.58,-94.3"/>
<polygon fill="midnightblue" stroke="midnightblue" points="1361.87,-90.78 1351.35,-92.02 1360.35,-97.61 1361.87,-90.78"/>
</g>
<!-- Node7 -->
<g id="node7" class="node">
<title>Node7</title>
<g id="a_node7"><a target="_parent" xlink:href="../../../../../../beluga/docs/_doxygen/generated/reference/html/differential__drive__model_8hpp.html.html" xlink:title=" ">
<polygon fill="none" stroke="black" points="1390,-67.5 1390,-97.5 1533,-97.5 1533,-67.5 1390,-67.5"/>
<text text-anchor="start" x="1398" y="-85.5" font-family="Helvetica,sans-Serif" font-size="10.00">beluga/motion/differential</text>
<text text-anchor="middle" x="1461.5" y="-74.5" font-family="Helvetica,sans-Serif" font-size="10.00">_drive_model.hpp</text>
</a>
</g>
</g>
<!-- Node1&#45;&gt;Node7 -->
<g id="edge6" class="edge">
<title>Node1&#45;&gt;Node7</title>
<path fill="none" stroke="midnightblue" d="M2001.38,-146.91C1894.54,-138.03 1710.9,-121.27 1543.02,-98"/>
<polygon fill="midnightblue" stroke="midnightblue" points="1543.39,-94.52 1533.01,-96.6 1542.43,-101.45 1543.39,-94.52"/>
</g>
<!-- Node8 -->
<g id="node8" class="node">
<title>Node8</title>
<g id="a_node8"><a target="_parent" xlink:href="../../../../../../beluga/docs/_doxygen/generated/reference/html/omnidirectional__drive__model_8hpp.html.html" xlink:title=" ">
<polygon fill="none" stroke="black" points="1551,-67.5 1551,-97.5 1718,-97.5 1718,-67.5 1551,-67.5"/>
<text text-anchor="start" x="1559" y="-85.5" font-family="Helvetica,sans-Serif" font-size="10.00">beluga/motion/omnidirectional</text>
<text text-anchor="middle" x="1634.5" y="-74.5" font-family="Helvetica,sans-Serif" font-size="10.00">_drive_model.hpp</text>
</a>
</g>
</g>
<!-- Node1&#45;&gt;Node8 -->
<g id="edge7" class="edge">
<title>Node1&#45;&gt;Node8</title>
<path fill="none" stroke="midnightblue" d="M2001.37,-140.18C1930.07,-129.25 1827.71,-113.51 1728.09,-98.09"/>
<polygon fill="midnightblue" stroke="midnightblue" points="1728.57,-94.62 1718.15,-96.55 1727.5,-101.54 1728.57,-94.62"/>
</g>
<!-- Node9 -->
<g id="node9" class="node">
<title>Node9</title>
<g id="a_node9"><a target="_parent" xlink:href="../../../../../../beluga/docs/_doxygen/generated/reference/html/stationary__model_8hpp.html.html" xlink:title=" ">
<polygon fill="none" stroke="black" points="1736.5,-67.5 1736.5,-97.5 1876.5,-97.5 1876.5,-67.5 1736.5,-67.5"/>
<text text-anchor="start" x="1744.5" y="-85.5" font-family="Helvetica,sans-Serif" font-size="10.00">beluga/motion/stationary</text>
<text text-anchor="middle" x="1806.5" y="-74.5" font-family="Helvetica,sans-Serif" font-size="10.00">_model.hpp</text>
</a>
</g>
</g>
<!-- Node1&#45;&gt;Node9 -->
<g id="edge8" class="edge">
<title>Node1&#45;&gt;Node9</title>
<path fill="none" stroke="midnightblue" d="M2012.49,-134.46C1968.72,-123.63 1914.9,-110.32 1873.26,-100.01"/>
<polygon fill="midnightblue" stroke="midnightblue" points="1874.03,-96.6 1863.49,-97.6 1872.35,-103.4 1874.03,-96.6"/>
</g>
<!-- Node10 -->
<g id="node10" class="node">
<title>Node10</title>
<g id="a_node10"><a target="_parent" xlink:href="../../../../../../beluga/docs/_doxygen/generated/reference/html/primitives_8hpp.html.html" xlink:title=" ">
<polygon fill="none" stroke="black" points="1895,-73 1895,-92 2018,-92 2018,-73 1895,-73"/>
<text text-anchor="middle" x="1956.5" y="-80" font-family="Helvetica,sans-Serif" font-size="10.00">beluga/primitives.hpp</text>
</a>
</g>
</g>
<!-- Node1&#45;&gt;Node10 -->
<g id="edge9" class="edge">
<title>Node1&#45;&gt;Node10</title>
<path fill="none" stroke="midnightblue" d="M2053.89,-134.36C2031,-122.4 2002.34,-107.44 1982.06,-96.85"/>
<polygon fill="midnightblue" stroke="midnightblue" points="1983.59,-93.7 1973.11,-92.17 1980.35,-99.9 1983.59,-93.7"/>
</g>
<!-- Node11 -->
<g id="node11" class="node">
<title>Node11</title>
<g id="a_node11"><a xlink:title=" ">
<polygon fill="none" stroke="#bfbfbf" points="2036.5,-67.5 2036.5,-97.5 2146.5,-97.5 2146.5,-67.5 2036.5,-67.5"/>
<text text-anchor="start" x="2044.5" y="-85.5" font-family="Helvetica,sans-Serif" font-size="10.00">beluga/sensor/data</text>
<text text-anchor="middle" x="2091.5" y="-74.5" font-family="Helvetica,sans-Serif" font-size="10.00">/ndt_cell.hpp</text>
</a>
</g>
</g>
<!-- Node1&#45;&gt;Node11 -->
<g id="edge10" class="edge">
<title>Node1&#45;&gt;Node11</title>
<path fill="none" stroke="midnightblue" d="M2091.5,-134.36C2091.5,-126.23 2091.5,-116.7 2091.5,-108.11"/>
<polygon fill="midnightblue" stroke="midnightblue" points="2095,-107.89 2091.5,-97.89 2088,-107.89 2095,-107.89"/>
</g>
<!-- Node12 -->
<g id="node12" class="node">
<title>Node12</title>
<g id="a_node12"><a target="_parent" xlink:href="../../../../../../beluga/docs/_doxygen/generated/reference/html/sparse__value__grid_8hpp.html.html" xlink:title=" ">
<polygon fill="none" stroke="black" points="2165,-67.5 2165,-97.5 2294,-97.5 2294,-67.5 2165,-67.5"/>
<text text-anchor="start" x="2173" y="-85.5" font-family="Helvetica,sans-Serif" font-size="10.00">beluga/sensor/data</text>
<text text-anchor="middle" x="2229.5" y="-74.5" font-family="Helvetica,sans-Serif" font-size="10.00">/sparse_value_grid.hpp</text>
</a>
</g>
</g>
<!-- Node1&#45;&gt;Node12 -->
<g id="edge11" class="edge">
<title>Node1&#45;&gt;Node12</title>
<path fill="none" stroke="midnightblue" d="M2129.94,-134.36C2149.54,-124.35 2173.27,-112.23 2192.64,-102.33"/>
<polygon fill="midnightblue" stroke="midnightblue" points="2194.45,-105.34 2201.76,-97.67 2191.27,-99.1 2194.45,-105.34"/>
</g>
<!-- Node13 -->
<g id="node13" class="node">
<title>Node13</title>
<g id="a_node13"><a xlink:title=" ">
<polygon fill="none" stroke="#bfbfbf" points="2312,-67.5 2312,-97.5 2453,-97.5 2453,-67.5 2312,-67.5"/>
<text text-anchor="start" x="2320" y="-85.5" font-family="Helvetica,sans-Serif" font-size="10.00">beluga/sensor/ndt_sensor</text>
<text text-anchor="middle" x="2382.5" y="-74.5" font-family="Helvetica,sans-Serif" font-size="10.00">_model.hpp</text>
</a>
</g>
</g>
<!-- Node1&#45;&gt;Node13 -->
<g id="edge12" class="edge">
<title>Node1&#45;&gt;Node13</title>
<path fill="none" stroke="midnightblue" d="M2172.17,-134.46C2216.86,-123.63 2271.81,-110.32 2314.34,-100.01"/>
<polygon fill="midnightblue" stroke="midnightblue" points="2315.42,-103.35 2324.31,-97.6 2313.77,-96.55 2315.42,-103.35"/>
</g>
<!-- Node14 -->
<g id="node14" class="node">
<title>Node14</title>
<g id="a_node14"><a xlink:title=" ">
<polygon fill="none" stroke="#bfbfbf" points="1001.5,-6 1001.5,-25 1065.5,-25 1065.5,-6 1001.5,-6"/>
<text text-anchor="middle" x="1033.5" y="-13" font-family="Helvetica,sans-Serif" font-size="10.00">execution</text>
</a>
</g>
</g>
<!-- Node1&#45;&gt;Node14 -->
<g id="edge13" class="edge">
<title>Node1&#45;&gt;Node14</title>
<path fill="none" stroke="midnightblue" d="M2001.4,-152.01C1755.87,-146.2 1090.85,-127.78 1054.5,-98 1036.16,-82.98 1032.63,-54.26 1032.51,-35.24"/>
<polygon fill="midnightblue" stroke="midnightblue" points="1036.01,-35.18 1032.75,-25.1 1029.01,-35.01 1036.01,-35.18"/>
</g>
<!-- Node15 -->
<g id="node15" class="node">
<title>Node15</title>
<g id="a_node15"><a xlink:title=" ">
<polygon fill="none" stroke="#bfbfbf" points="2471,-73 2471,-92 2536,-92 2536,-73 2471,-73"/>
<text text-anchor="middle" x="2503.5" y="-80" font-family="Helvetica,sans-Serif" font-size="10.00">functional</text>
</a>
</g>
</g>
<!-- Node1&#45;&gt;Node15 -->
<g id="edge14" class="edge">
<title>Node1&#45;&gt;Node15</title>
<path fill="none" stroke="midnightblue" d="M2181.65,-145.25C2257.37,-136.74 2368.02,-121.61 2462.5,-98 2465.55,-97.24 2468.7,-96.34 2471.82,-95.37"/>
<polygon fill="midnightblue" stroke="midnightblue" points="2473.23,-98.59 2481.61,-92.11 2471.01,-91.95 2473.23,-98.59"/>
</g>
<!-- Node16 -->
<g id="node16" class="node">
<title>Node16</title>
<g id="a_node16"><a xlink:title=" ">
<polygon fill="none" stroke="#bfbfbf" points="2554.5,-73 2554.5,-92 2610.5,-92 2610.5,-73 2554.5,-73"/>
<text text-anchor="middle" x="2582.5" y="-80" font-family="Helvetica,sans-Serif" font-size="10.00">optional</text>
</a>
</g>
</g>
<!-- Node1&#45;&gt;Node16 -->
<g id="edge15" class="edge">
<title>Node1&#45;&gt;Node16</title>
<path fill="none" stroke="midnightblue" d="M2181.89,-149.53C2274.4,-143.41 2421.75,-129.35 2545.5,-98 2548.17,-97.32 2550.9,-96.51 2553.62,-95.61"/>
<polygon fill="midnightblue" stroke="midnightblue" points="2555.02,-98.82 2563.21,-92.11 2552.62,-92.25 2555.02,-98.82"/>
</g>
<!-- Node17 -->
<g id="node17" class="node">
<title>Node17</title>
<g id="a_node17"><a xlink:title=" ">
<polygon fill="none" stroke="#bfbfbf" points="2629,-73 2629,-92 2772,-92 2772,-73 2629,-73"/>
<text text-anchor="middle" x="2700.5" y="-80" font-family="Helvetica,sans-Serif" font-size="10.00">rclcpp/callback_group.hpp</text>
</a>
</g>
</g>
<!-- Node1&#45;&gt;Node17 -->
<g id="edge16" class="edge">
<title>Node1&#45;&gt;Node17</title>
<path fill="none" stroke="midnightblue" d="M2181.9,-146.39C2287.24,-137.07 2466.41,-119.79 2619.5,-98 2628.13,-96.77 2637.25,-95.3 2646.14,-93.78"/>
<polygon fill="midnightblue" stroke="midnightblue" points="2646.78,-97.22 2656.03,-92.05 2645.58,-90.33 2646.78,-97.22"/>
</g>
<!-- Node18 -->
<g id="node18" class="node">
<title>Node18</title>
<g id="a_node18"><a xlink:title=" ">
<polygon fill="none" stroke="#bfbfbf" points="2790.5,-67.5 2790.5,-97.5 2898.5,-97.5 2898.5,-67.5 2790.5,-67.5"/>
<text text-anchor="start" x="2798.5" y="-85.5" font-family="Helvetica,sans-Serif" font-size="10.00">rclcpp/subscription</text>
<text text-anchor="middle" x="2844.5" y="-74.5" font-family="Helvetica,sans-Serif" font-size="10.00">_options.hpp</text>
</a>
</g>
</g>
<!-- Node1&#45;&gt;Node18 -->
<g id="edge17" class="edge">
<title>Node1&#45;&gt;Node18</title>
<path fill="none" stroke="midnightblue" d="M2181.58,-150.86C2311.79,-145.4 2560.2,-131.5 2780.18,-98.06"/>
<polygon fill="midnightblue" stroke="midnightblue" points="2780.95,-101.48 2790.3,-96.5 2779.88,-94.56 2780.95,-101.48"/>
</g>
<!-- Node19 -->
<g id="node19" class="node">
<title>Node19</title>
<g id="a_node19"><a xlink:title=" ">
<polygon fill="none" stroke="#bfbfbf" points="2916.5,-73 2916.5,-92 3008.5,-92 3008.5,-73 2916.5,-73"/>
<text text-anchor="middle" x="2962.5" y="-80" font-family="Helvetica,sans-Serif" font-size="10.00">sophus/se2.hpp</text>
</a>
</g>
</g>
<!-- Node1&#45;&gt;Node19 -->
<g id="edge18" class="edge">
<title>Node1&#45;&gt;Node19</title>
<path fill="none" stroke="midnightblue" d="M2181.8,-153.37C2332.96,-151.06 2646.36,-140.99 2907.5,-98 2912.98,-97.1 2918.71,-95.89 2924.31,-94.56"/>
<polygon fill="midnightblue" stroke="midnightblue" points="2925.34,-97.91 2934.18,-92.06 2923.62,-91.12 2925.34,-97.91"/>
</g>
<!-- Node20 -->
<g id="node20" class="node">
<title>Node20</title>
<g id="a_node20"><a xlink:title=" ">
<polygon fill="none" stroke="#bfbfbf" points="3027,-73 3027,-92 3068,-92 3068,-73 3027,-73"/>
<text text-anchor="middle" x="3047.5" y="-80" font-family="Helvetica,sans-Serif" font-size="10.00">tuple</text>
</a>
</g>
</g>
<!-- Node1&#45;&gt;Node20 -->
<g id="edge19" class="edge">
<title>Node1&#45;&gt;Node20</title>
<path fill="none" stroke="midnightblue" d="M2181.54,-152.99C2382.34,-150.02 2861.37,-138.75 3017.5,-98 3019.43,-97.5 3021.39,-96.86 3023.32,-96.15"/>
<polygon fill="midnightblue" stroke="midnightblue" points="3024.91,-99.28 3032.68,-92.07 3022.11,-92.86 3024.91,-99.28"/>
</g>
<!-- Node21 -->
<g id="node21" class="node">
<title>Node21</title>
<g id="a_node21"><a xlink:title=" ">
<polygon fill="none" stroke="#bfbfbf" points="3086,-73 3086,-92 3137,-92 3137,-73 3086,-73"/>
<text text-anchor="middle" x="3111.5" y="-80" font-family="Helvetica,sans-Serif" font-size="10.00">variant</text>
</a>
</g>
</g>
<!-- Node1&#45;&gt;Node21 -->
<g id="edge20" class="edge">
<title>Node1&#45;&gt;Node21</title>
<path fill="none" stroke="midnightblue" d="M2181.71,-152.85C2391.82,-149.53 2908.78,-137.49 3077.5,-98 3080.01,-97.41 3082.58,-96.65 3085.12,-95.78"/>
<polygon fill="midnightblue" stroke="midnightblue" points="3086.56,-98.98 3094.59,-92.07 3084.01,-92.46 3086.56,-98.98"/>
</g>
<!-- Node22 -->
<g id="node22" class="node">
<title>Node22</title>
<g id="a_node22"><a xlink:title=" ">
<polygon fill="none" stroke="#bfbfbf" points="3155.5,-73 3155.5,-92 3285.5,-92 3285.5,-73 3155.5,-73"/>
<text text-anchor="middle" x="3220.5" y="-80" font-family="Helvetica,sans-Serif" font-size="10.00">Eigen/src/Core/Matrix.h</text>
</a>
</g>
</g>
<!-- Node1&#45;&gt;Node22 -->
<g id="edge21" class="edge">
<title>Node1&#45;&gt;Node22</title>
<path fill="none" stroke="midnightblue" d="M2181.84,-153.47C2364.67,-151.46 2791.32,-142 3146.5,-98 3154.9,-96.96 3163.79,-95.52 3172.37,-93.95"/>
<polygon fill="midnightblue" stroke="midnightblue" points="3173.09,-97.37 3182.26,-92.06 3171.78,-90.5 3173.09,-97.37"/>
</g>
<!-- Node23 -->
<g id="node23" class="node">
<title>Node23</title>
<g id="a_node23"><a xlink:title=" ">
<polygon fill="none" stroke="#bfbfbf" points="3303.5,-73 3303.5,-92 3361.5,-92 3361.5,-73 3303.5,-73"/>
<text text-anchor="middle" x="3332.5" y="-80" font-family="Helvetica,sans-Serif" font-size="10.00">H5Cpp.h</text>
</a>
</g>
</g>
<!-- Node1&#45;&gt;Node23 -->
<g id="edge22" class="edge">
<title>Node1&#45;&gt;Node23</title>
<path fill="none" stroke="midnightblue" d="M2181.81,-153.5C2423.68,-151.56 3082.14,-142.27 3294.5,-98 3297.58,-97.36 3300.74,-96.5 3303.86,-95.52"/>
<polygon fill="midnightblue" stroke="midnightblue" points="3305.27,-98.73 3313.53,-92.1 3302.93,-92.14 3305.27,-98.73"/>
</g>
<!-- Node24 -->
<g id="node24" class="node">
<title>Node24</title>
<g id="a_node24"><a xlink:title=" ">
<polygon fill="none" stroke="#bfbfbf" points="3380,-67.5 3380,-97.5 3507,-97.5 3507,-67.5 3380,-67.5"/>
<text text-anchor="start" x="3388" y="-85.5" font-family="Helvetica,sans-Serif" font-size="10.00">beluga/algorithm/amcl</text>
<text text-anchor="middle" x="3443.5" y="-74.5" font-family="Helvetica,sans-Serif" font-size="10.00">_core.hpp</text>
</a>
</g>
</g>
<!-- Node1&#45;&gt;Node24 -->
<g id="edge23" class="edge">
<title>Node1&#45;&gt;Node24</title>
<path fill="none" stroke="midnightblue" d="M2181.82,-154.76C2389.92,-155.48 2919.14,-151.5 3369.93,-97.92"/>
<polygon fill="midnightblue" stroke="midnightblue" points="3370.38,-101.39 3379.89,-96.73 3369.54,-94.44 3370.38,-101.39"/>
</g>
<!-- Node25 -->
<g id="node25" class="node">
<title>Node25</title>
<g id="a_node25"><a xlink:title=" ">
<polygon fill="none" stroke="#bfbfbf" points="1083.5,-6 1083.5,-25 1189.5,-25 1189.5,-6 1083.5,-6"/>
<text text-anchor="middle" x="1136.5" y="-13" font-family="Helvetica,sans-Serif" font-size="10.00">bondcpp/bond.hpp</text>
</a>
</g>
</g>
<!-- Node1&#45;&gt;Node25 -->
<g id="edge24" class="edge">
<title>Node1&#45;&gt;Node25</title>
<path fill="none" stroke="midnightblue" d="M2001.06,-152.4C1756.36,-147.64 1097.43,-131.72 1065.5,-98 1043.5,-74.76 1082.32,-46.32 1110.69,-29.91"/>
<polygon fill="midnightblue" stroke="midnightblue" points="1112.41,-32.96 1119.44,-25.03 1109.01,-26.85 1112.41,-32.96"/>
</g>
<!-- Node26 -->
<g id="node26" class="node">
<title>Node26</title>
<g id="a_node26"><a xlink:title=" ">
<polygon fill="none" stroke="#bfbfbf" points="3525.5,-67.5 3525.5,-97.5 3671.5,-97.5 3671.5,-67.5 3525.5,-67.5"/>
<text text-anchor="start" x="3533.5" y="-85.5" font-family="Helvetica,sans-Serif" font-size="10.00">geometry_msgs/msg/pose</text>
<text text-anchor="middle" x="3598.5" y="-74.5" font-family="Helvetica,sans-Serif" font-size="10.00">_array.hpp</text>
</a>
</g>
</g>
<!-- Node1&#45;&gt;Node26 -->
<g id="edge25" class="edge">
<title>Node1&#45;&gt;Node26</title>
<path fill="none" stroke="midnightblue" d="M2181.84,-154.69C2406.11,-155.5 3006.34,-152.06 3515.14,-98.04"/>
<polygon fill="midnightblue" stroke="midnightblue" points="3515.68,-101.5 3525.25,-96.96 3514.94,-94.54 3515.68,-101.5"/>
</g>
<!-- Node27 -->
<g id="node27" class="node">
<title>Node27</title>
<g id="a_node27"><a xlink:title=" ">
<polygon fill="none" stroke="#bfbfbf" points="3689.5,-67.5 3689.5,-97.5 3859.5,-97.5 3859.5,-67.5 3689.5,-67.5"/>
<text text-anchor="start" x="3697.5" y="-85.5" font-family="Helvetica,sans-Serif" font-size="10.00">geometry_msgs/msg/pose</text>
<text text-anchor="middle" x="3774.5" y="-74.5" font-family="Helvetica,sans-Serif" font-size="10.00">_with_covariance_stamped.hpp</text>
</a>
</g>
</g>
<!-- Node1&#45;&gt;Node27 -->
<g id="edge26" class="edge">
<title>Node1&#45;&gt;Node27</title>
<path fill="none" stroke="midnightblue" d="M2181.78,-154.54C2423.21,-155.17 3103.93,-151.72 3679.09,-98.05"/>
<polygon fill="midnightblue" stroke="midnightblue" points="3679.62,-101.52 3689.25,-97.1 3678.97,-94.55 3679.62,-101.52"/>
</g>
<!-- Node28 -->
<g id="node28" class="node">
<title>Node28</title>
<g id="a_node28"><a xlink:title=" ">
<polygon fill="none" stroke="#bfbfbf" points="485,-0.5 485,-30.5 622,-30.5 622,-0.5 485,-0.5"/>
<text text-anchor="start" x="493" y="-18.5" font-family="Helvetica,sans-Serif" font-size="10.00">rclcpp_lifecycle/lifecycle</text>
<text text-anchor="middle" x="553.5" y="-7.5" font-family="Helvetica,sans-Serif" font-size="10.00">_node.hpp</text>
</a>
</g>
</g>
<!-- Node1&#45;&gt;Node28 -->
<g id="edge27" class="edge">
<title>Node1&#45;&gt;Node28</title>
<path fill="none" stroke="midnightblue" d="M2001.09,-152.48C1754.77,-147.92 1075.53,-132.5 854.5,-98 830.65,-94.28 693.9,-56.18 613.17,-33.41"/>
<polygon fill="midnightblue" stroke="midnightblue" points="613.7,-29.93 603.13,-30.58 611.8,-36.66 613.7,-29.93"/>
</g>
<!-- Node29 -->
<g id="node29" class="node">
<title>Node29</title>
<g id="a_node29"><a xlink:title=" ">
<polygon fill="none" stroke="#bfbfbf" points="0,-0.5 0,-30.5 131,-30.5 131,-0.5 0,-0.5"/>
<text text-anchor="start" x="8" y="-18.5" font-family="Helvetica,sans-Serif" font-size="10.00">sensor_msgs/msg/laser</text>
<text text-anchor="middle" x="65.5" y="-7.5" font-family="Helvetica,sans-Serif" font-size="10.00">_scan.hpp</text>
</a>
</g>
</g>
<!-- Node1&#45;&gt;Node29 -->
<g id="edge28" class="edge">
<title>Node1&#45;&gt;Node29</title>
<path fill="none" stroke="midnightblue" d="M2001.23,-154.21C1682.81,-154.51 623.61,-151.41 481.5,-98 461.1,-90.33 463.56,-75.51 443.5,-67 321.58,-15.27 276.61,-50.16 141.21,-30.98"/>
<polygon fill="midnightblue" stroke="midnightblue" points="141.71,-27.51 131.3,-29.5 140.68,-34.44 141.71,-27.51"/>
</g>
<!-- Node30 -->
<g id="node30" class="node">
<title>Node30</title>
<g id="a_node30"><a xlink:title=" ">
<polygon fill="none" stroke="#bfbfbf" points="3878,-73 3878,-92 4007,-92 4007,-73 3878,-73"/>
<text text-anchor="middle" x="3942.5" y="-80" font-family="Helvetica,sans-Serif" font-size="10.00">std_srvs/srv/empty.hpp</text>
</a>
</g>
</g>
<!-- Node1&#45;&gt;Node30 -->
<g id="edge29" class="edge">
<title>Node1&#45;&gt;Node30</title>
<path fill="none" stroke="midnightblue" d="M2181.65,-153.09C2495.11,-149.63 3536.49,-135.51 3868.5,-98 3877.1,-97.03 3886.2,-95.59 3894.96,-93.99"/>
<polygon fill="midnightblue" stroke="midnightblue" points="3895.87,-97.38 3905.04,-92.06 3894.56,-90.51 3895.87,-97.38"/>
</g>
<!-- Node31 -->
<g id="node31" class="node">
<title>Node31</title>
<g id="a_node31"><a target="_parent" xlink:href="../../../../../../beluga_ros/docs/_doxygen/generated/reference/html/laser__scan_8hpp.html.html" xlink:title=" ">
<polygon fill="none" stroke="black" points="4025.5,-73 4025.5,-92 4171.5,-92 4171.5,-73 4025.5,-73"/>
<text text-anchor="middle" x="4098.5" y="-80" font-family="Helvetica,sans-Serif" font-size="10.00">beluga_ros/laser_scan.hpp</text>
</a>
</g>
</g>
<!-- Node1&#45;&gt;Node31 -->
<g id="edge30" class="edge">
<title>Node1&#45;&gt;Node31</title>
<path fill="none" stroke="midnightblue" d="M2181.62,-153.12C2511.63,-149.65 3653.75,-135.15 4016.5,-98 4026.42,-96.98 4036.95,-95.46 4047.04,-93.78"/>
<polygon fill="midnightblue" stroke="midnightblue" points="4047.7,-97.22 4056.95,-92.06 4046.5,-90.32 4047.7,-97.22"/>
</g>
<!-- Node32 -->
<g id="node32" class="node">
<title>Node32</title>
<g id="a_node32"><a xlink:href="message__filters_8hpp.html" target="_top" xlink:title="Compatibility layer for message_filters.">
<polygon fill="none" stroke="black" points="490.5,-67.5 490.5,-97.5 616.5,-97.5 616.5,-67.5 490.5,-67.5"/>
<text text-anchor="start" x="498.5" y="-85.5" font-family="Helvetica,sans-Serif" font-size="10.00">beluga_amcl/message</text>
<text text-anchor="middle" x="553.5" y="-74.5" font-family="Helvetica,sans-Serif" font-size="10.00">_filters.hpp</text>
</a>
</g>
</g>
<!-- Node1&#45;&gt;Node32 -->
<g id="edge31" class="edge">
<title>Node1&#45;&gt;Node32</title>
<path fill="none" stroke="midnightblue" d="M2001.28,-152.11C1779.96,-147.09 1192.53,-131.48 703.5,-98 678.49,-96.29 651.19,-93.83 626.82,-91.42"/>
<polygon fill="midnightblue" stroke="midnightblue" points="626.87,-87.9 616.57,-90.39 626.17,-94.87 626.87,-87.9"/>
</g>
<!-- Node33 -->
<g id="node33" class="node">
<title>Node33</title>
<g id="a_node33"><a xlink:title=" ">
<polygon fill="none" stroke="#bfbfbf" points="300,-6 300,-25 467,-25 467,-6 300,-6"/>
<text text-anchor="middle" x="383.5" y="-13" font-family="Helvetica,sans-Serif" font-size="10.00">message_filters/subscriber.hpp</text>
</a>
</g>
</g>
<!-- Node1&#45;&gt;Node33 -->
<g id="edge53" class="edge">
<title>Node1&#45;&gt;Node33</title>
<path fill="none" stroke="midnightblue" d="M2001.15,-153.14C1738.27,-150.2 976.93,-138.32 731.5,-98 683.06,-90.04 673.12,-78.91 625.5,-67 562.33,-51.2 489.05,-36.39 439.82,-26.95"/>
<polygon fill="midnightblue" stroke="midnightblue" points="440.17,-23.45 429.69,-25.02 438.86,-30.33 440.17,-23.45"/>
</g>
<!-- Node35 -->
<g id="node35" class="node">
<title>Node35</title>
<g id="a_node35"><a xlink:href="ros2__common_8hpp_source.html" target="_top" xlink:title=" ">
<polygon fill="none" stroke="black" points="1074.5,-73 1074.5,-92 1246.5,-92 1246.5,-73 1074.5,-73"/>
<text text-anchor="middle" x="1160.5" y="-80" font-family="Helvetica,sans-Serif" font-size="10.00">beluga_amcl/ros2_common.hpp</text>
</a>
</g>
</g>
<!-- Node1&#45;&gt;Node35 -->
<g id="edge36" class="edge">
<title>Node1&#45;&gt;Node35</title>
<path fill="none" stroke="midnightblue" d="M2001.39,-150.41C1848.07,-143.75 1526.78,-127.42 1256.5,-98 1245.22,-96.77 1233.24,-95.19 1221.71,-93.52"/>
<polygon fill="midnightblue" stroke="midnightblue" points="1222.12,-90.04 1211.71,-92.04 1221.09,-96.97 1222.12,-90.04"/>
</g>
<!-- Node32&#45;&gt;Node28 -->
<g id="edge33" class="edge">
<title>Node32&#45;&gt;Node28</title>
<path fill="none" stroke="midnightblue" d="M553.5,-67.4C553.5,-59.64 553.5,-49.81 553.5,-40.86"/>
<polygon fill="midnightblue" stroke="midnightblue" points="557,-40.58 553.5,-30.58 550,-40.58 557,-40.58"/>
</g>
<!-- Node32&#45;&gt;Node29 -->
<g id="edge34" class="edge">
<title>Node32&#45;&gt;Node29</title>
<path fill="none" stroke="midnightblue" d="M490.12,-69.15C485.52,-68.38 480.94,-67.65 476.5,-67 331.11,-45.56 290.75,-52.94 141.3,-31.03"/>
<polygon fill="midnightblue" stroke="midnightblue" points="141.7,-27.55 131.3,-29.55 140.67,-34.48 141.7,-27.55"/>
</g>
<!-- Node32&#45;&gt;Node33 -->
<g id="edge32" class="edge">
<title>Node32&#45;&gt;Node33</title>
<path fill="none" stroke="midnightblue" d="M516.61,-67.4C486.39,-55.84 444.06,-39.66 415.31,-28.66"/>
<polygon fill="midnightblue" stroke="midnightblue" points="416.34,-25.31 405.75,-25.01 413.84,-31.85 416.34,-25.31"/>
</g>
<!-- Node34 -->
<g id="node34" class="node">
<title>Node34</title>
<g id="a_node34"><a xlink:title=" ">
<polygon fill="none" stroke="#bfbfbf" points="149.5,-0.5 149.5,-30.5 281.5,-30.5 281.5,-0.5 149.5,-0.5"/>
<text text-anchor="start" x="157.5" y="-18.5" font-family="Helvetica,sans-Serif" font-size="10.00">sensor_msgs/msg/point</text>
<text text-anchor="middle" x="215.5" y="-7.5" font-family="Helvetica,sans-Serif" font-size="10.00">_cloud2.hpp</text>
</a>
</g>
</g>
<!-- Node32&#45;&gt;Node34 -->
<g id="edge35" class="edge">
<title>Node32&#45;&gt;Node34</title>
<path fill="none" stroke="midnightblue" d="M490.32,-69.35C434.06,-58.53 351.61,-42.67 291.7,-31.15"/>
<polygon fill="midnightblue" stroke="midnightblue" points="292.02,-27.65 281.54,-29.2 290.7,-34.53 292.02,-27.65"/>
</g>
<!-- Node35&#45;&gt;Node4 -->
<g id="edge48" class="edge">
<title>Node35&#45;&gt;Node4</title>
<path fill="none" stroke="midnightblue" d="M1103.38,-72.99C1036.17,-62.98 921.22,-45.83 822.5,-31 812.97,-29.57 802.92,-28.05 793.04,-26.56"/>
<polygon fill="midnightblue" stroke="midnightblue" points="793.25,-23.06 782.84,-25.03 792.21,-29.98 793.25,-23.06"/>
</g>
<!-- Node35&#45;&gt;Node5 -->
<g id="edge49" class="edge">
<title>Node35&#45;&gt;Node5</title>
<path fill="none" stroke="midnightblue" d="M1127.16,-72.94C1081.85,-61.29 1000.74,-40.45 950.77,-27.62"/>
<polygon fill="midnightblue" stroke="midnightblue" points="951.47,-24.18 940.91,-25.08 949.72,-30.96 951.47,-24.18"/>
</g>
<!-- Node35&#45;&gt;Node14 -->
<g id="edge37" class="edge">
<title>Node35&#45;&gt;Node14</title>
<path fill="none" stroke="midnightblue" d="M1143.64,-72.87C1122.1,-61.84 1084.6,-42.66 1059.42,-29.77"/>
<polygon fill="midnightblue" stroke="midnightblue" points="1060.93,-26.61 1050.43,-25.17 1057.74,-32.84 1060.93,-26.61"/>
</g>
<!-- Node35&#45;&gt;Node25 -->
<g id="edge43" class="edge">
<title>Node35&#45;&gt;Node25</title>
<path fill="none" stroke="midnightblue" d="M1157.26,-72.73C1153.66,-62.99 1147.75,-46.98 1143.16,-34.53"/>
<polygon fill="midnightblue" stroke="midnightblue" points="1146.43,-33.3 1139.69,-25.13 1139.87,-35.72 1146.43,-33.3"/>
</g>
<!-- Node35&#45;&gt;Node28 -->
<g id="edge39" class="edge">
<title>Node35&#45;&gt;Node28</title>
<path fill="none" stroke="midnightblue" d="M1074.1,-75.61C971.28,-68.08 794.26,-53.42 632.49,-31.06"/>
<polygon fill="midnightblue" stroke="midnightblue" points="632.74,-27.56 622.35,-29.64 631.77,-34.49 632.74,-27.56"/>
</g>
<!-- Node36 -->
<g id="node36" class="node">
<title>Node36</title>
<g id="a_node36"><a xlink:title=" ">
<polygon fill="none" stroke="#bfbfbf" points="2255,-6 2255,-25 2390,-25 2390,-6 2255,-6"/>
<text text-anchor="middle" x="2322.5" y="-13" font-family="Helvetica,sans-Serif" font-size="10.00">rclcpp/node_options.hpp</text>
</a>
</g>
</g>
<!-- Node35&#45;&gt;Node36 -->
<g id="edge38" class="edge">
<title>Node35&#45;&gt;Node36</title>
<path fill="none" stroke="midnightblue" d="M1209.7,-72.97C1224.68,-70.67 1241.23,-68.43 1256.5,-67 1694.88,-26.06 1808.99,-80.4 2246.5,-31 2255.42,-29.99 2264.87,-28.52 2273.95,-26.9"/>
<polygon fill="midnightblue" stroke="midnightblue" points="2274.82,-30.3 2284.01,-25.02 2273.54,-23.42 2274.82,-30.3"/>
</g>
<!-- Node37 -->
<g id="node37" class="node">
<title>Node37</title>
<g id="a_node37"><a xlink:title=" ">
<polygon fill="none" stroke="#bfbfbf" points="2408,-6 2408,-25 2549,-25 2549,-6 2408,-6"/>
<text text-anchor="middle" x="2478.5" y="-13" font-family="Helvetica,sans-Serif" font-size="10.00">rclcpp_lifecycle/state.hpp</text>
</a>
</g>
</g>
<!-- Node35&#45;&gt;Node37 -->
<g id="edge40" class="edge">
<title>Node35&#45;&gt;Node37</title>
<path fill="none" stroke="midnightblue" d="M1209.7,-72.93C1224.68,-70.62 1241.22,-68.39 1256.5,-67 1762.66,-20.97 1894.13,-85.03 2399.5,-31 2408.97,-29.99 2419,-28.48 2428.63,-26.82"/>
<polygon fill="midnightblue" stroke="midnightblue" points="2429.26,-30.27 2438.48,-25.05 2428.02,-23.38 2429.26,-30.27"/>
</g>
<!-- Node38 -->
<g id="node38" class="node">
<title>Node38</title>
<g id="a_node38"><a xlink:title=" ">
<polygon fill="none" stroke="#bfbfbf" points="1207.5,-6 1207.5,-25 1251.5,-25 1251.5,-6 1207.5,-6"/>
<text text-anchor="middle" x="1229.5" y="-13" font-family="Helvetica,sans-Serif" font-size="10.00">string</text>
</a>
</g>
</g>
<!-- Node35&#45;&gt;Node38 -->
<g id="edge41" class="edge">
<title>Node35&#45;&gt;Node38</title>
<path fill="none" stroke="midnightblue" d="M1169.81,-72.73C1180.77,-62.4 1199.21,-45.04 1212.69,-32.33"/>
<polygon fill="midnightblue" stroke="midnightblue" points="1215.46,-34.53 1220.34,-25.13 1210.66,-29.44 1215.46,-34.53"/>
</g>
<!-- Node39 -->
<g id="node39" class="node">
<title>Node39</title>
<g id="a_node39"><a xlink:title=" ">
<polygon fill="none" stroke="#bfbfbf" points="1270,-6 1270,-25 1343,-25 1343,-6 1270,-6"/>
<text text-anchor="middle" x="1306.5" y="-13" font-family="Helvetica,sans-Serif" font-size="10.00">string_view</text>
</a>
</g>
</g>
<!-- Node35&#45;&gt;Node39 -->
<g id="edge42" class="edge">
<title>Node35&#45;&gt;Node39</title>
<path fill="none" stroke="midnightblue" d="M1179.89,-72.87C1204.98,-61.7 1248.89,-42.15 1277.84,-29.26"/>
<polygon fill="midnightblue" stroke="midnightblue" points="1279.32,-32.43 1287.03,-25.17 1276.47,-26.04 1279.32,-32.43"/>
</g>
<!-- Node40 -->
<g id="node40" class="node">
<title>Node40</title>
<g id="a_node40"><a xlink:title=" ">
<polygon fill="none" stroke="#bfbfbf" points="1361.5,-0.5 1361.5,-30.5 1507.5,-30.5 1507.5,-0.5 1361.5,-0.5"/>
<text text-anchor="start" x="1369.5" y="-18.5" font-family="Helvetica,sans-Serif" font-size="10.00">geometry_msgs/msg/pose</text>
<text text-anchor="middle" x="1434.5" y="-7.5" font-family="Helvetica,sans-Serif" font-size="10.00">_stamped.hpp</text>
</a>
</g>
</g>
<!-- Node35&#45;&gt;Node40 -->
<g id="edge44" class="edge">
<title>Node35&#45;&gt;Node40</title>
<path fill="none" stroke="midnightblue" d="M1196.6,-72.94C1239.42,-62.78 1311.75,-45.62 1365.44,-32.88"/>
<polygon fill="midnightblue" stroke="midnightblue" points="1366.31,-36.27 1375.24,-30.56 1364.7,-29.46 1366.31,-36.27"/>
</g>
<!-- Node41 -->
<g id="node41" class="node">
<title>Node41</title>
<g id="a_node41"><a xlink:title=" ">
<polygon fill="none" stroke="#bfbfbf" points="1526,-6 1526,-25 1625,-25 1625,-6 1526,-6"/>
<text text-anchor="middle" x="1575.5" y="-13" font-family="Helvetica,sans-Serif" font-size="10.00">rclcpp/rclcpp.hpp</text>
</a>
</g>
</g>
<!-- Node35&#45;&gt;Node41 -->
<g id="edge45" class="edge">
<title>Node35&#45;&gt;Node41</title>
<path fill="none" stroke="midnightblue" d="M1216.07,-72.99C1229.31,-70.99 1243.4,-68.9 1256.5,-67 1371.95,-50.29 1401.93,-52.95 1516.5,-31 1522,-29.95 1527.76,-28.7 1533.44,-27.4"/>
<polygon fill="midnightblue" stroke="midnightblue" points="1534.56,-30.73 1543.48,-25.01 1532.94,-23.92 1534.56,-30.73"/>
</g>
<!-- Node42 -->
<g id="node42" class="node">
<title>Node42</title>
<g id="a_node42"><a xlink:title=" ">
<polygon fill="none" stroke="#bfbfbf" points="1643.5,-6 1643.5,-25 1735.5,-25 1735.5,-6 1643.5,-6"/>
<text text-anchor="middle" x="1689.5" y="-13" font-family="Helvetica,sans-Serif" font-size="10.00">rclcpp/time.hpp</text>
</a>
</g>
</g>
<!-- Node35&#45;&gt;Node42 -->
<g id="edge46" class="edge">
<title>Node35&#45;&gt;Node42</title>
<path fill="none" stroke="midnightblue" d="M1213.49,-72.96C1227.46,-70.86 1242.53,-68.72 1256.5,-67 1424,-46.39 1468.36,-60.61 1634.5,-31 1639.71,-30.07 1645.16,-28.89 1650.5,-27.62"/>
<polygon fill="midnightblue" stroke="midnightblue" points="1651.74,-30.91 1660.58,-25.07 1650.03,-24.13 1651.74,-30.91"/>
</g>
<!-- Node43 -->
<g id="node43" class="node">
<title>Node43</title>
<g id="a_node43"><a xlink:title=" ">
<polygon fill="none" stroke="#bfbfbf" points="1753.5,-0.5 1753.5,-30.5 1869.5,-30.5 1869.5,-0.5 1753.5,-0.5"/>
<text text-anchor="start" x="1761.5" y="-18.5" font-family="Helvetica,sans-Serif" font-size="10.00">tf2_ros/create_timer</text>
<text text-anchor="middle" x="1811.5" y="-7.5" font-family="Helvetica,sans-Serif" font-size="10.00">_ros.h</text>
</a>
</g>
</g>
<!-- Node35&#45;&gt;Node43 -->
<g id="edge47" class="edge">
<title>Node35&#45;&gt;Node43</title>
<path fill="none" stroke="midnightblue" d="M1212.22,-72.95C1226.53,-70.78 1242.09,-68.62 1256.5,-67 1469.35,-43.11 1527.5,-61.5 1743.42,-31.01"/>
<polygon fill="midnightblue" stroke="midnightblue" points="1744.08,-34.45 1753.49,-29.57 1743.09,-27.53 1744.08,-34.45"/>
</g>
<!-- Node44 -->
<g id="node44" class="node">
<title>Node44</title>
<g id="a_node44"><a xlink:title=" ">
<polygon fill="none" stroke="#bfbfbf" points="1888,-6 1888,-25 1979,-25 1979,-6 1888,-6"/>
<text text-anchor="middle" x="1933.5" y="-13" font-family="Helvetica,sans-Serif" font-size="10.00">tf2/convert.hpp</text>
</a>
</g>
</g>
<!-- Node35&#45;&gt;Node44 -->
<g id="edge50" class="edge">
<title>Node35&#45;&gt;Node44</title>
<path fill="none" stroke="midnightblue" d="M1211.21,-72.95C1225.79,-70.73 1241.75,-68.54 1256.5,-67 1531.91,-38.29 1605.03,-74.51 1878.5,-31 1884.05,-30.12 1889.84,-28.91 1895.51,-27.57"/>
<polygon fill="midnightblue" stroke="midnightblue" points="1896.63,-30.89 1905.47,-25.05 1894.91,-24.11 1896.63,-30.89"/>
</g>
<!-- Node45 -->
<g id="node45" class="node">
<title>Node45</title>
<g id="a_node45"><a xlink:title=" ">
<polygon fill="none" stroke="#bfbfbf" points="1997,-6 1997,-25 2072,-25 2072,-6 1997,-6"/>
<text text-anchor="middle" x="2034.5" y="-13" font-family="Helvetica,sans-Serif" font-size="10.00">tf2/utils.hpp</text>
</a>
</g>
</g>
<!-- Node35&#45;&gt;Node45 -->
<g id="edge51" class="edge">
<title>Node35&#45;&gt;Node45</title>
<path fill="none" stroke="midnightblue" d="M1210.7,-72.94C1225.42,-70.7 1241.57,-68.49 1256.5,-67 1580.61,-34.64 1667.88,-88.43 1988.5,-31 1992.77,-30.24 1997.19,-29.19 2001.52,-28"/>
<polygon fill="midnightblue" stroke="midnightblue" points="2002.81,-31.27 2011.39,-25.06 2000.81,-24.57 2002.81,-31.27"/>
</g>
<!-- Node46 -->
<g id="node46" class="node">
<title>Node46</title>
<g id="a_node46"><a target="_parent" xlink:href="../../../../../../beluga_ros/docs/_doxygen/generated/reference/html/tf2__sophus_8hpp.html.html" xlink:title=" ">
<polygon fill="none" stroke="black" points="2090,-6 2090,-25 2237,-25 2237,-6 2090,-6"/>
<text text-anchor="middle" x="2163.5" y="-13" font-family="Helvetica,sans-Serif" font-size="10.00">beluga_ros/tf2_sophus.hpp</text>
</a>
</g>
</g>
<!-- Node35&#45;&gt;Node46 -->
<g id="edge52" class="edge">
<title>Node35&#45;&gt;Node46</title>
<path fill="none" stroke="midnightblue" d="M1210.2,-72.96C1225.05,-70.69 1241.4,-68.47 1256.5,-67 1621.8,-31.54 1716.68,-71.04 2081.5,-31 2091.21,-29.93 2101.5,-28.42 2111.39,-26.77"/>
<polygon fill="midnightblue" stroke="midnightblue" points="2112.26,-30.17 2121.52,-25.02 2111.06,-23.28 2112.26,-30.17"/>
</g>
</g>
</svg>
        <g id="navigator" transform="translate(0 0)" fill="#404254">
                <rect fill="#f2f5e9" fill-opacity="0.5" stroke="#606060" stroke-width=".5" x="0" y="0" width="60" height="60"/>
                <use id="zoomplus" xlink:href="#zoomPlus" x="17" y="9" onmousedown="handleZoom(evt,'in')"/>
                <use id="zoomminus" xlink:href="#zoomMin" x="42" y="9" onmousedown="handleZoom(evt,'out')"/>
                <use id="reset" xlink:href="#resetDef" x="30" y="36" onmousedown="handleReset()"/>
                <g id="arrowUp" xlink:href="#dirArrow" transform="translate(30 24)" onmousedown="handlePan(0,-1)">
                  <use xlink:href="#rim" fill="#404040">
                        <set attributeName="fill" to="#808080" begin="arrowUp.mouseover" end="arrowUp.mouseout"/>
                  </use>
                  <path fill="none" stroke="white" stroke-width="1.5" d="M0,-3.0v7 M-2.5,-0.5L0,-3.0L2.5,-0.5"/>
                </g>
                <g id="arrowRight" xlink:href="#dirArrow" transform="rotate(90) translate(36 -43)" onmousedown="handlePan(1,0)">
                  <use xlink:href="#rim" fill="#404040">
                        <set attributeName="fill" to="#808080" begin="arrowRight.mouseover" end="arrowRight.mouseout"/>
                  </use>
                  <path fill="none" stroke="white" stroke-width="1.5" d="M0,-3.0v7 M-2.5,-0.5L0,-3.0L2.5,-0.5"/>
                </g>
                <g id="arrowDown" xlink:href="#dirArrow" transform="rotate(180) translate(-30 -48)" onmousedown="handlePan(0,1)">
                  <use xlink:href="#rim" fill="#404040">
                        <set attributeName="fill" to="#808080" begin="arrowDown.mouseover" end="arrowDown.mouseout"/>
                  </use>
                  <path fill="none" stroke="white" stroke-width="1.5" d="M0,-3.0v7 M-2.5,-0.5L0,-3.0L2.5,-0.5"/>
                </g>
                <g id="arrowLeft" xlink:href="#dirArrow" transform="rotate(270) translate(-36 17)" onmousedown="handlePan(-1,0)">
                  <use xlink:href="#rim" fill="#404040">
                        <set attributeName="fill" to="#808080" begin="arrowLeft.mouseover" end="arrowLeft.mouseout"/>
                  </use>
                  <path fill="none" stroke="white" stroke-width="1.5" d="M0,-3.0v7 M-2.5,-0.5L0,-3.0L2.5,-0.5"/>
                </g>
        </g>
        <svg viewBox="0 0 15 15" width="100%" height="30px" preserveAspectRatio="xMaxYMin meet">
         <g id="arrow_out" transform="scale(0.3 0.3)">
          <a xlink:href="ndt__amcl__node_8hpp__incl_org.svg" target="_base">
           <rect id="button" ry="5" rx="5" y="6" x="6" height="38" width="38"
                fill="#f2f5e9" fill-opacity="0.5" stroke="#606060" stroke-width="1.0"/>
           <path id="arrow"
             d="M 11.500037,31.436501 C 11.940474,20.09759 22.043105,11.32322 32.158766,21.979434 L 37.068811,17.246167 C 37.068811,17.246167 37.088388,32 37.088388,32 L 22.160133,31.978069 C 22.160133,31.978069 26.997745,27.140456 26.997745,27.140456 C 18.528582,18.264221 13.291696,25.230495 11.500037,31.436501 z"
             style="fill:#404040;"/>
          </a>
         </g>
        </svg>
</svg>
