<?xml version="1.0" encoding="UTF-8" standalone="no"?>
<!DOCTYPE svg PUBLIC "-//W3C//DTD SVG 1.1//EN"
 "http://www.w3.org/Graphics/SVG/1.1/DTD/svg11.dtd">
<!-- Generated by graphviz version 2.43.0 (0)
 -->
<!-- Title: /home/runner/work/beluga/beluga/beluga_amcl/include/beluga_amcl/ndt_amcl_node.hpp Pages: 1 -->
<svg width="4140pt" height="184pt"
 viewBox="0.00 0.00 4139.50 184.00" xmlns="http://www.w3.org/2000/svg" xmlns:xlink="http://www.w3.org/1999/xlink">
<g id="graph0" class="graph" transform="scale(1 1) rotate(0) translate(4 180)">
<title>/home/runner/work/beluga/beluga/beluga_amcl/include/beluga_amcl/ndt_amcl_node.hpp</title>
<!-- Node1 -->
<g id="node1" class="node">
<title>Node1</title>
<g id="a_node1"><a xlink:title="ROS 2 integration of the 2D NDT&#45;AMCL algorithm.">
<polygon fill="#bfbfbf" stroke="black" points="1990.5,-134.5 1990.5,-175.5 2170.5,-175.5 2170.5,-134.5 1990.5,-134.5"/>
<text text-anchor="start" x="1998.5" y="-163.5" font-family="Helvetica,sans-Serif" font-size="10.00">/home/runner/work/beluga</text>
<text text-anchor="start" x="1998.5" y="-152.5" font-family="Helvetica,sans-Serif" font-size="10.00">/beluga/beluga_amcl/include</text>
<text text-anchor="middle" x="2080.5" y="-141.5" font-family="Helvetica,sans-Serif" font-size="10.00">/beluga_amcl/ndt_amcl_node.hpp</text>
</a>
</g>
</g>
<!-- Node2 -->
<g id="node2" class="node">
<title>Node2</title>
<g id="a_node2"><a xlink:title=" ">
<polygon fill="none" stroke="#bfbfbf" points="192.5,-73 192.5,-92 282.5,-92 282.5,-73 192.5,-73"/>
<text text-anchor="middle" x="237.5" y="-80" font-family="Helvetica,sans-Serif" font-size="10.00">tf2_ros/buffer.h</text>
</a>
</g>
</g>
<!-- Node1&#45;&gt;Node2 -->
<g id="edge1" class="edge">
<title>Node1&#45;&gt;Node2</title>
<path fill="none" stroke="midnightblue" d="M1990.45,-153.93C1675.52,-153.25 624.55,-147.25 291.5,-98 285.92,-97.17 280.09,-95.98 274.41,-94.62"/>
<polygon fill="midnightblue" stroke="midnightblue" points="274.99,-91.15 264.44,-92.04 273.24,-97.93 274.99,-91.15"/>
</g>
<!-- Node3 -->
<g id="node3" class="node">
<title>Node3</title>
<g id="a_node3"><a xlink:title=" ">
<polygon fill="none" stroke="#bfbfbf" points="300.5,-73 300.5,-92 434.5,-92 434.5,-73 300.5,-73"/>
<text text-anchor="middle" x="367.5" y="-80" font-family="Helvetica,sans-Serif" font-size="10.00">tf2_ros/message_filter.h</text>
</a>
</g>
</g>
<!-- Node1&#45;&gt;Node3 -->
<g id="edge2" class="edge">
<title>Node1&#45;&gt;Node3</title>
<path fill="none" stroke="midnightblue" d="M1990.36,-152.6C1693.94,-147.75 751.12,-130.11 448.5,-98 438.8,-96.97 428.51,-95.46 418.64,-93.8"/>
<polygon fill="midnightblue" stroke="midnightblue" points="419,-90.3 408.54,-92.02 417.79,-97.2 419,-90.3"/>
</g>
<!-- Node4 -->
<g id="node4" class="node">
<title>Node4</title>
<g id="a_node4"><a xlink:title=" ">
<polygon fill="none" stroke="#bfbfbf" points="640,-6 640,-25 813,-25 813,-6 640,-6"/>
<text text-anchor="middle" x="726.5" y="-13" font-family="Helvetica,sans-Serif" font-size="10.00">tf2_ros/transform_broadcaster.h</text>
</a>
</g>
</g>
<!-- Node1&#45;&gt;Node4 -->
<g id="edge3" class="edge">
<title>Node1&#45;&gt;Node4</title>
<path fill="none" stroke="midnightblue" d="M1990.1,-152.04C1766.39,-146.74 1191.38,-130.33 1002.5,-98 912.01,-82.51 809.23,-47.27 758.42,-28.61"/>
<polygon fill="midnightblue" stroke="midnightblue" points="759.56,-25.3 748.97,-25.11 757.13,-31.87 759.56,-25.3"/>
</g>
<!-- Node5 -->
<g id="node5" class="node">
<title>Node5</title>
<g id="a_node5"><a xlink:title=" ">
<polygon fill="none" stroke="#bfbfbf" points="831.5,-6 831.5,-25 983.5,-25 983.5,-6 831.5,-6"/>
<text text-anchor="middle" x="907.5" y="-13" font-family="Helvetica,sans-Serif" font-size="10.00">tf2_ros/transform_listener.h</text>
</a>
</g>
</g>
<!-- Node1&#45;&gt;Node5 -->
<g id="edge4" class="edge">
<title>Node1&#45;&gt;Node5</title>
<path fill="none" stroke="midnightblue" d="M1990.18,-153.08C1779.15,-150.26 1258.82,-139.21 1089.5,-98 1029.49,-83.4 964.74,-49.57 930.99,-30.4"/>
<polygon fill="midnightblue" stroke="midnightblue" points="932.35,-27.15 921.94,-25.19 928.86,-33.21 932.35,-27.15"/>
</g>
<!-- Node6 -->
<g id="node6" class="node">
<title>Node6</title>
<g id="a_node6"><a target="_parent" xlink:href="../../../../../../beluga/docs/_doxygen/generated/reference/html/beluga_8hpp.html.html" xlink:title=" ">
<polygon fill="none" stroke="black" points="1389,-73 1389,-92 1496,-92 1496,-73 1389,-73"/>
<text text-anchor="middle" x="1442.5" y="-80" font-family="Helvetica,sans-Serif" font-size="10.00">beluga/beluga.hpp</text>
</a>
</g>
</g>
<!-- Node1&#45;&gt;Node6 -->
<g id="edge5" class="edge">
<title>Node1&#45;&gt;Node6</title>
<path fill="none" stroke="midnightblue" d="M1990.4,-148.84C1876.8,-141.5 1675.76,-125.77 1505.5,-98 1499.18,-96.97 1492.54,-95.68 1486.04,-94.29"/>
<polygon fill="midnightblue" stroke="midnightblue" points="1486.54,-90.81 1476.02,-92.06 1485.02,-97.65 1486.54,-90.81"/>
</g>
<!-- Node7 -->
<g id="node7" class="node">
<title>Node7</title>
<g id="a_node7"><a target="_parent" xlink:href="../../../../../../beluga/docs/_doxygen/generated/reference/html/differential__drive__model_8hpp.html.html" xlink:title=" ">
<polygon fill="none" stroke="black" points="1514,-67.5 1514,-97.5 1657,-97.5 1657,-67.5 1514,-67.5"/>
<text text-anchor="start" x="1522" y="-85.5" font-family="Helvetica,sans-Serif" font-size="10.00">beluga/motion/differential</text>
<text text-anchor="middle" x="1585.5" y="-74.5" font-family="Helvetica,sans-Serif" font-size="10.00">_drive_model.hpp</text>
</a>
</g>
</g>
<!-- Node1&#45;&gt;Node7 -->
<g id="edge6" class="edge">
<title>Node1&#45;&gt;Node7</title>
<path fill="none" stroke="midnightblue" d="M1990.29,-142.92C1908.61,-132.64 1784.74,-116.39 1666.94,-98.03"/>
<polygon fill="midnightblue" stroke="midnightblue" points="1667.45,-94.56 1657.03,-96.47 1666.36,-101.48 1667.45,-94.56"/>
</g>
<!-- Node8 -->
<g id="node8" class="node">
<title>Node8</title>
<g id="a_node8"><a target="_parent" xlink:href="../../../../../../beluga/docs/_doxygen/generated/reference/html/omnidirectional__drive__model_8hpp.html.html" xlink:title=" ">
<polygon fill="none" stroke="black" points="1675,-67.5 1675,-97.5 1842,-97.5 1842,-67.5 1675,-67.5"/>
<text text-anchor="start" x="1683" y="-85.5" font-family="Helvetica,sans-Serif" font-size="10.00">beluga/motion/omnidirectional</text>
<text text-anchor="middle" x="1758.5" y="-74.5" font-family="Helvetica,sans-Serif" font-size="10.00">_drive_model.hpp</text>
</a>
</g>
</g>
<!-- Node1&#45;&gt;Node8 -->
<g id="edge7" class="edge">
<title>Node1&#45;&gt;Node8</title>
<path fill="none" stroke="midnightblue" d="M1991.23,-134.46C1941.28,-123.52 1879.74,-110.04 1832.49,-99.7"/>
<polygon fill="midnightblue" stroke="midnightblue" points="1833.15,-96.26 1822.63,-97.54 1831.65,-103.1 1833.15,-96.26"/>
</g>
<!-- Node9 -->
<g id="node9" class="node">
<title>Node9</title>
<g id="a_node9"><a target="_parent" xlink:href="../../../../../../beluga/docs/_doxygen/generated/reference/html/stationary__model_8hpp.html.html" xlink:title=" ">
<polygon fill="none" stroke="black" points="1860.5,-67.5 1860.5,-97.5 2000.5,-97.5 2000.5,-67.5 1860.5,-67.5"/>
<text text-anchor="start" x="1868.5" y="-85.5" font-family="Helvetica,sans-Serif" font-size="10.00">beluga/motion/stationary</text>
<text text-anchor="middle" x="1930.5" y="-74.5" font-family="Helvetica,sans-Serif" font-size="10.00">_model.hpp</text>
</a>
</g>
</g>
<!-- Node1&#45;&gt;Node9 -->
<g id="edge8" class="edge">
<title>Node1&#45;&gt;Node9</title>
<path fill="none" stroke="midnightblue" d="M2038.72,-134.36C2017.12,-124.21 1990.92,-111.9 1969.71,-101.93"/>
<polygon fill="midnightblue" stroke="midnightblue" points="1971.19,-98.76 1960.65,-97.67 1968.21,-105.09 1971.19,-98.76"/>
</g>
<!-- Node10 -->
<g id="node10" class="node">
<title>Node10</title>
<g id="a_node10"><a target="_parent" xlink:href="../../../../../../beluga/docs/_doxygen/generated/reference/html/primitives_8hpp.html.html" xlink:title=" ">
<polygon fill="none" stroke="black" points="2019,-73 2019,-92 2142,-92 2142,-73 2019,-73"/>
<text text-anchor="middle" x="2080.5" y="-80" font-family="Helvetica,sans-Serif" font-size="10.00">beluga/primitives.hpp</text>
</a>
</g>
</g>
<!-- Node1&#45;&gt;Node10 -->
<g id="edge9" class="edge">
<title>Node1&#45;&gt;Node10</title>
<path fill="none" stroke="midnightblue" d="M2080.5,-134.36C2080.5,-124.3 2080.5,-112.1 2080.5,-102.18"/>
<polygon fill="midnightblue" stroke="midnightblue" points="2084,-102.17 2080.5,-92.17 2077,-102.17 2084,-102.17"/>
</g>
<!-- Node11 -->
<g id="node11" class="node">
<title>Node11</title>
<g id="a_node11"><a xlink:title=" ">
<polygon fill="none" stroke="#bfbfbf" points="2160.5,-67.5 2160.5,-97.5 2270.5,-97.5 2270.5,-67.5 2160.5,-67.5"/>
<text text-anchor="start" x="2168.5" y="-85.5" font-family="Helvetica,sans-Serif" font-size="10.00">beluga/sensor/data</text>
<text text-anchor="middle" x="2215.5" y="-74.5" font-family="Helvetica,sans-Serif" font-size="10.00">/ndt_cell.hpp</text>
</a>
</g>
</g>
<!-- Node1&#45;&gt;Node11 -->
<g id="edge10" class="edge">
<title>Node1&#45;&gt;Node11</title>
<path fill="none" stroke="midnightblue" d="M2118.11,-134.36C2137.28,-124.35 2160.49,-112.23 2179.44,-102.33"/>
<polygon fill="midnightblue" stroke="midnightblue" points="2181.12,-105.4 2188.37,-97.67 2177.88,-99.2 2181.12,-105.4"/>
</g>
<!-- Node12 -->
<g id="node12" class="node">
<title>Node12</title>
<g id="a_node12"><a target="_parent" xlink:href="../../../../../../beluga/docs/_doxygen/generated/reference/html/sparse__value__grid_8hpp.html.html" xlink:title=" ">
<polygon fill="none" stroke="black" points="2289,-67.5 2289,-97.5 2418,-97.5 2418,-67.5 2289,-67.5"/>
<text text-anchor="start" x="2297" y="-85.5" font-family="Helvetica,sans-Serif" font-size="10.00">beluga/sensor/data</text>
<text text-anchor="middle" x="2353.5" y="-74.5" font-family="Helvetica,sans-Serif" font-size="10.00">/sparse_value_grid.hpp</text>
</a>
</g>
</g>
<!-- Node1&#45;&gt;Node12 -->
<g id="edge11" class="edge">
<title>Node1&#45;&gt;Node12</title>
<path fill="none" stroke="midnightblue" d="M2156.18,-134.46C2197.93,-123.67 2249.22,-110.43 2289.05,-100.14"/>
<polygon fill="midnightblue" stroke="midnightblue" points="2290.11,-103.49 2298.91,-97.6 2288.35,-96.71 2290.11,-103.49"/>
</g>
<!-- Node13 -->
<g id="node13" class="node">
<title>Node13</title>
<g id="a_node13"><a xlink:title=" ">
<polygon fill="none" stroke="#bfbfbf" points="2436,-67.5 2436,-97.5 2577,-97.5 2577,-67.5 2436,-67.5"/>
<text text-anchor="start" x="2444" y="-85.5" font-family="Helvetica,sans-Serif" font-size="10.00">beluga/sensor/ndt_sensor</text>
<text text-anchor="middle" x="2506.5" y="-74.5" font-family="Helvetica,sans-Serif" font-size="10.00">_model.hpp</text>
</a>
</g>
</g>
<!-- Node1&#45;&gt;Node13 -->
<g id="edge12" class="edge">
<title>Node1&#45;&gt;Node13</title>
<path fill="none" stroke="midnightblue" d="M2170.82,-139.97C2238.44,-129.34 2333.49,-114.13 2425.8,-98.27"/>
<polygon fill="midnightblue" stroke="midnightblue" points="2426.62,-101.69 2435.88,-96.54 2425.43,-94.79 2426.62,-101.69"/>
</g>
<!-- Node14 -->
<g id="node14" class="node">
<title>Node14</title>
<g id="a_node14"><a xlink:title=" ">
<polygon fill="none" stroke="#bfbfbf" points="1001.5,-6 1001.5,-25 1065.5,-25 1065.5,-6 1001.5,-6"/>
<text text-anchor="middle" x="1033.5" y="-13" font-family="Helvetica,sans-Serif" font-size="10.00">execution</text>
</a>
</g>
</g>
<!-- Node1&#45;&gt;Node14 -->
<g id="edge13" class="edge">
<title>Node1&#45;&gt;Node14</title>
<path fill="none" stroke="midnightblue" d="M1990.45,-154.85C1787.87,-155.74 1301.98,-152 1148.5,-98 1108.56,-83.95 1070.07,-51.66 1049.32,-32.21"/>
<polygon fill="midnightblue" stroke="midnightblue" points="1051.67,-29.61 1042.03,-25.21 1046.82,-34.66 1051.67,-29.61"/>
</g>
<!-- Node15 -->
<g id="node15" class="node">
<title>Node15</title>
<g id="a_node15"><a xlink:title=" ">
<polygon fill="none" stroke="#bfbfbf" points="2595,-73 2595,-92 2660,-92 2660,-73 2595,-73"/>
<text text-anchor="middle" x="2627.5" y="-80" font-family="Helvetica,sans-Serif" font-size="10.00">functional</text>
</a>
</g>
</g>
<!-- Node1&#45;&gt;Node15 -->
<g id="edge14" class="edge">
<title>Node1&#45;&gt;Node15</title>
<path fill="none" stroke="midnightblue" d="M2170.66,-150.27C2272.67,-144.61 2443.27,-130.79 2586.5,-98 2589.74,-97.26 2593.07,-96.34 2596.38,-95.34"/>
<polygon fill="midnightblue" stroke="midnightblue" points="2597.68,-98.59 2606.07,-92.12 2595.48,-91.95 2597.68,-98.59"/>
</g>
<!-- Node16 -->
<g id="node16" class="node">
<title>Node16</title>
<g id="a_node16"><a xlink:title=" ">
<polygon fill="none" stroke="#bfbfbf" points="2678.5,-73 2678.5,-92 2734.5,-92 2734.5,-73 2678.5,-73"/>
<text text-anchor="middle" x="2706.5" y="-80" font-family="Helvetica,sans-Serif" font-size="10.00">optional</text>
</a>
</g>
</g>
<!-- Node1&#45;&gt;Node16 -->
<g id="edge15" class="edge">
<title>Node1&#45;&gt;Node16</title>
<path fill="none" stroke="midnightblue" d="M2170.57,-153.18C2287.23,-150.37 2496.15,-139.35 2669.5,-98 2672.33,-97.32 2675.23,-96.48 2678.11,-95.54"/>
<polygon fill="midnightblue" stroke="midnightblue" points="2679.43,-98.78 2687.62,-92.07 2677.03,-92.2 2679.43,-98.78"/>
</g>
<!-- Node17 -->
<g id="node17" class="node">
<title>Node17</title>
<g id="a_node17"><a xlink:title=" ">
<polygon fill="none" stroke="#bfbfbf" points="2753,-73 2753,-92 2896,-92 2896,-73 2753,-73"/>
<text text-anchor="middle" x="2824.5" y="-80" font-family="Helvetica,sans-Serif" font-size="10.00">rclcpp/callback_group.hpp</text>
</a>
</g>
</g>
<!-- Node1&#45;&gt;Node17 -->
<g id="edge16" class="edge">
<title>Node1&#45;&gt;Node17</title>
<path fill="none" stroke="midnightblue" d="M2170.6,-149.05C2298.4,-141.43 2539.5,-124.82 2743.5,-98 2752.35,-96.84 2761.71,-95.38 2770.79,-93.84"/>
<polygon fill="midnightblue" stroke="midnightblue" points="2771.65,-97.24 2780.9,-92.07 2770.44,-90.34 2771.65,-97.24"/>
</g>
<!-- Node18 -->
<g id="node18" class="node">
<title>Node18</title>
<g id="a_node18"><a xlink:title=" ">
<polygon fill="none" stroke="#bfbfbf" points="2914.5,-67.5 2914.5,-97.5 3022.5,-97.5 3022.5,-67.5 2914.5,-67.5"/>
<text text-anchor="start" x="2922.5" y="-85.5" font-family="Helvetica,sans-Serif" font-size="10.00">rclcpp/subscription</text>
<text text-anchor="middle" x="2968.5" y="-74.5" font-family="Helvetica,sans-Serif" font-size="10.00">_options.hpp</text>
</a>
</g>
</g>
<!-- Node1&#45;&gt;Node18 -->
<g id="edge17" class="edge">
<title>Node1&#45;&gt;Node18</title>
<path fill="none" stroke="midnightblue" d="M2170.73,-152.54C2321.13,-149.09 2632.57,-137.55 2904.25,-98.03"/>
<polygon fill="midnightblue" stroke="midnightblue" points="2904.92,-101.46 2914.31,-96.55 2903.9,-94.54 2904.92,-101.46"/>
</g>
<!-- Node19 -->
<g id="node19" class="node">
<title>Node19</title>
<g id="a_node19"><a xlink:title=" ">
<polygon fill="none" stroke="#bfbfbf" points="3040.5,-73 3040.5,-92 3132.5,-92 3132.5,-73 3040.5,-73"/>
<text text-anchor="middle" x="3086.5" y="-80" font-family="Helvetica,sans-Serif" font-size="10.00">sophus/se2.hpp</text>
</a>
</g>
</g>
<!-- Node1&#45;&gt;Node19 -->
<g id="edge18" class="edge">
<title>Node1&#45;&gt;Node19</title>
<path fill="none" stroke="midnightblue" d="M2170.63,-154.64C2340.27,-154.52 2718.13,-148.02 3031.5,-98 3037.05,-97.11 3042.84,-95.91 3048.5,-94.56"/>
<polygon fill="midnightblue" stroke="midnightblue" points="3049.63,-97.89 3058.47,-92.04 3047.91,-91.1 3049.63,-97.89"/>
</g>
<!-- Node20 -->
<g id="node20" class="node">
<title>Node20</title>
<g id="a_node20"><a xlink:title=" ">
<polygon fill="none" stroke="#bfbfbf" points="3151,-73 3151,-92 3192,-92 3192,-73 3151,-73"/>
<text text-anchor="middle" x="3171.5" y="-80" font-family="Helvetica,sans-Serif" font-size="10.00">tuple</text>
</a>
</g>
</g>
<!-- Node1&#45;&gt;Node20 -->
<g id="edge19" class="edge">
<title>Node1&#45;&gt;Node20</title>
<path fill="none" stroke="midnightblue" d="M2170.67,-153.81C2392.34,-152.6 2959.05,-144.88 3141.5,-98 3143.43,-97.5 3145.39,-96.88 3147.33,-96.17"/>
<polygon fill="midnightblue" stroke="midnightblue" points="3148.91,-99.29 3156.69,-92.1 3146.12,-92.88 3148.91,-99.29"/>
</g>
<!-- Node21 -->
<g id="node21" class="node">
<title>Node21</title>
<g id="a_node21"><a xlink:title=" ">
<polygon fill="none" stroke="#bfbfbf" points="3210,-73 3210,-92 3261,-92 3261,-73 3210,-73"/>
<text text-anchor="middle" x="3235.5" y="-80" font-family="Helvetica,sans-Serif" font-size="10.00">variant</text>
</a>
</g>
</g>
<!-- Node1&#45;&gt;Node21 -->
<g id="edge20" class="edge">
<title>Node1&#45;&gt;Node21</title>
<path fill="none" stroke="midnightblue" d="M2170.54,-153.58C2400.7,-151.85 3006.16,-143.02 3201.5,-98 3204.02,-97.42 3206.58,-96.66 3209.12,-95.8"/>
<polygon fill="midnightblue" stroke="midnightblue" points="3210.56,-99 3218.6,-92.1 3208.01,-92.48 3210.56,-99"/>
</g>
<!-- Node22 -->
<g id="node22" class="node">
<title>Node22</title>
<g id="a_node22"><a xlink:title=" ">
<polygon fill="none" stroke="#bfbfbf" points="3279.5,-73 3279.5,-92 3409.5,-92 3409.5,-73 3279.5,-73"/>
<text text-anchor="middle" x="3344.5" y="-80" font-family="Helvetica,sans-Serif" font-size="10.00">Eigen/src/Core/Matrix.h</text>
</a>
</g>
</g>
<!-- Node1&#45;&gt;Node22 -->
<g id="edge21" class="edge">
<title>Node1&#45;&gt;Node22</title>
<path fill="none" stroke="midnightblue" d="M2170.82,-154.25C2370.09,-153.82 2862.15,-147.35 3270.5,-98 3279,-96.97 3287.99,-95.52 3296.66,-93.94"/>
<polygon fill="midnightblue" stroke="midnightblue" points="3297.48,-97.34 3306.64,-92.02 3296.16,-90.47 3297.48,-97.34"/>
</g>
<!-- Node23 -->
<g id="node23" class="node">
<title>Node23</title>
<g id="a_node23"><a xlink:title=" ">
<polygon fill="none" stroke="#bfbfbf" points="3427.5,-73 3427.5,-92 3485.5,-92 3485.5,-73 3427.5,-73"/>
<text text-anchor="middle" x="3456.5" y="-80" font-family="Helvetica,sans-Serif" font-size="10.00">H5Cpp.h</text>
</a>
</g>
</g>
<!-- Node1&#45;&gt;Node23 -->
<g id="edge22" class="edge">
<title>Node1&#45;&gt;Node23</title>
<path fill="none" stroke="midnightblue" d="M2170.95,-154C2431.33,-153.39 3179.26,-147.29 3418.5,-98 3421.58,-97.37 3424.74,-96.51 3427.86,-95.54"/>
<polygon fill="midnightblue" stroke="midnightblue" points="3429.27,-98.75 3437.53,-92.11 3426.93,-92.15 3429.27,-98.75"/>
</g>
<!-- Node24 -->
<g id="node24" class="node">
<title>Node24</title>
<g id="a_node24"><a xlink:title=" ">
<polygon fill="none" stroke="#bfbfbf" points="3504,-67.5 3504,-97.5 3631,-97.5 3631,-67.5 3504,-67.5"/>
<text text-anchor="start" x="3512" y="-85.5" font-family="Helvetica,sans-Serif" font-size="10.00">beluga/algorithm/amcl</text>
<text text-anchor="middle" x="3567.5" y="-74.5" font-family="Helvetica,sans-Serif" font-size="10.00">_core.hpp</text>
</a>
</g>
</g>
<!-- Node1&#45;&gt;Node24 -->
<g id="edge23" class="edge">
<title>Node1&#45;&gt;Node24</title>
<path fill="none" stroke="midnightblue" d="M2170.91,-152.27C2437.31,-146.89 3217.29,-128.97 3493.87,-97.9"/>
<polygon fill="midnightblue" stroke="midnightblue" points="3494.36,-101.37 3503.89,-96.74 3493.56,-94.41 3494.36,-101.37"/>
</g>
<!-- Node25 -->
<g id="node25" class="node">
<title>Node25</title>
<g id="a_node25"><a xlink:title=" ">
<polygon fill="none" stroke="#bfbfbf" points="1083.5,-6 1083.5,-25 1189.5,-25 1189.5,-6 1083.5,-6"/>
<text text-anchor="middle" x="1136.5" y="-13" font-family="Helvetica,sans-Serif" font-size="10.00">bondcpp/bond.hpp</text>
</a>
</g>
</g>
<!-- Node1&#45;&gt;Node25 -->
<g id="edge24" class="edge">
<title>Node1&#45;&gt;Node25</title>
<path fill="none" stroke="midnightblue" d="M1990.29,-153.4C1775.24,-151.27 1245.29,-141.62 1178.5,-98 1156.56,-83.67 1145.47,-54.07 1140.35,-34.77"/>
<polygon fill="midnightblue" stroke="midnightblue" points="1143.75,-33.94 1138.04,-25.02 1136.94,-35.56 1143.75,-33.94"/>
</g>
<!-- Node26 -->
<g id="node26" class="node">
<title>Node26</title>
<g id="a_node26"><a xlink:title=" ">
<polygon fill="none" stroke="#bfbfbf" points="1207.5,-0.5 1207.5,-30.5 1353.5,-30.5 1353.5,-0.5 1207.5,-0.5"/>
<text text-anchor="start" x="1215.5" y="-18.5" font-family="Helvetica,sans-Serif" font-size="10.00">geometry_msgs/msg/pose</text>
<text text-anchor="middle" x="1280.5" y="-7.5" font-family="Helvetica,sans-Serif" font-size="10.00">_array.hpp</text>
</a>
</g>
</g>
<!-- Node1&#45;&gt;Node26 -->
<g id="edge25" class="edge">
<title>Node1&#45;&gt;Node26</title>
<path fill="none" stroke="midnightblue" d="M1990.12,-151.62C1768.98,-145.36 1216.62,-126.88 1189.5,-98 1167.67,-74.75 1202.88,-50.7 1235.65,-34.8"/>
<polygon fill="midnightblue" stroke="midnightblue" points="1237.2,-37.95 1244.78,-30.55 1234.24,-31.6 1237.2,-37.95"/>
</g>
<!-- Node27 -->
<g id="node27" class="node">
<title>Node27</title>
<g id="a_node27"><a xlink:title=" ">
<polygon fill="none" stroke="#bfbfbf" points="3649.5,-67.5 3649.5,-97.5 3819.5,-97.5 3819.5,-67.5 3649.5,-67.5"/>
<text text-anchor="start" x="3657.5" y="-85.5" font-family="Helvetica,sans-Serif" font-size="10.00">geometry_msgs/msg/pose</text>
<text text-anchor="middle" x="3734.5" y="-74.5" font-family="Helvetica,sans-Serif" font-size="10.00">_with_covariance_stamped.hpp</text>
</a>
</g>
</g>
<!-- Node1&#45;&gt;Node27 -->
<g id="edge26" class="edge">
<title>Node1&#45;&gt;Node27</title>
<path fill="none" stroke="midnightblue" d="M2170.86,-154.45C2409.35,-154.84 3075.5,-150.81 3638.88,-98.07"/>
<polygon fill="midnightblue" stroke="midnightblue" points="3639.62,-101.52 3649.25,-97.1 3638.96,-94.55 3639.62,-101.52"/>
</g>
<!-- Node28 -->
<g id="node28" class="node">
<title>Node28</title>
<g id="a_node28"><a xlink:title=" ">
<polygon fill="none" stroke="#bfbfbf" points="485,-0.5 485,-30.5 622,-30.5 622,-0.5 485,-0.5"/>
<text text-anchor="start" x="493" y="-18.5" font-family="Helvetica,sans-Serif" font-size="10.00">rclcpp_lifecycle/lifecycle</text>
<text text-anchor="middle" x="553.5" y="-7.5" font-family="Helvetica,sans-Serif" font-size="10.00">_node.hpp</text>
</a>
</g>
</g>
<!-- Node1&#45;&gt;Node28 -->
<g id="edge27" class="edge">
<title>Node1&#45;&gt;Node28</title>
<path fill="none" stroke="midnightblue" d="M1990.28,-152.16C1748.61,-146.86 1090.43,-129.86 875.5,-98 825.31,-90.56 691.97,-54.84 613.51,-33.23"/>
<polygon fill="midnightblue" stroke="midnightblue" points="614.33,-29.83 603.76,-30.54 612.47,-36.57 614.33,-29.83"/>
</g>
<!-- Node29 -->
<g id="node29" class="node">
<title>Node29</title>
<g id="a_node29"><a xlink:title=" ">
<polygon fill="none" stroke="#bfbfbf" points="0,-0.5 0,-30.5 131,-30.5 131,-0.5 0,-0.5"/>
<text text-anchor="start" x="8" y="-18.5" font-family="Helvetica,sans-Serif" font-size="10.00">sensor_msgs/msg/laser</text>
<text text-anchor="middle" x="65.5" y="-7.5" font-family="Helvetica,sans-Serif" font-size="10.00">_scan.hpp</text>
</a>
</g>
</g>
<!-- Node1&#45;&gt;Node29 -->
<g id="edge28" class="edge">
<title>Node1&#45;&gt;Node29</title>
<path fill="none" stroke="midnightblue" d="M1990.3,-154.19C1673.39,-154.4 622.55,-151.04 481.5,-98 461.1,-90.33 463.56,-75.51 443.5,-67 321.58,-15.27 276.61,-50.16 141.21,-30.98"/>
<polygon fill="midnightblue" stroke="midnightblue" points="141.71,-27.51 131.3,-29.5 140.68,-34.44 141.71,-27.51"/>
</g>
<!-- Node30 -->
<g id="node30" class="node">
<title>Node30</title>
<g id="a_node30"><a xlink:title=" ">
<polygon fill="none" stroke="#bfbfbf" points="3838,-73 3838,-92 3967,-92 3967,-73 3838,-73"/>
<text text-anchor="middle" x="3902.5" y="-80" font-family="Helvetica,sans-Serif" font-size="10.00">std_srvs/srv/empty.hpp</text>
</a>
</g>
</g>
<!-- Node1&#45;&gt;Node30 -->
<g id="edge29" class="edge">
<title>Node1&#45;&gt;Node30</title>
<path fill="none" stroke="midnightblue" d="M2170.52,-153.04C2480.48,-149.42 3502.38,-134.93 3828.5,-98 3837.1,-97.03 3846.2,-95.59 3854.96,-93.99"/>
<polygon fill="midnightblue" stroke="midnightblue" points="3855.87,-97.38 3865.04,-92.06 3854.56,-90.5 3855.87,-97.38"/>
</g>
<!-- Node31 -->
<g id="node31" class="node">
<title>Node31</title>
<g id="a_node31"><a target="_parent" xlink:href="../../../../../../beluga_ros/docs/_doxygen/generated/reference/html/laser__scan_8hpp.html.html" xlink:title=" ">
<polygon fill="none" stroke="black" points="3985.5,-73 3985.5,-92 4131.5,-92 4131.5,-73 3985.5,-73"/>
<text text-anchor="middle" x="4058.5" y="-80" font-family="Helvetica,sans-Serif" font-size="10.00">beluga_ros/laser_scan.hpp</text>
</a>
</g>
</g>
<!-- Node1&#45;&gt;Node31 -->
<g id="edge30" class="edge">
<title>Node1&#45;&gt;Node31</title>
<path fill="none" stroke="midnightblue" d="M2170.66,-153.08C2497.53,-149.46 3619.73,-134.62 3976.5,-98 3986.42,-96.98 3996.95,-95.46 4007.04,-93.78"/>
<polygon fill="midnightblue" stroke="midnightblue" points="4007.7,-97.22 4016.95,-92.06 4006.5,-90.32 4007.7,-97.22"/>
</g>
<!-- Node32 -->
<g id="node32" class="node">
<title>Node32</title>
<g id="a_node32"><a xlink:href="message__filters_8hpp.html" target="_top" xlink:title="Compatibility layer for message_filters.">
<polygon fill="none" stroke="black" points="490.5,-67.5 490.5,-97.5 616.5,-97.5 616.5,-67.5 490.5,-67.5"/>
<text text-anchor="start" x="498.5" y="-85.5" font-family="Helvetica,sans-Serif" font-size="10.00">beluga_amcl/message</text>
<text text-anchor="middle" x="553.5" y="-74.5" font-family="Helvetica,sans-Serif" font-size="10.00">_filters.hpp</text>
</a>
</g>
</g>
<!-- Node1&#45;&gt;Node32 -->
<g id="edge31" class="edge">
<title>Node1&#45;&gt;Node32</title>
<path fill="none" stroke="midnightblue" d="M1990.18,-152.07C1769.99,-146.98 1188.06,-131.25 703.5,-98 678.49,-96.28 651.19,-93.82 626.82,-91.41"/>
<polygon fill="midnightblue" stroke="midnightblue" points="626.87,-87.9 616.57,-90.38 626.17,-94.86 626.87,-87.9"/>
</g>
<!-- Node33 -->
<g id="node33" class="node">
<title>Node33</title>
<g id="a_node33"><a xlink:title=" ">
<polygon fill="none" stroke="#bfbfbf" points="300,-6 300,-25 467,-25 467,-6 300,-6"/>
<text text-anchor="middle" x="383.5" y="-13" font-family="Helvetica,sans-Serif" font-size="10.00">message_filters/subscriber.hpp</text>
</a>
</g>
</g>
<!-- Node1&#45;&gt;Node33 -->
<g id="edge56" class="edge">
<title>Node1&#45;&gt;Node33</title>
<path fill="none" stroke="midnightblue" d="M1990.34,-152.75C1730.76,-148.75 984.86,-134.33 743.5,-98 689.88,-89.93 678.28,-79.43 625.5,-67 561.34,-51.89 487.07,-36.73 437.91,-27.03"/>
<polygon fill="midnightblue" stroke="midnightblue" points="438.3,-23.54 427.81,-25.04 436.95,-30.4 438.3,-23.54"/>
</g>
<!-- Node35 -->
<g id="node35" class="node">
<title>Node35</title>
<g id="a_node35"><a xlink:href="ros2__common_8hpp_source.html" target="_top" xlink:title=" ">
<polygon fill="none" stroke="black" points="1198.5,-73 1198.5,-92 1370.5,-92 1370.5,-73 1198.5,-73"/>
<text text-anchor="middle" x="1284.5" y="-80" font-family="Helvetica,sans-Serif" font-size="10.00">beluga_amcl/ros2_common.hpp</text>
</a>
</g>
</g>
<!-- Node1&#45;&gt;Node35 -->
<g id="edge36" class="edge">
<title>Node1&#45;&gt;Node35</title>
<path fill="none" stroke="midnightblue" d="M1990.25,-148.81C1856.72,-140.67 1598.81,-123.19 1380.5,-98 1369.6,-96.74 1358.04,-95.19 1346.86,-93.57"/>
<polygon fill="midnightblue" stroke="midnightblue" points="1347.13,-90.07 1336.73,-92.07 1346.11,-96.99 1347.13,-90.07"/>
</g>
<!-- Node32&#45;&gt;Node28 -->
<g id="edge33" class="edge">
<title>Node32&#45;&gt;Node28</title>
<path fill="none" stroke="midnightblue" d="M553.5,-67.4C553.5,-59.64 553.5,-49.81 553.5,-40.86"/>
<polygon fill="midnightblue" stroke="midnightblue" points="557,-40.58 553.5,-30.58 550,-40.58 557,-40.58"/>
</g>
<!-- Node32&#45;&gt;Node29 -->
<g id="edge34" class="edge">
<title>Node32&#45;&gt;Node29</title>
<path fill="none" stroke="midnightblue" d="M490.12,-69.15C485.52,-68.38 480.94,-67.65 476.5,-67 331.11,-45.56 290.75,-52.94 141.3,-31.03"/>
<polygon fill="midnightblue" stroke="midnightblue" points="141.7,-27.55 131.3,-29.55 140.67,-34.48 141.7,-27.55"/>
</g>
<!-- Node32&#45;&gt;Node33 -->
<g id="edge32" class="edge">
<title>Node32&#45;&gt;Node33</title>
<path fill="none" stroke="midnightblue" d="M516.61,-67.4C486.39,-55.84 444.06,-39.66 415.31,-28.66"/>
<polygon fill="midnightblue" stroke="midnightblue" points="416.34,-25.31 405.75,-25.01 413.84,-31.85 416.34,-25.31"/>
</g>
<!-- Node34 -->
<g id="node34" class="node">
<title>Node34</title>
<g id="a_node34"><a xlink:title=" ">
<polygon fill="none" stroke="#bfbfbf" points="149.5,-0.5 149.5,-30.5 281.5,-30.5 281.5,-0.5 149.5,-0.5"/>
<text text-anchor="start" x="157.5" y="-18.5" font-family="Helvetica,sans-Serif" font-size="10.00">sensor_msgs/msg/point</text>
<text text-anchor="middle" x="215.5" y="-7.5" font-family="Helvetica,sans-Serif" font-size="10.00">_cloud2.hpp</text>
</a>
</g>
</g>
<!-- Node32&#45;&gt;Node34 -->
<g id="edge35" class="edge">
<title>Node32&#45;&gt;Node34</title>
<path fill="none" stroke="midnightblue" d="M490.32,-69.35C434.06,-58.53 351.61,-42.67 291.7,-31.15"/>
<polygon fill="midnightblue" stroke="midnightblue" points="292.02,-27.65 281.54,-29.2 290.7,-34.53 292.02,-27.65"/>
</g>
<!-- Node35&#45;&gt;Node4 -->
<g id="edge51" class="edge">
<title>Node35&#45;&gt;Node4</title>
<path fill="none" stroke="midnightblue" d="M1198.37,-73.15C1105.49,-63.9 953.32,-48.02 822.5,-31 812.11,-29.65 801.11,-28.1 790.41,-26.53"/>
<polygon fill="midnightblue" stroke="midnightblue" points="790.67,-23.03 780.27,-25.02 789.64,-29.95 790.67,-23.03"/>
</g>
<!-- Node35&#45;&gt;Node5 -->
<g id="edge52" class="edge">
<title>Node35&#45;&gt;Node5</title>
<path fill="none" stroke="midnightblue" d="M1234.83,-72.94C1165.79,-61.03 1041.02,-39.52 967.07,-26.77"/>
<polygon fill="midnightblue" stroke="midnightblue" points="967.43,-23.28 956.98,-25.03 966.24,-30.18 967.43,-23.28"/>
</g>
<!-- Node35&#45;&gt;Node14 -->
<g id="edge37" class="edge">
<title>Node35&#45;&gt;Node14</title>
<path fill="none" stroke="midnightblue" d="M1243.52,-72.97C1200.95,-63.8 1132.57,-48.2 1074.5,-31 1071.72,-30.18 1068.85,-29.27 1065.98,-28.33"/>
<polygon fill="midnightblue" stroke="midnightblue" points="1066.94,-24.96 1056.35,-25.05 1064.69,-31.59 1066.94,-24.96"/>
</g>
<!-- Node35&#45;&gt;Node25 -->
<g id="edge43" class="edge">
<title>Node35&#45;&gt;Node25</title>
<path fill="none" stroke="midnightblue" d="M1264.85,-72.87C1239.41,-61.7 1194.9,-42.15 1165.55,-29.26"/>
<polygon fill="midnightblue" stroke="midnightblue" points="1166.8,-25.98 1156.23,-25.17 1163.98,-32.39 1166.8,-25.98"/>
</g>
<!-- Node35&#45;&gt;Node26 -->
<g id="edge44" class="edge">
<title>Node35&#45;&gt;Node26</title>
<path fill="none" stroke="midnightblue" d="M1283.96,-72.73C1283.46,-64.54 1282.68,-51.92 1281.99,-40.71"/>
<polygon fill="midnightblue" stroke="midnightblue" points="1285.47,-40.36 1281.37,-30.59 1278.49,-40.79 1285.47,-40.36"/>
</g>
<!-- Node35&#45;&gt;Node28 -->
<g id="edge39" class="edge">
<title>Node35&#45;&gt;Node28</title>
<path fill="none" stroke="midnightblue" d="M1198.37,-77.77C1075.11,-71.78 841.18,-57.98 632.27,-31"/>
<polygon fill="midnightblue" stroke="midnightblue" points="632.71,-27.53 622.34,-29.71 631.8,-34.47 632.71,-27.53"/>
</g>
<!-- Node36 -->
<g id="node36" class="node">
<title>Node36</title>
<g id="a_node36"><a xlink:title=" ">
<polygon fill="none" stroke="#bfbfbf" points="2889,-6 2889,-25 3024,-25 3024,-6 2889,-6"/>
<text text-anchor="middle" x="2956.5" y="-13" font-family="Helvetica,sans-Serif" font-size="10.00">rclcpp/node_options.hpp</text>
</a>
</g>
</g>
<!-- Node35&#45;&gt;Node36 -->
<g id="edge38" class="edge">
<title>Node35&#45;&gt;Node36</title>
<path fill="none" stroke="midnightblue" d="M1333.2,-72.93C1348.31,-70.6 1365.05,-68.35 1380.5,-67 2044.84,-9.09 2217.4,-101.73 2880.5,-31 2889.62,-30.03 2899.29,-28.54 2908.55,-26.89"/>
<polygon fill="midnightblue" stroke="midnightblue" points="2909.23,-30.32 2918.41,-25.04 2907.94,-23.44 2909.23,-30.32"/>
</g>
<!-- Node37 -->
<g id="node37" class="node">
<title>Node37</title>
<g id="a_node37"><a xlink:title=" ">
<polygon fill="none" stroke="#bfbfbf" points="1372,-6 1372,-25 1513,-25 1513,-6 1372,-6"/>
<text text-anchor="middle" x="1442.5" y="-13" font-family="Helvetica,sans-Serif" font-size="10.00">rclcpp_lifecycle/state.hpp</text>
</a>
</g>
</g>
<!-- Node35&#45;&gt;Node37 -->
<g id="edge40" class="edge">
<title>Node35&#45;&gt;Node37</title>
<path fill="none" stroke="midnightblue" d="M1305.48,-72.87C1332.75,-61.65 1380.57,-41.98 1411.89,-29.09"/>
<polygon fill="midnightblue" stroke="midnightblue" points="1413.52,-32.21 1421.43,-25.17 1410.85,-25.74 1413.52,-32.21"/>
</g>
<!-- Node38 -->
<g id="node38" class="node">
<title>Node38</title>
<g id="a_node38"><a xlink:title=" ">
<polygon fill="none" stroke="#bfbfbf" points="1531.5,-6 1531.5,-25 1575.5,-25 1575.5,-6 1531.5,-6"/>
<text text-anchor="middle" x="1553.5" y="-13" font-family="Helvetica,sans-Serif" font-size="10.00">string</text>
</a>
</g>
</g>
<!-- Node35&#45;&gt;Node38 -->
<g id="edge41" class="edge">
<title>Node35&#45;&gt;Node38</title>
<path fill="none" stroke="midnightblue" d="M1342.71,-72.97C1391.51,-64.91 1462.62,-51.06 1522.5,-31 1524.17,-30.44 1525.86,-29.82 1527.55,-29.15"/>
<polygon fill="midnightblue" stroke="midnightblue" points="1529.27,-32.23 1537.05,-25.04 1526.49,-25.8 1529.27,-32.23"/>
</g>
<!-- Node39 -->
<g id="node39" class="node">
<title>Node39</title>
<g id="a_node39"><a xlink:title=" ">
<polygon fill="none" stroke="#bfbfbf" points="1594,-6 1594,-25 1667,-25 1667,-6 1594,-6"/>
<text text-anchor="middle" x="1630.5" y="-13" font-family="Helvetica,sans-Serif" font-size="10.00">string_view</text>
</a>
</g>
</g>
<!-- Node35&#45;&gt;Node39 -->
<g id="edge42" class="edge">
<title>Node35&#45;&gt;Node39</title>
<path fill="none" stroke="midnightblue" d="M1340.84,-72.97C1414.46,-61.66 1539.31,-41.87 1584.5,-31 1588.13,-30.13 1591.9,-29.12 1595.64,-28.04"/>
<polygon fill="midnightblue" stroke="midnightblue" points="1596.8,-31.35 1605.37,-25.11 1594.78,-24.65 1596.8,-31.35"/>
</g>
<!-- Node40 -->
<g id="node40" class="node">
<title>Node40</title>
<g id="a_node40"><a xlink:title=" ">
<polygon fill="none" stroke="#bfbfbf" points="1685.5,-0.5 1685.5,-30.5 1831.5,-30.5 1831.5,-0.5 1685.5,-0.5"/>
<text text-anchor="start" x="1693.5" y="-18.5" font-family="Helvetica,sans-Serif" font-size="10.00">geometry_msgs/msg/pose</text>
<text text-anchor="middle" x="1758.5" y="-7.5" font-family="Helvetica,sans-Serif" font-size="10.00">_stamped.hpp</text>
</a>
</g>
</g>
<!-- Node35&#45;&gt;Node40 -->
<g id="edge45" class="edge">
<title>Node35&#45;&gt;Node40</title>
<path fill="none" stroke="midnightblue" d="M1339.04,-72.98C1352.57,-70.95 1367.06,-68.83 1380.5,-67 1508.6,-49.54 1543.72,-50.49 1675.16,-31.15"/>
<polygon fill="midnightblue" stroke="midnightblue" points="1675.84,-34.59 1685.21,-29.66 1674.81,-27.67 1675.84,-34.59"/>
</g>
<!-- Node41 -->
<g id="node41" class="node">
<title>Node41</title>
<g id="a_node41"><a xlink:title=" ">
<polygon fill="none" stroke="#bfbfbf" points="1850,-0.5 1850,-30.5 1995,-30.5 1995,-0.5 1850,-0.5"/>
<text text-anchor="start" x="1858" y="-18.5" font-family="Helvetica,sans-Serif" font-size="10.00">nav_msgs/msg/occupancy</text>
<text text-anchor="middle" x="1922.5" y="-7.5" font-family="Helvetica,sans-Serif" font-size="10.00">_grid.hpp</text>
</a>
</g>
</g>
<!-- Node35&#45;&gt;Node41 -->
<g id="edge46" class="edge">
<title>Node35&#45;&gt;Node41</title>
<path fill="none" stroke="midnightblue" d="M1336.22,-72.99C1350.54,-70.83 1366.1,-68.65 1380.5,-67 1580.96,-44.05 1635.33,-56.47 1839.52,-31.03"/>
<polygon fill="midnightblue" stroke="midnightblue" points="1840.19,-34.48 1849.68,-29.75 1839.32,-27.53 1840.19,-34.48"/>
</g>
<!-- Node42 -->
<g id="node42" class="node">
<title>Node42</title>
<g id="a_node42"><a xlink:title=" ">
<polygon fill="none" stroke="#bfbfbf" points="2013.5,-0.5 2013.5,-30.5 2141.5,-30.5 2141.5,-0.5 2013.5,-0.5"/>
<text text-anchor="start" x="2021.5" y="-18.5" font-family="Helvetica,sans-Serif" font-size="10.00">visualization_msgs</text>
<text text-anchor="middle" x="2077.5" y="-7.5" font-family="Helvetica,sans-Serif" font-size="10.00">/msg/marker_array.hpp</text>
</a>
</g>
</g>
<!-- Node35&#45;&gt;Node42 -->
<g id="edge47" class="edge">
<title>Node35&#45;&gt;Node42</title>
<path fill="none" stroke="midnightblue" d="M1335.21,-72.95C1349.79,-70.73 1365.75,-68.54 1380.5,-67 1653.43,-38.58 1727.15,-65.47 2003.16,-31.04"/>
<polygon fill="midnightblue" stroke="midnightblue" points="2004.01,-34.46 2013.49,-29.74 2003.13,-27.52 2004.01,-34.46"/>
</g>
<!-- Node43 -->
<g id="node43" class="node">
<title>Node43</title>
<g id="a_node43"><a xlink:title=" ">
<polygon fill="none" stroke="#bfbfbf" points="2160,-6 2160,-25 2259,-25 2259,-6 2160,-6"/>
<text text-anchor="middle" x="2209.5" y="-13" font-family="Helvetica,sans-Serif" font-size="10.00">rclcpp/rclcpp.hpp</text>
</a>
</g>
</g>
<!-- Node35&#45;&gt;Node43 -->
<g id="edge48" class="edge">
<title>Node35&#45;&gt;Node43</title>
<path fill="none" stroke="midnightblue" d="M1334.2,-72.99C1349.06,-70.72 1365.4,-68.49 1380.5,-67 1721.44,-33.37 1811.44,-80.11 2150.5,-31 2156.8,-30.09 2163.41,-28.8 2169.84,-27.36"/>
<polygon fill="midnightblue" stroke="midnightblue" points="2170.79,-30.73 2179.71,-25.02 2169.17,-23.92 2170.79,-30.73"/>
</g>
<!-- Node44 -->
<g id="node44" class="node">
<title>Node44</title>
<g id="a_node44"><a xlink:title=" ">
<polygon fill="none" stroke="#bfbfbf" points="2277.5,-6 2277.5,-25 2369.5,-25 2369.5,-6 2277.5,-6"/>
<text text-anchor="middle" x="2323.5" y="-13" font-family="Helvetica,sans-Serif" font-size="10.00">rclcpp/time.hpp</text>
</a>
</g>
</g>
<!-- Node35&#45;&gt;Node44 -->
<g id="edge49" class="edge">
<title>Node35&#45;&gt;Node44</title>
<path fill="none" stroke="midnightblue" d="M1334.2,-72.94C1349.05,-70.66 1365.4,-68.44 1380.5,-67 1773.7,-29.45 1877.89,-89.69 2268.5,-31 2274.12,-30.16 2279.98,-28.96 2285.71,-27.61"/>
<polygon fill="midnightblue" stroke="midnightblue" points="2286.93,-30.91 2295.77,-25.07 2285.21,-24.13 2286.93,-30.91"/>
</g>
<!-- Node45 -->
<g id="node45" class="node">
<title>Node45</title>
<g id="a_node45"><a xlink:title=" ">
<polygon fill="none" stroke="#bfbfbf" points="2387.5,-0.5 2387.5,-30.5 2503.5,-30.5 2503.5,-0.5 2387.5,-0.5"/>
<text text-anchor="start" x="2395.5" y="-18.5" font-family="Helvetica,sans-Serif" font-size="10.00">tf2_ros/create_timer</text>
<text text-anchor="middle" x="2445.5" y="-7.5" font-family="Helvetica,sans-Serif" font-size="10.00">_ros.h</text>
</a>
</g>
</g>
<!-- Node35&#45;&gt;Node45 -->
<g id="edge50" class="edge">
<title>Node35&#45;&gt;Node45</title>
<path fill="none" stroke="midnightblue" d="M1333.7,-72.97C1348.68,-70.67 1365.23,-68.42 1380.5,-67 1819.08,-26.1 1936.33,-85.25 2377,-31.03"/>
<polygon fill="midnightblue" stroke="midnightblue" points="2377.65,-34.47 2387.14,-29.77 2376.78,-27.53 2377.65,-34.47"/>
</g>
<!-- Node46 -->
<g id="node46" class="node">
<title>Node46</title>
<g id="a_node46"><a xlink:title=" ">
<polygon fill="none" stroke="#bfbfbf" points="2522,-6 2522,-25 2613,-25 2613,-6 2522,-6"/>
<text text-anchor="middle" x="2567.5" y="-13" font-family="Helvetica,sans-Serif" font-size="10.00">tf2/convert.hpp</text>
</a>
</g>
</g>
<!-- Node35&#45;&gt;Node46 -->
<g id="edge53" class="edge">
<title>Node35&#45;&gt;Node46</title>
<path fill="none" stroke="midnightblue" d="M1333.7,-72.93C1348.68,-70.63 1365.22,-68.39 1380.5,-67 1881.79,-21.33 2014.4,-103.62 2512.5,-31 2518.32,-30.15 2524.41,-28.91 2530.33,-27.51"/>
<polygon fill="midnightblue" stroke="midnightblue" points="2531.23,-30.89 2540.05,-25.04 2529.5,-24.11 2531.23,-30.89"/>
</g>
<!-- Node47 -->
<g id="node47" class="node">
<title>Node47</title>
<g id="a_node47"><a xlink:title=" ">
<polygon fill="none" stroke="#bfbfbf" points="2631,-6 2631,-25 2706,-25 2706,-6 2631,-6"/>
<text text-anchor="middle" x="2668.5" y="-13" font-family="Helvetica,sans-Serif" font-size="10.00">tf2/utils.hpp</text>
</a>
</g>
</g>
<!-- Node35&#45;&gt;Node47 -->
<g id="edge54" class="edge">
<title>Node35&#45;&gt;Node47</title>
<path fill="none" stroke="midnightblue" d="M1333.2,-72.98C1348.31,-70.65 1365.05,-68.39 1380.5,-67 1655.51,-42.34 2350.23,-76.94 2622.5,-31 2626.77,-30.28 2631.2,-29.26 2635.54,-28.09"/>
<polygon fill="midnightblue" stroke="midnightblue" points="2636.82,-31.36 2645.41,-25.15 2634.82,-24.65 2636.82,-31.36"/>
</g>
<!-- Node48 -->
<g id="node48" class="node">
<title>Node48</title>
<g id="a_node48"><a target="_parent" xlink:href="../../../../../../beluga_ros/docs/_doxygen/generated/reference/html/tf2__sophus_8hpp.html.html" xlink:title=" ">
<polygon fill="none" stroke="black" points="2724,-6 2724,-25 2871,-25 2871,-6 2724,-6"/>
<text text-anchor="middle" x="2797.5" y="-13" font-family="Helvetica,sans-Serif" font-size="10.00">beluga_ros/tf2_sophus.hpp</text>
</a>
</g>
</g>
<!-- Node35&#45;&gt;Node48 -->
<g id="edge55" class="edge">
<title>Node35&#45;&gt;Node48</title>
<path fill="none" stroke="midnightblue" d="M1333.2,-72.96C1348.31,-70.63 1365.05,-68.37 1380.5,-67 1971.73,-14.58 2124.98,-90.84 2715.5,-31 2725.53,-29.98 2736.19,-28.44 2746.38,-26.74"/>
<polygon fill="midnightblue" stroke="midnightblue" points="2747.12,-30.17 2756.37,-25 2745.92,-23.27 2747.12,-30.17"/>
</g>
</g>
</svg>
