<?xml version="1.0" encoding="UTF-8" standalone="no"?>
<!DOCTYPE svg PUBLIC "-//W3C//DTD SVG 1.1//EN"
 "http://www.w3.org/Graphics/SVG/1.1/DTD/svg11.dtd">
<!-- Generated by graphviz version 2.43.0 (0)
 -->
<!-- Title: /home/runner/work/beluga/beluga/beluga_amcl/include/beluga_amcl/ndt_amcl_node.hpp Pages: 1 -->
<svg width="4205pt" height="184pt"
 viewBox="0.00 0.00 4204.50 184.00" xmlns="http://www.w3.org/2000/svg" xmlns:xlink="http://www.w3.org/1999/xlink">
<g id="graph0" class="graph" transform="scale(1 1) rotate(0) translate(4 180)">
<title>/home/runner/work/beluga/beluga/beluga_amcl/include/beluga_amcl/ndt_amcl_node.hpp</title>
<!-- Node1 -->
<g id="node1" class="node">
<title>Node1</title>
<g id="a_node1"><a xlink:title="ROS 2 integration of the 2D NDT&#45;AMCL algorithm.">
<polygon fill="#bfbfbf" stroke="black" points="2026.5,-134.5 2026.5,-175.5 2206.5,-175.5 2206.5,-134.5 2026.5,-134.5"/>
<text text-anchor="start" x="2034.5" y="-163.5" font-family="Helvetica,sans-Serif" font-size="10.00">/home/runner/work/beluga</text>
<text text-anchor="start" x="2034.5" y="-152.5" font-family="Helvetica,sans-Serif" font-size="10.00">/beluga/beluga_amcl/include</text>
<text text-anchor="middle" x="2116.5" y="-141.5" font-family="Helvetica,sans-Serif" font-size="10.00">/beluga_amcl/ndt_amcl_node.hpp</text>
</a>
</g>
</g>
<!-- Node2 -->
<g id="node2" class="node">
<title>Node2</title>
<g id="a_node2"><a xlink:title=" ">
<polygon fill="none" stroke="#bfbfbf" points="192.5,-73 192.5,-92 282.5,-92 282.5,-73 192.5,-73"/>
<text text-anchor="middle" x="237.5" y="-80" font-family="Helvetica,sans-Serif" font-size="10.00">tf2_ros/buffer.h</text>
</a>
</g>
</g>
<!-- Node1&#45;&gt;Node2 -->
<g id="edge1" class="edge">
<title>Node1&#45;&gt;Node2</title>
<path fill="none" stroke="midnightblue" d="M2026.3,-153.99C1707.09,-153.54 631.85,-148.22 291.5,-98 285.92,-97.18 280.09,-95.98 274.41,-94.62"/>
<polygon fill="midnightblue" stroke="midnightblue" points="274.99,-91.16 264.44,-92.05 273.24,-97.93 274.99,-91.16"/>
</g>
<!-- Node3 -->
<g id="node3" class="node">
<title>Node3</title>
<g id="a_node3"><a xlink:title=" ">
<polygon fill="none" stroke="#bfbfbf" points="300.5,-73 300.5,-92 434.5,-92 434.5,-73 300.5,-73"/>
<text text-anchor="middle" x="367.5" y="-80" font-family="Helvetica,sans-Serif" font-size="10.00">tf2_ros/message_filter.h</text>
</a>
</g>
</g>
<!-- Node1&#45;&gt;Node3 -->
<g id="edge2" class="edge">
<title>Node1&#45;&gt;Node3</title>
<path fill="none" stroke="midnightblue" d="M2026.47,-152.68C1725.91,-148.02 758.52,-130.78 448.5,-98 438.8,-96.97 428.51,-95.46 418.64,-93.8"/>
<polygon fill="midnightblue" stroke="midnightblue" points="419,-90.31 408.54,-92.03 417.79,-97.2 419,-90.31"/>
</g>
<!-- Node4 -->
<g id="node4" class="node">
<title>Node4</title>
<g id="a_node4"><a xlink:title=" ">
<polygon fill="none" stroke="#bfbfbf" points="640,-6 640,-25 813,-25 813,-6 640,-6"/>
<text text-anchor="middle" x="726.5" y="-13" font-family="Helvetica,sans-Serif" font-size="10.00">tf2_ros/transform_broadcaster.h</text>
</a>
</g>
</g>
<!-- Node1&#45;&gt;Node4 -->
<g id="edge3" class="edge">
<title>Node1&#45;&gt;Node4</title>
<path fill="none" stroke="midnightblue" d="M2026.34,-152.68C1793.54,-148.77 1176.5,-135.13 975.5,-98 893.62,-82.87 801.51,-47.7 755.68,-28.89"/>
<polygon fill="midnightblue" stroke="midnightblue" points="756.93,-25.63 746.36,-25.03 754.25,-32.09 756.93,-25.63"/>
</g>
<!-- Node5 -->
<g id="node5" class="node">
<title>Node5</title>
<g id="a_node5"><a xlink:title=" ">
<polygon fill="none" stroke="#bfbfbf" points="831.5,-6 831.5,-25 983.5,-25 983.5,-6 831.5,-6"/>
<text text-anchor="middle" x="907.5" y="-13" font-family="Helvetica,sans-Serif" font-size="10.00">tf2_ros/transform_listener.h</text>
</a>
</g>
</g>
<!-- Node1&#45;&gt;Node5 -->
<g id="edge4" class="edge">
<title>Node1&#45;&gt;Node5</title>
<path fill="none" stroke="midnightblue" d="M2026.32,-154.67C1803.25,-155.45 1230.52,-151.97 1048.5,-98 1000.97,-83.91 952.41,-50.89 926.52,-31.48"/>
<polygon fill="midnightblue" stroke="midnightblue" points="928.42,-28.53 918.35,-25.24 924.17,-34.09 928.42,-28.53"/>
</g>
<!-- Node6 -->
<g id="node6" class="node">
<title>Node6</title>
<g id="a_node6"><a target="_parent" xlink:href="../../../../../../beluga/docs/_doxygen/generated/reference/html/beluga_8hpp.html.html" xlink:title=" ">
<polygon fill="none" stroke="black" points="1290,-73 1290,-92 1397,-92 1397,-73 1290,-73"/>
<text text-anchor="middle" x="1343.5" y="-80" font-family="Helvetica,sans-Serif" font-size="10.00">beluga/beluga.hpp</text>
</a>
</g>
</g>
<!-- Node1&#45;&gt;Node6 -->
<g id="edge5" class="edge">
<title>Node1&#45;&gt;Node6</title>
<path fill="none" stroke="midnightblue" d="M2026.35,-151.15C1891.04,-145.91 1627.7,-131.99 1406.5,-98 1400.02,-97 1393.22,-95.71 1386.58,-94.3"/>
<polygon fill="midnightblue" stroke="midnightblue" points="1386.87,-90.78 1376.35,-92.02 1385.35,-97.61 1386.87,-90.78"/>
</g>
<!-- Node7 -->
<g id="node7" class="node">
<title>Node7</title>
<g id="a_node7"><a target="_parent" xlink:href="../../../../../../beluga/docs/_doxygen/generated/reference/html/differential__drive__model_8hpp.html.html" xlink:title=" ">
<polygon fill="none" stroke="black" points="1415,-67.5 1415,-97.5 1558,-97.5 1558,-67.5 1415,-67.5"/>
<text text-anchor="start" x="1423" y="-85.5" font-family="Helvetica,sans-Serif" font-size="10.00">beluga/motion/differential</text>
<text text-anchor="middle" x="1486.5" y="-74.5" font-family="Helvetica,sans-Serif" font-size="10.00">_drive_model.hpp</text>
</a>
</g>
</g>
<!-- Node1&#45;&gt;Node7 -->
<g id="edge6" class="edge">
<title>Node1&#45;&gt;Node7</title>
<path fill="none" stroke="midnightblue" d="M2026.38,-146.91C1919.54,-138.03 1735.9,-121.27 1568.02,-98"/>
<polygon fill="midnightblue" stroke="midnightblue" points="1568.39,-94.52 1558.01,-96.6 1567.43,-101.45 1568.39,-94.52"/>
</g>
<!-- Node8 -->
<g id="node8" class="node">
<title>Node8</title>
<g id="a_node8"><a target="_parent" xlink:href="../../../../../../beluga/docs/_doxygen/generated/reference/html/omnidirectional__drive__model_8hpp.html.html" xlink:title=" ">
<polygon fill="none" stroke="black" points="1576,-67.5 1576,-97.5 1743,-97.5 1743,-67.5 1576,-67.5"/>
<text text-anchor="start" x="1584" y="-85.5" font-family="Helvetica,sans-Serif" font-size="10.00">beluga/motion/omnidirectional</text>
<text text-anchor="middle" x="1659.5" y="-74.5" font-family="Helvetica,sans-Serif" font-size="10.00">_drive_model.hpp</text>
</a>
</g>
</g>
<!-- Node1&#45;&gt;Node8 -->
<g id="edge7" class="edge">
<title>Node1&#45;&gt;Node8</title>
<path fill="none" stroke="midnightblue" d="M2026.37,-140.18C1955.07,-129.25 1852.71,-113.51 1753.09,-98.09"/>
<polygon fill="midnightblue" stroke="midnightblue" points="1753.57,-94.62 1743.15,-96.55 1752.5,-101.54 1753.57,-94.62"/>
</g>
<!-- Node9 -->
<g id="node9" class="node">
<title>Node9</title>
<g id="a_node9"><a target="_parent" xlink:href="../../../../../../beluga/docs/_doxygen/generated/reference/html/stationary__model_8hpp.html.html" xlink:title=" ">
<polygon fill="none" stroke="black" points="1761.5,-67.5 1761.5,-97.5 1901.5,-97.5 1901.5,-67.5 1761.5,-67.5"/>
<text text-anchor="start" x="1769.5" y="-85.5" font-family="Helvetica,sans-Serif" font-size="10.00">beluga/motion/stationary</text>
<text text-anchor="middle" x="1831.5" y="-74.5" font-family="Helvetica,sans-Serif" font-size="10.00">_model.hpp</text>
</a>
</g>
</g>
<!-- Node1&#45;&gt;Node9 -->
<g id="edge8" class="edge">
<title>Node1&#45;&gt;Node9</title>
<path fill="none" stroke="midnightblue" d="M2037.49,-134.46C1993.72,-123.63 1939.9,-110.32 1898.26,-100.01"/>
<polygon fill="midnightblue" stroke="midnightblue" points="1899.03,-96.6 1888.49,-97.6 1897.35,-103.4 1899.03,-96.6"/>
</g>
<!-- Node10 -->
<g id="node10" class="node">
<title>Node10</title>
<g id="a_node10"><a target="_parent" xlink:href="../../../../../../beluga/docs/_doxygen/generated/reference/html/primitives_8hpp.html.html" xlink:title=" ">
<polygon fill="none" stroke="black" points="1920,-73 1920,-92 2043,-92 2043,-73 1920,-73"/>
<text text-anchor="middle" x="1981.5" y="-80" font-family="Helvetica,sans-Serif" font-size="10.00">beluga/primitives.hpp</text>
</a>
</g>
</g>
<!-- Node1&#45;&gt;Node10 -->
<g id="edge9" class="edge">
<title>Node1&#45;&gt;Node10</title>
<path fill="none" stroke="midnightblue" d="M2078.89,-134.36C2056,-122.4 2027.34,-107.44 2007.06,-96.85"/>
<polygon fill="midnightblue" stroke="midnightblue" points="2008.59,-93.7 1998.11,-92.17 2005.35,-99.9 2008.59,-93.7"/>
</g>
<!-- Node11 -->
<g id="node11" class="node">
<title>Node11</title>
<g id="a_node11"><a xlink:title=" ">
<polygon fill="none" stroke="#bfbfbf" points="2061.5,-67.5 2061.5,-97.5 2171.5,-97.5 2171.5,-67.5 2061.5,-67.5"/>
<text text-anchor="start" x="2069.5" y="-85.5" font-family="Helvetica,sans-Serif" font-size="10.00">beluga/sensor/data</text>
<text text-anchor="middle" x="2116.5" y="-74.5" font-family="Helvetica,sans-Serif" font-size="10.00">/ndt_cell.hpp</text>
</a>
</g>
</g>
<!-- Node1&#45;&gt;Node11 -->
<g id="edge10" class="edge">
<title>Node1&#45;&gt;Node11</title>
<path fill="none" stroke="midnightblue" d="M2116.5,-134.36C2116.5,-126.23 2116.5,-116.7 2116.5,-108.11"/>
<polygon fill="midnightblue" stroke="midnightblue" points="2120,-107.89 2116.5,-97.89 2113,-107.89 2120,-107.89"/>
</g>
<!-- Node12 -->
<g id="node12" class="node">
<title>Node12</title>
<g id="a_node12"><a target="_parent" xlink:href="../../../../../../beluga/docs/_doxygen/generated/reference/html/sparse__value__grid_8hpp.html.html" xlink:title=" ">
<polygon fill="none" stroke="black" points="2190,-67.5 2190,-97.5 2319,-97.5 2319,-67.5 2190,-67.5"/>
<text text-anchor="start" x="2198" y="-85.5" font-family="Helvetica,sans-Serif" font-size="10.00">beluga/sensor/data</text>
<text text-anchor="middle" x="2254.5" y="-74.5" font-family="Helvetica,sans-Serif" font-size="10.00">/sparse_value_grid.hpp</text>
</a>
</g>
</g>
<!-- Node1&#45;&gt;Node12 -->
<g id="edge11" class="edge">
<title>Node1&#45;&gt;Node12</title>
<path fill="none" stroke="midnightblue" d="M2154.94,-134.36C2174.54,-124.35 2198.27,-112.23 2217.64,-102.33"/>
<polygon fill="midnightblue" stroke="midnightblue" points="2219.45,-105.34 2226.76,-97.67 2216.27,-99.1 2219.45,-105.34"/>
</g>
<!-- Node13 -->
<g id="node13" class="node">
<title>Node13</title>
<g id="a_node13"><a xlink:title=" ">
<polygon fill="none" stroke="#bfbfbf" points="2337,-67.5 2337,-97.5 2478,-97.5 2478,-67.5 2337,-67.5"/>
<text text-anchor="start" x="2345" y="-85.5" font-family="Helvetica,sans-Serif" font-size="10.00">beluga/sensor/ndt_sensor</text>
<text text-anchor="middle" x="2407.5" y="-74.5" font-family="Helvetica,sans-Serif" font-size="10.00">_model.hpp</text>
</a>
</g>
</g>
<!-- Node1&#45;&gt;Node13 -->
<g id="edge12" class="edge">
<title>Node1&#45;&gt;Node13</title>
<path fill="none" stroke="midnightblue" d="M2197.17,-134.46C2241.86,-123.63 2296.81,-110.32 2339.34,-100.01"/>
<polygon fill="midnightblue" stroke="midnightblue" points="2340.42,-103.35 2349.31,-97.6 2338.77,-96.55 2340.42,-103.35"/>
</g>
<!-- Node14 -->
<g id="node14" class="node">
<title>Node14</title>
<g id="a_node14"><a xlink:title=" ">
<polygon fill="none" stroke="#bfbfbf" points="1001.5,-6 1001.5,-25 1065.5,-25 1065.5,-6 1001.5,-6"/>
<text text-anchor="middle" x="1033.5" y="-13" font-family="Helvetica,sans-Serif" font-size="10.00">execution</text>
</a>
</g>
</g>
<!-- Node1&#45;&gt;Node14 -->
<g id="edge13" class="edge">
<title>Node1&#45;&gt;Node14</title>
<path fill="none" stroke="midnightblue" d="M2026.21,-154.04C1788.62,-153.46 1158.82,-147.23 1079.5,-98 1056.78,-83.9 1044.26,-54.23 1038.21,-34.85"/>
<polygon fill="midnightblue" stroke="midnightblue" points="1041.53,-33.73 1035.44,-25.06 1034.8,-35.64 1041.53,-33.73"/>
</g>
<!-- Node15 -->
<g id="node15" class="node">
<title>Node15</title>
<g id="a_node15"><a xlink:title=" ">
<polygon fill="none" stroke="#bfbfbf" points="2496,-73 2496,-92 2561,-92 2561,-73 2496,-73"/>
<text text-anchor="middle" x="2528.5" y="-80" font-family="Helvetica,sans-Serif" font-size="10.00">functional</text>
</a>
</g>
</g>
<!-- Node1&#45;&gt;Node15 -->
<g id="edge14" class="edge">
<title>Node1&#45;&gt;Node15</title>
<path fill="none" stroke="midnightblue" d="M2206.65,-145.25C2282.37,-136.74 2393.02,-121.61 2487.5,-98 2490.55,-97.24 2493.7,-96.34 2496.82,-95.37"/>
<polygon fill="midnightblue" stroke="midnightblue" points="2498.23,-98.59 2506.61,-92.11 2496.01,-91.95 2498.23,-98.59"/>
</g>
<!-- Node16 -->
<g id="node16" class="node">
<title>Node16</title>
<g id="a_node16"><a xlink:title=" ">
<polygon fill="none" stroke="#bfbfbf" points="2579.5,-73 2579.5,-92 2635.5,-92 2635.5,-73 2579.5,-73"/>
<text text-anchor="middle" x="2607.5" y="-80" font-family="Helvetica,sans-Serif" font-size="10.00">optional</text>
</a>
</g>
</g>
<!-- Node1&#45;&gt;Node16 -->
<g id="edge15" class="edge">
<title>Node1&#45;&gt;Node16</title>
<path fill="none" stroke="midnightblue" d="M2206.89,-149.53C2299.4,-143.41 2446.75,-129.35 2570.5,-98 2573.17,-97.32 2575.9,-96.51 2578.62,-95.61"/>
<polygon fill="midnightblue" stroke="midnightblue" points="2580.02,-98.82 2588.21,-92.11 2577.62,-92.25 2580.02,-98.82"/>
</g>
<!-- Node17 -->
<g id="node17" class="node">
<title>Node17</title>
<g id="a_node17"><a xlink:title=" ">
<polygon fill="none" stroke="#bfbfbf" points="2654,-73 2654,-92 2797,-92 2797,-73 2654,-73"/>
<text text-anchor="middle" x="2725.5" y="-80" font-family="Helvetica,sans-Serif" font-size="10.00">rclcpp/callback_group.hpp</text>
</a>
</g>
</g>
<!-- Node1&#45;&gt;Node17 -->
<g id="edge16" class="edge">
<title>Node1&#45;&gt;Node17</title>
<path fill="none" stroke="midnightblue" d="M2206.9,-146.39C2312.24,-137.07 2491.41,-119.79 2644.5,-98 2653.13,-96.77 2662.25,-95.3 2671.14,-93.78"/>
<polygon fill="midnightblue" stroke="midnightblue" points="2671.78,-97.22 2681.03,-92.05 2670.58,-90.33 2671.78,-97.22"/>
</g>
<!-- Node18 -->
<g id="node18" class="node">
<title>Node18</title>
<g id="a_node18"><a xlink:title=" ">
<polygon fill="none" stroke="#bfbfbf" points="2815.5,-67.5 2815.5,-97.5 2923.5,-97.5 2923.5,-67.5 2815.5,-67.5"/>
<text text-anchor="start" x="2823.5" y="-85.5" font-family="Helvetica,sans-Serif" font-size="10.00">rclcpp/subscription</text>
<text text-anchor="middle" x="2869.5" y="-74.5" font-family="Helvetica,sans-Serif" font-size="10.00">_options.hpp</text>
</a>
</g>
</g>
<!-- Node1&#45;&gt;Node18 -->
<g id="edge17" class="edge">
<title>Node1&#45;&gt;Node18</title>
<path fill="none" stroke="midnightblue" d="M2206.58,-150.86C2336.79,-145.4 2585.2,-131.5 2805.18,-98.06"/>
<polygon fill="midnightblue" stroke="midnightblue" points="2805.95,-101.48 2815.3,-96.5 2804.88,-94.56 2805.95,-101.48"/>
</g>
<!-- Node19 -->
<g id="node19" class="node">
<title>Node19</title>
<g id="a_node19"><a xlink:title=" ">
<polygon fill="none" stroke="#bfbfbf" points="2941.5,-73 2941.5,-92 3033.5,-92 3033.5,-73 2941.5,-73"/>
<text text-anchor="middle" x="2987.5" y="-80" font-family="Helvetica,sans-Serif" font-size="10.00">sophus/se2.hpp</text>
</a>
</g>
</g>
<!-- Node1&#45;&gt;Node19 -->
<g id="edge18" class="edge">
<title>Node1&#45;&gt;Node19</title>
<path fill="none" stroke="midnightblue" d="M2206.8,-153.37C2357.96,-151.06 2671.36,-140.99 2932.5,-98 2937.98,-97.1 2943.71,-95.89 2949.31,-94.56"/>
<polygon fill="midnightblue" stroke="midnightblue" points="2950.34,-97.91 2959.18,-92.06 2948.62,-91.12 2950.34,-97.91"/>
</g>
<!-- Node20 -->
<g id="node20" class="node">
<title>Node20</title>
<g id="a_node20"><a xlink:title=" ">
<polygon fill="none" stroke="#bfbfbf" points="3052,-73 3052,-92 3093,-92 3093,-73 3052,-73"/>
<text text-anchor="middle" x="3072.5" y="-80" font-family="Helvetica,sans-Serif" font-size="10.00">tuple</text>
</a>
</g>
</g>
<!-- Node1&#45;&gt;Node20 -->
<g id="edge19" class="edge">
<title>Node1&#45;&gt;Node20</title>
<path fill="none" stroke="midnightblue" d="M2206.54,-152.99C2407.34,-150.02 2886.37,-138.75 3042.5,-98 3044.43,-97.5 3046.39,-96.86 3048.32,-96.15"/>
<polygon fill="midnightblue" stroke="midnightblue" points="3049.91,-99.28 3057.68,-92.07 3047.11,-92.86 3049.91,-99.28"/>
</g>
<!-- Node21 -->
<g id="node21" class="node">
<title>Node21</title>
<g id="a_node21"><a xlink:title=" ">
<polygon fill="none" stroke="#bfbfbf" points="3111,-73 3111,-92 3162,-92 3162,-73 3111,-73"/>
<text text-anchor="middle" x="3136.5" y="-80" font-family="Helvetica,sans-Serif" font-size="10.00">variant</text>
</a>
</g>
</g>
<!-- Node1&#45;&gt;Node21 -->
<g id="edge20" class="edge">
<title>Node1&#45;&gt;Node21</title>
<path fill="none" stroke="midnightblue" d="M2206.71,-152.85C2416.82,-149.53 2933.78,-137.49 3102.5,-98 3105.01,-97.41 3107.58,-96.65 3110.12,-95.78"/>
<polygon fill="midnightblue" stroke="midnightblue" points="3111.56,-98.98 3119.59,-92.07 3109.01,-92.46 3111.56,-98.98"/>
</g>
<!-- Node22 -->
<g id="node22" class="node">
<title>Node22</title>
<g id="a_node22"><a xlink:title=" ">
<polygon fill="none" stroke="#bfbfbf" points="3180.5,-73 3180.5,-92 3310.5,-92 3310.5,-73 3180.5,-73"/>
<text text-anchor="middle" x="3245.5" y="-80" font-family="Helvetica,sans-Serif" font-size="10.00">Eigen/src/Core/Matrix.h</text>
</a>
</g>
</g>
<!-- Node1&#45;&gt;Node22 -->
<g id="edge21" class="edge">
<title>Node1&#45;&gt;Node22</title>
<path fill="none" stroke="midnightblue" d="M2206.84,-153.47C2389.67,-151.46 2816.32,-142 3171.5,-98 3179.9,-96.96 3188.79,-95.52 3197.37,-93.95"/>
<polygon fill="midnightblue" stroke="midnightblue" points="3198.09,-97.37 3207.26,-92.06 3196.78,-90.5 3198.09,-97.37"/>
</g>
<!-- Node23 -->
<g id="node23" class="node">
<title>Node23</title>
<g id="a_node23"><a xlink:title=" ">
<polygon fill="none" stroke="#bfbfbf" points="3328.5,-73 3328.5,-92 3386.5,-92 3386.5,-73 3328.5,-73"/>
<text text-anchor="middle" x="3357.5" y="-80" font-family="Helvetica,sans-Serif" font-size="10.00">H5Cpp.h</text>
</a>
</g>
</g>
<!-- Node1&#45;&gt;Node23 -->
<g id="edge22" class="edge">
<title>Node1&#45;&gt;Node23</title>
<path fill="none" stroke="midnightblue" d="M2206.81,-153.5C2448.68,-151.56 3107.14,-142.27 3319.5,-98 3322.58,-97.36 3325.74,-96.5 3328.86,-95.52"/>
<polygon fill="midnightblue" stroke="midnightblue" points="3330.27,-98.73 3338.53,-92.1 3327.93,-92.14 3330.27,-98.73"/>
</g>
<!-- Node24 -->
<g id="node24" class="node">
<title>Node24</title>
<g id="a_node24"><a xlink:title=" ">
<polygon fill="none" stroke="#bfbfbf" points="3405,-67.5 3405,-97.5 3532,-97.5 3532,-67.5 3405,-67.5"/>
<text text-anchor="start" x="3413" y="-85.5" font-family="Helvetica,sans-Serif" font-size="10.00">beluga/algorithm/amcl</text>
<text text-anchor="middle" x="3468.5" y="-74.5" font-family="Helvetica,sans-Serif" font-size="10.00">_core.hpp</text>
</a>
</g>
</g>
<!-- Node1&#45;&gt;Node24 -->
<g id="edge23" class="edge">
<title>Node1&#45;&gt;Node24</title>
<path fill="none" stroke="midnightblue" d="M2206.82,-154.76C2414.92,-155.48 2944.14,-151.5 3394.93,-97.92"/>
<polygon fill="midnightblue" stroke="midnightblue" points="3395.38,-101.39 3404.89,-96.73 3394.54,-94.44 3395.38,-101.39"/>
</g>
<!-- Node25 -->
<g id="node25" class="node">
<title>Node25</title>
<g id="a_node25"><a xlink:title=" ">
<polygon fill="none" stroke="#bfbfbf" points="1083.5,-6 1083.5,-25 1189.5,-25 1189.5,-6 1083.5,-6"/>
<text text-anchor="middle" x="1136.5" y="-13" font-family="Helvetica,sans-Serif" font-size="10.00">bondcpp/bond.hpp</text>
</a>
</g>
</g>
<!-- Node1&#45;&gt;Node25 -->
<g id="edge24" class="edge">
<title>Node1&#45;&gt;Node25</title>
<path fill="none" stroke="midnightblue" d="M2026.06,-152.4C1781.36,-147.64 1122.43,-131.72 1090.5,-98 1071.75,-78.2 1097.37,-49.32 1117.23,-31.78"/>
<polygon fill="midnightblue" stroke="midnightblue" points="1119.6,-34.36 1124.98,-25.24 1115.08,-29.02 1119.6,-34.36"/>
</g>
<!-- Node26 -->
<g id="node26" class="node">
<title>Node26</title>
<g id="a_node26"><a xlink:title=" ">
<polygon fill="none" stroke="#bfbfbf" points="3550.5,-67.5 3550.5,-97.5 3696.5,-97.5 3696.5,-67.5 3550.5,-67.5"/>
<text text-anchor="start" x="3558.5" y="-85.5" font-family="Helvetica,sans-Serif" font-size="10.00">geometry_msgs/msg/pose</text>
<text text-anchor="middle" x="3623.5" y="-74.5" font-family="Helvetica,sans-Serif" font-size="10.00">_array.hpp</text>
</a>
</g>
</g>
<!-- Node1&#45;&gt;Node26 -->
<g id="edge25" class="edge">
<title>Node1&#45;&gt;Node26</title>
<path fill="none" stroke="midnightblue" d="M2206.84,-154.69C2431.11,-155.5 3031.34,-152.06 3540.14,-98.04"/>
<polygon fill="midnightblue" stroke="midnightblue" points="3540.68,-101.5 3550.25,-96.96 3539.94,-94.54 3540.68,-101.5"/>
</g>
<!-- Node27 -->
<g id="node27" class="node">
<title>Node27</title>
<g id="a_node27"><a xlink:title=" ">
<polygon fill="none" stroke="#bfbfbf" points="3714.5,-67.5 3714.5,-97.5 3884.5,-97.5 3884.5,-67.5 3714.5,-67.5"/>
<text text-anchor="start" x="3722.5" y="-85.5" font-family="Helvetica,sans-Serif" font-size="10.00">geometry_msgs/msg/pose</text>
<text text-anchor="middle" x="3799.5" y="-74.5" font-family="Helvetica,sans-Serif" font-size="10.00">_with_covariance_stamped.hpp</text>
</a>
</g>
</g>
<!-- Node1&#45;&gt;Node27 -->
<g id="edge26" class="edge">
<title>Node1&#45;&gt;Node27</title>
<path fill="none" stroke="midnightblue" d="M2206.78,-154.54C2448.21,-155.17 3128.93,-151.72 3704.09,-98.05"/>
<polygon fill="midnightblue" stroke="midnightblue" points="3704.62,-101.52 3714.25,-97.1 3703.97,-94.55 3704.62,-101.52"/>
</g>
<!-- Node28 -->
<g id="node28" class="node">
<title>Node28</title>
<g id="a_node28"><a xlink:title=" ">
<polygon fill="none" stroke="#bfbfbf" points="485,-0.5 485,-30.5 622,-30.5 622,-0.5 485,-0.5"/>
<text text-anchor="start" x="493" y="-18.5" font-family="Helvetica,sans-Serif" font-size="10.00">rclcpp_lifecycle/lifecycle</text>
<text text-anchor="middle" x="553.5" y="-7.5" font-family="Helvetica,sans-Serif" font-size="10.00">_node.hpp</text>
</a>
</g>
</g>
<!-- Node1&#45;&gt;Node28 -->
<g id="edge27" class="edge">
<title>Node1&#45;&gt;Node28</title>
<path fill="none" stroke="midnightblue" d="M2026.43,-152.51C1777.67,-148 1084.72,-132.59 859.5,-98 835.22,-94.27 695.68,-56.02 613.66,-33.27"/>
<polygon fill="midnightblue" stroke="midnightblue" points="614.53,-29.88 603.96,-30.58 612.66,-36.63 614.53,-29.88"/>
</g>
<!-- Node29 -->
<g id="node29" class="node">
<title>Node29</title>
<g id="a_node29"><a xlink:title=" ">
<polygon fill="none" stroke="#bfbfbf" points="0,-0.5 0,-30.5 131,-30.5 131,-0.5 0,-0.5"/>
<text text-anchor="start" x="8" y="-18.5" font-family="Helvetica,sans-Serif" font-size="10.00">sensor_msgs/msg/laser</text>
<text text-anchor="middle" x="65.5" y="-7.5" font-family="Helvetica,sans-Serif" font-size="10.00">_scan.hpp</text>
</a>
</g>
</g>
<!-- Node1&#45;&gt;Node29 -->
<g id="edge28" class="edge">
<title>Node1&#45;&gt;Node29</title>
<path fill="none" stroke="midnightblue" d="M2026.49,-154.27C1705.19,-154.75 626.08,-152.3 481.5,-98 461.1,-90.34 463.56,-75.51 443.5,-67 321.58,-15.27 276.61,-50.16 141.21,-30.98"/>
<polygon fill="midnightblue" stroke="midnightblue" points="141.71,-27.51 131.3,-29.5 140.68,-34.44 141.71,-27.51"/>
</g>
<!-- Node30 -->
<g id="node30" class="node">
<title>Node30</title>
<g id="a_node30"><a xlink:title=" ">
<polygon fill="none" stroke="#bfbfbf" points="3903,-73 3903,-92 4032,-92 4032,-73 3903,-73"/>
<text text-anchor="middle" x="3967.5" y="-80" font-family="Helvetica,sans-Serif" font-size="10.00">std_srvs/srv/empty.hpp</text>
</a>
</g>
</g>
<!-- Node1&#45;&gt;Node30 -->
<g id="edge29" class="edge">
<title>Node1&#45;&gt;Node30</title>
<path fill="none" stroke="midnightblue" d="M2206.65,-153.09C2520.11,-149.63 3561.49,-135.51 3893.5,-98 3902.1,-97.03 3911.2,-95.59 3919.96,-93.99"/>
<polygon fill="midnightblue" stroke="midnightblue" points="3920.87,-97.38 3930.04,-92.06 3919.56,-90.51 3920.87,-97.38"/>
</g>
<!-- Node31 -->
<g id="node31" class="node">
<title>Node31</title>
<g id="a_node31"><a target="_parent" xlink:href="../../../../../../beluga_ros/docs/_doxygen/generated/reference/html/laser__scan_8hpp.html.html" xlink:title=" ">
<polygon fill="none" stroke="black" points="4050.5,-73 4050.5,-92 4196.5,-92 4196.5,-73 4050.5,-73"/>
<text text-anchor="middle" x="4123.5" y="-80" font-family="Helvetica,sans-Serif" font-size="10.00">beluga_ros/laser_scan.hpp</text>
</a>
</g>
</g>
<!-- Node1&#45;&gt;Node31 -->
<g id="edge30" class="edge">
<title>Node1&#45;&gt;Node31</title>
<path fill="none" stroke="midnightblue" d="M2206.62,-153.12C2536.63,-149.65 3678.75,-135.15 4041.5,-98 4051.42,-96.98 4061.95,-95.46 4072.04,-93.78"/>
<polygon fill="midnightblue" stroke="midnightblue" points="4072.7,-97.22 4081.95,-92.06 4071.5,-90.32 4072.7,-97.22"/>
</g>
<!-- Node32 -->
<g id="node32" class="node">
<title>Node32</title>
<g id="a_node32"><a xlink:href="message__filters_8hpp.html" target="_top" xlink:title="Compatibility layer for message_filters.">
<polygon fill="none" stroke="black" points="490.5,-67.5 490.5,-97.5 616.5,-97.5 616.5,-67.5 490.5,-67.5"/>
<text text-anchor="start" x="498.5" y="-85.5" font-family="Helvetica,sans-Serif" font-size="10.00">beluga_amcl/message</text>
<text text-anchor="middle" x="553.5" y="-74.5" font-family="Helvetica,sans-Serif" font-size="10.00">_filters.hpp</text>
</a>
</g>
</g>
<!-- Node1&#45;&gt;Node32 -->
<g id="edge31" class="edge">
<title>Node1&#45;&gt;Node32</title>
<path fill="none" stroke="midnightblue" d="M2026.31,-152.2C1802.29,-147.35 1202.56,-131.98 703.5,-98 678.49,-96.3 651.19,-93.84 626.82,-91.43"/>
<polygon fill="midnightblue" stroke="midnightblue" points="626.86,-87.91 616.57,-90.4 626.17,-94.88 626.86,-87.91"/>
</g>
<!-- Node33 -->
<g id="node33" class="node">
<title>Node33</title>
<g id="a_node33"><a xlink:title=" ">
<polygon fill="none" stroke="#bfbfbf" points="300,-6 300,-25 467,-25 467,-6 300,-6"/>
<text text-anchor="middle" x="383.5" y="-13" font-family="Helvetica,sans-Serif" font-size="10.00">message_filters/subscriber.hpp</text>
</a>
</g>
</g>
<!-- Node1&#45;&gt;Node33 -->
<g id="edge54" class="edge">
<title>Node1&#45;&gt;Node33</title>
<path fill="none" stroke="midnightblue" d="M2026.45,-153.19C1760.74,-150.36 982.91,-138.72 732.5,-98 683.63,-90.05 673.55,-78.95 625.5,-67 562.31,-51.28 489.03,-36.46 439.81,-26.99"/>
<polygon fill="midnightblue" stroke="midnightblue" points="440.16,-23.49 429.68,-25.05 438.84,-30.37 440.16,-23.49"/>
</g>
<!-- Node35 -->
<g id="node35" class="node">
<title>Node35</title>
<g id="a_node35"><a xlink:href="ros2__common_8hpp_source.html" target="_top" xlink:title=" ">
<polygon fill="none" stroke="black" points="1099.5,-73 1099.5,-92 1271.5,-92 1271.5,-73 1099.5,-73"/>
<text text-anchor="middle" x="1185.5" y="-80" font-family="Helvetica,sans-Serif" font-size="10.00">beluga_amcl/ros2_common.hpp</text>
</a>
</g>
</g>
<!-- Node1&#45;&gt;Node35 -->
<g id="edge36" class="edge">
<title>Node1&#45;&gt;Node35</title>
<path fill="none" stroke="midnightblue" d="M2026.39,-150.41C1873.07,-143.75 1551.78,-127.42 1281.5,-98 1270.22,-96.77 1258.24,-95.19 1246.71,-93.52"/>
<polygon fill="midnightblue" stroke="midnightblue" points="1247.12,-90.04 1236.71,-92.04 1246.09,-96.97 1247.12,-90.04"/>
</g>
<!-- Node32&#45;&gt;Node28 -->
<g id="edge33" class="edge">
<title>Node32&#45;&gt;Node28</title>
<path fill="none" stroke="midnightblue" d="M553.5,-67.4C553.5,-59.64 553.5,-49.81 553.5,-40.86"/>
<polygon fill="midnightblue" stroke="midnightblue" points="557,-40.58 553.5,-30.58 550,-40.58 557,-40.58"/>
</g>
<!-- Node32&#45;&gt;Node29 -->
<g id="edge34" class="edge">
<title>Node32&#45;&gt;Node29</title>
<path fill="none" stroke="midnightblue" d="M490.12,-69.15C485.52,-68.38 480.94,-67.65 476.5,-67 331.11,-45.56 290.75,-52.94 141.3,-31.03"/>
<polygon fill="midnightblue" stroke="midnightblue" points="141.7,-27.55 131.3,-29.55 140.67,-34.48 141.7,-27.55"/>
</g>
<!-- Node32&#45;&gt;Node33 -->
<g id="edge32" class="edge">
<title>Node32&#45;&gt;Node33</title>
<path fill="none" stroke="midnightblue" d="M516.61,-67.4C486.39,-55.84 444.06,-39.66 415.31,-28.66"/>
<polygon fill="midnightblue" stroke="midnightblue" points="416.34,-25.31 405.75,-25.01 413.84,-31.85 416.34,-25.31"/>
</g>
<!-- Node34 -->
<g id="node34" class="node">
<title>Node34</title>
<g id="a_node34"><a xlink:title=" ">
<polygon fill="none" stroke="#bfbfbf" points="149.5,-0.5 149.5,-30.5 281.5,-30.5 281.5,-0.5 149.5,-0.5"/>
<text text-anchor="start" x="157.5" y="-18.5" font-family="Helvetica,sans-Serif" font-size="10.00">sensor_msgs/msg/point</text>
<text text-anchor="middle" x="215.5" y="-7.5" font-family="Helvetica,sans-Serif" font-size="10.00">_cloud2.hpp</text>
</a>
</g>
</g>
<!-- Node32&#45;&gt;Node34 -->
<g id="edge35" class="edge">
<title>Node32&#45;&gt;Node34</title>
<path fill="none" stroke="midnightblue" d="M490.32,-69.35C434.06,-58.53 351.61,-42.67 291.7,-31.15"/>
<polygon fill="midnightblue" stroke="midnightblue" points="292.02,-27.65 281.54,-29.2 290.7,-34.53 292.02,-27.65"/>
</g>
<!-- Node35&#45;&gt;Node4 -->
<g id="edge49" class="edge">
<title>Node35&#45;&gt;Node4</title>
<path fill="none" stroke="midnightblue" d="M1122.51,-72.96C1050.09,-63.1 927.66,-46.26 822.5,-31 812.68,-29.58 802.3,-28.04 792.13,-26.52"/>
<polygon fill="midnightblue" stroke="midnightblue" points="792.48,-23.03 782.07,-25.01 791.44,-29.95 792.48,-23.03"/>
</g>
<!-- Node35&#45;&gt;Node5 -->
<g id="edge50" class="edge">
<title>Node35&#45;&gt;Node5</title>
<path fill="none" stroke="midnightblue" d="M1148.87,-72.94C1098.76,-61.22 1008.83,-40.19 954.02,-27.38"/>
<polygon fill="midnightblue" stroke="midnightblue" points="954.74,-23.95 944.21,-25.08 953.15,-30.77 954.74,-23.95"/>
</g>
<!-- Node35&#45;&gt;Node14 -->
<g id="edge37" class="edge">
<title>Node35&#45;&gt;Node14</title>
<path fill="none" stroke="midnightblue" d="M1165.32,-72.87C1139.2,-61.7 1093.47,-42.15 1063.34,-29.26"/>
<polygon fill="midnightblue" stroke="midnightblue" points="1064.34,-25.88 1053.77,-25.17 1061.59,-32.32 1064.34,-25.88"/>
</g>
<!-- Node35&#45;&gt;Node25 -->
<g id="edge43" class="edge">
<title>Node35&#45;&gt;Node25</title>
<path fill="none" stroke="midnightblue" d="M1178.89,-72.73C1171.32,-62.7 1158.75,-46.01 1149.26,-33.42"/>
<polygon fill="midnightblue" stroke="midnightblue" points="1151.82,-31.01 1143,-25.13 1146.23,-35.22 1151.82,-31.01"/>
</g>
<!-- Node35&#45;&gt;Node28 -->
<g id="edge39" class="edge">
<title>Node35&#45;&gt;Node28</title>
<path fill="none" stroke="midnightblue" d="M1099.33,-76.14C992.21,-68.91 803.64,-54.35 632.31,-31.03"/>
<polygon fill="midnightblue" stroke="midnightblue" points="632.73,-27.55 622.35,-29.66 631.78,-34.49 632.73,-27.55"/>
</g>
<!-- Node36 -->
<g id="node36" class="node">
<title>Node36</title>
<g id="a_node36"><a xlink:title=" ">
<polygon fill="none" stroke="#bfbfbf" points="1208,-6 1208,-25 1343,-25 1343,-6 1208,-6"/>
<text text-anchor="middle" x="1275.5" y="-13" font-family="Helvetica,sans-Serif" font-size="10.00">rclcpp/node_options.hpp</text>
</a>
</g>
</g>
<!-- Node35&#45;&gt;Node36 -->
<g id="edge38" class="edge">
<title>Node35&#45;&gt;Node36</title>
<path fill="none" stroke="midnightblue" d="M1197.64,-72.73C1212.35,-62.11 1237.36,-44.05 1255.06,-31.26"/>
<polygon fill="midnightblue" stroke="midnightblue" points="1257.5,-33.82 1263.55,-25.13 1253.4,-28.14 1257.5,-33.82"/>
</g>
<!-- Node37 -->
<g id="node37" class="node">
<title>Node37</title>
<g id="a_node37"><a xlink:title=" ">
<polygon fill="none" stroke="#bfbfbf" points="1361,-6 1361,-25 1502,-25 1502,-6 1361,-6"/>
<text text-anchor="middle" x="1431.5" y="-13" font-family="Helvetica,sans-Serif" font-size="10.00">rclcpp_lifecycle/state.hpp</text>
</a>
</g>
</g>
<!-- Node35&#45;&gt;Node37 -->
<g id="edge40" class="edge">
<title>Node35&#45;&gt;Node37</title>
<path fill="none" stroke="midnightblue" d="M1217.91,-72.94C1261.88,-61.32 1340.51,-40.54 1389.12,-27.7"/>
<polygon fill="midnightblue" stroke="midnightblue" points="1390.24,-31.02 1399.02,-25.08 1388.45,-24.25 1390.24,-31.02"/>
</g>
<!-- Node38 -->
<g id="node38" class="node">
<title>Node38</title>
<g id="a_node38"><a xlink:title=" ">
<polygon fill="none" stroke="#bfbfbf" points="1520.5,-6 1520.5,-25 1564.5,-25 1564.5,-6 1520.5,-6"/>
<text text-anchor="middle" x="1542.5" y="-13" font-family="Helvetica,sans-Serif" font-size="10.00">string</text>
</a>
</g>
</g>
<!-- Node35&#45;&gt;Node38 -->
<g id="edge41" class="edge">
<title>Node35&#45;&gt;Node38</title>
<path fill="none" stroke="midnightblue" d="M1242.02,-72.95C1333.64,-59.07 1505.09,-32.95 1511.5,-31 1513.38,-30.43 1515.28,-29.76 1517.18,-29.04"/>
<polygon fill="midnightblue" stroke="midnightblue" points="1518.62,-32.23 1526.43,-25.07 1515.86,-25.8 1518.62,-32.23"/>
</g>
<!-- Node39 -->
<g id="node39" class="node">
<title>Node39</title>
<g id="a_node39"><a xlink:title=" ">
<polygon fill="none" stroke="#bfbfbf" points="1583,-6 1583,-25 1656,-25 1656,-6 1583,-6"/>
<text text-anchor="middle" x="1619.5" y="-13" font-family="Helvetica,sans-Serif" font-size="10.00">string_view</text>
</a>
</g>
</g>
<!-- Node35&#45;&gt;Node39 -->
<g id="edge42" class="edge">
<title>Node35&#45;&gt;Node39</title>
<path fill="none" stroke="midnightblue" d="M1240.04,-73C1253.58,-70.96 1268.06,-68.84 1281.5,-67 1411.05,-49.23 1445.72,-58.77 1573.5,-31 1577.44,-30.14 1581.52,-29.1 1585.55,-27.96"/>
<polygon fill="midnightblue" stroke="midnightblue" points="1586.8,-31.24 1595.37,-25.02 1584.79,-24.54 1586.8,-31.24"/>
</g>
<!-- Node40 -->
<g id="node40" class="node">
<title>Node40</title>
<g id="a_node40"><a xlink:title=" ">
<polygon fill="none" stroke="#bfbfbf" points="1674.5,-0.5 1674.5,-30.5 1820.5,-30.5 1820.5,-0.5 1674.5,-0.5"/>
<text text-anchor="start" x="1682.5" y="-18.5" font-family="Helvetica,sans-Serif" font-size="10.00">geometry_msgs/msg/pose</text>
<text text-anchor="middle" x="1747.5" y="-7.5" font-family="Helvetica,sans-Serif" font-size="10.00">_stamped.hpp</text>
</a>
</g>
</g>
<!-- Node35&#45;&gt;Node40 -->
<g id="edge44" class="edge">
<title>Node35&#45;&gt;Node40</title>
<path fill="none" stroke="midnightblue" d="M1238.24,-72.99C1252.28,-70.87 1267.45,-68.72 1281.5,-67 1448.41,-46.59 1493.91,-53.66 1664.17,-31.11"/>
<polygon fill="midnightblue" stroke="midnightblue" points="1664.78,-34.56 1674.23,-29.76 1663.85,-27.62 1664.78,-34.56"/>
</g>
<!-- Node41 -->
<g id="node41" class="node">
<title>Node41</title>
<g id="a_node41"><a xlink:title=" ">
<polygon fill="none" stroke="#bfbfbf" points="1839,-0.5 1839,-30.5 1984,-30.5 1984,-0.5 1839,-0.5"/>
<text text-anchor="start" x="1847" y="-18.5" font-family="Helvetica,sans-Serif" font-size="10.00">nav_msgs/msg/occupancy</text>
<text text-anchor="middle" x="1911.5" y="-7.5" font-family="Helvetica,sans-Serif" font-size="10.00">_grid.hpp</text>
</a>
</g>
</g>
<!-- Node35&#45;&gt;Node41 -->
<g id="edge45" class="edge">
<title>Node35&#45;&gt;Node41</title>
<path fill="none" stroke="midnightblue" d="M1236.71,-72.95C1251.16,-70.76 1266.92,-68.58 1281.5,-67 1520.85,-41.11 1585.43,-59.77 1828.47,-31.02"/>
<polygon fill="midnightblue" stroke="midnightblue" points="1829.17,-34.47 1838.68,-29.8 1828.34,-27.52 1829.17,-34.47"/>
</g>
<!-- Node42 -->
<g id="node42" class="node">
<title>Node42</title>
<g id="a_node42"><a xlink:title=" ">
<polygon fill="none" stroke="#bfbfbf" points="2002,-6 2002,-25 2101,-25 2101,-6 2002,-6"/>
<text text-anchor="middle" x="2051.5" y="-13" font-family="Helvetica,sans-Serif" font-size="10.00">rclcpp/rclcpp.hpp</text>
</a>
</g>
</g>
<!-- Node35&#45;&gt;Node42 -->
<g id="edge46" class="edge">
<title>Node35&#45;&gt;Node42</title>
<path fill="none" stroke="midnightblue" d="M1235.7,-72.96C1250.42,-70.71 1266.57,-68.5 1281.5,-67 1596.76,-35.3 1680.1,-77.64 1993.5,-31 1999.48,-30.11 2005.75,-28.87 2011.86,-27.49"/>
<polygon fill="midnightblue" stroke="midnightblue" points="2013.02,-30.82 2021.92,-25.07 2011.38,-24.01 2013.02,-30.82"/>
</g>
<!-- Node43 -->
<g id="node43" class="node">
<title>Node43</title>
<g id="a_node43"><a xlink:title=" ">
<polygon fill="none" stroke="#bfbfbf" points="2119.5,-6 2119.5,-25 2211.5,-25 2211.5,-6 2119.5,-6"/>
<text text-anchor="middle" x="2165.5" y="-13" font-family="Helvetica,sans-Serif" font-size="10.00">rclcpp/time.hpp</text>
</a>
</g>
</g>
<!-- Node35&#45;&gt;Node43 -->
<g id="edge47" class="edge">
<title>Node35&#45;&gt;Node43</title>
<path fill="none" stroke="midnightblue" d="M1235.2,-72.96C1250.05,-70.69 1266.4,-68.46 1281.5,-67 1648.57,-31.41 1745.88,-86.32 2110.5,-31 2116.11,-30.15 2121.98,-28.95 2127.7,-27.6"/>
<polygon fill="midnightblue" stroke="midnightblue" points="2128.93,-30.9 2137.76,-25.05 2127.21,-24.11 2128.93,-30.9"/>
</g>
<!-- Node44 -->
<g id="node44" class="node">
<title>Node44</title>
<g id="a_node44"><a xlink:title=" ">
<polygon fill="none" stroke="#bfbfbf" points="2229.5,-0.5 2229.5,-30.5 2345.5,-30.5 2345.5,-0.5 2229.5,-0.5"/>
<text text-anchor="start" x="2237.5" y="-18.5" font-family="Helvetica,sans-Serif" font-size="10.00">tf2_ros/create_timer</text>
<text text-anchor="middle" x="2287.5" y="-7.5" font-family="Helvetica,sans-Serif" font-size="10.00">_ros.h</text>
</a>
</g>
</g>
<!-- Node35&#45;&gt;Node44 -->
<g id="edge48" class="edge">
<title>Node35&#45;&gt;Node44</title>
<path fill="none" stroke="midnightblue" d="M1234.7,-72.99C1249.68,-70.69 1266.23,-68.44 1281.5,-67 1693.94,-28.07 1804.38,-82.48 2218.98,-31.03"/>
<polygon fill="midnightblue" stroke="midnightblue" points="2219.65,-34.48 2229.14,-29.76 2218.78,-27.53 2219.65,-34.48"/>
</g>
<!-- Node45 -->
<g id="node45" class="node">
<title>Node45</title>
<g id="a_node45"><a xlink:title=" ">
<polygon fill="none" stroke="#bfbfbf" points="2364,-6 2364,-25 2455,-25 2455,-6 2364,-6"/>
<text text-anchor="middle" x="2409.5" y="-13" font-family="Helvetica,sans-Serif" font-size="10.00">tf2/convert.hpp</text>
</a>
</g>
</g>
<!-- Node35&#45;&gt;Node45 -->
<g id="edge51" class="edge">
<title>Node35&#45;&gt;Node45</title>
<path fill="none" stroke="midnightblue" d="M1234.7,-72.94C1249.68,-70.64 1266.23,-68.4 1281.5,-67 1756.65,-23.29 1882.4,-100.25 2354.5,-31 2360.32,-30.15 2366.41,-28.9 2372.33,-27.5"/>
<polygon fill="midnightblue" stroke="midnightblue" points="2373.22,-30.89 2382.05,-25.03 2371.5,-24.1 2373.22,-30.89"/>
</g>
<!-- Node46 -->
<g id="node46" class="node">
<title>Node46</title>
<g id="a_node46"><a xlink:title=" ">
<polygon fill="none" stroke="#bfbfbf" points="2473,-6 2473,-25 2548,-25 2548,-6 2473,-6"/>
<text text-anchor="middle" x="2510.5" y="-13" font-family="Helvetica,sans-Serif" font-size="10.00">tf2/utils.hpp</text>
</a>
</g>
</g>
<!-- Node35&#45;&gt;Node46 -->
<g id="edge52" class="edge">
<title>Node35&#45;&gt;Node46</title>
<path fill="none" stroke="midnightblue" d="M1234.2,-72.99C1249.31,-70.66 1266.06,-68.4 1281.5,-67 1543.44,-43.32 2205.19,-74.95 2464.5,-31 2468.77,-30.28 2473.2,-29.25 2477.54,-28.08"/>
<polygon fill="midnightblue" stroke="midnightblue" points="2478.82,-31.35 2487.4,-25.14 2476.82,-24.64 2478.82,-31.35"/>
</g>
<!-- Node47 -->
<g id="node47" class="node">
<title>Node47</title>
<g id="a_node47"><a target="_parent" xlink:href="../../../../../../beluga_ros/docs/_doxygen/generated/reference/html/tf2__sophus_8hpp.html.html" xlink:title=" ">
<polygon fill="none" stroke="black" points="2566,-6 2566,-25 2713,-25 2713,-6 2566,-6"/>
<text text-anchor="middle" x="2639.5" y="-13" font-family="Helvetica,sans-Serif" font-size="10.00">beluga_ros/tf2_sophus.hpp</text>
</a>
</g>
</g>
<!-- Node35&#45;&gt;Node47 -->
<g id="edge53" class="edge">
<title>Node35&#45;&gt;Node47</title>
<path fill="none" stroke="midnightblue" d="M1234.2,-72.97C1249.31,-70.64 1266.05,-68.38 1281.5,-67 1846.59,-16.54 1993.09,-88.55 2557.5,-31 2567.42,-29.99 2577.96,-28.47 2588.05,-26.79"/>
<polygon fill="midnightblue" stroke="midnightblue" points="2588.7,-30.23 2597.95,-25.07 2587.5,-23.33 2588.7,-30.23"/>
</g>
</g>
</svg>
