<?xml version="1.0" encoding="UTF-8" standalone="no"?>
<!DOCTYPE svg PUBLIC "-//W3C//DTD SVG 1.1//EN"
 "http://www.w3.org/Graphics/SVG/1.1/DTD/svg11.dtd">
<!-- Generated by graphviz version 2.43.0 (0)
 -->
<!-- Title: /home/runner/work/beluga/beluga/beluga/include/beluga/actions.hpp Pages: 1 -->
<!--zoomable 408 -->
<svg id="main" version="1.1" xmlns="http://www.w3.org/2000/svg" xmlns:xlink="http://www.w3.org/1999/xlink" xml:space="preserve" onload="init(evt)">
<style type="text/css"><![CDATA[
.edge:hover path { stroke: red; }
.edge:hover polygon { stroke: red; fill: red; }
]]></style>
<script type="text/javascript"><![CDATA[
var edges = document.getElementsByTagName('g');
if (edges && edges.length) {
  for (var i=0;i<edges.length;i++) {
    if (edges[i].id.substr(0,4)=='edge') {
      edges[i].setAttribute('class','edge');
    }
  }
}
]]></script>
        <defs>
                <circle id="rim" cx="0" cy="0" r="7"/>
                <circle id="rim2" cx="0" cy="0" r="3.5"/>
                <g id="zoomPlus">
                        <use xlink:href="#rim" fill="#404040">
                                <set attributeName="fill" to="#808080" begin="zoomplus.mouseover" end="zoomplus.mouseout"/>
                        </use>
                        <path d="M-4,0h8M0,-4v8" fill="none" stroke="white" stroke-width="1.5" pointer-events="none"/>
                </g>
                <g id="zoomMin">
                        <use xlink:href="#rim" fill="#404040">
                                <set attributeName="fill" to="#808080" begin="zoomminus.mouseover" end="zoomminus.mouseout"/>
                        </use>
                        <path d="M-4,0h8" fill="none" stroke="white" stroke-width="1.5" pointer-events="none"/>
                </g>
                <g id="dirArrow">
                        <path fill="none" stroke="white" stroke-width="1.5" d="M0,-3.0v7 M-2.5,-0.5L0,-3.0L2.5,-0.5"/>
                </g>
               <g id="resetDef">
                       <use xlink:href="#rim2" fill="#404040">
                               <set attributeName="fill" to="#808080" begin="reset.mouseover" end="reset.mouseout"/>
                       </use>
               </g>
        </defs>

<script type="text/javascript">
var viewWidth = 2053;
var viewHeight = 408;
var sectionId = 'dynsection-0';
</script>
<script xlink:href="svgpan.js"/>
<svg id="graph" class="graph">
<g id="viewport">
<title>/home/runner/work/beluga/beluga/beluga/include/beluga/actions.hpp</title>
<!-- Node1 -->
<g id="node1" class="node">
<title>Node1</title>
<g id="a_node1"><a xlink:title="Implementation of useful range actions.">
<polygon fill="#bfbfbf" stroke="black" points="918.5,-358.5 918.5,-399.5 1063.5,-399.5 1063.5,-358.5 918.5,-358.5"/>
<text text-anchor="start" x="926.5" y="-387.5" font-family="Helvetica,sans-Serif" font-size="10.00">/home/runner/work/beluga</text>
<text text-anchor="start" x="926.5" y="-376.5" font-family="Helvetica,sans-Serif" font-size="10.00">/beluga/beluga/include</text>
<text text-anchor="middle" x="991" y="-365.5" font-family="Helvetica,sans-Serif" font-size="10.00">/beluga/actions.hpp</text>
</a>
</g>
</g>
<!-- Node2 -->
<g id="node2" class="node">
<title>Node2</title>
<g id="a_node2"><a xlink:href="assign_8hpp.html" target="_top" xlink:title="Implementation of the assign range adaptor object.">
<polygon fill="none" stroke="black" points="1582.5,-302.5 1582.5,-321.5 1725.5,-321.5 1725.5,-302.5 1582.5,-302.5"/>
<text text-anchor="middle" x="1654" y="-309.5" font-family="Helvetica,sans-Serif" font-size="10.00">beluga/actions/assign.hpp</text>
</a>
</g>
</g>
<!-- Node1&#45;&gt;Node2 -->
<g id="edge1" class="edge">
<title>Node1&#45;&gt;Node2</title>
<path fill="none" stroke="midnightblue" d="M1063.53,-370.89C1188.01,-358.69 1441.49,-333.83 1572.12,-321.03"/>
<polygon fill="midnightblue" stroke="midnightblue" points="1572.85,-324.47 1582.46,-320.01 1572.16,-317.51 1572.85,-324.47"/>
</g>
<!-- Node7 -->
<g id="node7" class="node">
<title>Node7</title>
<g id="a_node7"><a xlink:href="normalize_8hpp.html" target="_top" xlink:title="Implementation of the normalize range adaptor object.">
<polygon fill="none" stroke="black" points="789.5,-302.5 789.5,-321.5 950.5,-321.5 950.5,-302.5 789.5,-302.5"/>
<text text-anchor="middle" x="870" y="-309.5" font-family="Helvetica,sans-Serif" font-size="10.00">beluga/actions/normalize.hpp</text>
</a>
</g>
</g>
<!-- Node1&#45;&gt;Node7 -->
<g id="edge6" class="edge">
<title>Node1&#45;&gt;Node7</title>
<path fill="none" stroke="midnightblue" d="M954.7,-358.5C935.43,-348.15 912.25,-335.69 895.01,-326.43"/>
<polygon fill="midnightblue" stroke="midnightblue" points="896.57,-323.3 886.11,-321.65 893.26,-329.47 896.57,-323.3"/>
</g>
<!-- Node26 -->
<g id="node26" class="node">
<title>Node26</title>
<g id="a_node26"><a xlink:href="propagate_8hpp.html" target="_top" xlink:title="Implementation of the propagate range adaptor object.">
<polygon fill="none" stroke="black" points="453.5,-302.5 453.5,-321.5 614.5,-321.5 614.5,-302.5 453.5,-302.5"/>
<text text-anchor="middle" x="534" y="-309.5" font-family="Helvetica,sans-Serif" font-size="10.00">beluga/actions/propagate.hpp</text>
</a>
</g>
</g>
<!-- Node1&#45;&gt;Node26 -->
<g id="edge31" class="edge">
<title>Node1&#45;&gt;Node26</title>
<path fill="none" stroke="midnightblue" d="M918.33,-367.66C832.06,-355.39 689.18,-335.07 604.06,-322.96"/>
<polygon fill="midnightblue" stroke="midnightblue" points="604.37,-319.47 593.98,-321.53 603.38,-326.4 604.37,-319.47"/>
</g>
<!-- Node28 -->
<g id="node28" class="node">
<title>Node28</title>
<g id="a_node28"><a xlink:href="reweight_8hpp.html" target="_top" xlink:title="Implementation of the reweight range adaptor object.">
<polygon fill="none" stroke="black" points="1035.5,-302.5 1035.5,-321.5 1190.5,-321.5 1190.5,-302.5 1035.5,-302.5"/>
<text text-anchor="middle" x="1113" y="-309.5" font-family="Helvetica,sans-Serif" font-size="10.00">beluga/actions/reweight.hpp</text>
</a>
</g>
</g>
<!-- Node1&#45;&gt;Node28 -->
<g id="edge40" class="edge">
<title>Node1&#45;&gt;Node28</title>
<path fill="none" stroke="midnightblue" d="M1027.6,-358.5C1047.03,-348.15 1070.4,-335.69 1087.78,-326.43"/>
<polygon fill="midnightblue" stroke="midnightblue" points="1089.58,-329.44 1096.76,-321.65 1086.29,-323.27 1089.58,-329.44"/>
</g>
<!-- Node3 -->
<g id="node3" class="node">
<title>Node3</title>
<g id="a_node3"><a xlink:title=" ">
<polygon fill="none" stroke="#bfbfbf" points="1040,-241 1040,-260 1186,-260 1186,-241 1040,-241"/>
<text text-anchor="middle" x="1113" y="-248" font-family="Helvetica,sans-Serif" font-size="10.00">range/v3/action/action.hpp</text>
</a>
</g>
</g>
<!-- Node2&#45;&gt;Node3 -->
<g id="edge2" class="edge">
<title>Node2&#45;&gt;Node3</title>
<path fill="none" stroke="midnightblue" d="M1582.46,-303.66C1498.66,-294.98 1355.7,-279.97 1233,-266 1219.87,-264.51 1205.95,-262.87 1192.41,-261.25"/>
<polygon fill="midnightblue" stroke="midnightblue" points="1192.49,-257.74 1182.15,-260.02 1191.66,-264.69 1192.49,-257.74"/>
</g>
<!-- Node4 -->
<g id="node4" class="node">
<title>Node4</title>
<g id="a_node4"><a xlink:title=" ">
<polygon fill="none" stroke="#bfbfbf" points="1598.5,-235.5 1598.5,-265.5 1709.5,-265.5 1709.5,-235.5 1598.5,-235.5"/>
<text text-anchor="start" x="1606.5" y="-253.5" font-family="Helvetica,sans-Serif" font-size="10.00">range/v3/functional</text>
<text text-anchor="middle" x="1654" y="-242.5" font-family="Helvetica,sans-Serif" font-size="10.00">/bind_back.hpp</text>
</a>
</g>
</g>
<!-- Node2&#45;&gt;Node4 -->
<g id="edge3" class="edge">
<title>Node2&#45;&gt;Node4</title>
<path fill="none" stroke="midnightblue" d="M1654,-302.48C1654,-295.47 1654,-285.19 1654,-275.7"/>
<polygon fill="midnightblue" stroke="midnightblue" points="1657.5,-275.52 1654,-265.52 1650.5,-275.52 1657.5,-275.52"/>
</g>
<!-- Node5 -->
<g id="node5" class="node">
<title>Node5</title>
<g id="a_node5"><a xlink:title=" ">
<polygon fill="none" stroke="#bfbfbf" points="1727.5,-241 1727.5,-260 1894.5,-260 1894.5,-241 1727.5,-241"/>
<text text-anchor="middle" x="1811" y="-248" font-family="Helvetica,sans-Serif" font-size="10.00">range/v3/range/conversion.hpp</text>
</a>
</g>
</g>
<!-- Node2&#45;&gt;Node5 -->
<g id="edge4" class="edge">
<title>Node2&#45;&gt;Node5</title>
<path fill="none" stroke="midnightblue" d="M1676.49,-302.48C1703.31,-292.31 1748.32,-275.26 1778.81,-263.7"/>
<polygon fill="midnightblue" stroke="midnightblue" points="1780.44,-266.83 1788.55,-260.01 1777.96,-260.28 1780.44,-266.83"/>
</g>
<!-- Node6 -->
<g id="node6" class="node">
<title>Node6</title>
<g id="a_node6"><a xlink:title=" ">
<polygon fill="none" stroke="#bfbfbf" points="1913,-241 1913,-260 2045,-260 2045,-241 1913,-241"/>
<text text-anchor="middle" x="1979" y="-248" font-family="Helvetica,sans-Serif" font-size="10.00">range/v3/view/view.hpp</text>
</a>
</g>
</g>
<!-- Node2&#45;&gt;Node6 -->
<g id="edge5" class="edge">
<title>Node2&#45;&gt;Node6</title>
<path fill="none" stroke="midnightblue" d="M1702.43,-302.47C1752.82,-293.56 1833.99,-279.07 1904,-266 1910.83,-264.72 1918.01,-263.36 1925.11,-262.01"/>
<polygon fill="midnightblue" stroke="midnightblue" points="1926.23,-265.35 1935.39,-260.03 1924.91,-258.48 1926.23,-265.35"/>
</g>
<!-- Node7&#45;&gt;Node3 -->
<g id="edge10" class="edge">
<title>Node7&#45;&gt;Node3</title>
<path fill="none" stroke="midnightblue" d="M904.82,-302.48C947.85,-291.94 1021.17,-273.99 1068.31,-262.44"/>
<polygon fill="midnightblue" stroke="midnightblue" points="1069.37,-265.79 1078.25,-260.01 1067.7,-258.99 1069.37,-265.79"/>
</g>
<!-- Node8 -->
<g id="node8" class="node">
<title>Node8</title>
<g id="a_node8"><a xlink:title=" ">
<polygon fill="none" stroke="#bfbfbf" points="838,-241 838,-260 902,-260 902,-241 838,-241"/>
<text text-anchor="middle" x="870" y="-248" font-family="Helvetica,sans-Serif" font-size="10.00">algorithm</text>
</a>
</g>
</g>
<!-- Node7&#45;&gt;Node8 -->
<g id="edge7" class="edge">
<title>Node7&#45;&gt;Node8</title>
<path fill="none" stroke="midnightblue" d="M870,-302.48C870,-294.08 870,-280.98 870,-270.16"/>
<polygon fill="midnightblue" stroke="midnightblue" points="873.5,-270.01 870,-260.01 866.5,-270.01 873.5,-270.01"/>
</g>
<!-- Node9 -->
<g id="node9" class="node">
<title>Node9</title>
<g id="a_node9"><a xlink:title=" ">
<polygon fill="none" stroke="#bfbfbf" points="920,-241 920,-260 984,-260 984,-241 920,-241"/>
<text text-anchor="middle" x="952" y="-248" font-family="Helvetica,sans-Serif" font-size="10.00">execution</text>
</a>
</g>
</g>
<!-- Node7&#45;&gt;Node9 -->
<g id="edge8" class="edge">
<title>Node7&#45;&gt;Node9</title>
<path fill="none" stroke="midnightblue" d="M881.75,-302.48C894.78,-293.02 916.04,-277.6 931.76,-266.19"/>
<polygon fill="midnightblue" stroke="midnightblue" points="934.23,-268.71 940.27,-260.01 930.12,-263.05 934.23,-268.71"/>
</g>
<!-- Node10 -->
<g id="node10" class="node">
<title>Node10</title>
<g id="a_node10"><a xlink:title=" ">
<polygon fill="none" stroke="#bfbfbf" points="562,-241 562,-260 618,-260 618,-241 562,-241"/>
<text text-anchor="middle" x="590" y="-248" font-family="Helvetica,sans-Serif" font-size="10.00">optional</text>
</a>
</g>
</g>
<!-- Node7&#45;&gt;Node10 -->
<g id="edge9" class="edge">
<title>Node7&#45;&gt;Node10</title>
<path fill="none" stroke="midnightblue" d="M807.12,-302.5C757.85,-295.07 687.86,-282.84 628,-266 625.35,-265.25 622.63,-264.4 619.92,-263.49"/>
<polygon fill="midnightblue" stroke="midnightblue" points="620.88,-260.11 610.28,-260.02 618.5,-266.7 620.88,-260.11"/>
</g>
<!-- Node11 -->
<g id="node11" class="node">
<title>Node11</title>
<g id="a_node11"><a xlink:title=" ">
<polygon fill="none" stroke="#bfbfbf" points="636.5,-241 636.5,-260 819.5,-260 819.5,-241 636.5,-241"/>
<text text-anchor="middle" x="728" y="-248" font-family="Helvetica,sans-Serif" font-size="10.00">range/v3/numeric/accumulate.hpp</text>
</a>
</g>
</g>
<!-- Node7&#45;&gt;Node11 -->
<g id="edge11" class="edge">
<title>Node7&#45;&gt;Node11</title>
<path fill="none" stroke="midnightblue" d="M849.65,-302.48C825.61,-292.4 785.4,-275.55 757.84,-264"/>
<polygon fill="midnightblue" stroke="midnightblue" points="758.88,-260.65 748.31,-260.01 756.18,-267.1 758.88,-260.65"/>
</g>
<!-- Node12 -->
<g id="node12" class="node">
<title>Node12</title>
<g id="a_node12"><a xlink:title=" ">
<polygon fill="none" stroke="#bfbfbf" points="228,-241 228,-260 380,-260 380,-241 228,-241"/>
<text text-anchor="middle" x="304" y="-248" font-family="Helvetica,sans-Serif" font-size="10.00">range/v3/view/common.hpp</text>
</a>
</g>
</g>
<!-- Node7&#45;&gt;Node12 -->
<g id="edge12" class="edge">
<title>Node7&#45;&gt;Node12</title>
<path fill="none" stroke="midnightblue" d="M789.37,-305.33C693.65,-298.17 529.32,-284.51 389,-266 379.64,-264.77 369.73,-263.26 360.11,-261.69"/>
<polygon fill="midnightblue" stroke="midnightblue" points="360.66,-258.23 350.22,-260.04 359.51,-265.14 360.66,-258.23"/>
</g>
<!-- Node13 -->
<g id="node13" class="node">
<title>Node13</title>
<g id="a_node13"><a xlink:href="particle__traits_8hpp.html" target="_top" xlink:title="Implementation of traits for particle types, see the Particle named requirements.">
<polygon fill="none" stroke="black" points="398,-235.5 398,-265.5 506,-265.5 506,-235.5 398,-235.5"/>
<text text-anchor="start" x="406" y="-253.5" font-family="Helvetica,sans-Serif" font-size="10.00">beluga/type_traits</text>
<text text-anchor="middle" x="452" y="-242.5" font-family="Helvetica,sans-Serif" font-size="10.00">/particle_traits.hpp</text>
</a>
</g>
</g>
<!-- Node7&#45;&gt;Node13 -->
<g id="edge13" class="edge">
<title>Node7&#45;&gt;Node13</title>
<path fill="none" stroke="midnightblue" d="M809.81,-302.49C746.05,-293.46 642.42,-278.77 553,-266 541.15,-264.31 528.52,-262.5 516.34,-260.75"/>
<polygon fill="midnightblue" stroke="midnightblue" points="516.64,-257.26 506.25,-259.3 515.65,-264.19 516.64,-257.26"/>
</g>
<!-- Node24 -->
<g id="node24" class="node">
<title>Node24</title>
<g id="a_node24"><a xlink:href="particles_8hpp.html" target="_top" xlink:title="Implementation of views related to particle ranges.">
<polygon fill="none" stroke="black" points="1007.5,-179.5 1007.5,-198.5 1154.5,-198.5 1154.5,-179.5 1007.5,-179.5"/>
<text text-anchor="middle" x="1081" y="-186.5" font-family="Helvetica,sans-Serif" font-size="10.00">beluga/views/particles.hpp</text>
</a>
</g>
</g>
<!-- Node7&#45;&gt;Node24 -->
<g id="edge28" class="edge">
<title>Node7&#45;&gt;Node24</title>
<path fill="none" stroke="midnightblue" d="M903.03,-302.46C928.65,-295.01 964.48,-282.77 993,-266 1000.78,-261.42 1040.67,-226.13 1063.98,-205.28"/>
<polygon fill="midnightblue" stroke="midnightblue" points="1066.34,-207.86 1071.46,-198.58 1061.67,-202.65 1066.34,-207.86"/>
</g>
<!-- Node14 -->
<g id="node14" class="node">
<title>Node14</title>
<g id="a_node14"><a xlink:href="primitives_8hpp.html" target="_top" xlink:title="Implementation of library primitives to abstract member access.">
<polygon fill="none" stroke="black" points="375.5,-123.5 375.5,-142.5 498.5,-142.5 498.5,-123.5 375.5,-123.5"/>
<text text-anchor="middle" x="437" y="-130.5" font-family="Helvetica,sans-Serif" font-size="10.00">beluga/primitives.hpp</text>
</a>
</g>
</g>
<!-- Node13&#45;&gt;Node14 -->
<g id="edge14" class="edge">
<title>Node13&#45;&gt;Node14</title>
<path fill="none" stroke="midnightblue" d="M464.93,-235.49C476.39,-221.29 490.14,-198.66 482,-179 477.08,-167.12 467.33,-156.74 458.17,-148.96"/>
<polygon fill="midnightblue" stroke="midnightblue" points="460.08,-146.01 450.06,-142.56 455.75,-151.51 460.08,-146.01"/>
</g>
<!-- Node20 -->
<g id="node20" class="node">
<title>Node20</title>
<g id="a_node20"><a xlink:href="tuple__traits_8hpp.html" target="_top" xlink:title="Implementation of traits for tuple&#45;like types.">
<polygon fill="none" stroke="black" points="252.5,-56.5 252.5,-86.5 357.5,-86.5 357.5,-56.5 252.5,-56.5"/>
<text text-anchor="start" x="260.5" y="-74.5" font-family="Helvetica,sans-Serif" font-size="10.00">beluga/type_traits</text>
<text text-anchor="middle" x="305" y="-63.5" font-family="Helvetica,sans-Serif" font-size="10.00">/tuple_traits.hpp</text>
</a>
</g>
</g>
<!-- Node13&#45;&gt;Node20 -->
<g id="edge26" class="edge">
<title>Node13&#45;&gt;Node20</title>
<path fill="none" stroke="midnightblue" d="M402.03,-235.42C370.66,-225.57 334.26,-211.9 324,-199 300.81,-169.85 299.85,-124.59 301.95,-96.85"/>
<polygon fill="midnightblue" stroke="midnightblue" points="305.44,-97.09 302.9,-86.8 298.47,-96.43 305.44,-97.09"/>
</g>
<!-- Node23 -->
<g id="node23" class="node">
<title>Node23</title>
<g id="a_node23"><a xlink:title=" ">
<polygon fill="none" stroke="#bfbfbf" points="333,-179.5 333,-198.5 473,-198.5 473,-179.5 333,-179.5"/>
<text text-anchor="middle" x="403" y="-186.5" font-family="Helvetica,sans-Serif" font-size="10.00">range/v3/range/traits.hpp</text>
</a>
</g>
</g>
<!-- Node13&#45;&gt;Node23 -->
<g id="edge27" class="edge">
<title>Node13&#45;&gt;Node23</title>
<path fill="none" stroke="midnightblue" d="M440.39,-235.4C433.27,-226.75 424.12,-215.64 416.65,-206.58"/>
<polygon fill="midnightblue" stroke="midnightblue" points="419.19,-204.15 410.13,-198.66 413.79,-208.6 419.19,-204.15"/>
</g>
<!-- Node15 -->
<g id="node15" class="node">
<title>Node15</title>
<g id="a_node15"><a xlink:title=" ">
<polygon fill="none" stroke="#bfbfbf" points="189.5,-0.5 189.5,-19.5 230.5,-19.5 230.5,-0.5 189.5,-0.5"/>
<text text-anchor="middle" x="210" y="-7.5" font-family="Helvetica,sans-Serif" font-size="10.00">tuple</text>
</a>
</g>
</g>
<!-- Node14&#45;&gt;Node15 -->
<g id="edge15" class="edge">
<title>Node14&#45;&gt;Node15</title>
<path fill="none" stroke="midnightblue" d="M375.16,-131.63C333.56,-128.31 279.79,-117.65 243,-87 225.59,-72.5 217.11,-47.07 213.17,-29.66"/>
<polygon fill="midnightblue" stroke="midnightblue" points="216.54,-28.7 211.18,-19.56 209.68,-30.05 216.54,-28.7"/>
</g>
<!-- Node16 -->
<g id="node16" class="node">
<title>Node16</title>
<g id="a_node16"><a xlink:title=" ">
<polygon fill="none" stroke="#bfbfbf" points="270.5,-0.5 270.5,-19.5 339.5,-19.5 339.5,-0.5 270.5,-0.5"/>
<text text-anchor="middle" x="305" y="-7.5" font-family="Helvetica,sans-Serif" font-size="10.00">type_traits</text>
</a>
</g>
</g>
<!-- Node14&#45;&gt;Node16 -->
<g id="edge16" class="edge">
<title>Node14&#45;&gt;Node16</title>
<path fill="none" stroke="midnightblue" d="M461.47,-123.44C477.57,-116.38 497.38,-104.63 507,-87 513.6,-74.91 515.62,-66.75 507,-56 487.72,-31.95 403.56,-19.93 350.14,-14.61"/>
<polygon fill="midnightblue" stroke="midnightblue" points="350.18,-11.1 339.89,-13.63 349.52,-18.07 350.18,-11.1"/>
</g>
<!-- Node17 -->
<g id="node17" class="node">
<title>Node17</title>
<g id="a_node17"><a xlink:href="strongly__typed__numeric_8hpp.html" target="_top" xlink:title="Implementation of a strongly typed numeric helper.">
<polygon fill="none" stroke="black" points="0,-56.5 0,-86.5 158,-86.5 158,-56.5 0,-56.5"/>
<text text-anchor="start" x="8" y="-74.5" font-family="Helvetica,sans-Serif" font-size="10.00">beluga/type_traits</text>
<text text-anchor="middle" x="79" y="-63.5" font-family="Helvetica,sans-Serif" font-size="10.00">/strongly_typed_numeric.hpp</text>
</a>
</g>
</g>
<!-- Node14&#45;&gt;Node17 -->
<g id="edge17" class="edge">
<title>Node14&#45;&gt;Node17</title>
<path fill="none" stroke="midnightblue" d="M385.71,-123.48C329.04,-114.06 236.75,-98.72 168.19,-87.32"/>
<polygon fill="midnightblue" stroke="midnightblue" points="168.69,-83.86 158.25,-85.67 167.54,-90.76 168.69,-83.86"/>
</g>
<!-- Node14&#45;&gt;Node20 -->
<g id="edge21" class="edge">
<title>Node14&#45;&gt;Node20</title>
<path fill="none" stroke="midnightblue" d="M418.09,-123.48C399.21,-114.96 369.6,-101.62 345.42,-90.72"/>
<polygon fill="midnightblue" stroke="midnightblue" points="346.66,-87.44 336.11,-86.52 343.79,-93.82 346.66,-87.44"/>
</g>
<!-- Node22 -->
<g id="node22" class="node">
<title>Node22</title>
<g id="a_node22"><a xlink:href="forward__like_8hpp_source.html" target="_top" xlink:title=" ">
<polygon fill="none" stroke="black" points="376,-56.5 376,-86.5 498,-86.5 498,-56.5 376,-56.5"/>
<text text-anchor="start" x="384" y="-74.5" font-family="Helvetica,sans-Serif" font-size="10.00">beluga/utility/forward</text>
<text text-anchor="middle" x="437" y="-63.5" font-family="Helvetica,sans-Serif" font-size="10.00">_like.hpp</text>
</a>
</g>
</g>
<!-- Node14&#45;&gt;Node22 -->
<g id="edge25" class="edge">
<title>Node14&#45;&gt;Node22</title>
<path fill="none" stroke="midnightblue" d="M437,-123.48C437,-116.47 437,-106.19 437,-96.7"/>
<polygon fill="midnightblue" stroke="midnightblue" points="440.5,-96.52 437,-86.52 433.5,-96.52 440.5,-96.52"/>
</g>
<!-- Node17&#45;&gt;Node16 -->
<g id="edge20" class="edge">
<title>Node17&#45;&gt;Node16</title>
<path fill="none" stroke="midnightblue" d="M132.27,-56.47C172.11,-45.99 225.86,-31.84 262.75,-22.12"/>
<polygon fill="midnightblue" stroke="midnightblue" points="263.91,-25.44 272.69,-19.51 262.13,-18.67 263.91,-25.44"/>
</g>
<!-- Node18 -->
<g id="node18" class="node">
<title>Node18</title>
<g id="a_node18"><a xlink:title=" ">
<polygon fill="none" stroke="#bfbfbf" points="83.5,-0.5 83.5,-19.5 148.5,-19.5 148.5,-0.5 83.5,-0.5"/>
<text text-anchor="middle" x="116" y="-7.5" font-family="Helvetica,sans-Serif" font-size="10.00">functional</text>
</a>
</g>
</g>
<!-- Node17&#45;&gt;Node18 -->
<g id="edge18" class="edge">
<title>Node17&#45;&gt;Node18</title>
<path fill="none" stroke="midnightblue" d="M87.77,-56.4C92.98,-48.02 99.63,-37.33 105.17,-28.42"/>
<polygon fill="midnightblue" stroke="midnightblue" points="108.31,-30 110.62,-19.66 102.36,-26.3 108.31,-30"/>
</g>
<!-- Node19 -->
<g id="node19" class="node">
<title>Node19</title>
<g id="a_node19"><a xlink:title=" ">
<polygon fill="none" stroke="#bfbfbf" points="21,-0.5 21,-19.5 65,-19.5 65,-0.5 21,-0.5"/>
<text text-anchor="middle" x="43" y="-7.5" font-family="Helvetica,sans-Serif" font-size="10.00">limits</text>
</a>
</g>
</g>
<!-- Node17&#45;&gt;Node19 -->
<g id="edge19" class="edge">
<title>Node17&#45;&gt;Node19</title>
<path fill="none" stroke="midnightblue" d="M70.47,-56.4C65.4,-48.02 58.93,-37.33 53.54,-28.42"/>
<polygon fill="midnightblue" stroke="midnightblue" points="56.41,-26.4 48.24,-19.66 50.42,-30.03 56.41,-26.4"/>
</g>
<!-- Node20&#45;&gt;Node15 -->
<g id="edge22" class="edge">
<title>Node20&#45;&gt;Node15</title>
<path fill="none" stroke="midnightblue" d="M282.49,-56.4C267.4,-46.95 247.61,-34.56 232.53,-25.11"/>
<polygon fill="midnightblue" stroke="midnightblue" points="234.16,-22 223.82,-19.66 230.44,-27.93 234.16,-22"/>
</g>
<!-- Node20&#45;&gt;Node16 -->
<g id="edge23" class="edge">
<title>Node20&#45;&gt;Node16</title>
<path fill="none" stroke="midnightblue" d="M305,-56.4C305,-48.47 305,-38.46 305,-29.86"/>
<polygon fill="midnightblue" stroke="midnightblue" points="308.5,-29.66 305,-19.66 301.5,-29.66 308.5,-29.66"/>
</g>
<!-- Node21 -->
<g id="node21" class="node">
<title>Node21</title>
<g id="a_node21"><a xlink:title=" ">
<polygon fill="none" stroke="#bfbfbf" points="957.5,-0.5 957.5,-19.5 1002.5,-19.5 1002.5,-0.5 957.5,-0.5"/>
<text text-anchor="middle" x="980" y="-7.5" font-family="Helvetica,sans-Serif" font-size="10.00">utility</text>
</a>
</g>
</g>
<!-- Node20&#45;&gt;Node21 -->
<g id="edge24" class="edge">
<title>Node20&#45;&gt;Node21</title>
<path fill="none" stroke="midnightblue" d="M357.66,-57.59C360.81,-57.01 363.94,-56.47 367,-56 586.94,-22.42 855.23,-13.69 947.23,-11.6"/>
<polygon fill="midnightblue" stroke="midnightblue" points="947.39,-15.1 957.31,-11.39 947.24,-8.1 947.39,-15.1"/>
</g>
<!-- Node24&#45;&gt;Node14 -->
<g id="edge29" class="edge">
<title>Node24&#45;&gt;Node14</title>
<path fill="none" stroke="midnightblue" d="M1007.44,-181.83C882.89,-171.39 632.03,-150.35 508.73,-140.01"/>
<polygon fill="midnightblue" stroke="midnightblue" points="508.9,-136.52 498.64,-139.17 508.31,-143.49 508.9,-136.52"/>
</g>
<!-- Node25 -->
<g id="node25" class="node">
<title>Node25</title>
<g id="a_node25"><a xlink:title=" ">
<polygon fill="none" stroke="#bfbfbf" points="1140,-123.5 1140,-142.5 1298,-142.5 1298,-123.5 1140,-123.5"/>
<text text-anchor="middle" x="1219" y="-130.5" font-family="Helvetica,sans-Serif" font-size="10.00">range/v3/view/transform.hpp</text>
</a>
</g>
</g>
<!-- Node24&#45;&gt;Node25 -->
<g id="edge30" class="edge">
<title>Node24&#45;&gt;Node25</title>
<path fill="none" stroke="midnightblue" d="M1102.87,-179.44C1125.78,-170.48 1161.98,-156.31 1187.87,-146.18"/>
<polygon fill="midnightblue" stroke="midnightblue" points="1189.2,-149.42 1197.24,-142.52 1186.65,-142.9 1189.2,-149.42"/>
</g>
<!-- Node26&#45;&gt;Node3 -->
<g id="edge37" class="edge">
<title>Node26&#45;&gt;Node3</title>
<path fill="none" stroke="midnightblue" d="M614.9,-303.62C706.64,-295.13 860.67,-280.48 993,-266 1006.51,-264.52 1020.87,-262.86 1034.78,-261.21"/>
<polygon fill="midnightblue" stroke="midnightblue" points="1035.3,-264.67 1044.81,-260.01 1034.47,-257.72 1035.3,-264.67"/>
</g>
<!-- Node26&#45;&gt;Node8 -->
<g id="edge32" class="edge">
<title>Node26&#45;&gt;Node8</title>
<path fill="none" stroke="midnightblue" d="M614.63,-302.86C674.39,-295.82 757.52,-283.92 829,-266 832.05,-265.24 835.19,-264.34 838.32,-263.36"/>
<polygon fill="midnightblue" stroke="midnightblue" points="839.73,-266.59 848.1,-260.1 837.51,-259.94 839.73,-266.59"/>
</g>
<!-- Node26&#45;&gt;Node9 -->
<g id="edge33" class="edge">
<title>Node26&#45;&gt;Node9</title>
<path fill="none" stroke="midnightblue" d="M614.69,-306.55C691.64,-301.09 810.38,-289.49 911,-266 914.24,-265.24 917.57,-264.32 920.87,-263.31"/>
<polygon fill="midnightblue" stroke="midnightblue" points="922.18,-266.56 930.56,-260.09 919.97,-259.92 922.18,-266.56"/>
</g>
<!-- Node26&#45;&gt;Node12 -->
<g id="edge39" class="edge">
<title>Node26&#45;&gt;Node12</title>
<path fill="none" stroke="midnightblue" d="M501.05,-302.48C460.4,-291.96 391.21,-274.06 346.58,-262.51"/>
<polygon fill="midnightblue" stroke="midnightblue" points="347.45,-259.13 336.89,-260.01 345.7,-265.9 347.45,-259.13"/>
</g>
<!-- Node26&#45;&gt;Node13 -->
<g id="edge35" class="edge">
<title>Node26&#45;&gt;Node13</title>
<path fill="none" stroke="midnightblue" d="M522.25,-302.48C511.15,-294.42 494.07,-282.02 479.53,-271.47"/>
<polygon fill="midnightblue" stroke="midnightblue" points="481.48,-268.56 471.33,-265.52 477.36,-274.23 481.48,-268.56"/>
</g>
<!-- Node26&#45;&gt;Node16 -->
<g id="edge34" class="edge">
<title>Node26&#45;&gt;Node16</title>
<path fill="none" stroke="midnightblue" d="M453.36,-309.33C322.47,-305.78 75.65,-295.24 49,-266 3.7,-216.31 213.79,-71.02 283.3,-25.09"/>
<polygon fill="midnightblue" stroke="midnightblue" points="285.34,-27.94 291.78,-19.52 281.5,-22.09 285.34,-27.94"/>
</g>
<!-- Node26&#45;&gt;Node24 -->
<g id="edge36" class="edge">
<title>Node26&#45;&gt;Node24</title>
<path fill="none" stroke="midnightblue" d="M533.24,-302.3C532.37,-286.22 533.12,-251.93 553,-235 586.01,-206.89 856.77,-195.78 997.19,-191.87"/>
<polygon fill="midnightblue" stroke="midnightblue" points="997.58,-195.36 1007.48,-191.59 997.39,-188.36 997.58,-195.36"/>
</g>
<!-- Node27 -->
<g id="node27" class="node">
<title>Node27</title>
<g id="a_node27"><a xlink:title=" ">
<polygon fill="none" stroke="#bfbfbf" points="58,-241 58,-260 210,-260 210,-241 58,-241"/>
<text text-anchor="middle" x="134" y="-248" font-family="Helvetica,sans-Serif" font-size="10.00">range/v3/utility/random.hpp</text>
</a>
</g>
</g>
<!-- Node26&#45;&gt;Node27 -->
<g id="edge38" class="edge">
<title>Node26&#45;&gt;Node27</title>
<path fill="none" stroke="midnightblue" d="M470.87,-302.49C407.22,-293.8 306.19,-279.66 219,-266 210.4,-264.65 201.33,-263.17 192.44,-261.68"/>
<polygon fill="midnightblue" stroke="midnightblue" points="192.95,-258.22 182.51,-260.01 191.79,-265.12 192.95,-258.22"/>
</g>
<!-- Node28&#45;&gt;Node3 -->
<g id="edge50" class="edge">
<title>Node28&#45;&gt;Node3</title>
<path fill="none" stroke="midnightblue" d="M1113,-302.48C1113,-294.08 1113,-280.98 1113,-270.16"/>
<polygon fill="midnightblue" stroke="midnightblue" points="1116.5,-270.01 1113,-260.01 1109.5,-270.01 1116.5,-270.01"/>
</g>
<!-- Node28&#45;&gt;Node8 -->
<g id="edge41" class="edge">
<title>Node28&#45;&gt;Node8</title>
<path fill="none" stroke="midnightblue" d="M1067.28,-302.45C1026.07,-294.37 964.01,-281.22 911,-266 908.21,-265.2 905.33,-264.31 902.46,-263.38"/>
<polygon fill="midnightblue" stroke="midnightblue" points="903.42,-260.01 892.83,-260.12 901.18,-266.64 903.42,-260.01"/>
</g>
<!-- Node28&#45;&gt;Node9 -->
<g id="edge42" class="edge">
<title>Node28&#45;&gt;Node9</title>
<path fill="none" stroke="midnightblue" d="M1089.93,-302.48C1062.32,-292.27 1015.88,-275.11 984.6,-263.55"/>
<polygon fill="midnightblue" stroke="midnightblue" points="985.62,-260.19 975.02,-260.01 983.19,-266.76 985.62,-260.19"/>
</g>
<!-- Node28&#45;&gt;Node13 -->
<g id="edge44" class="edge">
<title>Node28&#45;&gt;Node13</title>
<path fill="none" stroke="midnightblue" d="M1035.4,-306.3C927.16,-299.4 724.81,-285.22 553,-266 541.1,-264.67 528.45,-263.03 516.27,-261.34"/>
<polygon fill="midnightblue" stroke="midnightblue" points="516.56,-257.85 506.17,-259.91 515.58,-264.78 516.56,-257.85"/>
</g>
<!-- Node28&#45;&gt;Node16 -->
<g id="edge43" class="edge">
<title>Node28&#45;&gt;Node16</title>
<path fill="none" stroke="midnightblue" d="M1190.89,-308.56C1310.3,-303.99 1527.38,-292.17 1551,-266 1560.23,-255.77 1558.44,-246.6 1551,-235 1417.62,-27.01 557.39,-11.58 349.96,-10.9"/>
<polygon fill="midnightblue" stroke="midnightblue" points="349.74,-7.4 339.74,-10.88 349.73,-14.4 349.74,-7.4"/>
</g>
<!-- Node28&#45;&gt;Node24 -->
<g id="edge49" class="edge">
<title>Node28&#45;&gt;Node24</title>
<path fill="none" stroke="midnightblue" d="M1144.81,-302.38C1162.95,-295.66 1184.16,-284.31 1195,-266 1202.02,-254.14 1202.75,-246.39 1195,-235 1183.89,-218.67 1165.85,-208.27 1147.37,-201.64"/>
<polygon fill="midnightblue" stroke="midnightblue" points="1148.29,-198.26 1137.69,-198.5 1146.13,-204.92 1148.29,-198.26"/>
</g>
<!-- Node29 -->
<g id="node29" class="node">
<title>Node29</title>
<g id="a_node29"><a xlink:href="likelihoods_8hpp.html" target="_top" xlink:title="Implementation of the likelihoods range adaptor object.">
<polygon fill="none" stroke="black" points="1384,-241 1384,-260 1542,-260 1542,-241 1384,-241"/>
<text text-anchor="middle" x="1463" y="-248" font-family="Helvetica,sans-Serif" font-size="10.00">beluga/views/likelihoods.hpp</text>
</a>
</g>
</g>
<!-- Node28&#45;&gt;Node29 -->
<g id="edge45" class="edge">
<title>Node28&#45;&gt;Node29</title>
<path fill="none" stroke="midnightblue" d="M1163.15,-302.48C1226.43,-291.72 1335.17,-273.23 1402.86,-261.72"/>
<polygon fill="midnightblue" stroke="midnightblue" points="1403.67,-265.14 1412.95,-260.01 1402.5,-258.23 1403.67,-265.14"/>
</g>
<!-- Node30 -->
<g id="node30" class="node">
<title>Node30</title>
<g id="a_node30"><a xlink:title=" ">
<polygon fill="none" stroke="#bfbfbf" points="1242,-241 1242,-260 1366,-260 1366,-241 1242,-241"/>
<text text-anchor="middle" x="1304" y="-248" font-family="Helvetica,sans-Serif" font-size="10.00">range/v3/view/zip.hpp</text>
</a>
</g>
</g>
<!-- Node28&#45;&gt;Node30 -->
<g id="edge51" class="edge">
<title>Node28&#45;&gt;Node30</title>
<path fill="none" stroke="midnightblue" d="M1140.37,-302.48C1173.55,-292.14 1229.65,-274.66 1266.76,-263.1"/>
<polygon fill="midnightblue" stroke="midnightblue" points="1268.18,-266.32 1276.69,-260.01 1266.1,-259.64 1268.18,-266.32"/>
</g>
<!-- Node29&#45;&gt;Node21 -->
<g id="edge46" class="edge">
<title>Node29&#45;&gt;Node21</title>
<path fill="none" stroke="midnightblue" d="M1454.66,-240.89C1432.56,-218.5 1369.84,-157.79 1307,-123 1206.26,-67.22 1072.81,-32.13 1012.29,-18.06"/>
<polygon fill="midnightblue" stroke="midnightblue" points="1013.07,-14.65 1002.54,-15.83 1011.51,-21.47 1013.07,-14.65"/>
</g>
<!-- Node29&#45;&gt;Node24 -->
<g id="edge47" class="edge">
<title>Node29&#45;&gt;Node24</title>
<path fill="none" stroke="midnightblue" d="M1411.83,-240.97C1399.76,-238.98 1386.93,-236.9 1375,-235 1297.15,-222.63 1207.59,-209.01 1147.98,-200.03"/>
<polygon fill="midnightblue" stroke="midnightblue" points="1148.35,-196.55 1137.94,-198.52 1147.31,-203.47 1148.35,-196.55"/>
</g>
<!-- Node29&#45;&gt;Node25 -->
<g id="edge48" class="edge">
<title>Node29&#45;&gt;Node25</title>
<path fill="none" stroke="midnightblue" d="M1444.66,-240.82C1402.16,-220.7 1296.76,-170.81 1246.5,-147.02"/>
<polygon fill="midnightblue" stroke="midnightblue" points="1247.76,-143.74 1237.22,-142.62 1244.76,-150.07 1247.76,-143.74"/>
</g>
</g>
</svg>
        <g id="navigator" transform="translate(0 0)" fill="#404254">
                <rect fill="#f2f5e9" fill-opacity="0.5" stroke="#606060" stroke-width=".5" x="0" y="0" width="60" height="60"/>
                <use id="zoomplus" xlink:href="#zoomPlus" x="17" y="9" onmousedown="handleZoom(evt,'in')"/>
                <use id="zoomminus" xlink:href="#zoomMin" x="42" y="9" onmousedown="handleZoom(evt,'out')"/>
                <use id="reset" xlink:href="#resetDef" x="30" y="36" onmousedown="handleReset()"/>
                <g id="arrowUp" xlink:href="#dirArrow" transform="translate(30 24)" onmousedown="handlePan(0,-1)">
                  <use xlink:href="#rim" fill="#404040">
                        <set attributeName="fill" to="#808080" begin="arrowUp.mouseover" end="arrowUp.mouseout"/>
                  </use>
                  <path fill="none" stroke="white" stroke-width="1.5" d="M0,-3.0v7 M-2.5,-0.5L0,-3.0L2.5,-0.5"/>
                </g>
                <g id="arrowRight" xlink:href="#dirArrow" transform="rotate(90) translate(36 -43)" onmousedown="handlePan(1,0)">
                  <use xlink:href="#rim" fill="#404040">
                        <set attributeName="fill" to="#808080" begin="arrowRight.mouseover" end="arrowRight.mouseout"/>
                  </use>
                  <path fill="none" stroke="white" stroke-width="1.5" d="M0,-3.0v7 M-2.5,-0.5L0,-3.0L2.5,-0.5"/>
                </g>
                <g id="arrowDown" xlink:href="#dirArrow" transform="rotate(180) translate(-30 -48)" onmousedown="handlePan(0,1)">
                  <use xlink:href="#rim" fill="#404040">
                        <set attributeName="fill" to="#808080" begin="arrowDown.mouseover" end="arrowDown.mouseout"/>
                  </use>
                  <path fill="none" stroke="white" stroke-width="1.5" d="M0,-3.0v7 M-2.5,-0.5L0,-3.0L2.5,-0.5"/>
                </g>
                <g id="arrowLeft" xlink:href="#dirArrow" transform="rotate(270) translate(-36 17)" onmousedown="handlePan(-1,0)">
                  <use xlink:href="#rim" fill="#404040">
                        <set attributeName="fill" to="#808080" begin="arrowLeft.mouseover" end="arrowLeft.mouseout"/>
                  </use>
                  <path fill="none" stroke="white" stroke-width="1.5" d="M0,-3.0v7 M-2.5,-0.5L0,-3.0L2.5,-0.5"/>
                </g>
        </g>
        <svg viewBox="0 0 15 15" width="100%" height="30px" preserveAspectRatio="xMaxYMin meet">
         <g id="arrow_out" transform="scale(0.3 0.3)">
          <a xlink:href="actions_8hpp__incl_org.svg" target="_base">
           <rect id="button" ry="5" rx="5" y="6" x="6" height="38" width="38"
                fill="#f2f5e9" fill-opacity="0.5" stroke="#606060" stroke-width="1.0"/>
           <path id="arrow"
             d="M 11.500037,31.436501 C 11.940474,20.09759 22.043105,11.32322 32.158766,21.979434 L 37.068811,17.246167 C 37.068811,17.246167 37.088388,32 37.088388,32 L 22.160133,31.978069 C 22.160133,31.978069 26.997745,27.140456 26.997745,27.140456 C 18.528582,18.264221 13.291696,25.230495 11.500037,31.436501 z"
             style="fill:#404040;"/>
          </a>
         </g>
        </svg>
</svg>
