<?xml version="1.0" encoding="UTF-8" standalone="no"?>
<!DOCTYPE svg PUBLIC "-//W3C//DTD SVG 1.1//EN"
 "http://www.w3.org/Graphics/SVG/1.1/DTD/svg11.dtd">
<!-- Generated by graphviz version 2.43.0 (0)
 -->
<!-- Title: /home/runner/work/beluga/beluga/beluga/include/beluga/actions.hpp Pages: 1 -->
<!--zoomable 352 -->
<svg id="main" version="1.1" xmlns="http://www.w3.org/2000/svg" xmlns:xlink="http://www.w3.org/1999/xlink" xml:space="preserve" onload="init(evt)">
<style type="text/css"><![CDATA[
.edge:hover path { stroke: red; }
.edge:hover polygon { stroke: red; fill: red; }
]]></style>
<script type="text/javascript"><![CDATA[
var edges = document.getElementsByTagName('g');
if (edges && edges.length) {
  for (var i=0;i<edges.length;i++) {
    if (edges[i].id.substr(0,4)=='edge') {
      edges[i].setAttribute('class','edge');
    }
  }
}
]]></script>
        <defs>
                <circle id="rim" cx="0" cy="0" r="7"/>
                <circle id="rim2" cx="0" cy="0" r="3.5"/>
                <g id="zoomPlus">
                        <use xlink:href="#rim" fill="#404040">
                                <set attributeName="fill" to="#808080" begin="zoomplus.mouseover" end="zoomplus.mouseout"/>
                        </use>
                        <path d="M-4,0h8M0,-4v8" fill="none" stroke="white" stroke-width="1.5" pointer-events="none"/>
                </g>
                <g id="zoomMin">
                        <use xlink:href="#rim" fill="#404040">
                                <set attributeName="fill" to="#808080" begin="zoomminus.mouseover" end="zoomminus.mouseout"/>
                        </use>
                        <path d="M-4,0h8" fill="none" stroke="white" stroke-width="1.5" pointer-events="none"/>
                </g>
                <g id="dirArrow">
                        <path fill="none" stroke="white" stroke-width="1.5" d="M0,-3.0v7 M-2.5,-0.5L0,-3.0L2.5,-0.5"/>
                </g>
               <g id="resetDef">
                       <use xlink:href="#rim2" fill="#404040">
                               <set attributeName="fill" to="#808080" begin="reset.mouseover" end="reset.mouseout"/>
                       </use>
               </g>
        </defs>

<script type="text/javascript">
var viewWidth = 1857;
var viewHeight = 352;
var sectionId = 'dynsection-0';
</script>
<script xlink:href="svgpan.js"/>
<svg id="graph" class="graph">
<g id="viewport">
<title>/home/runner/work/beluga/beluga/beluga/include/beluga/actions.hpp</title>
<!-- Node1 -->
<g id="node1" class="node">
<title>Node1</title>
<g id="a_node1"><a xlink:title="Implementation of useful range actions.">
<polygon fill="#bfbfbf" stroke="black" points="1059,-302.5 1059,-343.5 1204,-343.5 1204,-302.5 1059,-302.5"/>
<text text-anchor="start" x="1067" y="-331.5" font-family="Helvetica,sans-Serif" font-size="10.00">/home/runner/work/beluga</text>
<text text-anchor="start" x="1067" y="-320.5" font-family="Helvetica,sans-Serif" font-size="10.00">/beluga/beluga/include</text>
<text text-anchor="middle" x="1131.5" y="-309.5" font-family="Helvetica,sans-Serif" font-size="10.00">/beluga/actions.hpp</text>
</a>
</g>
</g>
<!-- Node2 -->
<g id="node2" class="node">
<title>Node2</title>
<g id="a_node2"><a xlink:href="assign_8hpp.html" target="_top" xlink:title="Implementation of the assign range adaptor object.">
<polygon fill="none" stroke="black" points="309,-246.5 309,-265.5 452,-265.5 452,-246.5 309,-246.5"/>
<text text-anchor="middle" x="380.5" y="-253.5" font-family="Helvetica,sans-Serif" font-size="10.00">beluga/actions/assign.hpp</text>
</a>
</g>
</g>
<!-- Node1&#45;&gt;Node2 -->
<g id="edge1" class="edge">
<title>Node1&#45;&gt;Node2</title>
<path fill="none" stroke="midnightblue" d="M1058.81,-315.71C918.25,-303.54 610.08,-276.87 462.48,-264.1"/>
<polygon fill="midnightblue" stroke="midnightblue" points="462.39,-260.58 452.13,-263.2 461.79,-267.55 462.39,-260.58"/>
</g>
<!-- Node7 -->
<g id="node7" class="node">
<title>Node7</title>
<g id="a_node7"><a xlink:href="normalize_8hpp.html" target="_top" xlink:title="Implementation of the normalize range adaptor object.">
<polygon fill="none" stroke="black" points="963,-246.5 963,-265.5 1124,-265.5 1124,-246.5 963,-246.5"/>
<text text-anchor="middle" x="1043.5" y="-253.5" font-family="Helvetica,sans-Serif" font-size="10.00">beluga/actions/normalize.hpp</text>
</a>
</g>
</g>
<!-- Node1&#45;&gt;Node7 -->
<g id="edge6" class="edge">
<title>Node1&#45;&gt;Node7</title>
<path fill="none" stroke="midnightblue" d="M1105.1,-302.5C1091.73,-292.63 1075.78,-280.84 1063.46,-271.74"/>
<polygon fill="midnightblue" stroke="midnightblue" points="1065.34,-268.78 1055.21,-265.65 1061.18,-274.41 1065.34,-268.78"/>
</g>
<!-- Node26 -->
<g id="node26" class="node">
<title>Node26</title>
<g id="a_node26"><a xlink:href="propagate_8hpp.html" target="_top" xlink:title="Implementation of the propagate range adaptor object.">
<polygon fill="none" stroke="black" points="1315,-246.5 1315,-265.5 1476,-265.5 1476,-246.5 1315,-246.5"/>
<text text-anchor="middle" x="1395.5" y="-253.5" font-family="Helvetica,sans-Serif" font-size="10.00">beluga/actions/propagate.hpp</text>
</a>
</g>
</g>
<!-- Node1&#45;&gt;Node26 -->
<g id="edge31" class="edge">
<title>Node1&#45;&gt;Node26</title>
<path fill="none" stroke="midnightblue" d="M1204.34,-304.07C1251.33,-292.5 1310.94,-277.82 1350.99,-267.96"/>
<polygon fill="midnightblue" stroke="midnightblue" points="1351.86,-271.35 1360.73,-265.56 1350.19,-264.55 1351.86,-271.35"/>
</g>
<!-- Node28 -->
<g id="node28" class="node">
<title>Node28</title>
<g id="a_node28"><a xlink:href="reweight_8hpp.html" target="_top" xlink:title="Implementation of the reweight range adaptor object.">
<polygon fill="none" stroke="black" points="1142,-246.5 1142,-265.5 1297,-265.5 1297,-246.5 1142,-246.5"/>
<text text-anchor="middle" x="1219.5" y="-253.5" font-family="Helvetica,sans-Serif" font-size="10.00">beluga/actions/reweight.hpp</text>
</a>
</g>
</g>
<!-- Node1&#45;&gt;Node28 -->
<g id="edge40" class="edge">
<title>Node1&#45;&gt;Node28</title>
<path fill="none" stroke="midnightblue" d="M1157.9,-302.5C1171.27,-292.63 1187.22,-280.84 1199.54,-271.74"/>
<polygon fill="midnightblue" stroke="midnightblue" points="1201.82,-274.41 1207.79,-265.65 1197.66,-268.78 1201.82,-274.41"/>
</g>
<!-- Node3 -->
<g id="node3" class="node">
<title>Node3</title>
<g id="a_node3"><a xlink:title=" ">
<polygon fill="none" stroke="#bfbfbf" points="740.5,-185 740.5,-204 886.5,-204 886.5,-185 740.5,-185"/>
<text text-anchor="middle" x="813.5" y="-192" font-family="Helvetica,sans-Serif" font-size="10.00">range/v3/action/action.hpp</text>
</a>
</g>
</g>
<!-- Node2&#45;&gt;Node3 -->
<g id="edge2" class="edge">
<title>Node2&#45;&gt;Node3</title>
<path fill="none" stroke="midnightblue" d="M452.02,-246.76C522.85,-238.38 634.34,-224.57 730.5,-210 738.92,-208.72 747.8,-207.28 756.5,-205.81"/>
<polygon fill="midnightblue" stroke="midnightblue" points="757.33,-209.22 766.59,-204.07 756.14,-202.32 757.33,-209.22"/>
</g>
<!-- Node4 -->
<g id="node4" class="node">
<title>Node4</title>
<g id="a_node4"><a xlink:title=" ">
<polygon fill="none" stroke="#bfbfbf" points="0,-179.5 0,-209.5 111,-209.5 111,-179.5 0,-179.5"/>
<text text-anchor="start" x="8" y="-197.5" font-family="Helvetica,sans-Serif" font-size="10.00">range/v3/functional</text>
<text text-anchor="middle" x="55.5" y="-186.5" font-family="Helvetica,sans-Serif" font-size="10.00">/bind_back.hpp</text>
</a>
</g>
</g>
<!-- Node2&#45;&gt;Node4 -->
<g id="edge3" class="edge">
<title>Node2&#45;&gt;Node4</title>
<path fill="none" stroke="midnightblue" d="M326.11,-246.47C275.48,-238.34 197.68,-225.36 121.55,-210.36"/>
<polygon fill="midnightblue" stroke="midnightblue" points="121.8,-206.84 111.31,-208.32 120.44,-213.7 121.8,-206.84"/>
</g>
<!-- Node5 -->
<g id="node5" class="node">
<title>Node5</title>
<g id="a_node5"><a xlink:title=" ">
<polygon fill="none" stroke="#bfbfbf" points="129,-185 129,-204 296,-204 296,-185 129,-185"/>
<text text-anchor="middle" x="212.5" y="-192" font-family="Helvetica,sans-Serif" font-size="10.00">range/v3/range/conversion.hpp</text>
</a>
</g>
</g>
<!-- Node2&#45;&gt;Node5 -->
<g id="edge4" class="edge">
<title>Node2&#45;&gt;Node5</title>
<path fill="none" stroke="midnightblue" d="M356.43,-246.48C327.49,-236.22 278.74,-218.96 246.1,-207.4"/>
<polygon fill="midnightblue" stroke="midnightblue" points="247.12,-204.05 236.53,-204.01 244.78,-210.65 247.12,-204.05"/>
</g>
<!-- Node6 -->
<g id="node6" class="node">
<title>Node6</title>
<g id="a_node6"><a xlink:title=" ">
<polygon fill="none" stroke="#bfbfbf" points="314.5,-185 314.5,-204 446.5,-204 446.5,-185 314.5,-185"/>
<text text-anchor="middle" x="380.5" y="-192" font-family="Helvetica,sans-Serif" font-size="10.00">range/v3/view/view.hpp</text>
</a>
</g>
</g>
<!-- Node2&#45;&gt;Node6 -->
<g id="edge5" class="edge">
<title>Node2&#45;&gt;Node6</title>
<path fill="none" stroke="midnightblue" d="M380.5,-246.48C380.5,-238.08 380.5,-224.98 380.5,-214.16"/>
<polygon fill="midnightblue" stroke="midnightblue" points="384,-214.01 380.5,-204.01 377,-214.01 384,-214.01"/>
</g>
<!-- Node7&#45;&gt;Node3 -->
<g id="edge10" class="edge">
<title>Node7&#45;&gt;Node3</title>
<path fill="none" stroke="midnightblue" d="M1010.55,-246.48C969.9,-235.96 900.71,-218.06 856.08,-206.51"/>
<polygon fill="midnightblue" stroke="midnightblue" points="856.95,-203.13 846.39,-204.01 855.2,-209.9 856.95,-203.13"/>
</g>
<!-- Node8 -->
<g id="node8" class="node">
<title>Node8</title>
<g id="a_node8"><a xlink:title=" ">
<polygon fill="none" stroke="#bfbfbf" points="1328.5,-185 1328.5,-204 1392.5,-204 1392.5,-185 1328.5,-185"/>
<text text-anchor="middle" x="1360.5" y="-192" font-family="Helvetica,sans-Serif" font-size="10.00">algorithm</text>
</a>
</g>
</g>
<!-- Node7&#45;&gt;Node8 -->
<g id="edge7" class="edge">
<title>Node7&#45;&gt;Node8</title>
<path fill="none" stroke="midnightblue" d="M1118.34,-246.47C1174.28,-239.21 1252.36,-227.2 1319.5,-210 1322.55,-209.22 1325.69,-208.31 1328.81,-207.33"/>
<polygon fill="midnightblue" stroke="midnightblue" points="1330.22,-210.55 1338.59,-204.06 1328,-203.91 1330.22,-210.55"/>
</g>
<!-- Node9 -->
<g id="node9" class="node">
<title>Node9</title>
<g id="a_node9"><a xlink:title=" ">
<polygon fill="none" stroke="#bfbfbf" points="1576.5,-185 1576.5,-204 1640.5,-204 1640.5,-185 1576.5,-185"/>
<text text-anchor="middle" x="1608.5" y="-192" font-family="Helvetica,sans-Serif" font-size="10.00">execution</text>
</a>
</g>
</g>
<!-- Node7&#45;&gt;Node9 -->
<g id="edge8" class="edge">
<title>Node7&#45;&gt;Node9</title>
<path fill="none" stroke="midnightblue" d="M1124.02,-246.79C1126.88,-246.52 1129.72,-246.26 1132.5,-246 1325.68,-228.24 1377.82,-250.68 1567.5,-210 1570.93,-209.27 1574.46,-208.32 1577.94,-207.27"/>
<polygon fill="midnightblue" stroke="midnightblue" points="1579.13,-210.56 1587.52,-204.09 1576.93,-203.92 1579.13,-210.56"/>
</g>
<!-- Node10 -->
<g id="node10" class="node">
<title>Node10</title>
<g id="a_node10"><a xlink:title=" ">
<polygon fill="none" stroke="#bfbfbf" points="464.5,-185 464.5,-204 520.5,-204 520.5,-185 464.5,-185"/>
<text text-anchor="middle" x="492.5" y="-192" font-family="Helvetica,sans-Serif" font-size="10.00">optional</text>
</a>
</g>
</g>
<!-- Node7&#45;&gt;Node10 -->
<g id="edge9" class="edge">
<title>Node7&#45;&gt;Node10</title>
<path fill="none" stroke="midnightblue" d="M962.69,-255.02C860.49,-253.43 679.72,-245.24 529.5,-210 526.67,-209.34 523.76,-208.5 520.89,-207.56"/>
<polygon fill="midnightblue" stroke="midnightblue" points="521.96,-204.23 511.37,-204.09 519.57,-210.8 521.96,-204.23"/>
</g>
<!-- Node11 -->
<g id="node11" class="node">
<title>Node11</title>
<g id="a_node11"><a xlink:title=" ">
<polygon fill="none" stroke="#bfbfbf" points="539,-185 539,-204 722,-204 722,-185 539,-185"/>
<text text-anchor="middle" x="630.5" y="-192" font-family="Helvetica,sans-Serif" font-size="10.00">range/v3/numeric/accumulate.hpp</text>
</a>
</g>
</g>
<!-- Node7&#45;&gt;Node11 -->
<g id="edge11" class="edge">
<title>Node7&#45;&gt;Node11</title>
<path fill="none" stroke="midnightblue" d="M984.33,-246.48C909.04,-235.63 779.22,-216.93 699.51,-205.44"/>
<polygon fill="midnightblue" stroke="midnightblue" points="699.96,-201.97 689.56,-204.01 698.96,-208.9 699.96,-201.97"/>
</g>
<!-- Node12 -->
<g id="node12" class="node">
<title>Node12</title>
<g id="a_node12"><a xlink:title=" ">
<polygon fill="none" stroke="#bfbfbf" points="904.5,-185 904.5,-204 1056.5,-204 1056.5,-185 904.5,-185"/>
<text text-anchor="middle" x="980.5" y="-192" font-family="Helvetica,sans-Serif" font-size="10.00">range/v3/view/common.hpp</text>
</a>
</g>
</g>
<!-- Node7&#45;&gt;Node12 -->
<g id="edge12" class="edge">
<title>Node7&#45;&gt;Node12</title>
<path fill="none" stroke="midnightblue" d="M1034.47,-246.48C1024.74,-237.28 1009.04,-222.46 997.08,-211.16"/>
<polygon fill="midnightblue" stroke="midnightblue" points="999.18,-208.33 989.51,-204.01 994.38,-213.42 999.18,-208.33"/>
</g>
<!-- Node13 -->
<g id="node13" class="node">
<title>Node13</title>
<g id="a_node13"><a xlink:href="particle__traits_8hpp.html" target="_top" xlink:title="Implementation of traits for particle types, see the Particle named requirements.">
<polygon fill="none" stroke="black" points="1074.5,-179.5 1074.5,-209.5 1182.5,-209.5 1182.5,-179.5 1074.5,-179.5"/>
<text text-anchor="start" x="1082.5" y="-197.5" font-family="Helvetica,sans-Serif" font-size="10.00">beluga/type_traits</text>
<text text-anchor="middle" x="1128.5" y="-186.5" font-family="Helvetica,sans-Serif" font-size="10.00">/particle_traits.hpp</text>
</a>
</g>
</g>
<!-- Node7&#45;&gt;Node13 -->
<g id="edge13" class="edge">
<title>Node7&#45;&gt;Node13</title>
<path fill="none" stroke="midnightblue" d="M1055.68,-246.48C1067.19,-238.42 1084.9,-226.02 1099.97,-215.47"/>
<polygon fill="midnightblue" stroke="midnightblue" points="1102.28,-218.12 1108.47,-209.52 1098.27,-212.39 1102.28,-218.12"/>
</g>
<!-- Node24 -->
<g id="node24" class="node">
<title>Node24</title>
<g id="a_node24"><a xlink:href="particles_8hpp.html" target="_top" xlink:title="Implementation of views related to particle ranges.">
<polygon fill="none" stroke="black" points="1411,-185 1411,-204 1558,-204 1558,-185 1411,-185"/>
<text text-anchor="middle" x="1484.5" y="-192" font-family="Helvetica,sans-Serif" font-size="10.00">beluga/views/particles.hpp</text>
</a>
</g>
</g>
<!-- Node7&#45;&gt;Node24 -->
<g id="edge28" class="edge">
<title>Node7&#45;&gt;Node24</title>
<path fill="none" stroke="midnightblue" d="M1119.77,-246.49C1192.35,-238.13 1304.55,-224.55 1401.5,-210 1410.12,-208.71 1419.22,-207.23 1428.12,-205.72"/>
<polygon fill="midnightblue" stroke="midnightblue" points="1428.77,-209.16 1438.03,-204.02 1427.58,-202.26 1428.77,-209.16"/>
</g>
<!-- Node14 -->
<g id="node14" class="node">
<title>Node14</title>
<g id="a_node14"><a xlink:href="primitives_8hpp.html" target="_top" xlink:title="Implementation of library primitives to abstract member access.">
<polygon fill="none" stroke="black" points="1289,-123.5 1289,-142.5 1412,-142.5 1412,-123.5 1289,-123.5"/>
<text text-anchor="middle" x="1350.5" y="-130.5" font-family="Helvetica,sans-Serif" font-size="10.00">beluga/primitives.hpp</text>
</a>
</g>
</g>
<!-- Node13&#45;&gt;Node14 -->
<g id="edge14" class="edge">
<title>Node13&#45;&gt;Node14</title>
<path fill="none" stroke="midnightblue" d="M1180.83,-179.47C1219.97,-168.99 1272.76,-154.84 1309,-145.12"/>
<polygon fill="midnightblue" stroke="midnightblue" points="1310.01,-148.48 1318.76,-142.51 1308.2,-141.71 1310.01,-148.48"/>
</g>
<!-- Node20 -->
<g id="node20" class="node">
<title>Node20</title>
<g id="a_node20"><a xlink:href="tuple__traits_8hpp.html" target="_top" xlink:title="Implementation of traits for tuple&#45;like types.">
<polygon fill="none" stroke="black" points="1077,-56.5 1077,-86.5 1182,-86.5 1182,-56.5 1077,-56.5"/>
<text text-anchor="start" x="1085" y="-74.5" font-family="Helvetica,sans-Serif" font-size="10.00">beluga/type_traits</text>
<text text-anchor="middle" x="1129.5" y="-63.5" font-family="Helvetica,sans-Serif" font-size="10.00">/tuple_traits.hpp</text>
</a>
</g>
</g>
<!-- Node13&#45;&gt;Node20 -->
<g id="edge26" class="edge">
<title>Node13&#45;&gt;Node20</title>
<path fill="none" stroke="midnightblue" d="M1125.63,-179.47C1123.08,-165.25 1119.96,-142.62 1121.5,-123 1122.19,-114.29 1123.53,-104.81 1124.92,-96.44"/>
<polygon fill="midnightblue" stroke="midnightblue" points="1128.37,-97.03 1126.66,-86.58 1121.47,-95.82 1128.37,-97.03"/>
</g>
<!-- Node23 -->
<g id="node23" class="node">
<title>Node23</title>
<g id="a_node23"><a xlink:title=" ">
<polygon fill="none" stroke="#bfbfbf" points="1130.5,-123.5 1130.5,-142.5 1270.5,-142.5 1270.5,-123.5 1130.5,-123.5"/>
<text text-anchor="middle" x="1200.5" y="-130.5" font-family="Helvetica,sans-Serif" font-size="10.00">range/v3/range/traits.hpp</text>
</a>
</g>
</g>
<!-- Node13&#45;&gt;Node23 -->
<g id="edge27" class="edge">
<title>Node13&#45;&gt;Node23</title>
<path fill="none" stroke="midnightblue" d="M1145.56,-179.4C1156.56,-170.31 1170.87,-158.49 1182.12,-149.19"/>
<polygon fill="midnightblue" stroke="midnightblue" points="1184.54,-151.73 1190.02,-142.66 1180.09,-146.33 1184.54,-151.73"/>
</g>
<!-- Node15 -->
<g id="node15" class="node">
<title>Node15</title>
<g id="a_node15"><a xlink:title=" ">
<polygon fill="none" stroke="#bfbfbf" points="1240,-0.5 1240,-19.5 1281,-19.5 1281,-0.5 1240,-0.5"/>
<text text-anchor="middle" x="1260.5" y="-7.5" font-family="Helvetica,sans-Serif" font-size="10.00">tuple</text>
</a>
</g>
</g>
<!-- Node14&#45;&gt;Node15 -->
<g id="edge15" class="edge">
<title>Node14&#45;&gt;Node15</title>
<path fill="none" stroke="midnightblue" d="M1350.36,-123.15C1349.7,-108 1346.47,-76.73 1331.5,-56 1321.2,-41.73 1304.85,-30.92 1290.43,-23.48"/>
<polygon fill="midnightblue" stroke="midnightblue" points="1291.85,-20.27 1281.32,-19.07 1288.8,-26.58 1291.85,-20.27"/>
</g>
<!-- Node16 -->
<g id="node16" class="node">
<title>Node16</title>
<g id="a_node16"><a xlink:title=" ">
<polygon fill="none" stroke="#bfbfbf" points="1522,-0.5 1522,-19.5 1591,-19.5 1591,-0.5 1522,-0.5"/>
<text text-anchor="middle" x="1556.5" y="-7.5" font-family="Helvetica,sans-Serif" font-size="10.00">type_traits</text>
</a>
</g>
</g>
<!-- Node14&#45;&gt;Node16 -->
<g id="edge16" class="edge">
<title>Node14&#45;&gt;Node16</title>
<path fill="none" stroke="midnightblue" d="M1400.77,-123.42C1455.21,-113.67 1535.65,-97.71 1545.5,-87 1559.51,-71.78 1560.58,-47.08 1559.24,-29.99"/>
<polygon fill="midnightblue" stroke="midnightblue" points="1562.67,-29.13 1558.07,-19.59 1555.71,-29.92 1562.67,-29.13"/>
</g>
<!-- Node17 -->
<g id="node17" class="node">
<title>Node17</title>
<g id="a_node17"><a xlink:href="strongly__typed__numeric_8hpp.html" target="_top" xlink:title="Implementation of a strongly typed numeric helper.">
<polygon fill="none" stroke="black" points="1378.5,-56.5 1378.5,-86.5 1536.5,-86.5 1536.5,-56.5 1378.5,-56.5"/>
<text text-anchor="start" x="1386.5" y="-74.5" font-family="Helvetica,sans-Serif" font-size="10.00">beluga/type_traits</text>
<text text-anchor="middle" x="1457.5" y="-63.5" font-family="Helvetica,sans-Serif" font-size="10.00">/strongly_typed_numeric.hpp</text>
</a>
</g>
</g>
<!-- Node14&#45;&gt;Node17 -->
<g id="edge17" class="edge">
<title>Node14&#45;&gt;Node17</title>
<path fill="none" stroke="midnightblue" d="M1365.83,-123.48C1380.8,-115.15 1404.08,-102.21 1423.43,-91.45"/>
<polygon fill="midnightblue" stroke="midnightblue" points="1425.24,-94.44 1432.28,-86.52 1421.84,-88.32 1425.24,-94.44"/>
</g>
<!-- Node14&#45;&gt;Node20 -->
<g id="edge21" class="edge">
<title>Node14&#45;&gt;Node20</title>
<path fill="none" stroke="midnightblue" d="M1318.84,-123.48C1285.69,-114.55 1232.79,-100.31 1191.32,-89.14"/>
<polygon fill="midnightblue" stroke="midnightblue" points="1192.15,-85.74 1181.59,-86.52 1190.33,-92.5 1192.15,-85.74"/>
</g>
<!-- Node22 -->
<g id="node22" class="node">
<title>Node22</title>
<g id="a_node22"><a xlink:href="forward__like_8hpp_source.html" target="_top" xlink:title=" ">
<polygon fill="none" stroke="black" points="1200.5,-56.5 1200.5,-86.5 1322.5,-86.5 1322.5,-56.5 1200.5,-56.5"/>
<text text-anchor="start" x="1208.5" y="-74.5" font-family="Helvetica,sans-Serif" font-size="10.00">beluga/utility/forward</text>
<text text-anchor="middle" x="1261.5" y="-63.5" font-family="Helvetica,sans-Serif" font-size="10.00">_like.hpp</text>
</a>
</g>
</g>
<!-- Node14&#45;&gt;Node22 -->
<g id="edge25" class="edge">
<title>Node14&#45;&gt;Node22</title>
<path fill="none" stroke="midnightblue" d="M1337.75,-123.48C1325.58,-115.34 1306.81,-102.79 1290.94,-92.18"/>
<polygon fill="midnightblue" stroke="midnightblue" points="1292.73,-89.17 1282.48,-86.52 1288.84,-94.99 1292.73,-89.17"/>
</g>
<!-- Node17&#45;&gt;Node16 -->
<g id="edge20" class="edge">
<title>Node17&#45;&gt;Node16</title>
<path fill="none" stroke="midnightblue" d="M1480.96,-56.4C1496.83,-46.86 1517.69,-34.32 1533.47,-24.84"/>
<polygon fill="midnightblue" stroke="midnightblue" points="1535.33,-27.81 1542.09,-19.66 1531.72,-21.81 1535.33,-27.81"/>
</g>
<!-- Node18 -->
<g id="node18" class="node">
<title>Node18</title>
<g id="a_node18"><a xlink:title=" ">
<polygon fill="none" stroke="#bfbfbf" points="1360,-0.5 1360,-19.5 1425,-19.5 1425,-0.5 1360,-0.5"/>
<text text-anchor="middle" x="1392.5" y="-7.5" font-family="Helvetica,sans-Serif" font-size="10.00">functional</text>
</a>
</g>
</g>
<!-- Node17&#45;&gt;Node18 -->
<g id="edge18" class="edge">
<title>Node17&#45;&gt;Node18</title>
<path fill="none" stroke="midnightblue" d="M1442.1,-56.4C1432.26,-47.4 1419.51,-35.72 1409.39,-26.47"/>
<polygon fill="midnightblue" stroke="midnightblue" points="1411.7,-23.83 1401.96,-19.66 1406.97,-28.99 1411.7,-23.83"/>
</g>
<!-- Node19 -->
<g id="node19" class="node">
<title>Node19</title>
<g id="a_node19"><a xlink:title=" ">
<polygon fill="none" stroke="#bfbfbf" points="1443.5,-0.5 1443.5,-19.5 1487.5,-19.5 1487.5,-0.5 1443.5,-0.5"/>
<text text-anchor="middle" x="1465.5" y="-7.5" font-family="Helvetica,sans-Serif" font-size="10.00">limits</text>
</a>
</g>
</g>
<!-- Node17&#45;&gt;Node19 -->
<g id="edge19" class="edge">
<title>Node17&#45;&gt;Node19</title>
<path fill="none" stroke="midnightblue" d="M1459.4,-56.4C1460.47,-48.38 1461.84,-38.23 1463,-29.57"/>
<polygon fill="midnightblue" stroke="midnightblue" points="1466.47,-30.04 1464.34,-19.66 1459.53,-29.1 1466.47,-30.04"/>
</g>
<!-- Node20&#45;&gt;Node15 -->
<g id="edge22" class="edge">
<title>Node20&#45;&gt;Node15</title>
<path fill="none" stroke="midnightblue" d="M1160.55,-56.4C1182.23,-46.55 1210.96,-33.5 1232.05,-23.92"/>
<polygon fill="midnightblue" stroke="midnightblue" points="1233.78,-26.98 1241.44,-19.66 1230.89,-20.61 1233.78,-26.98"/>
</g>
<!-- Node20&#45;&gt;Node16 -->
<g id="edge23" class="edge">
<title>Node20&#45;&gt;Node16</title>
<path fill="none" stroke="midnightblue" d="M1182.18,-57.75C1185.33,-57.13 1188.45,-56.53 1191.5,-56 1325.94,-32.42 1361.21,-38.13 1496.5,-20 1501.53,-19.33 1506.78,-18.59 1512.01,-17.83"/>
<polygon fill="midnightblue" stroke="midnightblue" points="1512.56,-21.29 1521.94,-16.37 1511.54,-14.36 1512.56,-21.29"/>
</g>
<!-- Node21 -->
<g id="node21" class="node">
<title>Node21</title>
<g id="a_node21"><a xlink:title=" ">
<polygon fill="none" stroke="#bfbfbf" points="1107,-0.5 1107,-19.5 1152,-19.5 1152,-0.5 1107,-0.5"/>
<text text-anchor="middle" x="1129.5" y="-7.5" font-family="Helvetica,sans-Serif" font-size="10.00">utility</text>
</a>
</g>
</g>
<!-- Node20&#45;&gt;Node21 -->
<g id="edge24" class="edge">
<title>Node20&#45;&gt;Node21</title>
<path fill="none" stroke="midnightblue" d="M1129.5,-56.4C1129.5,-48.47 1129.5,-38.46 1129.5,-29.86"/>
<polygon fill="midnightblue" stroke="midnightblue" points="1133,-29.66 1129.5,-19.66 1126,-29.66 1133,-29.66"/>
</g>
<!-- Node24&#45;&gt;Node14 -->
<g id="edge29" class="edge">
<title>Node24&#45;&gt;Node14</title>
<path fill="none" stroke="midnightblue" d="M1465.3,-184.98C1442.71,-174.95 1405,-158.2 1379,-146.65"/>
<polygon fill="midnightblue" stroke="midnightblue" points="1380.22,-143.37 1369.66,-142.51 1377.38,-149.77 1380.22,-143.37"/>
</g>
<!-- Node25 -->
<g id="node25" class="node">
<title>Node25</title>
<g id="a_node25"><a xlink:title=" ">
<polygon fill="none" stroke="#bfbfbf" points="1430.5,-123.5 1430.5,-142.5 1588.5,-142.5 1588.5,-123.5 1430.5,-123.5"/>
<text text-anchor="middle" x="1509.5" y="-130.5" font-family="Helvetica,sans-Serif" font-size="10.00">range/v3/view/transform.hpp</text>
</a>
</g>
</g>
<!-- Node24&#45;&gt;Node25 -->
<g id="edge30" class="edge">
<title>Node24&#45;&gt;Node25</title>
<path fill="none" stroke="midnightblue" d="M1488.08,-184.98C1491.68,-176.4 1497.35,-162.93 1501.94,-151.98"/>
<polygon fill="midnightblue" stroke="midnightblue" points="1505.28,-153.08 1505.92,-142.51 1498.82,-150.37 1505.28,-153.08"/>
</g>
<!-- Node26&#45;&gt;Node3 -->
<g id="edge37" class="edge">
<title>Node26&#45;&gt;Node3</title>
<path fill="none" stroke="midnightblue" d="M1314.55,-246.86C1311.5,-246.57 1308.47,-246.28 1305.5,-246 1123.38,-228.9 1076.85,-233.95 895.5,-210 886.45,-208.8 876.87,-207.32 867.58,-205.75"/>
<polygon fill="midnightblue" stroke="midnightblue" points="868.1,-202.29 857.65,-204.04 866.91,-209.19 868.1,-202.29"/>
</g>
<!-- Node26&#45;&gt;Node8 -->
<g id="edge32" class="edge">
<title>Node26&#45;&gt;Node8</title>
<path fill="none" stroke="midnightblue" d="M1390.49,-246.48C1385.34,-237.73 1377.19,-223.87 1370.68,-212.81"/>
<polygon fill="midnightblue" stroke="midnightblue" points="1373.59,-210.85 1365.51,-204.01 1367.56,-214.4 1373.59,-210.85"/>
</g>
<!-- Node26&#45;&gt;Node9 -->
<g id="edge33" class="edge">
<title>Node26&#45;&gt;Node9</title>
<path fill="none" stroke="midnightblue" d="M1431.66,-246.48C1466.63,-238.01 1521.03,-224.27 1567.5,-210 1570.12,-209.2 1572.81,-208.33 1575.52,-207.43"/>
<polygon fill="midnightblue" stroke="midnightblue" points="1576.87,-210.67 1585.2,-204.12 1574.6,-204.05 1576.87,-210.67"/>
</g>
<!-- Node26&#45;&gt;Node12 -->
<g id="edge39" class="edge">
<title>Node26&#45;&gt;Node12</title>
<path fill="none" stroke="midnightblue" d="M1328.09,-246.48C1261.33,-237.88 1156.23,-223.92 1065.5,-210 1056.9,-208.68 1047.82,-207.21 1038.93,-205.73"/>
<polygon fill="midnightblue" stroke="midnightblue" points="1039.44,-202.27 1029,-204.06 1038.28,-209.17 1039.44,-202.27"/>
</g>
<!-- Node26&#45;&gt;Node13 -->
<g id="edge35" class="edge">
<title>Node26&#45;&gt;Node13</title>
<path fill="none" stroke="midnightblue" d="M1356.37,-246.48C1317.37,-237.96 1255.5,-224.38 1192.85,-210.29"/>
<polygon fill="midnightblue" stroke="midnightblue" points="1193.31,-206.81 1182.79,-208.03 1191.78,-213.64 1193.31,-206.81"/>
</g>
<!-- Node26&#45;&gt;Node16 -->
<g id="edge34" class="edge">
<title>Node26&#45;&gt;Node16</title>
<path fill="none" stroke="midnightblue" d="M1476.05,-251.69C1541.91,-247.09 1627.6,-236.12 1649.5,-210 1698.68,-151.34 1613.56,-62.33 1574.51,-26.62"/>
<polygon fill="midnightblue" stroke="midnightblue" points="1576.73,-23.91 1566.95,-19.84 1572.06,-29.12 1576.73,-23.91"/>
</g>
<!-- Node26&#45;&gt;Node24 -->
<g id="edge36" class="edge">
<title>Node26&#45;&gt;Node24</title>
<path fill="none" stroke="midnightblue" d="M1408.25,-246.48C1422.53,-236.93 1445.9,-221.31 1463.01,-209.87"/>
<polygon fill="midnightblue" stroke="midnightblue" points="1465.4,-212.48 1471.77,-204.01 1461.51,-206.66 1465.4,-212.48"/>
</g>
<!-- Node27 -->
<g id="node27" class="node">
<title>Node27</title>
<g id="a_node27"><a xlink:title=" ">
<polygon fill="none" stroke="#bfbfbf" points="1696.5,-185 1696.5,-204 1848.5,-204 1848.5,-185 1696.5,-185"/>
<text text-anchor="middle" x="1772.5" y="-192" font-family="Helvetica,sans-Serif" font-size="10.00">range/v3/utility/random.hpp</text>
</a>
</g>
</g>
<!-- Node26&#45;&gt;Node27 -->
<g id="edge38" class="edge">
<title>Node26&#45;&gt;Node27</title>
<path fill="none" stroke="midnightblue" d="M1450.26,-246.48C1508.02,-237.48 1601.68,-222.85 1682.5,-210 1691.24,-208.61 1700.47,-207.14 1709.54,-205.68"/>
<polygon fill="midnightblue" stroke="midnightblue" points="1710.36,-209.09 1719.68,-204.05 1709.25,-202.18 1710.36,-209.09"/>
</g>
<!-- Node28&#45;&gt;Node3 -->
<g id="edge45" class="edge">
<title>Node28&#45;&gt;Node3</title>
<path fill="none" stroke="midnightblue" d="M1153,-246.5C1087.43,-237.94 984.41,-224.03 895.5,-210 887.19,-208.69 878.41,-207.22 869.82,-205.74"/>
<polygon fill="midnightblue" stroke="midnightblue" points="870.3,-202.27 859.85,-204 869.1,-209.17 870.3,-202.27"/>
</g>
<!-- Node28&#45;&gt;Node8 -->
<g id="edge41" class="edge">
<title>Node28&#45;&gt;Node8</title>
<path fill="none" stroke="midnightblue" d="M1239.7,-246.48C1263.57,-236.4 1303.5,-219.55 1330.87,-208"/>
<polygon fill="midnightblue" stroke="midnightblue" points="1332.48,-211.12 1340.34,-204.01 1329.76,-204.67 1332.48,-211.12"/>
</g>
<!-- Node28&#45;&gt;Node9 -->
<g id="edge42" class="edge">
<title>Node28&#45;&gt;Node9</title>
<path fill="none" stroke="midnightblue" d="M1297.33,-246.87C1383.81,-237.5 1517.8,-221.86 1567.5,-210 1570.73,-209.23 1574.06,-208.29 1577.37,-207.28"/>
<polygon fill="midnightblue" stroke="midnightblue" points="1578.67,-210.53 1587.05,-204.05 1576.46,-203.89 1578.67,-210.53"/>
</g>
<!-- Node28&#45;&gt;Node12 -->
<g id="edge47" class="edge">
<title>Node28&#45;&gt;Node12</title>
<path fill="none" stroke="midnightblue" d="M1185.26,-246.48C1142.93,-235.94 1070.82,-217.99 1024.45,-206.44"/>
<polygon fill="midnightblue" stroke="midnightblue" points="1025.23,-203.03 1014.68,-204.01 1023.54,-209.82 1025.23,-203.03"/>
</g>
<!-- Node28&#45;&gt;Node13 -->
<g id="edge43" class="edge">
<title>Node28&#45;&gt;Node13</title>
<path fill="none" stroke="midnightblue" d="M1206.46,-246.48C1194.02,-238.34 1174.83,-225.79 1158.6,-215.18"/>
<polygon fill="midnightblue" stroke="midnightblue" points="1160.23,-212.07 1149.95,-209.52 1156.4,-217.92 1160.23,-212.07"/>
</g>
<!-- Node28&#45;&gt;Node24 -->
<g id="edge44" class="edge">
<title>Node28&#45;&gt;Node24</title>
<path fill="none" stroke="midnightblue" d="M1257.47,-246.48C1304.7,-235.87 1385.36,-217.76 1436.74,-206.22"/>
<polygon fill="midnightblue" stroke="midnightblue" points="1437.61,-209.61 1446.6,-204.01 1436.08,-202.78 1437.61,-209.61"/>
</g>
<!-- Node29 -->
<g id="node29" class="node">
<title>Node29</title>
<g id="a_node29"><a xlink:title=" ">
<polygon fill="none" stroke="#bfbfbf" points="1200.5,-179.5 1200.5,-209.5 1310.5,-209.5 1310.5,-179.5 1200.5,-179.5"/>
<text text-anchor="start" x="1208.5" y="-197.5" font-family="Helvetica,sans-Serif" font-size="10.00">range/v3/algorithm</text>
<text text-anchor="middle" x="1255.5" y="-186.5" font-family="Helvetica,sans-Serif" font-size="10.00">/max_element.hpp</text>
</a>
</g>
</g>
<!-- Node28&#45;&gt;Node29 -->
<g id="edge46" class="edge">
<title>Node28&#45;&gt;Node29</title>
<path fill="none" stroke="midnightblue" d="M1224.66,-246.48C1229.12,-239.09 1235.79,-228.08 1241.78,-218.17"/>
<polygon fill="midnightblue" stroke="midnightblue" points="1244.83,-219.89 1247.02,-209.52 1238.84,-216.27 1244.83,-219.89"/>
</g>
</g>
</svg>
        <g id="navigator" transform="translate(0 0)" fill="#404254">
                <rect fill="#f2f5e9" fill-opacity="0.5" stroke="#606060" stroke-width=".5" x="0" y="0" width="60" height="60"/>
                <use id="zoomplus" xlink:href="#zoomPlus" x="17" y="9" onmousedown="handleZoom(evt,'in')"/>
                <use id="zoomminus" xlink:href="#zoomMin" x="42" y="9" onmousedown="handleZoom(evt,'out')"/>
                <use id="reset" xlink:href="#resetDef" x="30" y="36" onmousedown="handleReset()"/>
                <g id="arrowUp" xlink:href="#dirArrow" transform="translate(30 24)" onmousedown="handlePan(0,-1)">
                  <use xlink:href="#rim" fill="#404040">
                        <set attributeName="fill" to="#808080" begin="arrowUp.mouseover" end="arrowUp.mouseout"/>
                  </use>
                  <path fill="none" stroke="white" stroke-width="1.5" d="M0,-3.0v7 M-2.5,-0.5L0,-3.0L2.5,-0.5"/>
                </g>
                <g id="arrowRight" xlink:href="#dirArrow" transform="rotate(90) translate(36 -43)" onmousedown="handlePan(1,0)">
                  <use xlink:href="#rim" fill="#404040">
                        <set attributeName="fill" to="#808080" begin="arrowRight.mouseover" end="arrowRight.mouseout"/>
                  </use>
                  <path fill="none" stroke="white" stroke-width="1.5" d="M0,-3.0v7 M-2.5,-0.5L0,-3.0L2.5,-0.5"/>
                </g>
                <g id="arrowDown" xlink:href="#dirArrow" transform="rotate(180) translate(-30 -48)" onmousedown="handlePan(0,1)">
                  <use xlink:href="#rim" fill="#404040">
                        <set attributeName="fill" to="#808080" begin="arrowDown.mouseover" end="arrowDown.mouseout"/>
                  </use>
                  <path fill="none" stroke="white" stroke-width="1.5" d="M0,-3.0v7 M-2.5,-0.5L0,-3.0L2.5,-0.5"/>
                </g>
                <g id="arrowLeft" xlink:href="#dirArrow" transform="rotate(270) translate(-36 17)" onmousedown="handlePan(-1,0)">
                  <use xlink:href="#rim" fill="#404040">
                        <set attributeName="fill" to="#808080" begin="arrowLeft.mouseover" end="arrowLeft.mouseout"/>
                  </use>
                  <path fill="none" stroke="white" stroke-width="1.5" d="M0,-3.0v7 M-2.5,-0.5L0,-3.0L2.5,-0.5"/>
                </g>
        </g>
        <svg viewBox="0 0 15 15" width="100%" height="30px" preserveAspectRatio="xMaxYMin meet">
         <g id="arrow_out" transform="scale(0.3 0.3)">
          <a xlink:href="actions_8hpp__incl_org.svg" target="_base">
           <rect id="button" ry="5" rx="5" y="6" x="6" height="38" width="38"
                fill="#f2f5e9" fill-opacity="0.5" stroke="#606060" stroke-width="1.0"/>
           <path id="arrow"
             d="M 11.500037,31.436501 C 11.940474,20.09759 22.043105,11.32322 32.158766,21.979434 L 37.068811,17.246167 C 37.068811,17.246167 37.088388,32 37.088388,32 L 22.160133,31.978069 C 22.160133,31.978069 26.997745,27.140456 26.997745,27.140456 C 18.528582,18.264221 13.291696,25.230495 11.500037,31.436501 z"
             style="fill:#404040;"/>
          </a>
         </g>
        </svg>
</svg>
