<?xml version="1.0" encoding="UTF-8" standalone="no"?>
<!DOCTYPE svg PUBLIC "-//W3C//DTD SVG 1.1//EN"
 "http://www.w3.org/Graphics/SVG/1.1/DTD/svg11.dtd">
<!-- Generated by graphviz version 2.43.0 (0)
 -->
<!-- Title: /home/runner/work/beluga/beluga/beluga/include/beluga/actions.hpp Pages: 1 -->
<svg width="1769pt" height="352pt"
 viewBox="0.00 0.00 1769.27 352.00" xmlns="http://www.w3.org/2000/svg" xmlns:xlink="http://www.w3.org/1999/xlink">
<g id="graph0" class="graph" transform="scale(1 1) rotate(0) translate(4 348)">
<title>/home/runner/work/beluga/beluga/beluga/include/beluga/actions.hpp</title>
<!-- Node1 -->
<g id="node1" class="node">
<title>Node1</title>
<g id="a_node1"><a xlink:title="Implementation of useful range actions.">
<polygon fill="#bfbfbf" stroke="black" points="956,-302.5 956,-343.5 1101,-343.5 1101,-302.5 956,-302.5"/>
<text text-anchor="start" x="964" y="-331.5" font-family="Helvetica,sans-Serif" font-size="10.00">/home/runner/work/beluga</text>
<text text-anchor="start" x="964" y="-320.5" font-family="Helvetica,sans-Serif" font-size="10.00">/beluga/beluga/include</text>
<text text-anchor="middle" x="1028.5" y="-309.5" font-family="Helvetica,sans-Serif" font-size="10.00">/beluga/actions.hpp</text>
</a>
</g>
</g>
<!-- Node2 -->
<g id="node2" class="node">
<title>Node2</title>
<g id="a_node2"><a xlink:href="assign_8hpp.html" target="_top" xlink:title="Implementation of the assign range adaptor object.">
<polygon fill="none" stroke="black" points="320,-246.5 320,-265.5 463,-265.5 463,-246.5 320,-246.5"/>
<text text-anchor="middle" x="391.5" y="-253.5" font-family="Helvetica,sans-Serif" font-size="10.00">beluga/actions/assign.hpp</text>
</a>
</g>
</g>
<!-- Node1&#45;&gt;Node2 -->
<g id="edge1" class="edge">
<title>Node1&#45;&gt;Node2</title>
<path fill="none" stroke="midnightblue" d="M955.74,-314.58C836.19,-302.38 599.01,-278.17 473.62,-265.38"/>
<polygon fill="midnightblue" stroke="midnightblue" points="473.62,-261.86 463.31,-264.33 472.91,-268.83 473.62,-261.86"/>
</g>
<!-- Node7 -->
<g id="node7" class="node">
<title>Node7</title>
<g id="a_node7"><a xlink:href="normalize_8hpp.html" target="_top" xlink:title="Implementation of the normalize range adaptor object.">
<polygon fill="none" stroke="black" points="860,-246.5 860,-265.5 1021,-265.5 1021,-246.5 860,-246.5"/>
<text text-anchor="middle" x="940.5" y="-253.5" font-family="Helvetica,sans-Serif" font-size="10.00">beluga/actions/normalize.hpp</text>
</a>
</g>
</g>
<!-- Node1&#45;&gt;Node7 -->
<g id="edge6" class="edge">
<title>Node1&#45;&gt;Node7</title>
<path fill="none" stroke="midnightblue" d="M1002.1,-302.5C988.73,-292.63 972.78,-280.84 960.46,-271.74"/>
<polygon fill="midnightblue" stroke="midnightblue" points="962.34,-268.78 952.21,-265.65 958.18,-274.41 962.34,-268.78"/>
</g>
<!-- Node25 -->
<g id="node25" class="node">
<title>Node25</title>
<g id="a_node25"><a xlink:href="propagate_8hpp.html" target="_top" xlink:title="Implementation of the propagate range adaptor object.">
<polygon fill="none" stroke="black" points="1212,-246.5 1212,-265.5 1373,-265.5 1373,-246.5 1212,-246.5"/>
<text text-anchor="middle" x="1292.5" y="-253.5" font-family="Helvetica,sans-Serif" font-size="10.00">beluga/actions/propagate.hpp</text>
</a>
</g>
</g>
<!-- Node1&#45;&gt;Node25 -->
<g id="edge30" class="edge">
<title>Node1&#45;&gt;Node25</title>
<path fill="none" stroke="midnightblue" d="M1101.34,-304.07C1148.33,-292.5 1207.94,-277.82 1247.99,-267.96"/>
<polygon fill="midnightblue" stroke="midnightblue" points="1248.86,-271.35 1257.73,-265.56 1247.19,-264.55 1248.86,-271.35"/>
</g>
<!-- Node27 -->
<g id="node27" class="node">
<title>Node27</title>
<g id="a_node27"><a xlink:href="reweight_8hpp.html" target="_top" xlink:title="Implementation of the reweight range adaptor object.">
<polygon fill="none" stroke="black" points="1039,-246.5 1039,-265.5 1194,-265.5 1194,-246.5 1039,-246.5"/>
<text text-anchor="middle" x="1116.5" y="-253.5" font-family="Helvetica,sans-Serif" font-size="10.00">beluga/actions/reweight.hpp</text>
</a>
</g>
</g>
<!-- Node1&#45;&gt;Node27 -->
<g id="edge39" class="edge">
<title>Node1&#45;&gt;Node27</title>
<path fill="none" stroke="midnightblue" d="M1054.9,-302.5C1068.27,-292.63 1084.22,-280.84 1096.54,-271.74"/>
<polygon fill="midnightblue" stroke="midnightblue" points="1098.82,-274.41 1104.79,-265.65 1094.66,-268.78 1098.82,-274.41"/>
</g>
<!-- Node3 -->
<g id="node3" class="node">
<title>Node3</title>
<g id="a_node3"><a xlink:title=" ">
<polygon fill="none" stroke="#bfbfbf" points="666.5,-185 666.5,-204 812.5,-204 812.5,-185 666.5,-185"/>
<text text-anchor="middle" x="739.5" y="-192" font-family="Helvetica,sans-Serif" font-size="10.00">range/v3/action/action.hpp</text>
</a>
</g>
</g>
<!-- Node2&#45;&gt;Node3 -->
<g id="edge2" class="edge">
<title>Node2&#45;&gt;Node3</title>
<path fill="none" stroke="midnightblue" d="M442.31,-246.44C495.67,-237.44 582,-222.83 656.5,-210 664.39,-208.64 672.7,-207.2 680.89,-205.77"/>
<polygon fill="midnightblue" stroke="midnightblue" points="681.54,-209.21 690.79,-204.05 680.34,-202.32 681.54,-209.21"/>
</g>
<!-- Node4 -->
<g id="node4" class="node">
<title>Node4</title>
<g id="a_node4"><a xlink:title=" ">
<polygon fill="none" stroke="#bfbfbf" points="336,-179.5 336,-209.5 447,-209.5 447,-179.5 336,-179.5"/>
<text text-anchor="start" x="344" y="-197.5" font-family="Helvetica,sans-Serif" font-size="10.00">range/v3/functional</text>
<text text-anchor="middle" x="391.5" y="-186.5" font-family="Helvetica,sans-Serif" font-size="10.00">/bind_back.hpp</text>
</a>
</g>
</g>
<!-- Node2&#45;&gt;Node4 -->
<g id="edge3" class="edge">
<title>Node2&#45;&gt;Node4</title>
<path fill="none" stroke="midnightblue" d="M391.5,-246.48C391.5,-239.47 391.5,-229.19 391.5,-219.7"/>
<polygon fill="midnightblue" stroke="midnightblue" points="395,-219.52 391.5,-209.52 388,-219.52 395,-219.52"/>
</g>
<!-- Node5 -->
<g id="node5" class="node">
<title>Node5</title>
<g id="a_node5"><a xlink:title=" ">
<polygon fill="none" stroke="#bfbfbf" points="0,-185 0,-204 167,-204 167,-185 0,-185"/>
<text text-anchor="middle" x="83.5" y="-192" font-family="Helvetica,sans-Serif" font-size="10.00">range/v3/range/conversion.hpp</text>
</a>
</g>
</g>
<!-- Node2&#45;&gt;Node5 -->
<g id="edge4" class="edge">
<title>Node2&#45;&gt;Node5</title>
<path fill="none" stroke="midnightblue" d="M347.37,-246.48C292.02,-235.78 197.16,-217.46 137.53,-205.94"/>
<polygon fill="midnightblue" stroke="midnightblue" points="138.03,-202.47 127.55,-204.01 136.7,-209.34 138.03,-202.47"/>
</g>
<!-- Node6 -->
<g id="node6" class="node">
<title>Node6</title>
<g id="a_node6"><a xlink:title=" ">
<polygon fill="none" stroke="#bfbfbf" points="185.5,-185 185.5,-204 317.5,-204 317.5,-185 185.5,-185"/>
<text text-anchor="middle" x="251.5" y="-192" font-family="Helvetica,sans-Serif" font-size="10.00">range/v3/view/view.hpp</text>
</a>
</g>
</g>
<!-- Node2&#45;&gt;Node6 -->
<g id="edge5" class="edge">
<title>Node2&#45;&gt;Node6</title>
<path fill="none" stroke="midnightblue" d="M371.44,-246.48C347.74,-236.4 308.09,-219.55 280.92,-208"/>
<polygon fill="midnightblue" stroke="midnightblue" points="282.09,-204.7 271.52,-204.01 279.36,-211.14 282.09,-204.7"/>
</g>
<!-- Node7&#45;&gt;Node3 -->
<g id="edge9" class="edge">
<title>Node7&#45;&gt;Node3</title>
<path fill="none" stroke="midnightblue" d="M911.7,-246.48C876.63,-236.09 817.24,-218.51 778.19,-206.95"/>
<polygon fill="midnightblue" stroke="midnightblue" points="778.83,-203.49 768.24,-204.01 776.84,-210.2 778.83,-203.49"/>
</g>
<!-- Node8 -->
<g id="node8" class="node">
<title>Node8</title>
<g id="a_node8"><a xlink:title=" ">
<polygon fill="none" stroke="#bfbfbf" points="1084.5,-185 1084.5,-204 1148.5,-204 1148.5,-185 1084.5,-185"/>
<text text-anchor="middle" x="1116.5" y="-192" font-family="Helvetica,sans-Serif" font-size="10.00">algorithm</text>
</a>
</g>
</g>
<!-- Node7&#45;&gt;Node8 -->
<g id="edge7" class="edge">
<title>Node7&#45;&gt;Node8</title>
<path fill="none" stroke="midnightblue" d="M966.68,-246.43C993.91,-237.48 1037.76,-222.96 1075.5,-210 1077.94,-209.16 1080.45,-208.29 1082.98,-207.41"/>
<polygon fill="midnightblue" stroke="midnightblue" points="1084.4,-210.62 1092.68,-204.01 1082.08,-204.02 1084.4,-210.62"/>
</g>
<!-- Node9 -->
<g id="node9" class="node">
<title>Node9</title>
<g id="a_node9"><a xlink:title=" ">
<polygon fill="none" stroke="#bfbfbf" points="1166.5,-185 1166.5,-204 1230.5,-204 1230.5,-185 1166.5,-185"/>
<text text-anchor="middle" x="1198.5" y="-192" font-family="Helvetica,sans-Serif" font-size="10.00">execution</text>
</a>
</g>
</g>
<!-- Node7&#45;&gt;Node9 -->
<g id="edge8" class="edge">
<title>Node7&#45;&gt;Node9</title>
<path fill="none" stroke="midnightblue" d="M991.39,-246.46C1035.67,-238.55 1101.36,-225.67 1157.5,-210 1160.46,-209.17 1163.51,-208.24 1166.56,-207.26"/>
<polygon fill="midnightblue" stroke="midnightblue" points="1167.77,-210.55 1176.12,-204.03 1165.52,-203.92 1167.77,-210.55"/>
</g>
<!-- Node10 -->
<g id="node10" class="node">
<title>Node10</title>
<g id="a_node10"><a xlink:title=" ">
<polygon fill="none" stroke="#bfbfbf" points="465,-185 465,-204 648,-204 648,-185 465,-185"/>
<text text-anchor="middle" x="556.5" y="-192" font-family="Helvetica,sans-Serif" font-size="10.00">range/v3/numeric/accumulate.hpp</text>
</a>
</g>
</g>
<!-- Node7&#45;&gt;Node10 -->
<g id="edge10" class="edge">
<title>Node7&#45;&gt;Node10</title>
<path fill="none" stroke="midnightblue" d="M885.48,-246.48C815.76,-235.67 695.76,-217.08 621.57,-205.58"/>
<polygon fill="midnightblue" stroke="midnightblue" points="621.83,-202.08 611.42,-204.01 620.76,-209 621.83,-202.08"/>
</g>
<!-- Node11 -->
<g id="node11" class="node">
<title>Node11</title>
<g id="a_node11"><a xlink:title=" ">
<polygon fill="none" stroke="#bfbfbf" points="1248.5,-185 1248.5,-204 1400.5,-204 1400.5,-185 1248.5,-185"/>
<text text-anchor="middle" x="1324.5" y="-192" font-family="Helvetica,sans-Serif" font-size="10.00">range/v3/view/common.hpp</text>
</a>
</g>
</g>
<!-- Node7&#45;&gt;Node11 -->
<g id="edge11" class="edge">
<title>Node7&#45;&gt;Node11</title>
<path fill="none" stroke="midnightblue" d="M999.55,-246.46C1059.91,-237.65 1156.31,-223.35 1239.5,-210 1247.89,-208.65 1256.74,-207.19 1265.44,-205.73"/>
<polygon fill="midnightblue" stroke="midnightblue" points="1266.26,-209.14 1275.53,-204.02 1265.09,-202.24 1266.26,-209.14"/>
</g>
<!-- Node12 -->
<g id="node12" class="node">
<title>Node12</title>
<g id="a_node12"><a xlink:href="particle__traits_8hpp.html" target="_top" xlink:title="Implementation of traits for particle types, see the Particle named requirements.">
<polygon fill="none" stroke="black" points="830.5,-179.5 830.5,-209.5 938.5,-209.5 938.5,-179.5 830.5,-179.5"/>
<text text-anchor="start" x="838.5" y="-197.5" font-family="Helvetica,sans-Serif" font-size="10.00">beluga/type_traits</text>
<text text-anchor="middle" x="884.5" y="-186.5" font-family="Helvetica,sans-Serif" font-size="10.00">/particle_traits.hpp</text>
</a>
</g>
</g>
<!-- Node7&#45;&gt;Node12 -->
<g id="edge12" class="edge">
<title>Node7&#45;&gt;Node12</title>
<path fill="none" stroke="midnightblue" d="M932.48,-246.48C925.25,-238.79 914.31,-227.17 904.7,-216.96"/>
<polygon fill="midnightblue" stroke="midnightblue" points="907.1,-214.41 897.7,-209.52 902,-219.2 907.1,-214.41"/>
</g>
<!-- Node23 -->
<g id="node23" class="node">
<title>Node23</title>
<g id="a_node23"><a xlink:href="particles_8hpp.html" target="_top" xlink:title="Implementation of views related to particle ranges.">
<polygon fill="none" stroke="black" points="1419,-185 1419,-204 1566,-204 1566,-185 1419,-185"/>
<text text-anchor="middle" x="1492.5" y="-192" font-family="Helvetica,sans-Serif" font-size="10.00">beluga/views/particles.hpp</text>
</a>
</g>
</g>
<!-- Node7&#45;&gt;Node23 -->
<g id="edge27" class="edge">
<title>Node7&#45;&gt;Node23</title>
<path fill="none" stroke="midnightblue" d="M1021.03,-246.83C1023.89,-246.55 1026.72,-246.27 1029.5,-246 1198.34,-229.47 1241.37,-232.61 1409.5,-210 1418.55,-208.78 1428.12,-207.3 1437.42,-205.75"/>
<polygon fill="midnightblue" stroke="midnightblue" points="1438.1,-209.18 1447.37,-204.05 1436.92,-202.28 1438.1,-209.18"/>
</g>
<!-- Node13 -->
<g id="node13" class="node">
<title>Node13</title>
<g id="a_node13"><a xlink:href="primitives_8hpp.html" target="_top" xlink:title="Implementation of library primitives to abstract member access.">
<polygon fill="none" stroke="black" points="1227,-123.5 1227,-142.5 1350,-142.5 1350,-123.5 1227,-123.5"/>
<text text-anchor="middle" x="1288.5" y="-130.5" font-family="Helvetica,sans-Serif" font-size="10.00">beluga/primitives.hpp</text>
</a>
</g>
</g>
<!-- Node12&#45;&gt;Node13 -->
<g id="edge13" class="edge">
<title>Node12&#45;&gt;Node13</title>
<path fill="none" stroke="midnightblue" d="M938.73,-180.67C941.69,-180.08 944.63,-179.52 947.5,-179 1039.87,-162.32 1147.36,-149.15 1216.58,-141.48"/>
<polygon fill="midnightblue" stroke="midnightblue" points="1217.38,-144.91 1226.93,-140.34 1216.61,-137.96 1217.38,-144.91"/>
</g>
<!-- Node19 -->
<g id="node19" class="node">
<title>Node19</title>
<g id="a_node19"><a xlink:href="tuple__traits_8hpp.html" target="_top" xlink:title="Implementation of traits for tuple&#45;like types.">
<polygon fill="none" stroke="black" points="1066,-56.5 1066,-86.5 1171,-86.5 1171,-56.5 1066,-56.5"/>
<text text-anchor="start" x="1074" y="-74.5" font-family="Helvetica,sans-Serif" font-size="10.00">beluga/type_traits</text>
<text text-anchor="middle" x="1118.5" y="-63.5" font-family="Helvetica,sans-Serif" font-size="10.00">/tuple_traits.hpp</text>
</a>
</g>
</g>
<!-- Node12&#45;&gt;Node19 -->
<g id="edge25" class="edge">
<title>Node12&#45;&gt;Node19</title>
<path fill="none" stroke="midnightblue" d="M911.8,-179.38C954.07,-157.52 1035.38,-115.48 1082.44,-91.15"/>
<polygon fill="midnightblue" stroke="midnightblue" points="1084.1,-94.23 1091.37,-86.53 1080.88,-88.01 1084.1,-94.23"/>
</g>
<!-- Node22 -->
<g id="node22" class="node">
<title>Node22</title>
<g id="a_node22"><a xlink:title=" ">
<polygon fill="none" stroke="#bfbfbf" points="814.5,-123.5 814.5,-142.5 954.5,-142.5 954.5,-123.5 814.5,-123.5"/>
<text text-anchor="middle" x="884.5" y="-130.5" font-family="Helvetica,sans-Serif" font-size="10.00">range/v3/range/traits.hpp</text>
</a>
</g>
</g>
<!-- Node12&#45;&gt;Node22 -->
<g id="edge26" class="edge">
<title>Node12&#45;&gt;Node22</title>
<path fill="none" stroke="midnightblue" d="M884.5,-179.4C884.5,-171.47 884.5,-161.46 884.5,-152.86"/>
<polygon fill="midnightblue" stroke="midnightblue" points="888,-152.66 884.5,-142.66 881,-152.66 888,-152.66"/>
</g>
<!-- Node14 -->
<g id="node14" class="node">
<title>Node14</title>
<g id="a_node14"><a xlink:title=" ">
<polygon fill="none" stroke="#bfbfbf" points="1169,-0.5 1169,-19.5 1210,-19.5 1210,-0.5 1169,-0.5"/>
<text text-anchor="middle" x="1189.5" y="-7.5" font-family="Helvetica,sans-Serif" font-size="10.00">tuple</text>
</a>
</g>
</g>
<!-- Node13&#45;&gt;Node14 -->
<g id="edge14" class="edge">
<title>Node13&#45;&gt;Node14</title>
<path fill="none" stroke="midnightblue" d="M1268.52,-123.44C1252.98,-115.88 1231.89,-103.49 1218.5,-87 1204.9,-70.25 1197.21,-46.43 1193.21,-29.94"/>
<polygon fill="midnightblue" stroke="midnightblue" points="1196.56,-28.9 1191.01,-19.88 1189.73,-30.39 1196.56,-28.9"/>
</g>
<!-- Node15 -->
<g id="node15" class="node">
<title>Node15</title>
<g id="a_node15"><a xlink:title=" ">
<polygon fill="none" stroke="#bfbfbf" points="1513,-0.5 1513,-19.5 1582,-19.5 1582,-0.5 1513,-0.5"/>
<text text-anchor="middle" x="1547.5" y="-7.5" font-family="Helvetica,sans-Serif" font-size="10.00">type_traits</text>
</a>
</g>
</g>
<!-- Node13&#45;&gt;Node15 -->
<g id="edge15" class="edge">
<title>Node13&#45;&gt;Node15</title>
<path fill="none" stroke="midnightblue" d="M1350.26,-124.42C1418.83,-115.43 1521.62,-100.03 1534.5,-87 1549.24,-72.08 1550.81,-46.96 1549.81,-29.71"/>
<polygon fill="midnightblue" stroke="midnightblue" points="1553.29,-29.33 1548.89,-19.69 1546.32,-29.97 1553.29,-29.33"/>
</g>
<!-- Node16 -->
<g id="node16" class="node">
<title>Node16</title>
<g id="a_node16"><a xlink:href="strongly__typed__numeric_8hpp.html" target="_top" xlink:title="Implementation of a strongly typed numeric helper.">
<polygon fill="none" stroke="black" points="1367.5,-56.5 1367.5,-86.5 1525.5,-86.5 1525.5,-56.5 1367.5,-56.5"/>
<text text-anchor="start" x="1375.5" y="-74.5" font-family="Helvetica,sans-Serif" font-size="10.00">beluga/type_traits</text>
<text text-anchor="middle" x="1446.5" y="-63.5" font-family="Helvetica,sans-Serif" font-size="10.00">/strongly_typed_numeric.hpp</text>
</a>
</g>
</g>
<!-- Node13&#45;&gt;Node16 -->
<g id="edge16" class="edge">
<title>Node13&#45;&gt;Node16</title>
<path fill="none" stroke="midnightblue" d="M1311.14,-123.48C1334.14,-114.81 1370.43,-101.15 1399.65,-90.14"/>
<polygon fill="midnightblue" stroke="midnightblue" points="1401.14,-93.32 1409.26,-86.52 1398.67,-86.77 1401.14,-93.32"/>
</g>
<!-- Node13&#45;&gt;Node19 -->
<g id="edge20" class="edge">
<title>Node13&#45;&gt;Node19</title>
<path fill="none" stroke="midnightblue" d="M1264.14,-123.48C1239.18,-114.74 1199.66,-100.91 1168.09,-89.86"/>
<polygon fill="midnightblue" stroke="midnightblue" points="1169.16,-86.52 1158.57,-86.52 1166.85,-93.13 1169.16,-86.52"/>
</g>
<!-- Node21 -->
<g id="node21" class="node">
<title>Node21</title>
<g id="a_node21"><a xlink:href="forward__like_8hpp_source.html" target="_top" xlink:title=" ">
<polygon fill="none" stroke="black" points="1227.5,-56.5 1227.5,-86.5 1349.5,-86.5 1349.5,-56.5 1227.5,-56.5"/>
<text text-anchor="start" x="1235.5" y="-74.5" font-family="Helvetica,sans-Serif" font-size="10.00">beluga/utility/forward</text>
<text text-anchor="middle" x="1288.5" y="-63.5" font-family="Helvetica,sans-Serif" font-size="10.00">_like.hpp</text>
</a>
</g>
</g>
<!-- Node13&#45;&gt;Node21 -->
<g id="edge24" class="edge">
<title>Node13&#45;&gt;Node21</title>
<path fill="none" stroke="midnightblue" d="M1288.5,-123.48C1288.5,-116.47 1288.5,-106.19 1288.5,-96.7"/>
<polygon fill="midnightblue" stroke="midnightblue" points="1292,-96.52 1288.5,-86.52 1285,-96.52 1292,-96.52"/>
</g>
<!-- Node16&#45;&gt;Node15 -->
<g id="edge19" class="edge">
<title>Node16&#45;&gt;Node15</title>
<path fill="none" stroke="midnightblue" d="M1470.44,-56.4C1486.63,-46.86 1507.91,-34.32 1524,-24.84"/>
<polygon fill="midnightblue" stroke="midnightblue" points="1525.96,-27.75 1532.8,-19.66 1522.41,-21.72 1525.96,-27.75"/>
</g>
<!-- Node17 -->
<g id="node17" class="node">
<title>Node17</title>
<g id="a_node17"><a xlink:title=" ">
<polygon fill="none" stroke="#bfbfbf" points="1419,-0.5 1419,-19.5 1484,-19.5 1484,-0.5 1419,-0.5"/>
<text text-anchor="middle" x="1451.5" y="-7.5" font-family="Helvetica,sans-Serif" font-size="10.00">functional</text>
</a>
</g>
</g>
<!-- Node16&#45;&gt;Node17 -->
<g id="edge17" class="edge">
<title>Node16&#45;&gt;Node17</title>
<path fill="none" stroke="midnightblue" d="M1447.68,-56.4C1448.35,-48.47 1449.19,-38.46 1449.92,-29.86"/>
<polygon fill="midnightblue" stroke="midnightblue" points="1453.42,-29.92 1450.77,-19.66 1446.45,-29.33 1453.42,-29.92"/>
</g>
<!-- Node18 -->
<g id="node18" class="node">
<title>Node18</title>
<g id="a_node18"><a xlink:title=" ">
<polygon fill="none" stroke="#bfbfbf" points="1356.5,-0.5 1356.5,-19.5 1400.5,-19.5 1400.5,-0.5 1356.5,-0.5"/>
<text text-anchor="middle" x="1378.5" y="-7.5" font-family="Helvetica,sans-Serif" font-size="10.00">limits</text>
</a>
</g>
</g>
<!-- Node16&#45;&gt;Node18 -->
<g id="edge18" class="edge">
<title>Node16&#45;&gt;Node18</title>
<path fill="none" stroke="midnightblue" d="M1430.38,-56.4C1420.1,-47.4 1406.75,-35.72 1396.17,-26.47"/>
<polygon fill="midnightblue" stroke="midnightblue" points="1398.23,-23.61 1388.39,-19.66 1393.62,-28.88 1398.23,-23.61"/>
</g>
<!-- Node19&#45;&gt;Node14 -->
<g id="edge21" class="edge">
<title>Node19&#45;&gt;Node14</title>
<path fill="none" stroke="midnightblue" d="M1135.33,-56.4C1146.17,-47.31 1160.28,-35.49 1171.37,-26.19"/>
<polygon fill="midnightblue" stroke="midnightblue" points="1173.75,-28.76 1179.17,-19.66 1169.26,-23.4 1173.75,-28.76"/>
</g>
<!-- Node19&#45;&gt;Node15 -->
<g id="edge22" class="edge">
<title>Node19&#45;&gt;Node15</title>
<path fill="none" stroke="midnightblue" d="M1171.16,-62.73C1186.42,-60.51 1203.12,-58.12 1218.5,-56 1340.61,-39.16 1371.58,-38.14 1493.5,-20 1496.55,-19.55 1499.7,-19.06 1502.86,-18.56"/>
<polygon fill="midnightblue" stroke="midnightblue" points="1503.64,-21.98 1512.96,-16.94 1502.53,-15.07 1503.64,-21.98"/>
</g>
<!-- Node20 -->
<g id="node20" class="node">
<title>Node20</title>
<g id="a_node20"><a xlink:title=" ">
<polygon fill="none" stroke="#bfbfbf" points="1096,-0.5 1096,-19.5 1141,-19.5 1141,-0.5 1096,-0.5"/>
<text text-anchor="middle" x="1118.5" y="-7.5" font-family="Helvetica,sans-Serif" font-size="10.00">utility</text>
</a>
</g>
</g>
<!-- Node19&#45;&gt;Node20 -->
<g id="edge23" class="edge">
<title>Node19&#45;&gt;Node20</title>
<path fill="none" stroke="midnightblue" d="M1118.5,-56.4C1118.5,-48.47 1118.5,-38.46 1118.5,-29.86"/>
<polygon fill="midnightblue" stroke="midnightblue" points="1122,-29.66 1118.5,-19.66 1115,-29.66 1122,-29.66"/>
</g>
<!-- Node23&#45;&gt;Node13 -->
<g id="edge28" class="edge">
<title>Node23&#45;&gt;Node13</title>
<path fill="none" stroke="midnightblue" d="M1463.27,-184.98C1427.6,-174.57 1367.14,-156.94 1327.52,-145.38"/>
<polygon fill="midnightblue" stroke="midnightblue" points="1328.25,-141.95 1317.67,-142.51 1326.29,-148.67 1328.25,-141.95"/>
</g>
<!-- Node24 -->
<g id="node24" class="node">
<title>Node24</title>
<g id="a_node24"><a xlink:title=" ">
<polygon fill="none" stroke="#bfbfbf" points="1413.5,-123.5 1413.5,-142.5 1571.5,-142.5 1571.5,-123.5 1413.5,-123.5"/>
<text text-anchor="middle" x="1492.5" y="-130.5" font-family="Helvetica,sans-Serif" font-size="10.00">range/v3/view/transform.hpp</text>
</a>
</g>
</g>
<!-- Node23&#45;&gt;Node24 -->
<g id="edge29" class="edge">
<title>Node23&#45;&gt;Node24</title>
<path fill="none" stroke="midnightblue" d="M1492.5,-184.98C1492.5,-176.58 1492.5,-163.48 1492.5,-152.66"/>
<polygon fill="midnightblue" stroke="midnightblue" points="1496,-152.51 1492.5,-142.51 1489,-152.51 1496,-152.51"/>
</g>
<!-- Node25&#45;&gt;Node3 -->
<g id="edge36" class="edge">
<title>Node25&#45;&gt;Node3</title>
<path fill="none" stroke="midnightblue" d="M1211.55,-246.88C1208.49,-246.58 1205.47,-246.29 1202.5,-246 1033.21,-229.54 990.05,-232.83 821.5,-210 812.65,-208.8 803.3,-207.34 794.2,-205.81"/>
<polygon fill="midnightblue" stroke="midnightblue" points="794.53,-202.31 784.08,-204.06 793.34,-209.21 794.53,-202.31"/>
</g>
<!-- Node25&#45;&gt;Node8 -->
<g id="edge31" class="edge">
<title>Node25&#45;&gt;Node8</title>
<path fill="none" stroke="midnightblue" d="M1266.32,-246.43C1239.09,-237.48 1195.24,-222.96 1157.5,-210 1155.06,-209.16 1152.55,-208.29 1150.02,-207.41"/>
<polygon fill="midnightblue" stroke="midnightblue" points="1150.92,-204.02 1140.32,-204.01 1148.6,-210.62 1150.92,-204.02"/>
</g>
<!-- Node25&#45;&gt;Node9 -->
<g id="edge32" class="edge">
<title>Node25&#45;&gt;Node9</title>
<path fill="none" stroke="midnightblue" d="M1279.03,-246.48C1263.82,-236.84 1238.81,-221.02 1220.7,-209.55"/>
<polygon fill="midnightblue" stroke="midnightblue" points="1222.26,-206.4 1211.94,-204.01 1218.52,-212.31 1222.26,-206.4"/>
</g>
<!-- Node25&#45;&gt;Node11 -->
<g id="edge38" class="edge">
<title>Node25&#45;&gt;Node11</title>
<path fill="none" stroke="midnightblue" d="M1297.08,-246.48C1301.74,-237.82 1309.09,-224.15 1315.01,-213.15"/>
<polygon fill="midnightblue" stroke="midnightblue" points="1318.27,-214.47 1319.92,-204.01 1312.1,-211.16 1318.27,-214.47"/>
</g>
<!-- Node25&#45;&gt;Node12 -->
<g id="edge34" class="edge">
<title>Node25&#45;&gt;Node12</title>
<path fill="none" stroke="midnightblue" d="M1211.99,-246.72C1144.19,-239.24 1044.45,-227.04 948.59,-210.09"/>
<polygon fill="midnightblue" stroke="midnightblue" points="949.19,-206.65 938.73,-208.33 947.96,-213.54 949.19,-206.65"/>
</g>
<!-- Node25&#45;&gt;Node15 -->
<g id="edge33" class="edge">
<title>Node25&#45;&gt;Node15</title>
<path fill="none" stroke="midnightblue" d="M1373.05,-252.75C1496.54,-248.47 1721.03,-237.02 1745.5,-210 1811.9,-136.68 1648.57,-54.54 1578.03,-23.65"/>
<polygon fill="midnightblue" stroke="midnightblue" points="1579.3,-20.38 1568.73,-19.64 1576.53,-26.81 1579.3,-20.38"/>
</g>
<!-- Node25&#45;&gt;Node23 -->
<g id="edge35" class="edge">
<title>Node25&#45;&gt;Node23</title>
<path fill="none" stroke="midnightblue" d="M1321.16,-246.48C1356.06,-236.09 1415.15,-218.51 1454,-206.95"/>
<polygon fill="midnightblue" stroke="midnightblue" points="1455.31,-210.22 1463.9,-204.01 1453.32,-203.51 1455.31,-210.22"/>
</g>
<!-- Node26 -->
<g id="node26" class="node">
<title>Node26</title>
<g id="a_node26"><a xlink:title=" ">
<polygon fill="none" stroke="#bfbfbf" points="1584.5,-185 1584.5,-204 1736.5,-204 1736.5,-185 1584.5,-185"/>
<text text-anchor="middle" x="1660.5" y="-192" font-family="Helvetica,sans-Serif" font-size="10.00">range/v3/utility/random.hpp</text>
</a>
</g>
</g>
<!-- Node25&#45;&gt;Node26 -->
<g id="edge37" class="edge">
<title>Node25&#45;&gt;Node26</title>
<path fill="none" stroke="midnightblue" d="M1347.31,-246.47C1404.34,-237.55 1496.22,-223.06 1575.5,-210 1583.78,-208.64 1592.51,-207.17 1601.1,-205.72"/>
<polygon fill="midnightblue" stroke="midnightblue" points="1601.8,-209.15 1611.07,-204.03 1600.63,-202.25 1601.8,-209.15"/>
</g>
<!-- Node27&#45;&gt;Node3 -->
<g id="edge44" class="edge">
<title>Node27&#45;&gt;Node3</title>
<path fill="none" stroke="midnightblue" d="M1057.94,-246.48C998.37,-237.72 903.42,-223.49 821.5,-210 813.49,-208.68 805.05,-207.24 796.75,-205.8"/>
<polygon fill="midnightblue" stroke="midnightblue" points="797.19,-202.32 786.73,-204.05 795.98,-209.22 797.19,-202.32"/>
</g>
<!-- Node27&#45;&gt;Node8 -->
<g id="edge40" class="edge">
<title>Node27&#45;&gt;Node8</title>
<path fill="none" stroke="midnightblue" d="M1116.5,-246.48C1116.5,-238.08 1116.5,-224.98 1116.5,-214.16"/>
<polygon fill="midnightblue" stroke="midnightblue" points="1120,-214.01 1116.5,-204.01 1113,-214.01 1120,-214.01"/>
</g>
<!-- Node27&#45;&gt;Node9 -->
<g id="edge41" class="edge">
<title>Node27&#45;&gt;Node9</title>
<path fill="none" stroke="midnightblue" d="M1128.25,-246.48C1141.28,-237.02 1162.54,-221.6 1178.26,-210.19"/>
<polygon fill="midnightblue" stroke="midnightblue" points="1180.73,-212.71 1186.77,-204.01 1176.62,-207.05 1180.73,-212.71"/>
</g>
<!-- Node27&#45;&gt;Node11 -->
<g id="edge46" class="edge">
<title>Node27&#45;&gt;Node11</title>
<path fill="none" stroke="midnightblue" d="M1146.3,-246.48C1182.75,-236.05 1244.58,-218.36 1284.97,-206.81"/>
<polygon fill="midnightblue" stroke="midnightblue" points="1286.1,-210.12 1294.75,-204.01 1284.18,-203.39 1286.1,-210.12"/>
</g>
<!-- Node27&#45;&gt;Node12 -->
<g id="edge42" class="edge">
<title>Node27&#45;&gt;Node12</title>
<path fill="none" stroke="midnightblue" d="M1083.26,-246.48C1048.27,-237.5 992.32,-223.15 948.69,-211.96"/>
<polygon fill="midnightblue" stroke="midnightblue" points="949.29,-208.5 938.73,-209.41 947.55,-215.28 949.29,-208.5"/>
</g>
<!-- Node27&#45;&gt;Node23 -->
<g id="edge43" class="edge">
<title>Node27&#45;&gt;Node23</title>
<path fill="none" stroke="midnightblue" d="M1174.37,-246.47C1233.52,-237.67 1327.99,-223.38 1409.5,-210 1417.7,-208.65 1426.34,-207.19 1434.83,-205.73"/>
<polygon fill="midnightblue" stroke="midnightblue" points="1435.43,-209.18 1444.69,-204.03 1434.24,-202.28 1435.43,-209.18"/>
</g>
<!-- Node28 -->
<g id="node28" class="node">
<title>Node28</title>
<g id="a_node28"><a xlink:title=" ">
<polygon fill="none" stroke="#bfbfbf" points="956.5,-179.5 956.5,-209.5 1066.5,-209.5 1066.5,-179.5 956.5,-179.5"/>
<text text-anchor="start" x="964.5" y="-197.5" font-family="Helvetica,sans-Serif" font-size="10.00">range/v3/algorithm</text>
<text text-anchor="middle" x="1011.5" y="-186.5" font-family="Helvetica,sans-Serif" font-size="10.00">/max_element.hpp</text>
</a>
</g>
</g>
<!-- Node27&#45;&gt;Node28 -->
<g id="edge45" class="edge">
<title>Node27&#45;&gt;Node28</title>
<path fill="none" stroke="midnightblue" d="M1101.46,-246.48C1086.84,-238.19 1064.13,-225.32 1045.19,-214.59"/>
<polygon fill="midnightblue" stroke="midnightblue" points="1046.67,-211.41 1036.25,-209.52 1043.22,-217.5 1046.67,-211.41"/>
</g>
</g>
</svg>
