<?xml version="1.0" encoding="UTF-8" standalone="no"?>
<!DOCTYPE svg PUBLIC "-//W3C//DTD SVG 1.1//EN"
 "http://www.w3.org/Graphics/SVG/1.1/DTD/svg11.dtd">
<!-- Generated by graphviz version 2.43.0 (0)
 -->
<!-- Title: /home/runner/work/beluga/beluga/beluga/include/beluga/actions.hpp Pages: 1 -->
<!--zoomable 352 -->
<svg id="main" version="1.1" xmlns="http://www.w3.org/2000/svg" xmlns:xlink="http://www.w3.org/1999/xlink" xml:space="preserve" onload="init(evt)">
<style type="text/css"><![CDATA[
.edge:hover path { stroke: red; }
.edge:hover polygon { stroke: red; fill: red; }
]]></style>
<script type="text/javascript"><![CDATA[
var edges = document.getElementsByTagName('g');
if (edges && edges.length) {
  for (var i=0;i<edges.length;i++) {
    if (edges[i].id.substr(0,4)=='edge') {
      edges[i].setAttribute('class','edge');
    }
  }
}
]]></script>
        <defs>
                <circle id="rim" cx="0" cy="0" r="7"/>
                <circle id="rim2" cx="0" cy="0" r="3.5"/>
                <g id="zoomPlus">
                        <use xlink:href="#rim" fill="#404040">
                                <set attributeName="fill" to="#808080" begin="zoomplus.mouseover" end="zoomplus.mouseout"/>
                        </use>
                        <path d="M-4,0h8M0,-4v8" fill="none" stroke="white" stroke-width="1.5" pointer-events="none"/>
                </g>
                <g id="zoomMin">
                        <use xlink:href="#rim" fill="#404040">
                                <set attributeName="fill" to="#808080" begin="zoomminus.mouseover" end="zoomminus.mouseout"/>
                        </use>
                        <path d="M-4,0h8" fill="none" stroke="white" stroke-width="1.5" pointer-events="none"/>
                </g>
                <g id="dirArrow">
                        <path fill="none" stroke="white" stroke-width="1.5" d="M0,-3.0v7 M-2.5,-0.5L0,-3.0L2.5,-0.5"/>
                </g>
               <g id="resetDef">
                       <use xlink:href="#rim2" fill="#404040">
                               <set attributeName="fill" to="#808080" begin="reset.mouseover" end="reset.mouseout"/>
                       </use>
               </g>
        </defs>

<script type="text/javascript">
var viewWidth = 1775;
var viewHeight = 352;
var sectionId = 'dynsection-0';
</script>
<script xlink:href="svgpan.js"/>
<svg id="graph" class="graph">
<g id="viewport">
<title>/home/runner/work/beluga/beluga/beluga/include/beluga/actions.hpp</title>
<!-- Node1 -->
<g id="node1" class="node">
<title>Node1</title>
<g id="a_node1"><a xlink:title="Implementation of useful range actions.">
<polygon fill="#bfbfbf" stroke="black" points="1000,-302.5 1000,-343.5 1145,-343.5 1145,-302.5 1000,-302.5"/>
<text text-anchor="start" x="1008" y="-331.5" font-family="Helvetica,sans-Serif" font-size="10.00">/home/runner/work/beluga</text>
<text text-anchor="start" x="1008" y="-320.5" font-family="Helvetica,sans-Serif" font-size="10.00">/beluga/beluga/include</text>
<text text-anchor="middle" x="1072.5" y="-309.5" font-family="Helvetica,sans-Serif" font-size="10.00">/beluga/actions.hpp</text>
</a>
</g>
</g>
<!-- Node2 -->
<g id="node2" class="node">
<title>Node2</title>
<g id="a_node2"><a xlink:href="assign_8hpp.html" target="_top" xlink:title="Implementation of the assign range adaptor object.">
<polygon fill="none" stroke="black" points="320,-246.5 320,-265.5 463,-265.5 463,-246.5 320,-246.5"/>
<text text-anchor="middle" x="391.5" y="-253.5" font-family="Helvetica,sans-Serif" font-size="10.00">beluga/actions/assign.hpp</text>
</a>
</g>
</g>
<!-- Node1&#45;&gt;Node2 -->
<g id="edge1" class="edge">
<title>Node1&#45;&gt;Node2</title>
<path fill="none" stroke="midnightblue" d="M999.94,-315.07C872.1,-302.87 607.57,-277.62 473.38,-264.82"/>
<polygon fill="midnightblue" stroke="midnightblue" points="473.46,-261.31 463.17,-263.84 472.79,-268.27 473.46,-261.31"/>
</g>
<!-- Node7 -->
<g id="node7" class="node">
<title>Node7</title>
<g id="a_node7"><a xlink:href="normalize_8hpp.html" target="_top" xlink:title="Implementation of the normalize range adaptor object.">
<polygon fill="none" stroke="black" points="904,-246.5 904,-265.5 1065,-265.5 1065,-246.5 904,-246.5"/>
<text text-anchor="middle" x="984.5" y="-253.5" font-family="Helvetica,sans-Serif" font-size="10.00">beluga/actions/normalize.hpp</text>
</a>
</g>
</g>
<!-- Node1&#45;&gt;Node7 -->
<g id="edge6" class="edge">
<title>Node1&#45;&gt;Node7</title>
<path fill="none" stroke="midnightblue" d="M1046.1,-302.5C1032.73,-292.63 1016.78,-280.84 1004.46,-271.74"/>
<polygon fill="midnightblue" stroke="midnightblue" points="1006.34,-268.78 996.21,-265.65 1002.18,-274.41 1006.34,-268.78"/>
</g>
<!-- Node25 -->
<g id="node25" class="node">
<title>Node25</title>
<g id="a_node25"><a xlink:href="propagate_8hpp.html" target="_top" xlink:title="Implementation of the propagate range adaptor object.">
<polygon fill="none" stroke="black" points="1256,-246.5 1256,-265.5 1417,-265.5 1417,-246.5 1256,-246.5"/>
<text text-anchor="middle" x="1336.5" y="-253.5" font-family="Helvetica,sans-Serif" font-size="10.00">beluga/actions/propagate.hpp</text>
</a>
</g>
</g>
<!-- Node1&#45;&gt;Node25 -->
<g id="edge30" class="edge">
<title>Node1&#45;&gt;Node25</title>
<path fill="none" stroke="midnightblue" d="M1145.34,-304.07C1192.33,-292.5 1251.94,-277.82 1291.99,-267.96"/>
<polygon fill="midnightblue" stroke="midnightblue" points="1292.86,-271.35 1301.73,-265.56 1291.19,-264.55 1292.86,-271.35"/>
</g>
<!-- Node27 -->
<g id="node27" class="node">
<title>Node27</title>
<g id="a_node27"><a xlink:href="reweight_8hpp.html" target="_top" xlink:title="Implementation of the reweight range adaptor object.">
<polygon fill="none" stroke="black" points="1083,-246.5 1083,-265.5 1238,-265.5 1238,-246.5 1083,-246.5"/>
<text text-anchor="middle" x="1160.5" y="-253.5" font-family="Helvetica,sans-Serif" font-size="10.00">beluga/actions/reweight.hpp</text>
</a>
</g>
</g>
<!-- Node1&#45;&gt;Node27 -->
<g id="edge39" class="edge">
<title>Node1&#45;&gt;Node27</title>
<path fill="none" stroke="midnightblue" d="M1098.9,-302.5C1112.27,-292.63 1128.22,-280.84 1140.54,-271.74"/>
<polygon fill="midnightblue" stroke="midnightblue" points="1142.82,-274.41 1148.79,-265.65 1138.66,-268.78 1142.82,-274.41"/>
</g>
<!-- Node3 -->
<g id="node3" class="node">
<title>Node3</title>
<g id="a_node3"><a xlink:title=" ">
<polygon fill="none" stroke="#bfbfbf" points="666.5,-185 666.5,-204 812.5,-204 812.5,-185 666.5,-185"/>
<text text-anchor="middle" x="739.5" y="-192" font-family="Helvetica,sans-Serif" font-size="10.00">range/v3/action/action.hpp</text>
</a>
</g>
</g>
<!-- Node2&#45;&gt;Node3 -->
<g id="edge2" class="edge">
<title>Node2&#45;&gt;Node3</title>
<path fill="none" stroke="midnightblue" d="M442.31,-246.44C495.67,-237.44 582,-222.83 656.5,-210 664.39,-208.64 672.7,-207.2 680.89,-205.77"/>
<polygon fill="midnightblue" stroke="midnightblue" points="681.54,-209.21 690.79,-204.05 680.34,-202.32 681.54,-209.21"/>
</g>
<!-- Node4 -->
<g id="node4" class="node">
<title>Node4</title>
<g id="a_node4"><a xlink:title=" ">
<polygon fill="none" stroke="#bfbfbf" points="336,-179.5 336,-209.5 447,-209.5 447,-179.5 336,-179.5"/>
<text text-anchor="start" x="344" y="-197.5" font-family="Helvetica,sans-Serif" font-size="10.00">range/v3/functional</text>
<text text-anchor="middle" x="391.5" y="-186.5" font-family="Helvetica,sans-Serif" font-size="10.00">/bind_back.hpp</text>
</a>
</g>
</g>
<!-- Node2&#45;&gt;Node4 -->
<g id="edge3" class="edge">
<title>Node2&#45;&gt;Node4</title>
<path fill="none" stroke="midnightblue" d="M391.5,-246.48C391.5,-239.47 391.5,-229.19 391.5,-219.7"/>
<polygon fill="midnightblue" stroke="midnightblue" points="395,-219.52 391.5,-209.52 388,-219.52 395,-219.52"/>
</g>
<!-- Node5 -->
<g id="node5" class="node">
<title>Node5</title>
<g id="a_node5"><a xlink:title=" ">
<polygon fill="none" stroke="#bfbfbf" points="0,-185 0,-204 167,-204 167,-185 0,-185"/>
<text text-anchor="middle" x="83.5" y="-192" font-family="Helvetica,sans-Serif" font-size="10.00">range/v3/range/conversion.hpp</text>
</a>
</g>
</g>
<!-- Node2&#45;&gt;Node5 -->
<g id="edge4" class="edge">
<title>Node2&#45;&gt;Node5</title>
<path fill="none" stroke="midnightblue" d="M347.37,-246.48C292.02,-235.78 197.16,-217.46 137.53,-205.94"/>
<polygon fill="midnightblue" stroke="midnightblue" points="138.03,-202.47 127.55,-204.01 136.7,-209.34 138.03,-202.47"/>
</g>
<!-- Node6 -->
<g id="node6" class="node">
<title>Node6</title>
<g id="a_node6"><a xlink:title=" ">
<polygon fill="none" stroke="#bfbfbf" points="185.5,-185 185.5,-204 317.5,-204 317.5,-185 185.5,-185"/>
<text text-anchor="middle" x="251.5" y="-192" font-family="Helvetica,sans-Serif" font-size="10.00">range/v3/view/view.hpp</text>
</a>
</g>
</g>
<!-- Node2&#45;&gt;Node6 -->
<g id="edge5" class="edge">
<title>Node2&#45;&gt;Node6</title>
<path fill="none" stroke="midnightblue" d="M371.44,-246.48C347.74,-236.4 308.09,-219.55 280.92,-208"/>
<polygon fill="midnightblue" stroke="midnightblue" points="282.09,-204.7 271.52,-204.01 279.36,-211.14 282.09,-204.7"/>
</g>
<!-- Node7&#45;&gt;Node3 -->
<g id="edge27" class="edge">
<title>Node7&#45;&gt;Node3</title>
<path fill="none" stroke="midnightblue" d="M949.4,-246.48C906.01,-235.94 832.09,-217.99 784.55,-206.44"/>
<polygon fill="midnightblue" stroke="midnightblue" points="785.08,-202.97 774.54,-204.01 783.43,-209.77 785.08,-202.97"/>
</g>
<!-- Node8 -->
<g id="node8" class="node">
<title>Node8</title>
<g id="a_node8"><a xlink:title=" ">
<polygon fill="none" stroke="#bfbfbf" points="1128.5,-185 1128.5,-204 1192.5,-204 1192.5,-185 1128.5,-185"/>
<text text-anchor="middle" x="1160.5" y="-192" font-family="Helvetica,sans-Serif" font-size="10.00">algorithm</text>
</a>
</g>
</g>
<!-- Node7&#45;&gt;Node8 -->
<g id="edge7" class="edge">
<title>Node7&#45;&gt;Node8</title>
<path fill="none" stroke="midnightblue" d="M1010.68,-246.43C1037.91,-237.48 1081.76,-222.96 1119.5,-210 1121.94,-209.16 1124.45,-208.29 1126.98,-207.41"/>
<polygon fill="midnightblue" stroke="midnightblue" points="1128.4,-210.62 1136.68,-204.01 1126.08,-204.02 1128.4,-210.62"/>
</g>
<!-- Node9 -->
<g id="node9" class="node">
<title>Node9</title>
<g id="a_node9"><a xlink:title=" ">
<polygon fill="none" stroke="#bfbfbf" points="1210.5,-185 1210.5,-204 1274.5,-204 1274.5,-185 1210.5,-185"/>
<text text-anchor="middle" x="1242.5" y="-192" font-family="Helvetica,sans-Serif" font-size="10.00">execution</text>
</a>
</g>
</g>
<!-- Node7&#45;&gt;Node9 -->
<g id="edge8" class="edge">
<title>Node7&#45;&gt;Node9</title>
<path fill="none" stroke="midnightblue" d="M1035.39,-246.46C1079.67,-238.55 1145.36,-225.67 1201.5,-210 1204.46,-209.17 1207.51,-208.24 1210.56,-207.26"/>
<polygon fill="midnightblue" stroke="midnightblue" points="1211.77,-210.55 1220.12,-204.03 1209.52,-203.92 1211.77,-210.55"/>
</g>
<!-- Node10 -->
<g id="node10" class="node">
<title>Node10</title>
<g id="a_node10"><a xlink:href="particle__traits_8hpp.html" target="_top" xlink:title="Implementation of traits for particle types, see the Particle named requirements.">
<polygon fill="none" stroke="black" points="1292.5,-179.5 1292.5,-209.5 1400.5,-209.5 1400.5,-179.5 1292.5,-179.5"/>
<text text-anchor="start" x="1300.5" y="-197.5" font-family="Helvetica,sans-Serif" font-size="10.00">beluga/type_traits</text>
<text text-anchor="middle" x="1346.5" y="-186.5" font-family="Helvetica,sans-Serif" font-size="10.00">/particle_traits.hpp</text>
</a>
</g>
</g>
<!-- Node7&#45;&gt;Node10 -->
<g id="edge9" class="edge">
<title>Node7&#45;&gt;Node10</title>
<path fill="none" stroke="midnightblue" d="M1050.96,-246.49C1109.46,-238.66 1197.15,-226.09 1282.41,-210.12"/>
<polygon fill="midnightblue" stroke="midnightblue" points="1283.08,-213.56 1292.26,-208.26 1281.78,-206.68 1283.08,-213.56"/>
</g>
<!-- Node21 -->
<g id="node21" class="node">
<title>Node21</title>
<g id="a_node21"><a xlink:href="particles_8hpp.html" target="_top" xlink:title="Implementation of views related to particle ranges.">
<polygon fill="none" stroke="black" points="1419,-185 1419,-204 1566,-204 1566,-185 1419,-185"/>
<text text-anchor="middle" x="1492.5" y="-192" font-family="Helvetica,sans-Serif" font-size="10.00">beluga/views/particles.hpp</text>
</a>
</g>
</g>
<!-- Node7&#45;&gt;Node21 -->
<g id="edge24" class="edge">
<title>Node7&#45;&gt;Node21</title>
<path fill="none" stroke="midnightblue" d="M1065.41,-246.73C1179.21,-235.06 1376.39,-214.64 1409.5,-210 1418.34,-208.76 1427.68,-207.29 1436.79,-205.76"/>
<polygon fill="midnightblue" stroke="midnightblue" points="1437.66,-209.17 1446.92,-204.03 1436.48,-202.27 1437.66,-209.17"/>
</g>
<!-- Node23 -->
<g id="node23" class="node">
<title>Node23</title>
<g id="a_node23"><a xlink:title=" ">
<polygon fill="none" stroke="#bfbfbf" points="465,-185 465,-204 648,-204 648,-185 465,-185"/>
<text text-anchor="middle" x="556.5" y="-192" font-family="Helvetica,sans-Serif" font-size="10.00">range/v3/numeric/accumulate.hpp</text>
</a>
</g>
</g>
<!-- Node7&#45;&gt;Node23 -->
<g id="edge28" class="edge">
<title>Node7&#45;&gt;Node23</title>
<path fill="none" stroke="midnightblue" d="M921.8,-246.48C855.96,-237.51 749.43,-222.92 657.5,-210 647.2,-208.55 636.31,-207 625.64,-205.48"/>
<polygon fill="midnightblue" stroke="midnightblue" points="625.9,-201.98 615.51,-204.03 624.91,-208.91 625.9,-201.98"/>
</g>
<!-- Node24 -->
<g id="node24" class="node">
<title>Node24</title>
<g id="a_node24"><a xlink:title=" ">
<polygon fill="none" stroke="#bfbfbf" points="830.5,-185 830.5,-204 982.5,-204 982.5,-185 830.5,-185"/>
<text text-anchor="middle" x="906.5" y="-192" font-family="Helvetica,sans-Serif" font-size="10.00">range/v3/view/common.hpp</text>
</a>
</g>
</g>
<!-- Node7&#45;&gt;Node24 -->
<g id="edge29" class="edge">
<title>Node7&#45;&gt;Node24</title>
<path fill="none" stroke="midnightblue" d="M973.32,-246.48C960.93,-237.02 940.71,-221.6 925.75,-210.19"/>
<polygon fill="midnightblue" stroke="midnightblue" points="927.73,-207.29 917.65,-204.01 923.48,-212.86 927.73,-207.29"/>
</g>
<!-- Node11 -->
<g id="node11" class="node">
<title>Node11</title>
<g id="a_node11"><a xlink:href="primitives_8hpp.html" target="_top" xlink:title="Implementation of library primitives to abstract member access.">
<polygon fill="none" stroke="black" points="1387,-123.5 1387,-142.5 1510,-142.5 1510,-123.5 1387,-123.5"/>
<text text-anchor="middle" x="1448.5" y="-130.5" font-family="Helvetica,sans-Serif" font-size="10.00">beluga/primitives.hpp</text>
</a>
</g>
</g>
<!-- Node10&#45;&gt;Node11 -->
<g id="edge10" class="edge">
<title>Node10&#45;&gt;Node11</title>
<path fill="none" stroke="midnightblue" d="M1370.67,-179.4C1387.02,-169.86 1408.51,-157.32 1424.77,-147.84"/>
<polygon fill="midnightblue" stroke="midnightblue" points="1426.78,-150.72 1433.66,-142.66 1423.26,-144.67 1426.78,-150.72"/>
</g>
<!-- Node17 -->
<g id="node17" class="node">
<title>Node17</title>
<g id="a_node17"><a xlink:href="tuple__traits_8hpp.html" target="_top" xlink:title="Implementation of traits for tuple&#45;like types.">
<polygon fill="none" stroke="black" points="1239,-56.5 1239,-86.5 1344,-86.5 1344,-56.5 1239,-56.5"/>
<text text-anchor="start" x="1247" y="-74.5" font-family="Helvetica,sans-Serif" font-size="10.00">beluga/type_traits</text>
<text text-anchor="middle" x="1291.5" y="-63.5" font-family="Helvetica,sans-Serif" font-size="10.00">/tuple_traits.hpp</text>
</a>
</g>
</g>
<!-- Node10&#45;&gt;Node17 -->
<g id="edge22" class="edge">
<title>Node10&#45;&gt;Node17</title>
<path fill="none" stroke="midnightblue" d="M1344.24,-179.48C1341.55,-164.87 1336.27,-141.57 1327.5,-123 1322.86,-113.17 1316.28,-103.24 1310.01,-94.82"/>
<polygon fill="midnightblue" stroke="midnightblue" points="1312.58,-92.42 1303.69,-86.66 1307.05,-96.71 1312.58,-92.42"/>
</g>
<!-- Node20 -->
<g id="node20" class="node">
<title>Node20</title>
<g id="a_node20"><a xlink:title=" ">
<polygon fill="none" stroke="#bfbfbf" points="1178.5,-123.5 1178.5,-142.5 1318.5,-142.5 1318.5,-123.5 1178.5,-123.5"/>
<text text-anchor="middle" x="1248.5" y="-130.5" font-family="Helvetica,sans-Serif" font-size="10.00">range/v3/range/traits.hpp</text>
</a>
</g>
</g>
<!-- Node10&#45;&gt;Node20 -->
<g id="edge23" class="edge">
<title>Node10&#45;&gt;Node20</title>
<path fill="none" stroke="midnightblue" d="M1323.28,-179.4C1307.71,-169.95 1287.3,-157.56 1271.74,-148.11"/>
<polygon fill="midnightblue" stroke="midnightblue" points="1273.12,-144.86 1262.76,-142.66 1269.49,-150.84 1273.12,-144.86"/>
</g>
<!-- Node12 -->
<g id="node12" class="node">
<title>Node12</title>
<g id="a_node12"><a xlink:title=" ">
<polygon fill="none" stroke="#bfbfbf" points="1342,-0.5 1342,-19.5 1383,-19.5 1383,-0.5 1342,-0.5"/>
<text text-anchor="middle" x="1362.5" y="-7.5" font-family="Helvetica,sans-Serif" font-size="10.00">tuple</text>
</a>
</g>
</g>
<!-- Node11&#45;&gt;Node12 -->
<g id="edge11" class="edge">
<title>Node11&#45;&gt;Node12</title>
<path fill="none" stroke="midnightblue" d="M1433.54,-123.4C1420.81,-115.41 1402.84,-102.45 1391.5,-87 1378.73,-69.61 1370.87,-45.92 1366.61,-29.63"/>
<polygon fill="midnightblue" stroke="midnightblue" points="1369.97,-28.61 1364.22,-19.71 1363.16,-30.25 1369.97,-28.61"/>
</g>
<!-- Node13 -->
<g id="node13" class="node">
<title>Node13</title>
<g id="a_node13"><a xlink:title=" ">
<polygon fill="none" stroke="#bfbfbf" points="1686,-0.5 1686,-19.5 1755,-19.5 1755,-0.5 1686,-0.5"/>
<text text-anchor="middle" x="1720.5" y="-7.5" font-family="Helvetica,sans-Serif" font-size="10.00">type_traits</text>
</a>
</g>
</g>
<!-- Node11&#45;&gt;Node13 -->
<g id="edge12" class="edge">
<title>Node11&#45;&gt;Node13</title>
<path fill="none" stroke="midnightblue" d="M1507.76,-123.46C1582.01,-112.5 1700.45,-94.07 1707.5,-87 1722.31,-72.15 1723.86,-47.01 1722.84,-29.74"/>
<polygon fill="midnightblue" stroke="midnightblue" points="1726.31,-29.34 1721.9,-19.71 1719.34,-29.99 1726.31,-29.34"/>
</g>
<!-- Node14 -->
<g id="node14" class="node">
<title>Node14</title>
<g id="a_node14"><a xlink:href="strongly__typed__numeric_8hpp.html" target="_top" xlink:title="Implementation of a strongly typed numeric helper.">
<polygon fill="none" stroke="black" points="1540.5,-56.5 1540.5,-86.5 1698.5,-86.5 1698.5,-56.5 1540.5,-56.5"/>
<text text-anchor="start" x="1548.5" y="-74.5" font-family="Helvetica,sans-Serif" font-size="10.00">beluga/type_traits</text>
<text text-anchor="middle" x="1619.5" y="-63.5" font-family="Helvetica,sans-Serif" font-size="10.00">/strongly_typed_numeric.hpp</text>
</a>
</g>
</g>
<!-- Node11&#45;&gt;Node14 -->
<g id="edge13" class="edge">
<title>Node11&#45;&gt;Node14</title>
<path fill="none" stroke="midnightblue" d="M1473,-123.48C1498.11,-114.74 1537.86,-100.91 1569.62,-89.86"/>
<polygon fill="midnightblue" stroke="midnightblue" points="1570.9,-93.11 1579.2,-86.52 1568.6,-86.5 1570.9,-93.11"/>
</g>
<!-- Node11&#45;&gt;Node17 -->
<g id="edge17" class="edge">
<title>Node11&#45;&gt;Node17</title>
<path fill="none" stroke="midnightblue" d="M1426.01,-123.48C1403.15,-114.81 1367.09,-101.15 1338.05,-90.14"/>
<polygon fill="midnightblue" stroke="midnightblue" points="1339.09,-86.79 1328.5,-86.52 1336.61,-93.34 1339.09,-86.79"/>
</g>
<!-- Node19 -->
<g id="node19" class="node">
<title>Node19</title>
<g id="a_node19"><a xlink:href="forward__like_8hpp_source.html" target="_top" xlink:title=" ">
<polygon fill="none" stroke="black" points="1400.5,-56.5 1400.5,-86.5 1522.5,-86.5 1522.5,-56.5 1400.5,-56.5"/>
<text text-anchor="start" x="1408.5" y="-74.5" font-family="Helvetica,sans-Serif" font-size="10.00">beluga/utility/forward</text>
<text text-anchor="middle" x="1461.5" y="-63.5" font-family="Helvetica,sans-Serif" font-size="10.00">_like.hpp</text>
</a>
</g>
</g>
<!-- Node11&#45;&gt;Node19 -->
<g id="edge21" class="edge">
<title>Node11&#45;&gt;Node19</title>
<path fill="none" stroke="midnightblue" d="M1450.36,-123.48C1451.91,-116.4 1454.19,-105.97 1456.28,-96.39"/>
<polygon fill="midnightblue" stroke="midnightblue" points="1459.72,-97.04 1458.44,-86.52 1452.88,-95.55 1459.72,-97.04"/>
</g>
<!-- Node14&#45;&gt;Node13 -->
<g id="edge16" class="edge">
<title>Node14&#45;&gt;Node13</title>
<path fill="none" stroke="midnightblue" d="M1643.44,-56.4C1659.63,-46.86 1680.91,-34.32 1697,-24.84"/>
<polygon fill="midnightblue" stroke="midnightblue" points="1698.96,-27.75 1705.8,-19.66 1695.41,-21.72 1698.96,-27.75"/>
</g>
<!-- Node15 -->
<g id="node15" class="node">
<title>Node15</title>
<g id="a_node15"><a xlink:title=" ">
<polygon fill="none" stroke="#bfbfbf" points="1592,-0.5 1592,-19.5 1657,-19.5 1657,-0.5 1592,-0.5"/>
<text text-anchor="middle" x="1624.5" y="-7.5" font-family="Helvetica,sans-Serif" font-size="10.00">functional</text>
</a>
</g>
</g>
<!-- Node14&#45;&gt;Node15 -->
<g id="edge14" class="edge">
<title>Node14&#45;&gt;Node15</title>
<path fill="none" stroke="midnightblue" d="M1620.68,-56.4C1621.35,-48.47 1622.19,-38.46 1622.92,-29.86"/>
<polygon fill="midnightblue" stroke="midnightblue" points="1626.42,-29.92 1623.77,-19.66 1619.45,-29.33 1626.42,-29.92"/>
</g>
<!-- Node16 -->
<g id="node16" class="node">
<title>Node16</title>
<g id="a_node16"><a xlink:title=" ">
<polygon fill="none" stroke="#bfbfbf" points="1529.5,-0.5 1529.5,-19.5 1573.5,-19.5 1573.5,-0.5 1529.5,-0.5"/>
<text text-anchor="middle" x="1551.5" y="-7.5" font-family="Helvetica,sans-Serif" font-size="10.00">limits</text>
</a>
</g>
</g>
<!-- Node14&#45;&gt;Node16 -->
<g id="edge15" class="edge">
<title>Node14&#45;&gt;Node16</title>
<path fill="none" stroke="midnightblue" d="M1603.38,-56.4C1593.1,-47.4 1579.75,-35.72 1569.17,-26.47"/>
<polygon fill="midnightblue" stroke="midnightblue" points="1571.23,-23.61 1561.39,-19.66 1566.62,-28.88 1571.23,-23.61"/>
</g>
<!-- Node17&#45;&gt;Node12 -->
<g id="edge18" class="edge">
<title>Node17&#45;&gt;Node12</title>
<path fill="none" stroke="midnightblue" d="M1308.33,-56.4C1319.17,-47.31 1333.28,-35.49 1344.37,-26.19"/>
<polygon fill="midnightblue" stroke="midnightblue" points="1346.75,-28.76 1352.17,-19.66 1342.26,-23.4 1346.75,-28.76"/>
</g>
<!-- Node17&#45;&gt;Node13 -->
<g id="edge19" class="edge">
<title>Node17&#45;&gt;Node13</title>
<path fill="none" stroke="midnightblue" d="M1344.16,-62.73C1359.42,-60.51 1376.12,-58.12 1391.5,-56 1513.61,-39.16 1544.58,-38.14 1666.5,-20 1669.55,-19.55 1672.7,-19.06 1675.86,-18.56"/>
<polygon fill="midnightblue" stroke="midnightblue" points="1676.64,-21.98 1685.96,-16.94 1675.53,-15.07 1676.64,-21.98"/>
</g>
<!-- Node18 -->
<g id="node18" class="node">
<title>Node18</title>
<g id="a_node18"><a xlink:title=" ">
<polygon fill="none" stroke="#bfbfbf" points="1269,-0.5 1269,-19.5 1314,-19.5 1314,-0.5 1269,-0.5"/>
<text text-anchor="middle" x="1291.5" y="-7.5" font-family="Helvetica,sans-Serif" font-size="10.00">utility</text>
</a>
</g>
</g>
<!-- Node17&#45;&gt;Node18 -->
<g id="edge20" class="edge">
<title>Node17&#45;&gt;Node18</title>
<path fill="none" stroke="midnightblue" d="M1291.5,-56.4C1291.5,-48.47 1291.5,-38.46 1291.5,-29.86"/>
<polygon fill="midnightblue" stroke="midnightblue" points="1295,-29.66 1291.5,-19.66 1288,-29.66 1295,-29.66"/>
</g>
<!-- Node21&#45;&gt;Node11 -->
<g id="edge25" class="edge">
<title>Node21&#45;&gt;Node11</title>
<path fill="none" stroke="midnightblue" d="M1486.2,-184.98C1479.6,-176.05 1469.06,-161.81 1460.81,-150.64"/>
<polygon fill="midnightblue" stroke="midnightblue" points="1463.55,-148.47 1454.79,-142.51 1457.92,-152.63 1463.55,-148.47"/>
</g>
<!-- Node22 -->
<g id="node22" class="node">
<title>Node22</title>
<g id="a_node22"><a xlink:title=" ">
<polygon fill="none" stroke="#bfbfbf" points="1528.5,-123.5 1528.5,-142.5 1686.5,-142.5 1686.5,-123.5 1528.5,-123.5"/>
<text text-anchor="middle" x="1607.5" y="-130.5" font-family="Helvetica,sans-Serif" font-size="10.00">range/v3/view/transform.hpp</text>
</a>
</g>
</g>
<!-- Node21&#45;&gt;Node22 -->
<g id="edge26" class="edge">
<title>Node21&#45;&gt;Node22</title>
<path fill="none" stroke="midnightblue" d="M1508.98,-184.98C1528.11,-175.08 1559.87,-158.64 1582.15,-147.12"/>
<polygon fill="midnightblue" stroke="midnightblue" points="1583.78,-150.21 1591.05,-142.51 1580.56,-144 1583.78,-150.21"/>
</g>
<!-- Node25&#45;&gt;Node3 -->
<g id="edge36" class="edge">
<title>Node25&#45;&gt;Node3</title>
<path fill="none" stroke="midnightblue" d="M1255.55,-246.85C1252.5,-246.56 1249.47,-246.27 1246.5,-246 1057.74,-228.57 1009.47,-234.53 821.5,-210 812.45,-208.82 802.87,-207.34 793.58,-205.78"/>
<polygon fill="midnightblue" stroke="midnightblue" points="794.1,-202.31 783.65,-204.06 792.9,-209.21 794.1,-202.31"/>
</g>
<!-- Node25&#45;&gt;Node8 -->
<g id="edge31" class="edge">
<title>Node25&#45;&gt;Node8</title>
<path fill="none" stroke="midnightblue" d="M1310.32,-246.43C1283.09,-237.48 1239.24,-222.96 1201.5,-210 1199.06,-209.16 1196.55,-208.29 1194.02,-207.41"/>
<polygon fill="midnightblue" stroke="midnightblue" points="1194.92,-204.02 1184.32,-204.01 1192.6,-210.62 1194.92,-204.02"/>
</g>
<!-- Node25&#45;&gt;Node9 -->
<g id="edge32" class="edge">
<title>Node25&#45;&gt;Node9</title>
<path fill="none" stroke="midnightblue" d="M1323.03,-246.48C1307.82,-236.84 1282.81,-221.02 1264.7,-209.55"/>
<polygon fill="midnightblue" stroke="midnightblue" points="1266.26,-206.4 1255.94,-204.01 1262.52,-212.31 1266.26,-206.4"/>
</g>
<!-- Node25&#45;&gt;Node10 -->
<g id="edge34" class="edge">
<title>Node25&#45;&gt;Node10</title>
<path fill="none" stroke="midnightblue" d="M1337.93,-246.48C1339.12,-239.4 1340.87,-228.97 1342.48,-219.39"/>
<polygon fill="midnightblue" stroke="midnightblue" points="1345.94,-219.96 1344.14,-209.52 1339.03,-218.8 1345.94,-219.96"/>
</g>
<!-- Node25&#45;&gt;Node13 -->
<g id="edge33" class="edge">
<title>Node25&#45;&gt;Node13</title>
<path fill="none" stroke="midnightblue" d="M1417.1,-251.81C1530.02,-246.5 1724.02,-233.97 1745.5,-210 1791.79,-158.34 1750.9,-66.59 1730.48,-28.41"/>
<polygon fill="midnightblue" stroke="midnightblue" points="1733.47,-26.59 1725.57,-19.53 1727.35,-29.98 1733.47,-26.59"/>
</g>
<!-- Node25&#45;&gt;Node21 -->
<g id="edge35" class="edge">
<title>Node25&#45;&gt;Node21</title>
<path fill="none" stroke="midnightblue" d="M1358.85,-246.48C1385.49,-236.31 1430.21,-219.26 1460.51,-207.7"/>
<polygon fill="midnightblue" stroke="midnightblue" points="1462.09,-210.84 1470.19,-204.01 1459.6,-204.3 1462.09,-210.84"/>
</g>
<!-- Node25&#45;&gt;Node24 -->
<g id="edge38" class="edge">
<title>Node25&#45;&gt;Node24</title>
<path fill="none" stroke="midnightblue" d="M1264.69,-246.47C1194.83,-237.97 1085.73,-224.18 991.5,-210 982.79,-208.69 973.59,-207.21 964.59,-205.72"/>
<polygon fill="midnightblue" stroke="midnightblue" points="964.99,-202.24 954.55,-204.03 963.83,-209.14 964.99,-202.24"/>
</g>
<!-- Node26 -->
<g id="node26" class="node">
<title>Node26</title>
<g id="a_node26"><a xlink:title=" ">
<polygon fill="none" stroke="#bfbfbf" points="1584.5,-185 1584.5,-204 1736.5,-204 1736.5,-185 1584.5,-185"/>
<text text-anchor="middle" x="1660.5" y="-192" font-family="Helvetica,sans-Serif" font-size="10.00">range/v3/utility/random.hpp</text>
</a>
</g>
</g>
<!-- Node25&#45;&gt;Node26 -->
<g id="edge37" class="edge">
<title>Node25&#45;&gt;Node26</title>
<path fill="none" stroke="midnightblue" d="M1382.92,-246.48C1441.27,-235.76 1541.34,-217.38 1604.05,-205.87"/>
<polygon fill="midnightblue" stroke="midnightblue" points="1604.96,-209.26 1614.16,-204.01 1603.7,-202.37 1604.96,-209.26"/>
</g>
<!-- Node27&#45;&gt;Node3 -->
<g id="edge44" class="edge">
<title>Node27&#45;&gt;Node3</title>
<path fill="none" stroke="midnightblue" d="M1089.6,-246.49C1020.93,-238.03 913.91,-224.3 821.5,-210 813.18,-208.71 804.41,-207.26 795.81,-205.79"/>
<polygon fill="midnightblue" stroke="midnightblue" points="796.3,-202.32 785.84,-204.05 795.1,-209.22 796.3,-202.32"/>
</g>
<!-- Node27&#45;&gt;Node8 -->
<g id="edge40" class="edge">
<title>Node27&#45;&gt;Node8</title>
<path fill="none" stroke="midnightblue" d="M1160.5,-246.48C1160.5,-238.08 1160.5,-224.98 1160.5,-214.16"/>
<polygon fill="midnightblue" stroke="midnightblue" points="1164,-214.01 1160.5,-204.01 1157,-214.01 1164,-214.01"/>
</g>
<!-- Node27&#45;&gt;Node9 -->
<g id="edge41" class="edge">
<title>Node27&#45;&gt;Node9</title>
<path fill="none" stroke="midnightblue" d="M1172.25,-246.48C1185.28,-237.02 1206.54,-221.6 1222.26,-210.19"/>
<polygon fill="midnightblue" stroke="midnightblue" points="1224.73,-212.71 1230.77,-204.01 1220.62,-207.05 1224.73,-212.71"/>
</g>
<!-- Node27&#45;&gt;Node10 -->
<g id="edge42" class="edge">
<title>Node27&#45;&gt;Node10</title>
<path fill="none" stroke="midnightblue" d="M1187.15,-246.48C1214.69,-237.66 1258.44,-223.67 1293.14,-212.57"/>
<polygon fill="midnightblue" stroke="midnightblue" points="1294.21,-215.9 1302.66,-209.52 1292.07,-209.24 1294.21,-215.9"/>
</g>
<!-- Node27&#45;&gt;Node21 -->
<g id="edge43" class="edge">
<title>Node27&#45;&gt;Node21</title>
<path fill="none" stroke="midnightblue" d="M1208.07,-246.48C1267.98,-235.74 1370.82,-217.31 1435.06,-205.79"/>
<polygon fill="midnightblue" stroke="midnightblue" points="1435.8,-209.22 1445.02,-204.01 1434.56,-202.33 1435.8,-209.22"/>
</g>
<!-- Node27&#45;&gt;Node24 -->
<g id="edge46" class="edge">
<title>Node27&#45;&gt;Node24</title>
<path fill="none" stroke="midnightblue" d="M1124.11,-246.48C1078.93,-235.89 1001.85,-217.84 952.59,-206.3"/>
<polygon fill="midnightblue" stroke="midnightblue" points="953.36,-202.88 942.82,-204.01 951.76,-209.7 953.36,-202.88"/>
</g>
<!-- Node28 -->
<g id="node28" class="node">
<title>Node28</title>
<g id="a_node28"><a xlink:title=" ">
<polygon fill="none" stroke="#bfbfbf" points="1000.5,-179.5 1000.5,-209.5 1110.5,-209.5 1110.5,-179.5 1000.5,-179.5"/>
<text text-anchor="start" x="1008.5" y="-197.5" font-family="Helvetica,sans-Serif" font-size="10.00">range/v3/algorithm</text>
<text text-anchor="middle" x="1055.5" y="-186.5" font-family="Helvetica,sans-Serif" font-size="10.00">/max_element.hpp</text>
</a>
</g>
</g>
<!-- Node27&#45;&gt;Node28 -->
<g id="edge45" class="edge">
<title>Node27&#45;&gt;Node28</title>
<path fill="none" stroke="midnightblue" d="M1145.46,-246.48C1130.84,-238.19 1108.13,-225.32 1089.19,-214.59"/>
<polygon fill="midnightblue" stroke="midnightblue" points="1090.67,-211.41 1080.25,-209.52 1087.22,-217.5 1090.67,-211.41"/>
</g>
</g>
</svg>
        <g id="navigator" transform="translate(0 0)" fill="#404254">
                <rect fill="#f2f5e9" fill-opacity="0.5" stroke="#606060" stroke-width=".5" x="0" y="0" width="60" height="60"/>
                <use id="zoomplus" xlink:href="#zoomPlus" x="17" y="9" onmousedown="handleZoom(evt,'in')"/>
                <use id="zoomminus" xlink:href="#zoomMin" x="42" y="9" onmousedown="handleZoom(evt,'out')"/>
                <use id="reset" xlink:href="#resetDef" x="30" y="36" onmousedown="handleReset()"/>
                <g id="arrowUp" xlink:href="#dirArrow" transform="translate(30 24)" onmousedown="handlePan(0,-1)">
                  <use xlink:href="#rim" fill="#404040">
                        <set attributeName="fill" to="#808080" begin="arrowUp.mouseover" end="arrowUp.mouseout"/>
                  </use>
                  <path fill="none" stroke="white" stroke-width="1.5" d="M0,-3.0v7 M-2.5,-0.5L0,-3.0L2.5,-0.5"/>
                </g>
                <g id="arrowRight" xlink:href="#dirArrow" transform="rotate(90) translate(36 -43)" onmousedown="handlePan(1,0)">
                  <use xlink:href="#rim" fill="#404040">
                        <set attributeName="fill" to="#808080" begin="arrowRight.mouseover" end="arrowRight.mouseout"/>
                  </use>
                  <path fill="none" stroke="white" stroke-width="1.5" d="M0,-3.0v7 M-2.5,-0.5L0,-3.0L2.5,-0.5"/>
                </g>
                <g id="arrowDown" xlink:href="#dirArrow" transform="rotate(180) translate(-30 -48)" onmousedown="handlePan(0,1)">
                  <use xlink:href="#rim" fill="#404040">
                        <set attributeName="fill" to="#808080" begin="arrowDown.mouseover" end="arrowDown.mouseout"/>
                  </use>
                  <path fill="none" stroke="white" stroke-width="1.5" d="M0,-3.0v7 M-2.5,-0.5L0,-3.0L2.5,-0.5"/>
                </g>
                <g id="arrowLeft" xlink:href="#dirArrow" transform="rotate(270) translate(-36 17)" onmousedown="handlePan(-1,0)">
                  <use xlink:href="#rim" fill="#404040">
                        <set attributeName="fill" to="#808080" begin="arrowLeft.mouseover" end="arrowLeft.mouseout"/>
                  </use>
                  <path fill="none" stroke="white" stroke-width="1.5" d="M0,-3.0v7 M-2.5,-0.5L0,-3.0L2.5,-0.5"/>
                </g>
        </g>
        <svg viewBox="0 0 15 15" width="100%" height="30px" preserveAspectRatio="xMaxYMin meet">
         <g id="arrow_out" transform="scale(0.3 0.3)">
          <a xlink:href="actions_8hpp__incl_org.svg" target="_base">
           <rect id="button" ry="5" rx="5" y="6" x="6" height="38" width="38"
                fill="#f2f5e9" fill-opacity="0.5" stroke="#606060" stroke-width="1.0"/>
           <path id="arrow"
             d="M 11.500037,31.436501 C 11.940474,20.09759 22.043105,11.32322 32.158766,21.979434 L 37.068811,17.246167 C 37.068811,17.246167 37.088388,32 37.088388,32 L 22.160133,31.978069 C 22.160133,31.978069 26.997745,27.140456 26.997745,27.140456 C 18.528582,18.264221 13.291696,25.230495 11.500037,31.436501 z"
             style="fill:#404040;"/>
          </a>
         </g>
        </svg>
</svg>
