<?xml version="1.0" encoding="UTF-8" standalone="no"?>
<!DOCTYPE svg PUBLIC "-//W3C//DTD SVG 1.1//EN"
 "http://www.w3.org/Graphics/SVG/1.1/DTD/svg11.dtd">
<!-- Generated by graphviz version 2.43.0 (0)
 -->
<!-- Title: /home/runner/work/beluga/beluga/beluga/include/beluga/algorithm.hpp Pages: 1 -->
<!--zoomable 385 -->
<svg id="main" version="1.1" xmlns="http://www.w3.org/2000/svg" xmlns:xlink="http://www.w3.org/1999/xlink" xml:space="preserve" onload="init(evt)">
<style type="text/css"><![CDATA[
.edge:hover path { stroke: red; }
.edge:hover polygon { stroke: red; fill: red; }
]]></style>
<script type="text/javascript"><![CDATA[
var edges = document.getElementsByTagName('g');
if (edges && edges.length) {
  for (var i=0;i<edges.length;i++) {
    if (edges[i].id.substr(0,4)=='edge') {
      edges[i].setAttribute('class','edge');
    }
  }
}
]]></script>
        <defs>
                <circle id="rim" cx="0" cy="0" r="7"/>
                <circle id="rim2" cx="0" cy="0" r="3.5"/>
                <g id="zoomPlus">
                        <use xlink:href="#rim" fill="#404040">
                                <set attributeName="fill" to="#808080" begin="zoomplus.mouseover" end="zoomplus.mouseout"/>
                        </use>
                        <path d="M-4,0h8M0,-4v8" fill="none" stroke="white" stroke-width="1.5" pointer-events="none"/>
                </g>
                <g id="zoomMin">
                        <use xlink:href="#rim" fill="#404040">
                                <set attributeName="fill" to="#808080" begin="zoomminus.mouseover" end="zoomminus.mouseout"/>
                        </use>
                        <path d="M-4,0h8" fill="none" stroke="white" stroke-width="1.5" pointer-events="none"/>
                </g>
                <g id="dirArrow">
                        <path fill="none" stroke="white" stroke-width="1.5" d="M0,-3.0v7 M-2.5,-0.5L0,-3.0L2.5,-0.5"/>
                </g>
               <g id="resetDef">
                       <use xlink:href="#rim2" fill="#404040">
                               <set attributeName="fill" to="#808080" begin="reset.mouseover" end="reset.mouseout"/>
                       </use>
               </g>
        </defs>

<script type="text/javascript">
var viewWidth = 2608;
var viewHeight = 385;
var sectionId = 'dynsection-0';
</script>
<script xlink:href="svgpan.js"/>
<svg id="graph" class="graph">
<g id="viewport">
<title>/home/runner/work/beluga/beluga/beluga/include/beluga/algorithm.hpp</title>
<!-- Node1 -->
<g id="node1" class="node">
<title>Node1</title>
<g id="a_node1"><a xlink:title="Includes all beluga algorithms.">
<polygon fill="#bfbfbf" stroke="black" points="1160,-335.5 1160,-376.5 1305,-376.5 1305,-335.5 1160,-335.5"/>
<text text-anchor="start" x="1168" y="-364.5" font-family="Helvetica,sans-Serif" font-size="10.00">/home/runner/work/beluga</text>
<text text-anchor="start" x="1168" y="-353.5" font-family="Helvetica,sans-Serif" font-size="10.00">/beluga/beluga/include</text>
<text text-anchor="middle" x="1232.5" y="-342.5" font-family="Helvetica,sans-Serif" font-size="10.00">/beluga/algorithm.hpp</text>
</a>
</g>
</g>
<!-- Node2 -->
<g id="node2" class="node">
<title>Node2</title>
<g id="a_node2"><a xlink:href="distance__map_8hpp.html" target="_top" xlink:title="Implementation of algorithm to calculate distance from obstacles.">
<polygon fill="none" stroke="black" points="372.5,-263 372.5,-293 516.5,-293 516.5,-263 372.5,-263"/>
<text text-anchor="start" x="380.5" y="-281" font-family="Helvetica,sans-Serif" font-size="10.00">beluga/algorithm/distance</text>
<text text-anchor="middle" x="444.5" y="-270" font-family="Helvetica,sans-Serif" font-size="10.00">_map.hpp</text>
</a>
</g>
</g>
<!-- Node1&#45;&gt;Node2 -->
<g id="edge1" class="edge">
<title>Node1&#45;&gt;Node2</title>
<path fill="none" stroke="midnightblue" d="M1159.78,-347.99C1012.94,-333.82 681.89,-301.9 527.14,-286.97"/>
<polygon fill="midnightblue" stroke="midnightblue" points="527.05,-283.45 516.76,-285.97 526.38,-290.41 527.05,-283.45"/>
</g>
<!-- Node8 -->
<g id="node8" class="node">
<title>Node8</title>
<g id="a_node8"><a xlink:href="effective__sample__size_8hpp.html" target="_top" xlink:title="Implementation of an algorithm to calculate the effective sample size (ESS).">
<polygon fill="none" stroke="black" points="790.5,-263 790.5,-293 936.5,-293 936.5,-263 790.5,-263"/>
<text text-anchor="start" x="798.5" y="-281" font-family="Helvetica,sans-Serif" font-size="10.00">beluga/algorithm/effective</text>
<text text-anchor="middle" x="863.5" y="-270" font-family="Helvetica,sans-Serif" font-size="10.00">_sample_size.hpp</text>
</a>
</g>
</g>
<!-- Node1&#45;&gt;Node8 -->
<g id="edge7" class="edge">
<title>Node1&#45;&gt;Node8</title>
<path fill="none" stroke="midnightblue" d="M1159.6,-339.98C1096.7,-327.03 1006.08,-308.37 941.68,-295.1"/>
<polygon fill="midnightblue" stroke="midnightblue" points="942.08,-291.61 931.58,-293.02 940.67,-298.47 942.08,-291.61"/>
</g>
<!-- Node23 -->
<g id="node23" class="node">
<title>Node23</title>
<g id="a_node23"><a xlink:href="estimation_8hpp.html" target="_top" xlink:title="Implementation of algorithms that allow calculating the estimated state of a particle filter.">
<polygon fill="none" stroke="black" points="1391.5,-268.5 1391.5,-287.5 1567.5,-287.5 1567.5,-268.5 1391.5,-268.5"/>
<text text-anchor="middle" x="1479.5" y="-275.5" font-family="Helvetica,sans-Serif" font-size="10.00">beluga/algorithm/estimation.hpp</text>
</a>
</g>
</g>
<!-- Node1&#45;&gt;Node23 -->
<g id="edge27" class="edge">
<title>Node1&#45;&gt;Node23</title>
<path fill="none" stroke="midnightblue" d="M1296.11,-335.43C1342.3,-321.22 1403.23,-302.47 1441.9,-290.57"/>
<polygon fill="midnightblue" stroke="midnightblue" points="1443.18,-293.84 1451.71,-287.55 1441.12,-287.15 1443.18,-293.84"/>
</g>
<!-- Node30 -->
<g id="node30" class="node">
<title>Node30</title>
<g id="a_node30"><a xlink:href="exponential__filter_8hpp.html" target="_top" xlink:title="Implementation of an exponential filter.">
<polygon fill="none" stroke="black" points="1152,-190.5 1152,-220.5 1313,-220.5 1313,-190.5 1152,-190.5"/>
<text text-anchor="start" x="1160" y="-208.5" font-family="Helvetica,sans-Serif" font-size="10.00">beluga/algorithm/exponential</text>
<text text-anchor="middle" x="1232.5" y="-197.5" font-family="Helvetica,sans-Serif" font-size="10.00">_filter.hpp</text>
</a>
</g>
</g>
<!-- Node1&#45;&gt;Node30 -->
<g id="edge38" class="edge">
<title>Node1&#45;&gt;Node30</title>
<path fill="none" stroke="midnightblue" d="M1232.5,-335.28C1232.5,-308.28 1232.5,-259.83 1232.5,-230.67"/>
<polygon fill="midnightblue" stroke="midnightblue" points="1236,-230.53 1232.5,-220.53 1229,-230.53 1236,-230.53"/>
</g>
<!-- Node31 -->
<g id="node31" class="node">
<title>Node31</title>
<g id="a_node31"><a xlink:href="raycasting_8hpp.html" target="_top" xlink:title="Implementation of raycasting algorithms.">
<polygon fill="none" stroke="black" points="2198,-134.5 2198,-153.5 2373,-153.5 2373,-134.5 2198,-134.5"/>
<text text-anchor="middle" x="2285.5" y="-141.5" font-family="Helvetica,sans-Serif" font-size="10.00">beluga/algorithm/raycasting.hpp</text>
</a>
</g>
</g>
<!-- Node1&#45;&gt;Node31 -->
<g id="edge39" class="edge">
<title>Node1&#45;&gt;Node31</title>
<path fill="none" stroke="midnightblue" d="M1305.31,-354.99C1480.8,-354.17 1922.88,-347.24 2061.5,-299 2149.39,-268.42 2234.79,-193.58 2269.38,-160.8"/>
<polygon fill="midnightblue" stroke="midnightblue" points="2271.91,-163.23 2276.7,-153.78 2267.06,-158.18 2271.91,-163.23"/>
</g>
<!-- Node40 -->
<g id="node40" class="node">
<title>Node40</title>
<g id="a_node40"><a xlink:href="spatial__hash_8hpp.html" target="_top" xlink:title="Implementation of a spatial hash for N dimensional states.">
<polygon fill="none" stroke="black" points="1784.5,-67.5 1784.5,-97.5 1920.5,-97.5 1920.5,-67.5 1784.5,-67.5"/>
<text text-anchor="start" x="1792.5" y="-85.5" font-family="Helvetica,sans-Serif" font-size="10.00">beluga/algorithm/spatial</text>
<text text-anchor="middle" x="1852.5" y="-74.5" font-family="Helvetica,sans-Serif" font-size="10.00">_hash.hpp</text>
</a>
</g>
</g>
<!-- Node1&#45;&gt;Node40 -->
<g id="edge53" class="edge">
<title>Node1&#45;&gt;Node40</title>
<path fill="none" stroke="midnightblue" d="M1305.06,-353.58C1477.5,-348.52 1903.87,-325.48 1990.5,-221 2028.48,-175.2 1949.08,-127.41 1895.7,-101.99"/>
<polygon fill="midnightblue" stroke="midnightblue" points="1896.94,-98.71 1886.39,-97.66 1893.98,-105.06 1896.94,-98.71"/>
</g>
<!-- Node43 -->
<g id="node43" class="node">
<title>Node43</title>
<g id="a_node43"><a xlink:href="thrun__recovery__probability__estimator_8hpp_source.html" target="_top" xlink:title=" ">
<polygon fill="none" stroke="black" points="978.5,-257.5 978.5,-298.5 1106.5,-298.5 1106.5,-257.5 978.5,-257.5"/>
<text text-anchor="start" x="986.5" y="-286.5" font-family="Helvetica,sans-Serif" font-size="10.00">beluga/algorithm/thrun</text>
<text text-anchor="start" x="986.5" y="-275.5" font-family="Helvetica,sans-Serif" font-size="10.00">_recovery_probability</text>
<text text-anchor="middle" x="1042.5" y="-264.5" font-family="Helvetica,sans-Serif" font-size="10.00">_estimator.hpp</text>
</a>
</g>
</g>
<!-- Node1&#45;&gt;Node43 -->
<g id="edge62" class="edge">
<title>Node1&#45;&gt;Node43</title>
<path fill="none" stroke="midnightblue" d="M1183.57,-335.43C1158.31,-325.32 1127.3,-312.92 1100.8,-302.32"/>
<polygon fill="midnightblue" stroke="midnightblue" points="1101.85,-298.97 1091.26,-298.51 1099.25,-305.47 1101.85,-298.97"/>
</g>
<!-- Node3 -->
<g id="node3" class="node">
<title>Node3</title>
<g id="a_node3"><a xlink:title=" ">
<polygon fill="none" stroke="#bfbfbf" points="0,-196 0,-215 47,-215 47,-196 0,-196"/>
<text text-anchor="middle" x="23.5" y="-203" font-family="Helvetica,sans-Serif" font-size="10.00">queue</text>
</a>
</g>
</g>
<!-- Node2&#45;&gt;Node3 -->
<g id="edge2" class="edge">
<title>Node2&#45;&gt;Node3</title>
<path fill="none" stroke="midnightblue" d="M372.23,-272.71C293.14,-266.62 163.24,-252.47 55.5,-221 53.57,-220.44 51.6,-219.78 49.64,-219.05"/>
<polygon fill="midnightblue" stroke="midnightblue" points="50.68,-215.69 40.1,-215.09 47.99,-222.16 50.68,-215.69"/>
</g>
<!-- Node4 -->
<g id="node4" class="node">
<title>Node4</title>
<g id="a_node4"><a xlink:title=" ">
<polygon fill="none" stroke="#bfbfbf" points="65,-196 65,-215 112,-215 112,-196 65,-196"/>
<text text-anchor="middle" x="88.5" y="-203" font-family="Helvetica,sans-Serif" font-size="10.00">vector</text>
</a>
</g>
</g>
<!-- Node2&#45;&gt;Node4 -->
<g id="edge3" class="edge">
<title>Node2&#45;&gt;Node4</title>
<path fill="none" stroke="midnightblue" d="M372.49,-269.87C306.01,-262.05 205.07,-247 120.5,-221 118.62,-220.42 116.71,-219.76 114.8,-219.04"/>
<polygon fill="midnightblue" stroke="midnightblue" points="116.04,-215.77 105.46,-215.15 113.34,-222.23 116.04,-215.77"/>
</g>
<!-- Node5 -->
<g id="node5" class="node">
<title>Node5</title>
<g id="a_node5"><a xlink:title=" ">
<polygon fill="none" stroke="#bfbfbf" points="603,-196 603,-215 750,-215 750,-196 603,-196"/>
<text text-anchor="middle" x="676.5" y="-203" font-family="Helvetica,sans-Serif" font-size="10.00">range/v3/range/access.hpp</text>
</a>
</g>
</g>
<!-- Node2&#45;&gt;Node5 -->
<g id="edge4" class="edge">
<title>Node2&#45;&gt;Node5</title>
<path fill="none" stroke="midnightblue" d="M490.61,-262.99C533.98,-249.81 598.13,-230.32 638.6,-218.02"/>
<polygon fill="midnightblue" stroke="midnightblue" points="639.8,-221.31 648.35,-215.05 637.76,-214.61 639.8,-221.31"/>
</g>
<!-- Node6 -->
<g id="node6" class="node">
<title>Node6</title>
<g id="a_node6"><a xlink:title=" ">
<polygon fill="none" stroke="#bfbfbf" points="768.5,-196 768.5,-215 932.5,-215 932.5,-196 768.5,-196"/>
<text text-anchor="middle" x="850.5" y="-203" font-family="Helvetica,sans-Serif" font-size="10.00">range/v3/range/primitives.hpp</text>
</a>
</g>
</g>
<!-- Node2&#45;&gt;Node6 -->
<g id="edge5" class="edge">
<title>Node2&#45;&gt;Node6</title>
<path fill="none" stroke="midnightblue" d="M516.62,-264.48C594.96,-250.87 718.65,-229.39 791.46,-216.75"/>
<polygon fill="midnightblue" stroke="midnightblue" points="792.13,-220.19 801.38,-215.03 790.93,-213.29 792.13,-220.19"/>
</g>
<!-- Node7 -->
<g id="node7" class="node">
<title>Node7</title>
<g id="a_node7"><a xlink:title=" ">
<polygon fill="none" stroke="#bfbfbf" points="130,-196 130,-215 293,-215 293,-196 130,-196"/>
<text text-anchor="middle" x="211.5" y="-203" font-family="Helvetica,sans-Serif" font-size="10.00">range/v3/view/enumerate.hpp</text>
</a>
</g>
</g>
<!-- Node2&#45;&gt;Node7 -->
<g id="edge6" class="edge">
<title>Node2&#45;&gt;Node7</title>
<path fill="none" stroke="midnightblue" d="M398.19,-262.99C354.63,-249.81 290.21,-230.32 249.57,-218.02"/>
<polygon fill="midnightblue" stroke="midnightblue" points="250.36,-214.6 239.77,-215.05 248.33,-221.3 250.36,-214.6"/>
</g>
<!-- Node9 -->
<g id="node9" class="node">
<title>Node9</title>
<g id="a_node9"><a xlink:href="particle__traits_8hpp.html" target="_top" xlink:title="Implementation of traits for particle types, see the Particle named requirements.">
<polygon fill="none" stroke="black" points="311.5,-190.5 311.5,-220.5 419.5,-220.5 419.5,-190.5 311.5,-190.5"/>
<text text-anchor="start" x="319.5" y="-208.5" font-family="Helvetica,sans-Serif" font-size="10.00">beluga/type_traits</text>
<text text-anchor="middle" x="365.5" y="-197.5" font-family="Helvetica,sans-Serif" font-size="10.00">/particle_traits.hpp</text>
</a>
</g>
</g>
<!-- Node8&#45;&gt;Node9 -->
<g id="edge8" class="edge">
<title>Node8&#45;&gt;Node9</title>
<path fill="none" stroke="midnightblue" d="M790.43,-269.81C705.85,-260.99 562.21,-244.47 429.66,-221.1"/>
<polygon fill="midnightblue" stroke="midnightblue" points="430.19,-217.64 419.73,-219.34 428.96,-224.53 430.19,-217.64"/>
</g>
<!-- Node20 -->
<g id="node20" class="node">
<title>Node20</title>
<g id="a_node20"><a xlink:href="particles_8hpp.html" target="_top" xlink:title="Implementation of views related to particle ranges.">
<polygon fill="none" stroke="black" points="438,-196 438,-215 585,-215 585,-196 438,-196"/>
<text text-anchor="middle" x="511.5" y="-203" font-family="Helvetica,sans-Serif" font-size="10.00">beluga/views/particles.hpp</text>
</a>
</g>
</g>
<!-- Node8&#45;&gt;Node20 -->
<g id="edge23" class="edge">
<title>Node8&#45;&gt;Node20</title>
<path fill="none" stroke="midnightblue" d="M793.54,-262.99C726.06,-249.47 625.44,-229.32 564.4,-217.09"/>
<polygon fill="midnightblue" stroke="midnightblue" points="564.71,-213.59 554.21,-215.05 563.33,-220.45 564.71,-213.59"/>
</g>
<!-- Node22 -->
<g id="node22" class="node">
<title>Node22</title>
<g id="a_node22"><a xlink:title=" ">
<polygon fill="none" stroke="#bfbfbf" points="951,-196 951,-215 1134,-215 1134,-196 951,-196"/>
<text text-anchor="middle" x="1042.5" y="-203" font-family="Helvetica,sans-Serif" font-size="10.00">range/v3/numeric/accumulate.hpp</text>
</a>
</g>
</g>
<!-- Node8&#45;&gt;Node22 -->
<g id="edge26" class="edge">
<title>Node8&#45;&gt;Node22</title>
<path fill="none" stroke="midnightblue" d="M899.29,-262.9C932.07,-249.99 980.09,-231.08 1011.32,-218.78"/>
<polygon fill="midnightblue" stroke="midnightblue" points="1012.81,-221.95 1020.83,-215.03 1010.25,-215.44 1012.81,-221.95"/>
</g>
<!-- Node10 -->
<g id="node10" class="node">
<title>Node10</title>
<g id="a_node10"><a xlink:href="primitives_8hpp.html" target="_top" xlink:title="Implementation of library primitives to abstract member access.">
<polygon fill="none" stroke="black" points="1277,-134.5 1277,-153.5 1400,-153.5 1400,-134.5 1277,-134.5"/>
<text text-anchor="middle" x="1338.5" y="-141.5" font-family="Helvetica,sans-Serif" font-size="10.00">beluga/primitives.hpp</text>
</a>
</g>
</g>
<!-- Node9&#45;&gt;Node10 -->
<g id="edge9" class="edge">
<title>Node9&#45;&gt;Node10</title>
<path fill="none" stroke="midnightblue" d="M419.68,-191.39C422.66,-190.87 425.61,-190.4 428.5,-190 738.27,-147.04 1112.33,-143.59 1266.62,-144.25"/>
<polygon fill="midnightblue" stroke="midnightblue" points="1266.89,-147.76 1276.91,-144.31 1266.92,-140.76 1266.89,-147.76"/>
</g>
<!-- Node16 -->
<g id="node16" class="node">
<title>Node16</title>
<g id="a_node16"><a xlink:href="tuple__traits_8hpp.html" target="_top" xlink:title="Implementation of traits for tuple&#45;like types.">
<polygon fill="none" stroke="black" points="1642,-67.5 1642,-97.5 1747,-97.5 1747,-67.5 1642,-67.5"/>
<text text-anchor="start" x="1650" y="-85.5" font-family="Helvetica,sans-Serif" font-size="10.00">beluga/type_traits</text>
<text text-anchor="middle" x="1694.5" y="-74.5" font-family="Helvetica,sans-Serif" font-size="10.00">/tuple_traits.hpp</text>
</a>
</g>
</g>
<!-- Node9&#45;&gt;Node16 -->
<g id="edge21" class="edge">
<title>Node9&#45;&gt;Node16</title>
<path fill="none" stroke="midnightblue" d="M419.68,-191.34C422.65,-190.84 425.61,-190.38 428.5,-190 644.76,-161.41 1198.72,-210.2 1409.5,-154 1427.94,-149.08 1429.51,-140.38 1447.5,-134 1524.39,-106.72 1547.63,-114.63 1627.5,-98 1628.96,-97.7 1630.43,-97.39 1631.92,-97.08"/>
<polygon fill="midnightblue" stroke="midnightblue" points="1632.79,-100.47 1641.85,-94.98 1631.34,-93.62 1632.79,-100.47"/>
</g>
<!-- Node19 -->
<g id="node19" class="node">
<title>Node19</title>
<g id="a_node19"><a xlink:title=" ">
<polygon fill="none" stroke="#bfbfbf" points="295.5,-134.5 295.5,-153.5 435.5,-153.5 435.5,-134.5 295.5,-134.5"/>
<text text-anchor="middle" x="365.5" y="-141.5" font-family="Helvetica,sans-Serif" font-size="10.00">range/v3/range/traits.hpp</text>
</a>
</g>
</g>
<!-- Node9&#45;&gt;Node19 -->
<g id="edge22" class="edge">
<title>Node9&#45;&gt;Node19</title>
<path fill="none" stroke="midnightblue" d="M365.5,-190.4C365.5,-182.47 365.5,-172.46 365.5,-163.86"/>
<polygon fill="midnightblue" stroke="midnightblue" points="369,-163.66 365.5,-153.66 362,-163.66 369,-163.66"/>
</g>
<!-- Node11 -->
<g id="node11" class="node">
<title>Node11</title>
<g id="a_node11"><a xlink:title=" ">
<polygon fill="none" stroke="#bfbfbf" points="1690,-6 1690,-25 1731,-25 1731,-6 1690,-6"/>
<text text-anchor="middle" x="1710.5" y="-13" font-family="Helvetica,sans-Serif" font-size="10.00">tuple</text>
</a>
</g>
</g>
<!-- Node10&#45;&gt;Node11 -->
<g id="edge10" class="edge">
<title>Node10&#45;&gt;Node11</title>
<path fill="none" stroke="midnightblue" d="M1400.26,-135.7C1464.6,-127.47 1560.65,-113.23 1594.5,-98 1614.69,-88.91 1615.56,-79.97 1633.5,-67 1651.31,-54.12 1672.19,-40.51 1687.72,-30.67"/>
<polygon fill="midnightblue" stroke="midnightblue" points="1690.02,-33.36 1696.61,-25.07 1686.29,-27.44 1690.02,-33.36"/>
</g>
<!-- Node12 -->
<g id="node12" class="node">
<title>Node12</title>
<g id="a_node12"><a xlink:title=" ">
<polygon fill="none" stroke="#bfbfbf" points="1540,-6 1540,-25 1609,-25 1609,-6 1540,-6"/>
<text text-anchor="middle" x="1574.5" y="-13" font-family="Helvetica,sans-Serif" font-size="10.00">type_traits</text>
</a>
</g>
</g>
<!-- Node10&#45;&gt;Node12 -->
<g id="edge11" class="edge">
<title>Node10&#45;&gt;Node12</title>
<path fill="none" stroke="midnightblue" d="M1319.2,-134.48C1305.07,-127.08 1286.94,-114.89 1278.5,-98 1272.34,-85.68 1269.47,-77.41 1278.5,-67 1315.72,-24.11 1476.25,-44.13 1531.5,-31 1534.9,-30.19 1538.41,-29.23 1541.89,-28.19"/>
<polygon fill="midnightblue" stroke="midnightblue" points="1543.06,-31.49 1551.52,-25.12 1540.93,-24.82 1543.06,-31.49"/>
</g>
<!-- Node13 -->
<g id="node13" class="node">
<title>Node13</title>
<g id="a_node13"><a xlink:href="strongly__typed__numeric_8hpp.html" target="_top" xlink:title="Implementation of a strongly typed numeric helper.">
<polygon fill="none" stroke="black" points="1427.5,-67.5 1427.5,-97.5 1585.5,-97.5 1585.5,-67.5 1427.5,-67.5"/>
<text text-anchor="start" x="1435.5" y="-85.5" font-family="Helvetica,sans-Serif" font-size="10.00">beluga/type_traits</text>
<text text-anchor="middle" x="1506.5" y="-74.5" font-family="Helvetica,sans-Serif" font-size="10.00">/strongly_typed_numeric.hpp</text>
</a>
</g>
</g>
<!-- Node10&#45;&gt;Node13 -->
<g id="edge12" class="edge">
<title>Node10&#45;&gt;Node13</title>
<path fill="none" stroke="midnightblue" d="M1362.57,-134.48C1387.13,-125.78 1425.95,-112.03 1457.09,-101"/>
<polygon fill="midnightblue" stroke="midnightblue" points="1458.65,-104.16 1466.91,-97.52 1456.31,-97.56 1458.65,-104.16"/>
</g>
<!-- Node10&#45;&gt;Node16 -->
<g id="edge16" class="edge">
<title>Node10&#45;&gt;Node16</title>
<path fill="none" stroke="midnightblue" d="M1400.13,-134.47C1458.76,-126.11 1549.37,-112.52 1627.5,-98 1628.96,-97.73 1630.44,-97.45 1631.93,-97.16"/>
<polygon fill="midnightblue" stroke="midnightblue" points="1632.76,-100.57 1641.89,-95.19 1631.4,-93.7 1632.76,-100.57"/>
</g>
<!-- Node18 -->
<g id="node18" class="node">
<title>Node18</title>
<g id="a_node18"><a xlink:href="forward__like_8hpp_source.html" target="_top" xlink:title=" ">
<polygon fill="none" stroke="black" points="1287.5,-67.5 1287.5,-97.5 1409.5,-97.5 1409.5,-67.5 1287.5,-67.5"/>
<text text-anchor="start" x="1295.5" y="-85.5" font-family="Helvetica,sans-Serif" font-size="10.00">beluga/utility/forward</text>
<text text-anchor="middle" x="1348.5" y="-74.5" font-family="Helvetica,sans-Serif" font-size="10.00">_like.hpp</text>
</a>
</g>
</g>
<!-- Node10&#45;&gt;Node18 -->
<g id="edge20" class="edge">
<title>Node10&#45;&gt;Node18</title>
<path fill="none" stroke="midnightblue" d="M1339.93,-134.48C1341.12,-127.4 1342.87,-116.97 1344.48,-107.39"/>
<polygon fill="midnightblue" stroke="midnightblue" points="1347.94,-107.96 1346.14,-97.52 1341.03,-106.8 1347.94,-107.96"/>
</g>
<!-- Node13&#45;&gt;Node12 -->
<g id="edge15" class="edge">
<title>Node13&#45;&gt;Node12</title>
<path fill="none" stroke="midnightblue" d="M1521.25,-67.4C1532.07,-57.06 1546.75,-43.02 1557.96,-32.31"/>
<polygon fill="midnightblue" stroke="midnightblue" points="1560.59,-34.63 1565.4,-25.19 1555.76,-29.57 1560.59,-34.63"/>
</g>
<!-- Node14 -->
<g id="node14" class="node">
<title>Node14</title>
<g id="a_node14"><a xlink:title=" ">
<polygon fill="none" stroke="#bfbfbf" points="1457,-6 1457,-25 1522,-25 1522,-6 1457,-6"/>
<text text-anchor="middle" x="1489.5" y="-13" font-family="Helvetica,sans-Serif" font-size="10.00">functional</text>
</a>
</g>
</g>
<!-- Node13&#45;&gt;Node14 -->
<g id="edge13" class="edge">
<title>Node13&#45;&gt;Node14</title>
<path fill="none" stroke="midnightblue" d="M1502.81,-67.4C1500.34,-57.96 1497.07,-45.45 1494.39,-35.19"/>
<polygon fill="midnightblue" stroke="midnightblue" points="1497.69,-33.98 1491.77,-25.19 1490.92,-35.75 1497.69,-33.98"/>
</g>
<!-- Node15 -->
<g id="node15" class="node">
<title>Node15</title>
<g id="a_node15"><a xlink:title=" ">
<polygon fill="none" stroke="#bfbfbf" points="1627.5,-6 1627.5,-25 1671.5,-25 1671.5,-6 1627.5,-6"/>
<text text-anchor="middle" x="1649.5" y="-13" font-family="Helvetica,sans-Serif" font-size="10.00">limits</text>
</a>
</g>
</g>
<!-- Node13&#45;&gt;Node15 -->
<g id="edge14" class="edge">
<title>Node13&#45;&gt;Node15</title>
<path fill="none" stroke="midnightblue" d="M1537.93,-67.47C1560.41,-57.4 1591.36,-43.46 1618.5,-31 1619.65,-30.47 1620.83,-29.93 1622.02,-29.38"/>
<polygon fill="midnightblue" stroke="midnightblue" points="1623.57,-32.52 1631.16,-25.13 1620.62,-26.17 1623.57,-32.52"/>
</g>
<!-- Node16&#45;&gt;Node11 -->
<g id="edge17" class="edge">
<title>Node16&#45;&gt;Node11</title>
<path fill="none" stroke="midnightblue" d="M1697.97,-67.4C1700.29,-57.96 1703.37,-45.45 1705.9,-35.19"/>
<polygon fill="midnightblue" stroke="midnightblue" points="1709.37,-35.74 1708.36,-25.19 1702.57,-34.07 1709.37,-35.74"/>
</g>
<!-- Node16&#45;&gt;Node12 -->
<g id="edge18" class="edge">
<title>Node16&#45;&gt;Node12</title>
<path fill="none" stroke="midnightblue" d="M1668.46,-67.4C1647.87,-56.24 1619.33,-40.78 1599.12,-29.83"/>
<polygon fill="midnightblue" stroke="midnightblue" points="1600.67,-26.69 1590.21,-25.01 1597.33,-32.85 1600.67,-26.69"/>
</g>
<!-- Node17 -->
<g id="node17" class="node">
<title>Node17</title>
<g id="a_node17"><a xlink:title=" ">
<polygon fill="none" stroke="#bfbfbf" points="2005,-6 2005,-25 2050,-25 2050,-6 2005,-6"/>
<text text-anchor="middle" x="2027.5" y="-13" font-family="Helvetica,sans-Serif" font-size="10.00">utility</text>
</a>
</g>
</g>
<!-- Node16&#45;&gt;Node17 -->
<g id="edge19" class="edge">
<title>Node16&#45;&gt;Node17</title>
<path fill="none" stroke="midnightblue" d="M1747.2,-71.95C1756.62,-70.27 1766.35,-68.57 1775.5,-67 1873.16,-50.27 1900.67,-59.69 1995.5,-31 1997.43,-30.42 1999.39,-29.74 2001.34,-29.01"/>
<polygon fill="midnightblue" stroke="midnightblue" points="2003,-32.11 2010.88,-25.03 2000.31,-25.65 2003,-32.11"/>
</g>
<!-- Node20&#45;&gt;Node10 -->
<g id="edge24" class="edge">
<title>Node20&#45;&gt;Node10</title>
<path fill="none" stroke="midnightblue" d="M554.35,-195.97C566.92,-193.72 580.72,-191.51 593.5,-190 839.62,-160.9 1133.84,-150.17 1266.9,-146.6"/>
<polygon fill="midnightblue" stroke="midnightblue" points="1267.06,-150.09 1276.96,-146.33 1266.87,-143.09 1267.06,-150.09"/>
</g>
<!-- Node21 -->
<g id="node21" class="node">
<title>Node21</title>
<g id="a_node21"><a xlink:title=" ">
<polygon fill="none" stroke="#bfbfbf" points="1456.5,-134.5 1456.5,-153.5 1614.5,-153.5 1614.5,-134.5 1456.5,-134.5"/>
<text text-anchor="middle" x="1535.5" y="-141.5" font-family="Helvetica,sans-Serif" font-size="10.00">range/v3/view/transform.hpp</text>
</a>
</g>
</g>
<!-- Node20&#45;&gt;Node21 -->
<g id="edge25" class="edge">
<title>Node20&#45;&gt;Node21</title>
<path fill="none" stroke="midnightblue" d="M553.48,-195.97C566.28,-193.67 580.42,-191.43 593.5,-190 968.94,-149.03 1065.74,-180.2 1442.5,-154 1443.77,-153.91 1445.06,-153.82 1446.35,-153.73"/>
<polygon fill="midnightblue" stroke="midnightblue" points="1446.68,-157.21 1456.38,-152.95 1446.14,-150.23 1446.68,-157.21"/>
</g>
<!-- Node23&#45;&gt;Node5 -->
<g id="edge30" class="edge">
<title>Node23&#45;&gt;Node5</title>
<path fill="none" stroke="midnightblue" d="M1391.39,-272.86C1255.4,-265.86 986.36,-249.57 759.5,-221 750.23,-219.83 740.41,-218.34 730.91,-216.77"/>
<polygon fill="midnightblue" stroke="midnightblue" points="731.2,-213.27 720.75,-215.04 730.02,-220.17 731.2,-213.27"/>
</g>
<!-- Node23&#45;&gt;Node6 -->
<g id="edge31" class="edge">
<title>Node23&#45;&gt;Node6</title>
<path fill="none" stroke="midnightblue" d="M1391.26,-269.3C1284.54,-259.64 1099.54,-241.8 941.5,-221 931.63,-219.7 921.17,-218.18 911.01,-216.61"/>
<polygon fill="midnightblue" stroke="midnightblue" points="911.39,-213.13 900.97,-215.04 910.31,-220.05 911.39,-213.13"/>
</g>
<!-- Node23&#45;&gt;Node21 -->
<g id="edge34" class="edge">
<title>Node23&#45;&gt;Node21</title>
<path fill="none" stroke="midnightblue" d="M1486.52,-268.43C1494.82,-257.88 1508.52,-239.13 1516.5,-221 1524.7,-202.37 1529.8,-179.54 1532.63,-163.8"/>
<polygon fill="midnightblue" stroke="midnightblue" points="1536.12,-164.18 1534.3,-153.75 1529.21,-163.04 1536.12,-164.18"/>
</g>
<!-- Node23&#45;&gt;Node22 -->
<g id="edge29" class="edge">
<title>Node23&#45;&gt;Node22</title>
<path fill="none" stroke="midnightblue" d="M1426.79,-268.5C1345.99,-255.46 1191.83,-230.59 1105.35,-216.64"/>
<polygon fill="midnightblue" stroke="midnightblue" points="1105.83,-213.17 1095.4,-215.03 1104.71,-220.08 1105.83,-213.17"/>
</g>
<!-- Node24 -->
<g id="node24" class="node">
<title>Node24</title>
<g id="a_node24"><a xlink:title=" ">
<polygon fill="none" stroke="#bfbfbf" points="1563.5,-190.5 1563.5,-220.5 1673.5,-220.5 1673.5,-190.5 1563.5,-190.5"/>
<text text-anchor="start" x="1571.5" y="-208.5" font-family="Helvetica,sans-Serif" font-size="10.00">range/v3/algorithm</text>
<text text-anchor="middle" x="1618.5" y="-197.5" font-family="Helvetica,sans-Serif" font-size="10.00">/count_if.hpp</text>
</a>
</g>
</g>
<!-- Node23&#45;&gt;Node24 -->
<g id="edge28" class="edge">
<title>Node23&#45;&gt;Node24</title>
<path fill="none" stroke="midnightblue" d="M1496.27,-268.5C1517.35,-257.8 1554.14,-239.14 1581.87,-225.08"/>
<polygon fill="midnightblue" stroke="midnightblue" points="1583.55,-228.15 1590.89,-220.51 1580.38,-221.91 1583.55,-228.15"/>
</g>
<!-- Node25 -->
<g id="node25" class="node">
<title>Node25</title>
<g id="a_node25"><a xlink:title=" ">
<polygon fill="none" stroke="#bfbfbf" points="1691.5,-196 1691.5,-215 1843.5,-215 1843.5,-196 1691.5,-196"/>
<text text-anchor="middle" x="1767.5" y="-203" font-family="Helvetica,sans-Serif" font-size="10.00">range/v3/view/common.hpp</text>
</a>
</g>
</g>
<!-- Node23&#45;&gt;Node25 -->
<g id="edge32" class="edge">
<title>Node23&#45;&gt;Node25</title>
<path fill="none" stroke="midnightblue" d="M1514.24,-268.5C1566.46,-255.71 1665.18,-231.55 1722.73,-217.46"/>
<polygon fill="midnightblue" stroke="midnightblue" points="1723.76,-220.81 1732.64,-215.03 1722.09,-214.01 1723.76,-220.81"/>
</g>
<!-- Node26 -->
<g id="node26" class="node">
<title>Node26</title>
<g id="a_node26"><a xlink:title=" ">
<polygon fill="none" stroke="#bfbfbf" points="1861.5,-190.5 1861.5,-220.5 1981.5,-220.5 1981.5,-190.5 1861.5,-190.5"/>
<text text-anchor="start" x="1869.5" y="-208.5" font-family="Helvetica,sans-Serif" font-size="10.00">range/v3/view/repeat</text>
<text text-anchor="middle" x="1921.5" y="-197.5" font-family="Helvetica,sans-Serif" font-size="10.00">_n.hpp</text>
</a>
</g>
</g>
<!-- Node23&#45;&gt;Node26 -->
<g id="edge33" class="edge">
<title>Node23&#45;&gt;Node26</title>
<path fill="none" stroke="midnightblue" d="M1544.04,-268.47C1616.45,-258.64 1737.61,-241.41 1851.4,-221.14"/>
<polygon fill="midnightblue" stroke="midnightblue" points="1852.1,-224.57 1861.33,-219.36 1850.87,-217.68 1852.1,-224.57"/>
</g>
<!-- Node27 -->
<g id="node27" class="node">
<title>Node27</title>
<g id="a_node27"><a xlink:title=" ">
<polygon fill="none" stroke="#bfbfbf" points="1894.5,-6 1894.5,-25 1986.5,-25 1986.5,-6 1894.5,-6"/>
<text text-anchor="middle" x="1940.5" y="-13" font-family="Helvetica,sans-Serif" font-size="10.00">sophus/se2.hpp</text>
</a>
</g>
</g>
<!-- Node23&#45;&gt;Node27 -->
<g id="edge35" class="edge">
<title>Node23&#45;&gt;Node27</title>
<path fill="none" stroke="midnightblue" d="M1567.57,-273.64C1706.29,-267.42 1962.84,-251.86 1990.5,-221 2039.51,-166.33 1980.81,-71.53 1953.27,-33.25"/>
<polygon fill="midnightblue" stroke="midnightblue" points="1956.07,-31.15 1947.31,-25.18 1950.43,-35.31 1956.07,-31.15"/>
</g>
<!-- Node28 -->
<g id="node28" class="node">
<title>Node28</title>
<g id="a_node28"><a xlink:title=" ">
<polygon fill="none" stroke="#bfbfbf" points="1331.5,-196 1331.5,-215 1433.5,-215 1433.5,-196 1331.5,-196"/>
<text text-anchor="middle" x="1382.5" y="-203" font-family="Helvetica,sans-Serif" font-size="10.00">sophus/types.hpp</text>
</a>
</g>
</g>
<!-- Node23&#45;&gt;Node28 -->
<g id="edge36" class="edge">
<title>Node23&#45;&gt;Node28</title>
<path fill="none" stroke="midnightblue" d="M1467.61,-268.36C1451.46,-256.62 1422.38,-235.48 1402.76,-221.22"/>
<polygon fill="midnightblue" stroke="midnightblue" points="1404.64,-218.26 1394.49,-215.22 1400.52,-223.93 1404.64,-218.26"/>
</g>
<!-- Node29 -->
<g id="node29" class="node">
<title>Node29</title>
<g id="a_node29"><a xlink:title=" ">
<polygon fill="none" stroke="#bfbfbf" points="1451.5,-196 1451.5,-215 1507.5,-215 1507.5,-196 1451.5,-196"/>
<text text-anchor="middle" x="1479.5" y="-203" font-family="Helvetica,sans-Serif" font-size="10.00">numeric</text>
</a>
</g>
</g>
<!-- Node23&#45;&gt;Node29 -->
<g id="edge37" class="edge">
<title>Node23&#45;&gt;Node29</title>
<path fill="none" stroke="midnightblue" d="M1479.5,-268.36C1479.5,-257.68 1479.5,-239.22 1479.5,-225.23"/>
<polygon fill="midnightblue" stroke="midnightblue" points="1483,-225.22 1479.5,-215.22 1476,-225.22 1483,-225.22"/>
</g>
<!-- Node31&#45;&gt;Node17 -->
<g id="edge42" class="edge">
<title>Node31&#45;&gt;Node17</title>
<path fill="none" stroke="midnightblue" d="M2197.67,-134.51C2163.53,-128.19 2125.3,-117.18 2094.5,-98 2068.81,-82 2048.38,-52.71 2037.11,-33.95"/>
<polygon fill="midnightblue" stroke="midnightblue" points="2040.11,-32.13 2032.08,-25.22 2034.04,-35.63 2040.11,-32.13"/>
</g>
<!-- Node31&#45;&gt;Node27 -->
<g id="edge51" class="edge">
<title>Node31&#45;&gt;Node27</title>
<path fill="none" stroke="midnightblue" d="M2197.77,-134.74C2153.99,-128.4 2101.01,-117.31 2056.5,-98 2034.89,-88.62 2032.74,-80.59 2013.5,-67 1995.99,-54.63 1975.95,-40.79 1961.3,-30.73"/>
<polygon fill="midnightblue" stroke="midnightblue" points="1963.18,-27.77 1952.95,-25 1959.22,-33.55 1963.18,-27.77"/>
</g>
<!-- Node32 -->
<g id="node32" class="node">
<title>Node32</title>
<g id="a_node32"><a xlink:title=" ">
<polygon fill="none" stroke="#bfbfbf" points="2461.5,-73 2461.5,-92 2525.5,-92 2525.5,-73 2461.5,-73"/>
<text text-anchor="middle" x="2493.5" y="-80" font-family="Helvetica,sans-Serif" font-size="10.00">algorithm</text>
</a>
</g>
</g>
<!-- Node31&#45;&gt;Node32 -->
<g id="edge40" class="edge">
<title>Node31&#45;&gt;Node32</title>
<path fill="none" stroke="midnightblue" d="M2320.27,-134.46C2354.2,-125.93 2407.2,-112.09 2452.5,-98 2455.11,-97.19 2457.81,-96.31 2460.51,-95.41"/>
<polygon fill="midnightblue" stroke="midnightblue" points="2461.86,-98.65 2470.19,-92.09 2459.59,-92.03 2461.86,-98.65"/>
</g>
<!-- Node33 -->
<g id="node33" class="node">
<title>Node33</title>
<g id="a_node33"><a xlink:title=" ">
<polygon fill="none" stroke="#bfbfbf" points="2543.5,-73 2543.5,-92 2599.5,-92 2599.5,-73 2543.5,-73"/>
<text text-anchor="middle" x="2571.5" y="-80" font-family="Helvetica,sans-Serif" font-size="10.00">optional</text>
</a>
</g>
</g>
<!-- Node31&#45;&gt;Node33 -->
<g id="edge41" class="edge">
<title>Node31&#45;&gt;Node33</title>
<path fill="none" stroke="midnightblue" d="M2352.62,-134.49C2403.2,-127.2 2473.96,-115.16 2534.5,-98 2537.09,-97.27 2539.74,-96.42 2542.39,-95.51"/>
<polygon fill="midnightblue" stroke="midnightblue" points="2543.6,-98.8 2551.77,-92.05 2541.18,-92.23 2543.6,-98.8"/>
</g>
<!-- Node34 -->
<g id="node34" class="node">
<title>Node34</title>
<g id="a_node34"><a xlink:href="bresenham_8hpp.html" target="_top" xlink:title="Implementation of Bresenham&#45;like raytracing algorithms.">
<polygon fill="none" stroke="black" points="2103.5,-67.5 2103.5,-97.5 2257.5,-97.5 2257.5,-67.5 2103.5,-67.5"/>
<text text-anchor="start" x="2111.5" y="-85.5" font-family="Helvetica,sans-Serif" font-size="10.00">beluga/algorithm/raycasting</text>
<text text-anchor="middle" x="2180.5" y="-74.5" font-family="Helvetica,sans-Serif" font-size="10.00">/bresenham.hpp</text>
</a>
</g>
</g>
<!-- Node31&#45;&gt;Node34 -->
<g id="edge43" class="edge">
<title>Node31&#45;&gt;Node34</title>
<path fill="none" stroke="midnightblue" d="M2270.46,-134.48C2255.84,-126.19 2233.13,-113.32 2214.19,-102.59"/>
<polygon fill="midnightblue" stroke="midnightblue" points="2215.67,-99.41 2205.25,-97.52 2212.22,-105.5 2215.67,-99.41"/>
</g>
<!-- Node36 -->
<g id="node36" class="node">
<title>Node36</title>
<g id="a_node36"><a xlink:title=" ">
<polygon fill="none" stroke="#bfbfbf" points="2224.5,-6 2224.5,-25 2346.5,-25 2346.5,-6 2224.5,-6"/>
<text text-anchor="middle" x="2285.5" y="-13" font-family="Helvetica,sans-Serif" font-size="10.00">range/v3/view/all.hpp</text>
</a>
</g>
</g>
<!-- Node31&#45;&gt;Node36 -->
<g id="edge49" class="edge">
<title>Node31&#45;&gt;Node36</title>
<path fill="none" stroke="midnightblue" d="M2285.5,-134.31C2285.5,-113.99 2285.5,-63.05 2285.5,-35.28"/>
<polygon fill="midnightblue" stroke="midnightblue" points="2289,-35.26 2285.5,-25.26 2282,-35.26 2289,-35.26"/>
</g>
<!-- Node37 -->
<g id="node37" class="node">
<title>Node37</title>
<g id="a_node37"><a xlink:title=" ">
<polygon fill="none" stroke="#bfbfbf" points="2364.5,-0.5 2364.5,-30.5 2474.5,-30.5 2474.5,-0.5 2364.5,-0.5"/>
<text text-anchor="start" x="2372.5" y="-18.5" font-family="Helvetica,sans-Serif" font-size="10.00">range/v3/view/take</text>
<text text-anchor="middle" x="2419.5" y="-7.5" font-family="Helvetica,sans-Serif" font-size="10.00">_while.hpp</text>
</a>
</g>
</g>
<!-- Node31&#45;&gt;Node37 -->
<g id="edge50" class="edge">
<title>Node31&#45;&gt;Node37</title>
<path fill="none" stroke="midnightblue" d="M2290.64,-134.25C2299.75,-119.26 2319.89,-88.22 2342.5,-67 2355.02,-55.24 2370.6,-44.46 2384.46,-35.9"/>
<polygon fill="midnightblue" stroke="midnightblue" points="2386.5,-38.76 2393.27,-30.61 2382.9,-32.76 2386.5,-38.76"/>
</g>
<!-- Node39 -->
<g id="node39" class="node">
<title>Node39</title>
<g id="a_node39"><a xlink:title=" ">
<polygon fill="none" stroke="#bfbfbf" points="2351.5,-73 2351.5,-92 2443.5,-92 2443.5,-73 2351.5,-73"/>
<text text-anchor="middle" x="2397.5" y="-80" font-family="Helvetica,sans-Serif" font-size="10.00">sophus/so2.hpp</text>
</a>
</g>
</g>
<!-- Node31&#45;&gt;Node39 -->
<g id="edge52" class="edge">
<title>Node31&#45;&gt;Node39</title>
<path fill="none" stroke="midnightblue" d="M2301.55,-134.48C2320.09,-124.62 2350.84,-108.29 2372.52,-96.77"/>
<polygon fill="midnightblue" stroke="midnightblue" points="2374.29,-99.79 2381.48,-92.01 2371.01,-93.61 2374.29,-99.79"/>
</g>
<!-- Node34&#45;&gt;Node17 -->
<g id="edge45" class="edge">
<title>Node34&#45;&gt;Node17</title>
<path fill="none" stroke="midnightblue" d="M2145.96,-67.41C2121.69,-57.43 2088.51,-43.62 2059.5,-31 2058.14,-30.41 2056.74,-29.8 2055.34,-29.17"/>
<polygon fill="midnightblue" stroke="midnightblue" points="2056.63,-25.92 2046.07,-25.03 2053.77,-32.31 2056.63,-25.92"/>
</g>
<!-- Node35 -->
<g id="node35" class="node">
<title>Node35</title>
<g id="a_node35"><a xlink:title=" ">
<polygon fill="none" stroke="#bfbfbf" points="2068.5,-6 2068.5,-25 2118.5,-25 2118.5,-6 2068.5,-6"/>
<text text-anchor="middle" x="2093.5" y="-13" font-family="Helvetica,sans-Serif" font-size="10.00">cstdint</text>
</a>
</g>
</g>
<!-- Node34&#45;&gt;Node35 -->
<g id="edge44" class="edge">
<title>Node34&#45;&gt;Node35</title>
<path fill="none" stroke="midnightblue" d="M2161.62,-67.4C2147.39,-56.76 2127.9,-42.2 2113.42,-31.38"/>
<polygon fill="midnightblue" stroke="midnightblue" points="2115.24,-28.38 2105.14,-25.19 2111.05,-33.98 2115.24,-28.38"/>
</g>
<!-- Node34&#45;&gt;Node36 -->
<g id="edge46" class="edge">
<title>Node34&#45;&gt;Node36</title>
<path fill="none" stroke="midnightblue" d="M2203.28,-67.4C2221.05,-56.39 2245.6,-41.2 2263.24,-30.28"/>
<polygon fill="midnightblue" stroke="midnightblue" points="2265.1,-33.25 2271.76,-25.01 2261.41,-27.29 2265.1,-33.25"/>
</g>
<!-- Node34&#45;&gt;Node37 -->
<g id="edge47" class="edge">
<title>Node34&#45;&gt;Node37</title>
<path fill="none" stroke="midnightblue" d="M2232.07,-67.48C2269,-57.43 2318.91,-43.86 2357.94,-33.24"/>
<polygon fill="midnightblue" stroke="midnightblue" points="2358.88,-36.61 2367.62,-30.61 2357.05,-29.86 2358.88,-36.61"/>
</g>
<!-- Node38 -->
<g id="node38" class="node">
<title>Node38</title>
<g id="a_node38"><a xlink:title=" ">
<polygon fill="none" stroke="#bfbfbf" points="2137,-6 2137,-25 2206,-25 2206,-6 2137,-6"/>
<text text-anchor="middle" x="2171.5" y="-13" font-family="Helvetica,sans-Serif" font-size="10.00">Eigen/Core</text>
</a>
</g>
</g>
<!-- Node34&#45;&gt;Node38 -->
<g id="edge48" class="edge">
<title>Node34&#45;&gt;Node38</title>
<path fill="none" stroke="midnightblue" d="M2178.55,-67.4C2177.24,-57.96 2175.51,-45.45 2174.09,-35.19"/>
<polygon fill="midnightblue" stroke="midnightblue" points="2177.54,-34.62 2172.7,-25.19 2170.61,-35.58 2177.54,-34.62"/>
</g>
<!-- Node40&#45;&gt;Node11 -->
<g id="edge58" class="edge">
<title>Node40&#45;&gt;Node11</title>
<path fill="none" stroke="midnightblue" d="M1821.69,-67.4C1796.88,-56.04 1762.32,-40.22 1738.34,-29.24"/>
<polygon fill="midnightblue" stroke="midnightblue" points="1739.63,-25.99 1729.08,-25.01 1736.72,-32.35 1739.63,-25.99"/>
</g>
<!-- Node40&#45;&gt;Node12 -->
<g id="edge59" class="edge">
<title>Node40&#45;&gt;Node12</title>
<path fill="none" stroke="midnightblue" d="M1784.46,-68.79C1737.52,-59.55 1673.84,-46.05 1618.5,-31 1615.32,-30.13 1612.03,-29.17 1608.74,-28.17"/>
<polygon fill="midnightblue" stroke="midnightblue" points="1609.62,-24.78 1599.03,-25.09 1607.5,-31.45 1609.62,-24.78"/>
</g>
<!-- Node40&#45;&gt;Node15 -->
<g id="edge57" class="edge">
<title>Node40&#45;&gt;Node15</title>
<path fill="none" stroke="midnightblue" d="M1797.96,-67.47C1764.06,-58.23 1719.79,-45.25 1681.5,-31 1679.89,-30.4 1678.24,-29.76 1676.59,-29.09"/>
<polygon fill="midnightblue" stroke="midnightblue" points="1677.83,-25.81 1667.26,-25.07 1675.06,-32.24 1677.83,-25.81"/>
</g>
<!-- Node40&#45;&gt;Node17 -->
<g id="edge60" class="edge">
<title>Node40&#45;&gt;Node17</title>
<path fill="none" stroke="midnightblue" d="M1895.41,-67.42C1924,-57.78 1962.28,-44.36 1995.5,-31 1996.91,-30.43 1998.36,-29.83 1999.81,-29.22"/>
<polygon fill="midnightblue" stroke="midnightblue" points="2001.58,-32.27 2009.34,-25.05 1998.78,-25.85 2001.58,-32.27"/>
</g>
<!-- Node40&#45;&gt;Node27 -->
<g id="edge61" class="edge">
<title>Node40&#45;&gt;Node27</title>
<path fill="none" stroke="midnightblue" d="M1871.59,-67.4C1886.08,-56.7 1905.93,-42.03 1920.61,-31.19"/>
<polygon fill="midnightblue" stroke="midnightblue" points="1923.02,-33.76 1928.98,-25.01 1918.86,-28.13 1923.02,-33.76"/>
</g>
<!-- Node40&#45;&gt;Node35 -->
<g id="edge56" class="edge">
<title>Node40&#45;&gt;Node35</title>
<path fill="none" stroke="midnightblue" d="M1920.88,-67.77C1961.61,-58.87 2014.05,-46.12 2059.5,-31 2061.42,-30.36 2063.38,-29.66 2065.34,-28.92"/>
<polygon fill="midnightblue" stroke="midnightblue" points="2067.03,-32.02 2075.01,-25.04 2064.42,-25.52 2067.03,-32.02"/>
</g>
<!-- Node41 -->
<g id="node41" class="node">
<title>Node41</title>
<g id="a_node41"><a xlink:title=" ">
<polygon fill="none" stroke="#bfbfbf" points="1766.5,-6 1766.5,-25 1810.5,-25 1810.5,-6 1766.5,-6"/>
<text text-anchor="middle" x="1788.5" y="-13" font-family="Helvetica,sans-Serif" font-size="10.00">bitset</text>
</a>
</g>
</g>
<!-- Node40&#45;&gt;Node41 -->
<g id="edge54" class="edge">
<title>Node40&#45;&gt;Node41</title>
<path fill="none" stroke="midnightblue" d="M1838.61,-67.4C1828.54,-57.16 1814.88,-43.3 1804.37,-32.62"/>
<polygon fill="midnightblue" stroke="midnightblue" points="1806.57,-29.86 1797.06,-25.19 1801.58,-34.78 1806.57,-29.86"/>
</g>
<!-- Node42 -->
<g id="node42" class="node">
<title>Node42</title>
<g id="a_node42"><a xlink:title=" ">
<polygon fill="none" stroke="#bfbfbf" points="1829,-6 1829,-25 1876,-25 1876,-6 1829,-6"/>
<text text-anchor="middle" x="1852.5" y="-13" font-family="Helvetica,sans-Serif" font-size="10.00">cmath</text>
</a>
</g>
</g>
<!-- Node40&#45;&gt;Node42 -->
<g id="edge55" class="edge">
<title>Node40&#45;&gt;Node42</title>
<path fill="none" stroke="midnightblue" d="M1852.5,-67.4C1852.5,-58.06 1852.5,-45.71 1852.5,-35.52"/>
<polygon fill="midnightblue" stroke="midnightblue" points="1856,-35.19 1852.5,-25.19 1849,-35.19 1856,-35.19"/>
</g>
<!-- Node43&#45;&gt;Node9 -->
<g id="edge64" class="edge">
<title>Node43&#45;&gt;Node9</title>
<path fill="none" stroke="midnightblue" d="M978.27,-262.5C967.38,-260.4 956.15,-258.46 945.5,-257 720.54,-226.12 658.08,-254.12 429.64,-221.01"/>
<polygon fill="midnightblue" stroke="midnightblue" points="430.1,-217.54 419.69,-219.54 429.08,-224.46 430.1,-217.54"/>
</g>
<!-- Node43&#45;&gt;Node20 -->
<g id="edge65" class="edge">
<title>Node43&#45;&gt;Node20</title>
<path fill="none" stroke="midnightblue" d="M978.49,-262.85C967.52,-260.69 956.21,-258.65 945.5,-257 790.07,-233.09 749.26,-242.71 593.5,-221 584.76,-219.78 575.53,-218.32 566.53,-216.8"/>
<polygon fill="midnightblue" stroke="midnightblue" points="566.97,-213.32 556.52,-215.07 565.78,-220.22 566.97,-213.32"/>
</g>
<!-- Node43&#45;&gt;Node22 -->
<g id="edge66" class="edge">
<title>Node43&#45;&gt;Node22</title>
<path fill="none" stroke="midnightblue" d="M1042.5,-257.36C1042.5,-247.3 1042.5,-235.1 1042.5,-225.18"/>
<polygon fill="midnightblue" stroke="midnightblue" points="1046,-225.17 1042.5,-215.17 1039,-225.17 1046,-225.17"/>
</g>
<!-- Node43&#45;&gt;Node30 -->
<g id="edge63" class="edge">
<title>Node43&#45;&gt;Node30</title>
<path fill="none" stroke="midnightblue" d="M1095.17,-257.46C1123.25,-247.04 1157.51,-234.32 1184.8,-224.2"/>
<polygon fill="midnightblue" stroke="midnightblue" points="1186.35,-227.36 1194.51,-220.6 1183.92,-220.79 1186.35,-227.36"/>
</g>
</g>
</svg>
        <g id="navigator" transform="translate(0 0)" fill="#404254">
                <rect fill="#f2f5e9" fill-opacity="0.5" stroke="#606060" stroke-width=".5" x="0" y="0" width="60" height="60"/>
                <use id="zoomplus" xlink:href="#zoomPlus" x="17" y="9" onmousedown="handleZoom(evt,'in')"/>
                <use id="zoomminus" xlink:href="#zoomMin" x="42" y="9" onmousedown="handleZoom(evt,'out')"/>
                <use id="reset" xlink:href="#resetDef" x="30" y="36" onmousedown="handleReset()"/>
                <g id="arrowUp" xlink:href="#dirArrow" transform="translate(30 24)" onmousedown="handlePan(0,-1)">
                  <use xlink:href="#rim" fill="#404040">
                        <set attributeName="fill" to="#808080" begin="arrowUp.mouseover" end="arrowUp.mouseout"/>
                  </use>
                  <path fill="none" stroke="white" stroke-width="1.5" d="M0,-3.0v7 M-2.5,-0.5L0,-3.0L2.5,-0.5"/>
                </g>
                <g id="arrowRight" xlink:href="#dirArrow" transform="rotate(90) translate(36 -43)" onmousedown="handlePan(1,0)">
                  <use xlink:href="#rim" fill="#404040">
                        <set attributeName="fill" to="#808080" begin="arrowRight.mouseover" end="arrowRight.mouseout"/>
                  </use>
                  <path fill="none" stroke="white" stroke-width="1.5" d="M0,-3.0v7 M-2.5,-0.5L0,-3.0L2.5,-0.5"/>
                </g>
                <g id="arrowDown" xlink:href="#dirArrow" transform="rotate(180) translate(-30 -48)" onmousedown="handlePan(0,1)">
                  <use xlink:href="#rim" fill="#404040">
                        <set attributeName="fill" to="#808080" begin="arrowDown.mouseover" end="arrowDown.mouseout"/>
                  </use>
                  <path fill="none" stroke="white" stroke-width="1.5" d="M0,-3.0v7 M-2.5,-0.5L0,-3.0L2.5,-0.5"/>
                </g>
                <g id="arrowLeft" xlink:href="#dirArrow" transform="rotate(270) translate(-36 17)" onmousedown="handlePan(-1,0)">
                  <use xlink:href="#rim" fill="#404040">
                        <set attributeName="fill" to="#808080" begin="arrowLeft.mouseover" end="arrowLeft.mouseout"/>
                  </use>
                  <path fill="none" stroke="white" stroke-width="1.5" d="M0,-3.0v7 M-2.5,-0.5L0,-3.0L2.5,-0.5"/>
                </g>
        </g>
        <svg viewBox="0 0 15 15" width="100%" height="30px" preserveAspectRatio="xMaxYMin meet">
         <g id="arrow_out" transform="scale(0.3 0.3)">
          <a xlink:href="algorithm_8hpp__incl_org.svg" target="_base">
           <rect id="button" ry="5" rx="5" y="6" x="6" height="38" width="38"
                fill="#f2f5e9" fill-opacity="0.5" stroke="#606060" stroke-width="1.0"/>
           <path id="arrow"
             d="M 11.500037,31.436501 C 11.940474,20.09759 22.043105,11.32322 32.158766,21.979434 L 37.068811,17.246167 C 37.068811,17.246167 37.088388,32 37.088388,32 L 22.160133,31.978069 C 22.160133,31.978069 26.997745,27.140456 26.997745,27.140456 C 18.528582,18.264221 13.291696,25.230495 11.500037,31.436501 z"
             style="fill:#404040;"/>
          </a>
         </g>
        </svg>
</svg>
