<?xml version="1.0" encoding="UTF-8" standalone="no"?>
<!DOCTYPE svg PUBLIC "-//W3C//DTD SVG 1.1//EN"
 "http://www.w3.org/Graphics/SVG/1.1/DTD/svg11.dtd">
<!-- Generated by graphviz version 2.43.0 (0)
 -->
<!-- Title: /home/runner/work/beluga/beluga/beluga/include/beluga/algorithm.hpp Pages: 1 -->
<svg width="2276pt" height="396pt"
 viewBox="0.00 0.00 2275.50 396.00" xmlns="http://www.w3.org/2000/svg" xmlns:xlink="http://www.w3.org/1999/xlink">
<g id="graph0" class="graph" transform="scale(1 1) rotate(0) translate(4 392)">
<title>/home/runner/work/beluga/beluga/beluga/include/beluga/algorithm.hpp</title>
<!-- Node1 -->
<g id="node1" class="node">
<title>Node1</title>
<g id="a_node1"><a xlink:title="Includes all beluga algorithms.">
<polygon fill="#bfbfbf" stroke="black" points="1019,-346.5 1019,-387.5 1164,-387.5 1164,-346.5 1019,-346.5"/>
<text text-anchor="start" x="1027" y="-375.5" font-family="Helvetica,sans-Serif" font-size="10.00">/home/runner/work/beluga</text>
<text text-anchor="start" x="1027" y="-364.5" font-family="Helvetica,sans-Serif" font-size="10.00">/beluga/beluga/include</text>
<text text-anchor="middle" x="1091.5" y="-353.5" font-family="Helvetica,sans-Serif" font-size="10.00">/beluga/algorithm.hpp</text>
</a>
</g>
</g>
<!-- Node2 -->
<g id="node2" class="node">
<title>Node2</title>
<g id="a_node2"><a xlink:href="distance__map_8hpp.html" target="_top" xlink:title="Implementation of algorithm to calculate distance from obstacles.">
<polygon fill="none" stroke="black" points="297.5,-201.5 297.5,-231.5 441.5,-231.5 441.5,-201.5 297.5,-201.5"/>
<text text-anchor="start" x="305.5" y="-219.5" font-family="Helvetica,sans-Serif" font-size="10.00">beluga/algorithm/distance</text>
<text text-anchor="middle" x="369.5" y="-208.5" font-family="Helvetica,sans-Serif" font-size="10.00">_map.hpp</text>
</a>
</g>
</g>
<!-- Node1&#45;&gt;Node2 -->
<g id="edge1" class="edge">
<title>Node1&#45;&gt;Node2</title>
<path fill="none" stroke="midnightblue" d="M1018.96,-361.07C930.96,-354.12 778.48,-338.91 650.5,-310 565.2,-290.73 469.05,-256.17 414.23,-235.19"/>
<polygon fill="midnightblue" stroke="midnightblue" points="415.4,-231.89 404.81,-231.56 412.89,-238.42 415.4,-231.89"/>
</g>
<!-- Node8 -->
<g id="node8" class="node">
<title>Node8</title>
<g id="a_node8"><a xlink:href="effective__sample__size_8hpp.html" target="_top" xlink:title="Implementation of an algorithm to calculate the effective sample size (ESS).">
<polygon fill="none" stroke="black" points="659.5,-274 659.5,-304 805.5,-304 805.5,-274 659.5,-274"/>
<text text-anchor="start" x="667.5" y="-292" font-family="Helvetica,sans-Serif" font-size="10.00">beluga/algorithm/effective</text>
<text text-anchor="middle" x="732.5" y="-281" font-family="Helvetica,sans-Serif" font-size="10.00">_sample_size.hpp</text>
</a>
</g>
</g>
<!-- Node1&#45;&gt;Node8 -->
<g id="edge7" class="edge">
<title>Node1&#45;&gt;Node8</title>
<path fill="none" stroke="midnightblue" d="M1018.85,-350.62C957.81,-337.7 870.86,-319.29 808.81,-306.16"/>
<polygon fill="midnightblue" stroke="midnightblue" points="809.2,-302.66 798.69,-304.01 807.75,-309.51 809.2,-302.66"/>
</g>
<!-- Node23 -->
<g id="node23" class="node">
<title>Node23</title>
<g id="a_node23"><a xlink:href="estimation_8hpp.html" target="_top" xlink:title="Implementation of algorithms that allow calculating the estimated state of a particle filter.">
<polygon fill="none" stroke="black" points="1190.5,-207 1190.5,-226 1366.5,-226 1366.5,-207 1190.5,-207"/>
<text text-anchor="middle" x="1278.5" y="-214" font-family="Helvetica,sans-Serif" font-size="10.00">beluga/algorithm/estimation.hpp</text>
</a>
</g>
</g>
<!-- Node1&#45;&gt;Node23 -->
<g id="edge27" class="edge">
<title>Node1&#45;&gt;Node23</title>
<path fill="none" stroke="midnightblue" d="M1116.33,-346.28C1154.09,-316.3 1225.14,-259.87 1259.26,-232.78"/>
<polygon fill="midnightblue" stroke="midnightblue" points="1261.82,-235.22 1267.47,-226.26 1257.46,-229.74 1261.82,-235.22"/>
</g>
<!-- Node29 -->
<g id="node29" class="node">
<title>Node29</title>
<g id="a_node29"><a xlink:href="exponential__filter_8hpp.html" target="_top" xlink:title="Implementation of an exponential filter.">
<polygon fill="none" stroke="black" points="1011,-201.5 1011,-231.5 1172,-231.5 1172,-201.5 1011,-201.5"/>
<text text-anchor="start" x="1019" y="-219.5" font-family="Helvetica,sans-Serif" font-size="10.00">beluga/algorithm/exponential</text>
<text text-anchor="middle" x="1091.5" y="-208.5" font-family="Helvetica,sans-Serif" font-size="10.00">_filter.hpp</text>
</a>
</g>
</g>
<!-- Node1&#45;&gt;Node29 -->
<g id="edge36" class="edge">
<title>Node1&#45;&gt;Node29</title>
<path fill="none" stroke="midnightblue" d="M1091.5,-346.28C1091.5,-319.28 1091.5,-270.83 1091.5,-241.67"/>
<polygon fill="midnightblue" stroke="midnightblue" points="1095,-241.53 1091.5,-231.53 1088,-241.53 1095,-241.53"/>
</g>
<!-- Node30 -->
<g id="node30" class="node">
<title>Node30</title>
<g id="a_node30"><a xlink:href="raycasting_8hpp.html" target="_top" xlink:title="Implementation of raycasting algorithms.">
<polygon fill="none" stroke="black" points="1768,-140 1768,-159 1943,-159 1943,-140 1768,-140"/>
<text text-anchor="middle" x="1855.5" y="-147" font-family="Helvetica,sans-Serif" font-size="10.00">beluga/algorithm/raycasting.hpp</text>
</a>
</g>
</g>
<!-- Node1&#45;&gt;Node30 -->
<g id="edge37" class="edge">
<title>Node1&#45;&gt;Node30</title>
<path fill="none" stroke="midnightblue" d="M1164.13,-363.03C1322.26,-356.1 1687.46,-337.31 1736.5,-310 1795.04,-277.4 1833.18,-202.65 1848.23,-168.33"/>
<polygon fill="midnightblue" stroke="midnightblue" points="1851.48,-169.64 1852.16,-159.07 1845.03,-166.91 1851.48,-169.64"/>
</g>
<!-- Node38 -->
<g id="node38" class="node">
<title>Node38</title>
<g id="a_node38"><a xlink:href="spatial__hash_8hpp.html" target="_top" xlink:title="Implementation of a spatial hash for N dimensional states.">
<polygon fill="none" stroke="black" points="1207.5,-67.5 1207.5,-97.5 1343.5,-97.5 1343.5,-67.5 1207.5,-67.5"/>
<text text-anchor="start" x="1215.5" y="-85.5" font-family="Helvetica,sans-Serif" font-size="10.00">beluga/algorithm/spatial</text>
<text text-anchor="middle" x="1275.5" y="-74.5" font-family="Helvetica,sans-Serif" font-size="10.00">_hash.hpp</text>
</a>
</g>
</g>
<!-- Node1&#45;&gt;Node38 -->
<g id="edge50" class="edge">
<title>Node1&#45;&gt;Node38</title>
<path fill="none" stroke="midnightblue" d="M1164.14,-365.39C1290.84,-359.92 1549.74,-328.2 1665.5,-165 1673.47,-153.76 1674.6,-144.35 1665.5,-134 1645.28,-110.99 1461.75,-95.42 1353.82,-88.17"/>
<polygon fill="midnightblue" stroke="midnightblue" points="1353.83,-84.67 1343.62,-87.5 1353.36,-91.65 1353.83,-84.67"/>
</g>
<!-- Node42 -->
<g id="node42" class="node">
<title>Node42</title>
<g id="a_node42"><a xlink:href="thrun__recovery__probability__estimator_8hpp_source.html" target="_top" xlink:title=" ">
<polygon fill="none" stroke="black" points="837.5,-268.5 837.5,-309.5 965.5,-309.5 965.5,-268.5 837.5,-268.5"/>
<text text-anchor="start" x="845.5" y="-297.5" font-family="Helvetica,sans-Serif" font-size="10.00">beluga/algorithm/thrun</text>
<text text-anchor="start" x="845.5" y="-286.5" font-family="Helvetica,sans-Serif" font-size="10.00">_recovery_probability</text>
<text text-anchor="middle" x="901.5" y="-275.5" font-family="Helvetica,sans-Serif" font-size="10.00">_estimator.hpp</text>
</a>
</g>
</g>
<!-- Node1&#45;&gt;Node42 -->
<g id="edge59" class="edge">
<title>Node1&#45;&gt;Node42</title>
<path fill="none" stroke="midnightblue" d="M1042.57,-346.43C1017.31,-336.32 986.3,-323.92 959.8,-313.32"/>
<polygon fill="midnightblue" stroke="midnightblue" points="960.85,-309.97 950.26,-309.51 958.25,-316.47 960.85,-309.97"/>
</g>
<!-- Node3 -->
<g id="node3" class="node">
<title>Node3</title>
<g id="a_node3"><a xlink:title=" ">
<polygon fill="none" stroke="#bfbfbf" points="246,-140 246,-159 293,-159 293,-140 246,-140"/>
<text text-anchor="middle" x="269.5" y="-147" font-family="Helvetica,sans-Serif" font-size="10.00">queue</text>
</a>
</g>
</g>
<!-- Node2&#45;&gt;Node3 -->
<g id="edge2" class="edge">
<title>Node2&#45;&gt;Node3</title>
<path fill="none" stroke="midnightblue" d="M347.8,-201.4C331.03,-190.5 307.93,-175.48 291.17,-164.58"/>
<polygon fill="midnightblue" stroke="midnightblue" points="292.88,-161.52 282.59,-159.01 289.06,-167.39 292.88,-161.52"/>
</g>
<!-- Node4 -->
<g id="node4" class="node">
<title>Node4</title>
<g id="a_node4"><a xlink:title=" ">
<polygon fill="none" stroke="#bfbfbf" points="0,-140 0,-159 47,-159 47,-140 0,-140"/>
<text text-anchor="middle" x="23.5" y="-147" font-family="Helvetica,sans-Serif" font-size="10.00">vector</text>
</a>
</g>
</g>
<!-- Node2&#45;&gt;Node4 -->
<g id="edge3" class="edge">
<title>Node2&#45;&gt;Node4</title>
<path fill="none" stroke="midnightblue" d="M297.2,-209.38C232.75,-202.64 136.39,-189.36 55.5,-165 53.57,-164.42 51.61,-163.75 49.65,-163.02"/>
<polygon fill="midnightblue" stroke="midnightblue" points="50.69,-159.66 40.12,-159.04 48,-166.12 50.69,-159.66"/>
</g>
<!-- Node5 -->
<g id="node5" class="node">
<title>Node5</title>
<g id="a_node5"><a xlink:title=" ">
<polygon fill="none" stroke="#bfbfbf" points="611,-140 611,-159 758,-159 758,-140 611,-140"/>
<text text-anchor="middle" x="684.5" y="-147" font-family="Helvetica,sans-Serif" font-size="10.00">range/v3/range/access.hpp</text>
</a>
</g>
</g>
<!-- Node2&#45;&gt;Node5 -->
<g id="edge4" class="edge">
<title>Node2&#45;&gt;Node5</title>
<path fill="none" stroke="midnightblue" d="M437.46,-201.48C496.25,-189.34 579.96,-172.07 633.26,-161.07"/>
<polygon fill="midnightblue" stroke="midnightblue" points="634.08,-164.48 643.17,-159.03 632.67,-157.62 634.08,-164.48"/>
</g>
<!-- Node6 -->
<g id="node6" class="node">
<title>Node6</title>
<g id="a_node6"><a xlink:title=" ">
<polygon fill="none" stroke="#bfbfbf" points="814.5,-140 814.5,-159 978.5,-159 978.5,-140 814.5,-140"/>
<text text-anchor="middle" x="896.5" y="-147" font-family="Helvetica,sans-Serif" font-size="10.00">range/v3/range/primitives.hpp</text>
</a>
</g>
</g>
<!-- Node2&#45;&gt;Node6 -->
<g id="edge5" class="edge">
<title>Node2&#45;&gt;Node6</title>
<path fill="none" stroke="midnightblue" d="M441.67,-206.6C539.92,-194.48 715.17,-172.87 817.06,-160.3"/>
<polygon fill="midnightblue" stroke="midnightblue" points="817.8,-163.73 827.29,-159.04 816.94,-156.79 817.8,-163.73"/>
</g>
<!-- Node7 -->
<g id="node7" class="node">
<title>Node7</title>
<g id="a_node7"><a xlink:title=" ">
<polygon fill="none" stroke="#bfbfbf" points="65,-140 65,-159 228,-159 228,-140 65,-140"/>
<text text-anchor="middle" x="146.5" y="-147" font-family="Helvetica,sans-Serif" font-size="10.00">range/v3/view/enumerate.hpp</text>
</a>
</g>
</g>
<!-- Node2&#45;&gt;Node7 -->
<g id="edge6" class="edge">
<title>Node2&#45;&gt;Node7</title>
<path fill="none" stroke="midnightblue" d="M321.39,-201.48C280.72,-189.62 223.21,-172.86 185.4,-161.84"/>
<polygon fill="midnightblue" stroke="midnightblue" points="186.34,-158.47 175.76,-159.03 184.38,-165.19 186.34,-158.47"/>
</g>
<!-- Node9 -->
<g id="node9" class="node">
<title>Node9</title>
<g id="a_node9"><a xlink:href="particle__traits_8hpp.html" target="_top" xlink:title="Implementation of traits for particle types, see the Particle named requirements.">
<polygon fill="none" stroke="black" points="518.5,-201.5 518.5,-231.5 626.5,-231.5 626.5,-201.5 518.5,-201.5"/>
<text text-anchor="start" x="526.5" y="-219.5" font-family="Helvetica,sans-Serif" font-size="10.00">beluga/type_traits</text>
<text text-anchor="middle" x="572.5" y="-208.5" font-family="Helvetica,sans-Serif" font-size="10.00">/particle_traits.hpp</text>
</a>
</g>
</g>
<!-- Node8&#45;&gt;Node9 -->
<g id="edge8" class="edge">
<title>Node8&#45;&gt;Node9</title>
<path fill="none" stroke="midnightblue" d="M700.51,-273.9C675.54,-262.9 640.69,-247.54 613.65,-235.63"/>
<polygon fill="midnightblue" stroke="midnightblue" points="615,-232.4 604.44,-231.57 612.18,-238.81 615,-232.4"/>
</g>
<!-- Node20 -->
<g id="node20" class="node">
<title>Node20</title>
<g id="a_node20"><a xlink:href="particles_8hpp.html" target="_top" xlink:title="Implementation of views related to particle ranges.">
<polygon fill="none" stroke="black" points="645,-207 645,-226 792,-226 792,-207 645,-207"/>
<text text-anchor="middle" x="718.5" y="-214" font-family="Helvetica,sans-Serif" font-size="10.00">beluga/views/particles.hpp</text>
</a>
</g>
</g>
<!-- Node8&#45;&gt;Node20 -->
<g id="edge23" class="edge">
<title>Node8&#45;&gt;Node20</title>
<path fill="none" stroke="midnightblue" d="M729.67,-273.73C727.54,-263 724.59,-248.19 722.26,-236.46"/>
<polygon fill="midnightblue" stroke="midnightblue" points="725.65,-235.52 720.27,-226.39 718.78,-236.88 725.65,-235.52"/>
</g>
<!-- Node22 -->
<g id="node22" class="node">
<title>Node22</title>
<g id="a_node22"><a xlink:title=" ">
<polygon fill="none" stroke="#bfbfbf" points="810,-207 810,-226 993,-226 993,-207 810,-207"/>
<text text-anchor="middle" x="901.5" y="-214" font-family="Helvetica,sans-Serif" font-size="10.00">range/v3/numeric/accumulate.hpp</text>
</a>
</g>
</g>
<!-- Node8&#45;&gt;Node22 -->
<g id="edge26" class="edge">
<title>Node8&#45;&gt;Node22</title>
<path fill="none" stroke="midnightblue" d="M766.29,-273.9C797.1,-261.05 842.18,-242.24 871.68,-229.94"/>
<polygon fill="midnightblue" stroke="midnightblue" points="873.16,-233.11 881.04,-226.03 870.47,-226.65 873.16,-233.11"/>
</g>
<!-- Node10 -->
<g id="node10" class="node">
<title>Node10</title>
<g id="a_node10"><a xlink:href="primitives_8hpp.html" target="_top" xlink:title="Implementation of library primitives to abstract member access.">
<polygon fill="none" stroke="black" points="470,-140 470,-159 593,-159 593,-140 470,-140"/>
<text text-anchor="middle" x="531.5" y="-147" font-family="Helvetica,sans-Serif" font-size="10.00">beluga/primitives.hpp</text>
</a>
</g>
</g>
<!-- Node9&#45;&gt;Node10 -->
<g id="edge9" class="edge">
<title>Node9&#45;&gt;Node10</title>
<path fill="none" stroke="midnightblue" d="M563.6,-201.4C557.4,-191.56 549.08,-178.38 542.47,-167.89"/>
<polygon fill="midnightblue" stroke="midnightblue" points="545.28,-165.79 536.98,-159.19 539.36,-169.52 545.28,-165.79"/>
</g>
<!-- Node16 -->
<g id="node16" class="node">
<title>Node16</title>
<g id="a_node16"><a xlink:href="tuple__traits_8hpp.html" target="_top" xlink:title="Implementation of traits for tuple&#45;like types.">
<polygon fill="none" stroke="black" points="869,-67.5 869,-97.5 974,-97.5 974,-67.5 869,-67.5"/>
<text text-anchor="start" x="877" y="-85.5" font-family="Helvetica,sans-Serif" font-size="10.00">beluga/type_traits</text>
<text text-anchor="middle" x="921.5" y="-74.5" font-family="Helvetica,sans-Serif" font-size="10.00">/tuple_traits.hpp</text>
</a>
</g>
</g>
<!-- Node9&#45;&gt;Node16 -->
<g id="edge21" class="edge">
<title>Node9&#45;&gt;Node16</title>
<path fill="none" stroke="midnightblue" d="M626.66,-202.62C679.55,-189.85 753.89,-171.3 766.5,-165 786.31,-155.11 786.52,-145.4 805.5,-134 826.64,-121.29 851.56,-110.02 872.87,-101.36"/>
<polygon fill="midnightblue" stroke="midnightblue" points="874.38,-104.53 882.38,-97.57 871.79,-98.02 874.38,-104.53"/>
</g>
<!-- Node19 -->
<g id="node19" class="node">
<title>Node19</title>
<g id="a_node19"><a xlink:title=" ">
<polygon fill="none" stroke="#bfbfbf" points="311.5,-140 311.5,-159 451.5,-159 451.5,-140 311.5,-140"/>
<text text-anchor="middle" x="381.5" y="-147" font-family="Helvetica,sans-Serif" font-size="10.00">range/v3/range/traits.hpp</text>
</a>
</g>
</g>
<!-- Node9&#45;&gt;Node19 -->
<g id="edge22" class="edge">
<title>Node9&#45;&gt;Node19</title>
<path fill="none" stroke="midnightblue" d="M531.06,-201.4C496.65,-189.69 448.3,-173.23 415.98,-162.23"/>
<polygon fill="midnightblue" stroke="midnightblue" points="417.09,-158.92 406.5,-159.01 414.84,-165.54 417.09,-158.92"/>
</g>
<!-- Node11 -->
<g id="node11" class="node">
<title>Node11</title>
<g id="a_node11"><a xlink:title=" ">
<polygon fill="none" stroke="#bfbfbf" points="917,-6 917,-25 958,-25 958,-6 917,-6"/>
<text text-anchor="middle" x="937.5" y="-13" font-family="Helvetica,sans-Serif" font-size="10.00">tuple</text>
</a>
</g>
</g>
<!-- Node10&#45;&gt;Node11 -->
<g id="edge10" class="edge">
<title>Node10&#45;&gt;Node11</title>
<path fill="none" stroke="midnightblue" d="M571.42,-139.93C581.24,-137.9 591.74,-135.81 601.5,-134 698.92,-115.95 731.16,-138.69 821.5,-98 841.37,-89.05 841.88,-79.83 859.5,-67 877.49,-53.9 898.73,-40.26 914.51,-30.46"/>
<polygon fill="midnightblue" stroke="midnightblue" points="916.42,-33.39 923.1,-25.17 912.75,-27.43 916.42,-33.39"/>
</g>
<!-- Node12 -->
<g id="node12" class="node">
<title>Node12</title>
<g id="a_node12"><a xlink:title=" ">
<polygon fill="none" stroke="#bfbfbf" points="767,-6 767,-25 836,-25 836,-6 767,-6"/>
<text text-anchor="middle" x="801.5" y="-13" font-family="Helvetica,sans-Serif" font-size="10.00">type_traits</text>
</a>
</g>
</g>
<!-- Node10&#45;&gt;Node12 -->
<g id="edge11" class="edge">
<title>Node10&#45;&gt;Node12</title>
<path fill="none" stroke="midnightblue" d="M523.93,-139.8C510.78,-123.61 486.82,-88.54 505.5,-67 542.56,-24.27 702.42,-43.9 757.5,-31 760.97,-30.19 764.56,-29.22 768.12,-28.18"/>
<polygon fill="midnightblue" stroke="midnightblue" points="769.47,-31.42 777.97,-25.1 767.38,-24.74 769.47,-31.42"/>
</g>
<!-- Node13 -->
<g id="node13" class="node">
<title>Node13</title>
<g id="a_node13"><a xlink:href="strongly__typed__numeric_8hpp.html" target="_top" xlink:title="Implementation of a strongly typed numeric helper.">
<polygon fill="none" stroke="black" points="654.5,-67.5 654.5,-97.5 812.5,-97.5 812.5,-67.5 654.5,-67.5"/>
<text text-anchor="start" x="662.5" y="-85.5" font-family="Helvetica,sans-Serif" font-size="10.00">beluga/type_traits</text>
<text text-anchor="middle" x="733.5" y="-74.5" font-family="Helvetica,sans-Serif" font-size="10.00">/strongly_typed_numeric.hpp</text>
</a>
</g>
</g>
<!-- Node10&#45;&gt;Node13 -->
<g id="edge12" class="edge">
<title>Node10&#45;&gt;Node13</title>
<path fill="none" stroke="midnightblue" d="M558.32,-139.87C589.29,-129.9 640.99,-113.27 680.22,-100.64"/>
<polygon fill="midnightblue" stroke="midnightblue" points="681.46,-103.92 689.91,-97.53 679.31,-97.26 681.46,-103.92"/>
</g>
<!-- Node10&#45;&gt;Node16 -->
<g id="edge16" class="edge">
<title>Node10&#45;&gt;Node16</title>
<path fill="none" stroke="midnightblue" d="M570.66,-139.94C580.69,-137.87 591.47,-135.75 601.5,-134 713.39,-114.47 742.7,-118.02 854.5,-98 855.96,-97.74 857.45,-97.47 858.94,-97.19"/>
<polygon fill="midnightblue" stroke="midnightblue" points="859.75,-100.6 868.9,-95.26 858.42,-93.72 859.75,-100.6"/>
</g>
<!-- Node18 -->
<g id="node18" class="node">
<title>Node18</title>
<g id="a_node18"><a xlink:href="forward__like_8hpp_source.html" target="_top" xlink:title=" ">
<polygon fill="none" stroke="black" points="514.5,-67.5 514.5,-97.5 636.5,-97.5 636.5,-67.5 514.5,-67.5"/>
<text text-anchor="start" x="522.5" y="-85.5" font-family="Helvetica,sans-Serif" font-size="10.00">beluga/utility/forward</text>
<text text-anchor="middle" x="575.5" y="-74.5" font-family="Helvetica,sans-Serif" font-size="10.00">_like.hpp</text>
</a>
</g>
</g>
<!-- Node10&#45;&gt;Node18 -->
<g id="edge20" class="edge">
<title>Node10&#45;&gt;Node18</title>
<path fill="none" stroke="midnightblue" d="M537.43,-139.73C543.27,-131.12 552.41,-117.61 560.27,-105.99"/>
<polygon fill="midnightblue" stroke="midnightblue" points="563.26,-107.83 565.96,-97.59 557.46,-103.91 563.26,-107.83"/>
</g>
<!-- Node13&#45;&gt;Node12 -->
<g id="edge15" class="edge">
<title>Node13&#45;&gt;Node12</title>
<path fill="none" stroke="midnightblue" d="M748.25,-67.4C759.07,-57.06 773.75,-43.02 784.96,-32.31"/>
<polygon fill="midnightblue" stroke="midnightblue" points="787.59,-34.63 792.4,-25.19 782.76,-29.57 787.59,-34.63"/>
</g>
<!-- Node14 -->
<g id="node14" class="node">
<title>Node14</title>
<g id="a_node14"><a xlink:title=" ">
<polygon fill="none" stroke="#bfbfbf" points="684,-6 684,-25 749,-25 749,-6 684,-6"/>
<text text-anchor="middle" x="716.5" y="-13" font-family="Helvetica,sans-Serif" font-size="10.00">functional</text>
</a>
</g>
</g>
<!-- Node13&#45;&gt;Node14 -->
<g id="edge13" class="edge">
<title>Node13&#45;&gt;Node14</title>
<path fill="none" stroke="midnightblue" d="M729.81,-67.4C727.34,-57.96 724.07,-45.45 721.39,-35.19"/>
<polygon fill="midnightblue" stroke="midnightblue" points="724.69,-33.98 718.77,-25.19 717.92,-35.75 724.69,-33.98"/>
</g>
<!-- Node15 -->
<g id="node15" class="node">
<title>Node15</title>
<g id="a_node15"><a xlink:title=" ">
<polygon fill="none" stroke="#bfbfbf" points="854.5,-6 854.5,-25 898.5,-25 898.5,-6 854.5,-6"/>
<text text-anchor="middle" x="876.5" y="-13" font-family="Helvetica,sans-Serif" font-size="10.00">limits</text>
</a>
</g>
</g>
<!-- Node13&#45;&gt;Node15 -->
<g id="edge14" class="edge">
<title>Node13&#45;&gt;Node15</title>
<path fill="none" stroke="midnightblue" d="M764.53,-67.4C789.51,-56.04 824.32,-40.22 848.46,-29.24"/>
<polygon fill="midnightblue" stroke="midnightblue" points="850.13,-32.33 857.78,-25.01 847.23,-25.96 850.13,-32.33"/>
</g>
<!-- Node16&#45;&gt;Node11 -->
<g id="edge17" class="edge">
<title>Node16&#45;&gt;Node11</title>
<path fill="none" stroke="midnightblue" d="M924.97,-67.4C927.29,-57.96 930.37,-45.45 932.9,-35.19"/>
<polygon fill="midnightblue" stroke="midnightblue" points="936.37,-35.74 935.36,-25.19 929.57,-34.07 936.37,-35.74"/>
</g>
<!-- Node16&#45;&gt;Node12 -->
<g id="edge18" class="edge">
<title>Node16&#45;&gt;Node12</title>
<path fill="none" stroke="midnightblue" d="M895.46,-67.4C874.87,-56.24 846.33,-40.78 826.12,-29.83"/>
<polygon fill="midnightblue" stroke="midnightblue" points="827.67,-26.69 817.21,-25.01 824.33,-32.85 827.67,-26.69"/>
</g>
<!-- Node17 -->
<g id="node17" class="node">
<title>Node17</title>
<g id="a_node17"><a xlink:title=" ">
<polygon fill="none" stroke="#bfbfbf" points="1764,-6 1764,-25 1809,-25 1809,-6 1764,-6"/>
<text text-anchor="middle" x="1786.5" y="-13" font-family="Helvetica,sans-Serif" font-size="10.00">utility</text>
</a>
</g>
</g>
<!-- Node16&#45;&gt;Node17 -->
<g id="edge19" class="edge">
<title>Node16&#45;&gt;Node17</title>
<path fill="none" stroke="midnightblue" d="M974.02,-78.68C1140.34,-69.67 1648.84,-41.6 1722.5,-31 1732.79,-29.52 1743.89,-27.25 1753.9,-24.94"/>
<polygon fill="midnightblue" stroke="midnightblue" points="1754.95,-28.29 1763.86,-22.56 1753.32,-21.48 1754.95,-28.29"/>
</g>
<!-- Node20&#45;&gt;Node10 -->
<g id="edge24" class="edge">
<title>Node20&#45;&gt;Node10</title>
<path fill="none" stroke="midnightblue" d="M693.67,-206.87C660.88,-195.47 603,-175.35 565.99,-162.49"/>
<polygon fill="midnightblue" stroke="midnightblue" points="566.73,-159.04 556.14,-159.06 564.43,-165.65 566.73,-159.04"/>
</g>
<!-- Node21 -->
<g id="node21" class="node">
<title>Node21</title>
<g id="a_node21"><a xlink:title=" ">
<polygon fill="none" stroke="#bfbfbf" points="996.5,-140 996.5,-159 1154.5,-159 1154.5,-140 996.5,-140"/>
<text text-anchor="middle" x="1075.5" y="-147" font-family="Helvetica,sans-Serif" font-size="10.00">range/v3/view/transform.hpp</text>
</a>
</g>
</g>
<!-- Node20&#45;&gt;Node21 -->
<g id="edge25" class="edge">
<title>Node20&#45;&gt;Node21</title>
<path fill="none" stroke="midnightblue" d="M765.54,-206.94C830.78,-195.06 948.58,-173.61 1018.66,-160.85"/>
<polygon fill="midnightblue" stroke="midnightblue" points="1019.43,-164.27 1028.64,-159.03 1018.18,-157.38 1019.43,-164.27"/>
</g>
<!-- Node23&#45;&gt;Node5 -->
<g id="edge28" class="edge">
<title>Node23&#45;&gt;Node5</title>
<path fill="none" stroke="midnightblue" d="M1224.95,-206.98C1210.84,-204.87 1195.61,-202.73 1181.5,-201 1014.87,-180.58 972.41,-182.99 805.5,-165 791.87,-163.53 777.4,-161.88 763.37,-160.23"/>
<polygon fill="midnightblue" stroke="midnightblue" points="763.6,-156.73 753.26,-159.03 762.77,-163.68 763.6,-156.73"/>
</g>
<!-- Node23&#45;&gt;Node6 -->
<g id="edge29" class="edge">
<title>Node23&#45;&gt;Node6</title>
<path fill="none" stroke="midnightblue" d="M1228.17,-206.94C1158.22,-195.03 1031.79,-173.52 956.86,-160.77"/>
<polygon fill="midnightblue" stroke="midnightblue" points="957.09,-157.26 946.64,-159.03 955.91,-164.16 957.09,-157.26"/>
</g>
<!-- Node23&#45;&gt;Node21 -->
<g id="edge32" class="edge">
<title>Node23&#45;&gt;Node21</title>
<path fill="none" stroke="midnightblue" d="M1251.54,-206.87C1215.65,-195.38 1152.04,-175.01 1111.91,-162.16"/>
<polygon fill="midnightblue" stroke="midnightblue" points="1112.84,-158.78 1102.25,-159.06 1110.7,-165.45 1112.84,-158.78"/>
</g>
<!-- Node24 -->
<g id="node24" class="node">
<title>Node24</title>
<g id="a_node24"><a xlink:title=" ">
<polygon fill="none" stroke="#bfbfbf" points="1366.5,-140 1366.5,-159 1518.5,-159 1518.5,-140 1366.5,-140"/>
<text text-anchor="middle" x="1442.5" y="-147" font-family="Helvetica,sans-Serif" font-size="10.00">range/v3/view/common.hpp</text>
</a>
</g>
</g>
<!-- Node23&#45;&gt;Node24 -->
<g id="edge30" class="edge">
<title>Node23&#45;&gt;Node24</title>
<path fill="none" stroke="midnightblue" d="M1300.28,-206.87C1328.78,-195.57 1378.93,-175.7 1411.42,-162.82"/>
<polygon fill="midnightblue" stroke="midnightblue" points="1412.89,-166 1420.89,-159.06 1410.31,-159.49 1412.89,-166"/>
</g>
<!-- Node25 -->
<g id="node25" class="node">
<title>Node25</title>
<g id="a_node25"><a xlink:title=" ">
<polygon fill="none" stroke="#bfbfbf" points="1536.5,-134.5 1536.5,-164.5 1656.5,-164.5 1656.5,-134.5 1536.5,-134.5"/>
<text text-anchor="start" x="1544.5" y="-152.5" font-family="Helvetica,sans-Serif" font-size="10.00">range/v3/view/repeat</text>
<text text-anchor="middle" x="1596.5" y="-141.5" font-family="Helvetica,sans-Serif" font-size="10.00">_n.hpp</text>
</a>
</g>
</g>
<!-- Node23&#45;&gt;Node25 -->
<g id="edge31" class="edge">
<title>Node23&#45;&gt;Node25</title>
<path fill="none" stroke="midnightblue" d="M1321.26,-206.92C1368.84,-197.36 1448.29,-181.32 1526.3,-165.24"/>
<polygon fill="midnightblue" stroke="midnightblue" points="1527.21,-168.63 1536.29,-163.18 1525.79,-161.77 1527.21,-168.63"/>
</g>
<!-- Node26 -->
<g id="node26" class="node">
<title>Node26</title>
<g id="a_node26"><a xlink:title=" ">
<polygon fill="none" stroke="#bfbfbf" points="1621.5,-6 1621.5,-25 1713.5,-25 1713.5,-6 1621.5,-6"/>
<text text-anchor="middle" x="1667.5" y="-13" font-family="Helvetica,sans-Serif" font-size="10.00">sophus/se2.hpp</text>
</a>
</g>
</g>
<!-- Node23&#45;&gt;Node26 -->
<g id="edge33" class="edge">
<title>Node23&#45;&gt;Node26</title>
<path fill="none" stroke="midnightblue" d="M1366.62,-210.02C1474.66,-202.39 1645.93,-186.99 1665.5,-165 1697.7,-128.82 1683.72,-65.78 1674,-34.78"/>
<polygon fill="midnightblue" stroke="midnightblue" points="1677.3,-33.62 1670.82,-25.24 1670.66,-35.84 1677.3,-33.62"/>
</g>
<!-- Node27 -->
<g id="node27" class="node">
<title>Node27</title>
<g id="a_node27"><a xlink:title=" ">
<polygon fill="none" stroke="#bfbfbf" points="1172.5,-140 1172.5,-159 1274.5,-159 1274.5,-140 1172.5,-140"/>
<text text-anchor="middle" x="1223.5" y="-147" font-family="Helvetica,sans-Serif" font-size="10.00">sophus/types.hpp</text>
</a>
</g>
</g>
<!-- Node23&#45;&gt;Node27 -->
<g id="edge34" class="edge">
<title>Node23&#45;&gt;Node27</title>
<path fill="none" stroke="midnightblue" d="M1271.08,-206.73C1262.51,-196.6 1248.2,-179.69 1237.51,-167.06"/>
<polygon fill="midnightblue" stroke="midnightblue" points="1239.93,-164.5 1230.8,-159.13 1234.59,-169.02 1239.93,-164.5"/>
</g>
<!-- Node28 -->
<g id="node28" class="node">
<title>Node28</title>
<g id="a_node28"><a xlink:title=" ">
<polygon fill="none" stroke="#bfbfbf" points="1292.5,-140 1292.5,-159 1348.5,-159 1348.5,-140 1292.5,-140"/>
<text text-anchor="middle" x="1320.5" y="-147" font-family="Helvetica,sans-Serif" font-size="10.00">numeric</text>
</a>
</g>
</g>
<!-- Node23&#45;&gt;Node28 -->
<g id="edge35" class="edge">
<title>Node23&#45;&gt;Node28</title>
<path fill="none" stroke="midnightblue" d="M1284.16,-206.73C1290.59,-196.79 1301.22,-180.34 1309.33,-167.79"/>
<polygon fill="midnightblue" stroke="midnightblue" points="1312.44,-169.43 1314.93,-159.13 1306.56,-165.63 1312.44,-169.43"/>
</g>
<!-- Node30&#45;&gt;Node17 -->
<g id="edge40" class="edge">
<title>Node30&#45;&gt;Node17</title>
<path fill="none" stroke="midnightblue" d="M1850.97,-139.84C1839.76,-118.39 1810.54,-62.49 1795.59,-33.9"/>
<polygon fill="midnightblue" stroke="midnightblue" points="1798.69,-32.26 1790.95,-25.02 1792.49,-35.5 1798.69,-32.26"/>
</g>
<!-- Node30&#45;&gt;Node26 -->
<g id="edge48" class="edge">
<title>Node30&#45;&gt;Node26</title>
<path fill="none" stroke="midnightblue" d="M1816.62,-139.99C1788.82,-132.45 1751.66,-119.26 1724.5,-98 1702.48,-80.76 1685.5,-52.7 1676,-34.42"/>
<polygon fill="midnightblue" stroke="midnightblue" points="1679.1,-32.79 1671.51,-25.4 1672.84,-35.91 1679.1,-32.79"/>
</g>
<!-- Node31 -->
<g id="node31" class="node">
<title>Node31</title>
<g id="a_node31"><a xlink:title=" ">
<polygon fill="none" stroke="#bfbfbf" points="2203.5,-73 2203.5,-92 2267.5,-92 2267.5,-73 2203.5,-73"/>
<text text-anchor="middle" x="2235.5" y="-80" font-family="Helvetica,sans-Serif" font-size="10.00">algorithm</text>
</a>
</g>
</g>
<!-- Node30&#45;&gt;Node31 -->
<g id="edge38" class="edge">
<title>Node30&#45;&gt;Node31</title>
<path fill="none" stroke="midnightblue" d="M1935.11,-139.99C2003.2,-131.88 2103.52,-117.92 2189.5,-98 2193.34,-97.11 2197.32,-96.06 2201.26,-94.93"/>
<polygon fill="midnightblue" stroke="midnightblue" points="2202.3,-98.28 2210.87,-92.04 2200.28,-91.57 2202.3,-98.28"/>
</g>
<!-- Node32 -->
<g id="node32" class="node">
<title>Node32</title>
<g id="a_node32"><a xlink:title=" ">
<polygon fill="none" stroke="#bfbfbf" points="1733.5,-73 1733.5,-92 1789.5,-92 1789.5,-73 1733.5,-73"/>
<text text-anchor="middle" x="1761.5" y="-80" font-family="Helvetica,sans-Serif" font-size="10.00">optional</text>
</a>
</g>
</g>
<!-- Node30&#45;&gt;Node32 -->
<g id="edge39" class="edge">
<title>Node30&#45;&gt;Node32</title>
<path fill="none" stroke="midnightblue" d="M1842.82,-139.73C1827.32,-129.01 1800.86,-110.72 1782.34,-97.91"/>
<polygon fill="midnightblue" stroke="midnightblue" points="1784.19,-94.94 1773.98,-92.13 1780.21,-100.69 1784.19,-94.94"/>
</g>
<!-- Node33 -->
<g id="node33" class="node">
<title>Node33</title>
<g id="a_node33"><a xlink:href="bresenham_8hpp.html" target="_top" xlink:title="Implementation of Bresenham&#45;like raytracing algorithms.">
<polygon fill="none" stroke="black" points="1993.5,-67.5 1993.5,-97.5 2147.5,-97.5 2147.5,-67.5 1993.5,-67.5"/>
<text text-anchor="start" x="2001.5" y="-85.5" font-family="Helvetica,sans-Serif" font-size="10.00">beluga/algorithm/raycasting</text>
<text text-anchor="middle" x="2070.5" y="-74.5" font-family="Helvetica,sans-Serif" font-size="10.00">/bresenham.hpp</text>
</a>
</g>
</g>
<!-- Node30&#45;&gt;Node33 -->
<g id="edge41" class="edge">
<title>Node30&#45;&gt;Node33</title>
<path fill="none" stroke="midnightblue" d="M1884.05,-139.87C1917.15,-129.86 1972.5,-113.13 2014.32,-100.48"/>
<polygon fill="midnightblue" stroke="midnightblue" points="2015.54,-103.77 2024.1,-97.53 2013.51,-97.07 2015.54,-103.77"/>
</g>
<!-- Node34 -->
<g id="node34" class="node">
<title>Node34</title>
<g id="a_node34"><a xlink:title=" ">
<polygon fill="none" stroke="#bfbfbf" points="1860.5,-6 1860.5,-25 1982.5,-25 1982.5,-6 1860.5,-6"/>
<text text-anchor="middle" x="1921.5" y="-13" font-family="Helvetica,sans-Serif" font-size="10.00">range/v3/view/all.hpp</text>
</a>
</g>
</g>
<!-- Node30&#45;&gt;Node34 -->
<g id="edge46" class="edge">
<title>Node30&#45;&gt;Node34</title>
<path fill="none" stroke="midnightblue" d="M1856.05,-139.9C1857.34,-124.46 1861.53,-91.37 1874.5,-67 1881.54,-53.79 1892.91,-41.44 1902.7,-32.26"/>
<polygon fill="midnightblue" stroke="midnightblue" points="1905.31,-34.62 1910.43,-25.34 1900.64,-29.4 1905.31,-34.62"/>
</g>
<!-- Node35 -->
<g id="node35" class="node">
<title>Node35</title>
<g id="a_node35"><a xlink:title=" ">
<polygon fill="none" stroke="#bfbfbf" points="2120.5,-0.5 2120.5,-30.5 2230.5,-30.5 2230.5,-0.5 2120.5,-0.5"/>
<text text-anchor="start" x="2128.5" y="-18.5" font-family="Helvetica,sans-Serif" font-size="10.00">range/v3/view/take</text>
<text text-anchor="middle" x="2175.5" y="-7.5" font-family="Helvetica,sans-Serif" font-size="10.00">_while.hpp</text>
</a>
</g>
</g>
<!-- Node30&#45;&gt;Node35 -->
<g id="edge47" class="edge">
<title>Node30&#45;&gt;Node35</title>
<path fill="none" stroke="midnightblue" d="M1943.24,-144.38C2020.85,-138.9 2126.32,-126.34 2156.5,-98 2171.92,-83.52 2175.95,-59.15 2176.55,-40.82"/>
<polygon fill="midnightblue" stroke="midnightblue" points="2180.05,-40.59 2176.56,-30.59 2173.05,-40.58 2180.05,-40.59"/>
</g>
<!-- Node37 -->
<g id="node37" class="node">
<title>Node37</title>
<g id="a_node37"><a xlink:title=" ">
<polygon fill="none" stroke="#bfbfbf" points="1883.5,-73 1883.5,-92 1975.5,-92 1975.5,-73 1883.5,-73"/>
<text text-anchor="middle" x="1929.5" y="-80" font-family="Helvetica,sans-Serif" font-size="10.00">sophus/so2.hpp</text>
</a>
</g>
</g>
<!-- Node30&#45;&gt;Node37 -->
<g id="edge49" class="edge">
<title>Node30&#45;&gt;Node37</title>
<path fill="none" stroke="midnightblue" d="M1865.48,-139.73C1877.35,-129.31 1897.39,-111.71 1911.88,-98.97"/>
<polygon fill="midnightblue" stroke="midnightblue" points="1914.47,-101.36 1919.68,-92.13 1909.86,-96.1 1914.47,-101.36"/>
</g>
<!-- Node33&#45;&gt;Node17 -->
<g id="edge42" class="edge">
<title>Node33&#45;&gt;Node17</title>
<path fill="none" stroke="midnightblue" d="M2009.23,-67.48C1950.86,-54.12 1865.25,-34.52 1819.01,-23.94"/>
<polygon fill="midnightblue" stroke="midnightblue" points="1819.75,-20.52 1809.22,-21.7 1818.19,-27.34 1819.75,-20.52"/>
</g>
<!-- Node33&#45;&gt;Node34 -->
<g id="edge43" class="edge">
<title>Node33&#45;&gt;Node34</title>
<path fill="none" stroke="midnightblue" d="M2038.17,-67.4C2012.03,-55.99 1975.55,-40.08 1950.38,-29.1"/>
<polygon fill="midnightblue" stroke="midnightblue" points="1951.57,-25.8 1941,-25.01 1948.77,-32.21 1951.57,-25.8"/>
</g>
<!-- Node33&#45;&gt;Node35 -->
<g id="edge44" class="edge">
<title>Node33&#45;&gt;Node35</title>
<path fill="none" stroke="midnightblue" d="M2093.28,-67.4C2108.14,-58.2 2127.74,-46.07 2144.07,-35.95"/>
<polygon fill="midnightblue" stroke="midnightblue" points="2146.1,-38.82 2152.76,-30.58 2142.42,-32.86 2146.1,-38.82"/>
</g>
<!-- Node36 -->
<g id="node36" class="node">
<title>Node36</title>
<g id="a_node36"><a xlink:title=" ">
<polygon fill="none" stroke="#bfbfbf" points="2033,-6 2033,-25 2102,-25 2102,-6 2033,-6"/>
<text text-anchor="middle" x="2067.5" y="-13" font-family="Helvetica,sans-Serif" font-size="10.00">Eigen/Core</text>
</a>
</g>
</g>
<!-- Node33&#45;&gt;Node36 -->
<g id="edge45" class="edge">
<title>Node33&#45;&gt;Node36</title>
<path fill="none" stroke="midnightblue" d="M2069.85,-67.4C2069.41,-57.96 2068.84,-45.45 2068.36,-35.19"/>
<polygon fill="midnightblue" stroke="midnightblue" points="2071.86,-35.02 2067.9,-25.19 2064.87,-35.35 2071.86,-35.02"/>
</g>
<!-- Node38&#45;&gt;Node11 -->
<g id="edge55" class="edge">
<title>Node38&#45;&gt;Node11</title>
<path fill="none" stroke="midnightblue" d="M1207.1,-68.35C1134.04,-54.3 1021.54,-32.66 967.93,-22.35"/>
<polygon fill="midnightblue" stroke="midnightblue" points="968.51,-18.9 958.02,-20.45 967.18,-25.77 968.51,-18.9"/>
</g>
<!-- Node38&#45;&gt;Node12 -->
<g id="edge56" class="edge">
<title>Node38&#45;&gt;Node12</title>
<path fill="none" stroke="midnightblue" d="M1207.39,-77.75C1122.01,-72.08 971.55,-58.87 845.5,-31 841.83,-30.19 838.03,-29.19 834.28,-28.1"/>
<polygon fill="midnightblue" stroke="midnightblue" points="835.14,-24.7 824.55,-25.06 833.05,-31.38 835.14,-24.7"/>
</g>
<!-- Node38&#45;&gt;Node15 -->
<g id="edge54" class="edge">
<title>Node38&#45;&gt;Node15</title>
<path fill="none" stroke="midnightblue" d="M1207.4,-78.29C1132.56,-73.35 1009.4,-61.07 907.5,-31 905.62,-30.45 903.71,-29.79 901.81,-29.08"/>
<polygon fill="midnightblue" stroke="midnightblue" points="903.12,-25.83 892.55,-25.13 900.37,-32.27 903.12,-25.83"/>
</g>
<!-- Node38&#45;&gt;Node17 -->
<g id="edge57" class="edge">
<title>Node38&#45;&gt;Node17</title>
<path fill="none" stroke="midnightblue" d="M1343.6,-76.16C1431.53,-68.73 1589.09,-53.58 1722.5,-31 1732.75,-29.26 1743.83,-26.92 1753.85,-24.63"/>
<polygon fill="midnightblue" stroke="midnightblue" points="1754.88,-27.98 1763.81,-22.28 1753.28,-21.17 1754.88,-27.98"/>
</g>
<!-- Node38&#45;&gt;Node26 -->
<g id="edge58" class="edge">
<title>Node38&#45;&gt;Node26</title>
<path fill="none" stroke="midnightblue" d="M1343.78,-70.18C1419.68,-57.59 1540.82,-37.51 1611.4,-25.8"/>
<polygon fill="midnightblue" stroke="midnightblue" points="1612.15,-29.23 1621.44,-24.14 1611,-22.32 1612.15,-29.23"/>
</g>
<!-- Node39 -->
<g id="node39" class="node">
<title>Node39</title>
<g id="a_node39"><a xlink:title=" ">
<polygon fill="none" stroke="#bfbfbf" points="1318.5,-6 1318.5,-25 1362.5,-25 1362.5,-6 1318.5,-6"/>
<text text-anchor="middle" x="1340.5" y="-13" font-family="Helvetica,sans-Serif" font-size="10.00">bitset</text>
</a>
</g>
</g>
<!-- Node38&#45;&gt;Node39 -->
<g id="edge51" class="edge">
<title>Node38&#45;&gt;Node39</title>
<path fill="none" stroke="midnightblue" d="M1289.6,-67.4C1299.94,-57.06 1313.98,-43.02 1324.69,-32.31"/>
<polygon fill="midnightblue" stroke="midnightblue" points="1327.21,-34.74 1331.81,-25.19 1322.26,-29.79 1327.21,-34.74"/>
</g>
<!-- Node40 -->
<g id="node40" class="node">
<title>Node40</title>
<g id="a_node40"><a xlink:title=" ">
<polygon fill="none" stroke="#bfbfbf" points="1185,-6 1185,-25 1232,-25 1232,-6 1185,-6"/>
<text text-anchor="middle" x="1208.5" y="-13" font-family="Helvetica,sans-Serif" font-size="10.00">cmath</text>
</a>
</g>
</g>
<!-- Node38&#45;&gt;Node40 -->
<g id="edge52" class="edge">
<title>Node38&#45;&gt;Node40</title>
<path fill="none" stroke="midnightblue" d="M1260.96,-67.4C1250.31,-57.06 1235.84,-43.02 1224.8,-32.31"/>
<polygon fill="midnightblue" stroke="midnightblue" points="1227.08,-29.65 1217.46,-25.19 1222.2,-34.67 1227.08,-29.65"/>
</g>
<!-- Node41 -->
<g id="node41" class="node">
<title>Node41</title>
<g id="a_node41"><a xlink:title=" ">
<polygon fill="none" stroke="#bfbfbf" points="1250.5,-6 1250.5,-25 1300.5,-25 1300.5,-6 1250.5,-6"/>
<text text-anchor="middle" x="1275.5" y="-13" font-family="Helvetica,sans-Serif" font-size="10.00">cstdint</text>
</a>
</g>
</g>
<!-- Node38&#45;&gt;Node41 -->
<g id="edge53" class="edge">
<title>Node38&#45;&gt;Node41</title>
<path fill="none" stroke="midnightblue" d="M1275.5,-67.4C1275.5,-58.06 1275.5,-45.71 1275.5,-35.52"/>
<polygon fill="midnightblue" stroke="midnightblue" points="1279,-35.19 1275.5,-25.19 1272,-35.19 1279,-35.19"/>
</g>
<!-- Node42&#45;&gt;Node9 -->
<g id="edge61" class="edge">
<title>Node42&#45;&gt;Node9</title>
<path fill="none" stroke="midnightblue" d="M837.4,-273.06C829.69,-271.32 821.92,-269.6 814.5,-268 738.27,-251.58 716.51,-249.27 636.79,-232.24"/>
<polygon fill="midnightblue" stroke="midnightblue" points="637.29,-228.77 626.77,-230.09 635.82,-235.61 637.29,-228.77"/>
</g>
<!-- Node42&#45;&gt;Node20 -->
<g id="edge62" class="edge">
<title>Node42&#45;&gt;Node20</title>
<path fill="none" stroke="midnightblue" d="M850.52,-268.36C818.5,-256.02 778.17,-240.49 750.57,-229.85"/>
<polygon fill="midnightblue" stroke="midnightblue" points="751.6,-226.5 741.01,-226.17 749.09,-233.03 751.6,-226.5"/>
</g>
<!-- Node42&#45;&gt;Node22 -->
<g id="edge63" class="edge">
<title>Node42&#45;&gt;Node22</title>
<path fill="none" stroke="midnightblue" d="M901.5,-268.36C901.5,-258.3 901.5,-246.1 901.5,-236.18"/>
<polygon fill="midnightblue" stroke="midnightblue" points="905,-236.17 901.5,-226.17 898,-236.17 905,-236.17"/>
</g>
<!-- Node42&#45;&gt;Node29 -->
<g id="edge60" class="edge">
<title>Node42&#45;&gt;Node29</title>
<path fill="none" stroke="midnightblue" d="M954.17,-268.46C982.25,-258.04 1016.51,-245.32 1043.8,-235.2"/>
<polygon fill="midnightblue" stroke="midnightblue" points="1045.35,-238.36 1053.51,-231.6 1042.92,-231.79 1045.35,-238.36"/>
</g>
</g>
</svg>
