<?xml version="1.0" encoding="UTF-8" standalone="no"?>
<!DOCTYPE svg PUBLIC "-//W3C//DTD SVG 1.1//EN"
 "http://www.w3.org/Graphics/SVG/1.1/DTD/svg11.dtd">
<!-- Generated by graphviz version 2.43.0 (0)
 -->
<!-- Title: /home/runner/work/beluga/beluga/beluga/include/beluga/algorithm.hpp Pages: 1 -->
<svg width="2242pt" height="396pt"
 viewBox="0.00 0.00 2241.50 396.00" xmlns="http://www.w3.org/2000/svg" xmlns:xlink="http://www.w3.org/1999/xlink">
<g id="graph0" class="graph" transform="scale(1 1) rotate(0) translate(4 392)">
<title>/home/runner/work/beluga/beluga/beluga/include/beluga/algorithm.hpp</title>
<!-- Node1 -->
<g id="node1" class="node">
<title>Node1</title>
<g id="a_node1"><a xlink:title="Includes all beluga algorithms.">
<polygon fill="#bfbfbf" stroke="black" points="1019,-346.5 1019,-387.5 1164,-387.5 1164,-346.5 1019,-346.5"/>
<text text-anchor="start" x="1027" y="-375.5" font-family="Helvetica,sans-Serif" font-size="10.00">/home/runner/work/beluga</text>
<text text-anchor="start" x="1027" y="-364.5" font-family="Helvetica,sans-Serif" font-size="10.00">/beluga/beluga/include</text>
<text text-anchor="middle" x="1091.5" y="-353.5" font-family="Helvetica,sans-Serif" font-size="10.00">/beluga/algorithm.hpp</text>
</a>
</g>
</g>
<!-- Node2 -->
<g id="node2" class="node">
<title>Node2</title>
<g id="a_node2"><a xlink:href="distance__map_8hpp.html" target="_top" xlink:title="Implementation of algorithm to calculate distance from obstacles.">
<polygon fill="none" stroke="black" points="297.5,-201.5 297.5,-231.5 441.5,-231.5 441.5,-201.5 297.5,-201.5"/>
<text text-anchor="start" x="305.5" y="-219.5" font-family="Helvetica,sans-Serif" font-size="10.00">beluga/algorithm/distance</text>
<text text-anchor="middle" x="369.5" y="-208.5" font-family="Helvetica,sans-Serif" font-size="10.00">_map.hpp</text>
</a>
</g>
</g>
<!-- Node1&#45;&gt;Node2 -->
<g id="edge1" class="edge">
<title>Node1&#45;&gt;Node2</title>
<path fill="none" stroke="midnightblue" d="M1018.96,-361.07C930.96,-354.12 778.48,-338.91 650.5,-310 565.2,-290.73 469.05,-256.17 414.23,-235.19"/>
<polygon fill="midnightblue" stroke="midnightblue" points="415.4,-231.89 404.81,-231.56 412.89,-238.42 415.4,-231.89"/>
</g>
<!-- Node8 -->
<g id="node8" class="node">
<title>Node8</title>
<g id="a_node8"><a xlink:href="effective__sample__size_8hpp.html" target="_top" xlink:title="Implementation of an algorithm to calculate the effective sample size (ESS).">
<polygon fill="none" stroke="black" points="659.5,-274 659.5,-304 805.5,-304 805.5,-274 659.5,-274"/>
<text text-anchor="start" x="667.5" y="-292" font-family="Helvetica,sans-Serif" font-size="10.00">beluga/algorithm/effective</text>
<text text-anchor="middle" x="732.5" y="-281" font-family="Helvetica,sans-Serif" font-size="10.00">_sample_size.hpp</text>
</a>
</g>
</g>
<!-- Node1&#45;&gt;Node8 -->
<g id="edge7" class="edge">
<title>Node1&#45;&gt;Node8</title>
<path fill="none" stroke="midnightblue" d="M1018.85,-350.62C957.81,-337.7 870.86,-319.29 808.81,-306.16"/>
<polygon fill="midnightblue" stroke="midnightblue" points="809.2,-302.66 798.69,-304.01 807.75,-309.51 809.2,-302.66"/>
</g>
<!-- Node23 -->
<g id="node23" class="node">
<title>Node23</title>
<g id="a_node23"><a xlink:href="estimation_8hpp.html" target="_top" xlink:title="Implementation of algorithms that allow calculating the estimated state of a particle filter.">
<polygon fill="none" stroke="black" points="1190.5,-207 1190.5,-226 1366.5,-226 1366.5,-207 1190.5,-207"/>
<text text-anchor="middle" x="1278.5" y="-214" font-family="Helvetica,sans-Serif" font-size="10.00">beluga/algorithm/estimation.hpp</text>
</a>
</g>
</g>
<!-- Node1&#45;&gt;Node23 -->
<g id="edge27" class="edge">
<title>Node1&#45;&gt;Node23</title>
<path fill="none" stroke="midnightblue" d="M1116.33,-346.28C1154.09,-316.3 1225.14,-259.87 1259.26,-232.78"/>
<polygon fill="midnightblue" stroke="midnightblue" points="1261.82,-235.22 1267.47,-226.26 1257.46,-229.74 1261.82,-235.22"/>
</g>
<!-- Node29 -->
<g id="node29" class="node">
<title>Node29</title>
<g id="a_node29"><a xlink:href="exponential__filter_8hpp.html" target="_top" xlink:title="Implementation of an exponential filter.">
<polygon fill="none" stroke="black" points="1011,-201.5 1011,-231.5 1172,-231.5 1172,-201.5 1011,-201.5"/>
<text text-anchor="start" x="1019" y="-219.5" font-family="Helvetica,sans-Serif" font-size="10.00">beluga/algorithm/exponential</text>
<text text-anchor="middle" x="1091.5" y="-208.5" font-family="Helvetica,sans-Serif" font-size="10.00">_filter.hpp</text>
</a>
</g>
</g>
<!-- Node1&#45;&gt;Node29 -->
<g id="edge36" class="edge">
<title>Node1&#45;&gt;Node29</title>
<path fill="none" stroke="midnightblue" d="M1091.5,-346.28C1091.5,-319.28 1091.5,-270.83 1091.5,-241.67"/>
<polygon fill="midnightblue" stroke="midnightblue" points="1095,-241.53 1091.5,-231.53 1088,-241.53 1095,-241.53"/>
</g>
<!-- Node30 -->
<g id="node30" class="node">
<title>Node30</title>
<g id="a_node30"><a xlink:href="raycasting_8hpp.html" target="_top" xlink:title="Implementation of raycasting algorithms.">
<polygon fill="none" stroke="black" points="1801,-140 1801,-159 1976,-159 1976,-140 1801,-140"/>
<text text-anchor="middle" x="1888.5" y="-147" font-family="Helvetica,sans-Serif" font-size="10.00">beluga/algorithm/raycasting.hpp</text>
</a>
</g>
</g>
<!-- Node1&#45;&gt;Node30 -->
<g id="edge37" class="edge">
<title>Node1&#45;&gt;Node30</title>
<path fill="none" stroke="midnightblue" d="M1164.26,-366.08C1311.04,-365.21 1637.09,-357.78 1736.5,-310 1803.65,-277.73 1856.61,-202.23 1878.1,-167.97"/>
<polygon fill="midnightblue" stroke="midnightblue" points="1881.29,-169.46 1883.53,-159.11 1875.32,-165.81 1881.29,-169.46"/>
</g>
<!-- Node39 -->
<g id="node39" class="node">
<title>Node39</title>
<g id="a_node39"><a xlink:href="spatial__hash_8hpp.html" target="_top" xlink:title="Implementation of a spatial hash for N dimensional states.">
<polygon fill="none" stroke="black" points="1469.5,-67.5 1469.5,-97.5 1605.5,-97.5 1605.5,-67.5 1469.5,-67.5"/>
<text text-anchor="start" x="1477.5" y="-85.5" font-family="Helvetica,sans-Serif" font-size="10.00">beluga/algorithm/spatial</text>
<text text-anchor="middle" x="1537.5" y="-74.5" font-family="Helvetica,sans-Serif" font-size="10.00">_hash.hpp</text>
</a>
</g>
</g>
<!-- Node1&#45;&gt;Node39 -->
<g id="edge51" class="edge">
<title>Node1&#45;&gt;Node39</title>
<path fill="none" stroke="midnightblue" d="M1164.14,-365.39C1290.84,-359.92 1549.74,-328.2 1665.5,-165 1686.53,-135.36 1647.73,-114 1607.47,-100.6"/>
<polygon fill="midnightblue" stroke="midnightblue" points="1608.38,-97.22 1597.79,-97.53 1606.27,-103.89 1608.38,-97.22"/>
</g>
<!-- Node42 -->
<g id="node42" class="node">
<title>Node42</title>
<g id="a_node42"><a xlink:href="thrun__recovery__probability__estimator_8hpp_source.html" target="_top" xlink:title=" ">
<polygon fill="none" stroke="black" points="837.5,-268.5 837.5,-309.5 965.5,-309.5 965.5,-268.5 837.5,-268.5"/>
<text text-anchor="start" x="845.5" y="-297.5" font-family="Helvetica,sans-Serif" font-size="10.00">beluga/algorithm/thrun</text>
<text text-anchor="start" x="845.5" y="-286.5" font-family="Helvetica,sans-Serif" font-size="10.00">_recovery_probability</text>
<text text-anchor="middle" x="901.5" y="-275.5" font-family="Helvetica,sans-Serif" font-size="10.00">_estimator.hpp</text>
</a>
</g>
</g>
<!-- Node1&#45;&gt;Node42 -->
<g id="edge60" class="edge">
<title>Node1&#45;&gt;Node42</title>
<path fill="none" stroke="midnightblue" d="M1042.57,-346.43C1017.31,-336.32 986.3,-323.92 959.8,-313.32"/>
<polygon fill="midnightblue" stroke="midnightblue" points="960.85,-309.97 950.26,-309.51 958.25,-316.47 960.85,-309.97"/>
</g>
<!-- Node3 -->
<g id="node3" class="node">
<title>Node3</title>
<g id="a_node3"><a xlink:title=" ">
<polygon fill="none" stroke="#bfbfbf" points="246,-140 246,-159 293,-159 293,-140 246,-140"/>
<text text-anchor="middle" x="269.5" y="-147" font-family="Helvetica,sans-Serif" font-size="10.00">queue</text>
</a>
</g>
</g>
<!-- Node2&#45;&gt;Node3 -->
<g id="edge2" class="edge">
<title>Node2&#45;&gt;Node3</title>
<path fill="none" stroke="midnightblue" d="M347.8,-201.4C331.03,-190.5 307.93,-175.48 291.17,-164.58"/>
<polygon fill="midnightblue" stroke="midnightblue" points="292.88,-161.52 282.59,-159.01 289.06,-167.39 292.88,-161.52"/>
</g>
<!-- Node4 -->
<g id="node4" class="node">
<title>Node4</title>
<g id="a_node4"><a xlink:title=" ">
<polygon fill="none" stroke="#bfbfbf" points="0,-140 0,-159 47,-159 47,-140 0,-140"/>
<text text-anchor="middle" x="23.5" y="-147" font-family="Helvetica,sans-Serif" font-size="10.00">vector</text>
</a>
</g>
</g>
<!-- Node2&#45;&gt;Node4 -->
<g id="edge3" class="edge">
<title>Node2&#45;&gt;Node4</title>
<path fill="none" stroke="midnightblue" d="M297.2,-209.38C232.75,-202.64 136.39,-189.36 55.5,-165 53.57,-164.42 51.61,-163.75 49.65,-163.02"/>
<polygon fill="midnightblue" stroke="midnightblue" points="50.69,-159.66 40.12,-159.04 48,-166.12 50.69,-159.66"/>
</g>
<!-- Node5 -->
<g id="node5" class="node">
<title>Node5</title>
<g id="a_node5"><a xlink:title=" ">
<polygon fill="none" stroke="#bfbfbf" points="611,-140 611,-159 758,-159 758,-140 611,-140"/>
<text text-anchor="middle" x="684.5" y="-147" font-family="Helvetica,sans-Serif" font-size="10.00">range/v3/range/access.hpp</text>
</a>
</g>
</g>
<!-- Node2&#45;&gt;Node5 -->
<g id="edge4" class="edge">
<title>Node2&#45;&gt;Node5</title>
<path fill="none" stroke="midnightblue" d="M437.46,-201.48C496.25,-189.34 579.96,-172.07 633.26,-161.07"/>
<polygon fill="midnightblue" stroke="midnightblue" points="634.08,-164.48 643.17,-159.03 632.67,-157.62 634.08,-164.48"/>
</g>
<!-- Node6 -->
<g id="node6" class="node">
<title>Node6</title>
<g id="a_node6"><a xlink:title=" ">
<polygon fill="none" stroke="#bfbfbf" points="814.5,-140 814.5,-159 978.5,-159 978.5,-140 814.5,-140"/>
<text text-anchor="middle" x="896.5" y="-147" font-family="Helvetica,sans-Serif" font-size="10.00">range/v3/range/primitives.hpp</text>
</a>
</g>
</g>
<!-- Node2&#45;&gt;Node6 -->
<g id="edge5" class="edge">
<title>Node2&#45;&gt;Node6</title>
<path fill="none" stroke="midnightblue" d="M441.67,-206.6C539.92,-194.48 715.17,-172.87 817.06,-160.3"/>
<polygon fill="midnightblue" stroke="midnightblue" points="817.8,-163.73 827.29,-159.04 816.94,-156.79 817.8,-163.73"/>
</g>
<!-- Node7 -->
<g id="node7" class="node">
<title>Node7</title>
<g id="a_node7"><a xlink:title=" ">
<polygon fill="none" stroke="#bfbfbf" points="65,-140 65,-159 228,-159 228,-140 65,-140"/>
<text text-anchor="middle" x="146.5" y="-147" font-family="Helvetica,sans-Serif" font-size="10.00">range/v3/view/enumerate.hpp</text>
</a>
</g>
</g>
<!-- Node2&#45;&gt;Node7 -->
<g id="edge6" class="edge">
<title>Node2&#45;&gt;Node7</title>
<path fill="none" stroke="midnightblue" d="M321.39,-201.48C280.72,-189.62 223.21,-172.86 185.4,-161.84"/>
<polygon fill="midnightblue" stroke="midnightblue" points="186.34,-158.47 175.76,-159.03 184.38,-165.19 186.34,-158.47"/>
</g>
<!-- Node9 -->
<g id="node9" class="node">
<title>Node9</title>
<g id="a_node9"><a xlink:href="particle__traits_8hpp.html" target="_top" xlink:title="Implementation of traits for particle types, see the Particle named requirements.">
<polygon fill="none" stroke="black" points="518.5,-201.5 518.5,-231.5 626.5,-231.5 626.5,-201.5 518.5,-201.5"/>
<text text-anchor="start" x="526.5" y="-219.5" font-family="Helvetica,sans-Serif" font-size="10.00">beluga/type_traits</text>
<text text-anchor="middle" x="572.5" y="-208.5" font-family="Helvetica,sans-Serif" font-size="10.00">/particle_traits.hpp</text>
</a>
</g>
</g>
<!-- Node8&#45;&gt;Node9 -->
<g id="edge8" class="edge">
<title>Node8&#45;&gt;Node9</title>
<path fill="none" stroke="midnightblue" d="M700.51,-273.9C675.54,-262.9 640.69,-247.54 613.65,-235.63"/>
<polygon fill="midnightblue" stroke="midnightblue" points="615,-232.4 604.44,-231.57 612.18,-238.81 615,-232.4"/>
</g>
<!-- Node20 -->
<g id="node20" class="node">
<title>Node20</title>
<g id="a_node20"><a xlink:href="particles_8hpp.html" target="_top" xlink:title="Implementation of views related to particle ranges.">
<polygon fill="none" stroke="black" points="645,-207 645,-226 792,-226 792,-207 645,-207"/>
<text text-anchor="middle" x="718.5" y="-214" font-family="Helvetica,sans-Serif" font-size="10.00">beluga/views/particles.hpp</text>
</a>
</g>
</g>
<!-- Node8&#45;&gt;Node20 -->
<g id="edge23" class="edge">
<title>Node8&#45;&gt;Node20</title>
<path fill="none" stroke="midnightblue" d="M729.67,-273.73C727.54,-263 724.59,-248.19 722.26,-236.46"/>
<polygon fill="midnightblue" stroke="midnightblue" points="725.65,-235.52 720.27,-226.39 718.78,-236.88 725.65,-235.52"/>
</g>
<!-- Node22 -->
<g id="node22" class="node">
<title>Node22</title>
<g id="a_node22"><a xlink:title=" ">
<polygon fill="none" stroke="#bfbfbf" points="810,-207 810,-226 993,-226 993,-207 810,-207"/>
<text text-anchor="middle" x="901.5" y="-214" font-family="Helvetica,sans-Serif" font-size="10.00">range/v3/numeric/accumulate.hpp</text>
</a>
</g>
</g>
<!-- Node8&#45;&gt;Node22 -->
<g id="edge26" class="edge">
<title>Node8&#45;&gt;Node22</title>
<path fill="none" stroke="midnightblue" d="M766.29,-273.9C797.1,-261.05 842.18,-242.24 871.68,-229.94"/>
<polygon fill="midnightblue" stroke="midnightblue" points="873.16,-233.11 881.04,-226.03 870.47,-226.65 873.16,-233.11"/>
</g>
<!-- Node10 -->
<g id="node10" class="node">
<title>Node10</title>
<g id="a_node10"><a xlink:href="primitives_8hpp.html" target="_top" xlink:title="Implementation of library primitives to abstract member access.">
<polygon fill="none" stroke="black" points="470,-140 470,-159 593,-159 593,-140 470,-140"/>
<text text-anchor="middle" x="531.5" y="-147" font-family="Helvetica,sans-Serif" font-size="10.00">beluga/primitives.hpp</text>
</a>
</g>
</g>
<!-- Node9&#45;&gt;Node10 -->
<g id="edge9" class="edge">
<title>Node9&#45;&gt;Node10</title>
<path fill="none" stroke="midnightblue" d="M563.6,-201.4C557.4,-191.56 549.08,-178.38 542.47,-167.89"/>
<polygon fill="midnightblue" stroke="midnightblue" points="545.28,-165.79 536.98,-159.19 539.36,-169.52 545.28,-165.79"/>
</g>
<!-- Node16 -->
<g id="node16" class="node">
<title>Node16</title>
<g id="a_node16"><a xlink:href="tuple__traits_8hpp.html" target="_top" xlink:title="Implementation of traits for tuple&#45;like types.">
<polygon fill="none" stroke="black" points="869,-67.5 869,-97.5 974,-97.5 974,-67.5 869,-67.5"/>
<text text-anchor="start" x="877" y="-85.5" font-family="Helvetica,sans-Serif" font-size="10.00">beluga/type_traits</text>
<text text-anchor="middle" x="921.5" y="-74.5" font-family="Helvetica,sans-Serif" font-size="10.00">/tuple_traits.hpp</text>
</a>
</g>
</g>
<!-- Node9&#45;&gt;Node16 -->
<g id="edge21" class="edge">
<title>Node9&#45;&gt;Node16</title>
<path fill="none" stroke="midnightblue" d="M626.66,-202.62C679.55,-189.85 753.89,-171.3 766.5,-165 786.31,-155.11 786.52,-145.4 805.5,-134 826.64,-121.29 851.56,-110.02 872.87,-101.36"/>
<polygon fill="midnightblue" stroke="midnightblue" points="874.38,-104.53 882.38,-97.57 871.79,-98.02 874.38,-104.53"/>
</g>
<!-- Node19 -->
<g id="node19" class="node">
<title>Node19</title>
<g id="a_node19"><a xlink:title=" ">
<polygon fill="none" stroke="#bfbfbf" points="311.5,-140 311.5,-159 451.5,-159 451.5,-140 311.5,-140"/>
<text text-anchor="middle" x="381.5" y="-147" font-family="Helvetica,sans-Serif" font-size="10.00">range/v3/range/traits.hpp</text>
</a>
</g>
</g>
<!-- Node9&#45;&gt;Node19 -->
<g id="edge22" class="edge">
<title>Node9&#45;&gt;Node19</title>
<path fill="none" stroke="midnightblue" d="M531.06,-201.4C496.65,-189.69 448.3,-173.23 415.98,-162.23"/>
<polygon fill="midnightblue" stroke="midnightblue" points="417.09,-158.92 406.5,-159.01 414.84,-165.54 417.09,-158.92"/>
</g>
<!-- Node11 -->
<g id="node11" class="node">
<title>Node11</title>
<g id="a_node11"><a xlink:title=" ">
<polygon fill="none" stroke="#bfbfbf" points="917,-6 917,-25 958,-25 958,-6 917,-6"/>
<text text-anchor="middle" x="937.5" y="-13" font-family="Helvetica,sans-Serif" font-size="10.00">tuple</text>
</a>
</g>
</g>
<!-- Node10&#45;&gt;Node11 -->
<g id="edge10" class="edge">
<title>Node10&#45;&gt;Node11</title>
<path fill="none" stroke="midnightblue" d="M571.42,-139.93C581.24,-137.9 591.74,-135.81 601.5,-134 698.92,-115.95 731.16,-138.69 821.5,-98 841.37,-89.05 841.88,-79.83 859.5,-67 877.49,-53.9 898.73,-40.26 914.51,-30.46"/>
<polygon fill="midnightblue" stroke="midnightblue" points="916.42,-33.39 923.1,-25.17 912.75,-27.43 916.42,-33.39"/>
</g>
<!-- Node12 -->
<g id="node12" class="node">
<title>Node12</title>
<g id="a_node12"><a xlink:title=" ">
<polygon fill="none" stroke="#bfbfbf" points="767,-6 767,-25 836,-25 836,-6 767,-6"/>
<text text-anchor="middle" x="801.5" y="-13" font-family="Helvetica,sans-Serif" font-size="10.00">type_traits</text>
</a>
</g>
</g>
<!-- Node10&#45;&gt;Node12 -->
<g id="edge11" class="edge">
<title>Node10&#45;&gt;Node12</title>
<path fill="none" stroke="midnightblue" d="M523.93,-139.8C510.78,-123.61 486.82,-88.54 505.5,-67 542.56,-24.27 702.42,-43.9 757.5,-31 760.97,-30.19 764.56,-29.22 768.12,-28.18"/>
<polygon fill="midnightblue" stroke="midnightblue" points="769.47,-31.42 777.97,-25.1 767.38,-24.74 769.47,-31.42"/>
</g>
<!-- Node13 -->
<g id="node13" class="node">
<title>Node13</title>
<g id="a_node13"><a xlink:href="strongly__typed__numeric_8hpp.html" target="_top" xlink:title="Implementation of a strongly typed numeric helper.">
<polygon fill="none" stroke="black" points="654.5,-67.5 654.5,-97.5 812.5,-97.5 812.5,-67.5 654.5,-67.5"/>
<text text-anchor="start" x="662.5" y="-85.5" font-family="Helvetica,sans-Serif" font-size="10.00">beluga/type_traits</text>
<text text-anchor="middle" x="733.5" y="-74.5" font-family="Helvetica,sans-Serif" font-size="10.00">/strongly_typed_numeric.hpp</text>
</a>
</g>
</g>
<!-- Node10&#45;&gt;Node13 -->
<g id="edge12" class="edge">
<title>Node10&#45;&gt;Node13</title>
<path fill="none" stroke="midnightblue" d="M558.32,-139.87C589.29,-129.9 640.99,-113.27 680.22,-100.64"/>
<polygon fill="midnightblue" stroke="midnightblue" points="681.46,-103.92 689.91,-97.53 679.31,-97.26 681.46,-103.92"/>
</g>
<!-- Node10&#45;&gt;Node16 -->
<g id="edge16" class="edge">
<title>Node10&#45;&gt;Node16</title>
<path fill="none" stroke="midnightblue" d="M570.66,-139.94C580.69,-137.87 591.47,-135.75 601.5,-134 713.39,-114.47 742.7,-118.02 854.5,-98 855.96,-97.74 857.45,-97.47 858.94,-97.19"/>
<polygon fill="midnightblue" stroke="midnightblue" points="859.75,-100.6 868.9,-95.26 858.42,-93.72 859.75,-100.6"/>
</g>
<!-- Node18 -->
<g id="node18" class="node">
<title>Node18</title>
<g id="a_node18"><a xlink:href="forward__like_8hpp_source.html" target="_top" xlink:title=" ">
<polygon fill="none" stroke="black" points="514.5,-67.5 514.5,-97.5 636.5,-97.5 636.5,-67.5 514.5,-67.5"/>
<text text-anchor="start" x="522.5" y="-85.5" font-family="Helvetica,sans-Serif" font-size="10.00">beluga/utility/forward</text>
<text text-anchor="middle" x="575.5" y="-74.5" font-family="Helvetica,sans-Serif" font-size="10.00">_like.hpp</text>
</a>
</g>
</g>
<!-- Node10&#45;&gt;Node18 -->
<g id="edge20" class="edge">
<title>Node10&#45;&gt;Node18</title>
<path fill="none" stroke="midnightblue" d="M537.43,-139.73C543.27,-131.12 552.41,-117.61 560.27,-105.99"/>
<polygon fill="midnightblue" stroke="midnightblue" points="563.26,-107.83 565.96,-97.59 557.46,-103.91 563.26,-107.83"/>
</g>
<!-- Node13&#45;&gt;Node12 -->
<g id="edge15" class="edge">
<title>Node13&#45;&gt;Node12</title>
<path fill="none" stroke="midnightblue" d="M748.25,-67.4C759.07,-57.06 773.75,-43.02 784.96,-32.31"/>
<polygon fill="midnightblue" stroke="midnightblue" points="787.59,-34.63 792.4,-25.19 782.76,-29.57 787.59,-34.63"/>
</g>
<!-- Node14 -->
<g id="node14" class="node">
<title>Node14</title>
<g id="a_node14"><a xlink:title=" ">
<polygon fill="none" stroke="#bfbfbf" points="684,-6 684,-25 749,-25 749,-6 684,-6"/>
<text text-anchor="middle" x="716.5" y="-13" font-family="Helvetica,sans-Serif" font-size="10.00">functional</text>
</a>
</g>
</g>
<!-- Node13&#45;&gt;Node14 -->
<g id="edge13" class="edge">
<title>Node13&#45;&gt;Node14</title>
<path fill="none" stroke="midnightblue" d="M729.81,-67.4C727.34,-57.96 724.07,-45.45 721.39,-35.19"/>
<polygon fill="midnightblue" stroke="midnightblue" points="724.69,-33.98 718.77,-25.19 717.92,-35.75 724.69,-33.98"/>
</g>
<!-- Node15 -->
<g id="node15" class="node">
<title>Node15</title>
<g id="a_node15"><a xlink:title=" ">
<polygon fill="none" stroke="#bfbfbf" points="854.5,-6 854.5,-25 898.5,-25 898.5,-6 854.5,-6"/>
<text text-anchor="middle" x="876.5" y="-13" font-family="Helvetica,sans-Serif" font-size="10.00">limits</text>
</a>
</g>
</g>
<!-- Node13&#45;&gt;Node15 -->
<g id="edge14" class="edge">
<title>Node13&#45;&gt;Node15</title>
<path fill="none" stroke="midnightblue" d="M764.53,-67.4C789.51,-56.04 824.32,-40.22 848.46,-29.24"/>
<polygon fill="midnightblue" stroke="midnightblue" points="850.13,-32.33 857.78,-25.01 847.23,-25.96 850.13,-32.33"/>
</g>
<!-- Node16&#45;&gt;Node11 -->
<g id="edge17" class="edge">
<title>Node16&#45;&gt;Node11</title>
<path fill="none" stroke="midnightblue" d="M924.97,-67.4C927.29,-57.96 930.37,-45.45 932.9,-35.19"/>
<polygon fill="midnightblue" stroke="midnightblue" points="936.37,-35.74 935.36,-25.19 929.57,-34.07 936.37,-35.74"/>
</g>
<!-- Node16&#45;&gt;Node12 -->
<g id="edge18" class="edge">
<title>Node16&#45;&gt;Node12</title>
<path fill="none" stroke="midnightblue" d="M895.46,-67.4C874.87,-56.24 846.33,-40.78 826.12,-29.83"/>
<polygon fill="midnightblue" stroke="midnightblue" points="827.67,-26.69 817.21,-25.01 824.33,-32.85 827.67,-26.69"/>
</g>
<!-- Node17 -->
<g id="node17" class="node">
<title>Node17</title>
<g id="a_node17"><a xlink:title=" ">
<polygon fill="none" stroke="#bfbfbf" points="1704,-6 1704,-25 1749,-25 1749,-6 1704,-6"/>
<text text-anchor="middle" x="1726.5" y="-13" font-family="Helvetica,sans-Serif" font-size="10.00">utility</text>
</a>
</g>
</g>
<!-- Node16&#45;&gt;Node17 -->
<g id="edge19" class="edge">
<title>Node16&#45;&gt;Node17</title>
<path fill="none" stroke="midnightblue" d="M974.17,-80.08C1124.2,-75.7 1551.77,-60.88 1688.5,-31 1691.57,-30.33 1694.73,-29.45 1697.84,-28.46"/>
<polygon fill="midnightblue" stroke="midnightblue" points="1699.26,-31.67 1707.51,-25.02 1696.91,-25.08 1699.26,-31.67"/>
</g>
<!-- Node20&#45;&gt;Node10 -->
<g id="edge24" class="edge">
<title>Node20&#45;&gt;Node10</title>
<path fill="none" stroke="midnightblue" d="M693.67,-206.87C660.88,-195.47 603,-175.35 565.99,-162.49"/>
<polygon fill="midnightblue" stroke="midnightblue" points="566.73,-159.04 556.14,-159.06 564.43,-165.65 566.73,-159.04"/>
</g>
<!-- Node21 -->
<g id="node21" class="node">
<title>Node21</title>
<g id="a_node21"><a xlink:title=" ">
<polygon fill="none" stroke="#bfbfbf" points="996.5,-140 996.5,-159 1154.5,-159 1154.5,-140 996.5,-140"/>
<text text-anchor="middle" x="1075.5" y="-147" font-family="Helvetica,sans-Serif" font-size="10.00">range/v3/view/transform.hpp</text>
</a>
</g>
</g>
<!-- Node20&#45;&gt;Node21 -->
<g id="edge25" class="edge">
<title>Node20&#45;&gt;Node21</title>
<path fill="none" stroke="midnightblue" d="M765.54,-206.94C830.78,-195.06 948.58,-173.61 1018.66,-160.85"/>
<polygon fill="midnightblue" stroke="midnightblue" points="1019.43,-164.27 1028.64,-159.03 1018.18,-157.38 1019.43,-164.27"/>
</g>
<!-- Node23&#45;&gt;Node5 -->
<g id="edge28" class="edge">
<title>Node23&#45;&gt;Node5</title>
<path fill="none" stroke="midnightblue" d="M1224.95,-206.98C1210.84,-204.87 1195.61,-202.73 1181.5,-201 1014.87,-180.58 972.41,-182.99 805.5,-165 791.87,-163.53 777.4,-161.88 763.37,-160.23"/>
<polygon fill="midnightblue" stroke="midnightblue" points="763.6,-156.73 753.26,-159.03 762.77,-163.68 763.6,-156.73"/>
</g>
<!-- Node23&#45;&gt;Node6 -->
<g id="edge29" class="edge">
<title>Node23&#45;&gt;Node6</title>
<path fill="none" stroke="midnightblue" d="M1228.17,-206.94C1158.22,-195.03 1031.79,-173.52 956.86,-160.77"/>
<polygon fill="midnightblue" stroke="midnightblue" points="957.09,-157.26 946.64,-159.03 955.91,-164.16 957.09,-157.26"/>
</g>
<!-- Node23&#45;&gt;Node21 -->
<g id="edge32" class="edge">
<title>Node23&#45;&gt;Node21</title>
<path fill="none" stroke="midnightblue" d="M1251.54,-206.87C1215.65,-195.38 1152.04,-175.01 1111.91,-162.16"/>
<polygon fill="midnightblue" stroke="midnightblue" points="1112.84,-158.78 1102.25,-159.06 1110.7,-165.45 1112.84,-158.78"/>
</g>
<!-- Node24 -->
<g id="node24" class="node">
<title>Node24</title>
<g id="a_node24"><a xlink:title=" ">
<polygon fill="none" stroke="#bfbfbf" points="1366.5,-140 1366.5,-159 1518.5,-159 1518.5,-140 1366.5,-140"/>
<text text-anchor="middle" x="1442.5" y="-147" font-family="Helvetica,sans-Serif" font-size="10.00">range/v3/view/common.hpp</text>
</a>
</g>
</g>
<!-- Node23&#45;&gt;Node24 -->
<g id="edge30" class="edge">
<title>Node23&#45;&gt;Node24</title>
<path fill="none" stroke="midnightblue" d="M1300.28,-206.87C1328.78,-195.57 1378.93,-175.7 1411.42,-162.82"/>
<polygon fill="midnightblue" stroke="midnightblue" points="1412.89,-166 1420.89,-159.06 1410.31,-159.49 1412.89,-166"/>
</g>
<!-- Node25 -->
<g id="node25" class="node">
<title>Node25</title>
<g id="a_node25"><a xlink:title=" ">
<polygon fill="none" stroke="#bfbfbf" points="1536.5,-134.5 1536.5,-164.5 1656.5,-164.5 1656.5,-134.5 1536.5,-134.5"/>
<text text-anchor="start" x="1544.5" y="-152.5" font-family="Helvetica,sans-Serif" font-size="10.00">range/v3/view/repeat</text>
<text text-anchor="middle" x="1596.5" y="-141.5" font-family="Helvetica,sans-Serif" font-size="10.00">_n.hpp</text>
</a>
</g>
</g>
<!-- Node23&#45;&gt;Node25 -->
<g id="edge31" class="edge">
<title>Node23&#45;&gt;Node25</title>
<path fill="none" stroke="midnightblue" d="M1321.26,-206.92C1368.84,-197.36 1448.29,-181.32 1526.3,-165.24"/>
<polygon fill="midnightblue" stroke="midnightblue" points="1527.21,-168.63 1536.29,-163.18 1525.79,-161.77 1527.21,-168.63"/>
</g>
<!-- Node26 -->
<g id="node26" class="node">
<title>Node26</title>
<g id="a_node26"><a xlink:title=" ">
<polygon fill="none" stroke="#bfbfbf" points="1587.5,-6 1587.5,-25 1679.5,-25 1679.5,-6 1587.5,-6"/>
<text text-anchor="middle" x="1633.5" y="-13" font-family="Helvetica,sans-Serif" font-size="10.00">sophus/se2.hpp</text>
</a>
</g>
</g>
<!-- Node23&#45;&gt;Node26 -->
<g id="edge33" class="edge">
<title>Node23&#45;&gt;Node26</title>
<path fill="none" stroke="midnightblue" d="M1366.66,-210.06C1474.75,-202.47 1646.08,-187.12 1665.5,-165 1674.59,-154.65 1667.33,-147.66 1665.5,-134 1664.84,-129.03 1647.6,-66.95 1638.7,-35.09"/>
<polygon fill="midnightblue" stroke="midnightblue" points="1642.01,-33.92 1635.95,-25.23 1635.27,-35.8 1642.01,-33.92"/>
</g>
<!-- Node27 -->
<g id="node27" class="node">
<title>Node27</title>
<g id="a_node27"><a xlink:title=" ">
<polygon fill="none" stroke="#bfbfbf" points="1172.5,-140 1172.5,-159 1274.5,-159 1274.5,-140 1172.5,-140"/>
<text text-anchor="middle" x="1223.5" y="-147" font-family="Helvetica,sans-Serif" font-size="10.00">sophus/types.hpp</text>
</a>
</g>
</g>
<!-- Node23&#45;&gt;Node27 -->
<g id="edge34" class="edge">
<title>Node23&#45;&gt;Node27</title>
<path fill="none" stroke="midnightblue" d="M1271.08,-206.73C1262.51,-196.6 1248.2,-179.69 1237.51,-167.06"/>
<polygon fill="midnightblue" stroke="midnightblue" points="1239.93,-164.5 1230.8,-159.13 1234.59,-169.02 1239.93,-164.5"/>
</g>
<!-- Node28 -->
<g id="node28" class="node">
<title>Node28</title>
<g id="a_node28"><a xlink:title=" ">
<polygon fill="none" stroke="#bfbfbf" points="1292.5,-140 1292.5,-159 1348.5,-159 1348.5,-140 1292.5,-140"/>
<text text-anchor="middle" x="1320.5" y="-147" font-family="Helvetica,sans-Serif" font-size="10.00">numeric</text>
</a>
</g>
</g>
<!-- Node23&#45;&gt;Node28 -->
<g id="edge35" class="edge">
<title>Node23&#45;&gt;Node28</title>
<path fill="none" stroke="midnightblue" d="M1284.16,-206.73C1290.59,-196.79 1301.22,-180.34 1309.33,-167.79"/>
<polygon fill="midnightblue" stroke="midnightblue" points="1312.44,-169.43 1314.93,-159.13 1306.56,-165.63 1312.44,-169.43"/>
</g>
<!-- Node30&#45;&gt;Node17 -->
<g id="edge40" class="edge">
<title>Node30&#45;&gt;Node17</title>
<path fill="none" stroke="midnightblue" d="M1870.41,-139.83C1852.31,-130.72 1824.12,-115.33 1802.5,-98 1777.95,-78.32 1753.91,-50.75 1739.65,-33.26"/>
<polygon fill="midnightblue" stroke="midnightblue" points="1742.12,-30.74 1733.13,-25.12 1736.66,-35.12 1742.12,-30.74"/>
</g>
<!-- Node30&#45;&gt;Node26 -->
<g id="edge49" class="edge">
<title>Node30&#45;&gt;Node26</title>
<path fill="none" stroke="midnightblue" d="M1802.05,-139.99C1765.16,-133.09 1723.18,-120.6 1690.5,-98 1667.26,-81.92 1650.43,-53.08 1641.32,-34.38"/>
<polygon fill="midnightblue" stroke="midnightblue" points="1644.44,-32.78 1637.06,-25.17 1638.09,-35.72 1644.44,-32.78"/>
</g>
<!-- Node31 -->
<g id="node31" class="node">
<title>Node31</title>
<g id="a_node31"><a xlink:title=" ">
<polygon fill="none" stroke="#bfbfbf" points="2169.5,-73 2169.5,-92 2233.5,-92 2233.5,-73 2169.5,-73"/>
<text text-anchor="middle" x="2201.5" y="-80" font-family="Helvetica,sans-Serif" font-size="10.00">algorithm</text>
</a>
</g>
</g>
<!-- Node30&#45;&gt;Node31 -->
<g id="edge38" class="edge">
<title>Node30&#45;&gt;Node31</title>
<path fill="none" stroke="midnightblue" d="M1943.89,-139.99C1998.18,-131.19 2083.09,-116.19 2155.5,-98 2159.12,-97.09 2162.88,-96.06 2166.62,-94.97"/>
<polygon fill="midnightblue" stroke="midnightblue" points="2167.79,-98.27 2176.35,-92.02 2165.76,-91.57 2167.79,-98.27"/>
</g>
<!-- Node32 -->
<g id="node32" class="node">
<title>Node32</title>
<g id="a_node32"><a xlink:title=" ">
<polygon fill="none" stroke="#bfbfbf" points="1699.5,-73 1699.5,-92 1755.5,-92 1755.5,-73 1699.5,-73"/>
<text text-anchor="middle" x="1727.5" y="-80" font-family="Helvetica,sans-Serif" font-size="10.00">optional</text>
</a>
</g>
</g>
<!-- Node30&#45;&gt;Node32 -->
<g id="edge39" class="edge">
<title>Node30&#45;&gt;Node32</title>
<path fill="none" stroke="midnightblue" d="M1867.12,-139.87C1839.14,-128.57 1789.91,-108.7 1758.01,-95.82"/>
<polygon fill="midnightblue" stroke="midnightblue" points="1759.29,-92.56 1748.71,-92.06 1756.67,-99.05 1759.29,-92.56"/>
</g>
<!-- Node33 -->
<g id="node33" class="node">
<title>Node33</title>
<g id="a_node33"><a xlink:href="bresenham_8hpp.html" target="_top" xlink:title="Implementation of Bresenham&#45;like raytracing algorithms.">
<polygon fill="none" stroke="black" points="1811.5,-67.5 1811.5,-97.5 1965.5,-97.5 1965.5,-67.5 1811.5,-67.5"/>
<text text-anchor="start" x="1819.5" y="-85.5" font-family="Helvetica,sans-Serif" font-size="10.00">beluga/algorithm/raycasting</text>
<text text-anchor="middle" x="1888.5" y="-74.5" font-family="Helvetica,sans-Serif" font-size="10.00">/bresenham.hpp</text>
</a>
</g>
</g>
<!-- Node30&#45;&gt;Node33 -->
<g id="edge41" class="edge">
<title>Node30&#45;&gt;Node33</title>
<path fill="none" stroke="midnightblue" d="M1888.5,-139.73C1888.5,-131.54 1888.5,-118.92 1888.5,-107.71"/>
<polygon fill="midnightblue" stroke="midnightblue" points="1892,-107.59 1888.5,-97.59 1885,-107.59 1892,-107.59"/>
</g>
<!-- Node35 -->
<g id="node35" class="node">
<title>Node35</title>
<g id="a_node35"><a xlink:title=" ">
<polygon fill="none" stroke="#bfbfbf" points="1943.5,-6 1943.5,-25 2065.5,-25 2065.5,-6 1943.5,-6"/>
<text text-anchor="middle" x="2004.5" y="-13" font-family="Helvetica,sans-Serif" font-size="10.00">range/v3/view/all.hpp</text>
</a>
</g>
</g>
<!-- Node30&#45;&gt;Node35 -->
<g id="edge47" class="edge">
<title>Node30&#45;&gt;Node35</title>
<path fill="none" stroke="midnightblue" d="M1955.98,-139.97C2006.19,-132.08 2068.65,-118.45 2084.5,-98 2092.94,-87.11 2091.15,-79.07 2084.5,-67 2074.95,-49.69 2056.7,-37.49 2040.03,-29.42"/>
<polygon fill="midnightblue" stroke="midnightblue" points="2041.04,-26.04 2030.48,-25.15 2038.18,-32.43 2041.04,-26.04"/>
</g>
<!-- Node36 -->
<g id="node36" class="node">
<title>Node36</title>
<g id="a_node36"><a xlink:title=" ">
<polygon fill="none" stroke="#bfbfbf" points="2084.5,-0.5 2084.5,-30.5 2194.5,-30.5 2194.5,-0.5 2084.5,-0.5"/>
<text text-anchor="start" x="2092.5" y="-18.5" font-family="Helvetica,sans-Serif" font-size="10.00">range/v3/view/take</text>
<text text-anchor="middle" x="2139.5" y="-7.5" font-family="Helvetica,sans-Serif" font-size="10.00">_while.hpp</text>
</a>
</g>
</g>
<!-- Node30&#45;&gt;Node36 -->
<g id="edge48" class="edge">
<title>Node30&#45;&gt;Node36</title>
<path fill="none" stroke="midnightblue" d="M1976.09,-144.82C2017.6,-139.07 2065.61,-126.16 2100.5,-98 2118.44,-83.52 2128.63,-58.8 2134.06,-40.38"/>
<polygon fill="midnightblue" stroke="midnightblue" points="2137.47,-41.2 2136.67,-30.64 2130.71,-39.39 2137.47,-41.2"/>
</g>
<!-- Node38 -->
<g id="node38" class="node">
<title>Node38</title>
<g id="a_node38"><a xlink:title=" ">
<polygon fill="none" stroke="#bfbfbf" points="1983.5,-73 1983.5,-92 2075.5,-92 2075.5,-73 1983.5,-73"/>
<text text-anchor="middle" x="2029.5" y="-80" font-family="Helvetica,sans-Serif" font-size="10.00">sophus/so2.hpp</text>
</a>
</g>
</g>
<!-- Node30&#45;&gt;Node38 -->
<g id="edge50" class="edge">
<title>Node30&#45;&gt;Node38</title>
<path fill="none" stroke="midnightblue" d="M1907.22,-139.87C1931.35,-128.75 1973.5,-109.32 2001.45,-96.43"/>
<polygon fill="midnightblue" stroke="midnightblue" points="2003.08,-99.53 2010.7,-92.17 2000.15,-93.18 2003.08,-99.53"/>
</g>
<!-- Node33&#45;&gt;Node17 -->
<g id="edge43" class="edge">
<title>Node33&#45;&gt;Node17</title>
<path fill="none" stroke="midnightblue" d="M1853.35,-67.4C1824.67,-55.89 1784.56,-39.8 1757.17,-28.81"/>
<polygon fill="midnightblue" stroke="midnightblue" points="1758.29,-25.48 1747.7,-25.01 1755.68,-31.98 1758.29,-25.48"/>
</g>
<!-- Node34 -->
<g id="node34" class="node">
<title>Node34</title>
<g id="a_node34"><a xlink:title=" ">
<polygon fill="none" stroke="#bfbfbf" points="1779.5,-6 1779.5,-25 1829.5,-25 1829.5,-6 1779.5,-6"/>
<text text-anchor="middle" x="1804.5" y="-13" font-family="Helvetica,sans-Serif" font-size="10.00">cstdint</text>
</a>
</g>
</g>
<!-- Node33&#45;&gt;Node34 -->
<g id="edge42" class="edge">
<title>Node33&#45;&gt;Node34</title>
<path fill="none" stroke="midnightblue" d="M1870.27,-67.4C1856.53,-56.76 1837.72,-42.2 1823.73,-31.38"/>
<polygon fill="midnightblue" stroke="midnightblue" points="1825.79,-28.55 1815.74,-25.19 1821.5,-34.08 1825.79,-28.55"/>
</g>
<!-- Node33&#45;&gt;Node35 -->
<g id="edge44" class="edge">
<title>Node33&#45;&gt;Node35</title>
<path fill="none" stroke="midnightblue" d="M1913.67,-67.4C1933.48,-56.29 1960.92,-40.92 1980.44,-29.98"/>
<polygon fill="midnightblue" stroke="midnightblue" points="1982.31,-32.95 1989.32,-25.01 1978.88,-26.84 1982.31,-32.95"/>
</g>
<!-- Node33&#45;&gt;Node36 -->
<g id="edge45" class="edge">
<title>Node33&#45;&gt;Node36</title>
<path fill="none" stroke="midnightblue" d="M1942.65,-67.48C1981.53,-57.41 2034.08,-43.8 2075.11,-33.17"/>
<polygon fill="midnightblue" stroke="midnightblue" points="2076.21,-36.51 2085.01,-30.61 2074.45,-29.73 2076.21,-36.51"/>
</g>
<!-- Node37 -->
<g id="node37" class="node">
<title>Node37</title>
<g id="a_node37"><a xlink:title=" ">
<polygon fill="none" stroke="#bfbfbf" points="1854,-6 1854,-25 1923,-25 1923,-6 1854,-6"/>
<text text-anchor="middle" x="1888.5" y="-13" font-family="Helvetica,sans-Serif" font-size="10.00">Eigen/Core</text>
</a>
</g>
</g>
<!-- Node33&#45;&gt;Node37 -->
<g id="edge46" class="edge">
<title>Node33&#45;&gt;Node37</title>
<path fill="none" stroke="midnightblue" d="M1888.5,-67.4C1888.5,-58.06 1888.5,-45.71 1888.5,-35.52"/>
<polygon fill="midnightblue" stroke="midnightblue" points="1892,-35.19 1888.5,-25.19 1885,-35.19 1892,-35.19"/>
</g>
<!-- Node39&#45;&gt;Node11 -->
<g id="edge56" class="edge">
<title>Node39&#45;&gt;Node11</title>
<path fill="none" stroke="midnightblue" d="M1469.26,-74.11C1339.26,-60.02 1060.81,-29.86 968.18,-19.82"/>
<polygon fill="midnightblue" stroke="midnightblue" points="968.39,-16.33 958.07,-18.73 967.64,-23.29 968.39,-16.33"/>
</g>
<!-- Node39&#45;&gt;Node12 -->
<g id="edge57" class="edge">
<title>Node39&#45;&gt;Node12</title>
<path fill="none" stroke="midnightblue" d="M1469.48,-82.03C1344.6,-81.8 1070.89,-75.66 845.5,-31 841.62,-30.23 837.6,-29.22 833.65,-28.09"/>
<polygon fill="midnightblue" stroke="midnightblue" points="834.64,-24.74 824.05,-25.11 832.56,-31.42 834.64,-24.74"/>
</g>
<!-- Node39&#45;&gt;Node15 -->
<g id="edge55" class="edge">
<title>Node39&#45;&gt;Node15</title>
<path fill="none" stroke="midnightblue" d="M1469.45,-79.11C1329.13,-73.67 1012.05,-58.67 907.5,-31 905.52,-30.48 903.51,-29.83 901.51,-29.1"/>
<polygon fill="midnightblue" stroke="midnightblue" points="902.43,-25.69 891.86,-25.01 899.7,-32.14 902.43,-25.69"/>
</g>
<!-- Node39&#45;&gt;Node17 -->
<g id="edge58" class="edge">
<title>Node39&#45;&gt;Node17</title>
<path fill="none" stroke="midnightblue" d="M1581.28,-67.39C1611.51,-57.52 1652.58,-43.85 1688.5,-31 1690.61,-30.25 1692.77,-29.46 1694.95,-28.65"/>
<polygon fill="midnightblue" stroke="midnightblue" points="1696.32,-31.88 1704.45,-25.09 1693.86,-25.32 1696.32,-31.88"/>
</g>
<!-- Node39&#45;&gt;Node26 -->
<g id="edge59" class="edge">
<title>Node39&#45;&gt;Node26</title>
<path fill="none" stroke="midnightblue" d="M1558.33,-67.4C1574.28,-56.6 1596.2,-41.76 1612.25,-30.89"/>
<polygon fill="midnightblue" stroke="midnightblue" points="1614.62,-33.51 1620.94,-25.01 1610.69,-27.72 1614.62,-33.51"/>
</g>
<!-- Node39&#45;&gt;Node34 -->
<g id="edge54" class="edge">
<title>Node39&#45;&gt;Node34</title>
<path fill="none" stroke="midnightblue" d="M1605.56,-67.44C1649.44,-58 1707.6,-44.81 1758.5,-31 1762.11,-30.02 1765.85,-28.94 1769.58,-27.83"/>
<polygon fill="midnightblue" stroke="midnightblue" points="1770.77,-31.13 1779.3,-24.85 1768.71,-24.44 1770.77,-31.13"/>
</g>
<!-- Node40 -->
<g id="node40" class="node">
<title>Node40</title>
<g id="a_node40"><a xlink:title=" ">
<polygon fill="none" stroke="#bfbfbf" points="1520.5,-6 1520.5,-25 1564.5,-25 1564.5,-6 1520.5,-6"/>
<text text-anchor="middle" x="1542.5" y="-13" font-family="Helvetica,sans-Serif" font-size="10.00">bitset</text>
</a>
</g>
</g>
<!-- Node39&#45;&gt;Node40 -->
<g id="edge52" class="edge">
<title>Node39&#45;&gt;Node40</title>
<path fill="none" stroke="midnightblue" d="M1538.58,-67.4C1539.31,-57.96 1540.27,-45.45 1541.06,-35.19"/>
<polygon fill="midnightblue" stroke="midnightblue" points="1544.55,-35.43 1541.83,-25.19 1537.57,-34.9 1544.55,-35.43"/>
</g>
<!-- Node41 -->
<g id="node41" class="node">
<title>Node41</title>
<g id="a_node41"><a xlink:title=" ">
<polygon fill="none" stroke="#bfbfbf" points="1455,-6 1455,-25 1502,-25 1502,-6 1455,-6"/>
<text text-anchor="middle" x="1478.5" y="-13" font-family="Helvetica,sans-Serif" font-size="10.00">cmath</text>
</a>
</g>
</g>
<!-- Node39&#45;&gt;Node41 -->
<g id="edge53" class="edge">
<title>Node39&#45;&gt;Node41</title>
<path fill="none" stroke="midnightblue" d="M1524.7,-67.4C1515.41,-57.16 1502.82,-43.3 1493.13,-32.62"/>
<polygon fill="midnightblue" stroke="midnightblue" points="1495.7,-30.25 1486.39,-25.19 1490.52,-34.95 1495.7,-30.25"/>
</g>
<!-- Node42&#45;&gt;Node9 -->
<g id="edge62" class="edge">
<title>Node42&#45;&gt;Node9</title>
<path fill="none" stroke="midnightblue" d="M837.4,-273.06C829.69,-271.32 821.92,-269.6 814.5,-268 738.27,-251.58 716.51,-249.27 636.79,-232.24"/>
<polygon fill="midnightblue" stroke="midnightblue" points="637.29,-228.77 626.77,-230.09 635.82,-235.61 637.29,-228.77"/>
</g>
<!-- Node42&#45;&gt;Node20 -->
<g id="edge63" class="edge">
<title>Node42&#45;&gt;Node20</title>
<path fill="none" stroke="midnightblue" d="M850.52,-268.36C818.5,-256.02 778.17,-240.49 750.57,-229.85"/>
<polygon fill="midnightblue" stroke="midnightblue" points="751.6,-226.5 741.01,-226.17 749.09,-233.03 751.6,-226.5"/>
</g>
<!-- Node42&#45;&gt;Node22 -->
<g id="edge64" class="edge">
<title>Node42&#45;&gt;Node22</title>
<path fill="none" stroke="midnightblue" d="M901.5,-268.36C901.5,-258.3 901.5,-246.1 901.5,-236.18"/>
<polygon fill="midnightblue" stroke="midnightblue" points="905,-236.17 901.5,-226.17 898,-236.17 905,-236.17"/>
</g>
<!-- Node42&#45;&gt;Node29 -->
<g id="edge61" class="edge">
<title>Node42&#45;&gt;Node29</title>
<path fill="none" stroke="midnightblue" d="M954.17,-268.46C982.25,-258.04 1016.51,-245.32 1043.8,-235.2"/>
<polygon fill="midnightblue" stroke="midnightblue" points="1045.35,-238.36 1053.51,-231.6 1042.92,-231.79 1045.35,-238.36"/>
</g>
</g>
</svg>
