<?xml version="1.0" encoding="UTF-8" standalone="no"?>
<!DOCTYPE svg PUBLIC "-//W3C//DTD SVG 1.1//EN"
 "http://www.w3.org/Graphics/SVG/1.1/DTD/svg11.dtd">
<!-- Generated by graphviz version 2.43.0 (0)
 -->
<!-- Title: /home/runner/work/beluga/beluga/beluga/include/beluga/sensor/beam_model.hpp Pages: 1 -->
<svg width="1319pt" height="240pt"
 viewBox="0.00 0.00 1319.00 240.00" xmlns="http://www.w3.org/2000/svg" xmlns:xlink="http://www.w3.org/1999/xlink">
<g id="graph0" class="graph" transform="scale(1 1) rotate(0) translate(4 236)">
<title>/home/runner/work/beluga/beluga/beluga/include/beluga/sensor/beam_model.hpp</title>
<!-- Node1 -->
<g id="node1" class="node">
<title>Node1</title>
<g id="a_node1"><a xlink:title="Implementation of a beam sensor model for range finders.">
<polygon fill="#bfbfbf" stroke="black" points="627,-190.5 627,-231.5 803,-231.5 803,-190.5 627,-190.5"/>
<text text-anchor="start" x="635" y="-219.5" font-family="Helvetica,sans-Serif" font-size="10.00">/home/runner/work/beluga</text>
<text text-anchor="start" x="635" y="-208.5" font-family="Helvetica,sans-Serif" font-size="10.00">/beluga/beluga/include</text>
<text text-anchor="middle" x="715" y="-197.5" font-family="Helvetica,sans-Serif" font-size="10.00">/beluga/sensor/beam_model.hpp</text>
</a>
</g>
</g>
<!-- Node2 -->
<g id="node2" class="node">
<title>Node2</title>
<g id="a_node2"><a xlink:title=" ">
<polygon fill="none" stroke="#bfbfbf" points="0,-73 0,-92 64,-92 64,-73 0,-73"/>
<text text-anchor="middle" x="32" y="-80" font-family="Helvetica,sans-Serif" font-size="10.00">algorithm</text>
</a>
</g>
</g>
<!-- Node1&#45;&gt;Node2 -->
<g id="edge1" class="edge">
<title>Node1&#45;&gt;Node2</title>
<path fill="none" stroke="midnightblue" d="M627,-207.18C525.62,-202.33 354.67,-189.23 212,-154 155.65,-140.09 93.3,-112.8 58.76,-96.56"/>
<polygon fill="midnightblue" stroke="midnightblue" points="59.91,-93.23 49.38,-92.09 56.91,-99.55 59.91,-93.23"/>
</g>
<!-- Node3 -->
<g id="node3" class="node">
<title>Node3</title>
<g id="a_node3"><a xlink:title=" ">
<polygon fill="none" stroke="#bfbfbf" points="691.5,-134.5 691.5,-153.5 738.5,-153.5 738.5,-134.5 691.5,-134.5"/>
<text text-anchor="middle" x="715" y="-141.5" font-family="Helvetica,sans-Serif" font-size="10.00">cmath</text>
</a>
</g>
</g>
<!-- Node1&#45;&gt;Node3 -->
<g id="edge2" class="edge">
<title>Node1&#45;&gt;Node3</title>
<path fill="none" stroke="midnightblue" d="M715,-190.5C715,-182.07 715,-172.24 715,-163.87"/>
<polygon fill="midnightblue" stroke="midnightblue" points="718.5,-163.65 715,-153.65 711.5,-163.65 718.5,-163.65"/>
</g>
<!-- Node4 -->
<g id="node4" class="node">
<title>Node4</title>
<g id="a_node4"><a xlink:title=" ">
<polygon fill="none" stroke="#bfbfbf" points="757,-134.5 757,-153.5 813,-153.5 813,-134.5 757,-134.5"/>
<text text-anchor="middle" x="785" y="-141.5" font-family="Helvetica,sans-Serif" font-size="10.00">numeric</text>
</a>
</g>
</g>
<!-- Node1&#45;&gt;Node4 -->
<g id="edge3" class="edge">
<title>Node1&#45;&gt;Node4</title>
<path fill="none" stroke="midnightblue" d="M736,-190.5C746.32,-180.92 758.59,-169.53 768.26,-160.54"/>
<polygon fill="midnightblue" stroke="midnightblue" points="770.74,-163.02 775.68,-153.65 765.97,-157.89 770.74,-163.02"/>
</g>
<!-- Node5 -->
<g id="node5" class="node">
<title>Node5</title>
<g id="a_node5"><a xlink:title=" ">
<polygon fill="none" stroke="#bfbfbf" points="831,-134.5 831,-153.5 885,-153.5 885,-134.5 831,-134.5"/>
<text text-anchor="middle" x="858" y="-141.5" font-family="Helvetica,sans-Serif" font-size="10.00">random</text>
</a>
</g>
</g>
<!-- Node1&#45;&gt;Node5 -->
<g id="edge4" class="edge">
<title>Node1&#45;&gt;Node5</title>
<path fill="none" stroke="midnightblue" d="M757.9,-190.5C781.2,-179.91 809.34,-167.12 829.85,-157.8"/>
<polygon fill="midnightblue" stroke="midnightblue" points="831.31,-160.98 838.96,-153.65 828.41,-154.6 831.31,-160.98"/>
</g>
<!-- Node6 -->
<g id="node6" class="node">
<title>Node6</title>
<g id="a_node6"><a xlink:title=" ">
<polygon fill="none" stroke="#bfbfbf" points="903.5,-134.5 903.5,-153.5 950.5,-153.5 950.5,-134.5 903.5,-134.5"/>
<text text-anchor="middle" x="927" y="-141.5" font-family="Helvetica,sans-Serif" font-size="10.00">vector</text>
</a>
</g>
</g>
<!-- Node1&#45;&gt;Node6 -->
<g id="edge5" class="edge">
<title>Node1&#45;&gt;Node6</title>
<path fill="none" stroke="midnightblue" d="M778.61,-190.5C816.41,-178.91 862.83,-164.68 893.58,-155.25"/>
<polygon fill="midnightblue" stroke="midnightblue" points="894.83,-158.52 903.37,-152.25 892.78,-151.83 894.83,-158.52"/>
</g>
<!-- Node7 -->
<g id="node7" class="node">
<title>Node7</title>
<g id="a_node7"><a xlink:href="raycasting_8hpp.html" target="_top" xlink:title="Implementation of raycasting algorithms.">
<polygon fill="none" stroke="black" points="221.5,-134.5 221.5,-153.5 396.5,-153.5 396.5,-134.5 221.5,-134.5"/>
<text text-anchor="middle" x="309" y="-141.5" font-family="Helvetica,sans-Serif" font-size="10.00">beluga/algorithm/raycasting.hpp</text>
</a>
</g>
</g>
<!-- Node1&#45;&gt;Node7 -->
<g id="edge6" class="edge">
<title>Node1&#45;&gt;Node7</title>
<path fill="none" stroke="midnightblue" d="M626.9,-195.9C550.15,-183.61 440.72,-166.09 372.33,-155.14"/>
<polygon fill="midnightblue" stroke="midnightblue" points="372.56,-151.63 362.14,-153.51 371.46,-158.54 372.56,-151.63"/>
</g>
<!-- Node12 -->
<g id="node12" class="node">
<title>Node12</title>
<g id="a_node12"><a xlink:title=" ">
<polygon fill="none" stroke="#bfbfbf" points="384,-6 384,-25 506,-25 506,-6 384,-6"/>
<text text-anchor="middle" x="445" y="-13" font-family="Helvetica,sans-Serif" font-size="10.00">range/v3/view/all.hpp</text>
</a>
</g>
</g>
<!-- Node1&#45;&gt;Node12 -->
<g id="edge21" class="edge">
<title>Node1&#45;&gt;Node12</title>
<path fill="none" stroke="midnightblue" d="M702.51,-190.26C696.17,-179.74 688.64,-166.44 683,-154 666.11,-116.75 683.25,-94.53 653,-67 632.93,-48.73 568.03,-34.87 516,-26.33"/>
<polygon fill="midnightblue" stroke="midnightblue" points="516.55,-22.87 506.12,-24.75 515.44,-29.78 516.55,-22.87"/>
</g>
<!-- Node15 -->
<g id="node15" class="node">
<title>Node15</title>
<g id="a_node15"><a xlink:title=" ">
<polygon fill="none" stroke="#bfbfbf" points="442,-73 442,-92 534,-92 534,-73 442,-73"/>
<text text-anchor="middle" x="488" y="-80" font-family="Helvetica,sans-Serif" font-size="10.00">sophus/se2.hpp</text>
</a>
</g>
</g>
<!-- Node1&#45;&gt;Node15 -->
<g id="edge23" class="edge">
<title>Node1&#45;&gt;Node15</title>
<path fill="none" stroke="midnightblue" d="M679.53,-190.23C633.01,-164.31 552.59,-119.49 512.37,-97.08"/>
<polygon fill="midnightblue" stroke="midnightblue" points="513.95,-93.96 503.51,-92.15 510.54,-100.07 513.95,-93.96"/>
</g>
<!-- Node16 -->
<g id="node16" class="node">
<title>Node16</title>
<g id="a_node16"><a xlink:title=" ">
<polygon fill="none" stroke="#bfbfbf" points="552,-73 552,-92 644,-92 644,-73 552,-73"/>
<text text-anchor="middle" x="598" y="-80" font-family="Helvetica,sans-Serif" font-size="10.00">sophus/so2.hpp</text>
</a>
</g>
</g>
<!-- Node1&#45;&gt;Node16 -->
<g id="edge24" class="edge">
<title>Node1&#45;&gt;Node16</title>
<path fill="none" stroke="midnightblue" d="M688.96,-190.33C676.26,-180.15 661.15,-167.12 649,-154 633.51,-137.27 618.56,-115.76 608.89,-100.92"/>
<polygon fill="midnightblue" stroke="midnightblue" points="611.69,-98.79 603.35,-92.25 605.79,-102.56 611.69,-98.79"/>
</g>
<!-- Node17 -->
<g id="node17" class="node">
<title>Node17</title>
<g id="a_node17"><a xlink:title=" ">
<polygon fill="none" stroke="#bfbfbf" points="968.5,-134.5 968.5,-153.5 1135.5,-153.5 1135.5,-134.5 968.5,-134.5"/>
<text text-anchor="middle" x="1052" y="-141.5" font-family="Helvetica,sans-Serif" font-size="10.00">range/v3/range/conversion.hpp</text>
</a>
</g>
</g>
<!-- Node1&#45;&gt;Node17 -->
<g id="edge20" class="edge">
<title>Node1&#45;&gt;Node17</title>
<path fill="none" stroke="midnightblue" d="M803.1,-193.01C864.72,-181.12 945.06,-165.63 997.56,-155.5"/>
<polygon fill="midnightblue" stroke="midnightblue" points="998.52,-158.88 1007.68,-153.55 997.2,-152.01 998.52,-158.88"/>
</g>
<!-- Node18 -->
<g id="node18" class="node">
<title>Node18</title>
<g id="a_node18"><a xlink:title=" ">
<polygon fill="none" stroke="#bfbfbf" points="1153,-134.5 1153,-153.5 1311,-153.5 1311,-134.5 1153,-134.5"/>
<text text-anchor="middle" x="1232" y="-141.5" font-family="Helvetica,sans-Serif" font-size="10.00">range/v3/view/transform.hpp</text>
</a>
</g>
</g>
<!-- Node1&#45;&gt;Node18 -->
<g id="edge22" class="edge">
<title>Node1&#45;&gt;Node18</title>
<path fill="none" stroke="midnightblue" d="M803.29,-198.9C901.93,-186.5 1060.1,-166.61 1154.25,-154.78"/>
<polygon fill="midnightblue" stroke="midnightblue" points="1154.79,-158.23 1164.28,-153.51 1153.92,-151.29 1154.79,-158.23"/>
</g>
<!-- Node7&#45;&gt;Node2 -->
<g id="edge7" class="edge">
<title>Node7&#45;&gt;Node2</title>
<path fill="none" stroke="midnightblue" d="M256.33,-134.49C209.26,-126.46 138.59,-113.4 78,-98 74.57,-97.13 71.02,-96.15 67.48,-95.12"/>
<polygon fill="midnightblue" stroke="midnightblue" points="68.23,-91.69 57.64,-92.15 66.2,-98.39 68.23,-91.69"/>
</g>
<!-- Node8 -->
<g id="node8" class="node">
<title>Node8</title>
<g id="a_node8"><a xlink:title=" ">
<polygon fill="none" stroke="#bfbfbf" points="158,-73 158,-92 214,-92 214,-73 158,-73"/>
<text text-anchor="middle" x="186" y="-80" font-family="Helvetica,sans-Serif" font-size="10.00">optional</text>
</a>
</g>
</g>
<!-- Node7&#45;&gt;Node8 -->
<g id="edge8" class="edge">
<title>Node7&#45;&gt;Node8</title>
<path fill="none" stroke="midnightblue" d="M291.38,-134.48C270.83,-124.53 236.64,-107.99 212.79,-96.46"/>
<polygon fill="midnightblue" stroke="midnightblue" points="214.12,-93.21 203.59,-92.01 211.07,-99.51 214.12,-93.21"/>
</g>
<!-- Node9 -->
<g id="node9" class="node">
<title>Node9</title>
<g id="a_node9"><a xlink:title=" ">
<polygon fill="none" stroke="#bfbfbf" points="165.5,-6 165.5,-25 210.5,-25 210.5,-6 165.5,-6"/>
<text text-anchor="middle" x="188" y="-13" font-family="Helvetica,sans-Serif" font-size="10.00">utility</text>
</a>
</g>
</g>
<!-- Node7&#45;&gt;Node9 -->
<g id="edge9" class="edge">
<title>Node7&#45;&gt;Node9</title>
<path fill="none" stroke="midnightblue" d="M252.39,-134.44C211.63,-126.98 161.68,-114.73 149,-98 133.39,-77.4 154.03,-49.56 170.72,-32.33"/>
<polygon fill="midnightblue" stroke="midnightblue" points="173.28,-34.72 177.97,-25.22 168.38,-29.72 173.28,-34.72"/>
</g>
<!-- Node10 -->
<g id="node10" class="node">
<title>Node10</title>
<g id="a_node10"><a xlink:href="bresenham_8hpp.html" target="_top" xlink:title="Implementation of Bresenham&#45;like raytracing algorithms.">
<polygon fill="none" stroke="black" points="232,-67.5 232,-97.5 386,-97.5 386,-67.5 232,-67.5"/>
<text text-anchor="start" x="240" y="-85.5" font-family="Helvetica,sans-Serif" font-size="10.00">beluga/algorithm/raycasting</text>
<text text-anchor="middle" x="309" y="-74.5" font-family="Helvetica,sans-Serif" font-size="10.00">/bresenham.hpp</text>
</a>
</g>
</g>
<!-- Node7&#45;&gt;Node10 -->
<g id="edge10" class="edge">
<title>Node7&#45;&gt;Node10</title>
<path fill="none" stroke="midnightblue" d="M309,-134.48C309,-127.47 309,-117.19 309,-107.7"/>
<polygon fill="midnightblue" stroke="midnightblue" points="312.5,-107.52 309,-97.52 305.5,-107.52 312.5,-107.52"/>
</g>
<!-- Node7&#45;&gt;Node12 -->
<g id="edge16" class="edge">
<title>Node7&#45;&gt;Node12</title>
<path fill="none" stroke="midnightblue" d="M333.41,-134.36C351.92,-126.9 377.14,-114.68 395,-98 414.47,-79.81 429.18,-52.4 437.45,-34.47"/>
<polygon fill="midnightblue" stroke="midnightblue" points="440.72,-35.72 441.55,-25.16 434.32,-32.89 440.72,-35.72"/>
</g>
<!-- Node13 -->
<g id="node13" class="node">
<title>Node13</title>
<g id="a_node13"><a xlink:title=" ">
<polygon fill="none" stroke="#bfbfbf" points="37,-0.5 37,-30.5 147,-30.5 147,-0.5 37,-0.5"/>
<text text-anchor="start" x="45" y="-18.5" font-family="Helvetica,sans-Serif" font-size="10.00">range/v3/view/take</text>
<text text-anchor="middle" x="92" y="-7.5" font-family="Helvetica,sans-Serif" font-size="10.00">_while.hpp</text>
</a>
</g>
</g>
<!-- Node7&#45;&gt;Node13 -->
<g id="edge17" class="edge">
<title>Node7&#45;&gt;Node13</title>
<path fill="none" stroke="midnightblue" d="M227.61,-134.44C197.76,-128.1 165.15,-117.09 140,-98 120.69,-83.34 107.69,-58.48 100.14,-40.06"/>
<polygon fill="midnightblue" stroke="midnightblue" points="103.36,-38.67 96.5,-30.6 96.82,-41.19 103.36,-38.67"/>
</g>
<!-- Node7&#45;&gt;Node15 -->
<g id="edge18" class="edge">
<title>Node7&#45;&gt;Node15</title>
<path fill="none" stroke="midnightblue" d="M334.65,-134.48C365.62,-124.18 417.87,-106.81 452.65,-95.25"/>
<polygon fill="midnightblue" stroke="midnightblue" points="454.02,-98.48 462.4,-92.01 451.81,-91.84 454.02,-98.48"/>
</g>
<!-- Node7&#45;&gt;Node16 -->
<g id="edge19" class="edge">
<title>Node7&#45;&gt;Node16</title>
<path fill="none" stroke="midnightblue" d="M358.51,-134.49C406.01,-126.08 479.67,-112.42 543,-98 547.63,-96.95 552.46,-95.78 557.26,-94.57"/>
<polygon fill="midnightblue" stroke="midnightblue" points="558.15,-97.95 566.97,-92.07 556.41,-91.17 558.15,-97.95"/>
</g>
<!-- Node10&#45;&gt;Node9 -->
<g id="edge12" class="edge">
<title>Node10&#45;&gt;Node9</title>
<path fill="none" stroke="midnightblue" d="M282.74,-67.4C261.98,-56.24 233.2,-40.78 212.82,-29.83"/>
<polygon fill="midnightblue" stroke="midnightblue" points="214.3,-26.66 203.84,-25.01 210.99,-32.82 214.3,-26.66"/>
</g>
<!-- Node11 -->
<g id="node11" class="node">
<title>Node11</title>
<g id="a_node11"><a xlink:title=" ">
<polygon fill="none" stroke="#bfbfbf" points="316,-6 316,-25 366,-25 366,-6 316,-6"/>
<text text-anchor="middle" x="341" y="-13" font-family="Helvetica,sans-Serif" font-size="10.00">cstdint</text>
</a>
</g>
</g>
<!-- Node10&#45;&gt;Node11 -->
<g id="edge11" class="edge">
<title>Node10&#45;&gt;Node11</title>
<path fill="none" stroke="midnightblue" d="M315.94,-67.4C320.74,-57.66 327.14,-44.65 332.28,-34.21"/>
<polygon fill="midnightblue" stroke="midnightblue" points="335.44,-35.71 336.72,-25.19 329.16,-32.62 335.44,-35.71"/>
</g>
<!-- Node10&#45;&gt;Node12 -->
<g id="edge13" class="edge">
<title>Node10&#45;&gt;Node12</title>
<path fill="none" stroke="midnightblue" d="M338.51,-67.4C362.16,-56.09 395.08,-40.36 418.03,-29.39"/>
<polygon fill="midnightblue" stroke="midnightblue" points="419.69,-32.48 427.2,-25.01 416.67,-26.16 419.69,-32.48"/>
</g>
<!-- Node10&#45;&gt;Node13 -->
<g id="edge14" class="edge">
<title>Node10&#45;&gt;Node13</title>
<path fill="none" stroke="midnightblue" d="M262.18,-67.48C228.93,-57.51 184.1,-44.09 148.8,-33.51"/>
<polygon fill="midnightblue" stroke="midnightblue" points="149.69,-30.13 139.11,-30.61 147.68,-36.83 149.69,-30.13"/>
</g>
<!-- Node14 -->
<g id="node14" class="node">
<title>Node14</title>
<g id="a_node14"><a xlink:title=" ">
<polygon fill="none" stroke="#bfbfbf" points="228.5,-6 228.5,-25 297.5,-25 297.5,-6 228.5,-6"/>
<text text-anchor="middle" x="263" y="-13" font-family="Helvetica,sans-Serif" font-size="10.00">Eigen/Core</text>
</a>
</g>
</g>
<!-- Node10&#45;&gt;Node14 -->
<g id="edge15" class="edge">
<title>Node10&#45;&gt;Node14</title>
<path fill="none" stroke="midnightblue" d="M299.02,-67.4C291.99,-57.46 282.54,-44.11 275.08,-33.57"/>
<polygon fill="midnightblue" stroke="midnightblue" points="277.79,-31.34 269.15,-25.19 272.07,-35.38 277.79,-31.34"/>
</g>
</g>
</svg>
