<?xml version="1.0" encoding="UTF-8" standalone="no"?>
<!DOCTYPE svg PUBLIC "-//W3C//DTD SVG 1.1//EN"
 "http://www.w3.org/Graphics/SVG/1.1/DTD/svg11.dtd">
<!-- Generated by graphviz version 2.43.0 (0)
 -->
<!-- Title: /home/runner/work/beluga/beluga/beluga/include/beluga/sensor/beam_model.hpp Pages: 1 -->
<svg width="1245pt" height="240pt"
 viewBox="0.00 0.00 1245.00 240.00" xmlns="http://www.w3.org/2000/svg" xmlns:xlink="http://www.w3.org/1999/xlink">
<g id="graph0" class="graph" transform="scale(1 1) rotate(0) translate(4 236)">
<title>/home/runner/work/beluga/beluga/beluga/include/beluga/sensor/beam_model.hpp</title>
<!-- Node1 -->
<g id="node1" class="node">
<title>Node1</title>
<g id="a_node1"><a xlink:title="Implementation of a beam sensor model for range finders.">
<polygon fill="#bfbfbf" stroke="black" points="601,-190.5 601,-231.5 777,-231.5 777,-190.5 601,-190.5"/>
<text text-anchor="start" x="609" y="-219.5" font-family="Helvetica,sans-Serif" font-size="10.00">/home/runner/work/beluga</text>
<text text-anchor="start" x="609" y="-208.5" font-family="Helvetica,sans-Serif" font-size="10.00">/beluga/beluga/include</text>
<text text-anchor="middle" x="689" y="-197.5" font-family="Helvetica,sans-Serif" font-size="10.00">/beluga/sensor/beam_model.hpp</text>
</a>
</g>
</g>
<!-- Node2 -->
<g id="node2" class="node">
<title>Node2</title>
<g id="a_node2"><a xlink:title=" ">
<polygon fill="none" stroke="#bfbfbf" points="0,-73 0,-92 64,-92 64,-73 0,-73"/>
<text text-anchor="middle" x="32" y="-80" font-family="Helvetica,sans-Serif" font-size="10.00">algorithm</text>
</a>
</g>
</g>
<!-- Node1&#45;&gt;Node2 -->
<g id="edge1" class="edge">
<title>Node1&#45;&gt;Node2</title>
<path fill="none" stroke="midnightblue" d="M600.75,-206.41C504.08,-200.91 345.06,-187.28 212,-154 155.7,-139.92 93.32,-112.69 58.77,-96.5"/>
<polygon fill="midnightblue" stroke="midnightblue" points="59.92,-93.18 49.39,-92.06 56.93,-99.5 59.92,-93.18"/>
</g>
<!-- Node3 -->
<g id="node3" class="node">
<title>Node3</title>
<g id="a_node3"><a xlink:title=" ">
<polygon fill="none" stroke="#bfbfbf" points="691.5,-134.5 691.5,-153.5 738.5,-153.5 738.5,-134.5 691.5,-134.5"/>
<text text-anchor="middle" x="715" y="-141.5" font-family="Helvetica,sans-Serif" font-size="10.00">cmath</text>
</a>
</g>
</g>
<!-- Node1&#45;&gt;Node3 -->
<g id="edge2" class="edge">
<title>Node1&#45;&gt;Node3</title>
<path fill="none" stroke="midnightblue" d="M696.8,-190.5C700.29,-181.78 704.37,-171.56 707.79,-163.02"/>
<polygon fill="midnightblue" stroke="midnightblue" points="711.07,-164.24 711.54,-153.65 704.58,-161.64 711.07,-164.24"/>
</g>
<!-- Node4 -->
<g id="node4" class="node">
<title>Node4</title>
<g id="a_node4"><a xlink:title=" ">
<polygon fill="none" stroke="#bfbfbf" points="757,-134.5 757,-153.5 811,-153.5 811,-134.5 757,-134.5"/>
<text text-anchor="middle" x="784" y="-141.5" font-family="Helvetica,sans-Serif" font-size="10.00">random</text>
</a>
</g>
</g>
<!-- Node1&#45;&gt;Node4 -->
<g id="edge3" class="edge">
<title>Node1&#45;&gt;Node4</title>
<path fill="none" stroke="midnightblue" d="M717.5,-190.5C732.07,-180.53 749.49,-168.61 762.84,-159.48"/>
<polygon fill="midnightblue" stroke="midnightblue" points="765.08,-162.19 771.35,-153.65 761.12,-156.41 765.08,-162.19"/>
</g>
<!-- Node5 -->
<g id="node5" class="node">
<title>Node5</title>
<g id="a_node5"><a xlink:title=" ">
<polygon fill="none" stroke="#bfbfbf" points="829.5,-134.5 829.5,-153.5 876.5,-153.5 876.5,-134.5 829.5,-134.5"/>
<text text-anchor="middle" x="853" y="-141.5" font-family="Helvetica,sans-Serif" font-size="10.00">vector</text>
</a>
</g>
</g>
<!-- Node1&#45;&gt;Node5 -->
<g id="edge4" class="edge">
<title>Node1&#45;&gt;Node5</title>
<path fill="none" stroke="midnightblue" d="M738.21,-190.5C765.28,-179.77 798.07,-166.77 821.67,-157.42"/>
<polygon fill="midnightblue" stroke="midnightblue" points="823.16,-160.59 831.17,-153.65 820.58,-154.08 823.16,-160.59"/>
</g>
<!-- Node6 -->
<g id="node6" class="node">
<title>Node6</title>
<g id="a_node6"><a xlink:href="raycasting_8hpp.html" target="_top" xlink:title="Implementation of raycasting algorithms.">
<polygon fill="none" stroke="black" points="221.5,-134.5 221.5,-153.5 396.5,-153.5 396.5,-134.5 221.5,-134.5"/>
<text text-anchor="middle" x="309" y="-141.5" font-family="Helvetica,sans-Serif" font-size="10.00">beluga/algorithm/raycasting.hpp</text>
</a>
</g>
</g>
<!-- Node1&#45;&gt;Node6 -->
<g id="edge5" class="edge">
<title>Node1&#45;&gt;Node6</title>
<path fill="none" stroke="midnightblue" d="M600.87,-194.92C529.63,-182.74 431.27,-165.91 368.9,-155.25"/>
<polygon fill="midnightblue" stroke="midnightblue" points="369.27,-151.76 358.82,-153.52 368.09,-158.66 369.27,-151.76"/>
</g>
<!-- Node10 -->
<g id="node10" class="node">
<title>Node10</title>
<g id="a_node10"><a xlink:title=" ">
<polygon fill="none" stroke="#bfbfbf" points="357,-6 357,-25 479,-25 479,-6 357,-6"/>
<text text-anchor="middle" x="418" y="-13" font-family="Helvetica,sans-Serif" font-size="10.00">range/v3/view/all.hpp</text>
</a>
</g>
</g>
<!-- Node1&#45;&gt;Node10 -->
<g id="edge19" class="edge">
<title>Node1&#45;&gt;Node10</title>
<path fill="none" stroke="midnightblue" d="M686.62,-190.31C681.97,-155.23 670.59,-83.98 653,-67 629.91,-44.7 549.7,-30.97 489.36,-23.55"/>
<polygon fill="midnightblue" stroke="midnightblue" points="489.45,-20.04 479.1,-22.33 488.62,-26.99 489.45,-20.04"/>
</g>
<!-- Node13 -->
<g id="node13" class="node">
<title>Node13</title>
<g id="a_node13"><a xlink:title=" ">
<polygon fill="none" stroke="#bfbfbf" points="442,-73 442,-92 534,-92 534,-73 442,-73"/>
<text text-anchor="middle" x="488" y="-80" font-family="Helvetica,sans-Serif" font-size="10.00">sophus/se2.hpp</text>
</a>
</g>
</g>
<!-- Node1&#45;&gt;Node13 -->
<g id="edge21" class="edge">
<title>Node1&#45;&gt;Node13</title>
<path fill="none" stroke="midnightblue" d="M657.59,-190.23C616.85,-164.59 546.74,-120.47 510.76,-97.82"/>
<polygon fill="midnightblue" stroke="midnightblue" points="512.3,-94.66 501.97,-92.29 508.57,-100.58 512.3,-94.66"/>
</g>
<!-- Node14 -->
<g id="node14" class="node">
<title>Node14</title>
<g id="a_node14"><a xlink:title=" ">
<polygon fill="none" stroke="#bfbfbf" points="552,-73 552,-92 644,-92 644,-73 552,-73"/>
<text text-anchor="middle" x="598" y="-80" font-family="Helvetica,sans-Serif" font-size="10.00">sophus/so2.hpp</text>
</a>
</g>
</g>
<!-- Node1&#45;&gt;Node14 -->
<g id="edge22" class="edge">
<title>Node1&#45;&gt;Node14</title>
<path fill="none" stroke="midnightblue" d="M674.78,-190.23C657.04,-165.57 627,-123.82 610.24,-100.52"/>
<polygon fill="midnightblue" stroke="midnightblue" points="613.01,-98.37 604.33,-92.29 607.33,-102.46 613.01,-98.37"/>
</g>
<!-- Node15 -->
<g id="node15" class="node">
<title>Node15</title>
<g id="a_node15"><a xlink:title=" ">
<polygon fill="none" stroke="#bfbfbf" points="894.5,-134.5 894.5,-153.5 1061.5,-153.5 1061.5,-134.5 894.5,-134.5"/>
<text text-anchor="middle" x="978" y="-141.5" font-family="Helvetica,sans-Serif" font-size="10.00">range/v3/range/conversion.hpp</text>
</a>
</g>
</g>
<!-- Node1&#45;&gt;Node15 -->
<g id="edge18" class="edge">
<title>Node1&#45;&gt;Node15</title>
<path fill="none" stroke="midnightblue" d="M775.71,-190.5C826.24,-179.13 888.07,-165.23 929.97,-155.8"/>
<polygon fill="midnightblue" stroke="midnightblue" points="930.92,-159.18 939.91,-153.57 929.39,-152.35 930.92,-159.18"/>
</g>
<!-- Node16 -->
<g id="node16" class="node">
<title>Node16</title>
<g id="a_node16"><a xlink:title=" ">
<polygon fill="none" stroke="#bfbfbf" points="1079,-134.5 1079,-153.5 1237,-153.5 1237,-134.5 1079,-134.5"/>
<text text-anchor="middle" x="1158" y="-141.5" font-family="Helvetica,sans-Serif" font-size="10.00">range/v3/view/transform.hpp</text>
</a>
</g>
</g>
<!-- Node1&#45;&gt;Node16 -->
<g id="edge20" class="edge">
<title>Node1&#45;&gt;Node16</title>
<path fill="none" stroke="midnightblue" d="M777.22,-197.77C866.62,-185.38 1003.27,-166.44 1086.25,-154.94"/>
<polygon fill="midnightblue" stroke="midnightblue" points="1086.93,-158.38 1096.35,-153.54 1085.97,-151.45 1086.93,-158.38"/>
</g>
<!-- Node6&#45;&gt;Node2 -->
<g id="edge6" class="edge">
<title>Node6&#45;&gt;Node2</title>
<path fill="none" stroke="midnightblue" d="M256.33,-134.49C209.26,-126.46 138.59,-113.4 78,-98 74.57,-97.13 71.02,-96.15 67.48,-95.12"/>
<polygon fill="midnightblue" stroke="midnightblue" points="68.23,-91.69 57.64,-92.15 66.2,-98.39 68.23,-91.69"/>
</g>
<!-- Node7 -->
<g id="node7" class="node">
<title>Node7</title>
<g id="a_node7"><a xlink:title=" ">
<polygon fill="none" stroke="#bfbfbf" points="158,-73 158,-92 214,-92 214,-73 158,-73"/>
<text text-anchor="middle" x="186" y="-80" font-family="Helvetica,sans-Serif" font-size="10.00">optional</text>
</a>
</g>
</g>
<!-- Node6&#45;&gt;Node7 -->
<g id="edge7" class="edge">
<title>Node6&#45;&gt;Node7</title>
<path fill="none" stroke="midnightblue" d="M291.38,-134.48C270.83,-124.53 236.64,-107.99 212.79,-96.46"/>
<polygon fill="midnightblue" stroke="midnightblue" points="214.12,-93.21 203.59,-92.01 211.07,-99.51 214.12,-93.21"/>
</g>
<!-- Node8 -->
<g id="node8" class="node">
<title>Node8</title>
<g id="a_node8"><a xlink:title=" ">
<polygon fill="none" stroke="#bfbfbf" points="197.5,-6 197.5,-25 242.5,-25 242.5,-6 197.5,-6"/>
<text text-anchor="middle" x="220" y="-13" font-family="Helvetica,sans-Serif" font-size="10.00">utility</text>
</a>
</g>
</g>
<!-- Node6&#45;&gt;Node8 -->
<g id="edge8" class="edge">
<title>Node6&#45;&gt;Node8</title>
<path fill="none" stroke="midnightblue" d="M252.39,-134.44C211.63,-126.98 161.68,-114.73 149,-98 140.68,-87.02 142.68,-79.24 149,-67 157.56,-50.41 174.36,-38.08 189.47,-29.76"/>
<polygon fill="midnightblue" stroke="midnightblue" points="191.27,-32.77 198.57,-25.09 188.08,-26.54 191.27,-32.77"/>
</g>
<!-- Node9 -->
<g id="node9" class="node">
<title>Node9</title>
<g id="a_node9"><a xlink:href="bresenham_8hpp.html" target="_top" xlink:title="Implementation of Bresenham&#45;like raytracing algorithms.">
<polygon fill="none" stroke="black" points="232,-67.5 232,-97.5 386,-97.5 386,-67.5 232,-67.5"/>
<text text-anchor="start" x="240" y="-85.5" font-family="Helvetica,sans-Serif" font-size="10.00">beluga/algorithm/raycasting</text>
<text text-anchor="middle" x="309" y="-74.5" font-family="Helvetica,sans-Serif" font-size="10.00">/bresenham.hpp</text>
</a>
</g>
</g>
<!-- Node6&#45;&gt;Node9 -->
<g id="edge9" class="edge">
<title>Node6&#45;&gt;Node9</title>
<path fill="none" stroke="midnightblue" d="M309,-134.48C309,-127.47 309,-117.19 309,-107.7"/>
<polygon fill="midnightblue" stroke="midnightblue" points="312.5,-107.52 309,-97.52 305.5,-107.52 312.5,-107.52"/>
</g>
<!-- Node6&#45;&gt;Node10 -->
<g id="edge14" class="edge">
<title>Node6&#45;&gt;Node10</title>
<path fill="none" stroke="midnightblue" d="M338.04,-134.49C356.84,-127.55 380.45,-115.92 395,-98 409.66,-79.94 414.99,-53.06 416.91,-35.17"/>
<polygon fill="midnightblue" stroke="midnightblue" points="420.41,-35.38 417.74,-25.13 413.43,-34.8 420.41,-35.38"/>
</g>
<!-- Node11 -->
<g id="node11" class="node">
<title>Node11</title>
<g id="a_node11"><a xlink:title=" ">
<polygon fill="none" stroke="#bfbfbf" points="51,-0.5 51,-30.5 161,-30.5 161,-0.5 51,-0.5"/>
<text text-anchor="start" x="59" y="-18.5" font-family="Helvetica,sans-Serif" font-size="10.00">range/v3/view/take</text>
<text text-anchor="middle" x="106" y="-7.5" font-family="Helvetica,sans-Serif" font-size="10.00">_while.hpp</text>
</a>
</g>
</g>
<!-- Node6&#45;&gt;Node11 -->
<g id="edge15" class="edge">
<title>Node6&#45;&gt;Node11</title>
<path fill="none" stroke="midnightblue" d="M221.38,-135.2C192.74,-128.87 162.53,-117.67 140,-98 123.11,-83.25 114.42,-58.74 110.07,-40.45"/>
<polygon fill="midnightblue" stroke="midnightblue" points="113.47,-39.58 107.99,-30.51 106.62,-41.02 113.47,-39.58"/>
</g>
<!-- Node6&#45;&gt;Node13 -->
<g id="edge16" class="edge">
<title>Node6&#45;&gt;Node13</title>
<path fill="none" stroke="midnightblue" d="M334.65,-134.48C365.62,-124.18 417.87,-106.81 452.65,-95.25"/>
<polygon fill="midnightblue" stroke="midnightblue" points="454.02,-98.48 462.4,-92.01 451.81,-91.84 454.02,-98.48"/>
</g>
<!-- Node6&#45;&gt;Node14 -->
<g id="edge17" class="edge">
<title>Node6&#45;&gt;Node14</title>
<path fill="none" stroke="midnightblue" d="M358.51,-134.49C406.01,-126.08 479.67,-112.42 543,-98 547.63,-96.95 552.46,-95.78 557.26,-94.57"/>
<polygon fill="midnightblue" stroke="midnightblue" points="558.15,-97.95 566.97,-92.07 556.41,-91.17 558.15,-97.95"/>
</g>
<!-- Node9&#45;&gt;Node8 -->
<g id="edge10" class="edge">
<title>Node9&#45;&gt;Node8</title>
<path fill="none" stroke="midnightblue" d="M289.69,-67.4C275.04,-56.7 254.96,-42.03 240.12,-31.19"/>
<polygon fill="midnightblue" stroke="midnightblue" points="241.79,-28.08 231.65,-25.01 237.66,-33.73 241.79,-28.08"/>
</g>
<!-- Node9&#45;&gt;Node10 -->
<g id="edge11" class="edge">
<title>Node9&#45;&gt;Node10</title>
<path fill="none" stroke="midnightblue" d="M332.65,-67.4C351.18,-56.34 376.81,-41.06 395.14,-30.13"/>
<polygon fill="midnightblue" stroke="midnightblue" points="396.94,-33.13 403.73,-25.01 393.35,-27.12 396.94,-33.13"/>
</g>
<!-- Node9&#45;&gt;Node11 -->
<g id="edge12" class="edge">
<title>Node9&#45;&gt;Node11</title>
<path fill="none" stroke="midnightblue" d="M264.95,-67.4C234.09,-57.52 192.67,-44.25 159.85,-33.74"/>
<polygon fill="midnightblue" stroke="midnightblue" points="160.55,-30.29 149.96,-30.58 158.42,-36.96 160.55,-30.29"/>
</g>
<!-- Node12 -->
<g id="node12" class="node">
<title>Node12</title>
<g id="a_node12"><a xlink:title=" ">
<polygon fill="none" stroke="#bfbfbf" points="269.5,-6 269.5,-25 338.5,-25 338.5,-6 269.5,-6"/>
<text text-anchor="middle" x="304" y="-13" font-family="Helvetica,sans-Serif" font-size="10.00">Eigen/Core</text>
</a>
</g>
</g>
<!-- Node9&#45;&gt;Node12 -->
<g id="edge13" class="edge">
<title>Node9&#45;&gt;Node12</title>
<path fill="none" stroke="midnightblue" d="M307.92,-67.4C307.19,-57.96 306.23,-45.45 305.44,-35.19"/>
<polygon fill="midnightblue" stroke="midnightblue" points="308.93,-34.9 304.67,-25.19 301.95,-35.43 308.93,-34.9"/>
</g>
</g>
</svg>
