<?xml version="1.0" encoding="UTF-8" standalone="no"?>
<!DOCTYPE svg PUBLIC "-//W3C//DTD SVG 1.1//EN"
 "http://www.w3.org/Graphics/SVG/1.1/DTD/svg11.dtd">
<!-- Generated by graphviz version 2.43.0 (0)
 -->
<!-- Title: /home/runner/work/beluga/beluga/beluga/include/beluga/sensor/beam_model.hpp Pages: 1 -->
<!--zoomable 240 -->
<svg id="main" version="1.1" xmlns="http://www.w3.org/2000/svg" xmlns:xlink="http://www.w3.org/1999/xlink" xml:space="preserve" onload="init(evt)">
<style type="text/css"><![CDATA[
.edge:hover path { stroke: red; }
.edge:hover polygon { stroke: red; fill: red; }
]]></style>
<script type="text/javascript"><![CDATA[
var edges = document.getElementsByTagName('g');
if (edges && edges.length) {
  for (var i=0;i<edges.length;i++) {
    if (edges[i].id.substr(0,4)=='edge') {
      edges[i].setAttribute('class','edge');
    }
  }
}
]]></script>
        <defs>
                <circle id="rim" cx="0" cy="0" r="7"/>
                <circle id="rim2" cx="0" cy="0" r="3.5"/>
                <g id="zoomPlus">
                        <use xlink:href="#rim" fill="#404040">
                                <set attributeName="fill" to="#808080" begin="zoomplus.mouseover" end="zoomplus.mouseout"/>
                        </use>
                        <path d="M-4,0h8M0,-4v8" fill="none" stroke="white" stroke-width="1.5" pointer-events="none"/>
                </g>
                <g id="zoomMin">
                        <use xlink:href="#rim" fill="#404040">
                                <set attributeName="fill" to="#808080" begin="zoomminus.mouseover" end="zoomminus.mouseout"/>
                        </use>
                        <path d="M-4,0h8" fill="none" stroke="white" stroke-width="1.5" pointer-events="none"/>
                </g>
                <g id="dirArrow">
                        <path fill="none" stroke="white" stroke-width="1.5" d="M0,-3.0v7 M-2.5,-0.5L0,-3.0L2.5,-0.5"/>
                </g>
               <g id="resetDef">
                       <use xlink:href="#rim2" fill="#404040">
                               <set attributeName="fill" to="#808080" begin="reset.mouseover" end="reset.mouseout"/>
                       </use>
               </g>
        </defs>

<script type="text/javascript">
var viewWidth = 1245;
var viewHeight = 240;
var sectionId = 'dynsection-0';
</script>
<script xlink:href="svgpan.js"/>
<svg id="graph" class="graph">
<g id="viewport">
<title>/home/runner/work/beluga/beluga/beluga/include/beluga/sensor/beam_model.hpp</title>
<!-- Node1 -->
<g id="node1" class="node">
<title>Node1</title>
<g id="a_node1"><a xlink:title="Implementation of a beam sensor model for range finders.">
<polygon fill="#bfbfbf" stroke="black" points="601,-190.5 601,-231.5 777,-231.5 777,-190.5 601,-190.5"/>
<text text-anchor="start" x="609" y="-219.5" font-family="Helvetica,sans-Serif" font-size="10.00">/home/runner/work/beluga</text>
<text text-anchor="start" x="609" y="-208.5" font-family="Helvetica,sans-Serif" font-size="10.00">/beluga/beluga/include</text>
<text text-anchor="middle" x="689" y="-197.5" font-family="Helvetica,sans-Serif" font-size="10.00">/beluga/sensor/beam_model.hpp</text>
</a>
</g>
</g>
<!-- Node2 -->
<g id="node2" class="node">
<title>Node2</title>
<g id="a_node2"><a xlink:title=" ">
<polygon fill="none" stroke="#bfbfbf" points="0,-73 0,-92 64,-92 64,-73 0,-73"/>
<text text-anchor="middle" x="32" y="-80" font-family="Helvetica,sans-Serif" font-size="10.00">algorithm</text>
</a>
</g>
</g>
<!-- Node1&#45;&gt;Node2 -->
<g id="edge1" class="edge">
<title>Node1&#45;&gt;Node2</title>
<path fill="none" stroke="midnightblue" d="M600.75,-206.41C504.08,-200.91 345.06,-187.28 212,-154 155.7,-139.92 93.32,-112.69 58.77,-96.5"/>
<polygon fill="midnightblue" stroke="midnightblue" points="59.92,-93.18 49.39,-92.06 56.93,-99.5 59.92,-93.18"/>
</g>
<!-- Node3 -->
<g id="node3" class="node">
<title>Node3</title>
<g id="a_node3"><a xlink:title=" ">
<polygon fill="none" stroke="#bfbfbf" points="691.5,-134.5 691.5,-153.5 738.5,-153.5 738.5,-134.5 691.5,-134.5"/>
<text text-anchor="middle" x="715" y="-141.5" font-family="Helvetica,sans-Serif" font-size="10.00">cmath</text>
</a>
</g>
</g>
<!-- Node1&#45;&gt;Node3 -->
<g id="edge2" class="edge">
<title>Node1&#45;&gt;Node3</title>
<path fill="none" stroke="midnightblue" d="M696.8,-190.5C700.29,-181.78 704.37,-171.56 707.79,-163.02"/>
<polygon fill="midnightblue" stroke="midnightblue" points="711.07,-164.24 711.54,-153.65 704.58,-161.64 711.07,-164.24"/>
</g>
<!-- Node4 -->
<g id="node4" class="node">
<title>Node4</title>
<g id="a_node4"><a xlink:title=" ">
<polygon fill="none" stroke="#bfbfbf" points="757,-134.5 757,-153.5 811,-153.5 811,-134.5 757,-134.5"/>
<text text-anchor="middle" x="784" y="-141.5" font-family="Helvetica,sans-Serif" font-size="10.00">random</text>
</a>
</g>
</g>
<!-- Node1&#45;&gt;Node4 -->
<g id="edge3" class="edge">
<title>Node1&#45;&gt;Node4</title>
<path fill="none" stroke="midnightblue" d="M717.5,-190.5C732.07,-180.53 749.49,-168.61 762.84,-159.48"/>
<polygon fill="midnightblue" stroke="midnightblue" points="765.08,-162.19 771.35,-153.65 761.12,-156.41 765.08,-162.19"/>
</g>
<!-- Node5 -->
<g id="node5" class="node">
<title>Node5</title>
<g id="a_node5"><a xlink:title=" ">
<polygon fill="none" stroke="#bfbfbf" points="829.5,-134.5 829.5,-153.5 876.5,-153.5 876.5,-134.5 829.5,-134.5"/>
<text text-anchor="middle" x="853" y="-141.5" font-family="Helvetica,sans-Serif" font-size="10.00">vector</text>
</a>
</g>
</g>
<!-- Node1&#45;&gt;Node5 -->
<g id="edge4" class="edge">
<title>Node1&#45;&gt;Node5</title>
<path fill="none" stroke="midnightblue" d="M738.21,-190.5C765.28,-179.77 798.07,-166.77 821.67,-157.42"/>
<polygon fill="midnightblue" stroke="midnightblue" points="823.16,-160.59 831.17,-153.65 820.58,-154.08 823.16,-160.59"/>
</g>
<!-- Node6 -->
<g id="node6" class="node">
<title>Node6</title>
<g id="a_node6"><a xlink:href="raycasting_8hpp.html" target="_top" xlink:title="Implementation of raycasting algorithms.">
<polygon fill="none" stroke="black" points="221.5,-134.5 221.5,-153.5 396.5,-153.5 396.5,-134.5 221.5,-134.5"/>
<text text-anchor="middle" x="309" y="-141.5" font-family="Helvetica,sans-Serif" font-size="10.00">beluga/algorithm/raycasting.hpp</text>
</a>
</g>
</g>
<!-- Node1&#45;&gt;Node6 -->
<g id="edge5" class="edge">
<title>Node1&#45;&gt;Node6</title>
<path fill="none" stroke="midnightblue" d="M600.87,-194.92C529.63,-182.74 431.27,-165.91 368.9,-155.25"/>
<polygon fill="midnightblue" stroke="midnightblue" points="369.27,-151.76 358.82,-153.52 368.09,-158.66 369.27,-151.76"/>
</g>
<!-- Node11 -->
<g id="node11" class="node">
<title>Node11</title>
<g id="a_node11"><a xlink:title=" ">
<polygon fill="none" stroke="#bfbfbf" points="384,-6 384,-25 506,-25 506,-6 384,-6"/>
<text text-anchor="middle" x="445" y="-13" font-family="Helvetica,sans-Serif" font-size="10.00">range/v3/view/all.hpp</text>
</a>
</g>
</g>
<!-- Node1&#45;&gt;Node11 -->
<g id="edge20" class="edge">
<title>Node1&#45;&gt;Node11</title>
<path fill="none" stroke="midnightblue" d="M686.57,-190.35C681.86,-155.34 670.36,-84.21 653,-67 633.7,-47.86 568.51,-34.1 516.19,-25.82"/>
<polygon fill="midnightblue" stroke="midnightblue" points="516.67,-22.36 506.26,-24.29 515.61,-29.28 516.67,-22.36"/>
</g>
<!-- Node14 -->
<g id="node14" class="node">
<title>Node14</title>
<g id="a_node14"><a xlink:title=" ">
<polygon fill="none" stroke="#bfbfbf" points="442,-73 442,-92 534,-92 534,-73 442,-73"/>
<text text-anchor="middle" x="488" y="-80" font-family="Helvetica,sans-Serif" font-size="10.00">sophus/se2.hpp</text>
</a>
</g>
</g>
<!-- Node1&#45;&gt;Node14 -->
<g id="edge22" class="edge">
<title>Node1&#45;&gt;Node14</title>
<path fill="none" stroke="midnightblue" d="M657.59,-190.23C616.85,-164.59 546.74,-120.47 510.76,-97.82"/>
<polygon fill="midnightblue" stroke="midnightblue" points="512.3,-94.66 501.97,-92.29 508.57,-100.58 512.3,-94.66"/>
</g>
<!-- Node15 -->
<g id="node15" class="node">
<title>Node15</title>
<g id="a_node15"><a xlink:title=" ">
<polygon fill="none" stroke="#bfbfbf" points="552,-73 552,-92 644,-92 644,-73 552,-73"/>
<text text-anchor="middle" x="598" y="-80" font-family="Helvetica,sans-Serif" font-size="10.00">sophus/so2.hpp</text>
</a>
</g>
</g>
<!-- Node1&#45;&gt;Node15 -->
<g id="edge23" class="edge">
<title>Node1&#45;&gt;Node15</title>
<path fill="none" stroke="midnightblue" d="M674.78,-190.23C657.04,-165.57 627,-123.82 610.24,-100.52"/>
<polygon fill="midnightblue" stroke="midnightblue" points="613.01,-98.37 604.33,-92.29 607.33,-102.46 613.01,-98.37"/>
</g>
<!-- Node16 -->
<g id="node16" class="node">
<title>Node16</title>
<g id="a_node16"><a xlink:title=" ">
<polygon fill="none" stroke="#bfbfbf" points="894.5,-134.5 894.5,-153.5 1061.5,-153.5 1061.5,-134.5 894.5,-134.5"/>
<text text-anchor="middle" x="978" y="-141.5" font-family="Helvetica,sans-Serif" font-size="10.00">range/v3/range/conversion.hpp</text>
</a>
</g>
</g>
<!-- Node1&#45;&gt;Node16 -->
<g id="edge19" class="edge">
<title>Node1&#45;&gt;Node16</title>
<path fill="none" stroke="midnightblue" d="M775.71,-190.5C826.24,-179.13 888.07,-165.23 929.97,-155.8"/>
<polygon fill="midnightblue" stroke="midnightblue" points="930.92,-159.18 939.91,-153.57 929.39,-152.35 930.92,-159.18"/>
</g>
<!-- Node17 -->
<g id="node17" class="node">
<title>Node17</title>
<g id="a_node17"><a xlink:title=" ">
<polygon fill="none" stroke="#bfbfbf" points="1079,-134.5 1079,-153.5 1237,-153.5 1237,-134.5 1079,-134.5"/>
<text text-anchor="middle" x="1158" y="-141.5" font-family="Helvetica,sans-Serif" font-size="10.00">range/v3/view/transform.hpp</text>
</a>
</g>
</g>
<!-- Node1&#45;&gt;Node17 -->
<g id="edge21" class="edge">
<title>Node1&#45;&gt;Node17</title>
<path fill="none" stroke="midnightblue" d="M777.22,-197.77C866.62,-185.38 1003.27,-166.44 1086.25,-154.94"/>
<polygon fill="midnightblue" stroke="midnightblue" points="1086.93,-158.38 1096.35,-153.54 1085.97,-151.45 1086.93,-158.38"/>
</g>
<!-- Node6&#45;&gt;Node2 -->
<g id="edge6" class="edge">
<title>Node6&#45;&gt;Node2</title>
<path fill="none" stroke="midnightblue" d="M256.33,-134.49C209.26,-126.46 138.59,-113.4 78,-98 74.57,-97.13 71.02,-96.15 67.48,-95.12"/>
<polygon fill="midnightblue" stroke="midnightblue" points="68.23,-91.69 57.64,-92.15 66.2,-98.39 68.23,-91.69"/>
</g>
<!-- Node7 -->
<g id="node7" class="node">
<title>Node7</title>
<g id="a_node7"><a xlink:title=" ">
<polygon fill="none" stroke="#bfbfbf" points="158,-73 158,-92 214,-92 214,-73 158,-73"/>
<text text-anchor="middle" x="186" y="-80" font-family="Helvetica,sans-Serif" font-size="10.00">optional</text>
</a>
</g>
</g>
<!-- Node6&#45;&gt;Node7 -->
<g id="edge7" class="edge">
<title>Node6&#45;&gt;Node7</title>
<path fill="none" stroke="midnightblue" d="M291.38,-134.48C270.83,-124.53 236.64,-107.99 212.79,-96.46"/>
<polygon fill="midnightblue" stroke="midnightblue" points="214.12,-93.21 203.59,-92.01 211.07,-99.51 214.12,-93.21"/>
</g>
<!-- Node8 -->
<g id="node8" class="node">
<title>Node8</title>
<g id="a_node8"><a xlink:title=" ">
<polygon fill="none" stroke="#bfbfbf" points="165.5,-6 165.5,-25 210.5,-25 210.5,-6 165.5,-6"/>
<text text-anchor="middle" x="188" y="-13" font-family="Helvetica,sans-Serif" font-size="10.00">utility</text>
</a>
</g>
</g>
<!-- Node6&#45;&gt;Node8 -->
<g id="edge8" class="edge">
<title>Node6&#45;&gt;Node8</title>
<path fill="none" stroke="midnightblue" d="M252.39,-134.44C211.63,-126.98 161.68,-114.73 149,-98 133.39,-77.4 154.03,-49.56 170.72,-32.33"/>
<polygon fill="midnightblue" stroke="midnightblue" points="173.28,-34.72 177.97,-25.22 168.38,-29.72 173.28,-34.72"/>
</g>
<!-- Node9 -->
<g id="node9" class="node">
<title>Node9</title>
<g id="a_node9"><a xlink:href="bresenham_8hpp.html" target="_top" xlink:title="Implementation of Bresenham&#45;like raytracing algorithms.">
<polygon fill="none" stroke="black" points="232,-67.5 232,-97.5 386,-97.5 386,-67.5 232,-67.5"/>
<text text-anchor="start" x="240" y="-85.5" font-family="Helvetica,sans-Serif" font-size="10.00">beluga/algorithm/raycasting</text>
<text text-anchor="middle" x="309" y="-74.5" font-family="Helvetica,sans-Serif" font-size="10.00">/bresenham.hpp</text>
</a>
</g>
</g>
<!-- Node6&#45;&gt;Node9 -->
<g id="edge9" class="edge">
<title>Node6&#45;&gt;Node9</title>
<path fill="none" stroke="midnightblue" d="M309,-134.48C309,-127.47 309,-117.19 309,-107.7"/>
<polygon fill="midnightblue" stroke="midnightblue" points="312.5,-107.52 309,-97.52 305.5,-107.52 312.5,-107.52"/>
</g>
<!-- Node6&#45;&gt;Node11 -->
<g id="edge15" class="edge">
<title>Node6&#45;&gt;Node11</title>
<path fill="none" stroke="midnightblue" d="M333.41,-134.36C351.92,-126.9 377.14,-114.68 395,-98 414.47,-79.81 429.18,-52.4 437.45,-34.47"/>
<polygon fill="midnightblue" stroke="midnightblue" points="440.72,-35.72 441.55,-25.16 434.32,-32.89 440.72,-35.72"/>
</g>
<!-- Node12 -->
<g id="node12" class="node">
<title>Node12</title>
<g id="a_node12"><a xlink:title=" ">
<polygon fill="none" stroke="#bfbfbf" points="37,-0.5 37,-30.5 147,-30.5 147,-0.5 37,-0.5"/>
<text text-anchor="start" x="45" y="-18.5" font-family="Helvetica,sans-Serif" font-size="10.00">range/v3/view/take</text>
<text text-anchor="middle" x="92" y="-7.5" font-family="Helvetica,sans-Serif" font-size="10.00">_while.hpp</text>
</a>
</g>
</g>
<!-- Node6&#45;&gt;Node12 -->
<g id="edge16" class="edge">
<title>Node6&#45;&gt;Node12</title>
<path fill="none" stroke="midnightblue" d="M227.61,-134.44C197.76,-128.1 165.15,-117.09 140,-98 120.69,-83.34 107.69,-58.48 100.14,-40.06"/>
<polygon fill="midnightblue" stroke="midnightblue" points="103.36,-38.67 96.5,-30.6 96.82,-41.19 103.36,-38.67"/>
</g>
<!-- Node6&#45;&gt;Node14 -->
<g id="edge17" class="edge">
<title>Node6&#45;&gt;Node14</title>
<path fill="none" stroke="midnightblue" d="M334.65,-134.48C365.62,-124.18 417.87,-106.81 452.65,-95.25"/>
<polygon fill="midnightblue" stroke="midnightblue" points="454.02,-98.48 462.4,-92.01 451.81,-91.84 454.02,-98.48"/>
</g>
<!-- Node6&#45;&gt;Node15 -->
<g id="edge18" class="edge">
<title>Node6&#45;&gt;Node15</title>
<path fill="none" stroke="midnightblue" d="M358.51,-134.49C406.01,-126.08 479.67,-112.42 543,-98 547.63,-96.95 552.46,-95.78 557.26,-94.57"/>
<polygon fill="midnightblue" stroke="midnightblue" points="558.15,-97.95 566.97,-92.07 556.41,-91.17 558.15,-97.95"/>
</g>
<!-- Node9&#45;&gt;Node8 -->
<g id="edge11" class="edge">
<title>Node9&#45;&gt;Node8</title>
<path fill="none" stroke="midnightblue" d="M282.74,-67.4C261.98,-56.24 233.2,-40.78 212.82,-29.83"/>
<polygon fill="midnightblue" stroke="midnightblue" points="214.3,-26.66 203.84,-25.01 210.99,-32.82 214.3,-26.66"/>
</g>
<!-- Node10 -->
<g id="node10" class="node">
<title>Node10</title>
<g id="a_node10"><a xlink:title=" ">
<polygon fill="none" stroke="#bfbfbf" points="316,-6 316,-25 366,-25 366,-6 316,-6"/>
<text text-anchor="middle" x="341" y="-13" font-family="Helvetica,sans-Serif" font-size="10.00">cstdint</text>
</a>
</g>
</g>
<!-- Node9&#45;&gt;Node10 -->
<g id="edge10" class="edge">
<title>Node9&#45;&gt;Node10</title>
<path fill="none" stroke="midnightblue" d="M315.94,-67.4C320.74,-57.66 327.14,-44.65 332.28,-34.21"/>
<polygon fill="midnightblue" stroke="midnightblue" points="335.44,-35.71 336.72,-25.19 329.16,-32.62 335.44,-35.71"/>
</g>
<!-- Node9&#45;&gt;Node11 -->
<g id="edge12" class="edge">
<title>Node9&#45;&gt;Node11</title>
<path fill="none" stroke="midnightblue" d="M338.51,-67.4C362.16,-56.09 395.08,-40.36 418.03,-29.39"/>
<polygon fill="midnightblue" stroke="midnightblue" points="419.69,-32.48 427.2,-25.01 416.67,-26.16 419.69,-32.48"/>
</g>
<!-- Node9&#45;&gt;Node12 -->
<g id="edge13" class="edge">
<title>Node9&#45;&gt;Node12</title>
<path fill="none" stroke="midnightblue" d="M262.18,-67.48C228.93,-57.51 184.1,-44.09 148.8,-33.51"/>
<polygon fill="midnightblue" stroke="midnightblue" points="149.69,-30.13 139.11,-30.61 147.68,-36.83 149.69,-30.13"/>
</g>
<!-- Node13 -->
<g id="node13" class="node">
<title>Node13</title>
<g id="a_node13"><a xlink:title=" ">
<polygon fill="none" stroke="#bfbfbf" points="228.5,-6 228.5,-25 297.5,-25 297.5,-6 228.5,-6"/>
<text text-anchor="middle" x="263" y="-13" font-family="Helvetica,sans-Serif" font-size="10.00">Eigen/Core</text>
</a>
</g>
</g>
<!-- Node9&#45;&gt;Node13 -->
<g id="edge14" class="edge">
<title>Node9&#45;&gt;Node13</title>
<path fill="none" stroke="midnightblue" d="M299.02,-67.4C291.99,-57.46 282.54,-44.11 275.08,-33.57"/>
<polygon fill="midnightblue" stroke="midnightblue" points="277.79,-31.34 269.15,-25.19 272.07,-35.38 277.79,-31.34"/>
</g>
</g>
</svg>
        <g id="navigator" transform="translate(0 0)" fill="#404254">
                <rect fill="#f2f5e9" fill-opacity="0.5" stroke="#606060" stroke-width=".5" x="0" y="0" width="60" height="60"/>
                <use id="zoomplus" xlink:href="#zoomPlus" x="17" y="9" onmousedown="handleZoom(evt,'in')"/>
                <use id="zoomminus" xlink:href="#zoomMin" x="42" y="9" onmousedown="handleZoom(evt,'out')"/>
                <use id="reset" xlink:href="#resetDef" x="30" y="36" onmousedown="handleReset()"/>
                <g id="arrowUp" xlink:href="#dirArrow" transform="translate(30 24)" onmousedown="handlePan(0,-1)">
                  <use xlink:href="#rim" fill="#404040">
                        <set attributeName="fill" to="#808080" begin="arrowUp.mouseover" end="arrowUp.mouseout"/>
                  </use>
                  <path fill="none" stroke="white" stroke-width="1.5" d="M0,-3.0v7 M-2.5,-0.5L0,-3.0L2.5,-0.5"/>
                </g>
                <g id="arrowRight" xlink:href="#dirArrow" transform="rotate(90) translate(36 -43)" onmousedown="handlePan(1,0)">
                  <use xlink:href="#rim" fill="#404040">
                        <set attributeName="fill" to="#808080" begin="arrowRight.mouseover" end="arrowRight.mouseout"/>
                  </use>
                  <path fill="none" stroke="white" stroke-width="1.5" d="M0,-3.0v7 M-2.5,-0.5L0,-3.0L2.5,-0.5"/>
                </g>
                <g id="arrowDown" xlink:href="#dirArrow" transform="rotate(180) translate(-30 -48)" onmousedown="handlePan(0,1)">
                  <use xlink:href="#rim" fill="#404040">
                        <set attributeName="fill" to="#808080" begin="arrowDown.mouseover" end="arrowDown.mouseout"/>
                  </use>
                  <path fill="none" stroke="white" stroke-width="1.5" d="M0,-3.0v7 M-2.5,-0.5L0,-3.0L2.5,-0.5"/>
                </g>
                <g id="arrowLeft" xlink:href="#dirArrow" transform="rotate(270) translate(-36 17)" onmousedown="handlePan(-1,0)">
                  <use xlink:href="#rim" fill="#404040">
                        <set attributeName="fill" to="#808080" begin="arrowLeft.mouseover" end="arrowLeft.mouseout"/>
                  </use>
                  <path fill="none" stroke="white" stroke-width="1.5" d="M0,-3.0v7 M-2.5,-0.5L0,-3.0L2.5,-0.5"/>
                </g>
        </g>
        <svg viewBox="0 0 15 15" width="100%" height="30px" preserveAspectRatio="xMaxYMin meet">
         <g id="arrow_out" transform="scale(0.3 0.3)">
          <a xlink:href="beam__model_8hpp__incl_org.svg" target="_base">
           <rect id="button" ry="5" rx="5" y="6" x="6" height="38" width="38"
                fill="#f2f5e9" fill-opacity="0.5" stroke="#606060" stroke-width="1.0"/>
           <path id="arrow"
             d="M 11.500037,31.436501 C 11.940474,20.09759 22.043105,11.32322 32.158766,21.979434 L 37.068811,17.246167 C 37.068811,17.246167 37.088388,32 37.088388,32 L 22.160133,31.978069 C 22.160133,31.978069 26.997745,27.140456 26.997745,27.140456 C 18.528582,18.264221 13.291696,25.230495 11.500037,31.436501 z"
             style="fill:#404040;"/>
          </a>
         </g>
        </svg>
</svg>
