<?xml version="1.0" encoding="UTF-8" standalone="no"?>
<!DOCTYPE svg PUBLIC "-//W3C//DTD SVG 1.1//EN"
 "http://www.w3.org/Graphics/SVG/1.1/DTD/svg11.dtd">
<!-- Generated by graphviz version 2.43.0 (0)
 -->
<!-- Title: /home/runner/work/beluga/beluga/beluga/include/beluga/sensor/bearing_sensor_model.hpp Pages: 1 -->
<svg width="1177pt" height="184pt"
 viewBox="0.00 0.00 1176.50 184.00" xmlns="http://www.w3.org/2000/svg" xmlns:xlink="http://www.w3.org/1999/xlink">
<g id="graph0" class="graph" transform="scale(1 1) rotate(0) translate(4 180)">
<title>/home/runner/work/beluga/beluga/beluga/include/beluga/sensor/bearing_sensor_model.hpp</title>
<!-- Node1 -->
<g id="node1" class="node">
<title>Node1</title>
<g id="a_node1"><a xlink:title="Implementation of a discrete landmark bearing sensor model.">
<polygon fill="#bfbfbf" stroke="black" points="619,-123.5 619,-175.5 784,-175.5 784,-123.5 619,-123.5"/>
<text text-anchor="start" x="627" y="-163.5" font-family="Helvetica,sans-Serif" font-size="10.00">/home/runner/work/beluga</text>
<text text-anchor="start" x="627" y="-152.5" font-family="Helvetica,sans-Serif" font-size="10.00">/beluga/beluga/include</text>
<text text-anchor="start" x="627" y="-141.5" font-family="Helvetica,sans-Serif" font-size="10.00">/beluga/sensor/bearing_sensor</text>
<text text-anchor="middle" x="701.5" y="-130.5" font-family="Helvetica,sans-Serif" font-size="10.00">_model.hpp</text>
</a>
</g>
</g>
<!-- Node2 -->
<g id="node2" class="node">
<title>Node2</title>
<g id="a_node2"><a xlink:title=" ">
<polygon fill="none" stroke="#bfbfbf" points="0,-62 0,-81 167,-81 167,-62 0,-62"/>
<text text-anchor="middle" x="83.5" y="-69" font-family="Helvetica,sans-Serif" font-size="10.00">range/v3/range/conversion.hpp</text>
</a>
</g>
</g>
<!-- Node1&#45;&gt;Node2 -->
<g id="edge1" class="edge">
<title>Node1&#45;&gt;Node2</title>
<path fill="none" stroke="midnightblue" d="M618.63,-139.78C515.06,-128.65 332.44,-108.28 176.5,-87 166.66,-85.66 156.26,-84.14 146.11,-82.6"/>
<polygon fill="midnightblue" stroke="midnightblue" points="146.49,-79.11 136.07,-81.05 145.43,-86.03 146.49,-79.11"/>
</g>
<!-- Node3 -->
<g id="node3" class="node">
<title>Node3</title>
<g id="a_node3"><a xlink:title=" ">
<polygon fill="none" stroke="#bfbfbf" points="185.5,-62 185.5,-81 307.5,-81 307.5,-62 185.5,-62"/>
<text text-anchor="middle" x="246.5" y="-69" font-family="Helvetica,sans-Serif" font-size="10.00">range/v3/view/all.hpp</text>
</a>
</g>
</g>
<!-- Node1&#45;&gt;Node3 -->
<g id="edge2" class="edge">
<title>Node1&#45;&gt;Node3</title>
<path fill="none" stroke="midnightblue" d="M618.7,-136.4C540.61,-124.71 420.36,-106.04 316.5,-87 309.86,-85.78 302.87,-84.43 296,-83.05"/>
<polygon fill="midnightblue" stroke="midnightblue" points="296.55,-79.59 286.05,-81.02 295.15,-86.45 296.55,-79.59"/>
</g>
<!-- Node4 -->
<g id="node4" class="node">
<title>Node4</title>
<g id="a_node4"><a xlink:title=" ">
<polygon fill="none" stroke="#bfbfbf" points="325.5,-62 325.5,-81 483.5,-81 483.5,-62 325.5,-62"/>
<text text-anchor="middle" x="404.5" y="-69" font-family="Helvetica,sans-Serif" font-size="10.00">range/v3/view/transform.hpp</text>
</a>
</g>
</g>
<!-- Node1&#45;&gt;Node4 -->
<g id="edge3" class="edge">
<title>Node1&#45;&gt;Node4</title>
<path fill="none" stroke="midnightblue" d="M618.77,-127.33C563.35,-113.15 492.63,-95.05 447.93,-83.61"/>
<polygon fill="midnightblue" stroke="midnightblue" points="448.54,-80.16 437.98,-81.07 446.8,-86.94 448.54,-80.16"/>
</g>
<!-- Node5 -->
<g id="node5" class="node">
<title>Node5</title>
<g id="a_node5"><a xlink:title=" ">
<polygon fill="none" stroke="#bfbfbf" points="501.5,-62 501.5,-81 593.5,-81 593.5,-62 501.5,-62"/>
<text text-anchor="middle" x="547.5" y="-69" font-family="Helvetica,sans-Serif" font-size="10.00">sophus/se2.hpp</text>
</a>
</g>
</g>
<!-- Node1&#45;&gt;Node5 -->
<g id="edge4" class="edge">
<title>Node1&#45;&gt;Node5</title>
<path fill="none" stroke="midnightblue" d="M650.65,-123.4C624.97,-110.73 594.89,-95.89 573.86,-85.51"/>
<polygon fill="midnightblue" stroke="midnightblue" points="575.4,-82.36 564.88,-81.08 572.3,-88.64 575.4,-82.36"/>
</g>
<!-- Node6 -->
<g id="node6" class="node">
<title>Node6</title>
<g id="a_node6"><a xlink:title=" ">
<polygon fill="none" stroke="#bfbfbf" points="611.5,-62 611.5,-81 703.5,-81 703.5,-62 611.5,-62"/>
<text text-anchor="middle" x="657.5" y="-69" font-family="Helvetica,sans-Serif" font-size="10.00">sophus/se3.hpp</text>
</a>
</g>
</g>
<!-- Node1&#45;&gt;Node6 -->
<g id="edge5" class="edge">
<title>Node1&#45;&gt;Node6</title>
<path fill="none" stroke="midnightblue" d="M686.85,-123.19C680.55,-112.31 673.34,-99.86 667.64,-90.02"/>
<polygon fill="midnightblue" stroke="midnightblue" points="670.58,-88.11 662.54,-81.21 664.52,-91.62 670.58,-88.11"/>
</g>
<!-- Node7 -->
<g id="node7" class="node">
<title>Node7</title>
<g id="a_node7"><a xlink:title=" ">
<polygon fill="none" stroke="#bfbfbf" points="722,-62 722,-81 769,-81 769,-62 722,-62"/>
<text text-anchor="middle" x="745.5" y="-69" font-family="Helvetica,sans-Serif" font-size="10.00">cmath</text>
</a>
</g>
</g>
<!-- Node1&#45;&gt;Node7 -->
<g id="edge6" class="edge">
<title>Node1&#45;&gt;Node7</title>
<path fill="none" stroke="midnightblue" d="M716.15,-123.19C722.45,-112.31 729.66,-99.86 735.36,-90.02"/>
<polygon fill="midnightblue" stroke="midnightblue" points="738.48,-91.62 740.46,-81.21 732.42,-88.11 738.48,-91.62"/>
</g>
<!-- Node8 -->
<g id="node8" class="node">
<title>Node8</title>
<g id="a_node8"><a xlink:title=" ">
<polygon fill="none" stroke="#bfbfbf" points="787.5,-62 787.5,-81 841.5,-81 841.5,-62 787.5,-62"/>
<text text-anchor="middle" x="814.5" y="-69" font-family="Helvetica,sans-Serif" font-size="10.00">random</text>
</a>
</g>
</g>
<!-- Node1&#45;&gt;Node8 -->
<g id="edge7" class="edge">
<title>Node1&#45;&gt;Node8</title>
<path fill="none" stroke="midnightblue" d="M738.81,-123.4C756.81,-111.3 777.75,-97.22 793.03,-86.94"/>
<polygon fill="midnightblue" stroke="midnightblue" points="795.4,-89.56 801.75,-81.08 791.49,-83.75 795.4,-89.56"/>
</g>
<!-- Node9 -->
<g id="node9" class="node">
<title>Node9</title>
<g id="a_node9"><a xlink:title=" ">
<polygon fill="none" stroke="#bfbfbf" points="860,-62 860,-81 905,-81 905,-62 860,-62"/>
<text text-anchor="middle" x="882.5" y="-69" font-family="Helvetica,sans-Serif" font-size="10.00">utility</text>
</a>
</g>
</g>
<!-- Node1&#45;&gt;Node9 -->
<g id="edge8" class="edge">
<title>Node1&#45;&gt;Node9</title>
<path fill="none" stroke="midnightblue" d="M763.68,-123.39C790.48,-112.42 822.12,-99.28 850.5,-87 851.86,-86.41 853.26,-85.8 854.67,-85.18"/>
<polygon fill="midnightblue" stroke="midnightblue" points="856.23,-88.31 863.93,-81.04 853.38,-81.92 856.23,-88.31"/>
</g>
<!-- Node10 -->
<g id="node10" class="node">
<title>Node10</title>
<g id="a_node10"><a xlink:title=" ">
<polygon fill="none" stroke="#bfbfbf" points="923,-62 923,-81 970,-81 970,-62 923,-62"/>
<text text-anchor="middle" x="946.5" y="-69" font-family="Helvetica,sans-Serif" font-size="10.00">vector</text>
</a>
</g>
</g>
<!-- Node1&#45;&gt;Node10 -->
<g id="edge9" class="edge">
<title>Node1&#45;&gt;Node10</title>
<path fill="none" stroke="midnightblue" d="M784.11,-127.26C823.65,-116.4 871.44,-102.27 913.5,-87 915.16,-86.4 916.85,-85.75 918.55,-85.08"/>
<polygon fill="midnightblue" stroke="midnightblue" points="920.29,-88.15 928.17,-81.06 917.6,-81.69 920.29,-88.15"/>
</g>
<!-- Node11 -->
<g id="node11" class="node">
<title>Node11</title>
<g id="a_node11"><a xlink:href="landmark__detection__types_8hpp.html" target="_top" xlink:title="Auxiliar types for landmark models.">
<polygon fill="none" stroke="black" points="988,-56.5 988,-86.5 1117,-86.5 1117,-56.5 988,-56.5"/>
<text text-anchor="start" x="996" y="-74.5" font-family="Helvetica,sans-Serif" font-size="10.00">beluga/types/landmark</text>
<text text-anchor="middle" x="1052.5" y="-63.5" font-family="Helvetica,sans-Serif" font-size="10.00">_detection_types.hpp</text>
</a>
</g>
</g>
<!-- Node1&#45;&gt;Node11 -->
<g id="edge10" class="edge">
<title>Node1&#45;&gt;Node11</title>
<path fill="none" stroke="midnightblue" d="M784.24,-130.59C842.94,-117.88 921.06,-100.96 977.86,-88.66"/>
<polygon fill="midnightblue" stroke="midnightblue" points="978.81,-92.04 987.85,-86.5 977.33,-85.19 978.81,-92.04"/>
</g>
<!-- Node12 -->
<g id="node12" class="node">
<title>Node12</title>
<g id="a_node12"><a xlink:title=" ">
<polygon fill="none" stroke="#bfbfbf" points="918,-0.5 918,-19.5 987,-19.5 987,-0.5 918,-0.5"/>
<text text-anchor="middle" x="952.5" y="-7.5" font-family="Helvetica,sans-Serif" font-size="10.00">Eigen/Core</text>
</a>
</g>
</g>
<!-- Node11&#45;&gt;Node12 -->
<g id="edge11" class="edge">
<title>Node11&#45;&gt;Node12</title>
<path fill="none" stroke="midnightblue" d="M1028.8,-56.4C1012.77,-46.86 991.7,-34.32 975.76,-24.84"/>
<polygon fill="midnightblue" stroke="midnightblue" points="977.43,-21.76 967.05,-19.66 973.86,-27.78 977.43,-21.76"/>
</g>
<!-- Node13 -->
<g id="node13" class="node">
<title>Node13</title>
<g id="a_node13"><a xlink:title=" ">
<polygon fill="none" stroke="#bfbfbf" points="1005,-0.5 1005,-19.5 1100,-19.5 1100,-0.5 1005,-0.5"/>
<text text-anchor="middle" x="1052.5" y="-7.5" font-family="Helvetica,sans-Serif" font-size="10.00">Eigen/Geometry</text>
</a>
</g>
</g>
<!-- Node11&#45;&gt;Node13 -->
<g id="edge12" class="edge">
<title>Node11&#45;&gt;Node13</title>
<path fill="none" stroke="midnightblue" d="M1052.5,-56.4C1052.5,-48.47 1052.5,-38.46 1052.5,-29.86"/>
<polygon fill="midnightblue" stroke="midnightblue" points="1056,-29.66 1052.5,-19.66 1049,-29.66 1056,-29.66"/>
</g>
<!-- Node14 -->
<g id="node14" class="node">
<title>Node14</title>
<g id="a_node14"><a xlink:title=" ">
<polygon fill="none" stroke="#bfbfbf" points="1118.5,-0.5 1118.5,-19.5 1168.5,-19.5 1168.5,-0.5 1118.5,-0.5"/>
<text text-anchor="middle" x="1143.5" y="-7.5" font-family="Helvetica,sans-Serif" font-size="10.00">cstdint</text>
</a>
</g>
</g>
<!-- Node11&#45;&gt;Node14 -->
<g id="edge13" class="edge">
<title>Node11&#45;&gt;Node14</title>
<path fill="none" stroke="midnightblue" d="M1074.07,-56.4C1088.38,-47.04 1107.11,-34.79 1121.51,-25.38"/>
<polygon fill="midnightblue" stroke="midnightblue" points="1123.8,-28.06 1130.26,-19.66 1119.97,-22.2 1123.8,-28.06"/>
</g>
</g>
</svg>
