<?xml version="1.0" encoding="UTF-8" standalone="no"?>
<!DOCTYPE svg PUBLIC "-//W3C//DTD SVG 1.1//EN"
 "http://www.w3.org/Graphics/SVG/1.1/DTD/svg11.dtd">
<!-- Generated by graphviz version 2.43.0 (0)
 -->
<!-- Title: /home/runner/work/beluga/beluga/beluga/include/beluga/algorithm/raycasting/bresenham.hpp Pages: 1 -->
<svg width="478pt" height="128pt"
 viewBox="0.00 0.00 477.50 128.00" xmlns="http://www.w3.org/2000/svg" xmlns:xlink="http://www.w3.org/1999/xlink">
<g id="graph0" class="graph" transform="scale(1 1) rotate(0) translate(4 124)">
<title>/home/runner/work/beluga/beluga/beluga/include/beluga/algorithm/raycasting/bresenham.hpp</title>
<!-- Node1 -->
<g id="node1" class="node">
<title>Node1</title>
<g id="a_node1"><a xlink:title="Implementation of Bresenham&#45;like raytracing algorithms.">
<polygon fill="#bfbfbf" stroke="black" points="114.5,-67.5 114.5,-119.5 271.5,-119.5 271.5,-67.5 114.5,-67.5"/>
<text text-anchor="start" x="122.5" y="-107.5" font-family="Helvetica,sans-Serif" font-size="10.00">/home/runner/work/beluga</text>
<text text-anchor="start" x="122.5" y="-96.5" font-family="Helvetica,sans-Serif" font-size="10.00">/beluga/beluga/include</text>
<text text-anchor="start" x="122.5" y="-85.5" font-family="Helvetica,sans-Serif" font-size="10.00">/beluga/algorithm/raycasting</text>
<text text-anchor="middle" x="193" y="-74.5" font-family="Helvetica,sans-Serif" font-size="10.00">/bresenham.hpp</text>
</a>
</g>
</g>
<!-- Node2 -->
<g id="node2" class="node">
<title>Node2</title>
<g id="a_node2"><a xlink:title=" ">
<polygon fill="none" stroke="#bfbfbf" points="0,-6 0,-25 50,-25 50,-6 0,-6"/>
<text text-anchor="middle" x="25" y="-13" font-family="Helvetica,sans-Serif" font-size="10.00">cstdint</text>
</a>
</g>
</g>
<!-- Node1&#45;&gt;Node2 -->
<g id="edge1" class="edge">
<title>Node1&#45;&gt;Node2</title>
<path fill="none" stroke="midnightblue" d="M137.52,-67.4C109.26,-54.62 76.1,-39.62 53.14,-29.23"/>
<polygon fill="midnightblue" stroke="midnightblue" points="54.52,-26.01 43.96,-25.08 51.63,-32.39 54.52,-26.01"/>
</g>
<!-- Node3 -->
<g id="node3" class="node">
<title>Node3</title>
<g id="a_node3"><a xlink:title=" ">
<polygon fill="none" stroke="#bfbfbf" points="68.5,-6 68.5,-25 113.5,-25 113.5,-6 68.5,-6"/>
<text text-anchor="middle" x="91" y="-13" font-family="Helvetica,sans-Serif" font-size="10.00">utility</text>
</a>
</g>
</g>
<!-- Node1&#45;&gt;Node3 -->
<g id="edge2" class="edge">
<title>Node1&#45;&gt;Node3</title>
<path fill="none" stroke="midnightblue" d="M159.32,-67.4C143.32,-55.49 124.75,-41.65 111.01,-31.41"/>
<polygon fill="midnightblue" stroke="midnightblue" points="112.87,-28.43 102.76,-25.26 108.68,-34.04 112.87,-28.43"/>
</g>
<!-- Node4 -->
<g id="node4" class="node">
<title>Node4</title>
<g id="a_node4"><a xlink:title=" ">
<polygon fill="none" stroke="#bfbfbf" points="132,-6 132,-25 254,-25 254,-6 132,-6"/>
<text text-anchor="middle" x="193" y="-13" font-family="Helvetica,sans-Serif" font-size="10.00">range/v3/view/all.hpp</text>
</a>
</g>
</g>
<!-- Node1&#45;&gt;Node4 -->
<g id="edge3" class="edge">
<title>Node1&#45;&gt;Node4</title>
<path fill="none" stroke="midnightblue" d="M193,-67.19C193,-56.76 193,-44.9 193,-35.27"/>
<polygon fill="midnightblue" stroke="midnightblue" points="196.5,-35.21 193,-25.21 189.5,-35.21 196.5,-35.21"/>
</g>
<!-- Node5 -->
<g id="node5" class="node">
<title>Node5</title>
<g id="a_node5"><a xlink:title=" ">
<polygon fill="none" stroke="#bfbfbf" points="272,-0.5 272,-30.5 382,-30.5 382,-0.5 272,-0.5"/>
<text text-anchor="start" x="280" y="-18.5" font-family="Helvetica,sans-Serif" font-size="10.00">range/v3/view/take</text>
<text text-anchor="middle" x="327" y="-7.5" font-family="Helvetica,sans-Serif" font-size="10.00">_while.hpp</text>
</a>
</g>
</g>
<!-- Node1&#45;&gt;Node5 -->
<g id="edge4" class="edge">
<title>Node1&#45;&gt;Node5</title>
<path fill="none" stroke="midnightblue" d="M237.25,-67.4C255.39,-57.12 276.05,-45.4 292.97,-35.8"/>
<polygon fill="midnightblue" stroke="midnightblue" points="294.98,-38.68 301.95,-30.71 291.53,-32.6 294.98,-38.68"/>
</g>
<!-- Node6 -->
<g id="node6" class="node">
<title>Node6</title>
<g id="a_node6"><a xlink:title=" ">
<polygon fill="none" stroke="#bfbfbf" points="400.5,-6 400.5,-25 469.5,-25 469.5,-6 400.5,-6"/>
<text text-anchor="middle" x="435" y="-13" font-family="Helvetica,sans-Serif" font-size="10.00">Eigen/Core</text>
</a>
</g>
</g>
<!-- Node1&#45;&gt;Node6 -->
<g id="edge5" class="edge">
<title>Node1&#45;&gt;Node6</title>
<path fill="none" stroke="midnightblue" d="M271.63,-68.42C308,-57.19 351.75,-43.56 391,-31 393.89,-30.07 396.89,-29.11 399.9,-28.13"/>
<polygon fill="midnightblue" stroke="midnightblue" points="401.02,-31.44 409.43,-25.01 398.84,-24.79 401.02,-31.44"/>
</g>
</g>
</svg>
