<?xml version="1.0" encoding="UTF-8" standalone="no"?>
<!DOCTYPE svg PUBLIC "-//W3C//DTD SVG 1.1//EN"
 "http://www.w3.org/Graphics/SVG/1.1/DTD/svg11.dtd">
<!-- Generated by graphviz version 2.43.0 (0)
 -->
<!-- Title: /home/runner/work/beluga/beluga/beluga/include/beluga/containers/circular_array.hpp Pages: 1 -->
<svg width="455pt" height="184pt"
 viewBox="0.00 0.00 454.50 184.00" xmlns="http://www.w3.org/2000/svg" xmlns:xlink="http://www.w3.org/1999/xlink">
<g id="graph0" class="graph" transform="scale(1 1) rotate(0) translate(4 180)">
<title>/home/runner/work/beluga/beluga/beluga/include/beluga/containers/circular_array.hpp</title>
<!-- Node1 -->
<g id="node1" class="node">
<title>Node1</title>
<g id="a_node1"><a xlink:title="Implementation of a generic circular array container.">
<polygon fill="#bfbfbf" stroke="black" points="126,-123.5 126,-175.5 272,-175.5 272,-123.5 126,-123.5"/>
<text text-anchor="start" x="134" y="-163.5" font-family="Helvetica,sans-Serif" font-size="10.00">/home/runner/work/beluga</text>
<text text-anchor="start" x="134" y="-152.5" font-family="Helvetica,sans-Serif" font-size="10.00">/beluga/beluga/include</text>
<text text-anchor="start" x="134" y="-141.5" font-family="Helvetica,sans-Serif" font-size="10.00">/beluga/containers/circular</text>
<text text-anchor="middle" x="199" y="-130.5" font-family="Helvetica,sans-Serif" font-size="10.00">_array.hpp</text>
</a>
</g>
</g>
<!-- Node2 -->
<g id="node2" class="node">
<title>Node2</title>
<g id="a_node2"><a xlink:title=" ">
<polygon fill="none" stroke="#bfbfbf" points="0,-62 0,-81 42,-81 42,-62 0,-62"/>
<text text-anchor="middle" x="21" y="-69" font-family="Helvetica,sans-Serif" font-size="10.00">array</text>
</a>
</g>
</g>
<!-- Node1&#45;&gt;Node2 -->
<g id="edge1" class="edge">
<title>Node1&#45;&gt;Node2</title>
<path fill="none" stroke="midnightblue" d="M140.22,-123.4C110.14,-110.56 74.83,-95.48 50.49,-85.09"/>
<polygon fill="midnightblue" stroke="midnightblue" points="51.66,-81.79 41.09,-81.08 48.91,-88.22 51.66,-81.79"/>
</g>
<!-- Node3 -->
<g id="node3" class="node">
<title>Node3</title>
<g id="a_node3"><a xlink:title=" ">
<polygon fill="none" stroke="#bfbfbf" points="74,-0.5 74,-19.5 124,-19.5 124,-0.5 74,-0.5"/>
<text text-anchor="middle" x="99" y="-7.5" font-family="Helvetica,sans-Serif" font-size="10.00">cstdint</text>
</a>
</g>
</g>
<!-- Node1&#45;&gt;Node3 -->
<g id="edge2" class="edge">
<title>Node1&#45;&gt;Node3</title>
<path fill="none" stroke="midnightblue" d="M156.05,-123.48C142.45,-113.66 128.5,-101.3 119,-87 107.58,-69.81 102.67,-46.39 100.57,-30.12"/>
<polygon fill="midnightblue" stroke="midnightblue" points="104,-29.3 99.48,-19.72 97.04,-30.03 104,-29.3"/>
</g>
<!-- Node4 -->
<g id="node4" class="node">
<title>Node4</title>
<g id="a_node4"><a xlink:title=" ">
<polygon fill="none" stroke="#bfbfbf" points="157.5,-0.5 157.5,-19.5 210.5,-19.5 210.5,-0.5 157.5,-0.5"/>
<text text-anchor="middle" x="184" y="-7.5" font-family="Helvetica,sans-Serif" font-size="10.00">iterator</text>
</a>
</g>
</g>
<!-- Node1&#45;&gt;Node4 -->
<g id="edge3" class="edge">
<title>Node1&#45;&gt;Node4</title>
<path fill="none" stroke="midnightblue" d="M157.52,-123.25C145.38,-113.56 133.61,-101.33 127,-87 121.23,-74.49 120.99,-68.4 127,-56 133.4,-42.8 145.75,-32.3 157.33,-24.78"/>
<polygon fill="midnightblue" stroke="midnightblue" points="159.16,-27.77 165.92,-19.61 155.55,-21.77 159.16,-27.77"/>
</g>
<!-- Node5 -->
<g id="node5" class="node">
<title>Node5</title>
<g id="a_node5"><a xlink:title=" ">
<polygon fill="none" stroke="#bfbfbf" points="318.5,-62 318.5,-81 383.5,-81 383.5,-62 318.5,-62"/>
<text text-anchor="middle" x="351" y="-69" font-family="Helvetica,sans-Serif" font-size="10.00">stdexcept</text>
</a>
</g>
</g>
<!-- Node1&#45;&gt;Node5 -->
<g id="edge4" class="edge">
<title>Node1&#45;&gt;Node5</title>
<path fill="none" stroke="midnightblue" d="M249.19,-123.4C274.42,-110.79 303.96,-96.02 324.7,-85.65"/>
<polygon fill="midnightblue" stroke="midnightblue" points="326.47,-88.68 333.84,-81.08 323.33,-82.42 326.47,-88.68"/>
</g>
<!-- Node6 -->
<g id="node6" class="node">
<title>Node6</title>
<g id="a_node6"><a xlink:title=" ">
<polygon fill="none" stroke="#bfbfbf" points="241.5,-0.5 241.5,-19.5 310.5,-19.5 310.5,-0.5 241.5,-0.5"/>
<text text-anchor="middle" x="276" y="-7.5" font-family="Helvetica,sans-Serif" font-size="10.00">type_traits</text>
</a>
</g>
</g>
<!-- Node1&#45;&gt;Node6 -->
<g id="edge5" class="edge">
<title>Node1&#45;&gt;Node6</title>
<path fill="none" stroke="midnightblue" d="M239.55,-123.29C251.78,-113.54 263.85,-101.25 271,-87 279.97,-69.12 280.08,-45.83 278.68,-29.77"/>
<polygon fill="midnightblue" stroke="midnightblue" points="282.12,-29.06 277.49,-19.53 275.16,-29.87 282.12,-29.06"/>
</g>
<!-- Node7 -->
<g id="node7" class="node">
<title>Node7</title>
<g id="a_node7"><a xlink:title=" ">
<polygon fill="none" stroke="#bfbfbf" points="401.5,-62 401.5,-81 446.5,-81 446.5,-62 401.5,-62"/>
<text text-anchor="middle" x="424" y="-69" font-family="Helvetica,sans-Serif" font-size="10.00">utility</text>
</a>
</g>
</g>
<!-- Node1&#45;&gt;Node7 -->
<g id="edge6" class="edge">
<title>Node1&#45;&gt;Node7</title>
<path fill="none" stroke="midnightblue" d="M272.1,-127.79C308.79,-116.78 353.67,-102.36 393,-87 394.42,-86.45 395.86,-85.86 397.32,-85.25"/>
<polygon fill="midnightblue" stroke="midnightblue" points="399.08,-88.29 406.79,-81.03 396.23,-81.9 399.08,-88.29"/>
</g>
<!-- Node8 -->
<g id="node8" class="node">
<title>Node8</title>
<g id="a_node8"><a xlink:href="indexing__iterator_8hpp.html" target="_top" xlink:title="Implementation of a random access iterator for indexable containers.">
<polygon fill="none" stroke="black" points="136,-56.5 136,-86.5 262,-86.5 262,-56.5 136,-56.5"/>
<text text-anchor="start" x="144" y="-74.5" font-family="Helvetica,sans-Serif" font-size="10.00">beluga/utility/indexing</text>
<text text-anchor="middle" x="199" y="-63.5" font-family="Helvetica,sans-Serif" font-size="10.00">_iterator.hpp</text>
</a>
</g>
</g>
<!-- Node1&#45;&gt;Node8 -->
<g id="edge7" class="edge">
<title>Node1&#45;&gt;Node8</title>
<path fill="none" stroke="midnightblue" d="M199,-123.19C199,-114.79 199,-105.44 199,-97.09"/>
<polygon fill="midnightblue" stroke="midnightblue" points="202.5,-96.85 199,-86.85 195.5,-96.85 202.5,-96.85"/>
</g>
<!-- Node8&#45;&gt;Node3 -->
<g id="edge8" class="edge">
<title>Node8&#45;&gt;Node3</title>
<path fill="none" stroke="midnightblue" d="M175.3,-56.4C159.27,-46.86 138.2,-34.32 122.26,-24.84"/>
<polygon fill="midnightblue" stroke="midnightblue" points="123.93,-21.76 113.55,-19.66 120.36,-27.78 123.93,-21.76"/>
</g>
<!-- Node8&#45;&gt;Node4 -->
<g id="edge9" class="edge">
<title>Node8&#45;&gt;Node4</title>
<path fill="none" stroke="midnightblue" d="M195.45,-56.4C193.42,-48.38 190.87,-38.23 188.68,-29.57"/>
<polygon fill="midnightblue" stroke="midnightblue" points="192.02,-28.5 186.18,-19.66 185.23,-30.21 192.02,-28.5"/>
</g>
<!-- Node8&#45;&gt;Node6 -->
<g id="edge10" class="edge">
<title>Node8&#45;&gt;Node6</title>
<path fill="none" stroke="midnightblue" d="M217.25,-56.4C229.13,-47.22 244.61,-35.26 256.69,-25.92"/>
<polygon fill="midnightblue" stroke="midnightblue" points="259.02,-28.54 264.8,-19.66 254.74,-23 259.02,-28.54"/>
</g>
</g>
</svg>
