<?xml version="1.0" encoding="UTF-8" standalone="no"?>
<!DOCTYPE svg PUBLIC "-//W3C//DTD SVG 1.1//EN"
 "http://www.w3.org/Graphics/SVG/1.1/DTD/svg11.dtd">
<!-- Generated by graphviz version 2.43.0 (0)
 -->
<!-- Title: beluga::LikelihoodFieldModelBase&lt; OccupancyGrid &gt; Pages: 1 -->
<svg width="360pt" height="88pt"
 viewBox="0.00 0.00 360.00 88.00" xmlns="http://www.w3.org/2000/svg" xmlns:xlink="http://www.w3.org/1999/xlink">
<g id="graph0" class="graph" transform="scale(1 1) rotate(0) translate(4 84)">
<title>beluga::LikelihoodFieldModelBase&lt; OccupancyGrid &gt;</title>
<!-- Node1 -->
<g id="node1" class="node">
<title>Node1</title>
<g id="a_node1"><a xlink:title="Likelihood field common sensor model for range finders.">
<polygon fill="#bfbfbf" stroke="black" points="0,-24.5 0,-54.5 158,-54.5 158,-24.5 0,-24.5"/>
<text text-anchor="start" x="8" y="-42.5" font-family="Helvetica,sans-Serif" font-size="10.00">beluga::LikelihoodFieldModel</text>
<text text-anchor="middle" x="79" y="-31.5" font-family="Helvetica,sans-Serif" font-size="10.00">Base&lt; OccupancyGrid &gt;</text>
</a>
</g>
</g>
<!-- Node2 -->
<g id="node2" class="node">
<title>Node2</title>
<g id="a_node2"><a xlink:href="classbeluga_1_1LikelihoodFieldModel.html" target="_top" xlink:title="Likelihood field sensor model for range finders.">
<polygon fill="none" stroke="black" points="194,-49.5 194,-79.5 352,-79.5 352,-49.5 194,-49.5"/>
<text text-anchor="start" x="202" y="-67.5" font-family="Helvetica,sans-Serif" font-size="10.00">beluga::LikelihoodFieldModel</text>
<text text-anchor="middle" x="273" y="-56.5" font-family="Helvetica,sans-Serif" font-size="10.00">&lt; OccupancyGrid &gt;</text>
</a>
</g>
</g>
<!-- Node1&#45;&gt;Node2 -->
<g id="edge1" class="edge">
<title>Node1&#45;&gt;Node2</title>
<path fill="none" stroke="midnightblue" d="M168.15,-50.98C176.77,-52.1 185.47,-53.23 193.98,-54.34"/>
<polygon fill="midnightblue" stroke="midnightblue" points="168.46,-47.49 158.09,-49.67 167.56,-54.43 168.46,-47.49"/>
</g>
<!-- Node3 -->
<g id="node3" class="node">
<title>Node3</title>
<g id="a_node3"><a xlink:href="classbeluga_1_1LikelihoodFieldProbModel.html" target="_top" xlink:title="Likelihood field prob sensor model for range finders.">
<polygon fill="none" stroke="black" points="198,-0.5 198,-30.5 348,-30.5 348,-0.5 198,-0.5"/>
<text text-anchor="start" x="206" y="-18.5" font-family="Helvetica,sans-Serif" font-size="10.00">beluga::LikelihoodFieldProb</text>
<text text-anchor="middle" x="273" y="-7.5" font-family="Helvetica,sans-Serif" font-size="10.00">Model&lt; OccupancyGrid &gt;</text>
</a>
</g>
</g>
<!-- Node1&#45;&gt;Node3 -->
<g id="edge2" class="edge">
<title>Node1&#45;&gt;Node3</title>
<path fill="none" stroke="midnightblue" d="M168.29,-28.46C178.12,-27.23 188.06,-25.99 197.7,-24.79"/>
<polygon fill="midnightblue" stroke="midnightblue" points="167.58,-25.02 158.09,-29.74 168.45,-31.97 167.58,-25.02"/>
</g>
</g>
</svg>
