<?xml version="1.0" encoding="UTF-8" standalone="no"?>
<!DOCTYPE svg PUBLIC "-//W3C//DTD SVG 1.1//EN"
 "http://www.w3.org/Graphics/SVG/1.1/DTD/svg11.dtd">
<!-- Generated by graphviz version 2.43.0 (0)
 -->
<!-- Title: beluga::BaseLinearGrid2&lt; Derived &gt; Pages: 1 -->
<svg width="151pt" height="240pt"
 viewBox="0.00 0.00 151.00 240.00" xmlns="http://www.w3.org/2000/svg" xmlns:xlink="http://www.w3.org/1999/xlink">
<g id="graph0" class="graph" transform="scale(1 1) rotate(0) translate(4 236)">
<title>beluga::BaseLinearGrid2&lt; Derived &gt;</title>
<!-- Node1 -->
<g id="node1" class="node">
<title>Node1</title>
<g id="a_node1"><a xlink:title="Linear 2D grid base type.">
<polygon fill="#bfbfbf" stroke="black" points="3.5,-0.5 3.5,-30.5 139.5,-30.5 139.5,-0.5 3.5,-0.5"/>
<text text-anchor="start" x="11.5" y="-18.5" font-family="Helvetica,sans-Serif" font-size="10.00">beluga::BaseLinearGrid2</text>
<text text-anchor="middle" x="71.5" y="-7.5" font-family="Helvetica,sans-Serif" font-size="10.00">&lt; Derived &gt;</text>
</a>
</g>
</g>
<!-- Node2 -->
<g id="node2" class="node">
<title>Node2</title>
<g id="a_node2"><a xlink:href="classbeluga_1_1BaseDenseGrid2.html" target="_top" xlink:title="Dense 2D grid base type.">
<polygon fill="none" stroke="black" points="3,-67.5 3,-97.5 140,-97.5 140,-67.5 3,-67.5"/>
<text text-anchor="start" x="11" y="-85.5" font-family="Helvetica,sans-Serif" font-size="10.00">beluga::BaseDenseGrid2</text>
<text text-anchor="middle" x="71.5" y="-74.5" font-family="Helvetica,sans-Serif" font-size="10.00">&lt; Derived &gt;</text>
</a>
</g>
</g>
<!-- Node2&#45;&gt;Node1 -->
<g id="edge1" class="edge">
<title>Node2&#45;&gt;Node1</title>
<path fill="none" stroke="midnightblue" d="M71.5,-57.11C71.5,-48.15 71.5,-38.32 71.5,-30.58"/>
<polygon fill="midnightblue" stroke="midnightblue" points="68,-57.4 71.5,-67.4 75,-57.4 68,-57.4"/>
</g>
<!-- Node3 -->
<g id="node3" class="node">
<title>Node3</title>
<g id="a_node3"><a xlink:href="classbeluga_1_1BaseRegularGrid2.html" target="_top" xlink:title="Regularly spaced 2D grid base type.">
<polygon fill="none" stroke="black" points="0,-134.5 0,-164.5 143,-164.5 143,-134.5 0,-134.5"/>
<text text-anchor="start" x="8" y="-152.5" font-family="Helvetica,sans-Serif" font-size="10.00">beluga::BaseRegularGrid2</text>
<text text-anchor="middle" x="71.5" y="-141.5" font-family="Helvetica,sans-Serif" font-size="10.00">&lt; Derived &gt;</text>
</a>
</g>
</g>
<!-- Node3&#45;&gt;Node2 -->
<g id="edge2" class="edge">
<title>Node3&#45;&gt;Node2</title>
<path fill="none" stroke="midnightblue" d="M71.5,-124.11C71.5,-115.15 71.5,-105.32 71.5,-97.58"/>
<polygon fill="midnightblue" stroke="midnightblue" points="68,-124.4 71.5,-134.4 75,-124.4 68,-124.4"/>
</g>
<!-- Node4 -->
<g id="node4" class="node">
<title>Node4</title>
<g id="a_node4"><a xlink:title=" ">
<polygon fill="none" stroke="#bfbfbf" points="20.5,-201.5 20.5,-231.5 122.5,-231.5 122.5,-201.5 20.5,-201.5"/>
<text text-anchor="start" x="28.5" y="-219.5" font-family="Helvetica,sans-Serif" font-size="10.00">ciabatta::ciabatta</text>
<text text-anchor="middle" x="71.5" y="-208.5" font-family="Helvetica,sans-Serif" font-size="10.00">_top&lt; Derived &gt;</text>
</a>
</g>
</g>
<!-- Node4&#45;&gt;Node3 -->
<g id="edge3" class="edge">
<title>Node4&#45;&gt;Node3</title>
<path fill="none" stroke="midnightblue" d="M71.5,-191.11C71.5,-182.15 71.5,-172.32 71.5,-164.58"/>
<polygon fill="midnightblue" stroke="midnightblue" points="68,-191.4 71.5,-201.4 75,-191.4 68,-191.4"/>
</g>
</g>
</svg>
