<?xml version="1.0" encoding="UTF-8" standalone="no"?>
<!DOCTYPE svg PUBLIC "-//W3C//DTD SVG 1.1//EN"
 "http://www.w3.org/Graphics/SVG/1.1/DTD/svg11.dtd">
<!-- Generated by graphviz version 2.43.0 (0)
 -->
<!-- Title: beluga::ValueGrid2&lt; T &gt; Pages: 1 -->
<svg width="151pt" height="296pt"
 viewBox="0.00 0.00 151.00 296.00" xmlns="http://www.w3.org/2000/svg" xmlns:xlink="http://www.w3.org/1999/xlink">
<g id="graph0" class="graph" transform="scale(1 1) rotate(0) translate(4 292)">
<title>beluga::ValueGrid2&lt; T &gt;</title>
<!-- Node1 -->
<g id="node1" class="node">
<title>Node1</title>
<g id="a_node1"><a xlink:title="Generic 2D linear value grid.">
<polygon fill="#bfbfbf" stroke="black" points="3,-0.5 3,-19.5 140,-19.5 140,-0.5 3,-0.5"/>
<text text-anchor="middle" x="71.5" y="-7.5" font-family="Helvetica,sans-Serif" font-size="10.00">beluga::ValueGrid2&lt; T &gt;</text>
</a>
</g>
</g>
<!-- Node2 -->
<g id="node2" class="node">
<title>Node2</title>
<g id="a_node2"><a xlink:href="classbeluga_1_1BaseLinearGrid2.html" target="_top" xlink:title=" ">
<polygon fill="none" stroke="black" points="3.5,-56.5 3.5,-86.5 139.5,-86.5 139.5,-56.5 3.5,-56.5"/>
<text text-anchor="start" x="11.5" y="-74.5" font-family="Helvetica,sans-Serif" font-size="10.00">beluga::BaseLinearGrid2</text>
<text text-anchor="middle" x="71.5" y="-63.5" font-family="Helvetica,sans-Serif" font-size="10.00">&lt; ValueGrid2&lt; T &gt; &gt;</text>
</a>
</g>
</g>
<!-- Node2&#45;&gt;Node1 -->
<g id="edge1" class="edge">
<title>Node2&#45;&gt;Node1</title>
<path fill="none" stroke="midnightblue" d="M71.5,-46.29C71.5,-36.86 71.5,-26.65 71.5,-19.66"/>
<polygon fill="midnightblue" stroke="midnightblue" points="68,-46.4 71.5,-56.4 75,-46.4 68,-46.4"/>
</g>
<!-- Node3 -->
<g id="node3" class="node">
<title>Node3</title>
<g id="a_node3"><a xlink:href="classbeluga_1_1BaseDenseGrid2.html" target="_top" xlink:title="Dense 2D grid base type.">
<polygon fill="none" stroke="black" points="3,-123.5 3,-153.5 140,-153.5 140,-123.5 3,-123.5"/>
<text text-anchor="start" x="11" y="-141.5" font-family="Helvetica,sans-Serif" font-size="10.00">beluga::BaseDenseGrid2</text>
<text text-anchor="middle" x="71.5" y="-130.5" font-family="Helvetica,sans-Serif" font-size="10.00">&lt; Derived &gt;</text>
</a>
</g>
</g>
<!-- Node3&#45;&gt;Node2 -->
<g id="edge2" class="edge">
<title>Node3&#45;&gt;Node2</title>
<path fill="none" stroke="midnightblue" d="M71.5,-113.11C71.5,-104.15 71.5,-94.32 71.5,-86.58"/>
<polygon fill="midnightblue" stroke="midnightblue" points="68,-113.4 71.5,-123.4 75,-113.4 68,-113.4"/>
</g>
<!-- Node4 -->
<g id="node4" class="node">
<title>Node4</title>
<g id="a_node4"><a xlink:href="classbeluga_1_1BaseRegularGrid2.html" target="_top" xlink:title="Regularly spaced 2D grid base type.">
<polygon fill="none" stroke="black" points="0,-190.5 0,-220.5 143,-220.5 143,-190.5 0,-190.5"/>
<text text-anchor="start" x="8" y="-208.5" font-family="Helvetica,sans-Serif" font-size="10.00">beluga::BaseRegularGrid2</text>
<text text-anchor="middle" x="71.5" y="-197.5" font-family="Helvetica,sans-Serif" font-size="10.00">&lt; Derived &gt;</text>
</a>
</g>
</g>
<!-- Node4&#45;&gt;Node3 -->
<g id="edge3" class="edge">
<title>Node4&#45;&gt;Node3</title>
<path fill="none" stroke="midnightblue" d="M71.5,-180.11C71.5,-171.15 71.5,-161.32 71.5,-153.58"/>
<polygon fill="midnightblue" stroke="midnightblue" points="68,-180.4 71.5,-190.4 75,-180.4 68,-180.4"/>
</g>
<!-- Node5 -->
<g id="node5" class="node">
<title>Node5</title>
<g id="a_node5"><a xlink:title=" ">
<polygon fill="none" stroke="#bfbfbf" points="20.5,-257.5 20.5,-287.5 122.5,-287.5 122.5,-257.5 20.5,-257.5"/>
<text text-anchor="start" x="28.5" y="-275.5" font-family="Helvetica,sans-Serif" font-size="10.00">ciabatta::ciabatta</text>
<text text-anchor="middle" x="71.5" y="-264.5" font-family="Helvetica,sans-Serif" font-size="10.00">_top&lt; Derived &gt;</text>
</a>
</g>
</g>
<!-- Node5&#45;&gt;Node4 -->
<g id="edge4" class="edge">
<title>Node5&#45;&gt;Node4</title>
<path fill="none" stroke="midnightblue" d="M71.5,-247.11C71.5,-238.15 71.5,-228.32 71.5,-220.58"/>
<polygon fill="midnightblue" stroke="midnightblue" points="68,-247.4 71.5,-257.4 75,-247.4 68,-247.4"/>
</g>
</g>
</svg>
