<?xml version="1.0" encoding="UTF-8" standalone="no"?>
<!DOCTYPE svg PUBLIC "-//W3C//DTD SVG 1.1//EN"
 "http://www.w3.org/Graphics/SVG/1.1/DTD/svg11.dtd">
<!-- Generated by graphviz version 2.43.0 (0)
 -->
<!-- Title: beluga::BaseRegularGrid&lt; Derived, NDim &gt; Pages: 1 -->
<svg width="833pt" height="134pt"
 viewBox="0.00 0.00 833.00 134.00" xmlns="http://www.w3.org/2000/svg" xmlns:xlink="http://www.w3.org/1999/xlink">
<g id="graph0" class="graph" transform="scale(1 1) rotate(0) translate(4 130)">
<title>beluga::BaseRegularGrid&lt; Derived, NDim &gt;</title>
<!-- Node1 -->
<g id="node1" class="node">
<title>Node1</title>
<g id="a_node1"><a xlink:title="Regularly spaced N dimensional grid base type.">
<polygon fill="#bfbfbf" stroke="black" points="148,-70.5 148,-100.5 285,-100.5 285,-70.5 148,-70.5"/>
<text text-anchor="start" x="156" y="-88.5" font-family="Helvetica,sans-Serif" font-size="10.00">beluga::BaseRegularGrid</text>
<text text-anchor="middle" x="216.5" y="-77.5" font-family="Helvetica,sans-Serif" font-size="10.00">&lt; Derived, NDim &gt;</text>
</a>
</g>
</g>
<!-- Node3 -->
<g id="node3" class="node">
<title>Node3</title>
<g id="a_node3"><a xlink:href="classbeluga_1_1BaseDenseGrid2.html" target="_top" xlink:title="Dense 2D grid base type.">
<polygon fill="none" stroke="black" points="321,-70.5 321,-100.5 458,-100.5 458,-70.5 321,-70.5"/>
<text text-anchor="start" x="329" y="-88.5" font-family="Helvetica,sans-Serif" font-size="10.00">beluga::BaseDenseGrid2</text>
<text text-anchor="middle" x="389.5" y="-77.5" font-family="Helvetica,sans-Serif" font-size="10.00">&lt; Derived &gt;</text>
</a>
</g>
</g>
<!-- Node1&#45;&gt;Node3 -->
<g id="edge2" class="edge">
<title>Node1&#45;&gt;Node3</title>
<path fill="none" stroke="midnightblue" d="M295.1,-85.5C303.69,-85.5 312.39,-85.5 320.85,-85.5"/>
<polygon fill="midnightblue" stroke="midnightblue" points="295.08,-82 285.08,-85.5 295.08,-89 295.08,-82"/>
</g>
<!-- Node2 -->
<g id="node2" class="node">
<title>Node2</title>
<g id="a_node2"><a xlink:href="structbeluga_1_1enable__self.html" target="_top" xlink:title=" ">
<polygon fill="none" stroke="black" points="0,-70.5 0,-100.5 112,-100.5 112,-70.5 0,-70.5"/>
<text text-anchor="start" x="8" y="-88.5" font-family="Helvetica,sans-Serif" font-size="10.00">beluga::enable_self</text>
<text text-anchor="middle" x="56" y="-77.5" font-family="Helvetica,sans-Serif" font-size="10.00">&lt; Derived &gt;</text>
</a>
</g>
</g>
<!-- Node2&#45;&gt;Node1 -->
<g id="edge1" class="edge">
<title>Node2&#45;&gt;Node1</title>
<path fill="none" stroke="midnightblue" d="M122.5,-85.5C130.86,-85.5 139.43,-85.5 147.82,-85.5"/>
<polygon fill="midnightblue" stroke="midnightblue" points="122.44,-82 112.44,-85.5 122.44,-89 122.44,-82"/>
</g>
<!-- Node4 -->
<g id="node4" class="node">
<title>Node4</title>
<g id="a_node4"><a xlink:href="classbeluga_1_1BaseLinearGrid2.html" target="_top" xlink:title=" ">
<polygon fill="none" stroke="black" points="494,-95.5 494,-125.5 630,-125.5 630,-95.5 494,-95.5"/>
<text text-anchor="start" x="502" y="-113.5" font-family="Helvetica,sans-Serif" font-size="10.00">beluga::BaseLinearGrid2</text>
<text text-anchor="middle" x="562" y="-102.5" font-family="Helvetica,sans-Serif" font-size="10.00">&lt; ValueGrid2&lt; T &gt; &gt;</text>
</a>
</g>
</g>
<!-- Node3&#45;&gt;Node4 -->
<g id="edge3" class="edge">
<title>Node3&#45;&gt;Node4</title>
<path fill="none" stroke="midnightblue" d="M468.34,-96.91C476.88,-98.17 485.52,-99.43 493.91,-100.66"/>
<polygon fill="midnightblue" stroke="midnightblue" points="468.78,-93.44 458.38,-95.45 467.76,-100.37 468.78,-93.44"/>
</g>
<!-- Node6 -->
<g id="node6" class="node">
<title>Node6</title>
<g id="a_node6"><a xlink:href="classbeluga_1_1BaseLinearGrid2.html" target="_top" xlink:title="Linear 2D grid base type.">
<polygon fill="none" stroke="black" points="494,-46.5 494,-76.5 630,-76.5 630,-46.5 494,-46.5"/>
<text text-anchor="start" x="502" y="-64.5" font-family="Helvetica,sans-Serif" font-size="10.00">beluga::BaseLinearGrid2</text>
<text text-anchor="middle" x="562" y="-53.5" font-family="Helvetica,sans-Serif" font-size="10.00">&lt; Derived &gt;</text>
</a>
</g>
</g>
<!-- Node3&#45;&gt;Node6 -->
<g id="edge5" class="edge">
<title>Node3&#45;&gt;Node6</title>
<path fill="none" stroke="midnightblue" d="M468.34,-74.54C476.88,-73.34 485.52,-72.12 493.91,-70.94"/>
<polygon fill="midnightblue" stroke="midnightblue" points="467.79,-71.09 458.38,-75.95 468.77,-78.02 467.79,-71.09"/>
</g>
<!-- Node5 -->
<g id="node5" class="node">
<title>Node5</title>
<g id="a_node5"><a xlink:href="classbeluga_1_1ValueGrid2.html" target="_top" xlink:title="Generic 2D linear value grid.">
<polygon fill="none" stroke="black" points="677,-101 677,-120 814,-120 814,-101 677,-101"/>
<text text-anchor="middle" x="745.5" y="-108" font-family="Helvetica,sans-Serif" font-size="10.00">beluga::ValueGrid2&lt; T &gt;</text>
</a>
</g>
</g>
<!-- Node4&#45;&gt;Node5 -->
<g id="edge4" class="edge">
<title>Node4&#45;&gt;Node5</title>
<path fill="none" stroke="midnightblue" d="M640.19,-110.5C652.36,-110.5 664.87,-110.5 676.8,-110.5"/>
<polygon fill="midnightblue" stroke="midnightblue" points="640.07,-107 630.07,-110.5 640.07,-114 640.07,-107"/>
</g>
<!-- Node7 -->
<g id="node7" class="node">
<title>Node7</title>
<g id="a_node7"><a xlink:href="classbeluga_1_1ValueGrid2.html" target="_top" xlink:title=" ">
<polygon fill="none" stroke="black" points="691,-49.5 691,-79.5 800,-79.5 800,-49.5 691,-49.5"/>
<text text-anchor="start" x="699" y="-67.5" font-family="Helvetica,sans-Serif" font-size="10.00">beluga::ValueGrid2</text>
<text text-anchor="middle" x="745.5" y="-56.5" font-family="Helvetica,sans-Serif" font-size="10.00">&lt; float &gt;</text>
</a>
</g>
</g>
<!-- Node6&#45;&gt;Node7 -->
<g id="edge6" class="edge">
<title>Node6&#45;&gt;Node7</title>
<path fill="none" stroke="midnightblue" d="M640.5,-62.78C657.43,-63.06 674.98,-63.35 690.73,-63.61"/>
<polygon fill="midnightblue" stroke="midnightblue" points="640.12,-59.27 630.07,-62.61 640.01,-66.27 640.12,-59.27"/>
</g>
<!-- Node8 -->
<g id="node8" class="node">
<title>Node8</title>
<g id="a_node8"><a xlink:href="classbeluga_1_1BaseOccupancyGrid2.html" target="_top" xlink:title="Occupancy 2D grid base type.">
<polygon fill="none" stroke="black" points="666,-0.5 666,-30.5 825,-30.5 825,-0.5 666,-0.5"/>
<text text-anchor="start" x="674" y="-18.5" font-family="Helvetica,sans-Serif" font-size="10.00">beluga::BaseOccupancyGrid2</text>
<text text-anchor="middle" x="745.5" y="-7.5" font-family="Helvetica,sans-Serif" font-size="10.00">&lt; Derived &gt;</text>
</a>
</g>
</g>
<!-- Node6&#45;&gt;Node8 -->
<g id="edge7" class="edge">
<title>Node6&#45;&gt;Node8</title>
<path fill="none" stroke="midnightblue" d="M632.52,-43.88C649.91,-39.47 668.41,-34.79 685.25,-30.52"/>
<polygon fill="midnightblue" stroke="midnightblue" points="631.26,-40.59 622.43,-46.44 632.98,-47.37 631.26,-40.59"/>
</g>
</g>
</svg>
