<?xml version="1.0" encoding="UTF-8" standalone="no"?>
<!DOCTYPE svg PUBLIC "-//W3C//DTD SVG 1.1//EN"
 "http://www.w3.org/Graphics/SVG/1.1/DTD/svg11.dtd">
<!-- Generated by graphviz version 2.43.0 (0)
 -->
<!-- Title: beluga::ValueGrid2&lt; T &gt; Pages: 1 -->
<svg width="173pt" height="285pt"
 viewBox="0.00 0.00 173.00 285.00" xmlns="http://www.w3.org/2000/svg" xmlns:xlink="http://www.w3.org/1999/xlink">
<g id="graph0" class="graph" transform="scale(1 1) rotate(0) translate(4 281)">
<title>beluga::ValueGrid2&lt; T &gt;</title>
<!-- Node1 -->
<g id="node1" class="node">
<title>Node1</title>
<g id="a_node1"><a xlink:title="Generic 2D linear value grid.">
<polygon fill="#bfbfbf" stroke="black" points="14,-0.5 14,-19.5 151,-19.5 151,-0.5 14,-0.5"/>
<text text-anchor="middle" x="82.5" y="-7.5" font-family="Helvetica,sans-Serif" font-size="10.00">beluga::ValueGrid2&lt; T &gt;</text>
</a>
</g>
</g>
<!-- Node2 -->
<g id="node2" class="node">
<title>Node2</title>
<g id="a_node2"><a xlink:href="classbeluga_1_1BaseLinearGrid2.html" target="_top" xlink:title=" ">
<polygon fill="none" stroke="black" points="14.5,-56.5 14.5,-86.5 150.5,-86.5 150.5,-56.5 14.5,-56.5"/>
<text text-anchor="start" x="22.5" y="-74.5" font-family="Helvetica,sans-Serif" font-size="10.00">beluga::BaseLinearGrid2</text>
<text text-anchor="middle" x="82.5" y="-63.5" font-family="Helvetica,sans-Serif" font-size="10.00">&lt; ValueGrid2&lt; T &gt; &gt;</text>
</a>
</g>
</g>
<!-- Node2&#45;&gt;Node1 -->
<g id="edge1" class="edge">
<title>Node2&#45;&gt;Node1</title>
<path fill="none" stroke="midnightblue" d="M82.5,-46.29C82.5,-36.86 82.5,-26.65 82.5,-19.66"/>
<polygon fill="midnightblue" stroke="midnightblue" points="79,-46.4 82.5,-56.4 86,-46.4 79,-46.4"/>
</g>
<!-- Node3 -->
<g id="node3" class="node">
<title>Node3</title>
<g id="a_node3"><a xlink:href="classbeluga_1_1BaseDenseGrid2.html" target="_top" xlink:title="Dense 2D grid base type.">
<polygon fill="none" stroke="black" points="14,-123.5 14,-153.5 151,-153.5 151,-123.5 14,-123.5"/>
<text text-anchor="start" x="22" y="-141.5" font-family="Helvetica,sans-Serif" font-size="10.00">beluga::BaseDenseGrid2</text>
<text text-anchor="middle" x="82.5" y="-130.5" font-family="Helvetica,sans-Serif" font-size="10.00">&lt; Derived &gt;</text>
</a>
</g>
</g>
<!-- Node3&#45;&gt;Node2 -->
<g id="edge2" class="edge">
<title>Node3&#45;&gt;Node2</title>
<path fill="none" stroke="midnightblue" d="M82.5,-113.11C82.5,-104.15 82.5,-94.32 82.5,-86.58"/>
<polygon fill="midnightblue" stroke="midnightblue" points="79,-113.4 82.5,-123.4 86,-113.4 79,-113.4"/>
</g>
<!-- Node4 -->
<g id="node4" class="node">
<title>Node4</title>
<g id="a_node4"><a xlink:href="classbeluga_1_1BaseRegularGrid.html" target="_top" xlink:title="Regularly spaced N dimensional grid base type.">
<polygon fill="none" stroke="black" points="0,-190.5 0,-209.5 165,-209.5 165,-190.5 0,-190.5"/>
<text text-anchor="middle" x="82.5" y="-197.5" font-family="Helvetica,sans-Serif" font-size="10.00">BaseRegularGrid2&lt; Derived &gt;</text>
</a>
</g>
</g>
<!-- Node4&#45;&gt;Node3 -->
<g id="edge3" class="edge">
<title>Node4&#45;&gt;Node3</title>
<path fill="none" stroke="midnightblue" d="M82.5,-180.23C82.5,-171.59 82.5,-161.5 82.5,-153.52"/>
<polygon fill="midnightblue" stroke="midnightblue" points="79,-180.48 82.5,-190.48 86,-180.48 79,-180.48"/>
</g>
<!-- Node5 -->
<g id="node5" class="node">
<title>Node5</title>
<g id="a_node5"><a xlink:href="structbeluga_1_1enable__self.html" target="_top" xlink:title=" ">
<polygon fill="none" stroke="black" points="26.5,-246.5 26.5,-276.5 138.5,-276.5 138.5,-246.5 26.5,-246.5"/>
<text text-anchor="start" x="34.5" y="-264.5" font-family="Helvetica,sans-Serif" font-size="10.00">beluga::enable_self</text>
<text text-anchor="middle" x="82.5" y="-253.5" font-family="Helvetica,sans-Serif" font-size="10.00">&lt; Derived &gt;</text>
</a>
</g>
</g>
<!-- Node5&#45;&gt;Node4 -->
<g id="edge4" class="edge">
<title>Node5&#45;&gt;Node4</title>
<path fill="none" stroke="midnightblue" d="M82.5,-236.29C82.5,-226.86 82.5,-216.65 82.5,-209.66"/>
<polygon fill="midnightblue" stroke="midnightblue" points="79,-236.4 82.5,-246.4 86,-236.4 79,-236.4"/>
</g>
</g>
</svg>
