<?xml version="1.0" encoding="UTF-8" standalone="no"?>
<!DOCTYPE svg PUBLIC "-//W3C//DTD SVG 1.1//EN"
 "http://www.w3.org/Graphics/SVG/1.1/DTD/svg11.dtd">
<!-- Generated by graphviz version 2.43.0 (0)
 -->
<!-- Title: beluga::LikelihoodFieldProbModel&lt; OccupancyGrid &gt; Pages: 1 -->
<svg width="322pt" height="446pt"
 viewBox="0.00 0.00 321.50 446.00" xmlns="http://www.w3.org/2000/svg" xmlns:xlink="http://www.w3.org/1999/xlink">
<g id="graph0" class="graph" transform="scale(1 1) rotate(0) translate(4 442)">
<title>beluga::LikelihoodFieldProbModel&lt; OccupancyGrid &gt;</title>
<!-- Node1 -->
<g id="node1" class="node">
<title>Node1</title>
<g id="a_node1"><a xlink:title="Likelihood field prob sensor model for range finders.">
<polygon fill="#bfbfbf" stroke="black" points="38,-0.5 38,-30.5 188,-30.5 188,-0.5 38,-0.5"/>
<text text-anchor="start" x="46" y="-18.5" font-family="Helvetica,sans-Serif" font-size="10.00">beluga::LikelihoodFieldProb</text>
<text text-anchor="middle" x="113" y="-7.5" font-family="Helvetica,sans-Serif" font-size="10.00">Model&lt; OccupancyGrid &gt;</text>
</a>
</g>
</g>
<!-- Node2 -->
<g id="node2" class="node">
<title>Node2</title>
<g id="a_node2"><a xlink:href="classbeluga_1_1LikelihoodFieldModelBase.html" target="_top" xlink:title="Likelihood field common sensor model for range finders.">
<polygon fill="none" stroke="black" points="34,-68.5 34,-98.5 192,-98.5 192,-68.5 34,-68.5"/>
<text text-anchor="start" x="42" y="-86.5" font-family="Helvetica,sans-Serif" font-size="10.00">beluga::LikelihoodFieldModel</text>
<text text-anchor="middle" x="113" y="-75.5" font-family="Helvetica,sans-Serif" font-size="10.00">Base&lt; OccupancyGrid &gt;</text>
</a>
</g>
</g>
<!-- Node2&#45;&gt;Node1 -->
<g id="edge1" class="edge">
<title>Node2&#45;&gt;Node1</title>
<path fill="none" stroke="midnightblue" d="M113,-58.03C113,-48.86 113,-38.74 113,-30.79"/>
<polygon fill="midnightblue" stroke="midnightblue" points="109.5,-58.18 113,-68.18 116.5,-58.18 109.5,-58.18"/>
</g>
<!-- Node3 -->
<g id="node3" class="node">
<title>Node3</title>
<g id="a_node3"><a xlink:href="structbeluga_1_1LikelihoodFieldModelBaseParam.html" target="_top" xlink:title="Parameters used to construct a LikelihoodFieldModelBase instance.">
<polygon fill="none" stroke="black" points="0,-146.5 0,-176.5 158,-176.5 158,-146.5 0,-146.5"/>
<text text-anchor="start" x="8" y="-164.5" font-family="Helvetica,sans-Serif" font-size="10.00">beluga::LikelihoodFieldModel</text>
<text text-anchor="middle" x="79" y="-153.5" font-family="Helvetica,sans-Serif" font-size="10.00">BaseParam</text>
</a>
</g>
</g>
<!-- Node3&#45;&gt;Node2 -->
<g id="edge2" class="edge">
<title>Node3&#45;&gt;Node2</title>
<path fill="none" stroke="#9a32cd" stroke-dasharray="5,2" d="M89.59,-136.83C95.17,-124.35 101.84,-109.44 106.63,-98.73"/>
<polygon fill="#9a32cd" stroke="#9a32cd" points="86.28,-135.65 85.4,-146.2 92.67,-138.51 86.28,-135.65"/>
<text text-anchor="middle" x="122" y="-120" font-family="Helvetica,sans-Serif" font-size="10.00"> params_</text>
</g>
<!-- Node4 -->
<g id="node4" class="node">
<title>Node4</title>
<g id="a_node4"><a xlink:href="classbeluga_1_1ValueGrid2.html" target="_top" xlink:title=" ">
<polygon fill="none" stroke="black" points="176.5,-146.5 176.5,-176.5 285.5,-176.5 285.5,-146.5 176.5,-146.5"/>
<text text-anchor="start" x="184.5" y="-164.5" font-family="Helvetica,sans-Serif" font-size="10.00">beluga::ValueGrid2</text>
<text text-anchor="middle" x="231" y="-153.5" font-family="Helvetica,sans-Serif" font-size="10.00">&lt; float &gt;</text>
</a>
</g>
</g>
<!-- Node4&#45;&gt;Node2 -->
<g id="edge3" class="edge">
<title>Node4&#45;&gt;Node2</title>
<path fill="none" stroke="#9a32cd" stroke-dasharray="5,2" d="M200.67,-140.97C180.07,-127.7 153.31,-110.46 134.8,-98.54"/>
<polygon fill="#9a32cd" stroke="#9a32cd" points="198.78,-143.91 209.08,-146.38 202.57,-138.03 198.78,-143.91"/>
<text text-anchor="middle" x="220" y="-120" font-family="Helvetica,sans-Serif" font-size="10.00"> likelihood_field_</text>
</g>
<!-- Node5 -->
<g id="node5" class="node">
<title>Node5</title>
<g id="a_node5"><a xlink:href="classbeluga_1_1BaseLinearGrid2.html" target="_top" xlink:title="Linear 2D grid base type.">
<polygon fill="none" stroke="black" points="163,-214.5 163,-244.5 299,-244.5 299,-214.5 163,-214.5"/>
<text text-anchor="start" x="171" y="-232.5" font-family="Helvetica,sans-Serif" font-size="10.00">beluga::BaseLinearGrid2</text>
<text text-anchor="middle" x="231" y="-221.5" font-family="Helvetica,sans-Serif" font-size="10.00">&lt; Derived &gt;</text>
</a>
</g>
</g>
<!-- Node5&#45;&gt;Node4 -->
<g id="edge4" class="edge">
<title>Node5&#45;&gt;Node4</title>
<path fill="none" stroke="midnightblue" d="M231,-204.03C231,-194.86 231,-184.74 231,-176.79"/>
<polygon fill="midnightblue" stroke="midnightblue" points="227.5,-204.18 231,-214.18 234.5,-204.18 227.5,-204.18"/>
</g>
<!-- Node6 -->
<g id="node6" class="node">
<title>Node6</title>
<g id="a_node6"><a xlink:href="classbeluga_1_1BaseDenseGrid2.html" target="_top" xlink:title="Dense 2D grid base type.">
<polygon fill="none" stroke="black" points="162.5,-282.5 162.5,-312.5 299.5,-312.5 299.5,-282.5 162.5,-282.5"/>
<text text-anchor="start" x="170.5" y="-300.5" font-family="Helvetica,sans-Serif" font-size="10.00">beluga::BaseDenseGrid2</text>
<text text-anchor="middle" x="231" y="-289.5" font-family="Helvetica,sans-Serif" font-size="10.00">&lt; Derived &gt;</text>
</a>
</g>
</g>
<!-- Node6&#45;&gt;Node5 -->
<g id="edge5" class="edge">
<title>Node6&#45;&gt;Node5</title>
<path fill="none" stroke="midnightblue" d="M231,-272.03C231,-262.86 231,-252.74 231,-244.79"/>
<polygon fill="midnightblue" stroke="midnightblue" points="227.5,-272.18 231,-282.18 234.5,-272.18 227.5,-272.18"/>
</g>
<!-- Node7 -->
<g id="node7" class="node">
<title>Node7</title>
<g id="a_node7"><a xlink:href="classbeluga_1_1BaseRegularGrid.html" target="_top" xlink:title="Regularly spaced N dimensional grid base type.">
<polygon fill="none" stroke="black" points="148.5,-350.5 148.5,-369.5 313.5,-369.5 313.5,-350.5 148.5,-350.5"/>
<text text-anchor="middle" x="231" y="-357.5" font-family="Helvetica,sans-Serif" font-size="10.00">BaseRegularGrid2&lt; Derived &gt;</text>
</a>
</g>
</g>
<!-- Node7&#45;&gt;Node6 -->
<g id="edge6" class="edge">
<title>Node7&#45;&gt;Node6</title>
<path fill="none" stroke="midnightblue" d="M231,-340.22C231,-331.36 231,-320.96 231,-312.76"/>
<polygon fill="midnightblue" stroke="midnightblue" points="227.5,-340.33 231,-350.33 234.5,-340.33 227.5,-340.33"/>
</g>
<!-- Node8 -->
<g id="node8" class="node">
<title>Node8</title>
<g id="a_node8"><a xlink:href="structbeluga_1_1enable__self.html" target="_top" xlink:title=" ">
<polygon fill="none" stroke="black" points="175,-407.5 175,-437.5 287,-437.5 287,-407.5 175,-407.5"/>
<text text-anchor="start" x="183" y="-425.5" font-family="Helvetica,sans-Serif" font-size="10.00">beluga::enable_self</text>
<text text-anchor="middle" x="231" y="-414.5" font-family="Helvetica,sans-Serif" font-size="10.00">&lt; Derived &gt;</text>
</a>
</g>
</g>
<!-- Node8&#45;&gt;Node7 -->
<g id="edge7" class="edge">
<title>Node8&#45;&gt;Node7</title>
<path fill="none" stroke="midnightblue" d="M231,-397.35C231,-387.51 231,-376.78 231,-369.54"/>
<polygon fill="midnightblue" stroke="midnightblue" points="227.5,-397.47 231,-407.47 234.5,-397.47 227.5,-397.47"/>
</g>
</g>
</svg>
