<?xml version="1.0" encoding="UTF-8" standalone="no"?>
<!DOCTYPE svg PUBLIC "-//W3C//DTD SVG 1.1//EN"
 "http://www.w3.org/Graphics/SVG/1.1/DTD/svg11.dtd">
<!-- Generated by graphviz version 2.43.0 (0)
 -->
<!-- Title: beluga::SparseValueGrid&lt; MapType, NDim &gt; Pages: 1 -->
<svg width="174pt" height="195pt"
 viewBox="0.00 0.00 174.00 195.00" xmlns="http://www.w3.org/2000/svg" xmlns:xlink="http://www.w3.org/1999/xlink">
<g id="graph0" class="graph" transform="scale(1 1) rotate(0) translate(4 191)">
<title>beluga::SparseValueGrid&lt; MapType, NDim &gt;</title>
<!-- Node1 -->
<g id="node1" class="node">
<title>Node1</title>
<g id="a_node1"><a xlink:title="Generic N dimensional sparse value regular grid.">
<polygon fill="#bfbfbf" stroke="black" points="15,-0.5 15,-30.5 151,-30.5 151,-0.5 15,-0.5"/>
<text text-anchor="start" x="23" y="-18.5" font-family="Helvetica,sans-Serif" font-size="10.00">beluga::SparseValueGrid</text>
<text text-anchor="middle" x="83" y="-7.5" font-family="Helvetica,sans-Serif" font-size="10.00">&lt; MapType, NDim &gt;</text>
</a>
</g>
</g>
<!-- Node2 -->
<g id="node2" class="node">
<title>Node2</title>
<g id="a_node2"><a xlink:href="classbeluga_1_1BaseRegularGrid.html" target="_top" xlink:title=" ">
<polygon fill="none" stroke="black" points="0,-67.5 0,-108.5 166,-108.5 166,-67.5 0,-67.5"/>
<text text-anchor="start" x="8" y="-96.5" font-family="Helvetica,sans-Serif" font-size="10.00">beluga::BaseRegularGrid</text>
<text text-anchor="start" x="8" y="-85.5" font-family="Helvetica,sans-Serif" font-size="10.00">&lt; SparseValueGrid&lt; MapType,</text>
<text text-anchor="middle" x="83" y="-74.5" font-family="Helvetica,sans-Serif" font-size="10.00"> NDim &gt;, NDim &gt;</text>
</a>
</g>
</g>
<!-- Node2&#45;&gt;Node1 -->
<g id="edge1" class="edge">
<title>Node2&#45;&gt;Node1</title>
<path fill="none" stroke="midnightblue" d="M83,-57.08C83,-48.01 83,-38.45 83,-30.89"/>
<polygon fill="midnightblue" stroke="midnightblue" points="79.5,-57.36 83,-67.36 86.5,-57.36 79.5,-57.36"/>
</g>
<!-- Node3 -->
<g id="node3" class="node">
<title>Node3</title>
<g id="a_node3"><a xlink:title=" ">
<polygon fill="none" stroke="#bfbfbf" points="18.5,-145.5 18.5,-186.5 147.5,-186.5 147.5,-145.5 18.5,-145.5"/>
<text text-anchor="start" x="26.5" y="-174.5" font-family="Helvetica,sans-Serif" font-size="10.00">ciabatta::ciabatta</text>
<text text-anchor="start" x="26.5" y="-163.5" font-family="Helvetica,sans-Serif" font-size="10.00">_top&lt; SparseValueGrid</text>
<text text-anchor="middle" x="83" y="-152.5" font-family="Helvetica,sans-Serif" font-size="10.00">&lt; MapType, NDim &gt; &gt;</text>
</a>
</g>
</g>
<!-- Node3&#45;&gt;Node2 -->
<g id="edge2" class="edge">
<title>Node3&#45;&gt;Node2</title>
<path fill="none" stroke="midnightblue" d="M83,-135.3C83,-126.3 83,-116.65 83,-108.51"/>
<polygon fill="midnightblue" stroke="midnightblue" points="79.5,-135.43 83,-145.43 86.5,-135.43 79.5,-135.43"/>
</g>
</g>
</svg>
