<?xml version="1.0" encoding="UTF-8" standalone="no"?>
<!DOCTYPE svg PUBLIC "-//W3C//DTD SVG 1.1//EN"
 "http://www.w3.org/Graphics/SVG/1.1/DTD/svg11.dtd">
<!-- Generated by graphviz version 2.43.0 (0)
 -->
<!-- Title: beluga::BaseDenseGrid2&lt; Derived &gt; Pages: 1 -->
<svg width="173pt" height="162pt"
 viewBox="0.00 0.00 173.00 162.00" xmlns="http://www.w3.org/2000/svg" xmlns:xlink="http://www.w3.org/1999/xlink">
<g id="graph0" class="graph" transform="scale(1 1) rotate(0) translate(4 158)">
<title>beluga::BaseDenseGrid2&lt; Derived &gt;</title>
<!-- Node1 -->
<g id="node1" class="node">
<title>Node1</title>
<g id="a_node1"><a xlink:title="Dense 2D grid base type.">
<polygon fill="#bfbfbf" stroke="black" points="14,-0.5 14,-30.5 151,-30.5 151,-0.5 14,-0.5"/>
<text text-anchor="start" x="22" y="-18.5" font-family="Helvetica,sans-Serif" font-size="10.00">beluga::BaseDenseGrid2</text>
<text text-anchor="middle" x="82.5" y="-7.5" font-family="Helvetica,sans-Serif" font-size="10.00">&lt; Derived &gt;</text>
</a>
</g>
</g>
<!-- Node2 -->
<g id="node2" class="node">
<title>Node2</title>
<g id="a_node2"><a xlink:href="classbeluga_1_1BaseRegularGrid.html" target="_top" xlink:title="Regularly spaced N dimensional grid base type.">
<polygon fill="none" stroke="black" points="0,-67.5 0,-86.5 165,-86.5 165,-67.5 0,-67.5"/>
<text text-anchor="middle" x="82.5" y="-74.5" font-family="Helvetica,sans-Serif" font-size="10.00">BaseRegularGrid2&lt; Derived &gt;</text>
</a>
</g>
</g>
<!-- Node2&#45;&gt;Node1 -->
<g id="edge1" class="edge">
<title>Node2&#45;&gt;Node1</title>
<path fill="none" stroke="midnightblue" d="M82.5,-57.23C82.5,-48.59 82.5,-38.5 82.5,-30.52"/>
<polygon fill="midnightblue" stroke="midnightblue" points="79,-57.48 82.5,-67.48 86,-57.48 79,-57.48"/>
</g>
<!-- Node3 -->
<g id="node3" class="node">
<title>Node3</title>
<g id="a_node3"><a xlink:href="structbeluga_1_1enable__self.html" target="_top" xlink:title=" ">
<polygon fill="none" stroke="black" points="26.5,-123.5 26.5,-153.5 138.5,-153.5 138.5,-123.5 26.5,-123.5"/>
<text text-anchor="start" x="34.5" y="-141.5" font-family="Helvetica,sans-Serif" font-size="10.00">beluga::enable_self</text>
<text text-anchor="middle" x="82.5" y="-130.5" font-family="Helvetica,sans-Serif" font-size="10.00">&lt; Derived &gt;</text>
</a>
</g>
</g>
<!-- Node3&#45;&gt;Node2 -->
<g id="edge2" class="edge">
<title>Node3&#45;&gt;Node2</title>
<path fill="none" stroke="midnightblue" d="M82.5,-113.29C82.5,-103.86 82.5,-93.65 82.5,-86.66"/>
<polygon fill="midnightblue" stroke="midnightblue" points="79,-113.4 82.5,-123.4 86,-113.4 79,-113.4"/>
</g>
</g>
</svg>
