<?xml version="1.0" encoding="UTF-8" standalone="no"?>
<!DOCTYPE svg PUBLIC "-//W3C//DTD SVG 1.1//EN"
 "http://www.w3.org/Graphics/SVG/1.1/DTD/svg11.dtd">
<!-- Generated by graphviz version 2.43.0 (0)
 -->
<!-- Title: beluga::BaseDenseGrid2&lt; Derived &gt; Pages: 1 -->
<!--zoomable 134 -->
<svg id="main" version="1.1" xmlns="http://www.w3.org/2000/svg" xmlns:xlink="http://www.w3.org/1999/xlink" xml:space="preserve" onload="init(evt)">
<style type="text/css"><![CDATA[
.edge:hover path { stroke: red; }
.edge:hover polygon { stroke: red; fill: red; }
]]></style>
<script type="text/javascript"><![CDATA[
var edges = document.getElementsByTagName('g');
if (edges && edges.length) {
  for (var i=0;i<edges.length;i++) {
    if (edges[i].id.substr(0,4)=='edge') {
      edges[i].setAttribute('class','edge');
    }
  }
}
]]></script>
        <defs>
                <circle id="rim" cx="0" cy="0" r="7"/>
                <circle id="rim2" cx="0" cy="0" r="3.5"/>
                <g id="zoomPlus">
                        <use xlink:href="#rim" fill="#404040">
                                <set attributeName="fill" to="#808080" begin="zoomplus.mouseover" end="zoomplus.mouseout"/>
                        </use>
                        <path d="M-4,0h8M0,-4v8" fill="none" stroke="white" stroke-width="1.5" pointer-events="none"/>
                </g>
                <g id="zoomMin">
                        <use xlink:href="#rim" fill="#404040">
                                <set attributeName="fill" to="#808080" begin="zoomminus.mouseover" end="zoomminus.mouseout"/>
                        </use>
                        <path d="M-4,0h8" fill="none" stroke="white" stroke-width="1.5" pointer-events="none"/>
                </g>
                <g id="dirArrow">
                        <path fill="none" stroke="white" stroke-width="1.5" d="M0,-3.0v7 M-2.5,-0.5L0,-3.0L2.5,-0.5"/>
                </g>
               <g id="resetDef">
                       <use xlink:href="#rim2" fill="#404040">
                               <set attributeName="fill" to="#808080" begin="reset.mouseover" end="reset.mouseout"/>
                       </use>
               </g>
        </defs>

<script type="text/javascript">
var viewWidth = 861;
var viewHeight = 134;
var sectionId = 'dynsection-0';
</script>
<script xlink:href="svgpan.js"/>
<svg id="graph" class="graph">
<g id="viewport">
<title>beluga::BaseDenseGrid2&lt; Derived &gt;</title>
<!-- Node1 -->
<g id="node1" class="node">
<title>Node1</title>
<g id="a_node1"><a xlink:title="Dense 2D grid base type.">
<polygon fill="#bfbfbf" stroke="black" points="349,-70.5 349,-100.5 486,-100.5 486,-70.5 349,-70.5"/>
<text text-anchor="start" x="357" y="-88.5" font-family="Helvetica,sans-Serif" font-size="10.00">beluga::BaseDenseGrid2</text>
<text text-anchor="middle" x="417.5" y="-77.5" font-family="Helvetica,sans-Serif" font-size="10.00">&lt; Derived &gt;</text>
</a>
</g>
</g>
<!-- Node4 -->
<g id="node4" class="node">
<title>Node4</title>
<g id="a_node4"><a xlink:href="classbeluga_1_1BaseLinearGrid2.html" target="_top" xlink:title=" ">
<polygon fill="none" stroke="black" points="522,-95.5 522,-125.5 658,-125.5 658,-95.5 522,-95.5"/>
<text text-anchor="start" x="530" y="-113.5" font-family="Helvetica,sans-Serif" font-size="10.00">beluga::BaseLinearGrid2</text>
<text text-anchor="middle" x="590" y="-102.5" font-family="Helvetica,sans-Serif" font-size="10.00">&lt; ValueGrid2&lt; T &gt; &gt;</text>
</a>
</g>
</g>
<!-- Node1&#45;&gt;Node4 -->
<g id="edge3" class="edge">
<title>Node1&#45;&gt;Node4</title>
<path fill="none" stroke="midnightblue" d="M496.34,-96.91C504.88,-98.17 513.52,-99.43 521.91,-100.66"/>
<polygon fill="midnightblue" stroke="midnightblue" points="496.78,-93.44 486.38,-95.45 495.76,-100.37 496.78,-93.44"/>
</g>
<!-- Node6 -->
<g id="node6" class="node">
<title>Node6</title>
<g id="a_node6"><a xlink:href="classbeluga_1_1BaseLinearGrid2.html" target="_top" xlink:title="Linear 2D grid base type.">
<polygon fill="none" stroke="black" points="522,-46.5 522,-76.5 658,-76.5 658,-46.5 522,-46.5"/>
<text text-anchor="start" x="530" y="-64.5" font-family="Helvetica,sans-Serif" font-size="10.00">beluga::BaseLinearGrid2</text>
<text text-anchor="middle" x="590" y="-53.5" font-family="Helvetica,sans-Serif" font-size="10.00">&lt; Derived &gt;</text>
</a>
</g>
</g>
<!-- Node1&#45;&gt;Node6 -->
<g id="edge5" class="edge">
<title>Node1&#45;&gt;Node6</title>
<path fill="none" stroke="midnightblue" d="M496.34,-74.54C504.88,-73.34 513.52,-72.12 521.91,-70.94"/>
<polygon fill="midnightblue" stroke="midnightblue" points="495.79,-71.09 486.38,-75.95 496.77,-78.02 495.79,-71.09"/>
</g>
<!-- Node2 -->
<g id="node2" class="node">
<title>Node2</title>
<g id="a_node2"><a xlink:href="classbeluga_1_1BaseRegularGrid.html" target="_top" xlink:title="Regularly spaced N dimensional grid base type.">
<polygon fill="none" stroke="black" points="148,-76 148,-95 313,-95 313,-76 148,-76"/>
<text text-anchor="middle" x="230.5" y="-83" font-family="Helvetica,sans-Serif" font-size="10.00">BaseRegularGrid2&lt; Derived &gt;</text>
</a>
</g>
</g>
<!-- Node2&#45;&gt;Node1 -->
<g id="edge1" class="edge">
<title>Node2&#45;&gt;Node1</title>
<path fill="none" stroke="midnightblue" d="M323.27,-85.5C331.88,-85.5 340.49,-85.5 348.82,-85.5"/>
<polygon fill="midnightblue" stroke="midnightblue" points="323.18,-82 313.18,-85.5 323.18,-89 323.18,-82"/>
</g>
<!-- Node3 -->
<g id="node3" class="node">
<title>Node3</title>
<g id="a_node3"><a xlink:href="structbeluga_1_1enable__self.html" target="_top" xlink:title=" ">
<polygon fill="none" stroke="black" points="0,-70.5 0,-100.5 112,-100.5 112,-70.5 0,-70.5"/>
<text text-anchor="start" x="8" y="-88.5" font-family="Helvetica,sans-Serif" font-size="10.00">beluga::enable_self</text>
<text text-anchor="middle" x="56" y="-77.5" font-family="Helvetica,sans-Serif" font-size="10.00">&lt; Derived &gt;</text>
</a>
</g>
</g>
<!-- Node3&#45;&gt;Node2 -->
<g id="edge2" class="edge">
<title>Node3&#45;&gt;Node2</title>
<path fill="none" stroke="midnightblue" d="M122.16,-85.5C130.58,-85.5 139.29,-85.5 147.93,-85.5"/>
<polygon fill="midnightblue" stroke="midnightblue" points="122.05,-82 112.05,-85.5 122.05,-89 122.05,-82"/>
</g>
<!-- Node5 -->
<g id="node5" class="node">
<title>Node5</title>
<g id="a_node5"><a xlink:href="classbeluga_1_1ValueGrid2.html" target="_top" xlink:title="Generic 2D linear value grid.">
<polygon fill="none" stroke="black" points="705,-101 705,-120 842,-120 842,-101 705,-101"/>
<text text-anchor="middle" x="773.5" y="-108" font-family="Helvetica,sans-Serif" font-size="10.00">beluga::ValueGrid2&lt; T &gt;</text>
</a>
</g>
</g>
<!-- Node4&#45;&gt;Node5 -->
<g id="edge4" class="edge">
<title>Node4&#45;&gt;Node5</title>
<path fill="none" stroke="midnightblue" d="M668.19,-110.5C680.36,-110.5 692.87,-110.5 704.8,-110.5"/>
<polygon fill="midnightblue" stroke="midnightblue" points="668.07,-107 658.07,-110.5 668.07,-114 668.07,-107"/>
</g>
<!-- Node7 -->
<g id="node7" class="node">
<title>Node7</title>
<g id="a_node7"><a xlink:href="classbeluga_1_1ValueGrid2.html" target="_top" xlink:title=" ">
<polygon fill="none" stroke="black" points="719,-49.5 719,-79.5 828,-79.5 828,-49.5 719,-49.5"/>
<text text-anchor="start" x="727" y="-67.5" font-family="Helvetica,sans-Serif" font-size="10.00">beluga::ValueGrid2</text>
<text text-anchor="middle" x="773.5" y="-56.5" font-family="Helvetica,sans-Serif" font-size="10.00">&lt; float &gt;</text>
</a>
</g>
</g>
<!-- Node6&#45;&gt;Node7 -->
<g id="edge6" class="edge">
<title>Node6&#45;&gt;Node7</title>
<path fill="none" stroke="midnightblue" d="M668.5,-62.78C685.43,-63.06 702.98,-63.35 718.73,-63.61"/>
<polygon fill="midnightblue" stroke="midnightblue" points="668.12,-59.27 658.07,-62.61 668.01,-66.27 668.12,-59.27"/>
</g>
<!-- Node8 -->
<g id="node8" class="node">
<title>Node8</title>
<g id="a_node8"><a xlink:href="classbeluga_1_1BaseOccupancyGrid2.html" target="_top" xlink:title="Occupancy 2D grid base type.">
<polygon fill="none" stroke="black" points="694,-0.5 694,-30.5 853,-30.5 853,-0.5 694,-0.5"/>
<text text-anchor="start" x="702" y="-18.5" font-family="Helvetica,sans-Serif" font-size="10.00">beluga::BaseOccupancyGrid2</text>
<text text-anchor="middle" x="773.5" y="-7.5" font-family="Helvetica,sans-Serif" font-size="10.00">&lt; Derived &gt;</text>
</a>
</g>
</g>
<!-- Node6&#45;&gt;Node8 -->
<g id="edge7" class="edge">
<title>Node6&#45;&gt;Node8</title>
<path fill="none" stroke="midnightblue" d="M660.52,-43.88C677.91,-39.47 696.41,-34.79 713.25,-30.52"/>
<polygon fill="midnightblue" stroke="midnightblue" points="659.26,-40.59 650.43,-46.44 660.98,-47.37 659.26,-40.59"/>
</g>
</g>
</svg>
        <g id="navigator" transform="translate(0 0)" fill="#404254">
                <rect fill="#f2f5e9" fill-opacity="0.5" stroke="#606060" stroke-width=".5" x="0" y="0" width="60" height="60"/>
                <use id="zoomplus" xlink:href="#zoomPlus" x="17" y="9" onmousedown="handleZoom(evt,'in')"/>
                <use id="zoomminus" xlink:href="#zoomMin" x="42" y="9" onmousedown="handleZoom(evt,'out')"/>
                <use id="reset" xlink:href="#resetDef" x="30" y="36" onmousedown="handleReset()"/>
                <g id="arrowUp" xlink:href="#dirArrow" transform="translate(30 24)" onmousedown="handlePan(0,-1)">
                  <use xlink:href="#rim" fill="#404040">
                        <set attributeName="fill" to="#808080" begin="arrowUp.mouseover" end="arrowUp.mouseout"/>
                  </use>
                  <path fill="none" stroke="white" stroke-width="1.5" d="M0,-3.0v7 M-2.5,-0.5L0,-3.0L2.5,-0.5"/>
                </g>
                <g id="arrowRight" xlink:href="#dirArrow" transform="rotate(90) translate(36 -43)" onmousedown="handlePan(1,0)">
                  <use xlink:href="#rim" fill="#404040">
                        <set attributeName="fill" to="#808080" begin="arrowRight.mouseover" end="arrowRight.mouseout"/>
                  </use>
                  <path fill="none" stroke="white" stroke-width="1.5" d="M0,-3.0v7 M-2.5,-0.5L0,-3.0L2.5,-0.5"/>
                </g>
                <g id="arrowDown" xlink:href="#dirArrow" transform="rotate(180) translate(-30 -48)" onmousedown="handlePan(0,1)">
                  <use xlink:href="#rim" fill="#404040">
                        <set attributeName="fill" to="#808080" begin="arrowDown.mouseover" end="arrowDown.mouseout"/>
                  </use>
                  <path fill="none" stroke="white" stroke-width="1.5" d="M0,-3.0v7 M-2.5,-0.5L0,-3.0L2.5,-0.5"/>
                </g>
                <g id="arrowLeft" xlink:href="#dirArrow" transform="rotate(270) translate(-36 17)" onmousedown="handlePan(-1,0)">
                  <use xlink:href="#rim" fill="#404040">
                        <set attributeName="fill" to="#808080" begin="arrowLeft.mouseover" end="arrowLeft.mouseout"/>
                  </use>
                  <path fill="none" stroke="white" stroke-width="1.5" d="M0,-3.0v7 M-2.5,-0.5L0,-3.0L2.5,-0.5"/>
                </g>
        </g>
        <svg viewBox="0 0 15 15" width="100%" height="30px" preserveAspectRatio="xMaxYMin meet">
         <g id="arrow_out" transform="scale(0.3 0.3)">
          <a xlink:href="classbeluga_1_1BaseDenseGrid2__inherit__graph_org.svg" target="_base">
           <rect id="button" ry="5" rx="5" y="6" x="6" height="38" width="38"
                fill="#f2f5e9" fill-opacity="0.5" stroke="#606060" stroke-width="1.0"/>
           <path id="arrow"
             d="M 11.500037,31.436501 C 11.940474,20.09759 22.043105,11.32322 32.158766,21.979434 L 37.068811,17.246167 C 37.068811,17.246167 37.088388,32 37.088388,32 L 22.160133,31.978069 C 22.160133,31.978069 26.997745,27.140456 26.997745,27.140456 C 18.528582,18.264221 13.291696,25.230495 11.500037,31.436501 z"
             style="fill:#404040;"/>
          </a>
         </g>
        </svg>
</svg>
