<?xml version="1.0" encoding="UTF-8" standalone="no"?>
<!DOCTYPE svg PUBLIC "-//W3C//DTD SVG 1.1//EN"
 "http://www.w3.org/Graphics/SVG/1.1/DTD/svg11.dtd">
<!-- Generated by graphviz version 2.43.0 (0)
 -->
<!-- Title: beluga::BaseLinearGrid2&lt; Derived &gt; Pages: 1 -->
<svg width="294pt" height="296pt"
 viewBox="0.00 0.00 294.00 296.00" xmlns="http://www.w3.org/2000/svg" xmlns:xlink="http://www.w3.org/1999/xlink">
<g id="graph0" class="graph" transform="scale(1 1) rotate(0) translate(4 292)">
<title>beluga::BaseLinearGrid2&lt; Derived &gt;</title>
<!-- Node1 -->
<g id="node1" class="node">
<title>Node1</title>
<g id="a_node1"><a xlink:title="Linear 2D grid base type.">
<polygon fill="#bfbfbf" stroke="black" points="62.5,-67.5 62.5,-97.5 198.5,-97.5 198.5,-67.5 62.5,-67.5"/>
<text text-anchor="start" x="70.5" y="-85.5" font-family="Helvetica,sans-Serif" font-size="10.00">beluga::BaseLinearGrid2</text>
<text text-anchor="middle" x="130.5" y="-74.5" font-family="Helvetica,sans-Serif" font-size="10.00">&lt; Derived &gt;</text>
</a>
</g>
</g>
<!-- Node5 -->
<g id="node5" class="node">
<title>Node5</title>
<g id="a_node5"><a xlink:href="classbeluga_1_1ValueGrid2.html" target="_top" xlink:title=" ">
<polygon fill="none" stroke="black" points="0,-0.5 0,-30.5 109,-30.5 109,-0.5 0,-0.5"/>
<text text-anchor="start" x="8" y="-18.5" font-family="Helvetica,sans-Serif" font-size="10.00">beluga::ValueGrid2</text>
<text text-anchor="middle" x="54.5" y="-7.5" font-family="Helvetica,sans-Serif" font-size="10.00">&lt; double &gt;</text>
</a>
</g>
</g>
<!-- Node1&#45;&gt;Node5 -->
<g id="edge4" class="edge">
<title>Node1&#45;&gt;Node5</title>
<path fill="none" stroke="midnightblue" d="M106.39,-60.88C94.84,-51.01 81.31,-39.43 70.96,-30.58"/>
<polygon fill="midnightblue" stroke="midnightblue" points="104.13,-63.56 114.01,-67.4 108.68,-58.24 104.13,-63.56"/>
</g>
<!-- Node6 -->
<g id="node6" class="node">
<title>Node6</title>
<g id="a_node6"><a xlink:href="classbeluga_1_1BaseOccupancyGrid2.html" target="_top" xlink:title="Occupancy 2D grid base type.">
<polygon fill="none" stroke="black" points="127,-0.5 127,-30.5 286,-30.5 286,-0.5 127,-0.5"/>
<text text-anchor="start" x="135" y="-18.5" font-family="Helvetica,sans-Serif" font-size="10.00">beluga::BaseOccupancyGrid2</text>
<text text-anchor="middle" x="206.5" y="-7.5" font-family="Helvetica,sans-Serif" font-size="10.00">&lt; Derived &gt;</text>
</a>
</g>
</g>
<!-- Node1&#45;&gt;Node6 -->
<g id="edge5" class="edge">
<title>Node1&#45;&gt;Node6</title>
<path fill="none" stroke="midnightblue" d="M154.61,-60.88C166.16,-51.01 179.69,-39.43 190.04,-30.58"/>
<polygon fill="midnightblue" stroke="midnightblue" points="152.32,-58.24 146.99,-67.4 156.87,-63.56 152.32,-58.24"/>
</g>
<!-- Node2 -->
<g id="node2" class="node">
<title>Node2</title>
<g id="a_node2"><a xlink:href="classbeluga_1_1BaseDenseGrid2.html" target="_top" xlink:title="Dense 2D grid base type.">
<polygon fill="none" stroke="black" points="62,-134.5 62,-164.5 199,-164.5 199,-134.5 62,-134.5"/>
<text text-anchor="start" x="70" y="-152.5" font-family="Helvetica,sans-Serif" font-size="10.00">beluga::BaseDenseGrid2</text>
<text text-anchor="middle" x="130.5" y="-141.5" font-family="Helvetica,sans-Serif" font-size="10.00">&lt; Derived &gt;</text>
</a>
</g>
</g>
<!-- Node2&#45;&gt;Node1 -->
<g id="edge1" class="edge">
<title>Node2&#45;&gt;Node1</title>
<path fill="none" stroke="midnightblue" d="M130.5,-124.11C130.5,-115.15 130.5,-105.32 130.5,-97.58"/>
<polygon fill="midnightblue" stroke="midnightblue" points="127,-124.4 130.5,-134.4 134,-124.4 127,-124.4"/>
</g>
<!-- Node3 -->
<g id="node3" class="node">
<title>Node3</title>
<g id="a_node3"><a xlink:href="classbeluga_1_1BaseRegularGrid.html" target="_top" xlink:title="Regularly spaced N dimensional grid base type.">
<polygon fill="none" stroke="black" points="48,-201.5 48,-220.5 213,-220.5 213,-201.5 48,-201.5"/>
<text text-anchor="middle" x="130.5" y="-208.5" font-family="Helvetica,sans-Serif" font-size="10.00">BaseRegularGrid2&lt; Derived &gt;</text>
</a>
</g>
</g>
<!-- Node3&#45;&gt;Node2 -->
<g id="edge2" class="edge">
<title>Node3&#45;&gt;Node2</title>
<path fill="none" stroke="midnightblue" d="M130.5,-191.23C130.5,-182.59 130.5,-172.5 130.5,-164.52"/>
<polygon fill="midnightblue" stroke="midnightblue" points="127,-191.48 130.5,-201.48 134,-191.48 127,-191.48"/>
</g>
<!-- Node4 -->
<g id="node4" class="node">
<title>Node4</title>
<g id="a_node4"><a xlink:title=" ">
<polygon fill="none" stroke="#bfbfbf" points="79.5,-257.5 79.5,-287.5 181.5,-287.5 181.5,-257.5 79.5,-257.5"/>
<text text-anchor="start" x="87.5" y="-275.5" font-family="Helvetica,sans-Serif" font-size="10.00">ciabatta::ciabatta</text>
<text text-anchor="middle" x="130.5" y="-264.5" font-family="Helvetica,sans-Serif" font-size="10.00">_top&lt; Derived &gt;</text>
</a>
</g>
</g>
<!-- Node4&#45;&gt;Node3 -->
<g id="edge3" class="edge">
<title>Node4&#45;&gt;Node3</title>
<path fill="none" stroke="midnightblue" d="M130.5,-247.29C130.5,-237.86 130.5,-227.65 130.5,-220.66"/>
<polygon fill="midnightblue" stroke="midnightblue" points="127,-247.4 130.5,-257.4 134,-247.4 127,-247.4"/>
</g>
</g>
</svg>
