<?xml version="1.0" encoding="UTF-8" standalone="no"?>
<!DOCTYPE svg PUBLIC "-//W3C//DTD SVG 1.1//EN"
 "http://www.w3.org/Graphics/SVG/1.1/DTD/svg11.dtd">
<!-- Generated by graphviz version 2.43.0 (0)
 -->
<!-- Title: /home/runner/work/beluga/beluga/beluga/include/beluga/algorithm/cluster_based_estimation.hpp Pages: 1 -->
<!--zoomable 195 -->
<svg id="main" version="1.1" xmlns="http://www.w3.org/2000/svg" xmlns:xlink="http://www.w3.org/1999/xlink" xml:space="preserve" onload="init(evt)">
<style type="text/css"><![CDATA[
.edge:hover path { stroke: red; }
.edge:hover polygon { stroke: red; fill: red; }
]]></style>
<script type="text/javascript"><![CDATA[
var edges = document.getElementsByTagName('g');
if (edges && edges.length) {
  for (var i=0;i<edges.length;i++) {
    if (edges[i].id.substr(0,4)=='edge') {
      edges[i].setAttribute('class','edge');
    }
  }
}
]]></script>
        <defs>
                <circle id="rim" cx="0" cy="0" r="7"/>
                <circle id="rim2" cx="0" cy="0" r="3.5"/>
                <g id="zoomPlus">
                        <use xlink:href="#rim" fill="#404040">
                                <set attributeName="fill" to="#808080" begin="zoomplus.mouseover" end="zoomplus.mouseout"/>
                        </use>
                        <path d="M-4,0h8M0,-4v8" fill="none" stroke="white" stroke-width="1.5" pointer-events="none"/>
                </g>
                <g id="zoomMin">
                        <use xlink:href="#rim" fill="#404040">
                                <set attributeName="fill" to="#808080" begin="zoomminus.mouseover" end="zoomminus.mouseout"/>
                        </use>
                        <path d="M-4,0h8" fill="none" stroke="white" stroke-width="1.5" pointer-events="none"/>
                </g>
                <g id="dirArrow">
                        <path fill="none" stroke="white" stroke-width="1.5" d="M0,-3.0v7 M-2.5,-0.5L0,-3.0L2.5,-0.5"/>
                </g>
               <g id="resetDef">
                       <use xlink:href="#rim2" fill="#404040">
                               <set attributeName="fill" to="#808080" begin="reset.mouseover" end="reset.mouseout"/>
                       </use>
               </g>
        </defs>

<script type="text/javascript">
var viewWidth = 2530;
var viewHeight = 195;
var sectionId = 'dynsection-0';
</script>
<script xlink:href="svgpan.js"/>
<svg id="graph" class="graph">
<g id="viewport">
<title>/home/runner/work/beluga/beluga/beluga/include/beluga/algorithm/cluster_based_estimation.hpp</title>
<!-- Node1 -->
<g id="node1" class="node">
<title>Node1</title>
<g id="a_node1"><a xlink:title="Implementation of a cluster&#45;based estimation algorithm.">
<polygon fill="#bfbfbf" stroke="black" points="1021,-134.5 1021,-186.5 1166,-186.5 1166,-134.5 1021,-134.5"/>
<text text-anchor="start" x="1029" y="-174.5" font-family="Helvetica,sans-Serif" font-size="10.00">/home/runner/work/beluga</text>
<text text-anchor="start" x="1029" y="-163.5" font-family="Helvetica,sans-Serif" font-size="10.00">/beluga/beluga/include</text>
<text text-anchor="start" x="1029" y="-152.5" font-family="Helvetica,sans-Serif" font-size="10.00">/beluga/algorithm/cluster</text>
<text text-anchor="middle" x="1093.5" y="-141.5" font-family="Helvetica,sans-Serif" font-size="10.00">_based_estimation.hpp</text>
</a>
</g>
</g>
<!-- Node2 -->
<g id="node2" class="node">
<title>Node2</title>
<g id="a_node2"><a xlink:title=" ">
<polygon fill="none" stroke="#bfbfbf" points="290,-73 290,-92 355,-92 355,-73 290,-73"/>
<text text-anchor="middle" x="322.5" y="-80" font-family="Helvetica,sans-Serif" font-size="10.00">functional</text>
</a>
</g>
</g>
<!-- Node1&#45;&gt;Node2 -->
<g id="edge1" class="edge">
<title>Node1&#45;&gt;Node2</title>
<path fill="none" stroke="midnightblue" d="M1020.98,-159.31C888.94,-157.65 601.07,-148 364.5,-98 361,-97.26 357.38,-96.31 353.82,-95.25"/>
<polygon fill="midnightblue" stroke="midnightblue" points="354.6,-91.83 344.01,-92.07 352.44,-98.49 354.6,-91.83"/>
</g>
<!-- Node3 -->
<g id="node3" class="node">
<title>Node3</title>
<g id="a_node3"><a xlink:title=" ">
<polygon fill="none" stroke="#bfbfbf" points="373.5,-73 373.5,-92 429.5,-92 429.5,-73 373.5,-73"/>
<text text-anchor="middle" x="401.5" y="-80" font-family="Helvetica,sans-Serif" font-size="10.00">optional</text>
</a>
</g>
</g>
<!-- Node1&#45;&gt;Node3 -->
<g id="edge2" class="edge">
<title>Node1&#45;&gt;Node3</title>
<path fill="none" stroke="midnightblue" d="M1020.86,-159.04C899.07,-156.87 646.63,-146.31 439.5,-98 436.5,-97.3 433.42,-96.42 430.38,-95.44"/>
<polygon fill="midnightblue" stroke="midnightblue" points="431.5,-92.12 420.91,-92.06 429.15,-98.72 431.5,-92.12"/>
</g>
<!-- Node4 -->
<g id="node4" class="node">
<title>Node4</title>
<g id="a_node4"><a xlink:title=" ">
<polygon fill="none" stroke="#bfbfbf" points="448,-73 448,-92 495,-92 495,-73 448,-73"/>
<text text-anchor="middle" x="471.5" y="-80" font-family="Helvetica,sans-Serif" font-size="10.00">queue</text>
</a>
</g>
</g>
<!-- Node1&#45;&gt;Node4 -->
<g id="edge3" class="edge">
<title>Node1&#45;&gt;Node4</title>
<path fill="none" stroke="midnightblue" d="M1020.58,-159.09C907.99,-156.85 685.87,-146.06 504.5,-98 502.2,-97.39 499.86,-96.64 497.54,-95.81"/>
<polygon fill="midnightblue" stroke="midnightblue" points="498.85,-92.57 488.26,-92.06 496.22,-99.06 498.85,-92.57"/>
</g>
<!-- Node5 -->
<g id="node5" class="node">
<title>Node5</title>
<g id="a_node5"><a xlink:title=" ">
<polygon fill="none" stroke="#bfbfbf" points="513,-73 513,-92 606,-92 606,-73 513,-73"/>
<text text-anchor="middle" x="559.5" y="-80" font-family="Helvetica,sans-Serif" font-size="10.00">unordered_map</text>
</a>
</g>
</g>
<!-- Node1&#45;&gt;Node5 -->
<g id="edge4" class="edge">
<title>Node1&#45;&gt;Node5</title>
<path fill="none" stroke="midnightblue" d="M1020.61,-152.4C927.4,-142.78 761.21,-123.8 620.5,-98 614.67,-96.93 608.56,-95.66 602.55,-94.32"/>
<polygon fill="midnightblue" stroke="midnightblue" points="603.14,-90.87 592.61,-92.03 601.57,-97.69 603.14,-90.87"/>
</g>
<!-- Node6 -->
<g id="node6" class="node">
<title>Node6</title>
<g id="a_node6"><a xlink:title=" ">
<polygon fill="none" stroke="#bfbfbf" points="1128,-6 1128,-25 1173,-25 1173,-6 1128,-6"/>
<text text-anchor="middle" x="1150.5" y="-13" font-family="Helvetica,sans-Serif" font-size="10.00">utility</text>
</a>
</g>
</g>
<!-- Node1&#45;&gt;Node6 -->
<g id="edge5" class="edge">
<title>Node1&#45;&gt;Node6</title>
<path fill="none" stroke="midnightblue" d="M1020.8,-138.26C978.26,-122.08 937.26,-97.42 961.5,-67 1006.11,-11.01 1050.67,-53.89 1118.5,-31 1120.17,-30.44 1121.87,-29.82 1123.57,-29.16"/>
<polygon fill="midnightblue" stroke="midnightblue" points="1125.29,-32.23 1133.15,-25.12 1122.57,-25.78 1125.29,-32.23"/>
</g>
<!-- Node7 -->
<g id="node7" class="node">
<title>Node7</title>
<g id="a_node7"><a xlink:title=" ">
<polygon fill="none" stroke="#bfbfbf" points="1125,-73 1125,-92 1172,-92 1172,-73 1125,-73"/>
<text text-anchor="middle" x="1148.5" y="-80" font-family="Helvetica,sans-Serif" font-size="10.00">vector</text>
</a>
</g>
</g>
<!-- Node1&#45;&gt;Node7 -->
<g id="edge6" class="edge">
<title>Node1&#45;&gt;Node7</title>
<path fill="none" stroke="midnightblue" d="M1111.81,-134.19C1119.85,-123.08 1129.08,-110.34 1136.26,-100.41"/>
<polygon fill="midnightblue" stroke="midnightblue" points="1139.17,-102.36 1142.2,-92.21 1133.5,-98.26 1139.17,-102.36"/>
</g>
<!-- Node8 -->
<g id="node8" class="node">
<title>Node8</title>
<g id="a_node8"><a xlink:title=" ">
<polygon fill="none" stroke="#bfbfbf" points="1190.5,-67.5 1190.5,-97.5 1300.5,-97.5 1300.5,-67.5 1190.5,-67.5"/>
<text text-anchor="start" x="1198.5" y="-85.5" font-family="Helvetica,sans-Serif" font-size="10.00">range/v3/algorithm</text>
<text text-anchor="middle" x="1245.5" y="-74.5" font-family="Helvetica,sans-Serif" font-size="10.00">/max_element.hpp</text>
</a>
</g>
</g>
<!-- Node1&#45;&gt;Node8 -->
<g id="edge7" class="edge">
<title>Node1&#45;&gt;Node8</title>
<path fill="none" stroke="midnightblue" d="M1143.69,-134.4C1164.65,-123.93 1188.57,-111.96 1207.97,-102.27"/>
<polygon fill="midnightblue" stroke="midnightblue" points="1209.71,-105.31 1217.09,-97.71 1206.58,-99.05 1209.71,-105.31"/>
</g>
<!-- Node9 -->
<g id="node9" class="node">
<title>Node9</title>
<g id="a_node9"><a xlink:title=" ">
<polygon fill="none" stroke="#bfbfbf" points="1318.5,-67.5 1318.5,-97.5 1428.5,-97.5 1428.5,-67.5 1318.5,-67.5"/>
<text text-anchor="start" x="1326.5" y="-85.5" font-family="Helvetica,sans-Serif" font-size="10.00">range/v3/algorithm</text>
<text text-anchor="middle" x="1373.5" y="-74.5" font-family="Helvetica,sans-Serif" font-size="10.00">/sort.hpp</text>
</a>
</g>
</g>
<!-- Node1&#45;&gt;Node9 -->
<g id="edge8" class="edge">
<title>Node1&#45;&gt;Node9</title>
<path fill="none" stroke="midnightblue" d="M1166.34,-139.73C1211.58,-127.45 1269.1,-111.84 1312.04,-100.18"/>
<polygon fill="midnightblue" stroke="midnightblue" points="1313.06,-103.53 1321.8,-97.53 1311.23,-96.78 1313.06,-103.53"/>
</g>
<!-- Node10 -->
<g id="node10" class="node">
<title>Node10</title>
<g id="a_node10"><a xlink:title=" ">
<polygon fill="none" stroke="#bfbfbf" points="0,-6 0,-25 183,-25 183,-6 0,-6"/>
<text text-anchor="middle" x="91.5" y="-13" font-family="Helvetica,sans-Serif" font-size="10.00">range/v3/numeric/accumulate.hpp</text>
</a>
</g>
</g>
<!-- Node1&#45;&gt;Node10 -->
<g id="edge9" class="edge">
<title>Node1&#45;&gt;Node10</title>
<path fill="none" stroke="midnightblue" d="M1020.58,-154.09C913.08,-145.32 717.83,-126.08 653.5,-98 633.52,-89.28 635.7,-75.18 615.5,-67 528.05,-31.6 286.23,-41.71 192.5,-31 181,-29.69 168.79,-28.1 156.98,-26.46"/>
<polygon fill="midnightblue" stroke="midnightblue" points="157.12,-22.95 146.73,-25.02 156.14,-29.88 157.12,-22.95"/>
</g>
<!-- Node11 -->
<g id="node11" class="node">
<title>Node11</title>
<g id="a_node11"><a xlink:title=" ">
<polygon fill="none" stroke="#bfbfbf" points="1447,-73 1447,-92 1614,-92 1614,-73 1447,-73"/>
<text text-anchor="middle" x="1530.5" y="-80" font-family="Helvetica,sans-Serif" font-size="10.00">range/v3/range/conversion.hpp</text>
</a>
</g>
</g>
<!-- Node1&#45;&gt;Node11 -->
<g id="edge10" class="edge">
<title>Node1&#45;&gt;Node11</title>
<path fill="none" stroke="midnightblue" d="M1166.15,-146.86C1251.63,-132 1391.91,-107.6 1471.15,-93.82"/>
<polygon fill="midnightblue" stroke="midnightblue" points="1472.19,-97.19 1481.44,-92.03 1470.99,-90.3 1472.19,-97.19"/>
</g>
<!-- Node12 -->
<g id="node12" class="node">
<title>Node12</title>
<g id="a_node12"><a xlink:title=" ">
<polygon fill="none" stroke="#bfbfbf" points="1632.5,-73 1632.5,-92 1776.5,-92 1776.5,-73 1632.5,-73"/>
<text text-anchor="middle" x="1704.5" y="-80" font-family="Helvetica,sans-Serif" font-size="10.00">range/v3/view/cache1.hpp</text>
</a>
</g>
</g>
<!-- Node1&#45;&gt;Node12 -->
<g id="edge11" class="edge">
<title>Node1&#45;&gt;Node12</title>
<path fill="none" stroke="midnightblue" d="M1166.13,-152.5C1268.4,-142.33 1460.61,-122.01 1623.5,-98 1631.93,-96.76 1640.83,-95.31 1649.52,-93.81"/>
<polygon fill="midnightblue" stroke="midnightblue" points="1650.35,-97.22 1659.59,-92.05 1649.14,-90.33 1650.35,-97.22"/>
</g>
<!-- Node13 -->
<g id="node13" class="node">
<title>Node13</title>
<g id="a_node13"><a xlink:title=" ">
<polygon fill="none" stroke="#bfbfbf" points="1794.5,-73 1794.5,-92 1946.5,-92 1946.5,-73 1794.5,-73"/>
<text text-anchor="middle" x="1870.5" y="-80" font-family="Helvetica,sans-Serif" font-size="10.00">range/v3/view/common.hpp</text>
</a>
</g>
</g>
<!-- Node1&#45;&gt;Node13 -->
<g id="edge12" class="edge">
<title>Node1&#45;&gt;Node13</title>
<path fill="none" stroke="midnightblue" d="M1166.19,-154.97C1292.48,-146.67 1560.48,-127.14 1785.5,-98 1794.98,-96.77 1805.01,-95.26 1814.74,-93.67"/>
<polygon fill="midnightblue" stroke="midnightblue" points="1815.44,-97.1 1824.72,-92 1814.28,-90.2 1815.44,-97.1"/>
</g>
<!-- Node14 -->
<g id="node14" class="node">
<title>Node14</title>
<g id="a_node14"><a xlink:title=" ">
<polygon fill="none" stroke="#bfbfbf" points="1965,-73 1965,-92 2096,-92 2096,-73 1965,-73"/>
<text text-anchor="middle" x="2030.5" y="-80" font-family="Helvetica,sans-Serif" font-size="10.00">range/v3/view/filter.hpp</text>
</a>
</g>
</g>
<!-- Node1&#45;&gt;Node14 -->
<g id="edge13" class="edge">
<title>Node1&#45;&gt;Node14</title>
<path fill="none" stroke="midnightblue" d="M1166.17,-157.25C1314.89,-152.01 1664.52,-136.37 1955.5,-98 1963.73,-96.92 1972.41,-95.49 1980.84,-93.97"/>
<polygon fill="midnightblue" stroke="midnightblue" points="1981.76,-97.36 1990.94,-92.07 1980.47,-90.48 1981.76,-97.36"/>
</g>
<!-- Node15 -->
<g id="node15" class="node">
<title>Node15</title>
<g id="a_node15"><a xlink:title=" ">
<polygon fill="none" stroke="#bfbfbf" points="2114,-73 2114,-92 2245,-92 2245,-73 2114,-73"/>
<text text-anchor="middle" x="2179.5" y="-80" font-family="Helvetica,sans-Serif" font-size="10.00">range/v3/view/map.hpp</text>
</a>
</g>
</g>
<!-- Node1&#45;&gt;Node15 -->
<g id="edge14" class="edge">
<title>Node1&#45;&gt;Node15</title>
<path fill="none" stroke="midnightblue" d="M1166.21,-158.39C1332.94,-155.12 1755.43,-142.73 2105.5,-98 2113.72,-96.95 2122.39,-95.53 2130.8,-94"/>
<polygon fill="midnightblue" stroke="midnightblue" points="2131.7,-97.39 2140.87,-92.08 2130.39,-90.51 2131.7,-97.39"/>
</g>
<!-- Node16 -->
<g id="node16" class="node">
<title>Node16</title>
<g id="a_node16"><a xlink:title=" ">
<polygon fill="none" stroke="#bfbfbf" points="2263.5,-73 2263.5,-92 2387.5,-92 2387.5,-73 2263.5,-73"/>
<text text-anchor="middle" x="2325.5" y="-80" font-family="Helvetica,sans-Serif" font-size="10.00">range/v3/view/zip.hpp</text>
</a>
</g>
</g>
<!-- Node1&#45;&gt;Node16 -->
<g id="edge15" class="edge">
<title>Node1&#45;&gt;Node16</title>
<path fill="none" stroke="midnightblue" d="M1166.18,-159.39C1349.51,-158.3 1845.31,-150.33 2254.5,-98 2262.4,-96.99 2270.73,-95.59 2278.8,-94.06"/>
<polygon fill="midnightblue" stroke="midnightblue" points="2279.7,-97.45 2288.82,-92.07 2278.33,-90.59 2279.7,-97.45"/>
</g>
<!-- Node17 -->
<g id="node17" class="node">
<title>Node17</title>
<g id="a_node17"><a xlink:title=" ">
<polygon fill="none" stroke="#bfbfbf" points="819.5,-6 819.5,-25 911.5,-25 911.5,-6 819.5,-6"/>
<text text-anchor="middle" x="865.5" y="-13" font-family="Helvetica,sans-Serif" font-size="10.00">sophus/se2.hpp</text>
</a>
</g>
</g>
<!-- Node1&#45;&gt;Node17 -->
<g id="edge16" class="edge">
<title>Node1&#45;&gt;Node17</title>
<path fill="none" stroke="midnightblue" d="M1020.9,-134.55C997.18,-124.84 971.34,-112.53 949.5,-98 921.58,-79.43 894.76,-50.94 879.21,-33.03"/>
<polygon fill="midnightblue" stroke="midnightblue" points="881.68,-30.53 872.53,-25.18 876.35,-35.07 881.68,-30.53"/>
</g>
<!-- Node18 -->
<g id="node18" class="node">
<title>Node18</title>
<g id="a_node18"><a xlink:title=" ">
<polygon fill="none" stroke="#bfbfbf" points="699.5,-6 699.5,-25 801.5,-25 801.5,-6 699.5,-6"/>
<text text-anchor="middle" x="750.5" y="-13" font-family="Helvetica,sans-Serif" font-size="10.00">sophus/types.hpp</text>
</a>
</g>
</g>
<!-- Node1&#45;&gt;Node18 -->
<g id="edge17" class="edge">
<title>Node1&#45;&gt;Node18</title>
<path fill="none" stroke="midnightblue" d="M1020.97,-138.47C986.17,-127.64 944.17,-113.46 907.5,-98 905.82,-97.29 820.1,-52.72 776.05,-29.8"/>
<polygon fill="midnightblue" stroke="midnightblue" points="777.57,-26.64 767.08,-25.13 774.33,-32.85 777.57,-26.64"/>
</g>
<!-- Node19 -->
<g id="node19" class="node">
<title>Node19</title>
<g id="a_node19"><a xlink:href="estimation_8hpp.html" target="_top" xlink:title="Implementation of algorithms that allow calculating the estimated state of a particle filter.">
<polygon fill="none" stroke="black" points="662.5,-73 662.5,-92 838.5,-92 838.5,-73 662.5,-73"/>
<text text-anchor="middle" x="750.5" y="-80" font-family="Helvetica,sans-Serif" font-size="10.00">beluga/algorithm/estimation.hpp</text>
</a>
</g>
</g>
<!-- Node1&#45;&gt;Node19 -->
<g id="edge18" class="edge">
<title>Node1&#45;&gt;Node19</title>
<path fill="none" stroke="midnightblue" d="M1020.76,-143.38C953.97,-128.58 856.88,-107.07 799.07,-94.26"/>
<polygon fill="midnightblue" stroke="midnightblue" points="799.62,-90.8 789.1,-92.05 798.1,-97.63 799.62,-90.8"/>
</g>
<!-- Node26 -->
<g id="node26" class="node">
<title>Node26</title>
<g id="a_node26"><a xlink:href="spatial__hash_8hpp.html" target="_top" xlink:title="Implementation of a spatial hash for N dimensional states.">
<polygon fill="none" stroke="black" points="970.5,-67.5 970.5,-97.5 1106.5,-97.5 1106.5,-67.5 970.5,-67.5"/>
<text text-anchor="start" x="978.5" y="-85.5" font-family="Helvetica,sans-Serif" font-size="10.00">beluga/algorithm/spatial</text>
<text text-anchor="middle" x="1038.5" y="-74.5" font-family="Helvetica,sans-Serif" font-size="10.00">_hash.hpp</text>
</a>
</g>
</g>
<!-- Node1&#45;&gt;Node26 -->
<g id="edge28" class="edge">
<title>Node1&#45;&gt;Node26</title>
<path fill="none" stroke="midnightblue" d="M1075.19,-134.19C1068.62,-125.13 1061.27,-114.97 1054.88,-106.14"/>
<polygon fill="midnightblue" stroke="midnightblue" points="1057.58,-103.89 1048.88,-97.85 1051.91,-108 1057.58,-103.89"/>
</g>
<!-- Node31 -->
<g id="node31" class="node">
<title>Node31</title>
<g id="a_node31"><a xlink:title=" ">
<polygon fill="none" stroke="#bfbfbf" points="2405.5,-67.5 2405.5,-97.5 2521.5,-97.5 2521.5,-67.5 2405.5,-67.5"/>
<text text-anchor="start" x="2413.5" y="-85.5" font-family="Helvetica,sans-Serif" font-size="10.00">range/v3/view/group</text>
<text text-anchor="middle" x="2463.5" y="-74.5" font-family="Helvetica,sans-Serif" font-size="10.00">_by.hpp</text>
</a>
</g>
</g>
<!-- Node1&#45;&gt;Node31 -->
<g id="edge37" class="edge">
<title>Node1&#45;&gt;Node31</title>
<path fill="none" stroke="midnightblue" d="M1166.27,-160.28C1363.18,-161.5 1922.84,-158.99 2395.4,-97.98"/>
<polygon fill="midnightblue" stroke="midnightblue" points="2396.03,-101.43 2405.5,-96.67 2395.13,-94.49 2396.03,-101.43"/>
</g>
<!-- Node19&#45;&gt;Node10 -->
<g id="edge19" class="edge">
<title>Node19&#45;&gt;Node10</title>
<path fill="none" stroke="midnightblue" d="M695,-72.97C679.93,-70.83 663.61,-68.67 648.5,-67 446.43,-44.68 394.55,-53.46 192.5,-31 180.74,-29.69 168.24,-28.08 156.19,-26.41"/>
<polygon fill="midnightblue" stroke="midnightblue" points="156.59,-22.93 146.2,-25 155.61,-29.86 156.59,-22.93"/>
</g>
<!-- Node19&#45;&gt;Node17 -->
<g id="edge22" class="edge">
<title>Node19&#45;&gt;Node17</title>
<path fill="none" stroke="midnightblue" d="M766.01,-72.73C785.41,-61.77 818.83,-42.88 841.53,-30.05"/>
<polygon fill="midnightblue" stroke="midnightblue" points="843.25,-33.09 850.24,-25.13 839.81,-27 843.25,-33.09"/>
</g>
<!-- Node19&#45;&gt;Node18 -->
<g id="edge25" class="edge">
<title>Node19&#45;&gt;Node18</title>
<path fill="none" stroke="midnightblue" d="M750.5,-72.73C750.5,-63.18 750.5,-47.62 750.5,-35.28"/>
<polygon fill="midnightblue" stroke="midnightblue" points="754,-35.13 750.5,-25.13 747,-35.13 754,-35.13"/>
</g>
<!-- Node20 -->
<g id="node20" class="node">
<title>Node20</title>
<g id="a_node20"><a xlink:title=" ">
<polygon fill="none" stroke="#bfbfbf" points="275.5,-0.5 275.5,-30.5 395.5,-30.5 395.5,-0.5 275.5,-0.5"/>
<text text-anchor="start" x="283.5" y="-18.5" font-family="Helvetica,sans-Serif" font-size="10.00">range/v3/view/repeat</text>
<text text-anchor="middle" x="335.5" y="-7.5" font-family="Helvetica,sans-Serif" font-size="10.00">_n.hpp</text>
</a>
</g>
</g>
<!-- Node19&#45;&gt;Node20 -->
<g id="edge20" class="edge">
<title>Node19&#45;&gt;Node20</title>
<path fill="none" stroke="midnightblue" d="M690.68,-72.98C605.96,-60.87 456.42,-39.4 405.84,-31.1"/>
<polygon fill="midnightblue" stroke="midnightblue" points="406.11,-27.6 395.67,-29.37 404.94,-34.5 406.11,-27.6"/>
</g>
<!-- Node21 -->
<g id="node21" class="node">
<title>Node21</title>
<g id="a_node21"><a xlink:title=" ">
<polygon fill="none" stroke="#bfbfbf" points="413.5,-6 413.5,-25 571.5,-25 571.5,-6 413.5,-6"/>
<text text-anchor="middle" x="492.5" y="-13" font-family="Helvetica,sans-Serif" font-size="10.00">range/v3/view/transform.hpp</text>
</a>
</g>
</g>
<!-- Node19&#45;&gt;Node21 -->
<g id="edge21" class="edge">
<title>Node19&#45;&gt;Node21</title>
<path fill="none" stroke="midnightblue" d="M716.51,-72.94C670.2,-61.27 587.23,-40.37 536.31,-27.54"/>
<polygon fill="midnightblue" stroke="midnightblue" points="537.12,-24.13 526.57,-25.08 535.41,-30.92 537.12,-24.13"/>
</g>
<!-- Node22 -->
<g id="node22" class="node">
<title>Node22</title>
<g id="a_node22"><a xlink:title=" ">
<polygon fill="none" stroke="#bfbfbf" points="1017.5,-6 1017.5,-25 1109.5,-25 1109.5,-6 1017.5,-6"/>
<text text-anchor="middle" x="1063.5" y="-13" font-family="Helvetica,sans-Serif" font-size="10.00">sophus/se3.hpp</text>
</a>
</g>
</g>
<!-- Node19&#45;&gt;Node22 -->
<g id="edge23" class="edge">
<title>Node19&#45;&gt;Node22</title>
<path fill="none" stroke="midnightblue" d="M799.2,-72.94C851.22,-63.56 935.99,-47.64 1008.5,-31 1013.13,-29.94 1017.96,-28.76 1022.75,-27.56"/>
<polygon fill="midnightblue" stroke="midnightblue" points="1023.65,-30.94 1032.46,-25.06 1021.91,-24.16 1023.65,-30.94"/>
</g>
<!-- Node23 -->
<g id="node23" class="node">
<title>Node23</title>
<g id="a_node23"><a xlink:title=" ">
<polygon fill="none" stroke="#bfbfbf" points="589.5,-6 589.5,-25 681.5,-25 681.5,-6 589.5,-6"/>
<text text-anchor="middle" x="635.5" y="-13" font-family="Helvetica,sans-Serif" font-size="10.00">sophus/so3.hpp</text>
</a>
</g>
</g>
<!-- Node19&#45;&gt;Node23 -->
<g id="edge24" class="edge">
<title>Node19&#45;&gt;Node23</title>
<path fill="none" stroke="midnightblue" d="M734.99,-72.73C715.59,-61.77 682.17,-42.88 659.47,-30.05"/>
<polygon fill="midnightblue" stroke="midnightblue" points="661.19,-27 650.76,-25.13 657.75,-33.09 661.19,-27"/>
</g>
<!-- Node24 -->
<g id="node24" class="node">
<title>Node24</title>
<g id="a_node24"><a xlink:title=" ">
<polygon fill="none" stroke="#bfbfbf" points="201.5,-6 201.5,-25 257.5,-25 257.5,-6 201.5,-6"/>
<text text-anchor="middle" x="229.5" y="-13" font-family="Helvetica,sans-Serif" font-size="10.00">numeric</text>
</a>
</g>
</g>
<!-- Node19&#45;&gt;Node24 -->
<g id="edge26" class="edge">
<title>Node19&#45;&gt;Node24</title>
<path fill="none" stroke="midnightblue" d="M693.91,-72.97C679.15,-70.88 663.24,-68.74 648.5,-67 479.15,-46.99 432.39,-70.5 266.5,-31 263.67,-30.33 260.77,-29.48 257.89,-28.54"/>
<polygon fill="midnightblue" stroke="midnightblue" points="258.97,-25.21 248.38,-25.07 256.57,-31.78 258.97,-25.21"/>
</g>
<!-- Node25 -->
<g id="node25" class="node">
<title>Node25</title>
<g id="a_node25"><a xlink:title=" ">
<polygon fill="none" stroke="#bfbfbf" points="930,-6 930,-25 999,-25 999,-6 930,-6"/>
<text text-anchor="middle" x="964.5" y="-13" font-family="Helvetica,sans-Serif" font-size="10.00">type_traits</text>
</a>
</g>
</g>
<!-- Node19&#45;&gt;Node25 -->
<g id="edge27" class="edge">
<title>Node19&#45;&gt;Node25</title>
<path fill="none" stroke="midnightblue" d="M780.37,-72.92C814.38,-63.08 871.58,-46.32 920.5,-31 923.4,-30.09 926.4,-29.14 929.41,-28.17"/>
<polygon fill="midnightblue" stroke="midnightblue" points="930.52,-31.49 938.95,-25.06 928.36,-24.83 930.52,-31.49"/>
</g>
<!-- Node26&#45;&gt;Node6 -->
<g id="edge34" class="edge">
<title>Node26&#45;&gt;Node6</title>
<path fill="none" stroke="midnightblue" d="M1062.8,-67.4C1081.85,-56.34 1108.18,-41.06 1127.01,-30.13"/>
<polygon fill="midnightblue" stroke="midnightblue" points="1128.95,-33.05 1135.84,-25.01 1125.44,-27 1128.95,-33.05"/>
</g>
<!-- Node26&#45;&gt;Node17 -->
<g id="edge35" class="edge">
<title>Node26&#45;&gt;Node17</title>
<path fill="none" stroke="midnightblue" d="M1000.96,-67.4C970.2,-55.84 927.13,-39.66 897.87,-28.66"/>
<polygon fill="midnightblue" stroke="midnightblue" points="898.73,-25.25 888.14,-25.01 896.27,-31.8 898.73,-25.25"/>
</g>
<!-- Node26&#45;&gt;Node22 -->
<g id="edge36" class="edge">
<title>Node26&#45;&gt;Node22</title>
<path fill="none" stroke="midnightblue" d="M1043.92,-67.4C1047.63,-57.76 1052.57,-44.91 1056.56,-34.54"/>
<polygon fill="midnightblue" stroke="midnightblue" points="1059.83,-35.78 1060.16,-25.19 1053.3,-33.27 1059.83,-35.78"/>
</g>
<!-- Node26&#45;&gt;Node25 -->
<g id="edge33" class="edge">
<title>Node26&#45;&gt;Node25</title>
<path fill="none" stroke="midnightblue" d="M1022.44,-67.4C1010.56,-56.96 994.39,-42.75 982.14,-32"/>
<polygon fill="midnightblue" stroke="midnightblue" points="984.22,-29.16 974.4,-25.19 979.6,-34.42 984.22,-29.16"/>
</g>
<!-- Node27 -->
<g id="node27" class="node">
<title>Node27</title>
<g id="a_node27"><a xlink:title=" ">
<polygon fill="none" stroke="#bfbfbf" points="1313,-6 1313,-25 1360,-25 1360,-6 1313,-6"/>
<text text-anchor="middle" x="1336.5" y="-13" font-family="Helvetica,sans-Serif" font-size="10.00">cmath</text>
</a>
</g>
</g>
<!-- Node26&#45;&gt;Node27 -->
<g id="edge29" class="edge">
<title>Node26&#45;&gt;Node27</title>
<path fill="none" stroke="midnightblue" d="M1106.78,-68.74C1184,-54.28 1299.74,-32.51 1304.5,-31 1306.38,-30.41 1308.29,-29.73 1310.19,-29.01"/>
<polygon fill="midnightblue" stroke="midnightblue" points="1311.65,-32.19 1319.52,-25.1 1308.95,-25.73 1311.65,-32.19"/>
</g>
<!-- Node28 -->
<g id="node28" class="node">
<title>Node28</title>
<g id="a_node28"><a xlink:title=" ">
<polygon fill="none" stroke="#bfbfbf" points="1378.5,-6 1378.5,-25 1428.5,-25 1428.5,-6 1378.5,-6"/>
<text text-anchor="middle" x="1403.5" y="-13" font-family="Helvetica,sans-Serif" font-size="10.00">cstdint</text>
</a>
</g>
</g>
<!-- Node26&#45;&gt;Node28 -->
<g id="edge30" class="edge">
<title>Node26&#45;&gt;Node28</title>
<path fill="none" stroke="midnightblue" d="M1106.53,-68.68C1109.9,-68.1 1113.24,-67.54 1116.5,-67 1228.58,-48.62 1260.11,-61.54 1369.5,-31 1371.79,-30.36 1374.14,-29.6 1376.47,-28.77"/>
<polygon fill="midnightblue" stroke="midnightblue" points="1377.8,-32.01 1385.82,-25.08 1375.23,-25.49 1377.8,-32.01"/>
</g>
<!-- Node29 -->
<g id="node29" class="node">
<title>Node29</title>
<g id="a_node29"><a xlink:title=" ">
<polygon fill="none" stroke="#bfbfbf" points="1191.5,-6 1191.5,-25 1235.5,-25 1235.5,-6 1191.5,-6"/>
<text text-anchor="middle" x="1213.5" y="-13" font-family="Helvetica,sans-Serif" font-size="10.00">limits</text>
</a>
</g>
</g>
<!-- Node26&#45;&gt;Node29 -->
<g id="edge31" class="edge">
<title>Node26&#45;&gt;Node29</title>
<path fill="none" stroke="midnightblue" d="M1082.09,-67.48C1110.87,-57.91 1149.26,-44.56 1182.5,-31 1183.88,-30.44 1185.28,-29.85 1186.69,-29.24"/>
<polygon fill="midnightblue" stroke="midnightblue" points="1188.24,-32.38 1195.93,-25.09 1185.37,-25.99 1188.24,-32.38"/>
</g>
<!-- Node30 -->
<g id="node30" class="node">
<title>Node30</title>
<g id="a_node30"><a xlink:title=" ">
<polygon fill="none" stroke="#bfbfbf" points="1254,-6 1254,-25 1295,-25 1295,-6 1254,-6"/>
<text text-anchor="middle" x="1274.5" y="-13" font-family="Helvetica,sans-Serif" font-size="10.00">tuple</text>
</a>
</g>
</g>
<!-- Node26&#45;&gt;Node30 -->
<g id="edge32" class="edge">
<title>Node26&#45;&gt;Node30</title>
<path fill="none" stroke="midnightblue" d="M1106.82,-68.52C1147.44,-59.87 1199.63,-47.14 1244.5,-31 1245.93,-30.49 1247.38,-29.92 1248.83,-29.33"/>
<polygon fill="midnightblue" stroke="midnightblue" points="1250.56,-32.39 1258.26,-25.11 1247.7,-26 1250.56,-32.39"/>
</g>
</g>
</svg>
        <g id="navigator" transform="translate(0 0)" fill="#404254">
                <rect fill="#f2f5e9" fill-opacity="0.5" stroke="#606060" stroke-width=".5" x="0" y="0" width="60" height="60"/>
                <use id="zoomplus" xlink:href="#zoomPlus" x="17" y="9" onmousedown="handleZoom(evt,'in')"/>
                <use id="zoomminus" xlink:href="#zoomMin" x="42" y="9" onmousedown="handleZoom(evt,'out')"/>
                <use id="reset" xlink:href="#resetDef" x="30" y="36" onmousedown="handleReset()"/>
                <g id="arrowUp" xlink:href="#dirArrow" transform="translate(30 24)" onmousedown="handlePan(0,-1)">
                  <use xlink:href="#rim" fill="#404040">
                        <set attributeName="fill" to="#808080" begin="arrowUp.mouseover" end="arrowUp.mouseout"/>
                  </use>
                  <path fill="none" stroke="white" stroke-width="1.5" d="M0,-3.0v7 M-2.5,-0.5L0,-3.0L2.5,-0.5"/>
                </g>
                <g id="arrowRight" xlink:href="#dirArrow" transform="rotate(90) translate(36 -43)" onmousedown="handlePan(1,0)">
                  <use xlink:href="#rim" fill="#404040">
                        <set attributeName="fill" to="#808080" begin="arrowRight.mouseover" end="arrowRight.mouseout"/>
                  </use>
                  <path fill="none" stroke="white" stroke-width="1.5" d="M0,-3.0v7 M-2.5,-0.5L0,-3.0L2.5,-0.5"/>
                </g>
                <g id="arrowDown" xlink:href="#dirArrow" transform="rotate(180) translate(-30 -48)" onmousedown="handlePan(0,1)">
                  <use xlink:href="#rim" fill="#404040">
                        <set attributeName="fill" to="#808080" begin="arrowDown.mouseover" end="arrowDown.mouseout"/>
                  </use>
                  <path fill="none" stroke="white" stroke-width="1.5" d="M0,-3.0v7 M-2.5,-0.5L0,-3.0L2.5,-0.5"/>
                </g>
                <g id="arrowLeft" xlink:href="#dirArrow" transform="rotate(270) translate(-36 17)" onmousedown="handlePan(-1,0)">
                  <use xlink:href="#rim" fill="#404040">
                        <set attributeName="fill" to="#808080" begin="arrowLeft.mouseover" end="arrowLeft.mouseout"/>
                  </use>
                  <path fill="none" stroke="white" stroke-width="1.5" d="M0,-3.0v7 M-2.5,-0.5L0,-3.0L2.5,-0.5"/>
                </g>
        </g>
        <svg viewBox="0 0 15 15" width="100%" height="30px" preserveAspectRatio="xMaxYMin meet">
         <g id="arrow_out" transform="scale(0.3 0.3)">
          <a xlink:href="cluster__based__estimation_8hpp__incl_org.svg" target="_base">
           <rect id="button" ry="5" rx="5" y="6" x="6" height="38" width="38"
                fill="#f2f5e9" fill-opacity="0.5" stroke="#606060" stroke-width="1.0"/>
           <path id="arrow"
             d="M 11.500037,31.436501 C 11.940474,20.09759 22.043105,11.32322 32.158766,21.979434 L 37.068811,17.246167 C 37.068811,17.246167 37.088388,32 37.088388,32 L 22.160133,31.978069 C 22.160133,31.978069 26.997745,27.140456 26.997745,27.140456 C 18.528582,18.264221 13.291696,25.230495 11.500037,31.436501 z"
             style="fill:#404040;"/>
          </a>
         </g>
        </svg>
</svg>
