<?xml version="1.0" encoding="UTF-8" standalone="no"?>
<!DOCTYPE svg PUBLIC "-//W3C//DTD SVG 1.1//EN"
 "http://www.w3.org/Graphics/SVG/1.1/DTD/svg11.dtd">
<!-- Generated by graphviz version 2.43.0 (0)
 -->
<!-- Title: /home/runner/work/beluga/beluga/beluga/include/beluga/algorithm/cluster_based_estimation.hpp Pages: 1 -->
<svg width="2810pt" height="195pt"
 viewBox="0.00 0.00 2809.50 195.00" xmlns="http://www.w3.org/2000/svg" xmlns:xlink="http://www.w3.org/1999/xlink">
<g id="graph0" class="graph" transform="scale(1 1) rotate(0) translate(4 191)">
<title>/home/runner/work/beluga/beluga/beluga/include/beluga/algorithm/cluster_based_estimation.hpp</title>
<!-- Node1 -->
<g id="node1" class="node">
<title>Node1</title>
<g id="a_node1"><a xlink:title="Implementation of a cluster&#45;based estimation algorithm.">
<polygon fill="#bfbfbf" stroke="black" points="1416,-134.5 1416,-186.5 1561,-186.5 1561,-134.5 1416,-134.5"/>
<text text-anchor="start" x="1424" y="-174.5" font-family="Helvetica,sans-Serif" font-size="10.00">/home/runner/work/beluga</text>
<text text-anchor="start" x="1424" y="-163.5" font-family="Helvetica,sans-Serif" font-size="10.00">/beluga/beluga/include</text>
<text text-anchor="start" x="1424" y="-152.5" font-family="Helvetica,sans-Serif" font-size="10.00">/beluga/algorithm/cluster</text>
<text text-anchor="middle" x="1488.5" y="-141.5" font-family="Helvetica,sans-Serif" font-size="10.00">_based_estimation.hpp</text>
</a>
</g>
</g>
<!-- Node2 -->
<g id="node2" class="node">
<title>Node2</title>
<g id="a_node2"><a xlink:title=" ">
<polygon fill="none" stroke="#bfbfbf" points="678,-73 678,-92 743,-92 743,-73 678,-73"/>
<text text-anchor="middle" x="710.5" y="-80" font-family="Helvetica,sans-Serif" font-size="10.00">functional</text>
</a>
</g>
</g>
<!-- Node1&#45;&gt;Node2 -->
<g id="edge1" class="edge">
<title>Node1&#45;&gt;Node2</title>
<path fill="none" stroke="midnightblue" d="M1415.81,-159.39C1282.74,-157.87 991.66,-148.45 752.5,-98 749,-97.26 745.38,-96.31 741.82,-95.26"/>
<polygon fill="midnightblue" stroke="midnightblue" points="742.6,-91.83 732.01,-92.08 740.44,-98.49 742.6,-91.83"/>
</g>
<!-- Node3 -->
<g id="node3" class="node">
<title>Node3</title>
<g id="a_node3"><a xlink:title=" ">
<polygon fill="none" stroke="#bfbfbf" points="761.5,-73 761.5,-92 817.5,-92 817.5,-73 761.5,-73"/>
<text text-anchor="middle" x="789.5" y="-80" font-family="Helvetica,sans-Serif" font-size="10.00">optional</text>
</a>
</g>
</g>
<!-- Node1&#45;&gt;Node3 -->
<g id="edge2" class="edge">
<title>Node1&#45;&gt;Node3</title>
<path fill="none" stroke="midnightblue" d="M1415.58,-159.14C1292.67,-157.12 1037.13,-146.79 827.5,-98 824.5,-97.3 821.42,-96.42 818.38,-95.44"/>
<polygon fill="midnightblue" stroke="midnightblue" points="819.5,-92.13 808.9,-92.07 817.15,-98.72 819.5,-92.13"/>
</g>
<!-- Node4 -->
<g id="node4" class="node">
<title>Node4</title>
<g id="a_node4"><a xlink:title=" ">
<polygon fill="none" stroke="#bfbfbf" points="836,-73 836,-92 883,-92 883,-73 836,-73"/>
<text text-anchor="middle" x="859.5" y="-80" font-family="Helvetica,sans-Serif" font-size="10.00">queue</text>
</a>
</g>
</g>
<!-- Node1&#45;&gt;Node4 -->
<g id="edge3" class="edge">
<title>Node1&#45;&gt;Node4</title>
<path fill="none" stroke="midnightblue" d="M1415.64,-159.22C1302.02,-157.17 1076.54,-146.65 892.5,-98 890.2,-97.39 887.86,-96.65 885.54,-95.82"/>
<polygon fill="midnightblue" stroke="midnightblue" points="886.85,-92.57 876.26,-92.07 884.22,-99.06 886.85,-92.57"/>
</g>
<!-- Node5 -->
<g id="node5" class="node">
<title>Node5</title>
<g id="a_node5"><a xlink:title=" ">
<polygon fill="none" stroke="#bfbfbf" points="901,-73 901,-92 994,-92 994,-73 901,-73"/>
<text text-anchor="middle" x="947.5" y="-80" font-family="Helvetica,sans-Serif" font-size="10.00">unordered_map</text>
</a>
</g>
</g>
<!-- Node1&#45;&gt;Node5 -->
<g id="edge4" class="edge">
<title>Node1&#45;&gt;Node5</title>
<path fill="none" stroke="midnightblue" d="M1415.76,-152.6C1321.4,-143.11 1151.9,-124.15 1008.5,-98 1002.67,-96.94 996.56,-95.67 990.55,-94.33"/>
<polygon fill="midnightblue" stroke="midnightblue" points="991.14,-90.88 980.61,-92.04 989.57,-97.7 991.14,-90.88"/>
</g>
<!-- Node6 -->
<g id="node6" class="node">
<title>Node6</title>
<g id="a_node6"><a xlink:title=" ">
<polygon fill="none" stroke="#bfbfbf" points="1466,-6 1466,-25 1511,-25 1511,-6 1466,-6"/>
<text text-anchor="middle" x="1488.5" y="-13" font-family="Helvetica,sans-Serif" font-size="10.00">utility</text>
</a>
</g>
</g>
<!-- Node1&#45;&gt;Node6 -->
<g id="edge5" class="edge">
<title>Node1&#45;&gt;Node6</title>
<path fill="none" stroke="midnightblue" d="M1445.24,-134.45C1420.91,-116.91 1397.9,-92.19 1411.5,-67 1417.17,-56.5 1442.43,-41.06 1462.5,-30.02"/>
<polygon fill="midnightblue" stroke="midnightblue" points="1464.4,-32.97 1471.54,-25.15 1461.08,-26.81 1464.4,-32.97"/>
</g>
<!-- Node7 -->
<g id="node7" class="node">
<title>Node7</title>
<g id="a_node7"><a xlink:title=" ">
<polygon fill="none" stroke="#bfbfbf" points="1575,-73 1575,-92 1622,-92 1622,-73 1575,-73"/>
<text text-anchor="middle" x="1598.5" y="-80" font-family="Helvetica,sans-Serif" font-size="10.00">vector</text>
</a>
</g>
</g>
<!-- Node1&#45;&gt;Node7 -->
<g id="edge6" class="edge">
<title>Node1&#45;&gt;Node7</title>
<path fill="none" stroke="midnightblue" d="M1524.82,-134.4C1542.34,-122.3 1562.72,-108.22 1577.6,-97.94"/>
<polygon fill="midnightblue" stroke="midnightblue" points="1579.85,-100.64 1586.08,-92.08 1575.87,-94.88 1579.85,-100.64"/>
</g>
<!-- Node8 -->
<g id="node8" class="node">
<title>Node8</title>
<g id="a_node8"><a xlink:title=" ">
<polygon fill="none" stroke="#bfbfbf" points="1640.5,-67.5 1640.5,-97.5 1750.5,-97.5 1750.5,-67.5 1640.5,-67.5"/>
<text text-anchor="start" x="1648.5" y="-85.5" font-family="Helvetica,sans-Serif" font-size="10.00">range/v3/algorithm</text>
<text text-anchor="middle" x="1695.5" y="-74.5" font-family="Helvetica,sans-Serif" font-size="10.00">/max_element.hpp</text>
</a>
</g>
</g>
<!-- Node1&#45;&gt;Node8 -->
<g id="edge7" class="edge">
<title>Node1&#45;&gt;Node8</title>
<path fill="none" stroke="midnightblue" d="M1556.85,-134.4C1586.53,-123.51 1620.59,-111 1647.53,-101.11"/>
<polygon fill="midnightblue" stroke="midnightblue" points="1648.92,-104.33 1657.1,-97.6 1646.51,-97.76 1648.92,-104.33"/>
</g>
<!-- Node9 -->
<g id="node9" class="node">
<title>Node9</title>
<g id="a_node9"><a xlink:title=" ">
<polygon fill="none" stroke="#bfbfbf" points="1768.5,-67.5 1768.5,-97.5 1878.5,-97.5 1878.5,-67.5 1768.5,-67.5"/>
<text text-anchor="start" x="1776.5" y="-85.5" font-family="Helvetica,sans-Serif" font-size="10.00">range/v3/algorithm</text>
<text text-anchor="middle" x="1823.5" y="-74.5" font-family="Helvetica,sans-Serif" font-size="10.00">/sort.hpp</text>
</a>
</g>
</g>
<!-- Node1&#45;&gt;Node9 -->
<g id="edge8" class="edge">
<title>Node1&#45;&gt;Node9</title>
<path fill="none" stroke="midnightblue" d="M1561.19,-143.01C1619.92,-129.69 1701.83,-111.1 1758.42,-98.26"/>
<polygon fill="midnightblue" stroke="midnightblue" points="1759.35,-101.64 1768.33,-96.02 1757.8,-94.82 1759.35,-101.64"/>
</g>
<!-- Node10 -->
<g id="node10" class="node">
<title>Node10</title>
<g id="a_node10"><a xlink:title=" ">
<polygon fill="none" stroke="#bfbfbf" points="0,-6 0,-25 183,-25 183,-6 0,-6"/>
<text text-anchor="middle" x="91.5" y="-13" font-family="Helvetica,sans-Serif" font-size="10.00">range/v3/numeric/accumulate.hpp</text>
</a>
</g>
</g>
<!-- Node1&#45;&gt;Node10 -->
<g id="edge9" class="edge">
<title>Node1&#45;&gt;Node10</title>
<path fill="none" stroke="midnightblue" d="M1415.77,-154.29C1306.85,-145.69 1107.13,-126.57 1041.5,-98 1021.51,-89.3 1023.87,-74.77 1003.5,-67 834.94,-2.72 372.11,-47.84 192.5,-31 179.97,-29.83 166.63,-28.19 153.88,-26.43"/>
<polygon fill="midnightblue" stroke="midnightblue" points="154.2,-22.94 143.8,-25.01 153.22,-29.87 154.2,-22.94"/>
</g>
<!-- Node11 -->
<g id="node11" class="node">
<title>Node11</title>
<g id="a_node11"><a xlink:title=" ">
<polygon fill="none" stroke="#bfbfbf" points="1897,-73 1897,-92 2064,-92 2064,-73 1897,-73"/>
<text text-anchor="middle" x="1980.5" y="-80" font-family="Helvetica,sans-Serif" font-size="10.00">range/v3/range/conversion.hpp</text>
</a>
</g>
</g>
<!-- Node1&#45;&gt;Node11 -->
<g id="edge10" class="edge">
<title>Node1&#45;&gt;Node11</title>
<path fill="none" stroke="midnightblue" d="M1561.31,-148.32C1641.3,-136.02 1773.56,-115.66 1887.5,-98 1896.63,-96.58 1906.27,-95.09 1915.74,-93.61"/>
<polygon fill="midnightblue" stroke="midnightblue" points="1916.57,-97.02 1925.92,-92.03 1915.5,-90.11 1916.57,-97.02"/>
</g>
<!-- Node12 -->
<g id="node12" class="node">
<title>Node12</title>
<g id="a_node12"><a xlink:title=" ">
<polygon fill="none" stroke="#bfbfbf" points="2082.5,-73 2082.5,-92 2226.5,-92 2226.5,-73 2082.5,-73"/>
<text text-anchor="middle" x="2154.5" y="-80" font-family="Helvetica,sans-Serif" font-size="10.00">range/v3/view/cache1.hpp</text>
</a>
</g>
</g>
<!-- Node1&#45;&gt;Node12 -->
<g id="edge11" class="edge">
<title>Node1&#45;&gt;Node12</title>
<path fill="none" stroke="midnightblue" d="M1561.21,-153.56C1672.03,-144.12 1889.73,-124.07 2073.5,-98 2082.13,-96.78 2091.25,-95.31 2100.14,-93.79"/>
<polygon fill="midnightblue" stroke="midnightblue" points="2100.78,-97.23 2110.03,-92.06 2099.58,-90.33 2100.78,-97.23"/>
</g>
<!-- Node13 -->
<g id="node13" class="node">
<title>Node13</title>
<g id="a_node13"><a xlink:title=" ">
<polygon fill="none" stroke="#bfbfbf" points="2245,-73 2245,-92 2376,-92 2376,-73 2245,-73"/>
<text text-anchor="middle" x="2310.5" y="-80" font-family="Helvetica,sans-Serif" font-size="10.00">range/v3/view/filter.hpp</text>
</a>
</g>
</g>
<!-- Node1&#45;&gt;Node13 -->
<g id="edge12" class="edge">
<title>Node1&#45;&gt;Node13</title>
<path fill="none" stroke="midnightblue" d="M1561.16,-156.15C1695.03,-149.39 1989.43,-131.81 2235.5,-98 2243.63,-96.88 2252.2,-95.46 2260.54,-93.94"/>
<polygon fill="midnightblue" stroke="midnightblue" points="2261.36,-97.35 2270.54,-92.06 2260.07,-90.47 2261.36,-97.35"/>
</g>
<!-- Node14 -->
<g id="node14" class="node">
<title>Node14</title>
<g id="a_node14"><a xlink:title=" ">
<polygon fill="none" stroke="#bfbfbf" points="2394,-73 2394,-92 2525,-92 2525,-73 2394,-73"/>
<text text-anchor="middle" x="2459.5" y="-80" font-family="Helvetica,sans-Serif" font-size="10.00">range/v3/view/map.hpp</text>
</a>
</g>
</g>
<!-- Node1&#45;&gt;Node14 -->
<g id="edge13" class="edge">
<title>Node1&#45;&gt;Node14</title>
<path fill="none" stroke="midnightblue" d="M1561.18,-157.6C1714.25,-152.91 2080.82,-138.14 2385.5,-98 2393.71,-96.92 2402.39,-95.49 2410.79,-93.94"/>
<polygon fill="midnightblue" stroke="midnightblue" points="2411.69,-97.33 2420.86,-92.02 2410.38,-90.46 2411.69,-97.33"/>
</g>
<!-- Node15 -->
<g id="node15" class="node">
<title>Node15</title>
<g id="a_node15"><a xlink:title=" ">
<polygon fill="none" stroke="#bfbfbf" points="2543.5,-73 2543.5,-92 2667.5,-92 2667.5,-73 2543.5,-73"/>
<text text-anchor="middle" x="2605.5" y="-80" font-family="Helvetica,sans-Serif" font-size="10.00">range/v3/view/zip.hpp</text>
</a>
</g>
</g>
<!-- Node1&#45;&gt;Node15 -->
<g id="edge14" class="edge">
<title>Node1&#45;&gt;Node15</title>
<path fill="none" stroke="midnightblue" d="M1561.12,-158.79C1731.71,-156.35 2171.05,-145.55 2534.5,-98 2542.39,-96.97 2550.72,-95.56 2558.79,-94.02"/>
<polygon fill="midnightblue" stroke="midnightblue" points="2559.69,-97.41 2568.82,-92.03 2558.33,-90.55 2559.69,-97.41"/>
</g>
<!-- Node16 -->
<g id="node16" class="node">
<title>Node16</title>
<g id="a_node16"><a xlink:title=" ">
<polygon fill="none" stroke="#bfbfbf" points="1355.5,-6 1355.5,-25 1447.5,-25 1447.5,-6 1355.5,-6"/>
<text text-anchor="middle" x="1401.5" y="-13" font-family="Helvetica,sans-Serif" font-size="10.00">sophus/se2.hpp</text>
</a>
</g>
</g>
<!-- Node1&#45;&gt;Node16 -->
<g id="edge15" class="edge">
<title>Node1&#45;&gt;Node16</title>
<path fill="none" stroke="midnightblue" d="M1437.01,-134.24C1423.33,-124.86 1410.23,-112.81 1402.5,-98 1392.29,-78.45 1394.14,-52.49 1397.15,-35.18"/>
<polygon fill="midnightblue" stroke="midnightblue" points="1400.62,-35.7 1399.18,-25.21 1393.76,-34.31 1400.62,-35.7"/>
</g>
<!-- Node17 -->
<g id="node17" class="node">
<title>Node17</title>
<g id="a_node17"><a xlink:title=" ">
<polygon fill="none" stroke="#bfbfbf" points="1235.5,-6 1235.5,-25 1337.5,-25 1337.5,-6 1235.5,-6"/>
<text text-anchor="middle" x="1286.5" y="-13" font-family="Helvetica,sans-Serif" font-size="10.00">sophus/types.hpp</text>
</a>
</g>
</g>
<!-- Node1&#45;&gt;Node17 -->
<g id="edge16" class="edge">
<title>Node1&#45;&gt;Node17</title>
<path fill="none" stroke="midnightblue" d="M1446.39,-134.41C1428.84,-123.61 1408.41,-110.59 1390.5,-98 1359.46,-76.19 1325.12,-48.55 1304.7,-31.71"/>
<polygon fill="midnightblue" stroke="midnightblue" points="1306.79,-28.89 1296.85,-25.2 1302.32,-34.28 1306.79,-28.89"/>
</g>
<!-- Node18 -->
<g id="node18" class="node">
<title>Node18</title>
<g id="a_node18"><a xlink:href="estimation_8hpp.html" target="_top" xlink:title="Implementation of algorithms that allow calculating the estimated state of a particle filter.">
<polygon fill="none" stroke="black" points="1050.5,-73 1050.5,-92 1226.5,-92 1226.5,-73 1050.5,-73"/>
<text text-anchor="middle" x="1138.5" y="-80" font-family="Helvetica,sans-Serif" font-size="10.00">beluga/algorithm/estimation.hpp</text>
</a>
</g>
</g>
<!-- Node1&#45;&gt;Node18 -->
<g id="edge17" class="edge">
<title>Node1&#45;&gt;Node18</title>
<path fill="none" stroke="midnightblue" d="M1415.98,-143.75C1347.65,-128.92 1247.14,-107.09 1187.7,-94.18"/>
<polygon fill="midnightblue" stroke="midnightblue" points="1188.32,-90.74 1177.81,-92.04 1186.84,-97.58 1188.32,-90.74"/>
</g>
<!-- Node26 -->
<g id="node26" class="node">
<title>Node26</title>
<g id="a_node26"><a xlink:href="spatial__hash_8hpp.html" target="_top" xlink:title="Implementation of a spatial hash for N dimensional states.">
<polygon fill="none" stroke="black" points="1420.5,-67.5 1420.5,-97.5 1556.5,-97.5 1556.5,-67.5 1420.5,-67.5"/>
<text text-anchor="start" x="1428.5" y="-85.5" font-family="Helvetica,sans-Serif" font-size="10.00">beluga/algorithm/spatial</text>
<text text-anchor="middle" x="1488.5" y="-74.5" font-family="Helvetica,sans-Serif" font-size="10.00">_hash.hpp</text>
</a>
</g>
</g>
<!-- Node1&#45;&gt;Node26 -->
<g id="edge28" class="edge">
<title>Node1&#45;&gt;Node26</title>
<path fill="none" stroke="midnightblue" d="M1488.5,-134.19C1488.5,-125.79 1488.5,-116.44 1488.5,-108.09"/>
<polygon fill="midnightblue" stroke="midnightblue" points="1492,-107.85 1488.5,-97.85 1485,-107.85 1492,-107.85"/>
</g>
<!-- Node33 -->
<g id="node33" class="node">
<title>Node33</title>
<g id="a_node33"><a xlink:title=" ">
<polygon fill="none" stroke="#bfbfbf" points="2685.5,-67.5 2685.5,-97.5 2801.5,-97.5 2801.5,-67.5 2685.5,-67.5"/>
<text text-anchor="start" x="2693.5" y="-85.5" font-family="Helvetica,sans-Serif" font-size="10.00">range/v3/view/group</text>
<text text-anchor="middle" x="2743.5" y="-74.5" font-family="Helvetica,sans-Serif" font-size="10.00">_by.hpp</text>
</a>
</g>
</g>
<!-- Node1&#45;&gt;Node33 -->
<g id="edge37" class="edge">
<title>Node1&#45;&gt;Node33</title>
<path fill="none" stroke="midnightblue" d="M1561.19,-159.81C1746.03,-159.71 2248.89,-153.99 2675.43,-97.98"/>
<polygon fill="midnightblue" stroke="midnightblue" points="2676.04,-101.44 2685.5,-96.65 2675.12,-94.5 2676.04,-101.44"/>
</g>
<!-- Node18&#45;&gt;Node10 -->
<g id="edge19" class="edge">
<title>Node18&#45;&gt;Node10</title>
<path fill="none" stroke="midnightblue" d="M1085.68,-72.98C1069.9,-70.71 1052.53,-68.48 1036.5,-67 662.63,-32.54 566.34,-65.72 192.5,-31 179.97,-29.84 166.63,-28.2 153.87,-26.45"/>
<polygon fill="midnightblue" stroke="midnightblue" points="154.19,-22.96 143.8,-25.02 153.21,-29.89 154.19,-22.96"/>
</g>
<!-- Node18&#45;&gt;Node16 -->
<g id="edge25" class="edge">
<title>Node18&#45;&gt;Node16</title>
<path fill="none" stroke="midnightblue" d="M1174.63,-72.96C1216.16,-63.08 1286.34,-46.23 1346.5,-31 1350.82,-29.91 1355.32,-28.75 1359.81,-27.58"/>
<polygon fill="midnightblue" stroke="midnightblue" points="1360.75,-30.96 1369.54,-25.04 1358.98,-24.18 1360.75,-30.96"/>
</g>
<!-- Node18&#45;&gt;Node17 -->
<g id="edge26" class="edge">
<title>Node18&#45;&gt;Node17</title>
<path fill="none" stroke="midnightblue" d="M1158.15,-72.87C1183.59,-61.7 1228.1,-42.15 1257.45,-29.26"/>
<polygon fill="midnightblue" stroke="midnightblue" points="1259.02,-32.39 1266.77,-25.17 1256.2,-25.98 1259.02,-32.39"/>
</g>
<!-- Node19 -->
<g id="node19" class="node">
<title>Node19</title>
<g id="a_node19"><a xlink:title=" ">
<polygon fill="none" stroke="#bfbfbf" points="275.5,-0.5 275.5,-30.5 385.5,-30.5 385.5,-0.5 275.5,-0.5"/>
<text text-anchor="start" x="283.5" y="-18.5" font-family="Helvetica,sans-Serif" font-size="10.00">range/v3/algorithm</text>
<text text-anchor="middle" x="330.5" y="-7.5" font-family="Helvetica,sans-Serif" font-size="10.00">/count_if.hpp</text>
</a>
</g>
</g>
<!-- Node18&#45;&gt;Node19 -->
<g id="edge18" class="edge">
<title>Node18&#45;&gt;Node19</title>
<path fill="none" stroke="midnightblue" d="M1084.61,-72.96C1069.11,-70.75 1052.16,-68.55 1036.5,-67 755.44,-39.19 679.29,-69.97 395.73,-31"/>
<polygon fill="midnightblue" stroke="midnightblue" points="395.94,-27.5 385.55,-29.58 394.97,-34.43 395.94,-27.5"/>
</g>
<!-- Node20 -->
<g id="node20" class="node">
<title>Node20</title>
<g id="a_node20"><a xlink:title=" ">
<polygon fill="none" stroke="#bfbfbf" points="404,-6 404,-25 551,-25 551,-6 404,-6"/>
<text text-anchor="middle" x="477.5" y="-13" font-family="Helvetica,sans-Serif" font-size="10.00">range/v3/range/access.hpp</text>
</a>
</g>
</g>
<!-- Node18&#45;&gt;Node20 -->
<g id="edge20" class="edge">
<title>Node18&#45;&gt;Node20</title>
<path fill="none" stroke="midnightblue" d="M1083.26,-72.97C1068.13,-70.82 1051.7,-68.65 1036.5,-67 825.58,-44.06 771.02,-57.29 560.5,-31 551.23,-29.84 541.41,-28.36 531.9,-26.79"/>
<polygon fill="midnightblue" stroke="midnightblue" points="532.19,-23.28 521.75,-25.05 531.02,-30.18 532.19,-23.28"/>
</g>
<!-- Node21 -->
<g id="node21" class="node">
<title>Node21</title>
<g id="a_node21"><a xlink:title=" ">
<polygon fill="none" stroke="#bfbfbf" points="569.5,-6 569.5,-25 733.5,-25 733.5,-6 569.5,-6"/>
<text text-anchor="middle" x="651.5" y="-13" font-family="Helvetica,sans-Serif" font-size="10.00">range/v3/range/primitives.hpp</text>
</a>
</g>
</g>
<!-- Node18&#45;&gt;Node21 -->
<g id="edge21" class="edge">
<title>Node18&#45;&gt;Node21</title>
<path fill="none" stroke="midnightblue" d="M1080,-72.99C1065.78,-70.97 1050.6,-68.86 1036.5,-67 905.99,-49.74 872.86,-49.36 742.5,-31 732.98,-29.66 722.91,-28.15 713.07,-26.62"/>
<polygon fill="midnightblue" stroke="midnightblue" points="713.37,-23.12 702.95,-25.03 712.28,-30.04 713.37,-23.12"/>
</g>
<!-- Node22 -->
<g id="node22" class="node">
<title>Node22</title>
<g id="a_node22"><a xlink:title=" ">
<polygon fill="none" stroke="#bfbfbf" points="751.5,-6 751.5,-25 903.5,-25 903.5,-6 751.5,-6"/>
<text text-anchor="middle" x="827.5" y="-13" font-family="Helvetica,sans-Serif" font-size="10.00">range/v3/view/common.hpp</text>
</a>
</g>
</g>
<!-- Node18&#45;&gt;Node22 -->
<g id="edge22" class="edge">
<title>Node18&#45;&gt;Node22</title>
<path fill="none" stroke="midnightblue" d="M1097.52,-72.94C1041.12,-61.15 939.61,-39.93 878.4,-27.14"/>
<polygon fill="midnightblue" stroke="midnightblue" points="879.07,-23.7 868.57,-25.08 877.64,-30.56 879.07,-23.7"/>
</g>
<!-- Node23 -->
<g id="node23" class="node">
<title>Node23</title>
<g id="a_node23"><a xlink:title=" ">
<polygon fill="none" stroke="#bfbfbf" points="921.5,-0.5 921.5,-30.5 1041.5,-30.5 1041.5,-0.5 921.5,-0.5"/>
<text text-anchor="start" x="929.5" y="-18.5" font-family="Helvetica,sans-Serif" font-size="10.00">range/v3/view/repeat</text>
<text text-anchor="middle" x="981.5" y="-7.5" font-family="Helvetica,sans-Serif" font-size="10.00">_n.hpp</text>
</a>
</g>
</g>
<!-- Node18&#45;&gt;Node23 -->
<g id="edge23" class="edge">
<title>Node18&#45;&gt;Node23</title>
<path fill="none" stroke="midnightblue" d="M1117.65,-72.87C1094.09,-63.12 1055.1,-46.97 1024.86,-34.45"/>
<polygon fill="midnightblue" stroke="midnightblue" points="1025.96,-31.12 1015.38,-30.53 1023.28,-37.59 1025.96,-31.12"/>
</g>
<!-- Node24 -->
<g id="node24" class="node">
<title>Node24</title>
<g id="a_node24"><a xlink:title=" ">
<polygon fill="none" stroke="#bfbfbf" points="1059.5,-6 1059.5,-25 1217.5,-25 1217.5,-6 1059.5,-6"/>
<text text-anchor="middle" x="1138.5" y="-13" font-family="Helvetica,sans-Serif" font-size="10.00">range/v3/view/transform.hpp</text>
</a>
</g>
</g>
<!-- Node18&#45;&gt;Node24 -->
<g id="edge24" class="edge">
<title>Node18&#45;&gt;Node24</title>
<path fill="none" stroke="midnightblue" d="M1138.5,-72.73C1138.5,-63.18 1138.5,-47.62 1138.5,-35.28"/>
<polygon fill="midnightblue" stroke="midnightblue" points="1142,-35.13 1138.5,-25.13 1135,-35.13 1142,-35.13"/>
</g>
<!-- Node25 -->
<g id="node25" class="node">
<title>Node25</title>
<g id="a_node25"><a xlink:title=" ">
<polygon fill="none" stroke="#bfbfbf" points="201.5,-6 201.5,-25 257.5,-25 257.5,-6 201.5,-6"/>
<text text-anchor="middle" x="229.5" y="-13" font-family="Helvetica,sans-Serif" font-size="10.00">numeric</text>
</a>
</g>
</g>
<!-- Node18&#45;&gt;Node25 -->
<g id="edge27" class="edge">
<title>Node18&#45;&gt;Node25</title>
<path fill="none" stroke="midnightblue" d="M1085.41,-72.98C1069.7,-70.73 1052.44,-68.5 1036.5,-67 695.42,-34.86 601.56,-102.45 266.5,-31 263.49,-30.36 260.41,-29.5 257.37,-28.52"/>
<polygon fill="midnightblue" stroke="midnightblue" points="258.55,-25.23 247.96,-25.1 256.16,-31.8 258.55,-25.23"/>
</g>
<!-- Node26&#45;&gt;Node6 -->
<g id="edge35" class="edge">
<title>Node26&#45;&gt;Node6</title>
<path fill="none" stroke="midnightblue" d="M1488.5,-67.4C1488.5,-58.06 1488.5,-45.71 1488.5,-35.52"/>
<polygon fill="midnightblue" stroke="midnightblue" points="1492,-35.19 1488.5,-25.19 1485,-35.19 1492,-35.19"/>
</g>
<!-- Node26&#45;&gt;Node16 -->
<g id="edge36" class="edge">
<title>Node26&#45;&gt;Node16</title>
<path fill="none" stroke="midnightblue" d="M1469.62,-67.4C1455.39,-56.76 1435.9,-42.2 1421.42,-31.38"/>
<polygon fill="midnightblue" stroke="midnightblue" points="1423.24,-28.38 1413.14,-25.19 1419.05,-33.98 1423.24,-28.38"/>
</g>
<!-- Node27 -->
<g id="node27" class="node">
<title>Node27</title>
<g id="a_node27"><a xlink:title=" ">
<polygon fill="none" stroke="#bfbfbf" points="1738.5,-6 1738.5,-25 1782.5,-25 1782.5,-6 1738.5,-6"/>
<text text-anchor="middle" x="1760.5" y="-13" font-family="Helvetica,sans-Serif" font-size="10.00">bitset</text>
</a>
</g>
</g>
<!-- Node26&#45;&gt;Node27 -->
<g id="edge29" class="edge">
<title>Node26&#45;&gt;Node27</title>
<path fill="none" stroke="midnightblue" d="M1556.69,-68.05C1622.06,-55.02 1713.18,-36.45 1729.5,-31 1731.17,-30.44 1732.86,-29.82 1734.56,-29.16"/>
<polygon fill="midnightblue" stroke="midnightblue" points="1736.27,-32.23 1744.06,-25.05 1733.49,-25.81 1736.27,-32.23"/>
</g>
<!-- Node28 -->
<g id="node28" class="node">
<title>Node28</title>
<g id="a_node28"><a xlink:title=" ">
<polygon fill="none" stroke="#bfbfbf" points="1801,-6 1801,-25 1848,-25 1848,-6 1801,-6"/>
<text text-anchor="middle" x="1824.5" y="-13" font-family="Helvetica,sans-Serif" font-size="10.00">cmath</text>
</a>
</g>
</g>
<!-- Node26&#45;&gt;Node28 -->
<g id="edge30" class="edge">
<title>Node26&#45;&gt;Node28</title>
<path fill="none" stroke="midnightblue" d="M1556.55,-68.75C1559.91,-68.15 1563.24,-67.56 1566.5,-67 1666.29,-49.74 1694.35,-59.6 1791.5,-31 1793.65,-30.37 1795.84,-29.63 1798.02,-28.83"/>
<polygon fill="midnightblue" stroke="midnightblue" points="1799.4,-32.04 1807.34,-25.03 1796.76,-25.56 1799.4,-32.04"/>
</g>
<!-- Node29 -->
<g id="node29" class="node">
<title>Node29</title>
<g id="a_node29"><a xlink:title=" ">
<polygon fill="none" stroke="#bfbfbf" points="1866.5,-6 1866.5,-25 1916.5,-25 1916.5,-6 1866.5,-6"/>
<text text-anchor="middle" x="1891.5" y="-13" font-family="Helvetica,sans-Serif" font-size="10.00">cstdint</text>
</a>
</g>
</g>
<!-- Node26&#45;&gt;Node29 -->
<g id="edge31" class="edge">
<title>Node26&#45;&gt;Node29</title>
<path fill="none" stroke="midnightblue" d="M1556.52,-68.6C1559.89,-68.04 1563.23,-67.51 1566.5,-67 1695.29,-47.08 1731.67,-64.89 1857.5,-31 1859.8,-30.38 1862.15,-29.64 1864.48,-28.81"/>
<polygon fill="midnightblue" stroke="midnightblue" points="1865.81,-32.05 1873.84,-25.14 1863.25,-25.54 1865.81,-32.05"/>
</g>
<!-- Node30 -->
<g id="node30" class="node">
<title>Node30</title>
<g id="a_node30"><a xlink:title=" ">
<polygon fill="none" stroke="#bfbfbf" points="1529.5,-6 1529.5,-25 1573.5,-25 1573.5,-6 1529.5,-6"/>
<text text-anchor="middle" x="1551.5" y="-13" font-family="Helvetica,sans-Serif" font-size="10.00">limits</text>
</a>
</g>
</g>
<!-- Node26&#45;&gt;Node30 -->
<g id="edge32" class="edge">
<title>Node26&#45;&gt;Node30</title>
<path fill="none" stroke="midnightblue" d="M1502.17,-67.4C1512.09,-57.16 1525.53,-43.3 1535.87,-32.62"/>
<polygon fill="midnightblue" stroke="midnightblue" points="1538.63,-34.81 1543.07,-25.19 1533.6,-29.94 1538.63,-34.81"/>
</g>
<!-- Node31 -->
<g id="node31" class="node">
<title>Node31</title>
<g id="a_node31"><a xlink:title=" ">
<polygon fill="none" stroke="#bfbfbf" points="1592,-6 1592,-25 1633,-25 1633,-6 1592,-6"/>
<text text-anchor="middle" x="1612.5" y="-13" font-family="Helvetica,sans-Serif" font-size="10.00">tuple</text>
</a>
</g>
</g>
<!-- Node26&#45;&gt;Node31 -->
<g id="edge33" class="edge">
<title>Node26&#45;&gt;Node31</title>
<path fill="none" stroke="midnightblue" d="M1515.41,-67.4C1536.78,-56.19 1566.45,-40.64 1587.35,-29.69"/>
<polygon fill="midnightblue" stroke="midnightblue" points="1589.04,-32.75 1596.27,-25.01 1585.79,-26.55 1589.04,-32.75"/>
</g>
<!-- Node32 -->
<g id="node32" class="node">
<title>Node32</title>
<g id="a_node32"><a xlink:title=" ">
<polygon fill="none" stroke="#bfbfbf" points="1651,-6 1651,-25 1720,-25 1720,-6 1651,-6"/>
<text text-anchor="middle" x="1685.5" y="-13" font-family="Helvetica,sans-Serif" font-size="10.00">type_traits</text>
</a>
</g>
</g>
<!-- Node26&#45;&gt;Node32 -->
<g id="edge34" class="edge">
<title>Node26&#45;&gt;Node32</title>
<path fill="none" stroke="midnightblue" d="M1531.68,-67.45C1562.57,-57.37 1605.12,-43.43 1642.5,-31 1645.07,-30.14 1647.73,-29.26 1650.41,-28.36"/>
<polygon fill="midnightblue" stroke="midnightblue" points="1651.68,-31.62 1660.05,-25.12 1649.45,-24.99 1651.68,-31.62"/>
</g>
</g>
</svg>
