<?xml version="1.0" encoding="UTF-8" standalone="no"?>
<!DOCTYPE svg PUBLIC "-//W3C//DTD SVG 1.1//EN"
 "http://www.w3.org/Graphics/SVG/1.1/DTD/svg11.dtd">
<!-- Generated by graphviz version 2.43.0 (0)
 -->
<!-- Title: /home/runner/work/beluga/beluga/beluga/include/beluga/algorithm/cluster_based_estimation.hpp Pages: 1 -->
<!--zoomable 195 -->
<svg id="main" version="1.1" xmlns="http://www.w3.org/2000/svg" xmlns:xlink="http://www.w3.org/1999/xlink" xml:space="preserve" onload="init(evt)">
<style type="text/css"><![CDATA[
.edge:hover path { stroke: red; }
.edge:hover polygon { stroke: red; fill: red; }
]]></style>
<script type="text/javascript"><![CDATA[
var edges = document.getElementsByTagName('g');
if (edges && edges.length) {
  for (var i=0;i<edges.length;i++) {
    if (edges[i].id.substr(0,4)=='edge') {
      edges[i].setAttribute('class','edge');
    }
  }
}
]]></script>
        <defs>
                <circle id="rim" cx="0" cy="0" r="7"/>
                <circle id="rim2" cx="0" cy="0" r="3.5"/>
                <g id="zoomPlus">
                        <use xlink:href="#rim" fill="#404040">
                                <set attributeName="fill" to="#808080" begin="zoomplus.mouseover" end="zoomplus.mouseout"/>
                        </use>
                        <path d="M-4,0h8M0,-4v8" fill="none" stroke="white" stroke-width="1.5" pointer-events="none"/>
                </g>
                <g id="zoomMin">
                        <use xlink:href="#rim" fill="#404040">
                                <set attributeName="fill" to="#808080" begin="zoomminus.mouseover" end="zoomminus.mouseout"/>
                        </use>
                        <path d="M-4,0h8" fill="none" stroke="white" stroke-width="1.5" pointer-events="none"/>
                </g>
                <g id="dirArrow">
                        <path fill="none" stroke="white" stroke-width="1.5" d="M0,-3.0v7 M-2.5,-0.5L0,-3.0L2.5,-0.5"/>
                </g>
               <g id="resetDef">
                       <use xlink:href="#rim2" fill="#404040">
                               <set attributeName="fill" to="#808080" begin="reset.mouseover" end="reset.mouseout"/>
                       </use>
               </g>
        </defs>

<script type="text/javascript">
var viewWidth = 3391;
var viewHeight = 195;
var sectionId = 'dynsection-0';
</script>
<script xlink:href="svgpan.js"/>
<svg id="graph" class="graph">
<g id="viewport">
<title>/home/runner/work/beluga/beluga/beluga/include/beluga/algorithm/cluster_based_estimation.hpp</title>
<!-- Node1 -->
<g id="node1" class="node">
<title>Node1</title>
<g id="a_node1"><a xlink:title="Implementation of a cluster&#45;based estimation algorithm.">
<polygon fill="#bfbfbf" stroke="black" points="2043,-134.5 2043,-186.5 2188,-186.5 2188,-134.5 2043,-134.5"/>
<text text-anchor="start" x="2051" y="-174.5" font-family="Helvetica,sans-Serif" font-size="10.00">/home/runner/work/beluga</text>
<text text-anchor="start" x="2051" y="-163.5" font-family="Helvetica,sans-Serif" font-size="10.00">/beluga/beluga/include</text>
<text text-anchor="start" x="2051" y="-152.5" font-family="Helvetica,sans-Serif" font-size="10.00">/beluga/algorithm/cluster</text>
<text text-anchor="middle" x="2115.5" y="-141.5" font-family="Helvetica,sans-Serif" font-size="10.00">_based_estimation.hpp</text>
</a>
</g>
</g>
<!-- Node2 -->
<g id="node2" class="node">
<title>Node2</title>
<g id="a_node2"><a xlink:title=" ">
<polygon fill="none" stroke="#bfbfbf" points="1055,-73 1055,-92 1120,-92 1120,-73 1055,-73"/>
<text text-anchor="middle" x="1087.5" y="-80" font-family="Helvetica,sans-Serif" font-size="10.00">functional</text>
</a>
</g>
</g>
<!-- Node1&#45;&gt;Node2 -->
<g id="edge1" class="edge">
<title>Node1&#45;&gt;Node2</title>
<path fill="none" stroke="midnightblue" d="M2042.95,-157.51C1846.01,-151.72 1304.41,-132.98 1129.5,-98 1125.8,-97.26 1121.99,-96.28 1118.23,-95.16"/>
<polygon fill="midnightblue" stroke="midnightblue" points="1119.15,-91.78 1108.56,-92.01 1116.98,-98.44 1119.15,-91.78"/>
</g>
<!-- Node3 -->
<g id="node3" class="node">
<title>Node3</title>
<g id="a_node3"><a xlink:title=" ">
<polygon fill="none" stroke="#bfbfbf" points="1138.5,-73 1138.5,-92 1194.5,-92 1194.5,-73 1138.5,-73"/>
<text text-anchor="middle" x="1166.5" y="-80" font-family="Helvetica,sans-Serif" font-size="10.00">optional</text>
</a>
</g>
</g>
<!-- Node1&#45;&gt;Node3 -->
<g id="edge2" class="edge">
<title>Node1&#45;&gt;Node3</title>
<path fill="none" stroke="midnightblue" d="M2042.97,-157.47C1856.34,-151.78 1363,-133.74 1203.5,-98 1200.5,-97.33 1197.42,-96.45 1194.39,-95.46"/>
<polygon fill="midnightblue" stroke="midnightblue" points="1195.57,-92.16 1184.97,-92.02 1193.16,-98.74 1195.57,-92.16"/>
</g>
<!-- Node4 -->
<g id="node4" class="node">
<title>Node4</title>
<g id="a_node4"><a xlink:title=" ">
<polygon fill="none" stroke="#bfbfbf" points="1213,-73 1213,-92 1260,-92 1260,-73 1213,-73"/>
<text text-anchor="middle" x="1236.5" y="-80" font-family="Helvetica,sans-Serif" font-size="10.00">queue</text>
</a>
</g>
</g>
<!-- Node1&#45;&gt;Node4 -->
<g id="edge3" class="edge">
<title>Node1&#45;&gt;Node4</title>
<path fill="none" stroke="midnightblue" d="M2042.9,-157.51C1865.56,-152.11 1414.25,-135.05 1268.5,-98 1266.29,-97.44 1264.04,-96.73 1261.82,-95.93"/>
<polygon fill="midnightblue" stroke="midnightblue" points="1262.95,-92.62 1252.38,-92.03 1260.28,-99.08 1262.95,-92.62"/>
</g>
<!-- Node5 -->
<g id="node5" class="node">
<title>Node5</title>
<g id="a_node5"><a xlink:title=" ">
<polygon fill="none" stroke="#bfbfbf" points="1278,-73 1278,-92 1371,-92 1371,-73 1278,-73"/>
<text text-anchor="middle" x="1324.5" y="-80" font-family="Helvetica,sans-Serif" font-size="10.00">unordered_map</text>
</a>
</g>
</g>
<!-- Node1&#45;&gt;Node5 -->
<g id="edge4" class="edge">
<title>Node1&#45;&gt;Node5</title>
<path fill="none" stroke="midnightblue" d="M2042.8,-156.97C1911.03,-151.59 1624.27,-136.22 1385.5,-98 1379.22,-97 1372.63,-95.69 1366.2,-94.28"/>
<polygon fill="midnightblue" stroke="midnightblue" points="1366.83,-90.84 1356.3,-92.01 1365.26,-97.66 1366.83,-90.84"/>
</g>
<!-- Node6 -->
<g id="node6" class="node">
<title>Node6</title>
<g id="a_node6"><a xlink:title=" ">
<polygon fill="none" stroke="#bfbfbf" points="2290,-6 2290,-25 2335,-25 2335,-6 2290,-6"/>
<text text-anchor="middle" x="2312.5" y="-13" font-family="Helvetica,sans-Serif" font-size="10.00">utility</text>
</a>
</g>
</g>
<!-- Node1&#45;&gt;Node6 -->
<g id="edge5" class="edge">
<title>Node1&#45;&gt;Node6</title>
<path fill="none" stroke="midnightblue" d="M2113.81,-134.17C2113.86,-113.44 2117.46,-84.73 2134.5,-67 2180.82,-18.83 2217.35,-52.88 2280.5,-31 2282.16,-30.42 2283.86,-29.79 2285.56,-29.13"/>
<polygon fill="midnightblue" stroke="midnightblue" points="2287.29,-32.19 2295.13,-25.07 2284.56,-25.75 2287.29,-32.19"/>
</g>
<!-- Node7 -->
<g id="node7" class="node">
<title>Node7</title>
<g id="a_node7"><a xlink:title=" ">
<polygon fill="none" stroke="#bfbfbf" points="2298,-73 2298,-92 2345,-92 2345,-73 2298,-73"/>
<text text-anchor="middle" x="2321.5" y="-80" font-family="Helvetica,sans-Serif" font-size="10.00">vector</text>
</a>
</g>
</g>
<!-- Node1&#45;&gt;Node7 -->
<g id="edge6" class="edge">
<title>Node1&#45;&gt;Node7</title>
<path fill="none" stroke="midnightblue" d="M2188.32,-134.93C2219.38,-124.11 2255.91,-110.93 2288.5,-98 2290.1,-97.37 2291.74,-96.7 2293.38,-96.02"/>
<polygon fill="midnightblue" stroke="midnightblue" points="2294.93,-99.16 2302.75,-92.02 2292.18,-92.72 2294.93,-99.16"/>
</g>
<!-- Node8 -->
<g id="node8" class="node">
<title>Node8</title>
<g id="a_node8"><a xlink:title=" ">
<polygon fill="none" stroke="#bfbfbf" points="2363.5,-67.5 2363.5,-97.5 2473.5,-97.5 2473.5,-67.5 2363.5,-67.5"/>
<text text-anchor="start" x="2371.5" y="-85.5" font-family="Helvetica,sans-Serif" font-size="10.00">range/v3/algorithm</text>
<text text-anchor="middle" x="2418.5" y="-74.5" font-family="Helvetica,sans-Serif" font-size="10.00">/max_element.hpp</text>
</a>
</g>
</g>
<!-- Node1&#45;&gt;Node8 -->
<g id="edge7" class="edge">
<title>Node1&#45;&gt;Node8</title>
<path fill="none" stroke="midnightblue" d="M2188.08,-141.3C2238.36,-128.68 2304.74,-112.03 2353.33,-99.85"/>
<polygon fill="midnightblue" stroke="midnightblue" points="2354.26,-103.22 2363.11,-97.39 2352.56,-96.43 2354.26,-103.22"/>
</g>
<!-- Node9 -->
<g id="node9" class="node">
<title>Node9</title>
<g id="a_node9"><a xlink:title=" ">
<polygon fill="none" stroke="#bfbfbf" points="2491.5,-67.5 2491.5,-97.5 2601.5,-97.5 2601.5,-67.5 2491.5,-67.5"/>
<text text-anchor="start" x="2499.5" y="-85.5" font-family="Helvetica,sans-Serif" font-size="10.00">range/v3/algorithm</text>
<text text-anchor="middle" x="2546.5" y="-74.5" font-family="Helvetica,sans-Serif" font-size="10.00">/sort.hpp</text>
</a>
</g>
</g>
<!-- Node1&#45;&gt;Node9 -->
<g id="edge8" class="edge">
<title>Node1&#45;&gt;Node9</title>
<path fill="none" stroke="midnightblue" d="M2188.14,-148.57C2260.09,-137.47 2373.63,-119.18 2481.32,-98.17"/>
<polygon fill="midnightblue" stroke="midnightblue" points="2482.25,-101.56 2491.38,-96.2 2480.9,-94.69 2482.25,-101.56"/>
</g>
<!-- Node10 -->
<g id="node10" class="node">
<title>Node10</title>
<g id="a_node10"><a xlink:title=" ">
<polygon fill="none" stroke="#bfbfbf" points="0,-6 0,-25 183,-25 183,-6 0,-6"/>
<text text-anchor="middle" x="91.5" y="-13" font-family="Helvetica,sans-Serif" font-size="10.00">range/v3/numeric/accumulate.hpp</text>
</a>
</g>
</g>
<!-- Node1&#45;&gt;Node10 -->
<g id="edge9" class="edge">
<title>Node1&#45;&gt;Node10</title>
<path fill="none" stroke="midnightblue" d="M2042.88,-158.98C1886.88,-156.92 1524.91,-146.86 1413.5,-98 1394.77,-89.79 1398.45,-74.68 1379.5,-67 1257.2,-17.47 323.96,-42.39 192.5,-31 179.76,-29.9 166.17,-28.26 153.23,-26.48"/>
<polygon fill="midnightblue" stroke="midnightblue" points="153.4,-22.97 143.01,-25.03 152.42,-29.9 153.4,-22.97"/>
</g>
<!-- Node11 -->
<g id="node11" class="node">
<title>Node11</title>
<g id="a_node11"><a xlink:title=" ">
<polygon fill="none" stroke="#bfbfbf" points="2620,-73 2620,-92 2787,-92 2787,-73 2620,-73"/>
<text text-anchor="middle" x="2703.5" y="-80" font-family="Helvetica,sans-Serif" font-size="10.00">range/v3/range/conversion.hpp</text>
</a>
</g>
</g>
<!-- Node1&#45;&gt;Node11 -->
<g id="edge10" class="edge">
<title>Node1&#45;&gt;Node11</title>
<path fill="none" stroke="midnightblue" d="M2188.15,-151.19C2284.72,-139.98 2460.63,-118.99 2610.5,-98 2620.21,-96.64 2630.48,-95.12 2640.51,-93.59"/>
<polygon fill="midnightblue" stroke="midnightblue" points="2641.08,-97.05 2650.43,-92.07 2640.01,-90.13 2641.08,-97.05"/>
</g>
<!-- Node12 -->
<g id="node12" class="node">
<title>Node12</title>
<g id="a_node12"><a xlink:title=" ">
<polygon fill="none" stroke="#bfbfbf" points="2805.5,-73 2805.5,-92 2949.5,-92 2949.5,-73 2805.5,-73"/>
<text text-anchor="middle" x="2877.5" y="-80" font-family="Helvetica,sans-Serif" font-size="10.00">range/v3/view/cache1.hpp</text>
</a>
</g>
</g>
<!-- Node1&#45;&gt;Node12 -->
<g id="edge11" class="edge">
<title>Node1&#45;&gt;Node12</title>
<path fill="none" stroke="midnightblue" d="M2188.3,-155.01C2313.13,-146.86 2575.9,-127.65 2796.5,-98 2805.35,-96.81 2814.7,-95.34 2823.79,-93.79"/>
<polygon fill="midnightblue" stroke="midnightblue" points="2824.64,-97.2 2833.89,-92.03 2823.44,-90.3 2824.64,-97.2"/>
</g>
<!-- Node13 -->
<g id="node13" class="node">
<title>Node13</title>
<g id="a_node13"><a xlink:title=" ">
<polygon fill="none" stroke="#bfbfbf" points="2968,-73 2968,-92 3099,-92 3099,-73 2968,-73"/>
<text text-anchor="middle" x="3033.5" y="-80" font-family="Helvetica,sans-Serif" font-size="10.00">range/v3/view/filter.hpp</text>
</a>
</g>
</g>
<!-- Node1&#45;&gt;Node13 -->
<g id="edge12" class="edge">
<title>Node1&#45;&gt;Node13</title>
<path fill="none" stroke="midnightblue" d="M2188.25,-157.09C2334.63,-151.6 2675.02,-135.61 2958.5,-98 2966.72,-96.91 2975.41,-95.48 2983.84,-93.96"/>
<polygon fill="midnightblue" stroke="midnightblue" points="2984.76,-97.34 2993.94,-92.05 2983.47,-90.46 2984.76,-97.34"/>
</g>
<!-- Node14 -->
<g id="node14" class="node">
<title>Node14</title>
<g id="a_node14"><a xlink:title=" ">
<polygon fill="none" stroke="#bfbfbf" points="3117,-73 3117,-92 3248,-92 3248,-73 3117,-73"/>
<text text-anchor="middle" x="3182.5" y="-80" font-family="Helvetica,sans-Serif" font-size="10.00">range/v3/view/map.hpp</text>
</a>
</g>
</g>
<!-- Node1&#45;&gt;Node14 -->
<g id="edge13" class="edge">
<title>Node1&#45;&gt;Node14</title>
<path fill="none" stroke="midnightblue" d="M2188.07,-158.27C2352.52,-154.78 2765.86,-141.99 3108.5,-98 3116.72,-96.95 3125.39,-95.53 3133.8,-93.99"/>
<polygon fill="midnightblue" stroke="midnightblue" points="3134.7,-97.38 3143.87,-92.07 3133.39,-90.5 3134.7,-97.38"/>
</g>
<!-- Node15 -->
<g id="node15" class="node">
<title>Node15</title>
<g id="a_node15"><a xlink:title=" ">
<polygon fill="none" stroke="#bfbfbf" points="201.5,-6 201.5,-25 325.5,-25 325.5,-6 201.5,-6"/>
<text text-anchor="middle" x="263.5" y="-13" font-family="Helvetica,sans-Serif" font-size="10.00">range/v3/view/zip.hpp</text>
</a>
</g>
</g>
<!-- Node1&#45;&gt;Node15 -->
<g id="edge14" class="edge">
<title>Node1&#45;&gt;Node15</title>
<path fill="none" stroke="midnightblue" d="M2042.95,-157.52C1894.75,-152.7 1562.34,-137.7 1456.5,-98 1434.44,-89.73 1435.8,-74.61 1413.5,-67 1299.98,-28.24 453.63,-45.05 334.5,-31 326.33,-30.04 317.7,-28.62 309.38,-27.04"/>
<polygon fill="midnightblue" stroke="midnightblue" points="309.92,-23.58 299.43,-25.06 308.55,-30.45 309.92,-23.58"/>
</g>
<!-- Node16 -->
<g id="node16" class="node">
<title>Node16</title>
<g id="a_node16"><a xlink:title=" ">
<polygon fill="none" stroke="#bfbfbf" points="2179.5,-6 2179.5,-25 2271.5,-25 2271.5,-6 2179.5,-6"/>
<text text-anchor="middle" x="2225.5" y="-13" font-family="Helvetica,sans-Serif" font-size="10.00">sophus/se2.hpp</text>
</a>
</g>
</g>
<!-- Node1&#45;&gt;Node16 -->
<g id="edge15" class="edge">
<title>Node1&#45;&gt;Node16</title>
<path fill="none" stroke="midnightblue" d="M2102.8,-134.25C2094.77,-114.37 2088.18,-86.81 2101.5,-67 2111.2,-52.58 2151.87,-37.77 2184.03,-27.96"/>
<polygon fill="midnightblue" stroke="midnightblue" points="2185.11,-31.29 2193.69,-25.07 2183.11,-24.58 2185.11,-31.29"/>
</g>
<!-- Node17 -->
<g id="node17" class="node">
<title>Node17</title>
<g id="a_node17"><a xlink:title=" ">
<polygon fill="none" stroke="#bfbfbf" points="1949.5,-6 1949.5,-25 2051.5,-25 2051.5,-6 1949.5,-6"/>
<text text-anchor="middle" x="2000.5" y="-13" font-family="Helvetica,sans-Serif" font-size="10.00">sophus/types.hpp</text>
</a>
</g>
</g>
<!-- Node1&#45;&gt;Node17 -->
<g id="edge16" class="edge">
<title>Node1&#45;&gt;Node17</title>
<path fill="none" stroke="midnightblue" d="M2095.21,-134.26C2071.77,-105.13 2033.9,-58.03 2013.88,-33.14"/>
<polygon fill="midnightblue" stroke="midnightblue" points="2016.37,-30.65 2007.38,-25.05 2010.92,-35.04 2016.37,-30.65"/>
</g>
<!-- Node18 -->
<g id="node18" class="node">
<title>Node18</title>
<g id="a_node18"><a xlink:href="estimation_8hpp.html" target="_top" xlink:title="Implementation of algorithms that allow calculating the estimated state of a particle filter.">
<polygon fill="none" stroke="black" points="1465.5,-73 1465.5,-92 1641.5,-92 1641.5,-73 1465.5,-73"/>
<text text-anchor="middle" x="1553.5" y="-80" font-family="Helvetica,sans-Serif" font-size="10.00">beluga/algorithm/estimation.hpp</text>
</a>
</g>
</g>
<!-- Node1&#45;&gt;Node18 -->
<g id="edge17" class="edge">
<title>Node1&#45;&gt;Node18</title>
<path fill="none" stroke="midnightblue" d="M2042.89,-149.68C1935.24,-135.12 1734.43,-107.97 1626.53,-93.38"/>
<polygon fill="midnightblue" stroke="midnightblue" points="1626.76,-89.88 1616.39,-92 1625.83,-96.81 1626.76,-89.88"/>
</g>
<!-- Node31 -->
<g id="node31" class="node">
<title>Node31</title>
<g id="a_node31"><a xlink:href="spatial__hash_8hpp.html" target="_top" xlink:title="Implementation of a spatial hash for N dimensional states.">
<polygon fill="none" stroke="black" points="2143.5,-67.5 2143.5,-97.5 2279.5,-97.5 2279.5,-67.5 2143.5,-67.5"/>
<text text-anchor="start" x="2151.5" y="-85.5" font-family="Helvetica,sans-Serif" font-size="10.00">beluga/algorithm/spatial</text>
<text text-anchor="middle" x="2211.5" y="-74.5" font-family="Helvetica,sans-Serif" font-size="10.00">_hash.hpp</text>
</a>
</g>
</g>
<!-- Node1&#45;&gt;Node31 -->
<g id="edge34" class="edge">
<title>Node1&#45;&gt;Node31</title>
<path fill="none" stroke="midnightblue" d="M2147.2,-134.4C2159.59,-124.59 2173.63,-113.48 2185.42,-104.14"/>
<polygon fill="midnightblue" stroke="midnightblue" points="2187.89,-106.66 2193.55,-97.71 2183.54,-101.17 2187.89,-106.66"/>
</g>
<!-- Node37 -->
<g id="node37" class="node">
<title>Node37</title>
<g id="a_node37"><a xlink:title=" ">
<polygon fill="none" stroke="#bfbfbf" points="3266.5,-67.5 3266.5,-97.5 3382.5,-97.5 3382.5,-67.5 3266.5,-67.5"/>
<text text-anchor="start" x="3274.5" y="-85.5" font-family="Helvetica,sans-Serif" font-size="10.00">range/v3/view/group</text>
<text text-anchor="middle" x="3324.5" y="-74.5" font-family="Helvetica,sans-Serif" font-size="10.00">_by.hpp</text>
</a>
</g>
</g>
<!-- Node1&#45;&gt;Node37 -->
<g id="edge43" class="edge">
<title>Node1&#45;&gt;Node37</title>
<path fill="none" stroke="midnightblue" d="M2188.02,-159.59C2367.77,-158.95 2848.23,-152.01 3256.56,-97.97"/>
<polygon fill="midnightblue" stroke="midnightblue" points="3257.05,-101.44 3266.5,-96.65 3256.12,-94.5 3257.05,-101.44"/>
</g>
<!-- Node18&#45;&gt;Node10 -->
<g id="edge21" class="edge">
<title>Node18&#45;&gt;Node10</title>
<path fill="none" stroke="midnightblue" d="M1481.28,-72.99C1459.53,-70.71 1435.57,-68.47 1413.5,-67 871.79,-31.01 733.39,-77.65 192.5,-31 179.69,-29.9 166.02,-28.25 153.01,-26.46"/>
<polygon fill="midnightblue" stroke="midnightblue" points="153.14,-22.95 142.75,-25 152.16,-29.88 153.14,-22.95"/>
</g>
<!-- Node18&#45;&gt;Node15 -->
<g id="edge28" class="edge">
<title>Node18&#45;&gt;Node15</title>
<path fill="none" stroke="midnightblue" d="M1501.47,-72.99C1485.48,-70.67 1467.8,-68.42 1451.5,-67 956.66,-23.98 827.82,-88.9 334.5,-31 326.33,-30.04 317.7,-28.63 309.37,-27.05"/>
<polygon fill="midnightblue" stroke="midnightblue" points="309.92,-23.59 299.43,-25.07 308.55,-30.45 309.92,-23.59"/>
</g>
<!-- Node18&#45;&gt;Node16 -->
<g id="edge29" class="edge">
<title>Node18&#45;&gt;Node16</title>
<path fill="none" stroke="midnightblue" d="M1641.73,-79.16C1762.03,-74.85 1983.93,-62.97 2170.5,-31 2175.91,-30.07 2181.57,-28.86 2187.11,-27.54"/>
<polygon fill="midnightblue" stroke="midnightblue" points="2188.04,-30.91 2196.88,-25.07 2186.33,-24.13 2188.04,-30.91"/>
</g>
<!-- Node18&#45;&gt;Node17 -->
<g id="edge32" class="edge">
<title>Node18&#45;&gt;Node17</title>
<path fill="none" stroke="midnightblue" d="M1639.23,-72.98C1717.92,-64.54 1837.57,-50.1 1940.5,-31 1946.24,-29.94 1952.25,-28.67 1958.16,-27.33"/>
<polygon fill="midnightblue" stroke="midnightblue" points="1959,-30.73 1967.94,-25.04 1957.41,-23.91 1959,-30.73"/>
</g>
<!-- Node19 -->
<g id="node19" class="node">
<title>Node19</title>
<g id="a_node19"><a xlink:title=" ">
<polygon fill="none" stroke="#bfbfbf" points="528,-0.5 528,-30.5 633,-30.5 633,-0.5 528,-0.5"/>
<text text-anchor="start" x="536" y="-18.5" font-family="Helvetica,sans-Serif" font-size="10.00">Eigen/src/Core/util</text>
<text text-anchor="middle" x="580.5" y="-7.5" font-family="Helvetica,sans-Serif" font-size="10.00">/Meta.h</text>
</a>
</g>
</g>
<!-- Node18&#45;&gt;Node19 -->
<g id="edge18" class="edge">
<title>Node18&#45;&gt;Node19</title>
<path fill="none" stroke="midnightblue" d="M1500.67,-73C1484.89,-70.73 1467.53,-68.49 1451.5,-67 1096.46,-33.94 1000.8,-79.33 643.25,-30.9"/>
<polygon fill="midnightblue" stroke="midnightblue" points="643.52,-27.4 633.14,-29.51 642.57,-34.34 643.52,-27.4"/>
</g>
<!-- Node20 -->
<g id="node20" class="node">
<title>Node20</title>
<g id="a_node20"><a xlink:title=" ">
<polygon fill="none" stroke="#bfbfbf" points="651.5,-0.5 651.5,-30.5 761.5,-30.5 761.5,-0.5 651.5,-0.5"/>
<text text-anchor="start" x="659.5" y="-18.5" font-family="Helvetica,sans-Serif" font-size="10.00">range/v3/algorithm</text>
<text text-anchor="middle" x="706.5" y="-7.5" font-family="Helvetica,sans-Serif" font-size="10.00">/count_if.hpp</text>
</a>
</g>
</g>
<!-- Node18&#45;&gt;Node20 -->
<g id="edge19" class="edge">
<title>Node18&#45;&gt;Node20</title>
<path fill="none" stroke="midnightblue" d="M1499.88,-72.97C1484.31,-70.74 1467.26,-68.53 1451.5,-67 1153.22,-37.97 1072.52,-71.86 771.88,-31.02"/>
<polygon fill="midnightblue" stroke="midnightblue" points="771.93,-27.49 761.55,-29.6 770.98,-34.43 771.93,-27.49"/>
</g>
<!-- Node21 -->
<g id="node21" class="node">
<title>Node21</title>
<g id="a_node21"><a xlink:title=" ">
<polygon fill="none" stroke="#bfbfbf" points="779.5,-6 779.5,-25 953.5,-25 953.5,-6 779.5,-6"/>
<text text-anchor="middle" x="866.5" y="-13" font-family="Helvetica,sans-Serif" font-size="10.00">range/v3/iterator/operations.hpp</text>
</a>
</g>
</g>
<!-- Node18&#45;&gt;Node21 -->
<g id="edge20" class="edge">
<title>Node18&#45;&gt;Node21</title>
<path fill="none" stroke="midnightblue" d="M1498.53,-72.99C1483.32,-70.83 1466.79,-68.65 1451.5,-67 1234.83,-43.65 1179.06,-55.29 962.5,-31 951.36,-29.75 939.53,-28.17 928.11,-26.52"/>
<polygon fill="midnightblue" stroke="midnightblue" points="928.62,-23.06 918.22,-25.05 927.6,-29.98 928.62,-23.06"/>
</g>
<!-- Node22 -->
<g id="node22" class="node">
<title>Node22</title>
<g id="a_node22"><a xlink:title=" ">
<polygon fill="none" stroke="#bfbfbf" points="972,-6 972,-25 1119,-25 1119,-6 972,-6"/>
<text text-anchor="middle" x="1045.5" y="-13" font-family="Helvetica,sans-Serif" font-size="10.00">range/v3/range/access.hpp</text>
</a>
</g>
</g>
<!-- Node18&#45;&gt;Node22 -->
<g id="edge22" class="edge">
<title>Node18&#45;&gt;Node22</title>
<path fill="none" stroke="midnightblue" d="M1495.82,-72.99C1481.36,-70.94 1465.87,-68.82 1451.5,-67 1308.2,-48.83 1271.49,-51.44 1128.5,-31 1119.77,-29.75 1110.54,-28.29 1101.54,-26.78"/>
<polygon fill="midnightblue" stroke="midnightblue" points="1101.96,-23.3 1091.52,-25.06 1100.78,-30.2 1101.96,-23.3"/>
</g>
<!-- Node23 -->
<g id="node23" class="node">
<title>Node23</title>
<g id="a_node23"><a xlink:title=" ">
<polygon fill="none" stroke="#bfbfbf" points="1137.5,-6 1137.5,-25 1301.5,-25 1301.5,-6 1137.5,-6"/>
<text text-anchor="middle" x="1219.5" y="-13" font-family="Helvetica,sans-Serif" font-size="10.00">range/v3/range/primitives.hpp</text>
</a>
</g>
</g>
<!-- Node18&#45;&gt;Node23 -->
<g id="edge23" class="edge">
<title>Node18&#45;&gt;Node23</title>
<path fill="none" stroke="midnightblue" d="M1509.49,-72.94C1448.71,-61.11 1339.14,-39.78 1273.49,-27.01"/>
<polygon fill="midnightblue" stroke="midnightblue" points="1273.82,-23.51 1263.34,-25.03 1272.49,-30.38 1273.82,-23.51"/>
</g>
<!-- Node24 -->
<g id="node24" class="node">
<title>Node24</title>
<g id="a_node24"><a xlink:title=" ">
<polygon fill="none" stroke="#bfbfbf" points="1319.5,-6 1319.5,-25 1471.5,-25 1471.5,-6 1319.5,-6"/>
<text text-anchor="middle" x="1395.5" y="-13" font-family="Helvetica,sans-Serif" font-size="10.00">range/v3/view/common.hpp</text>
</a>
</g>
</g>
<!-- Node18&#45;&gt;Node24 -->
<g id="edge24" class="edge">
<title>Node18&#45;&gt;Node24</title>
<path fill="none" stroke="midnightblue" d="M1532.52,-72.87C1505.25,-61.65 1457.43,-41.98 1426.11,-29.09"/>
<polygon fill="midnightblue" stroke="midnightblue" points="1427.15,-25.74 1416.57,-25.17 1424.48,-32.21 1427.15,-25.74"/>
</g>
<!-- Node25 -->
<g id="node25" class="node">
<title>Node25</title>
<g id="a_node25"><a xlink:title=" ">
<polygon fill="none" stroke="#bfbfbf" points="1489.5,-6 1489.5,-25 1617.5,-25 1617.5,-6 1489.5,-6"/>
<text text-anchor="middle" x="1553.5" y="-13" font-family="Helvetica,sans-Serif" font-size="10.00">range/v3/view/iota.hpp</text>
</a>
</g>
</g>
<!-- Node18&#45;&gt;Node25 -->
<g id="edge25" class="edge">
<title>Node18&#45;&gt;Node25</title>
<path fill="none" stroke="midnightblue" d="M1553.5,-72.73C1553.5,-63.18 1553.5,-47.62 1553.5,-35.28"/>
<polygon fill="midnightblue" stroke="midnightblue" points="1557,-35.13 1553.5,-25.13 1550,-35.13 1557,-35.13"/>
</g>
<!-- Node26 -->
<g id="node26" class="node">
<title>Node26</title>
<g id="a_node26"><a xlink:title=" ">
<polygon fill="none" stroke="#bfbfbf" points="1635.5,-0.5 1635.5,-30.5 1755.5,-30.5 1755.5,-0.5 1635.5,-0.5"/>
<text text-anchor="start" x="1643.5" y="-18.5" font-family="Helvetica,sans-Serif" font-size="10.00">range/v3/view/repeat</text>
<text text-anchor="middle" x="1695.5" y="-7.5" font-family="Helvetica,sans-Serif" font-size="10.00">_n.hpp</text>
</a>
</g>
</g>
<!-- Node18&#45;&gt;Node26 -->
<g id="edge26" class="edge">
<title>Node18&#45;&gt;Node26</title>
<path fill="none" stroke="midnightblue" d="M1572.36,-72.87C1593.48,-63.2 1628.33,-47.25 1655.57,-34.78"/>
<polygon fill="midnightblue" stroke="midnightblue" points="1657.22,-37.87 1664.85,-30.53 1654.3,-31.51 1657.22,-37.87"/>
</g>
<!-- Node27 -->
<g id="node27" class="node">
<title>Node27</title>
<g id="a_node27"><a xlink:title=" ">
<polygon fill="none" stroke="#bfbfbf" points="1773.5,-6 1773.5,-25 1931.5,-25 1931.5,-6 1773.5,-6"/>
<text text-anchor="middle" x="1852.5" y="-13" font-family="Helvetica,sans-Serif" font-size="10.00">range/v3/view/transform.hpp</text>
</a>
</g>
</g>
<!-- Node18&#45;&gt;Node27 -->
<g id="edge27" class="edge">
<title>Node18&#45;&gt;Node27</title>
<path fill="none" stroke="midnightblue" d="M1592.9,-72.94C1647.01,-61.17 1744.32,-40.02 1803.2,-27.22"/>
<polygon fill="midnightblue" stroke="midnightblue" points="1803.99,-30.63 1813.02,-25.08 1802.5,-23.79 1803.99,-30.63"/>
</g>
<!-- Node28 -->
<g id="node28" class="node">
<title>Node28</title>
<g id="a_node28"><a xlink:title=" ">
<polygon fill="none" stroke="#bfbfbf" points="2069.5,-6 2069.5,-25 2161.5,-25 2161.5,-6 2069.5,-6"/>
<text text-anchor="middle" x="2115.5" y="-13" font-family="Helvetica,sans-Serif" font-size="10.00">sophus/se3.hpp</text>
</a>
</g>
</g>
<!-- Node18&#45;&gt;Node28 -->
<g id="edge30" class="edge">
<title>Node18&#45;&gt;Node28</title>
<path fill="none" stroke="midnightblue" d="M1641.56,-76.97C1743.15,-70.77 1914.91,-57.27 2060.5,-31 2065.71,-30.06 2071.15,-28.88 2076.5,-27.59"/>
<polygon fill="midnightblue" stroke="midnightblue" points="2077.74,-30.89 2086.58,-25.04 2076.02,-24.1 2077.74,-30.89"/>
</g>
<!-- Node29 -->
<g id="node29" class="node">
<title>Node29</title>
<g id="a_node29"><a xlink:title=" ">
<polygon fill="none" stroke="#bfbfbf" points="343.5,-6 343.5,-25 435.5,-25 435.5,-6 343.5,-6"/>
<text text-anchor="middle" x="389.5" y="-13" font-family="Helvetica,sans-Serif" font-size="10.00">sophus/so3.hpp</text>
</a>
</g>
</g>
<!-- Node18&#45;&gt;Node29 -->
<g id="edge31" class="edge">
<title>Node18&#45;&gt;Node29</title>
<path fill="none" stroke="midnightblue" d="M1501.21,-72.99C1485.29,-70.69 1467.71,-68.44 1451.5,-67 1005.41,-27.43 887.53,-96.49 444.5,-31 438.68,-30.14 432.59,-28.89 426.67,-27.49"/>
<polygon fill="midnightblue" stroke="midnightblue" points="427.5,-24.09 416.95,-25.02 425.78,-30.87 427.5,-24.09"/>
</g>
<!-- Node30 -->
<g id="node30" class="node">
<title>Node30</title>
<g id="a_node30"><a xlink:title=" ">
<polygon fill="none" stroke="#bfbfbf" points="453.5,-6 453.5,-25 509.5,-25 509.5,-6 453.5,-6"/>
<text text-anchor="middle" x="481.5" y="-13" font-family="Helvetica,sans-Serif" font-size="10.00">numeric</text>
</a>
</g>
</g>
<!-- Node18&#45;&gt;Node30 -->
<g id="edge33" class="edge">
<title>Node18&#45;&gt;Node30</title>
<path fill="none" stroke="midnightblue" d="M1500.94,-72.98C1485.09,-70.69 1467.62,-68.45 1451.5,-67 1244.85,-48.37 721.6,-73.45 518.5,-31 515.49,-30.37 512.41,-29.52 509.37,-28.55"/>
<polygon fill="midnightblue" stroke="midnightblue" points="510.54,-25.25 499.95,-25.13 508.16,-31.83 510.54,-25.25"/>
</g>
<!-- Node31&#45;&gt;Node6 -->
<g id="edge40" class="edge">
<title>Node31&#45;&gt;Node6</title>
<path fill="none" stroke="midnightblue" d="M2233.42,-67.4C2250.35,-56.5 2273.69,-41.48 2290.62,-30.58"/>
<polygon fill="midnightblue" stroke="midnightblue" points="2292.77,-33.36 2299.28,-25.01 2288.98,-27.48 2292.77,-33.36"/>
</g>
<!-- Node31&#45;&gt;Node16 -->
<g id="edge41" class="edge">
<title>Node31&#45;&gt;Node16</title>
<path fill="none" stroke="midnightblue" d="M2214.54,-67.4C2216.57,-57.96 2219.26,-45.45 2221.47,-35.19"/>
<polygon fill="midnightblue" stroke="midnightblue" points="2224.94,-35.71 2223.63,-25.19 2218.1,-34.23 2224.94,-35.71"/>
</g>
<!-- Node31&#45;&gt;Node28 -->
<g id="edge42" class="edge">
<title>Node31&#45;&gt;Node28</title>
<path fill="none" stroke="midnightblue" d="M2190.67,-67.4C2174.72,-56.6 2152.8,-41.76 2136.75,-30.89"/>
<polygon fill="midnightblue" stroke="midnightblue" points="2138.31,-27.72 2128.06,-25.01 2134.38,-33.51 2138.31,-27.72"/>
</g>
<!-- Node32 -->
<g id="node32" class="node">
<title>Node32</title>
<g id="a_node32"><a xlink:title=" ">
<polygon fill="none" stroke="#bfbfbf" points="2630,-6 2630,-25 2677,-25 2677,-6 2630,-6"/>
<text text-anchor="middle" x="2653.5" y="-13" font-family="Helvetica,sans-Serif" font-size="10.00">cmath</text>
</a>
</g>
</g>
<!-- Node31&#45;&gt;Node32 -->
<g id="edge35" class="edge">
<title>Node31&#45;&gt;Node32</title>
<path fill="none" stroke="midnightblue" d="M2279.51,-68.54C2282.89,-68 2286.23,-67.48 2289.5,-67 2436.34,-45.42 2478.33,-70.12 2621.5,-31 2623.65,-30.41 2625.84,-29.7 2628.01,-28.9"/>
<polygon fill="midnightblue" stroke="midnightblue" points="2629.37,-32.13 2637.26,-25.06 2626.69,-25.66 2629.37,-32.13"/>
</g>
<!-- Node33 -->
<g id="node33" class="node">
<title>Node33</title>
<g id="a_node33"><a xlink:title=" ">
<polygon fill="none" stroke="#bfbfbf" points="2353.5,-6 2353.5,-25 2403.5,-25 2403.5,-6 2353.5,-6"/>
<text text-anchor="middle" x="2378.5" y="-13" font-family="Helvetica,sans-Serif" font-size="10.00">cstdint</text>
</a>
</g>
</g>
<!-- Node31&#45;&gt;Node33 -->
<g id="edge36" class="edge">
<title>Node31&#45;&gt;Node33</title>
<path fill="none" stroke="midnightblue" d="M2249.78,-67.43C2276.44,-57.52 2312.77,-43.78 2344.5,-31 2346.1,-30.36 2347.73,-29.69 2349.38,-29.01"/>
<polygon fill="midnightblue" stroke="midnightblue" points="2350.91,-32.16 2358.78,-25.07 2348.2,-25.71 2350.91,-32.16"/>
</g>
<!-- Node34 -->
<g id="node34" class="node">
<title>Node34</title>
<g id="a_node34"><a xlink:title=" ">
<polygon fill="none" stroke="#bfbfbf" points="2421.5,-6 2421.5,-25 2465.5,-25 2465.5,-6 2421.5,-6"/>
<text text-anchor="middle" x="2443.5" y="-13" font-family="Helvetica,sans-Serif" font-size="10.00">limits</text>
</a>
</g>
</g>
<!-- Node31&#45;&gt;Node34 -->
<g id="edge37" class="edge">
<title>Node31&#45;&gt;Node34</title>
<path fill="none" stroke="midnightblue" d="M2279.92,-67.73C2319.25,-58.96 2369.28,-46.38 2412.5,-31 2414.12,-30.42 2415.76,-29.8 2417.41,-29.13"/>
<polygon fill="midnightblue" stroke="midnightblue" points="2418.93,-32.29 2426.69,-25.08 2416.13,-25.87 2418.93,-32.29"/>
</g>
<!-- Node35 -->
<g id="node35" class="node">
<title>Node35</title>
<g id="a_node35"><a xlink:title=" ">
<polygon fill="none" stroke="#bfbfbf" points="2484,-6 2484,-25 2525,-25 2525,-6 2484,-6"/>
<text text-anchor="middle" x="2504.5" y="-13" font-family="Helvetica,sans-Serif" font-size="10.00">tuple</text>
</a>
</g>
</g>
<!-- Node31&#45;&gt;Node35 -->
<g id="edge38" class="edge">
<title>Node31&#45;&gt;Node35</title>
<path fill="none" stroke="midnightblue" d="M2279.69,-68.63C2356.04,-54.19 2469.82,-32.55 2474.5,-31 2476.12,-30.46 2477.77,-29.86 2479.42,-29.2"/>
<polygon fill="midnightblue" stroke="midnightblue" points="2480.9,-32.37 2488.63,-25.12 2478.07,-25.97 2480.9,-32.37"/>
</g>
<!-- Node36 -->
<g id="node36" class="node">
<title>Node36</title>
<g id="a_node36"><a xlink:title=" ">
<polygon fill="none" stroke="#bfbfbf" points="2543,-6 2543,-25 2612,-25 2612,-6 2543,-6"/>
<text text-anchor="middle" x="2577.5" y="-13" font-family="Helvetica,sans-Serif" font-size="10.00">type_traits</text>
</a>
</g>
</g>
<!-- Node31&#45;&gt;Node36 -->
<g id="edge39" class="edge">
<title>Node31&#45;&gt;Node36</title>
<path fill="none" stroke="midnightblue" d="M2279.54,-68.69C2282.9,-68.11 2286.24,-67.54 2289.5,-67 2398.07,-48.94 2427.48,-56.69 2534.5,-31 2537.9,-30.18 2541.41,-29.22 2544.89,-28.17"/>
<polygon fill="midnightblue" stroke="midnightblue" points="2546.05,-31.48 2554.51,-25.1 2543.92,-24.81 2546.05,-31.48"/>
</g>
</g>
</svg>
        <g id="navigator" transform="translate(0 0)" fill="#404254">
                <rect fill="#f2f5e9" fill-opacity="0.5" stroke="#606060" stroke-width=".5" x="0" y="0" width="60" height="60"/>
                <use id="zoomplus" xlink:href="#zoomPlus" x="17" y="9" onmousedown="handleZoom(evt,'in')"/>
                <use id="zoomminus" xlink:href="#zoomMin" x="42" y="9" onmousedown="handleZoom(evt,'out')"/>
                <use id="reset" xlink:href="#resetDef" x="30" y="36" onmousedown="handleReset()"/>
                <g id="arrowUp" xlink:href="#dirArrow" transform="translate(30 24)" onmousedown="handlePan(0,-1)">
                  <use xlink:href="#rim" fill="#404040">
                        <set attributeName="fill" to="#808080" begin="arrowUp.mouseover" end="arrowUp.mouseout"/>
                  </use>
                  <path fill="none" stroke="white" stroke-width="1.5" d="M0,-3.0v7 M-2.5,-0.5L0,-3.0L2.5,-0.5"/>
                </g>
                <g id="arrowRight" xlink:href="#dirArrow" transform="rotate(90) translate(36 -43)" onmousedown="handlePan(1,0)">
                  <use xlink:href="#rim" fill="#404040">
                        <set attributeName="fill" to="#808080" begin="arrowRight.mouseover" end="arrowRight.mouseout"/>
                  </use>
                  <path fill="none" stroke="white" stroke-width="1.5" d="M0,-3.0v7 M-2.5,-0.5L0,-3.0L2.5,-0.5"/>
                </g>
                <g id="arrowDown" xlink:href="#dirArrow" transform="rotate(180) translate(-30 -48)" onmousedown="handlePan(0,1)">
                  <use xlink:href="#rim" fill="#404040">
                        <set attributeName="fill" to="#808080" begin="arrowDown.mouseover" end="arrowDown.mouseout"/>
                  </use>
                  <path fill="none" stroke="white" stroke-width="1.5" d="M0,-3.0v7 M-2.5,-0.5L0,-3.0L2.5,-0.5"/>
                </g>
                <g id="arrowLeft" xlink:href="#dirArrow" transform="rotate(270) translate(-36 17)" onmousedown="handlePan(-1,0)">
                  <use xlink:href="#rim" fill="#404040">
                        <set attributeName="fill" to="#808080" begin="arrowLeft.mouseover" end="arrowLeft.mouseout"/>
                  </use>
                  <path fill="none" stroke="white" stroke-width="1.5" d="M0,-3.0v7 M-2.5,-0.5L0,-3.0L2.5,-0.5"/>
                </g>
        </g>
        <svg viewBox="0 0 15 15" width="100%" height="30px" preserveAspectRatio="xMaxYMin meet">
         <g id="arrow_out" transform="scale(0.3 0.3)">
          <a xlink:href="cluster__based__estimation_8hpp__incl_org.svg" target="_base">
           <rect id="button" ry="5" rx="5" y="6" x="6" height="38" width="38"
                fill="#f2f5e9" fill-opacity="0.5" stroke="#606060" stroke-width="1.0"/>
           <path id="arrow"
             d="M 11.500037,31.436501 C 11.940474,20.09759 22.043105,11.32322 32.158766,21.979434 L 37.068811,17.246167 C 37.068811,17.246167 37.088388,32 37.088388,32 L 22.160133,31.978069 C 22.160133,31.978069 26.997745,27.140456 26.997745,27.140456 C 18.528582,18.264221 13.291696,25.230495 11.500037,31.436501 z"
             style="fill:#404040;"/>
          </a>
         </g>
        </svg>
</svg>
