<?xml version="1.0" encoding="UTF-8" standalone="no"?>
<!DOCTYPE svg PUBLIC "-//W3C//DTD SVG 1.1//EN"
 "http://www.w3.org/Graphics/SVG/1.1/DTD/svg11.dtd">
<!-- Generated by graphviz version 2.43.0 (0)
 -->
<!-- Title: /home/runner/work/beluga/beluga/beluga/include/beluga/algorithm/cluster_based_estimation.hpp Pages: 1 -->
<!--zoomable 195 -->
<svg id="main" version="1.1" xmlns="http://www.w3.org/2000/svg" xmlns:xlink="http://www.w3.org/1999/xlink" xml:space="preserve" onload="init(evt)">
<style type="text/css"><![CDATA[
.edge:hover path { stroke: red; }
.edge:hover polygon { stroke: red; fill: red; }
]]></style>
<script type="text/javascript"><![CDATA[
var edges = document.getElementsByTagName('g');
if (edges && edges.length) {
  for (var i=0;i<edges.length;i++) {
    if (edges[i].id.substr(0,4)=='edge') {
      edges[i].setAttribute('class','edge');
    }
  }
}
]]></script>
        <defs>
                <circle id="rim" cx="0" cy="0" r="7"/>
                <circle id="rim2" cx="0" cy="0" r="3.5"/>
                <g id="zoomPlus">
                        <use xlink:href="#rim" fill="#404040">
                                <set attributeName="fill" to="#808080" begin="zoomplus.mouseover" end="zoomplus.mouseout"/>
                        </use>
                        <path d="M-4,0h8M0,-4v8" fill="none" stroke="white" stroke-width="1.5" pointer-events="none"/>
                </g>
                <g id="zoomMin">
                        <use xlink:href="#rim" fill="#404040">
                                <set attributeName="fill" to="#808080" begin="zoomminus.mouseover" end="zoomminus.mouseout"/>
                        </use>
                        <path d="M-4,0h8" fill="none" stroke="white" stroke-width="1.5" pointer-events="none"/>
                </g>
                <g id="dirArrow">
                        <path fill="none" stroke="white" stroke-width="1.5" d="M0,-3.0v7 M-2.5,-0.5L0,-3.0L2.5,-0.5"/>
                </g>
               <g id="resetDef">
                       <use xlink:href="#rim2" fill="#404040">
                               <set attributeName="fill" to="#808080" begin="reset.mouseover" end="reset.mouseout"/>
                       </use>
               </g>
        </defs>

<script type="text/javascript">
var viewWidth = 2368;
var viewHeight = 195;
var sectionId = 'dynsection-0';
</script>
<script xlink:href="svgpan.js"/>
<svg id="graph" class="graph">
<g id="viewport">
<title>/home/runner/work/beluga/beluga/beluga/include/beluga/algorithm/cluster_based_estimation.hpp</title>
<!-- Node1 -->
<g id="node1" class="node">
<title>Node1</title>
<g id="a_node1"><a xlink:title="Implementation of a cluster&#45;based estimation algorithm.">
<polygon fill="#bfbfbf" stroke="black" points="830,-134.5 830,-186.5 975,-186.5 975,-134.5 830,-134.5"/>
<text text-anchor="start" x="838" y="-174.5" font-family="Helvetica,sans-Serif" font-size="10.00">/home/runner/work/beluga</text>
<text text-anchor="start" x="838" y="-163.5" font-family="Helvetica,sans-Serif" font-size="10.00">/beluga/beluga/include</text>
<text text-anchor="start" x="838" y="-152.5" font-family="Helvetica,sans-Serif" font-size="10.00">/beluga/algorithm/cluster</text>
<text text-anchor="middle" x="902.5" y="-141.5" font-family="Helvetica,sans-Serif" font-size="10.00">_based_estimation.hpp</text>
</a>
</g>
</g>
<!-- Node2 -->
<g id="node2" class="node">
<title>Node2</title>
<g id="a_node2"><a xlink:title=" ">
<polygon fill="none" stroke="#bfbfbf" points="0,-73 0,-92 65,-92 65,-73 0,-73"/>
<text text-anchor="middle" x="32.5" y="-80" font-family="Helvetica,sans-Serif" font-size="10.00">functional</text>
</a>
</g>
</g>
<!-- Node1&#45;&gt;Node2 -->
<g id="edge1" class="edge">
<title>Node1&#45;&gt;Node2</title>
<path fill="none" stroke="midnightblue" d="M829.92,-160.36C684.82,-160.7 349.27,-154.64 74.5,-98 70.99,-97.28 67.38,-96.34 63.81,-95.29"/>
<polygon fill="midnightblue" stroke="midnightblue" points="64.59,-91.86 54,-92.12 62.44,-98.52 64.59,-91.86"/>
</g>
<!-- Node3 -->
<g id="node3" class="node">
<title>Node3</title>
<g id="a_node3"><a xlink:title=" ">
<polygon fill="none" stroke="#bfbfbf" points="83.5,-73 83.5,-92 139.5,-92 139.5,-73 83.5,-73"/>
<text text-anchor="middle" x="111.5" y="-80" font-family="Helvetica,sans-Serif" font-size="10.00">optional</text>
</a>
</g>
</g>
<!-- Node1&#45;&gt;Node3 -->
<g id="edge2" class="edge">
<title>Node1&#45;&gt;Node3</title>
<path fill="none" stroke="midnightblue" d="M829.94,-156.28C667.11,-148.62 276.85,-127.71 148.5,-98 145.66,-97.34 142.76,-96.51 139.88,-95.57"/>
<polygon fill="midnightblue" stroke="midnightblue" points="140.96,-92.24 130.37,-92.12 138.57,-98.82 140.96,-92.24"/>
</g>
<!-- Node4 -->
<g id="node4" class="node">
<title>Node4</title>
<g id="a_node4"><a xlink:title=" ">
<polygon fill="none" stroke="#bfbfbf" points="158,-73 158,-92 205,-92 205,-73 158,-73"/>
<text text-anchor="middle" x="181.5" y="-80" font-family="Helvetica,sans-Serif" font-size="10.00">queue</text>
</a>
</g>
</g>
<!-- Node1&#45;&gt;Node4 -->
<g id="edge3" class="edge">
<title>Node1&#45;&gt;Node4</title>
<path fill="none" stroke="midnightblue" d="M829.84,-156.1C677.32,-148.47 328.41,-128.23 213.5,-98 211.34,-97.43 209.15,-96.73 206.97,-95.95"/>
<polygon fill="midnightblue" stroke="midnightblue" points="208.3,-92.71 197.72,-92.12 205.62,-99.18 208.3,-92.71"/>
</g>
<!-- Node5 -->
<g id="node5" class="node">
<title>Node5</title>
<g id="a_node5"><a xlink:title=" ">
<polygon fill="none" stroke="#bfbfbf" points="223,-73 223,-92 316,-92 316,-73 223,-73"/>
<text text-anchor="middle" x="269.5" y="-80" font-family="Helvetica,sans-Serif" font-size="10.00">unordered_map</text>
</a>
</g>
</g>
<!-- Node1&#45;&gt;Node5 -->
<g id="edge4" class="edge">
<title>Node1&#45;&gt;Node5</title>
<path fill="none" stroke="midnightblue" d="M829.86,-154.64C720.83,-146.69 508.67,-128.63 330.5,-98 324.52,-96.97 318.25,-95.7 312.11,-94.35"/>
<polygon fill="midnightblue" stroke="midnightblue" points="312.48,-90.84 301.95,-92.02 310.91,-97.67 312.48,-90.84"/>
</g>
<!-- Node6 -->
<g id="node6" class="node">
<title>Node6</title>
<g id="a_node6"><a xlink:title=" ">
<polygon fill="none" stroke="#bfbfbf" points="2060,-6 2060,-25 2105,-25 2105,-6 2060,-6"/>
<text text-anchor="middle" x="2082.5" y="-13" font-family="Helvetica,sans-Serif" font-size="10.00">utility</text>
</a>
</g>
</g>
<!-- Node1&#45;&gt;Node6 -->
<g id="edge5" class="edge">
<title>Node1&#45;&gt;Node6</title>
<path fill="none" stroke="midnightblue" d="M975.08,-158.27C1173.43,-154.41 1721.46,-140.11 1896.5,-98 1957.91,-83.23 2024.46,-49.22 2058.88,-30.13"/>
<polygon fill="midnightblue" stroke="midnightblue" points="2060.71,-33.12 2067.71,-25.17 2057.28,-27.02 2060.71,-33.12"/>
</g>
<!-- Node7 -->
<g id="node7" class="node">
<title>Node7</title>
<g id="a_node7"><a xlink:title=" ">
<polygon fill="none" stroke="#bfbfbf" points="373,-73 373,-92 420,-92 420,-73 373,-73"/>
<text text-anchor="middle" x="396.5" y="-80" font-family="Helvetica,sans-Serif" font-size="10.00">vector</text>
</a>
</g>
</g>
<!-- Node1&#45;&gt;Node7 -->
<g id="edge6" class="edge">
<title>Node1&#45;&gt;Node7</title>
<path fill="none" stroke="midnightblue" d="M829.91,-156.47C735.97,-151.1 567.91,-136.55 429.5,-98 427.34,-97.4 425.15,-96.68 422.96,-95.9"/>
<polygon fill="midnightblue" stroke="midnightblue" points="424.21,-92.63 413.63,-92.13 421.59,-99.12 424.21,-92.63"/>
</g>
<!-- Node8 -->
<g id="node8" class="node">
<title>Node8</title>
<g id="a_node8"><a xlink:title=" ">
<polygon fill="none" stroke="#bfbfbf" points="438.5,-67.5 438.5,-97.5 548.5,-97.5 548.5,-67.5 438.5,-67.5"/>
<text text-anchor="start" x="446.5" y="-85.5" font-family="Helvetica,sans-Serif" font-size="10.00">range/v3/algorithm</text>
<text text-anchor="middle" x="493.5" y="-74.5" font-family="Helvetica,sans-Serif" font-size="10.00">/max_element.hpp</text>
</a>
</g>
</g>
<!-- Node1&#45;&gt;Node8 -->
<g id="edge7" class="edge">
<title>Node1&#45;&gt;Node8</title>
<path fill="none" stroke="midnightblue" d="M829.96,-147.57C762.27,-136.22 658.24,-118.18 558.56,-98.17"/>
<polygon fill="midnightblue" stroke="midnightblue" points="559.12,-94.71 548.62,-96.16 557.73,-101.57 559.12,-94.71"/>
</g>
<!-- Node9 -->
<g id="node9" class="node">
<title>Node9</title>
<g id="a_node9"><a xlink:title=" ">
<polygon fill="none" stroke="#bfbfbf" points="566.5,-67.5 566.5,-97.5 676.5,-97.5 676.5,-67.5 566.5,-67.5"/>
<text text-anchor="start" x="574.5" y="-85.5" font-family="Helvetica,sans-Serif" font-size="10.00">range/v3/algorithm</text>
<text text-anchor="middle" x="621.5" y="-74.5" font-family="Helvetica,sans-Serif" font-size="10.00">/sort.hpp</text>
</a>
</g>
</g>
<!-- Node1&#45;&gt;Node9 -->
<g id="edge8" class="edge">
<title>Node1&#45;&gt;Node9</title>
<path fill="none" stroke="midnightblue" d="M829.77,-139.83C784.36,-127.55 726.53,-111.91 683.34,-100.22"/>
<polygon fill="midnightblue" stroke="midnightblue" points="684.09,-96.8 673.52,-97.57 682.26,-103.56 684.09,-96.8"/>
</g>
<!-- Node10 -->
<g id="node10" class="node">
<title>Node10</title>
<g id="a_node10"><a xlink:title=" ">
<polygon fill="none" stroke="#bfbfbf" points="527,-6 527,-25 710,-25 710,-6 527,-6"/>
<text text-anchor="middle" x="618.5" y="-13" font-family="Helvetica,sans-Serif" font-size="10.00">range/v3/numeric/accumulate.hpp</text>
</a>
</g>
</g>
<!-- Node1&#45;&gt;Node10 -->
<g id="edge9" class="edge">
<title>Node1&#45;&gt;Node10</title>
<path fill="none" stroke="midnightblue" d="M829.94,-156.5C690.04,-149.96 394.03,-132.21 363.5,-98 314.06,-42.6 425.64,-24.61 516.52,-18.91"/>
<polygon fill="midnightblue" stroke="midnightblue" points="516.87,-22.39 526.64,-18.32 516.46,-15.4 516.87,-22.39"/>
</g>
<!-- Node11 -->
<g id="node11" class="node">
<title>Node11</title>
<g id="a_node11"><a xlink:title=" ">
<polygon fill="none" stroke="#bfbfbf" points="732,-73 732,-92 899,-92 899,-73 732,-73"/>
<text text-anchor="middle" x="815.5" y="-80" font-family="Helvetica,sans-Serif" font-size="10.00">range/v3/range/conversion.hpp</text>
</a>
</g>
</g>
<!-- Node1&#45;&gt;Node11 -->
<g id="edge10" class="edge">
<title>Node1&#45;&gt;Node11</title>
<path fill="none" stroke="midnightblue" d="M873.53,-134.19C860.17,-122.52 844.73,-109.04 833.14,-98.91"/>
<polygon fill="midnightblue" stroke="midnightblue" points="835.3,-96.15 825.47,-92.21 830.7,-101.42 835.3,-96.15"/>
</g>
<!-- Node12 -->
<g id="node12" class="node">
<title>Node12</title>
<g id="a_node12"><a xlink:title=" ">
<polygon fill="none" stroke="#bfbfbf" points="917.5,-73 917.5,-92 1061.5,-92 1061.5,-73 917.5,-73"/>
<text text-anchor="middle" x="989.5" y="-80" font-family="Helvetica,sans-Serif" font-size="10.00">range/v3/view/cache1.hpp</text>
</a>
</g>
</g>
<!-- Node1&#45;&gt;Node12 -->
<g id="edge11" class="edge">
<title>Node1&#45;&gt;Node12</title>
<path fill="none" stroke="midnightblue" d="M931.47,-134.19C944.83,-122.52 960.27,-109.04 971.86,-98.91"/>
<polygon fill="midnightblue" stroke="midnightblue" points="974.3,-101.42 979.53,-92.21 969.7,-96.15 974.3,-101.42"/>
</g>
<!-- Node13 -->
<g id="node13" class="node">
<title>Node13</title>
<g id="a_node13"><a xlink:title=" ">
<polygon fill="none" stroke="#bfbfbf" points="1079.5,-73 1079.5,-92 1231.5,-92 1231.5,-73 1079.5,-73"/>
<text text-anchor="middle" x="1155.5" y="-80" font-family="Helvetica,sans-Serif" font-size="10.00">range/v3/view/common.hpp</text>
</a>
</g>
</g>
<!-- Node1&#45;&gt;Node13 -->
<g id="edge12" class="edge">
<title>Node1&#45;&gt;Node13</title>
<path fill="none" stroke="midnightblue" d="M975.34,-137.62C1021.51,-123.75 1079.38,-106.37 1116.88,-95.1"/>
<polygon fill="midnightblue" stroke="midnightblue" points="1118.32,-98.32 1126.89,-92.09 1116.31,-91.62 1118.32,-98.32"/>
</g>
<!-- Node14 -->
<g id="node14" class="node">
<title>Node14</title>
<g id="a_node14"><a xlink:title=" ">
<polygon fill="none" stroke="#bfbfbf" points="1250,-73 1250,-92 1381,-92 1381,-73 1250,-73"/>
<text text-anchor="middle" x="1315.5" y="-80" font-family="Helvetica,sans-Serif" font-size="10.00">range/v3/view/filter.hpp</text>
</a>
</g>
</g>
<!-- Node1&#45;&gt;Node14 -->
<g id="edge13" class="edge">
<title>Node1&#45;&gt;Node14</title>
<path fill="none" stroke="midnightblue" d="M975.07,-146.53C1043.54,-134.24 1149.05,-115.16 1240.5,-98 1247.33,-96.72 1254.51,-95.35 1261.6,-93.99"/>
<polygon fill="midnightblue" stroke="midnightblue" points="1262.73,-97.34 1271.89,-92.02 1261.41,-90.47 1262.73,-97.34"/>
</g>
<!-- Node15 -->
<g id="node15" class="node">
<title>Node15</title>
<g id="a_node15"><a xlink:title=" ">
<polygon fill="none" stroke="#bfbfbf" points="1399,-73 1399,-92 1530,-92 1530,-73 1399,-73"/>
<text text-anchor="middle" x="1464.5" y="-80" font-family="Helvetica,sans-Serif" font-size="10.00">range/v3/view/map.hpp</text>
</a>
</g>
</g>
<!-- Node1&#45;&gt;Node15 -->
<g id="edge14" class="edge">
<title>Node1&#45;&gt;Node15</title>
<path fill="none" stroke="midnightblue" d="M975.07,-151.92C1070.58,-141.58 1243.59,-121.62 1390.5,-98 1397.96,-96.8 1405.82,-95.41 1413.51,-93.96"/>
<polygon fill="midnightblue" stroke="midnightblue" points="1414.33,-97.37 1423.49,-92.05 1413.01,-90.5 1414.33,-97.37"/>
</g>
<!-- Node16 -->
<g id="node16" class="node">
<title>Node16</title>
<g id="a_node16"><a xlink:title=" ">
<polygon fill="none" stroke="#bfbfbf" points="1548.5,-73 1548.5,-92 1672.5,-92 1672.5,-73 1548.5,-73"/>
<text text-anchor="middle" x="1610.5" y="-80" font-family="Helvetica,sans-Serif" font-size="10.00">range/v3/view/zip.hpp</text>
</a>
</g>
</g>
<!-- Node1&#45;&gt;Node16 -->
<g id="edge15" class="edge">
<title>Node1&#45;&gt;Node16</title>
<path fill="none" stroke="midnightblue" d="M975.41,-154.97C1094.09,-147.03 1336.23,-128.48 1539.5,-98 1546.94,-96.88 1554.78,-95.5 1562.42,-94.03"/>
<polygon fill="midnightblue" stroke="midnightblue" points="1563.18,-97.45 1572.31,-92.07 1561.82,-90.58 1563.18,-97.45"/>
</g>
<!-- Node17 -->
<g id="node17" class="node">
<title>Node17</title>
<g id="a_node17"><a xlink:title=" ">
<polygon fill="none" stroke="#bfbfbf" points="1839.5,-6 1839.5,-25 1931.5,-25 1931.5,-6 1839.5,-6"/>
<text text-anchor="middle" x="1885.5" y="-13" font-family="Helvetica,sans-Serif" font-size="10.00">sophus/se2.hpp</text>
</a>
</g>
</g>
<!-- Node1&#45;&gt;Node17 -->
<g id="edge16" class="edge">
<title>Node1&#45;&gt;Node17</title>
<path fill="none" stroke="midnightblue" d="M975.34,-160.14C1190.2,-161.32 1810.46,-159.32 1875.5,-98 1892.24,-82.22 1891.85,-53.94 1889.27,-35.19"/>
<polygon fill="midnightblue" stroke="midnightblue" points="1892.7,-34.46 1887.57,-25.19 1885.8,-35.63 1892.7,-34.46"/>
</g>
<!-- Node18 -->
<g id="node18" class="node">
<title>Node18</title>
<g id="a_node18"><a xlink:title=" ">
<polygon fill="none" stroke="#bfbfbf" points="827.5,-6 827.5,-25 929.5,-25 929.5,-6 827.5,-6"/>
<text text-anchor="middle" x="878.5" y="-13" font-family="Helvetica,sans-Serif" font-size="10.00">sophus/types.hpp</text>
</a>
</g>
</g>
<!-- Node1&#45;&gt;Node18 -->
<g id="edge17" class="edge">
<title>Node1&#45;&gt;Node18</title>
<path fill="none" stroke="midnightblue" d="M829.97,-154.18C791.64,-147.25 747.65,-131.83 723.5,-98 695.31,-58.51 762.49,-36.59 817.09,-25.67"/>
<polygon fill="midnightblue" stroke="midnightblue" points="817.95,-29.07 827.12,-23.76 816.64,-22.2 817.95,-29.07"/>
</g>
<!-- Node19 -->
<g id="node19" class="node">
<title>Node19</title>
<g id="a_node19"><a xlink:href="estimation_8hpp.html" target="_top" xlink:title="Implementation of algorithms that allow calculating the estimated state of a particle filter.">
<polygon fill="none" stroke="black" points="1690.5,-73 1690.5,-92 1866.5,-92 1866.5,-73 1690.5,-73"/>
<text text-anchor="middle" x="1778.5" y="-80" font-family="Helvetica,sans-Serif" font-size="10.00">beluga/algorithm/estimation.hpp</text>
</a>
</g>
</g>
<!-- Node1&#45;&gt;Node19 -->
<g id="edge18" class="edge">
<title>Node1&#45;&gt;Node19</title>
<path fill="none" stroke="midnightblue" d="M975.16,-155.46C1113.11,-147.41 1422.37,-127.56 1681.5,-98 1692.69,-96.72 1704.57,-95.14 1716.04,-93.49"/>
<polygon fill="midnightblue" stroke="midnightblue" points="1716.59,-96.95 1725.98,-92.03 1715.58,-90.02 1716.59,-96.95"/>
</g>
<!-- Node27 -->
<g id="node27" class="node">
<title>Node27</title>
<g id="a_node27"><a xlink:href="spatial__hash_8hpp.html" target="_top" xlink:title="Implementation of a spatial hash for N dimensional states.">
<polygon fill="none" stroke="black" points="1999.5,-67.5 1999.5,-97.5 2135.5,-97.5 2135.5,-67.5 1999.5,-67.5"/>
<text text-anchor="start" x="2007.5" y="-85.5" font-family="Helvetica,sans-Serif" font-size="10.00">beluga/algorithm/spatial</text>
<text text-anchor="middle" x="2067.5" y="-74.5" font-family="Helvetica,sans-Serif" font-size="10.00">_hash.hpp</text>
</a>
</g>
</g>
<!-- Node1&#45;&gt;Node27 -->
<g id="edge29" class="edge">
<title>Node1&#45;&gt;Node27</title>
<path fill="none" stroke="midnightblue" d="M975.27,-157.27C1147.28,-151.55 1592.37,-134.24 1962.5,-98 1971.15,-97.15 1980.18,-96.13 1989.16,-95.01"/>
<polygon fill="midnightblue" stroke="midnightblue" points="1989.77,-98.46 1999.25,-93.72 1988.89,-91.52 1989.77,-98.46"/>
</g>
<!-- Node32 -->
<g id="node32" class="node">
<title>Node32</title>
<g id="a_node32"><a xlink:title=" ">
<polygon fill="none" stroke="#bfbfbf" points="2153.5,-67.5 2153.5,-97.5 2269.5,-97.5 2269.5,-67.5 2153.5,-67.5"/>
<text text-anchor="start" x="2161.5" y="-85.5" font-family="Helvetica,sans-Serif" font-size="10.00">range/v3/view/group</text>
<text text-anchor="middle" x="2211.5" y="-74.5" font-family="Helvetica,sans-Serif" font-size="10.00">_by.hpp</text>
</a>
</g>
</g>
<!-- Node1&#45;&gt;Node32 -->
<g id="edge38" class="edge">
<title>Node1&#45;&gt;Node32</title>
<path fill="none" stroke="midnightblue" d="M975.32,-160.04C1165.95,-160.57 1695.24,-156.33 2143.26,-98"/>
<polygon fill="midnightblue" stroke="midnightblue" points="2144.04,-101.43 2153.5,-96.66 2143.13,-94.49 2144.04,-101.43"/>
</g>
<!-- Node19&#45;&gt;Node10 -->
<g id="edge19" class="edge">
<title>Node19&#45;&gt;Node10</title>
<path fill="none" stroke="midnightblue" d="M1728.28,-72.95C1713.27,-70.68 1696.76,-68.45 1681.5,-67 1299.34,-30.57 1201.76,-52.88 818.5,-31 786.51,-29.17 751.67,-26.79 720.17,-24.48"/>
<polygon fill="midnightblue" stroke="midnightblue" points="720.29,-20.98 710.06,-23.73 719.78,-27.96 720.29,-20.98"/>
</g>
<!-- Node19&#45;&gt;Node17 -->
<g id="edge23" class="edge">
<title>Node19&#45;&gt;Node17</title>
<path fill="none" stroke="midnightblue" d="M1792.93,-72.73C1810.82,-61.87 1841.52,-43.22 1862.63,-30.39"/>
<polygon fill="midnightblue" stroke="midnightblue" points="1864.57,-33.31 1871.3,-25.13 1860.93,-27.33 1864.57,-33.31"/>
</g>
<!-- Node19&#45;&gt;Node18 -->
<g id="edge26" class="edge">
<title>Node19&#45;&gt;Node18</title>
<path fill="none" stroke="midnightblue" d="M1727.01,-72.96C1712.34,-70.76 1696.32,-68.57 1681.5,-67 1644.79,-63.11 1121.15,-31.21 939.79,-20.21"/>
<polygon fill="midnightblue" stroke="midnightblue" points="939.82,-16.71 929.62,-19.59 939.39,-23.69 939.82,-16.71"/>
</g>
<!-- Node20 -->
<g id="node20" class="node">
<title>Node20</title>
<g id="a_node20"><a xlink:title=" ">
<polygon fill="none" stroke="#bfbfbf" points="1437.5,-0.5 1437.5,-30.5 1557.5,-30.5 1557.5,-0.5 1437.5,-0.5"/>
<text text-anchor="start" x="1445.5" y="-18.5" font-family="Helvetica,sans-Serif" font-size="10.00">range/v3/view/repeat</text>
<text text-anchor="middle" x="1497.5" y="-7.5" font-family="Helvetica,sans-Serif" font-size="10.00">_n.hpp</text>
</a>
</g>
</g>
<!-- Node19&#45;&gt;Node20 -->
<g id="edge20" class="edge">
<title>Node19&#45;&gt;Node20</title>
<path fill="none" stroke="midnightblue" d="M1741.48,-72.94C1697.42,-62.75 1622.91,-45.51 1567.8,-32.76"/>
<polygon fill="midnightblue" stroke="midnightblue" points="1568.28,-29.28 1557.75,-30.44 1566.7,-36.1 1568.28,-29.28"/>
</g>
<!-- Node21 -->
<g id="node21" class="node">
<title>Node21</title>
<g id="a_node21"><a xlink:title=" ">
<polygon fill="none" stroke="#bfbfbf" points="1575.5,-6 1575.5,-25 1733.5,-25 1733.5,-6 1575.5,-6"/>
<text text-anchor="middle" x="1654.5" y="-13" font-family="Helvetica,sans-Serif" font-size="10.00">range/v3/view/transform.hpp</text>
</a>
</g>
</g>
<!-- Node19&#45;&gt;Node21 -->
<g id="edge21" class="edge">
<title>Node19&#45;&gt;Node21</title>
<path fill="none" stroke="midnightblue" d="M1762.03,-72.87C1741.1,-61.89 1704.72,-42.82 1680.14,-29.94"/>
<polygon fill="midnightblue" stroke="midnightblue" points="1681.52,-26.71 1671.03,-25.17 1678.27,-32.91 1681.52,-26.71"/>
</g>
<!-- Node22 -->
<g id="node22" class="node">
<title>Node22</title>
<g id="a_node22"><a xlink:title=" ">
<polygon fill="none" stroke="#bfbfbf" points="1129.5,-6 1129.5,-25 1235.5,-25 1235.5,-6 1129.5,-6"/>
<text text-anchor="middle" x="1182.5" y="-13" font-family="Helvetica,sans-Serif" font-size="10.00">Eigen/Eigenvalues</text>
</a>
</g>
</g>
<!-- Node19&#45;&gt;Node22 -->
<g id="edge22" class="edge">
<title>Node19&#45;&gt;Node22</title>
<path fill="none" stroke="midnightblue" d="M1725.72,-72.96C1711.4,-70.82 1695.88,-68.66 1681.5,-67 1487.91,-44.58 1437.01,-61.27 1244.5,-31 1238.12,-30 1231.43,-28.7 1224.89,-27.29"/>
<polygon fill="midnightblue" stroke="midnightblue" points="1225.35,-23.8 1214.82,-25.01 1223.8,-30.63 1225.35,-23.8"/>
</g>
<!-- Node23 -->
<g id="node23" class="node">
<title>Node23</title>
<g id="a_node23"><a xlink:title=" ">
<polygon fill="none" stroke="#bfbfbf" points="1949.5,-6 1949.5,-25 2041.5,-25 2041.5,-6 1949.5,-6"/>
<text text-anchor="middle" x="1995.5" y="-13" font-family="Helvetica,sans-Serif" font-size="10.00">sophus/se3.hpp</text>
</a>
</g>
</g>
<!-- Node19&#45;&gt;Node23 -->
<g id="edge24" class="edge">
<title>Node19&#45;&gt;Node23</title>
<path fill="none" stroke="midnightblue" d="M1807.32,-72.87C1845.85,-61.33 1914.26,-40.84 1957.12,-28"/>
<polygon fill="midnightblue" stroke="midnightblue" points="1958.34,-31.29 1966.91,-25.06 1956.33,-24.58 1958.34,-31.29"/>
</g>
<!-- Node24 -->
<g id="node24" class="node">
<title>Node24</title>
<g id="a_node24"><a xlink:title=" ">
<polygon fill="none" stroke="#bfbfbf" points="1253.5,-6 1253.5,-25 1345.5,-25 1345.5,-6 1253.5,-6"/>
<text text-anchor="middle" x="1299.5" y="-13" font-family="Helvetica,sans-Serif" font-size="10.00">sophus/so3.hpp</text>
</a>
</g>
</g>
<!-- Node19&#45;&gt;Node24 -->
<g id="edge25" class="edge">
<title>Node19&#45;&gt;Node24</title>
<path fill="none" stroke="midnightblue" d="M1724.17,-73C1710.27,-70.93 1695.35,-68.8 1681.5,-67 1536.5,-48.19 1498.25,-57.71 1354.5,-31 1349.35,-30.04 1343.98,-28.86 1338.69,-27.59"/>
<polygon fill="midnightblue" stroke="midnightblue" points="1339.27,-24.12 1328.72,-25.06 1337.55,-30.91 1339.27,-24.12"/>
</g>
<!-- Node25 -->
<g id="node25" class="node">
<title>Node25</title>
<g id="a_node25"><a xlink:title=" ">
<polygon fill="none" stroke="#bfbfbf" points="1363.5,-6 1363.5,-25 1419.5,-25 1419.5,-6 1363.5,-6"/>
<text text-anchor="middle" x="1391.5" y="-13" font-family="Helvetica,sans-Serif" font-size="10.00">numeric</text>
</a>
</g>
</g>
<!-- Node19&#45;&gt;Node25 -->
<g id="edge27" class="edge">
<title>Node19&#45;&gt;Node25</title>
<path fill="none" stroke="midnightblue" d="M1722.09,-73C1708.78,-71.01 1694.64,-68.92 1681.5,-67 1569.11,-50.6 1538.33,-59.92 1428.5,-31 1425.84,-30.3 1423.11,-29.47 1420.4,-28.56"/>
<polygon fill="midnightblue" stroke="midnightblue" points="1421.4,-25.2 1410.8,-25.04 1418.99,-31.77 1421.4,-25.2"/>
</g>
<!-- Node26 -->
<g id="node26" class="node">
<title>Node26</title>
<g id="a_node26"><a xlink:title=" ">
<polygon fill="none" stroke="#bfbfbf" points="1752,-6 1752,-25 1821,-25 1821,-6 1752,-6"/>
<text text-anchor="middle" x="1786.5" y="-13" font-family="Helvetica,sans-Serif" font-size="10.00">type_traits</text>
</a>
</g>
</g>
<!-- Node19&#45;&gt;Node26 -->
<g id="edge28" class="edge">
<title>Node19&#45;&gt;Node26</title>
<path fill="none" stroke="midnightblue" d="M1779.58,-72.73C1780.75,-63.18 1782.67,-47.62 1784.19,-35.28"/>
<polygon fill="midnightblue" stroke="midnightblue" points="1787.69,-35.48 1785.44,-25.13 1780.74,-34.62 1787.69,-35.48"/>
</g>
<!-- Node27&#45;&gt;Node6 -->
<g id="edge35" class="edge">
<title>Node27&#45;&gt;Node6</title>
<path fill="none" stroke="midnightblue" d="M2070.75,-67.4C2072.93,-57.96 2075.82,-45.45 2078.19,-35.19"/>
<polygon fill="midnightblue" stroke="midnightblue" points="2081.66,-35.73 2080.49,-25.19 2074.83,-34.15 2081.66,-35.73"/>
</g>
<!-- Node27&#45;&gt;Node17 -->
<g id="edge36" class="edge">
<title>Node27&#45;&gt;Node17</title>
<path fill="none" stroke="midnightblue" d="M2028.01,-67.4C1995.37,-55.74 1949.54,-39.37 1918.75,-28.38"/>
<polygon fill="midnightblue" stroke="midnightblue" points="1919.91,-25.07 1909.32,-25.01 1917.56,-31.67 1919.91,-25.07"/>
</g>
<!-- Node27&#45;&gt;Node23 -->
<g id="edge37" class="edge">
<title>Node27&#45;&gt;Node23</title>
<path fill="none" stroke="midnightblue" d="M2051.88,-67.4C2040.32,-56.96 2024.58,-42.75 2012.67,-32"/>
<polygon fill="midnightblue" stroke="midnightblue" points="2014.9,-29.3 2005.13,-25.19 2010.21,-34.49 2014.9,-29.3"/>
</g>
<!-- Node27&#45;&gt;Node26 -->
<g id="edge34" class="edge">
<title>Node27&#45;&gt;Node26</title>
<path fill="none" stroke="midnightblue" d="M1999.35,-69.01C1951.73,-59.79 1886.85,-46.24 1830.5,-31 1827.32,-30.14 1824.02,-29.18 1820.74,-28.18"/>
<polygon fill="midnightblue" stroke="midnightblue" points="1821.62,-24.79 1811.03,-25.1 1819.5,-31.46 1821.62,-24.79"/>
</g>
<!-- Node28 -->
<g id="node28" class="node">
<title>Node28</title>
<g id="a_node28"><a xlink:title=" ">
<polygon fill="none" stroke="#bfbfbf" points="2313,-6 2313,-25 2360,-25 2360,-6 2313,-6"/>
<text text-anchor="middle" x="2336.5" y="-13" font-family="Helvetica,sans-Serif" font-size="10.00">cmath</text>
</a>
</g>
</g>
<!-- Node27&#45;&gt;Node28 -->
<g id="edge30" class="edge">
<title>Node27&#45;&gt;Node28</title>
<path fill="none" stroke="midnightblue" d="M2135.74,-68.66C2194.21,-57.34 2273.73,-41.12 2304.5,-31 2306.37,-30.39 2308.27,-29.7 2310.18,-28.96"/>
<polygon fill="midnightblue" stroke="midnightblue" points="2311.65,-32.14 2319.5,-25.02 2308.93,-25.69 2311.65,-32.14"/>
</g>
<!-- Node29 -->
<g id="node29" class="node">
<title>Node29</title>
<g id="a_node29"><a xlink:title=" ">
<polygon fill="none" stroke="#bfbfbf" points="2123.5,-6 2123.5,-25 2173.5,-25 2173.5,-6 2123.5,-6"/>
<text text-anchor="middle" x="2148.5" y="-13" font-family="Helvetica,sans-Serif" font-size="10.00">cstdint</text>
</a>
</g>
</g>
<!-- Node27&#45;&gt;Node29 -->
<g id="edge31" class="edge">
<title>Node27&#45;&gt;Node29</title>
<path fill="none" stroke="midnightblue" d="M2085.08,-67.4C2098.21,-56.86 2116.13,-42.48 2129.57,-31.69"/>
<polygon fill="midnightblue" stroke="midnightblue" points="2132.06,-34.18 2137.67,-25.19 2127.68,-28.72 2132.06,-34.18"/>
</g>
<!-- Node30 -->
<g id="node30" class="node">
<title>Node30</title>
<g id="a_node30"><a xlink:title=" ">
<polygon fill="none" stroke="#bfbfbf" points="2191.5,-6 2191.5,-25 2235.5,-25 2235.5,-6 2191.5,-6"/>
<text text-anchor="middle" x="2213.5" y="-13" font-family="Helvetica,sans-Serif" font-size="10.00">limits</text>
</a>
</g>
</g>
<!-- Node27&#45;&gt;Node30 -->
<g id="edge32" class="edge">
<title>Node27&#45;&gt;Node30</title>
<path fill="none" stroke="midnightblue" d="M2100.31,-67.34C2123.36,-57.33 2154.89,-43.52 2182.5,-31 2183.69,-30.46 2184.9,-29.91 2186.12,-29.35"/>
<polygon fill="midnightblue" stroke="midnightblue" points="2187.9,-32.38 2195.5,-25.01 2184.96,-26.03 2187.9,-32.38"/>
</g>
<!-- Node31 -->
<g id="node31" class="node">
<title>Node31</title>
<g id="a_node31"><a xlink:title=" ">
<polygon fill="none" stroke="#bfbfbf" points="2254,-6 2254,-25 2295,-25 2295,-6 2254,-6"/>
<text text-anchor="middle" x="2274.5" y="-13" font-family="Helvetica,sans-Serif" font-size="10.00">tuple</text>
</a>
</g>
</g>
<!-- Node27&#45;&gt;Node31 -->
<g id="edge33" class="edge">
<title>Node27&#45;&gt;Node31</title>
<path fill="none" stroke="midnightblue" d="M2126.12,-67.49C2160.99,-58.49 2205.83,-45.74 2244.5,-31 2245.89,-30.47 2247.29,-29.9 2248.71,-29.31"/>
<polygon fill="midnightblue" stroke="midnightblue" points="2250.24,-32.46 2257.91,-25.15 2247.35,-26.08 2250.24,-32.46"/>
</g>
</g>
</svg>
        <g id="navigator" transform="translate(0 0)" fill="#404254">
                <rect fill="#f2f5e9" fill-opacity="0.5" stroke="#606060" stroke-width=".5" x="0" y="0" width="60" height="60"/>
                <use id="zoomplus" xlink:href="#zoomPlus" x="17" y="9" onmousedown="handleZoom(evt,'in')"/>
                <use id="zoomminus" xlink:href="#zoomMin" x="42" y="9" onmousedown="handleZoom(evt,'out')"/>
                <use id="reset" xlink:href="#resetDef" x="30" y="36" onmousedown="handleReset()"/>
                <g id="arrowUp" xlink:href="#dirArrow" transform="translate(30 24)" onmousedown="handlePan(0,-1)">
                  <use xlink:href="#rim" fill="#404040">
                        <set attributeName="fill" to="#808080" begin="arrowUp.mouseover" end="arrowUp.mouseout"/>
                  </use>
                  <path fill="none" stroke="white" stroke-width="1.5" d="M0,-3.0v7 M-2.5,-0.5L0,-3.0L2.5,-0.5"/>
                </g>
                <g id="arrowRight" xlink:href="#dirArrow" transform="rotate(90) translate(36 -43)" onmousedown="handlePan(1,0)">
                  <use xlink:href="#rim" fill="#404040">
                        <set attributeName="fill" to="#808080" begin="arrowRight.mouseover" end="arrowRight.mouseout"/>
                  </use>
                  <path fill="none" stroke="white" stroke-width="1.5" d="M0,-3.0v7 M-2.5,-0.5L0,-3.0L2.5,-0.5"/>
                </g>
                <g id="arrowDown" xlink:href="#dirArrow" transform="rotate(180) translate(-30 -48)" onmousedown="handlePan(0,1)">
                  <use xlink:href="#rim" fill="#404040">
                        <set attributeName="fill" to="#808080" begin="arrowDown.mouseover" end="arrowDown.mouseout"/>
                  </use>
                  <path fill="none" stroke="white" stroke-width="1.5" d="M0,-3.0v7 M-2.5,-0.5L0,-3.0L2.5,-0.5"/>
                </g>
                <g id="arrowLeft" xlink:href="#dirArrow" transform="rotate(270) translate(-36 17)" onmousedown="handlePan(-1,0)">
                  <use xlink:href="#rim" fill="#404040">
                        <set attributeName="fill" to="#808080" begin="arrowLeft.mouseover" end="arrowLeft.mouseout"/>
                  </use>
                  <path fill="none" stroke="white" stroke-width="1.5" d="M0,-3.0v7 M-2.5,-0.5L0,-3.0L2.5,-0.5"/>
                </g>
        </g>
        <svg viewBox="0 0 15 15" width="100%" height="30px" preserveAspectRatio="xMaxYMin meet">
         <g id="arrow_out" transform="scale(0.3 0.3)">
          <a xlink:href="cluster__based__estimation_8hpp__incl_org.svg" target="_base">
           <rect id="button" ry="5" rx="5" y="6" x="6" height="38" width="38"
                fill="#f2f5e9" fill-opacity="0.5" stroke="#606060" stroke-width="1.0"/>
           <path id="arrow"
             d="M 11.500037,31.436501 C 11.940474,20.09759 22.043105,11.32322 32.158766,21.979434 L 37.068811,17.246167 C 37.068811,17.246167 37.088388,32 37.088388,32 L 22.160133,31.978069 C 22.160133,31.978069 26.997745,27.140456 26.997745,27.140456 C 18.528582,18.264221 13.291696,25.230495 11.500037,31.436501 z"
             style="fill:#404040;"/>
          </a>
         </g>
        </svg>
</svg>
