<?xml version="1.0" encoding="UTF-8" standalone="no"?>
<!DOCTYPE svg PUBLIC "-//W3C//DTD SVG 1.1//EN"
 "http://www.w3.org/Graphics/SVG/1.1/DTD/svg11.dtd">
<!-- Generated by graphviz version 2.43.0 (0)
 -->
<!-- Title: /home/runner/work/beluga/beluga/beluga/include/beluga/containers.hpp Pages: 1 -->
<svg width="1012pt" height="441pt"
 viewBox="0.00 0.00 1012.00 441.00" xmlns="http://www.w3.org/2000/svg" xmlns:xlink="http://www.w3.org/1999/xlink">
<g id="graph0" class="graph" transform="scale(1 1) rotate(0) translate(4 437)">
<title>/home/runner/work/beluga/beluga/beluga/include/beluga/containers.hpp</title>
<!-- Node1 -->
<g id="node1" class="node">
<title>Node1</title>
<g id="a_node1"><a xlink:title="Implementation of efficient containers.">
<polygon fill="#bfbfbf" stroke="black" points="164.5,-391.5 164.5,-432.5 309.5,-432.5 309.5,-391.5 164.5,-391.5"/>
<text text-anchor="start" x="172.5" y="-420.5" font-family="Helvetica,sans-Serif" font-size="10.00">/home/runner/work/beluga</text>
<text text-anchor="start" x="172.5" y="-409.5" font-family="Helvetica,sans-Serif" font-size="10.00">/beluga/beluga/include</text>
<text text-anchor="middle" x="237" y="-398.5" font-family="Helvetica,sans-Serif" font-size="10.00">/beluga/containers.hpp</text>
</a>
</g>
</g>
<!-- Node2 -->
<g id="node2" class="node">
<title>Node2</title>
<g id="a_node2"><a xlink:href="circular__array_8hpp.html" target="_top" xlink:title="Implementation of a generic circular array container.">
<polygon fill="none" stroke="black" points="118.5,-123.5 118.5,-153.5 261.5,-153.5 261.5,-123.5 118.5,-123.5"/>
<text text-anchor="start" x="126.5" y="-141.5" font-family="Helvetica,sans-Serif" font-size="10.00">beluga/containers/circular</text>
<text text-anchor="middle" x="190" y="-130.5" font-family="Helvetica,sans-Serif" font-size="10.00">_array.hpp</text>
</a>
</g>
</g>
<!-- Node1&#45;&gt;Node2 -->
<g id="edge1" class="edge">
<title>Node1&#45;&gt;Node2</title>
<path fill="none" stroke="midnightblue" d="M174.52,-391.35C127.42,-372.87 66.14,-340.13 37,-288 5.41,-231.49 88.38,-182.89 144.14,-157.76"/>
<polygon fill="midnightblue" stroke="midnightblue" points="145.77,-160.87 153.51,-153.64 142.95,-154.46 145.77,-160.87"/>
</g>
<!-- Node10 -->
<g id="node10" class="node">
<title>Node10</title>
<g id="a_node10"><a xlink:href="tuple__vector_8hpp.html" target="_top" xlink:title="Implementation of a tuple of containers.">
<polygon fill="none" stroke="black" points="390.5,-324.5 390.5,-354.5 521.5,-354.5 521.5,-324.5 390.5,-324.5"/>
<text text-anchor="start" x="398.5" y="-342.5" font-family="Helvetica,sans-Serif" font-size="10.00">beluga/containers/tuple</text>
<text text-anchor="middle" x="456" y="-331.5" font-family="Helvetica,sans-Serif" font-size="10.00">_vector.hpp</text>
</a>
</g>
</g>
<!-- Node1&#45;&gt;Node10 -->
<g id="edge12" class="edge">
<title>Node1&#45;&gt;Node10</title>
<path fill="none" stroke="midnightblue" d="M297.71,-391.46C330.64,-380.86 370.96,-367.88 402.66,-357.67"/>
<polygon fill="midnightblue" stroke="midnightblue" points="403.76,-360.99 412.21,-354.6 401.62,-354.33 403.76,-360.99"/>
</g>
<!-- Node3 -->
<g id="node3" class="node">
<title>Node3</title>
<g id="a_node3"><a xlink:title=" ">
<polygon fill="none" stroke="#bfbfbf" points="220,-62 220,-81 262,-81 262,-62 220,-62"/>
<text text-anchor="middle" x="241" y="-69" font-family="Helvetica,sans-Serif" font-size="10.00">array</text>
</a>
</g>
</g>
<!-- Node2&#45;&gt;Node3 -->
<g id="edge2" class="edge">
<title>Node2&#45;&gt;Node3</title>
<path fill="none" stroke="midnightblue" d="M201.07,-123.4C208.94,-113.36 219.55,-99.84 227.85,-89.25"/>
<polygon fill="midnightblue" stroke="midnightblue" points="230.76,-91.22 234.18,-81.19 225.25,-86.9 230.76,-91.22"/>
</g>
<!-- Node4 -->
<g id="node4" class="node">
<title>Node4</title>
<g id="a_node4"><a xlink:title=" ">
<polygon fill="none" stroke="#bfbfbf" points="0,-0.5 0,-19.5 50,-19.5 50,-0.5 0,-0.5"/>
<text text-anchor="middle" x="25" y="-7.5" font-family="Helvetica,sans-Serif" font-size="10.00">cstdint</text>
</a>
</g>
</g>
<!-- Node2&#45;&gt;Node4 -->
<g id="edge3" class="edge">
<title>Node2&#45;&gt;Node4</title>
<path fill="none" stroke="midnightblue" d="M123.8,-123.45C100.71,-115.83 76.08,-104.3 58,-87 41.8,-71.5 33.09,-46.7 28.76,-29.68"/>
<polygon fill="midnightblue" stroke="midnightblue" points="32.14,-28.76 26.51,-19.78 25.32,-30.31 32.14,-28.76"/>
</g>
<!-- Node5 -->
<g id="node5" class="node">
<title>Node5</title>
<g id="a_node5"><a xlink:title=" ">
<polygon fill="none" stroke="#bfbfbf" points="97.5,-0.5 97.5,-19.5 150.5,-19.5 150.5,-0.5 97.5,-0.5"/>
<text text-anchor="middle" x="124" y="-7.5" font-family="Helvetica,sans-Serif" font-size="10.00">iterator</text>
</a>
</g>
</g>
<!-- Node2&#45;&gt;Node5 -->
<g id="edge4" class="edge">
<title>Node2&#45;&gt;Node5</title>
<path fill="none" stroke="midnightblue" d="M118.44,-123.84C98.46,-116.37 78.95,-104.83 67,-87 59.33,-75.56 60.99,-68.4 67,-56 73.4,-42.8 85.75,-32.3 97.33,-24.78"/>
<polygon fill="midnightblue" stroke="midnightblue" points="99.16,-27.77 105.92,-19.61 95.55,-21.77 99.16,-27.77"/>
</g>
<!-- Node6 -->
<g id="node6" class="node">
<title>Node6</title>
<g id="a_node6"><a xlink:title=" ">
<polygon fill="none" stroke="#bfbfbf" points="318.5,-62 318.5,-81 383.5,-81 383.5,-62 318.5,-62"/>
<text text-anchor="middle" x="351" y="-69" font-family="Helvetica,sans-Serif" font-size="10.00">stdexcept</text>
</a>
</g>
</g>
<!-- Node2&#45;&gt;Node6 -->
<g id="edge5" class="edge">
<title>Node2&#45;&gt;Node6</title>
<path fill="none" stroke="midnightblue" d="M224.93,-123.4C253.43,-111.89 293.29,-95.8 320.52,-84.81"/>
<polygon fill="midnightblue" stroke="midnightblue" points="321.97,-88 329.93,-81.01 319.35,-81.51 321.97,-88"/>
</g>
<!-- Node7 -->
<g id="node7" class="node">
<title>Node7</title>
<g id="a_node7"><a xlink:title=" ">
<polygon fill="none" stroke="#bfbfbf" points="458.5,-0.5 458.5,-19.5 527.5,-19.5 527.5,-0.5 458.5,-0.5"/>
<text text-anchor="middle" x="493" y="-7.5" font-family="Helvetica,sans-Serif" font-size="10.00">type_traits</text>
</a>
</g>
</g>
<!-- Node2&#45;&gt;Node7 -->
<g id="edge6" class="edge">
<title>Node2&#45;&gt;Node7</title>
<path fill="none" stroke="midnightblue" d="M261.77,-127.25C301.58,-119.7 351.15,-107.15 392,-87 411.86,-77.2 413.37,-69.4 431,-56 444.64,-45.64 460.24,-34.32 472.38,-25.62"/>
<polygon fill="midnightblue" stroke="midnightblue" points="474.42,-28.46 480.53,-19.81 470.36,-22.77 474.42,-28.46"/>
</g>
<!-- Node8 -->
<g id="node8" class="node">
<title>Node8</title>
<g id="a_node8"><a xlink:title=" ">
<polygon fill="none" stroke="#bfbfbf" points="331.5,-0.5 331.5,-19.5 376.5,-19.5 376.5,-0.5 331.5,-0.5"/>
<text text-anchor="middle" x="354" y="-7.5" font-family="Helvetica,sans-Serif" font-size="10.00">utility</text>
</a>
</g>
</g>
<!-- Node2&#45;&gt;Node8 -->
<g id="edge7" class="edge">
<title>Node2&#45;&gt;Node8</title>
<path fill="none" stroke="midnightblue" d="M215.24,-123.39C231.63,-113.83 253.18,-100.53 271,-87 295.91,-68.08 322.13,-43.1 338.27,-27.04"/>
<polygon fill="midnightblue" stroke="midnightblue" points="341.17,-29.1 345.73,-19.54 336.2,-24.16 341.17,-29.1"/>
</g>
<!-- Node9 -->
<g id="node9" class="node">
<title>Node9</title>
<g id="a_node9"><a xlink:href="indexing__iterator_8hpp.html" target="_top" xlink:title="Implementation of a random access iterator for indexable containers.">
<polygon fill="none" stroke="black" points="76,-56.5 76,-86.5 202,-86.5 202,-56.5 76,-56.5"/>
<text text-anchor="start" x="84" y="-74.5" font-family="Helvetica,sans-Serif" font-size="10.00">beluga/utility/indexing</text>
<text text-anchor="middle" x="139" y="-63.5" font-family="Helvetica,sans-Serif" font-size="10.00">_iterator.hpp</text>
</a>
</g>
</g>
<!-- Node2&#45;&gt;Node9 -->
<g id="edge8" class="edge">
<title>Node2&#45;&gt;Node9</title>
<path fill="none" stroke="midnightblue" d="M178.93,-123.4C172.32,-114.96 163.77,-104.07 156.28,-94.52"/>
<polygon fill="midnightblue" stroke="midnightblue" points="158.97,-92.28 150.04,-86.58 153.46,-96.6 158.97,-92.28"/>
</g>
<!-- Node9&#45;&gt;Node4 -->
<g id="edge9" class="edge">
<title>Node9&#45;&gt;Node4</title>
<path fill="none" stroke="midnightblue" d="M111.98,-56.4C93.37,-46.68 68.79,-33.86 50.51,-24.31"/>
<polygon fill="midnightblue" stroke="midnightblue" points="52.07,-21.18 41.59,-19.66 48.83,-27.39 52.07,-21.18"/>
</g>
<!-- Node9&#45;&gt;Node5 -->
<g id="edge10" class="edge">
<title>Node9&#45;&gt;Node5</title>
<path fill="none" stroke="midnightblue" d="M135.45,-56.4C133.42,-48.38 130.87,-38.23 128.68,-29.57"/>
<polygon fill="midnightblue" stroke="midnightblue" points="132.02,-28.5 126.18,-19.66 125.23,-30.21 132.02,-28.5"/>
</g>
<!-- Node9&#45;&gt;Node7 -->
<g id="edge11" class="edge">
<title>Node9&#45;&gt;Node7</title>
<path fill="none" stroke="midnightblue" d="M202.19,-57.62C205.17,-57.06 208.11,-56.52 211,-56 294.6,-40.92 392.61,-25.87 448.3,-17.56"/>
<polygon fill="midnightblue" stroke="midnightblue" points="448.82,-21.02 458.19,-16.09 447.79,-14.1 448.82,-21.02"/>
</g>
<!-- Node11 -->
<g id="node11" class="node">
<title>Node11</title>
<g id="a_node11"><a xlink:title=" ">
<polygon fill="none" stroke="#bfbfbf" points="926.5,-0.5 926.5,-19.5 967.5,-19.5 967.5,-0.5 926.5,-0.5"/>
<text text-anchor="middle" x="947" y="-7.5" font-family="Helvetica,sans-Serif" font-size="10.00">tuple</text>
</a>
</g>
</g>
<!-- Node10&#45;&gt;Node11 -->
<g id="edge13" class="edge">
<title>Node10&#45;&gt;Node11</title>
<path fill="none" stroke="midnightblue" d="M521.89,-335.55C651.36,-329.23 929.47,-312.92 965,-288 997.87,-264.94 1004,-246.66 1004,-206.5 1004,-206.5 1004,-206.5 1004,-137.5 1004,-94.97 976.89,-50.93 960.06,-27.7"/>
<polygon fill="midnightblue" stroke="midnightblue" points="962.79,-25.5 953.99,-19.6 957.18,-29.7 962.79,-25.5"/>
</g>
<!-- Node12 -->
<g id="node12" class="node">
<title>Node12</title>
<g id="a_node12"><a xlink:title=" ">
<polygon fill="none" stroke="#bfbfbf" points="46.5,-263 46.5,-282 93.5,-282 93.5,-263 46.5,-263"/>
<text text-anchor="middle" x="70" y="-270" font-family="Helvetica,sans-Serif" font-size="10.00">vector</text>
</a>
</g>
</g>
<!-- Node10&#45;&gt;Node12 -->
<g id="edge14" class="edge">
<title>Node10&#45;&gt;Node12</title>
<path fill="none" stroke="midnightblue" d="M390.48,-334.47C318.76,-328.83 200.93,-315.95 103,-288 100.85,-287.39 98.65,-286.66 96.47,-285.87"/>
<polygon fill="midnightblue" stroke="midnightblue" points="97.72,-282.6 87.14,-282.08 95.09,-289.09 97.72,-282.6"/>
</g>
<!-- Node13 -->
<g id="node13" class="node">
<title>Node13</title>
<g id="a_node13"><a xlink:href="type__traits_8hpp.html" target="_top" xlink:title="Includes all Beluga type traits.">
<polygon fill="none" stroke="black" points="692,-263 692,-282 818,-282 818,-263 692,-263"/>
<text text-anchor="middle" x="755" y="-270" font-family="Helvetica,sans-Serif" font-size="10.00">beluga/type_traits.hpp</text>
</a>
</g>
</g>
<!-- Node10&#45;&gt;Node13 -->
<g id="edge15" class="edge">
<title>Node10&#45;&gt;Node13</title>
<path fill="none" stroke="midnightblue" d="M520.51,-324.48C576.08,-312.4 655.11,-295.21 705.73,-284.21"/>
<polygon fill="midnightblue" stroke="midnightblue" points="706.74,-287.57 715.77,-282.03 705.25,-280.73 706.74,-287.57"/>
</g>
<!-- Node22 -->
<g id="node22" class="node">
<title>Node22</title>
<g id="a_node22"><a xlink:href="zip_8hpp.html" target="_top" xlink:title="Implementation of a zip range adaptor object.">
<polygon fill="none" stroke="black" points="836.5,-263 836.5,-282 955.5,-282 955.5,-263 836.5,-263"/>
<text text-anchor="middle" x="896" y="-270" font-family="Helvetica,sans-Serif" font-size="10.00">beluga/views/zip.hpp</text>
</a>
</g>
</g>
<!-- Node10&#45;&gt;Node22 -->
<g id="edge32" class="edge">
<title>Node10&#45;&gt;Node22</title>
<path fill="none" stroke="midnightblue" d="M521.56,-331.02C595.87,-322.21 720.51,-306.41 827,-288 833.73,-286.84 840.8,-285.49 847.74,-284.1"/>
<polygon fill="midnightblue" stroke="midnightblue" points="848.68,-287.48 857.77,-282.04 847.27,-280.62 848.68,-287.48"/>
</g>
<!-- Node24 -->
<g id="node24" class="node">
<title>Node24</title>
<g id="a_node24"><a xlink:title=" ">
<polygon fill="none" stroke="#bfbfbf" points="112,-257.5 112,-287.5 222,-287.5 222,-257.5 112,-257.5"/>
<text text-anchor="start" x="120" y="-275.5" font-family="Helvetica,sans-Serif" font-size="10.00">range/v3/algorithm</text>
<text text-anchor="middle" x="167" y="-264.5" font-family="Helvetica,sans-Serif" font-size="10.00">/copy.hpp</text>
</a>
</g>
</g>
<!-- Node10&#45;&gt;Node24 -->
<g id="edge35" class="edge">
<title>Node10&#45;&gt;Node24</title>
<path fill="none" stroke="midnightblue" d="M393.43,-324.49C350.67,-314.91 292.41,-301.84 232.22,-288.27"/>
<polygon fill="midnightblue" stroke="midnightblue" points="232.68,-284.79 222.16,-286 231.14,-291.62 232.68,-284.79"/>
</g>
<!-- Node25 -->
<g id="node25" class="node">
<title>Node25</title>
<g id="a_node25"><a xlink:title=" ">
<polygon fill="none" stroke="#bfbfbf" points="240.5,-257.5 240.5,-287.5 369.5,-287.5 369.5,-257.5 240.5,-257.5"/>
<text text-anchor="start" x="248.5" y="-275.5" font-family="Helvetica,sans-Serif" font-size="10.00">range/v3/iterator/insert</text>
<text text-anchor="middle" x="305" y="-264.5" font-family="Helvetica,sans-Serif" font-size="10.00">_iterators.hpp</text>
</a>
</g>
</g>
<!-- Node10&#45;&gt;Node25 -->
<g id="edge36" class="edge">
<title>Node10&#45;&gt;Node25</title>
<path fill="none" stroke="midnightblue" d="M423.24,-324.4C400.88,-314.77 371.06,-301.94 346.96,-291.56"/>
<polygon fill="midnightblue" stroke="midnightblue" points="348.27,-288.32 337.7,-287.58 345.5,-294.75 348.27,-288.32"/>
</g>
<!-- Node26 -->
<g id="node26" class="node">
<title>Node26</title>
<g id="a_node26"><a xlink:title=" ">
<polygon fill="none" stroke="#bfbfbf" points="388,-263 388,-282 524,-282 524,-263 388,-263"/>
<text text-anchor="middle" x="456" y="-270" font-family="Helvetica,sans-Serif" font-size="10.00">range/v3/view/const.hpp</text>
</a>
</g>
</g>
<!-- Node10&#45;&gt;Node26 -->
<g id="edge37" class="edge">
<title>Node10&#45;&gt;Node26</title>
<path fill="none" stroke="midnightblue" d="M456,-324.4C456,-315.06 456,-302.71 456,-292.52"/>
<polygon fill="midnightblue" stroke="midnightblue" points="459.5,-292.19 456,-282.19 452.5,-292.19 459.5,-292.19"/>
</g>
<!-- Node27 -->
<g id="node27" class="node">
<title>Node27</title>
<g id="a_node27"><a xlink:title=" ">
<polygon fill="none" stroke="#bfbfbf" points="542.5,-263 542.5,-282 673.5,-282 673.5,-263 542.5,-263"/>
<text text-anchor="middle" x="608" y="-270" font-family="Helvetica,sans-Serif" font-size="10.00">range/v3/view/take.hpp</text>
</a>
</g>
</g>
<!-- Node10&#45;&gt;Node27 -->
<g id="edge38" class="edge">
<title>Node10&#45;&gt;Node27</title>
<path fill="none" stroke="midnightblue" d="M488.98,-324.4C515.77,-312.94 553.19,-296.94 578.88,-285.95"/>
<polygon fill="midnightblue" stroke="midnightblue" points="580.29,-289.16 588.11,-282.01 577.54,-282.72 580.29,-289.16"/>
</g>
<!-- Node14 -->
<g id="node14" class="node">
<title>Node14</title>
<g id="a_node14"><a xlink:href="particle__traits_8hpp.html" target="_top" xlink:title="Implementation of traits for particle types, see the Particle named requirements.">
<polygon fill="none" stroke="black" points="631,-190.5 631,-220.5 739,-220.5 739,-190.5 631,-190.5"/>
<text text-anchor="start" x="639" y="-208.5" font-family="Helvetica,sans-Serif" font-size="10.00">beluga/type_traits</text>
<text text-anchor="middle" x="685" y="-197.5" font-family="Helvetica,sans-Serif" font-size="10.00">/particle_traits.hpp</text>
</a>
</g>
</g>
<!-- Node13&#45;&gt;Node14 -->
<g id="edge16" class="edge">
<title>Node13&#45;&gt;Node14</title>
<path fill="none" stroke="midnightblue" d="M745.56,-262.73C735.92,-253.78 720.58,-239.54 707.76,-227.63"/>
<polygon fill="midnightblue" stroke="midnightblue" points="709.88,-224.83 700.17,-220.59 705.12,-229.96 709.88,-224.83"/>
</g>
<!-- Node19 -->
<g id="node19" class="node">
<title>Node19</title>
<g id="a_node19"><a xlink:href="tuple__traits_8hpp.html" target="_top" xlink:title="Implementation of traits for tuple&#45;like types.">
<polygon fill="none" stroke="black" points="440.5,-56.5 440.5,-86.5 545.5,-86.5 545.5,-56.5 440.5,-56.5"/>
<text text-anchor="start" x="448.5" y="-74.5" font-family="Helvetica,sans-Serif" font-size="10.00">beluga/type_traits</text>
<text text-anchor="middle" x="493" y="-63.5" font-family="Helvetica,sans-Serif" font-size="10.00">/tuple_traits.hpp</text>
</a>
</g>
</g>
<!-- Node13&#45;&gt;Node19 -->
<g id="edge31" class="edge">
<title>Node13&#45;&gt;Node19</title>
<path fill="none" stroke="midnightblue" d="M714.12,-262.9C660.54,-249.39 567.7,-217.88 519,-154 506.17,-137.18 499.57,-113.84 496.24,-96.45"/>
<polygon fill="midnightblue" stroke="midnightblue" points="499.67,-95.78 494.56,-86.5 492.77,-96.95 499.67,-95.78"/>
</g>
<!-- Node15 -->
<g id="node15" class="node">
<title>Node15</title>
<g id="a_node15"><a xlink:href="primitives_8hpp.html" target="_top" xlink:title="Implementation of library primitives to abstract member access.">
<polygon fill="none" stroke="black" points="717.5,-129 717.5,-148 840.5,-148 840.5,-129 717.5,-129"/>
<text text-anchor="middle" x="779" y="-136" font-family="Helvetica,sans-Serif" font-size="10.00">beluga/primitives.hpp</text>
</a>
</g>
</g>
<!-- Node14&#45;&gt;Node15 -->
<g id="edge17" class="edge">
<title>Node14&#45;&gt;Node15</title>
<path fill="none" stroke="midnightblue" d="M705.4,-190.4C721.01,-179.6 742.48,-164.76 758.19,-153.89"/>
<polygon fill="midnightblue" stroke="midnightblue" points="760.46,-156.57 766.7,-148.01 756.48,-150.82 760.46,-156.57"/>
</g>
<!-- Node14&#45;&gt;Node19 -->
<g id="edge29" class="edge">
<title>Node14&#45;&gt;Node19</title>
<path fill="none" stroke="midnightblue" d="M630.95,-192.36C604.62,-184.54 573.64,-172.32 550,-154 529.96,-138.47 514.16,-113.95 504.33,-95.86"/>
<polygon fill="midnightblue" stroke="midnightblue" points="507.21,-93.82 499.49,-86.56 501,-97.05 507.21,-93.82"/>
</g>
<!-- Node21 -->
<g id="node21" class="node">
<title>Node21</title>
<g id="a_node21"><a xlink:title=" ">
<polygon fill="none" stroke="#bfbfbf" points="559,-129 559,-148 699,-148 699,-129 559,-129"/>
<text text-anchor="middle" x="629" y="-136" font-family="Helvetica,sans-Serif" font-size="10.00">range/v3/range/traits.hpp</text>
</a>
</g>
</g>
<!-- Node14&#45;&gt;Node21 -->
<g id="edge30" class="edge">
<title>Node14&#45;&gt;Node21</title>
<path fill="none" stroke="midnightblue" d="M672.85,-190.4C664.12,-180.26 652.32,-166.57 643.16,-155.94"/>
<polygon fill="midnightblue" stroke="midnightblue" points="645.67,-153.49 636.49,-148.19 640.37,-158.06 645.67,-153.49"/>
</g>
<!-- Node15&#45;&gt;Node7 -->
<g id="edge19" class="edge">
<title>Node15&#45;&gt;Node7</title>
<path fill="none" stroke="midnightblue" d="M740.36,-128.95C693.81,-118.32 618.68,-99.99 593,-87 573.24,-77 571.58,-69.46 554,-56 540.51,-45.67 525.12,-34.32 513.17,-25.6"/>
<polygon fill="midnightblue" stroke="midnightblue" points="514.93,-22.55 504.79,-19.5 510.82,-28.22 514.93,-22.55"/>
</g>
<!-- Node15&#45;&gt;Node11 -->
<g id="edge18" class="edge">
<title>Node15&#45;&gt;Node11</title>
<path fill="none" stroke="midnightblue" d="M822.78,-128.99C850.26,-121.76 884.93,-108.93 909,-87 926,-71.52 936.38,-46.72 941.91,-29.68"/>
<polygon fill="midnightblue" stroke="midnightblue" points="945.35,-30.37 944.86,-19.79 938.65,-28.37 945.35,-30.37"/>
</g>
<!-- Node16 -->
<g id="node16" class="node">
<title>Node16</title>
<g id="a_node16"><a xlink:href="strongly__typed__numeric_8hpp.html" target="_top" xlink:title="Implementation of a strongly typed numeric helper.">
<polygon fill="none" stroke="black" points="742,-56.5 742,-86.5 900,-86.5 900,-56.5 742,-56.5"/>
<text text-anchor="start" x="750" y="-74.5" font-family="Helvetica,sans-Serif" font-size="10.00">beluga/type_traits</text>
<text text-anchor="middle" x="821" y="-63.5" font-family="Helvetica,sans-Serif" font-size="10.00">/strongly_typed_numeric.hpp</text>
</a>
</g>
</g>
<!-- Node15&#45;&gt;Node16 -->
<g id="edge20" class="edge">
<title>Node15&#45;&gt;Node16</title>
<path fill="none" stroke="midnightblue" d="M784.66,-128.73C790.23,-120.12 798.96,-106.61 806.47,-94.99"/>
<polygon fill="midnightblue" stroke="midnightblue" points="809.41,-96.89 811.9,-86.59 803.53,-93.09 809.41,-96.89"/>
</g>
<!-- Node15&#45;&gt;Node19 -->
<g id="edge24" class="edge">
<title>Node15&#45;&gt;Node19</title>
<path fill="none" stroke="midnightblue" d="M741.32,-128.94C694.02,-118.19 612.25,-99.6 555.52,-86.71"/>
<polygon fill="midnightblue" stroke="midnightblue" points="556.12,-83.26 545.59,-84.45 554.57,-90.08 556.12,-83.26"/>
</g>
<!-- Node20 -->
<g id="node20" class="node">
<title>Node20</title>
<g id="a_node20"><a xlink:href="forward__like_8hpp_source.html" target="_top" xlink:title=" ">
<polygon fill="none" stroke="black" points="602,-56.5 602,-86.5 724,-86.5 724,-56.5 602,-56.5"/>
<text text-anchor="start" x="610" y="-74.5" font-family="Helvetica,sans-Serif" font-size="10.00">beluga/utility/forward</text>
<text text-anchor="middle" x="663" y="-63.5" font-family="Helvetica,sans-Serif" font-size="10.00">_like.hpp</text>
</a>
</g>
</g>
<!-- Node15&#45;&gt;Node20 -->
<g id="edge28" class="edge">
<title>Node15&#45;&gt;Node20</title>
<path fill="none" stroke="midnightblue" d="M763.36,-128.73C746.47,-119.27 719.06,-103.91 697.15,-91.64"/>
<polygon fill="midnightblue" stroke="midnightblue" points="698.58,-88.42 688.14,-86.59 695.16,-94.53 698.58,-88.42"/>
</g>
<!-- Node16&#45;&gt;Node7 -->
<g id="edge23" class="edge">
<title>Node16&#45;&gt;Node7</title>
<path fill="none" stroke="midnightblue" d="M743.68,-56.47C679.58,-44.85 590.69,-28.72 537.79,-19.13"/>
<polygon fill="midnightblue" stroke="midnightblue" points="538.17,-15.64 527.71,-17.3 536.93,-22.53 538.17,-15.64"/>
</g>
<!-- Node17 -->
<g id="node17" class="node">
<title>Node17</title>
<g id="a_node17"><a xlink:title=" ">
<polygon fill="none" stroke="#bfbfbf" points="815.5,-0.5 815.5,-19.5 880.5,-19.5 880.5,-0.5 815.5,-0.5"/>
<text text-anchor="middle" x="848" y="-7.5" font-family="Helvetica,sans-Serif" font-size="10.00">functional</text>
</a>
</g>
</g>
<!-- Node16&#45;&gt;Node17 -->
<g id="edge21" class="edge">
<title>Node16&#45;&gt;Node17</title>
<path fill="none" stroke="midnightblue" d="M827.4,-56.4C831.12,-48.2 835.85,-37.78 839.83,-28.99"/>
<polygon fill="midnightblue" stroke="midnightblue" points="843.13,-30.21 844.07,-19.66 836.75,-27.32 843.13,-30.21"/>
</g>
<!-- Node18 -->
<g id="node18" class="node">
<title>Node18</title>
<g id="a_node18"><a xlink:title=" ">
<polygon fill="none" stroke="#bfbfbf" points="753,-0.5 753,-19.5 797,-19.5 797,-0.5 753,-0.5"/>
<text text-anchor="middle" x="775" y="-7.5" font-family="Helvetica,sans-Serif" font-size="10.00">limits</text>
</a>
</g>
</g>
<!-- Node16&#45;&gt;Node18 -->
<g id="edge22" class="edge">
<title>Node16&#45;&gt;Node18</title>
<path fill="none" stroke="midnightblue" d="M810.1,-56.4C803.41,-47.75 794.82,-36.64 787.82,-27.58"/>
<polygon fill="midnightblue" stroke="midnightblue" points="790.58,-25.43 781.69,-19.66 785.04,-29.71 790.58,-25.43"/>
</g>
<!-- Node19&#45;&gt;Node7 -->
<g id="edge26" class="edge">
<title>Node19&#45;&gt;Node7</title>
<path fill="none" stroke="midnightblue" d="M493,-56.4C493,-48.47 493,-38.46 493,-29.86"/>
<polygon fill="midnightblue" stroke="midnightblue" points="496.5,-29.66 493,-19.66 489.5,-29.66 496.5,-29.66"/>
</g>
<!-- Node19&#45;&gt;Node8 -->
<g id="edge27" class="edge">
<title>Node19&#45;&gt;Node8</title>
<path fill="none" stroke="midnightblue" d="M460.06,-56.4C436.84,-46.46 406.01,-33.26 383.58,-23.66"/>
<polygon fill="midnightblue" stroke="midnightblue" points="384.8,-20.38 374.23,-19.66 382.04,-26.81 384.8,-20.38"/>
</g>
<!-- Node19&#45;&gt;Node11 -->
<g id="edge25" class="edge">
<title>Node19&#45;&gt;Node11</title>
<path fill="none" stroke="midnightblue" d="M545.64,-62.63C560.91,-60.41 577.61,-58.05 593,-56 724.8,-38.46 758.31,-38.37 890,-20 898.61,-18.8 907.92,-17.38 916.48,-16.03"/>
<polygon fill="midnightblue" stroke="midnightblue" points="917.13,-19.47 926.45,-14.43 916.02,-12.56 917.13,-19.47"/>
</g>
<!-- Node22&#45;&gt;Node11 -->
<g id="edge33" class="edge">
<title>Node22&#45;&gt;Node11</title>
<path fill="none" stroke="midnightblue" d="M909.37,-262.95C921.77,-254.15 939.42,-239.17 947,-221 974.35,-155.44 960.07,-68.03 951.68,-30"/>
<polygon fill="midnightblue" stroke="midnightblue" points="955,-28.81 949.32,-19.87 948.18,-30.4 955,-28.81"/>
</g>
<!-- Node23 -->
<g id="node23" class="node">
<title>Node23</title>
<g id="a_node23"><a xlink:title=" ">
<polygon fill="none" stroke="#bfbfbf" points="814,-196 814,-215 938,-215 938,-196 814,-196"/>
<text text-anchor="middle" x="876" y="-203" font-family="Helvetica,sans-Serif" font-size="10.00">range/v3/view/zip.hpp</text>
</a>
</g>
</g>
<!-- Node22&#45;&gt;Node23 -->
<g id="edge34" class="edge">
<title>Node22&#45;&gt;Node23</title>
<path fill="none" stroke="midnightblue" d="M893.3,-262.73C890.33,-253.09 885.48,-237.3 881.66,-224.91"/>
<polygon fill="midnightblue" stroke="midnightblue" points="884.94,-223.66 878.65,-215.13 878.25,-225.71 884.94,-223.66"/>
</g>
</g>
</svg>
