<?xml version="1.0" encoding="UTF-8" standalone="no"?>
<!DOCTYPE svg PUBLIC "-//W3C//DTD SVG 1.1//EN"
 "http://www.w3.org/Graphics/SVG/1.1/DTD/svg11.dtd">
<!-- Generated by graphviz version 2.43.0 (0)
 -->
<!-- Title: /home/runner/work/beluga/beluga/beluga/include/beluga/sensor/data/dense_grid.hpp Pages: 1 -->
<svg width="645pt" height="251pt"
 viewBox="0.00 0.00 645.00 251.00" xmlns="http://www.w3.org/2000/svg" xmlns:xlink="http://www.w3.org/1999/xlink">
<g id="graph0" class="graph" transform="scale(1 1) rotate(0) translate(4 247)">
<title>/home/runner/work/beluga/beluga/beluga/include/beluga/sensor/data/dense_grid.hpp</title>
<!-- Node1 -->
<g id="node1" class="node">
<title>Node1</title>
<g id="a_node1"><a xlink:title="Concepts and abstract implementations of dense grids.">
<polygon fill="#bfbfbf" stroke="black" points="260,-190.5 260,-242.5 405,-242.5 405,-190.5 260,-190.5"/>
<text text-anchor="start" x="268" y="-230.5" font-family="Helvetica,sans-Serif" font-size="10.00">/home/runner/work/beluga</text>
<text text-anchor="start" x="268" y="-219.5" font-family="Helvetica,sans-Serif" font-size="10.00">/beluga/beluga/include</text>
<text text-anchor="start" x="268" y="-208.5" font-family="Helvetica,sans-Serif" font-size="10.00">/beluga/sensor/data/dense</text>
<text text-anchor="middle" x="332.5" y="-197.5" font-family="Helvetica,sans-Serif" font-size="10.00">_grid.hpp</text>
</a>
</g>
</g>
<!-- Node2 -->
<g id="node2" class="node">
<title>Node2</title>
<g id="a_node2"><a xlink:title=" ">
<polygon fill="none" stroke="#bfbfbf" points="137.5,-129 137.5,-148 193.5,-148 193.5,-129 137.5,-129"/>
<text text-anchor="middle" x="165.5" y="-136" font-family="Helvetica,sans-Serif" font-size="10.00">optional</text>
</a>
</g>
</g>
<!-- Node1&#45;&gt;Node2 -->
<g id="edge1" class="edge">
<title>Node1&#45;&gt;Node2</title>
<path fill="none" stroke="midnightblue" d="M277.36,-190.4C249.26,-177.62 216.3,-162.62 193.47,-152.23"/>
<polygon fill="midnightblue" stroke="midnightblue" points="194.9,-149.03 184.35,-148.08 192,-155.41 194.9,-149.03"/>
</g>
<!-- Node3 -->
<g id="node3" class="node">
<title>Node3</title>
<g id="a_node3"><a xlink:title=" ">
<polygon fill="none" stroke="#bfbfbf" points="212,-129 212,-148 259,-148 259,-129 212,-129"/>
<text text-anchor="middle" x="235.5" y="-136" font-family="Helvetica,sans-Serif" font-size="10.00">vector</text>
</a>
</g>
</g>
<!-- Node1&#45;&gt;Node3 -->
<g id="edge2" class="edge">
<title>Node1&#45;&gt;Node3</title>
<path fill="none" stroke="midnightblue" d="M300.47,-190.4C285.4,-178.6 267.93,-164.91 254.91,-154.7"/>
<polygon fill="midnightblue" stroke="midnightblue" points="256.71,-151.67 246.68,-148.26 252.39,-157.18 256.71,-151.67"/>
</g>
<!-- Node4 -->
<g id="node4" class="node">
<title>Node4</title>
<g id="a_node4"><a xlink:href="regular__grid_8hpp.html" target="_top" xlink:title="Concepts and abstract implementations of regular grids.">
<polygon fill="none" stroke="black" points="277.5,-123.5 277.5,-153.5 387.5,-153.5 387.5,-123.5 277.5,-123.5"/>
<text text-anchor="start" x="285.5" y="-141.5" font-family="Helvetica,sans-Serif" font-size="10.00">beluga/sensor/data</text>
<text text-anchor="middle" x="332.5" y="-130.5" font-family="Helvetica,sans-Serif" font-size="10.00">/regular_grid.hpp</text>
</a>
</g>
</g>
<!-- Node1&#45;&gt;Node4 -->
<g id="edge3" class="edge">
<title>Node1&#45;&gt;Node4</title>
<path fill="none" stroke="midnightblue" d="M332.5,-190.19C332.5,-181.79 332.5,-172.44 332.5,-164.09"/>
<polygon fill="midnightblue" stroke="midnightblue" points="336,-163.85 332.5,-153.85 329,-163.85 336,-163.85"/>
</g>
<!-- Node7 -->
<g id="node7" class="node">
<title>Node7</title>
<g id="a_node7"><a xlink:title=" ">
<polygon fill="none" stroke="#bfbfbf" points="381,-62 381,-81 450,-81 450,-62 381,-62"/>
<text text-anchor="middle" x="415.5" y="-69" font-family="Helvetica,sans-Serif" font-size="10.00">Eigen/Core</text>
</a>
</g>
</g>
<!-- Node1&#45;&gt;Node7 -->
<g id="edge10" class="edge">
<title>Node1&#45;&gt;Node7</title>
<path fill="none" stroke="midnightblue" d="M365.68,-190.34C376.99,-180.2 388.73,-167.66 396.5,-154 407.59,-134.5 412.21,-108.88 414.14,-91.62"/>
<polygon fill="midnightblue" stroke="midnightblue" points="417.67,-91.45 415.08,-81.17 410.7,-90.82 417.67,-91.45"/>
</g>
<!-- Node8 -->
<g id="node8" class="node">
<title>Node8</title>
<g id="a_node8"><a xlink:href="eigen__compatibility_8hpp_source.html" target="_top" xlink:title=" ">
<polygon fill="none" stroke="black" points="468,-62 468,-81 637,-81 637,-62 468,-62"/>
<text text-anchor="middle" x="552.5" y="-69" font-family="Helvetica,sans-Serif" font-size="10.00">beluga/eigen_compatibility.hpp</text>
</a>
</g>
</g>
<!-- Node1&#45;&gt;Node8 -->
<g id="edge11" class="edge">
<title>Node1&#45;&gt;Node8</title>
<path fill="none" stroke="midnightblue" d="M371.07,-190.43C417.42,-160.3 493.58,-110.8 530.74,-86.64"/>
<polygon fill="midnightblue" stroke="midnightblue" points="532.83,-89.46 539.31,-81.08 529.02,-83.59 532.83,-89.46"/>
</g>
<!-- Node5 -->
<g id="node5" class="node">
<title>Node5</title>
<g id="a_node5"><a xlink:title=" ">
<polygon fill="none" stroke="#bfbfbf" points="0,-62 0,-81 47,-81 47,-62 0,-62"/>
<text text-anchor="middle" x="23.5" y="-69" font-family="Helvetica,sans-Serif" font-size="10.00">cmath</text>
</a>
</g>
</g>
<!-- Node4&#45;&gt;Node5 -->
<g id="edge4" class="edge">
<title>Node4&#45;&gt;Node5</title>
<path fill="none" stroke="midnightblue" d="M277.22,-124.97C273.94,-124.28 270.68,-123.62 267.5,-123 173.72,-104.59 146.89,-114.95 55.5,-87 53.58,-86.41 51.61,-85.73 49.66,-85"/>
<polygon fill="midnightblue" stroke="midnightblue" points="50.7,-81.64 40.12,-81.01 48,-88.1 50.7,-81.64"/>
</g>
<!-- Node6 -->
<g id="node6" class="node">
<title>Node6</title>
<g id="a_node6"><a xlink:title=" ">
<polygon fill="none" stroke="#bfbfbf" points="64.5,-62 64.5,-81 222.5,-81 222.5,-62 64.5,-62"/>
<text text-anchor="middle" x="143.5" y="-69" font-family="Helvetica,sans-Serif" font-size="10.00">range/v3/view/transform.hpp</text>
</a>
</g>
</g>
<!-- Node4&#45;&gt;Node6 -->
<g id="edge5" class="edge">
<title>Node4&#45;&gt;Node6</title>
<path fill="none" stroke="midnightblue" d="M291.49,-123.4C257.59,-111.74 210.01,-95.37 178.03,-84.38"/>
<polygon fill="midnightblue" stroke="midnightblue" points="178.83,-80.95 168.24,-81.01 176.55,-87.57 178.83,-80.95"/>
</g>
<!-- Node4&#45;&gt;Node7 -->
<g id="edge6" class="edge">
<title>Node4&#45;&gt;Node7</title>
<path fill="none" stroke="midnightblue" d="M350.51,-123.4C364.09,-112.76 382.68,-98.2 396.5,-87.38"/>
<polygon fill="midnightblue" stroke="midnightblue" points="398.68,-90.12 404.4,-81.19 394.37,-84.6 398.68,-90.12"/>
</g>
<!-- Node4&#45;&gt;Node8 -->
<g id="edge7" class="edge">
<title>Node4&#45;&gt;Node8</title>
<path fill="none" stroke="midnightblue" d="M379.97,-123.48C419.92,-111.67 476.34,-95 513.65,-83.98"/>
<polygon fill="midnightblue" stroke="midnightblue" points="515.04,-87.22 523.63,-81.03 513.05,-80.51 515.04,-87.22"/>
</g>
<!-- Node10 -->
<g id="node10" class="node">
<title>Node10</title>
<g id="a_node10"><a xlink:href="enable__self_8hpp.html" target="_top" xlink:title="Implementation of a CRTP utility to enable downcasting to the most derived class.">
<polygon fill="none" stroke="black" points="240.5,-56.5 240.5,-86.5 362.5,-86.5 362.5,-56.5 240.5,-56.5"/>
<text text-anchor="start" x="248.5" y="-74.5" font-family="Helvetica,sans-Serif" font-size="10.00">beluga/mixins/enable</text>
<text text-anchor="middle" x="301.5" y="-63.5" font-family="Helvetica,sans-Serif" font-size="10.00">_self.hpp</text>
</a>
</g>
</g>
<!-- Node4&#45;&gt;Node10 -->
<g id="edge9" class="edge">
<title>Node4&#45;&gt;Node10</title>
<path fill="none" stroke="midnightblue" d="M325.77,-123.4C321.91,-115.3 316.97,-104.94 312.56,-95.69"/>
<polygon fill="midnightblue" stroke="midnightblue" points="315.68,-94.1 308.21,-86.58 309.36,-97.11 315.68,-94.1"/>
</g>
<!-- Node9 -->
<g id="node9" class="node">
<title>Node9</title>
<g id="a_node9"><a xlink:title=" ">
<polygon fill="none" stroke="#bfbfbf" points="514,-0.5 514,-19.5 591,-19.5 591,-0.5 514,-0.5"/>
<text text-anchor="middle" x="552.5" y="-7.5" font-family="Helvetica,sans-Serif" font-size="10.00">Eigen/Dense</text>
</a>
</g>
</g>
<!-- Node8&#45;&gt;Node9 -->
<g id="edge8" class="edge">
<title>Node8&#45;&gt;Node9</title>
<path fill="none" stroke="midnightblue" d="M552.5,-61.98C552.5,-53.58 552.5,-40.48 552.5,-29.66"/>
<polygon fill="midnightblue" stroke="midnightblue" points="556,-29.51 552.5,-19.51 549,-29.51 556,-29.51"/>
</g>
</g>
</svg>
