<?xml version="1.0" encoding="UTF-8" standalone="no"?>
<!DOCTYPE svg PUBLIC "-//W3C//DTD SVG 1.1//EN"
 "http://www.w3.org/Graphics/SVG/1.1/DTD/svg11.dtd">
<!-- Generated by graphviz version 2.43.0 (0)
 -->
<!-- Title: /home/runner/work/beluga/beluga/beluga/include/beluga/sensor/data/dense_grid.hpp Pages: 1 -->
<svg width="459pt" height="651pt"
 viewBox="0.00 0.00 459.00 651.00" xmlns="http://www.w3.org/2000/svg" xmlns:xlink="http://www.w3.org/1999/xlink">
<g id="graph0" class="graph" transform="scale(1 1) rotate(0) translate(4 647)">
<title>/home/runner/work/beluga/beluga/beluga/include/beluga/sensor/data/dense_grid.hpp</title>
<!-- Node1 -->
<g id="node1" class="node">
<title>Node1</title>
<g id="a_node1"><a xlink:title="Concepts and abstract implementations of dense grids.">
<polygon fill="#bfbfbf" stroke="black" points="98,-590.5 98,-642.5 243,-642.5 243,-590.5 98,-590.5"/>
<text text-anchor="start" x="106" y="-630.5" font-family="Helvetica,sans-Serif" font-size="10.00">/home/runner/work/beluga</text>
<text text-anchor="start" x="106" y="-619.5" font-family="Helvetica,sans-Serif" font-size="10.00">/beluga/beluga/include</text>
<text text-anchor="start" x="106" y="-608.5" font-family="Helvetica,sans-Serif" font-size="10.00">/beluga/sensor/data/dense</text>
<text text-anchor="middle" x="170.5" y="-597.5" font-family="Helvetica,sans-Serif" font-size="10.00">_grid.hpp</text>
</a>
</g>
</g>
<!-- Node2 -->
<g id="node2" class="node">
<title>Node2</title>
<g id="a_node2"><a xlink:href="linear__grid_8hpp.html" target="_top" xlink:title="Concepts and abstract implementations of linear (ie. contiguous storage) grids.">
<polygon fill="none" stroke="black" points="98,-501.5 98,-553.5 243,-553.5 243,-501.5 98,-501.5"/>
<text text-anchor="start" x="106" y="-541.5" font-family="Helvetica,sans-Serif" font-size="10.00">/home/runner/work/beluga</text>
<text text-anchor="start" x="106" y="-530.5" font-family="Helvetica,sans-Serif" font-size="10.00">/beluga/beluga/include</text>
<text text-anchor="start" x="106" y="-519.5" font-family="Helvetica,sans-Serif" font-size="10.00">/beluga/sensor/data/linear</text>
<text text-anchor="middle" x="170.5" y="-508.5" font-family="Helvetica,sans-Serif" font-size="10.00">_grid.hpp</text>
</a>
</g>
</g>
<!-- Node1&#45;&gt;Node2 -->
<g id="edge1" class="edge">
<title>Node1&#45;&gt;Node2</title>
<path fill="none" stroke="midnightblue" d="M170.5,-580.19C170.5,-571.28 170.5,-561.9 170.5,-553.61"/>
<polygon fill="midnightblue" stroke="midnightblue" points="167,-580.34 170.5,-590.34 174,-580.34 167,-580.34"/>
</g>
<!-- Node3 -->
<g id="node3" class="node">
<title>Node3</title>
<g id="a_node3"><a xlink:href="occupancy__grid_8hpp.html" target="_top" xlink:title="Concepts and abstract implementations of occupancy grids.">
<polygon fill="none" stroke="black" points="0,-412.5 0,-464.5 167,-464.5 167,-412.5 0,-412.5"/>
<text text-anchor="start" x="8" y="-452.5" font-family="Helvetica,sans-Serif" font-size="10.00">/home/runner/work/beluga</text>
<text text-anchor="start" x="8" y="-441.5" font-family="Helvetica,sans-Serif" font-size="10.00">/beluga/beluga/include</text>
<text text-anchor="start" x="8" y="-430.5" font-family="Helvetica,sans-Serif" font-size="10.00">/beluga/sensor/data/occupancy</text>
<text text-anchor="middle" x="83.5" y="-419.5" font-family="Helvetica,sans-Serif" font-size="10.00">_grid.hpp</text>
</a>
</g>
</g>
<!-- Node2&#45;&gt;Node3 -->
<g id="edge2" class="edge">
<title>Node2&#45;&gt;Node3</title>
<path fill="none" stroke="midnightblue" d="M138.08,-494.08C128.34,-484.34 117.8,-473.8 108.61,-464.61"/>
<polygon fill="midnightblue" stroke="midnightblue" points="135.79,-496.74 145.34,-501.34 140.74,-491.79 135.79,-496.74"/>
</g>
<!-- Node12 -->
<g id="node12" class="node">
<title>Node12</title>
<g id="a_node12"><a xlink:href="value__grid_8hpp.html" target="_top" xlink:title="Implementation of generic value grid.">
<polygon fill="none" stroke="black" points="185,-412.5 185,-464.5 330,-464.5 330,-412.5 185,-412.5"/>
<text text-anchor="start" x="193" y="-452.5" font-family="Helvetica,sans-Serif" font-size="10.00">/home/runner/work/beluga</text>
<text text-anchor="start" x="193" y="-441.5" font-family="Helvetica,sans-Serif" font-size="10.00">/beluga/beluga/include</text>
<text text-anchor="start" x="193" y="-430.5" font-family="Helvetica,sans-Serif" font-size="10.00">/beluga/sensor/data/value</text>
<text text-anchor="middle" x="257.5" y="-419.5" font-family="Helvetica,sans-Serif" font-size="10.00">_grid.hpp</text>
</a>
</g>
</g>
<!-- Node2&#45;&gt;Node12 -->
<g id="edge13" class="edge">
<title>Node2&#45;&gt;Node12</title>
<path fill="none" stroke="midnightblue" d="M202.92,-494.08C212.66,-484.34 223.2,-473.8 232.39,-464.61"/>
<polygon fill="midnightblue" stroke="midnightblue" points="200.26,-491.79 195.66,-501.34 205.21,-496.74 200.26,-491.79"/>
</g>
<!-- Node4 -->
<g id="node4" class="node">
<title>Node4</title>
<g id="a_node4"><a xlink:href="multivariate__uniform__distribution_8hpp.html" target="_top" xlink:title="Implementation of a multivariate uniform distribution for SE(2) and SE(3) spaces.">
<polygon fill="none" stroke="black" points="5.5,-323.5 5.5,-375.5 161.5,-375.5 161.5,-323.5 5.5,-323.5"/>
<text text-anchor="start" x="13.5" y="-363.5" font-family="Helvetica,sans-Serif" font-size="10.00">/home/runner/work/beluga</text>
<text text-anchor="start" x="13.5" y="-352.5" font-family="Helvetica,sans-Serif" font-size="10.00">/beluga/beluga/include</text>
<text text-anchor="start" x="13.5" y="-341.5" font-family="Helvetica,sans-Serif" font-size="10.00">/beluga/random/multivariate</text>
<text text-anchor="middle" x="83.5" y="-330.5" font-family="Helvetica,sans-Serif" font-size="10.00">_uniform_distribution.hpp</text>
</a>
</g>
</g>
<!-- Node3&#45;&gt;Node4 -->
<g id="edge3" class="edge">
<title>Node3&#45;&gt;Node4</title>
<path fill="none" stroke="midnightblue" d="M83.5,-402.19C83.5,-393.28 83.5,-383.9 83.5,-375.61"/>
<polygon fill="midnightblue" stroke="midnightblue" points="80,-402.34 83.5,-412.34 87,-402.34 80,-402.34"/>
</g>
<!-- Node8 -->
<g id="node8" class="node">
<title>Node8</title>
<g id="a_node8"><a xlink:href="likelihood__field__model__base_8hpp.html" target="_top" xlink:title="Implementation of a likelihood field common sensor model for range finders.">
<polygon fill="none" stroke="black" points="182,-323.5 182,-375.5 327,-375.5 327,-323.5 182,-323.5"/>
<text text-anchor="start" x="190" y="-363.5" font-family="Helvetica,sans-Serif" font-size="10.00">/home/runner/work/beluga</text>
<text text-anchor="start" x="190" y="-352.5" font-family="Helvetica,sans-Serif" font-size="10.00">/beluga/beluga/include</text>
<text text-anchor="start" x="190" y="-341.5" font-family="Helvetica,sans-Serif" font-size="10.00">/beluga/sensor/likelihood</text>
<text text-anchor="middle" x="254.5" y="-330.5" font-family="Helvetica,sans-Serif" font-size="10.00">_field_model_base.hpp</text>
</a>
</g>
</g>
<!-- Node3&#45;&gt;Node8 -->
<g id="edge7" class="edge">
<title>Node3&#45;&gt;Node8</title>
<path fill="none" stroke="midnightblue" d="M141.92,-407.78C162.5,-397.31 185.4,-385.66 205.15,-375.61"/>
<polygon fill="midnightblue" stroke="midnightblue" points="140.29,-404.68 132.96,-412.34 143.46,-410.92 140.29,-404.68"/>
</g>
<!-- Node5 -->
<g id="node5" class="node">
<title>Node5</title>
<g id="a_node5"><a xlink:href="random_8hpp.html" target="_top" xlink:title="Includes all Beluga random distributions.">
<polygon fill="none" stroke="black" points="11,-156.5 11,-197.5 156,-197.5 156,-156.5 11,-156.5"/>
<text text-anchor="start" x="19" y="-185.5" font-family="Helvetica,sans-Serif" font-size="10.00">/home/runner/work/beluga</text>
<text text-anchor="start" x="19" y="-174.5" font-family="Helvetica,sans-Serif" font-size="10.00">/beluga/beluga/include</text>
<text text-anchor="middle" x="83.5" y="-163.5" font-family="Helvetica,sans-Serif" font-size="10.00">/beluga/random.hpp</text>
</a>
</g>
</g>
<!-- Node4&#45;&gt;Node5 -->
<g id="edge4" class="edge">
<title>Node4&#45;&gt;Node5</title>
<path fill="none" stroke="midnightblue" d="M83.5,-313.08C83.5,-278.09 83.5,-225.84 83.5,-197.68"/>
<polygon fill="midnightblue" stroke="midnightblue" points="80,-313.34 83.5,-323.34 87,-313.34 80,-313.34"/>
</g>
<!-- Node6 -->
<g id="node6" class="node">
<title>Node6</title>
<g id="a_node6"><a xlink:href="beluga_8hpp.html" target="_top" xlink:title="Includes all the Beluga API.">
<polygon fill="none" stroke="black" points="92,-78.5 92,-119.5 237,-119.5 237,-78.5 92,-78.5"/>
<text text-anchor="start" x="100" y="-107.5" font-family="Helvetica,sans-Serif" font-size="10.00">/home/runner/work/beluga</text>
<text text-anchor="start" x="100" y="-96.5" font-family="Helvetica,sans-Serif" font-size="10.00">/beluga/beluga/include</text>
<text text-anchor="middle" x="164.5" y="-85.5" font-family="Helvetica,sans-Serif" font-size="10.00">/beluga/beluga.hpp</text>
</a>
</g>
</g>
<!-- Node5&#45;&gt;Node6 -->
<g id="edge5" class="edge">
<title>Node5&#45;&gt;Node6</title>
<path fill="none" stroke="midnightblue" d="M111.75,-149.49C122.26,-139.63 133.99,-128.63 143.71,-119.51"/>
<polygon fill="midnightblue" stroke="midnightblue" points="109.26,-147.03 104.36,-156.43 114.05,-152.14 109.26,-147.03"/>
</g>
<!-- Node7 -->
<g id="node7" class="node">
<title>Node7</title>
<g id="a_node7"><a xlink:href="amcl__core_8hpp_source.html" target="_top" xlink:title=" ">
<polygon fill="none" stroke="black" points="76,-0.5 76,-41.5 253,-41.5 253,-0.5 76,-0.5"/>
<text text-anchor="start" x="84" y="-29.5" font-family="Helvetica,sans-Serif" font-size="10.00">/home/runner/work/beluga</text>
<text text-anchor="start" x="84" y="-18.5" font-family="Helvetica,sans-Serif" font-size="10.00">/beluga/beluga/include</text>
<text text-anchor="middle" x="164.5" y="-7.5" font-family="Helvetica,sans-Serif" font-size="10.00">/beluga/algorithm/amcl_core.hpp</text>
</a>
</g>
</g>
<!-- Node6&#45;&gt;Node7 -->
<g id="edge6" class="edge">
<title>Node6&#45;&gt;Node7</title>
<path fill="none" stroke="midnightblue" d="M164.5,-68.3C164.5,-59.3 164.5,-49.65 164.5,-41.51"/>
<polygon fill="midnightblue" stroke="midnightblue" points="161,-68.43 164.5,-78.43 168,-68.43 161,-68.43"/>
</g>
<!-- Node9 -->
<g id="node9" class="node">
<title>Node9</title>
<g id="a_node9"><a xlink:href="likelihood__field__model_8hpp.html" target="_top" xlink:title="Implementation of a likelihood field sensor model for range finders.">
<polygon fill="none" stroke="black" points="143,-234.5 143,-286.5 288,-286.5 288,-234.5 143,-234.5"/>
<text text-anchor="start" x="151" y="-274.5" font-family="Helvetica,sans-Serif" font-size="10.00">/home/runner/work/beluga</text>
<text text-anchor="start" x="151" y="-263.5" font-family="Helvetica,sans-Serif" font-size="10.00">/beluga/beluga/include</text>
<text text-anchor="start" x="151" y="-252.5" font-family="Helvetica,sans-Serif" font-size="10.00">/beluga/sensor/likelihood</text>
<text text-anchor="middle" x="215.5" y="-241.5" font-family="Helvetica,sans-Serif" font-size="10.00">_field_model.hpp</text>
</a>
</g>
</g>
<!-- Node8&#45;&gt;Node9 -->
<g id="edge8" class="edge">
<title>Node8&#45;&gt;Node9</title>
<path fill="none" stroke="midnightblue" d="M239.06,-314.06C234.95,-304.9 230.59,-295.17 226.76,-286.61"/>
<polygon fill="midnightblue" stroke="midnightblue" points="235.94,-315.64 243.22,-323.34 242.32,-312.78 235.94,-315.64"/>
</g>
<!-- Node11 -->
<g id="node11" class="node">
<title>Node11</title>
<g id="a_node11"><a xlink:href="likelihood__field__prob__model_8hpp.html" target="_top" xlink:title="Implementation of a likelihood field prob sensor model for range finders.">
<polygon fill="none" stroke="black" points="306,-234.5 306,-286.5 451,-286.5 451,-234.5 306,-234.5"/>
<text text-anchor="start" x="314" y="-274.5" font-family="Helvetica,sans-Serif" font-size="10.00">/home/runner/work/beluga</text>
<text text-anchor="start" x="314" y="-263.5" font-family="Helvetica,sans-Serif" font-size="10.00">/beluga/beluga/include</text>
<text text-anchor="start" x="314" y="-252.5" font-family="Helvetica,sans-Serif" font-size="10.00">/beluga/sensor/likelihood</text>
<text text-anchor="middle" x="378.5" y="-241.5" font-family="Helvetica,sans-Serif" font-size="10.00">_field_prob_model.hpp</text>
</a>
</g>
</g>
<!-- Node8&#45;&gt;Node11 -->
<g id="edge11" class="edge">
<title>Node8&#45;&gt;Node11</title>
<path fill="none" stroke="midnightblue" d="M298.68,-317.5C313.12,-307.37 328.97,-296.25 342.71,-286.61"/>
<polygon fill="midnightblue" stroke="midnightblue" points="296.54,-314.73 290.37,-323.34 300.56,-320.46 296.54,-314.73"/>
</g>
<!-- Node10 -->
<g id="node10" class="node">
<title>Node10</title>
<g id="a_node10"><a xlink:href="sensor_8hpp.html" target="_top" xlink:title="Includes all Beluga sensor models and their interfaces.">
<polygon fill="none" stroke="black" points="174,-156.5 174,-197.5 319,-197.5 319,-156.5 174,-156.5"/>
<text text-anchor="start" x="182" y="-185.5" font-family="Helvetica,sans-Serif" font-size="10.00">/home/runner/work/beluga</text>
<text text-anchor="start" x="182" y="-174.5" font-family="Helvetica,sans-Serif" font-size="10.00">/beluga/beluga/include</text>
<text text-anchor="middle" x="246.5" y="-163.5" font-family="Helvetica,sans-Serif" font-size="10.00">/beluga/sensor.hpp</text>
</a>
</g>
</g>
<!-- Node9&#45;&gt;Node10 -->
<g id="edge9" class="edge">
<title>Node9&#45;&gt;Node10</title>
<path fill="none" stroke="midnightblue" d="M228.72,-224.73C232.25,-215.46 235.94,-205.77 239.03,-197.63"/>
<polygon fill="midnightblue" stroke="midnightblue" points="225.42,-223.57 225.14,-234.16 231.97,-226.06 225.42,-223.57"/>
</g>
<!-- Node10&#45;&gt;Node6 -->
<g id="edge10" class="edge">
<title>Node10&#45;&gt;Node6</title>
<path fill="none" stroke="midnightblue" d="M217.9,-149.49C207.26,-139.63 195.39,-128.63 185.55,-119.51"/>
<polygon fill="midnightblue" stroke="midnightblue" points="215.67,-152.2 225.38,-156.43 220.43,-147.06 215.67,-152.2"/>
</g>
<!-- Node11&#45;&gt;Node10 -->
<g id="edge12" class="edge">
<title>Node11&#45;&gt;Node10</title>
<path fill="none" stroke="midnightblue" d="M329.12,-229.01C312.17,-218.55 293.66,-207.12 278.46,-197.73"/>
<polygon fill="midnightblue" stroke="midnightblue" points="327.47,-232.11 337.82,-234.38 331.15,-226.15 327.47,-232.11"/>
</g>
<!-- Node12&#45;&gt;Node8 -->
<g id="edge14" class="edge">
<title>Node12&#45;&gt;Node8</title>
<path fill="none" stroke="midnightblue" d="M256.28,-402.19C255.98,-393.28 255.65,-383.9 255.37,-375.61"/>
<polygon fill="midnightblue" stroke="midnightblue" points="252.79,-402.46 256.63,-412.34 259.79,-402.22 252.79,-402.46"/>
</g>
</g>
</svg>
