<?xml version="1.0" encoding="UTF-8" standalone="no"?>
<!DOCTYPE svg PUBLIC "-//W3C//DTD SVG 1.1//EN"
 "http://www.w3.org/Graphics/SVG/1.1/DTD/svg11.dtd">
<!-- Generated by graphviz version 2.43.0 (0)
 -->
<!-- Title: /home/runner/work/beluga/beluga/beluga/include/beluga/sensor/data/dense_grid.hpp Pages: 1 -->
<svg width="457pt" height="184pt"
 viewBox="0.00 0.00 457.00 184.00" xmlns="http://www.w3.org/2000/svg" xmlns:xlink="http://www.w3.org/1999/xlink">
<g id="graph0" class="graph" transform="scale(1 1) rotate(0) translate(4 180)">
<title>/home/runner/work/beluga/beluga/beluga/include/beluga/sensor/data/dense_grid.hpp</title>
<!-- Node1 -->
<g id="node1" class="node">
<title>Node1</title>
<g id="a_node1"><a xlink:title="Concepts and abstract implementations of dense grids.">
<polygon fill="#bfbfbf" stroke="black" points="161,-123.5 161,-175.5 306,-175.5 306,-123.5 161,-123.5"/>
<text text-anchor="start" x="169" y="-163.5" font-family="Helvetica,sans-Serif" font-size="10.00">/home/runner/work/beluga</text>
<text text-anchor="start" x="169" y="-152.5" font-family="Helvetica,sans-Serif" font-size="10.00">/beluga/beluga/include</text>
<text text-anchor="start" x="169" y="-141.5" font-family="Helvetica,sans-Serif" font-size="10.00">/beluga/sensor/data/dense</text>
<text text-anchor="middle" x="233.5" y="-130.5" font-family="Helvetica,sans-Serif" font-size="10.00">_grid.hpp</text>
</a>
</g>
</g>
<!-- Node2 -->
<g id="node2" class="node">
<title>Node2</title>
<g id="a_node2"><a xlink:title=" ">
<polygon fill="none" stroke="#bfbfbf" points="87.5,-62 87.5,-81 143.5,-81 143.5,-62 87.5,-62"/>
<text text-anchor="middle" x="115.5" y="-69" font-family="Helvetica,sans-Serif" font-size="10.00">optional</text>
</a>
</g>
</g>
<!-- Node1&#45;&gt;Node2 -->
<g id="edge1" class="edge">
<title>Node1&#45;&gt;Node2</title>
<path fill="none" stroke="midnightblue" d="M194.54,-123.4C175.57,-111.19 153.47,-96.95 137.46,-86.65"/>
<polygon fill="midnightblue" stroke="midnightblue" points="139.12,-83.55 128.82,-81.08 135.33,-89.44 139.12,-83.55"/>
</g>
<!-- Node3 -->
<g id="node3" class="node">
<title>Node3</title>
<g id="a_node3"><a xlink:title=" ">
<polygon fill="none" stroke="#bfbfbf" points="162,-62 162,-81 209,-81 209,-62 162,-62"/>
<text text-anchor="middle" x="185.5" y="-69" font-family="Helvetica,sans-Serif" font-size="10.00">vector</text>
</a>
</g>
</g>
<!-- Node1&#45;&gt;Node3 -->
<g id="edge2" class="edge">
<title>Node1&#45;&gt;Node3</title>
<path fill="none" stroke="midnightblue" d="M217.52,-123.19C210.57,-112.2 202.62,-99.6 196.37,-89.72"/>
<polygon fill="midnightblue" stroke="midnightblue" points="199.3,-87.79 191,-81.21 193.38,-91.53 199.3,-87.79"/>
</g>
<!-- Node4 -->
<g id="node4" class="node">
<title>Node4</title>
<g id="a_node4"><a xlink:href="regular__grid_8hpp.html" target="_top" xlink:title="Concepts and abstract implementations of regular grids.">
<polygon fill="none" stroke="black" points="227.5,-56.5 227.5,-86.5 337.5,-86.5 337.5,-56.5 227.5,-56.5"/>
<text text-anchor="start" x="235.5" y="-74.5" font-family="Helvetica,sans-Serif" font-size="10.00">beluga/sensor/data</text>
<text text-anchor="middle" x="282.5" y="-63.5" font-family="Helvetica,sans-Serif" font-size="10.00">/regular_grid.hpp</text>
</a>
</g>
</g>
<!-- Node1&#45;&gt;Node4 -->
<g id="edge3" class="edge">
<title>Node1&#45;&gt;Node4</title>
<path fill="none" stroke="midnightblue" d="M249.82,-123.19C255.6,-114.22 262.08,-104.18 267.72,-95.42"/>
<polygon fill="midnightblue" stroke="midnightblue" points="270.77,-97.15 273.25,-86.85 264.89,-93.35 270.77,-97.15"/>
</g>
<!-- Node8 -->
<g id="node8" class="node">
<title>Node8</title>
<g id="a_node8"><a xlink:title=" ">
<polygon fill="none" stroke="#bfbfbf" points="380,-0.5 380,-19.5 449,-19.5 449,-0.5 380,-0.5"/>
<text text-anchor="middle" x="414.5" y="-7.5" font-family="Helvetica,sans-Serif" font-size="10.00">Eigen/Core</text>
</a>
</g>
</g>
<!-- Node1&#45;&gt;Node8 -->
<g id="edge8" class="edge">
<title>Node1&#45;&gt;Node8</title>
<path fill="none" stroke="midnightblue" d="M288.45,-123.42C307.7,-113.4 328.9,-100.93 346.5,-87 368.52,-69.57 389.36,-44.56 402.03,-28.06"/>
<polygon fill="midnightblue" stroke="midnightblue" points="404.97,-29.96 408.18,-19.86 399.37,-25.76 404.97,-29.96"/>
</g>
<!-- Node5 -->
<g id="node5" class="node">
<title>Node5</title>
<g id="a_node5"><a xlink:title=" ">
<polygon fill="none" stroke="#bfbfbf" points="0,-0.5 0,-19.5 47,-19.5 47,-0.5 0,-0.5"/>
<text text-anchor="middle" x="23.5" y="-7.5" font-family="Helvetica,sans-Serif" font-size="10.00">cmath</text>
</a>
</g>
</g>
<!-- Node4&#45;&gt;Node5 -->
<g id="edge4" class="edge">
<title>Node4&#45;&gt;Node5</title>
<path fill="none" stroke="midnightblue" d="M227.3,-58.18C170.39,-45.48 86.71,-26.8 57.1,-19.95"/>
<polygon fill="midnightblue" stroke="midnightblue" points="57.8,-16.52 47.26,-17.62 56.18,-23.33 57.8,-16.52"/>
</g>
<!-- Node6 -->
<g id="node6" class="node">
<title>Node6</title>
<g id="a_node6"><a xlink:href="ciabatta_8hpp_source.html" target="_top" xlink:title=" ">
<polygon fill="none" stroke="black" points="65.5,-0.5 65.5,-19.5 185.5,-19.5 185.5,-0.5 65.5,-0.5"/>
<text text-anchor="middle" x="125.5" y="-7.5" font-family="Helvetica,sans-Serif" font-size="10.00">ciabatta/ciabatta.hpp</text>
</a>
</g>
</g>
<!-- Node4&#45;&gt;Node6 -->
<g id="edge5" class="edge">
<title>Node4&#45;&gt;Node6</title>
<path fill="none" stroke="midnightblue" d="M245.29,-56.4C218.72,-46.33 183.31,-32.91 157.89,-23.28"/>
<polygon fill="midnightblue" stroke="midnightblue" points="158.94,-19.93 148.34,-19.66 156.46,-26.47 158.94,-19.93"/>
</g>
<!-- Node7 -->
<g id="node7" class="node">
<title>Node7</title>
<g id="a_node7"><a xlink:title=" ">
<polygon fill="none" stroke="#bfbfbf" points="203.5,-0.5 203.5,-19.5 361.5,-19.5 361.5,-0.5 203.5,-0.5"/>
<text text-anchor="middle" x="282.5" y="-7.5" font-family="Helvetica,sans-Serif" font-size="10.00">range/v3/view/transform.hpp</text>
</a>
</g>
</g>
<!-- Node4&#45;&gt;Node7 -->
<g id="edge6" class="edge">
<title>Node4&#45;&gt;Node7</title>
<path fill="none" stroke="midnightblue" d="M282.5,-56.4C282.5,-48.47 282.5,-38.46 282.5,-29.86"/>
<polygon fill="midnightblue" stroke="midnightblue" points="286,-29.66 282.5,-19.66 279,-29.66 286,-29.66"/>
</g>
<!-- Node4&#45;&gt;Node8 -->
<g id="edge7" class="edge">
<title>Node4&#45;&gt;Node8</title>
<path fill="none" stroke="midnightblue" d="M313.78,-56.4C335.73,-46.51 364.84,-33.38 386.12,-23.79"/>
<polygon fill="midnightblue" stroke="midnightblue" points="387.61,-26.96 395.29,-19.66 384.74,-20.58 387.61,-26.96"/>
</g>
</g>
</svg>
