<?xml version="1.0" encoding="UTF-8" standalone="no"?>
<!DOCTYPE svg PUBLIC "-//W3C//DTD SVG 1.1//EN"
 "http://www.w3.org/Graphics/SVG/1.1/DTD/svg11.dtd">
<!-- Generated by graphviz version 2.43.0 (0)
 -->
<!-- Title: /home/runner/work/beluga/beluga/beluga/include/beluga/sensor/data/dense_grid.hpp Pages: 1 -->
<svg width="644pt" height="240pt"
 viewBox="0.00 0.00 644.00 240.00" xmlns="http://www.w3.org/2000/svg" xmlns:xlink="http://www.w3.org/1999/xlink">
<g id="graph0" class="graph" transform="scale(1 1) rotate(0) translate(4 236)">
<title>/home/runner/work/beluga/beluga/beluga/include/beluga/sensor/data/dense_grid.hpp</title>
<!-- Node1 -->
<g id="node1" class="node">
<title>Node1</title>
<g id="a_node1"><a xlink:title="Concepts and abstract implementations of dense grids.">
<polygon fill="#bfbfbf" stroke="black" points="259,-179.5 259,-231.5 404,-231.5 404,-179.5 259,-179.5"/>
<text text-anchor="start" x="267" y="-219.5" font-family="Helvetica,sans-Serif" font-size="10.00">/home/runner/work/beluga</text>
<text text-anchor="start" x="267" y="-208.5" font-family="Helvetica,sans-Serif" font-size="10.00">/beluga/beluga/include</text>
<text text-anchor="start" x="267" y="-197.5" font-family="Helvetica,sans-Serif" font-size="10.00">/beluga/sensor/data/dense</text>
<text text-anchor="middle" x="331.5" y="-186.5" font-family="Helvetica,sans-Serif" font-size="10.00">_grid.hpp</text>
</a>
</g>
</g>
<!-- Node2 -->
<g id="node2" class="node">
<title>Node2</title>
<g id="a_node2"><a xlink:title=" ">
<polygon fill="none" stroke="#bfbfbf" points="136.5,-118 136.5,-137 192.5,-137 192.5,-118 136.5,-118"/>
<text text-anchor="middle" x="164.5" y="-125" font-family="Helvetica,sans-Serif" font-size="10.00">optional</text>
</a>
</g>
</g>
<!-- Node1&#45;&gt;Node2 -->
<g id="edge1" class="edge">
<title>Node1&#45;&gt;Node2</title>
<path fill="none" stroke="midnightblue" d="M276.36,-179.4C248.26,-166.62 215.3,-151.62 192.47,-141.23"/>
<polygon fill="midnightblue" stroke="midnightblue" points="193.9,-138.03 183.35,-137.08 191,-144.41 193.9,-138.03"/>
</g>
<!-- Node3 -->
<g id="node3" class="node">
<title>Node3</title>
<g id="a_node3"><a xlink:title=" ">
<polygon fill="none" stroke="#bfbfbf" points="211,-118 211,-137 258,-137 258,-118 211,-118"/>
<text text-anchor="middle" x="234.5" y="-125" font-family="Helvetica,sans-Serif" font-size="10.00">vector</text>
</a>
</g>
</g>
<!-- Node1&#45;&gt;Node3 -->
<g id="edge2" class="edge">
<title>Node1&#45;&gt;Node3</title>
<path fill="none" stroke="midnightblue" d="M299.47,-179.4C284.4,-167.6 266.93,-153.91 253.91,-143.7"/>
<polygon fill="midnightblue" stroke="midnightblue" points="255.71,-140.67 245.68,-137.26 251.39,-146.18 255.71,-140.67"/>
</g>
<!-- Node4 -->
<g id="node4" class="node">
<title>Node4</title>
<g id="a_node4"><a xlink:href="regular__grid_8hpp.html" target="_top" xlink:title="Concepts and abstract implementations of regular grids.">
<polygon fill="none" stroke="black" points="276.5,-112.5 276.5,-142.5 386.5,-142.5 386.5,-112.5 276.5,-112.5"/>
<text text-anchor="start" x="284.5" y="-130.5" font-family="Helvetica,sans-Serif" font-size="10.00">beluga/sensor/data</text>
<text text-anchor="middle" x="331.5" y="-119.5" font-family="Helvetica,sans-Serif" font-size="10.00">/regular_grid.hpp</text>
</a>
</g>
</g>
<!-- Node1&#45;&gt;Node4 -->
<g id="edge3" class="edge">
<title>Node1&#45;&gt;Node4</title>
<path fill="none" stroke="midnightblue" d="M331.5,-179.19C331.5,-170.79 331.5,-161.44 331.5,-153.09"/>
<polygon fill="midnightblue" stroke="midnightblue" points="335,-152.85 331.5,-142.85 328,-152.85 335,-152.85"/>
</g>
<!-- Node8 -->
<g id="node8" class="node">
<title>Node8</title>
<g id="a_node8"><a xlink:title=" ">
<polygon fill="none" stroke="#bfbfbf" points="380,-56.5 380,-75.5 449,-75.5 449,-56.5 380,-56.5"/>
<text text-anchor="middle" x="414.5" y="-63.5" font-family="Helvetica,sans-Serif" font-size="10.00">Eigen/Core</text>
</a>
</g>
</g>
<!-- Node1&#45;&gt;Node8 -->
<g id="edge10" class="edge">
<title>Node1&#45;&gt;Node8</title>
<path fill="none" stroke="midnightblue" d="M364.56,-179.27C375.86,-169.13 387.62,-156.6 395.5,-143 405.82,-125.2 410.57,-101.9 412.74,-85.81"/>
<polygon fill="midnightblue" stroke="midnightblue" points="416.26,-85.89 413.9,-75.56 409.3,-85.1 416.26,-85.89"/>
</g>
<!-- Node9 -->
<g id="node9" class="node">
<title>Node9</title>
<g id="a_node9"><a xlink:href="eigen__compatibility_8hpp_source.html" target="_top" xlink:title=" ">
<polygon fill="none" stroke="black" points="467,-56.5 467,-75.5 636,-75.5 636,-56.5 467,-56.5"/>
<text text-anchor="middle" x="551.5" y="-63.5" font-family="Helvetica,sans-Serif" font-size="10.00">beluga/eigen_compatibility.hpp</text>
</a>
</g>
</g>
<!-- Node1&#45;&gt;Node9 -->
<g id="edge11" class="edge">
<title>Node1&#45;&gt;Node9</title>
<path fill="none" stroke="midnightblue" d="M371.6,-179.44C417.75,-150.59 491.95,-104.22 528.97,-81.08"/>
<polygon fill="midnightblue" stroke="midnightblue" points="530.92,-83.99 537.55,-75.72 527.21,-78.05 530.92,-83.99"/>
</g>
<!-- Node5 -->
<g id="node5" class="node">
<title>Node5</title>
<g id="a_node5"><a xlink:title=" ">
<polygon fill="none" stroke="#bfbfbf" points="0,-56.5 0,-75.5 47,-75.5 47,-56.5 0,-56.5"/>
<text text-anchor="middle" x="23.5" y="-63.5" font-family="Helvetica,sans-Serif" font-size="10.00">cmath</text>
</a>
</g>
</g>
<!-- Node4&#45;&gt;Node5 -->
<g id="edge4" class="edge">
<title>Node4&#45;&gt;Node5</title>
<path fill="none" stroke="midnightblue" d="M276.22,-113.97C272.94,-113.29 269.68,-112.63 266.5,-112 176.68,-94.29 150.66,-96.32 57.11,-75.94"/>
<polygon fill="midnightblue" stroke="midnightblue" points="57.74,-72.5 47.22,-73.76 56.24,-79.34 57.74,-72.5"/>
</g>
<!-- Node6 -->
<g id="node6" class="node">
<title>Node6</title>
<g id="a_node6"><a xlink:href="ciabatta_8hpp_source.html" target="_top" xlink:title=" ">
<polygon fill="none" stroke="black" points="65.5,-56.5 65.5,-75.5 185.5,-75.5 185.5,-56.5 65.5,-56.5"/>
<text text-anchor="middle" x="125.5" y="-63.5" font-family="Helvetica,sans-Serif" font-size="10.00">ciabatta/ciabatta.hpp</text>
</a>
</g>
</g>
<!-- Node4&#45;&gt;Node6 -->
<g id="edge5" class="edge">
<title>Node4&#45;&gt;Node6</title>
<path fill="none" stroke="midnightblue" d="M282.94,-112.47C246.94,-102.08 198.48,-88.08 164.87,-78.37"/>
<polygon fill="midnightblue" stroke="midnightblue" points="165.53,-74.92 154.95,-75.51 163.59,-81.64 165.53,-74.92"/>
</g>
<!-- Node7 -->
<g id="node7" class="node">
<title>Node7</title>
<g id="a_node7"><a xlink:title=" ">
<polygon fill="none" stroke="#bfbfbf" points="203.5,-56.5 203.5,-75.5 361.5,-75.5 361.5,-56.5 203.5,-56.5"/>
<text text-anchor="middle" x="282.5" y="-63.5" font-family="Helvetica,sans-Serif" font-size="10.00">range/v3/view/transform.hpp</text>
</a>
</g>
</g>
<!-- Node4&#45;&gt;Node7 -->
<g id="edge6" class="edge">
<title>Node4&#45;&gt;Node7</title>
<path fill="none" stroke="midnightblue" d="M319.89,-112.4C312.77,-103.75 303.62,-92.64 296.15,-83.58"/>
<polygon fill="midnightblue" stroke="midnightblue" points="298.69,-81.15 289.63,-75.66 293.29,-85.6 298.69,-81.15"/>
</g>
<!-- Node4&#45;&gt;Node8 -->
<g id="edge7" class="edge">
<title>Node4&#45;&gt;Node8</title>
<path fill="none" stroke="midnightblue" d="M351.17,-112.4C364.1,-103.13 380.99,-91.03 394.07,-81.65"/>
<polygon fill="midnightblue" stroke="midnightblue" points="396.33,-84.33 402.42,-75.66 392.26,-78.64 396.33,-84.33"/>
</g>
<!-- Node4&#45;&gt;Node9 -->
<g id="edge8" class="edge">
<title>Node4&#45;&gt;Node9</title>
<path fill="none" stroke="midnightblue" d="M383.36,-112.47C422.14,-101.99 474.46,-87.84 510.38,-78.12"/>
<polygon fill="midnightblue" stroke="midnightblue" points="511.31,-81.5 520.05,-75.51 509.48,-74.74 511.31,-81.5"/>
</g>
<!-- Node10 -->
<g id="node10" class="node">
<title>Node10</title>
<g id="a_node10"><a xlink:title=" ">
<polygon fill="none" stroke="#bfbfbf" points="513,-0.5 513,-19.5 590,-19.5 590,-0.5 513,-0.5"/>
<text text-anchor="middle" x="551.5" y="-7.5" font-family="Helvetica,sans-Serif" font-size="10.00">Eigen/Dense</text>
</a>
</g>
</g>
<!-- Node9&#45;&gt;Node10 -->
<g id="edge9" class="edge">
<title>Node9&#45;&gt;Node10</title>
<path fill="none" stroke="midnightblue" d="M551.5,-56.08C551.5,-49.01 551.5,-38.86 551.5,-29.99"/>
<polygon fill="midnightblue" stroke="midnightblue" points="555,-29.75 551.5,-19.75 548,-29.75 555,-29.75"/>
</g>
</g>
</svg>
