<?xml version="1.0" encoding="UTF-8" standalone="no"?>
<!DOCTYPE svg PUBLIC "-//W3C//DTD SVG 1.1//EN"
 "http://www.w3.org/Graphics/SVG/1.1/DTD/svg11.dtd">
<!-- Generated by graphviz version 2.43.0 (0)
 -->
<!-- Title: /home/runner/work/beluga/beluga/beluga/include/beluga/motion/differential_drive_model.hpp Pages: 1 -->
<svg width="612pt" height="184pt"
 viewBox="0.00 0.00 612.00 184.00" xmlns="http://www.w3.org/2000/svg" xmlns:xlink="http://www.w3.org/1999/xlink">
<g id="graph0" class="graph" transform="scale(1 1) rotate(0) translate(4 180)">
<title>/home/runner/work/beluga/beluga/beluga/include/beluga/motion/differential_drive_model.hpp</title>
<!-- Node1 -->
<g id="node1" class="node">
<title>Node1</title>
<g id="a_node1"><a xlink:title="Implementation of a differential drive odometry motion model.">
<polygon fill="#bfbfbf" stroke="black" points="190,-123.5 190,-175.5 336,-175.5 336,-123.5 190,-123.5"/>
<text text-anchor="start" x="198" y="-163.5" font-family="Helvetica,sans-Serif" font-size="10.00">/home/runner/work/beluga</text>
<text text-anchor="start" x="198" y="-152.5" font-family="Helvetica,sans-Serif" font-size="10.00">/beluga/beluga/include</text>
<text text-anchor="start" x="198" y="-141.5" font-family="Helvetica,sans-Serif" font-size="10.00">/beluga/motion/differential</text>
<text text-anchor="middle" x="263" y="-130.5" font-family="Helvetica,sans-Serif" font-size="10.00">_drive_model.hpp</text>
</a>
</g>
</g>
<!-- Node2 -->
<g id="node2" class="node">
<title>Node2</title>
<g id="a_node2"><a xlink:title=" ">
<polygon fill="none" stroke="#bfbfbf" points="0,-62 0,-81 54,-81 54,-62 0,-62"/>
<text text-anchor="middle" x="27" y="-69" font-family="Helvetica,sans-Serif" font-size="10.00">random</text>
</a>
</g>
</g>
<!-- Node1&#45;&gt;Node2 -->
<g id="edge1" class="edge">
<title>Node1&#45;&gt;Node2</title>
<path fill="none" stroke="midnightblue" d="M189.65,-126.02C153.01,-114.63 108.06,-100.4 68,-87 65.56,-86.18 63.04,-85.33 60.5,-84.45"/>
<polygon fill="midnightblue" stroke="midnightblue" points="61.4,-81.06 50.8,-81.07 59.09,-87.67 61.4,-81.06"/>
</g>
<!-- Node3 -->
<g id="node3" class="node">
<title>Node3</title>
<g id="a_node3"><a xlink:title=" ">
<polygon fill="none" stroke="#bfbfbf" points="311,-0.5 311,-19.5 403,-19.5 403,-0.5 311,-0.5"/>
<text text-anchor="middle" x="357" y="-7.5" font-family="Helvetica,sans-Serif" font-size="10.00">sophus/se3.hpp</text>
</a>
</g>
</g>
<!-- Node1&#45;&gt;Node3 -->
<g id="edge2" class="edge">
<title>Node1&#45;&gt;Node3</title>
<path fill="none" stroke="midnightblue" d="M269.61,-123.19C275.6,-103.53 285.83,-76.3 301,-56 309.96,-44.02 322.81,-33.39 333.95,-25.47"/>
<polygon fill="midnightblue" stroke="midnightblue" points="336.1,-28.24 342.4,-19.73 332.16,-22.45 336.1,-28.24"/>
</g>
<!-- Node4 -->
<g id="node4" class="node">
<title>Node4</title>
<g id="a_node4"><a xlink:title=" ">
<polygon fill="none" stroke="#bfbfbf" points="71.5,-0.5 71.5,-19.5 112.5,-19.5 112.5,-0.5 71.5,-0.5"/>
<text text-anchor="middle" x="92" y="-7.5" font-family="Helvetica,sans-Serif" font-size="10.00">tuple</text>
</a>
</g>
</g>
<!-- Node1&#45;&gt;Node4 -->
<g id="edge3" class="edge">
<title>Node1&#45;&gt;Node4</title>
<path fill="none" stroke="midnightblue" d="M189.91,-138.12C157.75,-129.71 122.48,-114.51 101,-87 88.38,-70.83 87.71,-46.53 89.16,-29.78"/>
<polygon fill="midnightblue" stroke="midnightblue" points="92.67,-29.93 90.39,-19.58 85.72,-29.09 92.67,-29.93"/>
</g>
<!-- Node5 -->
<g id="node5" class="node">
<title>Node5</title>
<g id="a_node5"><a xlink:href="tuple__traits_8hpp.html" target="_top" xlink:title="Implementation of traits for tuple&#45;like types.">
<polygon fill="none" stroke="black" points="110.5,-56.5 110.5,-86.5 215.5,-86.5 215.5,-56.5 110.5,-56.5"/>
<text text-anchor="start" x="118.5" y="-74.5" font-family="Helvetica,sans-Serif" font-size="10.00">beluga/type_traits</text>
<text text-anchor="middle" x="163" y="-63.5" font-family="Helvetica,sans-Serif" font-size="10.00">/tuple_traits.hpp</text>
</a>
</g>
</g>
<!-- Node1&#45;&gt;Node5 -->
<g id="edge4" class="edge">
<title>Node1&#45;&gt;Node5</title>
<path fill="none" stroke="midnightblue" d="M229.98,-123.4C216.94,-113.5 202.16,-102.26 189.81,-92.87"/>
<polygon fill="midnightblue" stroke="midnightblue" points="191.77,-89.97 181.69,-86.71 187.54,-95.54 191.77,-89.97"/>
</g>
<!-- Node6 -->
<g id="node6" class="node">
<title>Node6</title>
<g id="a_node6"><a xlink:title=" ">
<polygon fill="none" stroke="#bfbfbf" points="206.5,-0.5 206.5,-19.5 275.5,-19.5 275.5,-0.5 206.5,-0.5"/>
<text text-anchor="middle" x="241" y="-7.5" font-family="Helvetica,sans-Serif" font-size="10.00">type_traits</text>
</a>
</g>
</g>
<!-- Node1&#45;&gt;Node6 -->
<g id="edge13" class="edge">
<title>Node1&#45;&gt;Node6</title>
<path fill="none" stroke="midnightblue" d="M258.96,-123.28C254.64,-96.24 247.87,-53.94 243.99,-29.72"/>
<polygon fill="midnightblue" stroke="midnightblue" points="247.43,-29.02 242.39,-19.7 240.52,-30.13 247.43,-29.02"/>
</g>
<!-- Node8 -->
<g id="node8" class="node">
<title>Node8</title>
<g id="a_node8"><a xlink:href="3d__embedding_8hpp_source.html" target="_top" xlink:title=" ">
<polygon fill="none" stroke="black" points="310,-62 310,-81 456,-81 456,-62 310,-62"/>
<text text-anchor="middle" x="383" y="-69" font-family="Helvetica,sans-Serif" font-size="10.00">beluga/3d_embedding.hpp</text>
</a>
</g>
</g>
<!-- Node1&#45;&gt;Node8 -->
<g id="edge8" class="edge">
<title>Node1&#45;&gt;Node8</title>
<path fill="none" stroke="midnightblue" d="M302.63,-123.4C321.91,-111.19 344.39,-96.95 360.66,-86.65"/>
<polygon fill="midnightblue" stroke="midnightblue" points="362.88,-89.39 369.46,-81.08 359.14,-83.47 362.88,-89.39"/>
</g>
<!-- Node9 -->
<g id="node9" class="node">
<title>Node9</title>
<g id="a_node9"><a xlink:title=" ">
<polygon fill="none" stroke="#bfbfbf" points="429,-0.5 429,-19.5 521,-19.5 521,-0.5 429,-0.5"/>
<text text-anchor="middle" x="475" y="-7.5" font-family="Helvetica,sans-Serif" font-size="10.00">sophus/se2.hpp</text>
</a>
</g>
</g>
<!-- Node1&#45;&gt;Node9 -->
<g id="edge11" class="edge">
<title>Node1&#45;&gt;Node9</title>
<path fill="none" stroke="midnightblue" d="M336.25,-145.31C380.19,-139.34 433.48,-124.2 465,-87 478.28,-71.33 479.18,-46.92 477.8,-30.01"/>
<polygon fill="midnightblue" stroke="midnightblue" points="481.24,-29.23 476.61,-19.7 474.28,-30.04 481.24,-29.23"/>
</g>
<!-- Node10 -->
<g id="node10" class="node">
<title>Node10</title>
<g id="a_node10"><a xlink:title=" ">
<polygon fill="none" stroke="#bfbfbf" points="512,-62 512,-81 604,-81 604,-62 512,-62"/>
<text text-anchor="middle" x="558" y="-69" font-family="Helvetica,sans-Serif" font-size="10.00">sophus/so2.hpp</text>
</a>
</g>
</g>
<!-- Node1&#45;&gt;Node10 -->
<g id="edge12" class="edge">
<title>Node1&#45;&gt;Node10</title>
<path fill="none" stroke="midnightblue" d="M336.3,-129.62C392.58,-115.12 468.34,-95.6 515.14,-83.54"/>
<polygon fill="midnightblue" stroke="midnightblue" points="516.14,-86.9 524.95,-81.01 514.39,-80.12 516.14,-86.9"/>
</g>
<!-- Node5&#45;&gt;Node4 -->
<g id="edge5" class="edge">
<title>Node5&#45;&gt;Node4</title>
<path fill="none" stroke="midnightblue" d="M146.17,-56.4C135.33,-47.31 121.22,-35.49 110.13,-26.19"/>
<polygon fill="midnightblue" stroke="midnightblue" points="112.24,-23.4 102.33,-19.66 107.75,-28.76 112.24,-23.4"/>
</g>
<!-- Node5&#45;&gt;Node6 -->
<g id="edge6" class="edge">
<title>Node5&#45;&gt;Node6</title>
<path fill="none" stroke="midnightblue" d="M181.48,-56.4C193.52,-47.22 209.2,-35.26 221.44,-25.92"/>
<polygon fill="midnightblue" stroke="midnightblue" points="223.82,-28.51 229.65,-19.66 219.58,-22.94 223.82,-28.51"/>
</g>
<!-- Node7 -->
<g id="node7" class="node">
<title>Node7</title>
<g id="a_node7"><a xlink:title=" ">
<polygon fill="none" stroke="#bfbfbf" points="140.5,-0.5 140.5,-19.5 185.5,-19.5 185.5,-0.5 140.5,-0.5"/>
<text text-anchor="middle" x="163" y="-7.5" font-family="Helvetica,sans-Serif" font-size="10.00">utility</text>
</a>
</g>
</g>
<!-- Node5&#45;&gt;Node7 -->
<g id="edge7" class="edge">
<title>Node5&#45;&gt;Node7</title>
<path fill="none" stroke="midnightblue" d="M163,-56.4C163,-48.47 163,-38.46 163,-29.86"/>
<polygon fill="midnightblue" stroke="midnightblue" points="166.5,-29.66 163,-19.66 159.5,-29.66 166.5,-29.66"/>
</g>
<!-- Node8&#45;&gt;Node3 -->
<g id="edge10" class="edge">
<title>Node8&#45;&gt;Node3</title>
<path fill="none" stroke="midnightblue" d="M379.27,-61.98C375.53,-53.4 369.64,-39.93 364.86,-28.98"/>
<polygon fill="midnightblue" stroke="midnightblue" points="367.93,-27.27 360.72,-19.51 361.52,-30.07 367.93,-27.27"/>
</g>
<!-- Node8&#45;&gt;Node9 -->
<g id="edge9" class="edge">
<title>Node8&#45;&gt;Node9</title>
<path fill="none" stroke="midnightblue" d="M396.18,-61.98C411.07,-52.34 435.54,-36.52 453.27,-25.05"/>
<polygon fill="midnightblue" stroke="midnightblue" points="455.35,-27.88 461.84,-19.51 451.55,-22 455.35,-27.88"/>
</g>
</g>
</svg>
