<?xml version="1.0" encoding="UTF-8" standalone="no"?>
<!DOCTYPE svg PUBLIC "-//W3C//DTD SVG 1.1//EN"
 "http://www.w3.org/Graphics/SVG/1.1/DTD/svg11.dtd">
<!-- Generated by graphviz version 2.43.0 (0)
 -->
<!-- Title: /home/runner/work/beluga/beluga/beluga/include/beluga/sensor Pages: 1 -->
<svg width="256pt" height="247pt"
 viewBox="0.00 0.00 256.00 247.00" xmlns="http://www.w3.org/2000/svg" xmlns:xlink="http://www.w3.org/1999/xlink">
<g id="graph0" class="graph" transform="scale(1 1) rotate(0) translate(4 243)">
<title>/home/runner/work/beluga/beluga/beluga/include/beluga/sensor</title>
<g id="clust1" class="cluster">
<title>clusterdir_1ad523cfdb7a3d7d09cddf672d6cd478</title>
<g id="a_clust1"><a xlink:href="dir_1ad523cfdb7a3d7d09cddf672d6cd478.html" target="_top" xlink:title="beluga">
<polygon fill="#ddddee" stroke="black" points="8,-8 8,-231 240,-231 240,-8 8,-8"/>
<text text-anchor="middle" x="124" y="-219" font-family="Helvetica,sans-Serif" font-size="10.00">beluga</text>
</a>
</g>
</g>
<g id="clust2" class="cluster">
<title>clusterdir_7ddb7368080dbe1879dd7372dd1df3df</title>
<g id="a_clust2"><a xlink:href="dir_7ddb7368080dbe1879dd7372dd1df3df.html" target="_top">
<polygon fill="#eeeeff" stroke="black" points="16,-80 16,-204 86,-204 86,-80 16,-80"/>
</a>
</g>
</g>
<!-- dir_634c6b228f937c8a89fa81bc2f240134 -->
<g id="node1" class="node">
<title>dir_634c6b228f937c8a89fa81bc2f240134</title>
<g id="a_node1"><a xlink:href="dir_634c6b228f937c8a89fa81bc2f240134.html" target="_top" xlink:title="algorithm">
<polygon fill="none" stroke="red" points="160,-124 96,-124 96,-88 160,-88 160,-124"/>
<text text-anchor="middle" x="128" y="-103.5" font-family="Helvetica,sans-Serif" font-size="10.00">algorithm</text>
</a>
</g>
</g>
<!-- dir_8c67632ad66eb9bf379bf849f1aad5d2 -->
<g id="node2" class="node">
<title>dir_8c67632ad66eb9bf379bf849f1aad5d2</title>
<g id="a_node2"><a xlink:href="dir_8c67632ad66eb9bf379bf849f1aad5d2.html" target="_top" xlink:title="actions">
<polygon fill="none" stroke="black" points="232,-124 178,-124 178,-88 232,-88 232,-124"/>
<text text-anchor="middle" x="205" y="-103.5" font-family="Helvetica,sans-Serif" font-size="10.00">actions</text>
</a>
</g>
</g>
<!-- dir_a695b385a3d14b7fe3275ff1f0b9cead -->
<g id="node3" class="node">
<title>dir_a695b385a3d14b7fe3275ff1f0b9cead</title>
<g id="a_node3"><a xlink:href="dir_a695b385a3d14b7fe3275ff1f0b9cead.html" target="_top" xlink:title="types">
<polygon fill="none" stroke="black" points="78,-52 24,-52 24,-16 78,-16 78,-52"/>
<text text-anchor="middle" x="51" y="-31.5" font-family="Helvetica,sans-Serif" font-size="10.00">types</text>
</a>
</g>
</g>
<!-- dir_7ddb7368080dbe1879dd7372dd1df3df -->
<g id="node4" class="node">
<title>dir_7ddb7368080dbe1879dd7372dd1df3df</title>
<text text-anchor="middle" x="51" y="-175.5" font-family="Helvetica,sans-Serif" font-size="10.00">sensor</text>
</g>
<!-- dir_7ddb7368080dbe1879dd7372dd1df3df&#45;&gt;dir_634c6b228f937c8a89fa81bc2f240134 -->
<g id="edge1" class="edge">
<title>dir_7ddb7368080dbe1879dd7372dd1df3df&#45;&gt;dir_634c6b228f937c8a89fa81bc2f240134</title>
<path fill="none" stroke="black" d="M70.03,-159.7C79.54,-151.05 91.21,-140.45 101.57,-131.03"/>
<polygon fill="black" stroke="black" points="104.14,-133.42 109.19,-124.1 99.43,-128.24 104.14,-133.42"/>
<g id="a_edge1&#45;headlabel"><a xlink:href="dir_000010_000004.html" target="_top" xlink:title="2">
<text text-anchor="middle" x="103.39" y="-135.44" font-family="Helvetica,sans-Serif" font-size="10.00">2</text>
</a>
</g>
</g>
<!-- dir_7ddb7368080dbe1879dd7372dd1df3df&#45;&gt;dir_8c67632ad66eb9bf379bf849f1aad5d2 -->
<g id="edge3" class="edge">
<title>dir_7ddb7368080dbe1879dd7372dd1df3df&#45;&gt;dir_8c67632ad66eb9bf379bf849f1aad5d2</title>
<path fill="none" stroke="black" d="M78.25,-164.94C100.34,-155.12 132.48,-140.75 168.63,-124.14"/>
<polygon fill="black" stroke="black" points="170.28,-127.23 177.9,-119.87 167.35,-120.87 170.28,-127.23"/>
<g id="a_edge3&#45;headlabel"><a xlink:href="dir_000010_000003.html" target="_top" xlink:title="1">
<text text-anchor="middle" x="168.2" y="-128.81" font-family="Helvetica,sans-Serif" font-size="10.00">1</text>
</a>
</g>
</g>
<!-- dir_876c246173b27422a95ea0c3c06ba40d -->
<g id="node5" class="node">
<title>dir_876c246173b27422a95ea0c3c06ba40d</title>
<g id="a_node5"><a xlink:href="dir_876c246173b27422a95ea0c3c06ba40d.html" target="_top" xlink:title="data">
<polygon fill="white" stroke="black" points="78,-124 24,-124 24,-88 78,-88 78,-124"/>
<text text-anchor="middle" x="51" y="-103.5" font-family="Helvetica,sans-Serif" font-size="10.00">data</text>
</a>
</g>
</g>
<!-- dir_7ddb7368080dbe1879dd7372dd1df3df&#45;&gt;dir_876c246173b27422a95ea0c3c06ba40d -->
<g id="edge2" class="edge">
<title>dir_7ddb7368080dbe1879dd7372dd1df3df&#45;&gt;dir_876c246173b27422a95ea0c3c06ba40d</title>
<path fill="none" stroke="black" d="M51,-159.7C51,-151.98 51,-142.71 51,-134.11"/>
<polygon fill="black" stroke="black" points="54.5,-134.1 51,-124.1 47.5,-134.1 54.5,-134.1"/>
<g id="a_edge2&#45;headlabel"><a xlink:href="dir_000010_000012.html" target="_top" xlink:title="2">
<text text-anchor="middle" x="57.34" y="-135.2" font-family="Helvetica,sans-Serif" font-size="10.00">2</text>
</a>
</g>
</g>
<!-- dir_876c246173b27422a95ea0c3c06ba40d&#45;&gt;dir_a695b385a3d14b7fe3275ff1f0b9cead -->
<g id="edge4" class="edge">
<title>dir_876c246173b27422a95ea0c3c06ba40d&#45;&gt;dir_a695b385a3d14b7fe3275ff1f0b9cead</title>
<path fill="none" stroke="black" d="M51,-87.7C51,-79.98 51,-70.71 51,-62.11"/>
<polygon fill="black" stroke="black" points="54.5,-62.1 51,-52.1 47.5,-62.1 54.5,-62.1"/>
<g id="a_edge4&#45;headlabel"><a xlink:href="dir_000012_000015.html" target="_top" xlink:title="1">
<text text-anchor="middle" x="57.34" y="-63.2" font-family="Helvetica,sans-Serif" font-size="10.00">1</text>
</a>
</g>
</g>
</g>
</svg>
