<?xml version="1.0" encoding="UTF-8" standalone="no"?>
<!DOCTYPE svg PUBLIC "-//W3C//DTD SVG 1.1//EN"
 "http://www.w3.org/Graphics/SVG/1.1/DTD/svg11.dtd">
<!-- Generated by graphviz version 2.43.0 (0)
 -->
<!-- Title: /home/runner/work/beluga/beluga/beluga/include/beluga Pages: 1 -->
<svg width="348pt" height="471pt"
 viewBox="0.00 0.00 348.00 471.00" xmlns="http://www.w3.org/2000/svg" xmlns:xlink="http://www.w3.org/1999/xlink">
<g id="graph0" class="graph" transform="scale(1 1) rotate(0) translate(4 467)">
<title>/home/runner/work/beluga/beluga/beluga/include/beluga</title>
<g id="clust1" class="cluster">
<title>clusterdir_d44c64559bbebec7f509842c48db8b23</title>
<g id="a_clust1"><a xlink:href="dir_d44c64559bbebec7f509842c48db8b23.html" target="_top" xlink:title="include">
<polygon fill="#ddddee" stroke="black" points="8,-8 8,-455 332,-455 332,-8 8,-8"/>
<text text-anchor="middle" x="170" y="-443" font-family="Helvetica,sans-Serif" font-size="10.00">include</text>
</a>
</g>
</g>
<g id="clust2" class="cluster">
<title>clusterdir_1ad523cfdb7a3d7d09cddf672d6cd478</title>
<g id="a_clust2"><a xlink:href="dir_1ad523cfdb7a3d7d09cddf672d6cd478.html" target="_top">
<polygon fill="#eeeeff" stroke="black" points="16,-16 16,-428 324,-428 324,-16 16,-16"/>
</a>
</g>
</g>
<!-- dir_1ad523cfdb7a3d7d09cddf672d6cd478 -->
<g id="node1" class="node">
<title>dir_1ad523cfdb7a3d7d09cddf672d6cd478</title>
<text text-anchor="middle" x="151" y="-399.5" font-family="Helvetica,sans-Serif" font-size="10.00">beluga</text>
</g>
<!-- dir_8c67632ad66eb9bf379bf849f1aad5d2 -->
<g id="node2" class="node">
<title>dir_8c67632ad66eb9bf379bf849f1aad5d2</title>
<g id="a_node2"><a xlink:href="dir_8c67632ad66eb9bf379bf849f1aad5d2.html" target="_top" xlink:title="actions">
<polygon fill="white" stroke="black" points="90,-204 36,-204 36,-168 90,-168 90,-204"/>
<text text-anchor="middle" x="63" y="-183.5" font-family="Helvetica,sans-Serif" font-size="10.00">actions</text>
</a>
</g>
</g>
<!-- dir_1ad523cfdb7a3d7d09cddf672d6cd478&#45;&gt;dir_8c67632ad66eb9bf379bf849f1aad5d2 -->
<g id="edge14" class="edge">
<title>dir_1ad523cfdb7a3d7d09cddf672d6cd478&#45;&gt;dir_8c67632ad66eb9bf379bf849f1aad5d2</title>
<path fill="none" stroke="black" d="M123.96,-390.44C91.33,-377.43 40.18,-356.06 35,-348 9.05,-307.62 23.45,-286.59 35,-240 37.29,-230.75 41.53,-221.34 46.02,-213.07"/>
<polygon fill="black" stroke="black" points="49.13,-214.68 51.11,-204.28 43.07,-211.17 49.13,-214.68"/>
<g id="a_edge14&#45;headlabel"><a xlink:href="dir_000002_000003.html" target="_top" xlink:title="4">
<text text-anchor="middle" x="49.78" y="-216.72" font-family="Helvetica,sans-Serif" font-size="10.00">4</text>
</a>
</g>
</g>
<!-- dir_3245ff25b92019e7f89fc2115bc7867e -->
<g id="node4" class="node">
<title>dir_3245ff25b92019e7f89fc2115bc7867e</title>
<g id="a_node4"><a xlink:href="dir_3245ff25b92019e7f89fc2115bc7867e.html" target="_top" xlink:title="containers">
<polygon fill="white" stroke="black" points="112,-348 44,-348 44,-312 112,-312 112,-348"/>
<text text-anchor="middle" x="78" y="-327.5" font-family="Helvetica,sans-Serif" font-size="10.00">containers</text>
</a>
</g>
</g>
<!-- dir_1ad523cfdb7a3d7d09cddf672d6cd478&#45;&gt;dir_3245ff25b92019e7f89fc2115bc7867e -->
<g id="edge12" class="edge">
<title>dir_1ad523cfdb7a3d7d09cddf672d6cd478&#45;&gt;dir_3245ff25b92019e7f89fc2115bc7867e</title>
<path fill="none" stroke="black" d="M132.96,-383.7C123.94,-375.05 112.88,-364.45 103.06,-355.03"/>
<polygon fill="black" stroke="black" points="105.48,-352.5 95.84,-348.1 100.63,-357.55 105.48,-352.5"/>
<g id="a_edge12&#45;headlabel"><a xlink:href="dir_000002_000006.html" target="_top" xlink:title="2">
<text text-anchor="middle" x="110.04" y="-350.44" font-family="Helvetica,sans-Serif" font-size="10.00">2</text>
</a>
</g>
</g>
<!-- dir_a3553bb43d48af21167f3919d16bc6f3 -->
<g id="node6" class="node">
<title>dir_a3553bb43d48af21167f3919d16bc6f3</title>
<g id="a_node6"><a xlink:href="dir_a3553bb43d48af21167f3919d16bc6f3.html" target="_top" xlink:title="motion">
<polygon fill="white" stroke="black" points="235,-132 181,-132 181,-96 235,-96 235,-132"/>
<text text-anchor="middle" x="208" y="-111.5" font-family="Helvetica,sans-Serif" font-size="10.00">motion</text>
</a>
</g>
</g>
<!-- dir_1ad523cfdb7a3d7d09cddf672d6cd478&#45;&gt;dir_a3553bb43d48af21167f3919d16bc6f3 -->
<g id="edge16" class="edge">
<title>dir_1ad523cfdb7a3d7d09cddf672d6cd478&#45;&gt;dir_a3553bb43d48af21167f3919d16bc6f3</title>
<path fill="none" stroke="black" d="M149.56,-383.96C148.71,-365.3 149.56,-334.96 161,-312 171.37,-291.18 189.21,-297.11 199,-276 219.08,-232.69 216.4,-175.63 212.37,-142.36"/>
<polygon fill="black" stroke="black" points="215.84,-141.89 211.05,-132.45 208.9,-142.82 215.84,-141.89"/>
<g id="a_edge16&#45;headlabel"><a xlink:href="dir_000002_000008.html" target="_top" xlink:title="3">
<text text-anchor="middle" x="219.13" y="-142.58" font-family="Helvetica,sans-Serif" font-size="10.00">3</text>
</a>
</g>
</g>
<!-- dir_0ee0838bbed77bc71495b9458bcc4b6b -->
<g id="node7" class="node">
<title>dir_0ee0838bbed77bc71495b9458bcc4b6b</title>
<g id="a_node7"><a xlink:href="dir_0ee0838bbed77bc71495b9458bcc4b6b.html" target="_top" xlink:title="policies">
<polygon fill="white" stroke="black" points="190,-276 136,-276 136,-240 190,-240 190,-276"/>
<text text-anchor="middle" x="163" y="-255.5" font-family="Helvetica,sans-Serif" font-size="10.00">policies</text>
</a>
</g>
</g>
<!-- dir_1ad523cfdb7a3d7d09cddf672d6cd478&#45;&gt;dir_0ee0838bbed77bc71495b9458bcc4b6b -->
<g id="edge11" class="edge">
<title>dir_1ad523cfdb7a3d7d09cddf672d6cd478&#45;&gt;dir_0ee0838bbed77bc71495b9458bcc4b6b</title>
<path fill="none" stroke="black" d="M147.91,-383.83C145.16,-365.83 142.12,-336.77 146,-312 147.36,-303.31 149.9,-294.1 152.61,-285.84"/>
<polygon fill="black" stroke="black" points="155.94,-286.93 155.93,-276.33 149.33,-284.62 155.94,-286.93"/>
<g id="a_edge11&#45;headlabel"><a xlink:href="dir_000002_000009.html" target="_top" xlink:title="3">
<text text-anchor="middle" x="157.43" y="-288.76" font-family="Helvetica,sans-Serif" font-size="10.00">3</text>
</a>
</g>
</g>
<!-- dir_c03a81e29d2f9f088aa073fa974eabbc -->
<g id="node8" class="node">
<title>dir_c03a81e29d2f9f088aa073fa974eabbc</title>
<g id="a_node8"><a xlink:href="dir_c03a81e29d2f9f088aa073fa974eabbc.html" target="_top" xlink:title="random">
<polygon fill="white" stroke="black" points="224,-348 170,-348 170,-312 224,-312 224,-348"/>
<text text-anchor="middle" x="197" y="-327.5" font-family="Helvetica,sans-Serif" font-size="10.00">random</text>
</a>
</g>
</g>
<!-- dir_1ad523cfdb7a3d7d09cddf672d6cd478&#45;&gt;dir_c03a81e29d2f9f088aa073fa974eabbc -->
<g id="edge17" class="edge">
<title>dir_1ad523cfdb7a3d7d09cddf672d6cd478&#45;&gt;dir_c03a81e29d2f9f088aa073fa974eabbc</title>
<path fill="none" stroke="black" d="M162.37,-383.7C167.72,-375.56 174.2,-365.69 180.11,-356.7"/>
<polygon fill="black" stroke="black" points="183.19,-358.38 185.76,-348.1 177.34,-354.54 183.19,-358.38"/>
<g id="a_edge17&#45;headlabel"><a xlink:href="dir_000002_000010.html" target="_top" xlink:title="2">
<text text-anchor="middle" x="183.59" y="-360.45" font-family="Helvetica,sans-Serif" font-size="10.00">2</text>
</a>
</g>
</g>
<!-- dir_7ddb7368080dbe1879dd7372dd1df3df -->
<g id="node9" class="node">
<title>dir_7ddb7368080dbe1879dd7372dd1df3df</title>
<g id="a_node9"><a xlink:href="dir_7ddb7368080dbe1879dd7372dd1df3df.html" target="_top" xlink:title="sensor">
<polygon fill="white" stroke="red" points="282,-276 228,-276 228,-240 282,-240 282,-276"/>
<text text-anchor="middle" x="255" y="-255.5" font-family="Helvetica,sans-Serif" font-size="10.00">sensor</text>
</a>
</g>
</g>
<!-- dir_1ad523cfdb7a3d7d09cddf672d6cd478&#45;&gt;dir_7ddb7368080dbe1879dd7372dd1df3df -->
<g id="edge13" class="edge">
<title>dir_1ad523cfdb7a3d7d09cddf672d6cd478&#45;&gt;dir_7ddb7368080dbe1879dd7372dd1df3df</title>
<path fill="none" stroke="black" d="M178.15,-389.93C196.32,-381.16 219.32,-367.18 233,-348 245.89,-329.94 251.26,-305.15 253.49,-286.32"/>
<polygon fill="black" stroke="black" points="256.98,-286.58 254.44,-276.29 250.01,-285.91 256.98,-286.58"/>
<g id="a_edge13&#45;headlabel"><a xlink:href="dir_000002_000011.html" target="_top" xlink:title="8">
<text text-anchor="middle" x="259.46" y="-287.93" font-family="Helvetica,sans-Serif" font-size="10.00">8</text>
</a>
</g>
</g>
<!-- dir_8cfff6e4809896f1b09096e04b4d983e -->
<g id="node10" class="node">
<title>dir_8cfff6e4809896f1b09096e04b4d983e</title>
<g id="a_node10"><a xlink:href="dir_8cfff6e4809896f1b09096e04b4d983e.html" target="_top" xlink:title="testing">
<polygon fill="white" stroke="black" points="316,-348 262,-348 262,-312 316,-312 316,-348"/>
<text text-anchor="middle" x="289" y="-327.5" font-family="Helvetica,sans-Serif" font-size="10.00">testing</text>
</a>
</g>
</g>
<!-- dir_1ad523cfdb7a3d7d09cddf672d6cd478&#45;&gt;dir_8cfff6e4809896f1b09096e04b4d983e -->
<g id="edge15" class="edge">
<title>dir_1ad523cfdb7a3d7d09cddf672d6cd478&#45;&gt;dir_8cfff6e4809896f1b09096e04b4d983e</title>
<path fill="none" stroke="black" d="M178.26,-387.17C199.53,-376.38 229.26,-361.3 252.57,-349.48"/>
<polygon fill="black" stroke="black" points="254.46,-352.45 261.79,-344.8 251.29,-346.2 254.46,-352.45"/>
<g id="a_edge15&#45;headlabel"><a xlink:href="dir_000002_000013.html" target="_top" xlink:title="2">
<text text-anchor="middle" x="252.54" y="-354.1" font-family="Helvetica,sans-Serif" font-size="10.00">2</text>
</a>
</g>
</g>
<!-- dir_6311cd7a9afaa93eeee404de83766793 -->
<g id="node11" class="node">
<title>dir_6311cd7a9afaa93eeee404de83766793</title>
<g id="a_node11"><a xlink:href="dir_6311cd7a9afaa93eeee404de83766793.html" target="_top" xlink:title="type_traits">
<polygon fill="white" stroke="black" points="168.5,-60 99.5,-60 99.5,-24 168.5,-24 168.5,-60"/>
<text text-anchor="middle" x="134" y="-39.5" font-family="Helvetica,sans-Serif" font-size="10.00">type_traits</text>
</a>
</g>
</g>
<!-- dir_8c67632ad66eb9bf379bf849f1aad5d2&#45;&gt;dir_6311cd7a9afaa93eeee404de83766793 -->
<g id="edge9" class="edge">
<title>dir_8c67632ad66eb9bf379bf849f1aad5d2&#45;&gt;dir_6311cd7a9afaa93eeee404de83766793</title>
<path fill="none" stroke="black" d="M61.64,-167.87C60.91,-149.13 62.02,-118.72 74,-96 79.92,-84.76 89.27,-74.79 98.83,-66.62"/>
<polygon fill="black" stroke="black" points="101.24,-69.17 106.85,-60.18 96.86,-63.71 101.24,-69.17"/>
<g id="a_edge9&#45;headlabel"><a xlink:href="dir_000003_000014.html" target="_top" xlink:title="3">
<text text-anchor="middle" x="100.21" y="-71.14" font-family="Helvetica,sans-Serif" font-size="10.00">3</text>
</a>
</g>
</g>
<!-- dir_0ae0216c5b903435324487dd13dfdff9 -->
<g id="node14" class="node">
<title>dir_0ae0216c5b903435324487dd13dfdff9</title>
<g id="a_node14"><a xlink:href="dir_0ae0216c5b903435324487dd13dfdff9.html" target="_top" xlink:title="views">
<polygon fill="white" stroke="black" points="137,-132 83,-132 83,-96 137,-96 137,-132"/>
<text text-anchor="middle" x="110" y="-111.5" font-family="Helvetica,sans-Serif" font-size="10.00">views</text>
</a>
</g>
</g>
<!-- dir_8c67632ad66eb9bf379bf849f1aad5d2&#45;&gt;dir_0ae0216c5b903435324487dd13dfdff9 -->
<g id="edge8" class="edge">
<title>dir_8c67632ad66eb9bf379bf849f1aad5d2&#45;&gt;dir_0ae0216c5b903435324487dd13dfdff9</title>
<path fill="none" stroke="black" d="M74.62,-167.7C80.14,-159.47 86.85,-149.48 92.93,-140.42"/>
<polygon fill="black" stroke="black" points="95.85,-142.36 98.52,-132.1 90.04,-138.46 95.85,-142.36"/>
<g id="a_edge8&#45;headlabel"><a xlink:href="dir_000003_000017.html" target="_top" xlink:title="3">
<text text-anchor="middle" x="96.2" y="-144.42" font-family="Helvetica,sans-Serif" font-size="10.00">3</text>
</a>
</g>
</g>
<!-- dir_634c6b228f937c8a89fa81bc2f240134 -->
<g id="node3" class="node">
<title>dir_634c6b228f937c8a89fa81bc2f240134</title>
<g id="a_node3"><a xlink:href="dir_634c6b228f937c8a89fa81bc2f240134.html" target="_top" xlink:title="algorithm">
<polygon fill="white" stroke="red" points="192,-204 128,-204 128,-168 192,-168 192,-204"/>
<text text-anchor="middle" x="160" y="-183.5" font-family="Helvetica,sans-Serif" font-size="10.00">algorithm</text>
</a>
</g>
</g>
<!-- dir_634c6b228f937c8a89fa81bc2f240134&#45;&gt;dir_6311cd7a9afaa93eeee404de83766793 -->
<g id="edge7" class="edge">
<title>dir_634c6b228f937c8a89fa81bc2f240134&#45;&gt;dir_6311cd7a9afaa93eeee404de83766793</title>
<path fill="none" stroke="black" d="M157.65,-167.88C155.11,-149.92 150.77,-120.89 146,-96 144.38,-87.53 142.38,-78.35 140.49,-70.05"/>
<polygon fill="black" stroke="black" points="143.86,-69.07 138.18,-60.13 137.04,-70.66 143.86,-69.07"/>
<g id="a_edge7&#45;headlabel"><a xlink:href="dir_000004_000014.html" target="_top" xlink:title="2">
<text text-anchor="middle" x="147.44" y="-69.43" font-family="Helvetica,sans-Serif" font-size="10.00">2</text>
</a>
</g>
</g>
<!-- dir_634c6b228f937c8a89fa81bc2f240134&#45;&gt;dir_0ae0216c5b903435324487dd13dfdff9 -->
<g id="edge6" class="edge">
<title>dir_634c6b228f937c8a89fa81bc2f240134&#45;&gt;dir_0ae0216c5b903435324487dd13dfdff9</title>
<path fill="none" stroke="black" d="M147.64,-167.7C141.77,-159.47 134.63,-149.48 128.16,-140.42"/>
<polygon fill="black" stroke="black" points="130.88,-138.21 122.22,-132.1 125.18,-142.28 130.88,-138.21"/>
<g id="a_edge6&#45;headlabel"><a xlink:href="dir_000004_000017.html" target="_top" xlink:title="2">
<text text-anchor="middle" x="135.28" y="-136.98" font-family="Helvetica,sans-Serif" font-size="10.00">2</text>
</a>
</g>
</g>
<!-- dir_500caef060b471cfdd05b62a42e3142c -->
<g id="node13" class="node">
<title>dir_500caef060b471cfdd05b62a42e3142c</title>
<g id="a_node13"><a xlink:href="dir_500caef060b471cfdd05b62a42e3142c.html" target="_top" xlink:title="utility">
<polygon fill="white" stroke="black" points="98,-276 44,-276 44,-240 98,-240 98,-276"/>
<text text-anchor="middle" x="71" y="-255.5" font-family="Helvetica,sans-Serif" font-size="10.00">utility</text>
</a>
</g>
</g>
<!-- dir_3245ff25b92019e7f89fc2115bc7867e&#45;&gt;dir_500caef060b471cfdd05b62a42e3142c -->
<g id="edge5" class="edge">
<title>dir_3245ff25b92019e7f89fc2115bc7867e&#45;&gt;dir_500caef060b471cfdd05b62a42e3142c</title>
<path fill="none" stroke="black" d="M76.27,-311.7C75.5,-303.98 74.57,-294.71 73.71,-286.11"/>
<polygon fill="black" stroke="black" points="77.19,-285.71 72.71,-276.1 70.22,-286.4 77.19,-285.71"/>
<g id="a_edge5&#45;headlabel"><a xlink:href="dir_000006_000016.html" target="_top" xlink:title="1">
<text text-anchor="middle" x="80.37" y="-286.5" font-family="Helvetica,sans-Serif" font-size="10.00">1</text>
</a>
</g>
</g>
<!-- dir_3245ff25b92019e7f89fc2115bc7867e&#45;&gt;dir_0ae0216c5b903435324487dd13dfdff9 -->
<g id="edge4" class="edge">
<title>dir_3245ff25b92019e7f89fc2115bc7867e&#45;&gt;dir_0ae0216c5b903435324487dd13dfdff9</title>
<path fill="none" stroke="black" d="M90.21,-311.76C96.53,-301.81 103.61,-288.77 107,-276 119.12,-230.36 116.55,-174.86 113.4,-142.38"/>
<polygon fill="black" stroke="black" points="116.87,-141.87 112.33,-132.29 109.91,-142.61 116.87,-141.87"/>
<g id="a_edge4&#45;headlabel"><a xlink:href="dir_000006_000017.html" target="_top" xlink:title="1">
<text text-anchor="middle" x="120.07" y="-142.64" font-family="Helvetica,sans-Serif" font-size="10.00">1</text>
</a>
</g>
</g>
<!-- dir_b61f5b26177d4f0e7f42e2895ffd1c30 -->
<g id="node5" class="node">
<title>dir_b61f5b26177d4f0e7f42e2895ffd1c30</title>
<g id="a_node5"><a xlink:href="dir_b61f5b26177d4f0e7f42e2895ffd1c30.html" target="_top" xlink:title="detail">
<polygon fill="white" stroke="black" points="92,-420 38,-420 38,-384 92,-384 92,-420"/>
<text text-anchor="middle" x="65" y="-399.5" font-family="Helvetica,sans-Serif" font-size="10.00">detail</text>
</a>
</g>
</g>
<!-- dir_a3553bb43d48af21167f3919d16bc6f3&#45;&gt;dir_6311cd7a9afaa93eeee404de83766793 -->
<g id="edge10" class="edge">
<title>dir_a3553bb43d48af21167f3919d16bc6f3&#45;&gt;dir_6311cd7a9afaa93eeee404de83766793</title>
<path fill="none" stroke="black" d="M189.71,-95.7C180.57,-87.05 169.36,-76.45 159.4,-67.03"/>
<polygon fill="black" stroke="black" points="161.75,-64.43 152.08,-60.1 156.94,-69.52 161.75,-64.43"/>
<g id="a_edge10&#45;headlabel"><a xlink:href="dir_000008_000014.html" target="_top" xlink:title="3">
<text text-anchor="middle" x="166.31" y="-62.34" font-family="Helvetica,sans-Serif" font-size="10.00">3</text>
</a>
</g>
</g>
<!-- dir_0ee0838bbed77bc71495b9458bcc4b6b&#45;&gt;dir_634c6b228f937c8a89fa81bc2f240134 -->
<g id="edge19" class="edge">
<title>dir_0ee0838bbed77bc71495b9458bcc4b6b&#45;&gt;dir_634c6b228f937c8a89fa81bc2f240134</title>
<path fill="none" stroke="black" d="M162.26,-239.7C161.93,-231.98 161.53,-222.71 161.16,-214.11"/>
<polygon fill="black" stroke="black" points="164.66,-213.95 160.73,-204.1 157.66,-214.25 164.66,-213.95"/>
<g id="a_edge19&#45;headlabel"><a xlink:href="dir_000009_000004.html" target="_top" xlink:title="1">
<text text-anchor="middle" x="167.65" y="-214.92" font-family="Helvetica,sans-Serif" font-size="10.00">1</text>
</a>
</g>
</g>
<!-- dir_c03a81e29d2f9f088aa073fa974eabbc&#45;&gt;dir_7ddb7368080dbe1879dd7372dd1df3df -->
<g id="edge1" class="edge">
<title>dir_c03a81e29d2f9f088aa073fa974eabbc&#45;&gt;dir_7ddb7368080dbe1879dd7372dd1df3df</title>
<path fill="none" stroke="black" d="M211.34,-311.7C218.29,-303.3 226.77,-293.07 234.4,-283.86"/>
<polygon fill="black" stroke="black" points="237.14,-286.04 240.83,-276.1 231.75,-281.57 237.14,-286.04"/>
<g id="a_edge1&#45;headlabel"><a xlink:href="dir_000010_000011.html" target="_top" xlink:title="1">
<text text-anchor="middle" x="237.04" y="-288.12" font-family="Helvetica,sans-Serif" font-size="10.00">1</text>
</a>
</g>
</g>
<!-- dir_7ddb7368080dbe1879dd7372dd1df3df&#45;&gt;dir_634c6b228f937c8a89fa81bc2f240134 -->
<g id="edge2" class="edge">
<title>dir_7ddb7368080dbe1879dd7372dd1df3df&#45;&gt;dir_634c6b228f937c8a89fa81bc2f240134</title>
<path fill="none" stroke="black" d="M231.52,-239.7C219.44,-230.8 204.55,-219.82 191.48,-210.2"/>
<polygon fill="black" stroke="black" points="193.34,-207.22 183.21,-204.1 189.19,-212.85 193.34,-207.22"/>
<g id="a_edge2&#45;headlabel"><a xlink:href="dir_000011_000004.html" target="_top" xlink:title="2">
<text text-anchor="middle" x="197.92" y="-204.57" font-family="Helvetica,sans-Serif" font-size="10.00">2</text>
</a>
</g>
</g>
<!-- dir_a695b385a3d14b7fe3275ff1f0b9cead -->
<g id="node12" class="node">
<title>dir_a695b385a3d14b7fe3275ff1f0b9cead</title>
<g id="a_node12"><a xlink:href="dir_a695b385a3d14b7fe3275ff1f0b9cead.html" target="_top" xlink:title="types">
<polygon fill="white" stroke="black" points="284,-204 230,-204 230,-168 284,-168 284,-204"/>
<text text-anchor="middle" x="257" y="-183.5" font-family="Helvetica,sans-Serif" font-size="10.00">types</text>
</a>
</g>
</g>
<!-- dir_7ddb7368080dbe1879dd7372dd1df3df&#45;&gt;dir_a695b385a3d14b7fe3275ff1f0b9cead -->
<g id="edge3" class="edge">
<title>dir_7ddb7368080dbe1879dd7372dd1df3df&#45;&gt;dir_a695b385a3d14b7fe3275ff1f0b9cead</title>
<path fill="none" stroke="black" d="M255.49,-239.7C255.71,-231.98 255.98,-222.71 256.23,-214.11"/>
<polygon fill="black" stroke="black" points="259.72,-214.2 256.51,-204.1 252.73,-214 259.72,-214.2"/>
<g id="a_edge3&#45;headlabel"><a xlink:href="dir_000011_000015.html" target="_top" xlink:title="3">
<text text-anchor="middle" x="262.46" y="-215.37" font-family="Helvetica,sans-Serif" font-size="10.00">3</text>
</a>
</g>
</g>
<!-- dir_0ae0216c5b903435324487dd13dfdff9&#45;&gt;dir_6311cd7a9afaa93eeee404de83766793 -->
<g id="edge18" class="edge">
<title>dir_0ae0216c5b903435324487dd13dfdff9&#45;&gt;dir_6311cd7a9afaa93eeee404de83766793</title>
<path fill="none" stroke="black" d="M115.93,-95.7C118.61,-87.9 121.83,-78.51 124.8,-69.83"/>
<polygon fill="black" stroke="black" points="128.2,-70.7 128.14,-60.1 121.58,-68.43 128.2,-70.7"/>
<g id="a_edge18&#45;headlabel"><a xlink:href="dir_000017_000014.html" target="_top" xlink:title="2">
<text text-anchor="middle" x="129.72" y="-72.52" font-family="Helvetica,sans-Serif" font-size="10.00">2</text>
</a>
</g>
</g>
</g>
</svg>
