<?xml version="1.0" encoding="UTF-8" standalone="no"?>
<!DOCTYPE svg PUBLIC "-//W3C//DTD SVG 1.1//EN"
 "http://www.w3.org/Graphics/SVG/1.1/DTD/svg11.dtd">
<!-- Generated by graphviz version 2.43.0 (0)
 -->
<!-- Title: /home/runner/work/beluga/beluga/beluga/include/beluga/algorithm Pages: 1 -->
<svg width="208pt" height="247pt"
 viewBox="0.00 0.00 208.00 247.00" xmlns="http://www.w3.org/2000/svg" xmlns:xlink="http://www.w3.org/1999/xlink">
<g id="graph0" class="graph" transform="scale(1 1) rotate(0) translate(4 243)">
<title>/home/runner/work/beluga/beluga/beluga/include/beluga/algorithm</title>
<g id="clust1" class="cluster">
<title>clusterdir_1ad523cfdb7a3d7d09cddf672d6cd478</title>
<g id="a_clust1"><a xlink:href="dir_1ad523cfdb7a3d7d09cddf672d6cd478.html" target="_top" xlink:title="beluga">
<polygon fill="#ddddee" stroke="black" points="8,-8 8,-231 192,-231 192,-8 8,-8"/>
<text text-anchor="middle" x="100" y="-219" font-family="Helvetica,sans-Serif" font-size="10.00">beluga</text>
</a>
</g>
</g>
<g id="clust2" class="cluster">
<title>clusterdir_634c6b228f937c8a89fa81bc2f240134</title>
<g id="a_clust2"><a xlink:href="dir_634c6b228f937c8a89fa81bc2f240134.html" target="_top">
<polygon fill="#eeeeff" stroke="black" points="16,-80 16,-204 100,-204 100,-80 16,-80"/>
</a>
</g>
</g>
<!-- dir_0ae0216c5b903435324487dd13dfdff9 -->
<g id="node1" class="node">
<title>dir_0ae0216c5b903435324487dd13dfdff9</title>
<g id="a_node1"><a xlink:href="dir_0ae0216c5b903435324487dd13dfdff9.html" target="_top" xlink:title="views">
<polygon fill="none" stroke="black" points="164,-124 110,-124 110,-88 164,-88 164,-124"/>
<text text-anchor="middle" x="137" y="-103.5" font-family="Helvetica,sans-Serif" font-size="10.00">views</text>
</a>
</g>
</g>
<!-- dir_6311cd7a9afaa93eeee404de83766793 -->
<g id="node2" class="node">
<title>dir_6311cd7a9afaa93eeee404de83766793</title>
<g id="a_node2"><a xlink:href="dir_6311cd7a9afaa93eeee404de83766793.html" target="_top" xlink:title="type_traits">
<polygon fill="none" stroke="black" points="177.5,-52 108.5,-52 108.5,-16 177.5,-16 177.5,-52"/>
<text text-anchor="middle" x="143" y="-31.5" font-family="Helvetica,sans-Serif" font-size="10.00">type_traits</text>
</a>
</g>
</g>
<!-- dir_0ae0216c5b903435324487dd13dfdff9&#45;&gt;dir_6311cd7a9afaa93eeee404de83766793 -->
<g id="edge4" class="edge">
<title>dir_0ae0216c5b903435324487dd13dfdff9&#45;&gt;dir_6311cd7a9afaa93eeee404de83766793</title>
<path fill="none" stroke="black" d="M138.48,-87.7C139.14,-79.98 139.94,-70.71 140.68,-62.11"/>
<polygon fill="black" stroke="black" points="144.17,-62.37 141.53,-52.1 137.19,-61.77 144.17,-62.37"/>
<g id="a_edge4&#45;headlabel"><a xlink:href="dir_000017_000014.html" target="_top" xlink:title="2">
<text text-anchor="middle" x="146.69" y="-63.69" font-family="Helvetica,sans-Serif" font-size="10.00">2</text>
</a>
</g>
</g>
<!-- dir_634c6b228f937c8a89fa81bc2f240134 -->
<g id="node3" class="node">
<title>dir_634c6b228f937c8a89fa81bc2f240134</title>
<text text-anchor="middle" x="60" y="-175.5" font-family="Helvetica,sans-Serif" font-size="10.00">algorithm</text>
</g>
<!-- dir_634c6b228f937c8a89fa81bc2f240134&#45;&gt;dir_0ae0216c5b903435324487dd13dfdff9 -->
<g id="edge1" class="edge">
<title>dir_634c6b228f937c8a89fa81bc2f240134&#45;&gt;dir_0ae0216c5b903435324487dd13dfdff9</title>
<path fill="none" stroke="black" d="M79.03,-159.7C88.54,-151.05 100.21,-140.45 110.57,-131.03"/>
<polygon fill="black" stroke="black" points="113.14,-133.42 118.19,-124.1 108.43,-128.24 113.14,-133.42"/>
<g id="a_edge1&#45;headlabel"><a xlink:href="dir_000004_000017.html" target="_top" xlink:title="2">
<text text-anchor="middle" x="112.39" y="-135.44" font-family="Helvetica,sans-Serif" font-size="10.00">2</text>
</a>
</g>
</g>
<!-- dir_634c6b228f937c8a89fa81bc2f240134&#45;&gt;dir_6311cd7a9afaa93eeee404de83766793 -->
<g id="edge2" class="edge">
<title>dir_634c6b228f937c8a89fa81bc2f240134&#45;&gt;dir_6311cd7a9afaa93eeee404de83766793</title>
<path fill="none" stroke="black" d="M92.05,-171.63C118.81,-165.27 155.33,-151.8 173,-124 185.46,-104.4 174.76,-79.06 162.83,-60.43"/>
<polygon fill="black" stroke="black" points="165.68,-58.41 157.15,-52.13 159.91,-62.36 165.68,-58.41"/>
<g id="a_edge2&#45;headlabel"><a xlink:href="dir_000004_000014.html" target="_top" xlink:title="2">
<text text-anchor="middle" x="170.06" y="-57.27" font-family="Helvetica,sans-Serif" font-size="10.00">2</text>
</a>
</g>
</g>
<!-- dir_fb5de34e8dcc24e05691267f91b0587f -->
<g id="node4" class="node">
<title>dir_fb5de34e8dcc24e05691267f91b0587f</title>
<g id="a_node4"><a xlink:href="dir_fb5de34e8dcc24e05691267f91b0587f.html" target="_top" xlink:title="raycasting">
<polygon fill="white" stroke="black" points="92,-124 24,-124 24,-88 92,-88 92,-124"/>
<text text-anchor="middle" x="58" y="-103.5" font-family="Helvetica,sans-Serif" font-size="10.00">raycasting</text>
</a>
</g>
</g>
<!-- dir_634c6b228f937c8a89fa81bc2f240134&#45;&gt;dir_fb5de34e8dcc24e05691267f91b0587f -->
<g id="edge3" class="edge">
<title>dir_634c6b228f937c8a89fa81bc2f240134&#45;&gt;dir_fb5de34e8dcc24e05691267f91b0587f</title>
<path fill="none" stroke="black" d="M59.51,-159.7C59.29,-151.98 59.02,-142.71 58.77,-134.11"/>
<polygon fill="black" stroke="black" points="62.27,-134 58.49,-124.1 55.28,-134.2 62.27,-134"/>
<g id="a_edge3&#45;headlabel"><a xlink:href="dir_000004_000005.html" target="_top" xlink:title="1">
<text text-anchor="middle" x="65.21" y="-135.01" font-family="Helvetica,sans-Serif" font-size="10.00">1</text>
</a>
</g>
</g>
</g>
</svg>
