<?xml version="1.0" encoding="UTF-8" standalone="no"?>
<!DOCTYPE svg PUBLIC "-//W3C//DTD SVG 1.1//EN"
 "http://www.w3.org/Graphics/SVG/1.1/DTD/svg11.dtd">
<!-- Generated by graphviz version 2.43.0 (0)
 -->
<!-- Title: /home/runner/work/beluga/beluga/beluga/include/beluga/actions Pages: 1 -->
<svg width="114pt" height="239pt"
 viewBox="0.00 0.00 114.00 239.00" xmlns="http://www.w3.org/2000/svg" xmlns:xlink="http://www.w3.org/1999/xlink">
<g id="graph0" class="graph" transform="scale(1 1) rotate(0) translate(4 235)">
<title>/home/runner/work/beluga/beluga/beluga/include/beluga/actions</title>
<g id="clust1" class="cluster">
<title>clusterdir_1ad523cfdb7a3d7d09cddf672d6cd478</title>
<g id="a_clust1"><a xlink:href="dir_1ad523cfdb7a3d7d09cddf672d6cd478.html" target="_top" xlink:title="beluga">
<polygon fill="#ddddee" stroke="black" points="8,-8 8,-223 98,-223 98,-8 8,-8"/>
<text text-anchor="middle" x="53" y="-211" font-family="Helvetica,sans-Serif" font-size="10.00">beluga</text>
</a>
</g>
</g>
<!-- dir_0ae0216c5b903435324487dd13dfdff9 -->
<g id="node1" class="node">
<title>dir_0ae0216c5b903435324487dd13dfdff9</title>
<g id="a_node1"><a xlink:href="dir_0ae0216c5b903435324487dd13dfdff9.html" target="_top" xlink:title="views">
<polygon fill="none" stroke="black" points="70,-124 16,-124 16,-88 70,-88 70,-124"/>
<text text-anchor="middle" x="43" y="-103.5" font-family="Helvetica,sans-Serif" font-size="10.00">views</text>
</a>
</g>
</g>
<!-- dir_6311cd7a9afaa93eeee404de83766793 -->
<g id="node2" class="node">
<title>dir_6311cd7a9afaa93eeee404de83766793</title>
<g id="a_node2"><a xlink:href="dir_6311cd7a9afaa93eeee404de83766793.html" target="_top" xlink:title="type_traits">
<polygon fill="none" stroke="black" points="87.5,-52 18.5,-52 18.5,-16 87.5,-16 87.5,-52"/>
<text text-anchor="middle" x="53" y="-31.5" font-family="Helvetica,sans-Serif" font-size="10.00">type_traits</text>
</a>
</g>
</g>
<!-- dir_0ae0216c5b903435324487dd13dfdff9&#45;&gt;dir_6311cd7a9afaa93eeee404de83766793 -->
<g id="edge3" class="edge">
<title>dir_0ae0216c5b903435324487dd13dfdff9&#45;&gt;dir_6311cd7a9afaa93eeee404de83766793</title>
<path fill="none" stroke="black" d="M45.47,-87.7C46.57,-79.98 47.9,-70.71 49.13,-62.11"/>
<polygon fill="black" stroke="black" points="52.61,-62.5 50.56,-52.1 45.68,-61.51 52.61,-62.5"/>
<g id="a_edge3&#45;headlabel"><a xlink:href="dir_000018_000015.html" target="_top" xlink:title="2">
<text text-anchor="middle" x="54.91" y="-63.96" font-family="Helvetica,sans-Serif" font-size="10.00">2</text>
</a>
</g>
</g>
<!-- dir_8c67632ad66eb9bf379bf849f1aad5d2 -->
<g id="node3" class="node">
<title>dir_8c67632ad66eb9bf379bf849f1aad5d2</title>
<g id="a_node3"><a xlink:href="dir_8c67632ad66eb9bf379bf849f1aad5d2.html" target="_top" xlink:title="actions">
<polygon fill="#eeeeff" stroke="black" points="80,-196 26,-196 26,-160 80,-160 80,-196"/>
<text text-anchor="middle" x="53" y="-175.5" font-family="Helvetica,sans-Serif" font-size="10.00">actions</text>
</a>
</g>
</g>
<!-- dir_8c67632ad66eb9bf379bf849f1aad5d2&#45;&gt;dir_0ae0216c5b903435324487dd13dfdff9 -->
<g id="edge1" class="edge">
<title>dir_8c67632ad66eb9bf379bf849f1aad5d2&#45;&gt;dir_0ae0216c5b903435324487dd13dfdff9</title>
<path fill="none" stroke="black" d="M50.53,-159.7C49.43,-151.98 48.1,-142.71 46.87,-134.11"/>
<polygon fill="black" stroke="black" points="50.32,-133.51 45.44,-124.1 43.39,-134.5 50.32,-133.51"/>
<g id="a_edge1&#45;headlabel"><a xlink:href="dir_000003_000018.html" target="_top" xlink:title="3">
<text text-anchor="middle" x="53.64" y="-134.17" font-family="Helvetica,sans-Serif" font-size="10.00">3</text>
</a>
</g>
</g>
<!-- dir_8c67632ad66eb9bf379bf849f1aad5d2&#45;&gt;dir_6311cd7a9afaa93eeee404de83766793 -->
<g id="edge2" class="edge">
<title>dir_8c67632ad66eb9bf379bf849f1aad5d2&#45;&gt;dir_6311cd7a9afaa93eeee404de83766793</title>
<path fill="none" stroke="black" d="M64.05,-159.61C69.74,-149.62 76.08,-136.58 79,-124 82.62,-108.41 82.62,-103.59 79,-88 76.9,-78.96 73.03,-69.68 68.91,-61.47"/>
<polygon fill="black" stroke="black" points="71.86,-59.55 64.05,-52.39 65.69,-62.86 71.86,-59.55"/>
<g id="a_edge2&#45;headlabel"><a xlink:href="dir_000003_000015.html" target="_top" xlink:title="3">
<text text-anchor="middle" x="76.06" y="-58.88" font-family="Helvetica,sans-Serif" font-size="10.00">3</text>
</a>
</g>
</g>
</g>
</svg>
