<?xml version="1.0" encoding="UTF-8" standalone="no"?>
<!DOCTYPE svg PUBLIC "-//W3C//DTD SVG 1.1//EN"
 "http://www.w3.org/Graphics/SVG/1.1/DTD/svg11.dtd">
<!-- Generated by graphviz version 2.43.0 (0)
 -->
<!-- Title: /home/runner/work/beluga/beluga/beluga/include/beluga Pages: 1 -->
<svg width="328pt" height="471pt"
 viewBox="0.00 0.00 328.00 471.00" xmlns="http://www.w3.org/2000/svg" xmlns:xlink="http://www.w3.org/1999/xlink">
<g id="graph0" class="graph" transform="scale(1 1) rotate(0) translate(4 467)">
<title>/home/runner/work/beluga/beluga/beluga/include/beluga</title>
<g id="clust1" class="cluster">
<title>clusterdir_d44c64559bbebec7f509842c48db8b23</title>
<g id="a_clust1"><a xlink:href="dir_d44c64559bbebec7f509842c48db8b23.html" target="_top" xlink:title="include">
<polygon fill="#ddddee" stroke="black" points="8,-8 8,-455 312,-455 312,-8 8,-8"/>
<text text-anchor="middle" x="160" y="-443" font-family="Helvetica,sans-Serif" font-size="10.00">include</text>
</a>
</g>
</g>
<g id="clust2" class="cluster">
<title>clusterdir_1ad523cfdb7a3d7d09cddf672d6cd478</title>
<g id="a_clust2"><a xlink:href="dir_1ad523cfdb7a3d7d09cddf672d6cd478.html" target="_top">
<polygon fill="#eeeeff" stroke="black" points="16,-16 16,-428 304,-428 304,-16 16,-16"/>
</a>
</g>
</g>
<!-- dir_1ad523cfdb7a3d7d09cddf672d6cd478 -->
<g id="node1" class="node">
<title>dir_1ad523cfdb7a3d7d09cddf672d6cd478</title>
<text text-anchor="middle" x="163" y="-399.5" font-family="Helvetica,sans-Serif" font-size="10.00">beluga</text>
</g>
<!-- dir_8c67632ad66eb9bf379bf849f1aad5d2 -->
<g id="node2" class="node">
<title>dir_8c67632ad66eb9bf379bf849f1aad5d2</title>
<g id="a_node2"><a xlink:href="dir_8c67632ad66eb9bf379bf849f1aad5d2.html" target="_top" xlink:title="actions">
<polygon fill="white" stroke="black" points="122,-204 68,-204 68,-168 122,-168 122,-204"/>
<text text-anchor="middle" x="95" y="-183.5" font-family="Helvetica,sans-Serif" font-size="10.00">actions</text>
</a>
</g>
</g>
<!-- dir_1ad523cfdb7a3d7d09cddf672d6cd478&#45;&gt;dir_8c67632ad66eb9bf379bf849f1aad5d2 -->
<g id="edge14" class="edge">
<title>dir_1ad523cfdb7a3d7d09cddf672d6cd478&#45;&gt;dir_8c67632ad66eb9bf379bf849f1aad5d2</title>
<path fill="none" stroke="black" d="M135.74,-391.41C106.86,-380.63 64.17,-362.71 55,-348 46.54,-334.42 49.31,-326.96 55,-312 62.61,-291.99 78.5,-295.65 87,-276 95.4,-256.57 97.12,-232.57 96.89,-214.39"/>
<polygon fill="black" stroke="black" points="100.38,-214.05 96.56,-204.17 93.39,-214.28 100.38,-214.05"/>
<g id="a_edge14&#45;headlabel"><a xlink:href="dir_000002_000003.html" target="_top" xlink:title="4">
<text text-anchor="middle" x="103.34" y="-215.05" font-family="Helvetica,sans-Serif" font-size="10.00">4</text>
</a>
</g>
</g>
<!-- dir_3245ff25b92019e7f89fc2115bc7867e -->
<g id="node4" class="node">
<title>dir_3245ff25b92019e7f89fc2115bc7867e</title>
<g id="a_node4"><a xlink:href="dir_3245ff25b92019e7f89fc2115bc7867e.html" target="_top" xlink:title="containers">
<polygon fill="white" stroke="black" points="132,-348 64,-348 64,-312 132,-312 132,-348"/>
<text text-anchor="middle" x="98" y="-327.5" font-family="Helvetica,sans-Serif" font-size="10.00">containers</text>
</a>
</g>
</g>
<!-- dir_1ad523cfdb7a3d7d09cddf672d6cd478&#45;&gt;dir_3245ff25b92019e7f89fc2115bc7867e -->
<g id="edge12" class="edge">
<title>dir_1ad523cfdb7a3d7d09cddf672d6cd478&#45;&gt;dir_3245ff25b92019e7f89fc2115bc7867e</title>
<path fill="none" stroke="black" d="M146.93,-383.7C139.06,-375.22 129.44,-364.86 120.83,-355.58"/>
<polygon fill="black" stroke="black" points="123.25,-353.05 113.88,-348.1 118.12,-357.81 123.25,-353.05"/>
<g id="a_edge12&#45;headlabel"><a xlink:href="dir_000002_000006.html" target="_top" xlink:title="2">
<text text-anchor="middle" x="127.78" y="-351.25" font-family="Helvetica,sans-Serif" font-size="10.00">2</text>
</a>
</g>
</g>
<!-- dir_a3553bb43d48af21167f3919d16bc6f3 -->
<g id="node6" class="node">
<title>dir_a3553bb43d48af21167f3919d16bc6f3</title>
<g id="a_node6"><a xlink:href="dir_a3553bb43d48af21167f3919d16bc6f3.html" target="_top" xlink:title="motion">
<polygon fill="white" stroke="black" points="78,-276 24,-276 24,-240 78,-240 78,-276"/>
<text text-anchor="middle" x="51" y="-255.5" font-family="Helvetica,sans-Serif" font-size="10.00">motion</text>
</a>
</g>
</g>
<!-- dir_1ad523cfdb7a3d7d09cddf672d6cd478&#45;&gt;dir_a3553bb43d48af21167f3919d16bc6f3 -->
<g id="edge16" class="edge">
<title>dir_1ad523cfdb7a3d7d09cddf672d6cd478&#45;&gt;dir_a3553bb43d48af21167f3919d16bc6f3</title>
<path fill="none" stroke="black" d="M135.83,-391.1C101.33,-378.27 45.61,-356.52 40,-348 27.96,-329.7 32.48,-304.63 38.99,-285.76"/>
<polygon fill="black" stroke="black" points="42.32,-286.85 42.61,-276.26 35.78,-284.36 42.32,-286.85"/>
<g id="a_edge16&#45;headlabel"><a xlink:href="dir_000002_000008.html" target="_top" xlink:title="3">
<text text-anchor="middle" x="43.69" y="-288.72" font-family="Helvetica,sans-Serif" font-size="10.00">3</text>
</a>
</g>
</g>
<!-- dir_c03a81e29d2f9f088aa073fa974eabbc -->
<g id="node8" class="node">
<title>dir_c03a81e29d2f9f088aa073fa974eabbc</title>
<g id="a_node8"><a xlink:href="dir_c03a81e29d2f9f088aa073fa974eabbc.html" target="_top" xlink:title="random">
<polygon fill="white" stroke="black" points="204,-348 150,-348 150,-312 204,-312 204,-348"/>
<text text-anchor="middle" x="177" y="-327.5" font-family="Helvetica,sans-Serif" font-size="10.00">random</text>
</a>
</g>
</g>
<!-- dir_1ad523cfdb7a3d7d09cddf672d6cd478&#45;&gt;dir_c03a81e29d2f9f088aa073fa974eabbc -->
<g id="edge17" class="edge">
<title>dir_1ad523cfdb7a3d7d09cddf672d6cd478&#45;&gt;dir_c03a81e29d2f9f088aa073fa974eabbc</title>
<path fill="none" stroke="black" d="M166.46,-383.7C168,-375.98 169.86,-366.71 171.58,-358.11"/>
<polygon fill="black" stroke="black" points="175.05,-358.6 173.58,-348.1 168.19,-357.22 175.05,-358.6"/>
<g id="a_edge17&#45;headlabel"><a xlink:href="dir_000002_000010.html" target="_top" xlink:title="2">
<text text-anchor="middle" x="177.13" y="-360.18" font-family="Helvetica,sans-Serif" font-size="10.00">2</text>
</a>
</g>
</g>
<!-- dir_7ddb7368080dbe1879dd7372dd1df3df -->
<g id="node9" class="node">
<title>dir_7ddb7368080dbe1879dd7372dd1df3df</title>
<g id="a_node9"><a xlink:href="dir_7ddb7368080dbe1879dd7372dd1df3df.html" target="_top" xlink:title="sensor">
<polygon fill="white" stroke="red" points="262,-276 208,-276 208,-240 262,-240 262,-276"/>
<text text-anchor="middle" x="235" y="-255.5" font-family="Helvetica,sans-Serif" font-size="10.00">sensor</text>
</a>
</g>
</g>
<!-- dir_1ad523cfdb7a3d7d09cddf672d6cd478&#45;&gt;dir_7ddb7368080dbe1879dd7372dd1df3df -->
<g id="edge13" class="edge">
<title>dir_1ad523cfdb7a3d7d09cddf672d6cd478&#45;&gt;dir_7ddb7368080dbe1879dd7372dd1df3df</title>
<path fill="none" stroke="black" d="M183.68,-383.77C193.91,-374.22 205.61,-361.55 213,-348 223.51,-328.73 229.08,-304.39 231.99,-286.03"/>
<polygon fill="black" stroke="black" points="235.47,-286.39 233.4,-276 228.54,-285.41 235.47,-286.39"/>
<g id="a_edge13&#45;headlabel"><a xlink:href="dir_000002_000011.html" target="_top" xlink:title="8">
<text text-anchor="middle" x="237.78" y="-287.85" font-family="Helvetica,sans-Serif" font-size="10.00">8</text>
</a>
</g>
</g>
<!-- dir_8cfff6e4809896f1b09096e04b4d983e -->
<g id="node10" class="node">
<title>dir_8cfff6e4809896f1b09096e04b4d983e</title>
<g id="a_node10"><a xlink:href="dir_8cfff6e4809896f1b09096e04b4d983e.html" target="_top" xlink:title="testing">
<polygon fill="white" stroke="black" points="296,-348 242,-348 242,-312 296,-312 296,-348"/>
<text text-anchor="middle" x="269" y="-327.5" font-family="Helvetica,sans-Serif" font-size="10.00">testing</text>
</a>
</g>
</g>
<!-- dir_1ad523cfdb7a3d7d09cddf672d6cd478&#45;&gt;dir_8cfff6e4809896f1b09096e04b4d983e -->
<g id="edge15" class="edge">
<title>dir_1ad523cfdb7a3d7d09cddf672d6cd478&#45;&gt;dir_8cfff6e4809896f1b09096e04b4d983e</title>
<path fill="none" stroke="black" d="M188.93,-383.88C202.66,-374.81 219.71,-363.55 234.54,-353.76"/>
<polygon fill="black" stroke="black" points="236.55,-356.62 242.97,-348.19 232.7,-350.78 236.55,-356.62"/>
<g id="a_edge15&#45;headlabel"><a xlink:href="dir_000002_000013.html" target="_top" xlink:title="2">
<text text-anchor="middle" x="235.12" y="-358.47" font-family="Helvetica,sans-Serif" font-size="10.00">2</text>
</a>
</g>
</g>
<!-- dir_6311cd7a9afaa93eeee404de83766793 -->
<g id="node11" class="node">
<title>dir_6311cd7a9afaa93eeee404de83766793</title>
<g id="a_node11"><a xlink:href="dir_6311cd7a9afaa93eeee404de83766793.html" target="_top" xlink:title="type_traits">
<polygon fill="white" stroke="black" points="152.5,-60 83.5,-60 83.5,-24 152.5,-24 152.5,-60"/>
<text text-anchor="middle" x="118" y="-39.5" font-family="Helvetica,sans-Serif" font-size="10.00">type_traits</text>
</a>
</g>
</g>
<!-- dir_8c67632ad66eb9bf379bf849f1aad5d2&#45;&gt;dir_6311cd7a9afaa93eeee404de83766793 -->
<g id="edge10" class="edge">
<title>dir_8c67632ad66eb9bf379bf849f1aad5d2&#45;&gt;dir_6311cd7a9afaa93eeee404de83766793</title>
<path fill="none" stroke="black" d="M96.27,-167.84C97.75,-149.85 100.58,-120.8 105,-96 106.52,-87.47 108.61,-78.28 110.67,-69.98"/>
<polygon fill="black" stroke="black" points="114.12,-70.62 113.22,-60.07 107.34,-68.88 114.12,-70.62"/>
<g id="a_edge10&#45;headlabel"><a xlink:href="dir_000003_000014.html" target="_top" xlink:title="3">
<text text-anchor="middle" x="115.97" y="-72.31" font-family="Helvetica,sans-Serif" font-size="10.00">3</text>
</a>
</g>
</g>
<!-- dir_0ae0216c5b903435324487dd13dfdff9 -->
<g id="node14" class="node">
<title>dir_0ae0216c5b903435324487dd13dfdff9</title>
<g id="a_node14"><a xlink:href="dir_0ae0216c5b903435324487dd13dfdff9.html" target="_top" xlink:title="views">
<polygon fill="white" stroke="black" points="168,-132 114,-132 114,-96 168,-96 168,-132"/>
<text text-anchor="middle" x="141" y="-111.5" font-family="Helvetica,sans-Serif" font-size="10.00">views</text>
</a>
</g>
</g>
<!-- dir_8c67632ad66eb9bf379bf849f1aad5d2&#45;&gt;dir_0ae0216c5b903435324487dd13dfdff9 -->
<g id="edge9" class="edge">
<title>dir_8c67632ad66eb9bf379bf849f1aad5d2&#45;&gt;dir_0ae0216c5b903435324487dd13dfdff9</title>
<path fill="none" stroke="black" d="M106.37,-167.7C111.72,-159.56 118.2,-149.69 124.11,-140.7"/>
<polygon fill="black" stroke="black" points="127.19,-142.38 129.76,-132.1 121.34,-138.54 127.19,-142.38"/>
<g id="a_edge9&#45;headlabel"><a xlink:href="dir_000003_000017.html" target="_top" xlink:title="3">
<text text-anchor="middle" x="127.59" y="-144.45" font-family="Helvetica,sans-Serif" font-size="10.00">3</text>
</a>
</g>
</g>
<!-- dir_634c6b228f937c8a89fa81bc2f240134 -->
<g id="node3" class="node">
<title>dir_634c6b228f937c8a89fa81bc2f240134</title>
<g id="a_node3"><a xlink:href="dir_634c6b228f937c8a89fa81bc2f240134.html" target="_top" xlink:title="algorithm">
<polygon fill="white" stroke="red" points="296,-204 232,-204 232,-168 296,-168 296,-204"/>
<text text-anchor="middle" x="264" y="-183.5" font-family="Helvetica,sans-Serif" font-size="10.00">algorithm</text>
</a>
</g>
</g>
<!-- dir_0ee0838bbed77bc71495b9458bcc4b6b -->
<g id="node7" class="node">
<title>dir_0ee0838bbed77bc71495b9458bcc4b6b</title>
<g id="a_node7"><a xlink:href="dir_0ee0838bbed77bc71495b9458bcc4b6b.html" target="_top" xlink:title="policies">
<polygon fill="white" stroke="black" points="291,-132 237,-132 237,-96 291,-96 291,-132"/>
<text text-anchor="middle" x="264" y="-111.5" font-family="Helvetica,sans-Serif" font-size="10.00">policies</text>
</a>
</g>
</g>
<!-- dir_634c6b228f937c8a89fa81bc2f240134&#45;&gt;dir_0ee0838bbed77bc71495b9458bcc4b6b -->
<g id="edge7" class="edge">
<title>dir_634c6b228f937c8a89fa81bc2f240134&#45;&gt;dir_0ee0838bbed77bc71495b9458bcc4b6b</title>
<path fill="none" stroke="black" d="M258.08,-167.7C257.29,-159.98 257.06,-150.71 257.4,-142.11"/>
<polygon fill="black" stroke="black" points="260.9,-142.32 258.1,-132.1 253.92,-141.84 260.9,-142.32"/>
<g id="a_edge7&#45;headlabel"><a xlink:href="dir_000004_000009.html" target="_top" xlink:title="1">
<text text-anchor="middle" x="263.48" y="-143.61" font-family="Helvetica,sans-Serif" font-size="10.00">1</text>
</a>
</g>
</g>
<!-- dir_634c6b228f937c8a89fa81bc2f240134&#45;&gt;dir_6311cd7a9afaa93eeee404de83766793 -->
<g id="edge8" class="edge">
<title>dir_634c6b228f937c8a89fa81bc2f240134&#45;&gt;dir_6311cd7a9afaa93eeee404de83766793</title>
<path fill="none" stroke="black" d="M247.96,-167.95C230.74,-149.79 202.42,-120.37 177,-96 166.88,-86.3 155.48,-75.94 145.42,-66.97"/>
<polygon fill="black" stroke="black" points="147.49,-64.13 137.69,-60.11 142.85,-69.37 147.49,-64.13"/>
<g id="a_edge8&#45;headlabel"><a xlink:href="dir_000004_000014.html" target="_top" xlink:title="2">
<text text-anchor="middle" x="152.07" y="-61.89" font-family="Helvetica,sans-Serif" font-size="10.00">2</text>
</a>
</g>
</g>
<!-- dir_634c6b228f937c8a89fa81bc2f240134&#45;&gt;dir_0ae0216c5b903435324487dd13dfdff9 -->
<g id="edge6" class="edge">
<title>dir_634c6b228f937c8a89fa81bc2f240134&#45;&gt;dir_0ae0216c5b903435324487dd13dfdff9</title>
<path fill="none" stroke="black" d="M233.91,-167.88C216.83,-158.16 195.33,-145.92 177.32,-135.67"/>
<polygon fill="black" stroke="black" points="178.68,-132.42 168.26,-130.51 175.22,-138.5 178.68,-132.42"/>
<g id="a_edge6&#45;headlabel"><a xlink:href="dir_000004_000017.html" target="_top" xlink:title="2">
<text text-anchor="middle" x="183.21" y="-129.23" font-family="Helvetica,sans-Serif" font-size="10.00">2</text>
</a>
</g>
</g>
<!-- dir_500caef060b471cfdd05b62a42e3142c -->
<g id="node13" class="node">
<title>dir_500caef060b471cfdd05b62a42e3142c</title>
<g id="a_node13"><a xlink:href="dir_500caef060b471cfdd05b62a42e3142c.html" target="_top" xlink:title="utility">
<polygon fill="white" stroke="black" points="170,-276 116,-276 116,-240 170,-240 170,-276"/>
<text text-anchor="middle" x="143" y="-255.5" font-family="Helvetica,sans-Serif" font-size="10.00">utility</text>
</a>
</g>
</g>
<!-- dir_3245ff25b92019e7f89fc2115bc7867e&#45;&gt;dir_500caef060b471cfdd05b62a42e3142c -->
<g id="edge5" class="edge">
<title>dir_3245ff25b92019e7f89fc2115bc7867e&#45;&gt;dir_500caef060b471cfdd05b62a42e3142c</title>
<path fill="none" stroke="black" d="M109.12,-311.7C114.36,-303.56 120.7,-293.69 126.48,-284.7"/>
<polygon fill="black" stroke="black" points="129.54,-286.41 132,-276.1 123.65,-282.62 129.54,-286.41"/>
<g id="a_edge5&#45;headlabel"><a xlink:href="dir_000006_000016.html" target="_top" xlink:title="1">
<text text-anchor="middle" x="129.99" y="-288.47" font-family="Helvetica,sans-Serif" font-size="10.00">1</text>
</a>
</g>
</g>
<!-- dir_3245ff25b92019e7f89fc2115bc7867e&#45;&gt;dir_0ae0216c5b903435324487dd13dfdff9 -->
<g id="edge4" class="edge">
<title>dir_3245ff25b92019e7f89fc2115bc7867e&#45;&gt;dir_0ae0216c5b903435324487dd13dfdff9</title>
<path fill="none" stroke="black" d="M132.07,-316.08C149.46,-307.55 169.01,-294.48 179,-276 186.61,-261.93 184.19,-255.13 179,-240 172.42,-220.83 158.64,-222.77 151,-204 143,-184.35 140.69,-160.36 140.27,-142.24"/>
<polygon fill="black" stroke="black" points="143.77,-142.05 140.22,-132.07 136.77,-142.09 143.77,-142.05"/>
<g id="a_edge4&#45;headlabel"><a xlink:href="dir_000006_000017.html" target="_top" xlink:title="1">
<text text-anchor="middle" x="146.63" y="-143.13" font-family="Helvetica,sans-Serif" font-size="10.00">1</text>
</a>
</g>
</g>
<!-- dir_b61f5b26177d4f0e7f42e2895ffd1c30 -->
<g id="node5" class="node">
<title>dir_b61f5b26177d4f0e7f42e2895ffd1c30</title>
<g id="a_node5"><a xlink:href="dir_b61f5b26177d4f0e7f42e2895ffd1c30.html" target="_top" xlink:title="detail">
<polygon fill="white" stroke="black" points="105,-420 51,-420 51,-384 105,-384 105,-420"/>
<text text-anchor="middle" x="78" y="-399.5" font-family="Helvetica,sans-Serif" font-size="10.00">detail</text>
</a>
</g>
</g>
<!-- dir_a3553bb43d48af21167f3919d16bc6f3&#45;&gt;dir_6311cd7a9afaa93eeee404de83766793 -->
<g id="edge11" class="edge">
<title>dir_a3553bb43d48af21167f3919d16bc6f3&#45;&gt;dir_6311cd7a9afaa93eeee404de83766793</title>
<path fill="none" stroke="black" d="M50.77,-239.96C50.94,-221.81 52.37,-192.4 59,-168 68.82,-131.86 88.59,-93.33 102.54,-68.75"/>
<polygon fill="black" stroke="black" points="105.59,-70.46 107.56,-60.05 99.53,-66.96 105.59,-70.46"/>
<g id="a_edge11&#45;headlabel"><a xlink:href="dir_000008_000014.html" target="_top" xlink:title="3">
<text text-anchor="middle" x="106.25" y="-72.49" font-family="Helvetica,sans-Serif" font-size="10.00">3</text>
</a>
</g>
</g>
<!-- dir_0ee0838bbed77bc71495b9458bcc4b6b&#45;&gt;dir_634c6b228f937c8a89fa81bc2f240134 -->
<g id="edge19" class="edge">
<title>dir_0ee0838bbed77bc71495b9458bcc4b6b&#45;&gt;dir_634c6b228f937c8a89fa81bc2f240134</title>
<path fill="none" stroke="black" d="M269.9,-132.1C270.7,-139.79 270.94,-149.05 270.6,-157.67"/>
<polygon fill="black" stroke="black" points="267.11,-157.48 269.92,-167.7 274.09,-157.96 267.11,-157.48"/>
<g id="a_edge19&#45;headlabel"><a xlink:href="dir_000009_000004.html" target="_top" xlink:title="1">
<text text-anchor="middle" x="264.52" y="-151.2" font-family="Helvetica,sans-Serif" font-size="10.00">1</text>
</a>
</g>
</g>
<!-- dir_c03a81e29d2f9f088aa073fa974eabbc&#45;&gt;dir_7ddb7368080dbe1879dd7372dd1df3df -->
<g id="edge1" class="edge">
<title>dir_c03a81e29d2f9f088aa073fa974eabbc&#45;&gt;dir_7ddb7368080dbe1879dd7372dd1df3df</title>
<path fill="none" stroke="black" d="M191.34,-311.7C198.29,-303.3 206.77,-293.07 214.4,-283.86"/>
<polygon fill="black" stroke="black" points="217.14,-286.04 220.83,-276.1 211.75,-281.57 217.14,-286.04"/>
<g id="a_edge1&#45;headlabel"><a xlink:href="dir_000010_000011.html" target="_top" xlink:title="1">
<text text-anchor="middle" x="217.04" y="-288.12" font-family="Helvetica,sans-Serif" font-size="10.00">1</text>
</a>
</g>
</g>
<!-- dir_7ddb7368080dbe1879dd7372dd1df3df&#45;&gt;dir_634c6b228f937c8a89fa81bc2f240134 -->
<g id="edge2" class="edge">
<title>dir_7ddb7368080dbe1879dd7372dd1df3df&#45;&gt;dir_634c6b228f937c8a89fa81bc2f240134</title>
<path fill="none" stroke="black" d="M242.17,-239.7C245.43,-231.81 249.37,-222.3 253,-213.55"/>
<polygon fill="black" stroke="black" points="256.32,-214.68 256.91,-204.1 249.85,-212 256.32,-214.68"/>
<g id="a_edge2&#45;headlabel"><a xlink:href="dir_000011_000004.html" target="_top" xlink:title="2">
<text text-anchor="middle" x="257.57" y="-216.59" font-family="Helvetica,sans-Serif" font-size="10.00">2</text>
</a>
</g>
</g>
<!-- dir_a695b385a3d14b7fe3275ff1f0b9cead -->
<g id="node12" class="node">
<title>dir_a695b385a3d14b7fe3275ff1f0b9cead</title>
<g id="a_node12"><a xlink:href="dir_a695b385a3d14b7fe3275ff1f0b9cead.html" target="_top" xlink:title="types">
<polygon fill="white" stroke="black" points="214,-204 160,-204 160,-168 214,-168 214,-204"/>
<text text-anchor="middle" x="187" y="-183.5" font-family="Helvetica,sans-Serif" font-size="10.00">types</text>
</a>
</g>
</g>
<!-- dir_7ddb7368080dbe1879dd7372dd1df3df&#45;&gt;dir_a695b385a3d14b7fe3275ff1f0b9cead -->
<g id="edge3" class="edge">
<title>dir_7ddb7368080dbe1879dd7372dd1df3df&#45;&gt;dir_a695b385a3d14b7fe3275ff1f0b9cead</title>
<path fill="none" stroke="black" d="M223.13,-239.7C217.5,-231.47 210.65,-221.48 204.43,-212.42"/>
<polygon fill="black" stroke="black" points="207.27,-210.37 198.73,-204.1 201.5,-214.33 207.27,-210.37"/>
<g id="a_edge3&#45;headlabel"><a xlink:href="dir_000011_000015.html" target="_top" xlink:title="3">
<text text-anchor="middle" x="211.65" y="-209.23" font-family="Helvetica,sans-Serif" font-size="10.00">3</text>
</a>
</g>
</g>
<!-- dir_0ae0216c5b903435324487dd13dfdff9&#45;&gt;dir_6311cd7a9afaa93eeee404de83766793 -->
<g id="edge18" class="edge">
<title>dir_0ae0216c5b903435324487dd13dfdff9&#45;&gt;dir_6311cd7a9afaa93eeee404de83766793</title>
<path fill="none" stroke="black" d="M135.31,-95.7C132.75,-87.9 129.67,-78.51 126.82,-69.83"/>
<polygon fill="black" stroke="black" points="130.07,-68.51 123.62,-60.1 123.42,-70.7 130.07,-68.51"/>
<g id="a_edge18&#45;headlabel"><a xlink:href="dir_000017_000014.html" target="_top" xlink:title="2">
<text text-anchor="middle" x="133.89" y="-68.54" font-family="Helvetica,sans-Serif" font-size="10.00">2</text>
</a>
</g>
</g>
</g>
</svg>
