<?xml version="1.0" encoding="UTF-8" standalone="no"?>
<!DOCTYPE svg PUBLIC "-//W3C//DTD SVG 1.1//EN"
 "http://www.w3.org/Graphics/SVG/1.1/DTD/svg11.dtd">
<!-- Generated by graphviz version 2.43.0 (0)
 -->
<!-- Title: /home/runner/work/beluga/beluga/beluga/include/beluga/sensor/data Pages: 1 -->
<svg width="134pt" height="151pt"
 viewBox="0.00 0.00 134.00 151.00" xmlns="http://www.w3.org/2000/svg" xmlns:xlink="http://www.w3.org/1999/xlink">
<g id="graph0" class="graph" transform="scale(1 1) rotate(0) translate(4 147)">
<title>/home/runner/work/beluga/beluga/beluga/include/beluga/sensor/data</title>
<g id="clust1" class="cluster">
<title>clusterdir_7ddb7368080dbe1879dd7372dd1df3df</title>
<g id="a_clust1"><a xlink:href="dir_7ddb7368080dbe1879dd7372dd1df3df.html" target="_top" xlink:title="sensor">
<polygon fill="#ddddee" stroke="black" points="28,-64 28,-135 98,-135 98,-64 28,-64"/>
<text text-anchor="middle" x="63" y="-123" font-family="Helvetica,sans-Serif" font-size="10.00">sensor</text>
</a>
</g>
</g>
<!-- dir_876c246173b27422a95ea0c3c06ba40d -->
<g id="node1" class="node">
<title>dir_876c246173b27422a95ea0c3c06ba40d</title>
<g id="a_node1"><a xlink:href="dir_876c246173b27422a95ea0c3c06ba40d.html" target="_top" xlink:title="data">
<polygon fill="#eeeeff" stroke="black" points="90,-108 36,-108 36,-72 90,-72 90,-108"/>
<text text-anchor="middle" x="63" y="-87.5" font-family="Helvetica,sans-Serif" font-size="10.00">data</text>
</a>
</g>
</g>
<!-- dir_8c10e172254770a37ae9492abb15e27f -->
<g id="node2" class="node">
<title>dir_8c10e172254770a37ae9492abb15e27f</title>
<g id="a_node2"><a xlink:href="dir_8c10e172254770a37ae9492abb15e27f.html" target="_top" xlink:title="mixins">
<polygon fill="none" stroke="black" points="54,-36 0,-36 0,0 54,0 54,-36"/>
<text text-anchor="middle" x="27" y="-15.5" font-family="Helvetica,sans-Serif" font-size="10.00">mixins</text>
</a>
</g>
</g>
<!-- dir_876c246173b27422a95ea0c3c06ba40d&#45;&gt;dir_8c10e172254770a37ae9492abb15e27f -->
<g id="edge1" class="edge">
<title>dir_876c246173b27422a95ea0c3c06ba40d&#45;&gt;dir_8c10e172254770a37ae9492abb15e27f</title>
<path fill="none" stroke="black" d="M54.1,-71.7C50,-63.73 45.05,-54.1 40.51,-45.26"/>
<polygon fill="black" stroke="black" points="43.48,-43.4 35.8,-36.1 37.26,-46.6 43.48,-43.4"/>
<g id="a_edge1&#45;headlabel"><a xlink:href="dir_000013_000008.html" target="_top" xlink:title="4">
<text text-anchor="middle" x="47.65" y="-42.79" font-family="Helvetica,sans-Serif" font-size="10.00">4</text>
</a>
</g>
</g>
<!-- dir_a695b385a3d14b7fe3275ff1f0b9cead -->
<g id="node3" class="node">
<title>dir_a695b385a3d14b7fe3275ff1f0b9cead</title>
<g id="a_node3"><a xlink:href="dir_a695b385a3d14b7fe3275ff1f0b9cead.html" target="_top" xlink:title="types">
<polygon fill="none" stroke="black" points="126,-36 72,-36 72,0 126,0 126,-36"/>
<text text-anchor="middle" x="99" y="-15.5" font-family="Helvetica,sans-Serif" font-size="10.00">types</text>
</a>
</g>
</g>
<!-- dir_876c246173b27422a95ea0c3c06ba40d&#45;&gt;dir_a695b385a3d14b7fe3275ff1f0b9cead -->
<g id="edge2" class="edge">
<title>dir_876c246173b27422a95ea0c3c06ba40d&#45;&gt;dir_a695b385a3d14b7fe3275ff1f0b9cead</title>
<path fill="none" stroke="black" d="M71.9,-71.7C76,-63.73 80.95,-54.1 85.49,-45.26"/>
<polygon fill="black" stroke="black" points="88.74,-46.6 90.2,-36.1 82.52,-43.4 88.74,-46.6"/>
<g id="a_edge2&#45;headlabel"><a xlink:href="dir_000013_000016.html" target="_top" xlink:title="1">
<text text-anchor="middle" x="89.62" y="-48.59" font-family="Helvetica,sans-Serif" font-size="10.00">1</text>
</a>
</g>
</g>
</g>
</svg>
