<?xml version="1.0" encoding="UTF-8" standalone="no"?>
<!DOCTYPE svg PUBLIC "-//W3C//DTD SVG 1.1//EN"
 "http://www.w3.org/Graphics/SVG/1.1/DTD/svg11.dtd">
<!-- Generated by graphviz version 2.43.0 (0)
 -->
<!-- Title: /home/runner/work/beluga/beluga/beluga/include/beluga Pages: 1 -->
<!--zoomable 471 -->
<svg id="main" version="1.1" xmlns="http://www.w3.org/2000/svg" xmlns:xlink="http://www.w3.org/1999/xlink" xml:space="preserve" onload="init(evt)">
<style type="text/css"><![CDATA[
.edge:hover path { stroke: red; }
.edge:hover polygon { stroke: red; fill: red; }
]]></style>
<script type="text/javascript"><![CDATA[
var edges = document.getElementsByTagName('g');
if (edges && edges.length) {
  for (var i=0;i<edges.length;i++) {
    if (edges[i].id.substr(0,4)=='edge') {
      edges[i].setAttribute('class','edge');
    }
  }
}
]]></script>
        <defs>
                <circle id="rim" cx="0" cy="0" r="7"/>
                <circle id="rim2" cx="0" cy="0" r="3.5"/>
                <g id="zoomPlus">
                        <use xlink:href="#rim" fill="#404040">
                                <set attributeName="fill" to="#808080" begin="zoomplus.mouseover" end="zoomplus.mouseout"/>
                        </use>
                        <path d="M-4,0h8M0,-4v8" fill="none" stroke="white" stroke-width="1.5" pointer-events="none"/>
                </g>
                <g id="zoomMin">
                        <use xlink:href="#rim" fill="#404040">
                                <set attributeName="fill" to="#808080" begin="zoomminus.mouseover" end="zoomminus.mouseout"/>
                        </use>
                        <path d="M-4,0h8" fill="none" stroke="white" stroke-width="1.5" pointer-events="none"/>
                </g>
                <g id="dirArrow">
                        <path fill="none" stroke="white" stroke-width="1.5" d="M0,-3.0v7 M-2.5,-0.5L0,-3.0L2.5,-0.5"/>
                </g>
               <g id="resetDef">
                       <use xlink:href="#rim2" fill="#404040">
                               <set attributeName="fill" to="#808080" begin="reset.mouseover" end="reset.mouseout"/>
                       </use>
               </g>
        </defs>

<script type="text/javascript">
var viewWidth = 328;
var viewHeight = 471;
var sectionId = 'dynsection-0';
</script>
<script xlink:href="svgpan.js"/>
<svg id="graph" class="graph">
<g id="viewport">
<title>/home/runner/work/beluga/beluga/beluga/include/beluga</title>
<g id="clust1" class="cluster">
<title>clusterdir_d44c64559bbebec7f509842c48db8b23</title>
<g id="a_clust1"><a xlink:href="dir_d44c64559bbebec7f509842c48db8b23.html" target="_top" xlink:title="include">
<polygon fill="#ddddee" stroke="black" points="8,-8 8,-455 312,-455 312,-8 8,-8"/>
<text text-anchor="middle" x="160" y="-443" font-family="Helvetica,sans-Serif" font-size="10.00">include</text>
</a>
</g>
</g>
<g id="clust2" class="cluster">
<title>clusterdir_1ad523cfdb7a3d7d09cddf672d6cd478</title>
<g id="a_clust2"><a xlink:href="dir_1ad523cfdb7a3d7d09cddf672d6cd478.html" target="_top">
<polygon fill="#eeeeff" stroke="black" points="16,-16 16,-428 304,-428 304,-16 16,-16"/>
</a>
</g>
</g>
<!-- dir_1ad523cfdb7a3d7d09cddf672d6cd478 -->
<g id="node1" class="node">
<title>dir_1ad523cfdb7a3d7d09cddf672d6cd478</title>
<text text-anchor="middle" x="154" y="-399.5" font-family="Helvetica,sans-Serif" font-size="10.00">beluga</text>
</g>
<!-- dir_8c67632ad66eb9bf379bf849f1aad5d2 -->
<g id="node2" class="node">
<title>dir_8c67632ad66eb9bf379bf849f1aad5d2</title>
<g id="a_node2"><a xlink:href="dir_8c67632ad66eb9bf379bf849f1aad5d2.html" target="_top" xlink:title="actions">
<polygon fill="white" stroke="black" points="98,-204 44,-204 44,-168 98,-168 98,-204"/>
<text text-anchor="middle" x="71" y="-183.5" font-family="Helvetica,sans-Serif" font-size="10.00">actions</text>
</a>
</g>
</g>
<!-- dir_1ad523cfdb7a3d7d09cddf672d6cd478&#45;&gt;dir_8c67632ad66eb9bf379bf849f1aad5d2 -->
<g id="edge15" class="edge">
<title>dir_1ad523cfdb7a3d7d09cddf672d6cd478&#45;&gt;dir_8c67632ad66eb9bf379bf849f1aad5d2</title>
<path fill="none" stroke="black" d="M126.8,-389.32C92.09,-374.35 36.35,-350.09 35,-348 8.86,-307.74 20.89,-285.88 35,-240 38.01,-230.22 43.51,-220.62 49.32,-212.33"/>
<polygon fill="black" stroke="black" points="52.19,-214.33 55.39,-204.23 46.59,-210.13 52.19,-214.33"/>
<g id="a_edge15&#45;headlabel"><a xlink:href="dir_000002_000003.html" target="_top" xlink:title="5">
<text text-anchor="middle" x="52.31" y="-216.41" font-family="Helvetica,sans-Serif" font-size="10.00">5</text>
</a>
</g>
</g>
<!-- dir_3245ff25b92019e7f89fc2115bc7867e -->
<g id="node4" class="node">
<title>dir_3245ff25b92019e7f89fc2115bc7867e</title>
<g id="a_node4"><a xlink:href="dir_3245ff25b92019e7f89fc2115bc7867e.html" target="_top" xlink:title="containers">
<polygon fill="white" stroke="black" points="112,-348 44,-348 44,-312 112,-312 112,-348"/>
<text text-anchor="middle" x="78" y="-327.5" font-family="Helvetica,sans-Serif" font-size="10.00">containers</text>
</a>
</g>
</g>
<!-- dir_1ad523cfdb7a3d7d09cddf672d6cd478&#45;&gt;dir_3245ff25b92019e7f89fc2115bc7867e -->
<g id="edge13" class="edge">
<title>dir_1ad523cfdb7a3d7d09cddf672d6cd478&#45;&gt;dir_3245ff25b92019e7f89fc2115bc7867e</title>
<path fill="none" stroke="black" d="M135.21,-383.7C125.83,-375.05 114.32,-364.45 104.09,-355.03"/>
<polygon fill="black" stroke="black" points="106.3,-352.3 96.57,-348.1 101.55,-357.45 106.3,-352.3"/>
<g id="a_edge13&#45;headlabel"><a xlink:href="dir_000002_000006.html" target="_top" xlink:title="2">
<text text-anchor="middle" x="110.86" y="-350.15" font-family="Helvetica,sans-Serif" font-size="10.00">2</text>
</a>
</g>
</g>
<!-- dir_a3553bb43d48af21167f3919d16bc6f3 -->
<g id="node6" class="node">
<title>dir_a3553bb43d48af21167f3919d16bc6f3</title>
<g id="a_node6"><a xlink:href="dir_a3553bb43d48af21167f3919d16bc6f3.html" target="_top" xlink:title="motion">
<polygon fill="white" stroke="black" points="279,-276 225,-276 225,-240 279,-240 279,-276"/>
<text text-anchor="middle" x="252" y="-255.5" font-family="Helvetica,sans-Serif" font-size="10.00">motion</text>
</a>
</g>
</g>
<!-- dir_1ad523cfdb7a3d7d09cddf672d6cd478&#45;&gt;dir_a3553bb43d48af21167f3919d16bc6f3 -->
<g id="edge17" class="edge">
<title>dir_1ad523cfdb7a3d7d09cddf672d6cd478&#45;&gt;dir_a3553bb43d48af21167f3919d16bc6f3</title>
<path fill="none" stroke="black" d="M177.48,-383.83C189.3,-374.29 203.16,-361.61 213,-348 220.54,-337.57 232.95,-307.94 241.75,-285.71"/>
<polygon fill="black" stroke="black" points="245.12,-286.71 245.5,-276.12 238.6,-284.15 245.12,-286.71"/>
<g id="a_edge17&#45;headlabel"><a xlink:href="dir_000002_000008.html" target="_top" xlink:title="3">
<text text-anchor="middle" x="246.45" y="-288.59" font-family="Helvetica,sans-Serif" font-size="10.00">3</text>
</a>
</g>
</g>
<!-- dir_c03a81e29d2f9f088aa073fa974eabbc -->
<g id="node8" class="node">
<title>dir_c03a81e29d2f9f088aa073fa974eabbc</title>
<g id="a_node8"><a xlink:href="dir_c03a81e29d2f9f088aa073fa974eabbc.html" target="_top" xlink:title="random">
<polygon fill="white" stroke="black" points="204,-348 150,-348 150,-312 204,-312 204,-348"/>
<text text-anchor="middle" x="177" y="-327.5" font-family="Helvetica,sans-Serif" font-size="10.00">random</text>
</a>
</g>
</g>
<!-- dir_1ad523cfdb7a3d7d09cddf672d6cd478&#45;&gt;dir_c03a81e29d2f9f088aa073fa974eabbc -->
<g id="edge18" class="edge">
<title>dir_1ad523cfdb7a3d7d09cddf672d6cd478&#45;&gt;dir_c03a81e29d2f9f088aa073fa974eabbc</title>
<path fill="none" stroke="black" d="M159.69,-383.7C162.25,-375.9 165.33,-366.51 168.18,-357.83"/>
<polygon fill="black" stroke="black" points="171.58,-358.7 171.38,-348.1 164.93,-356.51 171.58,-358.7"/>
<g id="a_edge18&#45;headlabel"><a xlink:href="dir_000002_000010.html" target="_top" xlink:title="2">
<text text-anchor="middle" x="173.16" y="-360.5" font-family="Helvetica,sans-Serif" font-size="10.00">2</text>
</a>
</g>
</g>
<!-- dir_7ddb7368080dbe1879dd7372dd1df3df -->
<g id="node9" class="node">
<title>dir_7ddb7368080dbe1879dd7372dd1df3df</title>
<g id="a_node9"><a xlink:href="dir_7ddb7368080dbe1879dd7372dd1df3df.html" target="_top" xlink:title="sensor">
<polygon fill="white" stroke="red" points="190,-276 136,-276 136,-240 190,-240 190,-276"/>
<text text-anchor="middle" x="163" y="-255.5" font-family="Helvetica,sans-Serif" font-size="10.00">sensor</text>
</a>
</g>
</g>
<!-- dir_1ad523cfdb7a3d7d09cddf672d6cd478&#45;&gt;dir_7ddb7368080dbe1879dd7372dd1df3df -->
<g id="edge14" class="edge">
<title>dir_1ad523cfdb7a3d7d09cddf672d6cd478&#45;&gt;dir_7ddb7368080dbe1879dd7372dd1df3df</title>
<path fill="none" stroke="black" d="M148.03,-383.85C142.57,-365.86 136.06,-336.81 141,-312 142.79,-303.01 146.14,-293.64 149.69,-285.32"/>
<polygon fill="black" stroke="black" points="152.92,-286.67 153.87,-276.12 146.54,-283.77 152.92,-286.67"/>
<g id="a_edge14&#45;headlabel"><a xlink:href="dir_000002_000011.html" target="_top" xlink:title="9">
<text text-anchor="middle" x="154.01" y="-288.62" font-family="Helvetica,sans-Serif" font-size="10.00">9</text>
</a>
</g>
</g>
<!-- dir_8cfff6e4809896f1b09096e04b4d983e -->
<g id="node10" class="node">
<title>dir_8cfff6e4809896f1b09096e04b4d983e</title>
<g id="a_node10"><a xlink:href="dir_8cfff6e4809896f1b09096e04b4d983e.html" target="_top" xlink:title="testing">
<polygon fill="white" stroke="black" points="296,-348 242,-348 242,-312 296,-312 296,-348"/>
<text text-anchor="middle" x="269" y="-327.5" font-family="Helvetica,sans-Serif" font-size="10.00">testing</text>
</a>
</g>
</g>
<!-- dir_1ad523cfdb7a3d7d09cddf672d6cd478&#45;&gt;dir_8cfff6e4809896f1b09096e04b4d983e -->
<g id="edge16" class="edge">
<title>dir_1ad523cfdb7a3d7d09cddf672d6cd478&#45;&gt;dir_8cfff6e4809896f1b09096e04b4d983e</title>
<path fill="none" stroke="black" d="M181.25,-384.41C196.72,-375 216.27,-363.1 232.99,-352.92"/>
<polygon fill="black" stroke="black" points="235.22,-355.66 241.94,-347.47 231.58,-349.68 235.22,-355.66"/>
<g id="a_edge16&#45;headlabel"><a xlink:href="dir_000002_000013.html" target="_top" xlink:title="2">
<text text-anchor="middle" x="233.63" y="-357.45" font-family="Helvetica,sans-Serif" font-size="10.00">2</text>
</a>
</g>
</g>
<!-- dir_6311cd7a9afaa93eeee404de83766793 -->
<g id="node11" class="node">
<title>dir_6311cd7a9afaa93eeee404de83766793</title>
<g id="a_node11"><a xlink:href="dir_6311cd7a9afaa93eeee404de83766793.html" target="_top" xlink:title="type_traits">
<polygon fill="white" stroke="black" points="222.5,-60 153.5,-60 153.5,-24 222.5,-24 222.5,-60"/>
<text text-anchor="middle" x="188" y="-39.5" font-family="Helvetica,sans-Serif" font-size="10.00">type_traits</text>
</a>
</g>
</g>
<!-- dir_8c67632ad66eb9bf379bf849f1aad5d2&#45;&gt;dir_6311cd7a9afaa93eeee404de83766793 -->
<g id="edge11" class="edge">
<title>dir_8c67632ad66eb9bf379bf849f1aad5d2&#45;&gt;dir_6311cd7a9afaa93eeee404de83766793</title>
<path fill="none" stroke="black" d="M71.04,-167.87C71.92,-148.56 75.98,-117.12 92,-96 105.09,-78.74 125.51,-66.36 144.16,-57.92"/>
<polygon fill="black" stroke="black" points="145.58,-61.12 153.41,-53.98 142.84,-54.68 145.58,-61.12"/>
<g id="a_edge11&#45;headlabel"><a xlink:href="dir_000003_000014.html" target="_top" xlink:title="3">
<text text-anchor="middle" x="143.39" y="-62.64" font-family="Helvetica,sans-Serif" font-size="10.00">3</text>
</a>
</g>
</g>
<!-- dir_0ae0216c5b903435324487dd13dfdff9 -->
<g id="node14" class="node">
<title>dir_0ae0216c5b903435324487dd13dfdff9</title>
<g id="a_node14"><a xlink:href="dir_0ae0216c5b903435324487dd13dfdff9.html" target="_top" xlink:title="views">
<polygon fill="white" stroke="black" points="155,-132 101,-132 101,-96 155,-96 155,-132"/>
<text text-anchor="middle" x="128" y="-111.5" font-family="Helvetica,sans-Serif" font-size="10.00">views</text>
</a>
</g>
</g>
<!-- dir_8c67632ad66eb9bf379bf849f1aad5d2&#45;&gt;dir_0ae0216c5b903435324487dd13dfdff9 -->
<g id="edge10" class="edge">
<title>dir_8c67632ad66eb9bf379bf849f1aad5d2&#45;&gt;dir_0ae0216c5b903435324487dd13dfdff9</title>
<path fill="none" stroke="black" d="M85.09,-167.7C91.92,-159.3 100.26,-149.07 107.76,-139.86"/>
<polygon fill="black" stroke="black" points="110.47,-142.07 114.07,-132.1 105.04,-137.65 110.47,-142.07"/>
<g id="a_edge10&#45;headlabel"><a xlink:href="dir_000003_000017.html" target="_top" xlink:title="3">
<text text-anchor="middle" x="110.4" y="-144.15" font-family="Helvetica,sans-Serif" font-size="10.00">3</text>
</a>
</g>
</g>
<!-- dir_634c6b228f937c8a89fa81bc2f240134 -->
<g id="node3" class="node">
<title>dir_634c6b228f937c8a89fa81bc2f240134</title>
<g id="a_node3"><a xlink:href="dir_634c6b228f937c8a89fa81bc2f240134.html" target="_top" xlink:title="algorithm">
<polygon fill="white" stroke="red" points="272,-204 208,-204 208,-168 272,-168 272,-204"/>
<text text-anchor="middle" x="240" y="-183.5" font-family="Helvetica,sans-Serif" font-size="10.00">algorithm</text>
</a>
</g>
</g>
<!-- dir_0ee0838bbed77bc71495b9458bcc4b6b -->
<g id="node7" class="node">
<title>dir_0ee0838bbed77bc71495b9458bcc4b6b</title>
<g id="a_node7"><a xlink:href="dir_0ee0838bbed77bc71495b9458bcc4b6b.html" target="_top" xlink:title="policies">
<polygon fill="white" stroke="black" points="236,-132 182,-132 182,-96 236,-96 236,-132"/>
<text text-anchor="middle" x="209" y="-111.5" font-family="Helvetica,sans-Serif" font-size="10.00">policies</text>
</a>
</g>
</g>
<!-- dir_634c6b228f937c8a89fa81bc2f240134&#45;&gt;dir_0ee0838bbed77bc71495b9458bcc4b6b -->
<g id="edge8" class="edge">
<title>dir_634c6b228f937c8a89fa81bc2f240134&#45;&gt;dir_0ee0838bbed77bc71495b9458bcc4b6b</title>
<path fill="none" stroke="black" d="M226.42,-167.7C222.12,-159.81 217.69,-150.3 214.18,-141.55"/>
<polygon fill="black" stroke="black" points="217.44,-140.26 210.68,-132.1 210.88,-142.7 217.44,-140.26"/>
<g id="a_edge8&#45;headlabel"><a xlink:href="dir_000004_000009.html" target="_top" xlink:title="1">
<text text-anchor="middle" x="221.35" y="-140.14" font-family="Helvetica,sans-Serif" font-size="10.00">1</text>
</a>
</g>
</g>
<!-- dir_634c6b228f937c8a89fa81bc2f240134&#45;&gt;dir_6311cd7a9afaa93eeee404de83766793 -->
<g id="edge9" class="edge">
<title>dir_634c6b228f937c8a89fa81bc2f240134&#45;&gt;dir_6311cd7a9afaa93eeee404de83766793</title>
<path fill="none" stroke="black" d="M245.4,-167.79C250.23,-149.25 255.14,-119.27 245,-96 240.07,-84.68 231.39,-74.68 222.27,-66.51"/>
<polygon fill="black" stroke="black" points="224.5,-63.81 214.58,-60.09 220.01,-69.19 224.5,-63.81"/>
<g id="a_edge9&#45;headlabel"><a xlink:href="dir_000004_000014.html" target="_top" xlink:title="2">
<text text-anchor="middle" x="229.08" y="-61.44" font-family="Helvetica,sans-Serif" font-size="10.00">2</text>
</a>
</g>
</g>
<!-- dir_634c6b228f937c8a89fa81bc2f240134&#45;&gt;dir_0ae0216c5b903435324487dd13dfdff9 -->
<g id="edge7" class="edge">
<title>dir_634c6b228f937c8a89fa81bc2f240134&#45;&gt;dir_0ae0216c5b903435324487dd13dfdff9</title>
<path fill="none" stroke="black" d="M212.6,-167.88C197.85,-158.66 179.47,-147.17 163.62,-137.26"/>
<polygon fill="black" stroke="black" points="165.45,-134.28 155.12,-131.95 161.74,-140.22 165.45,-134.28"/>
<g id="a_edge7&#45;headlabel"><a xlink:href="dir_000004_000017.html" target="_top" xlink:title="2">
<text text-anchor="middle" x="170" y="-131.28" font-family="Helvetica,sans-Serif" font-size="10.00">2</text>
</a>
</g>
</g>
<!-- dir_500caef060b471cfdd05b62a42e3142c -->
<g id="node13" class="node">
<title>dir_500caef060b471cfdd05b62a42e3142c</title>
<g id="a_node13"><a xlink:href="dir_500caef060b471cfdd05b62a42e3142c.html" target="_top" xlink:title="utility">
<polygon fill="white" stroke="black" points="98,-276 44,-276 44,-240 98,-240 98,-276"/>
<text text-anchor="middle" x="71" y="-255.5" font-family="Helvetica,sans-Serif" font-size="10.00">utility</text>
</a>
</g>
</g>
<!-- dir_3245ff25b92019e7f89fc2115bc7867e&#45;&gt;dir_500caef060b471cfdd05b62a42e3142c -->
<g id="edge6" class="edge">
<title>dir_3245ff25b92019e7f89fc2115bc7867e&#45;&gt;dir_500caef060b471cfdd05b62a42e3142c</title>
<path fill="none" stroke="black" d="M76.27,-311.7C75.5,-303.98 74.57,-294.71 73.71,-286.11"/>
<polygon fill="black" stroke="black" points="77.19,-285.71 72.71,-276.1 70.22,-286.4 77.19,-285.71"/>
<g id="a_edge6&#45;headlabel"><a xlink:href="dir_000006_000016.html" target="_top" xlink:title="1">
<text text-anchor="middle" x="80.37" y="-286.5" font-family="Helvetica,sans-Serif" font-size="10.00">1</text>
</a>
</g>
</g>
<!-- dir_3245ff25b92019e7f89fc2115bc7867e&#45;&gt;dir_0ae0216c5b903435324487dd13dfdff9 -->
<g id="edge5" class="edge">
<title>dir_3245ff25b92019e7f89fc2115bc7867e&#45;&gt;dir_0ae0216c5b903435324487dd13dfdff9</title>
<path fill="none" stroke="black" d="M89.67,-311.6C95.81,-301.6 102.9,-288.56 107,-276 121.76,-230.73 126.18,-175.11 127.49,-142.51"/>
<polygon fill="black" stroke="black" points="130.99,-142.49 127.82,-132.38 123.99,-142.26 130.99,-142.49"/>
<g id="a_edge5&#45;headlabel"><a xlink:href="dir_000006_000017.html" target="_top" xlink:title="1">
<text text-anchor="middle" x="133.71" y="-143.67" font-family="Helvetica,sans-Serif" font-size="10.00">1</text>
</a>
</g>
</g>
<!-- dir_b61f5b26177d4f0e7f42e2895ffd1c30 -->
<g id="node5" class="node">
<title>dir_b61f5b26177d4f0e7f42e2895ffd1c30</title>
<g id="a_node5"><a xlink:href="dir_b61f5b26177d4f0e7f42e2895ffd1c30.html" target="_top" xlink:title="detail">
<polygon fill="white" stroke="black" points="105,-420 51,-420 51,-384 105,-384 105,-420"/>
<text text-anchor="middle" x="78" y="-399.5" font-family="Helvetica,sans-Serif" font-size="10.00">detail</text>
</a>
</g>
</g>
<!-- dir_a3553bb43d48af21167f3919d16bc6f3&#45;&gt;dir_6311cd7a9afaa93eeee404de83766793 -->
<g id="edge12" class="edge">
<title>dir_a3553bb43d48af21167f3919d16bc6f3&#45;&gt;dir_6311cd7a9afaa93eeee404de83766793</title>
<path fill="none" stroke="black" d="M264.31,-239.78C270.65,-229.84 277.73,-216.8 281,-204 284.96,-188.5 284.04,-183.71 281,-168 274.44,-134.13 272.35,-123.85 252,-96 243.86,-84.86 232.87,-74.65 222.3,-66.23"/>
<polygon fill="black" stroke="black" points="224.42,-63.44 214.35,-60.15 220.17,-69 224.42,-63.44"/>
<g id="a_edge12&#45;headlabel"><a xlink:href="dir_000008_000014.html" target="_top" xlink:title="3">
<text text-anchor="middle" x="229" y="-60.87" font-family="Helvetica,sans-Serif" font-size="10.00">3</text>
</a>
</g>
</g>
<!-- dir_0ee0838bbed77bc71495b9458bcc4b6b&#45;&gt;dir_634c6b228f937c8a89fa81bc2f240134 -->
<g id="edge20" class="edge">
<title>dir_0ee0838bbed77bc71495b9458bcc4b6b&#45;&gt;dir_634c6b228f937c8a89fa81bc2f240134</title>
<path fill="none" stroke="black" d="M222.47,-132.1C226.77,-139.96 231.21,-149.46 234.73,-158.23"/>
<polygon fill="black" stroke="black" points="231.48,-159.55 238.25,-167.7 238.04,-157.1 231.48,-159.55"/>
<g id="a_edge20&#45;headlabel"><a xlink:href="dir_000009_000004.html" target="_top" xlink:title="1">
<text text-anchor="middle" x="227.57" y="-154.67" font-family="Helvetica,sans-Serif" font-size="10.00">1</text>
</a>
</g>
</g>
<!-- dir_c03a81e29d2f9f088aa073fa974eabbc&#45;&gt;dir_7ddb7368080dbe1879dd7372dd1df3df -->
<g id="edge1" class="edge">
<title>dir_c03a81e29d2f9f088aa073fa974eabbc&#45;&gt;dir_7ddb7368080dbe1879dd7372dd1df3df</title>
<path fill="none" stroke="black" d="M173.54,-311.7C172,-303.98 170.14,-294.71 168.42,-286.11"/>
<polygon fill="black" stroke="black" points="171.81,-285.22 166.42,-276.1 164.95,-286.6 171.81,-285.22"/>
<g id="a_edge1&#45;headlabel"><a xlink:href="dir_000010_000011.html" target="_top" xlink:title="1">
<text text-anchor="middle" x="175.3" y="-285.69" font-family="Helvetica,sans-Serif" font-size="10.00">1</text>
</a>
</g>
</g>
<!-- dir_7ddb7368080dbe1879dd7372dd1df3df&#45;&gt;dir_8c67632ad66eb9bf379bf849f1aad5d2 -->
<g id="edge3" class="edge">
<title>dir_7ddb7368080dbe1879dd7372dd1df3df&#45;&gt;dir_8c67632ad66eb9bf379bf849f1aad5d2</title>
<path fill="none" stroke="black" d="M140.26,-239.7C128.56,-230.8 114.14,-219.82 101.49,-210.2"/>
<polygon fill="black" stroke="black" points="103.56,-207.37 93.48,-204.1 99.32,-212.94 103.56,-207.37"/>
<g id="a_edge3&#45;headlabel"><a xlink:href="dir_000011_000003.html" target="_top" xlink:title="1">
<text text-anchor="middle" x="108.14" y="-204.79" font-family="Helvetica,sans-Serif" font-size="10.00">1</text>
</a>
</g>
</g>
<!-- dir_7ddb7368080dbe1879dd7372dd1df3df&#45;&gt;dir_634c6b228f937c8a89fa81bc2f240134 -->
<g id="edge2" class="edge">
<title>dir_7ddb7368080dbe1879dd7372dd1df3df&#45;&gt;dir_634c6b228f937c8a89fa81bc2f240134</title>
<path fill="none" stroke="black" d="M182.03,-239.7C191.54,-231.05 203.21,-220.45 213.57,-211.03"/>
<polygon fill="black" stroke="black" points="216.14,-213.42 221.19,-204.1 211.43,-208.24 216.14,-213.42"/>
<g id="a_edge2&#45;headlabel"><a xlink:href="dir_000011_000004.html" target="_top" xlink:title="2">
<text text-anchor="middle" x="215.39" y="-215.44" font-family="Helvetica,sans-Serif" font-size="10.00">2</text>
</a>
</g>
</g>
<!-- dir_a695b385a3d14b7fe3275ff1f0b9cead -->
<g id="node12" class="node">
<title>dir_a695b385a3d14b7fe3275ff1f0b9cead</title>
<g id="a_node12"><a xlink:href="dir_a695b385a3d14b7fe3275ff1f0b9cead.html" target="_top" xlink:title="types">
<polygon fill="white" stroke="black" points="190,-204 136,-204 136,-168 190,-168 190,-204"/>
<text text-anchor="middle" x="163" y="-183.5" font-family="Helvetica,sans-Serif" font-size="10.00">types</text>
</a>
</g>
</g>
<!-- dir_7ddb7368080dbe1879dd7372dd1df3df&#45;&gt;dir_a695b385a3d14b7fe3275ff1f0b9cead -->
<g id="edge4" class="edge">
<title>dir_7ddb7368080dbe1879dd7372dd1df3df&#45;&gt;dir_a695b385a3d14b7fe3275ff1f0b9cead</title>
<path fill="none" stroke="black" d="M163,-239.7C163,-231.98 163,-222.71 163,-214.11"/>
<polygon fill="black" stroke="black" points="166.5,-214.1 163,-204.1 159.5,-214.1 166.5,-214.1"/>
<g id="a_edge4&#45;headlabel"><a xlink:href="dir_000011_000015.html" target="_top" xlink:title="3">
<text text-anchor="middle" x="169.34" y="-215.2" font-family="Helvetica,sans-Serif" font-size="10.00">3</text>
</a>
</g>
</g>
<!-- dir_0ae0216c5b903435324487dd13dfdff9&#45;&gt;dir_6311cd7a9afaa93eeee404de83766793 -->
<g id="edge19" class="edge">
<title>dir_0ae0216c5b903435324487dd13dfdff9&#45;&gt;dir_6311cd7a9afaa93eeee404de83766793</title>
<path fill="none" stroke="black" d="M142.83,-95.7C150.02,-87.3 158.8,-77.07 166.69,-67.86"/>
<polygon fill="black" stroke="black" points="169.49,-69.97 173.34,-60.1 164.17,-65.42 169.49,-69.97"/>
<g id="a_edge19&#45;headlabel"><a xlink:href="dir_000017_000014.html" target="_top" xlink:title="2">
<text text-anchor="middle" x="169.31" y="-72.05" font-family="Helvetica,sans-Serif" font-size="10.00">2</text>
</a>
</g>
</g>
</g>
</svg>
        <g id="navigator" transform="translate(0 0)" fill="#404254">
                <rect fill="#f2f5e9" fill-opacity="0.5" stroke="#606060" stroke-width=".5" x="0" y="0" width="60" height="60"/>
                <use id="zoomplus" xlink:href="#zoomPlus" x="17" y="9" onmousedown="handleZoom(evt,'in')"/>
                <use id="zoomminus" xlink:href="#zoomMin" x="42" y="9" onmousedown="handleZoom(evt,'out')"/>
                <use id="reset" xlink:href="#resetDef" x="30" y="36" onmousedown="handleReset()"/>
                <g id="arrowUp" xlink:href="#dirArrow" transform="translate(30 24)" onmousedown="handlePan(0,-1)">
                  <use xlink:href="#rim" fill="#404040">
                        <set attributeName="fill" to="#808080" begin="arrowUp.mouseover" end="arrowUp.mouseout"/>
                  </use>
                  <path fill="none" stroke="white" stroke-width="1.5" d="M0,-3.0v7 M-2.5,-0.5L0,-3.0L2.5,-0.5"/>
                </g>
                <g id="arrowRight" xlink:href="#dirArrow" transform="rotate(90) translate(36 -43)" onmousedown="handlePan(1,0)">
                  <use xlink:href="#rim" fill="#404040">
                        <set attributeName="fill" to="#808080" begin="arrowRight.mouseover" end="arrowRight.mouseout"/>
                  </use>
                  <path fill="none" stroke="white" stroke-width="1.5" d="M0,-3.0v7 M-2.5,-0.5L0,-3.0L2.5,-0.5"/>
                </g>
                <g id="arrowDown" xlink:href="#dirArrow" transform="rotate(180) translate(-30 -48)" onmousedown="handlePan(0,1)">
                  <use xlink:href="#rim" fill="#404040">
                        <set attributeName="fill" to="#808080" begin="arrowDown.mouseover" end="arrowDown.mouseout"/>
                  </use>
                  <path fill="none" stroke="white" stroke-width="1.5" d="M0,-3.0v7 M-2.5,-0.5L0,-3.0L2.5,-0.5"/>
                </g>
                <g id="arrowLeft" xlink:href="#dirArrow" transform="rotate(270) translate(-36 17)" onmousedown="handlePan(-1,0)">
                  <use xlink:href="#rim" fill="#404040">
                        <set attributeName="fill" to="#808080" begin="arrowLeft.mouseover" end="arrowLeft.mouseout"/>
                  </use>
                  <path fill="none" stroke="white" stroke-width="1.5" d="M0,-3.0v7 M-2.5,-0.5L0,-3.0L2.5,-0.5"/>
                </g>
        </g>
        <svg viewBox="0 0 15 15" width="100%" height="30px" preserveAspectRatio="xMaxYMin meet">
         <g id="arrow_out" transform="scale(0.3 0.3)">
          <a xlink:href="dir_1ad523cfdb7a3d7d09cddf672d6cd478_dep_org.svg" target="_base">
           <rect id="button" ry="5" rx="5" y="6" x="6" height="38" width="38"
                fill="#f2f5e9" fill-opacity="0.5" stroke="#606060" stroke-width="1.0"/>
           <path id="arrow"
             d="M 11.500037,31.436501 C 11.940474,20.09759 22.043105,11.32322 32.158766,21.979434 L 37.068811,17.246167 C 37.068811,17.246167 37.088388,32 37.088388,32 L 22.160133,31.978069 C 22.160133,31.978069 26.997745,27.140456 26.997745,27.140456 C 18.528582,18.264221 13.291696,25.230495 11.500037,31.436501 z"
             style="fill:#404040;"/>
          </a>
         </g>
        </svg>
</svg>
