<?xml version="1.0" encoding="UTF-8" standalone="no"?>
<!DOCTYPE svg PUBLIC "-//W3C//DTD SVG 1.1//EN"
 "http://www.w3.org/Graphics/SVG/1.1/DTD/svg11.dtd">
<!-- Generated by graphviz version 2.43.0 (0)
 -->
<!-- Title: /home/runner/work/beluga/beluga/beluga/include/beluga Pages: 1 -->
<!--zoomable 471 -->
<svg id="main" version="1.1" xmlns="http://www.w3.org/2000/svg" xmlns:xlink="http://www.w3.org/1999/xlink" xml:space="preserve" onload="init(evt)">
<style type="text/css"><![CDATA[
.edge:hover path { stroke: red; }
.edge:hover polygon { stroke: red; fill: red; }
]]></style>
<script type="text/javascript"><![CDATA[
var edges = document.getElementsByTagName('g');
if (edges && edges.length) {
  for (var i=0;i<edges.length;i++) {
    if (edges[i].id.substr(0,4)=='edge') {
      edges[i].setAttribute('class','edge');
    }
  }
}
]]></script>
        <defs>
                <circle id="rim" cx="0" cy="0" r="7"/>
                <circle id="rim2" cx="0" cy="0" r="3.5"/>
                <g id="zoomPlus">
                        <use xlink:href="#rim" fill="#404040">
                                <set attributeName="fill" to="#808080" begin="zoomplus.mouseover" end="zoomplus.mouseout"/>
                        </use>
                        <path d="M-4,0h8M0,-4v8" fill="none" stroke="white" stroke-width="1.5" pointer-events="none"/>
                </g>
                <g id="zoomMin">
                        <use xlink:href="#rim" fill="#404040">
                                <set attributeName="fill" to="#808080" begin="zoomminus.mouseover" end="zoomminus.mouseout"/>
                        </use>
                        <path d="M-4,0h8" fill="none" stroke="white" stroke-width="1.5" pointer-events="none"/>
                </g>
                <g id="dirArrow">
                        <path fill="none" stroke="white" stroke-width="1.5" d="M0,-3.0v7 M-2.5,-0.5L0,-3.0L2.5,-0.5"/>
                </g>
               <g id="resetDef">
                       <use xlink:href="#rim2" fill="#404040">
                               <set attributeName="fill" to="#808080" begin="reset.mouseover" end="reset.mouseout"/>
                       </use>
               </g>
        </defs>

<script type="text/javascript">
var viewWidth = 376;
var viewHeight = 471;
var sectionId = 'dynsection-0';
</script>
<script xlink:href="svgpan.js"/>
<svg id="graph" class="graph">
<g id="viewport">
<title>/home/runner/work/beluga/beluga/beluga/include/beluga</title>
<g id="clust1" class="cluster">
<title>clusterdir_d44c64559bbebec7f509842c48db8b23</title>
<g id="a_clust1"><a xlink:href="dir_d44c64559bbebec7f509842c48db8b23.html" target="_top" xlink:title="include">
<polygon fill="#ddddee" stroke="black" points="8,-8 8,-455 360,-455 360,-8 8,-8"/>
<text text-anchor="middle" x="184" y="-443" font-family="Helvetica,sans-Serif" font-size="10.00">include</text>
</a>
</g>
</g>
<g id="clust2" class="cluster">
<title>clusterdir_1ad523cfdb7a3d7d09cddf672d6cd478</title>
<g id="a_clust2"><a xlink:href="dir_1ad523cfdb7a3d7d09cddf672d6cd478.html" target="_top">
<polygon fill="#eeeeff" stroke="black" points="16,-16 16,-428 352,-428 352,-16 16,-16"/>
</a>
</g>
</g>
<!-- dir_1ad523cfdb7a3d7d09cddf672d6cd478 -->
<g id="node1" class="node">
<title>dir_1ad523cfdb7a3d7d09cddf672d6cd478</title>
<text text-anchor="middle" x="205" y="-399.5" font-family="Helvetica,sans-Serif" font-size="10.00">beluga</text>
</g>
<!-- dir_8c67632ad66eb9bf379bf849f1aad5d2 -->
<g id="node2" class="node">
<title>dir_8c67632ad66eb9bf379bf849f1aad5d2</title>
<g id="a_node2"><a xlink:href="dir_8c67632ad66eb9bf379bf849f1aad5d2.html" target="_top" xlink:title="actions">
<polygon fill="white" stroke="black" points="78,-204 24,-204 24,-168 78,-168 78,-204"/>
<text text-anchor="middle" x="51" y="-183.5" font-family="Helvetica,sans-Serif" font-size="10.00">actions</text>
</a>
</g>
</g>
<!-- dir_1ad523cfdb7a3d7d09cddf672d6cd478&#45;&gt;dir_8c67632ad66eb9bf379bf849f1aad5d2 -->
<g id="edge17" class="edge">
<title>dir_1ad523cfdb7a3d7d09cddf672d6cd478&#45;&gt;dir_8c67632ad66eb9bf379bf849f1aad5d2</title>
<path fill="none" stroke="black" d="M177.82,-393.73C141.46,-383.54 79.63,-364.4 63,-348 27.7,-313.18 27.76,-289.06 35,-240 36.28,-231.35 38.67,-222.15 41.22,-213.89"/>
<polygon fill="black" stroke="black" points="44.55,-214.96 44.35,-204.37 37.9,-212.78 44.55,-214.96"/>
<g id="a_edge17&#45;headlabel"><a xlink:href="dir_000002_000003.html" target="_top" xlink:title="5">
<text text-anchor="middle" x="46.12" y="-216.77" font-family="Helvetica,sans-Serif" font-size="10.00">5</text>
</a>
</g>
</g>
<!-- dir_3245ff25b92019e7f89fc2115bc7867e -->
<g id="node4" class="node">
<title>dir_3245ff25b92019e7f89fc2115bc7867e</title>
<g id="a_node4"><a xlink:href="dir_3245ff25b92019e7f89fc2115bc7867e.html" target="_top" xlink:title="containers">
<polygon fill="white" stroke="black" points="140,-348 72,-348 72,-312 140,-312 140,-348"/>
<text text-anchor="middle" x="106" y="-327.5" font-family="Helvetica,sans-Serif" font-size="10.00">containers</text>
</a>
</g>
</g>
<!-- dir_1ad523cfdb7a3d7d09cddf672d6cd478&#45;&gt;dir_3245ff25b92019e7f89fc2115bc7867e -->
<g id="edge14" class="edge">
<title>dir_1ad523cfdb7a3d7d09cddf672d6cd478&#45;&gt;dir_3245ff25b92019e7f89fc2115bc7867e</title>
<path fill="none" stroke="black" d="M180.78,-383.88C168.08,-374.89 152.34,-363.76 138.58,-354.03"/>
<polygon fill="black" stroke="black" points="140.5,-351.11 130.31,-348.19 136.46,-356.82 140.5,-351.11"/>
<g id="a_edge14&#45;headlabel"><a xlink:href="dir_000002_000006.html" target="_top" xlink:title="2">
<text text-anchor="middle" x="145.07" y="-348.36" font-family="Helvetica,sans-Serif" font-size="10.00">2</text>
</a>
</g>
</g>
<!-- dir_8c10e172254770a37ae9492abb15e27f -->
<g id="node6" class="node">
<title>dir_8c10e172254770a37ae9492abb15e27f</title>
<g id="a_node6"><a xlink:href="dir_8c10e172254770a37ae9492abb15e27f.html" target="_top" xlink:title="mixins">
<polygon fill="white" stroke="black" points="324,-204 270,-204 270,-168 324,-168 324,-204"/>
<text text-anchor="middle" x="297" y="-183.5" font-family="Helvetica,sans-Serif" font-size="10.00">mixins</text>
</a>
</g>
</g>
<!-- dir_1ad523cfdb7a3d7d09cddf672d6cd478&#45;&gt;dir_8c10e172254770a37ae9492abb15e27f -->
<g id="edge16" class="edge">
<title>dir_1ad523cfdb7a3d7d09cddf672d6cd478&#45;&gt;dir_8c10e172254770a37ae9492abb15e27f</title>
<path fill="none" stroke="black" d="M218.86,-383.72C226.3,-373.76 235.11,-360.72 241,-348 261.94,-302.8 253.29,-286.56 271,-240 274.39,-231.09 278.75,-221.66 282.92,-213.26"/>
<polygon fill="black" stroke="black" points="286.07,-214.8 287.5,-204.3 279.83,-211.62 286.07,-214.8"/>
<g id="a_edge16&#45;headlabel"><a xlink:href="dir_000002_000008.html" target="_top" xlink:title="5">
<text text-anchor="middle" x="286.96" y="-216.79" font-family="Helvetica,sans-Serif" font-size="10.00">5</text>
</a>
</g>
</g>
<!-- dir_a3553bb43d48af21167f3919d16bc6f3 -->
<g id="node7" class="node">
<title>dir_a3553bb43d48af21167f3919d16bc6f3</title>
<g id="a_node7"><a xlink:href="dir_a3553bb43d48af21167f3919d16bc6f3.html" target="_top" xlink:title="motion">
<polygon fill="white" stroke="black" points="334,-276 280,-276 280,-240 334,-240 334,-276"/>
<text text-anchor="middle" x="307" y="-255.5" font-family="Helvetica,sans-Serif" font-size="10.00">motion</text>
</a>
</g>
</g>
<!-- dir_1ad523cfdb7a3d7d09cddf672d6cd478&#45;&gt;dir_a3553bb43d48af21167f3919d16bc6f3 -->
<g id="edge19" class="edge">
<title>dir_1ad523cfdb7a3d7d09cddf672d6cd478&#45;&gt;dir_a3553bb43d48af21167f3919d16bc6f3</title>
<path fill="none" stroke="black" d="M223.63,-383.84C233.84,-373.91 246.35,-360.87 256,-348 270.92,-328.1 284.74,-303.43 294.22,-285.11"/>
<polygon fill="black" stroke="black" points="297.35,-286.67 298.76,-276.17 291.11,-283.5 297.35,-286.67"/>
<g id="a_edge19&#45;headlabel"><a xlink:href="dir_000002_000009.html" target="_top" xlink:title="3">
<text text-anchor="middle" x="298.25" y="-288.66" font-family="Helvetica,sans-Serif" font-size="10.00">3</text>
</a>
</g>
</g>
<!-- dir_c03a81e29d2f9f088aa073fa974eabbc -->
<g id="node9" class="node">
<title>dir_c03a81e29d2f9f088aa073fa974eabbc</title>
<g id="a_node9"><a xlink:href="dir_c03a81e29d2f9f088aa073fa974eabbc.html" target="_top" xlink:title="random">
<polygon fill="white" stroke="black" points="232,-348 178,-348 178,-312 232,-312 232,-348"/>
<text text-anchor="middle" x="205" y="-327.5" font-family="Helvetica,sans-Serif" font-size="10.00">random</text>
</a>
</g>
</g>
<!-- dir_1ad523cfdb7a3d7d09cddf672d6cd478&#45;&gt;dir_c03a81e29d2f9f088aa073fa974eabbc -->
<g id="edge20" class="edge">
<title>dir_1ad523cfdb7a3d7d09cddf672d6cd478&#45;&gt;dir_c03a81e29d2f9f088aa073fa974eabbc</title>
<path fill="none" stroke="black" d="M205,-383.7C205,-375.98 205,-366.71 205,-358.11"/>
<polygon fill="black" stroke="black" points="208.5,-358.1 205,-348.1 201.5,-358.1 208.5,-358.1"/>
<g id="a_edge20&#45;headlabel"><a xlink:href="dir_000002_000012.html" target="_top" xlink:title="2">
<text text-anchor="middle" x="211.34" y="-359.2" font-family="Helvetica,sans-Serif" font-size="10.00">2</text>
</a>
</g>
</g>
<!-- dir_7ddb7368080dbe1879dd7372dd1df3df -->
<g id="node10" class="node">
<title>dir_7ddb7368080dbe1879dd7372dd1df3df</title>
<g id="a_node10"><a xlink:href="dir_7ddb7368080dbe1879dd7372dd1df3df.html" target="_top" xlink:title="sensor">
<polygon fill="white" stroke="red" points="211,-276 157,-276 157,-240 211,-240 211,-276"/>
<text text-anchor="middle" x="184" y="-255.5" font-family="Helvetica,sans-Serif" font-size="10.00">sensor</text>
</a>
</g>
</g>
<!-- dir_1ad523cfdb7a3d7d09cddf672d6cd478&#45;&gt;dir_7ddb7368080dbe1879dd7372dd1df3df -->
<g id="edge15" class="edge">
<title>dir_1ad523cfdb7a3d7d09cddf672d6cd478&#45;&gt;dir_7ddb7368080dbe1879dd7372dd1df3df</title>
<path fill="none" stroke="black" d="M189.39,-383.77C181.63,-374.03 173.05,-361.18 169,-348 162.7,-327.5 167.42,-303.47 173.19,-285.55"/>
<polygon fill="black" stroke="black" points="176.52,-286.63 176.53,-276.04 169.91,-284.31 176.52,-286.63"/>
<g id="a_edge15&#45;headlabel"><a xlink:href="dir_000002_000011.html" target="_top" xlink:title="8">
<text text-anchor="middle" x="178.01" y="-288.46" font-family="Helvetica,sans-Serif" font-size="10.00">8</text>
</a>
</g>
</g>
<!-- dir_8cfff6e4809896f1b09096e04b4d983e -->
<g id="node11" class="node">
<title>dir_8cfff6e4809896f1b09096e04b4d983e</title>
<g id="a_node11"><a xlink:href="dir_8cfff6e4809896f1b09096e04b4d983e.html" target="_top" xlink:title="testing">
<polygon fill="white" stroke="black" points="344,-348 290,-348 290,-312 344,-312 344,-348"/>
<text text-anchor="middle" x="317" y="-327.5" font-family="Helvetica,sans-Serif" font-size="10.00">testing</text>
</a>
</g>
</g>
<!-- dir_1ad523cfdb7a3d7d09cddf672d6cd478&#45;&gt;dir_8cfff6e4809896f1b09096e04b4d983e -->
<g id="edge18" class="edge">
<title>dir_1ad523cfdb7a3d7d09cddf672d6cd478&#45;&gt;dir_8cfff6e4809896f1b09096e04b4d983e</title>
<path fill="none" stroke="black" d="M232.11,-384.05C246.86,-374.84 265.29,-363.32 281.21,-353.37"/>
<polygon fill="black" stroke="black" points="283.12,-356.3 289.75,-348.03 279.41,-350.36 283.12,-356.3"/>
<g id="a_edge18&#45;headlabel"><a xlink:href="dir_000002_000014.html" target="_top" xlink:title="2">
<text text-anchor="middle" x="281.58" y="-358.11" font-family="Helvetica,sans-Serif" font-size="10.00">2</text>
</a>
</g>
</g>
<!-- dir_6311cd7a9afaa93eeee404de83766793 -->
<g id="node12" class="node">
<title>dir_6311cd7a9afaa93eeee404de83766793</title>
<g id="a_node12"><a xlink:href="dir_6311cd7a9afaa93eeee404de83766793.html" target="_top" xlink:title="type_traits">
<polygon fill="white" stroke="black" points="179.5,-60 110.5,-60 110.5,-24 179.5,-24 179.5,-60"/>
<text text-anchor="middle" x="145" y="-39.5" font-family="Helvetica,sans-Serif" font-size="10.00">type_traits</text>
</a>
</g>
</g>
<!-- dir_8c67632ad66eb9bf379bf849f1aad5d2&#45;&gt;dir_6311cd7a9afaa93eeee404de83766793 -->
<g id="edge12" class="edge">
<title>dir_8c67632ad66eb9bf379bf849f1aad5d2&#45;&gt;dir_6311cd7a9afaa93eeee404de83766793</title>
<path fill="none" stroke="black" d="M45.9,-167.94C41.29,-148.97 37.01,-118.12 50,-96 61.04,-77.19 81.46,-64.57 100.54,-56.37"/>
<polygon fill="black" stroke="black" points="102.05,-59.54 110.05,-52.59 99.46,-53.04 102.05,-59.54"/>
<g id="a_edge12&#45;headlabel"><a xlink:href="dir_000003_000015.html" target="_top" xlink:title="3">
<text text-anchor="middle" x="99.76" y="-61.01" font-family="Helvetica,sans-Serif" font-size="10.00">3</text>
</a>
</g>
</g>
<!-- dir_0ae0216c5b903435324487dd13dfdff9 -->
<g id="node15" class="node">
<title>dir_0ae0216c5b903435324487dd13dfdff9</title>
<g id="a_node15"><a xlink:href="dir_0ae0216c5b903435324487dd13dfdff9.html" target="_top" xlink:title="views">
<polygon fill="white" stroke="black" points="113,-132 59,-132 59,-96 113,-96 113,-132"/>
<text text-anchor="middle" x="86" y="-111.5" font-family="Helvetica,sans-Serif" font-size="10.00">views</text>
</a>
</g>
</g>
<!-- dir_8c67632ad66eb9bf379bf849f1aad5d2&#45;&gt;dir_0ae0216c5b903435324487dd13dfdff9 -->
<g id="edge11" class="edge">
<title>dir_8c67632ad66eb9bf379bf849f1aad5d2&#45;&gt;dir_0ae0216c5b903435324487dd13dfdff9</title>
<path fill="none" stroke="black" d="M59.65,-167.7C63.64,-159.73 68.45,-150.1 72.87,-141.26"/>
<polygon fill="black" stroke="black" points="76.11,-142.61 77.45,-132.1 69.85,-139.48 76.11,-142.61"/>
<g id="a_edge11&#45;headlabel"><a xlink:href="dir_000003_000018.html" target="_top" xlink:title="3">
<text text-anchor="middle" x="77.04" y="-144.6" font-family="Helvetica,sans-Serif" font-size="10.00">3</text>
</a>
</g>
</g>
<!-- dir_634c6b228f937c8a89fa81bc2f240134 -->
<g id="node3" class="node">
<title>dir_634c6b228f937c8a89fa81bc2f240134</title>
<g id="a_node3"><a xlink:href="dir_634c6b228f937c8a89fa81bc2f240134.html" target="_top" xlink:title="algorithm">
<polygon fill="white" stroke="red" points="180,-204 116,-204 116,-168 180,-168 180,-204"/>
<text text-anchor="middle" x="148" y="-183.5" font-family="Helvetica,sans-Serif" font-size="10.00">algorithm</text>
</a>
</g>
</g>
<!-- dir_0ee0838bbed77bc71495b9458bcc4b6b -->
<g id="node8" class="node">
<title>dir_0ee0838bbed77bc71495b9458bcc4b6b</title>
<g id="a_node8"><a xlink:href="dir_0ee0838bbed77bc71495b9458bcc4b6b.html" target="_top" xlink:title="policies">
<polygon fill="white" stroke="black" points="185,-132 131,-132 131,-96 185,-96 185,-132"/>
<text text-anchor="middle" x="158" y="-111.5" font-family="Helvetica,sans-Serif" font-size="10.00">policies</text>
</a>
</g>
</g>
<!-- dir_634c6b228f937c8a89fa81bc2f240134&#45;&gt;dir_0ee0838bbed77bc71495b9458bcc4b6b -->
<g id="edge9" class="edge">
<title>dir_634c6b228f937c8a89fa81bc2f240134&#45;&gt;dir_0ee0838bbed77bc71495b9458bcc4b6b</title>
<path fill="none" stroke="black" d="M144.56,-167.7C144.86,-159.98 145.96,-150.71 147.53,-142.11"/>
<polygon fill="black" stroke="black" points="151,-142.61 149.66,-132.1 144.16,-141.16 151,-142.61"/>
<g id="a_edge9&#45;headlabel"><a xlink:href="dir_000004_000010.html" target="_top" xlink:title="1">
<text text-anchor="middle" x="153.03" y="-144.22" font-family="Helvetica,sans-Serif" font-size="10.00">1</text>
</a>
</g>
</g>
<!-- dir_634c6b228f937c8a89fa81bc2f240134&#45;&gt;dir_6311cd7a9afaa93eeee404de83766793 -->
<g id="edge10" class="edge">
<title>dir_634c6b228f937c8a89fa81bc2f240134&#45;&gt;dir_6311cd7a9afaa93eeee404de83766793</title>
<path fill="none" stroke="black" d="M168.82,-167.62C178.46,-158.2 188.89,-145.7 194,-132 199.6,-117.01 199.83,-110.9 194,-96 189.8,-85.28 182.31,-75.43 174.42,-67.2"/>
<polygon fill="black" stroke="black" points="176.76,-64.59 167.15,-60.13 171.88,-69.61 176.76,-64.59"/>
<g id="a_edge10&#45;headlabel"><a xlink:href="dir_000004_000015.html" target="_top" xlink:title="2">
<text text-anchor="middle" x="181.32" y="-62.57" font-family="Helvetica,sans-Serif" font-size="10.00">2</text>
</a>
</g>
</g>
<!-- dir_634c6b228f937c8a89fa81bc2f240134&#45;&gt;dir_0ae0216c5b903435324487dd13dfdff9 -->
<g id="edge8" class="edge">
<title>dir_634c6b228f937c8a89fa81bc2f240134&#45;&gt;dir_0ae0216c5b903435324487dd13dfdff9</title>
<path fill="none" stroke="black" d="M132.67,-167.7C125.24,-159.3 116.18,-149.07 108.02,-139.86"/>
<polygon fill="black" stroke="black" points="110.4,-137.27 101.15,-132.1 105.16,-141.91 110.4,-137.27"/>
<g id="a_edge8&#45;headlabel"><a xlink:href="dir_000004_000018.html" target="_top" xlink:title="2">
<text text-anchor="middle" x="114.91" y="-135.58" font-family="Helvetica,sans-Serif" font-size="10.00">2</text>
</a>
</g>
</g>
<!-- dir_500caef060b471cfdd05b62a42e3142c -->
<g id="node14" class="node">
<title>dir_500caef060b471cfdd05b62a42e3142c</title>
<g id="a_node14"><a xlink:href="dir_500caef060b471cfdd05b62a42e3142c.html" target="_top" xlink:title="utility">
<polygon fill="white" stroke="black" points="98,-276 44,-276 44,-240 98,-240 98,-276"/>
<text text-anchor="middle" x="71" y="-255.5" font-family="Helvetica,sans-Serif" font-size="10.00">utility</text>
</a>
</g>
</g>
<!-- dir_3245ff25b92019e7f89fc2115bc7867e&#45;&gt;dir_500caef060b471cfdd05b62a42e3142c -->
<g id="edge7" class="edge">
<title>dir_3245ff25b92019e7f89fc2115bc7867e&#45;&gt;dir_500caef060b471cfdd05b62a42e3142c</title>
<path fill="none" stroke="black" d="M97.35,-311.7C93.36,-303.73 88.55,-294.1 84.13,-285.26"/>
<polygon fill="black" stroke="black" points="87.15,-283.48 79.55,-276.1 80.89,-286.61 87.15,-283.48"/>
<g id="a_edge7&#45;headlabel"><a xlink:href="dir_000006_000017.html" target="_top" xlink:title="1">
<text text-anchor="middle" x="91.3" y="-282.93" font-family="Helvetica,sans-Serif" font-size="10.00">1</text>
</a>
</g>
</g>
<!-- dir_3245ff25b92019e7f89fc2115bc7867e&#45;&gt;dir_0ae0216c5b903435324487dd13dfdff9 -->
<g id="edge6" class="edge">
<title>dir_3245ff25b92019e7f89fc2115bc7867e&#45;&gt;dir_0ae0216c5b903435324487dd13dfdff9</title>
<path fill="none" stroke="black" d="M106.41,-311.82C106.63,-301.44 106.89,-287.96 107,-276 107.15,-260 108.33,-255.94 107,-240 104.17,-206.04 97.08,-167.42 91.92,-142.21"/>
<polygon fill="black" stroke="black" points="95.31,-141.35 89.84,-132.28 88.46,-142.78 95.31,-141.35"/>
<g id="a_edge6&#45;headlabel"><a xlink:href="dir_000006_000018.html" target="_top" xlink:title="1">
<text text-anchor="middle" x="98.83" y="-141.79" font-family="Helvetica,sans-Serif" font-size="10.00">1</text>
</a>
</g>
</g>
<!-- dir_b61f5b26177d4f0e7f42e2895ffd1c30 -->
<g id="node5" class="node">
<title>dir_b61f5b26177d4f0e7f42e2895ffd1c30</title>
<g id="a_node5"><a xlink:href="dir_b61f5b26177d4f0e7f42e2895ffd1c30.html" target="_top" xlink:title="detail">
<polygon fill="white" stroke="black" points="119,-420 65,-420 65,-384 119,-384 119,-420"/>
<text text-anchor="middle" x="92" y="-399.5" font-family="Helvetica,sans-Serif" font-size="10.00">detail</text>
</a>
</g>
</g>
<!-- dir_a3553bb43d48af21167f3919d16bc6f3&#45;&gt;dir_6311cd7a9afaa93eeee404de83766793 -->
<g id="edge13" class="edge">
<title>dir_a3553bb43d48af21167f3919d16bc6f3&#45;&gt;dir_6311cd7a9afaa93eeee404de83766793</title>
<path fill="none" stroke="black" d="M319.49,-239.79C331.29,-221.25 345.47,-191.27 333,-168 302.81,-111.68 234.82,-76.4 189.43,-58.2"/>
<polygon fill="black" stroke="black" points="190.41,-54.83 179.82,-54.47 187.88,-61.35 190.41,-54.83"/>
<g id="a_edge13&#45;headlabel"><a xlink:href="dir_000009_000015.html" target="_top" xlink:title="3">
<text text-anchor="middle" x="194.79" y="-50.98" font-family="Helvetica,sans-Serif" font-size="10.00">3</text>
</a>
</g>
</g>
<!-- dir_0ee0838bbed77bc71495b9458bcc4b6b&#45;&gt;dir_634c6b228f937c8a89fa81bc2f240134 -->
<g id="edge22" class="edge">
<title>dir_0ee0838bbed77bc71495b9458bcc4b6b&#45;&gt;dir_634c6b228f937c8a89fa81bc2f240134</title>
<path fill="none" stroke="black" d="M161.45,-132.1C161.16,-139.79 160.07,-149.05 158.51,-157.67"/>
<polygon fill="black" stroke="black" points="155.03,-157.19 156.39,-167.7 161.88,-158.64 155.03,-157.19"/>
<g id="a_edge22&#45;headlabel"><a xlink:href="dir_000010_000004.html" target="_top" xlink:title="1">
<text text-anchor="middle" x="153" y="-150.58" font-family="Helvetica,sans-Serif" font-size="10.00">1</text>
</a>
</g>
</g>
<!-- dir_c03a81e29d2f9f088aa073fa974eabbc&#45;&gt;dir_7ddb7368080dbe1879dd7372dd1df3df -->
<g id="edge1" class="edge">
<title>dir_c03a81e29d2f9f088aa073fa974eabbc&#45;&gt;dir_7ddb7368080dbe1879dd7372dd1df3df</title>
<path fill="none" stroke="black" d="M199.81,-311.7C197.47,-303.9 194.65,-294.51 192.05,-285.83"/>
<polygon fill="black" stroke="black" points="195.36,-284.68 189.13,-276.1 188.65,-286.69 195.36,-284.68"/>
<g id="a_edge1&#45;headlabel"><a xlink:href="dir_000012_000011.html" target="_top" xlink:title="1">
<text text-anchor="middle" x="199.11" y="-284.8" font-family="Helvetica,sans-Serif" font-size="10.00">1</text>
</a>
</g>
</g>
<!-- dir_7ddb7368080dbe1879dd7372dd1df3df&#45;&gt;dir_8c67632ad66eb9bf379bf849f1aad5d2 -->
<g id="edge4" class="edge">
<title>dir_7ddb7368080dbe1879dd7372dd1df3df&#45;&gt;dir_8c67632ad66eb9bf379bf849f1aad5d2</title>
<path fill="none" stroke="black" d="M156.76,-242.67C136.68,-232.1 109.16,-217.61 87.22,-206.06"/>
<polygon fill="black" stroke="black" points="88.68,-202.88 78.2,-201.32 85.42,-209.07 88.68,-202.88"/>
<g id="a_edge4&#45;headlabel"><a xlink:href="dir_000011_000003.html" target="_top" xlink:title="1">
<text text-anchor="middle" x="93.18" y="-199.54" font-family="Helvetica,sans-Serif" font-size="10.00">1</text>
</a>
</g>
</g>
<!-- dir_7ddb7368080dbe1879dd7372dd1df3df&#45;&gt;dir_634c6b228f937c8a89fa81bc2f240134 -->
<g id="edge2" class="edge">
<title>dir_7ddb7368080dbe1879dd7372dd1df3df&#45;&gt;dir_634c6b228f937c8a89fa81bc2f240134</title>
<path fill="none" stroke="black" d="M175.1,-239.7C171,-231.73 166.05,-222.1 161.51,-213.26"/>
<polygon fill="black" stroke="black" points="164.48,-211.4 156.8,-204.1 158.26,-214.6 164.48,-211.4"/>
<g id="a_edge2&#45;headlabel"><a xlink:href="dir_000011_000004.html" target="_top" xlink:title="2">
<text text-anchor="middle" x="168.65" y="-210.79" font-family="Helvetica,sans-Serif" font-size="10.00">2</text>
</a>
</g>
</g>
<!-- dir_7ddb7368080dbe1879dd7372dd1df3df&#45;&gt;dir_8c10e172254770a37ae9492abb15e27f -->
<g id="edge3" class="edge">
<title>dir_7ddb7368080dbe1879dd7372dd1df3df&#45;&gt;dir_8c10e172254770a37ae9492abb15e27f</title>
<path fill="none" stroke="black" d="M211.07,-240.23C226.05,-230.95 244.87,-219.29 261.07,-209.26"/>
<polygon fill="black" stroke="black" points="263.1,-212.11 269.76,-203.87 259.42,-206.16 263.1,-212.11"/>
<g id="a_edge3&#45;headlabel"><a xlink:href="dir_000011_000008.html" target="_top" xlink:title="4">
<text text-anchor="middle" x="261.54" y="-213.92" font-family="Helvetica,sans-Serif" font-size="10.00">4</text>
</a>
</g>
</g>
<!-- dir_a695b385a3d14b7fe3275ff1f0b9cead -->
<g id="node13" class="node">
<title>dir_a695b385a3d14b7fe3275ff1f0b9cead</title>
<g id="a_node13"><a xlink:href="dir_a695b385a3d14b7fe3275ff1f0b9cead.html" target="_top" xlink:title="types">
<polygon fill="white" stroke="black" points="252,-204 198,-204 198,-168 252,-168 252,-204"/>
<text text-anchor="middle" x="225" y="-183.5" font-family="Helvetica,sans-Serif" font-size="10.00">types</text>
</a>
</g>
</g>
<!-- dir_7ddb7368080dbe1879dd7372dd1df3df&#45;&gt;dir_a695b385a3d14b7fe3275ff1f0b9cead -->
<g id="edge5" class="edge">
<title>dir_7ddb7368080dbe1879dd7372dd1df3df&#45;&gt;dir_a695b385a3d14b7fe3275ff1f0b9cead</title>
<path fill="none" stroke="black" d="M194.13,-239.7C198.85,-231.64 204.56,-221.89 209.78,-212.98"/>
<polygon fill="black" stroke="black" points="212.95,-214.5 214.98,-204.1 206.91,-210.96 212.95,-214.5"/>
<g id="a_edge5&#45;headlabel"><a xlink:href="dir_000011_000016.html" target="_top" xlink:title="3">
<text text-anchor="middle" x="213.58" y="-216.54" font-family="Helvetica,sans-Serif" font-size="10.00">3</text>
</a>
</g>
</g>
<!-- dir_0ae0216c5b903435324487dd13dfdff9&#45;&gt;dir_6311cd7a9afaa93eeee404de83766793 -->
<g id="edge21" class="edge">
<title>dir_0ae0216c5b903435324487dd13dfdff9&#45;&gt;dir_6311cd7a9afaa93eeee404de83766793</title>
<path fill="none" stroke="black" d="M100.58,-95.7C107.66,-87.3 116.28,-77.07 124.05,-67.86"/>
<polygon fill="black" stroke="black" points="126.81,-70.01 130.58,-60.1 121.46,-65.49 126.81,-70.01"/>
<g id="a_edge21&#45;headlabel"><a xlink:href="dir_000018_000015.html" target="_top" xlink:title="2">
<text text-anchor="middle" x="126.67" y="-72.08" font-family="Helvetica,sans-Serif" font-size="10.00">2</text>
</a>
</g>
</g>
</g>
</svg>
        <g id="navigator" transform="translate(0 0)" fill="#404254">
                <rect fill="#f2f5e9" fill-opacity="0.5" stroke="#606060" stroke-width=".5" x="0" y="0" width="60" height="60"/>
                <use id="zoomplus" xlink:href="#zoomPlus" x="17" y="9" onmousedown="handleZoom(evt,'in')"/>
                <use id="zoomminus" xlink:href="#zoomMin" x="42" y="9" onmousedown="handleZoom(evt,'out')"/>
                <use id="reset" xlink:href="#resetDef" x="30" y="36" onmousedown="handleReset()"/>
                <g id="arrowUp" xlink:href="#dirArrow" transform="translate(30 24)" onmousedown="handlePan(0,-1)">
                  <use xlink:href="#rim" fill="#404040">
                        <set attributeName="fill" to="#808080" begin="arrowUp.mouseover" end="arrowUp.mouseout"/>
                  </use>
                  <path fill="none" stroke="white" stroke-width="1.5" d="M0,-3.0v7 M-2.5,-0.5L0,-3.0L2.5,-0.5"/>
                </g>
                <g id="arrowRight" xlink:href="#dirArrow" transform="rotate(90) translate(36 -43)" onmousedown="handlePan(1,0)">
                  <use xlink:href="#rim" fill="#404040">
                        <set attributeName="fill" to="#808080" begin="arrowRight.mouseover" end="arrowRight.mouseout"/>
                  </use>
                  <path fill="none" stroke="white" stroke-width="1.5" d="M0,-3.0v7 M-2.5,-0.5L0,-3.0L2.5,-0.5"/>
                </g>
                <g id="arrowDown" xlink:href="#dirArrow" transform="rotate(180) translate(-30 -48)" onmousedown="handlePan(0,1)">
                  <use xlink:href="#rim" fill="#404040">
                        <set attributeName="fill" to="#808080" begin="arrowDown.mouseover" end="arrowDown.mouseout"/>
                  </use>
                  <path fill="none" stroke="white" stroke-width="1.5" d="M0,-3.0v7 M-2.5,-0.5L0,-3.0L2.5,-0.5"/>
                </g>
                <g id="arrowLeft" xlink:href="#dirArrow" transform="rotate(270) translate(-36 17)" onmousedown="handlePan(-1,0)">
                  <use xlink:href="#rim" fill="#404040">
                        <set attributeName="fill" to="#808080" begin="arrowLeft.mouseover" end="arrowLeft.mouseout"/>
                  </use>
                  <path fill="none" stroke="white" stroke-width="1.5" d="M0,-3.0v7 M-2.5,-0.5L0,-3.0L2.5,-0.5"/>
                </g>
        </g>
        <svg viewBox="0 0 15 15" width="100%" height="30px" preserveAspectRatio="xMaxYMin meet">
         <g id="arrow_out" transform="scale(0.3 0.3)">
          <a xlink:href="dir_1ad523cfdb7a3d7d09cddf672d6cd478_dep_org.svg" target="_base">
           <rect id="button" ry="5" rx="5" y="6" x="6" height="38" width="38"
                fill="#f2f5e9" fill-opacity="0.5" stroke="#606060" stroke-width="1.0"/>
           <path id="arrow"
             d="M 11.500037,31.436501 C 11.940474,20.09759 22.043105,11.32322 32.158766,21.979434 L 37.068811,17.246167 C 37.068811,17.246167 37.088388,32 37.088388,32 L 22.160133,31.978069 C 22.160133,31.978069 26.997745,27.140456 26.997745,27.140456 C 18.528582,18.264221 13.291696,25.230495 11.500037,31.436501 z"
             style="fill:#404040;"/>
          </a>
         </g>
        </svg>
</svg>
