<?xml version="1.0" encoding="UTF-8" standalone="no"?>
<!DOCTYPE svg PUBLIC "-//W3C//DTD SVG 1.1//EN"
 "http://www.w3.org/Graphics/SVG/1.1/DTD/svg11.dtd">
<!-- Generated by graphviz version 2.43.0 (0)
 -->
<!-- Title: /home/runner/work/beluga/beluga/beluga/include/beluga/algorithm/distance_map.hpp Pages: 1 -->
<svg width="649pt" height="117pt"
 viewBox="0.00 0.00 649.00 117.00" xmlns="http://www.w3.org/2000/svg" xmlns:xlink="http://www.w3.org/1999/xlink">
<g id="graph0" class="graph" transform="scale(1 1) rotate(0) translate(4 113)">
<title>/home/runner/work/beluga/beluga/beluga/include/beluga/algorithm/distance_map.hpp</title>
<!-- Node1 -->
<g id="node1" class="node">
<title>Node1</title>
<g id="a_node1"><a xlink:title="Implementation of algorithm to calculate distance from obstacles.">
<polygon fill="#bfbfbf" stroke="black" points="130,-56.5 130,-108.5 277,-108.5 277,-56.5 130,-56.5"/>
<text text-anchor="start" x="138" y="-96.5" font-family="Helvetica,sans-Serif" font-size="10.00">/home/runner/work/beluga</text>
<text text-anchor="start" x="138" y="-85.5" font-family="Helvetica,sans-Serif" font-size="10.00">/beluga/beluga/include</text>
<text text-anchor="start" x="138" y="-74.5" font-family="Helvetica,sans-Serif" font-size="10.00">/beluga/algorithm/distance</text>
<text text-anchor="middle" x="203.5" y="-63.5" font-family="Helvetica,sans-Serif" font-size="10.00">_map.hpp</text>
</a>
</g>
</g>
<!-- Node2 -->
<g id="node2" class="node">
<title>Node2</title>
<g id="a_node2"><a xlink:title=" ">
<polygon fill="none" stroke="#bfbfbf" points="0,-0.5 0,-19.5 47,-19.5 47,-0.5 0,-0.5"/>
<text text-anchor="middle" x="23.5" y="-7.5" font-family="Helvetica,sans-Serif" font-size="10.00">queue</text>
</a>
</g>
</g>
<!-- Node1&#45;&gt;Node2 -->
<g id="edge1" class="edge">
<title>Node1&#45;&gt;Node2</title>
<path fill="none" stroke="midnightblue" d="M139.53,-56.45C110.71,-45.16 77.99,-32.34 54.66,-23.2"/>
<polygon fill="midnightblue" stroke="midnightblue" points="55.86,-19.92 45.27,-19.53 53.31,-26.43 55.86,-19.92"/>
</g>
<!-- Node3 -->
<g id="node3" class="node">
<title>Node3</title>
<g id="a_node3"><a xlink:title=" ">
<polygon fill="none" stroke="#bfbfbf" points="65,-0.5 65,-19.5 112,-19.5 112,-0.5 65,-0.5"/>
<text text-anchor="middle" x="88.5" y="-7.5" font-family="Helvetica,sans-Serif" font-size="10.00">vector</text>
</a>
</g>
</g>
<!-- Node1&#45;&gt;Node3 -->
<g id="edge2" class="edge">
<title>Node1&#45;&gt;Node3</title>
<path fill="none" stroke="midnightblue" d="M162.63,-56.45C145.37,-45.86 125.91,-33.94 111.27,-24.96"/>
<polygon fill="midnightblue" stroke="midnightblue" points="112.76,-21.77 102.41,-19.53 109.11,-27.74 112.76,-21.77"/>
</g>
<!-- Node4 -->
<g id="node4" class="node">
<title>Node4</title>
<g id="a_node4"><a xlink:title=" ">
<polygon fill="none" stroke="#bfbfbf" points="130,-0.5 130,-19.5 277,-19.5 277,-0.5 130,-0.5"/>
<text text-anchor="middle" x="203.5" y="-7.5" font-family="Helvetica,sans-Serif" font-size="10.00">range/v3/range/access.hpp</text>
</a>
</g>
</g>
<!-- Node1&#45;&gt;Node4 -->
<g id="edge3" class="edge">
<title>Node1&#45;&gt;Node4</title>
<path fill="none" stroke="midnightblue" d="M203.5,-56.45C203.5,-47.73 203.5,-38.1 203.5,-29.96"/>
<polygon fill="midnightblue" stroke="midnightblue" points="207,-29.7 203.5,-19.7 200,-29.7 207,-29.7"/>
</g>
<!-- Node5 -->
<g id="node5" class="node">
<title>Node5</title>
<g id="a_node5"><a xlink:title=" ">
<polygon fill="none" stroke="#bfbfbf" points="295.5,-0.5 295.5,-19.5 459.5,-19.5 459.5,-0.5 295.5,-0.5"/>
<text text-anchor="middle" x="377.5" y="-7.5" font-family="Helvetica,sans-Serif" font-size="10.00">range/v3/range/primitives.hpp</text>
</a>
</g>
</g>
<!-- Node1&#45;&gt;Node5 -->
<g id="edge4" class="edge">
<title>Node1&#45;&gt;Node5</title>
<path fill="none" stroke="midnightblue" d="M265.34,-56.45C293.07,-45.21 324.55,-32.45 347.08,-23.33"/>
<polygon fill="midnightblue" stroke="midnightblue" points="348.5,-26.53 356.45,-19.53 345.87,-20.04 348.5,-26.53"/>
</g>
<!-- Node6 -->
<g id="node6" class="node">
<title>Node6</title>
<g id="a_node6"><a xlink:title=" ">
<polygon fill="none" stroke="#bfbfbf" points="478,-0.5 478,-19.5 641,-19.5 641,-0.5 478,-0.5"/>
<text text-anchor="middle" x="559.5" y="-7.5" font-family="Helvetica,sans-Serif" font-size="10.00">range/v3/view/enumerate.hpp</text>
</a>
</g>
</g>
<!-- Node1&#45;&gt;Node6 -->
<g id="edge5" class="edge">
<title>Node1&#45;&gt;Node6</title>
<path fill="none" stroke="midnightblue" d="M277.26,-66.89C345.61,-53.36 445.61,-33.55 506.41,-21.51"/>
<polygon fill="midnightblue" stroke="midnightblue" points="507.43,-24.88 516.56,-19.5 506.07,-18.01 507.43,-24.88"/>
</g>
</g>
</svg>
