<?xml version="1.0" encoding="UTF-8" standalone="no"?>
<!DOCTYPE svg PUBLIC "-//W3C//DTD SVG 1.1//EN"
 "http://www.w3.org/Graphics/SVG/1.1/DTD/svg11.dtd">
<!-- Generated by graphviz version 2.43.0 (0)
 -->
<!-- Title: /home/runner/work/beluga/beluga/beluga/include/beluga/algorithm/effective_sample_size.hpp Pages: 1 -->
<!--zoomable 307 -->
<svg id="main" version="1.1" xmlns="http://www.w3.org/2000/svg" xmlns:xlink="http://www.w3.org/1999/xlink" xml:space="preserve" onload="init(evt)">
<style type="text/css"><![CDATA[
.edge:hover path { stroke: red; }
.edge:hover polygon { stroke: red; fill: red; }
]]></style>
<script type="text/javascript"><![CDATA[
var edges = document.getElementsByTagName('g');
if (edges && edges.length) {
  for (var i=0;i<edges.length;i++) {
    if (edges[i].id.substr(0,4)=='edge') {
      edges[i].setAttribute('class','edge');
    }
  }
}
]]></script>
        <defs>
                <circle id="rim" cx="0" cy="0" r="7"/>
                <circle id="rim2" cx="0" cy="0" r="3.5"/>
                <g id="zoomPlus">
                        <use xlink:href="#rim" fill="#404040">
                                <set attributeName="fill" to="#808080" begin="zoomplus.mouseover" end="zoomplus.mouseout"/>
                        </use>
                        <path d="M-4,0h8M0,-4v8" fill="none" stroke="white" stroke-width="1.5" pointer-events="none"/>
                </g>
                <g id="zoomMin">
                        <use xlink:href="#rim" fill="#404040">
                                <set attributeName="fill" to="#808080" begin="zoomminus.mouseover" end="zoomminus.mouseout"/>
                        </use>
                        <path d="M-4,0h8" fill="none" stroke="white" stroke-width="1.5" pointer-events="none"/>
                </g>
                <g id="dirArrow">
                        <path fill="none" stroke="white" stroke-width="1.5" d="M0,-3.0v7 M-2.5,-0.5L0,-3.0L2.5,-0.5"/>
                </g>
               <g id="resetDef">
                       <use xlink:href="#rim2" fill="#404040">
                               <set attributeName="fill" to="#808080" begin="reset.mouseover" end="reset.mouseout"/>
                       </use>
               </g>
        </defs>

<script type="text/javascript">
var viewWidth = 544;
var viewHeight = 307;
var sectionId = 'dynsection-0';
</script>
<script xlink:href="svgpan.js"/>
<svg id="graph" class="graph">
<g id="viewport">
<title>/home/runner/work/beluga/beluga/beluga/include/beluga/algorithm/effective_sample_size.hpp</title>
<!-- Node1 -->
<g id="node1" class="node">
<title>Node1</title>
<g id="a_node1"><a xlink:title="Implementation of an algorithm to calculate the effective sample size (ESS).">
<polygon fill="#bfbfbf" stroke="black" points="187,-246.5 187,-298.5 336,-298.5 336,-246.5 187,-246.5"/>
<text text-anchor="start" x="195" y="-286.5" font-family="Helvetica,sans-Serif" font-size="10.00">/home/runner/work/beluga</text>
<text text-anchor="start" x="195" y="-275.5" font-family="Helvetica,sans-Serif" font-size="10.00">/beluga/beluga/include</text>
<text text-anchor="start" x="195" y="-264.5" font-family="Helvetica,sans-Serif" font-size="10.00">/beluga/algorithm/effective</text>
<text text-anchor="middle" x="261.5" y="-253.5" font-family="Helvetica,sans-Serif" font-size="10.00">_sample_size.hpp</text>
</a>
</g>
</g>
<!-- Node2 -->
<g id="node2" class="node">
<title>Node2</title>
<g id="a_node2"><a xlink:href="particle__traits_8hpp.html" target="_top" xlink:title="Implementation of traits for particle types, see the Particle named requirements.">
<polygon fill="none" stroke="black" points="59.5,-179.5 59.5,-209.5 167.5,-209.5 167.5,-179.5 59.5,-179.5"/>
<text text-anchor="start" x="67.5" y="-197.5" font-family="Helvetica,sans-Serif" font-size="10.00">beluga/type_traits</text>
<text text-anchor="middle" x="113.5" y="-186.5" font-family="Helvetica,sans-Serif" font-size="10.00">/particle_traits.hpp</text>
</a>
</g>
</g>
<!-- Node1&#45;&gt;Node2 -->
<g id="edge1" class="edge">
<title>Node1&#45;&gt;Node2</title>
<path fill="none" stroke="midnightblue" d="M212.63,-246.4C192.32,-235.97 169.14,-224.07 150.3,-214.4"/>
<polygon fill="midnightblue" stroke="midnightblue" points="151.66,-211.16 141.17,-209.71 148.46,-217.39 151.66,-211.16"/>
</g>
<!-- Node13 -->
<g id="node13" class="node">
<title>Node13</title>
<g id="a_node13"><a xlink:href="particles_8hpp.html" target="_top" xlink:title="Implementation of views related to particle ranges.">
<polygon fill="none" stroke="black" points="188,-185 188,-204 335,-204 335,-185 188,-185"/>
<text text-anchor="middle" x="261.5" y="-192" font-family="Helvetica,sans-Serif" font-size="10.00">beluga/views/particles.hpp</text>
</a>
</g>
</g>
<!-- Node1&#45;&gt;Node13 -->
<g id="edge16" class="edge">
<title>Node1&#45;&gt;Node13</title>
<path fill="none" stroke="midnightblue" d="M261.5,-246.19C261.5,-235.76 261.5,-223.9 261.5,-214.27"/>
<polygon fill="midnightblue" stroke="midnightblue" points="265,-214.21 261.5,-204.21 258,-214.21 265,-214.21"/>
</g>
<!-- Node15 -->
<g id="node15" class="node">
<title>Node15</title>
<g id="a_node15"><a xlink:title=" ">
<polygon fill="none" stroke="#bfbfbf" points="353,-185 353,-204 536,-204 536,-185 353,-185"/>
<text text-anchor="middle" x="444.5" y="-192" font-family="Helvetica,sans-Serif" font-size="10.00">range/v3/numeric/accumulate.hpp</text>
</a>
</g>
</g>
<!-- Node1&#45;&gt;Node15 -->
<g id="edge19" class="edge">
<title>Node1&#45;&gt;Node15</title>
<path fill="none" stroke="midnightblue" d="M321.93,-246.4C352.99,-233.5 389.48,-218.35 414.52,-207.95"/>
<polygon fill="midnightblue" stroke="midnightblue" points="415.95,-211.15 423.85,-204.08 413.27,-204.68 415.95,-211.15"/>
</g>
<!-- Node3 -->
<g id="node3" class="node">
<title>Node3</title>
<g id="a_node3"><a xlink:href="primitives_8hpp.html" target="_top" xlink:title="Implementation of library primitives to abstract member access.">
<polygon fill="none" stroke="black" points="200,-123.5 200,-142.5 323,-142.5 323,-123.5 200,-123.5"/>
<text text-anchor="middle" x="261.5" y="-130.5" font-family="Helvetica,sans-Serif" font-size="10.00">beluga/primitives.hpp</text>
</a>
</g>
</g>
<!-- Node2&#45;&gt;Node3 -->
<g id="edge2" class="edge">
<title>Node2&#45;&gt;Node3</title>
<path fill="none" stroke="midnightblue" d="M148.57,-179.4C173.52,-169.37 206.71,-156.03 230.64,-146.4"/>
<polygon fill="midnightblue" stroke="midnightblue" points="231.99,-149.64 239.96,-142.66 229.38,-143.14 231.99,-149.64"/>
</g>
<!-- Node9 -->
<g id="node9" class="node">
<title>Node9</title>
<g id="a_node9"><a xlink:href="tuple__traits_8hpp.html" target="_top" xlink:title="Implementation of traits for tuple&#45;like types.">
<polygon fill="none" stroke="black" points="0,-56.5 0,-86.5 105,-86.5 105,-56.5 0,-56.5"/>
<text text-anchor="start" x="8" y="-74.5" font-family="Helvetica,sans-Serif" font-size="10.00">beluga/type_traits</text>
<text text-anchor="middle" x="52.5" y="-63.5" font-family="Helvetica,sans-Serif" font-size="10.00">/tuple_traits.hpp</text>
</a>
</g>
</g>
<!-- Node2&#45;&gt;Node9 -->
<g id="edge14" class="edge">
<title>Node2&#45;&gt;Node9</title>
<path fill="none" stroke="midnightblue" d="M74.84,-179.37C58.73,-171.34 41.67,-159.52 32.5,-143 24.3,-128.22 30,-109.78 37.38,-95.47"/>
<polygon fill="midnightblue" stroke="midnightblue" points="40.44,-97.17 42.35,-86.75 34.36,-93.71 40.44,-97.17"/>
</g>
<!-- Node12 -->
<g id="node12" class="node">
<title>Node12</title>
<g id="a_node12"><a xlink:title=" ">
<polygon fill="none" stroke="#bfbfbf" points="41.5,-123.5 41.5,-142.5 181.5,-142.5 181.5,-123.5 41.5,-123.5"/>
<text text-anchor="middle" x="111.5" y="-130.5" font-family="Helvetica,sans-Serif" font-size="10.00">range/v3/range/traits.hpp</text>
</a>
</g>
</g>
<!-- Node2&#45;&gt;Node12 -->
<g id="edge15" class="edge">
<title>Node2&#45;&gt;Node12</title>
<path fill="none" stroke="midnightblue" d="M113.03,-179.4C112.76,-171.47 112.42,-161.46 112.13,-152.86"/>
<polygon fill="midnightblue" stroke="midnightblue" points="115.63,-152.53 111.79,-142.66 108.63,-152.77 115.63,-152.53"/>
</g>
<!-- Node4 -->
<g id="node4" class="node">
<title>Node4</title>
<g id="a_node4"><a xlink:title=" ">
<polygon fill="none" stroke="#bfbfbf" points="103,-0.5 103,-19.5 144,-19.5 144,-0.5 103,-0.5"/>
<text text-anchor="middle" x="123.5" y="-7.5" font-family="Helvetica,sans-Serif" font-size="10.00">tuple</text>
</a>
</g>
</g>
<!-- Node3&#45;&gt;Node4 -->
<g id="edge3" class="edge">
<title>Node3&#45;&gt;Node4</title>
<path fill="none" stroke="midnightblue" d="M220.18,-123.43C197.6,-116.85 170.64,-105.63 152.5,-87 137.29,-71.38 129.88,-46.96 126.39,-30.04"/>
<polygon fill="midnightblue" stroke="midnightblue" points="129.75,-28.95 124.56,-19.72 122.86,-30.17 129.75,-28.95"/>
</g>
<!-- Node5 -->
<g id="node5" class="node">
<title>Node5</title>
<g id="a_node5"><a xlink:title=" ">
<polygon fill="none" stroke="#bfbfbf" points="277,-0.5 277,-19.5 346,-19.5 346,-0.5 277,-0.5"/>
<text text-anchor="middle" x="311.5" y="-7.5" font-family="Helvetica,sans-Serif" font-size="10.00">type_traits</text>
</a>
</g>
</g>
<!-- Node3&#45;&gt;Node5 -->
<g id="edge4" class="edge">
<title>Node3&#45;&gt;Node5</title>
<path fill="none" stroke="midnightblue" d="M268.94,-123.27C275.97,-114.6 286.33,-100.66 292.5,-87 300.88,-68.45 305.95,-45.61 308.72,-29.84"/>
<polygon fill="midnightblue" stroke="midnightblue" points="312.21,-30.2 310.35,-19.77 305.3,-29.08 312.21,-30.2"/>
</g>
<!-- Node6 -->
<g id="node6" class="node">
<title>Node6</title>
<g id="a_node6"><a xlink:href="strongly__typed__numeric_8hpp.html" target="_top" xlink:title="Implementation of a strongly typed numeric helper.">
<polygon fill="none" stroke="black" points="339.5,-56.5 339.5,-86.5 497.5,-86.5 497.5,-56.5 339.5,-56.5"/>
<text text-anchor="start" x="347.5" y="-74.5" font-family="Helvetica,sans-Serif" font-size="10.00">beluga/type_traits</text>
<text text-anchor="middle" x="418.5" y="-63.5" font-family="Helvetica,sans-Serif" font-size="10.00">/strongly_typed_numeric.hpp</text>
</a>
</g>
</g>
<!-- Node3&#45;&gt;Node6 -->
<g id="edge5" class="edge">
<title>Node3&#45;&gt;Node6</title>
<path fill="none" stroke="midnightblue" d="M283.99,-123.48C306.85,-114.81 342.91,-101.15 371.95,-90.14"/>
<polygon fill="midnightblue" stroke="midnightblue" points="373.39,-93.34 381.5,-86.52 370.91,-86.79 373.39,-93.34"/>
</g>
<!-- Node3&#45;&gt;Node9 -->
<g id="edge9" class="edge">
<title>Node3&#45;&gt;Node9</title>
<path fill="none" stroke="midnightblue" d="M231.56,-123.48C200.34,-114.59 150.6,-100.43 111.46,-89.29"/>
<polygon fill="midnightblue" stroke="midnightblue" points="112.33,-85.89 101.76,-86.52 110.42,-92.63 112.33,-85.89"/>
</g>
<!-- Node11 -->
<g id="node11" class="node">
<title>Node11</title>
<g id="a_node11"><a xlink:href="forward__like_8hpp_source.html" target="_top" xlink:title=" ">
<polygon fill="none" stroke="black" points="161.5,-56.5 161.5,-86.5 283.5,-86.5 283.5,-56.5 161.5,-56.5"/>
<text text-anchor="start" x="169.5" y="-74.5" font-family="Helvetica,sans-Serif" font-size="10.00">beluga/utility/forward</text>
<text text-anchor="middle" x="222.5" y="-63.5" font-family="Helvetica,sans-Serif" font-size="10.00">_like.hpp</text>
</a>
</g>
</g>
<!-- Node3&#45;&gt;Node11 -->
<g id="edge13" class="edge">
<title>Node3&#45;&gt;Node11</title>
<path fill="none" stroke="midnightblue" d="M255.91,-123.48C251.07,-116.09 243.85,-105.08 237.36,-95.17"/>
<polygon fill="midnightblue" stroke="midnightblue" points="240.1,-92.97 231.69,-86.52 234.25,-96.81 240.1,-92.97"/>
</g>
<!-- Node6&#45;&gt;Node5 -->
<g id="edge8" class="edge">
<title>Node6&#45;&gt;Node5</title>
<path fill="none" stroke="midnightblue" d="M393.14,-56.4C375.83,-46.77 353.02,-34.09 335.92,-24.58"/>
<polygon fill="midnightblue" stroke="midnightblue" points="337.51,-21.46 327.07,-19.66 334.11,-27.58 337.51,-21.46"/>
</g>
<!-- Node7 -->
<g id="node7" class="node">
<title>Node7</title>
<g id="a_node7"><a xlink:title=" ">
<polygon fill="none" stroke="#bfbfbf" points="443,-0.5 443,-19.5 508,-19.5 508,-0.5 443,-0.5"/>
<text text-anchor="middle" x="475.5" y="-7.5" font-family="Helvetica,sans-Serif" font-size="10.00">functional</text>
</a>
</g>
</g>
<!-- Node6&#45;&gt;Node7 -->
<g id="edge6" class="edge">
<title>Node6&#45;&gt;Node7</title>
<path fill="none" stroke="midnightblue" d="M432.01,-56.4C440.46,-47.58 451.38,-36.18 460.16,-27.02"/>
<polygon fill="midnightblue" stroke="midnightblue" points="462.82,-29.3 467.21,-19.66 457.76,-24.46 462.82,-29.3"/>
</g>
<!-- Node8 -->
<g id="node8" class="node">
<title>Node8</title>
<g id="a_node8"><a xlink:title=" ">
<polygon fill="none" stroke="#bfbfbf" points="380.5,-0.5 380.5,-19.5 424.5,-19.5 424.5,-0.5 380.5,-0.5"/>
<text text-anchor="middle" x="402.5" y="-7.5" font-family="Helvetica,sans-Serif" font-size="10.00">limits</text>
</a>
</g>
</g>
<!-- Node6&#45;&gt;Node8 -->
<g id="edge7" class="edge">
<title>Node6&#45;&gt;Node8</title>
<path fill="none" stroke="midnightblue" d="M414.71,-56.4C412.55,-48.38 409.82,-38.23 407.49,-29.57"/>
<polygon fill="midnightblue" stroke="midnightblue" points="410.8,-28.41 404.83,-19.66 404.05,-30.22 410.8,-28.41"/>
</g>
<!-- Node9&#45;&gt;Node4 -->
<g id="edge10" class="edge">
<title>Node9&#45;&gt;Node4</title>
<path fill="none" stroke="midnightblue" d="M69.33,-56.4C80.17,-47.31 94.28,-35.49 105.37,-26.19"/>
<polygon fill="midnightblue" stroke="midnightblue" points="107.75,-28.76 113.17,-19.66 103.26,-23.4 107.75,-28.76"/>
</g>
<!-- Node9&#45;&gt;Node5 -->
<g id="edge11" class="edge">
<title>Node9&#45;&gt;Node5</title>
<path fill="none" stroke="midnightblue" d="M105.22,-58.39C152.8,-47.46 222.02,-31.56 266.9,-21.25"/>
<polygon fill="midnightblue" stroke="midnightblue" points="267.69,-24.66 276.65,-19.01 266.12,-17.83 267.69,-24.66"/>
</g>
<!-- Node10 -->
<g id="node10" class="node">
<title>Node10</title>
<g id="a_node10"><a xlink:title=" ">
<polygon fill="none" stroke="#bfbfbf" points="30,-0.5 30,-19.5 75,-19.5 75,-0.5 30,-0.5"/>
<text text-anchor="middle" x="52.5" y="-7.5" font-family="Helvetica,sans-Serif" font-size="10.00">utility</text>
</a>
</g>
</g>
<!-- Node9&#45;&gt;Node10 -->
<g id="edge12" class="edge">
<title>Node9&#45;&gt;Node10</title>
<path fill="none" stroke="midnightblue" d="M52.5,-56.4C52.5,-48.47 52.5,-38.46 52.5,-29.86"/>
<polygon fill="midnightblue" stroke="midnightblue" points="56,-29.66 52.5,-19.66 49,-29.66 56,-29.66"/>
</g>
<!-- Node13&#45;&gt;Node3 -->
<g id="edge17" class="edge">
<title>Node13&#45;&gt;Node3</title>
<path fill="none" stroke="midnightblue" d="M261.5,-184.98C261.5,-176.58 261.5,-163.48 261.5,-152.66"/>
<polygon fill="midnightblue" stroke="midnightblue" points="265,-152.51 261.5,-142.51 258,-152.51 265,-152.51"/>
</g>
<!-- Node14 -->
<g id="node14" class="node">
<title>Node14</title>
<g id="a_node14"><a xlink:title=" ">
<polygon fill="none" stroke="#bfbfbf" points="341.5,-123.5 341.5,-142.5 499.5,-142.5 499.5,-123.5 341.5,-123.5"/>
<text text-anchor="middle" x="420.5" y="-130.5" font-family="Helvetica,sans-Serif" font-size="10.00">range/v3/view/transform.hpp</text>
</a>
</g>
</g>
<!-- Node13&#45;&gt;Node14 -->
<g id="edge18" class="edge">
<title>Node13&#45;&gt;Node14</title>
<path fill="none" stroke="midnightblue" d="M284.28,-184.98C311.55,-174.77 357.41,-157.61 388.3,-146.05"/>
<polygon fill="midnightblue" stroke="midnightblue" points="389.62,-149.29 397.76,-142.51 387.17,-142.74 389.62,-149.29"/>
</g>
</g>
</svg>
        <g id="navigator" transform="translate(0 0)" fill="#404254">
                <rect fill="#f2f5e9" fill-opacity="0.5" stroke="#606060" stroke-width=".5" x="0" y="0" width="60" height="60"/>
                <use id="zoomplus" xlink:href="#zoomPlus" x="17" y="9" onmousedown="handleZoom(evt,'in')"/>
                <use id="zoomminus" xlink:href="#zoomMin" x="42" y="9" onmousedown="handleZoom(evt,'out')"/>
                <use id="reset" xlink:href="#resetDef" x="30" y="36" onmousedown="handleReset()"/>
                <g id="arrowUp" xlink:href="#dirArrow" transform="translate(30 24)" onmousedown="handlePan(0,-1)">
                  <use xlink:href="#rim" fill="#404040">
                        <set attributeName="fill" to="#808080" begin="arrowUp.mouseover" end="arrowUp.mouseout"/>
                  </use>
                  <path fill="none" stroke="white" stroke-width="1.5" d="M0,-3.0v7 M-2.5,-0.5L0,-3.0L2.5,-0.5"/>
                </g>
                <g id="arrowRight" xlink:href="#dirArrow" transform="rotate(90) translate(36 -43)" onmousedown="handlePan(1,0)">
                  <use xlink:href="#rim" fill="#404040">
                        <set attributeName="fill" to="#808080" begin="arrowRight.mouseover" end="arrowRight.mouseout"/>
                  </use>
                  <path fill="none" stroke="white" stroke-width="1.5" d="M0,-3.0v7 M-2.5,-0.5L0,-3.0L2.5,-0.5"/>
                </g>
                <g id="arrowDown" xlink:href="#dirArrow" transform="rotate(180) translate(-30 -48)" onmousedown="handlePan(0,1)">
                  <use xlink:href="#rim" fill="#404040">
                        <set attributeName="fill" to="#808080" begin="arrowDown.mouseover" end="arrowDown.mouseout"/>
                  </use>
                  <path fill="none" stroke="white" stroke-width="1.5" d="M0,-3.0v7 M-2.5,-0.5L0,-3.0L2.5,-0.5"/>
                </g>
                <g id="arrowLeft" xlink:href="#dirArrow" transform="rotate(270) translate(-36 17)" onmousedown="handlePan(-1,0)">
                  <use xlink:href="#rim" fill="#404040">
                        <set attributeName="fill" to="#808080" begin="arrowLeft.mouseover" end="arrowLeft.mouseout"/>
                  </use>
                  <path fill="none" stroke="white" stroke-width="1.5" d="M0,-3.0v7 M-2.5,-0.5L0,-3.0L2.5,-0.5"/>
                </g>
        </g>
        <svg viewBox="0 0 15 15" width="100%" height="30px" preserveAspectRatio="xMaxYMin meet">
         <g id="arrow_out" transform="scale(0.3 0.3)">
          <a xlink:href="effective__sample__size_8hpp__incl_org.svg" target="_base">
           <rect id="button" ry="5" rx="5" y="6" x="6" height="38" width="38"
                fill="#f2f5e9" fill-opacity="0.5" stroke="#606060" stroke-width="1.0"/>
           <path id="arrow"
             d="M 11.500037,31.436501 C 11.940474,20.09759 22.043105,11.32322 32.158766,21.979434 L 37.068811,17.246167 C 37.068811,17.246167 37.088388,32 37.088388,32 L 22.160133,31.978069 C 22.160133,31.978069 26.997745,27.140456 26.997745,27.140456 C 18.528582,18.264221 13.291696,25.230495 11.500037,31.436501 z"
             style="fill:#404040;"/>
          </a>
         </g>
        </svg>
</svg>
