<?xml version="1.0" encoding="UTF-8" standalone="no"?>
<!DOCTYPE svg PUBLIC "-//W3C//DTD SVG 1.1//EN"
 "http://www.w3.org/Graphics/SVG/1.1/DTD/svg11.dtd">
<!-- Generated by graphviz version 2.43.0 (0)
 -->
<!-- Title: /home/runner/work/beluga/beluga/beluga/include/beluga/algorithm/effective_sample_size.hpp Pages: 1 -->
<svg width="316pt" height="384pt"
 viewBox="0.00 0.00 316.00 384.00" xmlns="http://www.w3.org/2000/svg" xmlns:xlink="http://www.w3.org/1999/xlink">
<g id="graph0" class="graph" transform="scale(1 1) rotate(0) translate(4 380)">
<title>/home/runner/work/beluga/beluga/beluga/include/beluga/algorithm/effective_sample_size.hpp</title>
<!-- Node1 -->
<g id="node1" class="node">
<title>Node1</title>
<g id="a_node1"><a xlink:title="Implementation of an algorithm to calculate the effective sample size (ESS).">
<polygon fill="#bfbfbf" stroke="black" points="79,-323.5 79,-375.5 228,-375.5 228,-323.5 79,-323.5"/>
<text text-anchor="start" x="87" y="-363.5" font-family="Helvetica,sans-Serif" font-size="10.00">/home/runner/work/beluga</text>
<text text-anchor="start" x="87" y="-352.5" font-family="Helvetica,sans-Serif" font-size="10.00">/beluga/beluga/include</text>
<text text-anchor="start" x="87" y="-341.5" font-family="Helvetica,sans-Serif" font-size="10.00">/beluga/algorithm/effective</text>
<text text-anchor="middle" x="153.5" y="-330.5" font-family="Helvetica,sans-Serif" font-size="10.00">_sample_size.hpp</text>
</a>
</g>
</g>
<!-- Node2 -->
<g id="node2" class="node">
<title>Node2</title>
<g id="a_node2"><a xlink:href="algorithm_8hpp.html" target="_top" xlink:title="Includes all beluga algorithms.">
<polygon fill="none" stroke="black" points="0,-156.5 0,-197.5 145,-197.5 145,-156.5 0,-156.5"/>
<text text-anchor="start" x="8" y="-185.5" font-family="Helvetica,sans-Serif" font-size="10.00">/home/runner/work/beluga</text>
<text text-anchor="start" x="8" y="-174.5" font-family="Helvetica,sans-Serif" font-size="10.00">/beluga/beluga/include</text>
<text text-anchor="middle" x="72.5" y="-163.5" font-family="Helvetica,sans-Serif" font-size="10.00">/beluga/algorithm.hpp</text>
</a>
</g>
</g>
<!-- Node1&#45;&gt;Node2 -->
<g id="edge1" class="edge">
<title>Node1&#45;&gt;Node2</title>
<path fill="none" stroke="midnightblue" d="M137.1,-313.98C120.48,-279 95.34,-226.09 81.85,-197.68"/>
<polygon fill="midnightblue" stroke="midnightblue" points="134.1,-315.81 141.55,-323.34 140.42,-312.81 134.1,-315.81"/>
</g>
<!-- Node5 -->
<g id="node5" class="node">
<title>Node5</title>
<g id="a_node5"><a xlink:href="on__effective__size__drop_8hpp.html" target="_top" xlink:title="Defines a policy for triggering an action based on the Effective Sample Size (ESS) metric.">
<polygon fill="none" stroke="black" points="142.5,-234.5 142.5,-286.5 298.5,-286.5 298.5,-234.5 142.5,-234.5"/>
<text text-anchor="start" x="150.5" y="-274.5" font-family="Helvetica,sans-Serif" font-size="10.00">/home/runner/work/beluga</text>
<text text-anchor="start" x="150.5" y="-263.5" font-family="Helvetica,sans-Serif" font-size="10.00">/beluga/beluga/include</text>
<text text-anchor="start" x="150.5" y="-252.5" font-family="Helvetica,sans-Serif" font-size="10.00">/beluga/policies/on_effective</text>
<text text-anchor="middle" x="220.5" y="-241.5" font-family="Helvetica,sans-Serif" font-size="10.00">_size_drop.hpp</text>
</a>
</g>
</g>
<!-- Node1&#45;&gt;Node5 -->
<g id="edge4" class="edge">
<title>Node1&#45;&gt;Node5</title>
<path fill="none" stroke="midnightblue" d="M179.13,-315.22C186.45,-305.72 194.29,-295.53 201.16,-286.61"/>
<polygon fill="midnightblue" stroke="midnightblue" points="176.21,-313.28 172.88,-323.34 181.75,-317.55 176.21,-313.28"/>
</g>
<!-- Node3 -->
<g id="node3" class="node">
<title>Node3</title>
<g id="a_node3"><a xlink:href="beluga_8hpp.html" target="_top" xlink:title="Includes all the Beluga API.">
<polygon fill="none" stroke="black" points="81,-78.5 81,-119.5 226,-119.5 226,-78.5 81,-78.5"/>
<text text-anchor="start" x="89" y="-107.5" font-family="Helvetica,sans-Serif" font-size="10.00">/home/runner/work/beluga</text>
<text text-anchor="start" x="89" y="-96.5" font-family="Helvetica,sans-Serif" font-size="10.00">/beluga/beluga/include</text>
<text text-anchor="middle" x="153.5" y="-85.5" font-family="Helvetica,sans-Serif" font-size="10.00">/beluga/beluga.hpp</text>
</a>
</g>
</g>
<!-- Node2&#45;&gt;Node3 -->
<g id="edge2" class="edge">
<title>Node2&#45;&gt;Node3</title>
<path fill="none" stroke="midnightblue" d="M100.75,-149.49C111.26,-139.63 122.99,-128.63 132.71,-119.51"/>
<polygon fill="midnightblue" stroke="midnightblue" points="98.26,-147.03 93.36,-156.43 103.05,-152.14 98.26,-147.03"/>
</g>
<!-- Node4 -->
<g id="node4" class="node">
<title>Node4</title>
<g id="a_node4"><a xlink:href="amcl__core_8hpp_source.html" target="_top" xlink:title=" ">
<polygon fill="none" stroke="black" points="65,-0.5 65,-41.5 242,-41.5 242,-0.5 65,-0.5"/>
<text text-anchor="start" x="73" y="-29.5" font-family="Helvetica,sans-Serif" font-size="10.00">/home/runner/work/beluga</text>
<text text-anchor="start" x="73" y="-18.5" font-family="Helvetica,sans-Serif" font-size="10.00">/beluga/beluga/include</text>
<text text-anchor="middle" x="153.5" y="-7.5" font-family="Helvetica,sans-Serif" font-size="10.00">/beluga/algorithm/amcl_core.hpp</text>
</a>
</g>
</g>
<!-- Node3&#45;&gt;Node4 -->
<g id="edge3" class="edge">
<title>Node3&#45;&gt;Node4</title>
<path fill="none" stroke="midnightblue" d="M153.5,-68.3C153.5,-59.3 153.5,-49.65 153.5,-41.51"/>
<polygon fill="midnightblue" stroke="midnightblue" points="150,-68.43 153.5,-78.43 157,-68.43 150,-68.43"/>
</g>
<!-- Node6 -->
<g id="node6" class="node">
<title>Node6</title>
<g id="a_node6"><a xlink:href="policies_8hpp.html" target="_top" xlink:title="Implementation of useful policies.">
<polygon fill="none" stroke="black" points="163,-156.5 163,-197.5 308,-197.5 308,-156.5 163,-156.5"/>
<text text-anchor="start" x="171" y="-185.5" font-family="Helvetica,sans-Serif" font-size="10.00">/home/runner/work/beluga</text>
<text text-anchor="start" x="171" y="-174.5" font-family="Helvetica,sans-Serif" font-size="10.00">/beluga/beluga/include</text>
<text text-anchor="middle" x="235.5" y="-163.5" font-family="Helvetica,sans-Serif" font-size="10.00">/beluga/policies.hpp</text>
</a>
</g>
</g>
<!-- Node5&#45;&gt;Node6 -->
<g id="edge5" class="edge">
<title>Node5&#45;&gt;Node6</title>
<path fill="none" stroke="midnightblue" d="M227.01,-224.15C228.68,-215.05 230.42,-205.6 231.89,-197.63"/>
<polygon fill="midnightblue" stroke="midnightblue" points="223.53,-223.69 225.16,-234.16 230.42,-224.96 223.53,-223.69"/>
</g>
<!-- Node6&#45;&gt;Node3 -->
<g id="edge6" class="edge">
<title>Node6&#45;&gt;Node3</title>
<path fill="none" stroke="midnightblue" d="M206.9,-149.49C196.26,-139.63 184.39,-128.63 174.55,-119.51"/>
<polygon fill="midnightblue" stroke="midnightblue" points="204.67,-152.2 214.38,-156.43 209.43,-147.06 204.67,-152.2"/>
</g>
</g>
</svg>
