<?xml version="1.0" encoding="UTF-8" standalone="no"?>
<!DOCTYPE svg PUBLIC "-//W3C//DTD SVG 1.1//EN"
 "http://www.w3.org/Graphics/SVG/1.1/DTD/svg11.dtd">
<!-- Generated by graphviz version 2.43.0 (0)
 -->
<!-- Title: /home/runner/work/beluga/beluga/beluga/include/beluga/views/elements.hpp Pages: 1 -->
<svg width="235pt" height="362pt"
 viewBox="0.00 0.00 234.50 362.00" xmlns="http://www.w3.org/2000/svg" xmlns:xlink="http://www.w3.org/1999/xlink">
<g id="graph0" class="graph" transform="scale(1 1) rotate(0) translate(4 358)">
<title>/home/runner/work/beluga/beluga/beluga/include/beluga/views/elements.hpp</title>
<!-- Node1 -->
<g id="node1" class="node">
<title>Node1</title>
<g id="a_node1"><a xlink:title="Implementation of the C++20&#39;s std::views::elements view.">
<polygon fill="#bfbfbf" stroke="black" points="61,-312.5 61,-353.5 215,-353.5 215,-312.5 61,-312.5"/>
<text text-anchor="start" x="69" y="-341.5" font-family="Helvetica,sans-Serif" font-size="10.00">/home/runner/work/beluga</text>
<text text-anchor="start" x="69" y="-330.5" font-family="Helvetica,sans-Serif" font-size="10.00">/beluga/beluga/include</text>
<text text-anchor="middle" x="138" y="-319.5" font-family="Helvetica,sans-Serif" font-size="10.00">/beluga/views/elements.hpp</text>
</a>
</g>
</g>
<!-- Node2 -->
<g id="node2" class="node">
<title>Node2</title>
<g id="a_node2"><a xlink:href="take__evenly_8hpp.html" target="_top" xlink:title="Implementation of a take_evenly range adaptor object.">
<polygon fill="none" stroke="black" points="0,-234.5 0,-275.5 166,-275.5 166,-234.5 0,-234.5"/>
<text text-anchor="start" x="8" y="-263.5" font-family="Helvetica,sans-Serif" font-size="10.00">/home/runner/work/beluga</text>
<text text-anchor="start" x="8" y="-252.5" font-family="Helvetica,sans-Serif" font-size="10.00">/beluga/beluga/include</text>
<text text-anchor="middle" x="83" y="-241.5" font-family="Helvetica,sans-Serif" font-size="10.00">/beluga/views/take_evenly.hpp</text>
</a>
</g>
</g>
<!-- Node1&#45;&gt;Node2 -->
<g id="edge1" class="edge">
<title>Node1&#45;&gt;Node2</title>
<path fill="none" stroke="midnightblue" d="M117.77,-304.05C110.91,-294.57 103.4,-284.18 97.12,-275.51"/>
<polygon fill="midnightblue" stroke="midnightblue" points="115.14,-306.38 123.84,-312.43 120.81,-302.27 115.14,-306.38"/>
</g>
<!-- Node3 -->
<g id="node3" class="node">
<title>Node3</title>
<g id="a_node3"><a xlink:href="views_8hpp.html" target="_top" xlink:title="Implementation of useful container views.">
<polygon fill="none" stroke="black" points="65.5,-156.5 65.5,-197.5 210.5,-197.5 210.5,-156.5 65.5,-156.5"/>
<text text-anchor="start" x="73.5" y="-185.5" font-family="Helvetica,sans-Serif" font-size="10.00">/home/runner/work/beluga</text>
<text text-anchor="start" x="73.5" y="-174.5" font-family="Helvetica,sans-Serif" font-size="10.00">/beluga/beluga/include</text>
<text text-anchor="middle" x="138" y="-163.5" font-family="Helvetica,sans-Serif" font-size="10.00">/beluga/views.hpp</text>
</a>
</g>
</g>
<!-- Node1&#45;&gt;Node3 -->
<g id="edge5" class="edge">
<title>Node1&#45;&gt;Node3</title>
<path fill="none" stroke="midnightblue" d="M161.01,-304.08C166.72,-295.58 172.04,-285.86 175,-276 180.37,-258.12 180.37,-251.88 175,-234 171.01,-220.72 162.73,-207.69 155.02,-197.54"/>
<polygon fill="midnightblue" stroke="midnightblue" points="157.99,-302.29 155.02,-312.46 163.68,-306.37 157.99,-302.29"/>
</g>
<!-- Node2&#45;&gt;Node3 -->
<g id="edge2" class="edge">
<title>Node2&#45;&gt;Node3</title>
<path fill="none" stroke="midnightblue" d="M103.23,-226.05C110.09,-216.57 117.6,-206.18 123.88,-197.51"/>
<polygon fill="midnightblue" stroke="midnightblue" points="100.19,-224.27 97.16,-234.43 105.86,-228.38 100.19,-224.27"/>
</g>
<!-- Node4 -->
<g id="node4" class="node">
<title>Node4</title>
<g id="a_node4"><a xlink:href="beluga_8hpp.html" target="_top" xlink:title="Includes all the Beluga API.">
<polygon fill="none" stroke="black" points="65.5,-78.5 65.5,-119.5 210.5,-119.5 210.5,-78.5 65.5,-78.5"/>
<text text-anchor="start" x="73.5" y="-107.5" font-family="Helvetica,sans-Serif" font-size="10.00">/home/runner/work/beluga</text>
<text text-anchor="start" x="73.5" y="-96.5" font-family="Helvetica,sans-Serif" font-size="10.00">/beluga/beluga/include</text>
<text text-anchor="middle" x="138" y="-85.5" font-family="Helvetica,sans-Serif" font-size="10.00">/beluga/beluga.hpp</text>
</a>
</g>
</g>
<!-- Node3&#45;&gt;Node4 -->
<g id="edge3" class="edge">
<title>Node3&#45;&gt;Node4</title>
<path fill="none" stroke="midnightblue" d="M138,-146.3C138,-137.3 138,-127.65 138,-119.51"/>
<polygon fill="midnightblue" stroke="midnightblue" points="134.5,-146.43 138,-156.43 141.5,-146.43 134.5,-146.43"/>
</g>
<!-- Node5 -->
<g id="node5" class="node">
<title>Node5</title>
<g id="a_node5"><a xlink:href="amcl__core_8hpp_source.html" target="_top" xlink:title=" ">
<polygon fill="none" stroke="black" points="49.5,-0.5 49.5,-41.5 226.5,-41.5 226.5,-0.5 49.5,-0.5"/>
<text text-anchor="start" x="57.5" y="-29.5" font-family="Helvetica,sans-Serif" font-size="10.00">/home/runner/work/beluga</text>
<text text-anchor="start" x="57.5" y="-18.5" font-family="Helvetica,sans-Serif" font-size="10.00">/beluga/beluga/include</text>
<text text-anchor="middle" x="138" y="-7.5" font-family="Helvetica,sans-Serif" font-size="10.00">/beluga/algorithm/amcl_core.hpp</text>
</a>
</g>
</g>
<!-- Node4&#45;&gt;Node5 -->
<g id="edge4" class="edge">
<title>Node4&#45;&gt;Node5</title>
<path fill="none" stroke="midnightblue" d="M138,-68.3C138,-59.3 138,-49.65 138,-41.51"/>
<polygon fill="midnightblue" stroke="midnightblue" points="134.5,-68.43 138,-78.43 141.5,-68.43 134.5,-68.43"/>
</g>
</g>
</svg>
