<?xml version="1.0" encoding="UTF-8" standalone="no"?>
<!DOCTYPE svg PUBLIC "-//W3C//DTD SVG 1.1//EN"
 "http://www.w3.org/Graphics/SVG/1.1/DTD/svg11.dtd">
<!-- Generated by graphviz version 2.43.0 (0)
 -->
<!-- Title: /home/runner/work/beluga/beluga/beluga/include/beluga/algorithm/estimation.hpp Pages: 1 -->
<svg width="1126pt" height="117pt"
 viewBox="0.00 0.00 1125.50 117.00" xmlns="http://www.w3.org/2000/svg" xmlns:xlink="http://www.w3.org/1999/xlink">
<g id="graph0" class="graph" transform="scale(1 1) rotate(0) translate(4 113)">
<title>/home/runner/work/beluga/beluga/beluga/include/beluga/algorithm/estimation.hpp</title>
<!-- Node1 -->
<g id="node1" class="node">
<title>Node1</title>
<g id="a_node1"><a xlink:title="Implementation of algorithms that allow calculating the estimated state of a particle filter.">
<polygon fill="#bfbfbf" stroke="black" points="566,-67.5 566,-108.5 745,-108.5 745,-67.5 566,-67.5"/>
<text text-anchor="start" x="574" y="-96.5" font-family="Helvetica,sans-Serif" font-size="10.00">/home/runner/work/beluga</text>
<text text-anchor="start" x="574" y="-85.5" font-family="Helvetica,sans-Serif" font-size="10.00">/beluga/beluga/include</text>
<text text-anchor="middle" x="655.5" y="-74.5" font-family="Helvetica,sans-Serif" font-size="10.00">/beluga/algorithm/estimation.hpp</text>
</a>
</g>
</g>
<!-- Node2 -->
<g id="node2" class="node">
<title>Node2</title>
<g id="a_node2"><a xlink:title=" ">
<polygon fill="none" stroke="#bfbfbf" points="0,-6 0,-25 147,-25 147,-6 0,-6"/>
<text text-anchor="middle" x="73.5" y="-13" font-family="Helvetica,sans-Serif" font-size="10.00">range/v3/range/access.hpp</text>
</a>
</g>
</g>
<!-- Node1&#45;&gt;Node2 -->
<g id="edge1" class="edge">
<title>Node1&#45;&gt;Node2</title>
<path fill="none" stroke="midnightblue" d="M565.6,-78.58C465.53,-68.82 299.1,-51.44 156.5,-31 147.77,-29.75 138.54,-28.28 129.54,-26.77"/>
<polygon fill="midnightblue" stroke="midnightblue" points="129.96,-23.29 119.52,-25.06 128.78,-30.19 129.96,-23.29"/>
</g>
<!-- Node3 -->
<g id="node3" class="node">
<title>Node3</title>
<g id="a_node3"><a xlink:title=" ">
<polygon fill="none" stroke="#bfbfbf" points="165.5,-6 165.5,-25 329.5,-25 329.5,-6 165.5,-6"/>
<text text-anchor="middle" x="247.5" y="-13" font-family="Helvetica,sans-Serif" font-size="10.00">range/v3/range/primitives.hpp</text>
</a>
</g>
</g>
<!-- Node1&#45;&gt;Node3 -->
<g id="edge2" class="edge">
<title>Node1&#45;&gt;Node3</title>
<path fill="none" stroke="midnightblue" d="M565.96,-71.53C487.31,-57.94 375.1,-38.55 307.01,-26.78"/>
<polygon fill="midnightblue" stroke="midnightblue" points="307.34,-23.29 296.89,-25.03 306.15,-30.19 307.34,-23.29"/>
</g>
<!-- Node4 -->
<g id="node4" class="node">
<title>Node4</title>
<g id="a_node4"><a xlink:title=" ">
<polygon fill="none" stroke="#bfbfbf" points="347.5,-6 347.5,-25 499.5,-25 499.5,-6 347.5,-6"/>
<text text-anchor="middle" x="423.5" y="-13" font-family="Helvetica,sans-Serif" font-size="10.00">range/v3/view/common.hpp</text>
</a>
</g>
</g>
<!-- Node1&#45;&gt;Node4 -->
<g id="edge3" class="edge">
<title>Node1&#45;&gt;Node4</title>
<path fill="none" stroke="midnightblue" d="M591.18,-67.46C549.44,-54.77 496.48,-38.68 461.36,-28.01"/>
<polygon fill="midnightblue" stroke="midnightblue" points="462.1,-24.57 451.51,-25.01 460.06,-31.27 462.1,-24.57"/>
</g>
<!-- Node5 -->
<g id="node5" class="node">
<title>Node5</title>
<g id="a_node5"><a xlink:title=" ">
<polygon fill="none" stroke="#bfbfbf" points="517.5,-0.5 517.5,-30.5 637.5,-30.5 637.5,-0.5 517.5,-0.5"/>
<text text-anchor="start" x="525.5" y="-18.5" font-family="Helvetica,sans-Serif" font-size="10.00">range/v3/view/repeat</text>
<text text-anchor="middle" x="577.5" y="-7.5" font-family="Helvetica,sans-Serif" font-size="10.00">_n.hpp</text>
</a>
</g>
</g>
<!-- Node1&#45;&gt;Node5 -->
<g id="edge4" class="edge">
<title>Node1&#45;&gt;Node5</title>
<path fill="none" stroke="midnightblue" d="M633.77,-67.36C623.57,-58.14 611.39,-47.13 600.98,-37.72"/>
<polygon fill="midnightblue" stroke="midnightblue" points="603.19,-35 593.42,-30.89 598.49,-40.19 603.19,-35"/>
</g>
<!-- Node6 -->
<g id="node6" class="node">
<title>Node6</title>
<g id="a_node6"><a xlink:title=" ">
<polygon fill="none" stroke="#bfbfbf" points="655.5,-6 655.5,-25 813.5,-25 813.5,-6 655.5,-6"/>
<text text-anchor="middle" x="734.5" y="-13" font-family="Helvetica,sans-Serif" font-size="10.00">range/v3/view/transform.hpp</text>
</a>
</g>
</g>
<!-- Node1&#45;&gt;Node6 -->
<g id="edge5" class="edge">
<title>Node1&#45;&gt;Node6</title>
<path fill="none" stroke="midnightblue" d="M677.51,-67.36C690,-56.21 705.41,-42.46 717.06,-32.06"/>
<polygon fill="midnightblue" stroke="midnightblue" points="719.65,-34.44 724.78,-25.17 714.99,-29.22 719.65,-34.44"/>
</g>
<!-- Node7 -->
<g id="node7" class="node">
<title>Node7</title>
<g id="a_node7"><a xlink:title=" ">
<polygon fill="none" stroke="#bfbfbf" points="831.5,-6 831.5,-25 923.5,-25 923.5,-6 831.5,-6"/>
<text text-anchor="middle" x="877.5" y="-13" font-family="Helvetica,sans-Serif" font-size="10.00">sophus/se2.hpp</text>
</a>
</g>
</g>
<!-- Node1&#45;&gt;Node7 -->
<g id="edge6" class="edge">
<title>Node1&#45;&gt;Node7</title>
<path fill="none" stroke="midnightblue" d="M717.04,-67.46C756.82,-54.83 807.23,-38.81 840.84,-28.14"/>
<polygon fill="midnightblue" stroke="midnightblue" points="842.22,-31.38 850.69,-25.01 840.1,-24.7 842.22,-31.38"/>
</g>
<!-- Node8 -->
<g id="node8" class="node">
<title>Node8</title>
<g id="a_node8"><a xlink:title=" ">
<polygon fill="none" stroke="#bfbfbf" points="941.5,-6 941.5,-25 1043.5,-25 1043.5,-6 941.5,-6"/>
<text text-anchor="middle" x="992.5" y="-13" font-family="Helvetica,sans-Serif" font-size="10.00">sophus/types.hpp</text>
</a>
</g>
</g>
<!-- Node1&#45;&gt;Node8 -->
<g id="edge7" class="edge">
<title>Node1&#45;&gt;Node8</title>
<path fill="none" stroke="midnightblue" d="M745.19,-69.76C799.5,-59.09 870.11,-44.84 932.5,-31 937.6,-29.87 942.93,-28.64 948.23,-27.4"/>
<polygon fill="midnightblue" stroke="midnightblue" points="949.37,-30.72 958.28,-25 947.75,-23.92 949.37,-30.72"/>
</g>
<!-- Node9 -->
<g id="node9" class="node">
<title>Node9</title>
<g id="a_node9"><a xlink:title=" ">
<polygon fill="none" stroke="#bfbfbf" points="1061.5,-6 1061.5,-25 1117.5,-25 1117.5,-6 1061.5,-6"/>
<text text-anchor="middle" x="1089.5" y="-13" font-family="Helvetica,sans-Serif" font-size="10.00">numeric</text>
</a>
</g>
</g>
<!-- Node1&#45;&gt;Node9 -->
<g id="edge8" class="edge">
<title>Node1&#45;&gt;Node9</title>
<path fill="none" stroke="midnightblue" d="M745.37,-80.34C826.61,-72.91 948.99,-58.18 1052.5,-31 1055.16,-30.3 1057.89,-29.47 1060.6,-28.56"/>
<polygon fill="midnightblue" stroke="midnightblue" points="1062.01,-31.77 1070.2,-25.05 1059.6,-25.2 1062.01,-31.77"/>
</g>
</g>
</svg>
