<?xml version="1.0" encoding="UTF-8" standalone="no"?>
<!DOCTYPE svg PUBLIC "-//W3C//DTD SVG 1.1//EN"
 "http://www.w3.org/Graphics/SVG/1.1/DTD/svg11.dtd">
<!-- Generated by graphviz version 2.43.0 (0)
 -->
<!-- Title: /home/runner/work/beluga/beluga/beluga/include/beluga/algorithm/estimation.hpp Pages: 1 -->
<svg width="1117pt" height="117pt"
 viewBox="0.00 0.00 1117.00 117.00" xmlns="http://www.w3.org/2000/svg" xmlns:xlink="http://www.w3.org/1999/xlink">
<g id="graph0" class="graph" transform="scale(1 1) rotate(0) translate(4 113)">
<title>/home/runner/work/beluga/beluga/beluga/include/beluga/algorithm/estimation.hpp</title>
<!-- Node1 -->
<g id="node1" class="node">
<title>Node1</title>
<g id="a_node1"><a xlink:title="Implementation of algorithms that allow calculating the estimated state of a particle filter.">
<polygon fill="#bfbfbf" stroke="black" points="582,-67.5 582,-108.5 761,-108.5 761,-67.5 582,-67.5"/>
<text text-anchor="start" x="590" y="-96.5" font-family="Helvetica,sans-Serif" font-size="10.00">/home/runner/work/beluga</text>
<text text-anchor="start" x="590" y="-85.5" font-family="Helvetica,sans-Serif" font-size="10.00">/beluga/beluga/include</text>
<text text-anchor="middle" x="671.5" y="-74.5" font-family="Helvetica,sans-Serif" font-size="10.00">/beluga/algorithm/estimation.hpp</text>
</a>
</g>
</g>
<!-- Node2 -->
<g id="node2" class="node">
<title>Node2</title>
<g id="a_node2"><a xlink:title=" ">
<polygon fill="none" stroke="#bfbfbf" points="0,-6 0,-25 183,-25 183,-6 0,-6"/>
<text text-anchor="middle" x="91.5" y="-13" font-family="Helvetica,sans-Serif" font-size="10.00">range/v3/numeric/accumulate.hpp</text>
</a>
</g>
</g>
<!-- Node1&#45;&gt;Node2 -->
<g id="edge1" class="edge">
<title>Node1&#45;&gt;Node2</title>
<path fill="none" stroke="midnightblue" d="M581.81,-77.22C485.5,-66.56 328.04,-48.65 192.5,-31 181.67,-29.59 170.21,-28.02 159.03,-26.45"/>
<polygon fill="midnightblue" stroke="midnightblue" points="159.28,-22.94 148.88,-25 158.29,-29.88 159.28,-22.94"/>
</g>
<!-- Node3 -->
<g id="node3" class="node">
<title>Node3</title>
<g id="a_node3"><a xlink:title=" ">
<polygon fill="none" stroke="#bfbfbf" points="201.5,-0.5 201.5,-30.5 321.5,-30.5 321.5,-0.5 201.5,-0.5"/>
<text text-anchor="start" x="209.5" y="-18.5" font-family="Helvetica,sans-Serif" font-size="10.00">range/v3/view/repeat</text>
<text text-anchor="middle" x="261.5" y="-7.5" font-family="Helvetica,sans-Serif" font-size="10.00">_n.hpp</text>
</a>
</g>
</g>
<!-- Node1&#45;&gt;Node3 -->
<g id="edge2" class="edge">
<title>Node1&#45;&gt;Node3</title>
<path fill="none" stroke="midnightblue" d="M581.92,-73.4C515.46,-63.05 422.38,-48.02 331.59,-31.16"/>
<polygon fill="midnightblue" stroke="midnightblue" points="332.15,-27.7 321.68,-29.31 330.87,-34.59 332.15,-27.7"/>
</g>
<!-- Node4 -->
<g id="node4" class="node">
<title>Node4</title>
<g id="a_node4"><a xlink:title=" ">
<polygon fill="none" stroke="#bfbfbf" points="339.5,-6 339.5,-25 497.5,-25 497.5,-6 339.5,-6"/>
<text text-anchor="middle" x="418.5" y="-13" font-family="Helvetica,sans-Serif" font-size="10.00">range/v3/view/transform.hpp</text>
</a>
</g>
</g>
<!-- Node1&#45;&gt;Node4 -->
<g id="edge3" class="edge">
<title>Node1&#45;&gt;Node4</title>
<path fill="none" stroke="midnightblue" d="M601.36,-67.46C555.45,-54.66 497.09,-38.4 458.81,-27.73"/>
<polygon fill="midnightblue" stroke="midnightblue" points="459.62,-24.33 449.05,-25.01 457.74,-31.07 459.62,-24.33"/>
</g>
<!-- Node5 -->
<g id="node5" class="node">
<title>Node5</title>
<g id="a_node5"><a xlink:title=" ">
<polygon fill="none" stroke="#bfbfbf" points="515.5,-6 515.5,-25 607.5,-25 607.5,-6 515.5,-6"/>
<text text-anchor="middle" x="561.5" y="-13" font-family="Helvetica,sans-Serif" font-size="10.00">sophus/se2.hpp</text>
</a>
</g>
</g>
<!-- Node1&#45;&gt;Node5 -->
<g id="edge4" class="edge">
<title>Node1&#45;&gt;Node5</title>
<path fill="none" stroke="midnightblue" d="M640.86,-67.36C622.62,-55.67 599.91,-41.12 583.46,-30.57"/>
<polygon fill="midnightblue" stroke="midnightblue" points="585.34,-27.62 575.03,-25.17 581.56,-33.52 585.34,-27.62"/>
</g>
<!-- Node6 -->
<g id="node6" class="node">
<title>Node6</title>
<g id="a_node6"><a xlink:title=" ">
<polygon fill="none" stroke="#bfbfbf" points="625.5,-6 625.5,-25 717.5,-25 717.5,-6 625.5,-6"/>
<text text-anchor="middle" x="671.5" y="-13" font-family="Helvetica,sans-Serif" font-size="10.00">sophus/se3.hpp</text>
</a>
</g>
</g>
<!-- Node1&#45;&gt;Node6 -->
<g id="edge5" class="edge">
<title>Node1&#45;&gt;Node6</title>
<path fill="none" stroke="midnightblue" d="M671.5,-67.36C671.5,-57.3 671.5,-45.1 671.5,-35.18"/>
<polygon fill="midnightblue" stroke="midnightblue" points="675,-35.17 671.5,-25.17 668,-35.17 675,-35.17"/>
</g>
<!-- Node7 -->
<g id="node7" class="node">
<title>Node7</title>
<g id="a_node7"><a xlink:title=" ">
<polygon fill="none" stroke="#bfbfbf" points="735.5,-6 735.5,-25 827.5,-25 827.5,-6 735.5,-6"/>
<text text-anchor="middle" x="781.5" y="-13" font-family="Helvetica,sans-Serif" font-size="10.00">sophus/so3.hpp</text>
</a>
</g>
</g>
<!-- Node1&#45;&gt;Node7 -->
<g id="edge6" class="edge">
<title>Node1&#45;&gt;Node7</title>
<path fill="none" stroke="midnightblue" d="M702.14,-67.36C720.38,-55.67 743.09,-41.12 759.54,-30.57"/>
<polygon fill="midnightblue" stroke="midnightblue" points="761.44,-33.52 767.97,-25.17 757.66,-27.62 761.44,-33.52"/>
</g>
<!-- Node8 -->
<g id="node8" class="node">
<title>Node8</title>
<g id="a_node8"><a xlink:title=" ">
<polygon fill="none" stroke="#bfbfbf" points="845.5,-6 845.5,-25 947.5,-25 947.5,-6 845.5,-6"/>
<text text-anchor="middle" x="896.5" y="-13" font-family="Helvetica,sans-Serif" font-size="10.00">sophus/types.hpp</text>
</a>
</g>
</g>
<!-- Node1&#45;&gt;Node8 -->
<g id="edge7" class="edge">
<title>Node1&#45;&gt;Node8</title>
<path fill="none" stroke="midnightblue" d="M733.88,-67.46C774.36,-54.77 825.73,-38.68 859.78,-28.01"/>
<polygon fill="midnightblue" stroke="midnightblue" points="860.83,-31.34 869.33,-25.01 858.74,-24.66 860.83,-31.34"/>
</g>
<!-- Node9 -->
<g id="node9" class="node">
<title>Node9</title>
<g id="a_node9"><a xlink:title=" ">
<polygon fill="none" stroke="#bfbfbf" points="965.5,-6 965.5,-25 1021.5,-25 1021.5,-6 965.5,-6"/>
<text text-anchor="middle" x="993.5" y="-13" font-family="Helvetica,sans-Serif" font-size="10.00">numeric</text>
</a>
</g>
</g>
<!-- Node1&#45;&gt;Node9 -->
<g id="edge8" class="edge">
<title>Node1&#45;&gt;Node9</title>
<path fill="none" stroke="midnightblue" d="M761.07,-73.64C817.71,-64.16 892.12,-49.78 956.5,-31 958.93,-30.29 961.43,-29.49 963.92,-28.63"/>
<polygon fill="midnightblue" stroke="midnightblue" points="965.2,-31.89 973.37,-25.14 962.78,-25.32 965.2,-31.89"/>
</g>
<!-- Node10 -->
<g id="node10" class="node">
<title>Node10</title>
<g id="a_node10"><a xlink:title=" ">
<polygon fill="none" stroke="#bfbfbf" points="1040,-6 1040,-25 1109,-25 1109,-6 1040,-6"/>
<text text-anchor="middle" x="1074.5" y="-13" font-family="Helvetica,sans-Serif" font-size="10.00">type_traits</text>
</a>
</g>
</g>
<!-- Node1&#45;&gt;Node10 -->
<g id="edge9" class="edge">
<title>Node1&#45;&gt;Node10</title>
<path fill="none" stroke="midnightblue" d="M761.18,-77.14C834.29,-68.12 939.89,-52.84 1030.5,-31 1033.97,-30.16 1037.55,-29.18 1041.11,-28.13"/>
<polygon fill="midnightblue" stroke="midnightblue" points="1042.46,-31.38 1050.96,-25.05 1040.37,-24.7 1042.46,-31.38"/>
</g>
</g>
</svg>
