<?xml version="1.0" encoding="UTF-8" standalone="no"?>
<!DOCTYPE svg PUBLIC "-//W3C//DTD SVG 1.1//EN"
 "http://www.w3.org/Graphics/SVG/1.1/DTD/svg11.dtd">
<!-- Generated by graphviz version 2.43.0 (0)
 -->
<!-- Title: /home/runner/work/beluga/beluga/beluga/include/beluga/algorithm/estimation.hpp Pages: 1 -->
<svg width="2279pt" height="117pt"
 viewBox="0.00 0.00 2278.50 117.00" xmlns="http://www.w3.org/2000/svg" xmlns:xlink="http://www.w3.org/1999/xlink">
<g id="graph0" class="graph" transform="scale(1 1) rotate(0) translate(4 113)">
<title>/home/runner/work/beluga/beluga/beluga/include/beluga/algorithm/estimation.hpp</title>
<!-- Node1 -->
<g id="node1" class="node">
<title>Node1</title>
<g id="a_node1"><a xlink:title="Implementation of algorithms that allow calculating the estimated state of a particle filter.">
<polygon fill="#bfbfbf" stroke="black" points="1208,-67.5 1208,-108.5 1387,-108.5 1387,-67.5 1208,-67.5"/>
<text text-anchor="start" x="1216" y="-96.5" font-family="Helvetica,sans-Serif" font-size="10.00">/home/runner/work/beluga</text>
<text text-anchor="start" x="1216" y="-85.5" font-family="Helvetica,sans-Serif" font-size="10.00">/beluga/beluga/include</text>
<text text-anchor="middle" x="1297.5" y="-74.5" font-family="Helvetica,sans-Serif" font-size="10.00">/beluga/algorithm/estimation.hpp</text>
</a>
</g>
</g>
<!-- Node2 -->
<g id="node2" class="node">
<title>Node2</title>
<g id="a_node2"><a xlink:title=" ">
<polygon fill="none" stroke="#bfbfbf" points="0,-0.5 0,-30.5 105,-30.5 105,-0.5 0,-0.5"/>
<text text-anchor="start" x="8" y="-18.5" font-family="Helvetica,sans-Serif" font-size="10.00">Eigen/src/Core/util</text>
<text text-anchor="middle" x="52.5" y="-7.5" font-family="Helvetica,sans-Serif" font-size="10.00">/Meta.h</text>
</a>
</g>
</g>
<!-- Node1&#45;&gt;Node2 -->
<g id="edge1" class="edge">
<title>Node1&#45;&gt;Node2</title>
<path fill="none" stroke="midnightblue" d="M1207.67,-84.87C972.93,-78.97 344.18,-60.94 115.09,-30.85"/>
<polygon fill="midnightblue" stroke="midnightblue" points="115.52,-27.38 105.14,-29.5 114.58,-34.31 115.52,-27.38"/>
</g>
<!-- Node3 -->
<g id="node3" class="node">
<title>Node3</title>
<g id="a_node3"><a xlink:title=" ">
<polygon fill="none" stroke="#bfbfbf" points="123.5,-0.5 123.5,-30.5 233.5,-30.5 233.5,-0.5 123.5,-0.5"/>
<text text-anchor="start" x="131.5" y="-18.5" font-family="Helvetica,sans-Serif" font-size="10.00">range/v3/algorithm</text>
<text text-anchor="middle" x="178.5" y="-7.5" font-family="Helvetica,sans-Serif" font-size="10.00">/count_if.hpp</text>
</a>
</g>
</g>
<!-- Node1&#45;&gt;Node3 -->
<g id="edge2" class="edge">
<title>Node1&#45;&gt;Node3</title>
<path fill="none" stroke="midnightblue" d="M1207.74,-87.35C1026.79,-86.95 605.36,-80.39 243.69,-30.99"/>
<polygon fill="midnightblue" stroke="midnightblue" points="243.93,-27.49 233.55,-29.6 242.98,-34.43 243.93,-27.49"/>
</g>
<!-- Node4 -->
<g id="node4" class="node">
<title>Node4</title>
<g id="a_node4"><a xlink:title=" ">
<polygon fill="none" stroke="#bfbfbf" points="251.5,-6 251.5,-25 425.5,-25 425.5,-6 251.5,-6"/>
<text text-anchor="middle" x="338.5" y="-13" font-family="Helvetica,sans-Serif" font-size="10.00">range/v3/iterator/operations.hpp</text>
</a>
</g>
</g>
<!-- Node1&#45;&gt;Node4 -->
<g id="edge3" class="edge">
<title>Node1&#45;&gt;Node4</title>
<path fill="none" stroke="midnightblue" d="M1207.83,-83.7C1050.79,-77.35 715.89,-61.32 434.5,-31 423.22,-29.78 411.24,-28.21 399.71,-26.54"/>
<polygon fill="midnightblue" stroke="midnightblue" points="400.12,-23.06 389.71,-25.06 399.09,-29.99 400.12,-23.06"/>
</g>
<!-- Node5 -->
<g id="node5" class="node">
<title>Node5</title>
<g id="a_node5"><a xlink:title=" ">
<polygon fill="none" stroke="#bfbfbf" points="444,-6 444,-25 627,-25 627,-6 444,-6"/>
<text text-anchor="middle" x="535.5" y="-13" font-family="Helvetica,sans-Serif" font-size="10.00">range/v3/numeric/accumulate.hpp</text>
</a>
</g>
</g>
<!-- Node1&#45;&gt;Node5 -->
<g id="edge4" class="edge">
<title>Node1&#45;&gt;Node5</title>
<path fill="none" stroke="midnightblue" d="M1207.92,-81.12C1080.52,-72.38 839.76,-54.43 635.5,-31 624.11,-29.69 612.02,-28.11 600.32,-26.47"/>
<polygon fill="midnightblue" stroke="midnightblue" points="600.57,-22.97 590.18,-25.03 599.59,-29.9 600.57,-22.97"/>
</g>
<!-- Node6 -->
<g id="node6" class="node">
<title>Node6</title>
<g id="a_node6"><a xlink:title=" ">
<polygon fill="none" stroke="#bfbfbf" points="645,-6 645,-25 792,-25 792,-6 645,-6"/>
<text text-anchor="middle" x="718.5" y="-13" font-family="Helvetica,sans-Serif" font-size="10.00">range/v3/range/access.hpp</text>
</a>
</g>
</g>
<!-- Node1&#45;&gt;Node6 -->
<g id="edge5" class="edge">
<title>Node1&#45;&gt;Node6</title>
<path fill="none" stroke="midnightblue" d="M1207.69,-78.51C1108.17,-68.72 943.03,-51.33 801.5,-31 792.77,-29.75 783.54,-28.28 774.55,-26.77"/>
<polygon fill="midnightblue" stroke="midnightblue" points="774.97,-23.29 764.52,-25.05 773.78,-30.19 774.97,-23.29"/>
</g>
<!-- Node7 -->
<g id="node7" class="node">
<title>Node7</title>
<g id="a_node7"><a xlink:title=" ">
<polygon fill="none" stroke="#bfbfbf" points="810.5,-6 810.5,-25 974.5,-25 974.5,-6 810.5,-6"/>
<text text-anchor="middle" x="892.5" y="-13" font-family="Helvetica,sans-Serif" font-size="10.00">range/v3/range/primitives.hpp</text>
</a>
</g>
</g>
<!-- Node1&#45;&gt;Node7 -->
<g id="edge6" class="edge">
<title>Node1&#45;&gt;Node7</title>
<path fill="none" stroke="midnightblue" d="M1207.87,-71.4C1129.75,-57.8 1018.7,-38.47 951.35,-26.74"/>
<polygon fill="midnightblue" stroke="midnightblue" points="951.79,-23.27 941.34,-25 950.59,-30.16 951.79,-23.27"/>
</g>
<!-- Node8 -->
<g id="node8" class="node">
<title>Node8</title>
<g id="a_node8"><a xlink:title=" ">
<polygon fill="none" stroke="#bfbfbf" points="992.5,-6 992.5,-25 1144.5,-25 1144.5,-6 992.5,-6"/>
<text text-anchor="middle" x="1068.5" y="-13" font-family="Helvetica,sans-Serif" font-size="10.00">range/v3/view/common.hpp</text>
</a>
</g>
</g>
<!-- Node1&#45;&gt;Node8 -->
<g id="edge7" class="edge">
<title>Node1&#45;&gt;Node8</title>
<path fill="none" stroke="midnightblue" d="M1234.01,-67.46C1192.81,-54.77 1140.53,-38.68 1105.87,-28.01"/>
<polygon fill="midnightblue" stroke="midnightblue" points="1106.74,-24.61 1096.15,-25.01 1104.68,-31.3 1106.74,-24.61"/>
</g>
<!-- Node9 -->
<g id="node9" class="node">
<title>Node9</title>
<g id="a_node9"><a xlink:title=" ">
<polygon fill="none" stroke="#bfbfbf" points="1162.5,-6 1162.5,-25 1290.5,-25 1290.5,-6 1162.5,-6"/>
<text text-anchor="middle" x="1226.5" y="-13" font-family="Helvetica,sans-Serif" font-size="10.00">range/v3/view/iota.hpp</text>
</a>
</g>
</g>
<!-- Node1&#45;&gt;Node9 -->
<g id="edge8" class="edge">
<title>Node1&#45;&gt;Node9</title>
<path fill="none" stroke="midnightblue" d="M1277.72,-67.36C1266.61,-56.32 1252.91,-42.72 1242.48,-32.37"/>
<polygon fill="midnightblue" stroke="midnightblue" points="1244.8,-29.74 1235.23,-25.17 1239.86,-34.7 1244.8,-29.74"/>
</g>
<!-- Node10 -->
<g id="node10" class="node">
<title>Node10</title>
<g id="a_node10"><a xlink:title=" ">
<polygon fill="none" stroke="#bfbfbf" points="1308.5,-0.5 1308.5,-30.5 1428.5,-30.5 1428.5,-0.5 1308.5,-0.5"/>
<text text-anchor="start" x="1316.5" y="-18.5" font-family="Helvetica,sans-Serif" font-size="10.00">range/v3/view/repeat</text>
<text text-anchor="middle" x="1368.5" y="-7.5" font-family="Helvetica,sans-Serif" font-size="10.00">_n.hpp</text>
</a>
</g>
</g>
<!-- Node1&#45;&gt;Node10 -->
<g id="edge9" class="edge">
<title>Node1&#45;&gt;Node10</title>
<path fill="none" stroke="midnightblue" d="M1317.28,-67.36C1326.47,-58.23 1337.43,-47.35 1346.85,-38"/>
<polygon fill="midnightblue" stroke="midnightblue" points="1349.38,-40.42 1354.01,-30.89 1344.44,-35.45 1349.38,-40.42"/>
</g>
<!-- Node11 -->
<g id="node11" class="node">
<title>Node11</title>
<g id="a_node11"><a xlink:title=" ">
<polygon fill="none" stroke="#bfbfbf" points="1446.5,-6 1446.5,-25 1604.5,-25 1604.5,-6 1446.5,-6"/>
<text text-anchor="middle" x="1525.5" y="-13" font-family="Helvetica,sans-Serif" font-size="10.00">range/v3/view/transform.hpp</text>
</a>
</g>
</g>
<!-- Node1&#45;&gt;Node11 -->
<g id="edge10" class="edge">
<title>Node1&#45;&gt;Node11</title>
<path fill="none" stroke="midnightblue" d="M1360.71,-67.46C1401.73,-54.77 1453.78,-38.68 1488.29,-28.01"/>
<polygon fill="midnightblue" stroke="midnightblue" points="1489.45,-31.31 1497.97,-25.01 1487.38,-24.62 1489.45,-31.31"/>
</g>
<!-- Node12 -->
<g id="node12" class="node">
<title>Node12</title>
<g id="a_node12"><a xlink:title=" ">
<polygon fill="none" stroke="#bfbfbf" points="1622.5,-6 1622.5,-25 1746.5,-25 1746.5,-6 1622.5,-6"/>
<text text-anchor="middle" x="1684.5" y="-13" font-family="Helvetica,sans-Serif" font-size="10.00">range/v3/view/zip.hpp</text>
</a>
</g>
</g>
<!-- Node1&#45;&gt;Node12 -->
<g id="edge11" class="edge">
<title>Node1&#45;&gt;Node12</title>
<path fill="none" stroke="midnightblue" d="M1387.17,-71.75C1450.49,-60.82 1537.29,-45.53 1613.5,-31 1620.06,-29.75 1626.95,-28.39 1633.76,-27.03"/>
<polygon fill="midnightblue" stroke="midnightblue" points="1634.5,-30.45 1643.61,-25.04 1633.12,-23.59 1634.5,-30.45"/>
</g>
<!-- Node13 -->
<g id="node13" class="node">
<title>Node13</title>
<g id="a_node13"><a xlink:title=" ">
<polygon fill="none" stroke="#bfbfbf" points="1764.5,-6 1764.5,-25 1856.5,-25 1856.5,-6 1764.5,-6"/>
<text text-anchor="middle" x="1810.5" y="-13" font-family="Helvetica,sans-Serif" font-size="10.00">sophus/se2.hpp</text>
</a>
</g>
</g>
<!-- Node1&#45;&gt;Node13 -->
<g id="edge12" class="edge">
<title>Node1&#45;&gt;Node13</title>
<path fill="none" stroke="midnightblue" d="M1387.15,-79.68C1479.89,-71.25 1628.65,-55.36 1755.5,-31 1760.58,-30.02 1765.89,-28.84 1771.11,-27.57"/>
<polygon fill="midnightblue" stroke="midnightblue" points="1772.15,-30.92 1780.98,-25.07 1770.43,-24.14 1772.15,-30.92"/>
</g>
<!-- Node14 -->
<g id="node14" class="node">
<title>Node14</title>
<g id="a_node14"><a xlink:title=" ">
<polygon fill="none" stroke="#bfbfbf" points="1874.5,-6 1874.5,-25 1966.5,-25 1966.5,-6 1874.5,-6"/>
<text text-anchor="middle" x="1920.5" y="-13" font-family="Helvetica,sans-Serif" font-size="10.00">sophus/se3.hpp</text>
</a>
</g>
</g>
<!-- Node1&#45;&gt;Node14 -->
<g id="edge13" class="edge">
<title>Node1&#45;&gt;Node14</title>
<path fill="none" stroke="midnightblue" d="M1387.14,-82.59C1499.59,-76.04 1698,-61.14 1865.5,-31 1870.71,-30.06 1876.15,-28.88 1881.5,-27.6"/>
<polygon fill="midnightblue" stroke="midnightblue" points="1882.74,-30.9 1891.58,-25.05 1881.03,-24.11 1882.74,-30.9"/>
</g>
<!-- Node15 -->
<g id="node15" class="node">
<title>Node15</title>
<g id="a_node15"><a xlink:title=" ">
<polygon fill="none" stroke="#bfbfbf" points="1984.5,-6 1984.5,-25 2076.5,-25 2076.5,-6 1984.5,-6"/>
<text text-anchor="middle" x="2030.5" y="-13" font-family="Helvetica,sans-Serif" font-size="10.00">sophus/so3.hpp</text>
</a>
</g>
</g>
<!-- Node1&#45;&gt;Node15 -->
<g id="edge14" class="edge">
<title>Node1&#45;&gt;Node15</title>
<path fill="none" stroke="midnightblue" d="M1387.24,-84.59C1517.64,-79.96 1766.7,-66.86 1975.5,-31 1980.91,-30.07 1986.57,-28.86 1992.11,-27.53"/>
<polygon fill="midnightblue" stroke="midnightblue" points="1993.04,-30.91 2001.88,-25.06 1991.33,-24.12 1993.04,-30.91"/>
</g>
<!-- Node16 -->
<g id="node16" class="node">
<title>Node16</title>
<g id="a_node16"><a xlink:title=" ">
<polygon fill="none" stroke="#bfbfbf" points="2094.5,-6 2094.5,-25 2196.5,-25 2196.5,-6 2094.5,-6"/>
<text text-anchor="middle" x="2145.5" y="-13" font-family="Helvetica,sans-Serif" font-size="10.00">sophus/types.hpp</text>
</a>
</g>
</g>
<!-- Node1&#45;&gt;Node16 -->
<g id="edge15" class="edge">
<title>Node1&#45;&gt;Node16</title>
<path fill="none" stroke="midnightblue" d="M1387.26,-85.46C1534.1,-81.87 1834.44,-69.98 2085.5,-31 2091.75,-30.03 2098.32,-28.73 2104.71,-27.32"/>
<polygon fill="midnightblue" stroke="midnightblue" points="2105.61,-30.7 2114.56,-25.02 2104.02,-23.88 2105.61,-30.7"/>
</g>
<!-- Node17 -->
<g id="node17" class="node">
<title>Node17</title>
<g id="a_node17"><a xlink:title=" ">
<polygon fill="none" stroke="#bfbfbf" points="2214.5,-6 2214.5,-25 2270.5,-25 2270.5,-6 2214.5,-6"/>
<text text-anchor="middle" x="2242.5" y="-13" font-family="Helvetica,sans-Serif" font-size="10.00">numeric</text>
</a>
</g>
</g>
<!-- Node1&#45;&gt;Node17 -->
<g id="edge16" class="edge">
<title>Node1&#45;&gt;Node17</title>
<path fill="none" stroke="midnightblue" d="M1387.07,-85.02C1584.42,-80.07 2051.38,-65.07 2205.5,-31 2208.5,-30.34 2211.58,-29.46 2214.62,-28.48"/>
<polygon fill="midnightblue" stroke="midnightblue" points="2215.84,-31.76 2224.03,-25.04 2213.44,-25.18 2215.84,-31.76"/>
</g>
</g>
</svg>
