<?xml version="1.0" encoding="UTF-8" standalone="no"?>
<!DOCTYPE svg PUBLIC "-//W3C//DTD SVG 1.1//EN"
 "http://www.w3.org/Graphics/SVG/1.1/DTD/svg11.dtd">
<!-- Generated by graphviz version 2.43.0 (0)
 -->
<!-- Title: /home/runner/work/beluga/beluga/beluga/include/beluga/algorithm/estimation.hpp Pages: 1 -->
<svg width="220pt" height="373pt"
 viewBox="0.00 0.00 220.00 373.00" xmlns="http://www.w3.org/2000/svg" xmlns:xlink="http://www.w3.org/1999/xlink">
<g id="graph0" class="graph" transform="scale(1 1) rotate(0) translate(4 369)">
<title>/home/runner/work/beluga/beluga/beluga/include/beluga/algorithm/estimation.hpp</title>
<!-- Node1 -->
<g id="node1" class="node">
<title>Node1</title>
<g id="a_node1"><a xlink:title="Implementation of algorithms that allow calculating the estimated state of a particle filter.">
<polygon fill="#bfbfbf" stroke="black" points="33,-323.5 33,-364.5 212,-364.5 212,-323.5 33,-323.5"/>
<text text-anchor="start" x="41" y="-352.5" font-family="Helvetica,sans-Serif" font-size="10.00">/home/runner/work/beluga</text>
<text text-anchor="start" x="41" y="-341.5" font-family="Helvetica,sans-Serif" font-size="10.00">/beluga/beluga/include</text>
<text text-anchor="middle" x="122.5" y="-330.5" font-family="Helvetica,sans-Serif" font-size="10.00">/beluga/algorithm/estimation.hpp</text>
</a>
</g>
</g>
<!-- Node2 -->
<g id="node2" class="node">
<title>Node2</title>
<g id="a_node2"><a xlink:href="cluster__based__estimation_8hpp.html" target="_top" xlink:title="Implementation of a cluster&#45;based estimation algorithm.">
<polygon fill="none" stroke="black" points="0,-234.5 0,-286.5 145,-286.5 145,-234.5 0,-234.5"/>
<text text-anchor="start" x="8" y="-274.5" font-family="Helvetica,sans-Serif" font-size="10.00">/home/runner/work/beluga</text>
<text text-anchor="start" x="8" y="-263.5" font-family="Helvetica,sans-Serif" font-size="10.00">/beluga/beluga/include</text>
<text text-anchor="start" x="8" y="-252.5" font-family="Helvetica,sans-Serif" font-size="10.00">/beluga/algorithm/cluster</text>
<text text-anchor="middle" x="72.5" y="-241.5" font-family="Helvetica,sans-Serif" font-size="10.00">_based_estimation.hpp</text>
</a>
</g>
</g>
<!-- Node1&#45;&gt;Node2 -->
<g id="edge1" class="edge">
<title>Node1&#45;&gt;Node2</title>
<path fill="none" stroke="midnightblue" d="M105.05,-314.55C99.46,-305.45 93.33,-295.45 87.9,-286.61"/>
<polygon fill="midnightblue" stroke="midnightblue" points="102.18,-316.58 110.4,-323.27 108.15,-312.92 102.18,-316.58"/>
</g>
<!-- Node3 -->
<g id="node3" class="node">
<title>Node3</title>
<g id="a_node3"><a xlink:href="algorithm_8hpp.html" target="_top" xlink:title="Includes all beluga algorithms.">
<polygon fill="none" stroke="black" points="50,-156.5 50,-197.5 195,-197.5 195,-156.5 50,-156.5"/>
<text text-anchor="start" x="58" y="-185.5" font-family="Helvetica,sans-Serif" font-size="10.00">/home/runner/work/beluga</text>
<text text-anchor="start" x="58" y="-174.5" font-family="Helvetica,sans-Serif" font-size="10.00">/beluga/beluga/include</text>
<text text-anchor="middle" x="122.5" y="-163.5" font-family="Helvetica,sans-Serif" font-size="10.00">/beluga/algorithm.hpp</text>
</a>
</g>
</g>
<!-- Node1&#45;&gt;Node3 -->
<g id="edge5" class="edge">
<title>Node1&#45;&gt;Node3</title>
<path fill="none" stroke="midnightblue" d="M142.47,-314.64C147.39,-306.14 151.97,-296.54 154.5,-287 160.55,-264.23 160.55,-256.77 154.5,-234 151.05,-221.01 143.8,-207.9 137.08,-197.63"/>
<polygon fill="midnightblue" stroke="midnightblue" points="139.35,-313.03 137.08,-323.37 145.31,-316.7 139.35,-313.03"/>
</g>
<!-- Node2&#45;&gt;Node3 -->
<g id="edge2" class="edge">
<title>Node2&#45;&gt;Node3</title>
<path fill="none" stroke="midnightblue" d="M93.29,-225.61C99.14,-216.08 105.31,-206.03 110.46,-197.63"/>
<polygon fill="midnightblue" stroke="midnightblue" points="90.29,-223.81 88.05,-234.16 96.26,-227.47 90.29,-223.81"/>
</g>
<!-- Node4 -->
<g id="node4" class="node">
<title>Node4</title>
<g id="a_node4"><a xlink:href="beluga_8hpp.html" target="_top" xlink:title="Includes all the Beluga API.">
<polygon fill="none" stroke="black" points="50,-78.5 50,-119.5 195,-119.5 195,-78.5 50,-78.5"/>
<text text-anchor="start" x="58" y="-107.5" font-family="Helvetica,sans-Serif" font-size="10.00">/home/runner/work/beluga</text>
<text text-anchor="start" x="58" y="-96.5" font-family="Helvetica,sans-Serif" font-size="10.00">/beluga/beluga/include</text>
<text text-anchor="middle" x="122.5" y="-85.5" font-family="Helvetica,sans-Serif" font-size="10.00">/beluga/beluga.hpp</text>
</a>
</g>
</g>
<!-- Node3&#45;&gt;Node4 -->
<g id="edge3" class="edge">
<title>Node3&#45;&gt;Node4</title>
<path fill="none" stroke="midnightblue" d="M122.5,-146.3C122.5,-137.3 122.5,-127.65 122.5,-119.51"/>
<polygon fill="midnightblue" stroke="midnightblue" points="119,-146.43 122.5,-156.43 126,-146.43 119,-146.43"/>
</g>
<!-- Node5 -->
<g id="node5" class="node">
<title>Node5</title>
<g id="a_node5"><a xlink:href="amcl__core_8hpp_source.html" target="_top" xlink:title=" ">
<polygon fill="none" stroke="black" points="34,-0.5 34,-41.5 211,-41.5 211,-0.5 34,-0.5"/>
<text text-anchor="start" x="42" y="-29.5" font-family="Helvetica,sans-Serif" font-size="10.00">/home/runner/work/beluga</text>
<text text-anchor="start" x="42" y="-18.5" font-family="Helvetica,sans-Serif" font-size="10.00">/beluga/beluga/include</text>
<text text-anchor="middle" x="122.5" y="-7.5" font-family="Helvetica,sans-Serif" font-size="10.00">/beluga/algorithm/amcl_core.hpp</text>
</a>
</g>
</g>
<!-- Node4&#45;&gt;Node5 -->
<g id="edge4" class="edge">
<title>Node4&#45;&gt;Node5</title>
<path fill="none" stroke="midnightblue" d="M122.5,-68.3C122.5,-59.3 122.5,-49.65 122.5,-41.51"/>
<polygon fill="midnightblue" stroke="midnightblue" points="119,-68.43 122.5,-78.43 126,-68.43 119,-68.43"/>
</g>
</g>
</svg>
