<?xml version="1.0" encoding="UTF-8" standalone="no"?>
<!DOCTYPE svg PUBLIC "-//W3C//DTD SVG 1.1//EN"
 "http://www.w3.org/Graphics/SVG/1.1/DTD/svg11.dtd">
<!-- Generated by graphviz version 2.43.0 (0)
 -->
<!-- Title: /home/runner/work/beluga/beluga/beluga/include/beluga/algorithm/estimation.hpp Pages: 1 -->
<svg width="1241pt" height="117pt"
 viewBox="0.00 0.00 1241.00 117.00" xmlns="http://www.w3.org/2000/svg" xmlns:xlink="http://www.w3.org/1999/xlink">
<g id="graph0" class="graph" transform="scale(1 1) rotate(0) translate(4 113)">
<title>/home/runner/work/beluga/beluga/beluga/include/beluga/algorithm/estimation.hpp</title>
<!-- Node1 -->
<g id="node1" class="node">
<title>Node1</title>
<g id="a_node1"><a xlink:title="Implementation of algorithms that allow calculating the estimated state of a particle filter.">
<polygon fill="#bfbfbf" stroke="black" points="651,-67.5 651,-108.5 830,-108.5 830,-67.5 651,-67.5"/>
<text text-anchor="start" x="659" y="-96.5" font-family="Helvetica,sans-Serif" font-size="10.00">/home/runner/work/beluga</text>
<text text-anchor="start" x="659" y="-85.5" font-family="Helvetica,sans-Serif" font-size="10.00">/beluga/beluga/include</text>
<text text-anchor="middle" x="740.5" y="-74.5" font-family="Helvetica,sans-Serif" font-size="10.00">/beluga/algorithm/estimation.hpp</text>
</a>
</g>
</g>
<!-- Node2 -->
<g id="node2" class="node">
<title>Node2</title>
<g id="a_node2"><a xlink:title=" ">
<polygon fill="none" stroke="#bfbfbf" points="0,-6 0,-25 183,-25 183,-6 0,-6"/>
<text text-anchor="middle" x="91.5" y="-13" font-family="Helvetica,sans-Serif" font-size="10.00">range/v3/numeric/accumulate.hpp</text>
</a>
</g>
</g>
<!-- Node1&#45;&gt;Node2 -->
<g id="edge1" class="edge">
<title>Node1&#45;&gt;Node2</title>
<path fill="none" stroke="midnightblue" d="M650.67,-78.95C542.02,-68.96 353.63,-50.79 192.5,-31 181.35,-29.63 169.52,-28.05 158.04,-26.45"/>
<polygon fill="midnightblue" stroke="midnightblue" points="158.46,-22.97 148.07,-25.04 157.48,-29.9 158.46,-22.97"/>
</g>
<!-- Node3 -->
<g id="node3" class="node">
<title>Node3</title>
<g id="a_node3"><a xlink:title=" ">
<polygon fill="none" stroke="#bfbfbf" points="201.5,-0.5 201.5,-30.5 321.5,-30.5 321.5,-0.5 201.5,-0.5"/>
<text text-anchor="start" x="209.5" y="-18.5" font-family="Helvetica,sans-Serif" font-size="10.00">range/v3/view/repeat</text>
<text text-anchor="middle" x="261.5" y="-7.5" font-family="Helvetica,sans-Serif" font-size="10.00">_n.hpp</text>
</a>
</g>
</g>
<!-- Node1&#45;&gt;Node3 -->
<g id="edge2" class="edge">
<title>Node1&#45;&gt;Node3</title>
<path fill="none" stroke="midnightblue" d="M650.64,-76.6C569.74,-66.8 447.39,-50.93 331.75,-31.15"/>
<polygon fill="midnightblue" stroke="midnightblue" points="332.11,-27.66 321.66,-29.41 330.92,-34.55 332.11,-27.66"/>
</g>
<!-- Node4 -->
<g id="node4" class="node">
<title>Node4</title>
<g id="a_node4"><a xlink:title=" ">
<polygon fill="none" stroke="#bfbfbf" points="339.5,-6 339.5,-25 497.5,-25 497.5,-6 339.5,-6"/>
<text text-anchor="middle" x="418.5" y="-13" font-family="Helvetica,sans-Serif" font-size="10.00">range/v3/view/transform.hpp</text>
</a>
</g>
</g>
<!-- Node1&#45;&gt;Node4 -->
<g id="edge3" class="edge">
<title>Node1&#45;&gt;Node4</title>
<path fill="none" stroke="midnightblue" d="M651.23,-67.46C591.81,-54.44 515.99,-37.84 467.34,-27.19"/>
<polygon fill="midnightblue" stroke="midnightblue" points="467.9,-23.73 457.38,-25.01 466.4,-30.57 467.9,-23.73"/>
</g>
<!-- Node5 -->
<g id="node5" class="node">
<title>Node5</title>
<g id="a_node5"><a xlink:title=" ">
<polygon fill="none" stroke="#bfbfbf" points="515.5,-6 515.5,-25 621.5,-25 621.5,-6 515.5,-6"/>
<text text-anchor="middle" x="568.5" y="-13" font-family="Helvetica,sans-Serif" font-size="10.00">Eigen/Eigenvalues</text>
</a>
</g>
</g>
<!-- Node1&#45;&gt;Node5 -->
<g id="edge4" class="edge">
<title>Node1&#45;&gt;Node5</title>
<path fill="none" stroke="midnightblue" d="M692.59,-67.36C662.62,-55.08 624.92,-39.63 598.98,-28.99"/>
<polygon fill="midnightblue" stroke="midnightblue" points="600.24,-25.73 589.66,-25.17 597.59,-32.2 600.24,-25.73"/>
</g>
<!-- Node6 -->
<g id="node6" class="node">
<title>Node6</title>
<g id="a_node6"><a xlink:title=" ">
<polygon fill="none" stroke="#bfbfbf" points="639.5,-6 639.5,-25 731.5,-25 731.5,-6 639.5,-6"/>
<text text-anchor="middle" x="685.5" y="-13" font-family="Helvetica,sans-Serif" font-size="10.00">sophus/se2.hpp</text>
</a>
</g>
</g>
<!-- Node1&#45;&gt;Node6 -->
<g id="edge5" class="edge">
<title>Node1&#45;&gt;Node6</title>
<path fill="none" stroke="midnightblue" d="M725.18,-67.36C716.82,-56.65 706.58,-43.52 698.6,-33.29"/>
<polygon fill="midnightblue" stroke="midnightblue" points="701.18,-30.91 692.27,-25.17 695.66,-35.21 701.18,-30.91"/>
</g>
<!-- Node7 -->
<g id="node7" class="node">
<title>Node7</title>
<g id="a_node7"><a xlink:title=" ">
<polygon fill="none" stroke="#bfbfbf" points="749.5,-6 749.5,-25 841.5,-25 841.5,-6 749.5,-6"/>
<text text-anchor="middle" x="795.5" y="-13" font-family="Helvetica,sans-Serif" font-size="10.00">sophus/se3.hpp</text>
</a>
</g>
</g>
<!-- Node1&#45;&gt;Node7 -->
<g id="edge6" class="edge">
<title>Node1&#45;&gt;Node7</title>
<path fill="none" stroke="midnightblue" d="M755.82,-67.36C764.18,-56.65 774.42,-43.52 782.4,-33.29"/>
<polygon fill="midnightblue" stroke="midnightblue" points="785.34,-35.21 788.73,-25.17 779.82,-30.91 785.34,-35.21"/>
</g>
<!-- Node8 -->
<g id="node8" class="node">
<title>Node8</title>
<g id="a_node8"><a xlink:title=" ">
<polygon fill="none" stroke="#bfbfbf" points="859.5,-6 859.5,-25 951.5,-25 951.5,-6 859.5,-6"/>
<text text-anchor="middle" x="905.5" y="-13" font-family="Helvetica,sans-Serif" font-size="10.00">sophus/so3.hpp</text>
</a>
</g>
</g>
<!-- Node1&#45;&gt;Node8 -->
<g id="edge7" class="edge">
<title>Node1&#45;&gt;Node8</title>
<path fill="none" stroke="midnightblue" d="M786.46,-67.36C815.08,-55.13 851.06,-39.76 875.93,-29.14"/>
<polygon fill="midnightblue" stroke="midnightblue" points="877.38,-32.32 885.2,-25.17 874.63,-25.88 877.38,-32.32"/>
</g>
<!-- Node9 -->
<g id="node9" class="node">
<title>Node9</title>
<g id="a_node9"><a xlink:title=" ">
<polygon fill="none" stroke="#bfbfbf" points="969.5,-6 969.5,-25 1071.5,-25 1071.5,-6 969.5,-6"/>
<text text-anchor="middle" x="1020.5" y="-13" font-family="Helvetica,sans-Serif" font-size="10.00">sophus/types.hpp</text>
</a>
</g>
</g>
<!-- Node1&#45;&gt;Node9 -->
<g id="edge8" class="edge">
<title>Node1&#45;&gt;Node9</title>
<path fill="none" stroke="midnightblue" d="M818.12,-67.46C869.37,-54.55 934.62,-38.12 976.97,-27.46"/>
<polygon fill="midnightblue" stroke="midnightblue" points="977.85,-30.85 986.69,-25.01 976.14,-24.06 977.85,-30.85"/>
</g>
<!-- Node10 -->
<g id="node10" class="node">
<title>Node10</title>
<g id="a_node10"><a xlink:title=" ">
<polygon fill="none" stroke="#bfbfbf" points="1089.5,-6 1089.5,-25 1145.5,-25 1145.5,-6 1089.5,-6"/>
<text text-anchor="middle" x="1117.5" y="-13" font-family="Helvetica,sans-Serif" font-size="10.00">numeric</text>
</a>
</g>
</g>
<!-- Node1&#45;&gt;Node10 -->
<g id="edge9" class="edge">
<title>Node1&#45;&gt;Node10</title>
<path fill="none" stroke="midnightblue" d="M830.02,-77.47C899.23,-68.86 997.01,-53.96 1080.5,-31 1083.09,-30.29 1085.75,-29.46 1088.4,-28.56"/>
<polygon fill="midnightblue" stroke="midnightblue" points="1089.61,-31.84 1097.79,-25.11 1087.2,-25.27 1089.61,-31.84"/>
</g>
<!-- Node11 -->
<g id="node11" class="node">
<title>Node11</title>
<g id="a_node11"><a xlink:title=" ">
<polygon fill="none" stroke="#bfbfbf" points="1164,-6 1164,-25 1233,-25 1233,-6 1164,-6"/>
<text text-anchor="middle" x="1198.5" y="-13" font-family="Helvetica,sans-Serif" font-size="10.00">type_traits</text>
</a>
</g>
</g>
<!-- Node1&#45;&gt;Node11 -->
<g id="edge10" class="edge">
<title>Node1&#45;&gt;Node11</title>
<path fill="none" stroke="midnightblue" d="M830.19,-79.67C914.63,-71.64 1044.24,-56.4 1154.5,-31 1157.98,-30.2 1161.57,-29.24 1165.13,-28.2"/>
<polygon fill="midnightblue" stroke="midnightblue" points="1166.47,-31.45 1174.98,-25.14 1164.39,-24.77 1166.47,-31.45"/>
</g>
</g>
</svg>
