<?xml version="1.0" encoding="UTF-8" standalone="no"?>
<!DOCTYPE svg PUBLIC "-//W3C//DTD SVG 1.1//EN"
 "http://www.w3.org/Graphics/SVG/1.1/DTD/svg11.dtd">
<!-- Generated by graphviz version 2.43.0 (0)
 -->
<!-- Title: /home/runner/work/beluga/beluga/beluga/include/beluga/policies/every_n.hpp Pages: 1 -->
<svg width="164pt" height="162pt"
 viewBox="0.00 0.00 164.00 162.00" xmlns="http://www.w3.org/2000/svg" xmlns:xlink="http://www.w3.org/1999/xlink">
<g id="graph0" class="graph" transform="scale(1 1) rotate(0) translate(4 158)">
<title>/home/runner/work/beluga/beluga/beluga/include/beluga/policies/every_n.hpp</title>
<!-- Node1 -->
<g id="node1" class="node">
<title>Node1</title>
<g id="a_node1"><a xlink:title="Defines a policy for triggering an action every N calls.">
<polygon fill="#bfbfbf" stroke="black" points="0,-112.5 0,-153.5 156,-153.5 156,-112.5 0,-112.5"/>
<text text-anchor="start" x="8" y="-141.5" font-family="Helvetica,sans-Serif" font-size="10.00">/home/runner/work/beluga</text>
<text text-anchor="start" x="8" y="-130.5" font-family="Helvetica,sans-Serif" font-size="10.00">/beluga/beluga/include</text>
<text text-anchor="middle" x="78" y="-119.5" font-family="Helvetica,sans-Serif" font-size="10.00">/beluga/policies/every_n.hpp</text>
</a>
</g>
</g>
<!-- Node2 -->
<g id="node2" class="node">
<title>Node2</title>
<g id="a_node2"><a xlink:href="policy_8hpp_source.html" target="_top" xlink:title=" ">
<polygon fill="none" stroke="black" points="7,-56.5 7,-75.5 149,-75.5 149,-56.5 7,-56.5"/>
<text text-anchor="middle" x="78" y="-63.5" font-family="Helvetica,sans-Serif" font-size="10.00">beluga/policies/policy.hpp</text>
</a>
</g>
</g>
<!-- Node1&#45;&gt;Node2 -->
<g id="edge1" class="edge">
<title>Node1&#45;&gt;Node2</title>
<path fill="none" stroke="midnightblue" d="M78,-112.5C78,-104.07 78,-94.24 78,-85.87"/>
<polygon fill="midnightblue" stroke="midnightblue" points="81.5,-85.65 78,-75.65 74.5,-85.65 81.5,-85.65"/>
</g>
<!-- Node3 -->
<g id="node3" class="node">
<title>Node3</title>
<g id="a_node3"><a xlink:title=" ">
<polygon fill="none" stroke="#bfbfbf" points="43.5,-0.5 43.5,-19.5 112.5,-19.5 112.5,-0.5 43.5,-0.5"/>
<text text-anchor="middle" x="78" y="-7.5" font-family="Helvetica,sans-Serif" font-size="10.00">type_traits</text>
</a>
</g>
</g>
<!-- Node2&#45;&gt;Node3 -->
<g id="edge2" class="edge">
<title>Node2&#45;&gt;Node3</title>
<path fill="none" stroke="midnightblue" d="M78,-56.08C78,-49.01 78,-38.86 78,-29.99"/>
<polygon fill="midnightblue" stroke="midnightblue" points="81.5,-29.75 78,-19.75 74.5,-29.75 81.5,-29.75"/>
</g>
</g>
</svg>
