<?xml version="1.0" encoding="UTF-8" standalone="no"?>
<!DOCTYPE svg PUBLIC "-//W3C//DTD SVG 1.1//EN"
 "http://www.w3.org/Graphics/SVG/1.1/DTD/svg11.dtd">
<!-- Generated by graphviz version 2.43.0 (0)
 -->
<!-- Title: Graphical Class Hierarchy Pages: 1 -->
<svg width="272pt" height="220pt"
 viewBox="0.00 0.00 272.00 220.00" xmlns="http://www.w3.org/2000/svg" xmlns:xlink="http://www.w3.org/1999/xlink">
<g id="graph0" class="graph" transform="scale(1 1) rotate(0) translate(4 216)">
<title>Graphical Class Hierarchy</title>
<!-- Node39 -->
<g id="node1" class="node">
<title>Node39</title>
<g id="a_node1"><a xlink:title=" ">
<polygon fill="none" stroke="#bfbfbf" points="0,-93.5 0,-112.5 89,-112.5 89,-93.5 0,-93.5"/>
<text text-anchor="middle" x="44.5" y="-100.5" font-family="Helvetica,sans-Serif" font-size="10.00">std::false_type</text>
</a>
</g>
</g>
<!-- Node0 -->
<g id="node2" class="node">
<title>Node0</title>
<g id="a_node2"><a xlink:href="structbeluga_1_1actions_1_1detail_1_1has__likelihood__member.html" target="_top" xlink:title="Internal trait to detect if a particle has a public &#39;likelihood&#39; member variable.">
<polygon fill="none" stroke="black" points="125,-170.5 125,-211.5 264,-211.5 264,-170.5 125,-170.5"/>
<text text-anchor="start" x="133" y="-199.5" font-family="Helvetica,sans-Serif" font-size="10.00">beluga::actions::detail</text>
<text text-anchor="start" x="133" y="-188.5" font-family="Helvetica,sans-Serif" font-size="10.00">::has_likelihood_member</text>
<text text-anchor="middle" x="194.5" y="-177.5" font-family="Helvetica,sans-Serif" font-size="10.00">&lt; T, typename &gt;</text>
</a>
</g>
</g>
<!-- Node39&#45;&gt;Node0 -->
<g id="edge1" class="edge">
<title>Node39&#45;&gt;Node0</title>
<path fill="none" stroke="midnightblue" d="M64.95,-119.05C80.57,-131.46 103.38,-148.58 125,-161 130.74,-164.3 136.91,-167.47 143.12,-170.44"/>
<polygon fill="midnightblue" stroke="midnightblue" points="67.05,-116.25 57.07,-112.69 62.66,-121.69 67.05,-116.25"/>
</g>
<!-- Node41 -->
<g id="node3" class="node">
<title>Node41</title>
<g id="a_node3"><a xlink:href="structbeluga_1_1has__common__tuple__type.html" target="_top" xlink:title="Meta&#45;function that checks for the existence of a common tuple type.">
<polygon fill="none" stroke="black" points="126,-110.5 126,-151.5 263,-151.5 263,-110.5 126,-110.5"/>
<text text-anchor="start" x="134" y="-139.5" font-family="Helvetica,sans-Serif" font-size="10.00">beluga::has_common</text>
<text text-anchor="start" x="134" y="-128.5" font-family="Helvetica,sans-Serif" font-size="10.00">_tuple_type&lt; typename,</text>
<text text-anchor="middle" x="194.5" y="-117.5" font-family="Helvetica,sans-Serif" font-size="10.00"> typename, typename &gt;</text>
</a>
</g>
</g>
<!-- Node39&#45;&gt;Node41 -->
<g id="edge2" class="edge">
<title>Node39&#45;&gt;Node41</title>
<path fill="none" stroke="midnightblue" d="M99.07,-113.13C107.74,-114.78 116.82,-116.49 125.77,-118.19"/>
<polygon fill="midnightblue" stroke="midnightblue" points="99.58,-109.67 89.1,-111.25 98.28,-116.55 99.58,-109.67"/>
</g>
<!-- Node42 -->
<g id="node4" class="node">
<title>Node42</title>
<g id="a_node4"><a xlink:href="structbeluga_1_1has__likelihood__field.html" target="_top" xlink:title=" ">
<polygon fill="none" stroke="black" points="132,-61 132,-91 257,-91 257,-61 132,-61"/>
<text text-anchor="start" x="140" y="-79" font-family="Helvetica,sans-Serif" font-size="10.00">beluga::has_likelihood</text>
<text text-anchor="middle" x="194.5" y="-68" font-family="Helvetica,sans-Serif" font-size="10.00">_field&lt; T, class &gt;</text>
</a>
</g>
</g>
<!-- Node39&#45;&gt;Node42 -->
<g id="edge3" class="edge">
<title>Node39&#45;&gt;Node42</title>
<path fill="none" stroke="midnightblue" d="M99.08,-93.22C109.72,-91.28 120.96,-89.23 131.84,-87.25"/>
<polygon fill="midnightblue" stroke="midnightblue" points="98.31,-89.81 89.1,-95.05 99.57,-96.69 98.31,-89.81"/>
</g>
<!-- Node43 -->
<g id="node5" class="node">
<title>Node43</title>
<g id="a_node5"><a xlink:href="structbeluga_1_1has__single__element.html" target="_top" xlink:title="Meta&#45;function that returns true if there is a single element of type T in the tuple&#45;like type.">
<polygon fill="none" stroke="black" points="127.5,-0.5 127.5,-41.5 261.5,-41.5 261.5,-0.5 127.5,-0.5"/>
<text text-anchor="start" x="135.5" y="-29.5" font-family="Helvetica,sans-Serif" font-size="10.00">beluga::has_single</text>
<text text-anchor="start" x="135.5" y="-18.5" font-family="Helvetica,sans-Serif" font-size="10.00">_element&lt; T, TupleLike,</text>
<text text-anchor="middle" x="194.5" y="-7.5" font-family="Helvetica,sans-Serif" font-size="10.00"> class &gt;</text>
</a>
</g>
</g>
<!-- Node39&#45;&gt;Node43 -->
<g id="edge4" class="edge">
<title>Node39&#45;&gt;Node43</title>
<path fill="none" stroke="midnightblue" d="M67.67,-87.54C83.33,-76.93 105.01,-62.86 125,-52 131.54,-48.45 138.56,-44.94 145.53,-41.63"/>
<polygon fill="midnightblue" stroke="midnightblue" points="65.47,-84.8 59.2,-93.34 69.43,-90.58 65.47,-84.8"/>
</g>
</g>
</svg>
