<?xml version="1.0" encoding="UTF-8" standalone="no"?>
<!DOCTYPE svg PUBLIC "-//W3C//DTD SVG 1.1//EN"
 "http://www.w3.org/Graphics/SVG/1.1/DTD/svg11.dtd">
<!-- Generated by graphviz version 2.43.0 (0)
 -->
<!-- Title: Graphical Class Hierarchy Pages: 1 -->
<svg width="270pt" height="160pt"
 viewBox="0.00 0.00 270.00 160.00" xmlns="http://www.w3.org/2000/svg" xmlns:xlink="http://www.w3.org/1999/xlink">
<g id="graph0" class="graph" transform="scale(1 1) rotate(0) translate(4 156)">
<title>Graphical Class Hierarchy</title>
<!-- Node38 -->
<g id="node1" class="node">
<title>Node38</title>
<g id="a_node1"><a xlink:title=" ">
<polygon fill="none" stroke="#bfbfbf" points="0,-66.5 0,-85.5 89,-85.5 89,-66.5 0,-66.5"/>
<text text-anchor="middle" x="44.5" y="-73.5" font-family="Helvetica,sans-Serif" font-size="10.00">std::false_type</text>
</a>
</g>
</g>
<!-- Node0 -->
<g id="node2" class="node">
<title>Node0</title>
<g id="a_node2"><a xlink:href="structbeluga_1_1has__common__tuple__type.html" target="_top" xlink:title="Meta&#45;function that checks for the existence of a common tuple type.">
<polygon fill="none" stroke="black" points="125,-110.5 125,-151.5 262,-151.5 262,-110.5 125,-110.5"/>
<text text-anchor="start" x="133" y="-139.5" font-family="Helvetica,sans-Serif" font-size="10.00">beluga::has_common</text>
<text text-anchor="start" x="133" y="-128.5" font-family="Helvetica,sans-Serif" font-size="10.00">_tuple_type&lt; typename,</text>
<text text-anchor="middle" x="193.5" y="-117.5" font-family="Helvetica,sans-Serif" font-size="10.00"> typename, typename &gt;</text>
</a>
</g>
</g>
<!-- Node38&#45;&gt;Node0 -->
<g id="edge1" class="edge">
<title>Node38&#45;&gt;Node0</title>
<path fill="none" stroke="midnightblue" d="M80.66,-89.16C97.71,-95.54 118.59,-103.35 137.66,-110.48"/>
<polygon fill="midnightblue" stroke="midnightblue" points="81.7,-85.81 71.11,-85.58 79.24,-92.36 81.7,-85.81"/>
</g>
<!-- Node40 -->
<g id="node3" class="node">
<title>Node40</title>
<g id="a_node3"><a xlink:href="structbeluga_1_1has__likelihood__field.html" target="_top" xlink:title=" ">
<polygon fill="none" stroke="black" points="131,-61 131,-91 256,-91 256,-61 131,-61"/>
<text text-anchor="start" x="139" y="-79" font-family="Helvetica,sans-Serif" font-size="10.00">beluga::has_likelihood</text>
<text text-anchor="middle" x="193.5" y="-68" font-family="Helvetica,sans-Serif" font-size="10.00">_field&lt; T, class &gt;</text>
</a>
</g>
</g>
<!-- Node38&#45;&gt;Node40 -->
<g id="edge2" class="edge">
<title>Node38&#45;&gt;Node40</title>
<path fill="none" stroke="midnightblue" d="M99.23,-76C109.47,-76 120.27,-76 130.74,-76"/>
<polygon fill="midnightblue" stroke="midnightblue" points="99.21,-72.5 89.21,-76 99.21,-79.5 99.21,-72.5"/>
</g>
<!-- Node41 -->
<g id="node4" class="node">
<title>Node41</title>
<g id="a_node4"><a xlink:href="structbeluga_1_1has__single__element.html" target="_top" xlink:title="Meta&#45;function that returns true if there is a single element of type T in the tuple&#45;like type.">
<polygon fill="none" stroke="black" points="126.5,-0.5 126.5,-41.5 260.5,-41.5 260.5,-0.5 126.5,-0.5"/>
<text text-anchor="start" x="134.5" y="-29.5" font-family="Helvetica,sans-Serif" font-size="10.00">beluga::has_single</text>
<text text-anchor="start" x="134.5" y="-18.5" font-family="Helvetica,sans-Serif" font-size="10.00">_element&lt; T, TupleLike,</text>
<text text-anchor="middle" x="193.5" y="-7.5" font-family="Helvetica,sans-Serif" font-size="10.00"> class &gt;</text>
</a>
</g>
</g>
<!-- Node38&#45;&gt;Node41 -->
<g id="edge3" class="edge">
<title>Node38&#45;&gt;Node41</title>
<path fill="none" stroke="midnightblue" d="M80.66,-62.84C97.71,-56.46 118.59,-48.65 137.66,-41.52"/>
<polygon fill="midnightblue" stroke="midnightblue" points="79.24,-59.64 71.11,-66.42 81.7,-66.19 79.24,-59.64"/>
</g>
</g>
</svg>
