<?xml version="1.0" encoding="UTF-8" standalone="no"?>
<!DOCTYPE svg PUBLIC "-//W3C//DTD SVG 1.1//EN"
 "http://www.w3.org/Graphics/SVG/1.1/DTD/svg11.dtd">
<!-- Generated by graphviz version 2.43.0 (0)
 -->
<!-- Title: Graphical Class Hierarchy Pages: 1 -->
<svg width="306pt" height="145pt"
 viewBox="0.00 0.00 306.00 144.50" xmlns="http://www.w3.org/2000/svg" xmlns:xlink="http://www.w3.org/1999/xlink">
<g id="graph0" class="graph" transform="scale(1 1) rotate(0) translate(4 140.5)">
<title>Graphical Class Hierarchy</title>
<!-- Node30 -->
<g id="node1" class="node">
<title>Node30</title>
<g id="a_node1"><a xlink:title=" ">
<polygon fill="none" stroke="#bfbfbf" points="0,-114.5 0,-133.5 113,-133.5 113,-114.5 0,-114.5"/>
<text text-anchor="middle" x="56.5" y="-121.5" font-family="Helvetica,sans-Serif" font-size="10.00">decltype(particles_)</text>
</a>
</g>
</g>
<!-- Node0 -->
<g id="node2" class="node">
<title>Node0</title>
<g id="a_node2"><a xlink:href="structbeluga_1_1policy.html" target="_top" xlink:title=" ">
<polygon fill="none" stroke="black" points="154.5,-106 154.5,-136 292.5,-136 292.5,-106 154.5,-106"/>
<text text-anchor="start" x="162.5" y="-124" font-family="Helvetica,sans-Serif" font-size="10.00">beluga::policy&lt; decltype</text>
<text text-anchor="middle" x="223.5" y="-113" font-family="Helvetica,sans-Serif" font-size="10.00">(particles_)&gt;</text>
</a>
</g>
</g>
<!-- Node30&#45;&gt;Node0 -->
<g id="edge1" class="edge">
<title>Node30&#45;&gt;Node0</title>
<path fill="none" stroke="midnightblue" d="M123.41,-122.8C133.61,-122.62 144.16,-122.42 154.4,-122.24"/>
<polygon fill="midnightblue" stroke="midnightblue" points="123.3,-119.3 113.36,-122.98 123.42,-126.3 123.3,-119.3"/>
</g>
<!-- Node88 -->
<g id="node3" class="node">
<title>Node88</title>
<g id="a_node3"><a xlink:href="structbeluga_1_1policy__base.html" target="_top" xlink:title="Implementation detail for a policy base object.">
<polygon fill="none" stroke="black" points="0,-76.5 0,-95.5 113,-95.5 113,-76.5 0,-76.5"/>
<text text-anchor="middle" x="56.5" y="-83.5" font-family="Helvetica,sans-Serif" font-size="10.00">beluga::policy_base</text>
</a>
</g>
</g>
<!-- Node88&#45;&gt;Node0 -->
<g id="edge3" class="edge">
<title>Node88&#45;&gt;Node0</title>
<path fill="none" stroke="midnightblue" d="M112.56,-97.68C125.92,-100.51 140.36,-103.58 154.24,-106.52"/>
<polygon fill="midnightblue" stroke="midnightblue" points="113.1,-94.22 102.59,-95.56 111.64,-101.06 113.1,-94.22"/>
</g>
<!-- Node89 -->
<g id="node4" class="node">
<title>Node89</title>
<g id="a_node4"><a xlink:href="structbeluga_1_1policy.html" target="_top" xlink:title=" ">
<polygon fill="none" stroke="black" points="163,-54 163,-84 284,-84 284,-54 163,-54"/>
<text text-anchor="start" x="171" y="-72" font-family="Helvetica,sans-Serif" font-size="10.00">beluga::policy&lt; state</text>
<text text-anchor="middle" x="223.5" y="-61" font-family="Helvetica,sans-Serif" font-size="10.00">_type &gt;</text>
</a>
</g>
</g>
<!-- Node88&#45;&gt;Node89 -->
<g id="edge2" class="edge">
<title>Node88&#45;&gt;Node89</title>
<path fill="none" stroke="midnightblue" d="M123.59,-79.19C136.53,-77.86 150.03,-76.47 162.74,-75.16"/>
<polygon fill="midnightblue" stroke="midnightblue" points="122.95,-75.74 113.36,-80.24 123.67,-82.7 122.95,-75.74"/>
</g>
<!-- Node90 -->
<g id="node5" class="node">
<title>Node90</title>
<g id="a_node5"><a xlink:href="structbeluga_1_1policy.html" target="_top" xlink:title="Forward declaration of policy.">
<polygon fill="none" stroke="black" points="149,-10.5 149,-29.5 298,-29.5 298,-10.5 149,-10.5"/>
<text text-anchor="middle" x="223.5" y="-17.5" font-family="Helvetica,sans-Serif" font-size="10.00">beluga::policy&lt; PolicyFn &gt;</text>
</a>
</g>
</g>
<!-- Node88&#45;&gt;Node90 -->
<g id="edge4" class="edge">
<title>Node88&#45;&gt;Node90</title>
<path fill="none" stroke="midnightblue" d="M99.09,-72.88C103.84,-71.05 108.57,-69.08 113,-67 129.97,-59.03 132.02,-52.96 149,-45 161.82,-38.99 176.48,-33.71 189.33,-29.57"/>
<polygon fill="midnightblue" stroke="midnightblue" points="97.58,-69.71 89.38,-76.42 99.97,-76.28 97.58,-69.71"/>
</g>
<!-- Node91 -->
<g id="node6" class="node">
<title>Node91</title>
<g id="a_node6"><a xlink:title=" ">
<polygon fill="none" stroke="#bfbfbf" points="27.5,-0.5 27.5,-19.5 85.5,-19.5 85.5,-0.5 27.5,-0.5"/>
<text text-anchor="middle" x="56.5" y="-7.5" font-family="Helvetica,sans-Serif" font-size="10.00">PolicyFn</text>
</a>
</g>
</g>
<!-- Node91&#45;&gt;Node90 -->
<g id="edge5" class="edge">
<title>Node91&#45;&gt;Node90</title>
<path fill="none" stroke="midnightblue" d="M96.22,-12.35C111.94,-13.3 130.64,-14.43 148.77,-15.53"/>
<polygon fill="midnightblue" stroke="midnightblue" points="96.06,-8.83 85.86,-11.72 95.63,-15.82 96.06,-8.83"/>
</g>
<!-- Node111 -->
<g id="node7" class="node">
<title>Node111</title>
<g id="a_node7"><a xlink:title=" ">
<polygon fill="none" stroke="#bfbfbf" points="22.5,-38.5 22.5,-57.5 90.5,-57.5 90.5,-38.5 22.5,-38.5"/>
<text text-anchor="middle" x="56.5" y="-45.5" font-family="Helvetica,sans-Serif" font-size="10.00">state_type</text>
</a>
</g>
</g>
<!-- Node111&#45;&gt;Node89 -->
<g id="edge6" class="edge">
<title>Node111&#45;&gt;Node89</title>
<path fill="none" stroke="midnightblue" d="M100.99,-53.54C119.9,-55.94 142.36,-58.8 162.79,-61.4"/>
<polygon fill="midnightblue" stroke="midnightblue" points="101.25,-50.04 90.89,-52.25 100.37,-56.98 101.25,-50.04"/>
</g>
</g>
</svg>
