<?xml version="1.0" encoding="UTF-8" standalone="no"?>
<!DOCTYPE svg PUBLIC "-//W3C//DTD SVG 1.1//EN"
 "http://www.w3.org/Graphics/SVG/1.1/DTD/svg11.dtd">
<!-- Generated by graphviz version 2.43.0 (0)
 -->
<!-- Title: Graphical Class Hierarchy Pages: 1 -->
<svg width="892pt" height="207pt"
 viewBox="0.00 0.00 892.00 207.00" xmlns="http://www.w3.org/2000/svg" xmlns:xlink="http://www.w3.org/1999/xlink">
<g id="graph0" class="graph" transform="scale(1 1) rotate(0) translate(4 203)">
<title>Graphical Class Hierarchy</title>
<!-- Node11 -->
<g id="node1" class="node">
<title>Node11</title>
<g id="a_node1"><a xlink:title=" ">
<polygon fill="none" stroke="#bfbfbf" points="0,-125 0,-144 123,-144 123,-125 0,-125"/>
<text text-anchor="middle" x="61.5" y="-132" font-family="Helvetica,sans-Serif" font-size="10.00">ciabatta::ciabatta_top</text>
</a>
</g>
</g>
<!-- Node0 -->
<g id="node2" class="node">
<title>Node0</title>
<g id="a_node2"><a xlink:href="classbeluga_1_1BaseRegularGrid2.html" target="_top" xlink:title=" ">
<polygon fill="none" stroke="black" points="159,-168.5 159,-198.5 344,-198.5 344,-168.5 159,-168.5"/>
<text text-anchor="start" x="167" y="-186.5" font-family="Helvetica,sans-Serif" font-size="10.00">beluga::BaseRegularGrid2</text>
<text text-anchor="middle" x="251.5" y="-175.5" font-family="Helvetica,sans-Serif" font-size="10.00">&lt; SparseValueGrid&lt; MapType &gt; &gt;</text>
</a>
</g>
</g>
<!-- Node11&#45;&gt;Node0 -->
<g id="edge1" class="edge">
<title>Node11&#45;&gt;Node0</title>
<path fill="none" stroke="midnightblue" d="M108.93,-146.6C134.28,-153.21 165.89,-161.45 192.81,-168.46"/>
<polygon fill="midnightblue" stroke="midnightblue" points="109.75,-143.2 99.19,-144.06 107.99,-149.97 109.75,-143.2"/>
</g>
<!-- Node14 -->
<g id="node4" class="node">
<title>Node14</title>
<g id="a_node4"><a xlink:href="classbeluga_1_1BaseLaserScan.html" target="_top" xlink:title="Laser scan 2D base type.">
<polygon fill="none" stroke="black" points="187,-119.5 187,-149.5 316,-149.5 316,-119.5 187,-119.5"/>
<text text-anchor="start" x="195" y="-137.5" font-family="Helvetica,sans-Serif" font-size="10.00">beluga::BaseLaserScan</text>
<text text-anchor="middle" x="251.5" y="-126.5" font-family="Helvetica,sans-Serif" font-size="10.00">&lt; Derived &gt;</text>
</a>
</g>
</g>
<!-- Node11&#45;&gt;Node14 -->
<g id="edge3" class="edge">
<title>Node11&#45;&gt;Node14</title>
<path fill="none" stroke="midnightblue" d="M133.23,-134.5C150.84,-134.5 169.61,-134.5 186.86,-134.5"/>
<polygon fill="midnightblue" stroke="midnightblue" points="133.02,-131 123.02,-134.5 133.02,-138 133.02,-131"/>
</g>
<!-- Node15 -->
<g id="node5" class="node">
<title>Node15</title>
<g id="a_node5"><a xlink:href="classbeluga_1_1BaseRegularGrid2.html" target="_top" xlink:title="Regularly spaced 2D grid base type.">
<polygon fill="none" stroke="black" points="180,-70.5 180,-100.5 323,-100.5 323,-70.5 180,-70.5"/>
<text text-anchor="start" x="188" y="-88.5" font-family="Helvetica,sans-Serif" font-size="10.00">beluga::BaseRegularGrid2</text>
<text text-anchor="middle" x="251.5" y="-77.5" font-family="Helvetica,sans-Serif" font-size="10.00">&lt; Derived &gt;</text>
</a>
</g>
</g>
<!-- Node11&#45;&gt;Node15 -->
<g id="edge4" class="edge">
<title>Node11&#45;&gt;Node15</title>
<path fill="none" stroke="midnightblue" d="M108.93,-122.4C134.28,-115.79 165.89,-107.55 192.81,-100.54"/>
<polygon fill="midnightblue" stroke="midnightblue" points="107.99,-119.03 99.19,-124.94 109.75,-125.8 107.99,-119.03"/>
</g>
<!-- Node1 -->
<g id="node3" class="node">
<title>Node1</title>
<g id="a_node3"><a xlink:href="classbeluga_1_1SparseValueGrid.html" target="_top" xlink:title="Generic 2D sparse value regular grid.">
<polygon fill="none" stroke="black" points="380.5,-168.5 380.5,-198.5 516.5,-198.5 516.5,-168.5 380.5,-168.5"/>
<text text-anchor="start" x="388.5" y="-186.5" font-family="Helvetica,sans-Serif" font-size="10.00">beluga::SparseValueGrid</text>
<text text-anchor="middle" x="448.5" y="-175.5" font-family="Helvetica,sans-Serif" font-size="10.00">&lt; MapType &gt;</text>
</a>
</g>
</g>
<!-- Node0&#45;&gt;Node1 -->
<g id="edge2" class="edge">
<title>Node0&#45;&gt;Node1</title>
<path fill="none" stroke="midnightblue" d="M354.08,-183.5C363.01,-183.5 371.88,-183.5 380.42,-183.5"/>
<polygon fill="midnightblue" stroke="midnightblue" points="354,-180 344,-183.5 354,-187 354,-180"/>
</g>
<!-- Node16 -->
<g id="node6" class="node">
<title>Node16</title>
<g id="a_node6"><a xlink:href="classbeluga_1_1BaseDenseGrid2.html" target="_top" xlink:title="Dense 2D grid base type.">
<polygon fill="none" stroke="black" points="380,-70.5 380,-100.5 517,-100.5 517,-70.5 380,-70.5"/>
<text text-anchor="start" x="388" y="-88.5" font-family="Helvetica,sans-Serif" font-size="10.00">beluga::BaseDenseGrid2</text>
<text text-anchor="middle" x="448.5" y="-77.5" font-family="Helvetica,sans-Serif" font-size="10.00">&lt; Derived &gt;</text>
</a>
</g>
</g>
<!-- Node15&#45;&gt;Node16 -->
<g id="edge5" class="edge">
<title>Node15&#45;&gt;Node16</title>
<path fill="none" stroke="midnightblue" d="M333.28,-85.5C348.82,-85.5 364.93,-85.5 379.99,-85.5"/>
<polygon fill="midnightblue" stroke="midnightblue" points="333.18,-82 323.18,-85.5 333.18,-89 333.18,-82"/>
</g>
<!-- Node17 -->
<g id="node7" class="node">
<title>Node17</title>
<g id="a_node7"><a xlink:href="classbeluga_1_1BaseLinearGrid2.html" target="_top" xlink:title=" ">
<polygon fill="none" stroke="black" points="553,-95.5 553,-125.5 689,-125.5 689,-95.5 553,-95.5"/>
<text text-anchor="start" x="561" y="-113.5" font-family="Helvetica,sans-Serif" font-size="10.00">beluga::BaseLinearGrid2</text>
<text text-anchor="middle" x="621" y="-102.5" font-family="Helvetica,sans-Serif" font-size="10.00">&lt; ValueGrid2&lt; T &gt; &gt;</text>
</a>
</g>
</g>
<!-- Node16&#45;&gt;Node17 -->
<g id="edge6" class="edge">
<title>Node16&#45;&gt;Node17</title>
<path fill="none" stroke="midnightblue" d="M527.34,-96.91C535.88,-98.17 544.52,-99.43 552.91,-100.66"/>
<polygon fill="midnightblue" stroke="midnightblue" points="527.78,-93.44 517.38,-95.45 526.76,-100.37 527.78,-93.44"/>
</g>
<!-- Node19 -->
<g id="node9" class="node">
<title>Node19</title>
<g id="a_node9"><a xlink:href="classbeluga_1_1BaseLinearGrid2.html" target="_top" xlink:title="Linear 2D grid base type.">
<polygon fill="none" stroke="black" points="553,-46.5 553,-76.5 689,-76.5 689,-46.5 553,-46.5"/>
<text text-anchor="start" x="561" y="-64.5" font-family="Helvetica,sans-Serif" font-size="10.00">beluga::BaseLinearGrid2</text>
<text text-anchor="middle" x="621" y="-53.5" font-family="Helvetica,sans-Serif" font-size="10.00">&lt; Derived &gt;</text>
</a>
</g>
</g>
<!-- Node16&#45;&gt;Node19 -->
<g id="edge8" class="edge">
<title>Node16&#45;&gt;Node19</title>
<path fill="none" stroke="midnightblue" d="M527.34,-74.54C535.88,-73.34 544.52,-72.12 552.91,-70.94"/>
<polygon fill="midnightblue" stroke="midnightblue" points="526.79,-71.09 517.38,-75.95 527.77,-78.02 526.79,-71.09"/>
</g>
<!-- Node18 -->
<g id="node8" class="node">
<title>Node18</title>
<g id="a_node8"><a xlink:href="classbeluga_1_1ValueGrid2.html" target="_top" xlink:title="Generic 2D linear value grid.">
<polygon fill="none" stroke="black" points="736,-101 736,-120 873,-120 873,-101 736,-101"/>
<text text-anchor="middle" x="804.5" y="-108" font-family="Helvetica,sans-Serif" font-size="10.00">beluga::ValueGrid2&lt; T &gt;</text>
</a>
</g>
</g>
<!-- Node17&#45;&gt;Node18 -->
<g id="edge7" class="edge">
<title>Node17&#45;&gt;Node18</title>
<path fill="none" stroke="midnightblue" d="M699.19,-110.5C711.36,-110.5 723.87,-110.5 735.8,-110.5"/>
<polygon fill="midnightblue" stroke="midnightblue" points="699.07,-107 689.07,-110.5 699.07,-114 699.07,-107"/>
</g>
<!-- Node20 -->
<g id="node10" class="node">
<title>Node20</title>
<g id="a_node10"><a xlink:href="classbeluga_1_1ValueGrid2.html" target="_top" xlink:title=" ">
<polygon fill="none" stroke="black" points="750,-49.5 750,-79.5 859,-79.5 859,-49.5 750,-49.5"/>
<text text-anchor="start" x="758" y="-67.5" font-family="Helvetica,sans-Serif" font-size="10.00">beluga::ValueGrid2</text>
<text text-anchor="middle" x="804.5" y="-56.5" font-family="Helvetica,sans-Serif" font-size="10.00">&lt; double &gt;</text>
</a>
</g>
</g>
<!-- Node19&#45;&gt;Node20 -->
<g id="edge9" class="edge">
<title>Node19&#45;&gt;Node20</title>
<path fill="none" stroke="midnightblue" d="M699.5,-62.78C716.43,-63.06 733.98,-63.35 749.73,-63.61"/>
<polygon fill="midnightblue" stroke="midnightblue" points="699.12,-59.27 689.07,-62.61 699.01,-66.27 699.12,-59.27"/>
</g>
<!-- Node21 -->
<g id="node11" class="node">
<title>Node21</title>
<g id="a_node11"><a xlink:href="classbeluga_1_1BaseOccupancyGrid2.html" target="_top" xlink:title="Occupancy 2D grid base type.">
<polygon fill="none" stroke="black" points="725,-0.5 725,-30.5 884,-30.5 884,-0.5 725,-0.5"/>
<text text-anchor="start" x="733" y="-18.5" font-family="Helvetica,sans-Serif" font-size="10.00">beluga::BaseOccupancyGrid2</text>
<text text-anchor="middle" x="804.5" y="-7.5" font-family="Helvetica,sans-Serif" font-size="10.00">&lt; Derived &gt;</text>
</a>
</g>
</g>
<!-- Node19&#45;&gt;Node21 -->
<g id="edge10" class="edge">
<title>Node19&#45;&gt;Node21</title>
<path fill="none" stroke="midnightblue" d="M691.52,-43.88C708.91,-39.47 727.41,-34.79 744.25,-30.52"/>
<polygon fill="midnightblue" stroke="midnightblue" points="690.26,-40.59 681.43,-46.44 691.98,-47.37 690.26,-40.59"/>
</g>
</g>
</svg>
