<?xml version="1.0" encoding="UTF-8" standalone="no"?>
<!DOCTYPE svg PUBLIC "-//W3C//DTD SVG 1.1//EN"
 "http://www.w3.org/Graphics/SVG/1.1/DTD/svg11.dtd">
<!-- Generated by graphviz version 2.43.0 (0)
 -->
<!-- Title: Graphical Class Hierarchy Pages: 1 -->
<svg width="327pt" height="237pt"
 viewBox="0.00 0.00 327.00 236.50" xmlns="http://www.w3.org/2000/svg" xmlns:xlink="http://www.w3.org/1999/xlink">
<g id="graph0" class="graph" transform="scale(1 1) rotate(0) translate(4 232.5)">
<title>Graphical Class Hierarchy</title>
<!-- Node118 -->
<g id="node1" class="node">
<title>Node118</title>
<g id="a_node1"><a xlink:title=" ">
<polygon fill="none" stroke="#bfbfbf" points="0,-121.5 0,-140.5 84,-140.5 84,-121.5 0,-121.5"/>
<text text-anchor="middle" x="42" y="-128.5" font-family="Helvetica,sans-Serif" font-size="10.00">std::true_type</text>
</a>
</g>
</g>
<!-- Node0 -->
<g id="node2" class="node">
<title>Node0</title>
<g id="a_node2"><a xlink:href="structbeluga_1_1has__common__tuple__type_3_01T_00_01U_00_01std_1_1void__t_3_01common__tuple__typ87797e8c898985f6b7323492f6753a83.html" target="_top" xlink:title="has_common_tuple_type specialization for tuple&#45;like types T and U for which a common tuple type exist...">
<polygon fill="none" stroke="black" points="151,-176 151,-228 288,-228 288,-176 151,-176"/>
<text text-anchor="start" x="159" y="-216" font-family="Helvetica,sans-Serif" font-size="10.00">beluga::has_common</text>
<text text-anchor="start" x="159" y="-205" font-family="Helvetica,sans-Serif" font-size="10.00">_tuple_type&lt; T, U, std</text>
<text text-anchor="start" x="159" y="-194" font-family="Helvetica,sans-Serif" font-size="10.00">::void_t&lt; common_tuple</text>
<text text-anchor="middle" x="219.5" y="-183" font-family="Helvetica,sans-Serif" font-size="10.00">_type_t&lt; T, U &gt; &gt; &gt;</text>
</a>
</g>
</g>
<!-- Node118&#45;&gt;Node0 -->
<g id="edge1" class="edge">
<title>Node118&#45;&gt;Node0</title>
<path fill="none" stroke="midnightblue" d="M71.44,-145.09C85.84,-152.03 103.69,-160.31 120,-167 129.91,-171.06 140.48,-175.11 150.88,-178.94"/>
<polygon fill="midnightblue" stroke="midnightblue" points="72.6,-141.77 62.08,-140.54 69.54,-148.06 72.6,-141.77"/>
</g>
<!-- Node120 -->
<g id="node3" class="node">
<title>Node120</title>
<g id="a_node3"><a xlink:href="structbeluga_1_1has__likelihood__field_3_01T_00_01std_1_1void__t_3_01decltype_07std_1_1declval_30323e42ac79026fd6376eb5a7a94648b.html" target="_top" xlink:title=" ">
<polygon fill="none" stroke="black" points="139.5,-105 139.5,-157 299.5,-157 299.5,-105 139.5,-105"/>
<text text-anchor="start" x="147.5" y="-145" font-family="Helvetica,sans-Serif" font-size="10.00">beluga::has_likelihood</text>
<text text-anchor="start" x="147.5" y="-134" font-family="Helvetica,sans-Serif" font-size="10.00">_field&lt; T, std::void_t</text>
<text text-anchor="start" x="147.5" y="-123" font-family="Helvetica,sans-Serif" font-size="10.00">&lt; decltype(std::declval</text>
<text text-anchor="middle" x="219.5" y="-112" font-family="Helvetica,sans-Serif" font-size="10.00">&lt; T &gt;().likelihood_field())&gt; &gt;</text>
</a>
</g>
</g>
<!-- Node118&#45;&gt;Node120 -->
<g id="edge2" class="edge">
<title>Node118&#45;&gt;Node120</title>
<path fill="none" stroke="midnightblue" d="M94.15,-131C108.3,-131 124,-131 139.35,-131"/>
<polygon fill="midnightblue" stroke="midnightblue" points="94.15,-127.5 84.15,-131 94.15,-134.5 94.15,-127.5"/>
</g>
<!-- Node121 -->
<g id="node4" class="node">
<title>Node121</title>
<g id="a_node4"><a xlink:href="structbeluga_1_1has__single__element_3_01T_00_01TupleLike_3_01Args_8_8_8_01_4_00_01std_1_1enable74bb370853b4969c8155f7c3b3c0dd64.html" target="_top" xlink:title="has_single_element specialization for tuples.">
<polygon fill="none" stroke="black" points="120,-0.5 120,-85.5 319,-85.5 319,-0.5 120,-0.5"/>
<text text-anchor="start" x="128" y="-73.5" font-family="Helvetica,sans-Serif" font-size="10.00">beluga::has_single</text>
<text text-anchor="start" x="128" y="-62.5" font-family="Helvetica,sans-Serif" font-size="10.00">_element&lt; T, TupleLike</text>
<text text-anchor="start" x="128" y="-51.5" font-family="Helvetica,sans-Serif" font-size="10.00">&lt; Args... &gt;, std::enable</text>
<text text-anchor="start" x="128" y="-40.5" font-family="Helvetica,sans-Serif" font-size="10.00">_if_t&lt; is_tuple_like_v&lt;</text>
<text text-anchor="start" x="128" y="-29.5" font-family="Helvetica,sans-Serif" font-size="10.00"> std::decay_t&lt; TupleLike</text>
<text text-anchor="start" x="128" y="-18.5" font-family="Helvetica,sans-Serif" font-size="10.00">&lt; Args... &gt; &gt; &gt; &amp;&amp;detail::</text>
<text text-anchor="middle" x="219.5" y="-7.5" font-family="Helvetica,sans-Serif" font-size="10.00">tuple_index_found&lt; T, Args... &gt;()&gt; &gt;</text>
</a>
</g>
</g>
<!-- Node118&#45;&gt;Node121 -->
<g id="edge3" class="edge">
<title>Node118&#45;&gt;Node121</title>
<path fill="none" stroke="midnightblue" d="M71.47,-116.73C88.53,-108.17 111.2,-96.8 133.63,-85.56"/>
<polygon fill="midnightblue" stroke="midnightblue" points="69.49,-113.8 62.12,-121.41 72.62,-120.06 69.49,-113.8"/>
</g>
</g>
</svg>
