<?xml version="1.0" encoding="UTF-8" standalone="no"?>
<!DOCTYPE svg PUBLIC "-//W3C//DTD SVG 1.1//EN"
 "http://www.w3.org/Graphics/SVG/1.1/DTD/svg11.dtd">
<!-- Generated by graphviz version 2.43.0 (0)
 -->
<!-- Title: Graphical Class Hierarchy Pages: 1 -->
<svg width="494pt" height="50pt"
 viewBox="0.00 0.00 494.00 50.00" xmlns="http://www.w3.org/2000/svg" xmlns:xlink="http://www.w3.org/1999/xlink">
<g id="graph0" class="graph" transform="scale(1 1) rotate(0) translate(4 46)">
<title>Graphical Class Hierarchy</title>
<!-- Node0 -->
<g id="node1" class="node">
<title>Node0</title>
<g id="a_node1"><a xlink:href="structbeluga_1_1enable__self.html" target="_top" xlink:title="An implementation of a mixin that provides downcasting methods.">
<polygon fill="none" stroke="black" points="0,-6 0,-36 112,-36 112,-6 0,-6"/>
<text text-anchor="start" x="8" y="-24" font-family="Helvetica,sans-Serif" font-size="10.00">beluga::enable_self</text>
<text text-anchor="middle" x="56" y="-13" font-family="Helvetica,sans-Serif" font-size="10.00">&lt; MostDerived &gt;</text>
</a>
</g>
</g>
<!-- Node1 -->
<g id="node2" class="node">
<title>Node1</title>
<g id="a_node2"><a xlink:href="classbeluga_1_1BaseRegularGrid.html" target="_top" xlink:title=" ">
<polygon fill="none" stroke="black" points="148,-0.5 148,-41.5 314,-41.5 314,-0.5 148,-0.5"/>
<text text-anchor="start" x="156" y="-29.5" font-family="Helvetica,sans-Serif" font-size="10.00">beluga::BaseRegularGrid</text>
<text text-anchor="start" x="156" y="-18.5" font-family="Helvetica,sans-Serif" font-size="10.00">&lt; SparseValueGrid&lt; MapType,</text>
<text text-anchor="middle" x="231" y="-7.5" font-family="Helvetica,sans-Serif" font-size="10.00"> NDim &gt;, NDim &gt;</text>
</a>
</g>
</g>
<!-- Node0&#45;&gt;Node1 -->
<g id="edge1" class="edge">
<title>Node0&#45;&gt;Node1</title>
<path fill="none" stroke="midnightblue" d="M122.26,-21C130.63,-21 139.29,-21 147.88,-21"/>
<polygon fill="midnightblue" stroke="midnightblue" points="122.21,-17.5 112.21,-21 122.21,-24.5 122.21,-17.5"/>
</g>
<!-- Node2 -->
<g id="node3" class="node">
<title>Node2</title>
<g id="a_node3"><a xlink:href="classbeluga_1_1SparseValueGrid.html" target="_top" xlink:title="Generic N dimensional sparse value regular grid.">
<polygon fill="none" stroke="black" points="350,-6 350,-36 486,-36 486,-6 350,-6"/>
<text text-anchor="start" x="358" y="-24" font-family="Helvetica,sans-Serif" font-size="10.00">beluga::SparseValueGrid</text>
<text text-anchor="middle" x="418" y="-13" font-family="Helvetica,sans-Serif" font-size="10.00">&lt; MapType, NDim &gt;</text>
</a>
</g>
</g>
<!-- Node1&#45;&gt;Node2 -->
<g id="edge2" class="edge">
<title>Node1&#45;&gt;Node2</title>
<path fill="none" stroke="midnightblue" d="M324.27,-21C332.85,-21 341.43,-21 349.72,-21"/>
<polygon fill="midnightblue" stroke="midnightblue" points="324.22,-17.5 314.22,-21 324.22,-24.5 324.22,-17.5"/>
</g>
</g>
</svg>
