<?xml version="1.0" encoding="UTF-8" standalone="no"?>
<!DOCTYPE svg PUBLIC "-//W3C//DTD SVG 1.1//EN"
 "http://www.w3.org/Graphics/SVG/1.1/DTD/svg11.dtd">
<!-- Generated by graphviz version 2.43.0 (0)
 -->
<!-- Title: Graphical Class Hierarchy Pages: 1 -->
<svg width="873pt" height="268pt"
 viewBox="0.00 0.00 873.00 267.50" xmlns="http://www.w3.org/2000/svg" xmlns:xlink="http://www.w3.org/1999/xlink">
<g id="graph0" class="graph" transform="scale(1 1) rotate(0) translate(4 263.5)">
<title>Graphical Class Hierarchy</title>
<!-- Node11 -->
<g id="node1" class="node">
<title>Node11</title>
<g id="a_node1"><a xlink:title=" ">
<polygon fill="none" stroke="#bfbfbf" points="0,-125 0,-144 123,-144 123,-125 0,-125"/>
<text text-anchor="middle" x="61.5" y="-132" font-family="Helvetica,sans-Serif" font-size="10.00">ciabatta::ciabatta_top</text>
</a>
</g>
</g>
<!-- Node0 -->
<g id="node2" class="node">
<title>Node0</title>
<g id="a_node2"><a xlink:href="classbeluga_1_1BaseRegularGrid.html" target="_top" xlink:title=" ">
<polygon fill="none" stroke="black" points="159,-218 159,-259 325,-259 325,-218 159,-218"/>
<text text-anchor="start" x="167" y="-247" font-family="Helvetica,sans-Serif" font-size="10.00">beluga::BaseRegularGrid</text>
<text text-anchor="start" x="167" y="-236" font-family="Helvetica,sans-Serif" font-size="10.00">&lt; SparseValueGrid&lt; MapType,</text>
<text text-anchor="middle" x="242" y="-225" font-family="Helvetica,sans-Serif" font-size="10.00"> NDim &gt;, NDim &gt;</text>
</a>
</g>
</g>
<!-- Node11&#45;&gt;Node0 -->
<g id="edge1" class="edge">
<title>Node11&#45;&gt;Node0</title>
<path fill="none" stroke="midnightblue" d="M80.39,-150.92C98.94,-167.26 129.32,-192.19 159,-208.5 165.11,-211.86 171.67,-214.98 178.33,-217.84"/>
<polygon fill="midnightblue" stroke="midnightblue" points="82.54,-148.14 72.75,-144.08 77.87,-153.36 82.54,-148.14"/>
</g>
<!-- Node14 -->
<g id="node4" class="node">
<title>Node14</title>
<g id="a_node4"><a xlink:href="classbeluga_1_1BaseLaserScan.html" target="_top" xlink:title="Laser scan 2D base type.">
<polygon fill="none" stroke="black" points="177.5,-168.5 177.5,-198.5 306.5,-198.5 306.5,-168.5 177.5,-168.5"/>
<text text-anchor="start" x="185.5" y="-186.5" font-family="Helvetica,sans-Serif" font-size="10.00">beluga::BaseLaserScan</text>
<text text-anchor="middle" x="242" y="-175.5" font-family="Helvetica,sans-Serif" font-size="10.00">&lt; Derived &gt;</text>
</a>
</g>
</g>
<!-- Node11&#45;&gt;Node14 -->
<g id="edge3" class="edge">
<title>Node11&#45;&gt;Node14</title>
<path fill="none" stroke="midnightblue" d="M107.23,-146.78C131.18,-153.35 160.89,-161.51 186.22,-168.46"/>
<polygon fill="midnightblue" stroke="midnightblue" points="107.91,-143.34 97.34,-144.06 106.06,-150.09 107.91,-143.34"/>
</g>
<!-- Node15 -->
<g id="node5" class="node">
<title>Node15</title>
<g id="a_node5"><a xlink:href="classbeluga_1_1BasePointCloud.html" target="_top" xlink:title="Point Cloud 3D base type.">
<polygon fill="none" stroke="black" points="176,-119.5 176,-149.5 308,-149.5 308,-119.5 176,-119.5"/>
<text text-anchor="start" x="184" y="-137.5" font-family="Helvetica,sans-Serif" font-size="10.00">beluga::BasePointCloud</text>
<text text-anchor="middle" x="242" y="-126.5" font-family="Helvetica,sans-Serif" font-size="10.00">&lt; Derived &gt;</text>
</a>
</g>
</g>
<!-- Node11&#45;&gt;Node15 -->
<g id="edge4" class="edge">
<title>Node11&#45;&gt;Node15</title>
<path fill="none" stroke="midnightblue" d="M133.46,-134.5C147.42,-134.5 162.01,-134.5 175.77,-134.5"/>
<polygon fill="midnightblue" stroke="midnightblue" points="133.43,-131 123.43,-134.5 133.43,-138 133.43,-131"/>
</g>
<!-- Node16 -->
<g id="node6" class="node">
<title>Node16</title>
<g id="a_node6"><a xlink:href="classbeluga_1_1BaseRegularGrid.html" target="_top" xlink:title="Regularly spaced N dimensional grid base type.">
<polygon fill="none" stroke="black" points="173.5,-70.5 173.5,-100.5 310.5,-100.5 310.5,-70.5 173.5,-70.5"/>
<text text-anchor="start" x="181.5" y="-88.5" font-family="Helvetica,sans-Serif" font-size="10.00">beluga::BaseRegularGrid</text>
<text text-anchor="middle" x="242" y="-77.5" font-family="Helvetica,sans-Serif" font-size="10.00">&lt; Derived, NDim &gt;</text>
</a>
</g>
</g>
<!-- Node11&#45;&gt;Node16 -->
<g id="edge5" class="edge">
<title>Node11&#45;&gt;Node16</title>
<path fill="none" stroke="midnightblue" d="M107.23,-122.22C131.18,-115.65 160.89,-107.49 186.22,-100.54"/>
<polygon fill="midnightblue" stroke="midnightblue" points="106.06,-118.91 97.34,-124.94 107.91,-125.66 106.06,-118.91"/>
</g>
<!-- Node23 -->
<g id="node13" class="node">
<title>Node23</title>
<g id="a_node13"><a xlink:href="classbeluga_1_1BaseSparsePointCloud.html" target="_top" xlink:title="Sparse Point Cloud 3D base type.">
<polygon fill="none" stroke="black" points="159.5,-21.5 159.5,-51.5 324.5,-51.5 324.5,-21.5 159.5,-21.5"/>
<text text-anchor="start" x="167.5" y="-39.5" font-family="Helvetica,sans-Serif" font-size="10.00">beluga::BaseSparsePointCloud</text>
<text text-anchor="middle" x="242" y="-28.5" font-family="Helvetica,sans-Serif" font-size="10.00">&lt; Derived &gt;</text>
</a>
</g>
</g>
<!-- Node11&#45;&gt;Node23 -->
<g id="edge12" class="edge">
<title>Node11&#45;&gt;Node23</title>
<path fill="none" stroke="midnightblue" d="M80.25,-117.98C98.69,-101.6 128.98,-76.82 159,-61.5 166.29,-57.78 174.23,-54.5 182.21,-51.65"/>
<polygon fill="midnightblue" stroke="midnightblue" points="77.73,-115.54 72.66,-124.84 82.43,-120.73 77.73,-115.54"/>
</g>
<!-- Node1 -->
<g id="node3" class="node">
<title>Node1</title>
<g id="a_node3"><a xlink:href="classbeluga_1_1SparseValueGrid.html" target="_top" xlink:title="Generic N dimensional sparse value regular grid.">
<polygon fill="none" stroke="black" points="361.5,-223.5 361.5,-253.5 497.5,-253.5 497.5,-223.5 361.5,-223.5"/>
<text text-anchor="start" x="369.5" y="-241.5" font-family="Helvetica,sans-Serif" font-size="10.00">beluga::SparseValueGrid</text>
<text text-anchor="middle" x="429.5" y="-230.5" font-family="Helvetica,sans-Serif" font-size="10.00">&lt; MapType, NDim &gt;</text>
</a>
</g>
</g>
<!-- Node0&#45;&gt;Node1 -->
<g id="edge2" class="edge">
<title>Node0&#45;&gt;Node1</title>
<path fill="none" stroke="midnightblue" d="M335.43,-238.5C344.19,-238.5 352.95,-238.5 361.4,-238.5"/>
<polygon fill="midnightblue" stroke="midnightblue" points="335.17,-235 325.17,-238.5 335.17,-242 335.17,-235"/>
</g>
<!-- Node17 -->
<g id="node7" class="node">
<title>Node17</title>
<g id="a_node7"><a xlink:href="classbeluga_1_1BaseDenseGrid2.html" target="_top" xlink:title="Dense 2D grid base type.">
<polygon fill="none" stroke="black" points="361,-70.5 361,-100.5 498,-100.5 498,-70.5 361,-70.5"/>
<text text-anchor="start" x="369" y="-88.5" font-family="Helvetica,sans-Serif" font-size="10.00">beluga::BaseDenseGrid2</text>
<text text-anchor="middle" x="429.5" y="-77.5" font-family="Helvetica,sans-Serif" font-size="10.00">&lt; Derived &gt;</text>
</a>
</g>
</g>
<!-- Node16&#45;&gt;Node17 -->
<g id="edge6" class="edge">
<title>Node16&#45;&gt;Node17</title>
<path fill="none" stroke="midnightblue" d="M320.84,-85.5C334.16,-85.5 347.9,-85.5 360.93,-85.5"/>
<polygon fill="midnightblue" stroke="midnightblue" points="320.76,-82 310.76,-85.5 320.76,-89 320.76,-82"/>
</g>
<!-- Node18 -->
<g id="node8" class="node">
<title>Node18</title>
<g id="a_node8"><a xlink:href="classbeluga_1_1BaseLinearGrid2.html" target="_top" xlink:title=" ">
<polygon fill="none" stroke="black" points="534,-95.5 534,-125.5 670,-125.5 670,-95.5 534,-95.5"/>
<text text-anchor="start" x="542" y="-113.5" font-family="Helvetica,sans-Serif" font-size="10.00">beluga::BaseLinearGrid2</text>
<text text-anchor="middle" x="602" y="-102.5" font-family="Helvetica,sans-Serif" font-size="10.00">&lt; ValueGrid2&lt; T &gt; &gt;</text>
</a>
</g>
</g>
<!-- Node17&#45;&gt;Node18 -->
<g id="edge7" class="edge">
<title>Node17&#45;&gt;Node18</title>
<path fill="none" stroke="midnightblue" d="M508.34,-96.91C516.88,-98.17 525.52,-99.43 533.91,-100.66"/>
<polygon fill="midnightblue" stroke="midnightblue" points="508.78,-93.44 498.38,-95.45 507.76,-100.37 508.78,-93.44"/>
</g>
<!-- Node20 -->
<g id="node10" class="node">
<title>Node20</title>
<g id="a_node10"><a xlink:href="classbeluga_1_1BaseLinearGrid2.html" target="_top" xlink:title="Linear 2D grid base type.">
<polygon fill="none" stroke="black" points="534,-46.5 534,-76.5 670,-76.5 670,-46.5 534,-46.5"/>
<text text-anchor="start" x="542" y="-64.5" font-family="Helvetica,sans-Serif" font-size="10.00">beluga::BaseLinearGrid2</text>
<text text-anchor="middle" x="602" y="-53.5" font-family="Helvetica,sans-Serif" font-size="10.00">&lt; Derived &gt;</text>
</a>
</g>
</g>
<!-- Node17&#45;&gt;Node20 -->
<g id="edge9" class="edge">
<title>Node17&#45;&gt;Node20</title>
<path fill="none" stroke="midnightblue" d="M508.34,-74.54C516.88,-73.34 525.52,-72.12 533.91,-70.94"/>
<polygon fill="midnightblue" stroke="midnightblue" points="507.79,-71.09 498.38,-75.95 508.77,-78.02 507.79,-71.09"/>
</g>
<!-- Node19 -->
<g id="node9" class="node">
<title>Node19</title>
<g id="a_node9"><a xlink:href="classbeluga_1_1ValueGrid2.html" target="_top" xlink:title="Generic 2D linear value grid.">
<polygon fill="none" stroke="black" points="717,-101 717,-120 854,-120 854,-101 717,-101"/>
<text text-anchor="middle" x="785.5" y="-108" font-family="Helvetica,sans-Serif" font-size="10.00">beluga::ValueGrid2&lt; T &gt;</text>
</a>
</g>
</g>
<!-- Node18&#45;&gt;Node19 -->
<g id="edge8" class="edge">
<title>Node18&#45;&gt;Node19</title>
<path fill="none" stroke="midnightblue" d="M680.19,-110.5C692.36,-110.5 704.87,-110.5 716.8,-110.5"/>
<polygon fill="midnightblue" stroke="midnightblue" points="680.07,-107 670.07,-110.5 680.07,-114 680.07,-107"/>
</g>
<!-- Node21 -->
<g id="node11" class="node">
<title>Node21</title>
<g id="a_node11"><a xlink:href="classbeluga_1_1ValueGrid2.html" target="_top" xlink:title=" ">
<polygon fill="none" stroke="black" points="731,-49.5 731,-79.5 840,-79.5 840,-49.5 731,-49.5"/>
<text text-anchor="start" x="739" y="-67.5" font-family="Helvetica,sans-Serif" font-size="10.00">beluga::ValueGrid2</text>
<text text-anchor="middle" x="785.5" y="-56.5" font-family="Helvetica,sans-Serif" font-size="10.00">&lt; float &gt;</text>
</a>
</g>
</g>
<!-- Node20&#45;&gt;Node21 -->
<g id="edge10" class="edge">
<title>Node20&#45;&gt;Node21</title>
<path fill="none" stroke="midnightblue" d="M680.5,-62.78C697.43,-63.06 714.98,-63.35 730.73,-63.61"/>
<polygon fill="midnightblue" stroke="midnightblue" points="680.12,-59.27 670.07,-62.61 680.01,-66.27 680.12,-59.27"/>
</g>
<!-- Node22 -->
<g id="node12" class="node">
<title>Node22</title>
<g id="a_node12"><a xlink:href="classbeluga_1_1BaseOccupancyGrid2.html" target="_top" xlink:title="Occupancy 2D grid base type.">
<polygon fill="none" stroke="black" points="706,-0.5 706,-30.5 865,-30.5 865,-0.5 706,-0.5"/>
<text text-anchor="start" x="714" y="-18.5" font-family="Helvetica,sans-Serif" font-size="10.00">beluga::BaseOccupancyGrid2</text>
<text text-anchor="middle" x="785.5" y="-7.5" font-family="Helvetica,sans-Serif" font-size="10.00">&lt; Derived &gt;</text>
</a>
</g>
</g>
<!-- Node20&#45;&gt;Node22 -->
<g id="edge11" class="edge">
<title>Node20&#45;&gt;Node22</title>
<path fill="none" stroke="midnightblue" d="M672.52,-43.88C689.91,-39.47 708.41,-34.79 725.25,-30.52"/>
<polygon fill="midnightblue" stroke="midnightblue" points="671.26,-40.59 662.43,-46.44 672.98,-47.37 671.26,-40.59"/>
</g>
</g>
</svg>
