<?xml version="1.0" encoding="UTF-8" standalone="no"?>
<!DOCTYPE svg PUBLIC "-//W3C//DTD SVG 1.1//EN"
 "http://www.w3.org/Graphics/SVG/1.1/DTD/svg11.dtd">
<!-- Generated by graphviz version 2.43.0 (0)
 -->
<!-- Title: Graphical Class Hierarchy Pages: 1 -->
<svg width="861pt" height="207pt"
 viewBox="0.00 0.00 861.00 207.00" xmlns="http://www.w3.org/2000/svg" xmlns:xlink="http://www.w3.org/1999/xlink">
<g id="graph0" class="graph" transform="scale(1 1) rotate(0) translate(4 203)">
<title>Graphical Class Hierarchy</title>
<!-- Node0 -->
<g id="node1" class="node">
<title>Node0</title>
<g id="a_node1"><a xlink:href="structbeluga_1_1enable__self.html" target="_top" xlink:title=" ">
<polygon fill="none" stroke="black" points="0,-94.5 0,-124.5 112,-124.5 112,-94.5 0,-94.5"/>
<text text-anchor="start" x="8" y="-112.5" font-family="Helvetica,sans-Serif" font-size="10.00">beluga::enable_self</text>
<text text-anchor="middle" x="56" y="-101.5" font-family="Helvetica,sans-Serif" font-size="10.00">&lt; Derived &gt;</text>
</a>
</g>
</g>
<!-- Node1 -->
<g id="node2" class="node">
<title>Node1</title>
<g id="a_node2"><a xlink:href="classbeluga_1_1BaseLaserScan.html" target="_top" xlink:title="Laser scan 2D base type.">
<polygon fill="none" stroke="black" points="166,-168.5 166,-198.5 295,-198.5 295,-168.5 166,-168.5"/>
<text text-anchor="start" x="174" y="-186.5" font-family="Helvetica,sans-Serif" font-size="10.00">beluga::BaseLaserScan</text>
<text text-anchor="middle" x="230.5" y="-175.5" font-family="Helvetica,sans-Serif" font-size="10.00">&lt; Derived &gt;</text>
</a>
</g>
</g>
<!-- Node0&#45;&gt;Node1 -->
<g id="edge1" class="edge">
<title>Node0&#45;&gt;Node1</title>
<path fill="none" stroke="midnightblue" d="M89.93,-129.85C106.85,-139.72 128.06,-151.2 148,-159.5 155.76,-162.73 164.11,-165.71 172.39,-168.4"/>
<polygon fill="midnightblue" stroke="midnightblue" points="91.39,-126.65 81.01,-124.56 87.83,-132.67 91.39,-126.65"/>
</g>
<!-- Node2 -->
<g id="node3" class="node">
<title>Node2</title>
<g id="a_node3"><a xlink:href="classbeluga_1_1BasePointCloud.html" target="_top" xlink:title="Point Cloud 3D base type.">
<polygon fill="none" stroke="black" points="164.5,-119.5 164.5,-149.5 296.5,-149.5 296.5,-119.5 164.5,-119.5"/>
<text text-anchor="start" x="172.5" y="-137.5" font-family="Helvetica,sans-Serif" font-size="10.00">beluga::BasePointCloud</text>
<text text-anchor="middle" x="230.5" y="-126.5" font-family="Helvetica,sans-Serif" font-size="10.00">&lt; Derived &gt;</text>
</a>
</g>
</g>
<!-- Node0&#45;&gt;Node2 -->
<g id="edge2" class="edge">
<title>Node0&#45;&gt;Node2</title>
<path fill="none" stroke="midnightblue" d="M122,-118.92C135.88,-120.93 150.55,-123.06 164.43,-125.07"/>
<polygon fill="midnightblue" stroke="midnightblue" points="122.45,-115.45 112.05,-117.48 121.45,-122.38 122.45,-115.45"/>
</g>
<!-- Node3 -->
<g id="node4" class="node">
<title>Node3</title>
<g id="a_node4"><a xlink:href="classbeluga_1_1BaseRegularGrid.html" target="_top" xlink:title="Regularly spaced N dimensional grid base type.">
<polygon fill="none" stroke="black" points="162,-70.5 162,-100.5 299,-100.5 299,-70.5 162,-70.5"/>
<text text-anchor="start" x="170" y="-88.5" font-family="Helvetica,sans-Serif" font-size="10.00">beluga::BaseRegularGrid</text>
<text text-anchor="middle" x="230.5" y="-77.5" font-family="Helvetica,sans-Serif" font-size="10.00">&lt; Derived, NDim &gt;</text>
</a>
</g>
</g>
<!-- Node0&#45;&gt;Node3 -->
<g id="edge3" class="edge">
<title>Node0&#45;&gt;Node3</title>
<path fill="none" stroke="midnightblue" d="M122.29,-100.42C135.27,-98.61 148.92,-96.71 161.97,-94.9"/>
<polygon fill="midnightblue" stroke="midnightblue" points="121.48,-97 112.05,-101.84 122.44,-103.93 121.48,-97"/>
</g>
<!-- Node10 -->
<g id="node11" class="node">
<title>Node10</title>
<g id="a_node11"><a xlink:href="classbeluga_1_1BaseSparsePointCloud.html" target="_top" xlink:title="Sparse Point Cloud 3D base type.">
<polygon fill="none" stroke="black" points="148,-21.5 148,-51.5 313,-51.5 313,-21.5 148,-21.5"/>
<text text-anchor="start" x="156" y="-39.5" font-family="Helvetica,sans-Serif" font-size="10.00">beluga::BaseSparsePointCloud</text>
<text text-anchor="middle" x="230.5" y="-28.5" font-family="Helvetica,sans-Serif" font-size="10.00">&lt; Derived &gt;</text>
</a>
</g>
</g>
<!-- Node0&#45;&gt;Node10 -->
<g id="edge10" class="edge">
<title>Node0&#45;&gt;Node10</title>
<path fill="none" stroke="midnightblue" d="M91.51,-89.33C108.21,-80.08 128.78,-69.44 148,-61.5 156.62,-57.94 165.93,-54.62 175.07,-51.64"/>
<polygon fill="midnightblue" stroke="midnightblue" points="89.66,-86.35 82.66,-94.3 93.09,-92.46 89.66,-86.35"/>
</g>
<!-- Node4 -->
<g id="node5" class="node">
<title>Node4</title>
<g id="a_node5"><a xlink:href="classbeluga_1_1BaseDenseGrid2.html" target="_top" xlink:title="Dense 2D grid base type.">
<polygon fill="none" stroke="black" points="349,-70.5 349,-100.5 486,-100.5 486,-70.5 349,-70.5"/>
<text text-anchor="start" x="357" y="-88.5" font-family="Helvetica,sans-Serif" font-size="10.00">beluga::BaseDenseGrid2</text>
<text text-anchor="middle" x="417.5" y="-77.5" font-family="Helvetica,sans-Serif" font-size="10.00">&lt; Derived &gt;</text>
</a>
</g>
</g>
<!-- Node3&#45;&gt;Node4 -->
<g id="edge4" class="edge">
<title>Node3&#45;&gt;Node4</title>
<path fill="none" stroke="midnightblue" d="M309.46,-85.5C322.53,-85.5 336.01,-85.5 348.8,-85.5"/>
<polygon fill="midnightblue" stroke="midnightblue" points="309.07,-82 299.07,-85.5 309.07,-89 309.07,-82"/>
</g>
<!-- Node5 -->
<g id="node6" class="node">
<title>Node5</title>
<g id="a_node6"><a xlink:href="classbeluga_1_1BaseLinearGrid2.html" target="_top" xlink:title=" ">
<polygon fill="none" stroke="black" points="522,-95.5 522,-125.5 658,-125.5 658,-95.5 522,-95.5"/>
<text text-anchor="start" x="530" y="-113.5" font-family="Helvetica,sans-Serif" font-size="10.00">beluga::BaseLinearGrid2</text>
<text text-anchor="middle" x="590" y="-102.5" font-family="Helvetica,sans-Serif" font-size="10.00">&lt; ValueGrid2&lt; T &gt; &gt;</text>
</a>
</g>
</g>
<!-- Node4&#45;&gt;Node5 -->
<g id="edge5" class="edge">
<title>Node4&#45;&gt;Node5</title>
<path fill="none" stroke="midnightblue" d="M496.34,-96.91C504.88,-98.17 513.52,-99.43 521.91,-100.66"/>
<polygon fill="midnightblue" stroke="midnightblue" points="496.78,-93.44 486.38,-95.45 495.76,-100.37 496.78,-93.44"/>
</g>
<!-- Node7 -->
<g id="node8" class="node">
<title>Node7</title>
<g id="a_node8"><a xlink:href="classbeluga_1_1BaseLinearGrid2.html" target="_top" xlink:title="Linear 2D grid base type.">
<polygon fill="none" stroke="black" points="522,-46.5 522,-76.5 658,-76.5 658,-46.5 522,-46.5"/>
<text text-anchor="start" x="530" y="-64.5" font-family="Helvetica,sans-Serif" font-size="10.00">beluga::BaseLinearGrid2</text>
<text text-anchor="middle" x="590" y="-53.5" font-family="Helvetica,sans-Serif" font-size="10.00">&lt; Derived &gt;</text>
</a>
</g>
</g>
<!-- Node4&#45;&gt;Node7 -->
<g id="edge7" class="edge">
<title>Node4&#45;&gt;Node7</title>
<path fill="none" stroke="midnightblue" d="M496.34,-74.54C504.88,-73.34 513.52,-72.12 521.91,-70.94"/>
<polygon fill="midnightblue" stroke="midnightblue" points="495.79,-71.09 486.38,-75.95 496.77,-78.02 495.79,-71.09"/>
</g>
<!-- Node6 -->
<g id="node7" class="node">
<title>Node6</title>
<g id="a_node7"><a xlink:href="classbeluga_1_1ValueGrid2.html" target="_top" xlink:title="Generic 2D linear value grid.">
<polygon fill="none" stroke="black" points="705,-101 705,-120 842,-120 842,-101 705,-101"/>
<text text-anchor="middle" x="773.5" y="-108" font-family="Helvetica,sans-Serif" font-size="10.00">beluga::ValueGrid2&lt; T &gt;</text>
</a>
</g>
</g>
<!-- Node5&#45;&gt;Node6 -->
<g id="edge6" class="edge">
<title>Node5&#45;&gt;Node6</title>
<path fill="none" stroke="midnightblue" d="M668.19,-110.5C680.36,-110.5 692.87,-110.5 704.8,-110.5"/>
<polygon fill="midnightblue" stroke="midnightblue" points="668.07,-107 658.07,-110.5 668.07,-114 668.07,-107"/>
</g>
<!-- Node8 -->
<g id="node9" class="node">
<title>Node8</title>
<g id="a_node9"><a xlink:href="classbeluga_1_1ValueGrid2.html" target="_top" xlink:title=" ">
<polygon fill="none" stroke="black" points="719,-49.5 719,-79.5 828,-79.5 828,-49.5 719,-49.5"/>
<text text-anchor="start" x="727" y="-67.5" font-family="Helvetica,sans-Serif" font-size="10.00">beluga::ValueGrid2</text>
<text text-anchor="middle" x="773.5" y="-56.5" font-family="Helvetica,sans-Serif" font-size="10.00">&lt; float &gt;</text>
</a>
</g>
</g>
<!-- Node7&#45;&gt;Node8 -->
<g id="edge8" class="edge">
<title>Node7&#45;&gt;Node8</title>
<path fill="none" stroke="midnightblue" d="M668.5,-62.78C685.43,-63.06 702.98,-63.35 718.73,-63.61"/>
<polygon fill="midnightblue" stroke="midnightblue" points="668.12,-59.27 658.07,-62.61 668.01,-66.27 668.12,-59.27"/>
</g>
<!-- Node9 -->
<g id="node10" class="node">
<title>Node9</title>
<g id="a_node10"><a xlink:href="classbeluga_1_1BaseOccupancyGrid2.html" target="_top" xlink:title="Occupancy 2D grid base type.">
<polygon fill="none" stroke="black" points="694,-0.5 694,-30.5 853,-30.5 853,-0.5 694,-0.5"/>
<text text-anchor="start" x="702" y="-18.5" font-family="Helvetica,sans-Serif" font-size="10.00">beluga::BaseOccupancyGrid2</text>
<text text-anchor="middle" x="773.5" y="-7.5" font-family="Helvetica,sans-Serif" font-size="10.00">&lt; Derived &gt;</text>
</a>
</g>
</g>
<!-- Node7&#45;&gt;Node9 -->
<g id="edge9" class="edge">
<title>Node7&#45;&gt;Node9</title>
<path fill="none" stroke="midnightblue" d="M660.52,-43.88C677.91,-39.47 696.41,-34.79 713.25,-30.52"/>
<polygon fill="midnightblue" stroke="midnightblue" points="659.26,-40.59 650.43,-46.44 660.98,-47.37 659.26,-40.59"/>
</g>
</g>
</svg>
