<?xml version="1.0" encoding="UTF-8" standalone="no"?>
<!DOCTYPE svg PUBLIC "-//W3C//DTD SVG 1.1//EN"
 "http://www.w3.org/Graphics/SVG/1.1/DTD/svg11.dtd">
<!-- Generated by graphviz version 2.43.0 (0)
 -->
<!-- Title: /home/runner/work/beluga/beluga/beluga/include/beluga/types/landmark_detection_types.hpp Pages: 1 -->
<svg width="517pt" height="384pt"
 viewBox="0.00 0.00 517.00 384.00" xmlns="http://www.w3.org/2000/svg" xmlns:xlink="http://www.w3.org/1999/xlink">
<g id="graph0" class="graph" transform="scale(1 1) rotate(0) translate(4 380)">
<title>/home/runner/work/beluga/beluga/beluga/include/beluga/types/landmark_detection_types.hpp</title>
<!-- Node1 -->
<g id="node1" class="node">
<title>Node1</title>
<g id="a_node1"><a xlink:title="Auxiliar types for landmark models.">
<polygon fill="#bfbfbf" stroke="black" points="173,-323.5 173,-375.5 356,-375.5 356,-323.5 173,-323.5"/>
<text text-anchor="start" x="181" y="-363.5" font-family="Helvetica,sans-Serif" font-size="10.00">/home/runner/work/beluga</text>
<text text-anchor="start" x="181" y="-352.5" font-family="Helvetica,sans-Serif" font-size="10.00">/beluga/beluga/include</text>
<text text-anchor="start" x="181" y="-341.5" font-family="Helvetica,sans-Serif" font-size="10.00">/beluga/types/landmark_detection</text>
<text text-anchor="middle" x="264.5" y="-330.5" font-family="Helvetica,sans-Serif" font-size="10.00">_types.hpp</text>
</a>
</g>
</g>
<!-- Node2 -->
<g id="node2" class="node">
<title>Node2</title>
<g id="a_node2"><a xlink:href="bearing__sensor__model_8hpp.html" target="_top" xlink:title="Implementation of a discrete landmark bearing sensor model.">
<polygon fill="none" stroke="black" points="0,-234.5 0,-286.5 165,-286.5 165,-234.5 0,-234.5"/>
<text text-anchor="start" x="8" y="-274.5" font-family="Helvetica,sans-Serif" font-size="10.00">/home/runner/work/beluga</text>
<text text-anchor="start" x="8" y="-263.5" font-family="Helvetica,sans-Serif" font-size="10.00">/beluga/beluga/include</text>
<text text-anchor="start" x="8" y="-252.5" font-family="Helvetica,sans-Serif" font-size="10.00">/beluga/sensor/bearing_sensor</text>
<text text-anchor="middle" x="82.5" y="-241.5" font-family="Helvetica,sans-Serif" font-size="10.00">_model.hpp</text>
</a>
</g>
</g>
<!-- Node1&#45;&gt;Node2 -->
<g id="edge1" class="edge">
<title>Node1&#45;&gt;Node2</title>
<path fill="none" stroke="midnightblue" d="M202.61,-318.92C180.64,-308.41 156.14,-296.7 135.02,-286.61"/>
<polygon fill="midnightblue" stroke="midnightblue" points="201.33,-322.18 211.86,-323.34 204.35,-315.87 201.33,-322.18"/>
</g>
<!-- Node6 -->
<g id="node6" class="node">
<title>Node6</title>
<g id="a_node6"><a xlink:href="landmark__map_8hpp.html" target="_top" xlink:title="Landmark map datatype.">
<polygon fill="none" stroke="black" points="183.5,-234.5 183.5,-286.5 345.5,-286.5 345.5,-234.5 183.5,-234.5"/>
<text text-anchor="start" x="191.5" y="-274.5" font-family="Helvetica,sans-Serif" font-size="10.00">/home/runner/work/beluga</text>
<text text-anchor="start" x="191.5" y="-263.5" font-family="Helvetica,sans-Serif" font-size="10.00">/beluga/beluga/include</text>
<text text-anchor="start" x="191.5" y="-252.5" font-family="Helvetica,sans-Serif" font-size="10.00">/beluga/sensor/data/landmark</text>
<text text-anchor="middle" x="264.5" y="-241.5" font-family="Helvetica,sans-Serif" font-size="10.00">_map.hpp</text>
</a>
</g>
</g>
<!-- Node1&#45;&gt;Node6 -->
<g id="edge5" class="edge">
<title>Node1&#45;&gt;Node6</title>
<path fill="none" stroke="midnightblue" d="M264.5,-313.19C264.5,-304.28 264.5,-294.9 264.5,-286.61"/>
<polygon fill="midnightblue" stroke="midnightblue" points="261,-313.34 264.5,-323.34 268,-313.34 261,-313.34"/>
</g>
<!-- Node7 -->
<g id="node7" class="node">
<title>Node7</title>
<g id="a_node7"><a xlink:href="landmark__sensor__model_8hpp.html" target="_top" xlink:title="Implementation of a discrete landmark sensor model.">
<polygon fill="none" stroke="black" points="364,-234.5 364,-286.5 509,-286.5 509,-234.5 364,-234.5"/>
<text text-anchor="start" x="372" y="-274.5" font-family="Helvetica,sans-Serif" font-size="10.00">/home/runner/work/beluga</text>
<text text-anchor="start" x="372" y="-263.5" font-family="Helvetica,sans-Serif" font-size="10.00">/beluga/beluga/include</text>
<text text-anchor="start" x="372" y="-252.5" font-family="Helvetica,sans-Serif" font-size="10.00">/beluga/sensor/landmark</text>
<text text-anchor="middle" x="436.5" y="-241.5" font-family="Helvetica,sans-Serif" font-size="10.00">_sensor_model.hpp</text>
</a>
</g>
</g>
<!-- Node1&#45;&gt;Node7 -->
<g id="edge6" class="edge">
<title>Node1&#45;&gt;Node7</title>
<path fill="none" stroke="midnightblue" d="M323.26,-318.78C343.96,-308.31 367,-296.66 386.86,-286.61"/>
<polygon fill="midnightblue" stroke="midnightblue" points="321.59,-315.7 314.25,-323.34 324.75,-321.95 321.59,-315.7"/>
</g>
<!-- Node3 -->
<g id="node3" class="node">
<title>Node3</title>
<g id="a_node3"><a xlink:href="sensor_8hpp.html" target="_top" xlink:title="Includes all Beluga sensor models and their interfaces.">
<polygon fill="none" stroke="black" points="187,-156.5 187,-197.5 332,-197.5 332,-156.5 187,-156.5"/>
<text text-anchor="start" x="195" y="-185.5" font-family="Helvetica,sans-Serif" font-size="10.00">/home/runner/work/beluga</text>
<text text-anchor="start" x="195" y="-174.5" font-family="Helvetica,sans-Serif" font-size="10.00">/beluga/beluga/include</text>
<text text-anchor="middle" x="259.5" y="-163.5" font-family="Helvetica,sans-Serif" font-size="10.00">/beluga/sensor.hpp</text>
</a>
</g>
</g>
<!-- Node2&#45;&gt;Node3 -->
<g id="edge2" class="edge">
<title>Node2&#45;&gt;Node3</title>
<path fill="none" stroke="midnightblue" d="M146.25,-230.14C169.74,-219.33 195.76,-207.35 216.93,-197.6"/>
<polygon fill="midnightblue" stroke="midnightblue" points="144.67,-227.02 137.05,-234.38 147.6,-233.38 144.67,-227.02"/>
</g>
<!-- Node4 -->
<g id="node4" class="node">
<title>Node4</title>
<g id="a_node4"><a xlink:href="beluga_8hpp.html" target="_top" xlink:title="Includes all the Beluga API.">
<polygon fill="none" stroke="black" points="187,-78.5 187,-119.5 332,-119.5 332,-78.5 187,-78.5"/>
<text text-anchor="start" x="195" y="-107.5" font-family="Helvetica,sans-Serif" font-size="10.00">/home/runner/work/beluga</text>
<text text-anchor="start" x="195" y="-96.5" font-family="Helvetica,sans-Serif" font-size="10.00">/beluga/beluga/include</text>
<text text-anchor="middle" x="259.5" y="-85.5" font-family="Helvetica,sans-Serif" font-size="10.00">/beluga/beluga.hpp</text>
</a>
</g>
</g>
<!-- Node3&#45;&gt;Node4 -->
<g id="edge3" class="edge">
<title>Node3&#45;&gt;Node4</title>
<path fill="none" stroke="midnightblue" d="M259.5,-146.3C259.5,-137.3 259.5,-127.65 259.5,-119.51"/>
<polygon fill="midnightblue" stroke="midnightblue" points="256,-146.43 259.5,-156.43 263,-146.43 256,-146.43"/>
</g>
<!-- Node5 -->
<g id="node5" class="node">
<title>Node5</title>
<g id="a_node5"><a xlink:href="amcl__core_8hpp_source.html" target="_top" xlink:title=" ">
<polygon fill="none" stroke="black" points="171,-0.5 171,-41.5 348,-41.5 348,-0.5 171,-0.5"/>
<text text-anchor="start" x="179" y="-29.5" font-family="Helvetica,sans-Serif" font-size="10.00">/home/runner/work/beluga</text>
<text text-anchor="start" x="179" y="-18.5" font-family="Helvetica,sans-Serif" font-size="10.00">/beluga/beluga/include</text>
<text text-anchor="middle" x="259.5" y="-7.5" font-family="Helvetica,sans-Serif" font-size="10.00">/beluga/algorithm/amcl_core.hpp</text>
</a>
</g>
</g>
<!-- Node4&#45;&gt;Node5 -->
<g id="edge4" class="edge">
<title>Node4&#45;&gt;Node5</title>
<path fill="none" stroke="midnightblue" d="M259.5,-68.3C259.5,-59.3 259.5,-49.65 259.5,-41.51"/>
<polygon fill="midnightblue" stroke="midnightblue" points="256,-68.43 259.5,-78.43 263,-68.43 256,-68.43"/>
</g>
<!-- Node7&#45;&gt;Node3 -->
<g id="edge7" class="edge">
<title>Node7&#45;&gt;Node3</title>
<path fill="none" stroke="midnightblue" d="M372.75,-230.14C349.26,-219.33 323.24,-207.35 302.07,-197.6"/>
<polygon fill="midnightblue" stroke="midnightblue" points="371.4,-233.38 381.95,-234.38 374.33,-227.02 371.4,-233.38"/>
</g>
</g>
</svg>
