<?xml version="1.0" encoding="UTF-8" standalone="no"?>
<!DOCTYPE svg PUBLIC "-//W3C//DTD SVG 1.1//EN"
 "http://www.w3.org/Graphics/SVG/1.1/DTD/svg11.dtd">
<!-- Generated by graphviz version 2.43.0 (0)
 -->
<!-- Title: /home/runner/work/beluga/beluga/beluga/include/beluga/sensor/data/landmark_map.hpp Pages: 1 -->
<svg width="821pt" height="184pt"
 viewBox="0.00 0.00 821.00 184.00" xmlns="http://www.w3.org/2000/svg" xmlns:xlink="http://www.w3.org/1999/xlink">
<g id="graph0" class="graph" transform="scale(1 1) rotate(0) translate(4 180)">
<title>/home/runner/work/beluga/beluga/beluga/include/beluga/sensor/data/landmark_map.hpp</title>
<!-- Node1 -->
<g id="node1" class="node">
<title>Node1</title>
<g id="a_node1"><a xlink:title="Landmark map datatype.">
<polygon fill="#bfbfbf" stroke="black" points="383.5,-123.5 383.5,-175.5 545.5,-175.5 545.5,-123.5 383.5,-123.5"/>
<text text-anchor="start" x="391.5" y="-163.5" font-family="Helvetica,sans-Serif" font-size="10.00">/home/runner/work/beluga</text>
<text text-anchor="start" x="391.5" y="-152.5" font-family="Helvetica,sans-Serif" font-size="10.00">/beluga/beluga/include</text>
<text text-anchor="start" x="391.5" y="-141.5" font-family="Helvetica,sans-Serif" font-size="10.00">/beluga/sensor/data/landmark</text>
<text text-anchor="middle" x="464.5" y="-130.5" font-family="Helvetica,sans-Serif" font-size="10.00">_map.hpp</text>
</a>
</g>
</g>
<!-- Node2 -->
<g id="node2" class="node">
<title>Node2</title>
<g id="a_node2"><a xlink:title=" ">
<polygon fill="none" stroke="#bfbfbf" points="0,-62 0,-81 131,-81 131,-62 0,-62"/>
<text text-anchor="middle" x="65.5" y="-69" font-family="Helvetica,sans-Serif" font-size="10.00">range/v3/view/filter.hpp</text>
</a>
</g>
</g>
<!-- Node1&#45;&gt;Node2 -->
<g id="edge1" class="edge">
<title>Node1&#45;&gt;Node2</title>
<path fill="none" stroke="midnightblue" d="M383.33,-133.29C317.57,-120.93 222.53,-102.99 139.5,-87 132.85,-85.72 125.86,-84.36 118.95,-83.02"/>
<polygon fill="midnightblue" stroke="midnightblue" points="119.41,-79.54 108.92,-81.06 118.07,-86.41 119.41,-79.54"/>
</g>
<!-- Node3 -->
<g id="node3" class="node">
<title>Node3</title>
<g id="a_node3"><a xlink:title=" ">
<polygon fill="none" stroke="#bfbfbf" points="149,-62 149,-81 274,-81 274,-62 149,-62"/>
<text text-anchor="middle" x="211.5" y="-69" font-family="Helvetica,sans-Serif" font-size="10.00">range/v3/view/tail.hpp</text>
</a>
</g>
</g>
<!-- Node1&#45;&gt;Node3 -->
<g id="edge2" class="edge">
<title>Node1&#45;&gt;Node3</title>
<path fill="none" stroke="midnightblue" d="M383.41,-124.14C338.68,-110.7 285.22,-94.65 249.92,-84.04"/>
<polygon fill="midnightblue" stroke="midnightblue" points="250.61,-80.59 240.03,-81.07 248.6,-87.3 250.61,-80.59"/>
</g>
<!-- Node4 -->
<g id="node4" class="node">
<title>Node4</title>
<g id="a_node4"><a xlink:title=" ">
<polygon fill="none" stroke="#bfbfbf" points="292.5,-62 292.5,-81 384.5,-81 384.5,-62 292.5,-62"/>
<text text-anchor="middle" x="338.5" y="-69" font-family="Helvetica,sans-Serif" font-size="10.00">sophus/se3.hpp</text>
</a>
</g>
</g>
<!-- Node1&#45;&gt;Node4 -->
<g id="edge3" class="edge">
<title>Node1&#45;&gt;Node4</title>
<path fill="none" stroke="midnightblue" d="M422.89,-123.4C402.45,-111.07 378.6,-96.69 361.48,-86.36"/>
<polygon fill="midnightblue" stroke="midnightblue" points="363.09,-83.25 352.72,-81.08 359.48,-89.24 363.09,-83.25"/>
</g>
<!-- Node5 -->
<g id="node5" class="node">
<title>Node5</title>
<g id="a_node5"><a xlink:title=" ">
<polygon fill="none" stroke="#bfbfbf" points="402.5,-62 402.5,-81 466.5,-81 466.5,-62 402.5,-62"/>
<text text-anchor="middle" x="434.5" y="-69" font-family="Helvetica,sans-Serif" font-size="10.00">algorithm</text>
</a>
</g>
</g>
<!-- Node1&#45;&gt;Node5 -->
<g id="edge4" class="edge">
<title>Node1&#45;&gt;Node5</title>
<path fill="none" stroke="midnightblue" d="M454.51,-123.19C450.3,-112.54 445.5,-100.38 441.66,-90.64"/>
<polygon fill="midnightblue" stroke="midnightblue" points="444.86,-89.23 437.94,-81.21 438.35,-91.8 444.86,-89.23"/>
</g>
<!-- Node6 -->
<g id="node6" class="node">
<title>Node6</title>
<g id="a_node6"><a xlink:title=" ">
<polygon fill="none" stroke="#bfbfbf" points="541.5,-0.5 541.5,-19.5 591.5,-19.5 591.5,-0.5 541.5,-0.5"/>
<text text-anchor="middle" x="566.5" y="-7.5" font-family="Helvetica,sans-Serif" font-size="10.00">cstdint</text>
</a>
</g>
</g>
<!-- Node1&#45;&gt;Node6 -->
<g id="edge5" class="edge">
<title>Node1&#45;&gt;Node6</title>
<path fill="none" stroke="midnightblue" d="M474.66,-123.4C483.28,-103.86 496.88,-76.68 513.5,-56 522.72,-44.53 535.17,-33.79 545.69,-25.67"/>
<polygon fill="midnightblue" stroke="midnightblue" points="548.03,-28.3 553.96,-19.52 543.85,-22.68 548.03,-28.3"/>
</g>
<!-- Node7 -->
<g id="node7" class="node">
<title>Node7</title>
<g id="a_node7"><a xlink:title=" ">
<polygon fill="none" stroke="#bfbfbf" points="523,-62 523,-81 568,-81 568,-62 523,-62"/>
<text text-anchor="middle" x="545.5" y="-69" font-family="Helvetica,sans-Serif" font-size="10.00">utility</text>
</a>
</g>
</g>
<!-- Node1&#45;&gt;Node7 -->
<g id="edge6" class="edge">
<title>Node1&#45;&gt;Node7</title>
<path fill="none" stroke="midnightblue" d="M491.47,-123.19C503.79,-111.63 518,-98.3 528.76,-88.21"/>
<polygon fill="midnightblue" stroke="midnightblue" points="531.32,-90.6 536.22,-81.21 526.53,-85.5 531.32,-90.6"/>
</g>
<!-- Node8 -->
<g id="node8" class="node">
<title>Node8</title>
<g id="a_node8"><a xlink:title=" ">
<polygon fill="none" stroke="#bfbfbf" points="586,-62 586,-81 633,-81 633,-62 586,-62"/>
<text text-anchor="middle" x="609.5" y="-69" font-family="Helvetica,sans-Serif" font-size="10.00">vector</text>
</a>
</g>
</g>
<!-- Node1&#45;&gt;Node8 -->
<g id="edge7" class="edge">
<title>Node1&#45;&gt;Node8</title>
<path fill="none" stroke="midnightblue" d="M512.38,-123.4C536.34,-110.85 564.37,-96.15 584.15,-85.79"/>
<polygon fill="midnightblue" stroke="midnightblue" points="585.9,-88.82 593.13,-81.08 582.65,-82.62 585.9,-88.82"/>
</g>
<!-- Node9 -->
<g id="node9" class="node">
<title>Node9</title>
<g id="a_node9"><a xlink:href="landmark__detection__types_8hpp.html" target="_top" xlink:title="Auxiliar types for landmark models.">
<polygon fill="none" stroke="black" points="651,-56.5 651,-86.5 780,-86.5 780,-56.5 651,-56.5"/>
<text text-anchor="start" x="659" y="-74.5" font-family="Helvetica,sans-Serif" font-size="10.00">beluga/types/landmark</text>
<text text-anchor="middle" x="715.5" y="-63.5" font-family="Helvetica,sans-Serif" font-size="10.00">_detection_types.hpp</text>
</a>
</g>
</g>
<!-- Node1&#45;&gt;Node9 -->
<g id="edge8" class="edge">
<title>Node1&#45;&gt;Node9</title>
<path fill="none" stroke="midnightblue" d="M545.65,-123.93C582.8,-112.68 625.9,-99.63 659.39,-89.49"/>
<polygon fill="midnightblue" stroke="midnightblue" points="660.46,-92.82 669.01,-86.58 658.43,-86.12 660.46,-92.82"/>
</g>
<!-- Node9&#45;&gt;Node6 -->
<g id="edge11" class="edge">
<title>Node9&#45;&gt;Node6</title>
<path fill="none" stroke="midnightblue" d="M680.19,-56.4C655.08,-46.37 621.66,-33.03 597.56,-23.4"/>
<polygon fill="midnightblue" stroke="midnightblue" points="598.77,-20.12 588.18,-19.66 596.17,-26.62 598.77,-20.12"/>
</g>
<!-- Node10 -->
<g id="node10" class="node">
<title>Node10</title>
<g id="a_node10"><a xlink:title=" ">
<polygon fill="none" stroke="#bfbfbf" points="631,-0.5 631,-19.5 700,-19.5 700,-0.5 631,-0.5"/>
<text text-anchor="middle" x="665.5" y="-7.5" font-family="Helvetica,sans-Serif" font-size="10.00">Eigen/Core</text>
</a>
</g>
</g>
<!-- Node9&#45;&gt;Node10 -->
<g id="edge9" class="edge">
<title>Node9&#45;&gt;Node10</title>
<path fill="none" stroke="midnightblue" d="M703.65,-56.4C696.39,-47.75 687.05,-36.64 679.43,-27.58"/>
<polygon fill="midnightblue" stroke="midnightblue" points="681.89,-25.06 672.78,-19.66 676.53,-29.57 681.89,-25.06"/>
</g>
<!-- Node11 -->
<g id="node11" class="node">
<title>Node11</title>
<g id="a_node11"><a xlink:title=" ">
<polygon fill="none" stroke="#bfbfbf" points="718,-0.5 718,-19.5 813,-19.5 813,-0.5 718,-0.5"/>
<text text-anchor="middle" x="765.5" y="-7.5" font-family="Helvetica,sans-Serif" font-size="10.00">Eigen/Geometry</text>
</a>
</g>
</g>
<!-- Node9&#45;&gt;Node11 -->
<g id="edge10" class="edge">
<title>Node9&#45;&gt;Node11</title>
<path fill="none" stroke="midnightblue" d="M727.35,-56.4C734.61,-47.75 743.95,-36.64 751.57,-27.58"/>
<polygon fill="midnightblue" stroke="midnightblue" points="754.47,-29.57 758.22,-19.66 749.11,-25.06 754.47,-29.57"/>
</g>
</g>
</svg>
