<?xml version="1.0" encoding="UTF-8" standalone="no"?>
<!DOCTYPE svg PUBLIC "-//W3C//DTD SVG 1.1//EN"
 "http://www.w3.org/Graphics/SVG/1.1/DTD/svg11.dtd">
<!-- Generated by graphviz version 2.43.0 (0)
 -->
<!-- Title: /home/runner/work/beluga/beluga/beluga/include/beluga/sensor/data/landmark_map.hpp Pages: 1 -->
<svg width="750pt" height="184pt"
 viewBox="0.00 0.00 750.00 184.00" xmlns="http://www.w3.org/2000/svg" xmlns:xlink="http://www.w3.org/1999/xlink">
<g id="graph0" class="graph" transform="scale(1 1) rotate(0) translate(4 180)">
<title>/home/runner/work/beluga/beluga/beluga/include/beluga/sensor/data/landmark_map.hpp</title>
<!-- Node1 -->
<g id="node1" class="node">
<title>Node1</title>
<g id="a_node1"><a xlink:title="Landmark map datatype.">
<polygon fill="#bfbfbf" stroke="black" points="270.5,-123.5 270.5,-175.5 432.5,-175.5 432.5,-123.5 270.5,-123.5"/>
<text text-anchor="start" x="278.5" y="-163.5" font-family="Helvetica,sans-Serif" font-size="10.00">/home/runner/work/beluga</text>
<text text-anchor="start" x="278.5" y="-152.5" font-family="Helvetica,sans-Serif" font-size="10.00">/beluga/beluga/include</text>
<text text-anchor="start" x="278.5" y="-141.5" font-family="Helvetica,sans-Serif" font-size="10.00">/beluga/sensor/data/landmark</text>
<text text-anchor="middle" x="351.5" y="-130.5" font-family="Helvetica,sans-Serif" font-size="10.00">_map.hpp</text>
</a>
</g>
</g>
<!-- Node2 -->
<g id="node2" class="node">
<title>Node2</title>
<g id="a_node2"><a xlink:title=" ">
<polygon fill="none" stroke="#bfbfbf" points="0,-62 0,-81 131,-81 131,-62 0,-62"/>
<text text-anchor="middle" x="65.5" y="-69" font-family="Helvetica,sans-Serif" font-size="10.00">range/v3/view/filter.hpp</text>
</a>
</g>
</g>
<!-- Node1&#45;&gt;Node2 -->
<g id="edge1" class="edge">
<title>Node1&#45;&gt;Node2</title>
<path fill="none" stroke="midnightblue" d="M270.31,-126.92C217.26,-112.83 150.15,-94.99 107.51,-83.66"/>
<polygon fill="midnightblue" stroke="midnightblue" points="108.31,-80.25 97.75,-81.07 106.51,-87.02 108.31,-80.25"/>
</g>
<!-- Node3 -->
<g id="node3" class="node">
<title>Node3</title>
<g id="a_node3"><a xlink:title=" ">
<polygon fill="none" stroke="#bfbfbf" points="149.5,-62 149.5,-81 241.5,-81 241.5,-62 149.5,-62"/>
<text text-anchor="middle" x="195.5" y="-69" font-family="Helvetica,sans-Serif" font-size="10.00">sophus/se3.hpp</text>
</a>
</g>
</g>
<!-- Node1&#45;&gt;Node3 -->
<g id="edge2" class="edge">
<title>Node1&#45;&gt;Node3</title>
<path fill="none" stroke="midnightblue" d="M299.99,-123.4C273.97,-110.73 243.5,-95.89 222.2,-85.51"/>
<polygon fill="midnightblue" stroke="midnightblue" points="223.63,-82.31 213.11,-81.08 220.56,-88.6 223.63,-82.31"/>
</g>
<!-- Node4 -->
<g id="node4" class="node">
<title>Node4</title>
<g id="a_node4"><a xlink:title=" ">
<polygon fill="none" stroke="#bfbfbf" points="259.5,-62 259.5,-81 323.5,-81 323.5,-62 259.5,-62"/>
<text text-anchor="middle" x="291.5" y="-69" font-family="Helvetica,sans-Serif" font-size="10.00">algorithm</text>
</a>
</g>
</g>
<!-- Node1&#45;&gt;Node4 -->
<g id="edge3" class="edge">
<title>Node1&#45;&gt;Node4</title>
<path fill="none" stroke="midnightblue" d="M331.52,-123.19C322.66,-111.97 312.49,-99.08 304.61,-89.11"/>
<polygon fill="midnightblue" stroke="midnightblue" points="307.32,-86.89 298.38,-81.21 301.82,-91.23 307.32,-86.89"/>
</g>
<!-- Node5 -->
<g id="node5" class="node">
<title>Node5</title>
<g id="a_node5"><a xlink:title=" ">
<polygon fill="none" stroke="#bfbfbf" points="388.5,-0.5 388.5,-19.5 438.5,-19.5 438.5,-0.5 388.5,-0.5"/>
<text text-anchor="middle" x="413.5" y="-7.5" font-family="Helvetica,sans-Serif" font-size="10.00">cstdint</text>
</a>
</g>
</g>
<!-- Node1&#45;&gt;Node5 -->
<g id="edge4" class="edge">
<title>Node1&#45;&gt;Node5</title>
<path fill="none" stroke="midnightblue" d="M352.9,-123.29C354.84,-103.94 359.47,-77.06 370.5,-56 376.35,-44.83 385.81,-34.49 394.36,-26.55"/>
<polygon fill="midnightblue" stroke="midnightblue" points="396.93,-28.95 402.14,-19.72 392.32,-23.69 396.93,-28.95"/>
</g>
<!-- Node6 -->
<g id="node6" class="node">
<title>Node6</title>
<g id="a_node6"><a xlink:title=" ">
<polygon fill="none" stroke="#bfbfbf" points="380,-62 380,-81 425,-81 425,-62 380,-62"/>
<text text-anchor="middle" x="402.5" y="-69" font-family="Helvetica,sans-Serif" font-size="10.00">utility</text>
</a>
</g>
</g>
<!-- Node1&#45;&gt;Node6 -->
<g id="edge5" class="edge">
<title>Node1&#45;&gt;Node6</title>
<path fill="none" stroke="midnightblue" d="M368.48,-123.19C375.86,-112.2 384.31,-99.6 390.95,-89.72"/>
<polygon fill="midnightblue" stroke="midnightblue" points="393.99,-91.46 396.66,-81.21 388.18,-87.56 393.99,-91.46"/>
</g>
<!-- Node7 -->
<g id="node7" class="node">
<title>Node7</title>
<g id="a_node7"><a xlink:title=" ">
<polygon fill="none" stroke="#bfbfbf" points="443,-62 443,-81 490,-81 490,-62 443,-62"/>
<text text-anchor="middle" x="466.5" y="-69" font-family="Helvetica,sans-Serif" font-size="10.00">vector</text>
</a>
</g>
</g>
<!-- Node1&#45;&gt;Node7 -->
<g id="edge6" class="edge">
<title>Node1&#45;&gt;Node7</title>
<path fill="none" stroke="midnightblue" d="M389.47,-123.4C407.96,-111.19 429.5,-96.95 445.09,-86.65"/>
<polygon fill="midnightblue" stroke="midnightblue" points="447.11,-89.51 453.52,-81.08 443.25,-83.67 447.11,-89.51"/>
</g>
<!-- Node8 -->
<g id="node8" class="node">
<title>Node8</title>
<g id="a_node8"><a xlink:href="landmark__detection__types_8hpp.html" target="_top" xlink:title="Auxiliar types for landmark models.">
<polygon fill="none" stroke="black" points="508,-56.5 508,-86.5 637,-86.5 637,-56.5 508,-56.5"/>
<text text-anchor="start" x="516" y="-74.5" font-family="Helvetica,sans-Serif" font-size="10.00">beluga/types/landmark</text>
<text text-anchor="middle" x="572.5" y="-63.5" font-family="Helvetica,sans-Serif" font-size="10.00">_detection_types.hpp</text>
</a>
</g>
</g>
<!-- Node1&#45;&gt;Node8 -->
<g id="edge7" class="edge">
<title>Node1&#45;&gt;Node8</title>
<path fill="none" stroke="midnightblue" d="M424.48,-123.4C456.44,-112.41 493.16,-99.78 522.04,-89.85"/>
<polygon fill="midnightblue" stroke="midnightblue" points="523.19,-93.16 531.51,-86.6 520.91,-86.54 523.19,-93.16"/>
</g>
<!-- Node8&#45;&gt;Node5 -->
<g id="edge10" class="edge">
<title>Node8&#45;&gt;Node5</title>
<path fill="none" stroke="midnightblue" d="M534.82,-56.4C507.9,-46.33 472.05,-32.91 446.31,-23.28"/>
<polygon fill="midnightblue" stroke="midnightblue" points="447.23,-19.88 436.64,-19.66 444.77,-26.44 447.23,-19.88"/>
</g>
<!-- Node9 -->
<g id="node9" class="node">
<title>Node9</title>
<g id="a_node9"><a xlink:title=" ">
<polygon fill="none" stroke="#bfbfbf" points="488,-0.5 488,-19.5 593,-19.5 593,-0.5 488,-0.5"/>
<text text-anchor="middle" x="540.5" y="-7.5" font-family="Helvetica,sans-Serif" font-size="10.00">eigen3/Eigen/Core</text>
</a>
</g>
</g>
<!-- Node8&#45;&gt;Node9 -->
<g id="edge8" class="edge">
<title>Node8&#45;&gt;Node9</title>
<path fill="none" stroke="midnightblue" d="M564.92,-56.4C560.46,-48.11 554.78,-37.55 550.02,-28.71"/>
<polygon fill="midnightblue" stroke="midnightblue" points="552.98,-26.81 545.16,-19.66 546.81,-30.12 552.98,-26.81"/>
</g>
<!-- Node10 -->
<g id="node10" class="node">
<title>Node10</title>
<g id="a_node10"><a xlink:title=" ">
<polygon fill="none" stroke="#bfbfbf" points="611,-0.5 611,-19.5 742,-19.5 742,-0.5 611,-0.5"/>
<text text-anchor="middle" x="676.5" y="-7.5" font-family="Helvetica,sans-Serif" font-size="10.00">eigen3/Eigen/Geometry</text>
</a>
</g>
</g>
<!-- Node8&#45;&gt;Node10 -->
<g id="edge9" class="edge">
<title>Node8&#45;&gt;Node10</title>
<path fill="none" stroke="midnightblue" d="M597.15,-56.4C613.82,-46.86 635.73,-34.32 652.31,-24.84"/>
<polygon fill="midnightblue" stroke="midnightblue" points="654.43,-27.66 661.37,-19.66 650.95,-21.59 654.43,-27.66"/>
</g>
</g>
</svg>
