<?xml version="1.0" encoding="UTF-8" standalone="no"?>
<!DOCTYPE svg PUBLIC "-//W3C//DTD SVG 1.1//EN"
 "http://www.w3.org/Graphics/SVG/1.1/DTD/svg11.dtd">
<!-- Generated by graphviz version 2.43.0 (0)
 -->
<!-- Title: /home/runner/work/beluga/beluga/beluga/include/beluga/sensor/data/laser_scan.hpp Pages: 1 -->
<svg width="784pt" height="128pt"
 viewBox="0.00 0.00 783.50 128.00" xmlns="http://www.w3.org/2000/svg" xmlns:xlink="http://www.w3.org/1999/xlink">
<g id="graph0" class="graph" transform="scale(1 1) rotate(0) translate(4 124)">
<title>/home/runner/work/beluga/beluga/beluga/include/beluga/sensor/data/laser_scan.hpp</title>
<!-- Node1 -->
<g id="node1" class="node">
<title>Node1</title>
<g id="a_node1"><a xlink:title="Implementation of a laser scan interface.">
<polygon fill="#bfbfbf" stroke="black" points="251,-67.5 251,-119.5 396,-119.5 396,-67.5 251,-67.5"/>
<text text-anchor="start" x="259" y="-107.5" font-family="Helvetica,sans-Serif" font-size="10.00">/home/runner/work/beluga</text>
<text text-anchor="start" x="259" y="-96.5" font-family="Helvetica,sans-Serif" font-size="10.00">/beluga/beluga/include</text>
<text text-anchor="start" x="259" y="-85.5" font-family="Helvetica,sans-Serif" font-size="10.00">/beluga/sensor/data/laser</text>
<text text-anchor="middle" x="323.5" y="-74.5" font-family="Helvetica,sans-Serif" font-size="10.00">_scan.hpp</text>
</a>
</g>
</g>
<!-- Node2 -->
<g id="node2" class="node">
<title>Node2</title>
<g id="a_node2"><a xlink:title=" ">
<polygon fill="none" stroke="#bfbfbf" points="0,-6 0,-25 47,-25 47,-6 0,-6"/>
<text text-anchor="middle" x="23.5" y="-13" font-family="Helvetica,sans-Serif" font-size="10.00">cmath</text>
</a>
</g>
</g>
<!-- Node1&#45;&gt;Node2 -->
<g id="edge1" class="edge">
<title>Node1&#45;&gt;Node2</title>
<path fill="none" stroke="midnightblue" d="M250.81,-79.59C196.55,-69.03 120.95,-52.37 56.5,-31 54.63,-30.38 52.72,-29.69 50.81,-28.96"/>
<polygon fill="midnightblue" stroke="midnightblue" points="52,-25.67 41.42,-25.1 49.33,-32.14 52,-25.67"/>
</g>
<!-- Node3 -->
<g id="node3" class="node">
<title>Node3</title>
<g id="a_node3"><a xlink:href="enable__self_8hpp.html" target="_top" xlink:title="Implementation of a CRTP utility to enable downcasting to the most derived class.">
<polygon fill="none" stroke="black" points="65.5,-0.5 65.5,-30.5 187.5,-30.5 187.5,-0.5 65.5,-0.5"/>
<text text-anchor="start" x="73.5" y="-18.5" font-family="Helvetica,sans-Serif" font-size="10.00">beluga/mixins/enable</text>
<text text-anchor="middle" x="126.5" y="-7.5" font-family="Helvetica,sans-Serif" font-size="10.00">_self.hpp</text>
</a>
</g>
</g>
<!-- Node1&#45;&gt;Node3 -->
<g id="edge2" class="edge">
<title>Node1&#45;&gt;Node3</title>
<path fill="none" stroke="midnightblue" d="M258.45,-67.4C230.32,-56.55 198.07,-44.11 172.49,-34.24"/>
<polygon fill="midnightblue" stroke="midnightblue" points="173.63,-30.93 163.04,-30.6 171.11,-37.46 173.63,-30.93"/>
</g>
<!-- Node4 -->
<g id="node4" class="node">
<title>Node4</title>
<g id="a_node4"><a xlink:title=" ">
<polygon fill="none" stroke="#bfbfbf" points="205.5,-6 205.5,-25 307.5,-25 307.5,-6 205.5,-6"/>
<text text-anchor="middle" x="256.5" y="-13" font-family="Helvetica,sans-Serif" font-size="10.00">sophus/types.hpp</text>
</a>
</g>
</g>
<!-- Node1&#45;&gt;Node4 -->
<g id="edge3" class="edge">
<title>Node1&#45;&gt;Node4</title>
<path fill="none" stroke="midnightblue" d="M301.19,-67.19C291.2,-55.86 279.7,-42.82 270.88,-32.81"/>
<polygon fill="midnightblue" stroke="midnightblue" points="273.42,-30.4 264.18,-25.21 268.17,-35.02 273.42,-30.4"/>
</g>
<!-- Node5 -->
<g id="node5" class="node">
<title>Node5</title>
<g id="a_node5"><a xlink:title=" ">
<polygon fill="none" stroke="#bfbfbf" points="326,-6 326,-25 457,-25 457,-6 326,-6"/>
<text text-anchor="middle" x="391.5" y="-13" font-family="Helvetica,sans-Serif" font-size="10.00">range/v3/view/filter.hpp</text>
</a>
</g>
</g>
<!-- Node1&#45;&gt;Node5 -->
<g id="edge4" class="edge">
<title>Node1&#45;&gt;Node5</title>
<path fill="none" stroke="midnightblue" d="M346.14,-67.19C356.28,-55.86 367.95,-42.82 376.91,-32.81"/>
<polygon fill="midnightblue" stroke="midnightblue" points="379.65,-35 383.71,-25.21 374.43,-30.33 379.65,-35"/>
</g>
<!-- Node6 -->
<g id="node6" class="node">
<title>Node6</title>
<g id="a_node6"><a xlink:title=" ">
<polygon fill="none" stroke="#bfbfbf" points="475.5,-6 475.5,-25 633.5,-25 633.5,-6 475.5,-6"/>
<text text-anchor="middle" x="554.5" y="-13" font-family="Helvetica,sans-Serif" font-size="10.00">range/v3/view/transform.hpp</text>
</a>
</g>
</g>
<!-- Node1&#45;&gt;Node6 -->
<g id="edge5" class="edge">
<title>Node1&#45;&gt;Node6</title>
<path fill="none" stroke="midnightblue" d="M396.27,-68.56C437.14,-55.11 486.32,-38.93 518.89,-28.22"/>
<polygon fill="midnightblue" stroke="midnightblue" points="520.03,-31.53 528.43,-25.08 517.84,-24.88 520.03,-31.53"/>
</g>
<!-- Node7 -->
<g id="node7" class="node">
<title>Node7</title>
<g id="a_node7"><a xlink:title=" ">
<polygon fill="none" stroke="#bfbfbf" points="651.5,-6 651.5,-25 775.5,-25 775.5,-6 651.5,-6"/>
<text text-anchor="middle" x="713.5" y="-13" font-family="Helvetica,sans-Serif" font-size="10.00">range/v3/view/zip.hpp</text>
</a>
</g>
</g>
<!-- Node1&#45;&gt;Node7 -->
<g id="edge6" class="edge">
<title>Node1&#45;&gt;Node7</title>
<path fill="none" stroke="midnightblue" d="M396.08,-78.74C460.76,-66.43 558,-47.77 642.5,-31 648.82,-29.75 655.45,-28.41 662.01,-27.09"/>
<polygon fill="midnightblue" stroke="midnightblue" points="663.11,-30.43 672.22,-25.01 661.72,-23.57 663.11,-30.43"/>
</g>
</g>
</svg>
