<?xml version="1.0" encoding="UTF-8" standalone="no"?>
<!DOCTYPE svg PUBLIC "-//W3C//DTD SVG 1.1//EN"
 "http://www.w3.org/Graphics/SVG/1.1/DTD/svg11.dtd">
<!-- Generated by graphviz version 2.43.0 (0)
 -->
<!-- Title: /home/runner/work/beluga/beluga/beluga/include/beluga/sensor/data/laser_scan.hpp Pages: 1 -->
<svg width="782pt" height="117pt"
 viewBox="0.00 0.00 781.50 117.00" xmlns="http://www.w3.org/2000/svg" xmlns:xlink="http://www.w3.org/1999/xlink">
<g id="graph0" class="graph" transform="scale(1 1) rotate(0) translate(4 113)">
<title>/home/runner/work/beluga/beluga/beluga/include/beluga/sensor/data/laser_scan.hpp</title>
<!-- Node1 -->
<g id="node1" class="node">
<title>Node1</title>
<g id="a_node1"><a xlink:title="Implementation of a laser scan interface.">
<polygon fill="#bfbfbf" stroke="black" points="249,-56.5 249,-108.5 394,-108.5 394,-56.5 249,-56.5"/>
<text text-anchor="start" x="257" y="-96.5" font-family="Helvetica,sans-Serif" font-size="10.00">/home/runner/work/beluga</text>
<text text-anchor="start" x="257" y="-85.5" font-family="Helvetica,sans-Serif" font-size="10.00">/beluga/beluga/include</text>
<text text-anchor="start" x="257" y="-74.5" font-family="Helvetica,sans-Serif" font-size="10.00">/beluga/sensor/data/laser</text>
<text text-anchor="middle" x="321.5" y="-63.5" font-family="Helvetica,sans-Serif" font-size="10.00">_scan.hpp</text>
</a>
</g>
</g>
<!-- Node2 -->
<g id="node2" class="node">
<title>Node2</title>
<g id="a_node2"><a xlink:title=" ">
<polygon fill="none" stroke="#bfbfbf" points="0,-0.5 0,-19.5 47,-19.5 47,-0.5 0,-0.5"/>
<text text-anchor="middle" x="23.5" y="-7.5" font-family="Helvetica,sans-Serif" font-size="10.00">cmath</text>
</a>
</g>
</g>
<!-- Node1&#45;&gt;Node2 -->
<g id="edge1" class="edge">
<title>Node1&#45;&gt;Node2</title>
<path fill="none" stroke="midnightblue" d="M248.77,-65.41C197.82,-53.95 127.92,-37.87 57.24,-20.11"/>
<polygon fill="midnightblue" stroke="midnightblue" points="57.82,-16.65 47.26,-17.6 56.1,-23.44 57.82,-16.65"/>
</g>
<!-- Node3 -->
<g id="node3" class="node">
<title>Node3</title>
<g id="a_node3"><a xlink:href="ciabatta_8hpp_source.html" target="_top" xlink:title=" ">
<polygon fill="none" stroke="black" points="65.5,-0.5 65.5,-19.5 185.5,-19.5 185.5,-0.5 65.5,-0.5"/>
<text text-anchor="middle" x="125.5" y="-7.5" font-family="Helvetica,sans-Serif" font-size="10.00">ciabatta/ciabatta.hpp</text>
</a>
</g>
</g>
<!-- Node1&#45;&gt;Node3 -->
<g id="edge2" class="edge">
<title>Node1&#45;&gt;Node3</title>
<path fill="none" stroke="midnightblue" d="M251.85,-56.45C220.18,-45.06 184.19,-32.11 158.75,-22.96"/>
<polygon fill="midnightblue" stroke="midnightblue" points="159.8,-19.62 149.21,-19.53 157.43,-26.21 159.8,-19.62"/>
</g>
<!-- Node4 -->
<g id="node4" class="node">
<title>Node4</title>
<g id="a_node4"><a xlink:title=" ">
<polygon fill="none" stroke="#bfbfbf" points="203.5,-0.5 203.5,-19.5 305.5,-19.5 305.5,-0.5 203.5,-0.5"/>
<text text-anchor="middle" x="254.5" y="-7.5" font-family="Helvetica,sans-Serif" font-size="10.00">sophus/types.hpp</text>
</a>
</g>
</g>
<!-- Node1&#45;&gt;Node4 -->
<g id="edge3" class="edge">
<title>Node1&#45;&gt;Node4</title>
<path fill="none" stroke="midnightblue" d="M297.69,-56.45C288.36,-46.63 277.93,-35.66 269.66,-26.95"/>
<polygon fill="midnightblue" stroke="midnightblue" points="272.19,-24.53 262.76,-19.7 267.12,-29.36 272.19,-24.53"/>
</g>
<!-- Node5 -->
<g id="node5" class="node">
<title>Node5</title>
<g id="a_node5"><a xlink:title=" ">
<polygon fill="none" stroke="#bfbfbf" points="324,-0.5 324,-19.5 455,-19.5 455,-0.5 324,-0.5"/>
<text text-anchor="middle" x="389.5" y="-7.5" font-family="Helvetica,sans-Serif" font-size="10.00">range/v3/view/filter.hpp</text>
</a>
</g>
</g>
<!-- Node1&#45;&gt;Node5 -->
<g id="edge4" class="edge">
<title>Node1&#45;&gt;Node5</title>
<path fill="none" stroke="midnightblue" d="M345.67,-56.45C355.14,-46.63 365.72,-35.66 374.11,-26.95"/>
<polygon fill="midnightblue" stroke="midnightblue" points="376.69,-29.32 381.11,-19.7 371.65,-24.46 376.69,-29.32"/>
</g>
<!-- Node6 -->
<g id="node6" class="node">
<title>Node6</title>
<g id="a_node6"><a xlink:title=" ">
<polygon fill="none" stroke="#bfbfbf" points="473.5,-0.5 473.5,-19.5 631.5,-19.5 631.5,-0.5 473.5,-0.5"/>
<text text-anchor="middle" x="552.5" y="-7.5" font-family="Helvetica,sans-Serif" font-size="10.00">range/v3/view/transform.hpp</text>
</a>
</g>
</g>
<!-- Node1&#45;&gt;Node6 -->
<g id="edge5" class="edge">
<title>Node1&#45;&gt;Node6</title>
<path fill="none" stroke="midnightblue" d="M394.27,-59.29C434.3,-47.07 482.3,-32.42 514.86,-22.49"/>
<polygon fill="midnightblue" stroke="midnightblue" points="515.9,-25.83 524.44,-19.56 513.85,-19.14 515.9,-25.83"/>
</g>
<!-- Node7 -->
<g id="node7" class="node">
<title>Node7</title>
<g id="a_node7"><a xlink:title=" ">
<polygon fill="none" stroke="#bfbfbf" points="649.5,-0.5 649.5,-19.5 773.5,-19.5 773.5,-0.5 649.5,-0.5"/>
<text text-anchor="middle" x="711.5" y="-7.5" font-family="Helvetica,sans-Serif" font-size="10.00">range/v3/view/zip.hpp</text>
</a>
</g>
</g>
<!-- Node1&#45;&gt;Node7 -->
<g id="edge6" class="edge">
<title>Node1&#45;&gt;Node7</title>
<path fill="none" stroke="midnightblue" d="M394.4,-68.32C469.58,-54.73 585.27,-33.82 654.17,-21.36"/>
<polygon fill="midnightblue" stroke="midnightblue" points="655.18,-24.74 664.4,-19.51 653.93,-17.85 655.18,-24.74"/>
</g>
</g>
</svg>
