<?xml version="1.0" encoding="UTF-8" standalone="no"?>
<!DOCTYPE svg PUBLIC "-//W3C//DTD SVG 1.1//EN"
 "http://www.w3.org/Graphics/SVG/1.1/DTD/svg11.dtd">
<!-- Generated by graphviz version 2.43.0 (0)
 -->
<!-- Title: /home/runner/work/beluga/beluga/beluga/include/beluga/sensor/likelihood_field_model_base.hpp Pages: 1 -->
<!--zoomable 441 -->
<svg id="main" version="1.1" xmlns="http://www.w3.org/2000/svg" xmlns:xlink="http://www.w3.org/1999/xlink" xml:space="preserve" onload="init(evt)">
<style type="text/css"><![CDATA[
.edge:hover path { stroke: red; }
.edge:hover polygon { stroke: red; fill: red; }
]]></style>
<script type="text/javascript"><![CDATA[
var edges = document.getElementsByTagName('g');
if (edges && edges.length) {
  for (var i=0;i<edges.length;i++) {
    if (edges[i].id.substr(0,4)=='edge') {
      edges[i].setAttribute('class','edge');
    }
  }
}
]]></script>
        <defs>
                <circle id="rim" cx="0" cy="0" r="7"/>
                <circle id="rim2" cx="0" cy="0" r="3.5"/>
                <g id="zoomPlus">
                        <use xlink:href="#rim" fill="#404040">
                                <set attributeName="fill" to="#808080" begin="zoomplus.mouseover" end="zoomplus.mouseout"/>
                        </use>
                        <path d="M-4,0h8M0,-4v8" fill="none" stroke="white" stroke-width="1.5" pointer-events="none"/>
                </g>
                <g id="zoomMin">
                        <use xlink:href="#rim" fill="#404040">
                                <set attributeName="fill" to="#808080" begin="zoomminus.mouseover" end="zoomminus.mouseout"/>
                        </use>
                        <path d="M-4,0h8" fill="none" stroke="white" stroke-width="1.5" pointer-events="none"/>
                </g>
                <g id="dirArrow">
                        <path fill="none" stroke="white" stroke-width="1.5" d="M0,-3.0v7 M-2.5,-0.5L0,-3.0L2.5,-0.5"/>
                </g>
               <g id="resetDef">
                       <use xlink:href="#rim2" fill="#404040">
                               <set attributeName="fill" to="#808080" begin="reset.mouseover" end="reset.mouseout"/>
                       </use>
               </g>
        </defs>

<script type="text/javascript">
var viewWidth = 2077;
var viewHeight = 441;
var sectionId = 'dynsection-0';
</script>
<script xlink:href="svgpan.js"/>
<svg id="graph" class="graph">
<g id="viewport">
<title>/home/runner/work/beluga/beluga/beluga/include/beluga/sensor/likelihood_field_model_base.hpp</title>
<!-- Node1 -->
<g id="node1" class="node">
<title>Node1</title>
<g id="a_node1"><a xlink:title="Implementation of a likelihood field common sensor model for range finders.">
<polygon fill="#bfbfbf" stroke="black" points="1351.5,-380.5 1351.5,-432.5 1496.5,-432.5 1496.5,-380.5 1351.5,-380.5"/>
<text text-anchor="start" x="1359.5" y="-420.5" font-family="Helvetica,sans-Serif" font-size="10.00">/home/runner/work/beluga</text>
<text text-anchor="start" x="1359.5" y="-409.5" font-family="Helvetica,sans-Serif" font-size="10.00">/beluga/beluga/include</text>
<text text-anchor="start" x="1359.5" y="-398.5" font-family="Helvetica,sans-Serif" font-size="10.00">/beluga/sensor/likelihood</text>
<text text-anchor="middle" x="1424" y="-387.5" font-family="Helvetica,sans-Serif" font-size="10.00">_field_model_base.hpp</text>
</a>
</g>
</g>
<!-- Node2 -->
<g id="node2" class="node">
<title>Node2</title>
<g id="a_node2"><a xlink:title=" ">
<polygon fill="none" stroke="#bfbfbf" points="0,-252 0,-271 64,-271 64,-252 0,-252"/>
<text text-anchor="middle" x="32" y="-259" font-family="Helvetica,sans-Serif" font-size="10.00">algorithm</text>
</a>
</g>
</g>
<!-- Node1&#45;&gt;Node2 -->
<g id="edge1" class="edge">
<title>Node1&#45;&gt;Node2</title>
<path fill="none" stroke="midnightblue" d="M1351.17,-404.24C1098.29,-399.56 267.53,-381.45 154,-344 111.96,-330.13 70.77,-297.53 48.66,-278.02"/>
<polygon fill="midnightblue" stroke="midnightblue" points="50.92,-275.35 41.15,-271.25 46.23,-280.55 50.92,-275.35"/>
</g>
<!-- Node3 -->
<g id="node3" class="node">
<title>Node3</title>
<g id="a_node3"><a xlink:href="overlay_8hpp.html" target="_top" xlink:title="Implementation of the overlay range adaptor object.">
<polygon fill="none" stroke="black" points="163.5,-319 163.5,-338 310.5,-338 310.5,-319 163.5,-319"/>
<text text-anchor="middle" x="237" y="-326" font-family="Helvetica,sans-Serif" font-size="10.00">beluga/actions/overlay.hpp</text>
</a>
</g>
</g>
<!-- Node1&#45;&gt;Node3 -->
<g id="edge2" class="edge">
<title>Node1&#45;&gt;Node3</title>
<path fill="none" stroke="midnightblue" d="M1351.09,-400.83C1142.3,-387.46 542.93,-349.09 320.99,-334.88"/>
<polygon fill="midnightblue" stroke="midnightblue" points="320.91,-331.37 310.7,-334.22 320.46,-338.35 320.91,-331.37"/>
</g>
<!-- Node7 -->
<g id="node7" class="node">
<title>Node7</title>
<g id="a_node7"><a xlink:href="distance__map_8hpp.html" target="_top" xlink:title="Implementation of algorithm to calculate distance from obstacles.">
<polygon fill="none" stroke="black" points="836,-313.5 836,-343.5 980,-343.5 980,-313.5 836,-313.5"/>
<text text-anchor="start" x="844" y="-331.5" font-family="Helvetica,sans-Serif" font-size="10.00">beluga/algorithm/distance</text>
<text text-anchor="middle" x="908" y="-320.5" font-family="Helvetica,sans-Serif" font-size="10.00">_map.hpp</text>
</a>
</g>
</g>
<!-- Node1&#45;&gt;Node7 -->
<g id="edge7" class="edge">
<title>Node1&#45;&gt;Node7</title>
<path fill="none" stroke="midnightblue" d="M1351.44,-394.81C1256.3,-380.8 1089.83,-356.28 990.16,-341.6"/>
<polygon fill="midnightblue" stroke="midnightblue" points="990.54,-338.12 980.13,-340.12 989.52,-345.04 990.54,-338.12"/>
</g>
<!-- Node9 -->
<g id="node9" class="node">
<title>Node9</title>
<g id="a_node9"><a xlink:title=" ">
<polygon fill="none" stroke="#bfbfbf" points="1083.5,-118 1083.5,-137 1130.5,-137 1130.5,-118 1083.5,-118"/>
<text text-anchor="middle" x="1107" y="-125" font-family="Helvetica,sans-Serif" font-size="10.00">vector</text>
</a>
</g>
</g>
<!-- Node1&#45;&gt;Node9 -->
<g id="edge47" class="edge">
<title>Node1&#45;&gt;Node9</title>
<path fill="none" stroke="midnightblue" d="M1351.43,-400.71C1147.13,-386.47 578.55,-341.34 527,-277 455.25,-187.46 938.61,-141.92 1073,-131.08"/>
<polygon fill="midnightblue" stroke="midnightblue" points="1073.44,-134.55 1083.13,-130.27 1072.88,-127.57 1073.44,-134.55"/>
</g>
<!-- Node13 -->
<g id="node13" class="node">
<title>Node13</title>
<g id="a_node13"><a xlink:href="occupancy__grid_8hpp.html" target="_top" xlink:title="Concepts and abstract implementations of occupancy grids.">
<polygon fill="none" stroke="black" points="1432,-313.5 1432,-343.5 1548,-343.5 1548,-313.5 1432,-313.5"/>
<text text-anchor="start" x="1440" y="-331.5" font-family="Helvetica,sans-Serif" font-size="10.00">beluga/sensor/data</text>
<text text-anchor="middle" x="1490" y="-320.5" font-family="Helvetica,sans-Serif" font-size="10.00">/occupancy_grid.hpp</text>
</a>
</g>
</g>
<!-- Node1&#45;&gt;Node13 -->
<g id="edge13" class="edge">
<title>Node1&#45;&gt;Node13</title>
<path fill="none" stroke="midnightblue" d="M1445.98,-380.19C1454.02,-370.94 1463.04,-360.54 1470.82,-351.59"/>
<polygon fill="midnightblue" stroke="midnightblue" points="1473.63,-353.69 1477.54,-343.85 1468.34,-349.1 1473.63,-353.69"/>
</g>
<!-- Node20 -->
<g id="node20" class="node">
<title>Node20</title>
<g id="a_node20"><a xlink:title=" ">
<polygon fill="none" stroke="#bfbfbf" points="1748.5,-56.5 1748.5,-75.5 1795.5,-75.5 1795.5,-56.5 1748.5,-56.5"/>
<text text-anchor="middle" x="1772" y="-63.5" font-family="Helvetica,sans-Serif" font-size="10.00">cmath</text>
</a>
</g>
</g>
<!-- Node1&#45;&gt;Node20 -->
<g id="edge43" class="edge">
<title>Node1&#45;&gt;Node20</title>
<path fill="none" stroke="midnightblue" d="M1496.7,-382.35C1600.88,-348.85 1781.17,-289.47 1790,-277 1831.97,-217.78 1798.1,-124.26 1780.71,-85.14"/>
<polygon fill="midnightblue" stroke="midnightblue" points="1783.69,-83.24 1776.32,-75.63 1777.33,-86.17 1783.69,-83.24"/>
</g>
<!-- Node27 -->
<g id="node27" class="node">
<title>Node27</title>
<g id="a_node27"><a xlink:href="value__grid_8hpp.html" target="_top" xlink:title="Implementation of generic value grid.">
<polygon fill="none" stroke="black" points="1304,-313.5 1304,-343.5 1414,-343.5 1414,-313.5 1304,-313.5"/>
<text text-anchor="start" x="1312" y="-331.5" font-family="Helvetica,sans-Serif" font-size="10.00">beluga/sensor/data</text>
<text text-anchor="middle" x="1359" y="-320.5" font-family="Helvetica,sans-Serif" font-size="10.00">/value_grid.hpp</text>
</a>
</g>
</g>
<!-- Node1&#45;&gt;Node27 -->
<g id="edge38" class="edge">
<title>Node1&#45;&gt;Node27</title>
<path fill="none" stroke="midnightblue" d="M1402.36,-380.19C1394.44,-370.94 1385.55,-360.54 1377.89,-351.59"/>
<polygon fill="midnightblue" stroke="midnightblue" points="1380.43,-349.17 1371.27,-343.85 1375.11,-353.72 1380.43,-349.17"/>
</g>
<!-- Node29 -->
<g id="node29" class="node">
<title>Node29</title>
<g id="a_node29"><a xlink:title=" ">
<polygon fill="none" stroke="#bfbfbf" points="1723,-319 1723,-338 1777,-338 1777,-319 1723,-319"/>
<text text-anchor="middle" x="1750" y="-326" font-family="Helvetica,sans-Serif" font-size="10.00">random</text>
</a>
</g>
</g>
<!-- Node1&#45;&gt;Node29 -->
<g id="edge44" class="edge">
<title>Node1&#45;&gt;Node29</title>
<path fill="none" stroke="midnightblue" d="M1496.66,-392.47C1554.63,-381.44 1637.66,-364.22 1709,-344 1711.79,-343.21 1714.67,-342.33 1717.55,-341.4"/>
<polygon fill="midnightblue" stroke="midnightblue" points="1718.82,-344.66 1727.18,-338.15 1716.59,-338.03 1718.82,-344.66"/>
</g>
<!-- Node30 -->
<g id="node30" class="node">
<title>Node30</title>
<g id="a_node30"><a xlink:title=" ">
<polygon fill="none" stroke="#bfbfbf" points="1795,-319 1795,-338 1959,-338 1959,-319 1795,-319"/>
<text text-anchor="middle" x="1877" y="-326" font-family="Helvetica,sans-Serif" font-size="10.00">range/v3/action/transform.hpp</text>
</a>
</g>
</g>
<!-- Node1&#45;&gt;Node30 -->
<g id="edge45" class="edge">
<title>Node1&#45;&gt;Node30</title>
<path fill="none" stroke="midnightblue" d="M1496.53,-393.33C1585.07,-378.48 1733.21,-353.62 1816.1,-339.72"/>
<polygon fill="midnightblue" stroke="midnightblue" points="1816.84,-343.14 1826.13,-338.04 1815.68,-336.24 1816.84,-343.14"/>
</g>
<!-- Node31 -->
<g id="node31" class="node">
<title>Node31</title>
<g id="a_node31"><a xlink:title=" ">
<polygon fill="none" stroke="#bfbfbf" points="1977,-319 1977,-338 2069,-338 2069,-319 1977,-319"/>
<text text-anchor="middle" x="2023" y="-326" font-family="Helvetica,sans-Serif" font-size="10.00">sophus/se2.hpp</text>
</a>
</g>
</g>
<!-- Node1&#45;&gt;Node31 -->
<g id="edge46" class="edge">
<title>Node1&#45;&gt;Node31</title>
<path fill="none" stroke="midnightblue" d="M1496.65,-400.66C1601.44,-392.91 1800.78,-375.32 1968,-344 1973.15,-343.04 1978.52,-341.85 1983.8,-340.57"/>
<polygon fill="midnightblue" stroke="midnightblue" points="1984.95,-343.9 1993.78,-338.05 1983.23,-337.11 1984.95,-343.9"/>
</g>
<!-- Node3&#45;&gt;Node2 -->
<g id="edge3" class="edge">
<title>Node3&#45;&gt;Node2</title>
<path fill="none" stroke="midnightblue" d="M207.85,-318.92C174.97,-309.15 119.95,-292.52 73,-277 70.55,-276.19 68.03,-275.34 65.5,-274.47"/>
<polygon fill="midnightblue" stroke="midnightblue" points="66.39,-271.08 55.79,-271.1 64.09,-277.69 66.39,-271.08"/>
</g>
<!-- Node4 -->
<g id="node4" class="node">
<title>Node4</title>
<g id="a_node4"><a xlink:title=" ">
<polygon fill="none" stroke="#bfbfbf" points="82,-252 82,-271 146,-271 146,-252 82,-252"/>
<text text-anchor="middle" x="114" y="-259" font-family="Helvetica,sans-Serif" font-size="10.00">execution</text>
</a>
</g>
</g>
<!-- Node3&#45;&gt;Node4 -->
<g id="edge4" class="edge">
<title>Node3&#45;&gt;Node4</title>
<path fill="none" stroke="midnightblue" d="M220.67,-318.87C199.9,-307.89 163.81,-288.82 139.43,-275.94"/>
<polygon fill="midnightblue" stroke="midnightblue" points="140.88,-272.75 130.4,-271.17 137.61,-278.93 140.88,-272.75"/>
</g>
<!-- Node5 -->
<g id="node5" class="node">
<title>Node5</title>
<g id="a_node5"><a xlink:title=" ">
<polygon fill="none" stroke="#bfbfbf" points="164,-252 164,-271 310,-271 310,-252 164,-252"/>
<text text-anchor="middle" x="237" y="-259" font-family="Helvetica,sans-Serif" font-size="10.00">range/v3/action/action.hpp</text>
</a>
</g>
</g>
<!-- Node3&#45;&gt;Node5 -->
<g id="edge5" class="edge">
<title>Node3&#45;&gt;Node5</title>
<path fill="none" stroke="midnightblue" d="M237,-318.73C237,-309.18 237,-293.62 237,-281.28"/>
<polygon fill="midnightblue" stroke="midnightblue" points="240.5,-281.13 237,-271.13 233.5,-281.13 240.5,-281.13"/>
</g>
<!-- Node6 -->
<g id="node6" class="node">
<title>Node6</title>
<g id="a_node6"><a xlink:title=" ">
<polygon fill="none" stroke="#bfbfbf" points="328,-252 328,-271 480,-271 480,-252 328,-252"/>
<text text-anchor="middle" x="404" y="-259" font-family="Helvetica,sans-Serif" font-size="10.00">range/v3/view/common.hpp</text>
</a>
</g>
</g>
<!-- Node3&#45;&gt;Node6 -->
<g id="edge6" class="edge">
<title>Node3&#45;&gt;Node6</title>
<path fill="none" stroke="midnightblue" d="M259.18,-318.87C288.2,-307.57 339.27,-287.7 372.35,-274.82"/>
<polygon fill="midnightblue" stroke="midnightblue" points="373.95,-277.95 382,-271.06 371.41,-271.43 373.95,-277.95"/>
</g>
<!-- Node8 -->
<g id="node8" class="node">
<title>Node8</title>
<g id="a_node8"><a xlink:title=" ">
<polygon fill="none" stroke="#bfbfbf" points="718.5,-252 718.5,-271 765.5,-271 765.5,-252 718.5,-252"/>
<text text-anchor="middle" x="742" y="-259" font-family="Helvetica,sans-Serif" font-size="10.00">queue</text>
</a>
</g>
</g>
<!-- Node7&#45;&gt;Node8 -->
<g id="edge8" class="edge">
<title>Node7&#45;&gt;Node8</title>
<path fill="none" stroke="midnightblue" d="M868.74,-313.47C841.89,-303.69 805.58,-290.09 774,-277 772.63,-276.43 771.22,-275.84 769.81,-275.23"/>
<polygon fill="midnightblue" stroke="midnightblue" points="771.09,-271.97 760.52,-271.14 768.26,-278.38 771.09,-271.97"/>
</g>
<!-- Node7&#45;&gt;Node9 -->
<g id="edge9" class="edge">
<title>Node7&#45;&gt;Node9</title>
<path fill="none" stroke="midnightblue" d="M919.52,-313.32C933.09,-296.79 956.53,-268.82 978,-246 1007.29,-214.87 1015.29,-207.67 1047,-179 1060.49,-166.8 1076.24,-153.58 1088.21,-143.73"/>
<polygon fill="midnightblue" stroke="midnightblue" points="1090.66,-146.26 1096.18,-137.22 1086.23,-140.84 1090.66,-146.26"/>
</g>
<!-- Node10 -->
<g id="node10" class="node">
<title>Node10</title>
<g id="a_node10"><a xlink:title=" ">
<polygon fill="none" stroke="#bfbfbf" points="783.5,-252 783.5,-271 930.5,-271 930.5,-252 783.5,-252"/>
<text text-anchor="middle" x="857" y="-259" font-family="Helvetica,sans-Serif" font-size="10.00">range/v3/range/access.hpp</text>
</a>
</g>
</g>
<!-- Node7&#45;&gt;Node10 -->
<g id="edge10" class="edge">
<title>Node7&#45;&gt;Node10</title>
<path fill="none" stroke="midnightblue" d="M896.93,-313.4C889.06,-303.36 878.45,-289.84 870.15,-279.25"/>
<polygon fill="midnightblue" stroke="midnightblue" points="872.75,-276.9 863.82,-271.19 867.24,-281.22 872.75,-276.9"/>
</g>
<!-- Node11 -->
<g id="node11" class="node">
<title>Node11</title>
<g id="a_node11"><a xlink:title=" ">
<polygon fill="none" stroke="#bfbfbf" points="536,-252 536,-271 700,-271 700,-252 536,-252"/>
<text text-anchor="middle" x="618" y="-259" font-family="Helvetica,sans-Serif" font-size="10.00">range/v3/range/primitives.hpp</text>
</a>
</g>
</g>
<!-- Node7&#45;&gt;Node11 -->
<g id="edge11" class="edge">
<title>Node7&#45;&gt;Node11</title>
<path fill="none" stroke="midnightblue" d="M845.43,-313.48C791.65,-301.42 715.2,-284.29 666.1,-273.28"/>
<polygon fill="midnightblue" stroke="midnightblue" points="666.57,-269.8 656.05,-271.03 665.04,-276.63 666.57,-269.8"/>
</g>
<!-- Node12 -->
<g id="node12" class="node">
<title>Node12</title>
<g id="a_node12"><a xlink:title=" ">
<polygon fill="none" stroke="#bfbfbf" points="1089.5,-252 1089.5,-271 1252.5,-271 1252.5,-252 1089.5,-252"/>
<text text-anchor="middle" x="1171" y="-259" font-family="Helvetica,sans-Serif" font-size="10.00">range/v3/view/enumerate.hpp</text>
</a>
</g>
</g>
<!-- Node7&#45;&gt;Node12 -->
<g id="edge12" class="edge">
<title>Node7&#45;&gt;Node12</title>
<path fill="none" stroke="midnightblue" d="M964.74,-313.48C1013.22,-301.5 1081.98,-284.5 1126.54,-273.49"/>
<polygon fill="midnightblue" stroke="midnightblue" points="1127.62,-276.83 1136.49,-271.03 1125.94,-270.03 1127.62,-276.83"/>
</g>
<!-- Node13&#45;&gt;Node9 -->
<g id="edge16" class="edge">
<title>Node13&#45;&gt;Node9</title>
<path fill="none" stroke="midnightblue" d="M1431.91,-314.9C1384.93,-304.18 1322.95,-288.72 1300,-277 1280.59,-267.09 1279.13,-259.47 1262,-246 1214.13,-208.35 1156.79,-165.44 1127.07,-143.36"/>
<polygon fill="midnightblue" stroke="midnightblue" points="1128.89,-140.35 1118.78,-137.2 1124.72,-145.97 1128.89,-140.35"/>
</g>
<!-- Node13&#45;&gt;Node12 -->
<g id="edge34" class="edge">
<title>Node13&#45;&gt;Node12</title>
<path fill="none" stroke="midnightblue" d="M1431.91,-314.87C1428.9,-314.23 1425.91,-313.61 1423,-313 1354.61,-298.75 1275.62,-283.04 1224.57,-272.99"/>
<polygon fill="midnightblue" stroke="midnightblue" points="1225.23,-269.55 1214.75,-271.05 1223.88,-276.42 1225.23,-269.55"/>
</g>
<!-- Node14 -->
<g id="node14" class="node">
<title>Node14</title>
<g id="a_node14"><a xlink:title=" ">
<polygon fill="none" stroke="#bfbfbf" points="1505,-185 1505,-204 1555,-204 1555,-185 1505,-185"/>
<text text-anchor="middle" x="1530" y="-192" font-family="Helvetica,sans-Serif" font-size="10.00">cstdint</text>
</a>
</g>
</g>
<!-- Node13&#45;&gt;Node14 -->
<g id="edge14" class="edge">
<title>Node13&#45;&gt;Node14</title>
<path fill="none" stroke="midnightblue" d="M1491.4,-313.36C1493.3,-296.87 1497.38,-268.94 1505,-246 1508.8,-234.56 1514.73,-222.44 1519.87,-212.94"/>
<polygon fill="midnightblue" stroke="midnightblue" points="1522.97,-214.56 1524.8,-204.12 1516.86,-211.14 1522.97,-214.56"/>
</g>
<!-- Node15 -->
<g id="node15" class="node">
<title>Node15</title>
<g id="a_node15"><a xlink:title=" ">
<polygon fill="none" stroke="#bfbfbf" points="1513.5,-252 1513.5,-271 1554.5,-271 1554.5,-252 1513.5,-252"/>
<text text-anchor="middle" x="1534" y="-259" font-family="Helvetica,sans-Serif" font-size="10.00">tuple</text>
</a>
</g>
</g>
<!-- Node13&#45;&gt;Node15 -->
<g id="edge15" class="edge">
<title>Node13&#45;&gt;Node15</title>
<path fill="none" stroke="midnightblue" d="M1499.55,-313.4C1506.27,-303.46 1515.31,-290.11 1522.44,-279.57"/>
<polygon fill="midnightblue" stroke="midnightblue" points="1525.41,-281.44 1528.11,-271.19 1519.61,-277.51 1525.41,-281.44"/>
</g>
<!-- Node16 -->
<g id="node16" class="node">
<title>Node16</title>
<g id="a_node16"><a xlink:href="linear__grid_8hpp.html" target="_top" xlink:title="Concepts and abstract implementations of linear (ie. contiguous storage) grids.">
<polygon fill="none" stroke="black" points="1309,-246.5 1309,-276.5 1419,-276.5 1419,-246.5 1309,-246.5"/>
<text text-anchor="start" x="1317" y="-264.5" font-family="Helvetica,sans-Serif" font-size="10.00">beluga/sensor/data</text>
<text text-anchor="middle" x="1364" y="-253.5" font-family="Helvetica,sans-Serif" font-size="10.00">/linear_grid.hpp</text>
</a>
</g>
</g>
<!-- Node13&#45;&gt;Node16 -->
<g id="edge17" class="edge">
<title>Node13&#45;&gt;Node16</title>
<path fill="none" stroke="midnightblue" d="M1462.66,-313.4C1444.41,-303.98 1420.22,-291.5 1400.36,-281.26"/>
<polygon fill="midnightblue" stroke="midnightblue" points="1401.78,-278.05 1391.29,-276.58 1398.57,-284.27 1401.78,-278.05"/>
</g>
<!-- Node22 -->
<g id="node22" class="node">
<title>Node22</title>
<g id="a_node22"><a xlink:title=" ">
<polygon fill="none" stroke="#bfbfbf" points="1536,-56.5 1536,-75.5 1694,-75.5 1694,-56.5 1536,-56.5"/>
<text text-anchor="middle" x="1615" y="-63.5" font-family="Helvetica,sans-Serif" font-size="10.00">range/v3/view/transform.hpp</text>
</a>
</g>
</g>
<!-- Node13&#45;&gt;Node22 -->
<g id="edge36" class="edge">
<title>Node13&#45;&gt;Node22</title>
<path fill="none" stroke="midnightblue" d="M1534.43,-313.31C1552.24,-305.4 1571.28,-293.69 1583,-277 1624.86,-217.39 1621.18,-124.77 1617.31,-85.55"/>
<polygon fill="midnightblue" stroke="midnightblue" points="1620.78,-85.13 1616.2,-75.58 1613.83,-85.9 1620.78,-85.13"/>
</g>
<!-- Node23 -->
<g id="node23" class="node">
<title>Node23</title>
<g id="a_node23"><a xlink:title=" ">
<polygon fill="none" stroke="#bfbfbf" points="1444.5,-56.5 1444.5,-75.5 1513.5,-75.5 1513.5,-56.5 1444.5,-56.5"/>
<text text-anchor="middle" x="1479" y="-63.5" font-family="Helvetica,sans-Serif" font-size="10.00">Eigen/Core</text>
</a>
</g>
</g>
<!-- Node13&#45;&gt;Node23 -->
<g id="edge37" class="edge">
<title>Node13&#45;&gt;Node23</title>
<path fill="none" stroke="midnightblue" d="M1523.85,-313.44C1539.04,-305.23 1555.43,-293.23 1564,-277 1584.34,-238.49 1577.89,-220.28 1564,-179 1550.67,-139.38 1517.13,-102.64 1496.39,-82.67"/>
<polygon fill="midnightblue" stroke="midnightblue" points="1498.57,-79.91 1488.88,-75.63 1493.79,-85.02 1498.57,-79.91"/>
</g>
<!-- Node26 -->
<g id="node26" class="node">
<title>Node26</title>
<g id="a_node26"><a xlink:title=" ">
<polygon fill="none" stroke="#bfbfbf" points="1649.5,-252 1649.5,-271 1780.5,-271 1780.5,-252 1649.5,-252"/>
<text text-anchor="middle" x="1715" y="-259" font-family="Helvetica,sans-Serif" font-size="10.00">range/v3/view/filter.hpp</text>
</a>
</g>
</g>
<!-- Node13&#45;&gt;Node26 -->
<g id="edge35" class="edge">
<title>Node13&#45;&gt;Node26</title>
<path fill="none" stroke="midnightblue" d="M1538.54,-313.48C1579.58,-301.62 1637.61,-284.86 1675.75,-273.84"/>
<polygon fill="midnightblue" stroke="midnightblue" points="1676.84,-277.17 1685.48,-271.03 1674.9,-270.44 1676.84,-277.17"/>
</g>
<!-- Node16&#45;&gt;Node9 -->
<g id="edge20" class="edge">
<title>Node16&#45;&gt;Node9</title>
<path fill="none" stroke="midnightblue" d="M1343.78,-246.42C1329.32,-236.33 1309.42,-222.39 1292,-210 1272.8,-196.35 1269.86,-189.95 1249,-179 1213.66,-160.46 1170.03,-146.09 1140.53,-137.5"/>
<polygon fill="midnightblue" stroke="midnightblue" points="1141.29,-134.08 1130.72,-134.7 1139.38,-140.81 1141.29,-134.08"/>
</g>
<!-- Node16&#45;&gt;Node14 -->
<g id="edge18" class="edge">
<title>Node16&#45;&gt;Node14</title>
<path fill="none" stroke="midnightblue" d="M1400.02,-246.4C1429.53,-234.84 1470.86,-218.66 1498.94,-207.66"/>
<polygon fill="midnightblue" stroke="midnightblue" points="1500.24,-210.91 1508.27,-204.01 1497.69,-204.39 1500.24,-210.91"/>
</g>
<!-- Node17 -->
<g id="node17" class="node">
<title>Node17</title>
<g id="a_node17"><a xlink:title=" ">
<polygon fill="none" stroke="#bfbfbf" points="1396,-118 1396,-137 1452,-137 1452,-118 1396,-118"/>
<text text-anchor="middle" x="1424" y="-125" font-family="Helvetica,sans-Serif" font-size="10.00">optional</text>
</a>
</g>
</g>
<!-- Node16&#45;&gt;Node17 -->
<g id="edge19" class="edge">
<title>Node16&#45;&gt;Node17</title>
<path fill="none" stroke="midnightblue" d="M1386.9,-246.4C1399.04,-237.57 1412.87,-225.02 1420,-210 1429.37,-190.24 1428.9,-164.68 1427.04,-147.49"/>
<polygon fill="midnightblue" stroke="midnightblue" points="1430.45,-146.55 1425.64,-137.11 1423.51,-147.49 1430.45,-146.55"/>
</g>
<!-- Node18 -->
<g id="node18" class="node">
<title>Node18</title>
<g id="a_node18"><a xlink:href="dense__grid_8hpp.html" target="_top" xlink:title="Concepts and abstract implementations of dense grids.">
<polygon fill="none" stroke="black" points="1301,-179.5 1301,-209.5 1411,-209.5 1411,-179.5 1301,-179.5"/>
<text text-anchor="start" x="1309" y="-197.5" font-family="Helvetica,sans-Serif" font-size="10.00">beluga/sensor/data</text>
<text text-anchor="middle" x="1356" y="-186.5" font-family="Helvetica,sans-Serif" font-size="10.00">/dense_grid.hpp</text>
</a>
</g>
</g>
<!-- Node16&#45;&gt;Node18 -->
<g id="edge21" class="edge">
<title>Node16&#45;&gt;Node18</title>
<path fill="none" stroke="midnightblue" d="M1362.26,-246.4C1361.3,-238.56 1360.07,-228.6 1358.96,-219.57"/>
<polygon fill="midnightblue" stroke="midnightblue" points="1362.43,-219.07 1357.73,-209.58 1355.48,-219.93 1362.43,-219.07"/>
</g>
<!-- Node16&#45;&gt;Node23 -->
<g id="edge33" class="edge">
<title>Node16&#45;&gt;Node23</title>
<path fill="none" stroke="midnightblue" d="M1392.57,-246.37C1407.59,-237.68 1425.27,-225.28 1437,-210 1465.94,-172.31 1474.97,-115.12 1477.77,-85.79"/>
<polygon fill="midnightblue" stroke="midnightblue" points="1481.26,-85.94 1478.58,-75.69 1474.29,-85.38 1481.26,-85.94"/>
</g>
<!-- Node18&#45;&gt;Node9 -->
<g id="edge23" class="edge">
<title>Node18&#45;&gt;Node9</title>
<path fill="none" stroke="midnightblue" d="M1302.28,-179.48C1253.12,-166.64 1181.91,-148.05 1140.44,-137.23"/>
<polygon fill="midnightblue" stroke="midnightblue" points="1141.13,-133.79 1130.57,-134.65 1139.36,-140.57 1141.13,-133.79"/>
</g>
<!-- Node18&#45;&gt;Node17 -->
<g id="edge22" class="edge">
<title>Node18&#45;&gt;Node17</title>
<path fill="none" stroke="midnightblue" d="M1370.75,-179.4C1381.57,-169.06 1396.25,-155.02 1407.46,-144.31"/>
<polygon fill="midnightblue" stroke="midnightblue" points="1410.09,-146.63 1414.9,-137.19 1405.26,-141.57 1410.09,-146.63"/>
</g>
<!-- Node19 -->
<g id="node19" class="node">
<title>Node19</title>
<g id="a_node19"><a xlink:href="regular__grid_8hpp.html" target="_top" xlink:title="Concepts and abstract implementations of regular grids.">
<polygon fill="none" stroke="black" points="1230,-112.5 1230,-142.5 1340,-142.5 1340,-112.5 1230,-112.5"/>
<text text-anchor="start" x="1238" y="-130.5" font-family="Helvetica,sans-Serif" font-size="10.00">beluga/sensor/data</text>
<text text-anchor="middle" x="1285" y="-119.5" font-family="Helvetica,sans-Serif" font-size="10.00">/regular_grid.hpp</text>
</a>
</g>
</g>
<!-- Node18&#45;&gt;Node19 -->
<g id="edge24" class="edge">
<title>Node18&#45;&gt;Node19</title>
<path fill="none" stroke="midnightblue" d="M1340.59,-179.4C1331.01,-170.62 1318.51,-159.18 1307.8,-149.37"/>
<polygon fill="midnightblue" stroke="midnightblue" points="1310.12,-146.75 1300.38,-142.58 1305.39,-151.91 1310.12,-146.75"/>
</g>
<!-- Node18&#45;&gt;Node23 -->
<g id="edge31" class="edge">
<title>Node18&#45;&gt;Node23</title>
<path fill="none" stroke="midnightblue" d="M1358.1,-179.45C1361.4,-161.76 1369.35,-131.35 1387,-112 1400.75,-96.93 1420.66,-86.33 1438.44,-79.22"/>
<polygon fill="midnightblue" stroke="midnightblue" points="1439.91,-82.4 1448.05,-75.62 1437.46,-75.85 1439.91,-82.4"/>
</g>
<!-- Node24 -->
<g id="node24" class="node">
<title>Node24</title>
<g id="a_node24"><a xlink:href="eigen__compatibility_8hpp_source.html" target="_top" xlink:title=" ">
<polygon fill="none" stroke="black" points="1117.5,-56.5 1117.5,-75.5 1286.5,-75.5 1286.5,-56.5 1117.5,-56.5"/>
<text text-anchor="middle" x="1202" y="-63.5" font-family="Helvetica,sans-Serif" font-size="10.00">beluga/eigen_compatibility.hpp</text>
</a>
</g>
</g>
<!-- Node18&#45;&gt;Node24 -->
<g id="edge32" class="edge">
<title>Node18&#45;&gt;Node24</title>
<path fill="none" stroke="midnightblue" d="M1303.72,-179.41C1270.83,-169.55 1232.5,-155.88 1221,-143 1207.02,-127.34 1202.99,-102.93 1201.99,-86.02"/>
<polygon fill="midnightblue" stroke="midnightblue" points="1205.48,-85.6 1201.71,-75.71 1198.49,-85.8 1205.48,-85.6"/>
</g>
<!-- Node19&#45;&gt;Node20 -->
<g id="edge25" class="edge">
<title>Node19&#45;&gt;Node20</title>
<path fill="none" stroke="midnightblue" d="M1340.02,-118.39C1355.22,-116.23 1371.74,-113.95 1387,-112 1527.21,-94.05 1562.69,-93.14 1703,-76 1714.45,-74.6 1726.96,-72.99 1738.14,-71.53"/>
<polygon fill="midnightblue" stroke="midnightblue" points="1738.92,-74.96 1748.38,-70.18 1738.01,-68.02 1738.92,-74.96"/>
</g>
<!-- Node21 -->
<g id="node21" class="node">
<title>Node21</title>
<g id="a_node21"><a xlink:href="ciabatta_8hpp_source.html" target="_top" xlink:title=" ">
<polygon fill="none" stroke="black" points="1304,-56.5 1304,-75.5 1424,-75.5 1424,-56.5 1304,-56.5"/>
<text text-anchor="middle" x="1364" y="-63.5" font-family="Helvetica,sans-Serif" font-size="10.00">ciabatta/ciabatta.hpp</text>
</a>
</g>
</g>
<!-- Node19&#45;&gt;Node21 -->
<g id="edge26" class="edge">
<title>Node19&#45;&gt;Node21</title>
<path fill="none" stroke="midnightblue" d="M1303.72,-112.4C1315.91,-103.22 1331.79,-91.26 1344.19,-81.92"/>
<polygon fill="midnightblue" stroke="midnightblue" points="1346.62,-84.47 1352.5,-75.66 1342.41,-78.88 1346.62,-84.47"/>
</g>
<!-- Node19&#45;&gt;Node22 -->
<g id="edge27" class="edge">
<title>Node19&#45;&gt;Node22</title>
<path fill="none" stroke="midnightblue" d="M1340.23,-116.54C1400.55,-105.67 1496.66,-88.34 1557.76,-77.32"/>
<polygon fill="midnightblue" stroke="midnightblue" points="1558.4,-80.76 1567.62,-75.54 1557.16,-73.87 1558.4,-80.76"/>
</g>
<!-- Node19&#45;&gt;Node23 -->
<g id="edge28" class="edge">
<title>Node19&#45;&gt;Node23</title>
<path fill="none" stroke="midnightblue" d="M1330.98,-112.4C1364.64,-102.07 1409.78,-88.23 1441.32,-78.56"/>
<polygon fill="midnightblue" stroke="midnightblue" points="1442.52,-81.85 1451.05,-75.57 1440.47,-75.16 1442.52,-81.85"/>
</g>
<!-- Node19&#45;&gt;Node24 -->
<g id="edge29" class="edge">
<title>Node19&#45;&gt;Node24</title>
<path fill="none" stroke="midnightblue" d="M1265.33,-112.4C1252.4,-103.13 1235.51,-91.03 1222.43,-81.65"/>
<polygon fill="midnightblue" stroke="midnightblue" points="1224.24,-78.64 1214.08,-75.66 1220.17,-84.33 1224.24,-78.64"/>
</g>
<!-- Node25 -->
<g id="node25" class="node">
<title>Node25</title>
<g id="a_node25"><a xlink:title=" ">
<polygon fill="none" stroke="#bfbfbf" points="1163.5,-0.5 1163.5,-19.5 1240.5,-19.5 1240.5,-0.5 1163.5,-0.5"/>
<text text-anchor="middle" x="1202" y="-7.5" font-family="Helvetica,sans-Serif" font-size="10.00">Eigen/Dense</text>
</a>
</g>
</g>
<!-- Node24&#45;&gt;Node25 -->
<g id="edge30" class="edge">
<title>Node24&#45;&gt;Node25</title>
<path fill="none" stroke="midnightblue" d="M1202,-56.08C1202,-49.01 1202,-38.86 1202,-29.99"/>
<polygon fill="midnightblue" stroke="midnightblue" points="1205.5,-29.75 1202,-19.75 1198.5,-29.75 1205.5,-29.75"/>
</g>
<!-- Node27&#45;&gt;Node9 -->
<g id="edge41" class="edge">
<title>Node27&#45;&gt;Node9</title>
<path fill="none" stroke="midnightblue" d="M1303.87,-325.56C1231.07,-321.71 1108.82,-310.33 1081,-277 1049.22,-238.92 1078.73,-175.85 1096.21,-145.65"/>
<polygon fill="midnightblue" stroke="midnightblue" points="1099.22,-147.45 1101.37,-137.07 1093.22,-143.84 1099.22,-147.45"/>
</g>
<!-- Node27&#45;&gt;Node14 -->
<g id="edge39" class="edge">
<title>Node27&#45;&gt;Node14</title>
<path fill="none" stroke="midnightblue" d="M1378.79,-313.35C1392.68,-303.35 1411.61,-289.54 1428,-277 1457.62,-254.35 1491.29,-227.15 1511.57,-210.61"/>
<polygon fill="midnightblue" stroke="midnightblue" points="1513.87,-213.25 1519.4,-204.22 1509.44,-207.83 1513.87,-213.25"/>
</g>
<!-- Node27&#45;&gt;Node16 -->
<g id="edge42" class="edge">
<title>Node27&#45;&gt;Node16</title>
<path fill="none" stroke="midnightblue" d="M1360.08,-313.4C1360.69,-305.56 1361.45,-295.6 1362.15,-286.57"/>
<polygon fill="midnightblue" stroke="midnightblue" points="1365.64,-286.82 1362.92,-276.58 1358.66,-286.28 1365.64,-286.82"/>
</g>
<!-- Node28 -->
<g id="node28" class="node">
<title>Node28</title>
<g id="a_node28"><a xlink:title=" ">
<polygon fill="none" stroke="#bfbfbf" points="987.5,-252 987.5,-271 1032.5,-271 1032.5,-252 987.5,-252"/>
<text text-anchor="middle" x="1010" y="-259" font-family="Helvetica,sans-Serif" font-size="10.00">utility</text>
</a>
</g>
</g>
<!-- Node27&#45;&gt;Node28 -->
<g id="edge40" class="edge">
<title>Node27&#45;&gt;Node28</title>
<path fill="none" stroke="midnightblue" d="M1303.86,-322.17C1240.91,-315.26 1135.26,-301.14 1047,-277 1044.41,-276.29 1041.75,-275.46 1039.1,-274.56"/>
<polygon fill="midnightblue" stroke="midnightblue" points="1040.3,-271.28 1029.71,-271.12 1037.89,-277.85 1040.3,-271.28"/>
</g>
</g>
</svg>
        <g id="navigator" transform="translate(0 0)" fill="#404254">
                <rect fill="#f2f5e9" fill-opacity="0.5" stroke="#606060" stroke-width=".5" x="0" y="0" width="60" height="60"/>
                <use id="zoomplus" xlink:href="#zoomPlus" x="17" y="9" onmousedown="handleZoom(evt,'in')"/>
                <use id="zoomminus" xlink:href="#zoomMin" x="42" y="9" onmousedown="handleZoom(evt,'out')"/>
                <use id="reset" xlink:href="#resetDef" x="30" y="36" onmousedown="handleReset()"/>
                <g id="arrowUp" xlink:href="#dirArrow" transform="translate(30 24)" onmousedown="handlePan(0,-1)">
                  <use xlink:href="#rim" fill="#404040">
                        <set attributeName="fill" to="#808080" begin="arrowUp.mouseover" end="arrowUp.mouseout"/>
                  </use>
                  <path fill="none" stroke="white" stroke-width="1.5" d="M0,-3.0v7 M-2.5,-0.5L0,-3.0L2.5,-0.5"/>
                </g>
                <g id="arrowRight" xlink:href="#dirArrow" transform="rotate(90) translate(36 -43)" onmousedown="handlePan(1,0)">
                  <use xlink:href="#rim" fill="#404040">
                        <set attributeName="fill" to="#808080" begin="arrowRight.mouseover" end="arrowRight.mouseout"/>
                  </use>
                  <path fill="none" stroke="white" stroke-width="1.5" d="M0,-3.0v7 M-2.5,-0.5L0,-3.0L2.5,-0.5"/>
                </g>
                <g id="arrowDown" xlink:href="#dirArrow" transform="rotate(180) translate(-30 -48)" onmousedown="handlePan(0,1)">
                  <use xlink:href="#rim" fill="#404040">
                        <set attributeName="fill" to="#808080" begin="arrowDown.mouseover" end="arrowDown.mouseout"/>
                  </use>
                  <path fill="none" stroke="white" stroke-width="1.5" d="M0,-3.0v7 M-2.5,-0.5L0,-3.0L2.5,-0.5"/>
                </g>
                <g id="arrowLeft" xlink:href="#dirArrow" transform="rotate(270) translate(-36 17)" onmousedown="handlePan(-1,0)">
                  <use xlink:href="#rim" fill="#404040">
                        <set attributeName="fill" to="#808080" begin="arrowLeft.mouseover" end="arrowLeft.mouseout"/>
                  </use>
                  <path fill="none" stroke="white" stroke-width="1.5" d="M0,-3.0v7 M-2.5,-0.5L0,-3.0L2.5,-0.5"/>
                </g>
        </g>
        <svg viewBox="0 0 15 15" width="100%" height="30px" preserveAspectRatio="xMaxYMin meet">
         <g id="arrow_out" transform="scale(0.3 0.3)">
          <a xlink:href="likelihood__field__model__base_8hpp__incl_org.svg" target="_base">
           <rect id="button" ry="5" rx="5" y="6" x="6" height="38" width="38"
                fill="#f2f5e9" fill-opacity="0.5" stroke="#606060" stroke-width="1.0"/>
           <path id="arrow"
             d="M 11.500037,31.436501 C 11.940474,20.09759 22.043105,11.32322 32.158766,21.979434 L 37.068811,17.246167 C 37.068811,17.246167 37.088388,32 37.088388,32 L 22.160133,31.978069 C 22.160133,31.978069 26.997745,27.140456 26.997745,27.140456 C 18.528582,18.264221 13.291696,25.230495 11.500037,31.436501 z"
             style="fill:#404040;"/>
          </a>
         </g>
        </svg>
</svg>
