<?xml version="1.0" encoding="UTF-8" standalone="no"?>
<!DOCTYPE svg PUBLIC "-//W3C//DTD SVG 1.1//EN"
 "http://www.w3.org/Graphics/SVG/1.1/DTD/svg11.dtd">
<!-- Generated by graphviz version 2.43.0 (0)
 -->
<!-- Title: /home/runner/work/beluga/beluga/beluga/include/beluga/sensor/likelihood_field_model.hpp Pages: 1 -->
<!--zoomable 385 -->
<svg id="main" version="1.1" xmlns="http://www.w3.org/2000/svg" xmlns:xlink="http://www.w3.org/1999/xlink" xml:space="preserve" onload="init(evt)">
<style type="text/css"><![CDATA[
.edge:hover path { stroke: red; }
.edge:hover polygon { stroke: red; fill: red; }
]]></style>
<script type="text/javascript"><![CDATA[
var edges = document.getElementsByTagName('g');
if (edges && edges.length) {
  for (var i=0;i<edges.length;i++) {
    if (edges[i].id.substr(0,4)=='edge') {
      edges[i].setAttribute('class','edge');
    }
  }
}
]]></script>
        <defs>
                <circle id="rim" cx="0" cy="0" r="7"/>
                <circle id="rim2" cx="0" cy="0" r="3.5"/>
                <g id="zoomPlus">
                        <use xlink:href="#rim" fill="#404040">
                                <set attributeName="fill" to="#808080" begin="zoomplus.mouseover" end="zoomplus.mouseout"/>
                        </use>
                        <path d="M-4,0h8M0,-4v8" fill="none" stroke="white" stroke-width="1.5" pointer-events="none"/>
                </g>
                <g id="zoomMin">
                        <use xlink:href="#rim" fill="#404040">
                                <set attributeName="fill" to="#808080" begin="zoomminus.mouseover" end="zoomminus.mouseout"/>
                        </use>
                        <path d="M-4,0h8" fill="none" stroke="white" stroke-width="1.5" pointer-events="none"/>
                </g>
                <g id="dirArrow">
                        <path fill="none" stroke="white" stroke-width="1.5" d="M0,-3.0v7 M-2.5,-0.5L0,-3.0L2.5,-0.5"/>
                </g>
               <g id="resetDef">
                       <use xlink:href="#rim2" fill="#404040">
                               <set attributeName="fill" to="#808080" begin="reset.mouseover" end="reset.mouseout"/>
                       </use>
               </g>
        </defs>

<script type="text/javascript">
var viewWidth = 1834;
var viewHeight = 385;
var sectionId = 'dynsection-0';
</script>
<script xlink:href="svgpan.js"/>
<svg id="graph" class="graph">
<g id="viewport">
<title>/home/runner/work/beluga/beluga/beluga/include/beluga/sensor/likelihood_field_model.hpp</title>
<!-- Node1 -->
<g id="node1" class="node">
<title>Node1</title>
<g id="a_node1"><a xlink:title="Implementation of a likelihood field sensor model for range finders.">
<polygon fill="#bfbfbf" stroke="black" points="1082.5,-324.5 1082.5,-376.5 1227.5,-376.5 1227.5,-324.5 1082.5,-324.5"/>
<text text-anchor="start" x="1090.5" y="-364.5" font-family="Helvetica,sans-Serif" font-size="10.00">/home/runner/work/beluga</text>
<text text-anchor="start" x="1090.5" y="-353.5" font-family="Helvetica,sans-Serif" font-size="10.00">/beluga/beluga/include</text>
<text text-anchor="start" x="1090.5" y="-342.5" font-family="Helvetica,sans-Serif" font-size="10.00">/beluga/sensor/likelihood</text>
<text text-anchor="middle" x="1155" y="-331.5" font-family="Helvetica,sans-Serif" font-size="10.00">_field_model.hpp</text>
</a>
</g>
</g>
<!-- Node2 -->
<g id="node2" class="node">
<title>Node2</title>
<g id="a_node2"><a xlink:title=" ">
<polygon fill="none" stroke="#bfbfbf" points="0,-263 0,-282 64,-282 64,-263 0,-263"/>
<text text-anchor="middle" x="32" y="-270" font-family="Helvetica,sans-Serif" font-size="10.00">algorithm</text>
</a>
</g>
</g>
<!-- Node1&#45;&gt;Node2 -->
<g id="edge1" class="edge">
<title>Node1&#45;&gt;Node2</title>
<path fill="none" stroke="midnightblue" d="M1082.29,-347.7C872.96,-342.14 271.54,-323.46 78,-288 73.74,-287.22 69.32,-286.16 64.98,-284.97"/>
<polygon fill="midnightblue" stroke="midnightblue" points="65.7,-281.53 55.12,-282.02 63.69,-288.24 65.7,-281.53"/>
</g>
<!-- Node3 -->
<g id="node3" class="node">
<title>Node3</title>
<g id="a_node3"><a xlink:title=" ">
<polygon fill="none" stroke="#bfbfbf" points="393.5,-0.5 393.5,-19.5 440.5,-19.5 440.5,-0.5 393.5,-0.5"/>
<text text-anchor="middle" x="417" y="-7.5" font-family="Helvetica,sans-Serif" font-size="10.00">cmath</text>
</a>
</g>
</g>
<!-- Node1&#45;&gt;Node3 -->
<g id="edge2" class="edge">
<title>Node1&#45;&gt;Node3</title>
<path fill="none" stroke="midnightblue" d="M1082.43,-348.86C893.9,-346.54 392.27,-335.9 234,-288 164.35,-266.92 92,-279.27 92,-206.5 92,-206.5 92,-206.5 92,-137.5 92,-75.44 300.37,-31.66 383.42,-16.68"/>
<polygon fill="midnightblue" stroke="midnightblue" points="384.13,-20.1 393.37,-14.91 382.91,-13.21 384.13,-20.1"/>
</g>
<!-- Node4 -->
<g id="node4" class="node">
<title>Node4</title>
<g id="a_node4"><a xlink:title=" ">
<polygon fill="none" stroke="#bfbfbf" points="1226,-263 1226,-282 1280,-282 1280,-263 1226,-263"/>
<text text-anchor="middle" x="1253" y="-270" font-family="Helvetica,sans-Serif" font-size="10.00">random</text>
</a>
</g>
</g>
<!-- Node1&#45;&gt;Node4 -->
<g id="edge3" class="edge">
<title>Node1&#45;&gt;Node4</title>
<path fill="none" stroke="midnightblue" d="M1187.36,-324.4C1202.73,-312.49 1220.57,-298.65 1233.77,-288.41"/>
<polygon fill="midnightblue" stroke="midnightblue" points="1235.95,-291.15 1241.7,-282.26 1231.66,-285.62 1235.95,-291.15"/>
</g>
<!-- Node5 -->
<g id="node5" class="node">
<title>Node5</title>
<g id="a_node5"><a xlink:title=" ">
<polygon fill="none" stroke="#bfbfbf" points="691.5,-62 691.5,-81 738.5,-81 738.5,-62 691.5,-62"/>
<text text-anchor="middle" x="715" y="-69" font-family="Helvetica,sans-Serif" font-size="10.00">vector</text>
</a>
</g>
</g>
<!-- Node1&#45;&gt;Node5 -->
<g id="edge4" class="edge">
<title>Node1&#45;&gt;Node5</title>
<path fill="none" stroke="midnightblue" d="M1082.4,-345.94C861.24,-334.33 207.35,-294.04 149,-221 79.15,-133.57 548.69,-86.64 680.99,-75.26"/>
<polygon fill="midnightblue" stroke="midnightblue" points="681.65,-78.71 691.32,-74.38 681.06,-71.74 681.65,-78.71"/>
</g>
<!-- Node6 -->
<g id="node6" class="node">
<title>Node6</title>
<g id="a_node6"><a xlink:href="distance__map_8hpp.html" target="_top" xlink:title="Implementation of algorithm to calculate distance from obstacles.">
<polygon fill="none" stroke="black" points="454,-257.5 454,-287.5 598,-287.5 598,-257.5 454,-257.5"/>
<text text-anchor="start" x="462" y="-275.5" font-family="Helvetica,sans-Serif" font-size="10.00">beluga/algorithm/distance</text>
<text text-anchor="middle" x="526" y="-264.5" font-family="Helvetica,sans-Serif" font-size="10.00">_map.hpp</text>
</a>
</g>
</g>
<!-- Node1&#45;&gt;Node6 -->
<g id="edge5" class="edge">
<title>Node1&#45;&gt;Node6</title>
<path fill="none" stroke="midnightblue" d="M1082.23,-340.71C964.28,-326.46 732.09,-298.4 608.29,-283.44"/>
<polygon fill="midnightblue" stroke="midnightblue" points="608.46,-279.94 598.11,-282.21 607.62,-286.89 608.46,-279.94"/>
</g>
<!-- Node11 -->
<g id="node11" class="node">
<title>Node11</title>
<g id="a_node11"><a xlink:href="occupancy__grid_8hpp.html" target="_top" xlink:title="Concepts and abstract implementations of occupancy grids.">
<polygon fill="none" stroke="black" points="1054,-257.5 1054,-287.5 1170,-287.5 1170,-257.5 1054,-257.5"/>
<text text-anchor="start" x="1062" y="-275.5" font-family="Helvetica,sans-Serif" font-size="10.00">beluga/sensor/data</text>
<text text-anchor="middle" x="1112" y="-264.5" font-family="Helvetica,sans-Serif" font-size="10.00">/occupancy_grid.hpp</text>
</a>
</g>
</g>
<!-- Node1&#45;&gt;Node11 -->
<g id="edge11" class="edge">
<title>Node1&#45;&gt;Node11</title>
<path fill="none" stroke="midnightblue" d="M1140.68,-324.19C1135.66,-315.31 1130.04,-305.39 1125.12,-296.69"/>
<polygon fill="midnightblue" stroke="midnightblue" points="1128.09,-294.83 1120.12,-287.85 1121.99,-298.27 1128.09,-294.83"/>
</g>
<!-- Node19 -->
<g id="node19" class="node">
<title>Node19</title>
<g id="a_node19"><a xlink:title=" ">
<polygon fill="none" stroke="#bfbfbf" points="1313,-0.5 1313,-19.5 1471,-19.5 1471,-0.5 1313,-0.5"/>
<text text-anchor="middle" x="1392" y="-7.5" font-family="Helvetica,sans-Serif" font-size="10.00">range/v3/view/transform.hpp</text>
</a>
</g>
</g>
<!-- Node1&#45;&gt;Node19 -->
<g id="edge40" class="edge">
<title>Node1&#45;&gt;Node19</title>
<path fill="none" stroke="midnightblue" d="M1165.29,-324.19C1175.29,-302.88 1192.57,-273.33 1217,-257 1284.46,-211.89 1336.05,-275.69 1396,-221 1450.57,-171.21 1433.92,-127.66 1416,-56 1413.56,-46.25 1408.56,-36.29 1403.76,-28.23"/>
<polygon fill="midnightblue" stroke="midnightblue" points="1406.69,-26.32 1398.37,-19.77 1400.79,-30.08 1406.69,-26.32"/>
</g>
<!-- Node22 -->
<g id="node22" class="node">
<title>Node22</title>
<g id="a_node22"><a xlink:href="value__grid_8hpp.html" target="_top" xlink:title="Implementation of generic value grid.">
<polygon fill="none" stroke="black" points="926,-257.5 926,-287.5 1036,-287.5 1036,-257.5 926,-257.5"/>
<text text-anchor="start" x="934" y="-275.5" font-family="Helvetica,sans-Serif" font-size="10.00">beluga/sensor/data</text>
<text text-anchor="middle" x="981" y="-264.5" font-family="Helvetica,sans-Serif" font-size="10.00">/value_grid.hpp</text>
</a>
</g>
</g>
<!-- Node1&#45;&gt;Node22 -->
<g id="edge33" class="edge">
<title>Node1&#45;&gt;Node22</title>
<path fill="none" stroke="midnightblue" d="M1097.54,-324.4C1073.03,-313.7 1044.97,-301.44 1022.52,-291.64"/>
<polygon fill="midnightblue" stroke="midnightblue" points="1023.84,-288.39 1013.27,-287.6 1021.04,-294.81 1023.84,-288.39"/>
</g>
<!-- Node24 -->
<g id="node24" class="node">
<title>Node24</title>
<g id="a_node24"><a xlink:title=" ">
<polygon fill="none" stroke="#bfbfbf" points="1298.5,-263 1298.5,-282 1465.5,-282 1465.5,-263 1298.5,-263"/>
<text text-anchor="middle" x="1382" y="-270" font-family="Helvetica,sans-Serif" font-size="10.00">range/v3/range/conversion.hpp</text>
</a>
</g>
</g>
<!-- Node1&#45;&gt;Node24 -->
<g id="edge38" class="edge">
<title>Node1&#45;&gt;Node24</title>
<path fill="none" stroke="midnightblue" d="M1227.76,-325.14C1267.55,-311.82 1315.03,-295.92 1346.71,-285.32"/>
<polygon fill="midnightblue" stroke="midnightblue" points="1348.03,-288.56 1356.4,-282.07 1345.81,-281.93 1348.03,-288.56"/>
</g>
<!-- Node25 -->
<g id="node25" class="node">
<title>Node25</title>
<g id="a_node25"><a xlink:title=" ">
<polygon fill="none" stroke="#bfbfbf" points="1484,-263 1484,-282 1606,-282 1606,-263 1484,-263"/>
<text text-anchor="middle" x="1545" y="-270" font-family="Helvetica,sans-Serif" font-size="10.00">range/v3/view/all.hpp</text>
</a>
</g>
</g>
<!-- Node1&#45;&gt;Node25 -->
<g id="edge39" class="edge">
<title>Node1&#45;&gt;Node25</title>
<path fill="none" stroke="midnightblue" d="M1227.82,-335.81C1292.72,-323.54 1390.26,-304.92 1475,-288 1481.23,-286.76 1487.77,-285.43 1494.24,-284.1"/>
<polygon fill="midnightblue" stroke="midnightblue" points="1495.21,-287.48 1504.3,-282.03 1493.8,-280.62 1495.21,-287.48"/>
</g>
<!-- Node26 -->
<g id="node26" class="node">
<title>Node26</title>
<g id="a_node26"><a xlink:title=" ">
<polygon fill="none" stroke="#bfbfbf" points="1624,-263 1624,-282 1716,-282 1716,-263 1624,-263"/>
<text text-anchor="middle" x="1670" y="-270" font-family="Helvetica,sans-Serif" font-size="10.00">sophus/se2.hpp</text>
</a>
</g>
</g>
<!-- Node1&#45;&gt;Node26 -->
<g id="edge41" class="edge">
<title>Node1&#45;&gt;Node26</title>
<path fill="none" stroke="midnightblue" d="M1227.56,-342.63C1318.6,-333.36 1479.25,-314.86 1615,-288 1620.08,-287 1625.38,-285.79 1630.6,-284.52"/>
<polygon fill="midnightblue" stroke="midnightblue" points="1631.64,-287.87 1640.47,-282.01 1629.92,-281.08 1631.64,-287.87"/>
</g>
<!-- Node27 -->
<g id="node27" class="node">
<title>Node27</title>
<g id="a_node27"><a xlink:title=" ">
<polygon fill="none" stroke="#bfbfbf" points="1734,-263 1734,-282 1826,-282 1826,-263 1734,-263"/>
<text text-anchor="middle" x="1780" y="-270" font-family="Helvetica,sans-Serif" font-size="10.00">sophus/so2.hpp</text>
</a>
</g>
</g>
<!-- Node1&#45;&gt;Node27 -->
<g id="edge42" class="edge">
<title>Node1&#45;&gt;Node27</title>
<path fill="none" stroke="midnightblue" d="M1227.94,-345.15C1336.84,-337.87 1548.09,-320.67 1725,-288 1730.15,-287.05 1735.52,-285.87 1740.81,-284.6"/>
<polygon fill="midnightblue" stroke="midnightblue" points="1741.95,-287.92 1750.78,-282.07 1740.23,-281.13 1741.95,-287.92"/>
</g>
<!-- Node6&#45;&gt;Node5 -->
<g id="edge7" class="edge">
<title>Node6&#45;&gt;Node5</title>
<path fill="none" stroke="midnightblue" d="M538.67,-257.22C553.29,-240.83 578.11,-213.22 600,-190 634.7,-153.19 676.47,-111.03 698.89,-88.57"/>
<polygon fill="midnightblue" stroke="midnightblue" points="701.63,-90.78 706.23,-81.23 696.68,-85.83 701.63,-90.78"/>
</g>
<!-- Node7 -->
<g id="node7" class="node">
<title>Node7</title>
<g id="a_node7"><a xlink:title=" ">
<polygon fill="none" stroke="#bfbfbf" points="158.5,-196 158.5,-215 205.5,-215 205.5,-196 158.5,-196"/>
<text text-anchor="middle" x="182" y="-203" font-family="Helvetica,sans-Serif" font-size="10.00">queue</text>
</a>
</g>
</g>
<!-- Node6&#45;&gt;Node7 -->
<g id="edge6" class="edge">
<title>Node6&#45;&gt;Node7</title>
<path fill="none" stroke="midnightblue" d="M453.84,-265.29C389.81,-258.5 294.25,-245.2 214,-221 212.07,-220.42 210.11,-219.75 208.16,-219.02"/>
<polygon fill="midnightblue" stroke="midnightblue" points="209.19,-215.66 198.62,-215.04 206.5,-222.12 209.19,-215.66"/>
</g>
<!-- Node8 -->
<g id="node8" class="node">
<title>Node8</title>
<g id="a_node8"><a xlink:title=" ">
<polygon fill="none" stroke="#bfbfbf" points="223.5,-196 223.5,-215 370.5,-215 370.5,-196 223.5,-196"/>
<text text-anchor="middle" x="297" y="-203" font-family="Helvetica,sans-Serif" font-size="10.00">range/v3/range/access.hpp</text>
</a>
</g>
</g>
<!-- Node6&#45;&gt;Node8 -->
<g id="edge8" class="edge">
<title>Node6&#45;&gt;Node8</title>
<path fill="none" stroke="midnightblue" d="M476.59,-257.48C434.83,-245.62 375.77,-228.86 336.94,-217.84"/>
<polygon fill="midnightblue" stroke="midnightblue" points="337.62,-214.39 327.05,-215.03 335.71,-221.13 337.62,-214.39"/>
</g>
<!-- Node9 -->
<g id="node9" class="node">
<title>Node9</title>
<g id="a_node9"><a xlink:title=" ">
<polygon fill="none" stroke="#bfbfbf" points="389,-196 389,-215 553,-215 553,-196 389,-196"/>
<text text-anchor="middle" x="471" y="-203" font-family="Helvetica,sans-Serif" font-size="10.00">range/v3/range/primitives.hpp</text>
</a>
</g>
</g>
<!-- Node6&#45;&gt;Node9 -->
<g id="edge9" class="edge">
<title>Node6&#45;&gt;Node9</title>
<path fill="none" stroke="midnightblue" d="M514.07,-257.4C505.49,-247.26 493.9,-233.57 484.91,-222.94"/>
<polygon fill="midnightblue" stroke="midnightblue" points="487.49,-220.57 478.36,-215.19 482.14,-225.09 487.49,-220.57"/>
</g>
<!-- Node10 -->
<g id="node10" class="node">
<title>Node10</title>
<g id="a_node10"><a xlink:title=" ">
<polygon fill="none" stroke="#bfbfbf" points="711.5,-196 711.5,-215 874.5,-215 874.5,-196 711.5,-196"/>
<text text-anchor="middle" x="793" y="-203" font-family="Helvetica,sans-Serif" font-size="10.00">range/v3/view/enumerate.hpp</text>
</a>
</g>
</g>
<!-- Node6&#45;&gt;Node10 -->
<g id="edge10" class="edge">
<title>Node6&#45;&gt;Node10</title>
<path fill="none" stroke="midnightblue" d="M583.61,-257.48C632.92,-245.47 702.92,-228.43 748.15,-217.42"/>
<polygon fill="midnightblue" stroke="midnightblue" points="749.08,-220.79 757.97,-215.03 747.42,-213.99 749.08,-220.79"/>
</g>
<!-- Node11&#45;&gt;Node5 -->
<g id="edge14" class="edge">
<title>Node11&#45;&gt;Node5</title>
<path fill="none" stroke="midnightblue" d="M1053.95,-258.82C1006.99,-248.06 945.03,-232.57 922,-221 902.22,-211.06 901.67,-201.9 883,-190 852.83,-170.77 840.85,-173.72 811,-154 780.79,-134.04 749.48,-105.79 731.15,-88.34"/>
<polygon fill="midnightblue" stroke="midnightblue" points="733.31,-85.56 723.69,-81.14 728.46,-90.6 733.31,-85.56"/>
</g>
<!-- Node11&#45;&gt;Node10 -->
<g id="edge29" class="edge">
<title>Node11&#45;&gt;Node10</title>
<path fill="none" stroke="midnightblue" d="M1053.91,-258.87C1050.9,-258.23 1047.91,-257.61 1045,-257 976.61,-242.75 897.62,-227.04 846.57,-216.99"/>
<polygon fill="midnightblue" stroke="midnightblue" points="847.23,-213.55 836.75,-215.05 845.88,-220.42 847.23,-213.55"/>
</g>
<!-- Node12 -->
<g id="node12" class="node">
<title>Node12</title>
<g id="a_node12"><a xlink:title=" ">
<polygon fill="none" stroke="#bfbfbf" points="1067,-129 1067,-148 1117,-148 1117,-129 1067,-129"/>
<text text-anchor="middle" x="1092" y="-136" font-family="Helvetica,sans-Serif" font-size="10.00">cstdint</text>
</a>
</g>
</g>
<!-- Node11&#45;&gt;Node12 -->
<g id="edge12" class="edge">
<title>Node11&#45;&gt;Node12</title>
<path fill="none" stroke="midnightblue" d="M1109.86,-257.37C1106.23,-233.4 1098.86,-184.75 1094.81,-158.06"/>
<polygon fill="midnightblue" stroke="midnightblue" points="1098.26,-157.46 1093.3,-148.1 1091.34,-158.51 1098.26,-157.46"/>
</g>
<!-- Node13 -->
<g id="node13" class="node">
<title>Node13</title>
<g id="a_node13"><a xlink:title=" ">
<polygon fill="none" stroke="#bfbfbf" points="1173.5,-196 1173.5,-215 1214.5,-215 1214.5,-196 1173.5,-196"/>
<text text-anchor="middle" x="1194" y="-203" font-family="Helvetica,sans-Serif" font-size="10.00">tuple</text>
</a>
</g>
</g>
<!-- Node11&#45;&gt;Node13 -->
<g id="edge13" class="edge">
<title>Node11&#45;&gt;Node13</title>
<path fill="none" stroke="midnightblue" d="M1129.79,-257.4C1143.08,-246.86 1161.23,-232.48 1174.84,-221.69"/>
<polygon fill="midnightblue" stroke="midnightblue" points="1177.37,-224.15 1183.03,-215.19 1173.02,-218.66 1177.37,-224.15"/>
</g>
<!-- Node14 -->
<g id="node14" class="node">
<title>Node14</title>
<g id="a_node14"><a xlink:href="linear__grid_8hpp.html" target="_top" xlink:title="Concepts and abstract implementations of linear (ie. contiguous storage) grids.">
<polygon fill="none" stroke="black" points="931,-190.5 931,-220.5 1041,-220.5 1041,-190.5 931,-190.5"/>
<text text-anchor="start" x="939" y="-208.5" font-family="Helvetica,sans-Serif" font-size="10.00">beluga/sensor/data</text>
<text text-anchor="middle" x="986" y="-197.5" font-family="Helvetica,sans-Serif" font-size="10.00">/linear_grid.hpp</text>
</a>
</g>
</g>
<!-- Node11&#45;&gt;Node14 -->
<g id="edge15" class="edge">
<title>Node11&#45;&gt;Node14</title>
<path fill="none" stroke="midnightblue" d="M1084.66,-257.4C1066.41,-247.98 1042.22,-235.5 1022.36,-225.26"/>
<polygon fill="midnightblue" stroke="midnightblue" points="1023.78,-222.05 1013.29,-220.58 1020.57,-228.27 1023.78,-222.05"/>
</g>
<!-- Node11&#45;&gt;Node19 -->
<g id="edge31" class="edge">
<title>Node11&#45;&gt;Node19</title>
<path fill="none" stroke="midnightblue" d="M1170.15,-259.74C1174.83,-258.8 1179.5,-257.88 1184,-257 1267.91,-240.56 1315.57,-284.35 1373,-221 1421.99,-166.96 1406.23,-69.81 1396.83,-29.41"/>
<polygon fill="midnightblue" stroke="midnightblue" points="1400.21,-28.47 1394.41,-19.6 1393.41,-30.15 1400.21,-28.47"/>
</g>
<!-- Node20 -->
<g id="node20" class="node">
<title>Node20</title>
<g id="a_node20"><a xlink:title=" ">
<polygon fill="none" stroke="#bfbfbf" points="963.5,-0.5 963.5,-19.5 1032.5,-19.5 1032.5,-0.5 963.5,-0.5"/>
<text text-anchor="middle" x="998" y="-7.5" font-family="Helvetica,sans-Serif" font-size="10.00">Eigen/Core</text>
</a>
</g>
</g>
<!-- Node11&#45;&gt;Node20 -->
<g id="edge32" class="edge">
<title>Node11&#45;&gt;Node20</title>
<path fill="none" stroke="midnightblue" d="M1117.88,-257.21C1128.21,-229.8 1146.65,-168.51 1126,-123 1105.1,-76.94 1054.87,-42.38 1023.91,-24.55"/>
<polygon fill="midnightblue" stroke="midnightblue" points="1025.41,-21.38 1014.97,-19.56 1022,-27.49 1025.41,-21.38"/>
</g>
<!-- Node21 -->
<g id="node21" class="node">
<title>Node21</title>
<g id="a_node21"><a xlink:title=" ">
<polygon fill="none" stroke="#bfbfbf" points="1232.5,-196 1232.5,-215 1363.5,-215 1363.5,-196 1232.5,-196"/>
<text text-anchor="middle" x="1298" y="-203" font-family="Helvetica,sans-Serif" font-size="10.00">range/v3/view/filter.hpp</text>
</a>
</g>
</g>
<!-- Node11&#45;&gt;Node21 -->
<g id="edge30" class="edge">
<title>Node11&#45;&gt;Node21</title>
<path fill="none" stroke="midnightblue" d="M1152.36,-257.4C1185.72,-245.74 1232.55,-229.37 1264.02,-218.38"/>
<polygon fill="midnightblue" stroke="midnightblue" points="1265.37,-221.61 1273.66,-215.01 1263.06,-215 1265.37,-221.61"/>
</g>
<!-- Node14&#45;&gt;Node5 -->
<g id="edge18" class="edge">
<title>Node14&#45;&gt;Node5</title>
<path fill="none" stroke="midnightblue" d="M940.73,-190.44C914.64,-181.54 881.64,-168.92 854,-154 833.27,-142.81 831.03,-135.4 811,-123 788.54,-109.09 761.86,-95.26 742.34,-85.6"/>
<polygon fill="midnightblue" stroke="midnightblue" points="743.63,-82.33 733.11,-81.08 740.55,-88.62 743.63,-82.33"/>
</g>
<!-- Node14&#45;&gt;Node12 -->
<g id="edge16" class="edge">
<title>Node14&#45;&gt;Node12</title>
<path fill="none" stroke="midnightblue" d="M1009,-190.4C1026.94,-179.39 1051.72,-164.2 1069.52,-153.28"/>
<polygon fill="midnightblue" stroke="midnightblue" points="1071.43,-156.22 1078.13,-148.01 1067.77,-150.25 1071.43,-156.22"/>
</g>
<!-- Node15 -->
<g id="node15" class="node">
<title>Node15</title>
<g id="a_node15"><a xlink:title=" ">
<polygon fill="none" stroke="#bfbfbf" points="955,-62 955,-81 1011,-81 1011,-62 955,-62"/>
<text text-anchor="middle" x="983" y="-69" font-family="Helvetica,sans-Serif" font-size="10.00">optional</text>
</a>
</g>
</g>
<!-- Node14&#45;&gt;Node15 -->
<g id="edge17" class="edge">
<title>Node14&#45;&gt;Node15</title>
<path fill="none" stroke="midnightblue" d="M985.68,-190.37C985.14,-166.5 984.04,-118.18 983.43,-91.41"/>
<polygon fill="midnightblue" stroke="midnightblue" points="986.92,-91.02 983.2,-81.1 979.92,-91.17 986.92,-91.02"/>
</g>
<!-- Node16 -->
<g id="node16" class="node">
<title>Node16</title>
<g id="a_node16"><a xlink:href="dense__grid_8hpp.html" target="_top" xlink:title="Concepts and abstract implementations of dense grids.">
<polygon fill="none" stroke="black" points="863,-123.5 863,-153.5 973,-153.5 973,-123.5 863,-123.5"/>
<text text-anchor="start" x="871" y="-141.5" font-family="Helvetica,sans-Serif" font-size="10.00">beluga/sensor/data</text>
<text text-anchor="middle" x="918" y="-130.5" font-family="Helvetica,sans-Serif" font-size="10.00">/dense_grid.hpp</text>
</a>
</g>
</g>
<!-- Node14&#45;&gt;Node16 -->
<g id="edge19" class="edge">
<title>Node14&#45;&gt;Node16</title>
<path fill="none" stroke="midnightblue" d="M971.25,-190.4C962.16,-181.71 950.33,-170.4 940.13,-160.66"/>
<polygon fill="midnightblue" stroke="midnightblue" points="942.37,-157.96 932.73,-153.58 937.54,-163.02 942.37,-157.96"/>
</g>
<!-- Node14&#45;&gt;Node20 -->
<g id="edge28" class="edge">
<title>Node14&#45;&gt;Node20</title>
<path fill="none" stroke="midnightblue" d="M993.66,-190.16C1006.86,-163.66 1031.39,-105.22 1020,-56 1017.77,-46.36 1013.18,-36.41 1008.76,-28.31"/>
<polygon fill="midnightblue" stroke="midnightblue" points="1011.7,-26.4 1003.64,-19.52 1005.65,-29.92 1011.7,-26.4"/>
</g>
<!-- Node16&#45;&gt;Node5 -->
<g id="edge21" class="edge">
<title>Node16&#45;&gt;Node5</title>
<path fill="none" stroke="midnightblue" d="M873.95,-123.4C836.17,-111.3 782.55,-94.13 748.27,-83.15"/>
<polygon fill="midnightblue" stroke="midnightblue" points="749.31,-79.81 738.72,-80.09 747.17,-86.48 749.31,-79.81"/>
</g>
<!-- Node16&#45;&gt;Node15 -->
<g id="edge20" class="edge">
<title>Node16&#45;&gt;Node15</title>
<path fill="none" stroke="midnightblue" d="M932.1,-123.4C942.44,-113.06 956.48,-99.02 967.19,-88.31"/>
<polygon fill="midnightblue" stroke="midnightblue" points="969.71,-90.74 974.31,-81.19 964.76,-85.79 969.71,-90.74"/>
</g>
<!-- Node17 -->
<g id="node17" class="node">
<title>Node17</title>
<g id="a_node17"><a xlink:href="regular__grid_8hpp.html" target="_top" xlink:title="Concepts and abstract implementations of regular grids.">
<polygon fill="none" stroke="black" points="789,-56.5 789,-86.5 899,-86.5 899,-56.5 789,-56.5"/>
<text text-anchor="start" x="797" y="-74.5" font-family="Helvetica,sans-Serif" font-size="10.00">beluga/sensor/data</text>
<text text-anchor="middle" x="844" y="-63.5" font-family="Helvetica,sans-Serif" font-size="10.00">/regular_grid.hpp</text>
</a>
</g>
</g>
<!-- Node16&#45;&gt;Node17 -->
<g id="edge22" class="edge">
<title>Node16&#45;&gt;Node17</title>
<path fill="none" stroke="midnightblue" d="M901.94,-123.4C891.96,-114.62 878.93,-103.18 867.76,-93.37"/>
<polygon fill="midnightblue" stroke="midnightblue" points="869.85,-90.55 860.03,-86.58 865.23,-95.81 869.85,-90.55"/>
</g>
<!-- Node16&#45;&gt;Node20 -->
<g id="edge27" class="edge">
<title>Node16&#45;&gt;Node20</title>
<path fill="none" stroke="midnightblue" d="M920.54,-123.22C924.09,-106.1 931.76,-77.07 946,-56 953.94,-44.25 965.7,-33.72 976.03,-25.8"/>
<polygon fill="midnightblue" stroke="midnightblue" points="978.24,-28.52 984.26,-19.8 974.12,-22.87 978.24,-28.52"/>
</g>
<!-- Node17&#45;&gt;Node3 -->
<g id="edge23" class="edge">
<title>Node17&#45;&gt;Node3</title>
<path fill="none" stroke="midnightblue" d="M788.87,-62.13C775.2,-60.09 760.57,-57.94 747,-56 638.73,-40.53 510.31,-23.35 450.61,-15.44"/>
<polygon fill="midnightblue" stroke="midnightblue" points="451,-11.96 440.62,-14.12 450.08,-18.9 451,-11.96"/>
</g>
<!-- Node18 -->
<g id="node18" class="node">
<title>Node18</title>
<g id="a_node18"><a xlink:href="ciabatta_8hpp_source.html" target="_top" xlink:title=" ">
<polygon fill="none" stroke="black" points="784,-0.5 784,-19.5 904,-19.5 904,-0.5 784,-0.5"/>
<text text-anchor="middle" x="844" y="-7.5" font-family="Helvetica,sans-Serif" font-size="10.00">ciabatta/ciabatta.hpp</text>
</a>
</g>
</g>
<!-- Node17&#45;&gt;Node18 -->
<g id="edge24" class="edge">
<title>Node17&#45;&gt;Node18</title>
<path fill="none" stroke="midnightblue" d="M844,-56.4C844,-48.47 844,-38.46 844,-29.86"/>
<polygon fill="midnightblue" stroke="midnightblue" points="847.5,-29.66 844,-19.66 840.5,-29.66 847.5,-29.66"/>
</g>
<!-- Node17&#45;&gt;Node19 -->
<g id="edge25" class="edge">
<title>Node17&#45;&gt;Node19</title>
<path fill="none" stroke="midnightblue" d="M899.26,-62.23C914.4,-60.07 930.82,-57.84 946,-56 1069.49,-41 1212.64,-27.19 1302.76,-18.93"/>
<polygon fill="midnightblue" stroke="midnightblue" points="1303.3,-22.39 1312.94,-18 1302.66,-15.42 1303.3,-22.39"/>
</g>
<!-- Node17&#45;&gt;Node20 -->
<g id="edge26" class="edge">
<title>Node17&#45;&gt;Node20</title>
<path fill="none" stroke="midnightblue" d="M880.5,-56.4C906.57,-46.33 941.29,-32.91 966.22,-23.28"/>
<polygon fill="midnightblue" stroke="midnightblue" points="967.53,-26.53 975.59,-19.66 965,-20 967.53,-26.53"/>
</g>
<!-- Node22&#45;&gt;Node5 -->
<g id="edge36" class="edge">
<title>Node22&#45;&gt;Node5</title>
<path fill="none" stroke="midnightblue" d="M925.98,-269.61C852.96,-265.81 729.97,-254.48 702,-221 670.83,-183.69 692.41,-121.17 706.1,-90.54"/>
<polygon fill="midnightblue" stroke="midnightblue" points="709.44,-91.66 710.52,-81.12 703.1,-88.69 709.44,-91.66"/>
</g>
<!-- Node22&#45;&gt;Node12 -->
<g id="edge34" class="edge">
<title>Node22&#45;&gt;Node12</title>
<path fill="none" stroke="midnightblue" d="M1005.91,-257.29C1020.13,-248.26 1037.56,-235.55 1050,-221 1066.36,-201.86 1078.54,-175.26 1085.46,-157.73"/>
<polygon fill="midnightblue" stroke="midnightblue" points="1088.82,-158.72 1089.07,-148.13 1082.27,-156.25 1088.82,-158.72"/>
</g>
<!-- Node22&#45;&gt;Node14 -->
<g id="edge37" class="edge">
<title>Node22&#45;&gt;Node14</title>
<path fill="none" stroke="midnightblue" d="M982.08,-257.4C982.69,-249.56 983.45,-239.6 984.15,-230.57"/>
<polygon fill="midnightblue" stroke="midnightblue" points="987.64,-230.82 984.92,-220.58 980.66,-230.28 987.64,-230.82"/>
</g>
<!-- Node23 -->
<g id="node23" class="node">
<title>Node23</title>
<g id="a_node23"><a xlink:title=" ">
<polygon fill="none" stroke="#bfbfbf" points="609.5,-196 609.5,-215 654.5,-215 654.5,-196 609.5,-196"/>
<text text-anchor="middle" x="632" y="-203" font-family="Helvetica,sans-Serif" font-size="10.00">utility</text>
</a>
</g>
</g>
<!-- Node22&#45;&gt;Node23 -->
<g id="edge35" class="edge">
<title>Node22&#45;&gt;Node23</title>
<path fill="none" stroke="midnightblue" d="M925.86,-266.17C862.91,-259.26 757.26,-245.14 669,-221 666.41,-220.29 663.75,-219.46 661.1,-218.56"/>
<polygon fill="midnightblue" stroke="midnightblue" points="662.3,-215.28 651.71,-215.12 659.89,-221.85 662.3,-215.28"/>
</g>
</g>
</svg>
        <g id="navigator" transform="translate(0 0)" fill="#404254">
                <rect fill="#f2f5e9" fill-opacity="0.5" stroke="#606060" stroke-width=".5" x="0" y="0" width="60" height="60"/>
                <use id="zoomplus" xlink:href="#zoomPlus" x="17" y="9" onmousedown="handleZoom(evt,'in')"/>
                <use id="zoomminus" xlink:href="#zoomMin" x="42" y="9" onmousedown="handleZoom(evt,'out')"/>
                <use id="reset" xlink:href="#resetDef" x="30" y="36" onmousedown="handleReset()"/>
                <g id="arrowUp" xlink:href="#dirArrow" transform="translate(30 24)" onmousedown="handlePan(0,-1)">
                  <use xlink:href="#rim" fill="#404040">
                        <set attributeName="fill" to="#808080" begin="arrowUp.mouseover" end="arrowUp.mouseout"/>
                  </use>
                  <path fill="none" stroke="white" stroke-width="1.5" d="M0,-3.0v7 M-2.5,-0.5L0,-3.0L2.5,-0.5"/>
                </g>
                <g id="arrowRight" xlink:href="#dirArrow" transform="rotate(90) translate(36 -43)" onmousedown="handlePan(1,0)">
                  <use xlink:href="#rim" fill="#404040">
                        <set attributeName="fill" to="#808080" begin="arrowRight.mouseover" end="arrowRight.mouseout"/>
                  </use>
                  <path fill="none" stroke="white" stroke-width="1.5" d="M0,-3.0v7 M-2.5,-0.5L0,-3.0L2.5,-0.5"/>
                </g>
                <g id="arrowDown" xlink:href="#dirArrow" transform="rotate(180) translate(-30 -48)" onmousedown="handlePan(0,1)">
                  <use xlink:href="#rim" fill="#404040">
                        <set attributeName="fill" to="#808080" begin="arrowDown.mouseover" end="arrowDown.mouseout"/>
                  </use>
                  <path fill="none" stroke="white" stroke-width="1.5" d="M0,-3.0v7 M-2.5,-0.5L0,-3.0L2.5,-0.5"/>
                </g>
                <g id="arrowLeft" xlink:href="#dirArrow" transform="rotate(270) translate(-36 17)" onmousedown="handlePan(-1,0)">
                  <use xlink:href="#rim" fill="#404040">
                        <set attributeName="fill" to="#808080" begin="arrowLeft.mouseover" end="arrowLeft.mouseout"/>
                  </use>
                  <path fill="none" stroke="white" stroke-width="1.5" d="M0,-3.0v7 M-2.5,-0.5L0,-3.0L2.5,-0.5"/>
                </g>
        </g>
        <svg viewBox="0 0 15 15" width="100%" height="30px" preserveAspectRatio="xMaxYMin meet">
         <g id="arrow_out" transform="scale(0.3 0.3)">
          <a xlink:href="likelihood__field__model_8hpp__incl_org.svg" target="_base">
           <rect id="button" ry="5" rx="5" y="6" x="6" height="38" width="38"
                fill="#f2f5e9" fill-opacity="0.5" stroke="#606060" stroke-width="1.0"/>
           <path id="arrow"
             d="M 11.500037,31.436501 C 11.940474,20.09759 22.043105,11.32322 32.158766,21.979434 L 37.068811,17.246167 C 37.068811,17.246167 37.088388,32 37.088388,32 L 22.160133,31.978069 C 22.160133,31.978069 26.997745,27.140456 26.997745,27.140456 C 18.528582,18.264221 13.291696,25.230495 11.500037,31.436501 z"
             style="fill:#404040;"/>
          </a>
         </g>
        </svg>
</svg>
