<?xml version="1.0" encoding="UTF-8" standalone="no"?>
<!DOCTYPE svg PUBLIC "-//W3C//DTD SVG 1.1//EN"
 "http://www.w3.org/Graphics/SVG/1.1/DTD/svg11.dtd">
<!-- Generated by graphviz version 2.43.0 (0)
 -->
<!-- Title: /home/runner/work/beluga/beluga/beluga/include/beluga/sensor/likelihood_field_model_base.hpp Pages: 1 -->
<!--zoomable 452 -->
<svg id="main" version="1.1" xmlns="http://www.w3.org/2000/svg" xmlns:xlink="http://www.w3.org/1999/xlink" xml:space="preserve" onload="init(evt)">
<style type="text/css"><![CDATA[
.edge:hover path { stroke: red; }
.edge:hover polygon { stroke: red; fill: red; }
]]></style>
<script type="text/javascript"><![CDATA[
var edges = document.getElementsByTagName('g');
if (edges && edges.length) {
  for (var i=0;i<edges.length;i++) {
    if (edges[i].id.substr(0,4)=='edge') {
      edges[i].setAttribute('class','edge');
    }
  }
}
]]></script>
        <defs>
                <circle id="rim" cx="0" cy="0" r="7"/>
                <circle id="rim2" cx="0" cy="0" r="3.5"/>
                <g id="zoomPlus">
                        <use xlink:href="#rim" fill="#404040">
                                <set attributeName="fill" to="#808080" begin="zoomplus.mouseover" end="zoomplus.mouseout"/>
                        </use>
                        <path d="M-4,0h8M0,-4v8" fill="none" stroke="white" stroke-width="1.5" pointer-events="none"/>
                </g>
                <g id="zoomMin">
                        <use xlink:href="#rim" fill="#404040">
                                <set attributeName="fill" to="#808080" begin="zoomminus.mouseover" end="zoomminus.mouseout"/>
                        </use>
                        <path d="M-4,0h8" fill="none" stroke="white" stroke-width="1.5" pointer-events="none"/>
                </g>
                <g id="dirArrow">
                        <path fill="none" stroke="white" stroke-width="1.5" d="M0,-3.0v7 M-2.5,-0.5L0,-3.0L2.5,-0.5"/>
                </g>
               <g id="resetDef">
                       <use xlink:href="#rim2" fill="#404040">
                               <set attributeName="fill" to="#808080" begin="reset.mouseover" end="reset.mouseout"/>
                       </use>
               </g>
        </defs>

<script type="text/javascript">
var viewWidth = 2077;
var viewHeight = 452;
var sectionId = 'dynsection-0';
</script>
<script xlink:href="svgpan.js"/>
<svg id="graph" class="graph">
<g id="viewport">
<title>/home/runner/work/beluga/beluga/beluga/include/beluga/sensor/likelihood_field_model_base.hpp</title>
<!-- Node1 -->
<g id="node1" class="node">
<title>Node1</title>
<g id="a_node1"><a xlink:title="Implementation of a likelihood field common sensor model for range finders.">
<polygon fill="#bfbfbf" stroke="black" points="1351.5,-391.5 1351.5,-443.5 1496.5,-443.5 1496.5,-391.5 1351.5,-391.5"/>
<text text-anchor="start" x="1359.5" y="-431.5" font-family="Helvetica,sans-Serif" font-size="10.00">/home/runner/work/beluga</text>
<text text-anchor="start" x="1359.5" y="-420.5" font-family="Helvetica,sans-Serif" font-size="10.00">/beluga/beluga/include</text>
<text text-anchor="start" x="1359.5" y="-409.5" font-family="Helvetica,sans-Serif" font-size="10.00">/beluga/sensor/likelihood</text>
<text text-anchor="middle" x="1424" y="-398.5" font-family="Helvetica,sans-Serif" font-size="10.00">_field_model_base.hpp</text>
</a>
</g>
</g>
<!-- Node2 -->
<g id="node2" class="node">
<title>Node2</title>
<g id="a_node2"><a xlink:title=" ">
<polygon fill="none" stroke="#bfbfbf" points="0,-263 0,-282 64,-282 64,-263 0,-263"/>
<text text-anchor="middle" x="32" y="-270" font-family="Helvetica,sans-Serif" font-size="10.00">algorithm</text>
</a>
</g>
</g>
<!-- Node1&#45;&gt;Node2 -->
<g id="edge1" class="edge">
<title>Node1&#45;&gt;Node2</title>
<path fill="none" stroke="midnightblue" d="M1351.17,-415.24C1098.29,-410.56 267.53,-392.45 154,-355 111.96,-341.13 70.77,-308.53 48.66,-289.02"/>
<polygon fill="midnightblue" stroke="midnightblue" points="50.92,-286.35 41.15,-282.25 46.23,-291.55 50.92,-286.35"/>
</g>
<!-- Node3 -->
<g id="node3" class="node">
<title>Node3</title>
<g id="a_node3"><a xlink:href="overlay_8hpp.html" target="_top" xlink:title="Implementation of the overlay range adaptor object.">
<polygon fill="none" stroke="black" points="163.5,-330 163.5,-349 310.5,-349 310.5,-330 163.5,-330"/>
<text text-anchor="middle" x="237" y="-337" font-family="Helvetica,sans-Serif" font-size="10.00">beluga/actions/overlay.hpp</text>
</a>
</g>
</g>
<!-- Node1&#45;&gt;Node3 -->
<g id="edge2" class="edge">
<title>Node1&#45;&gt;Node3</title>
<path fill="none" stroke="midnightblue" d="M1351.09,-411.83C1142.3,-398.46 542.93,-360.09 320.99,-345.88"/>
<polygon fill="midnightblue" stroke="midnightblue" points="320.91,-342.37 310.7,-345.22 320.46,-349.35 320.91,-342.37"/>
</g>
<!-- Node7 -->
<g id="node7" class="node">
<title>Node7</title>
<g id="a_node7"><a xlink:href="distance__map_8hpp.html" target="_top" xlink:title="Implementation of algorithm to calculate distance from obstacles.">
<polygon fill="none" stroke="black" points="836,-324.5 836,-354.5 980,-354.5 980,-324.5 836,-324.5"/>
<text text-anchor="start" x="844" y="-342.5" font-family="Helvetica,sans-Serif" font-size="10.00">beluga/algorithm/distance</text>
<text text-anchor="middle" x="908" y="-331.5" font-family="Helvetica,sans-Serif" font-size="10.00">_map.hpp</text>
</a>
</g>
</g>
<!-- Node1&#45;&gt;Node7 -->
<g id="edge7" class="edge">
<title>Node1&#45;&gt;Node7</title>
<path fill="none" stroke="midnightblue" d="M1351.44,-405.81C1256.3,-391.8 1089.83,-367.28 990.16,-352.6"/>
<polygon fill="midnightblue" stroke="midnightblue" points="990.54,-349.12 980.13,-351.12 989.52,-356.04 990.54,-349.12"/>
</g>
<!-- Node9 -->
<g id="node9" class="node">
<title>Node9</title>
<g id="a_node9"><a xlink:title=" ">
<polygon fill="none" stroke="#bfbfbf" points="1083.5,-129 1083.5,-148 1130.5,-148 1130.5,-129 1083.5,-129"/>
<text text-anchor="middle" x="1107" y="-136" font-family="Helvetica,sans-Serif" font-size="10.00">vector</text>
</a>
</g>
</g>
<!-- Node1&#45;&gt;Node9 -->
<g id="edge47" class="edge">
<title>Node1&#45;&gt;Node9</title>
<path fill="none" stroke="midnightblue" d="M1351.43,-411.71C1147.13,-397.47 578.55,-352.34 527,-288 455.25,-198.46 938.61,-152.92 1073,-142.08"/>
<polygon fill="midnightblue" stroke="midnightblue" points="1073.44,-145.55 1083.13,-141.27 1072.88,-138.57 1073.44,-145.55"/>
</g>
<!-- Node13 -->
<g id="node13" class="node">
<title>Node13</title>
<g id="a_node13"><a xlink:href="occupancy__grid_8hpp.html" target="_top" xlink:title="Concepts and abstract implementations of occupancy grids.">
<polygon fill="none" stroke="black" points="1432,-324.5 1432,-354.5 1548,-354.5 1548,-324.5 1432,-324.5"/>
<text text-anchor="start" x="1440" y="-342.5" font-family="Helvetica,sans-Serif" font-size="10.00">beluga/sensor/data</text>
<text text-anchor="middle" x="1490" y="-331.5" font-family="Helvetica,sans-Serif" font-size="10.00">/occupancy_grid.hpp</text>
</a>
</g>
</g>
<!-- Node1&#45;&gt;Node13 -->
<g id="edge13" class="edge">
<title>Node1&#45;&gt;Node13</title>
<path fill="none" stroke="midnightblue" d="M1445.98,-391.19C1454.02,-381.94 1463.04,-371.54 1470.82,-362.59"/>
<polygon fill="midnightblue" stroke="midnightblue" points="1473.63,-364.69 1477.54,-354.85 1468.34,-360.1 1473.63,-364.69"/>
</g>
<!-- Node20 -->
<g id="node20" class="node">
<title>Node20</title>
<g id="a_node20"><a xlink:title=" ">
<polygon fill="none" stroke="#bfbfbf" points="1748.5,-62 1748.5,-81 1795.5,-81 1795.5,-62 1748.5,-62"/>
<text text-anchor="middle" x="1772" y="-69" font-family="Helvetica,sans-Serif" font-size="10.00">cmath</text>
</a>
</g>
</g>
<!-- Node1&#45;&gt;Node20 -->
<g id="edge43" class="edge">
<title>Node1&#45;&gt;Node20</title>
<path fill="none" stroke="midnightblue" d="M1496.7,-393.35C1600.88,-359.85 1781.17,-300.47 1790,-288 1833.24,-226.98 1798.29,-130.44 1780.65,-90.61"/>
<polygon fill="midnightblue" stroke="midnightblue" points="1783.76,-88.98 1776.41,-81.35 1777.39,-91.9 1783.76,-88.98"/>
</g>
<!-- Node27 -->
<g id="node27" class="node">
<title>Node27</title>
<g id="a_node27"><a xlink:href="value__grid_8hpp.html" target="_top" xlink:title="Implementation of generic value grid.">
<polygon fill="none" stroke="black" points="1304,-324.5 1304,-354.5 1414,-354.5 1414,-324.5 1304,-324.5"/>
<text text-anchor="start" x="1312" y="-342.5" font-family="Helvetica,sans-Serif" font-size="10.00">beluga/sensor/data</text>
<text text-anchor="middle" x="1359" y="-331.5" font-family="Helvetica,sans-Serif" font-size="10.00">/value_grid.hpp</text>
</a>
</g>
</g>
<!-- Node1&#45;&gt;Node27 -->
<g id="edge38" class="edge">
<title>Node1&#45;&gt;Node27</title>
<path fill="none" stroke="midnightblue" d="M1402.36,-391.19C1394.44,-381.94 1385.55,-371.54 1377.89,-362.59"/>
<polygon fill="midnightblue" stroke="midnightblue" points="1380.43,-360.17 1371.27,-354.85 1375.11,-364.72 1380.43,-360.17"/>
</g>
<!-- Node29 -->
<g id="node29" class="node">
<title>Node29</title>
<g id="a_node29"><a xlink:title=" ">
<polygon fill="none" stroke="#bfbfbf" points="1723,-330 1723,-349 1777,-349 1777,-330 1723,-330"/>
<text text-anchor="middle" x="1750" y="-337" font-family="Helvetica,sans-Serif" font-size="10.00">random</text>
</a>
</g>
</g>
<!-- Node1&#45;&gt;Node29 -->
<g id="edge44" class="edge">
<title>Node1&#45;&gt;Node29</title>
<path fill="none" stroke="midnightblue" d="M1496.66,-403.47C1554.63,-392.44 1637.66,-375.22 1709,-355 1711.79,-354.21 1714.67,-353.33 1717.55,-352.4"/>
<polygon fill="midnightblue" stroke="midnightblue" points="1718.82,-355.66 1727.18,-349.15 1716.59,-349.03 1718.82,-355.66"/>
</g>
<!-- Node30 -->
<g id="node30" class="node">
<title>Node30</title>
<g id="a_node30"><a xlink:title=" ">
<polygon fill="none" stroke="#bfbfbf" points="1795,-330 1795,-349 1959,-349 1959,-330 1795,-330"/>
<text text-anchor="middle" x="1877" y="-337" font-family="Helvetica,sans-Serif" font-size="10.00">range/v3/action/transform.hpp</text>
</a>
</g>
</g>
<!-- Node1&#45;&gt;Node30 -->
<g id="edge45" class="edge">
<title>Node1&#45;&gt;Node30</title>
<path fill="none" stroke="midnightblue" d="M1496.53,-404.33C1585.07,-389.48 1733.21,-364.62 1816.1,-350.72"/>
<polygon fill="midnightblue" stroke="midnightblue" points="1816.84,-354.14 1826.13,-349.04 1815.68,-347.24 1816.84,-354.14"/>
</g>
<!-- Node31 -->
<g id="node31" class="node">
<title>Node31</title>
<g id="a_node31"><a xlink:title=" ">
<polygon fill="none" stroke="#bfbfbf" points="1977,-330 1977,-349 2069,-349 2069,-330 1977,-330"/>
<text text-anchor="middle" x="2023" y="-337" font-family="Helvetica,sans-Serif" font-size="10.00">sophus/se2.hpp</text>
</a>
</g>
</g>
<!-- Node1&#45;&gt;Node31 -->
<g id="edge46" class="edge">
<title>Node1&#45;&gt;Node31</title>
<path fill="none" stroke="midnightblue" d="M1496.65,-411.66C1601.44,-403.91 1800.78,-386.32 1968,-355 1973.15,-354.04 1978.52,-352.85 1983.8,-351.57"/>
<polygon fill="midnightblue" stroke="midnightblue" points="1984.95,-354.9 1993.78,-349.05 1983.23,-348.11 1984.95,-354.9"/>
</g>
<!-- Node3&#45;&gt;Node2 -->
<g id="edge3" class="edge">
<title>Node3&#45;&gt;Node2</title>
<path fill="none" stroke="midnightblue" d="M207.85,-329.92C174.97,-320.15 119.95,-303.52 73,-288 70.55,-287.19 68.03,-286.34 65.5,-285.47"/>
<polygon fill="midnightblue" stroke="midnightblue" points="66.39,-282.08 55.79,-282.1 64.09,-288.69 66.39,-282.08"/>
</g>
<!-- Node4 -->
<g id="node4" class="node">
<title>Node4</title>
<g id="a_node4"><a xlink:title=" ">
<polygon fill="none" stroke="#bfbfbf" points="82,-263 82,-282 146,-282 146,-263 82,-263"/>
<text text-anchor="middle" x="114" y="-270" font-family="Helvetica,sans-Serif" font-size="10.00">execution</text>
</a>
</g>
</g>
<!-- Node3&#45;&gt;Node4 -->
<g id="edge4" class="edge">
<title>Node3&#45;&gt;Node4</title>
<path fill="none" stroke="midnightblue" d="M220.67,-329.87C199.9,-318.89 163.81,-299.82 139.43,-286.94"/>
<polygon fill="midnightblue" stroke="midnightblue" points="140.88,-283.75 130.4,-282.17 137.61,-289.93 140.88,-283.75"/>
</g>
<!-- Node5 -->
<g id="node5" class="node">
<title>Node5</title>
<g id="a_node5"><a xlink:title=" ">
<polygon fill="none" stroke="#bfbfbf" points="164,-263 164,-282 310,-282 310,-263 164,-263"/>
<text text-anchor="middle" x="237" y="-270" font-family="Helvetica,sans-Serif" font-size="10.00">range/v3/action/action.hpp</text>
</a>
</g>
</g>
<!-- Node3&#45;&gt;Node5 -->
<g id="edge5" class="edge">
<title>Node3&#45;&gt;Node5</title>
<path fill="none" stroke="midnightblue" d="M237,-329.73C237,-320.18 237,-304.62 237,-292.28"/>
<polygon fill="midnightblue" stroke="midnightblue" points="240.5,-292.13 237,-282.13 233.5,-292.13 240.5,-292.13"/>
</g>
<!-- Node6 -->
<g id="node6" class="node">
<title>Node6</title>
<g id="a_node6"><a xlink:title=" ">
<polygon fill="none" stroke="#bfbfbf" points="328,-263 328,-282 480,-282 480,-263 328,-263"/>
<text text-anchor="middle" x="404" y="-270" font-family="Helvetica,sans-Serif" font-size="10.00">range/v3/view/common.hpp</text>
</a>
</g>
</g>
<!-- Node3&#45;&gt;Node6 -->
<g id="edge6" class="edge">
<title>Node3&#45;&gt;Node6</title>
<path fill="none" stroke="midnightblue" d="M259.18,-329.87C288.2,-318.57 339.27,-298.7 372.35,-285.82"/>
<polygon fill="midnightblue" stroke="midnightblue" points="373.95,-288.95 382,-282.06 371.41,-282.43 373.95,-288.95"/>
</g>
<!-- Node8 -->
<g id="node8" class="node">
<title>Node8</title>
<g id="a_node8"><a xlink:title=" ">
<polygon fill="none" stroke="#bfbfbf" points="718.5,-263 718.5,-282 765.5,-282 765.5,-263 718.5,-263"/>
<text text-anchor="middle" x="742" y="-270" font-family="Helvetica,sans-Serif" font-size="10.00">queue</text>
</a>
</g>
</g>
<!-- Node7&#45;&gt;Node8 -->
<g id="edge8" class="edge">
<title>Node7&#45;&gt;Node8</title>
<path fill="none" stroke="midnightblue" d="M868.74,-324.47C841.89,-314.69 805.58,-301.09 774,-288 772.63,-287.43 771.22,-286.84 769.81,-286.23"/>
<polygon fill="midnightblue" stroke="midnightblue" points="771.09,-282.97 760.52,-282.14 768.26,-289.38 771.09,-282.97"/>
</g>
<!-- Node7&#45;&gt;Node9 -->
<g id="edge9" class="edge">
<title>Node7&#45;&gt;Node9</title>
<path fill="none" stroke="midnightblue" d="M919.52,-324.32C933.09,-307.79 956.53,-279.82 978,-257 1007.29,-225.87 1015.29,-218.67 1047,-190 1060.49,-177.8 1076.24,-164.58 1088.21,-154.73"/>
<polygon fill="midnightblue" stroke="midnightblue" points="1090.66,-157.26 1096.18,-148.22 1086.23,-151.84 1090.66,-157.26"/>
</g>
<!-- Node10 -->
<g id="node10" class="node">
<title>Node10</title>
<g id="a_node10"><a xlink:title=" ">
<polygon fill="none" stroke="#bfbfbf" points="783.5,-263 783.5,-282 930.5,-282 930.5,-263 783.5,-263"/>
<text text-anchor="middle" x="857" y="-270" font-family="Helvetica,sans-Serif" font-size="10.00">range/v3/range/access.hpp</text>
</a>
</g>
</g>
<!-- Node7&#45;&gt;Node10 -->
<g id="edge10" class="edge">
<title>Node7&#45;&gt;Node10</title>
<path fill="none" stroke="midnightblue" d="M896.93,-324.4C889.06,-314.36 878.45,-300.84 870.15,-290.25"/>
<polygon fill="midnightblue" stroke="midnightblue" points="872.75,-287.9 863.82,-282.19 867.24,-292.22 872.75,-287.9"/>
</g>
<!-- Node11 -->
<g id="node11" class="node">
<title>Node11</title>
<g id="a_node11"><a xlink:title=" ">
<polygon fill="none" stroke="#bfbfbf" points="536,-263 536,-282 700,-282 700,-263 536,-263"/>
<text text-anchor="middle" x="618" y="-270" font-family="Helvetica,sans-Serif" font-size="10.00">range/v3/range/primitives.hpp</text>
</a>
</g>
</g>
<!-- Node7&#45;&gt;Node11 -->
<g id="edge11" class="edge">
<title>Node7&#45;&gt;Node11</title>
<path fill="none" stroke="midnightblue" d="M845.43,-324.48C791.65,-312.42 715.2,-295.29 666.1,-284.28"/>
<polygon fill="midnightblue" stroke="midnightblue" points="666.57,-280.8 656.05,-282.03 665.04,-287.63 666.57,-280.8"/>
</g>
<!-- Node12 -->
<g id="node12" class="node">
<title>Node12</title>
<g id="a_node12"><a xlink:title=" ">
<polygon fill="none" stroke="#bfbfbf" points="1089.5,-263 1089.5,-282 1252.5,-282 1252.5,-263 1089.5,-263"/>
<text text-anchor="middle" x="1171" y="-270" font-family="Helvetica,sans-Serif" font-size="10.00">range/v3/view/enumerate.hpp</text>
</a>
</g>
</g>
<!-- Node7&#45;&gt;Node12 -->
<g id="edge12" class="edge">
<title>Node7&#45;&gt;Node12</title>
<path fill="none" stroke="midnightblue" d="M964.74,-324.48C1013.22,-312.5 1081.98,-295.5 1126.54,-284.49"/>
<polygon fill="midnightblue" stroke="midnightblue" points="1127.62,-287.83 1136.49,-282.03 1125.94,-281.03 1127.62,-287.83"/>
</g>
<!-- Node13&#45;&gt;Node9 -->
<g id="edge16" class="edge">
<title>Node13&#45;&gt;Node9</title>
<path fill="none" stroke="midnightblue" d="M1431.91,-325.9C1384.93,-315.18 1322.95,-299.72 1300,-288 1280.59,-278.09 1279.13,-270.47 1262,-257 1214.13,-219.35 1156.79,-176.44 1127.07,-154.36"/>
<polygon fill="midnightblue" stroke="midnightblue" points="1128.89,-151.35 1118.78,-148.2 1124.72,-156.97 1128.89,-151.35"/>
</g>
<!-- Node13&#45;&gt;Node12 -->
<g id="edge34" class="edge">
<title>Node13&#45;&gt;Node12</title>
<path fill="none" stroke="midnightblue" d="M1431.91,-325.87C1428.9,-325.23 1425.91,-324.61 1423,-324 1354.61,-309.75 1275.62,-294.04 1224.57,-283.99"/>
<polygon fill="midnightblue" stroke="midnightblue" points="1225.23,-280.55 1214.75,-282.05 1223.88,-287.42 1225.23,-280.55"/>
</g>
<!-- Node14 -->
<g id="node14" class="node">
<title>Node14</title>
<g id="a_node14"><a xlink:title=" ">
<polygon fill="none" stroke="#bfbfbf" points="1505,-196 1505,-215 1555,-215 1555,-196 1505,-196"/>
<text text-anchor="middle" x="1530" y="-203" font-family="Helvetica,sans-Serif" font-size="10.00">cstdint</text>
</a>
</g>
</g>
<!-- Node13&#45;&gt;Node14 -->
<g id="edge14" class="edge">
<title>Node13&#45;&gt;Node14</title>
<path fill="none" stroke="midnightblue" d="M1491.4,-324.36C1493.3,-307.87 1497.38,-279.94 1505,-257 1508.8,-245.56 1514.73,-233.44 1519.87,-223.94"/>
<polygon fill="midnightblue" stroke="midnightblue" points="1522.97,-225.56 1524.8,-215.12 1516.86,-222.14 1522.97,-225.56"/>
</g>
<!-- Node15 -->
<g id="node15" class="node">
<title>Node15</title>
<g id="a_node15"><a xlink:title=" ">
<polygon fill="none" stroke="#bfbfbf" points="1513.5,-263 1513.5,-282 1554.5,-282 1554.5,-263 1513.5,-263"/>
<text text-anchor="middle" x="1534" y="-270" font-family="Helvetica,sans-Serif" font-size="10.00">tuple</text>
</a>
</g>
</g>
<!-- Node13&#45;&gt;Node15 -->
<g id="edge15" class="edge">
<title>Node13&#45;&gt;Node15</title>
<path fill="none" stroke="midnightblue" d="M1499.55,-324.4C1506.27,-314.46 1515.31,-301.11 1522.44,-290.57"/>
<polygon fill="midnightblue" stroke="midnightblue" points="1525.41,-292.44 1528.11,-282.19 1519.61,-288.51 1525.41,-292.44"/>
</g>
<!-- Node16 -->
<g id="node16" class="node">
<title>Node16</title>
<g id="a_node16"><a xlink:href="linear__grid_8hpp.html" target="_top" xlink:title="Concepts and abstract implementations of linear (ie. contiguous storage) grids.">
<polygon fill="none" stroke="black" points="1309,-257.5 1309,-287.5 1419,-287.5 1419,-257.5 1309,-257.5"/>
<text text-anchor="start" x="1317" y="-275.5" font-family="Helvetica,sans-Serif" font-size="10.00">beluga/sensor/data</text>
<text text-anchor="middle" x="1364" y="-264.5" font-family="Helvetica,sans-Serif" font-size="10.00">/linear_grid.hpp</text>
</a>
</g>
</g>
<!-- Node13&#45;&gt;Node16 -->
<g id="edge17" class="edge">
<title>Node13&#45;&gt;Node16</title>
<path fill="none" stroke="midnightblue" d="M1462.66,-324.4C1444.41,-314.98 1420.22,-302.5 1400.36,-292.26"/>
<polygon fill="midnightblue" stroke="midnightblue" points="1401.78,-289.05 1391.29,-287.58 1398.57,-295.27 1401.78,-289.05"/>
</g>
<!-- Node21 -->
<g id="node21" class="node">
<title>Node21</title>
<g id="a_node21"><a xlink:title=" ">
<polygon fill="none" stroke="#bfbfbf" points="1536,-62 1536,-81 1694,-81 1694,-62 1536,-62"/>
<text text-anchor="middle" x="1615" y="-69" font-family="Helvetica,sans-Serif" font-size="10.00">range/v3/view/transform.hpp</text>
</a>
</g>
</g>
<!-- Node13&#45;&gt;Node21 -->
<g id="edge36" class="edge">
<title>Node13&#45;&gt;Node21</title>
<path fill="none" stroke="midnightblue" d="M1534.46,-324.33C1552.27,-316.42 1571.31,-304.71 1583,-288 1625.91,-226.65 1621.6,-131.35 1617.43,-91.27"/>
<polygon fill="midnightblue" stroke="midnightblue" points="1620.9,-90.83 1616.27,-81.3 1613.95,-91.63 1620.9,-90.83"/>
</g>
<!-- Node22 -->
<g id="node22" class="node">
<title>Node22</title>
<g id="a_node22"><a xlink:title=" ">
<polygon fill="none" stroke="#bfbfbf" points="1445.5,-62 1445.5,-81 1514.5,-81 1514.5,-62 1445.5,-62"/>
<text text-anchor="middle" x="1480" y="-69" font-family="Helvetica,sans-Serif" font-size="10.00">Eigen/Core</text>
</a>
</g>
</g>
<!-- Node13&#45;&gt;Node22 -->
<g id="edge37" class="edge">
<title>Node13&#45;&gt;Node22</title>
<path fill="none" stroke="midnightblue" d="M1523.85,-324.44C1539.04,-316.23 1555.43,-304.23 1564,-288 1584.34,-249.49 1577.3,-231.48 1564,-190 1550.69,-148.5 1516.74,-109.19 1496.3,-88.23"/>
<polygon fill="midnightblue" stroke="midnightblue" points="1498.75,-85.72 1489.21,-81.13 1493.8,-90.67 1498.75,-85.72"/>
</g>
<!-- Node26 -->
<g id="node26" class="node">
<title>Node26</title>
<g id="a_node26"><a xlink:title=" ">
<polygon fill="none" stroke="#bfbfbf" points="1649.5,-263 1649.5,-282 1780.5,-282 1780.5,-263 1649.5,-263"/>
<text text-anchor="middle" x="1715" y="-270" font-family="Helvetica,sans-Serif" font-size="10.00">range/v3/view/filter.hpp</text>
</a>
</g>
</g>
<!-- Node13&#45;&gt;Node26 -->
<g id="edge35" class="edge">
<title>Node13&#45;&gt;Node26</title>
<path fill="none" stroke="midnightblue" d="M1538.54,-324.48C1579.58,-312.62 1637.61,-295.86 1675.75,-284.84"/>
<polygon fill="midnightblue" stroke="midnightblue" points="1676.84,-288.17 1685.48,-282.03 1674.9,-281.44 1676.84,-288.17"/>
</g>
<!-- Node16&#45;&gt;Node9 -->
<g id="edge20" class="edge">
<title>Node16&#45;&gt;Node9</title>
<path fill="none" stroke="midnightblue" d="M1343.78,-257.42C1329.32,-247.33 1309.42,-233.39 1292,-221 1272.8,-207.35 1269.86,-200.95 1249,-190 1213.66,-171.46 1170.03,-157.09 1140.53,-148.5"/>
<polygon fill="midnightblue" stroke="midnightblue" points="1141.29,-145.08 1130.72,-145.7 1139.38,-151.81 1141.29,-145.08"/>
</g>
<!-- Node16&#45;&gt;Node14 -->
<g id="edge18" class="edge">
<title>Node16&#45;&gt;Node14</title>
<path fill="none" stroke="midnightblue" d="M1400.02,-257.4C1429.53,-245.84 1470.86,-229.66 1498.94,-218.66"/>
<polygon fill="midnightblue" stroke="midnightblue" points="1500.24,-221.91 1508.27,-215.01 1497.69,-215.39 1500.24,-221.91"/>
</g>
<!-- Node17 -->
<g id="node17" class="node">
<title>Node17</title>
<g id="a_node17"><a xlink:title=" ">
<polygon fill="none" stroke="#bfbfbf" points="1396,-129 1396,-148 1452,-148 1452,-129 1396,-129"/>
<text text-anchor="middle" x="1424" y="-136" font-family="Helvetica,sans-Serif" font-size="10.00">optional</text>
</a>
</g>
</g>
<!-- Node16&#45;&gt;Node17 -->
<g id="edge19" class="edge">
<title>Node16&#45;&gt;Node17</title>
<path fill="none" stroke="midnightblue" d="M1386.9,-257.4C1399.04,-248.57 1412.87,-236.02 1420,-221 1429.37,-201.24 1428.9,-175.68 1427.04,-158.49"/>
<polygon fill="midnightblue" stroke="midnightblue" points="1430.45,-157.55 1425.64,-148.11 1423.51,-158.49 1430.45,-157.55"/>
</g>
<!-- Node18 -->
<g id="node18" class="node">
<title>Node18</title>
<g id="a_node18"><a xlink:href="dense__grid_8hpp.html" target="_top" xlink:title="Concepts and abstract implementations of dense grids.">
<polygon fill="none" stroke="black" points="1301,-190.5 1301,-220.5 1411,-220.5 1411,-190.5 1301,-190.5"/>
<text text-anchor="start" x="1309" y="-208.5" font-family="Helvetica,sans-Serif" font-size="10.00">beluga/sensor/data</text>
<text text-anchor="middle" x="1356" y="-197.5" font-family="Helvetica,sans-Serif" font-size="10.00">/dense_grid.hpp</text>
</a>
</g>
</g>
<!-- Node16&#45;&gt;Node18 -->
<g id="edge21" class="edge">
<title>Node16&#45;&gt;Node18</title>
<path fill="none" stroke="midnightblue" d="M1362.26,-257.4C1361.3,-249.56 1360.07,-239.6 1358.96,-230.57"/>
<polygon fill="midnightblue" stroke="midnightblue" points="1362.43,-230.07 1357.73,-220.58 1355.48,-230.93 1362.43,-230.07"/>
</g>
<!-- Node16&#45;&gt;Node22 -->
<g id="edge33" class="edge">
<title>Node16&#45;&gt;Node22</title>
<path fill="none" stroke="midnightblue" d="M1392.57,-257.37C1407.59,-248.68 1425.27,-236.28 1437,-221 1467.29,-181.55 1476.26,-121.39 1478.9,-91.18"/>
<polygon fill="midnightblue" stroke="midnightblue" points="1482.4,-91.41 1479.64,-81.18 1475.42,-90.9 1482.4,-91.41"/>
</g>
<!-- Node18&#45;&gt;Node9 -->
<g id="edge23" class="edge">
<title>Node18&#45;&gt;Node9</title>
<path fill="none" stroke="midnightblue" d="M1302.28,-190.48C1253.12,-177.64 1181.91,-159.05 1140.44,-148.23"/>
<polygon fill="midnightblue" stroke="midnightblue" points="1141.13,-144.79 1130.57,-145.65 1139.36,-151.57 1141.13,-144.79"/>
</g>
<!-- Node18&#45;&gt;Node17 -->
<g id="edge22" class="edge">
<title>Node18&#45;&gt;Node17</title>
<path fill="none" stroke="midnightblue" d="M1370.75,-190.4C1381.57,-180.06 1396.25,-166.02 1407.46,-155.31"/>
<polygon fill="midnightblue" stroke="midnightblue" points="1410.09,-157.63 1414.9,-148.19 1405.26,-152.57 1410.09,-157.63"/>
</g>
<!-- Node19 -->
<g id="node19" class="node">
<title>Node19</title>
<g id="a_node19"><a xlink:href="regular__grid_8hpp.html" target="_top" xlink:title="Concepts and abstract implementations of regular grids.">
<polygon fill="none" stroke="black" points="1230,-123.5 1230,-153.5 1340,-153.5 1340,-123.5 1230,-123.5"/>
<text text-anchor="start" x="1238" y="-141.5" font-family="Helvetica,sans-Serif" font-size="10.00">beluga/sensor/data</text>
<text text-anchor="middle" x="1285" y="-130.5" font-family="Helvetica,sans-Serif" font-size="10.00">/regular_grid.hpp</text>
</a>
</g>
</g>
<!-- Node18&#45;&gt;Node19 -->
<g id="edge24" class="edge">
<title>Node18&#45;&gt;Node19</title>
<path fill="none" stroke="midnightblue" d="M1340.59,-190.4C1331.01,-181.62 1318.51,-170.18 1307.8,-160.37"/>
<polygon fill="midnightblue" stroke="midnightblue" points="1310.12,-157.75 1300.38,-153.58 1305.39,-162.91 1310.12,-157.75"/>
</g>
<!-- Node18&#45;&gt;Node22 -->
<g id="edge31" class="edge">
<title>Node18&#45;&gt;Node22</title>
<path fill="none" stroke="midnightblue" d="M1358.29,-190.27C1361.76,-172.65 1369.86,-142.6 1387,-123 1402.21,-105.61 1424.91,-93.11 1444.09,-84.91"/>
<polygon fill="midnightblue" stroke="midnightblue" points="1445.49,-88.11 1453.45,-81.11 1442.86,-81.63 1445.49,-88.11"/>
</g>
<!-- Node23 -->
<g id="node23" class="node">
<title>Node23</title>
<g id="a_node23"><a xlink:href="eigen__compatibility_8hpp_source.html" target="_top" xlink:title=" ">
<polygon fill="none" stroke="black" points="1117.5,-62 1117.5,-81 1286.5,-81 1286.5,-62 1117.5,-62"/>
<text text-anchor="middle" x="1202" y="-69" font-family="Helvetica,sans-Serif" font-size="10.00">beluga/eigen_compatibility.hpp</text>
</a>
</g>
</g>
<!-- Node18&#45;&gt;Node23 -->
<g id="edge32" class="edge">
<title>Node18&#45;&gt;Node23</title>
<path fill="none" stroke="midnightblue" d="M1303.66,-190.47C1270.74,-180.63 1232.4,-166.97 1221,-154 1205.82,-136.73 1202.15,-109.67 1201.56,-91.52"/>
<polygon fill="midnightblue" stroke="midnightblue" points="1205.06,-91.29 1201.52,-81.31 1198.06,-91.32 1205.06,-91.29"/>
</g>
<!-- Node19&#45;&gt;Node20 -->
<g id="edge25" class="edge">
<title>Node19&#45;&gt;Node20</title>
<path fill="none" stroke="midnightblue" d="M1340.02,-129.39C1355.22,-127.23 1371.74,-124.95 1387,-123 1527.21,-105.05 1563.46,-109.56 1703,-87 1714.66,-85.12 1727.33,-82.59 1738.59,-80.18"/>
<polygon fill="midnightblue" stroke="midnightblue" points="1739.45,-83.57 1748.47,-78.02 1737.95,-76.74 1739.45,-83.57"/>
</g>
<!-- Node19&#45;&gt;Node21 -->
<g id="edge26" class="edge">
<title>Node19&#45;&gt;Node21</title>
<path fill="none" stroke="midnightblue" d="M1340.23,-126.62C1401.81,-114.49 1500.71,-95.01 1561.55,-83.03"/>
<polygon fill="midnightblue" stroke="midnightblue" points="1562.58,-86.39 1571.71,-81.03 1561.22,-79.53 1562.58,-86.39"/>
</g>
<!-- Node19&#45;&gt;Node22 -->
<g id="edge27" class="edge">
<title>Node19&#45;&gt;Node22</title>
<path fill="none" stroke="midnightblue" d="M1327.31,-123.4C1362.44,-111.69 1411.81,-95.23 1444.8,-84.23"/>
<polygon fill="midnightblue" stroke="midnightblue" points="1446.1,-87.49 1454.48,-81.01 1443.89,-80.85 1446.1,-87.49"/>
</g>
<!-- Node19&#45;&gt;Node23 -->
<g id="edge28" class="edge">
<title>Node19&#45;&gt;Node23</title>
<path fill="none" stroke="midnightblue" d="M1266.99,-123.4C1253.41,-112.76 1234.82,-98.2 1221,-87.38"/>
<polygon fill="midnightblue" stroke="midnightblue" points="1223.13,-84.6 1213.1,-81.19 1218.82,-90.12 1223.13,-84.6"/>
</g>
<!-- Node25 -->
<g id="node25" class="node">
<title>Node25</title>
<g id="a_node25"><a xlink:href="enable__self_8hpp.html" target="_top" xlink:title="Implementation of a CRTP utility to enable downcasting to the most derived class.">
<polygon fill="none" stroke="black" points="1305,-56.5 1305,-86.5 1427,-86.5 1427,-56.5 1305,-56.5"/>
<text text-anchor="start" x="1313" y="-74.5" font-family="Helvetica,sans-Serif" font-size="10.00">beluga/mixins/enable</text>
<text text-anchor="middle" x="1366" y="-63.5" font-family="Helvetica,sans-Serif" font-size="10.00">_self.hpp</text>
</a>
</g>
</g>
<!-- Node19&#45;&gt;Node25 -->
<g id="edge30" class="edge">
<title>Node19&#45;&gt;Node25</title>
<path fill="none" stroke="midnightblue" d="M1302.58,-123.4C1313.61,-114.54 1328.04,-102.96 1340.35,-93.09"/>
<polygon fill="midnightblue" stroke="midnightblue" points="1342.85,-95.56 1348.46,-86.58 1338.47,-90.11 1342.85,-95.56"/>
</g>
<!-- Node24 -->
<g id="node24" class="node">
<title>Node24</title>
<g id="a_node24"><a xlink:title=" ">
<polygon fill="none" stroke="#bfbfbf" points="1163.5,-0.5 1163.5,-19.5 1240.5,-19.5 1240.5,-0.5 1163.5,-0.5"/>
<text text-anchor="middle" x="1202" y="-7.5" font-family="Helvetica,sans-Serif" font-size="10.00">Eigen/Dense</text>
</a>
</g>
</g>
<!-- Node23&#45;&gt;Node24 -->
<g id="edge29" class="edge">
<title>Node23&#45;&gt;Node24</title>
<path fill="none" stroke="midnightblue" d="M1202,-61.98C1202,-53.58 1202,-40.48 1202,-29.66"/>
<polygon fill="midnightblue" stroke="midnightblue" points="1205.5,-29.51 1202,-19.51 1198.5,-29.51 1205.5,-29.51"/>
</g>
<!-- Node27&#45;&gt;Node9 -->
<g id="edge41" class="edge">
<title>Node27&#45;&gt;Node9</title>
<path fill="none" stroke="midnightblue" d="M1303.87,-336.56C1231.07,-332.71 1108.82,-321.33 1081,-288 1049.22,-249.92 1078.73,-186.85 1096.21,-156.65"/>
<polygon fill="midnightblue" stroke="midnightblue" points="1099.22,-158.45 1101.37,-148.07 1093.22,-154.84 1099.22,-158.45"/>
</g>
<!-- Node27&#45;&gt;Node14 -->
<g id="edge39" class="edge">
<title>Node27&#45;&gt;Node14</title>
<path fill="none" stroke="midnightblue" d="M1378.79,-324.35C1392.68,-314.35 1411.61,-300.54 1428,-288 1457.62,-265.35 1491.29,-238.15 1511.57,-221.61"/>
<polygon fill="midnightblue" stroke="midnightblue" points="1513.87,-224.25 1519.4,-215.22 1509.44,-218.83 1513.87,-224.25"/>
</g>
<!-- Node27&#45;&gt;Node16 -->
<g id="edge42" class="edge">
<title>Node27&#45;&gt;Node16</title>
<path fill="none" stroke="midnightblue" d="M1360.08,-324.4C1360.69,-316.56 1361.45,-306.6 1362.15,-297.57"/>
<polygon fill="midnightblue" stroke="midnightblue" points="1365.64,-297.82 1362.92,-287.58 1358.66,-297.28 1365.64,-297.82"/>
</g>
<!-- Node28 -->
<g id="node28" class="node">
<title>Node28</title>
<g id="a_node28"><a xlink:title=" ">
<polygon fill="none" stroke="#bfbfbf" points="987.5,-263 987.5,-282 1032.5,-282 1032.5,-263 987.5,-263"/>
<text text-anchor="middle" x="1010" y="-270" font-family="Helvetica,sans-Serif" font-size="10.00">utility</text>
</a>
</g>
</g>
<!-- Node27&#45;&gt;Node28 -->
<g id="edge40" class="edge">
<title>Node27&#45;&gt;Node28</title>
<path fill="none" stroke="midnightblue" d="M1303.86,-333.17C1240.91,-326.26 1135.26,-312.14 1047,-288 1044.41,-287.29 1041.75,-286.46 1039.1,-285.56"/>
<polygon fill="midnightblue" stroke="midnightblue" points="1040.3,-282.28 1029.71,-282.12 1037.89,-288.85 1040.3,-282.28"/>
</g>
</g>
</svg>
        <g id="navigator" transform="translate(0 0)" fill="#404254">
                <rect fill="#f2f5e9" fill-opacity="0.5" stroke="#606060" stroke-width=".5" x="0" y="0" width="60" height="60"/>
                <use id="zoomplus" xlink:href="#zoomPlus" x="17" y="9" onmousedown="handleZoom(evt,'in')"/>
                <use id="zoomminus" xlink:href="#zoomMin" x="42" y="9" onmousedown="handleZoom(evt,'out')"/>
                <use id="reset" xlink:href="#resetDef" x="30" y="36" onmousedown="handleReset()"/>
                <g id="arrowUp" xlink:href="#dirArrow" transform="translate(30 24)" onmousedown="handlePan(0,-1)">
                  <use xlink:href="#rim" fill="#404040">
                        <set attributeName="fill" to="#808080" begin="arrowUp.mouseover" end="arrowUp.mouseout"/>
                  </use>
                  <path fill="none" stroke="white" stroke-width="1.5" d="M0,-3.0v7 M-2.5,-0.5L0,-3.0L2.5,-0.5"/>
                </g>
                <g id="arrowRight" xlink:href="#dirArrow" transform="rotate(90) translate(36 -43)" onmousedown="handlePan(1,0)">
                  <use xlink:href="#rim" fill="#404040">
                        <set attributeName="fill" to="#808080" begin="arrowRight.mouseover" end="arrowRight.mouseout"/>
                  </use>
                  <path fill="none" stroke="white" stroke-width="1.5" d="M0,-3.0v7 M-2.5,-0.5L0,-3.0L2.5,-0.5"/>
                </g>
                <g id="arrowDown" xlink:href="#dirArrow" transform="rotate(180) translate(-30 -48)" onmousedown="handlePan(0,1)">
                  <use xlink:href="#rim" fill="#404040">
                        <set attributeName="fill" to="#808080" begin="arrowDown.mouseover" end="arrowDown.mouseout"/>
                  </use>
                  <path fill="none" stroke="white" stroke-width="1.5" d="M0,-3.0v7 M-2.5,-0.5L0,-3.0L2.5,-0.5"/>
                </g>
                <g id="arrowLeft" xlink:href="#dirArrow" transform="rotate(270) translate(-36 17)" onmousedown="handlePan(-1,0)">
                  <use xlink:href="#rim" fill="#404040">
                        <set attributeName="fill" to="#808080" begin="arrowLeft.mouseover" end="arrowLeft.mouseout"/>
                  </use>
                  <path fill="none" stroke="white" stroke-width="1.5" d="M0,-3.0v7 M-2.5,-0.5L0,-3.0L2.5,-0.5"/>
                </g>
        </g>
        <svg viewBox="0 0 15 15" width="100%" height="30px" preserveAspectRatio="xMaxYMin meet">
         <g id="arrow_out" transform="scale(0.3 0.3)">
          <a xlink:href="likelihood__field__model__base_8hpp__incl_org.svg" target="_base">
           <rect id="button" ry="5" rx="5" y="6" x="6" height="38" width="38"
                fill="#f2f5e9" fill-opacity="0.5" stroke="#606060" stroke-width="1.0"/>
           <path id="arrow"
             d="M 11.500037,31.436501 C 11.940474,20.09759 22.043105,11.32322 32.158766,21.979434 L 37.068811,17.246167 C 37.068811,17.246167 37.088388,32 37.088388,32 L 22.160133,31.978069 C 22.160133,31.978069 26.997745,27.140456 26.997745,27.140456 C 18.528582,18.264221 13.291696,25.230495 11.500037,31.436501 z"
             style="fill:#404040;"/>
          </a>
         </g>
        </svg>
</svg>
