<?xml version="1.0" encoding="UTF-8" standalone="no"?>
<!DOCTYPE svg PUBLIC "-//W3C//DTD SVG 1.1//EN"
 "http://www.w3.org/Graphics/SVG/1.1/DTD/svg11.dtd">
<!-- Generated by graphviz version 2.43.0 (0)
 -->
<!-- Title: /home/runner/work/beluga/beluga/beluga/include/beluga/sensor/likelihood_field_model_base.hpp Pages: 1 -->
<!--zoomable 452 -->
<svg id="main" version="1.1" xmlns="http://www.w3.org/2000/svg" xmlns:xlink="http://www.w3.org/1999/xlink" xml:space="preserve" onload="init(evt)">
<style type="text/css"><![CDATA[
.edge:hover path { stroke: red; }
.edge:hover polygon { stroke: red; fill: red; }
]]></style>
<script type="text/javascript"><![CDATA[
var edges = document.getElementsByTagName('g');
if (edges && edges.length) {
  for (var i=0;i<edges.length;i++) {
    if (edges[i].id.substr(0,4)=='edge') {
      edges[i].setAttribute('class','edge');
    }
  }
}
]]></script>
        <defs>
                <circle id="rim" cx="0" cy="0" r="7"/>
                <circle id="rim2" cx="0" cy="0" r="3.5"/>
                <g id="zoomPlus">
                        <use xlink:href="#rim" fill="#404040">
                                <set attributeName="fill" to="#808080" begin="zoomplus.mouseover" end="zoomplus.mouseout"/>
                        </use>
                        <path d="M-4,0h8M0,-4v8" fill="none" stroke="white" stroke-width="1.5" pointer-events="none"/>
                </g>
                <g id="zoomMin">
                        <use xlink:href="#rim" fill="#404040">
                                <set attributeName="fill" to="#808080" begin="zoomminus.mouseover" end="zoomminus.mouseout"/>
                        </use>
                        <path d="M-4,0h8" fill="none" stroke="white" stroke-width="1.5" pointer-events="none"/>
                </g>
                <g id="dirArrow">
                        <path fill="none" stroke="white" stroke-width="1.5" d="M0,-3.0v7 M-2.5,-0.5L0,-3.0L2.5,-0.5"/>
                </g>
               <g id="resetDef">
                       <use xlink:href="#rim2" fill="#404040">
                               <set attributeName="fill" to="#808080" begin="reset.mouseover" end="reset.mouseout"/>
                       </use>
               </g>
        </defs>

<script type="text/javascript">
var viewWidth = 2347;
var viewHeight = 452;
var sectionId = 'dynsection-0';
</script>
<script xlink:href="svgpan.js"/>
<svg id="graph" class="graph">
<g id="viewport">
<title>/home/runner/work/beluga/beluga/beluga/include/beluga/sensor/likelihood_field_model_base.hpp</title>
<!-- Node1 -->
<g id="node1" class="node">
<title>Node1</title>
<g id="a_node1"><a xlink:title="Implementation of a likelihood field common sensor model for range finders.">
<polygon fill="#bfbfbf" stroke="black" points="1489.5,-391.5 1489.5,-443.5 1634.5,-443.5 1634.5,-391.5 1489.5,-391.5"/>
<text text-anchor="start" x="1497.5" y="-431.5" font-family="Helvetica,sans-Serif" font-size="10.00">/home/runner/work/beluga</text>
<text text-anchor="start" x="1497.5" y="-420.5" font-family="Helvetica,sans-Serif" font-size="10.00">/beluga/beluga/include</text>
<text text-anchor="start" x="1497.5" y="-409.5" font-family="Helvetica,sans-Serif" font-size="10.00">/beluga/sensor/likelihood</text>
<text text-anchor="middle" x="1562" y="-398.5" font-family="Helvetica,sans-Serif" font-size="10.00">_field_model_base.hpp</text>
</a>
</g>
</g>
<!-- Node2 -->
<g id="node2" class="node">
<title>Node2</title>
<g id="a_node2"><a xlink:title=" ">
<polygon fill="none" stroke="#bfbfbf" points="0,-263 0,-282 64,-282 64,-263 0,-263"/>
<text text-anchor="middle" x="32" y="-270" font-family="Helvetica,sans-Serif" font-size="10.00">algorithm</text>
</a>
</g>
</g>
<!-- Node1&#45;&gt;Node2 -->
<g id="edge1" class="edge">
<title>Node1&#45;&gt;Node2</title>
<path fill="none" stroke="midnightblue" d="M1489.25,-416.25C1248.69,-414.93 480.57,-406.68 239,-355 170.87,-340.42 95.98,-305.93 57.68,-286.82"/>
<polygon fill="midnightblue" stroke="midnightblue" points="58.83,-283.47 48.32,-282.09 55.67,-289.72 58.83,-283.47"/>
</g>
<!-- Node3 -->
<g id="node3" class="node">
<title>Node3</title>
<g id="a_node3"><a xlink:href="overlay_8hpp.html" target="_top" xlink:title="Implementation of the overlay range adaptor object.">
<polygon fill="none" stroke="black" points="248.5,-330 248.5,-349 395.5,-349 395.5,-330 248.5,-330"/>
<text text-anchor="middle" x="322" y="-337" font-family="Helvetica,sans-Serif" font-size="10.00">beluga/actions/overlay.hpp</text>
</a>
</g>
</g>
<!-- Node1&#45;&gt;Node3 -->
<g id="edge2" class="edge">
<title>Node1&#45;&gt;Node3</title>
<path fill="none" stroke="midnightblue" d="M1489.44,-412.99C1316.83,-404.49 868.22,-381.54 494,-355 465.25,-352.96 433.82,-350.41 405.79,-348.01"/>
<polygon fill="midnightblue" stroke="midnightblue" points="405.89,-344.51 395.62,-347.14 405.29,-351.48 405.89,-344.51"/>
</g>
<!-- Node7 -->
<g id="node7" class="node">
<title>Node7</title>
<g id="a_node7"><a xlink:href="distance__map_8hpp.html" target="_top" xlink:title="Implementation of algorithm to calculate distance from obstacles.">
<polygon fill="none" stroke="black" points="836,-324.5 836,-354.5 980,-354.5 980,-324.5 836,-324.5"/>
<text text-anchor="start" x="844" y="-342.5" font-family="Helvetica,sans-Serif" font-size="10.00">beluga/algorithm/distance</text>
<text text-anchor="middle" x="908" y="-331.5" font-family="Helvetica,sans-Serif" font-size="10.00">_map.hpp</text>
</a>
</g>
</g>
<!-- Node1&#45;&gt;Node7 -->
<g id="edge7" class="edge">
<title>Node1&#45;&gt;Node7</title>
<path fill="none" stroke="midnightblue" d="M1489.2,-408.04C1366.5,-393.78 1119.33,-365.06 990.44,-350.08"/>
<polygon fill="midnightblue" stroke="midnightblue" points="990.57,-346.57 980.23,-348.89 989.76,-353.52 990.57,-346.57"/>
</g>
<!-- Node9 -->
<g id="node9" class="node">
<title>Node9</title>
<g id="a_node9"><a xlink:title=" ">
<polygon fill="none" stroke="#bfbfbf" points="1443.5,-129 1443.5,-148 1490.5,-148 1490.5,-129 1443.5,-129"/>
<text text-anchor="middle" x="1467" y="-136" font-family="Helvetica,sans-Serif" font-size="10.00">vector</text>
</a>
</g>
</g>
<!-- Node1&#45;&gt;Node9 -->
<g id="edge51" class="edge">
<title>Node1&#45;&gt;Node9</title>
<path fill="none" stroke="midnightblue" d="M1489.47,-410.83C1411.94,-400.46 1292.57,-371.1 1236,-288 1181.81,-208.39 1356.96,-161.96 1433.27,-145.91"/>
<polygon fill="midnightblue" stroke="midnightblue" points="1434.25,-149.28 1443.34,-143.85 1432.84,-142.42 1434.25,-149.28"/>
</g>
<!-- Node13 -->
<g id="node13" class="node">
<title>Node13</title>
<g id="a_node13"><a xlink:href="occupancy__grid_8hpp.html" target="_top" xlink:title="Concepts and abstract implementations of occupancy grids.">
<polygon fill="none" stroke="black" points="1439,-324.5 1439,-354.5 1555,-354.5 1555,-324.5 1439,-324.5"/>
<text text-anchor="start" x="1447" y="-342.5" font-family="Helvetica,sans-Serif" font-size="10.00">beluga/sensor/data</text>
<text text-anchor="middle" x="1497" y="-331.5" font-family="Helvetica,sans-Serif" font-size="10.00">/occupancy_grid.hpp</text>
</a>
</g>
</g>
<!-- Node1&#45;&gt;Node13 -->
<g id="edge13" class="edge">
<title>Node1&#45;&gt;Node13</title>
<path fill="none" stroke="midnightblue" d="M1540.36,-391.19C1532.44,-381.94 1523.55,-371.54 1515.89,-362.59"/>
<polygon fill="midnightblue" stroke="midnightblue" points="1518.43,-360.17 1509.27,-354.85 1513.11,-364.72 1518.43,-360.17"/>
</g>
<!-- Node20 -->
<g id="node20" class="node">
<title>Node20</title>
<g id="a_node20"><a xlink:title=" ">
<polygon fill="none" stroke="#bfbfbf" points="890.5,-62 890.5,-81 937.5,-81 937.5,-62 890.5,-62"/>
<text text-anchor="middle" x="914" y="-69" font-family="Helvetica,sans-Serif" font-size="10.00">cmath</text>
</a>
</g>
</g>
<!-- Node1&#45;&gt;Node20 -->
<g id="edge45" class="edge">
<title>Node1&#45;&gt;Node20</title>
<path fill="none" stroke="midnightblue" d="M1489.14,-414.29C1250.56,-406.12 508,-372.7 508,-273.5 508,-273.5 508,-273.5 508,-204.5 508,-126.45 782.78,-87.48 880.23,-76.12"/>
<polygon fill="midnightblue" stroke="midnightblue" points="880.88,-79.57 890.42,-74.95 880.08,-72.61 880.88,-79.57"/>
</g>
<!-- Node29 -->
<g id="node29" class="node">
<title>Node29</title>
<g id="a_node29"><a xlink:href="value__grid_8hpp.html" target="_top" xlink:title="Implementation of generic value grid.">
<polygon fill="none" stroke="black" points="1573,-324.5 1573,-354.5 1683,-354.5 1683,-324.5 1573,-324.5"/>
<text text-anchor="start" x="1581" y="-342.5" font-family="Helvetica,sans-Serif" font-size="10.00">beluga/sensor/data</text>
<text text-anchor="middle" x="1628" y="-331.5" font-family="Helvetica,sans-Serif" font-size="10.00">/value_grid.hpp</text>
</a>
</g>
</g>
<!-- Node1&#45;&gt;Node29 -->
<g id="edge40" class="edge">
<title>Node1&#45;&gt;Node29</title>
<path fill="none" stroke="midnightblue" d="M1583.98,-391.19C1592.02,-381.94 1601.04,-371.54 1608.82,-362.59"/>
<polygon fill="midnightblue" stroke="midnightblue" points="1611.63,-364.69 1615.54,-354.85 1606.34,-360.1 1611.63,-364.69"/>
</g>
<!-- Node31 -->
<g id="node31" class="node">
<title>Node31</title>
<g id="a_node31"><a xlink:title=" ">
<polygon fill="none" stroke="#bfbfbf" points="1701,-330 1701,-349 1755,-349 1755,-330 1701,-330"/>
<text text-anchor="middle" x="1728" y="-337" font-family="Helvetica,sans-Serif" font-size="10.00">random</text>
</a>
</g>
</g>
<!-- Node1&#45;&gt;Node31 -->
<g id="edge46" class="edge">
<title>Node1&#45;&gt;Node31</title>
<path fill="none" stroke="midnightblue" d="M1616.81,-391.4C1644.62,-378.67 1677.21,-363.75 1699.89,-353.37"/>
<polygon fill="midnightblue" stroke="midnightblue" points="1701.63,-356.42 1709.26,-349.08 1698.71,-350.06 1701.63,-356.42"/>
</g>
<!-- Node32 -->
<g id="node32" class="node">
<title>Node32</title>
<g id="a_node32"><a xlink:title=" ">
<polygon fill="none" stroke="#bfbfbf" points="1773,-330 1773,-349 1937,-349 1937,-330 1773,-330"/>
<text text-anchor="middle" x="1855" y="-337" font-family="Helvetica,sans-Serif" font-size="10.00">range/v3/action/transform.hpp</text>
</a>
</g>
</g>
<!-- Node1&#45;&gt;Node32 -->
<g id="edge47" class="edge">
<title>Node1&#45;&gt;Node32</title>
<path fill="none" stroke="midnightblue" d="M1634.8,-397.62C1690.7,-383.12 1765.95,-363.6 1812.43,-351.54"/>
<polygon fill="midnightblue" stroke="midnightblue" points="1813.37,-354.91 1822.17,-349.01 1811.62,-348.14 1813.37,-354.91"/>
</g>
<!-- Node33 -->
<g id="node33" class="node">
<title>Node33</title>
<g id="a_node33"><a xlink:title=" ">
<polygon fill="none" stroke="#bfbfbf" points="1955.5,-330 1955.5,-349 2086.5,-349 2086.5,-330 1955.5,-330"/>
<text text-anchor="middle" x="2021" y="-337" font-family="Helvetica,sans-Serif" font-size="10.00">range/v3/algorithm.hpp</text>
</a>
</g>
</g>
<!-- Node1&#45;&gt;Node33 -->
<g id="edge48" class="edge">
<title>Node1&#45;&gt;Node33</title>
<path fill="none" stroke="midnightblue" d="M1634.66,-405.58C1711.97,-393.79 1837.79,-374.12 1946,-355 1953.18,-353.73 1960.74,-352.34 1968.18,-350.93"/>
<polygon fill="midnightblue" stroke="midnightblue" points="1969.04,-354.33 1978.21,-349.02 1967.73,-347.46 1969.04,-354.33"/>
</g>
<!-- Node34 -->
<g id="node34" class="node">
<title>Node34</title>
<g id="a_node34"><a xlink:title=" ">
<polygon fill="none" stroke="#bfbfbf" points="2105,-330 2105,-349 2229,-349 2229,-330 2105,-330"/>
<text text-anchor="middle" x="2167" y="-337" font-family="Helvetica,sans-Serif" font-size="10.00">range/v3/view/zip.hpp</text>
</a>
</g>
</g>
<!-- Node1&#45;&gt;Node34 -->
<g id="edge49" class="edge">
<title>Node1&#45;&gt;Node34</title>
<path fill="none" stroke="midnightblue" d="M1634.83,-410.13C1737.87,-400.67 1931.96,-381.15 2096,-355 2103.26,-353.84 2110.91,-352.46 2118.38,-351.01"/>
<polygon fill="midnightblue" stroke="midnightblue" points="2119.3,-354.4 2128.42,-349.01 2117.93,-347.53 2119.3,-354.4"/>
</g>
<!-- Node35 -->
<g id="node35" class="node">
<title>Node35</title>
<g id="a_node35"><a xlink:title=" ">
<polygon fill="none" stroke="#bfbfbf" points="2247,-330 2247,-349 2339,-349 2339,-330 2247,-330"/>
<text text-anchor="middle" x="2293" y="-337" font-family="Helvetica,sans-Serif" font-size="10.00">sophus/se2.hpp</text>
</a>
</g>
</g>
<!-- Node1&#45;&gt;Node35 -->
<g id="edge50" class="edge">
<title>Node1&#45;&gt;Node35</title>
<path fill="none" stroke="midnightblue" d="M1634.56,-413.87C1758.91,-408.49 2020.39,-393.31 2238,-355 2243.41,-354.05 2249.07,-352.82 2254.6,-351.49"/>
<polygon fill="midnightblue" stroke="midnightblue" points="2255.54,-354.87 2264.37,-349.02 2253.82,-348.08 2255.54,-354.87"/>
</g>
<!-- Node3&#45;&gt;Node2 -->
<g id="edge3" class="edge">
<title>Node3&#45;&gt;Node2</title>
<path fill="none" stroke="midnightblue" d="M269.03,-329.97C218.27,-321.28 139.74,-306.47 73,-288 70.04,-287.18 66.98,-286.26 63.94,-285.28"/>
<polygon fill="midnightblue" stroke="midnightblue" points="64.97,-281.93 54.38,-282.05 62.73,-288.57 64.97,-281.93"/>
</g>
<!-- Node4 -->
<g id="node4" class="node">
<title>Node4</title>
<g id="a_node4"><a xlink:title=" ">
<polygon fill="none" stroke="#bfbfbf" points="416,-263 416,-282 480,-282 480,-263 416,-263"/>
<text text-anchor="middle" x="448" y="-270" font-family="Helvetica,sans-Serif" font-size="10.00">execution</text>
</a>
</g>
</g>
<!-- Node3&#45;&gt;Node4 -->
<g id="edge4" class="edge">
<title>Node3&#45;&gt;Node4</title>
<path fill="none" stroke="midnightblue" d="M338.73,-329.87C360.1,-318.84 397.3,-299.66 422.28,-286.77"/>
<polygon fill="midnightblue" stroke="midnightblue" points="423.92,-289.86 431.2,-282.17 420.71,-283.64 423.92,-289.86"/>
</g>
<!-- Node5 -->
<g id="node5" class="node">
<title>Node5</title>
<g id="a_node5"><a xlink:title=" ">
<polygon fill="none" stroke="#bfbfbf" points="82,-263 82,-282 228,-282 228,-263 82,-263"/>
<text text-anchor="middle" x="155" y="-270" font-family="Helvetica,sans-Serif" font-size="10.00">range/v3/action/action.hpp</text>
</a>
</g>
</g>
<!-- Node3&#45;&gt;Node5 -->
<g id="edge5" class="edge">
<title>Node3&#45;&gt;Node5</title>
<path fill="none" stroke="midnightblue" d="M299.82,-329.87C270.8,-318.57 219.73,-298.7 186.65,-285.82"/>
<polygon fill="midnightblue" stroke="midnightblue" points="187.59,-282.43 177,-282.06 185.05,-288.95 187.59,-282.43"/>
</g>
<!-- Node6 -->
<g id="node6" class="node">
<title>Node6</title>
<g id="a_node6"><a xlink:title=" ">
<polygon fill="none" stroke="#bfbfbf" points="246,-263 246,-282 398,-282 398,-263 246,-263"/>
<text text-anchor="middle" x="322" y="-270" font-family="Helvetica,sans-Serif" font-size="10.00">range/v3/view/common.hpp</text>
</a>
</g>
</g>
<!-- Node3&#45;&gt;Node6 -->
<g id="edge6" class="edge">
<title>Node3&#45;&gt;Node6</title>
<path fill="none" stroke="midnightblue" d="M322,-329.73C322,-320.18 322,-304.62 322,-292.28"/>
<polygon fill="midnightblue" stroke="midnightblue" points="325.5,-292.13 322,-282.13 318.5,-292.13 325.5,-292.13"/>
</g>
<!-- Node8 -->
<g id="node8" class="node">
<title>Node8</title>
<g id="a_node8"><a xlink:title=" ">
<polygon fill="none" stroke="#bfbfbf" points="718.5,-263 718.5,-282 765.5,-282 765.5,-263 718.5,-263"/>
<text text-anchor="middle" x="742" y="-270" font-family="Helvetica,sans-Serif" font-size="10.00">queue</text>
</a>
</g>
</g>
<!-- Node7&#45;&gt;Node8 -->
<g id="edge8" class="edge">
<title>Node7&#45;&gt;Node8</title>
<path fill="none" stroke="midnightblue" d="M868.74,-324.47C841.89,-314.69 805.58,-301.09 774,-288 772.63,-287.43 771.22,-286.84 769.81,-286.23"/>
<polygon fill="midnightblue" stroke="midnightblue" points="771.09,-282.97 760.52,-282.14 768.26,-289.38 771.09,-282.97"/>
</g>
<!-- Node7&#45;&gt;Node9 -->
<g id="edge9" class="edge">
<title>Node7&#45;&gt;Node9</title>
<path fill="none" stroke="midnightblue" d="M916.56,-324.21C928.22,-305.96 950.77,-274.66 978,-257 1127.49,-160.06 1349.35,-143.01 1433.24,-140.08"/>
<polygon fill="midnightblue" stroke="midnightblue" points="1433.56,-143.57 1443.45,-139.77 1433.35,-136.57 1433.56,-143.57"/>
</g>
<!-- Node10 -->
<g id="node10" class="node">
<title>Node10</title>
<g id="a_node10"><a xlink:title=" ">
<polygon fill="none" stroke="#bfbfbf" points="783.5,-263 783.5,-282 930.5,-282 930.5,-263 783.5,-263"/>
<text text-anchor="middle" x="857" y="-270" font-family="Helvetica,sans-Serif" font-size="10.00">range/v3/range/access.hpp</text>
</a>
</g>
</g>
<!-- Node7&#45;&gt;Node10 -->
<g id="edge10" class="edge">
<title>Node7&#45;&gt;Node10</title>
<path fill="none" stroke="midnightblue" d="M896.93,-324.4C889.06,-314.36 878.45,-300.84 870.15,-290.25"/>
<polygon fill="midnightblue" stroke="midnightblue" points="872.75,-287.9 863.82,-282.19 867.24,-292.22 872.75,-287.9"/>
</g>
<!-- Node11 -->
<g id="node11" class="node">
<title>Node11</title>
<g id="a_node11"><a xlink:title=" ">
<polygon fill="none" stroke="#bfbfbf" points="536,-263 536,-282 700,-282 700,-263 536,-263"/>
<text text-anchor="middle" x="618" y="-270" font-family="Helvetica,sans-Serif" font-size="10.00">range/v3/range/primitives.hpp</text>
</a>
</g>
</g>
<!-- Node7&#45;&gt;Node11 -->
<g id="edge11" class="edge">
<title>Node7&#45;&gt;Node11</title>
<path fill="none" stroke="midnightblue" d="M845.43,-324.48C791.65,-312.42 715.2,-295.29 666.1,-284.28"/>
<polygon fill="midnightblue" stroke="midnightblue" points="666.57,-280.8 656.05,-282.03 665.04,-287.63 666.57,-280.8"/>
</g>
<!-- Node12 -->
<g id="node12" class="node">
<title>Node12</title>
<g id="a_node12"><a xlink:title=" ">
<polygon fill="none" stroke="#bfbfbf" points="987.5,-263 987.5,-282 1150.5,-282 1150.5,-263 987.5,-263"/>
<text text-anchor="middle" x="1069" y="-270" font-family="Helvetica,sans-Serif" font-size="10.00">range/v3/view/enumerate.hpp</text>
</a>
</g>
</g>
<!-- Node7&#45;&gt;Node12 -->
<g id="edge12" class="edge">
<title>Node7&#45;&gt;Node12</title>
<path fill="none" stroke="midnightblue" d="M942.93,-324.4C971.43,-312.89 1011.29,-296.8 1038.52,-285.81"/>
<polygon fill="midnightblue" stroke="midnightblue" points="1039.97,-289 1047.93,-282.01 1037.35,-282.51 1039.97,-289"/>
</g>
<!-- Node13&#45;&gt;Node9 -->
<g id="edge16" class="edge">
<title>Node13&#45;&gt;Node9</title>
<path fill="none" stroke="midnightblue" d="M1463.59,-324.34C1448.61,-316.09 1432.44,-304.11 1424,-288 1400.72,-243.6 1434.31,-184.93 1454.17,-156.46"/>
<polygon fill="midnightblue" stroke="midnightblue" points="1457.02,-158.48 1460.04,-148.33 1451.35,-154.38 1457.02,-158.48"/>
</g>
<!-- Node13&#45;&gt;Node12 -->
<g id="edge35" class="edge">
<title>Node13&#45;&gt;Node12</title>
<path fill="none" stroke="midnightblue" d="M1438.83,-329.67C1359.63,-317.64 1218.21,-296.16 1135.09,-283.54"/>
<polygon fill="midnightblue" stroke="midnightblue" points="1135.41,-280.05 1125,-282 1134.36,-286.97 1135.41,-280.05"/>
</g>
<!-- Node14 -->
<g id="node14" class="node">
<title>Node14</title>
<g id="a_node14"><a xlink:title=" ">
<polygon fill="none" stroke="#bfbfbf" points="2052,-196 2052,-215 2102,-215 2102,-196 2052,-196"/>
<text text-anchor="middle" x="2077" y="-203" font-family="Helvetica,sans-Serif" font-size="10.00">cstdint</text>
</a>
</g>
</g>
<!-- Node13&#45;&gt;Node14 -->
<g id="edge14" class="edge">
<title>Node13&#45;&gt;Node14</title>
<path fill="none" stroke="midnightblue" d="M1555.02,-325.49C1558.05,-324.95 1561.06,-324.45 1564,-324 1739.57,-297.17 1797.12,-354.03 1962,-288 1982.56,-279.77 1983.1,-270.03 2001,-257 2018.61,-244.19 2039.22,-230.57 2054.53,-220.71"/>
<polygon fill="midnightblue" stroke="midnightblue" points="2056.77,-223.44 2063.31,-215.1 2053,-217.54 2056.77,-223.44"/>
</g>
<!-- Node15 -->
<g id="node15" class="node">
<title>Node15</title>
<g id="a_node15"><a xlink:title=" ">
<polygon fill="none" stroke="#bfbfbf" points="1579.5,-263 1579.5,-282 1620.5,-282 1620.5,-263 1579.5,-263"/>
<text text-anchor="middle" x="1600" y="-270" font-family="Helvetica,sans-Serif" font-size="10.00">tuple</text>
</a>
</g>
</g>
<!-- Node13&#45;&gt;Node15 -->
<g id="edge15" class="edge">
<title>Node13&#45;&gt;Node15</title>
<path fill="none" stroke="midnightblue" d="M1519.35,-324.4C1536.62,-313.5 1560.42,-298.48 1577.68,-287.58"/>
<polygon fill="midnightblue" stroke="midnightblue" points="1579.93,-290.3 1586.52,-282.01 1576.19,-284.38 1579.93,-290.3"/>
</g>
<!-- Node16 -->
<g id="node16" class="node">
<title>Node16</title>
<g id="a_node16"><a xlink:href="linear__grid_8hpp.html" target="_top" xlink:title="Concepts and abstract implementations of linear (ie. contiguous storage) grids.">
<polygon fill="none" stroke="black" points="1843,-257.5 1843,-287.5 1953,-287.5 1953,-257.5 1843,-257.5"/>
<text text-anchor="start" x="1851" y="-275.5" font-family="Helvetica,sans-Serif" font-size="10.00">beluga/sensor/data</text>
<text text-anchor="middle" x="1898" y="-264.5" font-family="Helvetica,sans-Serif" font-size="10.00">/linear_grid.hpp</text>
</a>
</g>
</g>
<!-- Node13&#45;&gt;Node16 -->
<g id="edge17" class="edge">
<title>Node13&#45;&gt;Node16</title>
<path fill="none" stroke="midnightblue" d="M1555.06,-325.7C1558.08,-325.11 1561.07,-324.54 1564,-324 1614.25,-314.77 1750.81,-294.71 1832.92,-282.84"/>
<polygon fill="midnightblue" stroke="midnightblue" points="1833.51,-286.29 1842.9,-281.4 1832.51,-279.36 1833.51,-286.29"/>
</g>
<!-- Node21 -->
<g id="node21" class="node">
<title>Node21</title>
<g id="a_node21"><a xlink:title=" ">
<polygon fill="none" stroke="#bfbfbf" points="1211,-62 1211,-81 1369,-81 1369,-62 1211,-62"/>
<text text-anchor="middle" x="1290" y="-69" font-family="Helvetica,sans-Serif" font-size="10.00">range/v3/view/transform.hpp</text>
</a>
</g>
</g>
<!-- Node13&#45;&gt;Node21 -->
<g id="edge38" class="edge">
<title>Node13&#45;&gt;Node21</title>
<path fill="none" stroke="midnightblue" d="M1439,-335.62C1370.08,-330.85 1261.22,-318.57 1236,-288 1186.46,-227.96 1248.59,-128.65 1277.11,-89.3"/>
<polygon fill="midnightblue" stroke="midnightblue" points="1280.09,-91.16 1283.25,-81.05 1274.47,-86.99 1280.09,-91.16"/>
</g>
<!-- Node22 -->
<g id="node22" class="node">
<title>Node22</title>
<g id="a_node22"><a xlink:title=" ">
<polygon fill="none" stroke="#bfbfbf" points="1868.5,-62 1868.5,-81 1937.5,-81 1937.5,-62 1868.5,-62"/>
<text text-anchor="middle" x="1903" y="-69" font-family="Helvetica,sans-Serif" font-size="10.00">Eigen/Core</text>
</a>
</g>
</g>
<!-- Node13&#45;&gt;Node22 -->
<g id="edge39" class="edge">
<title>Node13&#45;&gt;Node22</title>
<path fill="none" stroke="midnightblue" d="M1555.08,-325.82C1558.1,-325.2 1561.08,-324.59 1564,-324 1649.98,-306.72 1684.7,-336.13 1758,-288 1796.98,-262.41 1867.62,-137.51 1893.32,-90.47"/>
<polygon fill="midnightblue" stroke="midnightblue" points="1896.52,-91.9 1898.22,-81.44 1890.37,-88.56 1896.52,-91.9"/>
</g>
<!-- Node26 -->
<g id="node26" class="node">
<title>Node26</title>
<g id="a_node26"><a xlink:title=" ">
<polygon fill="none" stroke="#bfbfbf" points="1639,-257.5 1639,-287.5 1749,-287.5 1749,-257.5 1639,-257.5"/>
<text text-anchor="start" x="1647" y="-275.5" font-family="Helvetica,sans-Serif" font-size="10.00">range/v3/algorithm</text>
<text text-anchor="middle" x="1694" y="-264.5" font-family="Helvetica,sans-Serif" font-size="10.00">/any_of.hpp</text>
</a>
</g>
</g>
<!-- Node13&#45;&gt;Node26 -->
<g id="edge34" class="edge">
<title>Node13&#45;&gt;Node26</title>
<path fill="none" stroke="midnightblue" d="M1539.75,-324.4C1569.69,-314.52 1609.89,-301.25 1641.74,-290.74"/>
<polygon fill="midnightblue" stroke="midnightblue" points="1642.94,-294.03 1651.34,-287.58 1640.74,-287.39 1642.94,-294.03"/>
</g>
<!-- Node27 -->
<g id="node27" class="node">
<title>Node27</title>
<g id="a_node27"><a xlink:title=" ">
<polygon fill="none" stroke="#bfbfbf" points="1245.5,-263 1245.5,-282 1376.5,-282 1376.5,-263 1245.5,-263"/>
<text text-anchor="middle" x="1311" y="-270" font-family="Helvetica,sans-Serif" font-size="10.00">range/v3/view/filter.hpp</text>
</a>
</g>
</g>
<!-- Node13&#45;&gt;Node27 -->
<g id="edge36" class="edge">
<title>Node13&#45;&gt;Node27</title>
<path fill="none" stroke="midnightblue" d="M1456.64,-324.4C1423.28,-312.74 1376.45,-296.37 1344.98,-285.38"/>
<polygon fill="midnightblue" stroke="midnightblue" points="1345.94,-282 1335.34,-282.01 1343.63,-288.61 1345.94,-282"/>
</g>
<!-- Node28 -->
<g id="node28" class="node">
<title>Node28</title>
<g id="a_node28"><a xlink:title=" ">
<polygon fill="none" stroke="#bfbfbf" points="1433,-263 1433,-282 1561,-282 1561,-263 1433,-263"/>
<text text-anchor="middle" x="1497" y="-270" font-family="Helvetica,sans-Serif" font-size="10.00">range/v3/view/iota.hpp</text>
</a>
</g>
</g>
<!-- Node13&#45;&gt;Node28 -->
<g id="edge37" class="edge">
<title>Node13&#45;&gt;Node28</title>
<path fill="none" stroke="midnightblue" d="M1497,-324.4C1497,-315.06 1497,-302.71 1497,-292.52"/>
<polygon fill="midnightblue" stroke="midnightblue" points="1500.5,-292.19 1497,-282.19 1493.5,-292.19 1500.5,-292.19"/>
</g>
<!-- Node16&#45;&gt;Node9 -->
<g id="edge20" class="edge">
<title>Node16&#45;&gt;Node9</title>
<path fill="none" stroke="midnightblue" d="M1881.03,-257.14C1854.59,-234.9 1805.6,-194.21 1796,-190 1789.23,-187.03 1583.27,-156.57 1500.72,-144.44"/>
<polygon fill="midnightblue" stroke="midnightblue" points="1501.01,-140.95 1490.61,-142.96 1499.99,-147.87 1501.01,-140.95"/>
</g>
<!-- Node16&#45;&gt;Node14 -->
<g id="edge18" class="edge">
<title>Node16&#45;&gt;Node14</title>
<path fill="none" stroke="midnightblue" d="M1937.26,-257.45C1965.35,-247.38 2004.03,-233.44 2038,-221 2040.09,-220.23 2042.25,-219.44 2044.42,-218.64"/>
<polygon fill="midnightblue" stroke="midnightblue" points="2045.75,-221.88 2053.92,-215.12 2043.32,-215.31 2045.75,-221.88"/>
</g>
<!-- Node17 -->
<g id="node17" class="node">
<title>Node17</title>
<g id="a_node17"><a xlink:title=" ">
<polygon fill="none" stroke="#bfbfbf" points="1936,-129 1936,-148 1992,-148 1992,-129 1936,-129"/>
<text text-anchor="middle" x="1964" y="-136" font-family="Helvetica,sans-Serif" font-size="10.00">optional</text>
</a>
</g>
</g>
<!-- Node16&#45;&gt;Node17 -->
<g id="edge19" class="edge">
<title>Node16&#45;&gt;Node17</title>
<path fill="none" stroke="midnightblue" d="M1928.91,-257.34C1943.28,-248.98 1958.94,-236.89 1967,-221 1976.98,-201.32 1973.7,-175.39 1969.6,-158.12"/>
<polygon fill="midnightblue" stroke="midnightblue" points="1972.9,-156.92 1966.92,-148.17 1966.14,-158.74 1972.9,-156.92"/>
</g>
<!-- Node18 -->
<g id="node18" class="node">
<title>Node18</title>
<g id="a_node18"><a xlink:href="dense__grid_8hpp.html" target="_top" xlink:title="Concepts and abstract implementations of dense grids.">
<polygon fill="none" stroke="black" points="1848,-190.5 1848,-220.5 1958,-220.5 1958,-190.5 1848,-190.5"/>
<text text-anchor="start" x="1856" y="-208.5" font-family="Helvetica,sans-Serif" font-size="10.00">beluga/sensor/data</text>
<text text-anchor="middle" x="1903" y="-197.5" font-family="Helvetica,sans-Serif" font-size="10.00">/dense_grid.hpp</text>
</a>
</g>
</g>
<!-- Node16&#45;&gt;Node18 -->
<g id="edge21" class="edge">
<title>Node16&#45;&gt;Node18</title>
<path fill="none" stroke="midnightblue" d="M1899.08,-257.4C1899.69,-249.56 1900.45,-239.6 1901.15,-230.57"/>
<polygon fill="midnightblue" stroke="midnightblue" points="1904.64,-230.82 1901.92,-220.58 1897.66,-230.28 1904.64,-230.82"/>
</g>
<!-- Node16&#45;&gt;Node22 -->
<g id="edge33" class="edge">
<title>Node16&#45;&gt;Node22</title>
<path fill="none" stroke="midnightblue" d="M1935.77,-257.33C1952.83,-249.14 1971.83,-237.2 1984,-221 2002.45,-196.44 1997.19,-184.48 2001,-154 2002.71,-140.33 2008.17,-134.76 2001,-123 1989.18,-103.62 1967.28,-91.36 1947.18,-83.78"/>
<polygon fill="midnightblue" stroke="midnightblue" points="1948.1,-80.39 1937.51,-80.42 1945.81,-87.01 1948.1,-80.39"/>
</g>
<!-- Node18&#45;&gt;Node9 -->
<g id="edge23" class="edge">
<title>Node18&#45;&gt;Node9</title>
<path fill="none" stroke="midnightblue" d="M1847.71,-192.51C1843.08,-191.62 1838.46,-190.77 1834,-190 1716.44,-169.72 1686.16,-170.48 1568,-154 1545.54,-150.87 1520.29,-147.24 1500.66,-144.4"/>
<polygon fill="midnightblue" stroke="midnightblue" points="1501.06,-140.92 1490.66,-142.95 1500.06,-147.85 1501.06,-140.92"/>
</g>
<!-- Node18&#45;&gt;Node17 -->
<g id="edge22" class="edge">
<title>Node18&#45;&gt;Node17</title>
<path fill="none" stroke="midnightblue" d="M1916.24,-190.4C1925.84,-180.16 1938.85,-166.3 1948.87,-155.62"/>
<polygon fill="midnightblue" stroke="midnightblue" points="1951.55,-157.88 1955.84,-148.19 1946.45,-153.09 1951.55,-157.88"/>
</g>
<!-- Node19 -->
<g id="node19" class="node">
<title>Node19</title>
<g id="a_node19"><a xlink:href="regular__grid_8hpp.html" target="_top" xlink:title="Concepts and abstract implementations of regular grids.">
<polygon fill="none" stroke="black" points="1577,-123.5 1577,-153.5 1687,-153.5 1687,-123.5 1577,-123.5"/>
<text text-anchor="start" x="1585" y="-141.5" font-family="Helvetica,sans-Serif" font-size="10.00">beluga/sensor/data</text>
<text text-anchor="middle" x="1632" y="-130.5" font-family="Helvetica,sans-Serif" font-size="10.00">/regular_grid.hpp</text>
</a>
</g>
</g>
<!-- Node18&#45;&gt;Node19 -->
<g id="edge24" class="edge">
<title>Node18&#45;&gt;Node19</title>
<path fill="none" stroke="midnightblue" d="M1847.83,-191.27C1804.15,-180.79 1743.02,-166.13 1696.97,-155.08"/>
<polygon fill="midnightblue" stroke="midnightblue" points="1697.63,-151.64 1687.09,-152.71 1696,-158.45 1697.63,-151.64"/>
</g>
<!-- Node18&#45;&gt;Node22 -->
<g id="edge31" class="edge">
<title>Node18&#45;&gt;Node22</title>
<path fill="none" stroke="midnightblue" d="M1903,-190.37C1903,-166.5 1903,-118.18 1903,-91.41"/>
<polygon fill="midnightblue" stroke="midnightblue" points="1906.5,-91.1 1903,-81.1 1899.5,-91.1 1906.5,-91.1"/>
</g>
<!-- Node23 -->
<g id="node23" class="node">
<title>Node23</title>
<g id="a_node23"><a xlink:href="eigen__compatibility_8hpp_source.html" target="_top" xlink:title=" ">
<polygon fill="none" stroke="black" points="1681.5,-62 1681.5,-81 1850.5,-81 1850.5,-62 1681.5,-62"/>
<text text-anchor="middle" x="1766" y="-69" font-family="Helvetica,sans-Serif" font-size="10.00">beluga/eigen_compatibility.hpp</text>
</a>
</g>
</g>
<!-- Node18&#45;&gt;Node23 -->
<g id="edge32" class="edge">
<title>Node18&#45;&gt;Node23</title>
<path fill="none" stroke="midnightblue" d="M1888.34,-190.37C1862.57,-165.54 1809.32,-114.24 1782.38,-88.28"/>
<polygon fill="midnightblue" stroke="midnightblue" points="1784.55,-85.52 1774.92,-81.1 1779.7,-90.56 1784.55,-85.52"/>
</g>
<!-- Node19&#45;&gt;Node20 -->
<g id="edge25" class="edge">
<title>Node19&#45;&gt;Node20</title>
<path fill="none" stroke="midnightblue" d="M1576.7,-131.19C1552.82,-128.54 1524.54,-125.49 1499,-123 1289.63,-102.55 1037.68,-82.26 947.84,-75.15"/>
<polygon fill="midnightblue" stroke="midnightblue" points="947.94,-71.65 937.7,-74.35 947.39,-78.63 947.94,-71.65"/>
</g>
<!-- Node19&#45;&gt;Node21 -->
<g id="edge26" class="edge">
<title>Node19&#45;&gt;Node21</title>
<path fill="none" stroke="midnightblue" d="M1576.67,-126.98C1512.79,-114.84 1408.36,-94.99 1344.73,-82.9"/>
<polygon fill="midnightblue" stroke="midnightblue" points="1345.36,-79.46 1334.88,-81.03 1344.05,-86.34 1345.36,-79.46"/>
</g>
<!-- Node19&#45;&gt;Node22 -->
<g id="edge27" class="edge">
<title>Node19&#45;&gt;Node22</title>
<path fill="none" stroke="midnightblue" d="M1687.23,-126.99C1733.66,-117.75 1801.61,-103.26 1860,-87 1863.01,-86.16 1866.13,-85.23 1869.24,-84.26"/>
<polygon fill="midnightblue" stroke="midnightblue" points="1870.6,-87.5 1879.03,-81.09 1868.44,-80.84 1870.6,-87.5"/>
</g>
<!-- Node19&#45;&gt;Node23 -->
<g id="edge28" class="edge">
<title>Node19&#45;&gt;Node23</title>
<path fill="none" stroke="midnightblue" d="M1661.08,-123.4C1684.38,-112.09 1716.81,-96.36 1739.43,-85.39"/>
<polygon fill="midnightblue" stroke="midnightblue" points="1740.99,-88.52 1748.46,-81.01 1737.94,-82.22 1740.99,-88.52"/>
</g>
<!-- Node25 -->
<g id="node25" class="node">
<title>Node25</title>
<g id="a_node25"><a xlink:href="enable__self_8hpp.html" target="_top" xlink:title="Implementation of a CRTP utility to enable downcasting to the most derived class.">
<polygon fill="none" stroke="black" points="1541,-56.5 1541,-86.5 1663,-86.5 1663,-56.5 1541,-56.5"/>
<text text-anchor="start" x="1549" y="-74.5" font-family="Helvetica,sans-Serif" font-size="10.00">beluga/mixins/enable</text>
<text text-anchor="middle" x="1602" y="-63.5" font-family="Helvetica,sans-Serif" font-size="10.00">_self.hpp</text>
</a>
</g>
</g>
<!-- Node19&#45;&gt;Node25 -->
<g id="edge30" class="edge">
<title>Node19&#45;&gt;Node25</title>
<path fill="none" stroke="midnightblue" d="M1625.49,-123.4C1621.76,-115.3 1616.97,-104.94 1612.7,-95.69"/>
<polygon fill="midnightblue" stroke="midnightblue" points="1615.87,-94.19 1608.5,-86.58 1609.51,-97.12 1615.87,-94.19"/>
</g>
<!-- Node24 -->
<g id="node24" class="node">
<title>Node24</title>
<g id="a_node24"><a xlink:title=" ">
<polygon fill="none" stroke="#bfbfbf" points="1727.5,-0.5 1727.5,-19.5 1804.5,-19.5 1804.5,-0.5 1727.5,-0.5"/>
<text text-anchor="middle" x="1766" y="-7.5" font-family="Helvetica,sans-Serif" font-size="10.00">Eigen/Dense</text>
</a>
</g>
</g>
<!-- Node23&#45;&gt;Node24 -->
<g id="edge29" class="edge">
<title>Node23&#45;&gt;Node24</title>
<path fill="none" stroke="midnightblue" d="M1766,-61.98C1766,-53.58 1766,-40.48 1766,-29.66"/>
<polygon fill="midnightblue" stroke="midnightblue" points="1769.5,-29.51 1766,-19.51 1762.5,-29.51 1769.5,-29.51"/>
</g>
<!-- Node29&#45;&gt;Node9 -->
<g id="edge43" class="edge">
<title>Node29&#45;&gt;Node9</title>
<path fill="none" stroke="midnightblue" d="M1683.09,-326.56C1728.22,-314.03 1781.17,-291.34 1758,-257 1727.86,-212.32 1570.5,-166.52 1500.56,-148.02"/>
<polygon fill="midnightblue" stroke="midnightblue" points="1501.07,-144.53 1490.51,-145.39 1499.3,-151.31 1501.07,-144.53"/>
</g>
<!-- Node29&#45;&gt;Node14 -->
<g id="edge41" class="edge">
<title>Node29&#45;&gt;Node14</title>
<path fill="none" stroke="midnightblue" d="M1683.07,-325.56C1686.08,-325 1689.08,-324.47 1692,-324 1774,-310.8 2003.49,-344.89 2064,-288 2080.85,-272.16 2081.62,-243.89 2079.89,-225.17"/>
<polygon fill="midnightblue" stroke="midnightblue" points="2083.35,-224.67 2078.65,-215.18 2076.41,-225.53 2083.35,-224.67"/>
</g>
<!-- Node29&#45;&gt;Node16 -->
<g id="edge44" class="edge">
<title>Node29&#45;&gt;Node16</title>
<path fill="none" stroke="midnightblue" d="M1683.29,-325.19C1726.7,-314.74 1787.24,-300.17 1832.97,-289.16"/>
<polygon fill="midnightblue" stroke="midnightblue" points="1833.88,-292.54 1842.78,-286.79 1832.24,-285.73 1833.88,-292.54"/>
</g>
<!-- Node30 -->
<g id="node30" class="node">
<title>Node30</title>
<g id="a_node30"><a xlink:title=" ">
<polygon fill="none" stroke="#bfbfbf" points="2009.5,-263 2009.5,-282 2054.5,-282 2054.5,-263 2009.5,-263"/>
<text text-anchor="middle" x="2032" y="-270" font-family="Helvetica,sans-Serif" font-size="10.00">utility</text>
</a>
</g>
</g>
<!-- Node29&#45;&gt;Node30 -->
<g id="edge42" class="edge">
<title>Node29&#45;&gt;Node30</title>
<path fill="none" stroke="midnightblue" d="M1683.08,-325.64C1686.09,-325.05 1689.08,-324.5 1692,-324 1825.65,-300.99 1863.46,-321.01 1995,-288 1997.67,-287.33 2000.4,-286.52 2003.12,-285.62"/>
<polygon fill="midnightblue" stroke="midnightblue" points="2004.52,-288.84 2012.72,-282.13 2002.12,-282.26 2004.52,-288.84"/>
</g>
</g>
</svg>
        <g id="navigator" transform="translate(0 0)" fill="#404254">
                <rect fill="#f2f5e9" fill-opacity="0.5" stroke="#606060" stroke-width=".5" x="0" y="0" width="60" height="60"/>
                <use id="zoomplus" xlink:href="#zoomPlus" x="17" y="9" onmousedown="handleZoom(evt,'in')"/>
                <use id="zoomminus" xlink:href="#zoomMin" x="42" y="9" onmousedown="handleZoom(evt,'out')"/>
                <use id="reset" xlink:href="#resetDef" x="30" y="36" onmousedown="handleReset()"/>
                <g id="arrowUp" xlink:href="#dirArrow" transform="translate(30 24)" onmousedown="handlePan(0,-1)">
                  <use xlink:href="#rim" fill="#404040">
                        <set attributeName="fill" to="#808080" begin="arrowUp.mouseover" end="arrowUp.mouseout"/>
                  </use>
                  <path fill="none" stroke="white" stroke-width="1.5" d="M0,-3.0v7 M-2.5,-0.5L0,-3.0L2.5,-0.5"/>
                </g>
                <g id="arrowRight" xlink:href="#dirArrow" transform="rotate(90) translate(36 -43)" onmousedown="handlePan(1,0)">
                  <use xlink:href="#rim" fill="#404040">
                        <set attributeName="fill" to="#808080" begin="arrowRight.mouseover" end="arrowRight.mouseout"/>
                  </use>
                  <path fill="none" stroke="white" stroke-width="1.5" d="M0,-3.0v7 M-2.5,-0.5L0,-3.0L2.5,-0.5"/>
                </g>
                <g id="arrowDown" xlink:href="#dirArrow" transform="rotate(180) translate(-30 -48)" onmousedown="handlePan(0,1)">
                  <use xlink:href="#rim" fill="#404040">
                        <set attributeName="fill" to="#808080" begin="arrowDown.mouseover" end="arrowDown.mouseout"/>
                  </use>
                  <path fill="none" stroke="white" stroke-width="1.5" d="M0,-3.0v7 M-2.5,-0.5L0,-3.0L2.5,-0.5"/>
                </g>
                <g id="arrowLeft" xlink:href="#dirArrow" transform="rotate(270) translate(-36 17)" onmousedown="handlePan(-1,0)">
                  <use xlink:href="#rim" fill="#404040">
                        <set attributeName="fill" to="#808080" begin="arrowLeft.mouseover" end="arrowLeft.mouseout"/>
                  </use>
                  <path fill="none" stroke="white" stroke-width="1.5" d="M0,-3.0v7 M-2.5,-0.5L0,-3.0L2.5,-0.5"/>
                </g>
        </g>
        <svg viewBox="0 0 15 15" width="100%" height="30px" preserveAspectRatio="xMaxYMin meet">
         <g id="arrow_out" transform="scale(0.3 0.3)">
          <a xlink:href="likelihood__field__model__base_8hpp__incl_org.svg" target="_base">
           <rect id="button" ry="5" rx="5" y="6" x="6" height="38" width="38"
                fill="#f2f5e9" fill-opacity="0.5" stroke="#606060" stroke-width="1.0"/>
           <path id="arrow"
             d="M 11.500037,31.436501 C 11.940474,20.09759 22.043105,11.32322 32.158766,21.979434 L 37.068811,17.246167 C 37.068811,17.246167 37.088388,32 37.088388,32 L 22.160133,31.978069 C 22.160133,31.978069 26.997745,27.140456 26.997745,27.140456 C 18.528582,18.264221 13.291696,25.230495 11.500037,31.436501 z"
             style="fill:#404040;"/>
          </a>
         </g>
        </svg>
</svg>
