<?xml version="1.0" encoding="UTF-8" standalone="no"?>
<!DOCTYPE svg PUBLIC "-//W3C//DTD SVG 1.1//EN"
 "http://www.w3.org/Graphics/SVG/1.1/DTD/svg11.dtd">
<!-- Generated by graphviz version 2.43.0 (0)
 -->
<!-- Title: /home/runner/work/beluga/beluga/beluga/include/beluga/sensor/likelihood_field_model.hpp Pages: 1 -->
<svg width="2419pt" height="441pt"
 viewBox="0.00 0.00 2419.00 441.00" xmlns="http://www.w3.org/2000/svg" xmlns:xlink="http://www.w3.org/1999/xlink">
<g id="graph0" class="graph" transform="scale(1 1) rotate(0) translate(4 437)">
<title>/home/runner/work/beluga/beluga/beluga/include/beluga/sensor/likelihood_field_model.hpp</title>
<!-- Node1 -->
<g id="node1" class="node">
<title>Node1</title>
<g id="a_node1"><a xlink:title="Implementation of a likelihood field sensor model for range finders.">
<polygon fill="#bfbfbf" stroke="black" points="1429.5,-380.5 1429.5,-432.5 1574.5,-432.5 1574.5,-380.5 1429.5,-380.5"/>
<text text-anchor="start" x="1437.5" y="-420.5" font-family="Helvetica,sans-Serif" font-size="10.00">/home/runner/work/beluga</text>
<text text-anchor="start" x="1437.5" y="-409.5" font-family="Helvetica,sans-Serif" font-size="10.00">/beluga/beluga/include</text>
<text text-anchor="start" x="1437.5" y="-398.5" font-family="Helvetica,sans-Serif" font-size="10.00">/beluga/sensor/likelihood</text>
<text text-anchor="middle" x="1502" y="-387.5" font-family="Helvetica,sans-Serif" font-size="10.00">_field_model.hpp</text>
</a>
</g>
</g>
<!-- Node2 -->
<g id="node2" class="node">
<title>Node2</title>
<g id="a_node2"><a xlink:title=" ">
<polygon fill="none" stroke="#bfbfbf" points="28,-252 28,-271 92,-271 92,-252 28,-252"/>
<text text-anchor="middle" x="60" y="-259" font-family="Helvetica,sans-Serif" font-size="10.00">algorithm</text>
</a>
</g>
</g>
<!-- Node1&#45;&gt;Node2 -->
<g id="edge1" class="edge">
<title>Node1&#45;&gt;Node2</title>
<path fill="none" stroke="midnightblue" d="M1429.18,-405.11C1164.99,-403.29 266.31,-393.5 148,-344 115.35,-330.34 87.26,-298.89 72.07,-279.3"/>
<polygon fill="midnightblue" stroke="midnightblue" points="74.83,-277.14 66.03,-271.24 69.23,-281.34 74.83,-277.14"/>
</g>
<!-- Node3 -->
<g id="node3" class="node">
<title>Node3</title>
<g id="a_node3"><a xlink:title=" ">
<polygon fill="none" stroke="#bfbfbf" points="1145.5,-56.5 1145.5,-75.5 1192.5,-75.5 1192.5,-56.5 1145.5,-56.5"/>
<text text-anchor="middle" x="1169" y="-63.5" font-family="Helvetica,sans-Serif" font-size="10.00">cmath</text>
</a>
</g>
</g>
<!-- Node1&#45;&gt;Node3 -->
<g id="edge2" class="edge">
<title>Node1&#45;&gt;Node3</title>
<path fill="none" stroke="midnightblue" d="M1429.29,-398.91C1295.76,-384.79 1025,-345.87 1025,-262.5 1025,-262.5 1025,-262.5 1025,-193.5 1025,-134.84 1093.27,-96.99 1135.8,-79.1"/>
<polygon fill="midnightblue" stroke="midnightblue" points="1137.27,-82.28 1145.22,-75.28 1134.64,-75.79 1137.27,-82.28"/>
</g>
<!-- Node4 -->
<g id="node4" class="node">
<title>Node4</title>
<g id="a_node4"><a xlink:title=" ">
<polygon fill="none" stroke="#bfbfbf" points="157,-319 157,-338 211,-338 211,-319 157,-319"/>
<text text-anchor="middle" x="184" y="-326" font-family="Helvetica,sans-Serif" font-size="10.00">random</text>
</a>
</g>
</g>
<!-- Node1&#45;&gt;Node4 -->
<g id="edge3" class="edge">
<title>Node1&#45;&gt;Node4</title>
<path fill="none" stroke="midnightblue" d="M1429.44,-405.2C1194,-403.72 453.18,-395.02 220,-344 217.16,-343.38 214.26,-342.56 211.39,-341.62"/>
<polygon fill="midnightblue" stroke="midnightblue" points="212.53,-338.31 201.94,-338.1 210.09,-344.87 212.53,-338.31"/>
</g>
<!-- Node5 -->
<g id="node5" class="node">
<title>Node5</title>
<g id="a_node5"><a xlink:title=" ">
<polygon fill="none" stroke="#bfbfbf" points="1373.5,-118 1373.5,-137 1420.5,-137 1420.5,-118 1373.5,-118"/>
<text text-anchor="middle" x="1397" y="-125" font-family="Helvetica,sans-Serif" font-size="10.00">vector</text>
</a>
</g>
</g>
<!-- Node1&#45;&gt;Node5 -->
<g id="edge4" class="edge">
<title>Node1&#45;&gt;Node5</title>
<path fill="none" stroke="midnightblue" d="M1514.24,-380.4C1518.91,-369.49 1523.67,-356.39 1526,-344 1534.16,-300.63 1534.4,-282.77 1510,-246 1495.06,-223.48 1480.41,-228.8 1461,-210 1440.28,-189.94 1420.41,-163.04 1408.46,-145.74"/>
<polygon fill="midnightblue" stroke="midnightblue" points="1411.18,-143.52 1402.67,-137.22 1405.39,-147.46 1411.18,-143.52"/>
</g>
<!-- Node6 -->
<g id="node6" class="node">
<title>Node6</title>
<g id="a_node6"><a xlink:href="overlay_8hpp.html" target="_top" xlink:title="Implementation of the overlay range adaptor object.">
<polygon fill="none" stroke="black" points="229.5,-319 229.5,-338 376.5,-338 376.5,-319 229.5,-319"/>
<text text-anchor="middle" x="303" y="-326" font-family="Helvetica,sans-Serif" font-size="10.00">beluga/actions/overlay.hpp</text>
</a>
</g>
</g>
<!-- Node1&#45;&gt;Node6 -->
<g id="edge5" class="edge">
<title>Node1&#45;&gt;Node6</title>
<path fill="none" stroke="midnightblue" d="M1429.25,-400.89C1218.88,-387.55 610.63,-349 386.88,-334.82"/>
<polygon fill="midnightblue" stroke="midnightblue" points="387.04,-331.32 376.84,-334.18 386.6,-338.31 387.04,-331.32"/>
</g>
<!-- Node10 -->
<g id="node10" class="node">
<title>Node10</title>
<g id="a_node10"><a xlink:title=" ">
<polygon fill="none" stroke="#bfbfbf" points="475,-56.5 475,-75.5 633,-75.5 633,-56.5 475,-56.5"/>
<text text-anchor="middle" x="554" y="-63.5" font-family="Helvetica,sans-Serif" font-size="10.00">range/v3/view/transform.hpp</text>
</a>
</g>
</g>
<!-- Node1&#45;&gt;Node10 -->
<g id="edge50" class="edge">
<title>Node1&#45;&gt;Node10</title>
<path fill="none" stroke="midnightblue" d="M1429.44,-405.01C1159.64,-402.8 223.49,-391.75 99,-344 45.79,-323.59 0,-319.49 0,-262.5 0,-262.5 0,-262.5 0,-193.5 0,-99.32 308.17,-75.26 464.83,-69.11"/>
<polygon fill="midnightblue" stroke="midnightblue" points="465.06,-72.6 474.92,-68.73 464.8,-65.61 465.06,-72.6"/>
</g>
<!-- Node11 -->
<g id="node11" class="node">
<title>Node11</title>
<g id="a_node11"><a xlink:href="distance__map_8hpp.html" target="_top" xlink:title="Implementation of algorithm to calculate distance from obstacles.">
<polygon fill="none" stroke="black" points="833,-313.5 833,-343.5 977,-343.5 977,-313.5 833,-313.5"/>
<text text-anchor="start" x="841" y="-331.5" font-family="Helvetica,sans-Serif" font-size="10.00">beluga/algorithm/distance</text>
<text text-anchor="middle" x="905" y="-320.5" font-family="Helvetica,sans-Serif" font-size="10.00">_map.hpp</text>
</a>
</g>
</g>
<!-- Node1&#45;&gt;Node11 -->
<g id="edge11" class="edge">
<title>Node1&#45;&gt;Node11</title>
<path fill="none" stroke="midnightblue" d="M1429.18,-396.64C1333.28,-384.91 1159.43,-363.45 1011,-344 1003.3,-342.99 995.28,-341.92 987.26,-340.85"/>
<polygon fill="midnightblue" stroke="midnightblue" points="987.49,-337.35 977.11,-339.48 986.56,-344.28 987.49,-337.35"/>
</g>
<!-- Node16 -->
<g id="node16" class="node">
<title>Node16</title>
<g id="a_node16"><a xlink:href="occupancy__grid_8hpp.html" target="_top" xlink:title="Concepts and abstract implementations of occupancy grids.">
<polygon fill="none" stroke="black" points="1401,-313.5 1401,-343.5 1517,-343.5 1517,-313.5 1401,-313.5"/>
<text text-anchor="start" x="1409" y="-331.5" font-family="Helvetica,sans-Serif" font-size="10.00">beluga/sensor/data</text>
<text text-anchor="middle" x="1459" y="-320.5" font-family="Helvetica,sans-Serif" font-size="10.00">/occupancy_grid.hpp</text>
</a>
</g>
</g>
<!-- Node1&#45;&gt;Node16 -->
<g id="edge17" class="edge">
<title>Node1&#45;&gt;Node16</title>
<path fill="none" stroke="midnightblue" d="M1487.68,-380.19C1482.66,-371.31 1477.04,-361.39 1472.12,-352.69"/>
<polygon fill="midnightblue" stroke="midnightblue" points="1475.09,-350.83 1467.12,-343.85 1468.99,-354.27 1475.09,-350.83"/>
</g>
<!-- Node28 -->
<g id="node28" class="node">
<title>Node28</title>
<g id="a_node28"><a xlink:href="value__grid_8hpp.html" target="_top" xlink:title="Implementation of generic value grid.">
<polygon fill="none" stroke="black" points="1573,-313.5 1573,-343.5 1683,-343.5 1683,-313.5 1573,-313.5"/>
<text text-anchor="start" x="1581" y="-331.5" font-family="Helvetica,sans-Serif" font-size="10.00">beluga/sensor/data</text>
<text text-anchor="middle" x="1628" y="-320.5" font-family="Helvetica,sans-Serif" font-size="10.00">/value_grid.hpp</text>
</a>
</g>
</g>
<!-- Node1&#45;&gt;Node28 -->
<g id="edge42" class="edge">
<title>Node1&#45;&gt;Node28</title>
<path fill="none" stroke="midnightblue" d="M1543.61,-380.4C1560.5,-370.21 1579.73,-358.61 1595.56,-349.07"/>
<polygon fill="midnightblue" stroke="midnightblue" points="1597.69,-351.87 1604.45,-343.71 1594.08,-345.87 1597.69,-351.87"/>
</g>
<!-- Node30 -->
<g id="node30" class="node">
<title>Node30</title>
<g id="a_node30"><a xlink:title=" ">
<polygon fill="none" stroke="#bfbfbf" points="1701,-319 1701,-338 1865,-338 1865,-319 1701,-319"/>
<text text-anchor="middle" x="1783" y="-326" font-family="Helvetica,sans-Serif" font-size="10.00">range/v3/action/transform.hpp</text>
</a>
</g>
</g>
<!-- Node1&#45;&gt;Node30 -->
<g id="edge47" class="edge">
<title>Node1&#45;&gt;Node30</title>
<path fill="none" stroke="midnightblue" d="M1574.73,-385.83C1627.83,-371.47 1697.92,-352.51 1741.73,-340.66"/>
<polygon fill="midnightblue" stroke="midnightblue" points="1742.73,-344.02 1751.46,-338.03 1740.9,-337.26 1742.73,-344.02"/>
</g>
<!-- Node31 -->
<g id="node31" class="node">
<title>Node31</title>
<g id="a_node31"><a xlink:title=" ">
<polygon fill="none" stroke="#bfbfbf" points="1883.5,-319 1883.5,-338 2050.5,-338 2050.5,-319 1883.5,-319"/>
<text text-anchor="middle" x="1967" y="-326" font-family="Helvetica,sans-Serif" font-size="10.00">range/v3/range/conversion.hpp</text>
</a>
</g>
</g>
<!-- Node1&#45;&gt;Node31 -->
<g id="edge48" class="edge">
<title>Node1&#45;&gt;Node31</title>
<path fill="none" stroke="midnightblue" d="M1574.66,-393.62C1665.35,-378.8 1818.94,-353.7 1904.58,-339.7"/>
<polygon fill="midnightblue" stroke="midnightblue" points="1905.37,-343.12 1914.68,-338.05 1904.24,-336.21 1905.37,-343.12"/>
</g>
<!-- Node32 -->
<g id="node32" class="node">
<title>Node32</title>
<g id="a_node32"><a xlink:title=" ">
<polygon fill="none" stroke="#bfbfbf" points="2069,-319 2069,-338 2191,-338 2191,-319 2069,-319"/>
<text text-anchor="middle" x="2130" y="-326" font-family="Helvetica,sans-Serif" font-size="10.00">range/v3/view/all.hpp</text>
</a>
</g>
</g>
<!-- Node1&#45;&gt;Node32 -->
<g id="edge49" class="edge">
<title>Node1&#45;&gt;Node32</title>
<path fill="none" stroke="midnightblue" d="M1574.52,-399.71C1681.25,-390.69 1886.73,-371.43 2060,-344 2067.16,-342.87 2074.7,-341.49 2082.08,-340.05"/>
<polygon fill="midnightblue" stroke="midnightblue" points="2082.86,-343.46 2091.97,-338.06 2081.48,-336.6 2082.86,-343.46"/>
</g>
<!-- Node33 -->
<g id="node33" class="node">
<title>Node33</title>
<g id="a_node33"><a xlink:title=" ">
<polygon fill="none" stroke="#bfbfbf" points="2209,-319 2209,-338 2301,-338 2301,-319 2209,-319"/>
<text text-anchor="middle" x="2255" y="-326" font-family="Helvetica,sans-Serif" font-size="10.00">sophus/se2.hpp</text>
</a>
</g>
</g>
<!-- Node1&#45;&gt;Node33 -->
<g id="edge51" class="edge">
<title>Node1&#45;&gt;Node33</title>
<path fill="none" stroke="midnightblue" d="M1574.62,-403.16C1702.07,-398.16 1973.96,-383.46 2200,-344 2205.41,-343.06 2211.07,-341.84 2216.61,-340.51"/>
<polygon fill="midnightblue" stroke="midnightblue" points="2217.54,-343.88 2226.37,-338.03 2215.82,-337.1 2217.54,-343.88"/>
</g>
<!-- Node34 -->
<g id="node34" class="node">
<title>Node34</title>
<g id="a_node34"><a xlink:title=" ">
<polygon fill="none" stroke="#bfbfbf" points="2319,-319 2319,-338 2411,-338 2411,-319 2319,-319"/>
<text text-anchor="middle" x="2365" y="-326" font-family="Helvetica,sans-Serif" font-size="10.00">sophus/so2.hpp</text>
</a>
</g>
</g>
<!-- Node1&#45;&gt;Node34 -->
<g id="edge52" class="edge">
<title>Node1&#45;&gt;Node34</title>
<path fill="none" stroke="midnightblue" d="M1574.69,-404.38C1716.88,-401.23 2041.39,-389.24 2310,-344 2315.48,-343.08 2321.2,-341.86 2326.8,-340.52"/>
<polygon fill="midnightblue" stroke="midnightblue" points="2327.84,-343.87 2336.67,-338.02 2326.12,-337.09 2327.84,-343.87"/>
</g>
<!-- Node6&#45;&gt;Node2 -->
<g id="edge6" class="edge">
<title>Node6&#45;&gt;Node2</title>
<path fill="none" stroke="midnightblue" d="M267.25,-318.96C227.66,-309.35 162.02,-293 106,-277 102.68,-276.05 99.23,-275.03 95.79,-273.99"/>
<polygon fill="midnightblue" stroke="midnightblue" points="96.78,-270.63 86.2,-271.03 94.72,-277.32 96.78,-270.63"/>
</g>
<!-- Node7 -->
<g id="node7" class="node">
<title>Node7</title>
<g id="a_node7"><a xlink:title=" ">
<polygon fill="none" stroke="#bfbfbf" points="148,-252 148,-271 212,-271 212,-252 148,-252"/>
<text text-anchor="middle" x="180" y="-259" font-family="Helvetica,sans-Serif" font-size="10.00">execution</text>
</a>
</g>
</g>
<!-- Node6&#45;&gt;Node7 -->
<g id="edge7" class="edge">
<title>Node6&#45;&gt;Node7</title>
<path fill="none" stroke="midnightblue" d="M286.67,-318.87C265.9,-307.89 229.81,-288.82 205.43,-275.94"/>
<polygon fill="midnightblue" stroke="midnightblue" points="206.88,-272.75 196.4,-271.17 203.61,-278.93 206.88,-272.75"/>
</g>
<!-- Node8 -->
<g id="node8" class="node">
<title>Node8</title>
<g id="a_node8"><a xlink:title=" ">
<polygon fill="none" stroke="#bfbfbf" points="230,-252 230,-271 376,-271 376,-252 230,-252"/>
<text text-anchor="middle" x="303" y="-259" font-family="Helvetica,sans-Serif" font-size="10.00">range/v3/action/action.hpp</text>
</a>
</g>
</g>
<!-- Node6&#45;&gt;Node8 -->
<g id="edge8" class="edge">
<title>Node6&#45;&gt;Node8</title>
<path fill="none" stroke="midnightblue" d="M303,-318.73C303,-309.18 303,-293.62 303,-281.28"/>
<polygon fill="midnightblue" stroke="midnightblue" points="306.5,-281.13 303,-271.13 299.5,-281.13 306.5,-281.13"/>
</g>
<!-- Node9 -->
<g id="node9" class="node">
<title>Node9</title>
<g id="a_node9"><a xlink:title=" ">
<polygon fill="none" stroke="#bfbfbf" points="394,-252 394,-271 546,-271 546,-252 394,-252"/>
<text text-anchor="middle" x="470" y="-259" font-family="Helvetica,sans-Serif" font-size="10.00">range/v3/view/common.hpp</text>
</a>
</g>
</g>
<!-- Node6&#45;&gt;Node9 -->
<g id="edge9" class="edge">
<title>Node6&#45;&gt;Node9</title>
<path fill="none" stroke="midnightblue" d="M325.18,-318.87C354.2,-307.57 405.27,-287.7 438.35,-274.82"/>
<polygon fill="midnightblue" stroke="midnightblue" points="439.95,-277.95 448,-271.06 437.41,-271.43 439.95,-277.95"/>
</g>
<!-- Node6&#45;&gt;Node10 -->
<g id="edge10" class="edge">
<title>Node6&#45;&gt;Node10</title>
<path fill="none" stroke="midnightblue" d="M253.8,-318.96C210.68,-310.36 152.8,-295.69 139,-277 130.82,-265.92 131.43,-257.51 139,-246 211.12,-136.35 366.15,-93.57 464.96,-77.09"/>
<polygon fill="midnightblue" stroke="midnightblue" points="465.62,-80.53 474.94,-75.48 464.51,-73.62 465.62,-80.53"/>
</g>
<!-- Node11&#45;&gt;Node5 -->
<g id="edge13" class="edge">
<title>Node11&#45;&gt;Node5</title>
<path fill="none" stroke="midnightblue" d="M925.92,-313.35C952.5,-295.83 1000.18,-265.87 1044,-246 1157.11,-194.7 1299.47,-154.17 1363.31,-137.18"/>
<polygon fill="midnightblue" stroke="midnightblue" points="1364.45,-140.5 1373.23,-134.56 1362.67,-133.73 1364.45,-140.5"/>
</g>
<!-- Node12 -->
<g id="node12" class="node">
<title>Node12</title>
<g id="a_node12"><a xlink:title=" ">
<polygon fill="none" stroke="#bfbfbf" points="746.5,-252 746.5,-271 793.5,-271 793.5,-252 746.5,-252"/>
<text text-anchor="middle" x="770" y="-259" font-family="Helvetica,sans-Serif" font-size="10.00">queue</text>
</a>
</g>
</g>
<!-- Node11&#45;&gt;Node12 -->
<g id="edge12" class="edge">
<title>Node11&#45;&gt;Node12</title>
<path fill="none" stroke="midnightblue" d="M875.71,-313.4C852.23,-302.09 819.56,-286.36 796.77,-275.39"/>
<polygon fill="midnightblue" stroke="midnightblue" points="798.2,-272.19 787.67,-271.01 795.16,-278.5 798.2,-272.19"/>
</g>
<!-- Node13 -->
<g id="node13" class="node">
<title>Node13</title>
<g id="a_node13"><a xlink:title=" ">
<polygon fill="none" stroke="#bfbfbf" points="811.5,-252 811.5,-271 958.5,-271 958.5,-252 811.5,-252"/>
<text text-anchor="middle" x="885" y="-259" font-family="Helvetica,sans-Serif" font-size="10.00">range/v3/range/access.hpp</text>
</a>
</g>
</g>
<!-- Node11&#45;&gt;Node13 -->
<g id="edge14" class="edge">
<title>Node11&#45;&gt;Node13</title>
<path fill="none" stroke="midnightblue" d="M900.66,-313.4C897.73,-303.86 893.83,-291.18 890.65,-280.86"/>
<polygon fill="midnightblue" stroke="midnightblue" points="893.96,-279.72 887.68,-271.19 887.27,-281.78 893.96,-279.72"/>
</g>
<!-- Node14 -->
<g id="node14" class="node">
<title>Node14</title>
<g id="a_node14"><a xlink:title=" ">
<polygon fill="none" stroke="#bfbfbf" points="564,-252 564,-271 728,-271 728,-252 564,-252"/>
<text text-anchor="middle" x="646" y="-259" font-family="Helvetica,sans-Serif" font-size="10.00">range/v3/range/primitives.hpp</text>
</a>
</g>
</g>
<!-- Node11&#45;&gt;Node14 -->
<g id="edge15" class="edge">
<title>Node11&#45;&gt;Node14</title>
<path fill="none" stroke="midnightblue" d="M849.12,-313.48C801.38,-301.5 733.67,-284.5 689.78,-273.49"/>
<polygon fill="midnightblue" stroke="midnightblue" points="690.53,-270.07 679.98,-271.03 688.83,-276.86 690.53,-270.07"/>
</g>
<!-- Node15 -->
<g id="node15" class="node">
<title>Node15</title>
<g id="a_node15"><a xlink:title=" ">
<polygon fill="none" stroke="#bfbfbf" points="1053.5,-252 1053.5,-271 1216.5,-271 1216.5,-252 1053.5,-252"/>
<text text-anchor="middle" x="1135" y="-259" font-family="Helvetica,sans-Serif" font-size="10.00">range/v3/view/enumerate.hpp</text>
</a>
</g>
</g>
<!-- Node11&#45;&gt;Node15 -->
<g id="edge16" class="edge">
<title>Node11&#45;&gt;Node15</title>
<path fill="none" stroke="midnightblue" d="M954.62,-313.48C996.57,-301.62 1055.89,-284.86 1094.88,-273.84"/>
<polygon fill="midnightblue" stroke="midnightblue" points="1096.15,-277.12 1104.82,-271.03 1094.25,-270.38 1096.15,-277.12"/>
</g>
<!-- Node16&#45;&gt;Node5 -->
<g id="edge20" class="edge">
<title>Node16&#45;&gt;Node5</title>
<path fill="none" stroke="midnightblue" d="M1400.63,-325.04C1365.93,-320.2 1324.43,-307.78 1302,-277 1267.46,-229.6 1337.87,-169.95 1375.45,-142.95"/>
<polygon fill="midnightblue" stroke="midnightblue" points="1377.61,-145.72 1383.79,-137.11 1373.59,-139.98 1377.61,-145.72"/>
</g>
<!-- Node16&#45;&gt;Node10 -->
<g id="edge40" class="edge">
<title>Node16&#45;&gt;Node10</title>
<path fill="none" stroke="midnightblue" d="M1403.5,-313.46C1369.91,-304.37 1326.46,-291.53 1289,-277 1259.53,-265.57 1254.63,-257.01 1225,-246 1001.21,-162.82 722.14,-101.22 607.22,-77.58"/>
<polygon fill="midnightblue" stroke="midnightblue" points="607.77,-74.12 597.27,-75.55 606.37,-80.98 607.77,-74.12"/>
</g>
<!-- Node16&#45;&gt;Node15 -->
<g id="edge38" class="edge">
<title>Node16&#45;&gt;Node15</title>
<path fill="none" stroke="midnightblue" d="M1400.7,-315.8C1340.2,-303.67 1246.42,-284.85 1187.97,-273.13"/>
<polygon fill="midnightblue" stroke="midnightblue" points="1188.33,-269.63 1177.84,-271.09 1186.95,-276.49 1188.33,-269.63"/>
</g>
<!-- Node17 -->
<g id="node17" class="node">
<title>Node17</title>
<g id="a_node17"><a xlink:title=" ">
<polygon fill="none" stroke="#bfbfbf" points="1793,-185 1793,-204 1843,-204 1843,-185 1793,-185"/>
<text text-anchor="middle" x="1818" y="-192" font-family="Helvetica,sans-Serif" font-size="10.00">cstdint</text>
</a>
</g>
</g>
<!-- Node16&#45;&gt;Node17 -->
<g id="edge18" class="edge">
<title>Node16&#45;&gt;Node17</title>
<path fill="none" stroke="midnightblue" d="M1517.32,-318.57C1600.12,-305.74 1742.91,-282.96 1753,-277 1778.87,-261.71 1798.53,-231.96 1809.15,-212.95"/>
<polygon fill="midnightblue" stroke="midnightblue" points="1812.24,-214.59 1813.86,-204.12 1806.07,-211.29 1812.24,-214.59"/>
</g>
<!-- Node18 -->
<g id="node18" class="node">
<title>Node18</title>
<g id="a_node18"><a xlink:title=" ">
<polygon fill="none" stroke="#bfbfbf" points="1460.5,-252 1460.5,-271 1501.5,-271 1501.5,-252 1460.5,-252"/>
<text text-anchor="middle" x="1481" y="-259" font-family="Helvetica,sans-Serif" font-size="10.00">tuple</text>
</a>
</g>
</g>
<!-- Node16&#45;&gt;Node18 -->
<g id="edge19" class="edge">
<title>Node16&#45;&gt;Node18</title>
<path fill="none" stroke="midnightblue" d="M1463.77,-313.4C1467,-303.86 1471.29,-291.18 1474.79,-280.86"/>
<polygon fill="midnightblue" stroke="midnightblue" points="1478.17,-281.79 1478.06,-271.19 1471.54,-279.54 1478.17,-281.79"/>
</g>
<!-- Node19 -->
<g id="node19" class="node">
<title>Node19</title>
<g id="a_node19"><a xlink:href="linear__grid_8hpp.html" target="_top" xlink:title="Concepts and abstract implementations of linear (ie. contiguous storage) grids.">
<polygon fill="none" stroke="black" points="1634,-246.5 1634,-276.5 1744,-276.5 1744,-246.5 1634,-246.5"/>
<text text-anchor="start" x="1642" y="-264.5" font-family="Helvetica,sans-Serif" font-size="10.00">beluga/sensor/data</text>
<text text-anchor="middle" x="1689" y="-253.5" font-family="Helvetica,sans-Serif" font-size="10.00">/linear_grid.hpp</text>
</a>
</g>
</g>
<!-- Node16&#45;&gt;Node19 -->
<g id="edge21" class="edge">
<title>Node16&#45;&gt;Node19</title>
<path fill="none" stroke="midnightblue" d="M1508.62,-313.48C1544.02,-303.47 1591.79,-289.97 1629.28,-279.38"/>
<polygon fill="midnightblue" stroke="midnightblue" points="1630.4,-282.7 1639.07,-276.61 1628.49,-275.96 1630.4,-282.7"/>
</g>
<!-- Node24 -->
<g id="node24" class="node">
<title>Node24</title>
<g id="a_node24"><a xlink:title=" ">
<polygon fill="none" stroke="#bfbfbf" points="1686.5,-56.5 1686.5,-75.5 1755.5,-75.5 1755.5,-56.5 1686.5,-56.5"/>
<text text-anchor="middle" x="1721" y="-63.5" font-family="Helvetica,sans-Serif" font-size="10.00">Eigen/Core</text>
</a>
</g>
</g>
<!-- Node16&#45;&gt;Node24 -->
<g id="edge41" class="edge">
<title>Node16&#45;&gt;Node24</title>
<path fill="none" stroke="midnightblue" d="M1488.61,-313.5C1539.73,-288.92 1641.8,-237.98 1670,-210 1694.3,-185.89 1696.5,-175.24 1708,-143 1714.73,-124.13 1718.04,-101.35 1719.62,-85.68"/>
<polygon fill="midnightblue" stroke="midnightblue" points="1723.11,-85.95 1720.49,-75.68 1716.14,-85.34 1723.11,-85.95"/>
</g>
<!-- Node27 -->
<g id="node27" class="node">
<title>Node27</title>
<g id="a_node27"><a xlink:title=" ">
<polygon fill="none" stroke="#bfbfbf" points="1311.5,-252 1311.5,-271 1442.5,-271 1442.5,-252 1311.5,-252"/>
<text text-anchor="middle" x="1377" y="-259" font-family="Helvetica,sans-Serif" font-size="10.00">range/v3/view/filter.hpp</text>
</a>
</g>
</g>
<!-- Node16&#45;&gt;Node27 -->
<g id="edge39" class="edge">
<title>Node16&#45;&gt;Node27</title>
<path fill="none" stroke="midnightblue" d="M1441.21,-313.4C1427.92,-302.86 1409.77,-288.48 1396.16,-277.69"/>
<polygon fill="midnightblue" stroke="midnightblue" points="1397.98,-274.66 1387.97,-271.19 1393.63,-280.15 1397.98,-274.66"/>
</g>
<!-- Node19&#45;&gt;Node5 -->
<g id="edge24" class="edge">
<title>Node19&#45;&gt;Node5</title>
<path fill="none" stroke="midnightblue" d="M1636.1,-246.44C1607.42,-237.81 1571.83,-225.45 1542,-210 1521.08,-199.17 1519.18,-191.16 1499,-179 1475.18,-164.65 1446.73,-150.82 1425.94,-141.27"/>
<polygon fill="midnightblue" stroke="midnightblue" points="1427.23,-138.02 1416.68,-137.07 1424.34,-144.39 1427.23,-138.02"/>
</g>
<!-- Node19&#45;&gt;Node17 -->
<g id="edge22" class="edge">
<title>Node19&#45;&gt;Node17</title>
<path fill="none" stroke="midnightblue" d="M1716.99,-246.4C1739.33,-235.14 1770.37,-219.5 1792.13,-208.54"/>
<polygon fill="midnightblue" stroke="midnightblue" points="1793.76,-211.63 1801.12,-204.01 1790.61,-205.38 1793.76,-211.63"/>
</g>
<!-- Node20 -->
<g id="node20" class="node">
<title>Node20</title>
<g id="a_node20"><a xlink:title=" ">
<polygon fill="none" stroke="#bfbfbf" points="1643,-118 1643,-137 1699,-137 1699,-118 1643,-118"/>
<text text-anchor="middle" x="1671" y="-125" font-family="Helvetica,sans-Serif" font-size="10.00">optional</text>
</a>
</g>
</g>
<!-- Node19&#45;&gt;Node20 -->
<g id="edge23" class="edge">
<title>Node19&#45;&gt;Node20</title>
<path fill="none" stroke="midnightblue" d="M1687.07,-246.37C1683.8,-222.4 1677.17,-173.75 1673.53,-147.06"/>
<polygon fill="midnightblue" stroke="midnightblue" points="1676.99,-146.53 1672.17,-137.1 1670.06,-147.48 1676.99,-146.53"/>
</g>
<!-- Node21 -->
<g id="node21" class="node">
<title>Node21</title>
<g id="a_node21"><a xlink:href="dense__grid_8hpp.html" target="_top" xlink:title="Concepts and abstract implementations of dense grids.">
<polygon fill="none" stroke="black" points="1551,-179.5 1551,-209.5 1661,-209.5 1661,-179.5 1551,-179.5"/>
<text text-anchor="start" x="1559" y="-197.5" font-family="Helvetica,sans-Serif" font-size="10.00">beluga/sensor/data</text>
<text text-anchor="middle" x="1606" y="-186.5" font-family="Helvetica,sans-Serif" font-size="10.00">/dense_grid.hpp</text>
</a>
</g>
</g>
<!-- Node19&#45;&gt;Node21 -->
<g id="edge25" class="edge">
<title>Node19&#45;&gt;Node21</title>
<path fill="none" stroke="midnightblue" d="M1670.99,-246.4C1659.57,-237.45 1644.61,-225.74 1631.92,-215.8"/>
<polygon fill="midnightblue" stroke="midnightblue" points="1634.01,-212.99 1623.97,-209.58 1629.69,-218.5 1634.01,-212.99"/>
</g>
<!-- Node19&#45;&gt;Node24 -->
<g id="edge37" class="edge">
<title>Node19&#45;&gt;Node24</title>
<path fill="none" stroke="midnightblue" d="M1710.3,-246.38C1721.73,-237.46 1734.73,-224.84 1741,-210 1757.96,-169.88 1750.04,-154.61 1741,-112 1739,-102.59 1734.9,-92.76 1730.93,-84.7"/>
<polygon fill="midnightblue" stroke="midnightblue" points="1733.89,-82.81 1726.13,-75.59 1727.69,-86.07 1733.89,-82.81"/>
</g>
<!-- Node21&#45;&gt;Node5 -->
<g id="edge27" class="edge">
<title>Node21&#45;&gt;Node5</title>
<path fill="none" stroke="midnightblue" d="M1550.69,-179.68C1515.71,-170.44 1469.76,-157.37 1430,-143 1428.34,-142.4 1426.65,-141.76 1424.95,-141.09"/>
<polygon fill="midnightblue" stroke="midnightblue" points="1425.9,-137.69 1415.32,-137.07 1423.21,-144.15 1425.9,-137.69"/>
</g>
<!-- Node21&#45;&gt;Node20 -->
<g id="edge26" class="edge">
<title>Node21&#45;&gt;Node20</title>
<path fill="none" stroke="midnightblue" d="M1620.1,-179.4C1630.44,-169.06 1644.48,-155.02 1655.19,-144.31"/>
<polygon fill="midnightblue" stroke="midnightblue" points="1657.71,-146.74 1662.31,-137.19 1652.76,-141.79 1657.71,-146.74"/>
</g>
<!-- Node22 -->
<g id="node22" class="node">
<title>Node22</title>
<g id="a_node22"><a xlink:href="regular__grid_8hpp.html" target="_top" xlink:title="Concepts and abstract implementations of regular grids.">
<polygon fill="none" stroke="black" points="1439,-112.5 1439,-142.5 1549,-142.5 1549,-112.5 1439,-112.5"/>
<text text-anchor="start" x="1447" y="-130.5" font-family="Helvetica,sans-Serif" font-size="10.00">beluga/sensor/data</text>
<text text-anchor="middle" x="1494" y="-119.5" font-family="Helvetica,sans-Serif" font-size="10.00">/regular_grid.hpp</text>
</a>
</g>
</g>
<!-- Node21&#45;&gt;Node22 -->
<g id="edge28" class="edge">
<title>Node21&#45;&gt;Node22</title>
<path fill="none" stroke="midnightblue" d="M1581.7,-179.4C1565.7,-170.11 1544.56,-157.84 1527.04,-147.67"/>
<polygon fill="midnightblue" stroke="midnightblue" points="1528.66,-144.57 1518.25,-142.58 1525.15,-150.62 1528.66,-144.57"/>
</g>
<!-- Node21&#45;&gt;Node24 -->
<g id="edge35" class="edge">
<title>Node21&#45;&gt;Node24</title>
<path fill="none" stroke="midnightblue" d="M1607.63,-179.23C1610.32,-161.57 1617.18,-131.48 1634,-112 1646.82,-97.15 1665.75,-86.55 1682.68,-79.38"/>
<polygon fill="midnightblue" stroke="midnightblue" points="1684.35,-82.48 1692.36,-75.55 1681.78,-75.97 1684.35,-82.48"/>
</g>
<!-- Node25 -->
<g id="node25" class="node">
<title>Node25</title>
<g id="a_node25"><a xlink:href="eigen__compatibility_8hpp_source.html" target="_top" xlink:title=" ">
<polygon fill="none" stroke="black" points="1492.5,-56.5 1492.5,-75.5 1661.5,-75.5 1661.5,-56.5 1492.5,-56.5"/>
<text text-anchor="middle" x="1577" y="-63.5" font-family="Helvetica,sans-Serif" font-size="10.00">beluga/eigen_compatibility.hpp</text>
</a>
</g>
</g>
<!-- Node21&#45;&gt;Node25 -->
<g id="edge36" class="edge">
<title>Node21&#45;&gt;Node25</title>
<path fill="none" stroke="midnightblue" d="M1602.79,-179.48C1597.54,-156.62 1587.15,-111.3 1581.29,-85.71"/>
<polygon fill="midnightblue" stroke="midnightblue" points="1584.66,-84.75 1579.01,-75.79 1577.84,-86.32 1584.66,-84.75"/>
</g>
<!-- Node22&#45;&gt;Node3 -->
<g id="edge29" class="edge">
<title>Node22&#45;&gt;Node3</title>
<path fill="none" stroke="midnightblue" d="M1438.72,-113.98C1435.43,-113.29 1432.18,-112.63 1429,-112 1348.2,-96 1252.64,-80.28 1202.91,-72.34"/>
<polygon fill="midnightblue" stroke="midnightblue" points="1203.16,-68.83 1192.73,-70.72 1202.06,-75.74 1203.16,-68.83"/>
</g>
<!-- Node22&#45;&gt;Node10 -->
<g id="edge31" class="edge">
<title>Node22&#45;&gt;Node10</title>
<path fill="none" stroke="midnightblue" d="M1438.8,-113.52C1435.49,-112.95 1432.21,-112.44 1429,-112 1143.81,-73.14 802.17,-67.14 643.34,-66.66"/>
<polygon fill="midnightblue" stroke="midnightblue" points="643.15,-63.16 633.15,-66.63 643.14,-70.16 643.15,-63.16"/>
</g>
<!-- Node23 -->
<g id="node23" class="node">
<title>Node23</title>
<g id="a_node23"><a xlink:href="ciabatta_8hpp_source.html" target="_top" xlink:title=" ">
<polygon fill="none" stroke="black" points="1354,-56.5 1354,-75.5 1474,-75.5 1474,-56.5 1354,-56.5"/>
<text text-anchor="middle" x="1414" y="-63.5" font-family="Helvetica,sans-Serif" font-size="10.00">ciabatta/ciabatta.hpp</text>
</a>
</g>
</g>
<!-- Node22&#45;&gt;Node23 -->
<g id="edge30" class="edge">
<title>Node22&#45;&gt;Node23</title>
<path fill="none" stroke="midnightblue" d="M1475.04,-112.4C1462.58,-103.13 1446.3,-91.03 1433.69,-81.65"/>
<polygon fill="midnightblue" stroke="midnightblue" points="1435.75,-78.82 1425.64,-75.66 1431.58,-84.43 1435.75,-78.82"/>
</g>
<!-- Node22&#45;&gt;Node24 -->
<g id="edge32" class="edge">
<title>Node22&#45;&gt;Node24</title>
<path fill="none" stroke="midnightblue" d="M1547.51,-112.47C1587.53,-101.99 1641.51,-87.84 1678.57,-78.12"/>
<polygon fill="midnightblue" stroke="midnightblue" points="1679.76,-81.43 1688.55,-75.51 1677.99,-74.66 1679.76,-81.43"/>
</g>
<!-- Node22&#45;&gt;Node25 -->
<g id="edge33" class="edge">
<title>Node22&#45;&gt;Node25</title>
<path fill="none" stroke="midnightblue" d="M1513.67,-112.4C1526.6,-103.13 1543.49,-91.03 1556.57,-81.65"/>
<polygon fill="midnightblue" stroke="midnightblue" points="1558.83,-84.33 1564.92,-75.66 1554.76,-78.64 1558.83,-84.33"/>
</g>
<!-- Node26 -->
<g id="node26" class="node">
<title>Node26</title>
<g id="a_node26"><a xlink:title=" ">
<polygon fill="none" stroke="#bfbfbf" points="1538.5,-0.5 1538.5,-19.5 1615.5,-19.5 1615.5,-0.5 1538.5,-0.5"/>
<text text-anchor="middle" x="1577" y="-7.5" font-family="Helvetica,sans-Serif" font-size="10.00">Eigen/Dense</text>
</a>
</g>
</g>
<!-- Node25&#45;&gt;Node26 -->
<g id="edge34" class="edge">
<title>Node25&#45;&gt;Node26</title>
<path fill="none" stroke="midnightblue" d="M1577,-56.08C1577,-49.01 1577,-38.86 1577,-29.99"/>
<polygon fill="midnightblue" stroke="midnightblue" points="1580.5,-29.75 1577,-19.75 1573.5,-29.75 1580.5,-29.75"/>
</g>
<!-- Node28&#45;&gt;Node5 -->
<g id="edge45" class="edge">
<title>Node28&#45;&gt;Node5</title>
<path fill="none" stroke="midnightblue" d="M1623.22,-313.29C1616.55,-295.42 1602.89,-264.81 1582,-246 1552.12,-219.09 1533.35,-230.91 1499,-210 1480.38,-198.67 1478,-192.64 1461,-179 1445.93,-166.91 1428.74,-153.36 1415.97,-143.34"/>
<polygon fill="midnightblue" stroke="midnightblue" points="1417.94,-140.44 1407.91,-137.02 1413.63,-145.95 1417.94,-140.44"/>
</g>
<!-- Node28&#45;&gt;Node17 -->
<g id="edge43" class="edge">
<title>Node28&#45;&gt;Node17</title>
<path fill="none" stroke="midnightblue" d="M1683.15,-314.98C1686.15,-314.31 1689.11,-313.65 1692,-313 1764.4,-296.8 1808.54,-334.84 1855,-277 1871.12,-256.93 1850.89,-228.72 1834.6,-211.3"/>
<polygon fill="midnightblue" stroke="midnightblue" points="1837.05,-208.79 1827.54,-204.12 1832.06,-213.7 1837.05,-208.79"/>
</g>
<!-- Node28&#45;&gt;Node19 -->
<g id="edge46" class="edge">
<title>Node28&#45;&gt;Node19</title>
<path fill="none" stroke="midnightblue" d="M1641.24,-313.4C1649.31,-304.79 1659.79,-293.63 1668.87,-283.94"/>
<polygon fill="midnightblue" stroke="midnightblue" points="1671.5,-286.26 1675.79,-276.58 1666.39,-281.47 1671.5,-286.26"/>
</g>
<!-- Node29 -->
<g id="node29" class="node">
<title>Node29</title>
<g id="a_node29"><a xlink:title=" ">
<polygon fill="none" stroke="#bfbfbf" points="1800.5,-252 1800.5,-271 1845.5,-271 1845.5,-252 1800.5,-252"/>
<text text-anchor="middle" x="1823" y="-259" font-family="Helvetica,sans-Serif" font-size="10.00">utility</text>
</a>
</g>
</g>
<!-- Node28&#45;&gt;Node29 -->
<g id="edge44" class="edge">
<title>Node28&#45;&gt;Node29</title>
<path fill="none" stroke="midnightblue" d="M1674.58,-313.47C1706.19,-303.74 1748.82,-290.21 1786,-277 1788.11,-276.25 1790.29,-275.46 1792.47,-274.64"/>
<polygon fill="midnightblue" stroke="midnightblue" points="1793.86,-277.86 1801.96,-271.02 1791.37,-271.32 1793.86,-277.86"/>
</g>
</g>
</svg>
