<?xml version="1.0" encoding="UTF-8" standalone="no"?>
<!DOCTYPE svg PUBLIC "-//W3C//DTD SVG 1.1//EN"
 "http://www.w3.org/Graphics/SVG/1.1/DTD/svg11.dtd">
<!-- Generated by graphviz version 2.43.0 (0)
 -->
<!-- Title: /home/runner/work/beluga/beluga/beluga/include/beluga/sensor/likelihood_field_prob_model.hpp Pages: 1 -->
<svg width="1939pt" height="519pt"
 viewBox="0.00 0.00 1938.50 519.00" xmlns="http://www.w3.org/2000/svg" xmlns:xlink="http://www.w3.org/1999/xlink">
<g id="graph0" class="graph" transform="scale(1 1) rotate(0) translate(4 515)">
<title>/home/runner/work/beluga/beluga/beluga/include/beluga/sensor/likelihood_field_prob_model.hpp</title>
<!-- Node1 -->
<g id="node1" class="node">
<title>Node1</title>
<g id="a_node1"><a xlink:title="Implementation of a likelihood field prob sensor model for range finders.">
<polygon fill="#bfbfbf" stroke="black" points="1765,-458.5 1765,-510.5 1910,-510.5 1910,-458.5 1765,-458.5"/>
<text text-anchor="start" x="1773" y="-498.5" font-family="Helvetica,sans-Serif" font-size="10.00">/home/runner/work/beluga</text>
<text text-anchor="start" x="1773" y="-487.5" font-family="Helvetica,sans-Serif" font-size="10.00">/beluga/beluga/include</text>
<text text-anchor="start" x="1773" y="-476.5" font-family="Helvetica,sans-Serif" font-size="10.00">/beluga/sensor/likelihood</text>
<text text-anchor="middle" x="1837.5" y="-465.5" font-family="Helvetica,sans-Serif" font-size="10.00">_field_prob_model.hpp</text>
</a>
</g>
</g>
<!-- Node2 -->
<g id="node2" class="node">
<title>Node2</title>
<g id="a_node2"><a xlink:title=" ">
<polygon fill="none" stroke="#bfbfbf" points="1754.5,-263 1754.5,-282 1818.5,-282 1818.5,-263 1754.5,-263"/>
<text text-anchor="middle" x="1786.5" y="-270" font-family="Helvetica,sans-Serif" font-size="10.00">algorithm</text>
</a>
</g>
</g>
<!-- Node1&#45;&gt;Node2 -->
<g id="edge1" class="edge">
<title>Node1&#45;&gt;Node2</title>
<path fill="none" stroke="midnightblue" d="M1853.64,-458.35C1872.51,-425.44 1898.22,-366.93 1873.5,-324 1863.21,-306.12 1843.89,-293.99 1826.07,-286.11"/>
<polygon fill="midnightblue" stroke="midnightblue" points="1826.97,-282.7 1816.39,-282.16 1824.32,-289.18 1826.97,-282.7"/>
</g>
<!-- Node3 -->
<g id="node3" class="node">
<title>Node3</title>
<g id="a_node3"><a xlink:href="likelihood__field__model__base_8hpp.html" target="_top" xlink:title="Implementation of a likelihood field common sensor model for range finders.">
<polygon fill="none" stroke="black" points="1465,-391.5 1465,-421.5 1600,-421.5 1600,-391.5 1465,-391.5"/>
<text text-anchor="start" x="1473" y="-409.5" font-family="Helvetica,sans-Serif" font-size="10.00">beluga/sensor/likelihood</text>
<text text-anchor="middle" x="1532.5" y="-398.5" font-family="Helvetica,sans-Serif" font-size="10.00">_field_model_base.hpp</text>
</a>
</g>
</g>
<!-- Node1&#45;&gt;Node3 -->
<g id="edge2" class="edge">
<title>Node1&#45;&gt;Node3</title>
<path fill="none" stroke="midnightblue" d="M1764.83,-465.39C1714.39,-452.82 1647.72,-436.21 1598.74,-424.01"/>
<polygon fill="midnightblue" stroke="midnightblue" points="1599.43,-420.57 1588.88,-421.55 1597.74,-427.36 1599.43,-420.57"/>
</g>
<!-- Node10 -->
<g id="node10" class="node">
<title>Node10</title>
<g id="a_node10"><a xlink:title=" ">
<polygon fill="none" stroke="#bfbfbf" points="734,-129 734,-148 781,-148 781,-129 734,-129"/>
<text text-anchor="middle" x="757.5" y="-136" font-family="Helvetica,sans-Serif" font-size="10.00">vector</text>
</a>
</g>
</g>
<!-- Node1&#45;&gt;Node10 -->
<g id="edge52" class="edge">
<title>Node1&#45;&gt;Node10</title>
<path fill="none" stroke="midnightblue" d="M1764.75,-482.18C1511.15,-476.64 681.5,-450.14 681.5,-340.5 681.5,-340.5 681.5,-340.5 681.5,-271.5 681.5,-224.19 718.62,-178.54 740.97,-155.33"/>
<polygon fill="midnightblue" stroke="midnightblue" points="743.61,-157.65 748.18,-148.09 738.64,-152.71 743.61,-157.65"/>
</g>
<!-- Node21 -->
<g id="node21" class="node">
<title>Node21</title>
<g id="a_node21"><a xlink:title=" ">
<polygon fill="none" stroke="#bfbfbf" points="1823,-62 1823,-81 1870,-81 1870,-62 1823,-62"/>
<text text-anchor="middle" x="1846.5" y="-69" font-family="Helvetica,sans-Serif" font-size="10.00">cmath</text>
</a>
</g>
</g>
<!-- Node1&#45;&gt;Node21 -->
<g id="edge50" class="edge">
<title>Node1&#45;&gt;Node21</title>
<path fill="none" stroke="midnightblue" d="M1866.67,-458.49C1893.94,-432.17 1930.5,-388.03 1930.5,-340.5 1930.5,-340.5 1930.5,-340.5 1930.5,-204.5 1930.5,-155.93 1889.53,-110.82 1864.81,-88.03"/>
<polygon fill="midnightblue" stroke="midnightblue" points="1866.93,-85.22 1857.14,-81.18 1862.27,-90.45 1866.93,-85.22"/>
</g>
<!-- Node30 -->
<g id="node30" class="node">
<title>Node30</title>
<g id="a_node30"><a xlink:title=" ">
<polygon fill="none" stroke="#bfbfbf" points="1810.5,-330 1810.5,-349 1864.5,-349 1864.5,-330 1810.5,-330"/>
<text text-anchor="middle" x="1837.5" y="-337" font-family="Helvetica,sans-Serif" font-size="10.00">random</text>
</a>
</g>
</g>
<!-- Node1&#45;&gt;Node30 -->
<g id="edge51" class="edge">
<title>Node1&#45;&gt;Node30</title>
<path fill="none" stroke="midnightblue" d="M1837.5,-458.26C1837.5,-429.89 1837.5,-384.5 1837.5,-359.15"/>
<polygon fill="midnightblue" stroke="midnightblue" points="1841,-359.05 1837.5,-349.05 1834,-359.05 1841,-359.05"/>
</g>
<!-- Node3&#45;&gt;Node2 -->
<g id="edge3" class="edge">
<title>Node3&#45;&gt;Node2</title>
<path fill="none" stroke="midnightblue" d="M1600.04,-399.03C1639.33,-392.66 1688.28,-380.03 1725.5,-355 1749.62,-338.78 1767.92,-309.77 1777.93,-291.09"/>
<polygon fill="midnightblue" stroke="midnightblue" points="1781.06,-292.65 1782.51,-282.16 1774.83,-289.46 1781.06,-292.65"/>
</g>
<!-- Node4 -->
<g id="node4" class="node">
<title>Node4</title>
<g id="a_node4"><a xlink:href="overlay_8hpp.html" target="_top" xlink:title="Implementation of the overlay range adaptor object.">
<polygon fill="none" stroke="black" points="1459,-330 1459,-349 1606,-349 1606,-330 1459,-330"/>
<text text-anchor="middle" x="1532.5" y="-337" font-family="Helvetica,sans-Serif" font-size="10.00">beluga/actions/overlay.hpp</text>
</a>
</g>
</g>
<!-- Node3&#45;&gt;Node4 -->
<g id="edge4" class="edge">
<title>Node3&#45;&gt;Node4</title>
<path fill="none" stroke="midnightblue" d="M1532.5,-391.4C1532.5,-382.06 1532.5,-369.71 1532.5,-359.52"/>
<polygon fill="midnightblue" stroke="midnightblue" points="1536,-359.19 1532.5,-349.19 1529,-359.19 1536,-359.19"/>
</g>
<!-- Node8 -->
<g id="node8" class="node">
<title>Node8</title>
<g id="a_node8"><a xlink:href="distance__map_8hpp.html" target="_top" xlink:title="Implementation of algorithm to calculate distance from obstacles.">
<polygon fill="none" stroke="black" points="325.5,-324.5 325.5,-354.5 469.5,-354.5 469.5,-324.5 325.5,-324.5"/>
<text text-anchor="start" x="333.5" y="-342.5" font-family="Helvetica,sans-Serif" font-size="10.00">beluga/algorithm/distance</text>
<text text-anchor="middle" x="397.5" y="-331.5" font-family="Helvetica,sans-Serif" font-size="10.00">_map.hpp</text>
</a>
</g>
</g>
<!-- Node3&#45;&gt;Node8 -->
<g id="edge9" class="edge">
<title>Node3&#45;&gt;Node8</title>
<path fill="none" stroke="midnightblue" d="M1464.9,-401.63C1267.93,-390.35 694.87,-357.53 480.09,-345.23"/>
<polygon fill="midnightblue" stroke="midnightblue" points="480.01,-341.72 469.83,-344.64 479.61,-348.71 480.01,-341.72"/>
</g>
<!-- Node3&#45;&gt;Node10 -->
<g id="edge49" class="edge">
<title>Node3&#45;&gt;Node10</title>
<path fill="none" stroke="midnightblue" d="M1464.95,-405.45C1314.4,-404.56 955.76,-397.86 843.5,-355 797.91,-337.59 780.61,-330.43 756.5,-288 733.01,-246.66 743.89,-187.8 751.8,-158.13"/>
<polygon fill="midnightblue" stroke="midnightblue" points="755.23,-158.86 754.61,-148.29 748.5,-156.94 755.23,-158.86"/>
</g>
<!-- Node14 -->
<g id="node14" class="node">
<title>Node14</title>
<g id="a_node14"><a xlink:href="occupancy__grid_8hpp.html" target="_top" xlink:title="Concepts and abstract implementations of occupancy grids.">
<polygon fill="none" stroke="black" points="852.5,-324.5 852.5,-354.5 968.5,-354.5 968.5,-324.5 852.5,-324.5"/>
<text text-anchor="start" x="860.5" y="-342.5" font-family="Helvetica,sans-Serif" font-size="10.00">beluga/sensor/data</text>
<text text-anchor="middle" x="910.5" y="-331.5" font-family="Helvetica,sans-Serif" font-size="10.00">/occupancy_grid.hpp</text>
</a>
</g>
</g>
<!-- Node3&#45;&gt;Node14 -->
<g id="edge15" class="edge">
<title>Node3&#45;&gt;Node14</title>
<path fill="none" stroke="midnightblue" d="M1464.75,-398.42C1345.28,-385.94 1098.48,-360.14 978.69,-347.63"/>
<polygon fill="midnightblue" stroke="midnightblue" points="978.86,-344.12 968.55,-346.57 978.13,-351.09 978.86,-344.12"/>
</g>
<!-- Node3&#45;&gt;Node21 -->
<g id="edge45" class="edge">
<title>Node3&#45;&gt;Node21</title>
<path fill="none" stroke="midnightblue" d="M1600.09,-399.51C1646.05,-393.27 1707.06,-380.59 1755.5,-355 1774.82,-344.79 1817.9,-307.64 1827.5,-288 1859.79,-221.95 1853.81,-130.91 1849.2,-91.72"/>
<polygon fill="midnightblue" stroke="midnightblue" points="1852.61,-90.77 1847.86,-81.3 1845.67,-91.67 1852.61,-90.77"/>
</g>
<!-- Node28 -->
<g id="node28" class="node">
<title>Node28</title>
<g id="a_node28"><a xlink:href="value__grid_8hpp.html" target="_top" xlink:title="Implementation of generic value grid.">
<polygon fill="none" stroke="black" points="1146.5,-324.5 1146.5,-354.5 1256.5,-354.5 1256.5,-324.5 1146.5,-324.5"/>
<text text-anchor="start" x="1154.5" y="-342.5" font-family="Helvetica,sans-Serif" font-size="10.00">beluga/sensor/data</text>
<text text-anchor="middle" x="1201.5" y="-331.5" font-family="Helvetica,sans-Serif" font-size="10.00">/value_grid.hpp</text>
</a>
</g>
</g>
<!-- Node3&#45;&gt;Node28 -->
<g id="edge40" class="edge">
<title>Node3&#45;&gt;Node28</title>
<path fill="none" stroke="midnightblue" d="M1464.87,-393.15C1411.26,-383.23 1334.48,-368.74 1267.5,-355 1267.17,-354.93 1266.83,-354.86 1266.5,-354.79"/>
<polygon fill="midnightblue" stroke="midnightblue" points="1267.08,-351.34 1256.57,-352.72 1265.65,-358.19 1267.08,-351.34"/>
</g>
<!-- Node3&#45;&gt;Node30 -->
<g id="edge46" class="edge">
<title>Node3&#45;&gt;Node30</title>
<path fill="none" stroke="midnightblue" d="M1600.14,-395.45C1653.86,-386.78 1730.63,-372.84 1796.5,-355 1799.47,-354.2 1802.52,-353.28 1805.57,-352.31"/>
<polygon fill="midnightblue" stroke="midnightblue" points="1806.77,-355.6 1815.14,-349.1 1804.54,-348.97 1806.77,-355.6"/>
</g>
<!-- Node31 -->
<g id="node31" class="node">
<title>Node31</title>
<g id="a_node31"><a xlink:title=" ">
<polygon fill="none" stroke="#bfbfbf" points="1276.5,-330 1276.5,-349 1440.5,-349 1440.5,-330 1276.5,-330"/>
<text text-anchor="middle" x="1358.5" y="-337" font-family="Helvetica,sans-Serif" font-size="10.00">range/v3/action/transform.hpp</text>
</a>
</g>
</g>
<!-- Node3&#45;&gt;Node31 -->
<g id="edge47" class="edge">
<title>Node3&#45;&gt;Node31</title>
<path fill="none" stroke="midnightblue" d="M1494.74,-391.4C1463.67,-379.79 1420.11,-363.51 1390.67,-352.52"/>
<polygon fill="midnightblue" stroke="midnightblue" points="1391.87,-349.23 1381.27,-349.01 1389.42,-355.79 1391.87,-349.23"/>
</g>
<!-- Node32 -->
<g id="node32" class="node">
<title>Node32</title>
<g id="a_node32"><a xlink:title=" ">
<polygon fill="none" stroke="#bfbfbf" points="1624.5,-330 1624.5,-349 1716.5,-349 1716.5,-330 1624.5,-330"/>
<text text-anchor="middle" x="1670.5" y="-337" font-family="Helvetica,sans-Serif" font-size="10.00">sophus/se2.hpp</text>
</a>
</g>
</g>
<!-- Node3&#45;&gt;Node32 -->
<g id="edge48" class="edge">
<title>Node3&#45;&gt;Node32</title>
<path fill="none" stroke="midnightblue" d="M1562.44,-391.4C1586.44,-380.09 1619.84,-364.36 1643.13,-353.39"/>
<polygon fill="midnightblue" stroke="midnightblue" points="1644.88,-356.43 1652.44,-349.01 1641.9,-350.1 1644.88,-356.43"/>
</g>
<!-- Node4&#45;&gt;Node2 -->
<g id="edge5" class="edge">
<title>Node4&#45;&gt;Node2</title>
<path fill="none" stroke="midnightblue" d="M1574.48,-329.94C1617.69,-320.8 1686.8,-305.28 1745.5,-288 1748.28,-287.18 1751.16,-286.28 1754.03,-285.34"/>
<polygon fill="midnightblue" stroke="midnightblue" points="1755.32,-288.6 1763.66,-282.07 1753.06,-281.97 1755.32,-288.6"/>
</g>
<!-- Node5 -->
<g id="node5" class="node">
<title>Node5</title>
<g id="a_node5"><a xlink:title=" ">
<polygon fill="none" stroke="#bfbfbf" points="1502.5,-263 1502.5,-282 1566.5,-282 1566.5,-263 1502.5,-263"/>
<text text-anchor="middle" x="1534.5" y="-270" font-family="Helvetica,sans-Serif" font-size="10.00">execution</text>
</a>
</g>
</g>
<!-- Node4&#45;&gt;Node5 -->
<g id="edge6" class="edge">
<title>Node4&#45;&gt;Node5</title>
<path fill="none" stroke="midnightblue" d="M1532.77,-329.73C1533.06,-320.18 1533.54,-304.62 1533.92,-292.28"/>
<polygon fill="midnightblue" stroke="midnightblue" points="1537.43,-292.23 1534.23,-282.13 1530.43,-292.01 1537.43,-292.23"/>
</g>
<!-- Node6 -->
<g id="node6" class="node">
<title>Node6</title>
<g id="a_node6"><a xlink:title=" ">
<polygon fill="none" stroke="#bfbfbf" points="1338.5,-263 1338.5,-282 1484.5,-282 1484.5,-263 1338.5,-263"/>
<text text-anchor="middle" x="1411.5" y="-270" font-family="Helvetica,sans-Serif" font-size="10.00">range/v3/action/action.hpp</text>
</a>
</g>
</g>
<!-- Node4&#45;&gt;Node6 -->
<g id="edge7" class="edge">
<title>Node4&#45;&gt;Node6</title>
<path fill="none" stroke="midnightblue" d="M1516.18,-329.73C1495.68,-318.72 1460.3,-299.71 1436.41,-286.88"/>
<polygon fill="midnightblue" stroke="midnightblue" points="1438.03,-283.78 1427.56,-282.13 1434.71,-289.94 1438.03,-283.78"/>
</g>
<!-- Node7 -->
<g id="node7" class="node">
<title>Node7</title>
<g id="a_node7"><a xlink:title=" ">
<polygon fill="none" stroke="#bfbfbf" points="1584.5,-263 1584.5,-282 1736.5,-282 1736.5,-263 1584.5,-263"/>
<text text-anchor="middle" x="1660.5" y="-270" font-family="Helvetica,sans-Serif" font-size="10.00">range/v3/view/common.hpp</text>
</a>
</g>
</g>
<!-- Node4&#45;&gt;Node7 -->
<g id="edge8" class="edge">
<title>Node4&#45;&gt;Node7</title>
<path fill="none" stroke="midnightblue" d="M1549.5,-329.87C1571.21,-318.84 1608.99,-299.66 1634.37,-286.77"/>
<polygon fill="midnightblue" stroke="midnightblue" points="1636.1,-289.82 1643.43,-282.17 1632.93,-283.57 1636.1,-289.82"/>
</g>
<!-- Node9 -->
<g id="node9" class="node">
<title>Node9</title>
<g id="a_node9"><a xlink:title=" ">
<polygon fill="none" stroke="#bfbfbf" points="348,-263 348,-282 395,-282 395,-263 348,-263"/>
<text text-anchor="middle" x="371.5" y="-270" font-family="Helvetica,sans-Serif" font-size="10.00">queue</text>
</a>
</g>
</g>
<!-- Node8&#45;&gt;Node9 -->
<g id="edge10" class="edge">
<title>Node8&#45;&gt;Node9</title>
<path fill="none" stroke="midnightblue" d="M391.86,-324.4C388.01,-314.76 382.87,-301.91 378.71,-291.54"/>
<polygon fill="midnightblue" stroke="midnightblue" points="381.94,-290.18 374.98,-282.19 375.44,-292.78 381.94,-290.18"/>
</g>
<!-- Node8&#45;&gt;Node10 -->
<g id="edge11" class="edge">
<title>Node8&#45;&gt;Node10</title>
<path fill="none" stroke="midnightblue" d="M401.84,-324.42C408.07,-306.42 421.2,-275.37 442.5,-257 527.11,-184.03 661.31,-154.49 723.63,-144.23"/>
<polygon fill="midnightblue" stroke="midnightblue" points="724.37,-147.65 733.71,-142.64 723.28,-140.74 724.37,-147.65"/>
</g>
<!-- Node11 -->
<g id="node11" class="node">
<title>Node11</title>
<g id="a_node11"><a xlink:title=" ">
<polygon fill="none" stroke="#bfbfbf" points="0,-263 0,-282 147,-282 147,-263 0,-263"/>
<text text-anchor="middle" x="73.5" y="-270" font-family="Helvetica,sans-Serif" font-size="10.00">range/v3/range/access.hpp</text>
</a>
</g>
</g>
<!-- Node8&#45;&gt;Node11 -->
<g id="edge12" class="edge">
<title>Node8&#45;&gt;Node11</title>
<path fill="none" stroke="midnightblue" d="M327.6,-324.48C267,-312.32 180.66,-295 125.86,-284.01"/>
<polygon fill="midnightblue" stroke="midnightblue" points="126.51,-280.56 116.01,-282.03 125.13,-287.43 126.51,-280.56"/>
</g>
<!-- Node12 -->
<g id="node12" class="node">
<title>Node12</title>
<g id="a_node12"><a xlink:title=" ">
<polygon fill="none" stroke="#bfbfbf" points="165.5,-263 165.5,-282 329.5,-282 329.5,-263 165.5,-263"/>
<text text-anchor="middle" x="247.5" y="-270" font-family="Helvetica,sans-Serif" font-size="10.00">range/v3/range/primitives.hpp</text>
</a>
</g>
</g>
<!-- Node8&#45;&gt;Node12 -->
<g id="edge13" class="edge">
<title>Node8&#45;&gt;Node12</title>
<path fill="none" stroke="midnightblue" d="M364.95,-324.4C338.63,-312.99 301.91,-297.08 276.57,-286.1"/>
<polygon fill="midnightblue" stroke="midnightblue" points="277.7,-282.77 267.13,-282.01 274.92,-289.19 277.7,-282.77"/>
</g>
<!-- Node13 -->
<g id="node13" class="node">
<title>Node13</title>
<g id="a_node13"><a xlink:title=" ">
<polygon fill="none" stroke="#bfbfbf" points="452,-263 452,-282 615,-282 615,-263 452,-263"/>
<text text-anchor="middle" x="533.5" y="-270" font-family="Helvetica,sans-Serif" font-size="10.00">range/v3/view/enumerate.hpp</text>
</a>
</g>
</g>
<!-- Node8&#45;&gt;Node13 -->
<g id="edge14" class="edge">
<title>Node8&#45;&gt;Node13</title>
<path fill="none" stroke="midnightblue" d="M427.01,-324.4C450.66,-313.09 483.58,-297.36 506.53,-286.39"/>
<polygon fill="midnightblue" stroke="midnightblue" points="508.19,-289.48 515.7,-282.01 505.17,-283.16 508.19,-289.48"/>
</g>
<!-- Node14&#45;&gt;Node10 -->
<g id="edge18" class="edge">
<title>Node14&#45;&gt;Node10</title>
<path fill="none" stroke="midnightblue" d="M852.21,-330.53C825.09,-323.75 794.84,-311.21 776.5,-288 746.49,-250.03 750.08,-188.73 754.28,-158.13"/>
<polygon fill="midnightblue" stroke="midnightblue" points="757.77,-158.43 755.84,-148.01 750.85,-157.36 757.77,-158.43"/>
</g>
<!-- Node14&#45;&gt;Node13 -->
<g id="edge36" class="edge">
<title>Node14&#45;&gt;Node13</title>
<path fill="none" stroke="midnightblue" d="M852.42,-328.49C782.04,-316.35 664.09,-296.01 593.05,-283.77"/>
<polygon fill="midnightblue" stroke="midnightblue" points="593.37,-280.27 582.92,-282.02 592.18,-287.17 593.37,-280.27"/>
</g>
<!-- Node15 -->
<g id="node15" class="node">
<title>Node15</title>
<g id="a_node15"><a xlink:title=" ">
<polygon fill="none" stroke="#bfbfbf" points="1032.5,-196 1032.5,-215 1082.5,-215 1082.5,-196 1032.5,-196"/>
<text text-anchor="middle" x="1057.5" y="-203" font-family="Helvetica,sans-Serif" font-size="10.00">cstdint</text>
</a>
</g>
</g>
<!-- Node14&#45;&gt;Node15 -->
<g id="edge16" class="edge">
<title>Node14&#45;&gt;Node15</title>
<path fill="none" stroke="midnightblue" d="M957.85,-324.46C978.49,-316.44 1001.74,-304.61 1018.5,-288 1036.3,-270.36 1047.07,-243 1052.65,-224.92"/>
<polygon fill="midnightblue" stroke="midnightblue" points="1056.03,-225.84 1055.42,-215.26 1049.3,-223.91 1056.03,-225.84"/>
</g>
<!-- Node16 -->
<g id="node16" class="node">
<title>Node16</title>
<g id="a_node16"><a xlink:title=" ">
<polygon fill="none" stroke="#bfbfbf" points="786,-263 786,-282 827,-282 827,-263 786,-263"/>
<text text-anchor="middle" x="806.5" y="-270" font-family="Helvetica,sans-Serif" font-size="10.00">tuple</text>
</a>
</g>
</g>
<!-- Node14&#45;&gt;Node16 -->
<g id="edge17" class="edge">
<title>Node14&#45;&gt;Node16</title>
<path fill="none" stroke="midnightblue" d="M887.93,-324.4C870.49,-313.5 846.47,-298.48 829.03,-287.58"/>
<polygon fill="midnightblue" stroke="midnightblue" points="830.45,-284.34 820.11,-282.01 826.74,-290.28 830.45,-284.34"/>
</g>
<!-- Node17 -->
<g id="node17" class="node">
<title>Node17</title>
<g id="a_node17"><a xlink:href="linear__grid_8hpp.html" target="_top" xlink:title="Concepts and abstract implementations of linear (ie. contiguous storage) grids.">
<polygon fill="none" stroke="black" points="1146.5,-257.5 1146.5,-287.5 1256.5,-287.5 1256.5,-257.5 1146.5,-257.5"/>
<text text-anchor="start" x="1154.5" y="-275.5" font-family="Helvetica,sans-Serif" font-size="10.00">beluga/sensor/data</text>
<text text-anchor="middle" x="1201.5" y="-264.5" font-family="Helvetica,sans-Serif" font-size="10.00">/linear_grid.hpp</text>
</a>
</g>
</g>
<!-- Node14&#45;&gt;Node17 -->
<g id="edge19" class="edge">
<title>Node14&#45;&gt;Node17</title>
<path fill="none" stroke="midnightblue" d="M968.69,-325.5C1017.2,-314.67 1086.27,-299.24 1136.57,-288"/>
<polygon fill="midnightblue" stroke="midnightblue" points="1137.37,-291.41 1146.37,-285.81 1135.85,-284.58 1137.37,-291.41"/>
</g>
<!-- Node22 -->
<g id="node22" class="node">
<title>Node22</title>
<g id="a_node22"><a xlink:title=" ">
<polygon fill="none" stroke="#bfbfbf" points="1022.5,-62 1022.5,-81 1180.5,-81 1180.5,-62 1022.5,-62"/>
<text text-anchor="middle" x="1101.5" y="-69" font-family="Helvetica,sans-Serif" font-size="10.00">range/v3/view/transform.hpp</text>
</a>
</g>
</g>
<!-- Node14&#45;&gt;Node22 -->
<g id="edge38" class="edge">
<title>Node14&#45;&gt;Node22</title>
<path fill="none" stroke="midnightblue" d="M938.89,-324.49C954.13,-315.77 972.25,-303.3 984.5,-288 1013.81,-251.41 1001.75,-231.53 1023.5,-190 1043.27,-152.25 1072.2,-111.53 1088.71,-89.32"/>
<polygon fill="midnightblue" stroke="midnightblue" points="1091.56,-91.35 1094.77,-81.25 1085.96,-87.14 1091.56,-91.35"/>
</g>
<!-- Node23 -->
<g id="node23" class="node">
<title>Node23</title>
<g id="a_node23"><a xlink:title=" ">
<polygon fill="none" stroke="#bfbfbf" points="935,-62 935,-81 1004,-81 1004,-62 935,-62"/>
<text text-anchor="middle" x="969.5" y="-69" font-family="Helvetica,sans-Serif" font-size="10.00">Eigen/Core</text>
</a>
</g>
</g>
<!-- Node14&#45;&gt;Node23 -->
<g id="edge39" class="edge">
<title>Node14&#45;&gt;Node23</title>
<path fill="none" stroke="midnightblue" d="M852.18,-333.19C819.7,-327.22 780.99,-314.6 756.5,-288 705.9,-233.05 677.31,-180.91 724.5,-123 749.25,-92.62 860.85,-79.98 924.55,-75.16"/>
<polygon fill="midnightblue" stroke="midnightblue" points="925,-78.64 934.72,-74.43 924.5,-71.66 925,-78.64"/>
</g>
<!-- Node27 -->
<g id="node27" class="node">
<title>Node27</title>
<g id="a_node27"><a xlink:title=" ">
<polygon fill="none" stroke="#bfbfbf" points="845,-263 845,-282 976,-282 976,-263 845,-263"/>
<text text-anchor="middle" x="910.5" y="-270" font-family="Helvetica,sans-Serif" font-size="10.00">range/v3/view/filter.hpp</text>
</a>
</g>
</g>
<!-- Node14&#45;&gt;Node27 -->
<g id="edge37" class="edge">
<title>Node14&#45;&gt;Node27</title>
<path fill="none" stroke="midnightblue" d="M910.5,-324.4C910.5,-315.06 910.5,-302.71 910.5,-292.52"/>
<polygon fill="midnightblue" stroke="midnightblue" points="914,-292.19 910.5,-282.19 907,-292.19 914,-292.19"/>
</g>
<!-- Node17&#45;&gt;Node10 -->
<g id="edge22" class="edge">
<title>Node17&#45;&gt;Node10</title>
<path fill="none" stroke="midnightblue" d="M1182.39,-257.16C1151.58,-234.06 1094.07,-191.07 1091.5,-190 988.3,-147.11 853.67,-140.09 791.59,-139.31"/>
<polygon fill="midnightblue" stroke="midnightblue" points="791.24,-135.8 781.21,-139.22 791.18,-142.8 791.24,-135.8"/>
</g>
<!-- Node17&#45;&gt;Node15 -->
<g id="edge20" class="edge">
<title>Node17&#45;&gt;Node15</title>
<path fill="none" stroke="midnightblue" d="M1170.25,-257.4C1145.1,-246.04 1110.05,-230.22 1085.73,-219.24"/>
<polygon fill="midnightblue" stroke="midnightblue" points="1086.9,-215.93 1076.35,-215.01 1084.02,-222.31 1086.9,-215.93"/>
</g>
<!-- Node18 -->
<g id="node18" class="node">
<title>Node18</title>
<g id="a_node18"><a xlink:title=" ">
<polygon fill="none" stroke="#bfbfbf" points="1370.5,-129 1370.5,-148 1426.5,-148 1426.5,-129 1370.5,-129"/>
<text text-anchor="middle" x="1398.5" y="-136" font-family="Helvetica,sans-Serif" font-size="10.00">optional</text>
</a>
</g>
</g>
<!-- Node17&#45;&gt;Node18 -->
<g id="edge21" class="edge">
<title>Node17&#45;&gt;Node18</title>
<path fill="none" stroke="midnightblue" d="M1241.98,-257.4C1264.36,-248.65 1292.08,-236.18 1314.5,-221 1342.26,-202.2 1369.13,-173.78 1384.73,-155.95"/>
<polygon fill="midnightblue" stroke="midnightblue" points="1387.58,-158 1391.43,-148.13 1382.26,-153.44 1387.58,-158"/>
</g>
<!-- Node19 -->
<g id="node19" class="node">
<title>Node19</title>
<g id="a_node19"><a xlink:href="dense__grid_8hpp.html" target="_top" xlink:title="Concepts and abstract implementations of dense grids.">
<polygon fill="none" stroke="black" points="1195.5,-190.5 1195.5,-220.5 1305.5,-220.5 1305.5,-190.5 1195.5,-190.5"/>
<text text-anchor="start" x="1203.5" y="-208.5" font-family="Helvetica,sans-Serif" font-size="10.00">beluga/sensor/data</text>
<text text-anchor="middle" x="1250.5" y="-197.5" font-family="Helvetica,sans-Serif" font-size="10.00">/dense_grid.hpp</text>
</a>
</g>
</g>
<!-- Node17&#45;&gt;Node19 -->
<g id="edge23" class="edge">
<title>Node17&#45;&gt;Node19</title>
<path fill="none" stroke="midnightblue" d="M1212.13,-257.4C1218.42,-249.05 1226.54,-238.29 1233.68,-228.81"/>
<polygon fill="midnightblue" stroke="midnightblue" points="1236.66,-230.67 1239.89,-220.58 1231.07,-226.45 1236.66,-230.67"/>
</g>
<!-- Node17&#45;&gt;Node23 -->
<g id="edge35" class="edge">
<title>Node17&#45;&gt;Node23</title>
<path fill="none" stroke="midnightblue" d="M1189.76,-257.21C1175.58,-240.32 1150.61,-211.78 1126.5,-190 1081.2,-149.08 1022.34,-107.84 991.14,-86.8"/>
<polygon fill="midnightblue" stroke="midnightblue" points="993,-83.84 982.74,-81.18 989.11,-89.65 993,-83.84"/>
</g>
<!-- Node19&#45;&gt;Node10 -->
<g id="edge25" class="edge">
<title>Node19&#45;&gt;Node10</title>
<path fill="none" stroke="midnightblue" d="M1195.38,-197.23C1092.61,-183.68 874.6,-154.94 791.05,-143.92"/>
<polygon fill="midnightblue" stroke="midnightblue" points="791.46,-140.45 781.09,-142.61 790.55,-147.39 791.46,-140.45"/>
</g>
<!-- Node19&#45;&gt;Node18 -->
<g id="edge24" class="edge">
<title>Node19&#45;&gt;Node18</title>
<path fill="none" stroke="midnightblue" d="M1282.61,-190.4C1308.58,-178.99 1344.81,-163.08 1369.82,-152.1"/>
<polygon fill="midnightblue" stroke="midnightblue" points="1371.38,-155.23 1379.13,-148.01 1368.57,-148.82 1371.38,-155.23"/>
</g>
<!-- Node20 -->
<g id="node20" class="node">
<title>Node20</title>
<g id="a_node20"><a xlink:href="regular__grid_8hpp.html" target="_top" xlink:title="Concepts and abstract implementations of regular grids.">
<polygon fill="none" stroke="black" points="1204.5,-123.5 1204.5,-153.5 1314.5,-153.5 1314.5,-123.5 1204.5,-123.5"/>
<text text-anchor="start" x="1212.5" y="-141.5" font-family="Helvetica,sans-Serif" font-size="10.00">beluga/sensor/data</text>
<text text-anchor="middle" x="1259.5" y="-130.5" font-family="Helvetica,sans-Serif" font-size="10.00">/regular_grid.hpp</text>
</a>
</g>
</g>
<!-- Node19&#45;&gt;Node20 -->
<g id="edge26" class="edge">
<title>Node19&#45;&gt;Node20</title>
<path fill="none" stroke="midnightblue" d="M1252.45,-190.4C1253.54,-182.56 1254.92,-172.6 1256.17,-163.57"/>
<polygon fill="midnightblue" stroke="midnightblue" points="1259.65,-163.96 1257.55,-153.58 1252.71,-163 1259.65,-163.96"/>
</g>
<!-- Node19&#45;&gt;Node23 -->
<g id="edge33" class="edge">
<title>Node19&#45;&gt;Node23</title>
<path fill="none" stroke="midnightblue" d="M1235.16,-190.31C1212.39,-169.5 1170.42,-132.18 1152.5,-123 1095.71,-93.9 1074.73,-105 1013.5,-87 1010.51,-86.12 1007.42,-85.18 1004.32,-84.2"/>
<polygon fill="midnightblue" stroke="midnightblue" points="1005.13,-80.79 994.54,-81.06 1002.99,-87.45 1005.13,-80.79"/>
</g>
<!-- Node24 -->
<g id="node24" class="node">
<title>Node24</title>
<g id="a_node24"><a xlink:href="eigen__compatibility_8hpp_source.html" target="_top" xlink:title=" ">
<polygon fill="none" stroke="black" points="1339,-62 1339,-81 1508,-81 1508,-62 1339,-62"/>
<text text-anchor="middle" x="1423.5" y="-69" font-family="Helvetica,sans-Serif" font-size="10.00">beluga/eigen_compatibility.hpp</text>
</a>
</g>
</g>
<!-- Node19&#45;&gt;Node24 -->
<g id="edge34" class="edge">
<title>Node19&#45;&gt;Node24</title>
<path fill="none" stroke="midnightblue" d="M1271.9,-190.35C1286.62,-180.46 1306.5,-166.78 1323.5,-154 1340.92,-140.9 1344.61,-136.77 1361.5,-123 1376.19,-111.03 1392.84,-97.46 1405.18,-87.41"/>
<polygon fill="midnightblue" stroke="midnightblue" points="1407.42,-90.1 1412.97,-81.08 1403,-84.68 1407.42,-90.1"/>
</g>
<!-- Node20&#45;&gt;Node21 -->
<g id="edge27" class="edge">
<title>Node20&#45;&gt;Node21</title>
<path fill="none" stroke="midnightblue" d="M1314.5,-129.3C1329.71,-127.13 1346.23,-124.88 1361.5,-123 1530.42,-102.21 1733.14,-82.93 1812.4,-75.61"/>
<polygon fill="midnightblue" stroke="midnightblue" points="1813.11,-79.06 1822.74,-74.66 1812.47,-72.09 1813.11,-79.06"/>
</g>
<!-- Node20&#45;&gt;Node22 -->
<g id="edge28" class="edge">
<title>Node20&#45;&gt;Node22</title>
<path fill="none" stroke="midnightblue" d="M1225.22,-123.4C1197.37,-111.94 1158.47,-95.94 1131.77,-84.95"/>
<polygon fill="midnightblue" stroke="midnightblue" points="1132.76,-81.57 1122.18,-81.01 1130.09,-88.05 1132.76,-81.57"/>
</g>
<!-- Node20&#45;&gt;Node23 -->
<g id="edge29" class="edge">
<title>Node20&#45;&gt;Node23</title>
<path fill="none" stroke="midnightblue" d="M1204.15,-125.83C1199.53,-124.87 1194.94,-123.92 1190.5,-123 1111.89,-106.75 1091.09,-107.6 1013.5,-87 1010.31,-86.15 1007.02,-85.21 1003.73,-84.21"/>
<polygon fill="midnightblue" stroke="midnightblue" points="1004.6,-80.82 994.01,-81.14 1002.5,-87.49 1004.6,-80.82"/>
</g>
<!-- Node20&#45;&gt;Node24 -->
<g id="edge30" class="edge">
<title>Node20&#45;&gt;Node24</title>
<path fill="none" stroke="midnightblue" d="M1295.09,-123.4C1324.12,-111.89 1364.72,-95.8 1392.45,-84.81"/>
<polygon fill="midnightblue" stroke="midnightblue" points="1394.03,-87.95 1402.04,-81.01 1391.45,-81.44 1394.03,-87.95"/>
</g>
<!-- Node26 -->
<g id="node26" class="node">
<title>Node26</title>
<g id="a_node26"><a xlink:href="enable__self_8hpp.html" target="_top" xlink:title="Implementation of a CRTP utility to enable downcasting to the most derived class.">
<polygon fill="none" stroke="black" points="1198.5,-56.5 1198.5,-86.5 1320.5,-86.5 1320.5,-56.5 1198.5,-56.5"/>
<text text-anchor="start" x="1206.5" y="-74.5" font-family="Helvetica,sans-Serif" font-size="10.00">beluga/mixins/enable</text>
<text text-anchor="middle" x="1259.5" y="-63.5" font-family="Helvetica,sans-Serif" font-size="10.00">_self.hpp</text>
</a>
</g>
</g>
<!-- Node20&#45;&gt;Node26 -->
<g id="edge32" class="edge">
<title>Node20&#45;&gt;Node26</title>
<path fill="none" stroke="midnightblue" d="M1259.5,-123.4C1259.5,-115.64 1259.5,-105.81 1259.5,-96.86"/>
<polygon fill="midnightblue" stroke="midnightblue" points="1263,-96.58 1259.5,-86.58 1256,-96.58 1263,-96.58"/>
</g>
<!-- Node25 -->
<g id="node25" class="node">
<title>Node25</title>
<g id="a_node25"><a xlink:title=" ">
<polygon fill="none" stroke="#bfbfbf" points="1385,-0.5 1385,-19.5 1462,-19.5 1462,-0.5 1385,-0.5"/>
<text text-anchor="middle" x="1423.5" y="-7.5" font-family="Helvetica,sans-Serif" font-size="10.00">Eigen/Dense</text>
</a>
</g>
</g>
<!-- Node24&#45;&gt;Node25 -->
<g id="edge31" class="edge">
<title>Node24&#45;&gt;Node25</title>
<path fill="none" stroke="midnightblue" d="M1423.5,-61.98C1423.5,-53.58 1423.5,-40.48 1423.5,-29.66"/>
<polygon fill="midnightblue" stroke="midnightblue" points="1427,-29.51 1423.5,-19.51 1420,-29.51 1427,-29.51"/>
</g>
<!-- Node28&#45;&gt;Node10 -->
<g id="edge43" class="edge">
<title>Node28&#45;&gt;Node10</title>
<path fill="none" stroke="midnightblue" d="M1169.92,-324.35C1087.28,-287.31 865.52,-187.92 786.2,-152.37"/>
<polygon fill="midnightblue" stroke="midnightblue" points="787.39,-149.06 776.83,-148.16 784.52,-155.45 787.39,-149.06"/>
</g>
<!-- Node28&#45;&gt;Node15 -->
<g id="edge41" class="edge">
<title>Node28&#45;&gt;Node15</title>
<path fill="none" stroke="midnightblue" d="M1182.22,-324.3C1169.25,-314.5 1151.93,-300.95 1137.5,-288 1113.66,-266.61 1088.05,-239.75 1072.39,-222.86"/>
<polygon fill="midnightblue" stroke="midnightblue" points="1074.91,-220.42 1065.56,-215.43 1069.76,-225.16 1074.91,-220.42"/>
</g>
<!-- Node28&#45;&gt;Node17 -->
<g id="edge44" class="edge">
<title>Node28&#45;&gt;Node17</title>
<path fill="none" stroke="midnightblue" d="M1201.5,-324.4C1201.5,-316.64 1201.5,-306.81 1201.5,-297.86"/>
<polygon fill="midnightblue" stroke="midnightblue" points="1205,-297.58 1201.5,-287.58 1198,-297.58 1205,-297.58"/>
</g>
<!-- Node29 -->
<g id="node29" class="node">
<title>Node29</title>
<g id="a_node29"><a xlink:title=" ">
<polygon fill="none" stroke="#bfbfbf" points="1275,-263 1275,-282 1320,-282 1320,-263 1275,-263"/>
<text text-anchor="middle" x="1297.5" y="-270" font-family="Helvetica,sans-Serif" font-size="10.00">utility</text>
</a>
</g>
</g>
<!-- Node28&#45;&gt;Node29 -->
<g id="edge42" class="edge">
<title>Node28&#45;&gt;Node29</title>
<path fill="none" stroke="midnightblue" d="M1222.33,-324.4C1238.28,-313.6 1260.2,-298.76 1276.25,-287.89"/>
<polygon fill="midnightblue" stroke="midnightblue" points="1278.62,-290.51 1284.94,-282.01 1274.69,-284.72 1278.62,-290.51"/>
</g>
</g>
</svg>
