<?xml version="1.0" encoding="UTF-8" standalone="no"?>
<!DOCTYPE svg PUBLIC "-//W3C//DTD SVG 1.1//EN"
 "http://www.w3.org/Graphics/SVG/1.1/DTD/svg11.dtd">
<!-- Generated by graphviz version 2.43.0 (0)
 -->
<!-- Title: /home/runner/work/beluga/beluga/beluga/include/beluga/sensor/likelihood_field_model.hpp Pages: 1 -->
<!--zoomable 441 -->
<svg id="main" version="1.1" xmlns="http://www.w3.org/2000/svg" xmlns:xlink="http://www.w3.org/1999/xlink" xml:space="preserve" onload="init(evt)">
<style type="text/css"><![CDATA[
.edge:hover path { stroke: red; }
.edge:hover polygon { stroke: red; fill: red; }
]]></style>
<script type="text/javascript"><![CDATA[
var edges = document.getElementsByTagName('g');
if (edges && edges.length) {
  for (var i=0;i<edges.length;i++) {
    if (edges[i].id.substr(0,4)=='edge') {
      edges[i].setAttribute('class','edge');
    }
  }
}
]]></script>
        <defs>
                <circle id="rim" cx="0" cy="0" r="7"/>
                <circle id="rim2" cx="0" cy="0" r="3.5"/>
                <g id="zoomPlus">
                        <use xlink:href="#rim" fill="#404040">
                                <set attributeName="fill" to="#808080" begin="zoomplus.mouseover" end="zoomplus.mouseout"/>
                        </use>
                        <path d="M-4,0h8M0,-4v8" fill="none" stroke="white" stroke-width="1.5" pointer-events="none"/>
                </g>
                <g id="zoomMin">
                        <use xlink:href="#rim" fill="#404040">
                                <set attributeName="fill" to="#808080" begin="zoomminus.mouseover" end="zoomminus.mouseout"/>
                        </use>
                        <path d="M-4,0h8" fill="none" stroke="white" stroke-width="1.5" pointer-events="none"/>
                </g>
                <g id="dirArrow">
                        <path fill="none" stroke="white" stroke-width="1.5" d="M0,-3.0v7 M-2.5,-0.5L0,-3.0L2.5,-0.5"/>
                </g>
               <g id="resetDef">
                       <use xlink:href="#rim2" fill="#404040">
                               <set attributeName="fill" to="#808080" begin="reset.mouseover" end="reset.mouseout"/>
                       </use>
               </g>
        </defs>

<script type="text/javascript">
var viewWidth = 2198;
var viewHeight = 441;
var sectionId = 'dynsection-0';
</script>
<script xlink:href="svgpan.js"/>
<svg id="graph" class="graph">
<g id="viewport">
<title>/home/runner/work/beluga/beluga/beluga/include/beluga/sensor/likelihood_field_model.hpp</title>
<!-- Node1 -->
<g id="node1" class="node">
<title>Node1</title>
<g id="a_node1"><a xlink:title="Implementation of a likelihood field sensor model for range finders.">
<polygon fill="#bfbfbf" stroke="black" points="1193.5,-380.5 1193.5,-432.5 1338.5,-432.5 1338.5,-380.5 1193.5,-380.5"/>
<text text-anchor="start" x="1201.5" y="-420.5" font-family="Helvetica,sans-Serif" font-size="10.00">/home/runner/work/beluga</text>
<text text-anchor="start" x="1201.5" y="-409.5" font-family="Helvetica,sans-Serif" font-size="10.00">/beluga/beluga/include</text>
<text text-anchor="start" x="1201.5" y="-398.5" font-family="Helvetica,sans-Serif" font-size="10.00">/beluga/sensor/likelihood</text>
<text text-anchor="middle" x="1266" y="-387.5" font-family="Helvetica,sans-Serif" font-size="10.00">_field_model.hpp</text>
</a>
</g>
</g>
<!-- Node2 -->
<g id="node2" class="node">
<title>Node2</title>
<g id="a_node2"><a xlink:title=" ">
<polygon fill="none" stroke="#bfbfbf" points="0,-252 0,-271 64,-271 64,-252 0,-252"/>
<text text-anchor="middle" x="32" y="-259" font-family="Helvetica,sans-Serif" font-size="10.00">algorithm</text>
</a>
</g>
</g>
<!-- Node1&#45;&gt;Node2 -->
<g id="edge1" class="edge">
<title>Node1&#45;&gt;Node2</title>
<path fill="none" stroke="midnightblue" d="M1193.14,-403.7C961.59,-397.67 252.01,-376.71 154,-344 112.01,-329.99 70.8,-297.44 48.67,-277.98"/>
<polygon fill="midnightblue" stroke="midnightblue" points="50.94,-275.31 41.16,-271.23 46.26,-280.52 50.94,-275.31"/>
</g>
<!-- Node3 -->
<g id="node3" class="node">
<title>Node3</title>
<g id="a_node3"><a xlink:title=" ">
<polygon fill="none" stroke="#bfbfbf" points="785.5,-56.5 785.5,-75.5 832.5,-75.5 832.5,-56.5 785.5,-56.5"/>
<text text-anchor="middle" x="809" y="-63.5" font-family="Helvetica,sans-Serif" font-size="10.00">cmath</text>
</a>
</g>
</g>
<!-- Node1&#45;&gt;Node3 -->
<g id="edge2" class="edge">
<title>Node1&#45;&gt;Node3</title>
<path fill="none" stroke="midnightblue" d="M1193.41,-406.31C1037.6,-406.91 676.68,-401.8 571,-344 530.83,-322.03 508,-308.28 508,-262.5 508,-262.5 508,-262.5 508,-193.5 508,-78.73 696.29,-66.37 775.03,-66.23"/>
<polygon fill="midnightblue" stroke="midnightblue" points="775.36,-69.73 785.38,-66.28 775.4,-62.73 775.36,-69.73"/>
</g>
<!-- Node4 -->
<g id="node4" class="node">
<title>Node4</title>
<g id="a_node4"><a xlink:title=" ">
<polygon fill="none" stroke="#bfbfbf" points="1408,-319 1408,-338 1462,-338 1462,-319 1408,-319"/>
<text text-anchor="middle" x="1435" y="-326" font-family="Helvetica,sans-Serif" font-size="10.00">random</text>
</a>
</g>
</g>
<!-- Node1&#45;&gt;Node4 -->
<g id="edge3" class="edge">
<title>Node1&#45;&gt;Node4</title>
<path fill="none" stroke="midnightblue" d="M1321.81,-380.4C1350.24,-367.62 1383.59,-352.62 1406.7,-342.23"/>
<polygon fill="midnightblue" stroke="midnightblue" points="1408.24,-345.37 1415.93,-338.08 1405.37,-338.99 1408.24,-345.37"/>
</g>
<!-- Node5 -->
<g id="node5" class="node">
<title>Node5</title>
<g id="a_node5"><a xlink:title=" ">
<polygon fill="none" stroke="#bfbfbf" points="1213.5,-118 1213.5,-137 1260.5,-137 1260.5,-118 1213.5,-118"/>
<text text-anchor="middle" x="1237" y="-125" font-family="Helvetica,sans-Serif" font-size="10.00">vector</text>
</a>
</g>
</g>
<!-- Node1&#45;&gt;Node5 -->
<g id="edge4" class="edge">
<title>Node1&#45;&gt;Node5</title>
<path fill="none" stroke="midnightblue" d="M1193.27,-384.49C1143.16,-365.55 1081.1,-332.03 1055,-277 1021.23,-205.8 1142.15,-157.47 1203.46,-138.06"/>
<polygon fill="midnightblue" stroke="midnightblue" points="1204.58,-141.38 1213.11,-135.09 1202.52,-134.69 1204.58,-141.38"/>
</g>
<!-- Node6 -->
<g id="node6" class="node">
<title>Node6</title>
<g id="a_node6"><a xlink:href="overlay_8hpp.html" target="_top" xlink:title="Implementation of the overlay range adaptor object.">
<polygon fill="none" stroke="black" points="163.5,-319 163.5,-338 310.5,-338 310.5,-319 163.5,-319"/>
<text text-anchor="middle" x="237" y="-326" font-family="Helvetica,sans-Serif" font-size="10.00">beluga/actions/overlay.hpp</text>
</a>
</g>
</g>
<!-- Node1&#45;&gt;Node6 -->
<g id="edge5" class="edge">
<title>Node1&#45;&gt;Node6</title>
<path fill="none" stroke="midnightblue" d="M1193.23,-400.13C1007.64,-386.42 517.43,-350.21 320.57,-335.67"/>
<polygon fill="midnightblue" stroke="midnightblue" points="320.8,-332.18 310.57,-334.93 320.29,-339.16 320.8,-332.18"/>
</g>
<!-- Node10 -->
<g id="node10" class="node">
<title>Node10</title>
<g id="a_node10"><a xlink:href="distance__map_8hpp.html" target="_top" xlink:title="Implementation of algorithm to calculate distance from obstacles.">
<polygon fill="none" stroke="black" points="864,-313.5 864,-343.5 1008,-343.5 1008,-313.5 864,-313.5"/>
<text text-anchor="start" x="872" y="-331.5" font-family="Helvetica,sans-Serif" font-size="10.00">beluga/algorithm/distance</text>
<text text-anchor="middle" x="936" y="-320.5" font-family="Helvetica,sans-Serif" font-size="10.00">_map.hpp</text>
</a>
</g>
</g>
<!-- Node1&#45;&gt;Node10 -->
<g id="edge10" class="edge">
<title>Node1&#45;&gt;Node10</title>
<path fill="none" stroke="midnightblue" d="M1193.17,-388.73C1137.78,-375.97 1061.98,-358.51 1007.03,-345.86"/>
<polygon fill="midnightblue" stroke="midnightblue" points="1007.56,-342.39 997.03,-343.55 1005.99,-349.21 1007.56,-342.39"/>
</g>
<!-- Node15 -->
<g id="node15" class="node">
<title>Node15</title>
<g id="a_node15"><a xlink:href="occupancy__grid_8hpp.html" target="_top" xlink:title="Concepts and abstract implementations of occupancy grids.">
<polygon fill="none" stroke="black" points="1274,-313.5 1274,-343.5 1390,-343.5 1390,-313.5 1274,-313.5"/>
<text text-anchor="start" x="1282" y="-331.5" font-family="Helvetica,sans-Serif" font-size="10.00">beluga/sensor/data</text>
<text text-anchor="middle" x="1332" y="-320.5" font-family="Helvetica,sans-Serif" font-size="10.00">/occupancy_grid.hpp</text>
</a>
</g>
</g>
<!-- Node1&#45;&gt;Node15 -->
<g id="edge16" class="edge">
<title>Node1&#45;&gt;Node15</title>
<path fill="none" stroke="midnightblue" d="M1287.98,-380.19C1296.02,-370.94 1305.04,-360.54 1312.82,-351.59"/>
<polygon fill="midnightblue" stroke="midnightblue" points="1315.63,-353.69 1319.54,-343.85 1310.34,-349.1 1315.63,-353.69"/>
</g>
<!-- Node23 -->
<g id="node23" class="node">
<title>Node23</title>
<g id="a_node23"><a xlink:title=" ">
<polygon fill="none" stroke="#bfbfbf" points="1160,-56.5 1160,-75.5 1318,-75.5 1318,-56.5 1160,-56.5"/>
<text text-anchor="middle" x="1239" y="-63.5" font-family="Helvetica,sans-Serif" font-size="10.00">range/v3/view/transform.hpp</text>
</a>
</g>
</g>
<!-- Node1&#45;&gt;Node23 -->
<g id="edge49" class="edge">
<title>Node1&#45;&gt;Node23</title>
<path fill="none" stroke="midnightblue" d="M1193.33,-406.29C1010.52,-406.32 546,-393.53 546,-262.5 546,-262.5 546,-262.5 546,-193.5 546,-132.82 962.54,-90.19 1149.75,-74.1"/>
<polygon fill="midnightblue" stroke="midnightblue" points="1150.18,-77.58 1159.84,-73.24 1149.58,-70.6 1150.18,-77.58"/>
</g>
<!-- Node28 -->
<g id="node28" class="node">
<title>Node28</title>
<g id="a_node28"><a xlink:href="value__grid_8hpp.html" target="_top" xlink:title="Implementation of generic value grid.">
<polygon fill="none" stroke="black" points="1146,-313.5 1146,-343.5 1256,-343.5 1256,-313.5 1146,-313.5"/>
<text text-anchor="start" x="1154" y="-331.5" font-family="Helvetica,sans-Serif" font-size="10.00">beluga/sensor/data</text>
<text text-anchor="middle" x="1201" y="-320.5" font-family="Helvetica,sans-Serif" font-size="10.00">/value_grid.hpp</text>
</a>
</g>
</g>
<!-- Node1&#45;&gt;Node28 -->
<g id="edge41" class="edge">
<title>Node1&#45;&gt;Node28</title>
<path fill="none" stroke="midnightblue" d="M1244.36,-380.19C1236.44,-370.94 1227.55,-360.54 1219.89,-351.59"/>
<polygon fill="midnightblue" stroke="midnightblue" points="1222.43,-349.17 1213.27,-343.85 1217.11,-353.72 1222.43,-349.17"/>
</g>
<!-- Node30 -->
<g id="node30" class="node">
<title>Node30</title>
<g id="a_node30"><a xlink:title=" ">
<polygon fill="none" stroke="#bfbfbf" points="1480,-319 1480,-338 1644,-338 1644,-319 1480,-319"/>
<text text-anchor="middle" x="1562" y="-326" font-family="Helvetica,sans-Serif" font-size="10.00">range/v3/action/transform.hpp</text>
</a>
</g>
</g>
<!-- Node1&#45;&gt;Node30 -->
<g id="edge46" class="edge">
<title>Node1&#45;&gt;Node30</title>
<path fill="none" stroke="midnightblue" d="M1338.79,-386.81C1395.24,-372.32 1471.58,-352.72 1518.77,-340.6"/>
<polygon fill="midnightblue" stroke="midnightblue" points="1519.85,-343.94 1528.66,-338.06 1518.11,-337.16 1519.85,-343.94"/>
</g>
<!-- Node31 -->
<g id="node31" class="node">
<title>Node31</title>
<g id="a_node31"><a xlink:title=" ">
<polygon fill="none" stroke="#bfbfbf" points="1662.5,-319 1662.5,-338 1829.5,-338 1829.5,-319 1662.5,-319"/>
<text text-anchor="middle" x="1746" y="-326" font-family="Helvetica,sans-Serif" font-size="10.00">range/v3/range/conversion.hpp</text>
</a>
</g>
</g>
<!-- Node1&#45;&gt;Node31 -->
<g id="edge47" class="edge">
<title>Node1&#45;&gt;Node31</title>
<path fill="none" stroke="midnightblue" d="M1338.64,-394C1432.14,-379.19 1593.12,-353.71 1682.14,-339.61"/>
<polygon fill="midnightblue" stroke="midnightblue" points="1682.78,-343.05 1692.11,-338.03 1681.68,-336.14 1682.78,-343.05"/>
</g>
<!-- Node32 -->
<g id="node32" class="node">
<title>Node32</title>
<g id="a_node32"><a xlink:title=" ">
<polygon fill="none" stroke="#bfbfbf" points="1848,-319 1848,-338 1970,-338 1970,-319 1848,-319"/>
<text text-anchor="middle" x="1909" y="-326" font-family="Helvetica,sans-Serif" font-size="10.00">range/v3/view/all.hpp</text>
</a>
</g>
</g>
<!-- Node1&#45;&gt;Node32 -->
<g id="edge48" class="edge">
<title>Node1&#45;&gt;Node32</title>
<path fill="none" stroke="midnightblue" d="M1338.66,-399.98C1447.73,-391.19 1660.1,-372.06 1839,-344 1846.25,-342.86 1853.88,-341.48 1861.34,-340.02"/>
<polygon fill="midnightblue" stroke="midnightblue" points="1862.23,-343.41 1871.34,-338 1860.85,-336.55 1862.23,-343.41"/>
</g>
<!-- Node33 -->
<g id="node33" class="node">
<title>Node33</title>
<g id="a_node33"><a xlink:title=" ">
<polygon fill="none" stroke="#bfbfbf" points="1988,-319 1988,-338 2080,-338 2080,-319 1988,-319"/>
<text text-anchor="middle" x="2034" y="-326" font-family="Helvetica,sans-Serif" font-size="10.00">sophus/se2.hpp</text>
</a>
</g>
</g>
<!-- Node1&#45;&gt;Node33 -->
<g id="edge50" class="edge">
<title>Node1&#45;&gt;Node33</title>
<path fill="none" stroke="midnightblue" d="M1338.64,-403.35C1468.17,-398.6 1747.18,-384.25 1979,-344 1984.41,-343.06 1990.07,-341.84 1995.61,-340.52"/>
<polygon fill="midnightblue" stroke="midnightblue" points="1996.54,-343.89 2005.38,-338.04 1994.82,-337.11 1996.54,-343.89"/>
</g>
<!-- Node34 -->
<g id="node34" class="node">
<title>Node34</title>
<g id="a_node34"><a xlink:title=" ">
<polygon fill="none" stroke="#bfbfbf" points="2098,-319 2098,-338 2190,-338 2190,-319 2098,-319"/>
<text text-anchor="middle" x="2144" y="-326" font-family="Helvetica,sans-Serif" font-size="10.00">sophus/so2.hpp</text>
</a>
</g>
</g>
<!-- Node1&#45;&gt;Node34 -->
<g id="edge51" class="edge">
<title>Node1&#45;&gt;Node34</title>
<path fill="none" stroke="midnightblue" d="M1338.64,-404.53C1482.73,-401.62 1814.51,-390.04 2089,-344 2094.48,-343.08 2100.2,-341.87 2105.8,-340.53"/>
<polygon fill="midnightblue" stroke="midnightblue" points="2106.84,-343.88 2115.67,-338.03 2105.12,-337.09 2106.84,-343.88"/>
</g>
<!-- Node6&#45;&gt;Node2 -->
<g id="edge6" class="edge">
<title>Node6&#45;&gt;Node2</title>
<path fill="none" stroke="midnightblue" d="M207.85,-318.92C174.97,-309.15 119.95,-292.52 73,-277 70.55,-276.19 68.03,-275.34 65.5,-274.47"/>
<polygon fill="midnightblue" stroke="midnightblue" points="66.39,-271.08 55.79,-271.1 64.09,-277.69 66.39,-271.08"/>
</g>
<!-- Node7 -->
<g id="node7" class="node">
<title>Node7</title>
<g id="a_node7"><a xlink:title=" ">
<polygon fill="none" stroke="#bfbfbf" points="82,-252 82,-271 146,-271 146,-252 82,-252"/>
<text text-anchor="middle" x="114" y="-259" font-family="Helvetica,sans-Serif" font-size="10.00">execution</text>
</a>
</g>
</g>
<!-- Node6&#45;&gt;Node7 -->
<g id="edge7" class="edge">
<title>Node6&#45;&gt;Node7</title>
<path fill="none" stroke="midnightblue" d="M220.67,-318.87C199.9,-307.89 163.81,-288.82 139.43,-275.94"/>
<polygon fill="midnightblue" stroke="midnightblue" points="140.88,-272.75 130.4,-271.17 137.61,-278.93 140.88,-272.75"/>
</g>
<!-- Node8 -->
<g id="node8" class="node">
<title>Node8</title>
<g id="a_node8"><a xlink:title=" ">
<polygon fill="none" stroke="#bfbfbf" points="164,-252 164,-271 310,-271 310,-252 164,-252"/>
<text text-anchor="middle" x="237" y="-259" font-family="Helvetica,sans-Serif" font-size="10.00">range/v3/action/action.hpp</text>
</a>
</g>
</g>
<!-- Node6&#45;&gt;Node8 -->
<g id="edge8" class="edge">
<title>Node6&#45;&gt;Node8</title>
<path fill="none" stroke="midnightblue" d="M237,-318.73C237,-309.18 237,-293.62 237,-281.28"/>
<polygon fill="midnightblue" stroke="midnightblue" points="240.5,-281.13 237,-271.13 233.5,-281.13 240.5,-281.13"/>
</g>
<!-- Node9 -->
<g id="node9" class="node">
<title>Node9</title>
<g id="a_node9"><a xlink:title=" ">
<polygon fill="none" stroke="#bfbfbf" points="328,-252 328,-271 480,-271 480,-252 328,-252"/>
<text text-anchor="middle" x="404" y="-259" font-family="Helvetica,sans-Serif" font-size="10.00">range/v3/view/common.hpp</text>
</a>
</g>
</g>
<!-- Node6&#45;&gt;Node9 -->
<g id="edge9" class="edge">
<title>Node6&#45;&gt;Node9</title>
<path fill="none" stroke="midnightblue" d="M259.18,-318.87C288.2,-307.57 339.27,-287.7 372.35,-274.82"/>
<polygon fill="midnightblue" stroke="midnightblue" points="373.95,-277.95 382,-271.06 371.41,-271.43 373.95,-277.95"/>
</g>
<!-- Node10&#45;&gt;Node5 -->
<g id="edge12" class="edge">
<title>Node10&#45;&gt;Node5</title>
<path fill="none" stroke="midnightblue" d="M949.62,-313.29C958.45,-303.59 969.79,-290.16 978,-277 1003.28,-236.49 985.17,-209.38 1022,-179 1074.41,-135.77 1157.27,-128.19 1203.32,-127.62"/>
<polygon fill="midnightblue" stroke="midnightblue" points="1203.39,-131.12 1213.38,-127.6 1203.38,-124.12 1203.39,-131.12"/>
</g>
<!-- Node11 -->
<g id="node11" class="node">
<title>Node11</title>
<g id="a_node11"><a xlink:title=" ">
<polygon fill="none" stroke="#bfbfbf" points="922.5,-252 922.5,-271 969.5,-271 969.5,-252 922.5,-252"/>
<text text-anchor="middle" x="946" y="-259" font-family="Helvetica,sans-Serif" font-size="10.00">queue</text>
</a>
</g>
</g>
<!-- Node10&#45;&gt;Node11 -->
<g id="edge11" class="edge">
<title>Node10&#45;&gt;Node11</title>
<path fill="none" stroke="midnightblue" d="M938.17,-313.4C939.62,-303.96 941.55,-291.45 943.12,-281.19"/>
<polygon fill="midnightblue" stroke="midnightblue" points="946.6,-281.61 944.66,-271.19 939.68,-280.55 946.6,-281.61"/>
</g>
<!-- Node12 -->
<g id="node12" class="node">
<title>Node12</title>
<g id="a_node12"><a xlink:title=" ">
<polygon fill="none" stroke="#bfbfbf" points="574.5,-252 574.5,-271 721.5,-271 721.5,-252 574.5,-252"/>
<text text-anchor="middle" x="648" y="-259" font-family="Helvetica,sans-Serif" font-size="10.00">range/v3/range/access.hpp</text>
</a>
</g>
</g>
<!-- Node10&#45;&gt;Node12 -->
<g id="edge13" class="edge">
<title>Node10&#45;&gt;Node12</title>
<path fill="none" stroke="midnightblue" d="M873.86,-313.48C820.45,-301.42 744.53,-284.29 695.76,-273.28"/>
<polygon fill="midnightblue" stroke="midnightblue" points="696.31,-269.82 685.79,-271.03 694.77,-276.64 696.31,-269.82"/>
</g>
<!-- Node13 -->
<g id="node13" class="node">
<title>Node13</title>
<g id="a_node13"><a xlink:title=" ">
<polygon fill="none" stroke="#bfbfbf" points="740,-252 740,-271 904,-271 904,-252 740,-252"/>
<text text-anchor="middle" x="822" y="-259" font-family="Helvetica,sans-Serif" font-size="10.00">range/v3/range/primitives.hpp</text>
</a>
</g>
</g>
<!-- Node10&#45;&gt;Node13 -->
<g id="edge14" class="edge">
<title>Node10&#45;&gt;Node13</title>
<path fill="none" stroke="midnightblue" d="M911.26,-313.4C891.79,-302.29 864.83,-286.92 845.65,-275.98"/>
<polygon fill="midnightblue" stroke="midnightblue" points="847.34,-272.92 836.92,-271.01 843.87,-279 847.34,-272.92"/>
</g>
<!-- Node14 -->
<g id="node14" class="node">
<title>Node14</title>
<g id="a_node14"><a xlink:title=" ">
<polygon fill="none" stroke="#bfbfbf" points="1166.5,-252 1166.5,-271 1329.5,-271 1329.5,-252 1166.5,-252"/>
<text text-anchor="middle" x="1248" y="-259" font-family="Helvetica,sans-Serif" font-size="10.00">range/v3/view/enumerate.hpp</text>
</a>
</g>
</g>
<!-- Node10&#45;&gt;Node14 -->
<g id="edge15" class="edge">
<title>Node10&#45;&gt;Node14</title>
<path fill="none" stroke="midnightblue" d="M1003.32,-313.48C1061.54,-301.34 1144.46,-284.07 1197.25,-273.07"/>
<polygon fill="midnightblue" stroke="midnightblue" points="1197.99,-276.49 1207.06,-271.03 1196.56,-269.64 1197.99,-276.49"/>
</g>
<!-- Node15&#45;&gt;Node5 -->
<g id="edge19" class="edge">
<title>Node15&#45;&gt;Node5</title>
<path fill="none" stroke="midnightblue" d="M1355.47,-313.32C1367.63,-304.54 1381.3,-292.07 1388,-277 1397.79,-254.98 1381.55,-184.47 1377,-179 1350.8,-147.5 1303.34,-135.64 1271.01,-131.19"/>
<polygon fill="midnightblue" stroke="midnightblue" points="1271.03,-127.66 1260.68,-129.94 1270.19,-134.61 1271.03,-127.66"/>
</g>
<!-- Node15&#45;&gt;Node14 -->
<g id="edge37" class="edge">
<title>Node15&#45;&gt;Node14</title>
<path fill="none" stroke="midnightblue" d="M1313.77,-313.4C1300.03,-302.76 1281.22,-288.2 1267.23,-277.38"/>
<polygon fill="midnightblue" stroke="midnightblue" points="1269.29,-274.55 1259.24,-271.19 1265,-280.08 1269.29,-274.55"/>
</g>
<!-- Node16 -->
<g id="node16" class="node">
<title>Node16</title>
<g id="a_node16"><a xlink:title=" ">
<polygon fill="none" stroke="#bfbfbf" points="1318,-185 1318,-204 1368,-204 1368,-185 1318,-185"/>
<text text-anchor="middle" x="1343" y="-192" font-family="Helvetica,sans-Serif" font-size="10.00">cstdint</text>
</a>
</g>
</g>
<!-- Node15&#45;&gt;Node16 -->
<g id="edge17" class="edge">
<title>Node15&#45;&gt;Node16</title>
<path fill="none" stroke="midnightblue" d="M1347.65,-313.25C1356.66,-303.93 1367.15,-290.94 1372,-277 1379.76,-254.71 1367.06,-229.07 1356.1,-212.6"/>
<polygon fill="midnightblue" stroke="midnightblue" points="1358.67,-210.17 1350.02,-204.05 1352.97,-214.23 1358.67,-210.17"/>
</g>
<!-- Node17 -->
<g id="node17" class="node">
<title>Node17</title>
<g id="a_node17"><a xlink:title=" ">
<polygon fill="none" stroke="#bfbfbf" points="1628.5,-252 1628.5,-271 1669.5,-271 1669.5,-252 1628.5,-252"/>
<text text-anchor="middle" x="1649" y="-259" font-family="Helvetica,sans-Serif" font-size="10.00">tuple</text>
</a>
</g>
</g>
<!-- Node15&#45;&gt;Node17 -->
<g id="edge18" class="edge">
<title>Node15&#45;&gt;Node17</title>
<path fill="none" stroke="midnightblue" d="M1390.07,-314.74C1393.09,-314.14 1396.08,-313.56 1399,-313 1496.34,-294.52 1524.53,-306.87 1619,-277 1620.67,-276.47 1622.36,-275.87 1624.05,-275.21"/>
<polygon fill="midnightblue" stroke="midnightblue" points="1625.73,-278.29 1633.47,-271.06 1622.91,-271.89 1625.73,-278.29"/>
</g>
<!-- Node18 -->
<g id="node18" class="node">
<title>Node18</title>
<g id="a_node18"><a xlink:href="linear__grid_8hpp.html" target="_top" xlink:title="Concepts and abstract implementations of linear (ie. contiguous storage) grids.">
<polygon fill="none" stroke="black" points="1500,-246.5 1500,-276.5 1610,-276.5 1610,-246.5 1500,-246.5"/>
<text text-anchor="start" x="1508" y="-264.5" font-family="Helvetica,sans-Serif" font-size="10.00">beluga/sensor/data</text>
<text text-anchor="middle" x="1555" y="-253.5" font-family="Helvetica,sans-Serif" font-size="10.00">/linear_grid.hpp</text>
</a>
</g>
</g>
<!-- Node15&#45;&gt;Node18 -->
<g id="edge20" class="edge">
<title>Node15&#45;&gt;Node18</title>
<path fill="none" stroke="midnightblue" d="M1380.11,-313.48C1414.29,-303.51 1460.36,-290.09 1496.63,-279.51"/>
<polygon fill="midnightblue" stroke="midnightblue" points="1497.97,-282.77 1506.59,-276.61 1496.01,-276.05 1497.97,-282.77"/>
</g>
<!-- Node15&#45;&gt;Node23 -->
<g id="edge39" class="edge">
<title>Node15&#45;&gt;Node23</title>
<path fill="none" stroke="midnightblue" d="M1364.59,-313.44C1379.47,-305.16 1395.62,-293.12 1404,-277 1413.29,-259.14 1403.92,-192.36 1396,-179 1366.85,-129.82 1306.75,-96.42 1269.94,-79.63"/>
<polygon fill="midnightblue" stroke="midnightblue" points="1271.24,-76.37 1260.67,-75.53 1268.4,-82.77 1271.24,-76.37"/>
</g>
<!-- Node24 -->
<g id="node24" class="node">
<title>Node24</title>
<g id="a_node24"><a xlink:title=" ">
<polygon fill="none" stroke="#bfbfbf" points="1667.5,-56.5 1667.5,-75.5 1736.5,-75.5 1736.5,-56.5 1667.5,-56.5"/>
<text text-anchor="middle" x="1702" y="-63.5" font-family="Helvetica,sans-Serif" font-size="10.00">Eigen/Core</text>
</a>
</g>
</g>
<!-- Node15&#45;&gt;Node24 -->
<g id="edge40" class="edge">
<title>Node15&#45;&gt;Node24</title>
<path fill="none" stroke="midnightblue" d="M1390.02,-314.46C1393.05,-313.93 1396.06,-313.44 1399,-313 1446.31,-305.93 1795.62,-312.21 1828,-277 1886.66,-213.21 1772.05,-117.88 1722.89,-81.67"/>
<polygon fill="midnightblue" stroke="midnightblue" points="1724.68,-78.65 1714.52,-75.62 1720.57,-84.32 1724.68,-78.65"/>
</g>
<!-- Node27 -->
<g id="node27" class="node">
<title>Node27</title>
<g id="a_node27"><a xlink:title=" ">
<polygon fill="none" stroke="#bfbfbf" points="1687.5,-252 1687.5,-271 1818.5,-271 1818.5,-252 1687.5,-252"/>
<text text-anchor="middle" x="1753" y="-259" font-family="Helvetica,sans-Serif" font-size="10.00">range/v3/view/filter.hpp</text>
</a>
</g>
</g>
<!-- Node15&#45;&gt;Node27 -->
<g id="edge38" class="edge">
<title>Node15&#45;&gt;Node27</title>
<path fill="none" stroke="midnightblue" d="M1390.05,-314.62C1393.07,-314.05 1396.07,-313.5 1399,-313 1522.65,-291.71 1555.15,-297.07 1679,-277 1686.46,-275.79 1694.31,-274.39 1702.01,-272.95"/>
<polygon fill="midnightblue" stroke="midnightblue" points="1702.82,-276.35 1711.99,-271.03 1701.51,-269.48 1702.82,-276.35"/>
</g>
<!-- Node18&#45;&gt;Node5 -->
<g id="edge23" class="edge">
<title>Node18&#45;&gt;Node5</title>
<path fill="none" stroke="midnightblue" d="M1533.68,-246.46C1506.08,-228.78 1456.05,-198.36 1410,-179 1363.01,-159.24 1305.76,-144.18 1270.35,-135.84"/>
<polygon fill="midnightblue" stroke="midnightblue" points="1271.06,-132.41 1260.53,-133.57 1269.48,-139.23 1271.06,-132.41"/>
</g>
<!-- Node18&#45;&gt;Node16 -->
<g id="edge21" class="edge">
<title>Node18&#45;&gt;Node16</title>
<path fill="none" stroke="midnightblue" d="M1509.26,-246.48C1469.93,-234.42 1414.03,-217.28 1378.13,-206.27"/>
<polygon fill="midnightblue" stroke="midnightblue" points="1378.71,-202.79 1368.12,-203.2 1376.66,-209.48 1378.71,-202.79"/>
</g>
<!-- Node19 -->
<g id="node19" class="node">
<title>Node19</title>
<g id="a_node19"><a xlink:title=" ">
<polygon fill="none" stroke="#bfbfbf" points="1621,-118 1621,-137 1677,-137 1677,-118 1621,-118"/>
<text text-anchor="middle" x="1649" y="-125" font-family="Helvetica,sans-Serif" font-size="10.00">optional</text>
</a>
</g>
</g>
<!-- Node18&#45;&gt;Node19 -->
<g id="edge22" class="edge">
<title>Node18&#45;&gt;Node19</title>
<path fill="none" stroke="midnightblue" d="M1578.71,-246.46C1592.11,-237.48 1608.28,-224.78 1619,-210 1632.87,-190.88 1641,-164.64 1645.22,-147.15"/>
<polygon fill="midnightblue" stroke="midnightblue" points="1648.71,-147.61 1647.45,-137.09 1641.87,-146.09 1648.71,-147.61"/>
</g>
<!-- Node20 -->
<g id="node20" class="node">
<title>Node20</title>
<g id="a_node20"><a xlink:href="dense__grid_8hpp.html" target="_top" xlink:title="Concepts and abstract implementations of dense grids.">
<polygon fill="none" stroke="black" points="1500,-179.5 1500,-209.5 1610,-209.5 1610,-179.5 1500,-179.5"/>
<text text-anchor="start" x="1508" y="-197.5" font-family="Helvetica,sans-Serif" font-size="10.00">beluga/sensor/data</text>
<text text-anchor="middle" x="1555" y="-186.5" font-family="Helvetica,sans-Serif" font-size="10.00">/dense_grid.hpp</text>
</a>
</g>
</g>
<!-- Node18&#45;&gt;Node20 -->
<g id="edge24" class="edge">
<title>Node18&#45;&gt;Node20</title>
<path fill="none" stroke="midnightblue" d="M1555,-246.4C1555,-238.64 1555,-228.81 1555,-219.86"/>
<polygon fill="midnightblue" stroke="midnightblue" points="1558.5,-219.58 1555,-209.58 1551.5,-219.58 1558.5,-219.58"/>
</g>
<!-- Node18&#45;&gt;Node24 -->
<g id="edge36" class="edge">
<title>Node18&#45;&gt;Node24</title>
<path fill="none" stroke="midnightblue" d="M1585.88,-246.31C1603.04,-237.45 1624.09,-224.9 1640,-210 1666.36,-185.31 1671.78,-176.2 1686,-143 1693.94,-124.45 1698.07,-101.61 1700.12,-85.84"/>
<polygon fill="midnightblue" stroke="midnightblue" points="1703.62,-86.1 1701.28,-75.77 1696.66,-85.3 1703.62,-86.1"/>
</g>
<!-- Node20&#45;&gt;Node5 -->
<g id="edge26" class="edge">
<title>Node20&#45;&gt;Node5</title>
<path fill="none" stroke="midnightblue" d="M1499.97,-182.25C1433.84,-168.73 1324.97,-146.48 1270.39,-135.32"/>
<polygon fill="midnightblue" stroke="midnightblue" points="1271.04,-131.88 1260.54,-133.31 1269.64,-138.74 1271.04,-131.88"/>
</g>
<!-- Node20&#45;&gt;Node19 -->
<g id="edge25" class="edge">
<title>Node20&#45;&gt;Node19</title>
<path fill="none" stroke="midnightblue" d="M1575.4,-179.4C1591.01,-168.6 1612.48,-153.76 1628.19,-142.89"/>
<polygon fill="midnightblue" stroke="midnightblue" points="1630.46,-145.57 1636.7,-137.01 1626.48,-139.82 1630.46,-145.57"/>
</g>
<!-- Node21 -->
<g id="node21" class="node">
<title>Node21</title>
<g id="a_node21"><a xlink:href="regular__grid_8hpp.html" target="_top" xlink:title="Concepts and abstract implementations of regular grids.">
<polygon fill="none" stroke="black" points="1417,-112.5 1417,-142.5 1527,-142.5 1527,-112.5 1417,-112.5"/>
<text text-anchor="start" x="1425" y="-130.5" font-family="Helvetica,sans-Serif" font-size="10.00">beluga/sensor/data</text>
<text text-anchor="middle" x="1472" y="-119.5" font-family="Helvetica,sans-Serif" font-size="10.00">/regular_grid.hpp</text>
</a>
</g>
</g>
<!-- Node20&#45;&gt;Node21 -->
<g id="edge27" class="edge">
<title>Node20&#45;&gt;Node21</title>
<path fill="none" stroke="midnightblue" d="M1536.99,-179.4C1525.57,-170.45 1510.61,-158.74 1497.92,-148.8"/>
<polygon fill="midnightblue" stroke="midnightblue" points="1500.01,-145.99 1489.97,-142.58 1495.69,-151.5 1500.01,-145.99"/>
</g>
<!-- Node20&#45;&gt;Node24 -->
<g id="edge34" class="edge">
<title>Node20&#45;&gt;Node24</title>
<path fill="none" stroke="midnightblue" d="M1562.12,-179.2C1571.52,-161.52 1589.52,-131.4 1612,-112 1628.29,-97.94 1649.74,-86.99 1667.62,-79.41"/>
<polygon fill="midnightblue" stroke="midnightblue" points="1669.18,-82.56 1677.12,-75.55 1666.54,-76.07 1669.18,-82.56"/>
</g>
<!-- Node25 -->
<g id="node25" class="node">
<title>Node25</title>
<g id="a_node25"><a xlink:href="eigen__compatibility_8hpp_source.html" target="_top" xlink:title=" ">
<polygon fill="none" stroke="black" points="1474.5,-56.5 1474.5,-75.5 1643.5,-75.5 1643.5,-56.5 1474.5,-56.5"/>
<text text-anchor="middle" x="1559" y="-63.5" font-family="Helvetica,sans-Serif" font-size="10.00">beluga/eigen_compatibility.hpp</text>
</a>
</g>
</g>
<!-- Node20&#45;&gt;Node25 -->
<g id="edge35" class="edge">
<title>Node20&#45;&gt;Node25</title>
<path fill="none" stroke="midnightblue" d="M1555.44,-179.48C1556.16,-156.72 1557.59,-111.7 1558.4,-86.06"/>
<polygon fill="midnightblue" stroke="midnightblue" points="1561.9,-85.89 1558.72,-75.79 1554.91,-85.67 1561.9,-85.89"/>
</g>
<!-- Node21&#45;&gt;Node3 -->
<g id="edge28" class="edge">
<title>Node21&#45;&gt;Node3</title>
<path fill="none" stroke="midnightblue" d="M1416.9,-121.55C1284.26,-109.65 950.28,-79.68 842.85,-70.04"/>
<polygon fill="midnightblue" stroke="midnightblue" points="842.87,-66.53 832.6,-69.12 842.25,-73.5 842.87,-66.53"/>
</g>
<!-- Node22 -->
<g id="node22" class="node">
<title>Node22</title>
<g id="a_node22"><a xlink:href="ciabatta_8hpp_source.html" target="_top" xlink:title=" ">
<polygon fill="none" stroke="black" points="1336,-56.5 1336,-75.5 1456,-75.5 1456,-56.5 1336,-56.5"/>
<text text-anchor="middle" x="1396" y="-63.5" font-family="Helvetica,sans-Serif" font-size="10.00">ciabatta/ciabatta.hpp</text>
</a>
</g>
</g>
<!-- Node21&#45;&gt;Node22 -->
<g id="edge29" class="edge">
<title>Node21&#45;&gt;Node22</title>
<path fill="none" stroke="midnightblue" d="M1453.99,-112.4C1442.26,-103.22 1426.98,-91.26 1415.06,-81.92"/>
<polygon fill="midnightblue" stroke="midnightblue" points="1417.09,-79.07 1407.06,-75.66 1412.78,-84.58 1417.09,-79.07"/>
</g>
<!-- Node21&#45;&gt;Node23 -->
<g id="edge30" class="edge">
<title>Node21&#45;&gt;Node23</title>
<path fill="none" stroke="midnightblue" d="M1417.08,-112.47C1375.83,-101.94 1320.12,-87.72 1282.07,-78"/>
<polygon fill="midnightblue" stroke="midnightblue" points="1282.87,-74.59 1272.31,-75.51 1281.13,-81.37 1282.87,-74.59"/>
</g>
<!-- Node21&#45;&gt;Node24 -->
<g id="edge31" class="edge">
<title>Node21&#45;&gt;Node24</title>
<path fill="none" stroke="midnightblue" d="M1526.22,-112.47C1566.76,-101.99 1621.45,-87.84 1659.01,-78.12"/>
<polygon fill="midnightblue" stroke="midnightblue" points="1660.31,-81.4 1669.12,-75.51 1658.56,-74.62 1660.31,-81.4"/>
</g>
<!-- Node21&#45;&gt;Node25 -->
<g id="edge32" class="edge">
<title>Node21&#45;&gt;Node25</title>
<path fill="none" stroke="midnightblue" d="M1492.62,-112.4C1506.3,-103.04 1524.21,-90.79 1537.98,-81.38"/>
<polygon fill="midnightblue" stroke="midnightblue" points="1540.06,-84.19 1546.34,-75.66 1536.11,-78.41 1540.06,-84.19"/>
</g>
<!-- Node26 -->
<g id="node26" class="node">
<title>Node26</title>
<g id="a_node26"><a xlink:title=" ">
<polygon fill="none" stroke="#bfbfbf" points="1520.5,-0.5 1520.5,-19.5 1597.5,-19.5 1597.5,-0.5 1520.5,-0.5"/>
<text text-anchor="middle" x="1559" y="-7.5" font-family="Helvetica,sans-Serif" font-size="10.00">Eigen/Dense</text>
</a>
</g>
</g>
<!-- Node25&#45;&gt;Node26 -->
<g id="edge33" class="edge">
<title>Node25&#45;&gt;Node26</title>
<path fill="none" stroke="midnightblue" d="M1559,-56.08C1559,-49.01 1559,-38.86 1559,-29.99"/>
<polygon fill="midnightblue" stroke="midnightblue" points="1562.5,-29.75 1559,-19.75 1555.5,-29.75 1562.5,-29.75"/>
</g>
<!-- Node28&#45;&gt;Node5 -->
<g id="edge44" class="edge">
<title>Node28&#45;&gt;Node5</title>
<path fill="none" stroke="midnightblue" d="M1183.37,-313.13C1173.57,-303.96 1162.3,-291.16 1157,-277 1152.17,-264.1 1152.94,-259.17 1157,-246 1169.57,-205.19 1201.7,-165.87 1221.2,-144.67"/>
<polygon fill="midnightblue" stroke="midnightblue" points="1223.91,-146.9 1228.22,-137.22 1218.82,-142.09 1223.91,-146.9"/>
</g>
<!-- Node28&#45;&gt;Node16 -->
<g id="edge42" class="edge">
<title>Node28&#45;&gt;Node16</title>
<path fill="none" stroke="midnightblue" d="M1256.31,-313.73C1289.69,-304.22 1327.71,-290.83 1338,-277 1351.39,-259 1350.13,-232.11 1347.23,-214.2"/>
<polygon fill="midnightblue" stroke="midnightblue" points="1350.61,-213.28 1345.26,-204.14 1343.74,-214.62 1350.61,-213.28"/>
</g>
<!-- Node28&#45;&gt;Node18 -->
<g id="edge45" class="edge">
<title>Node28&#45;&gt;Node18</title>
<path fill="none" stroke="midnightblue" d="M1256.12,-314.83C1259.12,-314.19 1262.1,-313.58 1265,-313 1341.98,-297.59 1430.99,-282.49 1489.88,-272.88"/>
<polygon fill="midnightblue" stroke="midnightblue" points="1490.48,-276.32 1499.79,-271.26 1489.36,-269.42 1490.48,-276.32"/>
</g>
<!-- Node29 -->
<g id="node29" class="node">
<title>Node29</title>
<g id="a_node29"><a xlink:title=" ">
<polygon fill="none" stroke="#bfbfbf" points="1064.5,-252 1064.5,-271 1109.5,-271 1109.5,-252 1064.5,-252"/>
<text text-anchor="middle" x="1087" y="-259" font-family="Helvetica,sans-Serif" font-size="10.00">utility</text>
</a>
</g>
</g>
<!-- Node28&#45;&gt;Node29 -->
<g id="edge43" class="edge">
<title>Node28&#45;&gt;Node29</title>
<path fill="none" stroke="midnightblue" d="M1176.26,-313.4C1156.79,-302.29 1129.83,-286.92 1110.65,-275.98"/>
<polygon fill="midnightblue" stroke="midnightblue" points="1112.34,-272.92 1101.92,-271.01 1108.87,-279 1112.34,-272.92"/>
</g>
</g>
</svg>
        <g id="navigator" transform="translate(0 0)" fill="#404254">
                <rect fill="#f2f5e9" fill-opacity="0.5" stroke="#606060" stroke-width=".5" x="0" y="0" width="60" height="60"/>
                <use id="zoomplus" xlink:href="#zoomPlus" x="17" y="9" onmousedown="handleZoom(evt,'in')"/>
                <use id="zoomminus" xlink:href="#zoomMin" x="42" y="9" onmousedown="handleZoom(evt,'out')"/>
                <use id="reset" xlink:href="#resetDef" x="30" y="36" onmousedown="handleReset()"/>
                <g id="arrowUp" xlink:href="#dirArrow" transform="translate(30 24)" onmousedown="handlePan(0,-1)">
                  <use xlink:href="#rim" fill="#404040">
                        <set attributeName="fill" to="#808080" begin="arrowUp.mouseover" end="arrowUp.mouseout"/>
                  </use>
                  <path fill="none" stroke="white" stroke-width="1.5" d="M0,-3.0v7 M-2.5,-0.5L0,-3.0L2.5,-0.5"/>
                </g>
                <g id="arrowRight" xlink:href="#dirArrow" transform="rotate(90) translate(36 -43)" onmousedown="handlePan(1,0)">
                  <use xlink:href="#rim" fill="#404040">
                        <set attributeName="fill" to="#808080" begin="arrowRight.mouseover" end="arrowRight.mouseout"/>
                  </use>
                  <path fill="none" stroke="white" stroke-width="1.5" d="M0,-3.0v7 M-2.5,-0.5L0,-3.0L2.5,-0.5"/>
                </g>
                <g id="arrowDown" xlink:href="#dirArrow" transform="rotate(180) translate(-30 -48)" onmousedown="handlePan(0,1)">
                  <use xlink:href="#rim" fill="#404040">
                        <set attributeName="fill" to="#808080" begin="arrowDown.mouseover" end="arrowDown.mouseout"/>
                  </use>
                  <path fill="none" stroke="white" stroke-width="1.5" d="M0,-3.0v7 M-2.5,-0.5L0,-3.0L2.5,-0.5"/>
                </g>
                <g id="arrowLeft" xlink:href="#dirArrow" transform="rotate(270) translate(-36 17)" onmousedown="handlePan(-1,0)">
                  <use xlink:href="#rim" fill="#404040">
                        <set attributeName="fill" to="#808080" begin="arrowLeft.mouseover" end="arrowLeft.mouseout"/>
                  </use>
                  <path fill="none" stroke="white" stroke-width="1.5" d="M0,-3.0v7 M-2.5,-0.5L0,-3.0L2.5,-0.5"/>
                </g>
        </g>
        <svg viewBox="0 0 15 15" width="100%" height="30px" preserveAspectRatio="xMaxYMin meet">
         <g id="arrow_out" transform="scale(0.3 0.3)">
          <a xlink:href="likelihood__field__model_8hpp__incl_org.svg" target="_base">
           <rect id="button" ry="5" rx="5" y="6" x="6" height="38" width="38"
                fill="#f2f5e9" fill-opacity="0.5" stroke="#606060" stroke-width="1.0"/>
           <path id="arrow"
             d="M 11.500037,31.436501 C 11.940474,20.09759 22.043105,11.32322 32.158766,21.979434 L 37.068811,17.246167 C 37.068811,17.246167 37.088388,32 37.088388,32 L 22.160133,31.978069 C 22.160133,31.978069 26.997745,27.140456 26.997745,27.140456 C 18.528582,18.264221 13.291696,25.230495 11.500037,31.436501 z"
             style="fill:#404040;"/>
          </a>
         </g>
        </svg>
</svg>
