<?xml version="1.0" encoding="UTF-8" standalone="no"?>
<!DOCTYPE svg PUBLIC "-//W3C//DTD SVG 1.1//EN"
 "http://www.w3.org/Graphics/SVG/1.1/DTD/svg11.dtd">
<!-- Generated by graphviz version 2.43.0 (0)
 -->
<!-- Title: /home/runner/work/beluga/beluga/beluga/include/beluga/sensor/likelihood_field_prob_model.hpp Pages: 1 -->
<!--zoomable 508 -->
<svg id="main" version="1.1" xmlns="http://www.w3.org/2000/svg" xmlns:xlink="http://www.w3.org/1999/xlink" xml:space="preserve" onload="init(evt)">
<style type="text/css"><![CDATA[
.edge:hover path { stroke: red; }
.edge:hover polygon { stroke: red; fill: red; }
]]></style>
<script type="text/javascript"><![CDATA[
var edges = document.getElementsByTagName('g');
if (edges && edges.length) {
  for (var i=0;i<edges.length;i++) {
    if (edges[i].id.substr(0,4)=='edge') {
      edges[i].setAttribute('class','edge');
    }
  }
}
]]></script>
        <defs>
                <circle id="rim" cx="0" cy="0" r="7"/>
                <circle id="rim2" cx="0" cy="0" r="3.5"/>
                <g id="zoomPlus">
                        <use xlink:href="#rim" fill="#404040">
                                <set attributeName="fill" to="#808080" begin="zoomplus.mouseover" end="zoomplus.mouseout"/>
                        </use>
                        <path d="M-4,0h8M0,-4v8" fill="none" stroke="white" stroke-width="1.5" pointer-events="none"/>
                </g>
                <g id="zoomMin">
                        <use xlink:href="#rim" fill="#404040">
                                <set attributeName="fill" to="#808080" begin="zoomminus.mouseover" end="zoomminus.mouseout"/>
                        </use>
                        <path d="M-4,0h8" fill="none" stroke="white" stroke-width="1.5" pointer-events="none"/>
                </g>
                <g id="dirArrow">
                        <path fill="none" stroke="white" stroke-width="1.5" d="M0,-3.0v7 M-2.5,-0.5L0,-3.0L2.5,-0.5"/>
                </g>
               <g id="resetDef">
                       <use xlink:href="#rim2" fill="#404040">
                               <set attributeName="fill" to="#808080" begin="reset.mouseover" end="reset.mouseout"/>
                       </use>
               </g>
        </defs>

<script type="text/javascript">
var viewWidth = 1882;
var viewHeight = 508;
var sectionId = 'dynsection-0';
</script>
<script xlink:href="svgpan.js"/>
<svg id="graph" class="graph">
<g id="viewport">
<title>/home/runner/work/beluga/beluga/beluga/include/beluga/sensor/likelihood_field_prob_model.hpp</title>
<!-- Node1 -->
<g id="node1" class="node">
<title>Node1</title>
<g id="a_node1"><a xlink:title="Implementation of a likelihood field prob sensor model for range finders.">
<polygon fill="#bfbfbf" stroke="black" points="1678.5,-447.5 1678.5,-499.5 1823.5,-499.5 1823.5,-447.5 1678.5,-447.5"/>
<text text-anchor="start" x="1686.5" y="-487.5" font-family="Helvetica,sans-Serif" font-size="10.00">/home/runner/work/beluga</text>
<text text-anchor="start" x="1686.5" y="-476.5" font-family="Helvetica,sans-Serif" font-size="10.00">/beluga/beluga/include</text>
<text text-anchor="start" x="1686.5" y="-465.5" font-family="Helvetica,sans-Serif" font-size="10.00">/beluga/sensor/likelihood</text>
<text text-anchor="middle" x="1751" y="-454.5" font-family="Helvetica,sans-Serif" font-size="10.00">_field_prob_model.hpp</text>
</a>
</g>
</g>
<!-- Node2 -->
<g id="node2" class="node">
<title>Node2</title>
<g id="a_node2"><a xlink:title=" ">
<polygon fill="none" stroke="#bfbfbf" points="1744,-252 1744,-271 1808,-271 1808,-252 1744,-252"/>
<text text-anchor="middle" x="1776" y="-259" font-family="Helvetica,sans-Serif" font-size="10.00">algorithm</text>
</a>
</g>
</g>
<!-- Node1&#45;&gt;Node2 -->
<g id="edge1" class="edge">
<title>Node1&#45;&gt;Node2</title>
<path fill="none" stroke="midnightblue" d="M1761.99,-447.39C1774.39,-416.22 1792.2,-361.26 1787,-313 1785.85,-302.36 1783.39,-290.66 1781.08,-281.21"/>
<polygon fill="midnightblue" stroke="midnightblue" points="1784.42,-280.15 1778.53,-271.34 1777.64,-281.9 1784.42,-280.15"/>
</g>
<!-- Node3 -->
<g id="node3" class="node">
<title>Node3</title>
<g id="a_node3"><a xlink:href="likelihood__field__model__base_8hpp.html" target="_top" xlink:title="Implementation of a likelihood field common sensor model for range finders.">
<polygon fill="none" stroke="black" points="986.5,-380.5 986.5,-410.5 1121.5,-410.5 1121.5,-380.5 986.5,-380.5"/>
<text text-anchor="start" x="994.5" y="-398.5" font-family="Helvetica,sans-Serif" font-size="10.00">beluga/sensor/likelihood</text>
<text text-anchor="middle" x="1054" y="-387.5" font-family="Helvetica,sans-Serif" font-size="10.00">_field_model_base.hpp</text>
</a>
</g>
</g>
<!-- Node1&#45;&gt;Node3 -->
<g id="edge2" class="edge">
<title>Node1&#45;&gt;Node3</title>
<path fill="none" stroke="midnightblue" d="M1678.38,-464.58C1546.28,-450.18 1267.78,-419.81 1131.89,-404.99"/>
<polygon fill="midnightblue" stroke="midnightblue" points="1131.88,-401.47 1121.56,-403.87 1131.12,-408.43 1131.88,-401.47"/>
</g>
<!-- Node10 -->
<g id="node10" class="node">
<title>Node10</title>
<g id="a_node10"><a xlink:title=" ">
<polygon fill="none" stroke="#bfbfbf" points="230.5,-118 230.5,-137 277.5,-137 277.5,-118 230.5,-118"/>
<text text-anchor="middle" x="254" y="-125" font-family="Helvetica,sans-Serif" font-size="10.00">vector</text>
</a>
</g>
</g>
<!-- Node1&#45;&gt;Node10 -->
<g id="edge52" class="edge">
<title>Node1&#45;&gt;Node10</title>
<path fill="none" stroke="midnightblue" d="M1678.27,-470.43C1347.35,-460.56 0,-415.12 0,-329.5 0,-329.5 0,-329.5 0,-260.5 0,-162.41 150.98,-137.11 220.13,-130.67"/>
<polygon fill="midnightblue" stroke="midnightblue" points="220.44,-134.15 230.1,-129.81 219.84,-127.18 220.44,-134.15"/>
</g>
<!-- Node21 -->
<g id="node21" class="node">
<title>Node21</title>
<g id="a_node21"><a xlink:title=" ">
<polygon fill="none" stroke="#bfbfbf" points="1812.5,-56.5 1812.5,-75.5 1859.5,-75.5 1859.5,-56.5 1812.5,-56.5"/>
<text text-anchor="middle" x="1836" y="-63.5" font-family="Helvetica,sans-Serif" font-size="10.00">cmath</text>
</a>
</g>
</g>
<!-- Node1&#45;&gt;Node21 -->
<g id="edge50" class="edge">
<title>Node1&#45;&gt;Node21</title>
<path fill="none" stroke="midnightblue" d="M1792.64,-447.47C1828.33,-422.51 1874,-380.58 1874,-329.5 1874,-329.5 1874,-329.5 1874,-193.5 1874,-156.75 1871.91,-146.77 1860,-112 1856.7,-102.37 1851.52,-92.31 1846.82,-84.15"/>
<polygon fill="midnightblue" stroke="midnightblue" points="1849.82,-82.34 1841.66,-75.58 1843.82,-85.96 1849.82,-82.34"/>
</g>
<!-- Node30 -->
<g id="node30" class="node">
<title>Node30</title>
<g id="a_node30"><a xlink:title=" ">
<polygon fill="none" stroke="#bfbfbf" points="1724,-319 1724,-338 1778,-338 1778,-319 1724,-319"/>
<text text-anchor="middle" x="1751" y="-326" font-family="Helvetica,sans-Serif" font-size="10.00">random</text>
</a>
</g>
</g>
<!-- Node1&#45;&gt;Node30 -->
<g id="edge51" class="edge">
<title>Node1&#45;&gt;Node30</title>
<path fill="none" stroke="midnightblue" d="M1751,-447.26C1751,-418.89 1751,-373.5 1751,-348.15"/>
<polygon fill="midnightblue" stroke="midnightblue" points="1754.5,-348.05 1751,-338.05 1747.5,-348.05 1754.5,-348.05"/>
</g>
<!-- Node3&#45;&gt;Node2 -->
<g id="edge3" class="edge">
<title>Node3&#45;&gt;Node2</title>
<path fill="none" stroke="midnightblue" d="M1121.51,-393.6C1220.21,-390.99 1409.11,-381.09 1565,-344 1633.85,-327.62 1710.34,-293.91 1749.58,-275.39"/>
<polygon fill="midnightblue" stroke="midnightblue" points="1751.21,-278.49 1758.73,-271.03 1748.2,-272.17 1751.21,-278.49"/>
</g>
<!-- Node4 -->
<g id="node4" class="node">
<title>Node4</title>
<g id="a_node4"><a xlink:href="overlay_8hpp.html" target="_top" xlink:title="Implementation of the overlay range adaptor object.">
<polygon fill="none" stroke="black" points="1409.5,-319 1409.5,-338 1556.5,-338 1556.5,-319 1409.5,-319"/>
<text text-anchor="middle" x="1483" y="-326" font-family="Helvetica,sans-Serif" font-size="10.00">beluga/actions/overlay.hpp</text>
</a>
</g>
</g>
<!-- Node3&#45;&gt;Node4 -->
<g id="edge4" class="edge">
<title>Node3&#45;&gt;Node4</title>
<path fill="none" stroke="midnightblue" d="M1121.5,-384.27C1202.29,-372.03 1336.67,-351.67 1416.85,-339.52"/>
<polygon fill="midnightblue" stroke="midnightblue" points="1417.47,-342.97 1426.83,-338.01 1416.42,-336.05 1417.47,-342.97"/>
</g>
<!-- Node8 -->
<g id="node8" class="node">
<title>Node8</title>
<g id="a_node8"><a xlink:href="distance__map_8hpp.html" target="_top" xlink:title="Implementation of algorithm to calculate distance from obstacles.">
<polygon fill="none" stroke="black" points="982,-313.5 982,-343.5 1126,-343.5 1126,-313.5 982,-313.5"/>
<text text-anchor="start" x="990" y="-331.5" font-family="Helvetica,sans-Serif" font-size="10.00">beluga/algorithm/distance</text>
<text text-anchor="middle" x="1054" y="-320.5" font-family="Helvetica,sans-Serif" font-size="10.00">_map.hpp</text>
</a>
</g>
</g>
<!-- Node3&#45;&gt;Node8 -->
<g id="edge9" class="edge">
<title>Node3&#45;&gt;Node8</title>
<path fill="none" stroke="midnightblue" d="M1054,-380.4C1054,-372.64 1054,-362.81 1054,-353.86"/>
<polygon fill="midnightblue" stroke="midnightblue" points="1057.5,-353.58 1054,-343.58 1050.5,-353.58 1057.5,-353.58"/>
</g>
<!-- Node3&#45;&gt;Node10 -->
<g id="edge49" class="edge">
<title>Node3&#45;&gt;Node10</title>
<path fill="none" stroke="midnightblue" d="M986.4,-393.94C783.93,-391.82 191.53,-382.39 114,-344 68.85,-321.64 33.7,-290.68 57,-246 90.03,-182.68 173.46,-150.41 220.47,-136.76"/>
<polygon fill="midnightblue" stroke="midnightblue" points="221.5,-140.11 230.19,-134.06 219.62,-133.37 221.5,-140.11"/>
</g>
<!-- Node14 -->
<g id="node14" class="node">
<title>Node14</title>
<g id="a_node14"><a xlink:href="occupancy__grid_8hpp.html" target="_top" xlink:title="Concepts and abstract implementations of occupancy grids.">
<polygon fill="none" stroke="black" points="522,-313.5 522,-343.5 638,-343.5 638,-313.5 522,-313.5"/>
<text text-anchor="start" x="530" y="-331.5" font-family="Helvetica,sans-Serif" font-size="10.00">beluga/sensor/data</text>
<text text-anchor="middle" x="580" y="-320.5" font-family="Helvetica,sans-Serif" font-size="10.00">/occupancy_grid.hpp</text>
</a>
</g>
</g>
<!-- Node3&#45;&gt;Node14 -->
<g id="edge15" class="edge">
<title>Node3&#45;&gt;Node14</title>
<path fill="none" stroke="midnightblue" d="M986.25,-385.49C911.5,-375.52 787.63,-358.87 681,-344 670.39,-342.52 659.15,-340.93 648.18,-339.36"/>
<polygon fill="midnightblue" stroke="midnightblue" points="648.6,-335.89 638.2,-337.94 647.61,-342.82 648.6,-335.89"/>
</g>
<!-- Node3&#45;&gt;Node21 -->
<g id="edge45" class="edge">
<title>Node3&#45;&gt;Node21</title>
<path fill="none" stroke="midnightblue" d="M1121.86,-394C1229.97,-391.98 1447.42,-382.93 1627,-344 1627,-344 1817,-277 1817,-277 1861.48,-219.81 1848.54,-125.52 1840.38,-85.69"/>
<polygon fill="midnightblue" stroke="midnightblue" points="1843.76,-84.79 1838.21,-75.77 1836.93,-86.29 1843.76,-84.79"/>
</g>
<!-- Node28 -->
<g id="node28" class="node">
<title>Node28</title>
<g id="a_node28"><a xlink:href="value__grid_8hpp.html" target="_top" xlink:title="Implementation of generic value grid.">
<polygon fill="none" stroke="black" points="123,-313.5 123,-343.5 233,-343.5 233,-313.5 123,-313.5"/>
<text text-anchor="start" x="131" y="-331.5" font-family="Helvetica,sans-Serif" font-size="10.00">beluga/sensor/data</text>
<text text-anchor="middle" x="178" y="-320.5" font-family="Helvetica,sans-Serif" font-size="10.00">/value_grid.hpp</text>
</a>
</g>
</g>
<!-- Node3&#45;&gt;Node28 -->
<g id="edge40" class="edge">
<title>Node3&#45;&gt;Node28</title>
<path fill="none" stroke="midnightblue" d="M986.35,-389.48C822.31,-377.31 404.94,-346.34 243.32,-334.35"/>
<polygon fill="midnightblue" stroke="midnightblue" points="243.28,-330.83 233.05,-333.58 242.76,-337.82 243.28,-330.83"/>
</g>
<!-- Node3&#45;&gt;Node30 -->
<g id="edge46" class="edge">
<title>Node3&#45;&gt;Node30</title>
<path fill="none" stroke="midnightblue" d="M1121.88,-395.11C1241.88,-394.9 1498.78,-388.66 1710,-344 1713.43,-343.28 1716.96,-342.34 1720.45,-341.29"/>
<polygon fill="midnightblue" stroke="midnightblue" points="1721.63,-344.58 1730.03,-338.11 1719.43,-337.93 1721.63,-344.58"/>
</g>
<!-- Node31 -->
<g id="node31" class="node">
<title>Node31</title>
<g id="a_node31"><a xlink:title=" ">
<polygon fill="none" stroke="#bfbfbf" points="690,-319 690,-338 854,-338 854,-319 690,-319"/>
<text text-anchor="middle" x="772" y="-326" font-family="Helvetica,sans-Serif" font-size="10.00">range/v3/action/transform.hpp</text>
</a>
</g>
</g>
<!-- Node3&#45;&gt;Node31 -->
<g id="edge47" class="edge">
<title>Node3&#45;&gt;Node31</title>
<path fill="none" stroke="midnightblue" d="M993.16,-380.48C940.86,-368.42 866.52,-351.29 818.77,-340.28"/>
<polygon fill="midnightblue" stroke="midnightblue" points="819.53,-336.86 809,-338.03 817.96,-343.69 819.53,-336.86"/>
</g>
<!-- Node32 -->
<g id="node32" class="node">
<title>Node32</title>
<g id="a_node32"><a xlink:title=" ">
<polygon fill="none" stroke="#bfbfbf" points="872,-319 872,-338 964,-338 964,-319 872,-319"/>
<text text-anchor="middle" x="918" y="-326" font-family="Helvetica,sans-Serif" font-size="10.00">sophus/se2.hpp</text>
</a>
</g>
</g>
<!-- Node3&#45;&gt;Node32 -->
<g id="edge48" class="edge">
<title>Node3&#45;&gt;Node32</title>
<path fill="none" stroke="midnightblue" d="M1024.49,-380.4C1000.84,-369.09 967.92,-353.36 944.97,-342.39"/>
<polygon fill="midnightblue" stroke="midnightblue" points="946.33,-339.16 935.8,-338.01 943.31,-345.48 946.33,-339.16"/>
</g>
<!-- Node4&#45;&gt;Node2 -->
<g id="edge5" class="edge">
<title>Node4&#45;&gt;Node2</title>
<path fill="none" stroke="midnightblue" d="M1537.1,-318.95C1588.49,-310.29 1667.68,-295.55 1735,-277 1737.96,-276.18 1741.02,-275.26 1744.06,-274.29"/>
<polygon fill="midnightblue" stroke="midnightblue" points="1745.27,-277.57 1753.63,-271.06 1743.03,-270.94 1745.27,-277.57"/>
</g>
<!-- Node5 -->
<g id="node5" class="node">
<title>Node5</title>
<g id="a_node5"><a xlink:title=" ">
<polygon fill="none" stroke="#bfbfbf" points="1328,-252 1328,-271 1392,-271 1392,-252 1328,-252"/>
<text text-anchor="middle" x="1360" y="-259" font-family="Helvetica,sans-Serif" font-size="10.00">execution</text>
</a>
</g>
</g>
<!-- Node4&#45;&gt;Node5 -->
<g id="edge6" class="edge">
<title>Node4&#45;&gt;Node5</title>
<path fill="none" stroke="midnightblue" d="M1466.67,-318.87C1445.9,-307.89 1409.81,-288.82 1385.43,-275.94"/>
<polygon fill="midnightblue" stroke="midnightblue" points="1386.88,-272.75 1376.4,-271.17 1383.61,-278.93 1386.88,-272.75"/>
</g>
<!-- Node6 -->
<g id="node6" class="node">
<title>Node6</title>
<g id="a_node6"><a xlink:title=" ">
<polygon fill="none" stroke="#bfbfbf" points="1410,-252 1410,-271 1556,-271 1556,-252 1410,-252"/>
<text text-anchor="middle" x="1483" y="-259" font-family="Helvetica,sans-Serif" font-size="10.00">range/v3/action/action.hpp</text>
</a>
</g>
</g>
<!-- Node4&#45;&gt;Node6 -->
<g id="edge7" class="edge">
<title>Node4&#45;&gt;Node6</title>
<path fill="none" stroke="midnightblue" d="M1483,-318.73C1483,-309.18 1483,-293.62 1483,-281.28"/>
<polygon fill="midnightblue" stroke="midnightblue" points="1486.5,-281.13 1483,-271.13 1479.5,-281.13 1486.5,-281.13"/>
</g>
<!-- Node7 -->
<g id="node7" class="node">
<title>Node7</title>
<g id="a_node7"><a xlink:title=" ">
<polygon fill="none" stroke="#bfbfbf" points="1574,-252 1574,-271 1726,-271 1726,-252 1574,-252"/>
<text text-anchor="middle" x="1650" y="-259" font-family="Helvetica,sans-Serif" font-size="10.00">range/v3/view/common.hpp</text>
</a>
</g>
</g>
<!-- Node4&#45;&gt;Node7 -->
<g id="edge8" class="edge">
<title>Node4&#45;&gt;Node7</title>
<path fill="none" stroke="midnightblue" d="M1505.18,-318.87C1534.2,-307.57 1585.27,-287.7 1618.35,-274.82"/>
<polygon fill="midnightblue" stroke="midnightblue" points="1619.95,-277.95 1628,-271.06 1617.41,-271.43 1619.95,-277.95"/>
</g>
<!-- Node9 -->
<g id="node9" class="node">
<title>Node9</title>
<g id="a_node9"><a xlink:title=" ">
<polygon fill="none" stroke="#bfbfbf" points="915.5,-252 915.5,-271 962.5,-271 962.5,-252 915.5,-252"/>
<text text-anchor="middle" x="939" y="-259" font-family="Helvetica,sans-Serif" font-size="10.00">queue</text>
</a>
</g>
</g>
<!-- Node8&#45;&gt;Node9 -->
<g id="edge10" class="edge">
<title>Node8&#45;&gt;Node9</title>
<path fill="none" stroke="midnightblue" d="M1029.05,-313.4C1009.4,-302.29 982.21,-286.92 962.85,-275.98"/>
<polygon fill="midnightblue" stroke="midnightblue" points="964.48,-272.88 954.05,-271.01 961.03,-278.97 964.48,-272.88"/>
</g>
<!-- Node8&#45;&gt;Node10 -->
<g id="edge11" class="edge">
<title>Node8&#45;&gt;Node10</title>
<path fill="none" stroke="midnightblue" d="M998.34,-313.43C969.75,-305 934.94,-292.82 906,-277 886.57,-266.38 887.63,-254.04 867,-246 659.42,-165.07 576.42,-286.05 367,-210 327.83,-195.78 290.21,-163.79 269.79,-144.39"/>
<polygon fill="midnightblue" stroke="midnightblue" points="271.98,-141.63 262.37,-137.17 267.09,-146.65 271.98,-141.63"/>
</g>
<!-- Node11 -->
<g id="node11" class="node">
<title>Node11</title>
<g id="a_node11"><a xlink:title=" ">
<polygon fill="none" stroke="#bfbfbf" points="980.5,-252 980.5,-271 1127.5,-271 1127.5,-252 980.5,-252"/>
<text text-anchor="middle" x="1054" y="-259" font-family="Helvetica,sans-Serif" font-size="10.00">range/v3/range/access.hpp</text>
</a>
</g>
</g>
<!-- Node8&#45;&gt;Node11 -->
<g id="edge12" class="edge">
<title>Node8&#45;&gt;Node11</title>
<path fill="none" stroke="midnightblue" d="M1054,-313.4C1054,-304.06 1054,-291.71 1054,-281.52"/>
<polygon fill="midnightblue" stroke="midnightblue" points="1057.5,-281.19 1054,-271.19 1050.5,-281.19 1057.5,-281.19"/>
</g>
<!-- Node12 -->
<g id="node12" class="node">
<title>Node12</title>
<g id="a_node12"><a xlink:title=" ">
<polygon fill="none" stroke="#bfbfbf" points="1146,-252 1146,-271 1310,-271 1310,-252 1146,-252"/>
<text text-anchor="middle" x="1228" y="-259" font-family="Helvetica,sans-Serif" font-size="10.00">range/v3/range/primitives.hpp</text>
</a>
</g>
</g>
<!-- Node8&#45;&gt;Node12 -->
<g id="edge13" class="edge">
<title>Node8&#45;&gt;Node12</title>
<path fill="none" stroke="midnightblue" d="M1091.76,-313.4C1122.83,-301.79 1166.39,-285.51 1195.83,-274.52"/>
<polygon fill="midnightblue" stroke="midnightblue" points="1197.08,-277.79 1205.23,-271.01 1194.63,-271.23 1197.08,-277.79"/>
</g>
<!-- Node13 -->
<g id="node13" class="node">
<title>Node13</title>
<g id="a_node13"><a xlink:title=" ">
<polygon fill="none" stroke="#bfbfbf" points="695.5,-252 695.5,-271 858.5,-271 858.5,-252 695.5,-252"/>
<text text-anchor="middle" x="777" y="-259" font-family="Helvetica,sans-Serif" font-size="10.00">range/v3/view/enumerate.hpp</text>
</a>
</g>
</g>
<!-- Node8&#45;&gt;Node13 -->
<g id="edge14" class="edge">
<title>Node8&#45;&gt;Node13</title>
<path fill="none" stroke="midnightblue" d="M994.24,-313.48C942.97,-301.45 870.15,-284.36 823.23,-273.35"/>
<polygon fill="midnightblue" stroke="midnightblue" points="823.88,-269.91 813.35,-271.03 822.28,-276.72 823.88,-269.91"/>
</g>
<!-- Node14&#45;&gt;Node10 -->
<g id="edge18" class="edge">
<title>Node14&#45;&gt;Node10</title>
<path fill="none" stroke="midnightblue" d="M521.83,-325.96C442.52,-322.56 306.47,-311.69 273,-277 239.25,-242.02 244.67,-178.89 250.04,-147.41"/>
<polygon fill="midnightblue" stroke="midnightblue" points="253.53,-147.83 251.95,-137.36 246.65,-146.53 253.53,-147.83"/>
</g>
<!-- Node14&#45;&gt;Node13 -->
<g id="edge36" class="edge">
<title>Node14&#45;&gt;Node13</title>
<path fill="none" stroke="midnightblue" d="M622.75,-313.4C658.23,-301.69 708.11,-285.23 741.44,-274.23"/>
<polygon fill="midnightblue" stroke="midnightblue" points="742.82,-277.46 751.22,-271.01 740.62,-270.82 742.82,-277.46"/>
</g>
<!-- Node15 -->
<g id="node15" class="node">
<title>Node15</title>
<g id="a_node15"><a xlink:title=" ">
<polygon fill="none" stroke="#bfbfbf" points="176,-185 176,-204 226,-204 226,-185 176,-185"/>
<text text-anchor="middle" x="201" y="-192" font-family="Helvetica,sans-Serif" font-size="10.00">cstdint</text>
</a>
</g>
</g>
<!-- Node14&#45;&gt;Node15 -->
<g id="edge16" class="edge">
<title>Node14&#45;&gt;Node15</title>
<path fill="none" stroke="midnightblue" d="M521.8,-325.35C436.68,-321.14 283.63,-309.21 240,-277 219.43,-261.81 209.24,-232.92 204.56,-213.94"/>
<polygon fill="midnightblue" stroke="midnightblue" points="207.96,-213.1 202.4,-204.08 201.12,-214.6 207.96,-213.1"/>
</g>
<!-- Node16 -->
<g id="node16" class="node">
<title>Node16</title>
<g id="a_node16"><a xlink:title=" ">
<polygon fill="none" stroke="#bfbfbf" points="559.5,-252 559.5,-271 600.5,-271 600.5,-252 559.5,-252"/>
<text text-anchor="middle" x="580" y="-259" font-family="Helvetica,sans-Serif" font-size="10.00">tuple</text>
</a>
</g>
</g>
<!-- Node14&#45;&gt;Node16 -->
<g id="edge17" class="edge">
<title>Node14&#45;&gt;Node16</title>
<path fill="none" stroke="midnightblue" d="M580,-313.4C580,-304.06 580,-291.71 580,-281.52"/>
<polygon fill="midnightblue" stroke="midnightblue" points="583.5,-281.19 580,-271.19 576.5,-281.19 583.5,-281.19"/>
</g>
<!-- Node17 -->
<g id="node17" class="node">
<title>Node17</title>
<g id="a_node17"><a xlink:href="linear__grid_8hpp.html" target="_top" xlink:title="Concepts and abstract implementations of linear (ie. contiguous storage) grids.">
<polygon fill="none" stroke="black" points="282,-246.5 282,-276.5 392,-276.5 392,-246.5 282,-246.5"/>
<text text-anchor="start" x="290" y="-264.5" font-family="Helvetica,sans-Serif" font-size="10.00">beluga/sensor/data</text>
<text text-anchor="middle" x="337" y="-253.5" font-family="Helvetica,sans-Serif" font-size="10.00">/linear_grid.hpp</text>
</a>
</g>
</g>
<!-- Node14&#45;&gt;Node17 -->
<g id="edge19" class="edge">
<title>Node14&#45;&gt;Node17</title>
<path fill="none" stroke="midnightblue" d="M527.57,-313.48C490.01,-303.43 439.27,-289.86 399.59,-279.24"/>
<polygon fill="midnightblue" stroke="midnightblue" points="400.32,-275.81 389.75,-276.61 398.51,-282.58 400.32,-275.81"/>
</g>
<!-- Node23 -->
<g id="node23" class="node">
<title>Node23</title>
<g id="a_node23"><a xlink:title=" ">
<polygon fill="none" stroke="#bfbfbf" points="597,-56.5 597,-75.5 755,-75.5 755,-56.5 597,-56.5"/>
<text text-anchor="middle" x="676" y="-63.5" font-family="Helvetica,sans-Serif" font-size="10.00">range/v3/view/transform.hpp</text>
</a>
</g>
</g>
<!-- Node14&#45;&gt;Node23 -->
<g id="edge38" class="edge">
<title>Node14&#45;&gt;Node23</title>
<path fill="none" stroke="midnightblue" d="M595.55,-313.44C605.09,-304.01 616.81,-290.82 624,-277 657.93,-211.78 670.38,-123.51 674.35,-85.58"/>
<polygon fill="midnightblue" stroke="midnightblue" points="677.85,-85.8 675.33,-75.51 670.88,-85.12 677.85,-85.8"/>
</g>
<!-- Node24 -->
<g id="node24" class="node">
<title>Node24</title>
<g id="a_node24"><a xlink:title=" ">
<polygon fill="none" stroke="#bfbfbf" points="509.5,-56.5 509.5,-75.5 578.5,-75.5 578.5,-56.5 509.5,-56.5"/>
<text text-anchor="middle" x="544" y="-63.5" font-family="Helvetica,sans-Serif" font-size="10.00">Eigen/Core</text>
</a>
</g>
</g>
<!-- Node14&#45;&gt;Node24 -->
<g id="edge39" class="edge">
<title>Node14&#45;&gt;Node24</title>
<path fill="none" stroke="midnightblue" d="M590.81,-313.37C597.49,-303.71 605.46,-290.29 609,-277 612.55,-263.69 610.22,-259.72 609,-246 603.65,-185.73 611.76,-166.27 585,-112 579.55,-100.94 570.54,-90.61 562.36,-82.64"/>
<polygon fill="midnightblue" stroke="midnightblue" points="564.64,-79.98 554.91,-75.79 559.9,-85.13 564.64,-79.98"/>
</g>
<!-- Node27 -->
<g id="node27" class="node">
<title>Node27</title>
<g id="a_node27"><a xlink:title=" ">
<polygon fill="none" stroke="#bfbfbf" points="410.5,-252 410.5,-271 541.5,-271 541.5,-252 410.5,-252"/>
<text text-anchor="middle" x="476" y="-259" font-family="Helvetica,sans-Serif" font-size="10.00">range/v3/view/filter.hpp</text>
</a>
</g>
</g>
<!-- Node14&#45;&gt;Node27 -->
<g id="edge37" class="edge">
<title>Node14&#45;&gt;Node27</title>
<path fill="none" stroke="midnightblue" d="M557.43,-313.4C539.99,-302.5 515.97,-287.48 498.53,-276.58"/>
<polygon fill="midnightblue" stroke="midnightblue" points="499.95,-273.34 489.61,-271.01 496.24,-279.28 499.95,-273.34"/>
</g>
<!-- Node17&#45;&gt;Node10 -->
<g id="edge22" class="edge">
<title>Node17&#45;&gt;Node10</title>
<path fill="none" stroke="midnightblue" d="M328.12,-246.37C312.77,-221.97 281.35,-172 264.78,-145.65"/>
<polygon fill="midnightblue" stroke="midnightblue" points="267.69,-143.7 259.41,-137.1 261.77,-147.43 267.69,-143.7"/>
</g>
<!-- Node17&#45;&gt;Node15 -->
<g id="edge20" class="edge">
<title>Node17&#45;&gt;Node15</title>
<path fill="none" stroke="midnightblue" d="M307.49,-246.4C283.84,-235.09 250.92,-219.36 227.97,-208.39"/>
<polygon fill="midnightblue" stroke="midnightblue" points="229.33,-205.16 218.8,-204.01 226.31,-211.48 229.33,-205.16"/>
</g>
<!-- Node18 -->
<g id="node18" class="node">
<title>Node18</title>
<g id="a_node18"><a xlink:title=" ">
<polygon fill="none" stroke="#bfbfbf" points="504,-118 504,-137 560,-137 560,-118 504,-118"/>
<text text-anchor="middle" x="532" y="-125" font-family="Helvetica,sans-Serif" font-size="10.00">optional</text>
</a>
</g>
</g>
<!-- Node17&#45;&gt;Node18 -->
<g id="edge21" class="edge">
<title>Node17&#45;&gt;Node18</title>
<path fill="none" stroke="midnightblue" d="M392.37,-247.87C431.45,-238.04 479.51,-223.78 495,-210 513.74,-193.33 523.56,-165.28 528.25,-146.83"/>
<polygon fill="midnightblue" stroke="midnightblue" points="531.68,-147.53 530.5,-137 524.86,-145.97 531.68,-147.53"/>
</g>
<!-- Node19 -->
<g id="node19" class="node">
<title>Node19</title>
<g id="a_node19"><a xlink:href="dense__grid_8hpp.html" target="_top" xlink:title="Concepts and abstract implementations of dense grids.">
<polygon fill="none" stroke="black" points="376,-179.5 376,-209.5 486,-209.5 486,-179.5 376,-179.5"/>
<text text-anchor="start" x="384" y="-197.5" font-family="Helvetica,sans-Serif" font-size="10.00">beluga/sensor/data</text>
<text text-anchor="middle" x="431" y="-186.5" font-family="Helvetica,sans-Serif" font-size="10.00">/dense_grid.hpp</text>
</a>
</g>
</g>
<!-- Node17&#45;&gt;Node19 -->
<g id="edge23" class="edge">
<title>Node17&#45;&gt;Node19</title>
<path fill="none" stroke="midnightblue" d="M357.4,-246.4C370.45,-237.37 387.6,-225.51 402.05,-215.52"/>
<polygon fill="midnightblue" stroke="midnightblue" points="404.41,-218.14 410.64,-209.58 400.43,-212.39 404.41,-218.14"/>
</g>
<!-- Node17&#45;&gt;Node24 -->
<g id="edge35" class="edge">
<title>Node17&#45;&gt;Node24</title>
<path fill="none" stroke="midnightblue" d="M392.21,-247.22C442.09,-234.9 509.29,-217.4 520,-210 550.36,-189.04 557.54,-178.07 569,-143 573.28,-129.9 572.46,-125.34 569,-112 566.45,-102.18 561.25,-92.21 556.24,-84.17"/>
<polygon fill="midnightblue" stroke="midnightblue" points="559.08,-82.11 550.63,-75.73 553.25,-85.99 559.08,-82.11"/>
</g>
<!-- Node19&#45;&gt;Node10 -->
<g id="edge25" class="edge">
<title>Node19&#45;&gt;Node10</title>
<path fill="none" stroke="midnightblue" d="M392.59,-179.4C360.99,-167.79 316.67,-151.51 286.73,-140.52"/>
<polygon fill="midnightblue" stroke="midnightblue" points="287.76,-137.17 277.17,-137.01 285.35,-143.74 287.76,-137.17"/>
</g>
<!-- Node19&#45;&gt;Node18 -->
<g id="edge24" class="edge">
<title>Node19&#45;&gt;Node18</title>
<path fill="none" stroke="midnightblue" d="M452.92,-179.4C469.85,-168.5 493.19,-153.48 510.12,-142.58"/>
<polygon fill="midnightblue" stroke="midnightblue" points="512.27,-145.36 518.78,-137.01 508.48,-139.48 512.27,-145.36"/>
</g>
<!-- Node20 -->
<g id="node20" class="node">
<title>Node20</title>
<g id="a_node20"><a xlink:href="regular__grid_8hpp.html" target="_top" xlink:title="Concepts and abstract implementations of regular grids.">
<polygon fill="none" stroke="black" points="376,-112.5 376,-142.5 486,-142.5 486,-112.5 376,-112.5"/>
<text text-anchor="start" x="384" y="-130.5" font-family="Helvetica,sans-Serif" font-size="10.00">beluga/sensor/data</text>
<text text-anchor="middle" x="431" y="-119.5" font-family="Helvetica,sans-Serif" font-size="10.00">/regular_grid.hpp</text>
</a>
</g>
</g>
<!-- Node19&#45;&gt;Node20 -->
<g id="edge26" class="edge">
<title>Node19&#45;&gt;Node20</title>
<path fill="none" stroke="midnightblue" d="M431,-179.4C431,-171.64 431,-161.81 431,-152.86"/>
<polygon fill="midnightblue" stroke="midnightblue" points="434.5,-152.58 431,-142.58 427.5,-152.58 434.5,-152.58"/>
</g>
<!-- Node19&#45;&gt;Node24 -->
<g id="edge33" class="edge">
<title>Node19&#45;&gt;Node24</title>
<path fill="none" stroke="midnightblue" d="M406.49,-179.4C381.41,-163.17 348.56,-135.72 367,-112 371.15,-106.66 448.4,-88.45 499.46,-76.9"/>
<polygon fill="midnightblue" stroke="midnightblue" points="500.31,-80.29 509.29,-74.68 498.77,-73.46 500.31,-80.29"/>
</g>
<!-- Node25 -->
<g id="node25" class="node">
<title>Node25</title>
<g id="a_node25"><a xlink:href="eigen__compatibility_8hpp_source.html" target="_top" xlink:title=" ">
<polygon fill="none" stroke="black" points="184.5,-56.5 184.5,-75.5 353.5,-75.5 353.5,-56.5 184.5,-56.5"/>
<text text-anchor="middle" x="269" y="-63.5" font-family="Helvetica,sans-Serif" font-size="10.00">beluga/eigen_compatibility.hpp</text>
</a>
</g>
</g>
<!-- Node19&#45;&gt;Node25 -->
<g id="edge34" class="edge">
<title>Node19&#45;&gt;Node25</title>
<path fill="none" stroke="midnightblue" d="M409.51,-179.47C394.75,-169.63 374.85,-155.97 358,-143 332.12,-123.08 303.66,-98.22 286.06,-82.47"/>
<polygon fill="midnightblue" stroke="midnightblue" points="288.12,-79.62 278.35,-75.54 283.44,-84.83 288.12,-79.62"/>
</g>
<!-- Node20&#45;&gt;Node21 -->
<g id="edge27" class="edge">
<title>Node20&#45;&gt;Node21</title>
<path fill="none" stroke="midnightblue" d="M486.04,-113.34C489.06,-112.83 492.06,-112.38 495,-112 759.05,-77.97 1620.68,-68.83 1802.23,-67.27"/>
<polygon fill="midnightblue" stroke="midnightblue" points="1802.52,-70.76 1812.49,-67.18 1802.47,-63.76 1802.52,-70.76"/>
</g>
<!-- Node22 -->
<g id="node22" class="node">
<title>Node22</title>
<g id="a_node22"><a xlink:href="ciabatta_8hpp_source.html" target="_top" xlink:title=" ">
<polygon fill="none" stroke="black" points="371,-56.5 371,-75.5 491,-75.5 491,-56.5 371,-56.5"/>
<text text-anchor="middle" x="431" y="-63.5" font-family="Helvetica,sans-Serif" font-size="10.00">ciabatta/ciabatta.hpp</text>
</a>
</g>
</g>
<!-- Node20&#45;&gt;Node22 -->
<g id="edge28" class="edge">
<title>Node20&#45;&gt;Node22</title>
<path fill="none" stroke="midnightblue" d="M431,-112.4C431,-104.47 431,-94.46 431,-85.86"/>
<polygon fill="midnightblue" stroke="midnightblue" points="434.5,-85.66 431,-75.66 427.5,-85.66 434.5,-85.66"/>
</g>
<!-- Node20&#45;&gt;Node23 -->
<g id="edge29" class="edge">
<title>Node20&#45;&gt;Node23</title>
<path fill="none" stroke="midnightblue" d="M486.29,-113.07C530,-102.46 590.26,-87.82 631.04,-77.92"/>
<polygon fill="midnightblue" stroke="midnightblue" points="632.08,-81.27 640.97,-75.51 630.43,-74.47 632.08,-81.27"/>
</g>
<!-- Node20&#45;&gt;Node24 -->
<g id="edge30" class="edge">
<title>Node20&#45;&gt;Node24</title>
<path fill="none" stroke="midnightblue" d="M457.78,-112.4C476.06,-102.77 500.15,-90.09 518.21,-80.58"/>
<polygon fill="midnightblue" stroke="midnightblue" points="520.34,-83.41 527.56,-75.66 517.08,-77.22 520.34,-83.41"/>
</g>
<!-- Node20&#45;&gt;Node25 -->
<g id="edge31" class="edge">
<title>Node20&#45;&gt;Node25</title>
<path fill="none" stroke="midnightblue" d="M392.61,-112.4C365.06,-102.28 328.33,-88.79 302.08,-79.15"/>
<polygon fill="midnightblue" stroke="midnightblue" points="303.17,-75.82 292.57,-75.66 300.75,-82.39 303.17,-75.82"/>
</g>
<!-- Node26 -->
<g id="node26" class="node">
<title>Node26</title>
<g id="a_node26"><a xlink:title=" ">
<polygon fill="none" stroke="#bfbfbf" points="230.5,-0.5 230.5,-19.5 307.5,-19.5 307.5,-0.5 230.5,-0.5"/>
<text text-anchor="middle" x="269" y="-7.5" font-family="Helvetica,sans-Serif" font-size="10.00">Eigen/Dense</text>
</a>
</g>
</g>
<!-- Node25&#45;&gt;Node26 -->
<g id="edge32" class="edge">
<title>Node25&#45;&gt;Node26</title>
<path fill="none" stroke="midnightblue" d="M269,-56.08C269,-49.01 269,-38.86 269,-29.99"/>
<polygon fill="midnightblue" stroke="midnightblue" points="272.5,-29.75 269,-19.75 265.5,-29.75 272.5,-29.75"/>
</g>
<!-- Node28&#45;&gt;Node10 -->
<g id="edge43" class="edge">
<title>Node28&#45;&gt;Node10</title>
<path fill="none" stroke="midnightblue" d="M171.97,-313.24C161.2,-285.33 141.97,-222.46 167,-179 178.56,-158.93 201.48,-146.1 220.9,-138.4"/>
<polygon fill="midnightblue" stroke="midnightblue" points="222.19,-141.66 230.37,-134.92 219.77,-135.09 222.19,-141.66"/>
</g>
<!-- Node28&#45;&gt;Node15 -->
<g id="edge41" class="edge">
<title>Node28&#45;&gt;Node15</title>
<path fill="none" stroke="midnightblue" d="M180.46,-313.37C184.64,-289.4 193.12,-240.75 197.77,-214.06"/>
<polygon fill="midnightblue" stroke="midnightblue" points="201.23,-214.55 199.5,-204.1 194.34,-213.35 201.23,-214.55"/>
</g>
<!-- Node28&#45;&gt;Node17 -->
<g id="edge44" class="edge">
<title>Node28&#45;&gt;Node17</title>
<path fill="none" stroke="midnightblue" d="M212.5,-313.4C236.15,-303.73 267.72,-290.82 293.15,-280.43"/>
<polygon fill="midnightblue" stroke="midnightblue" points="294.63,-283.6 302.57,-276.58 291.99,-277.12 294.63,-283.6"/>
</g>
<!-- Node29 -->
<g id="node29" class="node">
<title>Node29</title>
<g id="a_node29"><a xlink:title=" ">
<polygon fill="none" stroke="#bfbfbf" points="66.5,-252 66.5,-271 111.5,-271 111.5,-252 66.5,-252"/>
<text text-anchor="middle" x="89" y="-259" font-family="Helvetica,sans-Serif" font-size="10.00">utility</text>
</a>
</g>
</g>
<!-- Node28&#45;&gt;Node29 -->
<g id="edge42" class="edge">
<title>Node28&#45;&gt;Node29</title>
<path fill="none" stroke="midnightblue" d="M158.69,-313.4C144.04,-302.7 123.96,-288.03 109.12,-277.19"/>
<polygon fill="midnightblue" stroke="midnightblue" points="110.79,-274.08 100.65,-271.01 106.66,-279.73 110.79,-274.08"/>
</g>
</g>
</svg>
        <g id="navigator" transform="translate(0 0)" fill="#404254">
                <rect fill="#f2f5e9" fill-opacity="0.5" stroke="#606060" stroke-width=".5" x="0" y="0" width="60" height="60"/>
                <use id="zoomplus" xlink:href="#zoomPlus" x="17" y="9" onmousedown="handleZoom(evt,'in')"/>
                <use id="zoomminus" xlink:href="#zoomMin" x="42" y="9" onmousedown="handleZoom(evt,'out')"/>
                <use id="reset" xlink:href="#resetDef" x="30" y="36" onmousedown="handleReset()"/>
                <g id="arrowUp" xlink:href="#dirArrow" transform="translate(30 24)" onmousedown="handlePan(0,-1)">
                  <use xlink:href="#rim" fill="#404040">
                        <set attributeName="fill" to="#808080" begin="arrowUp.mouseover" end="arrowUp.mouseout"/>
                  </use>
                  <path fill="none" stroke="white" stroke-width="1.5" d="M0,-3.0v7 M-2.5,-0.5L0,-3.0L2.5,-0.5"/>
                </g>
                <g id="arrowRight" xlink:href="#dirArrow" transform="rotate(90) translate(36 -43)" onmousedown="handlePan(1,0)">
                  <use xlink:href="#rim" fill="#404040">
                        <set attributeName="fill" to="#808080" begin="arrowRight.mouseover" end="arrowRight.mouseout"/>
                  </use>
                  <path fill="none" stroke="white" stroke-width="1.5" d="M0,-3.0v7 M-2.5,-0.5L0,-3.0L2.5,-0.5"/>
                </g>
                <g id="arrowDown" xlink:href="#dirArrow" transform="rotate(180) translate(-30 -48)" onmousedown="handlePan(0,1)">
                  <use xlink:href="#rim" fill="#404040">
                        <set attributeName="fill" to="#808080" begin="arrowDown.mouseover" end="arrowDown.mouseout"/>
                  </use>
                  <path fill="none" stroke="white" stroke-width="1.5" d="M0,-3.0v7 M-2.5,-0.5L0,-3.0L2.5,-0.5"/>
                </g>
                <g id="arrowLeft" xlink:href="#dirArrow" transform="rotate(270) translate(-36 17)" onmousedown="handlePan(-1,0)">
                  <use xlink:href="#rim" fill="#404040">
                        <set attributeName="fill" to="#808080" begin="arrowLeft.mouseover" end="arrowLeft.mouseout"/>
                  </use>
                  <path fill="none" stroke="white" stroke-width="1.5" d="M0,-3.0v7 M-2.5,-0.5L0,-3.0L2.5,-0.5"/>
                </g>
        </g>
        <svg viewBox="0 0 15 15" width="100%" height="30px" preserveAspectRatio="xMaxYMin meet">
         <g id="arrow_out" transform="scale(0.3 0.3)">
          <a xlink:href="likelihood__field__prob__model_8hpp__incl_org.svg" target="_base">
           <rect id="button" ry="5" rx="5" y="6" x="6" height="38" width="38"
                fill="#f2f5e9" fill-opacity="0.5" stroke="#606060" stroke-width="1.0"/>
           <path id="arrow"
             d="M 11.500037,31.436501 C 11.940474,20.09759 22.043105,11.32322 32.158766,21.979434 L 37.068811,17.246167 C 37.068811,17.246167 37.088388,32 37.088388,32 L 22.160133,31.978069 C 22.160133,31.978069 26.997745,27.140456 26.997745,27.140456 C 18.528582,18.264221 13.291696,25.230495 11.500037,31.436501 z"
             style="fill:#404040;"/>
          </a>
         </g>
        </svg>
</svg>
