<?xml version="1.0" encoding="UTF-8" standalone="no"?>
<!DOCTYPE svg PUBLIC "-//W3C//DTD SVG 1.1//EN"
 "http://www.w3.org/Graphics/SVG/1.1/DTD/svg11.dtd">
<!-- Generated by graphviz version 2.43.0 (0)
 -->
<!-- Title: /home/runner/work/beluga/beluga/beluga/include/beluga/sensor/likelihood_field_prob_model.hpp Pages: 1 -->
<!--zoomable 519 -->
<svg id="main" version="1.1" xmlns="http://www.w3.org/2000/svg" xmlns:xlink="http://www.w3.org/1999/xlink" xml:space="preserve" onload="init(evt)">
<style type="text/css"><![CDATA[
.edge:hover path { stroke: red; }
.edge:hover polygon { stroke: red; fill: red; }
]]></style>
<script type="text/javascript"><![CDATA[
var edges = document.getElementsByTagName('g');
if (edges && edges.length) {
  for (var i=0;i<edges.length;i++) {
    if (edges[i].id.substr(0,4)=='edge') {
      edges[i].setAttribute('class','edge');
    }
  }
}
]]></script>
        <defs>
                <circle id="rim" cx="0" cy="0" r="7"/>
                <circle id="rim2" cx="0" cy="0" r="3.5"/>
                <g id="zoomPlus">
                        <use xlink:href="#rim" fill="#404040">
                                <set attributeName="fill" to="#808080" begin="zoomplus.mouseover" end="zoomplus.mouseout"/>
                        </use>
                        <path d="M-4,0h8M0,-4v8" fill="none" stroke="white" stroke-width="1.5" pointer-events="none"/>
                </g>
                <g id="zoomMin">
                        <use xlink:href="#rim" fill="#404040">
                                <set attributeName="fill" to="#808080" begin="zoomminus.mouseover" end="zoomminus.mouseout"/>
                        </use>
                        <path d="M-4,0h8" fill="none" stroke="white" stroke-width="1.5" pointer-events="none"/>
                </g>
                <g id="dirArrow">
                        <path fill="none" stroke="white" stroke-width="1.5" d="M0,-3.0v7 M-2.5,-0.5L0,-3.0L2.5,-0.5"/>
                </g>
               <g id="resetDef">
                       <use xlink:href="#rim2" fill="#404040">
                               <set attributeName="fill" to="#808080" begin="reset.mouseover" end="reset.mouseout"/>
                       </use>
               </g>
        </defs>

<script type="text/javascript">
var viewWidth = 2157;
var viewHeight = 519;
var sectionId = 'dynsection-0';
</script>
<script xlink:href="svgpan.js"/>
<svg id="graph" class="graph">
<g id="viewport">
<title>/home/runner/work/beluga/beluga/beluga/include/beluga/sensor/likelihood_field_prob_model.hpp</title>
<!-- Node1 -->
<g id="node1" class="node">
<title>Node1</title>
<g id="a_node1"><a xlink:title="Implementation of a likelihood field prob sensor model for range finders.">
<polygon fill="#bfbfbf" stroke="black" points="921.5,-458.5 921.5,-510.5 1066.5,-510.5 1066.5,-458.5 921.5,-458.5"/>
<text text-anchor="start" x="929.5" y="-498.5" font-family="Helvetica,sans-Serif" font-size="10.00">/home/runner/work/beluga</text>
<text text-anchor="start" x="929.5" y="-487.5" font-family="Helvetica,sans-Serif" font-size="10.00">/beluga/beluga/include</text>
<text text-anchor="start" x="929.5" y="-476.5" font-family="Helvetica,sans-Serif" font-size="10.00">/beluga/sensor/likelihood</text>
<text text-anchor="middle" x="994" y="-465.5" font-family="Helvetica,sans-Serif" font-size="10.00">_field_prob_model.hpp</text>
</a>
</g>
</g>
<!-- Node2 -->
<g id="node2" class="node">
<title>Node2</title>
<g id="a_node2"><a xlink:title=" ">
<polygon fill="none" stroke="#bfbfbf" points="444,-263 444,-282 508,-282 508,-263 444,-263"/>
<text text-anchor="middle" x="476" y="-270" font-family="Helvetica,sans-Serif" font-size="10.00">algorithm</text>
</a>
</g>
</g>
<!-- Node1&#45;&gt;Node2 -->
<g id="edge1" class="edge">
<title>Node1&#45;&gt;Node2</title>
<path fill="none" stroke="midnightblue" d="M921.29,-475.3C794.71,-459.44 541.88,-420.28 485,-355 470.13,-337.94 470.26,-310.63 472.49,-292.39"/>
<polygon fill="midnightblue" stroke="midnightblue" points="475.97,-292.79 474.04,-282.37 469.05,-291.72 475.97,-292.79"/>
</g>
<!-- Node3 -->
<g id="node3" class="node">
<title>Node3</title>
<g id="a_node3"><a xlink:href="likelihood__field__model__base_8hpp.html" target="_top" xlink:title="Implementation of a likelihood field common sensor model for range finders.">
<polygon fill="none" stroke="black" points="926.5,-391.5 926.5,-421.5 1061.5,-421.5 1061.5,-391.5 926.5,-391.5"/>
<text text-anchor="start" x="934.5" y="-409.5" font-family="Helvetica,sans-Serif" font-size="10.00">beluga/sensor/likelihood</text>
<text text-anchor="middle" x="994" y="-398.5" font-family="Helvetica,sans-Serif" font-size="10.00">_field_model_base.hpp</text>
</a>
</g>
</g>
<!-- Node1&#45;&gt;Node3 -->
<g id="edge2" class="edge">
<title>Node1&#45;&gt;Node3</title>
<path fill="none" stroke="midnightblue" d="M994,-458.19C994,-449.79 994,-440.44 994,-432.09"/>
<polygon fill="midnightblue" stroke="midnightblue" points="997.5,-431.85 994,-421.85 990.5,-431.85 997.5,-431.85"/>
</g>
<!-- Node10 -->
<g id="node10" class="node">
<title>Node10</title>
<g id="a_node10"><a xlink:title=" ">
<polygon fill="none" stroke="#bfbfbf" points="1871.5,-129 1871.5,-148 1918.5,-148 1918.5,-129 1871.5,-129"/>
<text text-anchor="middle" x="1895" y="-136" font-family="Helvetica,sans-Serif" font-size="10.00">vector</text>
</a>
</g>
</g>
<!-- Node1&#45;&gt;Node10 -->
<g id="edge56" class="edge">
<title>Node1&#45;&gt;Node10</title>
<path fill="none" stroke="midnightblue" d="M1066.69,-482.18C1320.06,-476.62 2149,-450.05 2149,-340.5 2149,-340.5 2149,-340.5 2149,-271.5 2149,-173.41 1998.02,-148.11 1928.87,-141.67"/>
<polygon fill="midnightblue" stroke="midnightblue" points="1929.16,-138.18 1918.9,-140.81 1928.56,-145.15 1929.16,-138.18"/>
</g>
<!-- Node21 -->
<g id="node21" class="node">
<title>Node21</title>
<g id="a_node21"><a xlink:title=" ">
<polygon fill="none" stroke="#bfbfbf" points="512.5,-62 512.5,-81 559.5,-81 559.5,-62 512.5,-62"/>
<text text-anchor="middle" x="536" y="-69" font-family="Helvetica,sans-Serif" font-size="10.00">cmath</text>
</a>
</g>
</g>
<!-- Node1&#45;&gt;Node21 -->
<g id="edge54" class="edge">
<title>Node1&#45;&gt;Node21</title>
<path fill="none" stroke="midnightblue" d="M921.31,-480.7C692.17,-470.9 0,-433.61 0,-340.5 0,-340.5 0,-340.5 0,-204.5 0,-100.65 384.18,-78.03 502.04,-73.53"/>
<polygon fill="midnightblue" stroke="midnightblue" points="502.41,-77.02 512.28,-73.16 502.16,-70.03 502.41,-77.02"/>
</g>
<!-- Node32 -->
<g id="node32" class="node">
<title>Node32</title>
<g id="a_node32"><a xlink:title=" ">
<polygon fill="none" stroke="#bfbfbf" points="2044,-330 2044,-349 2098,-349 2098,-330 2044,-330"/>
<text text-anchor="middle" x="2071" y="-337" font-family="Helvetica,sans-Serif" font-size="10.00">random</text>
</a>
</g>
</g>
<!-- Node1&#45;&gt;Node32 -->
<g id="edge55" class="edge">
<title>Node1&#45;&gt;Node32</title>
<path fill="none" stroke="midnightblue" d="M1066.51,-481.02C1237.7,-473.76 1679.29,-446.91 2035,-355 2037.51,-354.35 2040.08,-353.57 2042.64,-352.71"/>
<polygon fill="midnightblue" stroke="midnightblue" points="2044.11,-355.9 2052.25,-349.12 2041.66,-349.34 2044.11,-355.9"/>
</g>
<!-- Node3&#45;&gt;Node2 -->
<g id="edge3" class="edge">
<title>Node3&#45;&gt;Node2</title>
<path fill="none" stroke="midnightblue" d="M975.98,-391.36C946.83,-368.56 892.08,-326 887,-324 735.3,-264.35 681.7,-320.68 522,-288 518.05,-287.19 513.96,-286.18 509.92,-285.06"/>
<polygon fill="midnightblue" stroke="midnightblue" points="510.69,-281.63 500.1,-282.13 508.69,-288.34 510.69,-281.63"/>
</g>
<!-- Node4 -->
<g id="node4" class="node">
<title>Node4</title>
<g id="a_node4"><a xlink:href="overlay_8hpp.html" target="_top" xlink:title="Implementation of the overlay range adaptor object.">
<polygon fill="none" stroke="black" points="279.5,-330 279.5,-349 426.5,-349 426.5,-330 279.5,-330"/>
<text text-anchor="middle" x="353" y="-337" font-family="Helvetica,sans-Serif" font-size="10.00">beluga/actions/overlay.hpp</text>
</a>
</g>
</g>
<!-- Node3&#45;&gt;Node4 -->
<g id="edge4" class="edge">
<title>Node3&#45;&gt;Node4</title>
<path fill="none" stroke="midnightblue" d="M926.46,-399.03C828.96,-389.63 643.09,-371.53 485,-355 469.48,-353.38 452.94,-351.6 437.01,-349.86"/>
<polygon fill="midnightblue" stroke="midnightblue" points="436.96,-346.34 426.64,-348.73 436.2,-353.3 436.96,-346.34"/>
</g>
<!-- Node8 -->
<g id="node8" class="node">
<title>Node8</title>
<g id="a_node8"><a xlink:href="distance__map_8hpp.html" target="_top" xlink:title="Implementation of algorithm to calculate distance from obstacles.">
<polygon fill="none" stroke="black" points="972,-324.5 972,-354.5 1116,-354.5 1116,-324.5 972,-324.5"/>
<text text-anchor="start" x="980" y="-342.5" font-family="Helvetica,sans-Serif" font-size="10.00">beluga/algorithm/distance</text>
<text text-anchor="middle" x="1044" y="-331.5" font-family="Helvetica,sans-Serif" font-size="10.00">_map.hpp</text>
</a>
</g>
</g>
<!-- Node3&#45;&gt;Node8 -->
<g id="edge9" class="edge">
<title>Node3&#45;&gt;Node8</title>
<path fill="none" stroke="midnightblue" d="M1004.85,-391.4C1011.34,-382.96 1019.72,-372.07 1027.06,-362.52"/>
<polygon fill="midnightblue" stroke="midnightblue" points="1029.85,-364.64 1033.17,-354.58 1024.3,-360.37 1029.85,-364.64"/>
</g>
<!-- Node3&#45;&gt;Node10 -->
<g id="edge53" class="edge">
<title>Node3&#45;&gt;Node10</title>
<path fill="none" stroke="midnightblue" d="M1061.77,-400.08C1160.08,-391.93 1347.87,-375.3 1507,-355 1518.91,-353.48 1923.78,-294.3 1934,-288 1975.29,-262.55 2006.2,-232.03 1982,-190 1970.44,-169.93 1947.52,-157.1 1928.1,-149.4"/>
<polygon fill="midnightblue" stroke="midnightblue" points="1929.23,-146.09 1918.63,-145.92 1926.81,-152.66 1929.23,-146.09"/>
</g>
<!-- Node14 -->
<g id="node14" class="node">
<title>Node14</title>
<g id="a_node14"><a xlink:href="occupancy__grid_8hpp.html" target="_top" xlink:title="Concepts and abstract implementations of occupancy grids.">
<polygon fill="none" stroke="black" points="1382,-324.5 1382,-354.5 1498,-354.5 1498,-324.5 1382,-324.5"/>
<text text-anchor="start" x="1390" y="-342.5" font-family="Helvetica,sans-Serif" font-size="10.00">beluga/sensor/data</text>
<text text-anchor="middle" x="1440" y="-331.5" font-family="Helvetica,sans-Serif" font-size="10.00">/occupancy_grid.hpp</text>
</a>
</g>
</g>
<!-- Node3&#45;&gt;Node14 -->
<g id="edge15" class="edge">
<title>Node3&#45;&gt;Node14</title>
<path fill="none" stroke="midnightblue" d="M1061.74,-395.63C1145.69,-383.39 1287.91,-362.67 1371.99,-350.41"/>
<polygon fill="midnightblue" stroke="midnightblue" points="1372.55,-353.87 1381.95,-348.96 1371.55,-346.94 1372.55,-353.87"/>
</g>
<!-- Node3&#45;&gt;Node21 -->
<g id="edge47" class="edge">
<title>Node3&#45;&gt;Node21</title>
<path fill="none" stroke="midnightblue" d="M986.16,-391.35C974.78,-372.35 951.76,-339.21 922,-324 849.03,-286.71 612.66,-346.23 555,-288 501.99,-234.46 520.39,-132.5 530.84,-90.88"/>
<polygon fill="midnightblue" stroke="midnightblue" points="534.27,-91.6 533.45,-81.04 527.5,-89.81 534.27,-91.6"/>
</g>
<!-- Node30 -->
<g id="node30" class="node">
<title>Node30</title>
<g id="a_node30"><a xlink:href="value__grid_8hpp.html" target="_top" xlink:title="Implementation of generic value grid.">
<polygon fill="none" stroke="black" points="1916,-324.5 1916,-354.5 2026,-354.5 2026,-324.5 1916,-324.5"/>
<text text-anchor="start" x="1924" y="-342.5" font-family="Helvetica,sans-Serif" font-size="10.00">beluga/sensor/data</text>
<text text-anchor="middle" x="1971" y="-331.5" font-family="Helvetica,sans-Serif" font-size="10.00">/value_grid.hpp</text>
</a>
</g>
</g>
<!-- Node3&#45;&gt;Node30 -->
<g id="edge42" class="edge">
<title>Node3&#45;&gt;Node30</title>
<path fill="none" stroke="midnightblue" d="M1061.67,-405.62C1212.05,-405.06 1585.39,-399.04 1906,-354.97"/>
<polygon fill="midnightblue" stroke="midnightblue" points="1906.53,-358.43 1915.95,-353.59 1905.56,-351.5 1906.53,-358.43"/>
</g>
<!-- Node3&#45;&gt;Node32 -->
<g id="edge48" class="edge">
<title>Node3&#45;&gt;Node32</title>
<path fill="none" stroke="midnightblue" d="M1061.61,-403.53C1277.31,-397.06 1940.49,-375.71 2035,-355 2037.84,-354.38 2040.74,-353.55 2043.61,-352.61"/>
<polygon fill="midnightblue" stroke="midnightblue" points="2044.91,-355.86 2053.06,-349.09 2042.47,-349.3 2044.91,-355.86"/>
</g>
<!-- Node33 -->
<g id="node33" class="node">
<title>Node33</title>
<g id="a_node33"><a xlink:title=" ">
<polygon fill="none" stroke="#bfbfbf" points="1734,-330 1734,-349 1898,-349 1898,-330 1734,-330"/>
<text text-anchor="middle" x="1816" y="-337" font-family="Helvetica,sans-Serif" font-size="10.00">range/v3/action/transform.hpp</text>
</a>
</g>
</g>
<!-- Node3&#45;&gt;Node33 -->
<g id="edge49" class="edge">
<title>Node3&#45;&gt;Node33</title>
<path fill="none" stroke="midnightblue" d="M1061.72,-402.61C1190.31,-396.72 1478.56,-381.59 1720,-355 1731.27,-353.76 1743.25,-352.17 1754.79,-350.5"/>
<polygon fill="midnightblue" stroke="midnightblue" points="1755.41,-353.94 1764.78,-349.02 1754.38,-347.02 1755.41,-353.94"/>
</g>
<!-- Node34 -->
<g id="node34" class="node">
<title>Node34</title>
<g id="a_node34"><a xlink:title=" ">
<polygon fill="none" stroke="#bfbfbf" points="494.5,-330 494.5,-349 625.5,-349 625.5,-330 494.5,-330"/>
<text text-anchor="middle" x="560" y="-337" font-family="Helvetica,sans-Serif" font-size="10.00">range/v3/algorithm.hpp</text>
</a>
</g>
</g>
<!-- Node3&#45;&gt;Node34 -->
<g id="edge50" class="edge">
<title>Node3&#45;&gt;Node34</title>
<path fill="none" stroke="midnightblue" d="M926.35,-397.03C854.07,-387.74 736.19,-371.89 635,-355 627.54,-353.76 619.69,-352.35 611.98,-350.91"/>
<polygon fill="midnightblue" stroke="midnightblue" points="612.46,-347.43 601.98,-349.01 611.15,-354.31 612.46,-347.43"/>
</g>
<!-- Node35 -->
<g id="node35" class="node">
<title>Node35</title>
<g id="a_node35"><a xlink:title=" ">
<polygon fill="none" stroke="#bfbfbf" points="644,-330 644,-349 768,-349 768,-330 644,-330"/>
<text text-anchor="middle" x="706" y="-337" font-family="Helvetica,sans-Serif" font-size="10.00">range/v3/view/zip.hpp</text>
</a>
</g>
</g>
<!-- Node3&#45;&gt;Node35 -->
<g id="edge51" class="edge">
<title>Node3&#45;&gt;Node35</title>
<path fill="none" stroke="midnightblue" d="M931.86,-391.48C878.45,-379.42 802.53,-362.29 753.76,-351.28"/>
<polygon fill="midnightblue" stroke="midnightblue" points="754.31,-347.82 743.79,-349.03 752.77,-354.64 754.31,-347.82"/>
</g>
<!-- Node36 -->
<g id="node36" class="node">
<title>Node36</title>
<g id="a_node36"><a xlink:title=" ">
<polygon fill="none" stroke="#bfbfbf" points="786,-330 786,-349 878,-349 878,-330 786,-330"/>
<text text-anchor="middle" x="832" y="-337" font-family="Helvetica,sans-Serif" font-size="10.00">sophus/se2.hpp</text>
</a>
</g>
</g>
<!-- Node3&#45;&gt;Node36 -->
<g id="edge52" class="edge">
<title>Node3&#45;&gt;Node36</title>
<path fill="none" stroke="midnightblue" d="M958.85,-391.4C930.17,-379.89 890.06,-363.8 862.67,-352.81"/>
<polygon fill="midnightblue" stroke="midnightblue" points="863.79,-349.48 853.2,-349.01 861.18,-355.98 863.79,-349.48"/>
</g>
<!-- Node4&#45;&gt;Node2 -->
<g id="edge5" class="edge">
<title>Node4&#45;&gt;Node2</title>
<path fill="none" stroke="midnightblue" d="M369.33,-329.87C390.1,-318.89 426.19,-299.82 450.57,-286.94"/>
<polygon fill="midnightblue" stroke="midnightblue" points="452.39,-289.93 459.6,-282.17 449.12,-283.75 452.39,-289.93"/>
</g>
<!-- Node5 -->
<g id="node5" class="node">
<title>Node5</title>
<g id="a_node5"><a xlink:title=" ">
<polygon fill="none" stroke="#bfbfbf" points="28,-263 28,-282 92,-282 92,-263 28,-263"/>
<text text-anchor="middle" x="60" y="-270" font-family="Helvetica,sans-Serif" font-size="10.00">execution</text>
</a>
</g>
</g>
<!-- Node4&#45;&gt;Node5 -->
<g id="edge6" class="edge">
<title>Node4&#45;&gt;Node5</title>
<path fill="none" stroke="midnightblue" d="M298.9,-329.95C247.51,-321.29 168.32,-306.55 101,-288 98.04,-287.18 94.98,-286.26 91.94,-285.29"/>
<polygon fill="midnightblue" stroke="midnightblue" points="92.97,-281.94 82.37,-282.06 90.73,-288.57 92.97,-281.94"/>
</g>
<!-- Node6 -->
<g id="node6" class="node">
<title>Node6</title>
<g id="a_node6"><a xlink:title=" ">
<polygon fill="none" stroke="#bfbfbf" points="280,-263 280,-282 426,-282 426,-263 280,-263"/>
<text text-anchor="middle" x="353" y="-270" font-family="Helvetica,sans-Serif" font-size="10.00">range/v3/action/action.hpp</text>
</a>
</g>
</g>
<!-- Node4&#45;&gt;Node6 -->
<g id="edge7" class="edge">
<title>Node4&#45;&gt;Node6</title>
<path fill="none" stroke="midnightblue" d="M353,-329.73C353,-320.18 353,-304.62 353,-292.28"/>
<polygon fill="midnightblue" stroke="midnightblue" points="356.5,-292.13 353,-282.13 349.5,-292.13 356.5,-292.13"/>
</g>
<!-- Node7 -->
<g id="node7" class="node">
<title>Node7</title>
<g id="a_node7"><a xlink:title=" ">
<polygon fill="none" stroke="#bfbfbf" points="110,-263 110,-282 262,-282 262,-263 110,-263"/>
<text text-anchor="middle" x="186" y="-270" font-family="Helvetica,sans-Serif" font-size="10.00">range/v3/view/common.hpp</text>
</a>
</g>
</g>
<!-- Node4&#45;&gt;Node7 -->
<g id="edge8" class="edge">
<title>Node4&#45;&gt;Node7</title>
<path fill="none" stroke="midnightblue" d="M330.82,-329.87C301.8,-318.57 250.73,-298.7 217.65,-285.82"/>
<polygon fill="midnightblue" stroke="midnightblue" points="218.59,-282.43 208,-282.06 216.05,-288.95 218.59,-282.43"/>
</g>
<!-- Node9 -->
<g id="node9" class="node">
<title>Node9</title>
<g id="a_node9"><a xlink:title=" ">
<polygon fill="none" stroke="#bfbfbf" points="912.5,-263 912.5,-282 959.5,-282 959.5,-263 912.5,-263"/>
<text text-anchor="middle" x="936" y="-270" font-family="Helvetica,sans-Serif" font-size="10.00">queue</text>
</a>
</g>
</g>
<!-- Node8&#45;&gt;Node9 -->
<g id="edge10" class="edge">
<title>Node8&#45;&gt;Node9</title>
<path fill="none" stroke="midnightblue" d="M1020.57,-324.4C1002.29,-313.39 977.04,-298.2 958.9,-287.28"/>
<polygon fill="midnightblue" stroke="midnightblue" points="960.51,-284.16 950.13,-282.01 956.9,-290.16 960.51,-284.16"/>
</g>
<!-- Node8&#45;&gt;Node10 -->
<g id="edge11" class="edge">
<title>Node8&#45;&gt;Node10</title>
<path fill="none" stroke="midnightblue" d="M1075.8,-324.49C1118.02,-306.4 1195.27,-275.12 1264,-257 1360.65,-231.52 1387.64,-238.77 1486,-221 1625.61,-195.78 1791.11,-161.42 1861.08,-146.69"/>
<polygon fill="midnightblue" stroke="midnightblue" points="1862.02,-150.07 1871.09,-144.58 1860.58,-143.22 1862.02,-150.07"/>
</g>
<!-- Node11 -->
<g id="node11" class="node">
<title>Node11</title>
<g id="a_node11"><a xlink:title=" ">
<polygon fill="none" stroke="#bfbfbf" points="564.5,-263 564.5,-282 711.5,-282 711.5,-263 564.5,-263"/>
<text text-anchor="middle" x="638" y="-270" font-family="Helvetica,sans-Serif" font-size="10.00">range/v3/range/access.hpp</text>
</a>
</g>
</g>
<!-- Node8&#45;&gt;Node11 -->
<g id="edge12" class="edge">
<title>Node8&#45;&gt;Node11</title>
<path fill="none" stroke="midnightblue" d="M971.75,-326.23C967.1,-325.47 962.49,-324.72 958,-324 852.8,-307.14 826.15,-305.17 721,-288 712.8,-286.66 704.16,-285.2 695.67,-283.74"/>
<polygon fill="midnightblue" stroke="midnightblue" points="696.26,-280.3 685.81,-282.04 695.07,-287.19 696.26,-280.3"/>
</g>
<!-- Node12 -->
<g id="node12" class="node">
<title>Node12</title>
<g id="a_node12"><a xlink:title=" ">
<polygon fill="none" stroke="#bfbfbf" points="730,-263 730,-282 894,-282 894,-263 730,-263"/>
<text text-anchor="middle" x="812" y="-270" font-family="Helvetica,sans-Serif" font-size="10.00">range/v3/range/primitives.hpp</text>
</a>
</g>
</g>
<!-- Node8&#45;&gt;Node12 -->
<g id="edge13" class="edge">
<title>Node8&#45;&gt;Node12</title>
<path fill="none" stroke="midnightblue" d="M993.95,-324.48C951.55,-312.6 891.55,-295.79 852.22,-284.77"/>
<polygon fill="midnightblue" stroke="midnightblue" points="853.01,-281.36 842.44,-282.03 851.13,-288.1 853.01,-281.36"/>
</g>
<!-- Node13 -->
<g id="node13" class="node">
<title>Node13</title>
<g id="a_node13"><a xlink:title=" ">
<polygon fill="none" stroke="#bfbfbf" points="977.5,-263 977.5,-282 1140.5,-282 1140.5,-263 977.5,-263"/>
<text text-anchor="middle" x="1059" y="-270" font-family="Helvetica,sans-Serif" font-size="10.00">range/v3/view/enumerate.hpp</text>
</a>
</g>
</g>
<!-- Node8&#45;&gt;Node13 -->
<g id="edge14" class="edge">
<title>Node8&#45;&gt;Node13</title>
<path fill="none" stroke="midnightblue" d="M1047.25,-324.4C1049.43,-314.96 1052.32,-302.45 1054.69,-292.19"/>
<polygon fill="midnightblue" stroke="midnightblue" points="1058.16,-292.73 1056.99,-282.19 1051.33,-291.15 1058.16,-292.73"/>
</g>
<!-- Node14&#45;&gt;Node10 -->
<g id="edge18" class="edge">
<title>Node14&#45;&gt;Node10</title>
<path fill="none" stroke="midnightblue" d="M1498.4,-335.69C1611.05,-329.7 1849.61,-314.08 1876,-288 1910.74,-253.67 1904.72,-189.72 1899.05,-158.14"/>
<polygon fill="midnightblue" stroke="midnightblue" points="1902.44,-157.21 1897.06,-148.08 1895.57,-158.57 1902.44,-157.21"/>
</g>
<!-- Node14&#45;&gt;Node13 -->
<g id="edge37" class="edge">
<title>Node14&#45;&gt;Node13</title>
<path fill="none" stroke="midnightblue" d="M1381.72,-328.56C1310.69,-316.44 1191.27,-296.07 1119.32,-283.79"/>
<polygon fill="midnightblue" stroke="midnightblue" points="1119.51,-280.27 1109.07,-282.04 1118.33,-287.17 1119.51,-280.27"/>
</g>
<!-- Node15 -->
<g id="node15" class="node">
<title>Node15</title>
<g id="a_node15"><a xlink:title=" ">
<polygon fill="none" stroke="#bfbfbf" points="1923,-196 1923,-215 1973,-215 1973,-196 1923,-196"/>
<text text-anchor="middle" x="1948" y="-203" font-family="Helvetica,sans-Serif" font-size="10.00">cstdint</text>
</a>
</g>
</g>
<!-- Node14&#45;&gt;Node15 -->
<g id="edge16" class="edge">
<title>Node14&#45;&gt;Node15</title>
<path fill="none" stroke="midnightblue" d="M1498.01,-335.4C1616.09,-328.64 1876.08,-311.3 1909,-288 1929.87,-273.23 1939.98,-244.23 1944.56,-225.1"/>
<polygon fill="midnightblue" stroke="midnightblue" points="1948.02,-225.68 1946.67,-215.17 1941.17,-224.23 1948.02,-225.68"/>
</g>
<!-- Node16 -->
<g id="node16" class="node">
<title>Node16</title>
<g id="a_node16"><a xlink:title=" ">
<polygon fill="none" stroke="#bfbfbf" points="1419.5,-263 1419.5,-282 1460.5,-282 1460.5,-263 1419.5,-263"/>
<text text-anchor="middle" x="1440" y="-270" font-family="Helvetica,sans-Serif" font-size="10.00">tuple</text>
</a>
</g>
</g>
<!-- Node14&#45;&gt;Node16 -->
<g id="edge17" class="edge">
<title>Node14&#45;&gt;Node16</title>
<path fill="none" stroke="midnightblue" d="M1440,-324.4C1440,-315.06 1440,-302.71 1440,-292.52"/>
<polygon fill="midnightblue" stroke="midnightblue" points="1443.5,-292.19 1440,-282.19 1436.5,-292.19 1443.5,-292.19"/>
</g>
<!-- Node17 -->
<g id="node17" class="node">
<title>Node17</title>
<g id="a_node17"><a xlink:href="linear__grid_8hpp.html" target="_top" xlink:title="Concepts and abstract implementations of linear (ie. contiguous storage) grids.">
<polygon fill="none" stroke="black" points="1757,-257.5 1757,-287.5 1867,-287.5 1867,-257.5 1757,-257.5"/>
<text text-anchor="start" x="1765" y="-275.5" font-family="Helvetica,sans-Serif" font-size="10.00">beluga/sensor/data</text>
<text text-anchor="middle" x="1812" y="-264.5" font-family="Helvetica,sans-Serif" font-size="10.00">/linear_grid.hpp</text>
</a>
</g>
</g>
<!-- Node14&#45;&gt;Node17 -->
<g id="edge19" class="edge">
<title>Node14&#45;&gt;Node17</title>
<path fill="none" stroke="midnightblue" d="M1498.17,-329.93C1557.93,-320.9 1653.86,-305.79 1746.86,-287.96"/>
<polygon fill="midnightblue" stroke="midnightblue" points="1747.57,-291.38 1756.73,-286.05 1746.24,-284.51 1747.57,-291.38"/>
</g>
<!-- Node22 -->
<g id="node22" class="node">
<title>Node22</title>
<g id="a_node22"><a xlink:title=" ">
<polygon fill="none" stroke="#bfbfbf" points="1090,-62 1090,-81 1248,-81 1248,-62 1090,-62"/>
<text text-anchor="middle" x="1169" y="-69" font-family="Helvetica,sans-Serif" font-size="10.00">range/v3/view/transform.hpp</text>
</a>
</g>
</g>
<!-- Node14&#45;&gt;Node22 -->
<g id="edge40" class="edge">
<title>Node14&#45;&gt;Node22</title>
<path fill="none" stroke="midnightblue" d="M1381.88,-337.35C1339.34,-333.5 1282.84,-321.72 1246,-288 1187.33,-234.31 1173.33,-132.82 1170.02,-91.11"/>
<polygon fill="midnightblue" stroke="midnightblue" points="1173.5,-90.76 1169.34,-81.02 1166.52,-91.24 1173.5,-90.76"/>
</g>
<!-- Node23 -->
<g id="node23" class="node">
<title>Node23</title>
<g id="a_node23"><a xlink:title=" ">
<polygon fill="none" stroke="#bfbfbf" points="1266.5,-62 1266.5,-81 1335.5,-81 1335.5,-62 1266.5,-62"/>
<text text-anchor="middle" x="1301" y="-69" font-family="Helvetica,sans-Serif" font-size="10.00">Eigen/Core</text>
</a>
</g>
</g>
<!-- Node14&#45;&gt;Node23 -->
<g id="edge41" class="edge">
<title>Node14&#45;&gt;Node23</title>
<path fill="none" stroke="midnightblue" d="M1381.84,-329.49C1336.31,-321.11 1278.35,-307.04 1264,-288 1218.3,-227.35 1266.62,-129.89 1289.92,-90.19"/>
<polygon fill="midnightblue" stroke="midnightblue" points="1293.06,-91.77 1295.23,-81.4 1287.07,-88.15 1293.06,-91.77"/>
</g>
<!-- Node27 -->
<g id="node27" class="node">
<title>Node27</title>
<g id="a_node27"><a xlink:title=" ">
<polygon fill="none" stroke="#bfbfbf" points="1479,-257.5 1479,-287.5 1589,-287.5 1589,-257.5 1479,-257.5"/>
<text text-anchor="start" x="1487" y="-275.5" font-family="Helvetica,sans-Serif" font-size="10.00">range/v3/algorithm</text>
<text text-anchor="middle" x="1534" y="-264.5" font-family="Helvetica,sans-Serif" font-size="10.00">/any_of.hpp</text>
</a>
</g>
</g>
<!-- Node14&#45;&gt;Node27 -->
<g id="edge36" class="edge">
<title>Node14&#45;&gt;Node27</title>
<path fill="none" stroke="midnightblue" d="M1460.4,-324.4C1473.45,-315.37 1490.6,-303.51 1505.05,-293.52"/>
<polygon fill="midnightblue" stroke="midnightblue" points="1507.41,-296.14 1513.64,-287.58 1503.43,-290.39 1507.41,-296.14"/>
</g>
<!-- Node28 -->
<g id="node28" class="node">
<title>Node28</title>
<g id="a_node28"><a xlink:title=" ">
<polygon fill="none" stroke="#bfbfbf" points="1607.5,-263 1607.5,-282 1738.5,-282 1738.5,-263 1607.5,-263"/>
<text text-anchor="middle" x="1673" y="-270" font-family="Helvetica,sans-Serif" font-size="10.00">range/v3/view/filter.hpp</text>
</a>
</g>
</g>
<!-- Node14&#45;&gt;Node28 -->
<g id="edge38" class="edge">
<title>Node14&#45;&gt;Node28</title>
<path fill="none" stroke="midnightblue" d="M1490.27,-324.48C1532.85,-312.6 1593.11,-295.79 1632.61,-284.77"/>
<polygon fill="midnightblue" stroke="midnightblue" points="1633.74,-288.09 1642.43,-282.03 1631.86,-281.34 1633.74,-288.09"/>
</g>
<!-- Node29 -->
<g id="node29" class="node">
<title>Node29</title>
<g id="a_node29"><a xlink:title=" ">
<polygon fill="none" stroke="#bfbfbf" points="1273,-263 1273,-282 1401,-282 1401,-263 1273,-263"/>
<text text-anchor="middle" x="1337" y="-270" font-family="Helvetica,sans-Serif" font-size="10.00">range/v3/view/iota.hpp</text>
</a>
</g>
</g>
<!-- Node14&#45;&gt;Node29 -->
<g id="edge39" class="edge">
<title>Node14&#45;&gt;Node29</title>
<path fill="none" stroke="midnightblue" d="M1417.65,-324.4C1400.38,-313.5 1376.58,-298.48 1359.32,-287.58"/>
<polygon fill="midnightblue" stroke="midnightblue" points="1360.81,-284.38 1350.48,-282.01 1357.07,-290.3 1360.81,-284.38"/>
</g>
<!-- Node17&#45;&gt;Node10 -->
<g id="edge22" class="edge">
<title>Node17&#45;&gt;Node10</title>
<path fill="none" stroke="midnightblue" d="M1820.88,-257.37C1836.23,-232.97 1867.65,-183 1884.22,-156.65"/>
<polygon fill="midnightblue" stroke="midnightblue" points="1887.23,-158.43 1889.59,-148.1 1881.31,-154.7 1887.23,-158.43"/>
</g>
<!-- Node17&#45;&gt;Node15 -->
<g id="edge20" class="edge">
<title>Node17&#45;&gt;Node15</title>
<path fill="none" stroke="midnightblue" d="M1841.51,-257.4C1865.16,-246.09 1898.08,-230.36 1921.03,-219.39"/>
<polygon fill="midnightblue" stroke="midnightblue" points="1922.69,-222.48 1930.2,-215.01 1919.67,-216.16 1922.69,-222.48"/>
</g>
<!-- Node18 -->
<g id="node18" class="node">
<title>Node18</title>
<g id="a_node18"><a xlink:title=" ">
<polygon fill="none" stroke="#bfbfbf" points="1311,-129 1311,-148 1367,-148 1367,-129 1311,-129"/>
<text text-anchor="middle" x="1339" y="-136" font-family="Helvetica,sans-Serif" font-size="10.00">optional</text>
</a>
</g>
</g>
<!-- Node17&#45;&gt;Node18 -->
<g id="edge21" class="edge">
<title>Node17&#45;&gt;Node18</title>
<path fill="none" stroke="midnightblue" d="M1756.77,-258.68C1753.47,-258.07 1750.2,-257.5 1747,-257 1661.24,-243.52 1423.44,-278.05 1358,-221 1340.23,-205.51 1337.35,-176.92 1337.63,-158.05"/>
<polygon fill="midnightblue" stroke="midnightblue" points="1341.13,-158.15 1338.08,-148.01 1334.14,-157.84 1341.13,-158.15"/>
</g>
<!-- Node19 -->
<g id="node19" class="node">
<title>Node19</title>
<g id="a_node19"><a xlink:href="dense__grid_8hpp.html" target="_top" xlink:title="Concepts and abstract implementations of dense grids.">
<polygon fill="none" stroke="black" points="1367,-190.5 1367,-220.5 1477,-220.5 1477,-190.5 1367,-190.5"/>
<text text-anchor="start" x="1375" y="-208.5" font-family="Helvetica,sans-Serif" font-size="10.00">beluga/sensor/data</text>
<text text-anchor="middle" x="1422" y="-197.5" font-family="Helvetica,sans-Serif" font-size="10.00">/dense_grid.hpp</text>
</a>
</g>
</g>
<!-- Node17&#45;&gt;Node19 -->
<g id="edge23" class="edge">
<title>Node17&#45;&gt;Node19</title>
<path fill="none" stroke="midnightblue" d="M1756.73,-258.91C1753.44,-258.24 1750.18,-257.6 1747,-257 1657.39,-240.06 1553.1,-224.6 1487.32,-215.37"/>
<polygon fill="midnightblue" stroke="midnightblue" points="1487.49,-211.86 1477.1,-213.94 1486.52,-218.79 1487.49,-211.86"/>
</g>
<!-- Node17&#45;&gt;Node23 -->
<g id="edge35" class="edge">
<title>Node17&#45;&gt;Node23</title>
<path fill="none" stroke="midnightblue" d="M1756.78,-258.66C1753.48,-258.06 1750.2,-257.5 1747,-257 1656.61,-243.01 1413.08,-271.77 1337,-221 1294.96,-192.94 1295.56,-124.39 1298.61,-91.16"/>
<polygon fill="midnightblue" stroke="midnightblue" points="1302.11,-91.33 1299.73,-81.01 1295.16,-90.56 1302.11,-91.33"/>
</g>
<!-- Node19&#45;&gt;Node10 -->
<g id="edge25" class="edge">
<title>Node19&#45;&gt;Node10</title>
<path fill="none" stroke="midnightblue" d="M1477.29,-192.46C1481.92,-191.58 1486.53,-190.75 1491,-190 1627.32,-167.2 1791.1,-149.77 1860.85,-142.8"/>
<polygon fill="midnightblue" stroke="midnightblue" points="1861.61,-146.25 1871.22,-141.78 1860.93,-139.28 1861.61,-146.25"/>
</g>
<!-- Node19&#45;&gt;Node18 -->
<g id="edge24" class="edge">
<title>Node19&#45;&gt;Node18</title>
<path fill="none" stroke="midnightblue" d="M1403.99,-190.4C1390.41,-179.76 1371.82,-165.2 1358,-154.38"/>
<polygon fill="midnightblue" stroke="midnightblue" points="1360.13,-151.6 1350.1,-148.19 1355.82,-157.12 1360.13,-151.6"/>
</g>
<!-- Node20 -->
<g id="node20" class="node">
<title>Node20</title>
<g id="a_node20"><a xlink:href="regular__grid_8hpp.html" target="_top" xlink:title="Concepts and abstract implementations of regular grids.">
<polygon fill="none" stroke="black" points="1423,-123.5 1423,-153.5 1533,-153.5 1533,-123.5 1423,-123.5"/>
<text text-anchor="start" x="1431" y="-141.5" font-family="Helvetica,sans-Serif" font-size="10.00">beluga/sensor/data</text>
<text text-anchor="middle" x="1478" y="-130.5" font-family="Helvetica,sans-Serif" font-size="10.00">/regular_grid.hpp</text>
</a>
</g>
</g>
<!-- Node19&#45;&gt;Node20 -->
<g id="edge26" class="edge">
<title>Node19&#45;&gt;Node20</title>
<path fill="none" stroke="midnightblue" d="M1434.15,-190.4C1441.49,-181.88 1450.99,-170.85 1459.28,-161.23"/>
<polygon fill="midnightblue" stroke="midnightblue" points="1462,-163.44 1465.87,-153.58 1456.69,-158.87 1462,-163.44"/>
</g>
<!-- Node19&#45;&gt;Node23 -->
<g id="edge33" class="edge">
<title>Node19&#45;&gt;Node23</title>
<path fill="none" stroke="midnightblue" d="M1416.39,-190.26C1409.05,-172.91 1394.86,-143.4 1376,-123 1362.06,-107.92 1342.78,-95.06 1327.25,-86.09"/>
<polygon fill="midnightblue" stroke="midnightblue" points="1328.6,-82.83 1318.16,-81.03 1325.19,-88.95 1328.6,-82.83"/>
</g>
<!-- Node24 -->
<g id="node24" class="node">
<title>Node24</title>
<g id="a_node24"><a xlink:href="eigen__compatibility_8hpp_source.html" target="_top" xlink:title=" ">
<polygon fill="none" stroke="black" points="1494.5,-62 1494.5,-81 1663.5,-81 1663.5,-62 1494.5,-62"/>
<text text-anchor="middle" x="1579" y="-69" font-family="Helvetica,sans-Serif" font-size="10.00">beluga/eigen_compatibility.hpp</text>
</a>
</g>
</g>
<!-- Node19&#45;&gt;Node24 -->
<g id="edge34" class="edge">
<title>Node19&#45;&gt;Node24</title>
<path fill="none" stroke="midnightblue" d="M1477.18,-190.87C1499.51,-183.1 1524.18,-171.33 1542,-154 1559.8,-136.69 1569.79,-109.25 1574.79,-91.06"/>
<polygon fill="midnightblue" stroke="midnightblue" points="1578.19,-91.89 1577.23,-81.33 1571.4,-90.18 1578.19,-91.89"/>
</g>
<!-- Node20&#45;&gt;Node21 -->
<g id="edge27" class="edge">
<title>Node20&#45;&gt;Node21</title>
<path fill="none" stroke="midnightblue" d="M1422.78,-128.82C1407.65,-126.66 1391.22,-124.54 1376,-123 1063.74,-91.47 684.05,-77.3 569.97,-73.55"/>
<polygon fill="midnightblue" stroke="midnightblue" points="569.88,-70.05 559.77,-73.22 569.66,-77.04 569.88,-70.05"/>
</g>
<!-- Node20&#45;&gt;Node22 -->
<g id="edge28" class="edge">
<title>Node20&#45;&gt;Node22</title>
<path fill="none" stroke="midnightblue" d="M1422.76,-125.88C1365.07,-113.74 1275.37,-94.87 1219.51,-83.12"/>
<polygon fill="midnightblue" stroke="midnightblue" points="1219.99,-79.65 1209.49,-81.02 1218.55,-86.5 1219.99,-79.65"/>
</g>
<!-- Node20&#45;&gt;Node23 -->
<g id="edge29" class="edge">
<title>Node20&#45;&gt;Node23</title>
<path fill="none" stroke="midnightblue" d="M1439.59,-123.4C1407.99,-111.79 1363.67,-95.51 1333.73,-84.52"/>
<polygon fill="midnightblue" stroke="midnightblue" points="1334.76,-81.17 1324.17,-81.01 1332.35,-87.74 1334.76,-81.17"/>
</g>
<!-- Node20&#45;&gt;Node24 -->
<g id="edge30" class="edge">
<title>Node20&#45;&gt;Node24</title>
<path fill="none" stroke="midnightblue" d="M1499.92,-123.4C1516.85,-112.5 1540.19,-97.48 1557.12,-86.58"/>
<polygon fill="midnightblue" stroke="midnightblue" points="1559.27,-89.36 1565.78,-81.01 1555.48,-83.48 1559.27,-89.36"/>
</g>
<!-- Node26 -->
<g id="node26" class="node">
<title>Node26</title>
<g id="a_node26"><a xlink:href="enable__self_8hpp.html" target="_top" xlink:title="Implementation of a CRTP utility to enable downcasting to the most derived class.">
<polygon fill="none" stroke="black" points="1354,-56.5 1354,-86.5 1476,-86.5 1476,-56.5 1354,-56.5"/>
<text text-anchor="start" x="1362" y="-74.5" font-family="Helvetica,sans-Serif" font-size="10.00">beluga/mixins/enable</text>
<text text-anchor="middle" x="1415" y="-63.5" font-family="Helvetica,sans-Serif" font-size="10.00">_self.hpp</text>
</a>
</g>
</g>
<!-- Node20&#45;&gt;Node26 -->
<g id="edge32" class="edge">
<title>Node20&#45;&gt;Node26</title>
<path fill="none" stroke="midnightblue" d="M1464.33,-123.4C1455.99,-114.79 1445.17,-103.63 1435.78,-93.94"/>
<polygon fill="midnightblue" stroke="midnightblue" points="1438.12,-91.32 1428.64,-86.58 1433.09,-96.19 1438.12,-91.32"/>
</g>
<!-- Node25 -->
<g id="node25" class="node">
<title>Node25</title>
<g id="a_node25"><a xlink:title=" ">
<polygon fill="none" stroke="#bfbfbf" points="1540.5,-0.5 1540.5,-19.5 1617.5,-19.5 1617.5,-0.5 1540.5,-0.5"/>
<text text-anchor="middle" x="1579" y="-7.5" font-family="Helvetica,sans-Serif" font-size="10.00">Eigen/Dense</text>
</a>
</g>
</g>
<!-- Node24&#45;&gt;Node25 -->
<g id="edge31" class="edge">
<title>Node24&#45;&gt;Node25</title>
<path fill="none" stroke="midnightblue" d="M1579,-61.98C1579,-53.58 1579,-40.48 1579,-29.66"/>
<polygon fill="midnightblue" stroke="midnightblue" points="1582.5,-29.51 1579,-19.51 1575.5,-29.51 1582.5,-29.51"/>
</g>
<!-- Node30&#45;&gt;Node10 -->
<g id="edge45" class="edge">
<title>Node30&#45;&gt;Node10</title>
<path fill="none" stroke="midnightblue" d="M2019.2,-324.43C2049.06,-314.63 2083.32,-301.02 2092,-288 2099.64,-276.53 2097.37,-269.69 2092,-257 2063.91,-190.57 1976.96,-159.32 1928.5,-146.73"/>
<polygon fill="midnightblue" stroke="midnightblue" points="1929.32,-143.33 1918.77,-144.32 1927.64,-150.12 1929.32,-143.33"/>
</g>
<!-- Node30&#45;&gt;Node15 -->
<g id="edge43" class="edge">
<title>Node30&#45;&gt;Node15</title>
<path fill="none" stroke="midnightblue" d="M1968.54,-324.37C1964.36,-300.4 1955.88,-251.75 1951.23,-225.06"/>
<polygon fill="midnightblue" stroke="midnightblue" points="1954.66,-224.35 1949.5,-215.1 1947.77,-225.55 1954.66,-224.35"/>
</g>
<!-- Node30&#45;&gt;Node17 -->
<g id="edge46" class="edge">
<title>Node30&#45;&gt;Node17</title>
<path fill="none" stroke="midnightblue" d="M1936.5,-324.4C1912.85,-314.73 1881.28,-301.82 1855.85,-291.43"/>
<polygon fill="midnightblue" stroke="midnightblue" points="1857.01,-288.12 1846.43,-287.58 1854.37,-294.6 1857.01,-288.12"/>
</g>
<!-- Node31 -->
<g id="node31" class="node">
<title>Node31</title>
<g id="a_node31"><a xlink:title=" ">
<polygon fill="none" stroke="#bfbfbf" points="2037.5,-263 2037.5,-282 2082.5,-282 2082.5,-263 2037.5,-263"/>
<text text-anchor="middle" x="2060" y="-270" font-family="Helvetica,sans-Serif" font-size="10.00">utility</text>
</a>
</g>
</g>
<!-- Node30&#45;&gt;Node31 -->
<g id="edge44" class="edge">
<title>Node30&#45;&gt;Node31</title>
<path fill="none" stroke="midnightblue" d="M1990.31,-324.4C2004.96,-313.7 2025.04,-299.03 2039.88,-288.19"/>
<polygon fill="midnightblue" stroke="midnightblue" points="2042.34,-290.73 2048.35,-282.01 2038.21,-285.08 2042.34,-290.73"/>
</g>
</g>
</svg>
        <g id="navigator" transform="translate(0 0)" fill="#404254">
                <rect fill="#f2f5e9" fill-opacity="0.5" stroke="#606060" stroke-width=".5" x="0" y="0" width="60" height="60"/>
                <use id="zoomplus" xlink:href="#zoomPlus" x="17" y="9" onmousedown="handleZoom(evt,'in')"/>
                <use id="zoomminus" xlink:href="#zoomMin" x="42" y="9" onmousedown="handleZoom(evt,'out')"/>
                <use id="reset" xlink:href="#resetDef" x="30" y="36" onmousedown="handleReset()"/>
                <g id="arrowUp" xlink:href="#dirArrow" transform="translate(30 24)" onmousedown="handlePan(0,-1)">
                  <use xlink:href="#rim" fill="#404040">
                        <set attributeName="fill" to="#808080" begin="arrowUp.mouseover" end="arrowUp.mouseout"/>
                  </use>
                  <path fill="none" stroke="white" stroke-width="1.5" d="M0,-3.0v7 M-2.5,-0.5L0,-3.0L2.5,-0.5"/>
                </g>
                <g id="arrowRight" xlink:href="#dirArrow" transform="rotate(90) translate(36 -43)" onmousedown="handlePan(1,0)">
                  <use xlink:href="#rim" fill="#404040">
                        <set attributeName="fill" to="#808080" begin="arrowRight.mouseover" end="arrowRight.mouseout"/>
                  </use>
                  <path fill="none" stroke="white" stroke-width="1.5" d="M0,-3.0v7 M-2.5,-0.5L0,-3.0L2.5,-0.5"/>
                </g>
                <g id="arrowDown" xlink:href="#dirArrow" transform="rotate(180) translate(-30 -48)" onmousedown="handlePan(0,1)">
                  <use xlink:href="#rim" fill="#404040">
                        <set attributeName="fill" to="#808080" begin="arrowDown.mouseover" end="arrowDown.mouseout"/>
                  </use>
                  <path fill="none" stroke="white" stroke-width="1.5" d="M0,-3.0v7 M-2.5,-0.5L0,-3.0L2.5,-0.5"/>
                </g>
                <g id="arrowLeft" xlink:href="#dirArrow" transform="rotate(270) translate(-36 17)" onmousedown="handlePan(-1,0)">
                  <use xlink:href="#rim" fill="#404040">
                        <set attributeName="fill" to="#808080" begin="arrowLeft.mouseover" end="arrowLeft.mouseout"/>
                  </use>
                  <path fill="none" stroke="white" stroke-width="1.5" d="M0,-3.0v7 M-2.5,-0.5L0,-3.0L2.5,-0.5"/>
                </g>
        </g>
        <svg viewBox="0 0 15 15" width="100%" height="30px" preserveAspectRatio="xMaxYMin meet">
         <g id="arrow_out" transform="scale(0.3 0.3)">
          <a xlink:href="likelihood__field__prob__model_8hpp__incl_org.svg" target="_base">
           <rect id="button" ry="5" rx="5" y="6" x="6" height="38" width="38"
                fill="#f2f5e9" fill-opacity="0.5" stroke="#606060" stroke-width="1.0"/>
           <path id="arrow"
             d="M 11.500037,31.436501 C 11.940474,20.09759 22.043105,11.32322 32.158766,21.979434 L 37.068811,17.246167 C 37.068811,17.246167 37.088388,32 37.088388,32 L 22.160133,31.978069 C 22.160133,31.978069 26.997745,27.140456 26.997745,27.140456 C 18.528582,18.264221 13.291696,25.230495 11.500037,31.436501 z"
             style="fill:#404040;"/>
          </a>
         </g>
        </svg>
</svg>
