<?xml version="1.0" encoding="UTF-8" standalone="no"?>
<!DOCTYPE svg PUBLIC "-//W3C//DTD SVG 1.1//EN"
 "http://www.w3.org/Graphics/SVG/1.1/DTD/svg11.dtd">
<!-- Generated by graphviz version 2.43.0 (0)
 -->
<!-- Title: /home/runner/work/beluga/beluga/beluga/include/beluga/views/likelihoods.hpp Pages: 1 -->
<svg width="524pt" height="285pt"
 viewBox="0.00 0.00 523.50 285.00" xmlns="http://www.w3.org/2000/svg" xmlns:xlink="http://www.w3.org/1999/xlink">
<g id="graph0" class="graph" transform="scale(1 1) rotate(0) translate(4 281)">
<title>/home/runner/work/beluga/beluga/beluga/include/beluga/views/likelihoods.hpp</title>
<!-- Node1 -->
<g id="node1" class="node">
<title>Node1</title>
<g id="a_node1"><a xlink:title="Implementation of the likelihoods range adaptor object.">
<polygon fill="#bfbfbf" stroke="black" points="104,-235.5 104,-276.5 265,-276.5 265,-235.5 104,-235.5"/>
<text text-anchor="start" x="112" y="-264.5" font-family="Helvetica,sans-Serif" font-size="10.00">/home/runner/work/beluga</text>
<text text-anchor="start" x="112" y="-253.5" font-family="Helvetica,sans-Serif" font-size="10.00">/beluga/beluga/include</text>
<text text-anchor="middle" x="184.5" y="-242.5" font-family="Helvetica,sans-Serif" font-size="10.00">/beluga/views/likelihoods.hpp</text>
</a>
</g>
</g>
<!-- Node2 -->
<g id="node2" class="node">
<title>Node2</title>
<g id="a_node2"><a xlink:title=" ">
<polygon fill="none" stroke="#bfbfbf" points="0,-0.5 0,-19.5 45,-19.5 45,-0.5 0,-0.5"/>
<text text-anchor="middle" x="22.5" y="-7.5" font-family="Helvetica,sans-Serif" font-size="10.00">utility</text>
</a>
</g>
</g>
<!-- Node1&#45;&gt;Node2 -->
<g id="edge1" class="edge">
<title>Node1&#45;&gt;Node2</title>
<path fill="none" stroke="midnightblue" d="M149.2,-235.38C105.38,-208.6 33.39,-155.93 8.5,-87 1.61,-67.93 7.74,-44.89 13.91,-29.21"/>
<polygon fill="midnightblue" stroke="midnightblue" points="17.28,-30.24 18.03,-19.67 10.85,-27.47 17.28,-30.24"/>
</g>
<!-- Node3 -->
<g id="node3" class="node">
<title>Node3</title>
<g id="a_node3"><a xlink:href="particles_8hpp.html" target="_top" xlink:title="Implementation of views related to particle ranges.">
<polygon fill="none" stroke="black" points="111,-179.5 111,-198.5 258,-198.5 258,-179.5 111,-179.5"/>
<text text-anchor="middle" x="184.5" y="-186.5" font-family="Helvetica,sans-Serif" font-size="10.00">beluga/views/particles.hpp</text>
</a>
</g>
</g>
<!-- Node1&#45;&gt;Node3 -->
<g id="edge2" class="edge">
<title>Node1&#45;&gt;Node3</title>
<path fill="none" stroke="midnightblue" d="M184.5,-235.5C184.5,-227.07 184.5,-217.24 184.5,-208.87"/>
<polygon fill="midnightblue" stroke="midnightblue" points="188,-208.65 184.5,-198.65 181,-208.65 188,-208.65"/>
</g>
<!-- Node12 -->
<g id="node12" class="node">
<title>Node12</title>
<g id="a_node12"><a xlink:title=" ">
<polygon fill="none" stroke="#bfbfbf" points="250.5,-123.5 250.5,-142.5 408.5,-142.5 408.5,-123.5 250.5,-123.5"/>
<text text-anchor="middle" x="329.5" y="-130.5" font-family="Helvetica,sans-Serif" font-size="10.00">range/v3/view/transform.hpp</text>
</a>
</g>
</g>
<!-- Node1&#45;&gt;Node12 -->
<g id="edge16" class="edge">
<title>Node1&#45;&gt;Node12</title>
<path fill="none" stroke="midnightblue" d="M217.19,-235.26C232.97,-225.17 251.83,-212.23 267.5,-199 285.46,-183.83 303.76,-164 315.78,-150.24"/>
<polygon fill="midnightblue" stroke="midnightblue" points="318.52,-152.43 322.39,-142.56 313.21,-147.86 318.52,-152.43"/>
</g>
<!-- Node4 -->
<g id="node4" class="node">
<title>Node4</title>
<g id="a_node4"><a xlink:href="primitives_8hpp.html" target="_top" xlink:title="Implementation of library primitives to abstract member access.">
<polygon fill="none" stroke="black" points="109,-123.5 109,-142.5 232,-142.5 232,-123.5 109,-123.5"/>
<text text-anchor="middle" x="170.5" y="-130.5" font-family="Helvetica,sans-Serif" font-size="10.00">beluga/primitives.hpp</text>
</a>
</g>
</g>
<!-- Node3&#45;&gt;Node4 -->
<g id="edge3" class="edge">
<title>Node3&#45;&gt;Node4</title>
<path fill="none" stroke="midnightblue" d="M182.19,-179.08C180.33,-171.93 177.66,-161.64 175.35,-152.69"/>
<polygon fill="midnightblue" stroke="midnightblue" points="178.67,-151.55 172.77,-142.75 171.89,-153.31 178.67,-151.55"/>
</g>
<!-- Node3&#45;&gt;Node12 -->
<g id="edge15" class="edge">
<title>Node3&#45;&gt;Node12</title>
<path fill="none" stroke="midnightblue" d="M207.48,-179.44C231.66,-170.44 269.92,-156.19 297.15,-146.05"/>
<polygon fill="midnightblue" stroke="midnightblue" points="298.48,-149.29 306.63,-142.52 296.04,-142.73 298.48,-149.29"/>
</g>
<!-- Node5 -->
<g id="node5" class="node">
<title>Node5</title>
<g id="a_node5"><a xlink:title=" ">
<polygon fill="none" stroke="#bfbfbf" points="73,-0.5 73,-19.5 114,-19.5 114,-0.5 73,-0.5"/>
<text text-anchor="middle" x="93.5" y="-7.5" font-family="Helvetica,sans-Serif" font-size="10.00">tuple</text>
</a>
</g>
</g>
<!-- Node4&#45;&gt;Node5 -->
<g id="edge4" class="edge">
<title>Node4&#45;&gt;Node5</title>
<path fill="none" stroke="midnightblue" d="M166.78,-123.21C160.45,-108.67 146.79,-78.96 131.5,-56 124.78,-45.92 116.14,-35.53 108.8,-27.27"/>
<polygon fill="midnightblue" stroke="midnightblue" points="111.33,-24.85 102,-19.82 106.16,-29.57 111.33,-24.85"/>
</g>
<!-- Node6 -->
<g id="node6" class="node">
<title>Node6</title>
<g id="a_node6"><a xlink:title=" ">
<polygon fill="none" stroke="#bfbfbf" points="155,-0.5 155,-19.5 224,-19.5 224,-0.5 155,-0.5"/>
<text text-anchor="middle" x="189.5" y="-7.5" font-family="Helvetica,sans-Serif" font-size="10.00">type_traits</text>
</a>
</g>
</g>
<!-- Node4&#45;&gt;Node6 -->
<g id="edge5" class="edge">
<title>Node4&#45;&gt;Node6</title>
<path fill="none" stroke="midnightblue" d="M171.87,-123.3C174.93,-103.76 182.42,-56.06 186.59,-29.55"/>
<polygon fill="midnightblue" stroke="midnightblue" points="190.05,-30.05 188.15,-19.62 183.14,-28.96 190.05,-30.05"/>
</g>
<!-- Node7 -->
<g id="node7" class="node">
<title>Node7</title>
<g id="a_node7"><a xlink:href="strongly__typed__numeric_8hpp.html" target="_top" xlink:title="Implementation of a strongly typed numeric helper.">
<polygon fill="none" stroke="black" points="217.5,-56.5 217.5,-86.5 375.5,-86.5 375.5,-56.5 217.5,-56.5"/>
<text text-anchor="start" x="225.5" y="-74.5" font-family="Helvetica,sans-Serif" font-size="10.00">beluga/type_traits</text>
<text text-anchor="middle" x="296.5" y="-63.5" font-family="Helvetica,sans-Serif" font-size="10.00">/strongly_typed_numeric.hpp</text>
</a>
</g>
</g>
<!-- Node4&#45;&gt;Node7 -->
<g id="edge6" class="edge">
<title>Node4&#45;&gt;Node7</title>
<path fill="none" stroke="midnightblue" d="M188.55,-123.48C206.49,-115 234.59,-101.74 257.61,-90.86"/>
<polygon fill="midnightblue" stroke="midnightblue" points="259.26,-93.96 266.8,-86.52 256.27,-87.63 259.26,-93.96"/>
</g>
<!-- Node10 -->
<g id="node10" class="node">
<title>Node10</title>
<g id="a_node10"><a xlink:href="tuple__traits_8hpp.html" target="_top" xlink:title="Implementation of traits for tuple&#45;like types.">
<polygon fill="none" stroke="black" points="18,-56.5 18,-86.5 123,-86.5 123,-56.5 18,-56.5"/>
<text text-anchor="start" x="26" y="-74.5" font-family="Helvetica,sans-Serif" font-size="10.00">beluga/type_traits</text>
<text text-anchor="middle" x="70.5" y="-63.5" font-family="Helvetica,sans-Serif" font-size="10.00">/tuple_traits.hpp</text>
</a>
</g>
</g>
<!-- Node4&#45;&gt;Node10 -->
<g id="edge10" class="edge">
<title>Node4&#45;&gt;Node10</title>
<path fill="none" stroke="midnightblue" d="M156.17,-123.48C142.38,-115.27 121.02,-102.56 103.08,-91.88"/>
<polygon fill="midnightblue" stroke="midnightblue" points="104.45,-88.63 94.07,-86.52 100.87,-94.64 104.45,-88.63"/>
</g>
<!-- Node11 -->
<g id="node11" class="node">
<title>Node11</title>
<g id="a_node11"><a xlink:href="forward__like_8hpp_source.html" target="_top" xlink:title=" ">
<polygon fill="none" stroke="black" points="393.5,-56.5 393.5,-86.5 515.5,-86.5 515.5,-56.5 393.5,-56.5"/>
<text text-anchor="start" x="401.5" y="-74.5" font-family="Helvetica,sans-Serif" font-size="10.00">beluga/utility/forward</text>
<text text-anchor="middle" x="454.5" y="-63.5" font-family="Helvetica,sans-Serif" font-size="10.00">_like.hpp</text>
</a>
</g>
</g>
<!-- Node4&#45;&gt;Node11 -->
<g id="edge14" class="edge">
<title>Node4&#45;&gt;Node11</title>
<path fill="none" stroke="midnightblue" d="M211.19,-123.48C256.02,-114.08 328.97,-98.8 383.32,-87.41"/>
<polygon fill="midnightblue" stroke="midnightblue" points="384.17,-90.81 393.24,-85.34 382.73,-83.96 384.17,-90.81"/>
</g>
<!-- Node7&#45;&gt;Node6 -->
<g id="edge9" class="edge">
<title>Node7&#45;&gt;Node6</title>
<path fill="none" stroke="midnightblue" d="M271.14,-56.4C253.83,-46.77 231.02,-34.09 213.92,-24.58"/>
<polygon fill="midnightblue" stroke="midnightblue" points="215.51,-21.46 205.07,-19.66 212.11,-27.58 215.51,-21.46"/>
</g>
<!-- Node8 -->
<g id="node8" class="node">
<title>Node8</title>
<g id="a_node8"><a xlink:title=" ">
<polygon fill="none" stroke="#bfbfbf" points="253,-0.5 253,-19.5 318,-19.5 318,-0.5 253,-0.5"/>
<text text-anchor="middle" x="285.5" y="-7.5" font-family="Helvetica,sans-Serif" font-size="10.00">functional</text>
</a>
</g>
</g>
<!-- Node7&#45;&gt;Node8 -->
<g id="edge7" class="edge">
<title>Node7&#45;&gt;Node8</title>
<path fill="none" stroke="midnightblue" d="M293.89,-56.4C292.41,-48.38 290.53,-38.23 288.93,-29.57"/>
<polygon fill="midnightblue" stroke="midnightblue" points="292.36,-28.85 287.1,-19.66 285.48,-30.13 292.36,-28.85"/>
</g>
<!-- Node9 -->
<g id="node9" class="node">
<title>Node9</title>
<g id="a_node9"><a xlink:title=" ">
<polygon fill="none" stroke="#bfbfbf" points="336.5,-0.5 336.5,-19.5 380.5,-19.5 380.5,-0.5 336.5,-0.5"/>
<text text-anchor="middle" x="358.5" y="-7.5" font-family="Helvetica,sans-Serif" font-size="10.00">limits</text>
</a>
</g>
</g>
<!-- Node7&#45;&gt;Node9 -->
<g id="edge8" class="edge">
<title>Node7&#45;&gt;Node9</title>
<path fill="none" stroke="midnightblue" d="M311.19,-56.4C320.48,-47.49 332.5,-35.95 342.1,-26.74"/>
<polygon fill="midnightblue" stroke="midnightblue" points="344.69,-29.11 349.48,-19.66 339.84,-24.06 344.69,-29.11"/>
</g>
<!-- Node10&#45;&gt;Node2 -->
<g id="edge13" class="edge">
<title>Node10&#45;&gt;Node2</title>
<path fill="none" stroke="midnightblue" d="M59.12,-56.4C52.15,-47.75 43.19,-36.64 35.87,-27.58"/>
<polygon fill="midnightblue" stroke="midnightblue" points="38.49,-25.24 29.48,-19.66 33.04,-29.64 38.49,-25.24"/>
</g>
<!-- Node10&#45;&gt;Node5 -->
<g id="edge11" class="edge">
<title>Node10&#45;&gt;Node5</title>
<path fill="none" stroke="midnightblue" d="M75.95,-56.4C79.12,-48.2 83.15,-37.78 86.54,-28.99"/>
<polygon fill="midnightblue" stroke="midnightblue" points="89.81,-30.25 90.15,-19.66 83.28,-27.72 89.81,-30.25"/>
</g>
<!-- Node10&#45;&gt;Node6 -->
<g id="edge12" class="edge">
<title>Node10&#45;&gt;Node6</title>
<path fill="none" stroke="midnightblue" d="M98.7,-56.4C118.22,-46.64 144.03,-33.74 163.13,-24.18"/>
<polygon fill="midnightblue" stroke="midnightblue" points="164.81,-27.26 172.18,-19.66 161.67,-21 164.81,-27.26"/>
</g>
</g>
</svg>
