<?xml version="1.0" encoding="UTF-8" standalone="no"?>
<!DOCTYPE svg PUBLIC "-//W3C//DTD SVG 1.1//EN"
 "http://www.w3.org/Graphics/SVG/1.1/DTD/svg11.dtd">
<!-- Generated by graphviz version 2.43.0 (0)
 -->
<!-- Title: /home/runner/work/beluga/beluga/beluga/include/beluga/sensor/data/linear_grid.hpp Pages: 1 -->
<svg width="457pt" height="251pt"
 viewBox="0.00 0.00 457.00 251.00" xmlns="http://www.w3.org/2000/svg" xmlns:xlink="http://www.w3.org/1999/xlink">
<g id="graph0" class="graph" transform="scale(1 1) rotate(0) translate(4 247)">
<title>/home/runner/work/beluga/beluga/beluga/include/beluga/sensor/data/linear_grid.hpp</title>
<!-- Node1 -->
<g id="node1" class="node">
<title>Node1</title>
<g id="a_node1"><a xlink:title="Concepts and abstract implementations of linear (ie. contiguous storage) grids.">
<polygon fill="#bfbfbf" stroke="black" points="114,-190.5 114,-242.5 259,-242.5 259,-190.5 114,-190.5"/>
<text text-anchor="start" x="122" y="-230.5" font-family="Helvetica,sans-Serif" font-size="10.00">/home/runner/work/beluga</text>
<text text-anchor="start" x="122" y="-219.5" font-family="Helvetica,sans-Serif" font-size="10.00">/beluga/beluga/include</text>
<text text-anchor="start" x="122" y="-208.5" font-family="Helvetica,sans-Serif" font-size="10.00">/beluga/sensor/data/linear</text>
<text text-anchor="middle" x="186.5" y="-197.5" font-family="Helvetica,sans-Serif" font-size="10.00">_grid.hpp</text>
</a>
</g>
</g>
<!-- Node2 -->
<g id="node2" class="node">
<title>Node2</title>
<g id="a_node2"><a xlink:title=" ">
<polygon fill="none" stroke="#bfbfbf" points="70.5,-129 70.5,-148 120.5,-148 120.5,-129 70.5,-129"/>
<text text-anchor="middle" x="95.5" y="-136" font-family="Helvetica,sans-Serif" font-size="10.00">cstdint</text>
</a>
</g>
</g>
<!-- Node1&#45;&gt;Node2 -->
<g id="edge1" class="edge">
<title>Node1&#45;&gt;Node2</title>
<path fill="none" stroke="midnightblue" d="M156.45,-190.4C142.32,-178.6 125.93,-164.91 113.71,-154.7"/>
<polygon fill="midnightblue" stroke="midnightblue" points="115.91,-151.98 105.99,-148.26 111.42,-157.36 115.91,-151.98"/>
</g>
<!-- Node3 -->
<g id="node3" class="node">
<title>Node3</title>
<g id="a_node3"><a xlink:title=" ">
<polygon fill="none" stroke="#bfbfbf" points="88.5,-62 88.5,-81 144.5,-81 144.5,-62 88.5,-62"/>
<text text-anchor="middle" x="116.5" y="-69" font-family="Helvetica,sans-Serif" font-size="10.00">optional</text>
</a>
</g>
</g>
<!-- Node1&#45;&gt;Node3 -->
<g id="edge2" class="edge">
<title>Node1&#45;&gt;Node3</title>
<path fill="none" stroke="midnightblue" d="M174.15,-190.26C160.07,-161.51 137.44,-115.27 125.13,-90.14"/>
<polygon fill="midnightblue" stroke="midnightblue" points="128.23,-88.5 120.69,-81.05 121.94,-91.57 128.23,-88.5"/>
</g>
<!-- Node4 -->
<g id="node4" class="node">
<title>Node4</title>
<g id="a_node4"><a xlink:title=" ">
<polygon fill="none" stroke="#bfbfbf" points="163,-62 163,-81 210,-81 210,-62 163,-62"/>
<text text-anchor="middle" x="186.5" y="-69" font-family="Helvetica,sans-Serif" font-size="10.00">vector</text>
</a>
</g>
</g>
<!-- Node1&#45;&gt;Node4 -->
<g id="edge3" class="edge">
<title>Node1&#45;&gt;Node4</title>
<path fill="none" stroke="midnightblue" d="M186.5,-190.26C186.5,-161.89 186.5,-116.5 186.5,-91.15"/>
<polygon fill="midnightblue" stroke="midnightblue" points="190,-91.05 186.5,-81.05 183,-91.05 190,-91.05"/>
</g>
<!-- Node5 -->
<g id="node5" class="node">
<title>Node5</title>
<g id="a_node5"><a xlink:href="dense__grid_8hpp.html" target="_top" xlink:title="Concepts and abstract implementations of dense grids.">
<polygon fill="none" stroke="black" points="214.5,-123.5 214.5,-153.5 324.5,-153.5 324.5,-123.5 214.5,-123.5"/>
<text text-anchor="start" x="222.5" y="-141.5" font-family="Helvetica,sans-Serif" font-size="10.00">beluga/sensor/data</text>
<text text-anchor="middle" x="269.5" y="-130.5" font-family="Helvetica,sans-Serif" font-size="10.00">/dense_grid.hpp</text>
</a>
</g>
</g>
<!-- Node1&#45;&gt;Node5 -->
<g id="edge4" class="edge">
<title>Node1&#45;&gt;Node5</title>
<path fill="none" stroke="midnightblue" d="M214.14,-190.19C224.56,-180.65 236.29,-169.91 246.27,-160.77"/>
<polygon fill="midnightblue" stroke="midnightblue" points="248.82,-163.18 253.83,-153.85 244.09,-158.02 248.82,-163.18"/>
</g>
<!-- Node10 -->
<g id="node10" class="node">
<title>Node10</title>
<g id="a_node10"><a xlink:title=" ">
<polygon fill="none" stroke="#bfbfbf" points="380,-0.5 380,-19.5 449,-19.5 449,-0.5 380,-0.5"/>
<text text-anchor="middle" x="414.5" y="-7.5" font-family="Helvetica,sans-Serif" font-size="10.00">Eigen/Core</text>
</a>
</g>
</g>
<!-- Node1&#45;&gt;Node10 -->
<g id="edge13" class="edge">
<title>Node1&#45;&gt;Node10</title>
<path fill="none" stroke="midnightblue" d="M259.1,-195.19C284.55,-185.59 312.09,-172.17 333.5,-154 374,-119.64 398.43,-59.64 408.74,-29.46"/>
<polygon fill="midnightblue" stroke="midnightblue" points="412.12,-30.38 411.91,-19.79 405.47,-28.2 412.12,-30.38"/>
</g>
<!-- Node5&#45;&gt;Node3 -->
<g id="edge5" class="edge">
<title>Node5&#45;&gt;Node3</title>
<path fill="none" stroke="midnightblue" d="M236.3,-123.4C209.34,-111.94 171.67,-95.94 145.81,-84.95"/>
<polygon fill="midnightblue" stroke="midnightblue" points="147.1,-81.7 136.52,-81.01 144.36,-88.14 147.1,-81.7"/>
</g>
<!-- Node5&#45;&gt;Node4 -->
<g id="edge6" class="edge">
<title>Node5&#45;&gt;Node4</title>
<path fill="none" stroke="midnightblue" d="M251.49,-123.4C237.91,-112.76 219.32,-98.2 205.5,-87.38"/>
<polygon fill="midnightblue" stroke="midnightblue" points="207.63,-84.6 197.6,-81.19 203.32,-90.12 207.63,-84.6"/>
</g>
<!-- Node6 -->
<g id="node6" class="node">
<title>Node6</title>
<g id="a_node6"><a xlink:href="regular__grid_8hpp.html" target="_top" xlink:title="Concepts and abstract implementations of regular grids.">
<polygon fill="none" stroke="black" points="228.5,-56.5 228.5,-86.5 338.5,-86.5 338.5,-56.5 228.5,-56.5"/>
<text text-anchor="start" x="236.5" y="-74.5" font-family="Helvetica,sans-Serif" font-size="10.00">beluga/sensor/data</text>
<text text-anchor="middle" x="283.5" y="-63.5" font-family="Helvetica,sans-Serif" font-size="10.00">/regular_grid.hpp</text>
</a>
</g>
</g>
<!-- Node5&#45;&gt;Node6 -->
<g id="edge7" class="edge">
<title>Node5&#45;&gt;Node6</title>
<path fill="none" stroke="midnightblue" d="M272.54,-123.4C274.23,-115.56 276.37,-105.6 278.32,-96.57"/>
<polygon fill="midnightblue" stroke="midnightblue" points="281.78,-97.09 280.47,-86.58 274.94,-95.62 281.78,-97.09"/>
</g>
<!-- Node5&#45;&gt;Node10 -->
<g id="edge12" class="edge">
<title>Node5&#45;&gt;Node10</title>
<path fill="none" stroke="midnightblue" d="M294.96,-123.43C310.83,-114.09 331.25,-101.01 347.5,-87 368.63,-68.78 389.3,-43.96 401.97,-27.72"/>
<polygon fill="midnightblue" stroke="midnightblue" points="404.83,-29.73 408.13,-19.67 399.27,-25.48 404.83,-29.73"/>
</g>
<!-- Node7 -->
<g id="node7" class="node">
<title>Node7</title>
<g id="a_node7"><a xlink:title=" ">
<polygon fill="none" stroke="#bfbfbf" points="0,-0.5 0,-19.5 47,-19.5 47,-0.5 0,-0.5"/>
<text text-anchor="middle" x="23.5" y="-7.5" font-family="Helvetica,sans-Serif" font-size="10.00">cmath</text>
</a>
</g>
</g>
<!-- Node6&#45;&gt;Node7 -->
<g id="edge8" class="edge">
<title>Node6&#45;&gt;Node7</title>
<path fill="none" stroke="midnightblue" d="M228.18,-58.16C224.91,-57.43 221.66,-56.7 218.5,-56 149.6,-40.66 129.78,-37.93 57.34,-20.12"/>
<polygon fill="midnightblue" stroke="midnightblue" points="57.81,-16.63 47.26,-17.62 56.13,-23.42 57.81,-16.63"/>
</g>
<!-- Node8 -->
<g id="node8" class="node">
<title>Node8</title>
<g id="a_node8"><a xlink:href="ciabatta_8hpp_source.html" target="_top" xlink:title=" ">
<polygon fill="none" stroke="black" points="65.5,-0.5 65.5,-19.5 185.5,-19.5 185.5,-0.5 65.5,-0.5"/>
<text text-anchor="middle" x="125.5" y="-7.5" font-family="Helvetica,sans-Serif" font-size="10.00">ciabatta/ciabatta.hpp</text>
</a>
</g>
</g>
<!-- Node6&#45;&gt;Node8 -->
<g id="edge9" class="edge">
<title>Node6&#45;&gt;Node8</title>
<path fill="none" stroke="midnightblue" d="M246.06,-56.4C219.31,-46.33 183.68,-32.91 158.1,-23.28"/>
<polygon fill="midnightblue" stroke="midnightblue" points="159.08,-19.91 148.49,-19.66 156.62,-26.46 159.08,-19.91"/>
</g>
<!-- Node9 -->
<g id="node9" class="node">
<title>Node9</title>
<g id="a_node9"><a xlink:title=" ">
<polygon fill="none" stroke="#bfbfbf" points="203.5,-0.5 203.5,-19.5 361.5,-19.5 361.5,-0.5 203.5,-0.5"/>
<text text-anchor="middle" x="282.5" y="-7.5" font-family="Helvetica,sans-Serif" font-size="10.00">range/v3/view/transform.hpp</text>
</a>
</g>
</g>
<!-- Node6&#45;&gt;Node9 -->
<g id="edge10" class="edge">
<title>Node6&#45;&gt;Node9</title>
<path fill="none" stroke="midnightblue" d="M283.26,-56.4C283.13,-48.47 282.96,-38.46 282.82,-29.86"/>
<polygon fill="midnightblue" stroke="midnightblue" points="286.31,-29.6 282.65,-19.66 279.31,-29.72 286.31,-29.6"/>
</g>
<!-- Node6&#45;&gt;Node10 -->
<g id="edge11" class="edge">
<title>Node6&#45;&gt;Node10</title>
<path fill="none" stroke="midnightblue" d="M314.55,-56.4C336.23,-46.55 364.96,-33.5 386.05,-23.92"/>
<polygon fill="midnightblue" stroke="midnightblue" points="387.78,-26.98 395.44,-19.66 384.89,-20.61 387.78,-26.98"/>
</g>
</g>
</svg>
