<?xml version="1.0" encoding="UTF-8" standalone="no"?>
<!DOCTYPE svg PUBLIC "-//W3C//DTD SVG 1.1//EN"
 "http://www.w3.org/Graphics/SVG/1.1/DTD/svg11.dtd">
<!-- Generated by graphviz version 2.43.0 (0)
 -->
<!-- Title: /home/runner/work/beluga/beluga/beluga/include/beluga/sensor/data/linear_grid.hpp Pages: 1 -->
<svg width="643pt" height="307pt"
 viewBox="0.00 0.00 643.00 307.00" xmlns="http://www.w3.org/2000/svg" xmlns:xlink="http://www.w3.org/1999/xlink">
<g id="graph0" class="graph" transform="scale(1 1) rotate(0) translate(4 303)">
<title>/home/runner/work/beluga/beluga/beluga/include/beluga/sensor/data/linear_grid.hpp</title>
<!-- Node1 -->
<g id="node1" class="node">
<title>Node1</title>
<g id="a_node1"><a xlink:title="Concepts and abstract implementations of linear (ie. contiguous storage) grids.">
<polygon fill="#bfbfbf" stroke="black" points="174,-246.5 174,-298.5 319,-298.5 319,-246.5 174,-246.5"/>
<text text-anchor="start" x="182" y="-286.5" font-family="Helvetica,sans-Serif" font-size="10.00">/home/runner/work/beluga</text>
<text text-anchor="start" x="182" y="-275.5" font-family="Helvetica,sans-Serif" font-size="10.00">/beluga/beluga/include</text>
<text text-anchor="start" x="182" y="-264.5" font-family="Helvetica,sans-Serif" font-size="10.00">/beluga/sensor/data/linear</text>
<text text-anchor="middle" x="246.5" y="-253.5" font-family="Helvetica,sans-Serif" font-size="10.00">_grid.hpp</text>
</a>
</g>
</g>
<!-- Node2 -->
<g id="node2" class="node">
<title>Node2</title>
<g id="a_node2"><a xlink:title=" ">
<polygon fill="none" stroke="#bfbfbf" points="130.5,-185 130.5,-204 180.5,-204 180.5,-185 130.5,-185"/>
<text text-anchor="middle" x="155.5" y="-192" font-family="Helvetica,sans-Serif" font-size="10.00">cstdint</text>
</a>
</g>
</g>
<!-- Node1&#45;&gt;Node2 -->
<g id="edge1" class="edge">
<title>Node1&#45;&gt;Node2</title>
<path fill="none" stroke="midnightblue" d="M216.45,-246.4C202.32,-234.6 185.93,-220.91 173.71,-210.7"/>
<polygon fill="midnightblue" stroke="midnightblue" points="175.91,-207.98 165.99,-204.26 171.42,-213.36 175.91,-207.98"/>
</g>
<!-- Node3 -->
<g id="node3" class="node">
<title>Node3</title>
<g id="a_node3"><a xlink:title=" ">
<polygon fill="none" stroke="#bfbfbf" points="164.5,-118 164.5,-137 220.5,-137 220.5,-118 164.5,-118"/>
<text text-anchor="middle" x="192.5" y="-125" font-family="Helvetica,sans-Serif" font-size="10.00">optional</text>
</a>
</g>
</g>
<!-- Node1&#45;&gt;Node3 -->
<g id="edge2" class="edge">
<title>Node1&#45;&gt;Node3</title>
<path fill="none" stroke="midnightblue" d="M236.97,-246.26C226.16,-217.64 208.81,-171.68 199.29,-146.47"/>
<polygon fill="midnightblue" stroke="midnightblue" points="202.54,-145.17 195.73,-137.05 195.99,-147.65 202.54,-145.17"/>
</g>
<!-- Node4 -->
<g id="node4" class="node">
<title>Node4</title>
<g id="a_node4"><a xlink:title=" ">
<polygon fill="none" stroke="#bfbfbf" points="239,-118 239,-137 286,-137 286,-118 239,-118"/>
<text text-anchor="middle" x="262.5" y="-125" font-family="Helvetica,sans-Serif" font-size="10.00">vector</text>
</a>
</g>
</g>
<!-- Node1&#45;&gt;Node4 -->
<g id="edge3" class="edge">
<title>Node1&#45;&gt;Node4</title>
<path fill="none" stroke="midnightblue" d="M249.32,-246.26C252.5,-217.89 257.58,-172.5 260.41,-147.15"/>
<polygon fill="midnightblue" stroke="midnightblue" points="263.91,-147.38 261.54,-137.05 256.95,-146.6 263.91,-147.38"/>
</g>
<!-- Node5 -->
<g id="node5" class="node">
<title>Node5</title>
<g id="a_node5"><a xlink:href="dense__grid_8hpp.html" target="_top" xlink:title="Concepts and abstract implementations of dense grids.">
<polygon fill="none" stroke="black" points="274.5,-179.5 274.5,-209.5 384.5,-209.5 384.5,-179.5 274.5,-179.5"/>
<text text-anchor="start" x="282.5" y="-197.5" font-family="Helvetica,sans-Serif" font-size="10.00">beluga/sensor/data</text>
<text text-anchor="middle" x="329.5" y="-186.5" font-family="Helvetica,sans-Serif" font-size="10.00">/dense_grid.hpp</text>
</a>
</g>
</g>
<!-- Node1&#45;&gt;Node5 -->
<g id="edge4" class="edge">
<title>Node1&#45;&gt;Node5</title>
<path fill="none" stroke="midnightblue" d="M274.14,-246.19C284.56,-236.65 296.29,-225.91 306.27,-216.77"/>
<polygon fill="midnightblue" stroke="midnightblue" points="308.82,-219.18 313.83,-209.85 304.09,-214.02 308.82,-219.18"/>
</g>
<!-- Node10 -->
<g id="node10" class="node">
<title>Node10</title>
<g id="a_node10"><a xlink:title=" ">
<polygon fill="none" stroke="#bfbfbf" points="566,-56.5 566,-75.5 635,-75.5 635,-56.5 566,-56.5"/>
<text text-anchor="middle" x="600.5" y="-63.5" font-family="Helvetica,sans-Serif" font-size="10.00">Eigen/Core</text>
</a>
</g>
</g>
<!-- Node1&#45;&gt;Node10 -->
<g id="edge16" class="edge">
<title>Node1&#45;&gt;Node10</title>
<path fill="none" stroke="midnightblue" d="M312.2,-246.42C337.93,-235.98 367.47,-223.21 393.5,-210 444.88,-183.92 457.15,-175.84 504.5,-143 532.83,-123.36 563.79,-98.1 582.68,-82.23"/>
<polygon fill="midnightblue" stroke="midnightblue" points="585.08,-84.78 590.46,-75.65 580.56,-79.44 585.08,-84.78"/>
</g>
<!-- Node5&#45;&gt;Node3 -->
<g id="edge5" class="edge">
<title>Node5&#45;&gt;Node3</title>
<path fill="none" stroke="midnightblue" d="M299.77,-179.4C275.95,-168.09 242.79,-152.36 219.67,-141.39"/>
<polygon fill="midnightblue" stroke="midnightblue" points="220.97,-138.13 210.43,-137.01 217.96,-144.46 220.97,-138.13"/>
</g>
<!-- Node5&#45;&gt;Node4 -->
<g id="edge6" class="edge">
<title>Node5&#45;&gt;Node4</title>
<path fill="none" stroke="midnightblue" d="M314.96,-179.4C304.31,-169.06 289.84,-155.02 278.8,-144.31"/>
<polygon fill="midnightblue" stroke="midnightblue" points="281.08,-141.65 271.46,-137.19 276.2,-146.67 281.08,-141.65"/>
</g>
<!-- Node6 -->
<g id="node6" class="node">
<title>Node6</title>
<g id="a_node6"><a xlink:href="regular__grid_8hpp.html" target="_top" xlink:title="Concepts and abstract implementations of regular grids.">
<polygon fill="none" stroke="black" points="342.5,-112.5 342.5,-142.5 452.5,-142.5 452.5,-112.5 342.5,-112.5"/>
<text text-anchor="start" x="350.5" y="-130.5" font-family="Helvetica,sans-Serif" font-size="10.00">beluga/sensor/data</text>
<text text-anchor="middle" x="397.5" y="-119.5" font-family="Helvetica,sans-Serif" font-size="10.00">/regular_grid.hpp</text>
</a>
</g>
</g>
<!-- Node5&#45;&gt;Node6 -->
<g id="edge7" class="edge">
<title>Node5&#45;&gt;Node6</title>
<path fill="none" stroke="midnightblue" d="M344.25,-179.4C353.34,-170.71 365.17,-159.4 375.37,-149.66"/>
<polygon fill="midnightblue" stroke="midnightblue" points="377.96,-152.02 382.77,-142.58 373.13,-146.96 377.96,-152.02"/>
</g>
<!-- Node5&#45;&gt;Node10 -->
<g id="edge14" class="edge">
<title>Node5&#45;&gt;Node10</title>
<path fill="none" stroke="midnightblue" d="M370.53,-179.42C396.89,-169.98 431.65,-156.79 461.5,-143 503.49,-123.6 550.29,-96.89 577.47,-80.85"/>
<polygon fill="midnightblue" stroke="midnightblue" points="579.41,-83.76 586.22,-75.65 575.84,-77.75 579.41,-83.76"/>
</g>
<!-- Node11 -->
<g id="node11" class="node">
<title>Node11</title>
<g id="a_node11"><a xlink:href="eigen__compatibility_8hpp_source.html" target="_top" xlink:title=" ">
<polygon fill="none" stroke="black" points="0,-56.5 0,-75.5 169,-75.5 169,-56.5 0,-56.5"/>
<text text-anchor="middle" x="84.5" y="-63.5" font-family="Helvetica,sans-Serif" font-size="10.00">beluga/eigen_compatibility.hpp</text>
</a>
</g>
</g>
<!-- Node5&#45;&gt;Node11 -->
<g id="edge15" class="edge">
<title>Node5&#45;&gt;Node11</title>
<path fill="none" stroke="midnightblue" d="M327.64,-179.33C324.45,-160.93 316.14,-129.14 295.5,-112 276.19,-95.97 219.27,-84.39 169.41,-77"/>
<polygon fill="midnightblue" stroke="midnightblue" points="169.62,-73.49 159.22,-75.53 168.62,-80.42 169.62,-73.49"/>
</g>
<!-- Node7 -->
<g id="node7" class="node">
<title>Node7</title>
<g id="a_node7"><a xlink:title=" ">
<polygon fill="none" stroke="#bfbfbf" points="362,-56.5 362,-75.5 409,-75.5 409,-56.5 362,-56.5"/>
<text text-anchor="middle" x="385.5" y="-63.5" font-family="Helvetica,sans-Serif" font-size="10.00">cmath</text>
</a>
</g>
</g>
<!-- Node6&#45;&gt;Node7 -->
<g id="edge8" class="edge">
<title>Node6&#45;&gt;Node7</title>
<path fill="none" stroke="midnightblue" d="M394.66,-112.4C393.04,-104.38 390.99,-94.23 389.25,-85.57"/>
<polygon fill="midnightblue" stroke="midnightblue" points="392.65,-84.77 387.25,-75.66 385.79,-86.15 392.65,-84.77"/>
</g>
<!-- Node8 -->
<g id="node8" class="node">
<title>Node8</title>
<g id="a_node8"><a xlink:href="ciabatta_8hpp_source.html" target="_top" xlink:title=" ">
<polygon fill="none" stroke="black" points="427.5,-56.5 427.5,-75.5 547.5,-75.5 547.5,-56.5 427.5,-56.5"/>
<text text-anchor="middle" x="487.5" y="-63.5" font-family="Helvetica,sans-Serif" font-size="10.00">ciabatta/ciabatta.hpp</text>
</a>
</g>
</g>
<!-- Node6&#45;&gt;Node8 -->
<g id="edge9" class="edge">
<title>Node6&#45;&gt;Node8</title>
<path fill="none" stroke="midnightblue" d="M418.83,-112.4C432.99,-103.04 451.51,-90.79 465.75,-81.38"/>
<polygon fill="midnightblue" stroke="midnightblue" points="467.99,-84.09 474.4,-75.66 464.13,-78.25 467.99,-84.09"/>
</g>
<!-- Node9 -->
<g id="node9" class="node">
<title>Node9</title>
<g id="a_node9"><a xlink:title=" ">
<polygon fill="none" stroke="#bfbfbf" points="186.5,-56.5 186.5,-75.5 344.5,-75.5 344.5,-56.5 186.5,-56.5"/>
<text text-anchor="middle" x="265.5" y="-63.5" font-family="Helvetica,sans-Serif" font-size="10.00">range/v3/view/transform.hpp</text>
</a>
</g>
</g>
<!-- Node6&#45;&gt;Node9 -->
<g id="edge10" class="edge">
<title>Node6&#45;&gt;Node9</title>
<path fill="none" stroke="midnightblue" d="M366.22,-112.4C344.27,-102.51 315.16,-89.38 293.88,-79.79"/>
<polygon fill="midnightblue" stroke="midnightblue" points="295.26,-76.58 284.71,-75.66 292.39,-82.96 295.26,-76.58"/>
</g>
<!-- Node6&#45;&gt;Node10 -->
<g id="edge11" class="edge">
<title>Node6&#45;&gt;Node10</title>
<path fill="none" stroke="midnightblue" d="M445.35,-112.47C480.83,-102.08 528.59,-88.08 561.7,-78.37"/>
<polygon fill="midnightblue" stroke="midnightblue" points="562.87,-81.68 571.48,-75.51 560.9,-74.96 562.87,-81.68"/>
</g>
<!-- Node6&#45;&gt;Node11 -->
<g id="edge12" class="edge">
<title>Node6&#45;&gt;Node11</title>
<path fill="none" stroke="midnightblue" d="M342.16,-114.75C337.54,-113.8 332.94,-112.88 328.5,-112 265.04,-99.48 192.08,-86.17 142.6,-77.3"/>
<polygon fill="midnightblue" stroke="midnightblue" points="143.18,-73.85 132.72,-75.53 141.94,-80.74 143.18,-73.85"/>
</g>
<!-- Node12 -->
<g id="node12" class="node">
<title>Node12</title>
<g id="a_node12"><a xlink:title=" ">
<polygon fill="none" stroke="#bfbfbf" points="46,-0.5 46,-19.5 123,-19.5 123,-0.5 46,-0.5"/>
<text text-anchor="middle" x="84.5" y="-7.5" font-family="Helvetica,sans-Serif" font-size="10.00">Eigen/Dense</text>
</a>
</g>
</g>
<!-- Node11&#45;&gt;Node12 -->
<g id="edge13" class="edge">
<title>Node11&#45;&gt;Node12</title>
<path fill="none" stroke="midnightblue" d="M84.5,-56.08C84.5,-49.01 84.5,-38.86 84.5,-29.99"/>
<polygon fill="midnightblue" stroke="midnightblue" points="88,-29.75 84.5,-19.75 81,-29.75 88,-29.75"/>
</g>
</g>
</svg>
