<?xml version="1.0" encoding="UTF-8" standalone="no"?>
<!DOCTYPE svg PUBLIC "-//W3C//DTD SVG 1.1//EN"
 "http://www.w3.org/Graphics/SVG/1.1/DTD/svg11.dtd">
<!-- Generated by graphviz version 2.43.0 (0)
 -->
<!-- Title: /home/runner/work/beluga/beluga/beluga/include/beluga/sensor/data/linear_grid.hpp Pages: 1 -->
<svg width="338pt" height="473pt"
 viewBox="0.00 0.00 338.00 473.00" xmlns="http://www.w3.org/2000/svg" xmlns:xlink="http://www.w3.org/1999/xlink">
<g id="graph0" class="graph" transform="scale(1 1) rotate(0) translate(4 469)">
<title>/home/runner/work/beluga/beluga/beluga/include/beluga/sensor/data/linear_grid.hpp</title>
<!-- Node1 -->
<g id="node1" class="node">
<title>Node1</title>
<g id="a_node1"><a xlink:title="Concepts and abstract implementations of linear (ie. contiguous storage) grids.">
<polygon fill="#bfbfbf" stroke="black" points="98,-412.5 98,-464.5 243,-464.5 243,-412.5 98,-412.5"/>
<text text-anchor="start" x="106" y="-452.5" font-family="Helvetica,sans-Serif" font-size="10.00">/home/runner/work/beluga</text>
<text text-anchor="start" x="106" y="-441.5" font-family="Helvetica,sans-Serif" font-size="10.00">/beluga/beluga/include</text>
<text text-anchor="start" x="106" y="-430.5" font-family="Helvetica,sans-Serif" font-size="10.00">/beluga/sensor/data/linear</text>
<text text-anchor="middle" x="170.5" y="-419.5" font-family="Helvetica,sans-Serif" font-size="10.00">_grid.hpp</text>
</a>
</g>
</g>
<!-- Node2 -->
<g id="node2" class="node">
<title>Node2</title>
<g id="a_node2"><a xlink:href="occupancy__grid_8hpp.html" target="_top" xlink:title="Concepts and abstract implementations of occupancy grids.">
<polygon fill="none" stroke="black" points="0,-323.5 0,-375.5 167,-375.5 167,-323.5 0,-323.5"/>
<text text-anchor="start" x="8" y="-363.5" font-family="Helvetica,sans-Serif" font-size="10.00">/home/runner/work/beluga</text>
<text text-anchor="start" x="8" y="-352.5" font-family="Helvetica,sans-Serif" font-size="10.00">/beluga/beluga/include</text>
<text text-anchor="start" x="8" y="-341.5" font-family="Helvetica,sans-Serif" font-size="10.00">/beluga/sensor/data/occupancy</text>
<text text-anchor="middle" x="83.5" y="-330.5" font-family="Helvetica,sans-Serif" font-size="10.00">_grid.hpp</text>
</a>
</g>
</g>
<!-- Node1&#45;&gt;Node2 -->
<g id="edge1" class="edge">
<title>Node1&#45;&gt;Node2</title>
<path fill="none" stroke="midnightblue" d="M138.08,-405.08C128.34,-395.34 117.8,-384.8 108.61,-375.61"/>
<polygon fill="midnightblue" stroke="midnightblue" points="135.79,-407.74 145.34,-412.34 140.74,-402.79 135.79,-407.74"/>
</g>
<!-- Node9 -->
<g id="node9" class="node">
<title>Node9</title>
<g id="a_node9"><a xlink:href="value__grid_8hpp.html" target="_top" xlink:title="Implementation of generic value grid.">
<polygon fill="none" stroke="black" points="185,-323.5 185,-375.5 330,-375.5 330,-323.5 185,-323.5"/>
<text text-anchor="start" x="193" y="-363.5" font-family="Helvetica,sans-Serif" font-size="10.00">/home/runner/work/beluga</text>
<text text-anchor="start" x="193" y="-352.5" font-family="Helvetica,sans-Serif" font-size="10.00">/beluga/beluga/include</text>
<text text-anchor="start" x="193" y="-341.5" font-family="Helvetica,sans-Serif" font-size="10.00">/beluga/sensor/data/value</text>
<text text-anchor="middle" x="257.5" y="-330.5" font-family="Helvetica,sans-Serif" font-size="10.00">_grid.hpp</text>
</a>
</g>
</g>
<!-- Node1&#45;&gt;Node9 -->
<g id="edge9" class="edge">
<title>Node1&#45;&gt;Node9</title>
<path fill="none" stroke="midnightblue" d="M202.92,-405.08C212.66,-395.34 223.2,-384.8 232.39,-375.61"/>
<polygon fill="midnightblue" stroke="midnightblue" points="200.26,-402.79 195.66,-412.34 205.21,-407.74 200.26,-402.79"/>
</g>
<!-- Node3 -->
<g id="node3" class="node">
<title>Node3</title>
<g id="a_node3"><a xlink:href="multivariate__uniform__distribution_8hpp.html" target="_top" xlink:title="Implementation of a multivariate uniform distribution for SE(2) and SE(3) spaces.">
<polygon fill="none" stroke="black" points="5.5,-234.5 5.5,-286.5 161.5,-286.5 161.5,-234.5 5.5,-234.5"/>
<text text-anchor="start" x="13.5" y="-274.5" font-family="Helvetica,sans-Serif" font-size="10.00">/home/runner/work/beluga</text>
<text text-anchor="start" x="13.5" y="-263.5" font-family="Helvetica,sans-Serif" font-size="10.00">/beluga/beluga/include</text>
<text text-anchor="start" x="13.5" y="-252.5" font-family="Helvetica,sans-Serif" font-size="10.00">/beluga/random/multivariate</text>
<text text-anchor="middle" x="83.5" y="-241.5" font-family="Helvetica,sans-Serif" font-size="10.00">_uniform_distribution.hpp</text>
</a>
</g>
</g>
<!-- Node2&#45;&gt;Node3 -->
<g id="edge2" class="edge">
<title>Node2&#45;&gt;Node3</title>
<path fill="none" stroke="midnightblue" d="M83.5,-313.19C83.5,-304.28 83.5,-294.9 83.5,-286.61"/>
<polygon fill="midnightblue" stroke="midnightblue" points="80,-313.34 83.5,-323.34 87,-313.34 80,-313.34"/>
</g>
<!-- Node7 -->
<g id="node7" class="node">
<title>Node7</title>
<g id="a_node7"><a xlink:href="likelihood__field__model_8hpp.html" target="_top" xlink:title="Implementation of a likelihood field sensor model for range finders.">
<polygon fill="none" stroke="black" points="180,-234.5 180,-286.5 325,-286.5 325,-234.5 180,-234.5"/>
<text text-anchor="start" x="188" y="-274.5" font-family="Helvetica,sans-Serif" font-size="10.00">/home/runner/work/beluga</text>
<text text-anchor="start" x="188" y="-263.5" font-family="Helvetica,sans-Serif" font-size="10.00">/beluga/beluga/include</text>
<text text-anchor="start" x="188" y="-252.5" font-family="Helvetica,sans-Serif" font-size="10.00">/beluga/sensor/likelihood</text>
<text text-anchor="middle" x="252.5" y="-241.5" font-family="Helvetica,sans-Serif" font-size="10.00">_field_model.hpp</text>
</a>
</g>
</g>
<!-- Node2&#45;&gt;Node7 -->
<g id="edge6" class="edge">
<title>Node2&#45;&gt;Node7</title>
<path fill="none" stroke="midnightblue" d="M141.51,-318.64C161.77,-308.2 184.3,-296.61 203.73,-286.61"/>
<polygon fill="midnightblue" stroke="midnightblue" points="139.67,-315.65 132.38,-323.34 142.87,-321.87 139.67,-315.65"/>
</g>
<!-- Node4 -->
<g id="node4" class="node">
<title>Node4</title>
<g id="a_node4"><a xlink:href="random_8hpp.html" target="_top" xlink:title="Includes all Beluga random distributions.">
<polygon fill="none" stroke="black" points="14,-156.5 14,-197.5 159,-197.5 159,-156.5 14,-156.5"/>
<text text-anchor="start" x="22" y="-185.5" font-family="Helvetica,sans-Serif" font-size="10.00">/home/runner/work/beluga</text>
<text text-anchor="start" x="22" y="-174.5" font-family="Helvetica,sans-Serif" font-size="10.00">/beluga/beluga/include</text>
<text text-anchor="middle" x="86.5" y="-163.5" font-family="Helvetica,sans-Serif" font-size="10.00">/beluga/random.hpp</text>
</a>
</g>
</g>
<!-- Node3&#45;&gt;Node4 -->
<g id="edge3" class="edge">
<title>Node3&#45;&gt;Node4</title>
<path fill="none" stroke="midnightblue" d="M84.8,-224.15C85.14,-215.05 85.48,-205.6 85.78,-197.63"/>
<polygon fill="midnightblue" stroke="midnightblue" points="81.3,-224.04 84.43,-234.16 88.3,-224.3 81.3,-224.04"/>
</g>
<!-- Node5 -->
<g id="node5" class="node">
<title>Node5</title>
<g id="a_node5"><a xlink:href="beluga_8hpp.html" target="_top" xlink:title="Includes all the Beluga API.">
<polygon fill="none" stroke="black" points="95,-78.5 95,-119.5 240,-119.5 240,-78.5 95,-78.5"/>
<text text-anchor="start" x="103" y="-107.5" font-family="Helvetica,sans-Serif" font-size="10.00">/home/runner/work/beluga</text>
<text text-anchor="start" x="103" y="-96.5" font-family="Helvetica,sans-Serif" font-size="10.00">/beluga/beluga/include</text>
<text text-anchor="middle" x="167.5" y="-85.5" font-family="Helvetica,sans-Serif" font-size="10.00">/beluga/beluga.hpp</text>
</a>
</g>
</g>
<!-- Node4&#45;&gt;Node5 -->
<g id="edge4" class="edge">
<title>Node4&#45;&gt;Node5</title>
<path fill="none" stroke="midnightblue" d="M114.75,-149.49C125.26,-139.63 136.99,-128.63 146.71,-119.51"/>
<polygon fill="midnightblue" stroke="midnightblue" points="112.26,-147.03 107.36,-156.43 117.05,-152.14 112.26,-147.03"/>
</g>
<!-- Node6 -->
<g id="node6" class="node">
<title>Node6</title>
<g id="a_node6"><a xlink:href="amcl__core_8hpp_source.html" target="_top" xlink:title=" ">
<polygon fill="none" stroke="black" points="79,-0.5 79,-41.5 256,-41.5 256,-0.5 79,-0.5"/>
<text text-anchor="start" x="87" y="-29.5" font-family="Helvetica,sans-Serif" font-size="10.00">/home/runner/work/beluga</text>
<text text-anchor="start" x="87" y="-18.5" font-family="Helvetica,sans-Serif" font-size="10.00">/beluga/beluga/include</text>
<text text-anchor="middle" x="167.5" y="-7.5" font-family="Helvetica,sans-Serif" font-size="10.00">/beluga/algorithm/amcl_core.hpp</text>
</a>
</g>
</g>
<!-- Node5&#45;&gt;Node6 -->
<g id="edge5" class="edge">
<title>Node5&#45;&gt;Node6</title>
<path fill="none" stroke="midnightblue" d="M167.5,-68.3C167.5,-59.3 167.5,-49.65 167.5,-41.51"/>
<polygon fill="midnightblue" stroke="midnightblue" points="164,-68.43 167.5,-78.43 171,-68.43 164,-68.43"/>
</g>
<!-- Node8 -->
<g id="node8" class="node">
<title>Node8</title>
<g id="a_node8"><a xlink:href="sensor_8hpp.html" target="_top" xlink:title="Includes all Beluga sensor models and their interfaces.">
<polygon fill="none" stroke="black" points="178,-156.5 178,-197.5 323,-197.5 323,-156.5 178,-156.5"/>
<text text-anchor="start" x="186" y="-185.5" font-family="Helvetica,sans-Serif" font-size="10.00">/home/runner/work/beluga</text>
<text text-anchor="start" x="186" y="-174.5" font-family="Helvetica,sans-Serif" font-size="10.00">/beluga/beluga/include</text>
<text text-anchor="middle" x="250.5" y="-163.5" font-family="Helvetica,sans-Serif" font-size="10.00">/beluga/sensor.hpp</text>
</a>
</g>
</g>
<!-- Node7&#45;&gt;Node8 -->
<g id="edge7" class="edge">
<title>Node7&#45;&gt;Node8</title>
<path fill="none" stroke="midnightblue" d="M251.63,-224.15C251.41,-215.05 251.18,-205.6 250.98,-197.63"/>
<polygon fill="midnightblue" stroke="midnightblue" points="248.13,-224.25 251.88,-234.16 255.13,-224.08 248.13,-224.25"/>
</g>
<!-- Node8&#45;&gt;Node5 -->
<g id="edge8" class="edge">
<title>Node8&#45;&gt;Node5</title>
<path fill="none" stroke="midnightblue" d="M221.55,-149.49C210.78,-139.63 198.76,-128.63 188.8,-119.51"/>
<polygon fill="midnightblue" stroke="midnightblue" points="219.39,-152.26 229.13,-156.43 224.11,-147.09 219.39,-152.26"/>
</g>
<!-- Node9&#45;&gt;Node7 -->
<g id="edge10" class="edge">
<title>Node9&#45;&gt;Node7</title>
<path fill="none" stroke="midnightblue" d="M255.47,-313.19C254.96,-304.28 254.42,-294.9 253.94,-286.61"/>
<polygon fill="midnightblue" stroke="midnightblue" points="251.99,-313.55 256.05,-323.34 258.97,-313.15 251.99,-313.55"/>
</g>
</g>
</svg>
