<?xml version="1.0" encoding="UTF-8" standalone="no"?>
<!DOCTYPE svg PUBLIC "-//W3C//DTD SVG 1.1//EN"
 "http://www.w3.org/Graphics/SVG/1.1/DTD/svg11.dtd">
<!-- Generated by graphviz version 2.43.0 (0)
 -->
<!-- Title: /home/runner/work/beluga/beluga/beluga/include/beluga/motion.hpp Pages: 1 -->
<!--zoomable 240 -->
<svg id="main" version="1.1" xmlns="http://www.w3.org/2000/svg" xmlns:xlink="http://www.w3.org/1999/xlink" xml:space="preserve" onload="init(evt)">
<style type="text/css"><![CDATA[
.edge:hover path { stroke: red; }
.edge:hover polygon { stroke: red; fill: red; }
]]></style>
<script type="text/javascript"><![CDATA[
var edges = document.getElementsByTagName('g');
if (edges && edges.length) {
  for (var i=0;i<edges.length;i++) {
    if (edges[i].id.substr(0,4)=='edge') {
      edges[i].setAttribute('class','edge');
    }
  }
}
]]></script>
        <defs>
                <circle id="rim" cx="0" cy="0" r="7"/>
                <circle id="rim2" cx="0" cy="0" r="3.5"/>
                <g id="zoomPlus">
                        <use xlink:href="#rim" fill="#404040">
                                <set attributeName="fill" to="#808080" begin="zoomplus.mouseover" end="zoomplus.mouseout"/>
                        </use>
                        <path d="M-4,0h8M0,-4v8" fill="none" stroke="white" stroke-width="1.5" pointer-events="none"/>
                </g>
                <g id="zoomMin">
                        <use xlink:href="#rim" fill="#404040">
                                <set attributeName="fill" to="#808080" begin="zoomminus.mouseover" end="zoomminus.mouseout"/>
                        </use>
                        <path d="M-4,0h8" fill="none" stroke="white" stroke-width="1.5" pointer-events="none"/>
                </g>
                <g id="dirArrow">
                        <path fill="none" stroke="white" stroke-width="1.5" d="M0,-3.0v7 M-2.5,-0.5L0,-3.0L2.5,-0.5"/>
                </g>
               <g id="resetDef">
                       <use xlink:href="#rim2" fill="#404040">
                               <set attributeName="fill" to="#808080" begin="reset.mouseover" end="reset.mouseout"/>
                       </use>
               </g>
        </defs>

<script type="text/javascript">
var viewWidth = 830;
var viewHeight = 240;
var sectionId = 'dynsection-0';
</script>
<script xlink:href="svgpan.js"/>
<svg id="graph" class="graph">
<g id="viewport">
<title>/home/runner/work/beluga/beluga/beluga/include/beluga/motion.hpp</title>
<!-- Node1 -->
<g id="node1" class="node">
<title>Node1</title>
<g id="a_node1"><a xlink:title="Includes all Beluga motion models.">
<polygon fill="#bfbfbf" stroke="black" points="374.03,-190.5 374.03,-231.5 519.03,-231.5 519.03,-190.5 374.03,-190.5"/>
<text text-anchor="start" x="382.03" y="-219.5" font-family="Helvetica,sans-Serif" font-size="10.00">/home/runner/work/beluga</text>
<text text-anchor="start" x="382.03" y="-208.5" font-family="Helvetica,sans-Serif" font-size="10.00">/beluga/beluga/include</text>
<text text-anchor="middle" x="446.53" y="-197.5" font-family="Helvetica,sans-Serif" font-size="10.00">/beluga/motion.hpp</text>
</a>
</g>
</g>
<!-- Node2 -->
<g id="node2" class="node">
<title>Node2</title>
<g id="a_node2"><a xlink:href="differential__drive__model_8hpp.html" target="_top" xlink:title="Implementation of a differential drive odometry motion model.">
<polygon fill="none" stroke="black" points="215.03,-123.5 215.03,-153.5 358.03,-153.5 358.03,-123.5 215.03,-123.5"/>
<text text-anchor="start" x="223.03" y="-141.5" font-family="Helvetica,sans-Serif" font-size="10.00">beluga/motion/differential</text>
<text text-anchor="middle" x="286.53" y="-130.5" font-family="Helvetica,sans-Serif" font-size="10.00">_drive_model.hpp</text>
</a>
</g>
</g>
<!-- Node1&#45;&gt;Node2 -->
<g id="edge1" class="edge">
<title>Node1&#45;&gt;Node2</title>
<path fill="none" stroke="midnightblue" d="M401.96,-190.36C378.74,-180.13 350.53,-167.7 327.81,-157.69"/>
<polygon fill="midnightblue" stroke="midnightblue" points="329,-154.39 318.43,-153.56 326.17,-160.79 329,-154.39"/>
</g>
<!-- Node12 -->
<g id="node12" class="node">
<title>Node12</title>
<g id="a_node12"><a xlink:href="omnidirectional__drive__model_8hpp.html" target="_top" xlink:title="Implementation of an omnidirectional drive odometry motion model.">
<polygon fill="none" stroke="black" points="546.03,-123.5 546.03,-153.5 713.03,-153.5 713.03,-123.5 546.03,-123.5"/>
<text text-anchor="start" x="554.03" y="-141.5" font-family="Helvetica,sans-Serif" font-size="10.00">beluga/motion/omnidirectional</text>
<text text-anchor="middle" x="629.53" y="-130.5" font-family="Helvetica,sans-Serif" font-size="10.00">_drive_model.hpp</text>
</a>
</g>
</g>
<!-- Node1&#45;&gt;Node12 -->
<g id="edge15" class="edge">
<title>Node1&#45;&gt;Node12</title>
<path fill="none" stroke="midnightblue" d="M497.5,-190.36C524.42,-179.99 557.19,-167.37 583.35,-157.29"/>
<polygon fill="midnightblue" stroke="midnightblue" points="584.96,-160.42 593.03,-153.56 582.44,-153.89 584.96,-160.42"/>
</g>
<!-- Node14 -->
<g id="node14" class="node">
<title>Node14</title>
<g id="a_node14"><a xlink:href="stationary__model_8hpp.html" target="_top" xlink:title="Implementation of a stationary motion model.">
<polygon fill="none" stroke="black" points="376.53,-123.5 376.53,-153.5 516.53,-153.5 516.53,-123.5 376.53,-123.5"/>
<text text-anchor="start" x="384.53" y="-141.5" font-family="Helvetica,sans-Serif" font-size="10.00">beluga/motion/stationary</text>
<text text-anchor="middle" x="446.53" y="-130.5" font-family="Helvetica,sans-Serif" font-size="10.00">_model.hpp</text>
</a>
</g>
</g>
<!-- Node1&#45;&gt;Node14 -->
<g id="edge23" class="edge">
<title>Node1&#45;&gt;Node14</title>
<path fill="none" stroke="midnightblue" d="M446.53,-190.36C446.53,-182.23 446.53,-172.7 446.53,-164.11"/>
<polygon fill="midnightblue" stroke="midnightblue" points="450.03,-163.89 446.53,-153.89 443.03,-163.89 450.03,-163.89"/>
</g>
<!-- Node3 -->
<g id="node3" class="node">
<title>Node3</title>
<g id="a_node3"><a xlink:title=" ">
<polygon fill="none" stroke="#bfbfbf" points="368.53,-62 368.53,-81 422.53,-81 422.53,-62 368.53,-62"/>
<text text-anchor="middle" x="395.53" y="-69" font-family="Helvetica,sans-Serif" font-size="10.00">random</text>
</a>
</g>
</g>
<!-- Node2&#45;&gt;Node3 -->
<g id="edge2" class="edge">
<title>Node2&#45;&gt;Node3</title>
<path fill="none" stroke="midnightblue" d="M310.18,-123.4C328.71,-112.34 354.34,-97.06 372.67,-86.13"/>
<polygon fill="midnightblue" stroke="midnightblue" points="374.46,-89.13 381.26,-81.01 370.88,-83.12 374.46,-89.13"/>
</g>
<!-- Node4 -->
<g id="node4" class="node">
<title>Node4</title>
<g id="a_node4"><a xlink:title=" ">
<polygon fill="none" stroke="#bfbfbf" points="5.53,-0.5 5.53,-19.5 97.53,-19.5 97.53,-0.5 5.53,-0.5"/>
<text text-anchor="middle" x="51.53" y="-7.5" font-family="Helvetica,sans-Serif" font-size="10.00">sophus/se3.hpp</text>
</a>
</g>
</g>
<!-- Node2&#45;&gt;Node4 -->
<g id="edge3" class="edge">
<title>Node2&#45;&gt;Node4</title>
<path fill="none" stroke="midnightblue" d="M214.86,-134.76C140.58,-130.24 31.72,-118.32 5.53,-87 -10.68,-67.62 12.67,-41.94 31.61,-25.94"/>
<polygon fill="midnightblue" stroke="midnightblue" points="33.98,-28.53 39.58,-19.53 29.59,-23.07 33.98,-28.53"/>
</g>
<!-- Node5 -->
<g id="node5" class="node">
<title>Node5</title>
<g id="a_node5"><a xlink:title=" ">
<polygon fill="none" stroke="#bfbfbf" points="402.03,-0.5 402.03,-19.5 443.03,-19.5 443.03,-0.5 402.03,-0.5"/>
<text text-anchor="middle" x="422.53" y="-7.5" font-family="Helvetica,sans-Serif" font-size="10.00">tuple</text>
</a>
</g>
</g>
<!-- Node2&#45;&gt;Node5 -->
<g id="edge4" class="edge">
<title>Node2&#45;&gt;Node5</title>
<path fill="none" stroke="midnightblue" d="M295.44,-123.31C306.77,-106.02 327.64,-76.56 350.53,-56 364.38,-43.56 382.09,-32.44 396.48,-24.36"/>
<polygon fill="midnightblue" stroke="midnightblue" points="398.28,-27.37 405.39,-19.51 394.93,-21.22 398.28,-27.37"/>
</g>
<!-- Node6 -->
<g id="node6" class="node">
<title>Node6</title>
<g id="a_node6"><a xlink:href="tuple__traits_8hpp.html" target="_top" xlink:title="Implementation of traits for tuple&#45;like types.">
<polygon fill="none" stroke="black" points="589.03,-56.5 589.03,-86.5 694.03,-86.5 694.03,-56.5 589.03,-56.5"/>
<text text-anchor="start" x="597.03" y="-74.5" font-family="Helvetica,sans-Serif" font-size="10.00">beluga/type_traits</text>
<text text-anchor="middle" x="641.53" y="-63.5" font-family="Helvetica,sans-Serif" font-size="10.00">/tuple_traits.hpp</text>
</a>
</g>
</g>
<!-- Node2&#45;&gt;Node6 -->
<g id="edge5" class="edge">
<title>Node2&#45;&gt;Node6</title>
<path fill="none" stroke="midnightblue" d="M358.37,-124.35C423.04,-112.5 517.14,-95.27 578.84,-83.98"/>
<polygon fill="midnightblue" stroke="midnightblue" points="579.62,-87.39 588.83,-82.15 578.36,-80.51 579.62,-87.39"/>
</g>
<!-- Node7 -->
<g id="node7" class="node">
<title>Node7</title>
<g id="a_node7"><a xlink:title=" ">
<polygon fill="none" stroke="#bfbfbf" points="644.03,-0.5 644.03,-19.5 713.03,-19.5 713.03,-0.5 644.03,-0.5"/>
<text text-anchor="middle" x="678.53" y="-7.5" font-family="Helvetica,sans-Serif" font-size="10.00">type_traits</text>
</a>
</g>
</g>
<!-- Node2&#45;&gt;Node7 -->
<g id="edge14" class="edge">
<title>Node2&#45;&gt;Node7</title>
<path fill="none" stroke="midnightblue" d="M297.2,-123.38C313.45,-102.27 344.15,-64.1 359.53,-56 466.08,0.16 511.17,-38.52 633.71,-20.12"/>
<polygon fill="midnightblue" stroke="midnightblue" points="634.52,-23.54 643.84,-18.5 633.41,-16.63 634.52,-23.54"/>
</g>
<!-- Node9 -->
<g id="node9" class="node">
<title>Node9</title>
<g id="a_node9"><a xlink:href="3d__embedding_8hpp_source.html" target="_top" xlink:title=" ">
<polygon fill="none" stroke="black" points="14.53,-62 14.53,-81 160.53,-81 160.53,-62 14.53,-62"/>
<text text-anchor="middle" x="87.53" y="-69" font-family="Helvetica,sans-Serif" font-size="10.00">beluga/3d_embedding.hpp</text>
</a>
</g>
</g>
<!-- Node2&#45;&gt;Node9 -->
<g id="edge9" class="edge">
<title>Node2&#45;&gt;Node9</title>
<path fill="none" stroke="midnightblue" d="M243.35,-123.4C207.5,-111.69 157.12,-95.23 123.45,-84.23"/>
<polygon fill="midnightblue" stroke="midnightblue" points="124.16,-80.78 113.57,-81.01 121.99,-87.44 124.16,-80.78"/>
</g>
<!-- Node10 -->
<g id="node10" class="node">
<title>Node10</title>
<g id="a_node10"><a xlink:title=" ">
<polygon fill="none" stroke="#bfbfbf" points="161.53,-0.5 161.53,-19.5 253.53,-19.5 253.53,-0.5 161.53,-0.5"/>
<text text-anchor="middle" x="207.53" y="-7.5" font-family="Helvetica,sans-Serif" font-size="10.00">sophus/se2.hpp</text>
</a>
</g>
</g>
<!-- Node2&#45;&gt;Node10 -->
<g id="edge12" class="edge">
<title>Node2&#45;&gt;Node10</title>
<path fill="none" stroke="midnightblue" d="M253.52,-123.4C238.34,-115.12 221.7,-103.07 212.53,-87 202.61,-69.63 202.67,-46.25 204.37,-30.03"/>
<polygon fill="midnightblue" stroke="midnightblue" points="207.9,-30.05 205.79,-19.67 200.97,-29.1 207.9,-30.05"/>
</g>
<!-- Node11 -->
<g id="node11" class="node">
<title>Node11</title>
<g id="a_node11"><a xlink:title=" ">
<polygon fill="none" stroke="#bfbfbf" points="440.53,-62 440.53,-81 532.53,-81 532.53,-62 440.53,-62"/>
<text text-anchor="middle" x="486.53" y="-69" font-family="Helvetica,sans-Serif" font-size="10.00">sophus/so2.hpp</text>
</a>
</g>
</g>
<!-- Node2&#45;&gt;Node11 -->
<g id="edge13" class="edge">
<title>Node2&#45;&gt;Node11</title>
<path fill="none" stroke="midnightblue" d="M329.92,-123.4C365.95,-111.69 416.58,-95.23 450.42,-84.23"/>
<polygon fill="midnightblue" stroke="midnightblue" points="451.92,-87.43 460.35,-81.01 449.76,-80.77 451.92,-87.43"/>
</g>
<!-- Node6&#45;&gt;Node5 -->
<g id="edge6" class="edge">
<title>Node6&#45;&gt;Node5</title>
<path fill="none" stroke="midnightblue" d="M589.9,-56.47C547.32,-44.9 488.34,-28.88 452.96,-19.27"/>
<polygon fill="midnightblue" stroke="midnightblue" points="453.78,-15.86 443.21,-16.62 451.94,-22.62 453.78,-15.86"/>
</g>
<!-- Node6&#45;&gt;Node7 -->
<g id="edge7" class="edge">
<title>Node6&#45;&gt;Node7</title>
<path fill="none" stroke="midnightblue" d="M650.29,-56.4C655.51,-48.02 662.15,-37.33 667.69,-28.42"/>
<polygon fill="midnightblue" stroke="midnightblue" points="670.83,-30 673.14,-19.66 664.89,-26.3 670.83,-30"/>
</g>
<!-- Node8 -->
<g id="node8" class="node">
<title>Node8</title>
<g id="a_node8"><a xlink:title=" ">
<polygon fill="none" stroke="#bfbfbf" points="581.03,-0.5 581.03,-19.5 626.03,-19.5 626.03,-0.5 581.03,-0.5"/>
<text text-anchor="middle" x="603.53" y="-7.5" font-family="Helvetica,sans-Serif" font-size="10.00">utility</text>
</a>
</g>
</g>
<!-- Node6&#45;&gt;Node8 -->
<g id="edge8" class="edge">
<title>Node6&#45;&gt;Node8</title>
<path fill="none" stroke="midnightblue" d="M632.52,-56.4C627.11,-47.93 620.19,-37.1 614.47,-28.14"/>
<polygon fill="midnightblue" stroke="midnightblue" points="617.39,-26.2 609.06,-19.66 611.49,-29.97 617.39,-26.2"/>
</g>
<!-- Node9&#45;&gt;Node4 -->
<g id="edge11" class="edge">
<title>Node9&#45;&gt;Node4</title>
<path fill="none" stroke="midnightblue" d="M82.37,-61.98C77.08,-53.23 68.69,-39.37 62,-28.31"/>
<polygon fill="midnightblue" stroke="midnightblue" points="64.85,-26.25 56.67,-19.51 58.86,-29.88 64.85,-26.25"/>
</g>
<!-- Node9&#45;&gt;Node10 -->
<g id="edge10" class="edge">
<title>Node9&#45;&gt;Node10</title>
<path fill="none" stroke="midnightblue" d="M104.72,-61.98C124.77,-52.03 158.13,-35.49 181.39,-23.96"/>
<polygon fill="midnightblue" stroke="midnightblue" points="182.96,-27.09 190.37,-19.51 179.85,-20.82 182.96,-27.09"/>
</g>
<!-- Node12&#45;&gt;Node3 -->
<g id="edge17" class="edge">
<title>Node12&#45;&gt;Node3</title>
<path fill="none" stroke="midnightblue" d="M565.6,-123.48C526.51,-114.34 475.69,-101.46 431.53,-87 429.39,-86.3 427.21,-85.54 425.01,-84.74"/>
<polygon fill="midnightblue" stroke="midnightblue" points="426.12,-81.42 415.53,-81.11 423.62,-87.96 426.12,-81.42"/>
</g>
<!-- Node12&#45;&gt;Node5 -->
<g id="edge18" class="edge">
<title>Node12&#45;&gt;Node5</title>
<path fill="none" stroke="midnightblue" d="M657.91,-123.46C686.66,-107.41 724.17,-80.21 703.53,-56 687.4,-37.09 522.99,-20.1 453.39,-13.7"/>
<polygon fill="midnightblue" stroke="midnightblue" points="453.35,-10.18 443.07,-12.77 452.71,-17.15 453.35,-10.18"/>
</g>
<!-- Node12&#45;&gt;Node6 -->
<g id="edge20" class="edge">
<title>Node12&#45;&gt;Node6</title>
<path fill="none" stroke="midnightblue" d="M632.13,-123.4C633.58,-115.56 635.42,-105.6 637.08,-96.57"/>
<polygon fill="midnightblue" stroke="midnightblue" points="640.55,-97.05 638.93,-86.58 633.67,-95.77 640.55,-97.05"/>
</g>
<!-- Node12&#45;&gt;Node7 -->
<g id="edge19" class="edge">
<title>Node12&#45;&gt;Node7</title>
<path fill="none" stroke="midnightblue" d="M713.28,-124.91C756.38,-116.54 802.57,-103.94 815.53,-87 843.74,-50.11 773.38,-28.62 723.38,-18.4"/>
<polygon fill="midnightblue" stroke="midnightblue" points="723.86,-14.93 713.38,-16.45 722.52,-21.8 723.86,-14.93"/>
</g>
<!-- Node12&#45;&gt;Node10 -->
<g id="edge21" class="edge">
<title>Node12&#45;&gt;Node10</title>
<path fill="none" stroke="midnightblue" d="M616.34,-123.38C596.32,-102.28 558.76,-64.12 541.53,-56 493.5,-33.36 345.7,-20.2 263.74,-14.46"/>
<polygon fill="midnightblue" stroke="midnightblue" points="263.81,-10.96 253.59,-13.77 263.33,-17.94 263.81,-10.96"/>
</g>
<!-- Node12&#45;&gt;Node11 -->
<g id="edge22" class="edge">
<title>Node12&#45;&gt;Node11</title>
<path fill="none" stroke="midnightblue" d="M598.5,-123.4C573.52,-112.04 538.71,-96.22 514.56,-85.24"/>
<polygon fill="midnightblue" stroke="midnightblue" points="515.79,-81.96 505.24,-81.01 512.9,-88.33 515.79,-81.96"/>
</g>
<!-- Node13 -->
<g id="node13" class="node">
<title>Node13</title>
<g id="a_node13"><a xlink:title=" ">
<polygon fill="none" stroke="#bfbfbf" points="750.53,-62 750.53,-81 806.53,-81 806.53,-62 750.53,-62"/>
<text text-anchor="middle" x="778.53" y="-69" font-family="Helvetica,sans-Serif" font-size="10.00">optional</text>
</a>
</g>
</g>
<!-- Node12&#45;&gt;Node13 -->
<g id="edge16" class="edge">
<title>Node12&#45;&gt;Node13</title>
<path fill="none" stroke="midnightblue" d="M661.86,-123.4C688,-111.99 724.48,-96.08 749.65,-85.1"/>
<polygon fill="midnightblue" stroke="midnightblue" points="751.26,-88.21 759.03,-81.01 748.46,-81.8 751.26,-88.21"/>
</g>
<!-- Node14&#45;&gt;Node3 -->
<g id="edge24" class="edge">
<title>Node14&#45;&gt;Node3</title>
<path fill="none" stroke="midnightblue" d="M435.46,-123.4C427.59,-113.36 416.98,-99.84 408.67,-89.25"/>
<polygon fill="midnightblue" stroke="midnightblue" points="411.27,-86.9 402.35,-81.19 405.77,-91.22 411.27,-86.9"/>
</g>
<!-- Node14&#45;&gt;Node5 -->
<g id="edge25" class="edge">
<title>Node14&#45;&gt;Node5</title>
<path fill="none" stroke="midnightblue" d="M403.72,-123.42C386.84,-115.52 369.2,-103.8 359.53,-87 352.65,-75.06 353.22,-68.25 359.53,-56 366.65,-42.15 380.24,-31.62 392.97,-24.24"/>
<polygon fill="midnightblue" stroke="midnightblue" points="394.82,-27.22 401.99,-19.42 391.52,-21.05 394.82,-27.22"/>
</g>
<!-- Node14&#45;&gt;Node6 -->
<g id="edge26" class="edge">
<title>Node14&#45;&gt;Node6</title>
<path fill="none" stroke="midnightblue" d="M488.84,-123.4C518.48,-113.52 558.27,-100.25 589.8,-89.74"/>
<polygon fill="midnightblue" stroke="midnightblue" points="590.92,-93.06 599.3,-86.58 588.7,-86.42 590.92,-93.06"/>
</g>
<!-- Node14&#45;&gt;Node10 -->
<g id="edge27" class="edge">
<title>Node14&#45;&gt;Node10</title>
<path fill="none" stroke="midnightblue" d="M419.61,-123.38C400.36,-113.27 373.83,-99.32 350.53,-87 309.22,-65.16 261.27,-39.64 232.72,-24.43"/>
<polygon fill="midnightblue" stroke="midnightblue" points="234.28,-21.3 223.81,-19.68 230.99,-27.48 234.28,-21.3"/>
</g>
<!-- Node14&#45;&gt;Node11 -->
<g id="edge28" class="edge">
<title>Node14&#45;&gt;Node11</title>
<path fill="none" stroke="midnightblue" d="M455.21,-123.4C461.26,-113.56 469.37,-100.38 475.82,-89.89"/>
<polygon fill="midnightblue" stroke="midnightblue" points="478.92,-91.55 481.18,-81.19 472.95,-87.88 478.92,-91.55"/>
</g>
</g>
</svg>
        <g id="navigator" transform="translate(0 0)" fill="#404254">
                <rect fill="#f2f5e9" fill-opacity="0.5" stroke="#606060" stroke-width=".5" x="0" y="0" width="60" height="60"/>
                <use id="zoomplus" xlink:href="#zoomPlus" x="17" y="9" onmousedown="handleZoom(evt,'in')"/>
                <use id="zoomminus" xlink:href="#zoomMin" x="42" y="9" onmousedown="handleZoom(evt,'out')"/>
                <use id="reset" xlink:href="#resetDef" x="30" y="36" onmousedown="handleReset()"/>
                <g id="arrowUp" xlink:href="#dirArrow" transform="translate(30 24)" onmousedown="handlePan(0,-1)">
                  <use xlink:href="#rim" fill="#404040">
                        <set attributeName="fill" to="#808080" begin="arrowUp.mouseover" end="arrowUp.mouseout"/>
                  </use>
                  <path fill="none" stroke="white" stroke-width="1.5" d="M0,-3.0v7 M-2.5,-0.5L0,-3.0L2.5,-0.5"/>
                </g>
                <g id="arrowRight" xlink:href="#dirArrow" transform="rotate(90) translate(36 -43)" onmousedown="handlePan(1,0)">
                  <use xlink:href="#rim" fill="#404040">
                        <set attributeName="fill" to="#808080" begin="arrowRight.mouseover" end="arrowRight.mouseout"/>
                  </use>
                  <path fill="none" stroke="white" stroke-width="1.5" d="M0,-3.0v7 M-2.5,-0.5L0,-3.0L2.5,-0.5"/>
                </g>
                <g id="arrowDown" xlink:href="#dirArrow" transform="rotate(180) translate(-30 -48)" onmousedown="handlePan(0,1)">
                  <use xlink:href="#rim" fill="#404040">
                        <set attributeName="fill" to="#808080" begin="arrowDown.mouseover" end="arrowDown.mouseout"/>
                  </use>
                  <path fill="none" stroke="white" stroke-width="1.5" d="M0,-3.0v7 M-2.5,-0.5L0,-3.0L2.5,-0.5"/>
                </g>
                <g id="arrowLeft" xlink:href="#dirArrow" transform="rotate(270) translate(-36 17)" onmousedown="handlePan(-1,0)">
                  <use xlink:href="#rim" fill="#404040">
                        <set attributeName="fill" to="#808080" begin="arrowLeft.mouseover" end="arrowLeft.mouseout"/>
                  </use>
                  <path fill="none" stroke="white" stroke-width="1.5" d="M0,-3.0v7 M-2.5,-0.5L0,-3.0L2.5,-0.5"/>
                </g>
        </g>
        <svg viewBox="0 0 15 15" width="100%" height="30px" preserveAspectRatio="xMaxYMin meet">
         <g id="arrow_out" transform="scale(0.3 0.3)">
          <a xlink:href="motion_8hpp__incl_org.svg" target="_base">
           <rect id="button" ry="5" rx="5" y="6" x="6" height="38" width="38"
                fill="#f2f5e9" fill-opacity="0.5" stroke="#606060" stroke-width="1.0"/>
           <path id="arrow"
             d="M 11.500037,31.436501 C 11.940474,20.09759 22.043105,11.32322 32.158766,21.979434 L 37.068811,17.246167 C 37.068811,17.246167 37.088388,32 37.088388,32 L 22.160133,31.978069 C 22.160133,31.978069 26.997745,27.140456 26.997745,27.140456 C 18.528582,18.264221 13.291696,25.230495 11.500037,31.436501 z"
             style="fill:#404040;"/>
          </a>
         </g>
        </svg>
</svg>
