<?xml version="1.0" encoding="UTF-8" standalone="no"?>
<!DOCTYPE svg PUBLIC "-//W3C//DTD SVG 1.1//EN"
 "http://www.w3.org/Graphics/SVG/1.1/DTD/svg11.dtd">
<!-- Generated by graphviz version 2.43.0 (0)
 -->
<!-- Title: /home/runner/work/beluga/beluga/beluga/include/beluga/random/multivariate_uniform_distribution.hpp Pages: 1 -->
<!--zoomable 452 -->
<svg id="main" version="1.1" xmlns="http://www.w3.org/2000/svg" xmlns:xlink="http://www.w3.org/1999/xlink" xml:space="preserve" onload="init(evt)">
<style type="text/css"><![CDATA[
.edge:hover path { stroke: red; }
.edge:hover polygon { stroke: red; fill: red; }
]]></style>
<script type="text/javascript"><![CDATA[
var edges = document.getElementsByTagName('g');
if (edges && edges.length) {
  for (var i=0;i<edges.length;i++) {
    if (edges[i].id.substr(0,4)=='edge') {
      edges[i].setAttribute('class','edge');
    }
  }
}
]]></script>
        <defs>
                <circle id="rim" cx="0" cy="0" r="7"/>
                <circle id="rim2" cx="0" cy="0" r="3.5"/>
                <g id="zoomPlus">
                        <use xlink:href="#rim" fill="#404040">
                                <set attributeName="fill" to="#808080" begin="zoomplus.mouseover" end="zoomplus.mouseout"/>
                        </use>
                        <path d="M-4,0h8M0,-4v8" fill="none" stroke="white" stroke-width="1.5" pointer-events="none"/>
                </g>
                <g id="zoomMin">
                        <use xlink:href="#rim" fill="#404040">
                                <set attributeName="fill" to="#808080" begin="zoomminus.mouseover" end="zoomminus.mouseout"/>
                        </use>
                        <path d="M-4,0h8" fill="none" stroke="white" stroke-width="1.5" pointer-events="none"/>
                </g>
                <g id="dirArrow">
                        <path fill="none" stroke="white" stroke-width="1.5" d="M0,-3.0v7 M-2.5,-0.5L0,-3.0L2.5,-0.5"/>
                </g>
               <g id="resetDef">
                       <use xlink:href="#rim2" fill="#404040">
                               <set attributeName="fill" to="#808080" begin="reset.mouseover" end="reset.mouseout"/>
                       </use>
               </g>
        </defs>

<script type="text/javascript">
var viewWidth = 1215;
var viewHeight = 452;
var sectionId = 'dynsection-0';
</script>
<script xlink:href="svgpan.js"/>
<svg id="graph" class="graph">
<g id="viewport">
<title>/home/runner/work/beluga/beluga/beluga/include/beluga/random/multivariate_uniform_distribution.hpp</title>
<!-- Node1 -->
<g id="node1" class="node">
<title>Node1</title>
<g id="a_node1"><a xlink:title="Implementation of a multivariate uniform distribution for SE(2) and SE(3) spaces.">
<polygon fill="#bfbfbf" stroke="black" points="241.5,-391.5 241.5,-443.5 397.5,-443.5 397.5,-391.5 241.5,-391.5"/>
<text text-anchor="start" x="249.5" y="-431.5" font-family="Helvetica,sans-Serif" font-size="10.00">/home/runner/work/beluga</text>
<text text-anchor="start" x="249.5" y="-420.5" font-family="Helvetica,sans-Serif" font-size="10.00">/beluga/beluga/include</text>
<text text-anchor="start" x="249.5" y="-409.5" font-family="Helvetica,sans-Serif" font-size="10.00">/beluga/random/multivariate</text>
<text text-anchor="middle" x="319.5" y="-398.5" font-family="Helvetica,sans-Serif" font-size="10.00">_uniform_distribution.hpp</text>
</a>
</g>
</g>
<!-- Node2 -->
<g id="node2" class="node">
<title>Node2</title>
<g id="a_node2"><a xlink:title=" ">
<polygon fill="none" stroke="#bfbfbf" points="91.5,-330 91.5,-349 145.5,-349 145.5,-330 91.5,-330"/>
<text text-anchor="middle" x="118.5" y="-337" font-family="Helvetica,sans-Serif" font-size="10.00">random</text>
</a>
</g>
</g>
<!-- Node1&#45;&gt;Node2 -->
<g id="edge1" class="edge">
<title>Node1&#45;&gt;Node2</title>
<path fill="none" stroke="midnightblue" d="M251.11,-391.47C221.36,-380.46 186.14,-367.27 154.5,-355 152.66,-354.29 150.77,-353.55 148.87,-352.8"/>
<polygon fill="midnightblue" stroke="midnightblue" points="149.99,-349.48 139.4,-349.03 147.4,-355.98 149.99,-349.48"/>
</g>
<!-- Node3 -->
<g id="node3" class="node">
<title>Node3</title>
<g id="a_node3"><a xlink:title=" ">
<polygon fill="none" stroke="#bfbfbf" points="163.5,-330 163.5,-349 255.5,-349 255.5,-330 163.5,-330"/>
<text text-anchor="middle" x="209.5" y="-337" font-family="Helvetica,sans-Serif" font-size="10.00">sophus/se2.hpp</text>
</a>
</g>
</g>
<!-- Node1&#45;&gt;Node3 -->
<g id="edge2" class="edge">
<title>Node1&#45;&gt;Node3</title>
<path fill="none" stroke="midnightblue" d="M283.18,-391.4C265.66,-379.3 245.28,-365.22 230.4,-354.94"/>
<polygon fill="midnightblue" stroke="midnightblue" points="232.13,-351.88 221.92,-349.08 228.15,-357.64 232.13,-351.88"/>
</g>
<!-- Node4 -->
<g id="node4" class="node">
<title>Node4</title>
<g id="a_node4"><a xlink:title=" ">
<polygon fill="none" stroke="#bfbfbf" points="273.5,-330 273.5,-349 365.5,-349 365.5,-330 273.5,-330"/>
<text text-anchor="middle" x="319.5" y="-337" font-family="Helvetica,sans-Serif" font-size="10.00">sophus/se3.hpp</text>
</a>
</g>
</g>
<!-- Node1&#45;&gt;Node4 -->
<g id="edge3" class="edge">
<title>Node1&#45;&gt;Node4</title>
<path fill="none" stroke="midnightblue" d="M319.5,-391.19C319.5,-380.76 319.5,-368.9 319.5,-359.27"/>
<polygon fill="midnightblue" stroke="midnightblue" points="323,-359.21 319.5,-349.21 316,-359.21 323,-359.21"/>
</g>
<!-- Node5 -->
<g id="node5" class="node">
<title>Node5</title>
<g id="a_node5"><a xlink:title=" ">
<polygon fill="none" stroke="#bfbfbf" points="384,-330 384,-349 479,-349 479,-330 384,-330"/>
<text text-anchor="middle" x="431.5" y="-337" font-family="Helvetica,sans-Serif" font-size="10.00">Eigen/Geometry</text>
</a>
</g>
</g>
<!-- Node1&#45;&gt;Node5 -->
<g id="edge4" class="edge">
<title>Node1&#45;&gt;Node5</title>
<path fill="none" stroke="midnightblue" d="M356.48,-391.4C374.32,-379.3 395.07,-365.22 410.22,-354.94"/>
<polygon fill="midnightblue" stroke="midnightblue" points="412.55,-357.59 418.86,-349.08 408.62,-351.8 412.55,-357.59"/>
</g>
<!-- Node6 -->
<g id="node6" class="node">
<title>Node6</title>
<g id="a_node6"><a xlink:href="occupancy__grid_8hpp.html" target="_top" xlink:title="Concepts and abstract implementations of occupancy grids.">
<polygon fill="none" stroke="black" points="497.5,-324.5 497.5,-354.5 613.5,-354.5 613.5,-324.5 497.5,-324.5"/>
<text text-anchor="start" x="505.5" y="-342.5" font-family="Helvetica,sans-Serif" font-size="10.00">beluga/sensor/data</text>
<text text-anchor="middle" x="555.5" y="-331.5" font-family="Helvetica,sans-Serif" font-size="10.00">/occupancy_grid.hpp</text>
</a>
</g>
</g>
<!-- Node1&#45;&gt;Node6 -->
<g id="edge5" class="edge">
<title>Node1&#45;&gt;Node6</title>
<path fill="none" stroke="midnightblue" d="M397.43,-391.4C431.71,-380.36 471.12,-367.67 502.01,-357.73"/>
<polygon fill="midnightblue" stroke="midnightblue" points="503.28,-360.99 511.72,-354.6 501.13,-354.33 503.28,-360.99"/>
</g>
<!-- Node7 -->
<g id="node7" class="node">
<title>Node7</title>
<g id="a_node7"><a xlink:title=" ">
<polygon fill="none" stroke="#bfbfbf" points="168.5,-196 168.5,-215 218.5,-215 218.5,-196 168.5,-196"/>
<text text-anchor="middle" x="193.5" y="-203" font-family="Helvetica,sans-Serif" font-size="10.00">cstdint</text>
</a>
</g>
</g>
<!-- Node6&#45;&gt;Node7 -->
<g id="edge6" class="edge">
<title>Node6&#45;&gt;Node7</title>
<path fill="none" stroke="midnightblue" d="M497.4,-325.89C494.39,-325.25 491.41,-324.62 488.5,-324 411.24,-307.65 387.29,-318.64 314.5,-288 274.34,-271.1 233.52,-240.11 211.06,-221.6"/>
<polygon fill="midnightblue" stroke="midnightblue" points="213.3,-218.91 203.38,-215.17 208.8,-224.28 213.3,-218.91"/>
</g>
<!-- Node8 -->
<g id="node8" class="node">
<title>Node8</title>
<g id="a_node8"><a xlink:title=" ">
<polygon fill="none" stroke="#bfbfbf" points="560,-263 560,-282 601,-282 601,-263 560,-263"/>
<text text-anchor="middle" x="580.5" y="-270" font-family="Helvetica,sans-Serif" font-size="10.00">tuple</text>
</a>
</g>
</g>
<!-- Node6&#45;&gt;Node8 -->
<g id="edge7" class="edge">
<title>Node6&#45;&gt;Node8</title>
<path fill="none" stroke="midnightblue" d="M560.92,-324.4C564.63,-314.76 569.57,-301.91 573.56,-291.54"/>
<polygon fill="midnightblue" stroke="midnightblue" points="576.83,-292.78 577.16,-282.19 570.3,-290.27 576.83,-292.78"/>
</g>
<!-- Node9 -->
<g id="node9" class="node">
<title>Node9</title>
<g id="a_node9"><a xlink:title=" ">
<polygon fill="none" stroke="#bfbfbf" points="102,-129 102,-148 149,-148 149,-129 102,-129"/>
<text text-anchor="middle" x="125.5" y="-136" font-family="Helvetica,sans-Serif" font-size="10.00">vector</text>
</a>
</g>
</g>
<!-- Node6&#45;&gt;Node9 -->
<g id="edge8" class="edge">
<title>Node6&#45;&gt;Node9</title>
<path fill="none" stroke="midnightblue" d="M497.44,-325.71C494.42,-325.11 491.43,-324.54 488.5,-324 385.03,-304.86 352.08,-327.37 254.5,-288 206.59,-268.67 191.82,-261.31 159.5,-221 144.4,-202.17 135.01,-175.68 130.03,-158.07"/>
<polygon fill="midnightblue" stroke="midnightblue" points="133.35,-156.96 127.42,-148.18 126.58,-158.74 133.35,-156.96"/>
</g>
<!-- Node10 -->
<g id="node10" class="node">
<title>Node10</title>
<g id="a_node10"><a xlink:href="linear__grid_8hpp.html" target="_top" xlink:title="Concepts and abstract implementations of linear (ie. contiguous storage) grids.">
<polygon fill="none" stroke="black" points="323.5,-257.5 323.5,-287.5 433.5,-287.5 433.5,-257.5 323.5,-257.5"/>
<text text-anchor="start" x="331.5" y="-275.5" font-family="Helvetica,sans-Serif" font-size="10.00">beluga/sensor/data</text>
<text text-anchor="middle" x="378.5" y="-264.5" font-family="Helvetica,sans-Serif" font-size="10.00">/linear_grid.hpp</text>
</a>
</g>
</g>
<!-- Node6&#45;&gt;Node10 -->
<g id="edge9" class="edge">
<title>Node6&#45;&gt;Node10</title>
<path fill="none" stroke="midnightblue" d="M517.09,-324.4C490.54,-314.64 455,-301.59 426.57,-291.15"/>
<polygon fill="midnightblue" stroke="midnightblue" points="427.43,-287.74 416.83,-287.58 425.01,-294.31 427.43,-287.74"/>
</g>
<!-- Node15 -->
<g id="node15" class="node">
<title>Node15</title>
<g id="a_node15"><a xlink:title=" ">
<polygon fill="none" stroke="#bfbfbf" points="480.5,-62 480.5,-81 638.5,-81 638.5,-62 480.5,-62"/>
<text text-anchor="middle" x="559.5" y="-69" font-family="Helvetica,sans-Serif" font-size="10.00">range/v3/view/transform.hpp</text>
</a>
</g>
</g>
<!-- Node6&#45;&gt;Node15 -->
<g id="edge30" class="edge">
<title>Node6&#45;&gt;Node15</title>
<path fill="none" stroke="midnightblue" d="M554.08,-324.37C553.14,-314.25 551.99,-300.3 551.5,-288 548.63,-215.42 554.7,-129.09 557.81,-91.52"/>
<polygon fill="midnightblue" stroke="midnightblue" points="561.34,-91.39 558.71,-81.12 554.36,-90.79 561.34,-91.39"/>
</g>
<!-- Node16 -->
<g id="node16" class="node">
<title>Node16</title>
<g id="a_node16"><a xlink:title=" ">
<polygon fill="none" stroke="#bfbfbf" points="393,-62 393,-81 462,-81 462,-62 393,-62"/>
<text text-anchor="middle" x="427.5" y="-69" font-family="Helvetica,sans-Serif" font-size="10.00">Eigen/Core</text>
</a>
</g>
</g>
<!-- Node6&#45;&gt;Node16 -->
<g id="edge31" class="edge">
<title>Node6&#45;&gt;Node16</title>
<path fill="none" stroke="midnightblue" d="M548.62,-324.2C526.9,-279.06 459.84,-139.71 436.01,-90.19"/>
<polygon fill="midnightblue" stroke="midnightblue" points="439.1,-88.54 431.61,-81.05 432.8,-91.58 439.1,-88.54"/>
</g>
<!-- Node20 -->
<g id="node20" class="node">
<title>Node20</title>
<g id="a_node20"><a xlink:title=" ">
<polygon fill="none" stroke="#bfbfbf" points="619.5,-257.5 619.5,-287.5 729.5,-287.5 729.5,-257.5 619.5,-257.5"/>
<text text-anchor="start" x="627.5" y="-275.5" font-family="Helvetica,sans-Serif" font-size="10.00">range/v3/algorithm</text>
<text text-anchor="middle" x="674.5" y="-264.5" font-family="Helvetica,sans-Serif" font-size="10.00">/any_of.hpp</text>
</a>
</g>
</g>
<!-- Node6&#45;&gt;Node20 -->
<g id="edge26" class="edge">
<title>Node6&#45;&gt;Node20</title>
<path fill="none" stroke="midnightblue" d="M581.32,-324.4C598.47,-315.03 621.2,-302.62 639.91,-292.39"/>
<polygon fill="midnightblue" stroke="midnightblue" points="641.63,-295.44 648.73,-287.58 638.28,-289.3 641.63,-295.44"/>
</g>
<!-- Node21 -->
<g id="node21" class="node">
<title>Node21</title>
<g id="a_node21"><a xlink:title=" ">
<polygon fill="none" stroke="#bfbfbf" points="748,-263 748,-282 911,-282 911,-263 748,-263"/>
<text text-anchor="middle" x="829.5" y="-270" font-family="Helvetica,sans-Serif" font-size="10.00">range/v3/view/enumerate.hpp</text>
</a>
</g>
</g>
<!-- Node6&#45;&gt;Node21 -->
<g id="edge27" class="edge">
<title>Node6&#45;&gt;Node21</title>
<path fill="none" stroke="midnightblue" d="M613.61,-324.72C664.25,-312.7 736.7,-295.52 783.42,-284.43"/>
<polygon fill="midnightblue" stroke="midnightblue" points="784.35,-287.81 793.27,-282.09 782.74,-281 784.35,-287.81"/>
</g>
<!-- Node22 -->
<g id="node22" class="node">
<title>Node22</title>
<g id="a_node22"><a xlink:title=" ">
<polygon fill="none" stroke="#bfbfbf" points="929,-263 929,-282 1060,-282 1060,-263 929,-263"/>
<text text-anchor="middle" x="994.5" y="-270" font-family="Helvetica,sans-Serif" font-size="10.00">range/v3/view/filter.hpp</text>
</a>
</g>
</g>
<!-- Node6&#45;&gt;Node22 -->
<g id="edge28" class="edge">
<title>Node6&#45;&gt;Node22</title>
<path fill="none" stroke="midnightblue" d="M613.81,-331.46C685.99,-322.5 812.6,-306.02 920.5,-288 927.86,-286.77 935.62,-285.37 943.22,-283.93"/>
<polygon fill="midnightblue" stroke="midnightblue" points="943.93,-287.36 953.09,-282.04 942.61,-280.49 943.93,-287.36"/>
</g>
<!-- Node23 -->
<g id="node23" class="node">
<title>Node23</title>
<g id="a_node23"><a xlink:title=" ">
<polygon fill="none" stroke="#bfbfbf" points="1078.5,-263 1078.5,-282 1206.5,-282 1206.5,-263 1078.5,-263"/>
<text text-anchor="middle" x="1142.5" y="-270" font-family="Helvetica,sans-Serif" font-size="10.00">range/v3/view/iota.hpp</text>
</a>
</g>
</g>
<!-- Node6&#45;&gt;Node23 -->
<g id="edge29" class="edge">
<title>Node6&#45;&gt;Node23</title>
<path fill="none" stroke="midnightblue" d="M613.54,-334.66C709,-327.93 904.96,-312.36 1069.5,-288 1077.23,-286.86 1085.38,-285.44 1093.32,-283.95"/>
<polygon fill="midnightblue" stroke="midnightblue" points="1094.07,-287.37 1103.22,-282.04 1092.74,-280.5 1094.07,-287.37"/>
</g>
<!-- Node10&#45;&gt;Node7 -->
<g id="edge10" class="edge">
<title>Node10&#45;&gt;Node7</title>
<path fill="none" stroke="midnightblue" d="M337.19,-257.49C307.91,-247.5 267.72,-233.64 232.5,-221 230.26,-220.2 227.96,-219.36 225.64,-218.51"/>
<polygon fill="midnightblue" stroke="midnightblue" points="226.75,-215.19 216.15,-215.02 224.33,-221.76 226.75,-215.19"/>
</g>
<!-- Node10&#45;&gt;Node9 -->
<g id="edge12" class="edge">
<title>Node10&#45;&gt;Node9</title>
<path fill="none" stroke="midnightblue" d="M340.61,-257.49C318.05,-248.45 289.28,-235.66 265.5,-221 246.94,-209.57 245.87,-201.73 227.5,-190 196.68,-170.31 186.19,-170.41 153.5,-154 152.67,-153.58 151.82,-153.15 150.96,-152.72"/>
<polygon fill="midnightblue" stroke="midnightblue" points="152.25,-149.45 141.75,-148 149.06,-155.68 152.25,-149.45"/>
</g>
<!-- Node11 -->
<g id="node11" class="node">
<title>Node11</title>
<g id="a_node11"><a xlink:title=" ">
<polygon fill="none" stroke="#bfbfbf" points="371.5,-129 371.5,-148 427.5,-148 427.5,-129 371.5,-129"/>
<text text-anchor="middle" x="399.5" y="-136" font-family="Helvetica,sans-Serif" font-size="10.00">optional</text>
</a>
</g>
</g>
<!-- Node10&#45;&gt;Node11 -->
<g id="edge11" class="edge">
<title>Node10&#45;&gt;Node11</title>
<path fill="none" stroke="midnightblue" d="M383.67,-257.12C387.05,-247.12 391.23,-233.41 393.5,-221 397.4,-199.68 398.78,-174.79 399.26,-158.18"/>
<polygon fill="midnightblue" stroke="midnightblue" points="402.76,-158.21 399.47,-148.14 395.77,-158.07 402.76,-158.21"/>
</g>
<!-- Node12 -->
<g id="node12" class="node">
<title>Node12</title>
<g id="a_node12"><a xlink:href="dense__grid_8hpp.html" target="_top" xlink:title="Concepts and abstract implementations of dense grids.">
<polygon fill="none" stroke="black" points="274.5,-190.5 274.5,-220.5 384.5,-220.5 384.5,-190.5 274.5,-190.5"/>
<text text-anchor="start" x="282.5" y="-208.5" font-family="Helvetica,sans-Serif" font-size="10.00">beluga/sensor/data</text>
<text text-anchor="middle" x="329.5" y="-197.5" font-family="Helvetica,sans-Serif" font-size="10.00">/dense_grid.hpp</text>
</a>
</g>
</g>
<!-- Node10&#45;&gt;Node12 -->
<g id="edge13" class="edge">
<title>Node10&#45;&gt;Node12</title>
<path fill="none" stroke="midnightblue" d="M367.87,-257.4C361.58,-249.05 353.46,-238.29 346.32,-228.81"/>
<polygon fill="midnightblue" stroke="midnightblue" points="348.93,-226.45 340.11,-220.58 343.34,-230.67 348.93,-226.45"/>
</g>
<!-- Node10&#45;&gt;Node16 -->
<g id="edge25" class="edge">
<title>Node10&#45;&gt;Node16</title>
<path fill="none" stroke="midnightblue" d="M388.67,-257.2C403.04,-235.93 428.45,-194.15 436.5,-154 440.78,-132.68 436.74,-107.79 432.8,-91.17"/>
<polygon fill="midnightblue" stroke="midnightblue" points="436.09,-89.94 430.18,-81.14 429.32,-91.7 436.09,-89.94"/>
</g>
<!-- Node12&#45;&gt;Node9 -->
<g id="edge15" class="edge">
<title>Node12&#45;&gt;Node9</title>
<path fill="none" stroke="midnightblue" d="M280.18,-190.47C247.01,-180.79 202.4,-167.32 163.5,-154 161.25,-153.23 158.92,-152.41 156.59,-151.56"/>
<polygon fill="midnightblue" stroke="midnightblue" points="157.7,-148.24 147.11,-148.04 155.26,-154.8 157.7,-148.24"/>
</g>
<!-- Node12&#45;&gt;Node11 -->
<g id="edge14" class="edge">
<title>Node12&#45;&gt;Node11</title>
<path fill="none" stroke="midnightblue" d="M344.69,-190.4C355.82,-180.06 370.94,-166.02 382.47,-155.31"/>
<polygon fill="midnightblue" stroke="midnightblue" points="385.19,-157.56 390.14,-148.19 380.43,-152.43 385.19,-157.56"/>
</g>
<!-- Node13 -->
<g id="node13" class="node">
<title>Node13</title>
<g id="a_node13"><a xlink:href="regular__grid_8hpp.html" target="_top" xlink:title="Concepts and abstract implementations of regular grids.">
<polygon fill="none" stroke="black" points="205.5,-123.5 205.5,-153.5 315.5,-153.5 315.5,-123.5 205.5,-123.5"/>
<text text-anchor="start" x="213.5" y="-141.5" font-family="Helvetica,sans-Serif" font-size="10.00">beluga/sensor/data</text>
<text text-anchor="middle" x="260.5" y="-130.5" font-family="Helvetica,sans-Serif" font-size="10.00">/regular_grid.hpp</text>
</a>
</g>
</g>
<!-- Node12&#45;&gt;Node13 -->
<g id="edge16" class="edge">
<title>Node12&#45;&gt;Node13</title>
<path fill="none" stroke="midnightblue" d="M314.53,-190.4C305.31,-181.71 293.31,-170.4 282.96,-160.66"/>
<polygon fill="midnightblue" stroke="midnightblue" points="285.12,-157.89 275.44,-153.58 280.32,-162.98 285.12,-157.89"/>
</g>
<!-- Node12&#45;&gt;Node16 -->
<g id="edge23" class="edge">
<title>Node12&#45;&gt;Node16</title>
<path fill="none" stroke="midnightblue" d="M332.79,-190.4C337.32,-173.19 346.75,-143.82 362.5,-123 373.57,-108.37 389.88,-95.71 403.39,-86.73"/>
<polygon fill="midnightblue" stroke="midnightblue" points="405.65,-89.44 412.2,-81.12 401.89,-83.54 405.65,-89.44"/>
</g>
<!-- Node17 -->
<g id="node17" class="node">
<title>Node17</title>
<g id="a_node17"><a xlink:href="eigen__compatibility_8hpp_source.html" target="_top" xlink:title=" ">
<polygon fill="none" stroke="black" points="0,-62 0,-81 169,-81 169,-62 0,-62"/>
<text text-anchor="middle" x="84.5" y="-69" font-family="Helvetica,sans-Serif" font-size="10.00">beluga/eigen_compatibility.hpp</text>
</a>
</g>
</g>
<!-- Node12&#45;&gt;Node17 -->
<g id="edge24" class="edge">
<title>Node12&#45;&gt;Node17</title>
<path fill="none" stroke="midnightblue" d="M282.06,-190.46C255.93,-181.76 223.44,-169.33 196.5,-154 177.25,-143.05 175.28,-136.19 157.5,-123 140.39,-110.3 120.46,-96.58 105.75,-86.66"/>
<polygon fill="midnightblue" stroke="midnightblue" points="107.59,-83.68 97.34,-81.01 103.69,-89.49 107.59,-83.68"/>
</g>
<!-- Node14 -->
<g id="node14" class="node">
<title>Node14</title>
<g id="a_node14"><a xlink:title=" ">
<polygon fill="none" stroke="#bfbfbf" points="187,-62 187,-81 234,-81 234,-62 187,-62"/>
<text text-anchor="middle" x="210.5" y="-69" font-family="Helvetica,sans-Serif" font-size="10.00">cmath</text>
</a>
</g>
</g>
<!-- Node13&#45;&gt;Node14 -->
<g id="edge17" class="edge">
<title>Node13&#45;&gt;Node14</title>
<path fill="none" stroke="midnightblue" d="M249.65,-123.4C241.93,-113.36 231.53,-99.84 223.39,-89.25"/>
<polygon fill="midnightblue" stroke="midnightblue" points="226.06,-86.99 217.19,-81.19 220.51,-91.25 226.06,-86.99"/>
</g>
<!-- Node13&#45;&gt;Node15 -->
<g id="edge18" class="edge">
<title>Node13&#45;&gt;Node15</title>
<path fill="none" stroke="midnightblue" d="M315.69,-125.5C371.49,-113.37 456.92,-94.8 510.42,-83.17"/>
<polygon fill="midnightblue" stroke="midnightblue" points="511.33,-86.55 520.35,-81.01 509.84,-79.71 511.33,-86.55"/>
</g>
<!-- Node13&#45;&gt;Node16 -->
<g id="edge19" class="edge">
<title>Node13&#45;&gt;Node16</title>
<path fill="none" stroke="midnightblue" d="M296.74,-123.4C326.43,-111.84 368.01,-95.66 396.25,-84.66"/>
<polygon fill="midnightblue" stroke="midnightblue" points="397.59,-87.9 405.64,-81.01 395.06,-81.37 397.59,-87.9"/>
</g>
<!-- Node13&#45;&gt;Node17 -->
<g id="edge20" class="edge">
<title>Node13&#45;&gt;Node17</title>
<path fill="none" stroke="midnightblue" d="M222.31,-123.4C190.88,-111.79 146.82,-95.51 117.04,-84.52"/>
<polygon fill="midnightblue" stroke="midnightblue" points="118.13,-81.19 107.53,-81.01 115.7,-87.75 118.13,-81.19"/>
</g>
<!-- Node19 -->
<g id="node19" class="node">
<title>Node19</title>
<g id="a_node19"><a xlink:href="enable__self_8hpp.html" target="_top" xlink:title="Implementation of a CRTP utility to enable downcasting to the most derived class.">
<polygon fill="none" stroke="black" points="252.5,-56.5 252.5,-86.5 374.5,-86.5 374.5,-56.5 252.5,-56.5"/>
<text text-anchor="start" x="260.5" y="-74.5" font-family="Helvetica,sans-Serif" font-size="10.00">beluga/mixins/enable</text>
<text text-anchor="middle" x="313.5" y="-63.5" font-family="Helvetica,sans-Serif" font-size="10.00">_self.hpp</text>
</a>
</g>
</g>
<!-- Node13&#45;&gt;Node19 -->
<g id="edge22" class="edge">
<title>Node13&#45;&gt;Node19</title>
<path fill="none" stroke="midnightblue" d="M272,-123.4C278.88,-114.96 287.76,-104.07 295.54,-94.52"/>
<polygon fill="midnightblue" stroke="midnightblue" points="298.42,-96.54 302.02,-86.58 292.99,-92.11 298.42,-96.54"/>
</g>
<!-- Node18 -->
<g id="node18" class="node">
<title>Node18</title>
<g id="a_node18"><a xlink:title=" ">
<polygon fill="none" stroke="#bfbfbf" points="46,-0.5 46,-19.5 123,-19.5 123,-0.5 46,-0.5"/>
<text text-anchor="middle" x="84.5" y="-7.5" font-family="Helvetica,sans-Serif" font-size="10.00">Eigen/Dense</text>
</a>
</g>
</g>
<!-- Node17&#45;&gt;Node18 -->
<g id="edge21" class="edge">
<title>Node17&#45;&gt;Node18</title>
<path fill="none" stroke="midnightblue" d="M84.5,-61.98C84.5,-53.58 84.5,-40.48 84.5,-29.66"/>
<polygon fill="midnightblue" stroke="midnightblue" points="88,-29.51 84.5,-19.51 81,-29.51 88,-29.51"/>
</g>
</g>
</svg>
        <g id="navigator" transform="translate(0 0)" fill="#404254">
                <rect fill="#f2f5e9" fill-opacity="0.5" stroke="#606060" stroke-width=".5" x="0" y="0" width="60" height="60"/>
                <use id="zoomplus" xlink:href="#zoomPlus" x="17" y="9" onmousedown="handleZoom(evt,'in')"/>
                <use id="zoomminus" xlink:href="#zoomMin" x="42" y="9" onmousedown="handleZoom(evt,'out')"/>
                <use id="reset" xlink:href="#resetDef" x="30" y="36" onmousedown="handleReset()"/>
                <g id="arrowUp" xlink:href="#dirArrow" transform="translate(30 24)" onmousedown="handlePan(0,-1)">
                  <use xlink:href="#rim" fill="#404040">
                        <set attributeName="fill" to="#808080" begin="arrowUp.mouseover" end="arrowUp.mouseout"/>
                  </use>
                  <path fill="none" stroke="white" stroke-width="1.5" d="M0,-3.0v7 M-2.5,-0.5L0,-3.0L2.5,-0.5"/>
                </g>
                <g id="arrowRight" xlink:href="#dirArrow" transform="rotate(90) translate(36 -43)" onmousedown="handlePan(1,0)">
                  <use xlink:href="#rim" fill="#404040">
                        <set attributeName="fill" to="#808080" begin="arrowRight.mouseover" end="arrowRight.mouseout"/>
                  </use>
                  <path fill="none" stroke="white" stroke-width="1.5" d="M0,-3.0v7 M-2.5,-0.5L0,-3.0L2.5,-0.5"/>
                </g>
                <g id="arrowDown" xlink:href="#dirArrow" transform="rotate(180) translate(-30 -48)" onmousedown="handlePan(0,1)">
                  <use xlink:href="#rim" fill="#404040">
                        <set attributeName="fill" to="#808080" begin="arrowDown.mouseover" end="arrowDown.mouseout"/>
                  </use>
                  <path fill="none" stroke="white" stroke-width="1.5" d="M0,-3.0v7 M-2.5,-0.5L0,-3.0L2.5,-0.5"/>
                </g>
                <g id="arrowLeft" xlink:href="#dirArrow" transform="rotate(270) translate(-36 17)" onmousedown="handlePan(-1,0)">
                  <use xlink:href="#rim" fill="#404040">
                        <set attributeName="fill" to="#808080" begin="arrowLeft.mouseover" end="arrowLeft.mouseout"/>
                  </use>
                  <path fill="none" stroke="white" stroke-width="1.5" d="M0,-3.0v7 M-2.5,-0.5L0,-3.0L2.5,-0.5"/>
                </g>
        </g>
        <svg viewBox="0 0 15 15" width="100%" height="30px" preserveAspectRatio="xMaxYMin meet">
         <g id="arrow_out" transform="scale(0.3 0.3)">
          <a xlink:href="multivariate__uniform__distribution_8hpp__incl_org.svg" target="_base">
           <rect id="button" ry="5" rx="5" y="6" x="6" height="38" width="38"
                fill="#f2f5e9" fill-opacity="0.5" stroke="#606060" stroke-width="1.0"/>
           <path id="arrow"
             d="M 11.500037,31.436501 C 11.940474,20.09759 22.043105,11.32322 32.158766,21.979434 L 37.068811,17.246167 C 37.068811,17.246167 37.088388,32 37.088388,32 L 22.160133,31.978069 C 22.160133,31.978069 26.997745,27.140456 26.997745,27.140456 C 18.528582,18.264221 13.291696,25.230495 11.500037,31.436501 z"
             style="fill:#404040;"/>
          </a>
         </g>
        </svg>
</svg>
