<?xml version="1.0" encoding="UTF-8" standalone="no"?>
<!DOCTYPE svg PUBLIC "-//W3C//DTD SVG 1.1//EN"
 "http://www.w3.org/Graphics/SVG/1.1/DTD/svg11.dtd">
<!-- Generated by graphviz version 2.43.0 (0)
 -->
<!-- Title: /home/runner/work/beluga/beluga/beluga/include/beluga/random/multivariate_normal_distribution.hpp Pages: 1 -->
<svg width="315pt" height="184pt"
 viewBox="0.00 0.00 315.00 184.00" xmlns="http://www.w3.org/2000/svg" xmlns:xlink="http://www.w3.org/1999/xlink">
<g id="graph0" class="graph" transform="scale(1 1) rotate(0) translate(4 180)">
<title>/home/runner/work/beluga/beluga/beluga/include/beluga/random/multivariate_normal_distribution.hpp</title>
<!-- Node1 -->
<g id="node1" class="node">
<title>Node1</title>
<g id="a_node1"><a xlink:title="Implementation of a multivariate normal distribution.">
<polygon fill="#bfbfbf" stroke="black" points="17,-123.5 17,-175.5 173,-175.5 173,-123.5 17,-123.5"/>
<text text-anchor="start" x="25" y="-163.5" font-family="Helvetica,sans-Serif" font-size="10.00">/home/runner/work/beluga</text>
<text text-anchor="start" x="25" y="-152.5" font-family="Helvetica,sans-Serif" font-size="10.00">/beluga/beluga/include</text>
<text text-anchor="start" x="25" y="-141.5" font-family="Helvetica,sans-Serif" font-size="10.00">/beluga/random/multivariate</text>
<text text-anchor="middle" x="95" y="-130.5" font-family="Helvetica,sans-Serif" font-size="10.00">_normal_distribution.hpp</text>
</a>
</g>
</g>
<!-- Node2 -->
<g id="node2" class="node">
<title>Node2</title>
<g id="a_node2"><a xlink:title=" ">
<polygon fill="none" stroke="#bfbfbf" points="0,-62 0,-81 54,-81 54,-62 0,-62"/>
<text text-anchor="middle" x="27" y="-69" font-family="Helvetica,sans-Serif" font-size="10.00">random</text>
</a>
</g>
</g>
<!-- Node1&#45;&gt;Node2 -->
<g id="edge1" class="edge">
<title>Node1&#45;&gt;Node2</title>
<path fill="none" stroke="midnightblue" d="M72.36,-123.19C62.22,-111.86 50.55,-98.82 41.59,-88.81"/>
<polygon fill="midnightblue" stroke="midnightblue" points="44.07,-86.33 34.79,-81.21 38.85,-91 44.07,-86.33"/>
</g>
<!-- Node3 -->
<g id="node3" class="node">
<title>Node3</title>
<g id="a_node3"><a xlink:title=" ">
<polygon fill="none" stroke="#bfbfbf" points="72.5,-62 72.5,-81 117.5,-81 117.5,-62 72.5,-62"/>
<text text-anchor="middle" x="95" y="-69" font-family="Helvetica,sans-Serif" font-size="10.00">utility</text>
</a>
</g>
</g>
<!-- Node1&#45;&gt;Node3 -->
<g id="edge2" class="edge">
<title>Node1&#45;&gt;Node3</title>
<path fill="none" stroke="midnightblue" d="M95,-123.19C95,-112.76 95,-100.9 95,-91.27"/>
<polygon fill="midnightblue" stroke="midnightblue" points="98.5,-91.21 95,-81.21 91.5,-91.21 98.5,-91.21"/>
</g>
<!-- Node4 -->
<g id="node4" class="node">
<title>Node4</title>
<g id="a_node4"><a xlink:href="multivariate__distribution__traits_8hpp.html" target="_top" xlink:title="Implementation of multivariate distribution traits.">
<polygon fill="none" stroke="black" points="135.5,-56.5 135.5,-86.5 288.5,-86.5 288.5,-56.5 135.5,-56.5"/>
<text text-anchor="start" x="143.5" y="-74.5" font-family="Helvetica,sans-Serif" font-size="10.00">beluga/random/multivariate</text>
<text text-anchor="middle" x="212" y="-63.5" font-family="Helvetica,sans-Serif" font-size="10.00">_distribution_traits.hpp</text>
</a>
</g>
</g>
<!-- Node1&#45;&gt;Node4 -->
<g id="edge3" class="edge">
<title>Node1&#45;&gt;Node4</title>
<path fill="none" stroke="midnightblue" d="M133.63,-123.4C149.18,-113.31 166.85,-101.83 181.47,-92.33"/>
<polygon fill="midnightblue" stroke="midnightblue" points="183.65,-95.09 190.13,-86.71 179.84,-89.22 183.65,-95.09"/>
</g>
<!-- Node5 -->
<g id="node5" class="node">
<title>Node5</title>
<g id="a_node5"><a xlink:title=" ">
<polygon fill="none" stroke="#bfbfbf" points="127.5,-0.5 127.5,-19.5 196.5,-19.5 196.5,-0.5 127.5,-0.5"/>
<text text-anchor="middle" x="162" y="-7.5" font-family="Helvetica,sans-Serif" font-size="10.00">Eigen/Core</text>
</a>
</g>
</g>
<!-- Node4&#45;&gt;Node5 -->
<g id="edge4" class="edge">
<title>Node4&#45;&gt;Node5</title>
<path fill="none" stroke="midnightblue" d="M200.15,-56.4C192.89,-47.75 183.55,-36.64 175.93,-27.58"/>
<polygon fill="midnightblue" stroke="midnightblue" points="178.39,-25.06 169.28,-19.66 173.03,-29.57 178.39,-25.06"/>
</g>
<!-- Node6 -->
<g id="node6" class="node">
<title>Node6</title>
<g id="a_node6"><a xlink:title=" ">
<polygon fill="none" stroke="#bfbfbf" points="215,-0.5 215,-19.5 307,-19.5 307,-0.5 215,-0.5"/>
<text text-anchor="middle" x="261" y="-7.5" font-family="Helvetica,sans-Serif" font-size="10.00">sophus/se2.hpp</text>
</a>
</g>
</g>
<!-- Node4&#45;&gt;Node6 -->
<g id="edge5" class="edge">
<title>Node4&#45;&gt;Node6</title>
<path fill="none" stroke="midnightblue" d="M223.61,-56.4C230.73,-47.75 239.88,-36.64 247.35,-27.58"/>
<polygon fill="midnightblue" stroke="midnightblue" points="250.21,-29.6 253.87,-19.66 244.81,-25.15 250.21,-29.6"/>
</g>
</g>
</svg>
