<?xml version="1.0" encoding="UTF-8" standalone="no"?>
<!DOCTYPE svg PUBLIC "-//W3C//DTD SVG 1.1//EN"
 "http://www.w3.org/Graphics/SVG/1.1/DTD/svg11.dtd">
<!-- Generated by graphviz version 2.43.0 (0)
 -->
<!-- Title: /home/runner/work/beluga/beluga/beluga/include/beluga/random/multivariate_uniform_distribution.hpp Pages: 1 -->
<svg width="957pt" height="441pt"
 viewBox="0.00 0.00 957.00 441.00" xmlns="http://www.w3.org/2000/svg" xmlns:xlink="http://www.w3.org/1999/xlink">
<g id="graph0" class="graph" transform="scale(1 1) rotate(0) translate(4 437)">
<title>/home/runner/work/beluga/beluga/beluga/include/beluga/random/multivariate_uniform_distribution.hpp</title>
<!-- Node1 -->
<g id="node1" class="node">
<title>Node1</title>
<g id="a_node1"><a xlink:title="Implementation of a multivariate uniform distribution for SE(2) and SE(3) spaces.">
<polygon fill="#bfbfbf" stroke="black" points="216.5,-380.5 216.5,-432.5 372.5,-432.5 372.5,-380.5 216.5,-380.5"/>
<text text-anchor="start" x="224.5" y="-420.5" font-family="Helvetica,sans-Serif" font-size="10.00">/home/runner/work/beluga</text>
<text text-anchor="start" x="224.5" y="-409.5" font-family="Helvetica,sans-Serif" font-size="10.00">/beluga/beluga/include</text>
<text text-anchor="start" x="224.5" y="-398.5" font-family="Helvetica,sans-Serif" font-size="10.00">/beluga/random/multivariate</text>
<text text-anchor="middle" x="294.5" y="-387.5" font-family="Helvetica,sans-Serif" font-size="10.00">_uniform_distribution.hpp</text>
</a>
</g>
</g>
<!-- Node2 -->
<g id="node2" class="node">
<title>Node2</title>
<g id="a_node2"><a xlink:title=" ">
<polygon fill="none" stroke="#bfbfbf" points="66.5,-319 66.5,-338 120.5,-338 120.5,-319 66.5,-319"/>
<text text-anchor="middle" x="93.5" y="-326" font-family="Helvetica,sans-Serif" font-size="10.00">random</text>
</a>
</g>
</g>
<!-- Node1&#45;&gt;Node2 -->
<g id="edge1" class="edge">
<title>Node1&#45;&gt;Node2</title>
<path fill="none" stroke="midnightblue" d="M226.11,-380.47C196.36,-369.46 161.14,-356.27 129.5,-344 127.66,-343.29 125.77,-342.55 123.87,-341.8"/>
<polygon fill="midnightblue" stroke="midnightblue" points="124.99,-338.48 114.4,-338.03 122.4,-344.98 124.99,-338.48"/>
</g>
<!-- Node3 -->
<g id="node3" class="node">
<title>Node3</title>
<g id="a_node3"><a xlink:title=" ">
<polygon fill="none" stroke="#bfbfbf" points="138.5,-319 138.5,-338 230.5,-338 230.5,-319 138.5,-319"/>
<text text-anchor="middle" x="184.5" y="-326" font-family="Helvetica,sans-Serif" font-size="10.00">sophus/se2.hpp</text>
</a>
</g>
</g>
<!-- Node1&#45;&gt;Node3 -->
<g id="edge2" class="edge">
<title>Node1&#45;&gt;Node3</title>
<path fill="none" stroke="midnightblue" d="M258.18,-380.4C240.66,-368.3 220.28,-354.22 205.4,-343.94"/>
<polygon fill="midnightblue" stroke="midnightblue" points="207.13,-340.88 196.92,-338.08 203.15,-346.64 207.13,-340.88"/>
</g>
<!-- Node4 -->
<g id="node4" class="node">
<title>Node4</title>
<g id="a_node4"><a xlink:title=" ">
<polygon fill="none" stroke="#bfbfbf" points="248.5,-319 248.5,-338 340.5,-338 340.5,-319 248.5,-319"/>
<text text-anchor="middle" x="294.5" y="-326" font-family="Helvetica,sans-Serif" font-size="10.00">sophus/se3.hpp</text>
</a>
</g>
</g>
<!-- Node1&#45;&gt;Node4 -->
<g id="edge3" class="edge">
<title>Node1&#45;&gt;Node4</title>
<path fill="none" stroke="midnightblue" d="M294.5,-380.19C294.5,-369.76 294.5,-357.9 294.5,-348.27"/>
<polygon fill="midnightblue" stroke="midnightblue" points="298,-348.21 294.5,-338.21 291,-348.21 298,-348.21"/>
</g>
<!-- Node5 -->
<g id="node5" class="node">
<title>Node5</title>
<g id="a_node5"><a xlink:title=" ">
<polygon fill="none" stroke="#bfbfbf" points="359,-319 359,-338 454,-338 454,-319 359,-319"/>
<text text-anchor="middle" x="406.5" y="-326" font-family="Helvetica,sans-Serif" font-size="10.00">Eigen/Geometry</text>
</a>
</g>
</g>
<!-- Node1&#45;&gt;Node5 -->
<g id="edge4" class="edge">
<title>Node1&#45;&gt;Node5</title>
<path fill="none" stroke="midnightblue" d="M331.48,-380.4C349.32,-368.3 370.07,-354.22 385.22,-343.94"/>
<polygon fill="midnightblue" stroke="midnightblue" points="387.55,-346.59 393.86,-338.08 383.62,-340.8 387.55,-346.59"/>
</g>
<!-- Node6 -->
<g id="node6" class="node">
<title>Node6</title>
<g id="a_node6"><a xlink:href="occupancy__grid_8hpp.html" target="_top" xlink:title="Concepts and abstract implementations of occupancy grids.">
<polygon fill="none" stroke="black" points="472.5,-313.5 472.5,-343.5 588.5,-343.5 588.5,-313.5 472.5,-313.5"/>
<text text-anchor="start" x="480.5" y="-331.5" font-family="Helvetica,sans-Serif" font-size="10.00">beluga/sensor/data</text>
<text text-anchor="middle" x="530.5" y="-320.5" font-family="Helvetica,sans-Serif" font-size="10.00">/occupancy_grid.hpp</text>
</a>
</g>
</g>
<!-- Node1&#45;&gt;Node6 -->
<g id="edge5" class="edge">
<title>Node1&#45;&gt;Node6</title>
<path fill="none" stroke="midnightblue" d="M372.43,-380.4C406.71,-369.36 446.12,-356.67 477.01,-346.73"/>
<polygon fill="midnightblue" stroke="midnightblue" points="478.28,-349.99 486.72,-343.6 476.13,-343.33 478.28,-349.99"/>
</g>
<!-- Node7 -->
<g id="node7" class="node">
<title>Node7</title>
<g id="a_node7"><a xlink:title=" ">
<polygon fill="none" stroke="#bfbfbf" points="146.5,-185 146.5,-204 196.5,-204 196.5,-185 146.5,-185"/>
<text text-anchor="middle" x="171.5" y="-192" font-family="Helvetica,sans-Serif" font-size="10.00">cstdint</text>
</a>
</g>
</g>
<!-- Node6&#45;&gt;Node7 -->
<g id="edge6" class="edge">
<title>Node6&#45;&gt;Node7</title>
<path fill="none" stroke="midnightblue" d="M472.4,-314.91C469.39,-314.27 466.41,-313.62 463.5,-313 388.41,-296.88 365.31,-306.73 294.5,-277 253.87,-259.94 212.3,-229.01 189.41,-210.55"/>
<polygon fill="midnightblue" stroke="midnightblue" points="191.54,-207.77 181.59,-204.14 187.1,-213.19 191.54,-207.77"/>
</g>
<!-- Node8 -->
<g id="node8" class="node">
<title>Node8</title>
<g id="a_node8"><a xlink:title=" ">
<polygon fill="none" stroke="#bfbfbf" points="578,-252 578,-271 619,-271 619,-252 578,-252"/>
<text text-anchor="middle" x="598.5" y="-259" font-family="Helvetica,sans-Serif" font-size="10.00">tuple</text>
</a>
</g>
</g>
<!-- Node6&#45;&gt;Node8 -->
<g id="edge7" class="edge">
<title>Node6&#45;&gt;Node8</title>
<path fill="none" stroke="midnightblue" d="M545.25,-313.4C556.07,-303.06 570.75,-289.02 581.96,-278.31"/>
<polygon fill="midnightblue" stroke="midnightblue" points="584.59,-280.63 589.4,-271.19 579.76,-275.57 584.59,-280.63"/>
</g>
<!-- Node9 -->
<g id="node9" class="node">
<title>Node9</title>
<g id="a_node9"><a xlink:title=" ">
<polygon fill="none" stroke="#bfbfbf" points="364,-118 364,-137 411,-137 411,-118 364,-118"/>
<text text-anchor="middle" x="387.5" y="-125" font-family="Helvetica,sans-Serif" font-size="10.00">vector</text>
</a>
</g>
</g>
<!-- Node6&#45;&gt;Node9 -->
<g id="edge8" class="edge">
<title>Node6&#45;&gt;Node9</title>
<path fill="none" stroke="midnightblue" d="M520.22,-313.19C494.49,-277.38 427.41,-184.04 399.72,-145.51"/>
<polygon fill="midnightblue" stroke="midnightblue" points="402.54,-143.44 393.87,-137.36 396.86,-147.52 402.54,-143.44"/>
</g>
<!-- Node10 -->
<g id="node10" class="node">
<title>Node10</title>
<g id="a_node10"><a xlink:href="linear__grid_8hpp.html" target="_top" xlink:title="Concepts and abstract implementations of linear (ie. contiguous storage) grids.">
<polygon fill="none" stroke="black" points="303.5,-246.5 303.5,-276.5 413.5,-276.5 413.5,-246.5 303.5,-246.5"/>
<text text-anchor="start" x="311.5" y="-264.5" font-family="Helvetica,sans-Serif" font-size="10.00">beluga/sensor/data</text>
<text text-anchor="middle" x="358.5" y="-253.5" font-family="Helvetica,sans-Serif" font-size="10.00">/linear_grid.hpp</text>
</a>
</g>
</g>
<!-- Node6&#45;&gt;Node10 -->
<g id="edge9" class="edge">
<title>Node6&#45;&gt;Node10</title>
<path fill="none" stroke="midnightblue" d="M493.18,-313.4C467.37,-303.64 432.84,-290.59 405.21,-280.15"/>
<polygon fill="midnightblue" stroke="midnightblue" points="406.34,-276.84 395.75,-276.58 403.87,-283.39 406.34,-276.84"/>
</g>
<!-- Node16 -->
<g id="node16" class="node">
<title>Node16</title>
<g id="a_node16"><a xlink:title=" ">
<polygon fill="none" stroke="#bfbfbf" points="477.5,-56.5 477.5,-75.5 635.5,-75.5 635.5,-56.5 477.5,-56.5"/>
<text text-anchor="middle" x="556.5" y="-63.5" font-family="Helvetica,sans-Serif" font-size="10.00">range/v3/view/transform.hpp</text>
</a>
</g>
</g>
<!-- Node6&#45;&gt;Node16 -->
<g id="edge28" class="edge">
<title>Node6&#45;&gt;Node16</title>
<path fill="none" stroke="midnightblue" d="M531.9,-313.49C536.26,-269.76 549.64,-135.7 554.61,-85.89"/>
<polygon fill="midnightblue" stroke="midnightblue" points="558.13,-85.92 555.64,-75.63 551.16,-85.23 558.13,-85.92"/>
</g>
<!-- Node17 -->
<g id="node17" class="node">
<title>Node17</title>
<g id="a_node17"><a xlink:title=" ">
<polygon fill="none" stroke="#bfbfbf" points="390,-56.5 390,-75.5 459,-75.5 459,-56.5 390,-56.5"/>
<text text-anchor="middle" x="424.5" y="-63.5" font-family="Helvetica,sans-Serif" font-size="10.00">Eigen/Core</text>
</a>
</g>
</g>
<!-- Node6&#45;&gt;Node17 -->
<g id="edge29" class="edge">
<title>Node6&#45;&gt;Node17</title>
<path fill="none" stroke="midnightblue" d="M524.8,-313.49C506.89,-269.48 451.76,-133.99 431.81,-84.95"/>
<polygon fill="midnightblue" stroke="midnightblue" points="435.02,-83.57 428.01,-75.63 428.54,-86.21 435.02,-83.57"/>
</g>
<!-- Node20 -->
<g id="node20" class="node">
<title>Node20</title>
<g id="a_node20"><a xlink:title=" ">
<polygon fill="none" stroke="#bfbfbf" points="637,-252 637,-271 800,-271 800,-252 637,-252"/>
<text text-anchor="middle" x="718.5" y="-259" font-family="Helvetica,sans-Serif" font-size="10.00">range/v3/view/enumerate.hpp</text>
</a>
</g>
</g>
<!-- Node6&#45;&gt;Node20 -->
<g id="edge26" class="edge">
<title>Node6&#45;&gt;Node20</title>
<path fill="none" stroke="midnightblue" d="M571.29,-313.4C605.01,-301.74 652.34,-285.37 684.15,-274.38"/>
<polygon fill="midnightblue" stroke="midnightblue" points="685.59,-277.58 693.9,-271.01 683.3,-270.97 685.59,-277.58"/>
</g>
<!-- Node21 -->
<g id="node21" class="node">
<title>Node21</title>
<g id="a_node21"><a xlink:title=" ">
<polygon fill="none" stroke="#bfbfbf" points="818,-252 818,-271 949,-271 949,-252 818,-252"/>
<text text-anchor="middle" x="883.5" y="-259" font-family="Helvetica,sans-Serif" font-size="10.00">range/v3/view/filter.hpp</text>
</a>
</g>
</g>
<!-- Node6&#45;&gt;Node21 -->
<g id="edge27" class="edge">
<title>Node6&#45;&gt;Node21</title>
<path fill="none" stroke="midnightblue" d="M588.52,-317.25C644.99,-307.21 733.19,-291.38 809.5,-277 816.24,-275.73 823.32,-274.37 830.33,-273.01"/>
<polygon fill="midnightblue" stroke="midnightblue" points="831.33,-276.39 840.48,-271.04 829.99,-269.51 831.33,-276.39"/>
</g>
<!-- Node10&#45;&gt;Node7 -->
<g id="edge10" class="edge">
<title>Node10&#45;&gt;Node7</title>
<path fill="none" stroke="midnightblue" d="M316.29,-246.44C286.62,-236.47 246.05,-222.67 210.5,-210 208.26,-209.2 205.95,-208.37 203.63,-207.52"/>
<polygon fill="midnightblue" stroke="midnightblue" points="204.74,-204.2 194.15,-204.04 202.33,-210.77 204.74,-204.2"/>
</g>
<!-- Node10&#45;&gt;Node9 -->
<g id="edge12" class="edge">
<title>Node10&#45;&gt;Node9</title>
<path fill="none" stroke="midnightblue" d="M362.36,-246.4C365.07,-236.31 368.7,-222.36 371.5,-210 376.37,-188.52 381.12,-163.66 384.17,-147.1"/>
<polygon fill="midnightblue" stroke="midnightblue" points="387.64,-147.56 385.98,-137.1 380.75,-146.31 387.64,-147.56"/>
</g>
<!-- Node11 -->
<g id="node11" class="node">
<title>Node11</title>
<g id="a_node11"><a xlink:title=" ">
<polygon fill="none" stroke="#bfbfbf" points="85.5,-118 85.5,-137 141.5,-137 141.5,-118 85.5,-118"/>
<text text-anchor="middle" x="113.5" y="-125" font-family="Helvetica,sans-Serif" font-size="10.00">optional</text>
</a>
</g>
</g>
<!-- Node10&#45;&gt;Node11 -->
<g id="edge11" class="edge">
<title>Node10&#45;&gt;Node11</title>
<path fill="none" stroke="midnightblue" d="M319.66,-246.49C296.73,-237.49 267.59,-224.74 243.5,-210 224.91,-198.63 223.57,-191.18 205.5,-179 184.53,-164.86 159.25,-151.21 140.5,-141.67"/>
<polygon fill="midnightblue" stroke="midnightblue" points="141.86,-138.44 131.35,-137.08 138.72,-144.69 141.86,-138.44"/>
</g>
<!-- Node12 -->
<g id="node12" class="node">
<title>Node12</title>
<g id="a_node12"><a xlink:href="dense__grid_8hpp.html" target="_top" xlink:title="Concepts and abstract implementations of dense grids.">
<polygon fill="none" stroke="black" points="252.5,-179.5 252.5,-209.5 362.5,-209.5 362.5,-179.5 252.5,-179.5"/>
<text text-anchor="start" x="260.5" y="-197.5" font-family="Helvetica,sans-Serif" font-size="10.00">beluga/sensor/data</text>
<text text-anchor="middle" x="307.5" y="-186.5" font-family="Helvetica,sans-Serif" font-size="10.00">/dense_grid.hpp</text>
</a>
</g>
</g>
<!-- Node10&#45;&gt;Node12 -->
<g id="edge13" class="edge">
<title>Node10&#45;&gt;Node12</title>
<path fill="none" stroke="midnightblue" d="M347.43,-246.4C340.82,-237.96 332.27,-227.07 324.78,-217.52"/>
<polygon fill="midnightblue" stroke="midnightblue" points="327.47,-215.28 318.54,-209.58 321.96,-219.6 327.47,-215.28"/>
</g>
<!-- Node10&#45;&gt;Node17 -->
<g id="edge25" class="edge">
<title>Node10&#45;&gt;Node17</title>
<path fill="none" stroke="midnightblue" d="M368.94,-246.22C383.77,-224.98 410.27,-183.24 420.5,-143 425.33,-124.02 425.91,-101.54 425.54,-85.98"/>
<polygon fill="midnightblue" stroke="midnightblue" points="429.02,-85.45 425.13,-75.6 422.02,-85.73 429.02,-85.45"/>
</g>
<!-- Node12&#45;&gt;Node9 -->
<g id="edge15" class="edge">
<title>Node12&#45;&gt;Node9</title>
<path fill="none" stroke="midnightblue" d="M324.86,-179.4C337.83,-168.86 355.53,-154.48 368.81,-143.69"/>
<polygon fill="midnightblue" stroke="midnightblue" points="371.24,-146.22 376.8,-137.19 366.83,-140.78 371.24,-146.22"/>
</g>
<!-- Node12&#45;&gt;Node11 -->
<g id="edge14" class="edge">
<title>Node12&#45;&gt;Node11</title>
<path fill="none" stroke="midnightblue" d="M264.87,-179.48C234.37,-169.42 192.37,-155.49 155.5,-143 153.07,-142.18 150.56,-141.32 148.04,-140.46"/>
<polygon fill="midnightblue" stroke="midnightblue" points="148.95,-137.07 138.36,-137.14 146.68,-143.69 148.95,-137.07"/>
</g>
<!-- Node13 -->
<g id="node13" class="node">
<title>Node13</title>
<g id="a_node13"><a xlink:href="regular__grid_8hpp.html" target="_top" xlink:title="Concepts and abstract implementations of regular grids.">
<polygon fill="none" stroke="black" points="197.5,-112.5 197.5,-142.5 307.5,-142.5 307.5,-112.5 197.5,-112.5"/>
<text text-anchor="start" x="205.5" y="-130.5" font-family="Helvetica,sans-Serif" font-size="10.00">beluga/sensor/data</text>
<text text-anchor="middle" x="252.5" y="-119.5" font-family="Helvetica,sans-Serif" font-size="10.00">/regular_grid.hpp</text>
</a>
</g>
</g>
<!-- Node12&#45;&gt;Node13 -->
<g id="edge16" class="edge">
<title>Node12&#45;&gt;Node13</title>
<path fill="none" stroke="midnightblue" d="M295.57,-179.4C288.36,-170.88 279.02,-159.85 270.89,-150.23"/>
<polygon fill="midnightblue" stroke="midnightblue" points="273.54,-147.95 264.41,-142.58 268.2,-152.47 273.54,-147.95"/>
</g>
<!-- Node12&#45;&gt;Node17 -->
<g id="edge23" class="edge">
<title>Node12&#45;&gt;Node17</title>
<path fill="none" stroke="midnightblue" d="M313.45,-179.23C321.2,-161.85 336.1,-132.3 355.5,-112 367.62,-99.31 383.97,-88.45 397.71,-80.58"/>
<polygon fill="midnightblue" stroke="midnightblue" points="399.65,-83.51 406.73,-75.62 396.28,-77.37 399.65,-83.51"/>
</g>
<!-- Node18 -->
<g id="node18" class="node">
<title>Node18</title>
<g id="a_node18"><a xlink:href="eigen__compatibility_8hpp_source.html" target="_top" xlink:title=" ">
<polygon fill="none" stroke="black" points="0,-56.5 0,-75.5 169,-75.5 169,-56.5 0,-56.5"/>
<text text-anchor="middle" x="84.5" y="-63.5" font-family="Helvetica,sans-Serif" font-size="10.00">beluga/eigen_compatibility.hpp</text>
</a>
</g>
</g>
<!-- Node12&#45;&gt;Node18 -->
<g id="edge24" class="edge">
<title>Node12&#45;&gt;Node18</title>
<path fill="none" stroke="midnightblue" d="M266.72,-179.48C243.08,-170.56 213.19,-157.9 188.5,-143 169.84,-131.74 167.96,-125.04 150.5,-112 136.19,-101.32 119.58,-90 106.6,-81.38"/>
<polygon fill="midnightblue" stroke="midnightblue" points="108.16,-78.22 97.88,-75.64 104.31,-84.06 108.16,-78.22"/>
</g>
<!-- Node14 -->
<g id="node14" class="node">
<title>Node14</title>
<g id="a_node14"><a xlink:title=" ">
<polygon fill="none" stroke="#bfbfbf" points="325,-56.5 325,-75.5 372,-75.5 372,-56.5 325,-56.5"/>
<text text-anchor="middle" x="348.5" y="-63.5" font-family="Helvetica,sans-Serif" font-size="10.00">cmath</text>
</a>
</g>
</g>
<!-- Node13&#45;&gt;Node14 -->
<g id="edge17" class="edge">
<title>Node13&#45;&gt;Node14</title>
<path fill="none" stroke="midnightblue" d="M275.25,-112.4C290.49,-102.95 310.49,-90.56 325.74,-81.11"/>
<polygon fill="midnightblue" stroke="midnightblue" points="327.88,-83.9 334.53,-75.66 324.19,-77.95 327.88,-83.9"/>
</g>
<!-- Node15 -->
<g id="node15" class="node">
<title>Node15</title>
<g id="a_node15"><a xlink:href="ciabatta_8hpp_source.html" target="_top" xlink:title=" ">
<polygon fill="none" stroke="black" points="186.5,-56.5 186.5,-75.5 306.5,-75.5 306.5,-56.5 186.5,-56.5"/>
<text text-anchor="middle" x="246.5" y="-63.5" font-family="Helvetica,sans-Serif" font-size="10.00">ciabatta/ciabatta.hpp</text>
</a>
</g>
</g>
<!-- Node13&#45;&gt;Node15 -->
<g id="edge18" class="edge">
<title>Node13&#45;&gt;Node15</title>
<path fill="none" stroke="midnightblue" d="M251.08,-112.4C250.28,-104.47 249.27,-94.46 248.4,-85.86"/>
<polygon fill="midnightblue" stroke="midnightblue" points="251.86,-85.26 247.37,-75.66 244.89,-85.96 251.86,-85.26"/>
</g>
<!-- Node13&#45;&gt;Node16 -->
<g id="edge19" class="edge">
<title>Node13&#45;&gt;Node16</title>
<path fill="none" stroke="midnightblue" d="M307.55,-115.72C362.96,-104.88 447.87,-88.26 502.8,-77.51"/>
<polygon fill="midnightblue" stroke="midnightblue" points="503.55,-80.93 512.69,-75.57 502.21,-74.06 503.55,-80.93"/>
</g>
<!-- Node13&#45;&gt;Node17 -->
<g id="edge20" class="edge">
<title>Node13&#45;&gt;Node17</title>
<path fill="none" stroke="midnightblue" d="M293.26,-112.4C322.72,-102.21 362.09,-88.59 390,-78.93"/>
<polygon fill="midnightblue" stroke="midnightblue" points="391.42,-82.15 399.72,-75.57 389.13,-75.53 391.42,-82.15"/>
</g>
<!-- Node13&#45;&gt;Node18 -->
<g id="edge21" class="edge">
<title>Node13&#45;&gt;Node18</title>
<path fill="none" stroke="midnightblue" d="M212.69,-112.4C184,-102.24 145.69,-88.67 118.44,-79.02"/>
<polygon fill="midnightblue" stroke="midnightblue" points="119.54,-75.7 108.95,-75.66 117.2,-82.3 119.54,-75.7"/>
</g>
<!-- Node19 -->
<g id="node19" class="node">
<title>Node19</title>
<g id="a_node19"><a xlink:title=" ">
<polygon fill="none" stroke="#bfbfbf" points="46,-0.5 46,-19.5 123,-19.5 123,-0.5 46,-0.5"/>
<text text-anchor="middle" x="84.5" y="-7.5" font-family="Helvetica,sans-Serif" font-size="10.00">Eigen/Dense</text>
</a>
</g>
</g>
<!-- Node18&#45;&gt;Node19 -->
<g id="edge22" class="edge">
<title>Node18&#45;&gt;Node19</title>
<path fill="none" stroke="midnightblue" d="M84.5,-56.08C84.5,-49.01 84.5,-38.86 84.5,-29.99"/>
<polygon fill="midnightblue" stroke="midnightblue" points="88,-29.75 84.5,-19.75 81,-29.75 88,-29.75"/>
</g>
</g>
</svg>
