<?xml version="1.0" encoding="UTF-8" standalone="no"?>
<!DOCTYPE svg PUBLIC "-//W3C//DTD SVG 1.1//EN"
 "http://www.w3.org/Graphics/SVG/1.1/DTD/svg11.dtd">
<!-- Generated by graphviz version 2.43.0 (0)
 -->
<!-- Title: /home/runner/work/beluga/beluga/beluga/include/beluga/random/multivariate_normal_distribution.hpp Pages: 1 -->
<svg width="556pt" height="184pt"
 viewBox="0.00 0.00 556.00 184.00" xmlns="http://www.w3.org/2000/svg" xmlns:xlink="http://www.w3.org/1999/xlink">
<g id="graph0" class="graph" transform="scale(1 1) rotate(0) translate(4 180)">
<title>/home/runner/work/beluga/beluga/beluga/include/beluga/random/multivariate_normal_distribution.hpp</title>
<!-- Node1 -->
<g id="node1" class="node">
<title>Node1</title>
<g id="a_node1"><a xlink:title="Implementation of a multivariate normal distribution.">
<polygon fill="#bfbfbf" stroke="black" points="64,-123.5 64,-175.5 220,-175.5 220,-123.5 64,-123.5"/>
<text text-anchor="start" x="72" y="-163.5" font-family="Helvetica,sans-Serif" font-size="10.00">/home/runner/work/beluga</text>
<text text-anchor="start" x="72" y="-152.5" font-family="Helvetica,sans-Serif" font-size="10.00">/beluga/beluga/include</text>
<text text-anchor="start" x="72" y="-141.5" font-family="Helvetica,sans-Serif" font-size="10.00">/beluga/random/multivariate</text>
<text text-anchor="middle" x="142" y="-130.5" font-family="Helvetica,sans-Serif" font-size="10.00">_normal_distribution.hpp</text>
</a>
</g>
</g>
<!-- Node2 -->
<g id="node2" class="node">
<title>Node2</title>
<g id="a_node2"><a xlink:title=" ">
<polygon fill="none" stroke="#bfbfbf" points="0,-62 0,-81 54,-81 54,-62 0,-62"/>
<text text-anchor="middle" x="27" y="-69" font-family="Helvetica,sans-Serif" font-size="10.00">random</text>
</a>
</g>
</g>
<!-- Node1&#45;&gt;Node2 -->
<g id="edge1" class="edge">
<title>Node1&#45;&gt;Node2</title>
<path fill="none" stroke="midnightblue" d="M104.03,-123.4C85.54,-111.19 64,-96.95 48.41,-86.65"/>
<polygon fill="midnightblue" stroke="midnightblue" points="50.25,-83.67 39.98,-81.08 46.39,-89.51 50.25,-83.67"/>
</g>
<!-- Node3 -->
<g id="node3" class="node">
<title>Node3</title>
<g id="a_node3"><a xlink:title=" ">
<polygon fill="none" stroke="#bfbfbf" points="72.5,-62 72.5,-81 117.5,-81 117.5,-62 72.5,-62"/>
<text text-anchor="middle" x="95" y="-69" font-family="Helvetica,sans-Serif" font-size="10.00">utility</text>
</a>
</g>
</g>
<!-- Node1&#45;&gt;Node3 -->
<g id="edge2" class="edge">
<title>Node1&#45;&gt;Node3</title>
<path fill="none" stroke="midnightblue" d="M126.35,-123.19C119.55,-112.2 111.76,-99.6 105.65,-89.72"/>
<polygon fill="midnightblue" stroke="midnightblue" points="108.62,-87.87 100.39,-81.21 102.67,-91.55 108.62,-87.87"/>
</g>
<!-- Node4 -->
<g id="node4" class="node">
<title>Node4</title>
<g id="a_node4"><a xlink:title=" ">
<polygon fill="none" stroke="#bfbfbf" points="136,-62 136,-81 242,-81 242,-62 136,-62"/>
<text text-anchor="middle" x="189" y="-69" font-family="Helvetica,sans-Serif" font-size="10.00">Eigen/Eigenvalues</text>
</a>
</g>
</g>
<!-- Node1&#45;&gt;Node4 -->
<g id="edge3" class="edge">
<title>Node1&#45;&gt;Node4</title>
<path fill="none" stroke="midnightblue" d="M157.65,-123.19C164.45,-112.2 172.24,-99.6 178.35,-89.72"/>
<polygon fill="midnightblue" stroke="midnightblue" points="181.33,-91.55 183.61,-81.21 175.38,-87.87 181.33,-91.55"/>
</g>
<!-- Node5 -->
<g id="node5" class="node">
<title>Node5</title>
<g id="a_node5"><a xlink:href="multivariate__distribution__traits_8hpp.html" target="_top" xlink:title="Implementation of multivariate distribution traits.">
<polygon fill="none" stroke="black" points="260.5,-56.5 260.5,-86.5 413.5,-86.5 413.5,-56.5 260.5,-56.5"/>
<text text-anchor="start" x="268.5" y="-74.5" font-family="Helvetica,sans-Serif" font-size="10.00">beluga/random/multivariate</text>
<text text-anchor="middle" x="337" y="-63.5" font-family="Helvetica,sans-Serif" font-size="10.00">_distribution_traits.hpp</text>
</a>
</g>
</g>
<!-- Node1&#45;&gt;Node5 -->
<g id="edge4" class="edge">
<title>Node1&#45;&gt;Node5</title>
<path fill="none" stroke="midnightblue" d="M206.39,-123.4C234.23,-112.55 266.15,-100.11 291.47,-90.24"/>
<polygon fill="midnightblue" stroke="midnightblue" points="292.78,-93.49 300.83,-86.6 290.24,-86.97 292.78,-93.49"/>
</g>
<!-- Node6 -->
<g id="node6" class="node">
<title>Node6</title>
<g id="a_node6"><a xlink:title=" ">
<polygon fill="none" stroke="#bfbfbf" points="148.5,-0.5 148.5,-19.5 217.5,-19.5 217.5,-0.5 148.5,-0.5"/>
<text text-anchor="middle" x="183" y="-7.5" font-family="Helvetica,sans-Serif" font-size="10.00">Eigen/Core</text>
</a>
</g>
</g>
<!-- Node5&#45;&gt;Node6 -->
<g id="edge5" class="edge">
<title>Node5&#45;&gt;Node6</title>
<path fill="none" stroke="midnightblue" d="M300.5,-56.4C274.43,-46.33 239.71,-32.91 214.78,-23.28"/>
<polygon fill="midnightblue" stroke="midnightblue" points="216,-20 205.41,-19.66 213.47,-26.53 216,-20"/>
</g>
<!-- Node7 -->
<g id="node7" class="node">
<title>Node7</title>
<g id="a_node7"><a xlink:title=" ">
<polygon fill="none" stroke="#bfbfbf" points="236,-0.5 236,-19.5 328,-19.5 328,-0.5 236,-0.5"/>
<text text-anchor="middle" x="282" y="-7.5" font-family="Helvetica,sans-Serif" font-size="10.00">sophus/se2.hpp</text>
</a>
</g>
</g>
<!-- Node5&#45;&gt;Node7 -->
<g id="edge6" class="edge">
<title>Node5&#45;&gt;Node7</title>
<path fill="none" stroke="midnightblue" d="M323.97,-56.4C315.81,-47.58 305.28,-36.18 296.81,-27.02"/>
<polygon fill="midnightblue" stroke="midnightblue" points="299.36,-24.63 290,-19.66 294.22,-29.38 299.36,-24.63"/>
</g>
<!-- Node8 -->
<g id="node8" class="node">
<title>Node8</title>
<g id="a_node8"><a xlink:title=" ">
<polygon fill="none" stroke="#bfbfbf" points="346,-0.5 346,-19.5 438,-19.5 438,-0.5 346,-0.5"/>
<text text-anchor="middle" x="392" y="-7.5" font-family="Helvetica,sans-Serif" font-size="10.00">sophus/se3.hpp</text>
</a>
</g>
</g>
<!-- Node5&#45;&gt;Node8 -->
<g id="edge7" class="edge">
<title>Node5&#45;&gt;Node8</title>
<path fill="none" stroke="midnightblue" d="M350.03,-56.4C358.19,-47.58 368.72,-36.18 377.19,-27.02"/>
<polygon fill="midnightblue" stroke="midnightblue" points="379.78,-29.38 384,-19.66 374.64,-24.63 379.78,-29.38"/>
</g>
<!-- Node9 -->
<g id="node9" class="node">
<title>Node9</title>
<g id="a_node9"><a xlink:title=" ">
<polygon fill="none" stroke="#bfbfbf" points="456,-0.5 456,-19.5 548,-19.5 548,-0.5 456,-0.5"/>
<text text-anchor="middle" x="502" y="-7.5" font-family="Helvetica,sans-Serif" font-size="10.00">sophus/so3.hpp</text>
</a>
</g>
</g>
<!-- Node5&#45;&gt;Node9 -->
<g id="edge8" class="edge">
<title>Node5&#45;&gt;Node9</title>
<path fill="none" stroke="midnightblue" d="M376.1,-56.4C404.16,-46.28 441.57,-32.79 468.31,-23.15"/>
<polygon fill="midnightblue" stroke="midnightblue" points="469.77,-26.34 477.99,-19.66 467.4,-19.76 469.77,-26.34"/>
</g>
</g>
</svg>
