<?xml version="1.0" encoding="UTF-8" standalone="no"?>
<!DOCTYPE svg PUBLIC "-//W3C//DTD SVG 1.1//EN"
 "http://www.w3.org/Graphics/SVG/1.1/DTD/svg11.dtd">
<!-- Generated by graphviz version 2.43.0 (0)
 -->
<!-- Title: /home/runner/work/beluga/beluga/beluga/include/beluga/random/multivariate_uniform_distribution.hpp Pages: 1 -->
<svg width="891pt" height="385pt"
 viewBox="0.00 0.00 890.50 385.00" xmlns="http://www.w3.org/2000/svg" xmlns:xlink="http://www.w3.org/1999/xlink">
<g id="graph0" class="graph" transform="scale(1 1) rotate(0) translate(4 381)">
<title>/home/runner/work/beluga/beluga/beluga/include/beluga/random/multivariate_uniform_distribution.hpp</title>
<!-- Node1 -->
<g id="node1" class="node">
<title>Node1</title>
<g id="a_node1"><a xlink:title="Implementation of a multivariate uniform distribution for SE(2) and SE(3) spaces.">
<polygon fill="#bfbfbf" stroke="black" points="150,-324.5 150,-376.5 306,-376.5 306,-324.5 150,-324.5"/>
<text text-anchor="start" x="158" y="-364.5" font-family="Helvetica,sans-Serif" font-size="10.00">/home/runner/work/beluga</text>
<text text-anchor="start" x="158" y="-353.5" font-family="Helvetica,sans-Serif" font-size="10.00">/beluga/beluga/include</text>
<text text-anchor="start" x="158" y="-342.5" font-family="Helvetica,sans-Serif" font-size="10.00">/beluga/random/multivariate</text>
<text text-anchor="middle" x="228" y="-331.5" font-family="Helvetica,sans-Serif" font-size="10.00">_uniform_distribution.hpp</text>
</a>
</g>
</g>
<!-- Node2 -->
<g id="node2" class="node">
<title>Node2</title>
<g id="a_node2"><a xlink:title=" ">
<polygon fill="none" stroke="#bfbfbf" points="0,-263 0,-282 54,-282 54,-263 0,-263"/>
<text text-anchor="middle" x="27" y="-270" font-family="Helvetica,sans-Serif" font-size="10.00">random</text>
</a>
</g>
</g>
<!-- Node1&#45;&gt;Node2 -->
<g id="edge1" class="edge">
<title>Node1&#45;&gt;Node2</title>
<path fill="none" stroke="midnightblue" d="M159.61,-324.47C129.86,-313.46 94.64,-300.27 63,-288 61.16,-287.29 59.27,-286.55 57.37,-285.8"/>
<polygon fill="midnightblue" stroke="midnightblue" points="58.49,-282.48 47.9,-282.03 55.9,-288.98 58.49,-282.48"/>
</g>
<!-- Node3 -->
<g id="node3" class="node">
<title>Node3</title>
<g id="a_node3"><a xlink:title=" ">
<polygon fill="none" stroke="#bfbfbf" points="72,-263 72,-282 164,-282 164,-263 72,-263"/>
<text text-anchor="middle" x="118" y="-270" font-family="Helvetica,sans-Serif" font-size="10.00">sophus/se2.hpp</text>
</a>
</g>
</g>
<!-- Node1&#45;&gt;Node3 -->
<g id="edge2" class="edge">
<title>Node1&#45;&gt;Node3</title>
<path fill="none" stroke="midnightblue" d="M191.68,-324.4C174.16,-312.3 153.78,-298.22 138.9,-287.94"/>
<polygon fill="midnightblue" stroke="midnightblue" points="140.63,-284.88 130.42,-282.08 136.65,-290.64 140.63,-284.88"/>
</g>
<!-- Node4 -->
<g id="node4" class="node">
<title>Node4</title>
<g id="a_node4"><a xlink:title=" ">
<polygon fill="none" stroke="#bfbfbf" points="182,-263 182,-282 274,-282 274,-263 182,-263"/>
<text text-anchor="middle" x="228" y="-270" font-family="Helvetica,sans-Serif" font-size="10.00">sophus/se3.hpp</text>
</a>
</g>
</g>
<!-- Node1&#45;&gt;Node4 -->
<g id="edge3" class="edge">
<title>Node1&#45;&gt;Node4</title>
<path fill="none" stroke="midnightblue" d="M228,-324.19C228,-313.76 228,-301.9 228,-292.27"/>
<polygon fill="midnightblue" stroke="midnightblue" points="231.5,-292.21 228,-282.21 224.5,-292.21 231.5,-292.21"/>
</g>
<!-- Node5 -->
<g id="node5" class="node">
<title>Node5</title>
<g id="a_node5"><a xlink:title=" ">
<polygon fill="none" stroke="#bfbfbf" points="292.5,-263 292.5,-282 387.5,-282 387.5,-263 292.5,-263"/>
<text text-anchor="middle" x="340" y="-270" font-family="Helvetica,sans-Serif" font-size="10.00">Eigen/Geometry</text>
</a>
</g>
</g>
<!-- Node1&#45;&gt;Node5 -->
<g id="edge4" class="edge">
<title>Node1&#45;&gt;Node5</title>
<path fill="none" stroke="midnightblue" d="M264.98,-324.4C282.82,-312.3 303.57,-298.22 318.72,-287.94"/>
<polygon fill="midnightblue" stroke="midnightblue" points="321.05,-290.59 327.36,-282.08 317.12,-284.8 321.05,-290.59"/>
</g>
<!-- Node6 -->
<g id="node6" class="node">
<title>Node6</title>
<g id="a_node6"><a xlink:href="occupancy__grid_8hpp.html" target="_top" xlink:title="Concepts and abstract implementations of occupancy grids.">
<polygon fill="none" stroke="black" points="406,-257.5 406,-287.5 522,-287.5 522,-257.5 406,-257.5"/>
<text text-anchor="start" x="414" y="-275.5" font-family="Helvetica,sans-Serif" font-size="10.00">beluga/sensor/data</text>
<text text-anchor="middle" x="464" y="-264.5" font-family="Helvetica,sans-Serif" font-size="10.00">/occupancy_grid.hpp</text>
</a>
</g>
</g>
<!-- Node1&#45;&gt;Node6 -->
<g id="edge5" class="edge">
<title>Node1&#45;&gt;Node6</title>
<path fill="none" stroke="midnightblue" d="M305.93,-324.4C340.21,-313.36 379.62,-300.67 410.51,-290.73"/>
<polygon fill="midnightblue" stroke="midnightblue" points="411.78,-293.99 420.22,-287.6 409.63,-287.33 411.78,-293.99"/>
</g>
<!-- Node7 -->
<g id="node7" class="node">
<title>Node7</title>
<g id="a_node7"><a xlink:title=" ">
<polygon fill="none" stroke="#bfbfbf" points="87,-129 87,-148 137,-148 137,-129 87,-129"/>
<text text-anchor="middle" x="112" y="-136" font-family="Helvetica,sans-Serif" font-size="10.00">cstdint</text>
</a>
</g>
</g>
<!-- Node6&#45;&gt;Node7 -->
<g id="edge6" class="edge">
<title>Node6&#45;&gt;Node7</title>
<path fill="none" stroke="midnightblue" d="M405.9,-258.91C402.89,-258.27 399.91,-257.62 397,-257 321.91,-240.88 298.4,-251.69 228,-221 189.36,-204.15 150.5,-173.37 129.01,-154.84"/>
<polygon fill="midnightblue" stroke="midnightblue" points="131.24,-152.13 121.41,-148.17 126.62,-157.4 131.24,-152.13"/>
</g>
<!-- Node8 -->
<g id="node8" class="node">
<title>Node8</title>
<g id="a_node8"><a xlink:title=" ">
<polygon fill="none" stroke="#bfbfbf" points="511.5,-196 511.5,-215 552.5,-215 552.5,-196 511.5,-196"/>
<text text-anchor="middle" x="532" y="-203" font-family="Helvetica,sans-Serif" font-size="10.00">tuple</text>
</a>
</g>
</g>
<!-- Node6&#45;&gt;Node8 -->
<g id="edge7" class="edge">
<title>Node6&#45;&gt;Node8</title>
<path fill="none" stroke="midnightblue" d="M478.75,-257.4C489.57,-247.06 504.25,-233.02 515.46,-222.31"/>
<polygon fill="midnightblue" stroke="midnightblue" points="518.09,-224.63 522.9,-215.19 513.26,-219.57 518.09,-224.63"/>
</g>
<!-- Node9 -->
<g id="node9" class="node">
<title>Node9</title>
<g id="a_node9"><a xlink:title=" ">
<polygon fill="none" stroke="#bfbfbf" points="359.5,-62 359.5,-81 406.5,-81 406.5,-62 359.5,-62"/>
<text text-anchor="middle" x="383" y="-69" font-family="Helvetica,sans-Serif" font-size="10.00">vector</text>
</a>
</g>
</g>
<!-- Node6&#45;&gt;Node9 -->
<g id="edge8" class="edge">
<title>Node6&#45;&gt;Node9</title>
<path fill="none" stroke="midnightblue" d="M453.09,-257.09C446.07,-247.3 437.14,-233.85 431,-221 409.65,-176.32 394.32,-119.76 387.3,-91.05"/>
<polygon fill="midnightblue" stroke="midnightblue" points="390.67,-90.09 384.94,-81.18 383.86,-91.72 390.67,-90.09"/>
</g>
<!-- Node10 -->
<g id="node10" class="node">
<title>Node10</title>
<g id="a_node10"><a xlink:href="linear__grid_8hpp.html" target="_top" xlink:title="Concepts and abstract implementations of linear (ie. contiguous storage) grids.">
<polygon fill="none" stroke="black" points="237,-190.5 237,-220.5 347,-220.5 347,-190.5 237,-190.5"/>
<text text-anchor="start" x="245" y="-208.5" font-family="Helvetica,sans-Serif" font-size="10.00">beluga/sensor/data</text>
<text text-anchor="middle" x="292" y="-197.5" font-family="Helvetica,sans-Serif" font-size="10.00">/linear_grid.hpp</text>
</a>
</g>
</g>
<!-- Node6&#45;&gt;Node10 -->
<g id="edge9" class="edge">
<title>Node6&#45;&gt;Node10</title>
<path fill="none" stroke="midnightblue" d="M426.68,-257.4C400.87,-247.64 366.34,-234.59 338.71,-224.15"/>
<polygon fill="midnightblue" stroke="midnightblue" points="339.84,-220.84 329.25,-220.58 337.37,-227.39 339.84,-220.84"/>
</g>
<!-- Node16 -->
<g id="node16" class="node">
<title>Node16</title>
<g id="a_node16"><a xlink:title=" ">
<polygon fill="none" stroke="#bfbfbf" points="394,-0.5 394,-19.5 552,-19.5 552,-0.5 394,-0.5"/>
<text text-anchor="middle" x="473" y="-7.5" font-family="Helvetica,sans-Serif" font-size="10.00">range/v3/view/transform.hpp</text>
</a>
</g>
</g>
<!-- Node6&#45;&gt;Node16 -->
<g id="edge25" class="edge">
<title>Node6&#45;&gt;Node16</title>
<path fill="none" stroke="midnightblue" d="M464.48,-257.49C465.99,-213.76 470.63,-79.7 472.35,-29.89"/>
<polygon fill="midnightblue" stroke="midnightblue" points="475.85,-29.74 472.7,-19.63 468.86,-29.5 475.85,-29.74"/>
</g>
<!-- Node17 -->
<g id="node17" class="node">
<title>Node17</title>
<g id="a_node17"><a xlink:title=" ">
<polygon fill="none" stroke="#bfbfbf" points="294.5,-0.5 294.5,-19.5 363.5,-19.5 363.5,-0.5 294.5,-0.5"/>
<text text-anchor="middle" x="329" y="-7.5" font-family="Helvetica,sans-Serif" font-size="10.00">Eigen/Core</text>
</a>
</g>
</g>
<!-- Node6&#45;&gt;Node17 -->
<g id="edge26" class="edge">
<title>Node6&#45;&gt;Node17</title>
<path fill="none" stroke="midnightblue" d="M462.43,-257.44C457.44,-214.85 440.79,-88.19 416,-56 404.38,-40.91 386.27,-30.41 369.58,-23.37"/>
<polygon fill="midnightblue" stroke="midnightblue" points="370.56,-20 359.97,-19.62 368.01,-26.52 370.56,-20"/>
</g>
<!-- Node18 -->
<g id="node18" class="node">
<title>Node18</title>
<g id="a_node18"><a xlink:title=" ">
<polygon fill="none" stroke="#bfbfbf" points="570.5,-196 570.5,-215 733.5,-215 733.5,-196 570.5,-196"/>
<text text-anchor="middle" x="652" y="-203" font-family="Helvetica,sans-Serif" font-size="10.00">range/v3/view/enumerate.hpp</text>
</a>
</g>
</g>
<!-- Node6&#45;&gt;Node18 -->
<g id="edge23" class="edge">
<title>Node6&#45;&gt;Node18</title>
<path fill="none" stroke="midnightblue" d="M504.79,-257.4C538.51,-245.74 585.84,-229.37 617.65,-218.38"/>
<polygon fill="midnightblue" stroke="midnightblue" points="619.09,-221.58 627.4,-215.01 616.8,-214.97 619.09,-221.58"/>
</g>
<!-- Node19 -->
<g id="node19" class="node">
<title>Node19</title>
<g id="a_node19"><a xlink:title=" ">
<polygon fill="none" stroke="#bfbfbf" points="751.5,-196 751.5,-215 882.5,-215 882.5,-196 751.5,-196"/>
<text text-anchor="middle" x="817" y="-203" font-family="Helvetica,sans-Serif" font-size="10.00">range/v3/view/filter.hpp</text>
</a>
</g>
</g>
<!-- Node6&#45;&gt;Node19 -->
<g id="edge24" class="edge">
<title>Node6&#45;&gt;Node19</title>
<path fill="none" stroke="midnightblue" d="M522.02,-261.25C578.49,-251.21 666.69,-235.38 743,-221 749.74,-219.73 756.82,-218.37 763.83,-217.01"/>
<polygon fill="midnightblue" stroke="midnightblue" points="764.83,-220.39 773.98,-215.04 763.49,-213.51 764.83,-220.39"/>
</g>
<!-- Node10&#45;&gt;Node7 -->
<g id="edge10" class="edge">
<title>Node10&#45;&gt;Node7</title>
<path fill="none" stroke="midnightblue" d="M252.45,-190.48C224.16,-180.41 185.2,-166.48 151,-154 148.9,-153.24 146.75,-152.44 144.57,-151.64"/>
<polygon fill="midnightblue" stroke="midnightblue" points="145.67,-148.32 135.08,-148.13 143.25,-154.88 145.67,-148.32"/>
</g>
<!-- Node10&#45;&gt;Node9 -->
<g id="edge12" class="edge">
<title>Node10&#45;&gt;Node9</title>
<path fill="none" stroke="midnightblue" d="M309.87,-190.45C321.01,-181.02 335.06,-167.83 345,-154 359.33,-134.05 370.4,-107.84 376.8,-90.59"/>
<polygon fill="midnightblue" stroke="midnightblue" points="380.11,-91.75 380.18,-81.15 373.52,-89.39 380.11,-91.75"/>
</g>
<!-- Node11 -->
<g id="node11" class="node">
<title>Node11</title>
<g id="a_node11"><a xlink:title=" ">
<polygon fill="none" stroke="#bfbfbf" points="81,-62 81,-81 137,-81 137,-62 81,-62"/>
<text text-anchor="middle" x="109" y="-69" font-family="Helvetica,sans-Serif" font-size="10.00">optional</text>
</a>
</g>
</g>
<!-- Node10&#45;&gt;Node11 -->
<g id="edge11" class="edge">
<title>Node10&#45;&gt;Node11</title>
<path fill="none" stroke="midnightblue" d="M252.76,-190.48C231.32,-181.79 204.96,-169.35 184,-154 158.64,-135.42 135.08,-107.33 121.37,-89.46"/>
<polygon fill="midnightblue" stroke="midnightblue" points="123.93,-87.05 115.13,-81.14 118.33,-91.24 123.93,-87.05"/>
</g>
<!-- Node12 -->
<g id="node12" class="node">
<title>Node12</title>
<g id="a_node12"><a xlink:href="dense__grid_8hpp.html" target="_top" xlink:title="Concepts and abstract implementations of dense grids.">
<polygon fill="none" stroke="black" points="193,-123.5 193,-153.5 303,-153.5 303,-123.5 193,-123.5"/>
<text text-anchor="start" x="201" y="-141.5" font-family="Helvetica,sans-Serif" font-size="10.00">beluga/sensor/data</text>
<text text-anchor="middle" x="248" y="-130.5" font-family="Helvetica,sans-Serif" font-size="10.00">/dense_grid.hpp</text>
</a>
</g>
</g>
<!-- Node10&#45;&gt;Node12 -->
<g id="edge13" class="edge">
<title>Node10&#45;&gt;Node12</title>
<path fill="none" stroke="midnightblue" d="M282.45,-190.4C276.86,-182.13 269.67,-171.51 263.3,-162.1"/>
<polygon fill="midnightblue" stroke="midnightblue" points="266.03,-159.9 257.53,-153.58 260.24,-163.82 266.03,-159.9"/>
</g>
<!-- Node10&#45;&gt;Node17 -->
<g id="edge22" class="edge">
<title>Node10&#45;&gt;Node17</title>
<path fill="none" stroke="midnightblue" d="M298.8,-190.24C303.25,-180.31 308.81,-166.62 312,-154 323.05,-110.31 326.97,-57.25 328.32,-29.68"/>
<polygon fill="midnightblue" stroke="midnightblue" points="331.82,-29.66 328.75,-19.52 324.83,-29.36 331.82,-29.66"/>
</g>
<!-- Node12&#45;&gt;Node9 -->
<g id="edge15" class="edge">
<title>Node12&#45;&gt;Node9</title>
<path fill="none" stroke="midnightblue" d="M277.29,-123.4C300.77,-112.09 333.44,-96.36 356.23,-85.39"/>
<polygon fill="midnightblue" stroke="midnightblue" points="357.84,-88.5 365.33,-81.01 354.8,-82.19 357.84,-88.5"/>
</g>
<!-- Node12&#45;&gt;Node11 -->
<g id="edge14" class="edge">
<title>Node12&#45;&gt;Node11</title>
<path fill="none" stroke="midnightblue" d="M217.84,-123.4C193.56,-112.04 159.72,-96.22 136.25,-85.24"/>
<polygon fill="midnightblue" stroke="midnightblue" points="137.73,-82.07 127.19,-81.01 134.77,-88.41 137.73,-82.07"/>
</g>
<!-- Node13 -->
<g id="node13" class="node">
<title>Node13</title>
<g id="a_node13"><a xlink:href="regular__grid_8hpp.html" target="_top" xlink:title="Concepts and abstract implementations of regular grids.">
<polygon fill="none" stroke="black" points="155,-56.5 155,-86.5 265,-86.5 265,-56.5 155,-56.5"/>
<text text-anchor="start" x="163" y="-74.5" font-family="Helvetica,sans-Serif" font-size="10.00">beluga/sensor/data</text>
<text text-anchor="middle" x="210" y="-63.5" font-family="Helvetica,sans-Serif" font-size="10.00">/regular_grid.hpp</text>
</a>
</g>
</g>
<!-- Node12&#45;&gt;Node13 -->
<g id="edge16" class="edge">
<title>Node12&#45;&gt;Node13</title>
<path fill="none" stroke="midnightblue" d="M239.75,-123.4C234.97,-115.22 228.84,-104.73 223.38,-95.39"/>
<polygon fill="midnightblue" stroke="midnightblue" points="226.3,-93.44 218.23,-86.58 220.25,-96.98 226.3,-93.44"/>
</g>
<!-- Node12&#45;&gt;Node17 -->
<g id="edge21" class="edge">
<title>Node12&#45;&gt;Node17</title>
<path fill="none" stroke="midnightblue" d="M256.98,-123.48C271.88,-100.21 301.68,-53.66 317.89,-28.36"/>
<polygon fill="midnightblue" stroke="midnightblue" points="320.93,-30.1 323.37,-19.79 315.03,-26.32 320.93,-30.1"/>
</g>
<!-- Node14 -->
<g id="node14" class="node">
<title>Node14</title>
<g id="a_node14"><a xlink:title=" ">
<polygon fill="none" stroke="#bfbfbf" points="86.5,-0.5 86.5,-19.5 133.5,-19.5 133.5,-0.5 86.5,-0.5"/>
<text text-anchor="middle" x="110" y="-7.5" font-family="Helvetica,sans-Serif" font-size="10.00">cmath</text>
</a>
</g>
</g>
<!-- Node13&#45;&gt;Node14 -->
<g id="edge17" class="edge">
<title>Node13&#45;&gt;Node14</title>
<path fill="none" stroke="midnightblue" d="M186.3,-56.4C170.27,-46.86 149.2,-34.32 133.26,-24.84"/>
<polygon fill="midnightblue" stroke="midnightblue" points="134.93,-21.76 124.55,-19.66 131.36,-27.78 134.93,-21.76"/>
</g>
<!-- Node15 -->
<g id="node15" class="node">
<title>Node15</title>
<g id="a_node15"><a xlink:href="ciabatta_8hpp_source.html" target="_top" xlink:title=" ">
<polygon fill="none" stroke="black" points="152,-0.5 152,-19.5 272,-19.5 272,-0.5 152,-0.5"/>
<text text-anchor="middle" x="212" y="-7.5" font-family="Helvetica,sans-Serif" font-size="10.00">ciabatta/ciabatta.hpp</text>
</a>
</g>
</g>
<!-- Node13&#45;&gt;Node15 -->
<g id="edge18" class="edge">
<title>Node13&#45;&gt;Node15</title>
<path fill="none" stroke="midnightblue" d="M210.47,-56.4C210.74,-48.47 211.08,-38.46 211.37,-29.86"/>
<polygon fill="midnightblue" stroke="midnightblue" points="214.87,-29.77 211.71,-19.66 207.87,-29.53 214.87,-29.77"/>
</g>
<!-- Node13&#45;&gt;Node16 -->
<g id="edge19" class="edge">
<title>Node13&#45;&gt;Node16</title>
<path fill="none" stroke="midnightblue" d="M265.13,-58.03C312.61,-47.29 380.4,-31.95 425.5,-21.75"/>
<polygon fill="midnightblue" stroke="midnightblue" points="426.35,-25.14 435.33,-19.52 424.8,-18.32 426.35,-25.14"/>
</g>
<!-- Node13&#45;&gt;Node17 -->
<g id="edge20" class="edge">
<title>Node13&#45;&gt;Node17</title>
<path fill="none" stroke="midnightblue" d="M238.2,-56.4C257.72,-46.64 283.53,-33.74 302.63,-24.18"/>
<polygon fill="midnightblue" stroke="midnightblue" points="304.31,-27.26 311.68,-19.66 301.17,-21 304.31,-27.26"/>
</g>
</g>
</svg>
