<?xml version="1.0" encoding="UTF-8" standalone="no"?>
<!DOCTYPE svg PUBLIC "-//W3C//DTD SVG 1.1//EN"
 "http://www.w3.org/Graphics/SVG/1.1/DTD/svg11.dtd">
<!-- Generated by graphviz version 2.43.0 (0)
 -->
<!-- Title: /home/runner/work/beluga/beluga/beluga/include/beluga/actions/normalize.hpp Pages: 1 -->
<!--zoomable 296 -->
<svg id="main" version="1.1" xmlns="http://www.w3.org/2000/svg" xmlns:xlink="http://www.w3.org/1999/xlink" xml:space="preserve" onload="init(evt)">
<style type="text/css"><![CDATA[
.edge:hover path { stroke: red; }
.edge:hover polygon { stroke: red; fill: red; }
]]></style>
<script type="text/javascript"><![CDATA[
var edges = document.getElementsByTagName('g');
if (edges && edges.length) {
  for (var i=0;i<edges.length;i++) {
    if (edges[i].id.substr(0,4)=='edge') {
      edges[i].setAttribute('class','edge');
    }
  }
}
]]></script>
        <defs>
                <circle id="rim" cx="0" cy="0" r="7"/>
                <circle id="rim2" cx="0" cy="0" r="3.5"/>
                <g id="zoomPlus">
                        <use xlink:href="#rim" fill="#404040">
                                <set attributeName="fill" to="#808080" begin="zoomplus.mouseover" end="zoomplus.mouseout"/>
                        </use>
                        <path d="M-4,0h8M0,-4v8" fill="none" stroke="white" stroke-width="1.5" pointer-events="none"/>
                </g>
                <g id="zoomMin">
                        <use xlink:href="#rim" fill="#404040">
                                <set attributeName="fill" to="#808080" begin="zoomminus.mouseover" end="zoomminus.mouseout"/>
                        </use>
                        <path d="M-4,0h8" fill="none" stroke="white" stroke-width="1.5" pointer-events="none"/>
                </g>
                <g id="dirArrow">
                        <path fill="none" stroke="white" stroke-width="1.5" d="M0,-3.0v7 M-2.5,-0.5L0,-3.0L2.5,-0.5"/>
                </g>
               <g id="resetDef">
                       <use xlink:href="#rim2" fill="#404040">
                               <set attributeName="fill" to="#808080" begin="reset.mouseover" end="reset.mouseout"/>
                       </use>
               </g>
        </defs>

<script type="text/javascript">
var viewWidth = 1231;
var viewHeight = 296;
var sectionId = 'dynsection-0';
</script>
<script xlink:href="svgpan.js"/>
<svg id="graph" class="graph">
<g id="viewport">
<title>/home/runner/work/beluga/beluga/beluga/include/beluga/actions/normalize.hpp</title>
<!-- Node1 -->
<g id="node1" class="node">
<title>Node1</title>
<g id="a_node1"><a xlink:title="Implementation of the normalize range adaptor object.">
<polygon fill="#bfbfbf" stroke="black" points="320,-246.5 320,-287.5 484,-287.5 484,-246.5 320,-246.5"/>
<text text-anchor="start" x="328" y="-275.5" font-family="Helvetica,sans-Serif" font-size="10.00">/home/runner/work/beluga</text>
<text text-anchor="start" x="328" y="-264.5" font-family="Helvetica,sans-Serif" font-size="10.00">/beluga/beluga/include</text>
<text text-anchor="middle" x="402" y="-253.5" font-family="Helvetica,sans-Serif" font-size="10.00">/beluga/actions/normalize.hpp</text>
</a>
</g>
</g>
<!-- Node2 -->
<g id="node2" class="node">
<title>Node2</title>
<g id="a_node2"><a xlink:title=" ">
<polygon fill="none" stroke="#bfbfbf" points="0,-185 0,-204 64,-204 64,-185 0,-185"/>
<text text-anchor="middle" x="32" y="-192" font-family="Helvetica,sans-Serif" font-size="10.00">algorithm</text>
</a>
</g>
</g>
<!-- Node1&#45;&gt;Node2 -->
<g id="edge1" class="edge">
<title>Node1&#45;&gt;Node2</title>
<path fill="none" stroke="midnightblue" d="M319.71,-255.98C252.66,-246.86 155.85,-231.53 73,-210 69.96,-209.21 66.82,-208.29 63.69,-207.31"/>
<polygon fill="midnightblue" stroke="midnightblue" points="64.51,-203.89 53.91,-204.03 62.28,-210.53 64.51,-203.89"/>
</g>
<!-- Node3 -->
<g id="node3" class="node">
<title>Node3</title>
<g id="a_node3"><a xlink:title=" ">
<polygon fill="none" stroke="#bfbfbf" points="82,-185 82,-204 146,-204 146,-185 82,-185"/>
<text text-anchor="middle" x="114" y="-192" font-family="Helvetica,sans-Serif" font-size="10.00">execution</text>
</a>
</g>
</g>
<!-- Node1&#45;&gt;Node3 -->
<g id="edge2" class="edge">
<title>Node1&#45;&gt;Node3</title>
<path fill="none" stroke="midnightblue" d="M319.9,-249.9C271.54,-239.8 209.38,-225.72 155,-210 152.21,-209.19 149.34,-208.3 146.46,-207.37"/>
<polygon fill="midnightblue" stroke="midnightblue" points="147.43,-204 136.83,-204.11 145.18,-210.63 147.43,-204"/>
</g>
<!-- Node4 -->
<g id="node4" class="node">
<title>Node4</title>
<g id="a_node4"><a xlink:title=" ">
<polygon fill="none" stroke="#bfbfbf" points="164,-185 164,-204 220,-204 220,-185 164,-185"/>
<text text-anchor="middle" x="192" y="-192" font-family="Helvetica,sans-Serif" font-size="10.00">optional</text>
</a>
</g>
</g>
<!-- Node1&#45;&gt;Node4 -->
<g id="edge3" class="edge">
<title>Node1&#45;&gt;Node4</title>
<path fill="none" stroke="midnightblue" d="M338.42,-246.43C305.59,-236.07 264.97,-222.86 229,-210 226.89,-209.25 224.72,-208.45 222.53,-207.63"/>
<polygon fill="midnightblue" stroke="midnightblue" points="223.64,-204.31 213.05,-204 221.14,-210.85 223.64,-204.31"/>
</g>
<!-- Node5 -->
<g id="node5" class="node">
<title>Node5</title>
<g id="a_node5"><a xlink:title=" ">
<polygon fill="none" stroke="#bfbfbf" points="238,-185 238,-204 384,-204 384,-185 238,-185"/>
<text text-anchor="middle" x="311" y="-192" font-family="Helvetica,sans-Serif" font-size="10.00">range/v3/action/action.hpp</text>
</a>
</g>
</g>
<!-- Node1&#45;&gt;Node5 -->
<g id="edge4" class="edge">
<title>Node1&#45;&gt;Node5</title>
<path fill="none" stroke="midnightblue" d="M376.65,-246.36C361.98,-235 343.81,-220.92 330.31,-210.46"/>
<polygon fill="midnightblue" stroke="midnightblue" points="332.24,-207.53 322.2,-204.17 327.96,-213.06 332.24,-207.53"/>
</g>
<!-- Node6 -->
<g id="node6" class="node">
<title>Node6</title>
<g id="a_node6"><a xlink:title=" ">
<polygon fill="none" stroke="#bfbfbf" points="402.5,-185 402.5,-204 585.5,-204 585.5,-185 402.5,-185"/>
<text text-anchor="middle" x="494" y="-192" font-family="Helvetica,sans-Serif" font-size="10.00">range/v3/numeric/accumulate.hpp</text>
</a>
</g>
</g>
<!-- Node1&#45;&gt;Node6 -->
<g id="edge5" class="edge">
<title>Node1&#45;&gt;Node6</title>
<path fill="none" stroke="midnightblue" d="M427.63,-246.36C442.46,-235 460.82,-220.92 474.48,-210.46"/>
<polygon fill="midnightblue" stroke="midnightblue" points="476.87,-213.03 482.68,-204.17 472.62,-207.48 476.87,-213.03"/>
</g>
<!-- Node7 -->
<g id="node7" class="node">
<title>Node7</title>
<g id="a_node7"><a xlink:title=" ">
<polygon fill="none" stroke="#bfbfbf" points="604,-185 604,-204 756,-204 756,-185 604,-185"/>
<text text-anchor="middle" x="680" y="-192" font-family="Helvetica,sans-Serif" font-size="10.00">range/v3/view/common.hpp</text>
</a>
</g>
</g>
<!-- Node1&#45;&gt;Node7 -->
<g id="edge6" class="edge">
<title>Node1&#45;&gt;Node7</title>
<path fill="none" stroke="midnightblue" d="M479.07,-246.46C529.84,-233.58 594.46,-217.19 636.51,-206.53"/>
<polygon fill="midnightblue" stroke="midnightblue" points="637.6,-209.86 646.43,-204.01 635.88,-203.08 637.6,-209.86"/>
</g>
<!-- Node8 -->
<g id="node8" class="node">
<title>Node8</title>
<g id="a_node8"><a xlink:href="particle__traits_8hpp.html" target="_top" xlink:title="Implementation of traits for particle types, see the Particle named requirements.">
<polygon fill="none" stroke="black" points="774,-179.5 774,-209.5 882,-209.5 882,-179.5 774,-179.5"/>
<text text-anchor="start" x="782" y="-197.5" font-family="Helvetica,sans-Serif" font-size="10.00">beluga/type_traits</text>
<text text-anchor="middle" x="828" y="-186.5" font-family="Helvetica,sans-Serif" font-size="10.00">/particle_traits.hpp</text>
</a>
</g>
</g>
<!-- Node1&#45;&gt;Node8 -->
<g id="edge7" class="edge">
<title>Node1&#45;&gt;Node8</title>
<path fill="none" stroke="midnightblue" d="M484.11,-255.08C555.57,-245.18 662.12,-229.44 763.92,-210.13"/>
<polygon fill="midnightblue" stroke="midnightblue" points="764.59,-213.56 773.76,-208.25 763.28,-206.69 764.59,-213.56"/>
</g>
<!-- Node19 -->
<g id="node19" class="node">
<title>Node19</title>
<g id="a_node19"><a xlink:href="particles_8hpp.html" target="_top" xlink:title="Implementation of views related to particle ranges.">
<polygon fill="none" stroke="black" points="902.5,-185 902.5,-204 1049.5,-204 1049.5,-185 902.5,-185"/>
<text text-anchor="middle" x="976" y="-192" font-family="Helvetica,sans-Serif" font-size="10.00">beluga/views/particles.hpp</text>
</a>
</g>
</g>
<!-- Node1&#45;&gt;Node19 -->
<g id="edge22" class="edge">
<title>Node1&#45;&gt;Node19</title>
<path fill="none" stroke="midnightblue" d="M484.37,-257.96C581.71,-248.14 748.45,-230.3 891,-210 900.03,-208.71 909.58,-207.22 918.89,-205.68"/>
<polygon fill="midnightblue" stroke="midnightblue" points="919.58,-209.12 928.86,-204.02 918.42,-202.21 919.58,-209.12"/>
</g>
<!-- Node9 -->
<g id="node9" class="node">
<title>Node9</title>
<g id="a_node9"><a xlink:href="primitives_8hpp.html" target="_top" xlink:title="Implementation of library primitives to abstract member access.">
<polygon fill="none" stroke="black" points="914.5,-123.5 914.5,-142.5 1037.5,-142.5 1037.5,-123.5 914.5,-123.5"/>
<text text-anchor="middle" x="976" y="-130.5" font-family="Helvetica,sans-Serif" font-size="10.00">beluga/primitives.hpp</text>
</a>
</g>
</g>
<!-- Node8&#45;&gt;Node9 -->
<g id="edge8" class="edge">
<title>Node8&#45;&gt;Node9</title>
<path fill="none" stroke="midnightblue" d="M863.07,-179.4C888.02,-169.37 921.21,-156.03 945.14,-146.4"/>
<polygon fill="midnightblue" stroke="midnightblue" points="946.49,-149.64 954.46,-142.66 943.88,-143.14 946.49,-149.64"/>
</g>
<!-- Node15 -->
<g id="node15" class="node">
<title>Node15</title>
<g id="a_node15"><a xlink:href="tuple__traits_8hpp.html" target="_top" xlink:title="Implementation of traits for tuple&#45;like types.">
<polygon fill="none" stroke="black" points="714.5,-56.5 714.5,-86.5 819.5,-86.5 819.5,-56.5 714.5,-56.5"/>
<text text-anchor="start" x="722.5" y="-74.5" font-family="Helvetica,sans-Serif" font-size="10.00">beluga/type_traits</text>
<text text-anchor="middle" x="767" y="-63.5" font-family="Helvetica,sans-Serif" font-size="10.00">/tuple_traits.hpp</text>
</a>
</g>
</g>
<!-- Node8&#45;&gt;Node15 -->
<g id="edge20" class="edge">
<title>Node8&#45;&gt;Node15</title>
<path fill="none" stroke="midnightblue" d="M789.34,-179.37C773.23,-171.34 756.17,-159.52 747,-143 738.8,-128.22 744.5,-109.78 751.88,-95.47"/>
<polygon fill="midnightblue" stroke="midnightblue" points="754.94,-97.17 756.85,-86.75 748.86,-93.71 754.94,-97.17"/>
</g>
<!-- Node18 -->
<g id="node18" class="node">
<title>Node18</title>
<g id="a_node18"><a xlink:title=" ">
<polygon fill="none" stroke="#bfbfbf" points="756,-123.5 756,-142.5 896,-142.5 896,-123.5 756,-123.5"/>
<text text-anchor="middle" x="826" y="-130.5" font-family="Helvetica,sans-Serif" font-size="10.00">range/v3/range/traits.hpp</text>
</a>
</g>
</g>
<!-- Node8&#45;&gt;Node18 -->
<g id="edge21" class="edge">
<title>Node8&#45;&gt;Node18</title>
<path fill="none" stroke="midnightblue" d="M827.53,-179.4C827.26,-171.47 826.92,-161.46 826.63,-152.86"/>
<polygon fill="midnightblue" stroke="midnightblue" points="830.13,-152.53 826.29,-142.66 823.13,-152.77 830.13,-152.53"/>
</g>
<!-- Node10 -->
<g id="node10" class="node">
<title>Node10</title>
<g id="a_node10"><a xlink:title=" ">
<polygon fill="none" stroke="#bfbfbf" points="817.5,-0.5 817.5,-19.5 858.5,-19.5 858.5,-0.5 817.5,-0.5"/>
<text text-anchor="middle" x="838" y="-7.5" font-family="Helvetica,sans-Serif" font-size="10.00">tuple</text>
</a>
</g>
</g>
<!-- Node9&#45;&gt;Node10 -->
<g id="edge9" class="edge">
<title>Node9&#45;&gt;Node10</title>
<path fill="none" stroke="midnightblue" d="M934.68,-123.43C912.1,-116.85 885.14,-105.63 867,-87 851.79,-71.38 844.38,-46.96 840.89,-30.04"/>
<polygon fill="midnightblue" stroke="midnightblue" points="844.25,-28.95 839.06,-19.72 837.36,-30.17 844.25,-28.95"/>
</g>
<!-- Node11 -->
<g id="node11" class="node">
<title>Node11</title>
<g id="a_node11"><a xlink:title=" ">
<polygon fill="none" stroke="#bfbfbf" points="991.5,-0.5 991.5,-19.5 1060.5,-19.5 1060.5,-0.5 991.5,-0.5"/>
<text text-anchor="middle" x="1026" y="-7.5" font-family="Helvetica,sans-Serif" font-size="10.00">type_traits</text>
</a>
</g>
</g>
<!-- Node9&#45;&gt;Node11 -->
<g id="edge10" class="edge">
<title>Node9&#45;&gt;Node11</title>
<path fill="none" stroke="midnightblue" d="M983.44,-123.27C990.47,-114.6 1000.83,-100.66 1007,-87 1015.38,-68.45 1020.45,-45.61 1023.22,-29.84"/>
<polygon fill="midnightblue" stroke="midnightblue" points="1026.71,-30.2 1024.85,-19.77 1019.8,-29.08 1026.71,-30.2"/>
</g>
<!-- Node12 -->
<g id="node12" class="node">
<title>Node12</title>
<g id="a_node12"><a xlink:href="strongly__typed__numeric_8hpp.html" target="_top" xlink:title="Implementation of a strongly typed numeric helper.">
<polygon fill="none" stroke="black" points="1054,-56.5 1054,-86.5 1212,-86.5 1212,-56.5 1054,-56.5"/>
<text text-anchor="start" x="1062" y="-74.5" font-family="Helvetica,sans-Serif" font-size="10.00">beluga/type_traits</text>
<text text-anchor="middle" x="1133" y="-63.5" font-family="Helvetica,sans-Serif" font-size="10.00">/strongly_typed_numeric.hpp</text>
</a>
</g>
</g>
<!-- Node9&#45;&gt;Node12 -->
<g id="edge11" class="edge">
<title>Node9&#45;&gt;Node12</title>
<path fill="none" stroke="midnightblue" d="M998.49,-123.48C1021.35,-114.81 1057.41,-101.15 1086.45,-90.14"/>
<polygon fill="midnightblue" stroke="midnightblue" points="1087.89,-93.34 1096,-86.52 1085.41,-86.79 1087.89,-93.34"/>
</g>
<!-- Node9&#45;&gt;Node15 -->
<g id="edge15" class="edge">
<title>Node9&#45;&gt;Node15</title>
<path fill="none" stroke="midnightblue" d="M946.06,-123.48C914.84,-114.59 865.1,-100.43 825.96,-89.29"/>
<polygon fill="midnightblue" stroke="midnightblue" points="826.83,-85.89 816.26,-86.52 824.92,-92.63 826.83,-85.89"/>
</g>
<!-- Node17 -->
<g id="node17" class="node">
<title>Node17</title>
<g id="a_node17"><a xlink:href="forward__like_8hpp_source.html" target="_top" xlink:title=" ">
<polygon fill="none" stroke="black" points="876,-56.5 876,-86.5 998,-86.5 998,-56.5 876,-56.5"/>
<text text-anchor="start" x="884" y="-74.5" font-family="Helvetica,sans-Serif" font-size="10.00">beluga/utility/forward</text>
<text text-anchor="middle" x="937" y="-63.5" font-family="Helvetica,sans-Serif" font-size="10.00">_like.hpp</text>
</a>
</g>
</g>
<!-- Node9&#45;&gt;Node17 -->
<g id="edge19" class="edge">
<title>Node9&#45;&gt;Node17</title>
<path fill="none" stroke="midnightblue" d="M970.41,-123.48C965.57,-116.09 958.35,-105.08 951.86,-95.17"/>
<polygon fill="midnightblue" stroke="midnightblue" points="954.6,-92.97 946.19,-86.52 948.75,-96.81 954.6,-92.97"/>
</g>
<!-- Node12&#45;&gt;Node11 -->
<g id="edge14" class="edge">
<title>Node12&#45;&gt;Node11</title>
<path fill="none" stroke="midnightblue" d="M1107.64,-56.4C1090.33,-46.77 1067.52,-34.09 1050.42,-24.58"/>
<polygon fill="midnightblue" stroke="midnightblue" points="1052.01,-21.46 1041.57,-19.66 1048.61,-27.58 1052.01,-21.46"/>
</g>
<!-- Node13 -->
<g id="node13" class="node">
<title>Node13</title>
<g id="a_node13"><a xlink:title=" ">
<polygon fill="none" stroke="#bfbfbf" points="1157.5,-0.5 1157.5,-19.5 1222.5,-19.5 1222.5,-0.5 1157.5,-0.5"/>
<text text-anchor="middle" x="1190" y="-7.5" font-family="Helvetica,sans-Serif" font-size="10.00">functional</text>
</a>
</g>
</g>
<!-- Node12&#45;&gt;Node13 -->
<g id="edge12" class="edge">
<title>Node12&#45;&gt;Node13</title>
<path fill="none" stroke="midnightblue" d="M1146.51,-56.4C1154.96,-47.58 1165.88,-36.18 1174.66,-27.02"/>
<polygon fill="midnightblue" stroke="midnightblue" points="1177.32,-29.3 1181.71,-19.66 1172.26,-24.46 1177.32,-29.3"/>
</g>
<!-- Node14 -->
<g id="node14" class="node">
<title>Node14</title>
<g id="a_node14"><a xlink:title=" ">
<polygon fill="none" stroke="#bfbfbf" points="1095,-0.5 1095,-19.5 1139,-19.5 1139,-0.5 1095,-0.5"/>
<text text-anchor="middle" x="1117" y="-7.5" font-family="Helvetica,sans-Serif" font-size="10.00">limits</text>
</a>
</g>
</g>
<!-- Node12&#45;&gt;Node14 -->
<g id="edge13" class="edge">
<title>Node12&#45;&gt;Node14</title>
<path fill="none" stroke="midnightblue" d="M1129.21,-56.4C1127.05,-48.38 1124.32,-38.23 1121.99,-29.57"/>
<polygon fill="midnightblue" stroke="midnightblue" points="1125.3,-28.41 1119.33,-19.66 1118.55,-30.22 1125.3,-28.41"/>
</g>
<!-- Node15&#45;&gt;Node10 -->
<g id="edge16" class="edge">
<title>Node15&#45;&gt;Node10</title>
<path fill="none" stroke="midnightblue" d="M783.83,-56.4C794.67,-47.31 808.78,-35.49 819.87,-26.19"/>
<polygon fill="midnightblue" stroke="midnightblue" points="822.25,-28.76 827.67,-19.66 817.76,-23.4 822.25,-28.76"/>
</g>
<!-- Node15&#45;&gt;Node11 -->
<g id="edge17" class="edge">
<title>Node15&#45;&gt;Node11</title>
<path fill="none" stroke="midnightblue" d="M819.72,-58.39C867.3,-47.46 936.52,-31.56 981.4,-21.25"/>
<polygon fill="midnightblue" stroke="midnightblue" points="982.19,-24.66 991.15,-19.01 980.62,-17.83 982.19,-24.66"/>
</g>
<!-- Node16 -->
<g id="node16" class="node">
<title>Node16</title>
<g id="a_node16"><a xlink:title=" ">
<polygon fill="none" stroke="#bfbfbf" points="744.5,-0.5 744.5,-19.5 789.5,-19.5 789.5,-0.5 744.5,-0.5"/>
<text text-anchor="middle" x="767" y="-7.5" font-family="Helvetica,sans-Serif" font-size="10.00">utility</text>
</a>
</g>
</g>
<!-- Node15&#45;&gt;Node16 -->
<g id="edge18" class="edge">
<title>Node15&#45;&gt;Node16</title>
<path fill="none" stroke="midnightblue" d="M767,-56.4C767,-48.47 767,-38.46 767,-29.86"/>
<polygon fill="midnightblue" stroke="midnightblue" points="770.5,-29.66 767,-19.66 763.5,-29.66 770.5,-29.66"/>
</g>
<!-- Node19&#45;&gt;Node9 -->
<g id="edge23" class="edge">
<title>Node19&#45;&gt;Node9</title>
<path fill="none" stroke="midnightblue" d="M976,-184.98C976,-176.58 976,-163.48 976,-152.66"/>
<polygon fill="midnightblue" stroke="midnightblue" points="979.5,-152.51 976,-142.51 972.5,-152.51 979.5,-152.51"/>
</g>
<!-- Node20 -->
<g id="node20" class="node">
<title>Node20</title>
<g id="a_node20"><a xlink:title=" ">
<polygon fill="none" stroke="#bfbfbf" points="1056,-123.5 1056,-142.5 1214,-142.5 1214,-123.5 1056,-123.5"/>
<text text-anchor="middle" x="1135" y="-130.5" font-family="Helvetica,sans-Serif" font-size="10.00">range/v3/view/transform.hpp</text>
</a>
</g>
</g>
<!-- Node19&#45;&gt;Node20 -->
<g id="edge24" class="edge">
<title>Node19&#45;&gt;Node20</title>
<path fill="none" stroke="midnightblue" d="M998.78,-184.98C1026.05,-174.77 1071.91,-157.61 1102.8,-146.05"/>
<polygon fill="midnightblue" stroke="midnightblue" points="1104.12,-149.29 1112.26,-142.51 1101.67,-142.74 1104.12,-149.29"/>
</g>
</g>
</svg>
        <g id="navigator" transform="translate(0 0)" fill="#404254">
                <rect fill="#f2f5e9" fill-opacity="0.5" stroke="#606060" stroke-width=".5" x="0" y="0" width="60" height="60"/>
                <use id="zoomplus" xlink:href="#zoomPlus" x="17" y="9" onmousedown="handleZoom(evt,'in')"/>
                <use id="zoomminus" xlink:href="#zoomMin" x="42" y="9" onmousedown="handleZoom(evt,'out')"/>
                <use id="reset" xlink:href="#resetDef" x="30" y="36" onmousedown="handleReset()"/>
                <g id="arrowUp" xlink:href="#dirArrow" transform="translate(30 24)" onmousedown="handlePan(0,-1)">
                  <use xlink:href="#rim" fill="#404040">
                        <set attributeName="fill" to="#808080" begin="arrowUp.mouseover" end="arrowUp.mouseout"/>
                  </use>
                  <path fill="none" stroke="white" stroke-width="1.5" d="M0,-3.0v7 M-2.5,-0.5L0,-3.0L2.5,-0.5"/>
                </g>
                <g id="arrowRight" xlink:href="#dirArrow" transform="rotate(90) translate(36 -43)" onmousedown="handlePan(1,0)">
                  <use xlink:href="#rim" fill="#404040">
                        <set attributeName="fill" to="#808080" begin="arrowRight.mouseover" end="arrowRight.mouseout"/>
                  </use>
                  <path fill="none" stroke="white" stroke-width="1.5" d="M0,-3.0v7 M-2.5,-0.5L0,-3.0L2.5,-0.5"/>
                </g>
                <g id="arrowDown" xlink:href="#dirArrow" transform="rotate(180) translate(-30 -48)" onmousedown="handlePan(0,1)">
                  <use xlink:href="#rim" fill="#404040">
                        <set attributeName="fill" to="#808080" begin="arrowDown.mouseover" end="arrowDown.mouseout"/>
                  </use>
                  <path fill="none" stroke="white" stroke-width="1.5" d="M0,-3.0v7 M-2.5,-0.5L0,-3.0L2.5,-0.5"/>
                </g>
                <g id="arrowLeft" xlink:href="#dirArrow" transform="rotate(270) translate(-36 17)" onmousedown="handlePan(-1,0)">
                  <use xlink:href="#rim" fill="#404040">
                        <set attributeName="fill" to="#808080" begin="arrowLeft.mouseover" end="arrowLeft.mouseout"/>
                  </use>
                  <path fill="none" stroke="white" stroke-width="1.5" d="M0,-3.0v7 M-2.5,-0.5L0,-3.0L2.5,-0.5"/>
                </g>
        </g>
        <svg viewBox="0 0 15 15" width="100%" height="30px" preserveAspectRatio="xMaxYMin meet">
         <g id="arrow_out" transform="scale(0.3 0.3)">
          <a xlink:href="normalize_8hpp__incl_org.svg" target="_base">
           <rect id="button" ry="5" rx="5" y="6" x="6" height="38" width="38"
                fill="#f2f5e9" fill-opacity="0.5" stroke="#606060" stroke-width="1.0"/>
           <path id="arrow"
             d="M 11.500037,31.436501 C 11.940474,20.09759 22.043105,11.32322 32.158766,21.979434 L 37.068811,17.246167 C 37.068811,17.246167 37.088388,32 37.088388,32 L 22.160133,31.978069 C 22.160133,31.978069 26.997745,27.140456 26.997745,27.140456 C 18.528582,18.264221 13.291696,25.230495 11.500037,31.436501 z"
             style="fill:#404040;"/>
          </a>
         </g>
        </svg>
</svg>
