<?xml version="1.0" encoding="UTF-8" standalone="no"?>
<!DOCTYPE svg PUBLIC "-//W3C//DTD SVG 1.1//EN"
 "http://www.w3.org/Graphics/SVG/1.1/DTD/svg11.dtd">
<!-- Generated by graphviz version 2.43.0 (0)
 -->
<!-- Title: /home/runner/work/beluga/beluga/beluga/include/beluga/sensor/data/occupancy_grid.hpp Pages: 1 -->
<svg width="328pt" height="384pt"
 viewBox="0.00 0.00 327.50 384.00" xmlns="http://www.w3.org/2000/svg" xmlns:xlink="http://www.w3.org/1999/xlink">
<g id="graph0" class="graph" transform="scale(1 1) rotate(0) translate(4 380)">
<title>/home/runner/work/beluga/beluga/beluga/include/beluga/sensor/data/occupancy_grid.hpp</title>
<!-- Node1 -->
<g id="node1" class="node">
<title>Node1</title>
<g id="a_node1"><a xlink:title="Concepts and abstract implementations of occupancy grids.">
<polygon fill="#bfbfbf" stroke="black" points="78.5,-323.5 78.5,-375.5 245.5,-375.5 245.5,-323.5 78.5,-323.5"/>
<text text-anchor="start" x="86.5" y="-363.5" font-family="Helvetica,sans-Serif" font-size="10.00">/home/runner/work/beluga</text>
<text text-anchor="start" x="86.5" y="-352.5" font-family="Helvetica,sans-Serif" font-size="10.00">/beluga/beluga/include</text>
<text text-anchor="start" x="86.5" y="-341.5" font-family="Helvetica,sans-Serif" font-size="10.00">/beluga/sensor/data/occupancy</text>
<text text-anchor="middle" x="162" y="-330.5" font-family="Helvetica,sans-Serif" font-size="10.00">_grid.hpp</text>
</a>
</g>
</g>
<!-- Node2 -->
<g id="node2" class="node">
<title>Node2</title>
<g id="a_node2"><a xlink:href="multivariate__uniform__distribution_8hpp.html" target="_top" xlink:title="Implementation of a multivariate uniform distribution for SE(2) and SE(3) spaces.">
<polygon fill="none" stroke="black" points="0,-234.5 0,-286.5 156,-286.5 156,-234.5 0,-234.5"/>
<text text-anchor="start" x="8" y="-274.5" font-family="Helvetica,sans-Serif" font-size="10.00">/home/runner/work/beluga</text>
<text text-anchor="start" x="8" y="-263.5" font-family="Helvetica,sans-Serif" font-size="10.00">/beluga/beluga/include</text>
<text text-anchor="start" x="8" y="-252.5" font-family="Helvetica,sans-Serif" font-size="10.00">/beluga/random/multivariate</text>
<text text-anchor="middle" x="78" y="-241.5" font-family="Helvetica,sans-Serif" font-size="10.00">_uniform_distribution.hpp</text>
</a>
</g>
</g>
<!-- Node1&#45;&gt;Node2 -->
<g id="edge1" class="edge">
<title>Node1&#45;&gt;Node2</title>
<path fill="none" stroke="midnightblue" d="M130.69,-316.08C121.29,-306.34 111.12,-295.8 102.24,-286.61"/>
<polygon fill="midnightblue" stroke="midnightblue" points="128.24,-318.57 137.7,-323.34 133.28,-313.71 128.24,-318.57"/>
</g>
<!-- Node6 -->
<g id="node6" class="node">
<title>Node6</title>
<g id="a_node6"><a xlink:href="likelihood__field__model_8hpp.html" target="_top" xlink:title="Implementation of a likelihood field sensor model for range finders.">
<polygon fill="none" stroke="black" points="174.5,-234.5 174.5,-286.5 319.5,-286.5 319.5,-234.5 174.5,-234.5"/>
<text text-anchor="start" x="182.5" y="-274.5" font-family="Helvetica,sans-Serif" font-size="10.00">/home/runner/work/beluga</text>
<text text-anchor="start" x="182.5" y="-263.5" font-family="Helvetica,sans-Serif" font-size="10.00">/beluga/beluga/include</text>
<text text-anchor="start" x="182.5" y="-252.5" font-family="Helvetica,sans-Serif" font-size="10.00">/beluga/sensor/likelihood</text>
<text text-anchor="middle" x="247" y="-241.5" font-family="Helvetica,sans-Serif" font-size="10.00">_field_model.hpp</text>
</a>
</g>
</g>
<!-- Node1&#45;&gt;Node6 -->
<g id="edge5" class="edge">
<title>Node1&#45;&gt;Node6</title>
<path fill="none" stroke="midnightblue" d="M193.68,-316.08C203.2,-306.34 213.49,-295.8 222.47,-286.61"/>
<polygon fill="midnightblue" stroke="midnightblue" points="191.07,-313.74 186.59,-323.34 196.08,-318.63 191.07,-313.74"/>
</g>
<!-- Node3 -->
<g id="node3" class="node">
<title>Node3</title>
<g id="a_node3"><a xlink:href="random_8hpp.html" target="_top" xlink:title="Includes all Beluga random distributions.">
<polygon fill="none" stroke="black" points="8.5,-156.5 8.5,-197.5 153.5,-197.5 153.5,-156.5 8.5,-156.5"/>
<text text-anchor="start" x="16.5" y="-185.5" font-family="Helvetica,sans-Serif" font-size="10.00">/home/runner/work/beluga</text>
<text text-anchor="start" x="16.5" y="-174.5" font-family="Helvetica,sans-Serif" font-size="10.00">/beluga/beluga/include</text>
<text text-anchor="middle" x="81" y="-163.5" font-family="Helvetica,sans-Serif" font-size="10.00">/beluga/random.hpp</text>
</a>
</g>
</g>
<!-- Node2&#45;&gt;Node3 -->
<g id="edge2" class="edge">
<title>Node2&#45;&gt;Node3</title>
<path fill="none" stroke="midnightblue" d="M79.3,-224.15C79.64,-215.05 79.98,-205.6 80.28,-197.63"/>
<polygon fill="midnightblue" stroke="midnightblue" points="75.8,-224.04 78.93,-234.16 82.8,-224.3 75.8,-224.04"/>
</g>
<!-- Node4 -->
<g id="node4" class="node">
<title>Node4</title>
<g id="a_node4"><a xlink:href="beluga_8hpp.html" target="_top" xlink:title="Includes all the Beluga API.">
<polygon fill="none" stroke="black" points="89.5,-78.5 89.5,-119.5 234.5,-119.5 234.5,-78.5 89.5,-78.5"/>
<text text-anchor="start" x="97.5" y="-107.5" font-family="Helvetica,sans-Serif" font-size="10.00">/home/runner/work/beluga</text>
<text text-anchor="start" x="97.5" y="-96.5" font-family="Helvetica,sans-Serif" font-size="10.00">/beluga/beluga/include</text>
<text text-anchor="middle" x="162" y="-85.5" font-family="Helvetica,sans-Serif" font-size="10.00">/beluga/beluga.hpp</text>
</a>
</g>
</g>
<!-- Node3&#45;&gt;Node4 -->
<g id="edge3" class="edge">
<title>Node3&#45;&gt;Node4</title>
<path fill="none" stroke="midnightblue" d="M109.25,-149.49C119.76,-139.63 131.49,-128.63 141.21,-119.51"/>
<polygon fill="midnightblue" stroke="midnightblue" points="106.76,-147.03 101.86,-156.43 111.55,-152.14 106.76,-147.03"/>
</g>
<!-- Node5 -->
<g id="node5" class="node">
<title>Node5</title>
<g id="a_node5"><a xlink:href="amcl__core_8hpp_source.html" target="_top" xlink:title=" ">
<polygon fill="none" stroke="black" points="73.5,-0.5 73.5,-41.5 250.5,-41.5 250.5,-0.5 73.5,-0.5"/>
<text text-anchor="start" x="81.5" y="-29.5" font-family="Helvetica,sans-Serif" font-size="10.00">/home/runner/work/beluga</text>
<text text-anchor="start" x="81.5" y="-18.5" font-family="Helvetica,sans-Serif" font-size="10.00">/beluga/beluga/include</text>
<text text-anchor="middle" x="162" y="-7.5" font-family="Helvetica,sans-Serif" font-size="10.00">/beluga/algorithm/amcl_core.hpp</text>
</a>
</g>
</g>
<!-- Node4&#45;&gt;Node5 -->
<g id="edge4" class="edge">
<title>Node4&#45;&gt;Node5</title>
<path fill="none" stroke="midnightblue" d="M162,-68.3C162,-59.3 162,-49.65 162,-41.51"/>
<polygon fill="midnightblue" stroke="midnightblue" points="158.5,-68.43 162,-78.43 165.5,-68.43 158.5,-68.43"/>
</g>
<!-- Node7 -->
<g id="node7" class="node">
<title>Node7</title>
<g id="a_node7"><a xlink:href="sensor_8hpp.html" target="_top" xlink:title="Includes all Beluga sensor models and their interfaces.">
<polygon fill="none" stroke="black" points="172.5,-156.5 172.5,-197.5 317.5,-197.5 317.5,-156.5 172.5,-156.5"/>
<text text-anchor="start" x="180.5" y="-185.5" font-family="Helvetica,sans-Serif" font-size="10.00">/home/runner/work/beluga</text>
<text text-anchor="start" x="180.5" y="-174.5" font-family="Helvetica,sans-Serif" font-size="10.00">/beluga/beluga/include</text>
<text text-anchor="middle" x="245" y="-163.5" font-family="Helvetica,sans-Serif" font-size="10.00">/beluga/sensor.hpp</text>
</a>
</g>
</g>
<!-- Node6&#45;&gt;Node7 -->
<g id="edge6" class="edge">
<title>Node6&#45;&gt;Node7</title>
<path fill="none" stroke="midnightblue" d="M246.13,-224.15C245.91,-215.05 245.68,-205.6 245.48,-197.63"/>
<polygon fill="midnightblue" stroke="midnightblue" points="242.63,-224.25 246.38,-234.16 249.63,-224.08 242.63,-224.25"/>
</g>
<!-- Node7&#45;&gt;Node4 -->
<g id="edge7" class="edge">
<title>Node7&#45;&gt;Node4</title>
<path fill="none" stroke="midnightblue" d="M216.05,-149.49C205.28,-139.63 193.26,-128.63 183.3,-119.51"/>
<polygon fill="midnightblue" stroke="midnightblue" points="213.89,-152.26 223.63,-156.43 218.61,-147.09 213.89,-152.26"/>
</g>
</g>
</svg>
