<?xml version="1.0" encoding="UTF-8" standalone="no"?>
<!DOCTYPE svg PUBLIC "-//W3C//DTD SVG 1.1//EN"
 "http://www.w3.org/Graphics/SVG/1.1/DTD/svg11.dtd">
<!-- Generated by graphviz version 2.43.0 (0)
 -->
<!-- Title: /home/runner/work/beluga/beluga/beluga/include/beluga/sensor/data/occupancy_grid.hpp Pages: 1 -->
<svg width="957pt" height="374pt"
 viewBox="0.00 0.00 957.00 374.00" xmlns="http://www.w3.org/2000/svg" xmlns:xlink="http://www.w3.org/1999/xlink">
<g id="graph0" class="graph" transform="scale(1 1) rotate(0) translate(4 370)">
<title>/home/runner/work/beluga/beluga/beluga/include/beluga/sensor/data/occupancy_grid.hpp</title>
<!-- Node1 -->
<g id="node1" class="node">
<title>Node1</title>
<g id="a_node1"><a xlink:title="Concepts and abstract implementations of occupancy grids.">
<polygon fill="#bfbfbf" stroke="black" points="447,-313.5 447,-365.5 614,-365.5 614,-313.5 447,-313.5"/>
<text text-anchor="start" x="455" y="-353.5" font-family="Helvetica,sans-Serif" font-size="10.00">/home/runner/work/beluga</text>
<text text-anchor="start" x="455" y="-342.5" font-family="Helvetica,sans-Serif" font-size="10.00">/beluga/beluga/include</text>
<text text-anchor="start" x="455" y="-331.5" font-family="Helvetica,sans-Serif" font-size="10.00">/beluga/sensor/data/occupancy</text>
<text text-anchor="middle" x="530.5" y="-320.5" font-family="Helvetica,sans-Serif" font-size="10.00">_grid.hpp</text>
</a>
</g>
</g>
<!-- Node2 -->
<g id="node2" class="node">
<title>Node2</title>
<g id="a_node2"><a xlink:title=" ">
<polygon fill="none" stroke="#bfbfbf" points="146.5,-185 146.5,-204 196.5,-204 196.5,-185 146.5,-185"/>
<text text-anchor="middle" x="171.5" y="-192" font-family="Helvetica,sans-Serif" font-size="10.00">cstdint</text>
</a>
</g>
</g>
<!-- Node1&#45;&gt;Node2 -->
<g id="edge1" class="edge">
<title>Node1&#45;&gt;Node2</title>
<path fill="none" stroke="midnightblue" d="M446.87,-323.74C400.68,-313.87 343.02,-298.67 294.5,-277 254.47,-259.12 212.99,-228.72 189.89,-210.54"/>
<polygon fill="midnightblue" stroke="midnightblue" points="191.98,-207.72 181.98,-204.21 187.61,-213.19 191.98,-207.72"/>
</g>
<!-- Node3 -->
<g id="node3" class="node">
<title>Node3</title>
<g id="a_node3"><a xlink:title=" ">
<polygon fill="none" stroke="#bfbfbf" points="578,-252 578,-271 619,-271 619,-252 578,-252"/>
<text text-anchor="middle" x="598.5" y="-259" font-family="Helvetica,sans-Serif" font-size="10.00">tuple</text>
</a>
</g>
</g>
<!-- Node1&#45;&gt;Node3 -->
<g id="edge2" class="edge">
<title>Node1&#45;&gt;Node3</title>
<path fill="none" stroke="midnightblue" d="M553.14,-313.19C563.28,-301.86 574.95,-288.82 583.91,-278.81"/>
<polygon fill="midnightblue" stroke="midnightblue" points="586.65,-281 590.71,-271.21 581.43,-276.33 586.65,-281"/>
</g>
<!-- Node4 -->
<g id="node4" class="node">
<title>Node4</title>
<g id="a_node4"><a xlink:title=" ">
<polygon fill="none" stroke="#bfbfbf" points="364,-118 364,-137 411,-137 411,-118 364,-118"/>
<text text-anchor="middle" x="387.5" y="-125" font-family="Helvetica,sans-Serif" font-size="10.00">vector</text>
</a>
</g>
</g>
<!-- Node1&#45;&gt;Node4 -->
<g id="edge3" class="edge">
<title>Node1&#45;&gt;Node4</title>
<path fill="none" stroke="midnightblue" d="M513.25,-313.17C483.79,-269.91 424.53,-182.88 399.3,-145.83"/>
<polygon fill="midnightblue" stroke="midnightblue" points="401.92,-143.46 393.4,-137.17 396.14,-147.4 401.92,-143.46"/>
</g>
<!-- Node5 -->
<g id="node5" class="node">
<title>Node5</title>
<g id="a_node5"><a xlink:href="linear__grid_8hpp.html" target="_top" xlink:title="Concepts and abstract implementations of linear (ie. contiguous storage) grids.">
<polygon fill="none" stroke="black" points="303.5,-246.5 303.5,-276.5 413.5,-276.5 413.5,-246.5 303.5,-246.5"/>
<text text-anchor="start" x="311.5" y="-264.5" font-family="Helvetica,sans-Serif" font-size="10.00">beluga/sensor/data</text>
<text text-anchor="middle" x="358.5" y="-253.5" font-family="Helvetica,sans-Serif" font-size="10.00">/linear_grid.hpp</text>
</a>
</g>
</g>
<!-- Node1&#45;&gt;Node5 -->
<g id="edge4" class="edge">
<title>Node1&#45;&gt;Node5</title>
<path fill="none" stroke="midnightblue" d="M473.7,-313.4C449.67,-302.78 422.18,-290.64 400.08,-280.87"/>
<polygon fill="midnightblue" stroke="midnightblue" points="401.21,-277.55 390.65,-276.71 398.38,-283.95 401.21,-277.55"/>
</g>
<!-- Node11 -->
<g id="node11" class="node">
<title>Node11</title>
<g id="a_node11"><a xlink:title=" ">
<polygon fill="none" stroke="#bfbfbf" points="477.5,-56.5 477.5,-75.5 635.5,-75.5 635.5,-56.5 477.5,-56.5"/>
<text text-anchor="middle" x="556.5" y="-63.5" font-family="Helvetica,sans-Serif" font-size="10.00">range/v3/view/transform.hpp</text>
</a>
</g>
</g>
<!-- Node1&#45;&gt;Node11 -->
<g id="edge23" class="edge">
<title>Node1&#45;&gt;Node11</title>
<path fill="none" stroke="midnightblue" d="M532.9,-313.44C538.06,-259.6 550.1,-133.86 554.68,-85.97"/>
<polygon fill="midnightblue" stroke="midnightblue" points="558.19,-86.09 555.66,-75.8 551.22,-85.42 558.19,-86.09"/>
</g>
<!-- Node12 -->
<g id="node12" class="node">
<title>Node12</title>
<g id="a_node12"><a xlink:title=" ">
<polygon fill="none" stroke="#bfbfbf" points="390,-56.5 390,-75.5 459,-75.5 459,-56.5 390,-56.5"/>
<text text-anchor="middle" x="424.5" y="-63.5" font-family="Helvetica,sans-Serif" font-size="10.00">Eigen/Core</text>
</a>
</g>
</g>
<!-- Node1&#45;&gt;Node12 -->
<g id="edge24" class="edge">
<title>Node1&#45;&gt;Node12</title>
<path fill="none" stroke="midnightblue" d="M520.72,-313.44C499.61,-259.37 450.19,-132.79 431.67,-85.37"/>
<polygon fill="midnightblue" stroke="midnightblue" points="434.83,-83.84 427.94,-75.8 428.31,-86.39 434.83,-83.84"/>
</g>
<!-- Node15 -->
<g id="node15" class="node">
<title>Node15</title>
<g id="a_node15"><a xlink:title=" ">
<polygon fill="none" stroke="#bfbfbf" points="637,-252 637,-271 800,-271 800,-252 637,-252"/>
<text text-anchor="middle" x="718.5" y="-259" font-family="Helvetica,sans-Serif" font-size="10.00">range/v3/view/enumerate.hpp</text>
</a>
</g>
</g>
<!-- Node1&#45;&gt;Node15 -->
<g id="edge21" class="edge">
<title>Node1&#45;&gt;Node15</title>
<path fill="none" stroke="midnightblue" d="M592.58,-313.4C624.49,-300.5 661.98,-285.35 687.7,-274.95"/>
<polygon fill="midnightblue" stroke="midnightblue" points="689.32,-278.07 697.28,-271.08 686.7,-271.58 689.32,-278.07"/>
</g>
<!-- Node16 -->
<g id="node16" class="node">
<title>Node16</title>
<g id="a_node16"><a xlink:title=" ">
<polygon fill="none" stroke="#bfbfbf" points="818,-252 818,-271 949,-271 949,-252 818,-252"/>
<text text-anchor="middle" x="883.5" y="-259" font-family="Helvetica,sans-Serif" font-size="10.00">range/v3/view/filter.hpp</text>
</a>
</g>
</g>
<!-- Node1&#45;&gt;Node16 -->
<g id="edge22" class="edge">
<title>Node1&#45;&gt;Node16</title>
<path fill="none" stroke="midnightblue" d="M614.16,-320.49C682.63,-305.75 777.16,-285.4 834.1,-273.14"/>
<polygon fill="midnightblue" stroke="midnightblue" points="834.9,-276.54 843.94,-271.02 833.43,-269.7 834.9,-276.54"/>
</g>
<!-- Node5&#45;&gt;Node2 -->
<g id="edge5" class="edge">
<title>Node5&#45;&gt;Node2</title>
<path fill="none" stroke="midnightblue" d="M316.29,-246.44C286.62,-236.47 246.05,-222.67 210.5,-210 208.26,-209.2 205.95,-208.37 203.63,-207.52"/>
<polygon fill="midnightblue" stroke="midnightblue" points="204.74,-204.2 194.15,-204.04 202.33,-210.77 204.74,-204.2"/>
</g>
<!-- Node5&#45;&gt;Node4 -->
<g id="edge7" class="edge">
<title>Node5&#45;&gt;Node4</title>
<path fill="none" stroke="midnightblue" d="M362.36,-246.4C365.07,-236.31 368.7,-222.36 371.5,-210 376.37,-188.52 381.12,-163.66 384.17,-147.1"/>
<polygon fill="midnightblue" stroke="midnightblue" points="387.64,-147.56 385.98,-137.1 380.75,-146.31 387.64,-147.56"/>
</g>
<!-- Node6 -->
<g id="node6" class="node">
<title>Node6</title>
<g id="a_node6"><a xlink:title=" ">
<polygon fill="none" stroke="#bfbfbf" points="85.5,-118 85.5,-137 141.5,-137 141.5,-118 85.5,-118"/>
<text text-anchor="middle" x="113.5" y="-125" font-family="Helvetica,sans-Serif" font-size="10.00">optional</text>
</a>
</g>
</g>
<!-- Node5&#45;&gt;Node6 -->
<g id="edge6" class="edge">
<title>Node5&#45;&gt;Node6</title>
<path fill="none" stroke="midnightblue" d="M319.66,-246.49C296.73,-237.49 267.59,-224.74 243.5,-210 224.91,-198.63 223.57,-191.18 205.5,-179 184.53,-164.86 159.25,-151.21 140.5,-141.67"/>
<polygon fill="midnightblue" stroke="midnightblue" points="141.86,-138.44 131.35,-137.08 138.72,-144.69 141.86,-138.44"/>
</g>
<!-- Node7 -->
<g id="node7" class="node">
<title>Node7</title>
<g id="a_node7"><a xlink:href="dense__grid_8hpp.html" target="_top" xlink:title="Concepts and abstract implementations of dense grids.">
<polygon fill="none" stroke="black" points="252.5,-179.5 252.5,-209.5 362.5,-209.5 362.5,-179.5 252.5,-179.5"/>
<text text-anchor="start" x="260.5" y="-197.5" font-family="Helvetica,sans-Serif" font-size="10.00">beluga/sensor/data</text>
<text text-anchor="middle" x="307.5" y="-186.5" font-family="Helvetica,sans-Serif" font-size="10.00">/dense_grid.hpp</text>
</a>
</g>
</g>
<!-- Node5&#45;&gt;Node7 -->
<g id="edge8" class="edge">
<title>Node5&#45;&gt;Node7</title>
<path fill="none" stroke="midnightblue" d="M347.43,-246.4C340.82,-237.96 332.27,-227.07 324.78,-217.52"/>
<polygon fill="midnightblue" stroke="midnightblue" points="327.47,-215.28 318.54,-209.58 321.96,-219.6 327.47,-215.28"/>
</g>
<!-- Node5&#45;&gt;Node12 -->
<g id="edge20" class="edge">
<title>Node5&#45;&gt;Node12</title>
<path fill="none" stroke="midnightblue" d="M368.94,-246.22C383.77,-224.98 410.27,-183.24 420.5,-143 425.33,-124.02 425.91,-101.54 425.54,-85.98"/>
<polygon fill="midnightblue" stroke="midnightblue" points="429.02,-85.45 425.13,-75.6 422.02,-85.73 429.02,-85.45"/>
</g>
<!-- Node7&#45;&gt;Node4 -->
<g id="edge10" class="edge">
<title>Node7&#45;&gt;Node4</title>
<path fill="none" stroke="midnightblue" d="M324.86,-179.4C337.83,-168.86 355.53,-154.48 368.81,-143.69"/>
<polygon fill="midnightblue" stroke="midnightblue" points="371.24,-146.22 376.8,-137.19 366.83,-140.78 371.24,-146.22"/>
</g>
<!-- Node7&#45;&gt;Node6 -->
<g id="edge9" class="edge">
<title>Node7&#45;&gt;Node6</title>
<path fill="none" stroke="midnightblue" d="M264.87,-179.48C234.37,-169.42 192.37,-155.49 155.5,-143 153.07,-142.18 150.56,-141.32 148.04,-140.46"/>
<polygon fill="midnightblue" stroke="midnightblue" points="148.95,-137.07 138.36,-137.14 146.68,-143.69 148.95,-137.07"/>
</g>
<!-- Node8 -->
<g id="node8" class="node">
<title>Node8</title>
<g id="a_node8"><a xlink:href="regular__grid_8hpp.html" target="_top" xlink:title="Concepts and abstract implementations of regular grids.">
<polygon fill="none" stroke="black" points="197.5,-112.5 197.5,-142.5 307.5,-142.5 307.5,-112.5 197.5,-112.5"/>
<text text-anchor="start" x="205.5" y="-130.5" font-family="Helvetica,sans-Serif" font-size="10.00">beluga/sensor/data</text>
<text text-anchor="middle" x="252.5" y="-119.5" font-family="Helvetica,sans-Serif" font-size="10.00">/regular_grid.hpp</text>
</a>
</g>
</g>
<!-- Node7&#45;&gt;Node8 -->
<g id="edge11" class="edge">
<title>Node7&#45;&gt;Node8</title>
<path fill="none" stroke="midnightblue" d="M295.57,-179.4C288.36,-170.88 279.02,-159.85 270.89,-150.23"/>
<polygon fill="midnightblue" stroke="midnightblue" points="273.54,-147.95 264.41,-142.58 268.2,-152.47 273.54,-147.95"/>
</g>
<!-- Node7&#45;&gt;Node12 -->
<g id="edge18" class="edge">
<title>Node7&#45;&gt;Node12</title>
<path fill="none" stroke="midnightblue" d="M313.45,-179.23C321.2,-161.85 336.1,-132.3 355.5,-112 367.62,-99.31 383.97,-88.45 397.71,-80.58"/>
<polygon fill="midnightblue" stroke="midnightblue" points="399.65,-83.51 406.73,-75.62 396.28,-77.37 399.65,-83.51"/>
</g>
<!-- Node13 -->
<g id="node13" class="node">
<title>Node13</title>
<g id="a_node13"><a xlink:href="eigen__compatibility_8hpp_source.html" target="_top" xlink:title=" ">
<polygon fill="none" stroke="black" points="0,-56.5 0,-75.5 169,-75.5 169,-56.5 0,-56.5"/>
<text text-anchor="middle" x="84.5" y="-63.5" font-family="Helvetica,sans-Serif" font-size="10.00">beluga/eigen_compatibility.hpp</text>
</a>
</g>
</g>
<!-- Node7&#45;&gt;Node13 -->
<g id="edge19" class="edge">
<title>Node7&#45;&gt;Node13</title>
<path fill="none" stroke="midnightblue" d="M266.72,-179.48C243.08,-170.56 213.19,-157.9 188.5,-143 169.84,-131.74 167.96,-125.04 150.5,-112 136.19,-101.32 119.58,-90 106.6,-81.38"/>
<polygon fill="midnightblue" stroke="midnightblue" points="108.16,-78.22 97.88,-75.64 104.31,-84.06 108.16,-78.22"/>
</g>
<!-- Node9 -->
<g id="node9" class="node">
<title>Node9</title>
<g id="a_node9"><a xlink:title=" ">
<polygon fill="none" stroke="#bfbfbf" points="325,-56.5 325,-75.5 372,-75.5 372,-56.5 325,-56.5"/>
<text text-anchor="middle" x="348.5" y="-63.5" font-family="Helvetica,sans-Serif" font-size="10.00">cmath</text>
</a>
</g>
</g>
<!-- Node8&#45;&gt;Node9 -->
<g id="edge12" class="edge">
<title>Node8&#45;&gt;Node9</title>
<path fill="none" stroke="midnightblue" d="M275.25,-112.4C290.49,-102.95 310.49,-90.56 325.74,-81.11"/>
<polygon fill="midnightblue" stroke="midnightblue" points="327.88,-83.9 334.53,-75.66 324.19,-77.95 327.88,-83.9"/>
</g>
<!-- Node10 -->
<g id="node10" class="node">
<title>Node10</title>
<g id="a_node10"><a xlink:href="ciabatta_8hpp_source.html" target="_top" xlink:title=" ">
<polygon fill="none" stroke="black" points="186.5,-56.5 186.5,-75.5 306.5,-75.5 306.5,-56.5 186.5,-56.5"/>
<text text-anchor="middle" x="246.5" y="-63.5" font-family="Helvetica,sans-Serif" font-size="10.00">ciabatta/ciabatta.hpp</text>
</a>
</g>
</g>
<!-- Node8&#45;&gt;Node10 -->
<g id="edge13" class="edge">
<title>Node8&#45;&gt;Node10</title>
<path fill="none" stroke="midnightblue" d="M251.08,-112.4C250.28,-104.47 249.27,-94.46 248.4,-85.86"/>
<polygon fill="midnightblue" stroke="midnightblue" points="251.86,-85.26 247.37,-75.66 244.89,-85.96 251.86,-85.26"/>
</g>
<!-- Node8&#45;&gt;Node11 -->
<g id="edge14" class="edge">
<title>Node8&#45;&gt;Node11</title>
<path fill="none" stroke="midnightblue" d="M307.55,-115.72C362.96,-104.88 447.87,-88.26 502.8,-77.51"/>
<polygon fill="midnightblue" stroke="midnightblue" points="503.55,-80.93 512.69,-75.57 502.21,-74.06 503.55,-80.93"/>
</g>
<!-- Node8&#45;&gt;Node12 -->
<g id="edge15" class="edge">
<title>Node8&#45;&gt;Node12</title>
<path fill="none" stroke="midnightblue" d="M293.26,-112.4C322.72,-102.21 362.09,-88.59 390,-78.93"/>
<polygon fill="midnightblue" stroke="midnightblue" points="391.42,-82.15 399.72,-75.57 389.13,-75.53 391.42,-82.15"/>
</g>
<!-- Node8&#45;&gt;Node13 -->
<g id="edge16" class="edge">
<title>Node8&#45;&gt;Node13</title>
<path fill="none" stroke="midnightblue" d="M212.69,-112.4C184,-102.24 145.69,-88.67 118.44,-79.02"/>
<polygon fill="midnightblue" stroke="midnightblue" points="119.54,-75.7 108.95,-75.66 117.2,-82.3 119.54,-75.7"/>
</g>
<!-- Node14 -->
<g id="node14" class="node">
<title>Node14</title>
<g id="a_node14"><a xlink:title=" ">
<polygon fill="none" stroke="#bfbfbf" points="46,-0.5 46,-19.5 123,-19.5 123,-0.5 46,-0.5"/>
<text text-anchor="middle" x="84.5" y="-7.5" font-family="Helvetica,sans-Serif" font-size="10.00">Eigen/Dense</text>
</a>
</g>
</g>
<!-- Node13&#45;&gt;Node14 -->
<g id="edge17" class="edge">
<title>Node13&#45;&gt;Node14</title>
<path fill="none" stroke="midnightblue" d="M84.5,-56.08C84.5,-49.01 84.5,-38.86 84.5,-29.99"/>
<polygon fill="midnightblue" stroke="midnightblue" points="88,-29.75 84.5,-19.75 81,-29.75 88,-29.75"/>
</g>
</g>
</svg>
