<?xml version="1.0" encoding="UTF-8" standalone="no"?>
<!DOCTYPE svg PUBLIC "-//W3C//DTD SVG 1.1//EN"
 "http://www.w3.org/Graphics/SVG/1.1/DTD/svg11.dtd">
<!-- Generated by graphviz version 2.43.0 (0)
 -->
<!-- Title: /home/runner/work/beluga/beluga/beluga/include/beluga/sensor/data/occupancy_grid.hpp Pages: 1 -->
<!--zoomable 385 -->
<svg id="main" version="1.1" xmlns="http://www.w3.org/2000/svg" xmlns:xlink="http://www.w3.org/1999/xlink" xml:space="preserve" onload="init(evt)">
<style type="text/css"><![CDATA[
.edge:hover path { stroke: red; }
.edge:hover polygon { stroke: red; fill: red; }
]]></style>
<script type="text/javascript"><![CDATA[
var edges = document.getElementsByTagName('g');
if (edges && edges.length) {
  for (var i=0;i<edges.length;i++) {
    if (edges[i].id.substr(0,4)=='edge') {
      edges[i].setAttribute('class','edge');
    }
  }
}
]]></script>
        <defs>
                <circle id="rim" cx="0" cy="0" r="7"/>
                <circle id="rim2" cx="0" cy="0" r="3.5"/>
                <g id="zoomPlus">
                        <use xlink:href="#rim" fill="#404040">
                                <set attributeName="fill" to="#808080" begin="zoomplus.mouseover" end="zoomplus.mouseout"/>
                        </use>
                        <path d="M-4,0h8M0,-4v8" fill="none" stroke="white" stroke-width="1.5" pointer-events="none"/>
                </g>
                <g id="zoomMin">
                        <use xlink:href="#rim" fill="#404040">
                                <set attributeName="fill" to="#808080" begin="zoomminus.mouseover" end="zoomminus.mouseout"/>
                        </use>
                        <path d="M-4,0h8" fill="none" stroke="white" stroke-width="1.5" pointer-events="none"/>
                </g>
                <g id="dirArrow">
                        <path fill="none" stroke="white" stroke-width="1.5" d="M0,-3.0v7 M-2.5,-0.5L0,-3.0L2.5,-0.5"/>
                </g>
               <g id="resetDef">
                       <use xlink:href="#rim2" fill="#404040">
                               <set attributeName="fill" to="#808080" begin="reset.mouseover" end="reset.mouseout"/>
                       </use>
               </g>
        </defs>

<script type="text/javascript">
var viewWidth = 939;
var viewHeight = 385;
var sectionId = 'dynsection-0';
</script>
<script xlink:href="svgpan.js"/>
<svg id="graph" class="graph">
<g id="viewport">
<title>/home/runner/work/beluga/beluga/beluga/include/beluga/sensor/data/occupancy_grid.hpp</title>
<!-- Node1 -->
<g id="node1" class="node">
<title>Node1</title>
<g id="a_node1"><a xlink:title="Concepts and abstract implementations of occupancy grids.">
<polygon fill="#bfbfbf" stroke="black" points="429,-324.5 429,-376.5 596,-376.5 596,-324.5 429,-324.5"/>
<text text-anchor="start" x="437" y="-364.5" font-family="Helvetica,sans-Serif" font-size="10.00">/home/runner/work/beluga</text>
<text text-anchor="start" x="437" y="-353.5" font-family="Helvetica,sans-Serif" font-size="10.00">/beluga/beluga/include</text>
<text text-anchor="start" x="437" y="-342.5" font-family="Helvetica,sans-Serif" font-size="10.00">/beluga/sensor/data/occupancy</text>
<text text-anchor="middle" x="512.5" y="-331.5" font-family="Helvetica,sans-Serif" font-size="10.00">_grid.hpp</text>
</a>
</g>
</g>
<!-- Node2 -->
<g id="node2" class="node">
<title>Node2</title>
<g id="a_node2"><a xlink:title=" ">
<polygon fill="none" stroke="#bfbfbf" points="168.5,-196 168.5,-215 218.5,-215 218.5,-196 168.5,-196"/>
<text text-anchor="middle" x="193.5" y="-203" font-family="Helvetica,sans-Serif" font-size="10.00">cstdint</text>
</a>
</g>
</g>
<!-- Node1&#45;&gt;Node2 -->
<g id="edge1" class="edge">
<title>Node1&#45;&gt;Node2</title>
<path fill="none" stroke="midnightblue" d="M428.8,-330.82C390.98,-320.74 346.39,-306.52 308.5,-288 271.04,-269.69 232.5,-239.65 210.92,-221.61"/>
<polygon fill="midnightblue" stroke="midnightblue" points="213.15,-218.91 203.26,-215.11 208.62,-224.25 213.15,-218.91"/>
</g>
<!-- Node3 -->
<g id="node3" class="node">
<title>Node3</title>
<g id="a_node3"><a xlink:title=" ">
<polygon fill="none" stroke="#bfbfbf" points="560,-263 560,-282 601,-282 601,-263 560,-263"/>
<text text-anchor="middle" x="580.5" y="-270" font-family="Helvetica,sans-Serif" font-size="10.00">tuple</text>
</a>
</g>
</g>
<!-- Node1&#45;&gt;Node3 -->
<g id="edge2" class="edge">
<title>Node1&#45;&gt;Node3</title>
<path fill="none" stroke="midnightblue" d="M535.14,-324.19C545.28,-312.86 556.95,-299.82 565.91,-289.81"/>
<polygon fill="midnightblue" stroke="midnightblue" points="568.65,-292 572.71,-282.21 563.43,-287.33 568.65,-292"/>
</g>
<!-- Node4 -->
<g id="node4" class="node">
<title>Node4</title>
<g id="a_node4"><a xlink:title=" ">
<polygon fill="none" stroke="#bfbfbf" points="102,-129 102,-148 149,-148 149,-129 102,-129"/>
<text text-anchor="middle" x="125.5" y="-136" font-family="Helvetica,sans-Serif" font-size="10.00">vector</text>
</a>
</g>
</g>
<!-- Node1&#45;&gt;Node4 -->
<g id="edge3" class="edge">
<title>Node1&#45;&gt;Node4</title>
<path fill="none" stroke="midnightblue" d="M428.83,-337.85C377.01,-328.64 310,-313.06 254.5,-288 207.41,-266.74 191.82,-261.31 159.5,-221 144.4,-202.17 135.01,-175.68 130.03,-158.07"/>
<polygon fill="midnightblue" stroke="midnightblue" points="133.35,-156.96 127.42,-148.18 126.58,-158.74 133.35,-156.96"/>
</g>
<!-- Node5 -->
<g id="node5" class="node">
<title>Node5</title>
<g id="a_node5"><a xlink:href="linear__grid_8hpp.html" target="_top" xlink:title="Concepts and abstract implementations of linear (ie. contiguous storage) grids.">
<polygon fill="none" stroke="black" points="317.5,-257.5 317.5,-287.5 427.5,-287.5 427.5,-257.5 317.5,-257.5"/>
<text text-anchor="start" x="325.5" y="-275.5" font-family="Helvetica,sans-Serif" font-size="10.00">beluga/sensor/data</text>
<text text-anchor="middle" x="372.5" y="-264.5" font-family="Helvetica,sans-Serif" font-size="10.00">/linear_grid.hpp</text>
</a>
</g>
</g>
<!-- Node1&#45;&gt;Node5 -->
<g id="edge4" class="edge">
<title>Node1&#45;&gt;Node5</title>
<path fill="none" stroke="midnightblue" d="M466.27,-324.4C447.14,-314.02 425.33,-302.18 407.56,-292.53"/>
<polygon fill="midnightblue" stroke="midnightblue" points="409.13,-289.4 398.67,-287.71 405.79,-295.55 409.13,-289.4"/>
</g>
<!-- Node10 -->
<g id="node10" class="node">
<title>Node10</title>
<g id="a_node10"><a xlink:title=" ">
<polygon fill="none" stroke="#bfbfbf" points="480.5,-62 480.5,-81 638.5,-81 638.5,-62 480.5,-62"/>
<text text-anchor="middle" x="559.5" y="-69" font-family="Helvetica,sans-Serif" font-size="10.00">range/v3/view/transform.hpp</text>
</a>
</g>
</g>
<!-- Node1&#45;&gt;Node10 -->
<g id="edge23" class="edge">
<title>Node1&#45;&gt;Node10</title>
<path fill="none" stroke="midnightblue" d="M516.75,-324.43C526.08,-269.44 548.17,-139.3 556.36,-90.98"/>
<polygon fill="midnightblue" stroke="midnightblue" points="559.83,-91.46 558.05,-81.02 552.93,-90.29 559.83,-91.46"/>
</g>
<!-- Node11 -->
<g id="node11" class="node">
<title>Node11</title>
<g id="a_node11"><a xlink:title=" ">
<polygon fill="none" stroke="#bfbfbf" points="393,-62 393,-81 462,-81 462,-62 393,-62"/>
<text text-anchor="middle" x="427.5" y="-69" font-family="Helvetica,sans-Serif" font-size="10.00">Eigen/Core</text>
</a>
</g>
</g>
<!-- Node1&#45;&gt;Node11 -->
<g id="edge24" class="edge">
<title>Node1&#45;&gt;Node11</title>
<path fill="none" stroke="midnightblue" d="M506.99,-324.29C497.46,-282.03 476.38,-194.5 450.5,-123 446.5,-111.96 441.1,-99.98 436.53,-90.46"/>
<polygon fill="midnightblue" stroke="midnightblue" points="439.56,-88.69 432.01,-81.26 433.28,-91.78 439.56,-88.69"/>
</g>
<!-- Node15 -->
<g id="node15" class="node">
<title>Node15</title>
<g id="a_node15"><a xlink:title=" ">
<polygon fill="none" stroke="#bfbfbf" points="619,-263 619,-282 782,-282 782,-263 619,-263"/>
<text text-anchor="middle" x="700.5" y="-270" font-family="Helvetica,sans-Serif" font-size="10.00">range/v3/view/enumerate.hpp</text>
</a>
</g>
</g>
<!-- Node1&#45;&gt;Node15 -->
<g id="edge21" class="edge">
<title>Node1&#45;&gt;Node15</title>
<path fill="none" stroke="midnightblue" d="M574.58,-324.4C606.49,-311.5 643.98,-296.35 669.7,-285.95"/>
<polygon fill="midnightblue" stroke="midnightblue" points="671.32,-289.07 679.28,-282.08 668.7,-282.58 671.32,-289.07"/>
</g>
<!-- Node16 -->
<g id="node16" class="node">
<title>Node16</title>
<g id="a_node16"><a xlink:title=" ">
<polygon fill="none" stroke="#bfbfbf" points="800,-263 800,-282 931,-282 931,-263 800,-263"/>
<text text-anchor="middle" x="865.5" y="-270" font-family="Helvetica,sans-Serif" font-size="10.00">range/v3/view/filter.hpp</text>
</a>
</g>
</g>
<!-- Node1&#45;&gt;Node16 -->
<g id="edge22" class="edge">
<title>Node1&#45;&gt;Node16</title>
<path fill="none" stroke="midnightblue" d="M596.16,-331.49C664.63,-316.75 759.16,-296.4 816.1,-284.14"/>
<polygon fill="midnightblue" stroke="midnightblue" points="816.9,-287.54 825.94,-282.02 815.43,-280.7 816.9,-287.54"/>
</g>
<!-- Node5&#45;&gt;Node2 -->
<g id="edge5" class="edge">
<title>Node5&#45;&gt;Node2</title>
<path fill="none" stroke="midnightblue" d="M333.24,-257.45C305.15,-247.38 266.47,-233.44 232.5,-221 230.41,-220.23 228.25,-219.44 226.08,-218.64"/>
<polygon fill="midnightblue" stroke="midnightblue" points="227.18,-215.31 216.58,-215.12 224.75,-221.88 227.18,-215.31"/>
</g>
<!-- Node5&#45;&gt;Node4 -->
<g id="edge7" class="edge">
<title>Node5&#45;&gt;Node4</title>
<path fill="none" stroke="midnightblue" d="M337.16,-257.4C315.75,-248.24 288.26,-235.35 265.5,-221 247.06,-209.37 245.87,-201.73 227.5,-190 196.68,-170.31 186.19,-170.41 153.5,-154 152.67,-153.58 151.82,-153.15 150.96,-152.72"/>
<polygon fill="midnightblue" stroke="midnightblue" points="152.25,-149.45 141.75,-148 149.06,-155.68 152.25,-149.45"/>
</g>
<!-- Node6 -->
<g id="node6" class="node">
<title>Node6</title>
<g id="a_node6"><a xlink:title=" ">
<polygon fill="none" stroke="#bfbfbf" points="371.5,-129 371.5,-148 427.5,-148 427.5,-129 371.5,-129"/>
<text text-anchor="middle" x="399.5" y="-136" font-family="Helvetica,sans-Serif" font-size="10.00">optional</text>
</a>
</g>
</g>
<!-- Node5&#45;&gt;Node6 -->
<g id="edge6" class="edge">
<title>Node5&#45;&gt;Node6</title>
<path fill="none" stroke="midnightblue" d="M379.84,-257.33C384.6,-247.43 390.46,-233.75 393.5,-221 398.52,-199.92 399.69,-174.98 399.81,-158.29"/>
<polygon fill="midnightblue" stroke="midnightblue" points="403.31,-158.19 399.76,-148.2 396.31,-158.22 403.31,-158.19"/>
</g>
<!-- Node7 -->
<g id="node7" class="node">
<title>Node7</title>
<g id="a_node7"><a xlink:href="dense__grid_8hpp.html" target="_top" xlink:title="Concepts and abstract implementations of dense grids.">
<polygon fill="none" stroke="black" points="274.5,-190.5 274.5,-220.5 384.5,-220.5 384.5,-190.5 274.5,-190.5"/>
<text text-anchor="start" x="282.5" y="-208.5" font-family="Helvetica,sans-Serif" font-size="10.00">beluga/sensor/data</text>
<text text-anchor="middle" x="329.5" y="-197.5" font-family="Helvetica,sans-Serif" font-size="10.00">/dense_grid.hpp</text>
</a>
</g>
</g>
<!-- Node5&#45;&gt;Node7 -->
<g id="edge8" class="edge">
<title>Node5&#45;&gt;Node7</title>
<path fill="none" stroke="midnightblue" d="M363.17,-257.4C357.7,-249.13 350.67,-238.51 344.45,-229.1"/>
<polygon fill="midnightblue" stroke="midnightblue" points="347.25,-226.99 338.81,-220.58 341.41,-230.85 347.25,-226.99"/>
</g>
<!-- Node5&#45;&gt;Node11 -->
<g id="edge20" class="edge">
<title>Node5&#45;&gt;Node11</title>
<path fill="none" stroke="midnightblue" d="M384.53,-257.13C392.32,-247.36 402.31,-233.92 409.5,-221 425.11,-192.94 430.39,-185.52 436.5,-154 440.64,-132.65 436.63,-107.76 432.73,-91.16"/>
<polygon fill="midnightblue" stroke="midnightblue" points="436.03,-89.94 430.15,-81.14 429.25,-91.69 436.03,-89.94"/>
</g>
<!-- Node7&#45;&gt;Node4 -->
<g id="edge10" class="edge">
<title>Node7&#45;&gt;Node4</title>
<path fill="none" stroke="midnightblue" d="M280.18,-190.47C247.01,-180.79 202.4,-167.32 163.5,-154 161.25,-153.23 158.92,-152.41 156.59,-151.56"/>
<polygon fill="midnightblue" stroke="midnightblue" points="157.7,-148.24 147.11,-148.04 155.26,-154.8 157.7,-148.24"/>
</g>
<!-- Node7&#45;&gt;Node6 -->
<g id="edge9" class="edge">
<title>Node7&#45;&gt;Node6</title>
<path fill="none" stroke="midnightblue" d="M344.69,-190.4C355.82,-180.06 370.94,-166.02 382.47,-155.31"/>
<polygon fill="midnightblue" stroke="midnightblue" points="385.19,-157.56 390.14,-148.19 380.43,-152.43 385.19,-157.56"/>
</g>
<!-- Node8 -->
<g id="node8" class="node">
<title>Node8</title>
<g id="a_node8"><a xlink:href="regular__grid_8hpp.html" target="_top" xlink:title="Concepts and abstract implementations of regular grids.">
<polygon fill="none" stroke="black" points="205.5,-123.5 205.5,-153.5 315.5,-153.5 315.5,-123.5 205.5,-123.5"/>
<text text-anchor="start" x="213.5" y="-141.5" font-family="Helvetica,sans-Serif" font-size="10.00">beluga/sensor/data</text>
<text text-anchor="middle" x="260.5" y="-130.5" font-family="Helvetica,sans-Serif" font-size="10.00">/regular_grid.hpp</text>
</a>
</g>
</g>
<!-- Node7&#45;&gt;Node8 -->
<g id="edge11" class="edge">
<title>Node7&#45;&gt;Node8</title>
<path fill="none" stroke="midnightblue" d="M314.53,-190.4C305.31,-181.71 293.31,-170.4 282.96,-160.66"/>
<polygon fill="midnightblue" stroke="midnightblue" points="285.12,-157.89 275.44,-153.58 280.32,-162.98 285.12,-157.89"/>
</g>
<!-- Node7&#45;&gt;Node11 -->
<g id="edge18" class="edge">
<title>Node7&#45;&gt;Node11</title>
<path fill="none" stroke="midnightblue" d="M332.79,-190.4C337.32,-173.19 346.75,-143.82 362.5,-123 373.57,-108.37 389.88,-95.71 403.39,-86.73"/>
<polygon fill="midnightblue" stroke="midnightblue" points="405.65,-89.44 412.2,-81.12 401.89,-83.54 405.65,-89.44"/>
</g>
<!-- Node12 -->
<g id="node12" class="node">
<title>Node12</title>
<g id="a_node12"><a xlink:href="eigen__compatibility_8hpp_source.html" target="_top" xlink:title=" ">
<polygon fill="none" stroke="black" points="0,-62 0,-81 169,-81 169,-62 0,-62"/>
<text text-anchor="middle" x="84.5" y="-69" font-family="Helvetica,sans-Serif" font-size="10.00">beluga/eigen_compatibility.hpp</text>
</a>
</g>
</g>
<!-- Node7&#45;&gt;Node12 -->
<g id="edge19" class="edge">
<title>Node7&#45;&gt;Node12</title>
<path fill="none" stroke="midnightblue" d="M282.06,-190.46C255.93,-181.76 223.44,-169.33 196.5,-154 177.25,-143.05 175.28,-136.19 157.5,-123 140.39,-110.3 120.46,-96.58 105.75,-86.66"/>
<polygon fill="midnightblue" stroke="midnightblue" points="107.59,-83.68 97.34,-81.01 103.69,-89.49 107.59,-83.68"/>
</g>
<!-- Node9 -->
<g id="node9" class="node">
<title>Node9</title>
<g id="a_node9"><a xlink:title=" ">
<polygon fill="none" stroke="#bfbfbf" points="187,-62 187,-81 234,-81 234,-62 187,-62"/>
<text text-anchor="middle" x="210.5" y="-69" font-family="Helvetica,sans-Serif" font-size="10.00">cmath</text>
</a>
</g>
</g>
<!-- Node8&#45;&gt;Node9 -->
<g id="edge12" class="edge">
<title>Node8&#45;&gt;Node9</title>
<path fill="none" stroke="midnightblue" d="M249.65,-123.4C241.93,-113.36 231.53,-99.84 223.39,-89.25"/>
<polygon fill="midnightblue" stroke="midnightblue" points="226.06,-86.99 217.19,-81.19 220.51,-91.25 226.06,-86.99"/>
</g>
<!-- Node8&#45;&gt;Node10 -->
<g id="edge13" class="edge">
<title>Node8&#45;&gt;Node10</title>
<path fill="none" stroke="midnightblue" d="M315.69,-125.5C371.49,-113.37 456.92,-94.8 510.42,-83.17"/>
<polygon fill="midnightblue" stroke="midnightblue" points="511.33,-86.55 520.35,-81.01 509.84,-79.71 511.33,-86.55"/>
</g>
<!-- Node8&#45;&gt;Node11 -->
<g id="edge14" class="edge">
<title>Node8&#45;&gt;Node11</title>
<path fill="none" stroke="midnightblue" d="M296.74,-123.4C326.43,-111.84 368.01,-95.66 396.25,-84.66"/>
<polygon fill="midnightblue" stroke="midnightblue" points="397.59,-87.9 405.64,-81.01 395.06,-81.37 397.59,-87.9"/>
</g>
<!-- Node8&#45;&gt;Node12 -->
<g id="edge15" class="edge">
<title>Node8&#45;&gt;Node12</title>
<path fill="none" stroke="midnightblue" d="M222.31,-123.4C190.88,-111.79 146.82,-95.51 117.04,-84.52"/>
<polygon fill="midnightblue" stroke="midnightblue" points="118.13,-81.19 107.53,-81.01 115.7,-87.75 118.13,-81.19"/>
</g>
<!-- Node14 -->
<g id="node14" class="node">
<title>Node14</title>
<g id="a_node14"><a xlink:href="enable__self_8hpp.html" target="_top" xlink:title="Implementation of a CRTP utility to enable downcasting to the most derived class.">
<polygon fill="none" stroke="black" points="252.5,-56.5 252.5,-86.5 374.5,-86.5 374.5,-56.5 252.5,-56.5"/>
<text text-anchor="start" x="260.5" y="-74.5" font-family="Helvetica,sans-Serif" font-size="10.00">beluga/mixins/enable</text>
<text text-anchor="middle" x="313.5" y="-63.5" font-family="Helvetica,sans-Serif" font-size="10.00">_self.hpp</text>
</a>
</g>
</g>
<!-- Node8&#45;&gt;Node14 -->
<g id="edge17" class="edge">
<title>Node8&#45;&gt;Node14</title>
<path fill="none" stroke="midnightblue" d="M272,-123.4C278.88,-114.96 287.76,-104.07 295.54,-94.52"/>
<polygon fill="midnightblue" stroke="midnightblue" points="298.42,-96.54 302.02,-86.58 292.99,-92.11 298.42,-96.54"/>
</g>
<!-- Node13 -->
<g id="node13" class="node">
<title>Node13</title>
<g id="a_node13"><a xlink:title=" ">
<polygon fill="none" stroke="#bfbfbf" points="46,-0.5 46,-19.5 123,-19.5 123,-0.5 46,-0.5"/>
<text text-anchor="middle" x="84.5" y="-7.5" font-family="Helvetica,sans-Serif" font-size="10.00">Eigen/Dense</text>
</a>
</g>
</g>
<!-- Node12&#45;&gt;Node13 -->
<g id="edge16" class="edge">
<title>Node12&#45;&gt;Node13</title>
<path fill="none" stroke="midnightblue" d="M84.5,-61.98C84.5,-53.58 84.5,-40.48 84.5,-29.66"/>
<polygon fill="midnightblue" stroke="midnightblue" points="88,-29.51 84.5,-19.51 81,-29.51 88,-29.51"/>
</g>
</g>
</svg>
        <g id="navigator" transform="translate(0 0)" fill="#404254">
                <rect fill="#f2f5e9" fill-opacity="0.5" stroke="#606060" stroke-width=".5" x="0" y="0" width="60" height="60"/>
                <use id="zoomplus" xlink:href="#zoomPlus" x="17" y="9" onmousedown="handleZoom(evt,'in')"/>
                <use id="zoomminus" xlink:href="#zoomMin" x="42" y="9" onmousedown="handleZoom(evt,'out')"/>
                <use id="reset" xlink:href="#resetDef" x="30" y="36" onmousedown="handleReset()"/>
                <g id="arrowUp" xlink:href="#dirArrow" transform="translate(30 24)" onmousedown="handlePan(0,-1)">
                  <use xlink:href="#rim" fill="#404040">
                        <set attributeName="fill" to="#808080" begin="arrowUp.mouseover" end="arrowUp.mouseout"/>
                  </use>
                  <path fill="none" stroke="white" stroke-width="1.5" d="M0,-3.0v7 M-2.5,-0.5L0,-3.0L2.5,-0.5"/>
                </g>
                <g id="arrowRight" xlink:href="#dirArrow" transform="rotate(90) translate(36 -43)" onmousedown="handlePan(1,0)">
                  <use xlink:href="#rim" fill="#404040">
                        <set attributeName="fill" to="#808080" begin="arrowRight.mouseover" end="arrowRight.mouseout"/>
                  </use>
                  <path fill="none" stroke="white" stroke-width="1.5" d="M0,-3.0v7 M-2.5,-0.5L0,-3.0L2.5,-0.5"/>
                </g>
                <g id="arrowDown" xlink:href="#dirArrow" transform="rotate(180) translate(-30 -48)" onmousedown="handlePan(0,1)">
                  <use xlink:href="#rim" fill="#404040">
                        <set attributeName="fill" to="#808080" begin="arrowDown.mouseover" end="arrowDown.mouseout"/>
                  </use>
                  <path fill="none" stroke="white" stroke-width="1.5" d="M0,-3.0v7 M-2.5,-0.5L0,-3.0L2.5,-0.5"/>
                </g>
                <g id="arrowLeft" xlink:href="#dirArrow" transform="rotate(270) translate(-36 17)" onmousedown="handlePan(-1,0)">
                  <use xlink:href="#rim" fill="#404040">
                        <set attributeName="fill" to="#808080" begin="arrowLeft.mouseover" end="arrowLeft.mouseout"/>
                  </use>
                  <path fill="none" stroke="white" stroke-width="1.5" d="M0,-3.0v7 M-2.5,-0.5L0,-3.0L2.5,-0.5"/>
                </g>
        </g>
        <svg viewBox="0 0 15 15" width="100%" height="30px" preserveAspectRatio="xMaxYMin meet">
         <g id="arrow_out" transform="scale(0.3 0.3)">
          <a xlink:href="occupancy__grid_8hpp__incl_org.svg" target="_base">
           <rect id="button" ry="5" rx="5" y="6" x="6" height="38" width="38"
                fill="#f2f5e9" fill-opacity="0.5" stroke="#606060" stroke-width="1.0"/>
           <path id="arrow"
             d="M 11.500037,31.436501 C 11.940474,20.09759 22.043105,11.32322 32.158766,21.979434 L 37.068811,17.246167 C 37.068811,17.246167 37.088388,32 37.088388,32 L 22.160133,31.978069 C 22.160133,31.978069 26.997745,27.140456 26.997745,27.140456 C 18.528582,18.264221 13.291696,25.230495 11.500037,31.436501 z"
             style="fill:#404040;"/>
          </a>
         </g>
        </svg>
</svg>
