<?xml version="1.0" encoding="UTF-8" standalone="no"?>
<!DOCTYPE svg PUBLIC "-//W3C//DTD SVG 1.1//EN"
 "http://www.w3.org/Graphics/SVG/1.1/DTD/svg11.dtd">
<!-- Generated by graphviz version 2.43.0 (0)
 -->
<!-- Title: /home/runner/work/beluga/beluga/beluga/include/beluga/sensor/data/occupancy_grid.hpp Pages: 1 -->
<svg width="1215pt" height="385pt"
 viewBox="0.00 0.00 1214.50 385.00" xmlns="http://www.w3.org/2000/svg" xmlns:xlink="http://www.w3.org/1999/xlink">
<g id="graph0" class="graph" transform="scale(1 1) rotate(0) translate(4 381)">
<title>/home/runner/work/beluga/beluga/beluga/include/beluga/sensor/data/occupancy_grid.hpp</title>
<!-- Node1 -->
<g id="node1" class="node">
<title>Node1</title>
<g id="a_node1"><a xlink:title="Concepts and abstract implementations of occupancy grids.">
<polygon fill="#bfbfbf" stroke="black" points="472,-324.5 472,-376.5 639,-376.5 639,-324.5 472,-324.5"/>
<text text-anchor="start" x="480" y="-364.5" font-family="Helvetica,sans-Serif" font-size="10.00">/home/runner/work/beluga</text>
<text text-anchor="start" x="480" y="-353.5" font-family="Helvetica,sans-Serif" font-size="10.00">/beluga/beluga/include</text>
<text text-anchor="start" x="480" y="-342.5" font-family="Helvetica,sans-Serif" font-size="10.00">/beluga/sensor/data/occupancy</text>
<text text-anchor="middle" x="555.5" y="-331.5" font-family="Helvetica,sans-Serif" font-size="10.00">_grid.hpp</text>
</a>
</g>
</g>
<!-- Node2 -->
<g id="node2" class="node">
<title>Node2</title>
<g id="a_node2"><a xlink:title=" ">
<polygon fill="none" stroke="#bfbfbf" points="168.5,-196 168.5,-215 218.5,-215 218.5,-196 168.5,-196"/>
<text text-anchor="middle" x="193.5" y="-203" font-family="Helvetica,sans-Serif" font-size="10.00">cstdint</text>
</a>
</g>
</g>
<!-- Node1&#45;&gt;Node2 -->
<g id="edge1" class="edge">
<title>Node1&#45;&gt;Node2</title>
<path fill="none" stroke="midnightblue" d="M471.99,-335.53C424.48,-325.8 364.64,-310.47 314.5,-288 274.95,-270.27 234.2,-239.83 211.53,-221.59"/>
<polygon fill="midnightblue" stroke="midnightblue" points="213.73,-218.86 203.77,-215.25 209.3,-224.28 213.73,-218.86"/>
</g>
<!-- Node3 -->
<g id="node3" class="node">
<title>Node3</title>
<g id="a_node3"><a xlink:title=" ">
<polygon fill="none" stroke="#bfbfbf" points="560,-263 560,-282 601,-282 601,-263 560,-263"/>
<text text-anchor="middle" x="580.5" y="-270" font-family="Helvetica,sans-Serif" font-size="10.00">tuple</text>
</a>
</g>
</g>
<!-- Node1&#45;&gt;Node3 -->
<g id="edge2" class="edge">
<title>Node1&#45;&gt;Node3</title>
<path fill="none" stroke="midnightblue" d="M563.82,-324.19C567.29,-313.65 571.24,-301.64 574.43,-291.95"/>
<polygon fill="midnightblue" stroke="midnightblue" points="577.84,-292.8 577.64,-282.21 571.19,-290.61 577.84,-292.8"/>
</g>
<!-- Node4 -->
<g id="node4" class="node">
<title>Node4</title>
<g id="a_node4"><a xlink:title=" ">
<polygon fill="none" stroke="#bfbfbf" points="102,-129 102,-148 149,-148 149,-129 102,-129"/>
<text text-anchor="middle" x="125.5" y="-136" font-family="Helvetica,sans-Serif" font-size="10.00">vector</text>
</a>
</g>
</g>
<!-- Node1&#45;&gt;Node4 -->
<g id="edge3" class="edge">
<title>Node1&#45;&gt;Node4</title>
<path fill="none" stroke="midnightblue" d="M471.92,-341.22C410.68,-333.04 326.55,-317.32 257.5,-288 208.94,-267.38 192.81,-261.92 159.5,-221 144.26,-202.28 134.91,-175.76 129.96,-158.12"/>
<polygon fill="midnightblue" stroke="midnightblue" points="133.29,-157 127.39,-148.2 126.51,-158.76 133.29,-157"/>
</g>
<!-- Node5 -->
<g id="node5" class="node">
<title>Node5</title>
<g id="a_node5"><a xlink:href="linear__grid_8hpp.html" target="_top" xlink:title="Concepts and abstract implementations of linear (ie. contiguous storage) grids.">
<polygon fill="none" stroke="black" points="323.5,-257.5 323.5,-287.5 433.5,-287.5 433.5,-257.5 323.5,-257.5"/>
<text text-anchor="start" x="331.5" y="-275.5" font-family="Helvetica,sans-Serif" font-size="10.00">beluga/sensor/data</text>
<text text-anchor="middle" x="378.5" y="-264.5" font-family="Helvetica,sans-Serif" font-size="10.00">/linear_grid.hpp</text>
</a>
</g>
</g>
<!-- Node1&#45;&gt;Node5 -->
<g id="edge4" class="edge">
<title>Node1&#45;&gt;Node5</title>
<path fill="none" stroke="midnightblue" d="M497.05,-324.4C472.12,-313.7 443.57,-301.44 420.74,-291.64"/>
<polygon fill="midnightblue" stroke="midnightblue" points="421.9,-288.33 411.33,-287.6 419.14,-294.76 421.9,-288.33"/>
</g>
<!-- Node10 -->
<g id="node10" class="node">
<title>Node10</title>
<g id="a_node10"><a xlink:title=" ">
<polygon fill="none" stroke="#bfbfbf" points="480.5,-62 480.5,-81 638.5,-81 638.5,-62 480.5,-62"/>
<text text-anchor="middle" x="559.5" y="-69" font-family="Helvetica,sans-Serif" font-size="10.00">range/v3/view/transform.hpp</text>
</a>
</g>
</g>
<!-- Node1&#45;&gt;Node10 -->
<g id="edge25" class="edge">
<title>Node1&#45;&gt;Node10</title>
<path fill="none" stroke="midnightblue" d="M553.5,-324.38C552.7,-313.25 551.89,-299.98 551.5,-288 549.14,-215.41 554.95,-129.08 557.9,-91.52"/>
<polygon fill="midnightblue" stroke="midnightblue" points="561.43,-91.37 558.75,-81.12 554.45,-90.81 561.43,-91.37"/>
</g>
<!-- Node11 -->
<g id="node11" class="node">
<title>Node11</title>
<g id="a_node11"><a xlink:title=" ">
<polygon fill="none" stroke="#bfbfbf" points="393,-62 393,-81 462,-81 462,-62 393,-62"/>
<text text-anchor="middle" x="427.5" y="-69" font-family="Helvetica,sans-Serif" font-size="10.00">Eigen/Core</text>
</a>
</g>
</g>
<!-- Node1&#45;&gt;Node11 -->
<g id="edge26" class="edge">
<title>Node1&#45;&gt;Node11</title>
<path fill="none" stroke="midnightblue" d="M543.92,-324.43C518.4,-269.21 457.86,-138.2 435.76,-90.37"/>
<polygon fill="midnightblue" stroke="midnightblue" points="438.81,-88.63 431.44,-81.02 432.45,-91.56 438.81,-88.63"/>
</g>
<!-- Node15 -->
<g id="node15" class="node">
<title>Node15</title>
<g id="a_node15"><a xlink:title=" ">
<polygon fill="none" stroke="#bfbfbf" points="619.5,-257.5 619.5,-287.5 729.5,-287.5 729.5,-257.5 619.5,-257.5"/>
<text text-anchor="start" x="627.5" y="-275.5" font-family="Helvetica,sans-Serif" font-size="10.00">range/v3/algorithm</text>
<text text-anchor="middle" x="674.5" y="-264.5" font-family="Helvetica,sans-Serif" font-size="10.00">/any_of.hpp</text>
</a>
</g>
</g>
<!-- Node1&#45;&gt;Node15 -->
<g id="edge21" class="edge">
<title>Node1&#45;&gt;Node15</title>
<path fill="none" stroke="midnightblue" d="M594.79,-324.4C610.6,-314.31 628.57,-302.83 643.44,-293.33"/>
<polygon fill="midnightblue" stroke="midnightblue" points="645.71,-296.04 652.26,-287.71 641.94,-290.14 645.71,-296.04"/>
</g>
<!-- Node16 -->
<g id="node16" class="node">
<title>Node16</title>
<g id="a_node16"><a xlink:title=" ">
<polygon fill="none" stroke="#bfbfbf" points="748,-263 748,-282 911,-282 911,-263 748,-263"/>
<text text-anchor="middle" x="829.5" y="-270" font-family="Helvetica,sans-Serif" font-size="10.00">range/v3/view/enumerate.hpp</text>
</a>
</g>
</g>
<!-- Node1&#45;&gt;Node16 -->
<g id="edge22" class="edge">
<title>Node1&#45;&gt;Node16</title>
<path fill="none" stroke="midnightblue" d="M639.2,-326.28C688.86,-312.51 749.58,-295.67 788.88,-284.77"/>
<polygon fill="midnightblue" stroke="midnightblue" points="789.93,-288.11 798.63,-282.06 788.06,-281.36 789.93,-288.11"/>
</g>
<!-- Node17 -->
<g id="node17" class="node">
<title>Node17</title>
<g id="a_node17"><a xlink:title=" ">
<polygon fill="none" stroke="#bfbfbf" points="929,-263 929,-282 1060,-282 1060,-263 929,-263"/>
<text text-anchor="middle" x="994.5" y="-270" font-family="Helvetica,sans-Serif" font-size="10.00">range/v3/view/filter.hpp</text>
</a>
</g>
</g>
<!-- Node1&#45;&gt;Node17 -->
<g id="edge23" class="edge">
<title>Node1&#45;&gt;Node17</title>
<path fill="none" stroke="midnightblue" d="M639.33,-336.02C713.38,-323.97 824.25,-305.54 920.5,-288 927.34,-286.75 934.52,-285.4 941.61,-284.04"/>
<polygon fill="midnightblue" stroke="midnightblue" points="942.73,-287.39 951.88,-282.05 941.4,-280.52 942.73,-287.39"/>
</g>
<!-- Node18 -->
<g id="node18" class="node">
<title>Node18</title>
<g id="a_node18"><a xlink:title=" ">
<polygon fill="none" stroke="#bfbfbf" points="1078.5,-263 1078.5,-282 1206.5,-282 1206.5,-263 1078.5,-263"/>
<text text-anchor="middle" x="1142.5" y="-270" font-family="Helvetica,sans-Serif" font-size="10.00">range/v3/view/iota.hpp</text>
</a>
</g>
</g>
<!-- Node1&#45;&gt;Node18 -->
<g id="edge24" class="edge">
<title>Node1&#45;&gt;Node18</title>
<path fill="none" stroke="midnightblue" d="M639.01,-341.5C740.94,-331.29 918.39,-312.01 1069.5,-288 1076.95,-286.82 1084.81,-285.42 1092.49,-283.96"/>
<polygon fill="midnightblue" stroke="midnightblue" points="1093.29,-287.37 1102.44,-282.03 1091.95,-280.5 1093.29,-287.37"/>
</g>
<!-- Node5&#45;&gt;Node2 -->
<g id="edge5" class="edge">
<title>Node5&#45;&gt;Node2</title>
<path fill="none" stroke="midnightblue" d="M337.19,-257.49C307.91,-247.5 267.72,-233.64 232.5,-221 230.26,-220.2 227.96,-219.36 225.64,-218.51"/>
<polygon fill="midnightblue" stroke="midnightblue" points="226.75,-215.19 216.15,-215.02 224.33,-221.76 226.75,-215.19"/>
</g>
<!-- Node5&#45;&gt;Node4 -->
<g id="edge7" class="edge">
<title>Node5&#45;&gt;Node4</title>
<path fill="none" stroke="midnightblue" d="M340.61,-257.49C318.05,-248.45 289.28,-235.66 265.5,-221 246.94,-209.57 245.87,-201.73 227.5,-190 196.68,-170.31 186.19,-170.41 153.5,-154 152.67,-153.58 151.82,-153.15 150.96,-152.72"/>
<polygon fill="midnightblue" stroke="midnightblue" points="152.25,-149.45 141.75,-148 149.06,-155.68 152.25,-149.45"/>
</g>
<!-- Node6 -->
<g id="node6" class="node">
<title>Node6</title>
<g id="a_node6"><a xlink:title=" ">
<polygon fill="none" stroke="#bfbfbf" points="371.5,-129 371.5,-148 427.5,-148 427.5,-129 371.5,-129"/>
<text text-anchor="middle" x="399.5" y="-136" font-family="Helvetica,sans-Serif" font-size="10.00">optional</text>
</a>
</g>
</g>
<!-- Node5&#45;&gt;Node6 -->
<g id="edge6" class="edge">
<title>Node5&#45;&gt;Node6</title>
<path fill="none" stroke="midnightblue" d="M383.67,-257.12C387.05,-247.12 391.23,-233.41 393.5,-221 397.4,-199.68 398.78,-174.79 399.26,-158.18"/>
<polygon fill="midnightblue" stroke="midnightblue" points="402.76,-158.21 399.47,-148.14 395.77,-158.07 402.76,-158.21"/>
</g>
<!-- Node7 -->
<g id="node7" class="node">
<title>Node7</title>
<g id="a_node7"><a xlink:href="dense__grid_8hpp.html" target="_top" xlink:title="Concepts and abstract implementations of dense grids.">
<polygon fill="none" stroke="black" points="274.5,-190.5 274.5,-220.5 384.5,-220.5 384.5,-190.5 274.5,-190.5"/>
<text text-anchor="start" x="282.5" y="-208.5" font-family="Helvetica,sans-Serif" font-size="10.00">beluga/sensor/data</text>
<text text-anchor="middle" x="329.5" y="-197.5" font-family="Helvetica,sans-Serif" font-size="10.00">/dense_grid.hpp</text>
</a>
</g>
</g>
<!-- Node5&#45;&gt;Node7 -->
<g id="edge8" class="edge">
<title>Node5&#45;&gt;Node7</title>
<path fill="none" stroke="midnightblue" d="M367.87,-257.4C361.58,-249.05 353.46,-238.29 346.32,-228.81"/>
<polygon fill="midnightblue" stroke="midnightblue" points="348.93,-226.45 340.11,-220.58 343.34,-230.67 348.93,-226.45"/>
</g>
<!-- Node5&#45;&gt;Node11 -->
<g id="edge20" class="edge">
<title>Node5&#45;&gt;Node11</title>
<path fill="none" stroke="midnightblue" d="M388.67,-257.2C403.04,-235.93 428.45,-194.15 436.5,-154 440.78,-132.68 436.74,-107.79 432.8,-91.17"/>
<polygon fill="midnightblue" stroke="midnightblue" points="436.09,-89.94 430.18,-81.14 429.32,-91.7 436.09,-89.94"/>
</g>
<!-- Node7&#45;&gt;Node4 -->
<g id="edge10" class="edge">
<title>Node7&#45;&gt;Node4</title>
<path fill="none" stroke="midnightblue" d="M280.18,-190.47C247.01,-180.79 202.4,-167.32 163.5,-154 161.25,-153.23 158.92,-152.41 156.59,-151.56"/>
<polygon fill="midnightblue" stroke="midnightblue" points="157.7,-148.24 147.11,-148.04 155.26,-154.8 157.7,-148.24"/>
</g>
<!-- Node7&#45;&gt;Node6 -->
<g id="edge9" class="edge">
<title>Node7&#45;&gt;Node6</title>
<path fill="none" stroke="midnightblue" d="M344.69,-190.4C355.82,-180.06 370.94,-166.02 382.47,-155.31"/>
<polygon fill="midnightblue" stroke="midnightblue" points="385.19,-157.56 390.14,-148.19 380.43,-152.43 385.19,-157.56"/>
</g>
<!-- Node8 -->
<g id="node8" class="node">
<title>Node8</title>
<g id="a_node8"><a xlink:href="regular__grid_8hpp.html" target="_top" xlink:title="Concepts and abstract implementations of regular grids.">
<polygon fill="none" stroke="black" points="205.5,-123.5 205.5,-153.5 315.5,-153.5 315.5,-123.5 205.5,-123.5"/>
<text text-anchor="start" x="213.5" y="-141.5" font-family="Helvetica,sans-Serif" font-size="10.00">beluga/sensor/data</text>
<text text-anchor="middle" x="260.5" y="-130.5" font-family="Helvetica,sans-Serif" font-size="10.00">/regular_grid.hpp</text>
</a>
</g>
</g>
<!-- Node7&#45;&gt;Node8 -->
<g id="edge11" class="edge">
<title>Node7&#45;&gt;Node8</title>
<path fill="none" stroke="midnightblue" d="M314.53,-190.4C305.31,-181.71 293.31,-170.4 282.96,-160.66"/>
<polygon fill="midnightblue" stroke="midnightblue" points="285.12,-157.89 275.44,-153.58 280.32,-162.98 285.12,-157.89"/>
</g>
<!-- Node7&#45;&gt;Node11 -->
<g id="edge18" class="edge">
<title>Node7&#45;&gt;Node11</title>
<path fill="none" stroke="midnightblue" d="M332.79,-190.4C337.32,-173.19 346.75,-143.82 362.5,-123 373.57,-108.37 389.88,-95.71 403.39,-86.73"/>
<polygon fill="midnightblue" stroke="midnightblue" points="405.65,-89.44 412.2,-81.12 401.89,-83.54 405.65,-89.44"/>
</g>
<!-- Node12 -->
<g id="node12" class="node">
<title>Node12</title>
<g id="a_node12"><a xlink:href="eigen__compatibility_8hpp_source.html" target="_top" xlink:title=" ">
<polygon fill="none" stroke="black" points="0,-62 0,-81 169,-81 169,-62 0,-62"/>
<text text-anchor="middle" x="84.5" y="-69" font-family="Helvetica,sans-Serif" font-size="10.00">beluga/eigen_compatibility.hpp</text>
</a>
</g>
</g>
<!-- Node7&#45;&gt;Node12 -->
<g id="edge19" class="edge">
<title>Node7&#45;&gt;Node12</title>
<path fill="none" stroke="midnightblue" d="M282.06,-190.46C255.93,-181.76 223.44,-169.33 196.5,-154 177.25,-143.05 175.28,-136.19 157.5,-123 140.39,-110.3 120.46,-96.58 105.75,-86.66"/>
<polygon fill="midnightblue" stroke="midnightblue" points="107.59,-83.68 97.34,-81.01 103.69,-89.49 107.59,-83.68"/>
</g>
<!-- Node9 -->
<g id="node9" class="node">
<title>Node9</title>
<g id="a_node9"><a xlink:title=" ">
<polygon fill="none" stroke="#bfbfbf" points="187,-62 187,-81 234,-81 234,-62 187,-62"/>
<text text-anchor="middle" x="210.5" y="-69" font-family="Helvetica,sans-Serif" font-size="10.00">cmath</text>
</a>
</g>
</g>
<!-- Node8&#45;&gt;Node9 -->
<g id="edge12" class="edge">
<title>Node8&#45;&gt;Node9</title>
<path fill="none" stroke="midnightblue" d="M249.65,-123.4C241.93,-113.36 231.53,-99.84 223.39,-89.25"/>
<polygon fill="midnightblue" stroke="midnightblue" points="226.06,-86.99 217.19,-81.19 220.51,-91.25 226.06,-86.99"/>
</g>
<!-- Node8&#45;&gt;Node10 -->
<g id="edge13" class="edge">
<title>Node8&#45;&gt;Node10</title>
<path fill="none" stroke="midnightblue" d="M315.69,-125.5C371.49,-113.37 456.92,-94.8 510.42,-83.17"/>
<polygon fill="midnightblue" stroke="midnightblue" points="511.33,-86.55 520.35,-81.01 509.84,-79.71 511.33,-86.55"/>
</g>
<!-- Node8&#45;&gt;Node11 -->
<g id="edge14" class="edge">
<title>Node8&#45;&gt;Node11</title>
<path fill="none" stroke="midnightblue" d="M296.74,-123.4C326.43,-111.84 368.01,-95.66 396.25,-84.66"/>
<polygon fill="midnightblue" stroke="midnightblue" points="397.59,-87.9 405.64,-81.01 395.06,-81.37 397.59,-87.9"/>
</g>
<!-- Node8&#45;&gt;Node12 -->
<g id="edge15" class="edge">
<title>Node8&#45;&gt;Node12</title>
<path fill="none" stroke="midnightblue" d="M222.31,-123.4C190.88,-111.79 146.82,-95.51 117.04,-84.52"/>
<polygon fill="midnightblue" stroke="midnightblue" points="118.13,-81.19 107.53,-81.01 115.7,-87.75 118.13,-81.19"/>
</g>
<!-- Node14 -->
<g id="node14" class="node">
<title>Node14</title>
<g id="a_node14"><a xlink:href="enable__self_8hpp.html" target="_top" xlink:title="Implementation of a CRTP utility to enable downcasting to the most derived class.">
<polygon fill="none" stroke="black" points="252.5,-56.5 252.5,-86.5 374.5,-86.5 374.5,-56.5 252.5,-56.5"/>
<text text-anchor="start" x="260.5" y="-74.5" font-family="Helvetica,sans-Serif" font-size="10.00">beluga/mixins/enable</text>
<text text-anchor="middle" x="313.5" y="-63.5" font-family="Helvetica,sans-Serif" font-size="10.00">_self.hpp</text>
</a>
</g>
</g>
<!-- Node8&#45;&gt;Node14 -->
<g id="edge17" class="edge">
<title>Node8&#45;&gt;Node14</title>
<path fill="none" stroke="midnightblue" d="M272,-123.4C278.88,-114.96 287.76,-104.07 295.54,-94.52"/>
<polygon fill="midnightblue" stroke="midnightblue" points="298.42,-96.54 302.02,-86.58 292.99,-92.11 298.42,-96.54"/>
</g>
<!-- Node13 -->
<g id="node13" class="node">
<title>Node13</title>
<g id="a_node13"><a xlink:title=" ">
<polygon fill="none" stroke="#bfbfbf" points="46,-0.5 46,-19.5 123,-19.5 123,-0.5 46,-0.5"/>
<text text-anchor="middle" x="84.5" y="-7.5" font-family="Helvetica,sans-Serif" font-size="10.00">Eigen/Dense</text>
</a>
</g>
</g>
<!-- Node12&#45;&gt;Node13 -->
<g id="edge16" class="edge">
<title>Node12&#45;&gt;Node13</title>
<path fill="none" stroke="midnightblue" d="M84.5,-61.98C84.5,-53.58 84.5,-40.48 84.5,-29.66"/>
<polygon fill="midnightblue" stroke="midnightblue" points="88,-29.51 84.5,-19.51 81,-29.51 88,-29.51"/>
</g>
</g>
</svg>
