<?xml version="1.0" encoding="UTF-8" standalone="no"?>
<!DOCTYPE svg PUBLIC "-//W3C//DTD SVG 1.1//EN"
 "http://www.w3.org/Graphics/SVG/1.1/DTD/svg11.dtd">
<!-- Generated by graphviz version 2.43.0 (0)
 -->
<!-- Title: /home/runner/work/beluga/beluga/beluga/include/beluga/motion/omnidirectional_drive_model.hpp Pages: 1 -->
<svg width="556pt" height="184pt"
 viewBox="0.00 0.00 556.00 184.00" xmlns="http://www.w3.org/2000/svg" xmlns:xlink="http://www.w3.org/1999/xlink">
<g id="graph0" class="graph" transform="scale(1 1) rotate(0) translate(4 180)">
<title>/home/runner/work/beluga/beluga/beluga/include/beluga/motion/omnidirectional_drive_model.hpp</title>
<!-- Node1 -->
<g id="node1" class="node">
<title>Node1</title>
<g id="a_node1"><a xlink:title="Implementation of an omnidirectional drive odometry motion model.">
<polygon fill="#bfbfbf" stroke="black" points="152,-123.5 152,-175.5 322,-175.5 322,-123.5 152,-123.5"/>
<text text-anchor="start" x="160" y="-163.5" font-family="Helvetica,sans-Serif" font-size="10.00">/home/runner/work/beluga</text>
<text text-anchor="start" x="160" y="-152.5" font-family="Helvetica,sans-Serif" font-size="10.00">/beluga/beluga/include</text>
<text text-anchor="start" x="160" y="-141.5" font-family="Helvetica,sans-Serif" font-size="10.00">/beluga/motion/omnidirectional</text>
<text text-anchor="middle" x="237" y="-130.5" font-family="Helvetica,sans-Serif" font-size="10.00">_drive_model.hpp</text>
</a>
</g>
</g>
<!-- Node2 -->
<g id="node2" class="node">
<title>Node2</title>
<g id="a_node2"><a xlink:title=" ">
<polygon fill="none" stroke="#bfbfbf" points="0,-62 0,-81 56,-81 56,-62 0,-62"/>
<text text-anchor="middle" x="28" y="-69" font-family="Helvetica,sans-Serif" font-size="10.00">optional</text>
</a>
</g>
</g>
<!-- Node1&#45;&gt;Node2 -->
<g id="edge1" class="edge">
<title>Node1&#45;&gt;Node2</title>
<path fill="none" stroke="midnightblue" d="M165.27,-123.4C134.35,-112.43 97.82,-99.29 65,-87 63.11,-86.29 61.17,-85.56 59.21,-84.81"/>
<polygon fill="midnightblue" stroke="midnightblue" points="60.07,-81.39 49.48,-81.04 57.54,-87.92 60.07,-81.39"/>
</g>
<!-- Node3 -->
<g id="node3" class="node">
<title>Node3</title>
<g id="a_node3"><a xlink:title=" ">
<polygon fill="none" stroke="#bfbfbf" points="74,-62 74,-81 128,-81 128,-62 74,-62"/>
<text text-anchor="middle" x="101" y="-69" font-family="Helvetica,sans-Serif" font-size="10.00">random</text>
</a>
</g>
</g>
<!-- Node1&#45;&gt;Node3 -->
<g id="edge2" class="edge">
<title>Node1&#45;&gt;Node3</title>
<path fill="none" stroke="midnightblue" d="M192.09,-123.4C169.82,-110.96 143.8,-96.42 125.29,-86.07"/>
<polygon fill="midnightblue" stroke="midnightblue" points="126.79,-82.9 116.35,-81.08 123.37,-89.01 126.79,-82.9"/>
</g>
<!-- Node4 -->
<g id="node4" class="node">
<title>Node4</title>
<g id="a_node4"><a xlink:title=" ">
<polygon fill="none" stroke="#bfbfbf" points="145.5,-0.5 145.5,-19.5 186.5,-19.5 186.5,-0.5 145.5,-0.5"/>
<text text-anchor="middle" x="166" y="-7.5" font-family="Helvetica,sans-Serif" font-size="10.00">tuple</text>
</a>
</g>
</g>
<!-- Node1&#45;&gt;Node4 -->
<g id="edge3" class="edge">
<title>Node1&#45;&gt;Node4</title>
<path fill="none" stroke="midnightblue" d="M203.72,-123.3C192.78,-113.24 181.71,-100.76 175,-87 166.28,-69.13 164.68,-46.17 164.86,-30.19"/>
<polygon fill="midnightblue" stroke="midnightblue" points="168.36,-30.08 165.22,-19.96 161.37,-29.83 168.36,-30.08"/>
</g>
<!-- Node5 -->
<g id="node5" class="node">
<title>Node5</title>
<g id="a_node5"><a xlink:title=" ">
<polygon fill="none" stroke="#bfbfbf" points="280.5,-0.5 280.5,-19.5 349.5,-19.5 349.5,-0.5 280.5,-0.5"/>
<text text-anchor="middle" x="315" y="-7.5" font-family="Helvetica,sans-Serif" font-size="10.00">type_traits</text>
</a>
</g>
</g>
<!-- Node1&#45;&gt;Node5 -->
<g id="edge4" class="edge">
<title>Node1&#45;&gt;Node5</title>
<path fill="none" stroke="midnightblue" d="M269.29,-123.26C280.26,-113.1 291.61,-100.58 299,-87 308.75,-69.08 312.57,-45.8 314.05,-29.75"/>
<polygon fill="midnightblue" stroke="midnightblue" points="317.56,-29.75 314.78,-19.53 310.58,-29.25 317.56,-29.75"/>
</g>
<!-- Node6 -->
<g id="node6" class="node">
<title>Node6</title>
<g id="a_node6"><a xlink:href="tuple__traits_8hpp.html" target="_top" xlink:title="Implementation of traits for tuple&#45;like types.">
<polygon fill="none" stroke="black" points="184.5,-56.5 184.5,-86.5 289.5,-86.5 289.5,-56.5 184.5,-56.5"/>
<text text-anchor="start" x="192.5" y="-74.5" font-family="Helvetica,sans-Serif" font-size="10.00">beluga/type_traits</text>
<text text-anchor="middle" x="237" y="-63.5" font-family="Helvetica,sans-Serif" font-size="10.00">/tuple_traits.hpp</text>
</a>
</g>
</g>
<!-- Node1&#45;&gt;Node6 -->
<g id="edge5" class="edge">
<title>Node1&#45;&gt;Node6</title>
<path fill="none" stroke="midnightblue" d="M237,-123.19C237,-114.79 237,-105.44 237,-97.09"/>
<polygon fill="midnightblue" stroke="midnightblue" points="240.5,-96.85 237,-86.85 233.5,-96.85 240.5,-96.85"/>
</g>
<!-- Node8 -->
<g id="node8" class="node">
<title>Node8</title>
<g id="a_node8"><a xlink:title=" ">
<polygon fill="none" stroke="#bfbfbf" points="346,-62 346,-81 438,-81 438,-62 346,-62"/>
<text text-anchor="middle" x="392" y="-69" font-family="Helvetica,sans-Serif" font-size="10.00">sophus/se2.hpp</text>
</a>
</g>
</g>
<!-- Node1&#45;&gt;Node8 -->
<g id="edge9" class="edge">
<title>Node1&#45;&gt;Node8</title>
<path fill="none" stroke="midnightblue" d="M288.18,-123.4C314.03,-110.73 344.31,-95.89 365.47,-85.51"/>
<polygon fill="midnightblue" stroke="midnightblue" points="367.07,-88.62 374.51,-81.08 363.99,-82.34 367.07,-88.62"/>
</g>
<!-- Node9 -->
<g id="node9" class="node">
<title>Node9</title>
<g id="a_node9"><a xlink:title=" ">
<polygon fill="none" stroke="#bfbfbf" points="456,-62 456,-81 548,-81 548,-62 456,-62"/>
<text text-anchor="middle" x="502" y="-69" font-family="Helvetica,sans-Serif" font-size="10.00">sophus/so2.hpp</text>
</a>
</g>
</g>
<!-- Node1&#45;&gt;Node9 -->
<g id="edge10" class="edge">
<title>Node1&#45;&gt;Node9</title>
<path fill="none" stroke="midnightblue" d="M322.31,-124.03C369.33,-110.55 425.47,-94.45 462.34,-83.87"/>
<polygon fill="midnightblue" stroke="midnightblue" points="463.56,-87.17 472.2,-81.05 461.63,-80.44 463.56,-87.17"/>
</g>
<!-- Node6&#45;&gt;Node4 -->
<g id="edge6" class="edge">
<title>Node6&#45;&gt;Node4</title>
<path fill="none" stroke="midnightblue" d="M220.17,-56.4C209.33,-47.31 195.22,-35.49 184.13,-26.19"/>
<polygon fill="midnightblue" stroke="midnightblue" points="186.24,-23.4 176.33,-19.66 181.75,-28.76 186.24,-23.4"/>
</g>
<!-- Node6&#45;&gt;Node5 -->
<g id="edge7" class="edge">
<title>Node6&#45;&gt;Node5</title>
<path fill="none" stroke="midnightblue" d="M255.48,-56.4C267.52,-47.22 283.2,-35.26 295.44,-25.92"/>
<polygon fill="midnightblue" stroke="midnightblue" points="297.82,-28.51 303.65,-19.66 293.58,-22.94 297.82,-28.51"/>
</g>
<!-- Node7 -->
<g id="node7" class="node">
<title>Node7</title>
<g id="a_node7"><a xlink:title=" ">
<polygon fill="none" stroke="#bfbfbf" points="214.5,-0.5 214.5,-19.5 259.5,-19.5 259.5,-0.5 214.5,-0.5"/>
<text text-anchor="middle" x="237" y="-7.5" font-family="Helvetica,sans-Serif" font-size="10.00">utility</text>
</a>
</g>
</g>
<!-- Node6&#45;&gt;Node7 -->
<g id="edge8" class="edge">
<title>Node6&#45;&gt;Node7</title>
<path fill="none" stroke="midnightblue" d="M237,-56.4C237,-48.47 237,-38.46 237,-29.86"/>
<polygon fill="midnightblue" stroke="midnightblue" points="240.5,-29.66 237,-19.66 233.5,-29.66 240.5,-29.66"/>
</g>
</g>
</svg>
