<?xml version="1.0" encoding="UTF-8" standalone="no"?>
<!DOCTYPE svg PUBLIC "-//W3C//DTD SVG 1.1//EN"
 "http://www.w3.org/Graphics/SVG/1.1/DTD/svg11.dtd">
<!-- Generated by graphviz version 2.43.0 (0)
 -->
<!-- Title: /home/runner/work/beluga/beluga/beluga/include/beluga/policies/on_motion.hpp Pages: 1 -->
<svg width="220pt" height="284pt"
 viewBox="0.00 0.00 220.00 284.00" xmlns="http://www.w3.org/2000/svg" xmlns:xlink="http://www.w3.org/1999/xlink">
<g id="graph0" class="graph" transform="scale(1 1) rotate(0) translate(4 280)">
<title>/home/runner/work/beluga/beluga/beluga/include/beluga/policies/on_motion.hpp</title>
<!-- Node1 -->
<g id="node1" class="node">
<title>Node1</title>
<g id="a_node1"><a xlink:title="Defines a policy for triggering an action based on motion.">
<polygon fill="#bfbfbf" stroke="black" points="4,-234.5 4,-275.5 173,-275.5 173,-234.5 4,-234.5"/>
<text text-anchor="start" x="12" y="-263.5" font-family="Helvetica,sans-Serif" font-size="10.00">/home/runner/work/beluga</text>
<text text-anchor="start" x="12" y="-252.5" font-family="Helvetica,sans-Serif" font-size="10.00">/beluga/beluga/include</text>
<text text-anchor="middle" x="88.5" y="-241.5" font-family="Helvetica,sans-Serif" font-size="10.00">/beluga/policies/on_motion.hpp</text>
</a>
</g>
</g>
<!-- Node2 -->
<g id="node2" class="node">
<title>Node2</title>
<g id="a_node2"><a xlink:href="amcl__core_8hpp_source.html" target="_top" xlink:title=" ">
<polygon fill="none" stroke="black" points="0,-0.5 0,-41.5 177,-41.5 177,-0.5 0,-0.5"/>
<text text-anchor="start" x="8" y="-29.5" font-family="Helvetica,sans-Serif" font-size="10.00">/home/runner/work/beluga</text>
<text text-anchor="start" x="8" y="-18.5" font-family="Helvetica,sans-Serif" font-size="10.00">/beluga/beluga/include</text>
<text text-anchor="middle" x="88.5" y="-7.5" font-family="Helvetica,sans-Serif" font-size="10.00">/beluga/algorithm/amcl_core.hpp</text>
</a>
</g>
</g>
<!-- Node1&#45;&gt;Node2 -->
<g id="edge1" class="edge">
<title>Node1&#45;&gt;Node2</title>
<path fill="none" stroke="midnightblue" d="M69.77,-225.5C65.16,-217 60.87,-207.43 58.5,-198 45.52,-146.27 45.52,-129.73 58.5,-78 61.72,-65.16 68.52,-52.06 74.82,-41.75"/>
<polygon fill="midnightblue" stroke="midnightblue" points="66.79,-227.34 74.82,-234.25 72.85,-223.84 66.79,-227.34"/>
</g>
<!-- Node3 -->
<g id="node3" class="node">
<title>Node3</title>
<g id="a_node3"><a xlink:href="policies_8hpp.html" target="_top" xlink:title="Implementation of useful policies.">
<polygon fill="none" stroke="black" points="67,-156.5 67,-197.5 212,-197.5 212,-156.5 67,-156.5"/>
<text text-anchor="start" x="75" y="-185.5" font-family="Helvetica,sans-Serif" font-size="10.00">/home/runner/work/beluga</text>
<text text-anchor="start" x="75" y="-174.5" font-family="Helvetica,sans-Serif" font-size="10.00">/beluga/beluga/include</text>
<text text-anchor="middle" x="139.5" y="-163.5" font-family="Helvetica,sans-Serif" font-size="10.00">/beluga/policies.hpp</text>
</a>
</g>
</g>
<!-- Node1&#45;&gt;Node3 -->
<g id="edge2" class="edge">
<title>Node1&#45;&gt;Node3</title>
<path fill="none" stroke="midnightblue" d="M107.26,-226.05C113.62,-216.57 120.59,-206.18 126.41,-197.51"/>
<polygon fill="midnightblue" stroke="midnightblue" points="104.3,-224.17 101.63,-234.43 110.11,-228.07 104.3,-224.17"/>
</g>
<!-- Node4 -->
<g id="node4" class="node">
<title>Node4</title>
<g id="a_node4"><a xlink:href="beluga_8hpp.html" target="_top" xlink:title="Includes all the Beluga API.">
<polygon fill="none" stroke="black" points="67,-78.5 67,-119.5 212,-119.5 212,-78.5 67,-78.5"/>
<text text-anchor="start" x="75" y="-107.5" font-family="Helvetica,sans-Serif" font-size="10.00">/home/runner/work/beluga</text>
<text text-anchor="start" x="75" y="-96.5" font-family="Helvetica,sans-Serif" font-size="10.00">/beluga/beluga/include</text>
<text text-anchor="middle" x="139.5" y="-85.5" font-family="Helvetica,sans-Serif" font-size="10.00">/beluga/beluga.hpp</text>
</a>
</g>
</g>
<!-- Node3&#45;&gt;Node4 -->
<g id="edge3" class="edge">
<title>Node3&#45;&gt;Node4</title>
<path fill="none" stroke="midnightblue" d="M139.5,-146.3C139.5,-137.3 139.5,-127.65 139.5,-119.51"/>
<polygon fill="midnightblue" stroke="midnightblue" points="136,-146.43 139.5,-156.43 143,-146.43 136,-146.43"/>
</g>
<!-- Node4&#45;&gt;Node2 -->
<g id="edge4" class="edge">
<title>Node4&#45;&gt;Node2</title>
<path fill="none" stroke="midnightblue" d="M120.74,-70.05C114.38,-60.57 107.41,-50.18 101.59,-41.51"/>
<polygon fill="midnightblue" stroke="midnightblue" points="117.89,-72.07 126.37,-78.43 123.7,-68.17 117.89,-72.07"/>
</g>
</g>
</svg>
