<?xml version="1.0" encoding="UTF-8" standalone="no"?>
<!DOCTYPE svg PUBLIC "-//W3C//DTD SVG 1.1//EN"
 "http://www.w3.org/Graphics/SVG/1.1/DTD/svg11.dtd">
<!-- Generated by graphviz version 2.43.0 (0)
 -->
<!-- Title: /home/runner/work/beluga/beluga/beluga/include/beluga/actions/overlay.hpp Pages: 1 -->
<svg width="488pt" height="106pt"
 viewBox="0.00 0.00 488.00 106.00" xmlns="http://www.w3.org/2000/svg" xmlns:xlink="http://www.w3.org/1999/xlink">
<g id="graph0" class="graph" transform="scale(1 1) rotate(0) translate(4 102)">
<title>/home/runner/work/beluga/beluga/beluga/include/beluga/actions/overlay.hpp</title>
<!-- Node1 -->
<g id="node1" class="node">
<title>Node1</title>
<g id="a_node1"><a xlink:title="Implementation of the overlay range adaptor object.">
<polygon fill="#bfbfbf" stroke="black" points="100,-56.5 100,-97.5 250,-97.5 250,-56.5 100,-56.5"/>
<text text-anchor="start" x="108" y="-85.5" font-family="Helvetica,sans-Serif" font-size="10.00">/home/runner/work/beluga</text>
<text text-anchor="start" x="108" y="-74.5" font-family="Helvetica,sans-Serif" font-size="10.00">/beluga/beluga/include</text>
<text text-anchor="middle" x="175" y="-63.5" font-family="Helvetica,sans-Serif" font-size="10.00">/beluga/actions/overlay.hpp</text>
</a>
</g>
</g>
<!-- Node2 -->
<g id="node2" class="node">
<title>Node2</title>
<g id="a_node2"><a xlink:title=" ">
<polygon fill="none" stroke="#bfbfbf" points="0,-0.5 0,-19.5 64,-19.5 64,-0.5 0,-0.5"/>
<text text-anchor="middle" x="32" y="-7.5" font-family="Helvetica,sans-Serif" font-size="10.00">algorithm</text>
</a>
</g>
</g>
<!-- Node1&#45;&gt;Node2 -->
<g id="edge1" class="edge">
<title>Node1&#45;&gt;Node2</title>
<path fill="none" stroke="midnightblue" d="M132.1,-56.5C108.8,-45.91 80.66,-33.12 60.15,-23.8"/>
<polygon fill="midnightblue" stroke="midnightblue" points="61.59,-20.6 51.04,-19.65 58.69,-26.98 61.59,-20.6"/>
</g>
<!-- Node3 -->
<g id="node3" class="node">
<title>Node3</title>
<g id="a_node3"><a xlink:title=" ">
<polygon fill="none" stroke="#bfbfbf" points="82,-0.5 82,-19.5 146,-19.5 146,-0.5 82,-0.5"/>
<text text-anchor="middle" x="114" y="-7.5" font-family="Helvetica,sans-Serif" font-size="10.00">execution</text>
</a>
</g>
</g>
<!-- Node1&#45;&gt;Node3 -->
<g id="edge2" class="edge">
<title>Node1&#45;&gt;Node3</title>
<path fill="none" stroke="midnightblue" d="M156.7,-56.5C147.89,-47.11 137.45,-35.98 129.09,-27.08"/>
<polygon fill="midnightblue" stroke="midnightblue" points="131.52,-24.55 122.12,-19.65 126.41,-29.34 131.52,-24.55"/>
</g>
<!-- Node4 -->
<g id="node4" class="node">
<title>Node4</title>
<g id="a_node4"><a xlink:title=" ">
<polygon fill="none" stroke="#bfbfbf" points="164,-0.5 164,-19.5 310,-19.5 310,-0.5 164,-0.5"/>
<text text-anchor="middle" x="237" y="-7.5" font-family="Helvetica,sans-Serif" font-size="10.00">range/v3/action/action.hpp</text>
</a>
</g>
</g>
<!-- Node1&#45;&gt;Node4 -->
<g id="edge3" class="edge">
<title>Node1&#45;&gt;Node4</title>
<path fill="none" stroke="midnightblue" d="M193.6,-56.5C202.56,-47.11 213.17,-35.98 221.66,-27.08"/>
<polygon fill="midnightblue" stroke="midnightblue" points="224.38,-29.3 228.75,-19.65 219.31,-24.47 224.38,-29.3"/>
</g>
<!-- Node5 -->
<g id="node5" class="node">
<title>Node5</title>
<g id="a_node5"><a xlink:title=" ">
<polygon fill="none" stroke="#bfbfbf" points="328,-0.5 328,-19.5 480,-19.5 480,-0.5 328,-0.5"/>
<text text-anchor="middle" x="404" y="-7.5" font-family="Helvetica,sans-Serif" font-size="10.00">range/v3/view/common.hpp</text>
</a>
</g>
</g>
<!-- Node1&#45;&gt;Node5 -->
<g id="edge4" class="edge">
<title>Node1&#45;&gt;Node5</title>
<path fill="none" stroke="midnightblue" d="M243.71,-56.5C282.99,-45.35 330.88,-31.76 364.03,-22.35"/>
<polygon fill="midnightblue" stroke="midnightblue" points="365.15,-25.66 373.82,-19.57 363.24,-18.93 365.15,-25.66"/>
</g>
</g>
</svg>
