<?xml version="1.0" encoding="UTF-8" standalone="no"?>
<!DOCTYPE svg PUBLIC "-//W3C//DTD SVG 1.1//EN"
 "http://www.w3.org/Graphics/SVG/1.1/DTD/svg11.dtd">
<!-- Generated by graphviz version 2.43.0 (0)
 -->
<!-- Title: /home/runner/work/beluga/beluga/beluga/include/beluga/actions/overlay.hpp Pages: 1 -->
<svg width="316pt" height="462pt"
 viewBox="0.00 0.00 316.00 462.00" xmlns="http://www.w3.org/2000/svg" xmlns:xlink="http://www.w3.org/1999/xlink">
<g id="graph0" class="graph" transform="scale(1 1) rotate(0) translate(4 458)">
<title>/home/runner/work/beluga/beluga/beluga/include/beluga/actions/overlay.hpp</title>
<!-- Node1 -->
<g id="node1" class="node">
<title>Node1</title>
<g id="a_node1"><a xlink:title="Implementation of the overlay range adaptor object.">
<polygon fill="#bfbfbf" stroke="black" points="78.5,-412.5 78.5,-453.5 228.5,-453.5 228.5,-412.5 78.5,-412.5"/>
<text text-anchor="start" x="86.5" y="-441.5" font-family="Helvetica,sans-Serif" font-size="10.00">/home/runner/work/beluga</text>
<text text-anchor="start" x="86.5" y="-430.5" font-family="Helvetica,sans-Serif" font-size="10.00">/beluga/beluga/include</text>
<text text-anchor="middle" x="153.5" y="-419.5" font-family="Helvetica,sans-Serif" font-size="10.00">/beluga/actions/overlay.hpp</text>
</a>
</g>
</g>
<!-- Node2 -->
<g id="node2" class="node">
<title>Node2</title>
<g id="a_node2"><a xlink:href="likelihood__field__model__base_8hpp.html" target="_top" xlink:title="Implementation of a likelihood field common sensor model for range finders.">
<polygon fill="none" stroke="black" points="81,-323.5 81,-375.5 226,-375.5 226,-323.5 81,-323.5"/>
<text text-anchor="start" x="89" y="-363.5" font-family="Helvetica,sans-Serif" font-size="10.00">/home/runner/work/beluga</text>
<text text-anchor="start" x="89" y="-352.5" font-family="Helvetica,sans-Serif" font-size="10.00">/beluga/beluga/include</text>
<text text-anchor="start" x="89" y="-341.5" font-family="Helvetica,sans-Serif" font-size="10.00">/beluga/sensor/likelihood</text>
<text text-anchor="middle" x="153.5" y="-330.5" font-family="Helvetica,sans-Serif" font-size="10.00">_field_model_base.hpp</text>
</a>
</g>
</g>
<!-- Node1&#45;&gt;Node2 -->
<g id="edge1" class="edge">
<title>Node1&#45;&gt;Node2</title>
<path fill="none" stroke="midnightblue" d="M153.5,-402.12C153.5,-393.41 153.5,-383.99 153.5,-375.61"/>
<polygon fill="midnightblue" stroke="midnightblue" points="150,-402.27 153.5,-412.27 157,-402.27 150,-402.27"/>
</g>
<!-- Node3 -->
<g id="node3" class="node">
<title>Node3</title>
<g id="a_node3"><a xlink:href="likelihood__field__model_8hpp.html" target="_top" xlink:title="Implementation of a likelihood field sensor model for range finders.">
<polygon fill="none" stroke="black" points="0,-234.5 0,-286.5 145,-286.5 145,-234.5 0,-234.5"/>
<text text-anchor="start" x="8" y="-274.5" font-family="Helvetica,sans-Serif" font-size="10.00">/home/runner/work/beluga</text>
<text text-anchor="start" x="8" y="-263.5" font-family="Helvetica,sans-Serif" font-size="10.00">/beluga/beluga/include</text>
<text text-anchor="start" x="8" y="-252.5" font-family="Helvetica,sans-Serif" font-size="10.00">/beluga/sensor/likelihood</text>
<text text-anchor="middle" x="72.5" y="-241.5" font-family="Helvetica,sans-Serif" font-size="10.00">_field_model.hpp</text>
</a>
</g>
</g>
<!-- Node2&#45;&gt;Node3 -->
<g id="edge2" class="edge">
<title>Node2&#45;&gt;Node3</title>
<path fill="none" stroke="midnightblue" d="M123.05,-315.79C114.05,-306.13 104.35,-295.71 95.88,-286.61"/>
<polygon fill="midnightblue" stroke="midnightblue" points="120.7,-318.4 130.07,-323.34 125.82,-313.63 120.7,-318.4"/>
</g>
<!-- Node7 -->
<g id="node7" class="node">
<title>Node7</title>
<g id="a_node7"><a xlink:href="likelihood__field__prob__model_8hpp.html" target="_top" xlink:title="Implementation of a likelihood field prob sensor model for range finders.">
<polygon fill="none" stroke="black" points="163,-234.5 163,-286.5 308,-286.5 308,-234.5 163,-234.5"/>
<text text-anchor="start" x="171" y="-274.5" font-family="Helvetica,sans-Serif" font-size="10.00">/home/runner/work/beluga</text>
<text text-anchor="start" x="171" y="-263.5" font-family="Helvetica,sans-Serif" font-size="10.00">/beluga/beluga/include</text>
<text text-anchor="start" x="171" y="-252.5" font-family="Helvetica,sans-Serif" font-size="10.00">/beluga/sensor/likelihood</text>
<text text-anchor="middle" x="235.5" y="-241.5" font-family="Helvetica,sans-Serif" font-size="10.00">_field_prob_model.hpp</text>
</a>
</g>
</g>
<!-- Node2&#45;&gt;Node7 -->
<g id="edge6" class="edge">
<title>Node2&#45;&gt;Node7</title>
<path fill="none" stroke="midnightblue" d="M184.33,-315.79C193.44,-306.13 203.26,-295.71 211.84,-286.61"/>
<polygon fill="midnightblue" stroke="midnightblue" points="181.53,-313.66 177.22,-323.34 186.62,-318.46 181.53,-313.66"/>
</g>
<!-- Node4 -->
<g id="node4" class="node">
<title>Node4</title>
<g id="a_node4"><a xlink:href="sensor_8hpp.html" target="_top" xlink:title="Includes all Beluga sensor models and their interfaces.">
<polygon fill="none" stroke="black" points="81,-156.5 81,-197.5 226,-197.5 226,-156.5 81,-156.5"/>
<text text-anchor="start" x="89" y="-185.5" font-family="Helvetica,sans-Serif" font-size="10.00">/home/runner/work/beluga</text>
<text text-anchor="start" x="89" y="-174.5" font-family="Helvetica,sans-Serif" font-size="10.00">/beluga/beluga/include</text>
<text text-anchor="middle" x="153.5" y="-163.5" font-family="Helvetica,sans-Serif" font-size="10.00">/beluga/sensor.hpp</text>
</a>
</g>
</g>
<!-- Node3&#45;&gt;Node4 -->
<g id="edge3" class="edge">
<title>Node3&#45;&gt;Node4</title>
<path fill="none" stroke="midnightblue" d="M104.74,-227.07C114.63,-217.11 125.22,-206.45 133.99,-197.63"/>
<polygon fill="midnightblue" stroke="midnightblue" points="102.25,-224.6 97.68,-234.16 107.22,-229.53 102.25,-224.6"/>
</g>
<!-- Node5 -->
<g id="node5" class="node">
<title>Node5</title>
<g id="a_node5"><a xlink:href="beluga_8hpp.html" target="_top" xlink:title="Includes all the Beluga API.">
<polygon fill="none" stroke="black" points="81,-78.5 81,-119.5 226,-119.5 226,-78.5 81,-78.5"/>
<text text-anchor="start" x="89" y="-107.5" font-family="Helvetica,sans-Serif" font-size="10.00">/home/runner/work/beluga</text>
<text text-anchor="start" x="89" y="-96.5" font-family="Helvetica,sans-Serif" font-size="10.00">/beluga/beluga/include</text>
<text text-anchor="middle" x="153.5" y="-85.5" font-family="Helvetica,sans-Serif" font-size="10.00">/beluga/beluga.hpp</text>
</a>
</g>
</g>
<!-- Node4&#45;&gt;Node5 -->
<g id="edge4" class="edge">
<title>Node4&#45;&gt;Node5</title>
<path fill="none" stroke="midnightblue" d="M153.5,-146.3C153.5,-137.3 153.5,-127.65 153.5,-119.51"/>
<polygon fill="midnightblue" stroke="midnightblue" points="150,-146.43 153.5,-156.43 157,-146.43 150,-146.43"/>
</g>
<!-- Node6 -->
<g id="node6" class="node">
<title>Node6</title>
<g id="a_node6"><a xlink:href="amcl__core_8hpp_source.html" target="_top" xlink:title=" ">
<polygon fill="none" stroke="black" points="65,-0.5 65,-41.5 242,-41.5 242,-0.5 65,-0.5"/>
<text text-anchor="start" x="73" y="-29.5" font-family="Helvetica,sans-Serif" font-size="10.00">/home/runner/work/beluga</text>
<text text-anchor="start" x="73" y="-18.5" font-family="Helvetica,sans-Serif" font-size="10.00">/beluga/beluga/include</text>
<text text-anchor="middle" x="153.5" y="-7.5" font-family="Helvetica,sans-Serif" font-size="10.00">/beluga/algorithm/amcl_core.hpp</text>
</a>
</g>
</g>
<!-- Node5&#45;&gt;Node6 -->
<g id="edge5" class="edge">
<title>Node5&#45;&gt;Node6</title>
<path fill="none" stroke="midnightblue" d="M153.5,-68.3C153.5,-59.3 153.5,-49.65 153.5,-41.51"/>
<polygon fill="midnightblue" stroke="midnightblue" points="150,-68.43 153.5,-78.43 157,-68.43 150,-68.43"/>
</g>
<!-- Node7&#45;&gt;Node4 -->
<g id="edge7" class="edge">
<title>Node7&#45;&gt;Node4</title>
<path fill="none" stroke="midnightblue" d="M202.87,-227.07C192.85,-217.11 182.13,-206.45 173.25,-197.63"/>
<polygon fill="midnightblue" stroke="midnightblue" points="200.44,-229.59 210,-234.16 205.38,-224.63 200.44,-229.59"/>
</g>
</g>
</svg>
