<?xml version="1.0" encoding="UTF-8" standalone="no"?>
<!DOCTYPE svg PUBLIC "-//W3C//DTD SVG 1.1//EN"
 "http://www.w3.org/Graphics/SVG/1.1/DTD/svg11.dtd">
<!-- Generated by graphviz version 2.43.0 (0)
 -->
<!-- Title: /home/runner/work/beluga/beluga/beluga/include/beluga/views/particles.hpp Pages: 1 -->
<!--zoomable 462 -->
<svg id="main" version="1.1" xmlns="http://www.w3.org/2000/svg" xmlns:xlink="http://www.w3.org/1999/xlink" xml:space="preserve" onload="init(evt)">
<style type="text/css"><![CDATA[
.edge:hover path { stroke: red; }
.edge:hover polygon { stroke: red; fill: red; }
]]></style>
<script type="text/javascript"><![CDATA[
var edges = document.getElementsByTagName('g');
if (edges && edges.length) {
  for (var i=0;i<edges.length;i++) {
    if (edges[i].id.substr(0,4)=='edge') {
      edges[i].setAttribute('class','edge');
    }
  }
}
]]></script>
        <defs>
                <circle id="rim" cx="0" cy="0" r="7"/>
                <circle id="rim2" cx="0" cy="0" r="3.5"/>
                <g id="zoomPlus">
                        <use xlink:href="#rim" fill="#404040">
                                <set attributeName="fill" to="#808080" begin="zoomplus.mouseover" end="zoomplus.mouseout"/>
                        </use>
                        <path d="M-4,0h8M0,-4v8" fill="none" stroke="white" stroke-width="1.5" pointer-events="none"/>
                </g>
                <g id="zoomMin">
                        <use xlink:href="#rim" fill="#404040">
                                <set attributeName="fill" to="#808080" begin="zoomminus.mouseover" end="zoomminus.mouseout"/>
                        </use>
                        <path d="M-4,0h8" fill="none" stroke="white" stroke-width="1.5" pointer-events="none"/>
                </g>
                <g id="dirArrow">
                        <path fill="none" stroke="white" stroke-width="1.5" d="M0,-3.0v7 M-2.5,-0.5L0,-3.0L2.5,-0.5"/>
                </g>
               <g id="resetDef">
                       <use xlink:href="#rim2" fill="#404040">
                               <set attributeName="fill" to="#808080" begin="reset.mouseover" end="reset.mouseout"/>
                       </use>
               </g>
        </defs>

<script type="text/javascript">
var viewWidth = 1080;
var viewHeight = 462;
var sectionId = 'dynsection-1';
</script>
<script xlink:href="svgpan.js"/>
<svg id="graph" class="graph">
<g id="viewport">
<title>/home/runner/work/beluga/beluga/beluga/include/beluga/views/particles.hpp</title>
<!-- Node1 -->
<g id="node1" class="node">
<title>Node1</title>
<g id="a_node1"><a xlink:title="Implementation of views related to particle ranges.">
<polygon fill="#bfbfbf" stroke="black" points="433,-412.5 433,-453.5 583,-453.5 583,-412.5 433,-412.5"/>
<text text-anchor="start" x="441" y="-441.5" font-family="Helvetica,sans-Serif" font-size="10.00">/home/runner/work/beluga</text>
<text text-anchor="start" x="441" y="-430.5" font-family="Helvetica,sans-Serif" font-size="10.00">/beluga/beluga/include</text>
<text text-anchor="middle" x="508" y="-419.5" font-family="Helvetica,sans-Serif" font-size="10.00">/beluga/views/particles.hpp</text>
</a>
</g>
</g>
<!-- Node2 -->
<g id="node2" class="node">
<title>Node2</title>
<g id="a_node2"><a xlink:href="normalize_8hpp.html" target="_top" xlink:title="Implementation of the normalize range adaptor object.">
<polygon fill="none" stroke="black" points="0,-240 0,-281 164,-281 164,-240 0,-240"/>
<text text-anchor="start" x="8" y="-269" font-family="Helvetica,sans-Serif" font-size="10.00">/home/runner/work/beluga</text>
<text text-anchor="start" x="8" y="-258" font-family="Helvetica,sans-Serif" font-size="10.00">/beluga/beluga/include</text>
<text text-anchor="middle" x="82" y="-247" font-family="Helvetica,sans-Serif" font-size="10.00">/beluga/actions/normalize.hpp</text>
</a>
</g>
</g>
<!-- Node1&#45;&gt;Node2 -->
<g id="edge1" class="edge">
<title>Node1&#45;&gt;Node2</title>
<path fill="none" stroke="midnightblue" d="M422.7,-431.85C316.72,-429.76 144.38,-419.53 100,-376 74.86,-351.34 75.68,-306.89 78.71,-281.23"/>
<polygon fill="midnightblue" stroke="midnightblue" points="422.69,-435.35 432.75,-432.02 422.81,-428.35 422.69,-435.35"/>
</g>
<!-- Node6 -->
<g id="node6" class="node">
<title>Node6</title>
<g id="a_node6"><a xlink:href="propagate_8hpp.html" target="_top" xlink:title="Implementation of the propagate range adaptor object.">
<polygon fill="none" stroke="black" points="109,-329 109,-370 273,-370 273,-329 109,-329"/>
<text text-anchor="start" x="117" y="-358" font-family="Helvetica,sans-Serif" font-size="10.00">/home/runner/work/beluga</text>
<text text-anchor="start" x="117" y="-347" font-family="Helvetica,sans-Serif" font-size="10.00">/beluga/beluga/include</text>
<text text-anchor="middle" x="191" y="-336" font-family="Helvetica,sans-Serif" font-size="10.00">/beluga/actions/propagate.hpp</text>
</a>
</g>
</g>
<!-- Node1&#45;&gt;Node6 -->
<g id="edge5" class="edge">
<title>Node1&#45;&gt;Node6</title>
<path fill="none" stroke="midnightblue" d="M423.05,-410.72C381.93,-400.35 331.87,-387.64 287,-376 279.57,-374.07 271.83,-372.04 264.1,-370.01"/>
<polygon fill="midnightblue" stroke="midnightblue" points="422.21,-414.11 432.76,-413.16 423.92,-407.33 422.21,-414.11"/>
</g>
<!-- Node7 -->
<g id="node7" class="node">
<title>Node7</title>
<g id="a_node7"><a xlink:href="reweight_8hpp.html" target="_top" xlink:title="Implementation of the reweight range adaptor object.">
<polygon fill="none" stroke="black" points="222,-240 222,-281 380,-281 380,-240 222,-240"/>
<text text-anchor="start" x="230" y="-269" font-family="Helvetica,sans-Serif" font-size="10.00">/home/runner/work/beluga</text>
<text text-anchor="start" x="230" y="-258" font-family="Helvetica,sans-Serif" font-size="10.00">/beluga/beluga/include</text>
<text text-anchor="middle" x="301" y="-247" font-family="Helvetica,sans-Serif" font-size="10.00">/beluga/actions/reweight.hpp</text>
</a>
</g>
</g>
<!-- Node1&#45;&gt;Node7 -->
<g id="edge7" class="edge">
<title>Node1&#45;&gt;Node7</title>
<path fill="none" stroke="midnightblue" d="M422.72,-426.05C386.41,-419.1 346.61,-404.83 321,-376 297.68,-349.75 296.82,-306.29 298.66,-281.14"/>
<polygon fill="midnightblue" stroke="midnightblue" points="422.39,-429.54 432.85,-427.82 423.6,-422.65 422.39,-429.54"/>
</g>
<!-- Node8 -->
<g id="node8" class="node">
<title>Node8</title>
<g id="a_node8"><a xlink:href="effective__sample__size_8hpp.html" target="_top" xlink:title="Implementation of an algorithm to calculate the effective sample size (ESS).">
<polygon fill="none" stroke="black" points="721.5,-323.5 721.5,-375.5 870.5,-375.5 870.5,-323.5 721.5,-323.5"/>
<text text-anchor="start" x="729.5" y="-363.5" font-family="Helvetica,sans-Serif" font-size="10.00">/home/runner/work/beluga</text>
<text text-anchor="start" x="729.5" y="-352.5" font-family="Helvetica,sans-Serif" font-size="10.00">/beluga/beluga/include</text>
<text text-anchor="start" x="729.5" y="-341.5" font-family="Helvetica,sans-Serif" font-size="10.00">/beluga/algorithm/effective</text>
<text text-anchor="middle" x="796" y="-330.5" font-family="Helvetica,sans-Serif" font-size="10.00">_sample_size.hpp</text>
</a>
</g>
</g>
<!-- Node1&#45;&gt;Node8 -->
<g id="edge9" class="edge">
<title>Node1&#45;&gt;Node8</title>
<path fill="none" stroke="midnightblue" d="M591.5,-409.83C628.76,-399.77 673.15,-387.56 713,-376 715.75,-375.2 718.55,-374.38 721.38,-373.55"/>
<polygon fill="midnightblue" stroke="midnightblue" points="590.44,-406.49 581.69,-412.47 592.26,-413.25 590.44,-406.49"/>
</g>
<!-- Node12 -->
<g id="node12" class="node">
<title>Node12</title>
<g id="a_node12"><a xlink:href="thrun__recovery__probability__estimator_8hpp_source.html" target="_top" xlink:title=" ">
<polygon fill="none" stroke="black" points="508.5,-323.5 508.5,-375.5 703.5,-375.5 703.5,-323.5 508.5,-323.5"/>
<text text-anchor="start" x="516.5" y="-363.5" font-family="Helvetica,sans-Serif" font-size="10.00">/home/runner/work/beluga</text>
<text text-anchor="start" x="516.5" y="-352.5" font-family="Helvetica,sans-Serif" font-size="10.00">/beluga/beluga/include</text>
<text text-anchor="start" x="516.5" y="-341.5" font-family="Helvetica,sans-Serif" font-size="10.00">/beluga/algorithm/thrun</text>
<text text-anchor="middle" x="606" y="-330.5" font-family="Helvetica,sans-Serif" font-size="10.00">_recovery_probability_estimator.hpp</text>
</a>
</g>
</g>
<!-- Node1&#45;&gt;Node12 -->
<g id="edge15" class="edge">
<title>Node1&#45;&gt;Node12</title>
<path fill="none" stroke="midnightblue" d="M539.5,-405.8C551.14,-396.13 564.29,-385.19 575.81,-375.61"/>
<polygon fill="midnightblue" stroke="midnightblue" points="537.17,-403.19 531.72,-412.27 541.65,-408.57 537.17,-403.19"/>
</g>
<!-- Node13 -->
<g id="node13" class="node">
<title>Node13</title>
<g id="a_node13"><a xlink:href="likelihoods_8hpp.html" target="_top" xlink:title="Implementation of the likelihoods range adaptor object.">
<polygon fill="none" stroke="black" points="329.5,-329 329.5,-370 490.5,-370 490.5,-329 329.5,-329"/>
<text text-anchor="start" x="337.5" y="-358" font-family="Helvetica,sans-Serif" font-size="10.00">/home/runner/work/beluga</text>
<text text-anchor="start" x="337.5" y="-347" font-family="Helvetica,sans-Serif" font-size="10.00">/beluga/beluga/include</text>
<text text-anchor="middle" x="410" y="-336" font-family="Helvetica,sans-Serif" font-size="10.00">/beluga/views/likelihoods.hpp</text>
</a>
</g>
</g>
<!-- Node1&#45;&gt;Node13 -->
<g id="edge17" class="edge">
<title>Node1&#45;&gt;Node13</title>
<path fill="none" stroke="midnightblue" d="M476.36,-405.69C462.43,-394.1 446.35,-380.73 433.5,-370.05"/>
<polygon fill="midnightblue" stroke="midnightblue" points="474.35,-408.57 484.28,-412.27 478.83,-403.19 474.35,-408.57"/>
</g>
<!-- Node14 -->
<g id="node14" class="node">
<title>Node14</title>
<g id="a_node14"><a xlink:href="views_8hpp.html" target="_top" xlink:title="Implementation of useful container views.">
<polygon fill="none" stroke="black" points="871.5,-240 871.5,-281 1016.5,-281 1016.5,-240 871.5,-240"/>
<text text-anchor="start" x="879.5" y="-269" font-family="Helvetica,sans-Serif" font-size="10.00">/home/runner/work/beluga</text>
<text text-anchor="start" x="879.5" y="-258" font-family="Helvetica,sans-Serif" font-size="10.00">/beluga/beluga/include</text>
<text text-anchor="middle" x="944" y="-247" font-family="Helvetica,sans-Serif" font-size="10.00">/beluga/views.hpp</text>
</a>
</g>
</g>
<!-- Node1&#45;&gt;Node14 -->
<g id="edge23" class="edge">
<title>Node1&#45;&gt;Node14</title>
<path fill="none" stroke="midnightblue" d="M593.45,-427.78C688.56,-421.6 834.85,-407.24 880,-376 897.14,-364.14 922.48,-310.73 935.54,-281.23"/>
<polygon fill="midnightblue" stroke="midnightblue" points="593.02,-424.3 583.26,-428.42 593.46,-431.28 593.02,-424.3"/>
</g>
<!-- Node15 -->
<g id="node15" class="node">
<title>Node15</title>
<g id="a_node15"><a xlink:href="sample_8hpp.html" target="_top" xlink:title="Implementation of a sample (with replacement) range adaptor object.">
<polygon fill="none" stroke="black" points="926.5,-329 926.5,-370 1071.5,-370 1071.5,-329 926.5,-329"/>
<text text-anchor="start" x="934.5" y="-358" font-family="Helvetica,sans-Serif" font-size="10.00">/home/runner/work/beluga</text>
<text text-anchor="start" x="934.5" y="-347" font-family="Helvetica,sans-Serif" font-size="10.00">/beluga/beluga/include</text>
<text text-anchor="middle" x="999" y="-336" font-family="Helvetica,sans-Serif" font-size="10.00">/beluga/views/sample.hpp</text>
</a>
</g>
</g>
<!-- Node1&#45;&gt;Node15 -->
<g id="edge21" class="edge">
<title>Node1&#45;&gt;Node15</title>
<path fill="none" stroke="midnightblue" d="M593.08,-423.89C675.28,-415.19 803,-399.39 912,-376 919.85,-374.32 928.02,-372.29 936.08,-370.13"/>
<polygon fill="midnightblue" stroke="midnightblue" points="592.62,-420.42 583.04,-424.94 593.35,-427.38 592.62,-420.42"/>
</g>
<!-- Node3 -->
<g id="node3" class="node">
<title>Node3</title>
<g id="a_node3"><a xlink:href="actions_8hpp.html" target="_top" xlink:title="Implementation of useful range actions.">
<polygon fill="none" stroke="black" points="175.5,-156.5 175.5,-197.5 320.5,-197.5 320.5,-156.5 175.5,-156.5"/>
<text text-anchor="start" x="183.5" y="-185.5" font-family="Helvetica,sans-Serif" font-size="10.00">/home/runner/work/beluga</text>
<text text-anchor="start" x="183.5" y="-174.5" font-family="Helvetica,sans-Serif" font-size="10.00">/beluga/beluga/include</text>
<text text-anchor="middle" x="248" y="-163.5" font-family="Helvetica,sans-Serif" font-size="10.00">/beluga/actions.hpp</text>
</a>
</g>
</g>
<!-- Node2&#45;&gt;Node3 -->
<g id="edge2" class="edge">
<title>Node2&#45;&gt;Node3</title>
<path fill="none" stroke="midnightblue" d="M130.94,-235.47C155.58,-223.37 185.06,-208.9 208.28,-197.5"/>
<polygon fill="midnightblue" stroke="midnightblue" points="129.2,-232.43 121.76,-239.98 132.28,-238.71 129.2,-232.43"/>
</g>
<!-- Node4 -->
<g id="node4" class="node">
<title>Node4</title>
<g id="a_node4"><a xlink:href="beluga_8hpp.html" target="_top" xlink:title="Includes all the Beluga API.">
<polygon fill="none" stroke="black" points="600.5,-78.5 600.5,-119.5 745.5,-119.5 745.5,-78.5 600.5,-78.5"/>
<text text-anchor="start" x="608.5" y="-107.5" font-family="Helvetica,sans-Serif" font-size="10.00">/home/runner/work/beluga</text>
<text text-anchor="start" x="608.5" y="-96.5" font-family="Helvetica,sans-Serif" font-size="10.00">/beluga/beluga/include</text>
<text text-anchor="middle" x="673" y="-85.5" font-family="Helvetica,sans-Serif" font-size="10.00">/beluga/beluga.hpp</text>
</a>
</g>
</g>
<!-- Node3&#45;&gt;Node4 -->
<g id="edge3" class="edge">
<title>Node3&#45;&gt;Node4</title>
<path fill="none" stroke="midnightblue" d="M330.89,-161.18C409.23,-147.17 525.58,-126.36 600.37,-112.99"/>
<polygon fill="midnightblue" stroke="midnightblue" points="329.8,-157.82 320.58,-163.02 331.04,-164.71 329.8,-157.82"/>
</g>
<!-- Node5 -->
<g id="node5" class="node">
<title>Node5</title>
<g id="a_node5"><a xlink:href="amcl__core_8hpp_source.html" target="_top" xlink:title=" ">
<polygon fill="none" stroke="black" points="584.5,-0.5 584.5,-41.5 761.5,-41.5 761.5,-0.5 584.5,-0.5"/>
<text text-anchor="start" x="592.5" y="-29.5" font-family="Helvetica,sans-Serif" font-size="10.00">/home/runner/work/beluga</text>
<text text-anchor="start" x="592.5" y="-18.5" font-family="Helvetica,sans-Serif" font-size="10.00">/beluga/beluga/include</text>
<text text-anchor="middle" x="673" y="-7.5" font-family="Helvetica,sans-Serif" font-size="10.00">/beluga/algorithm/amcl_core.hpp</text>
</a>
</g>
</g>
<!-- Node4&#45;&gt;Node5 -->
<g id="edge4" class="edge">
<title>Node4&#45;&gt;Node5</title>
<path fill="none" stroke="midnightblue" d="M673,-68.3C673,-59.3 673,-49.65 673,-41.51"/>
<polygon fill="midnightblue" stroke="midnightblue" points="669.5,-68.43 673,-78.43 676.5,-68.43 669.5,-68.43"/>
</g>
<!-- Node6&#45;&gt;Node3 -->
<g id="edge6" class="edge">
<title>Node6&#45;&gt;Node3</title>
<path fill="none" stroke="midnightblue" d="M193.68,-318.75C196.52,-295.14 202.16,-261.61 213,-234 218.07,-221.09 226.17,-207.87 233.3,-197.52"/>
<polygon fill="midnightblue" stroke="midnightblue" points="190.18,-318.52 192.56,-328.85 197.14,-319.29 190.18,-318.52"/>
</g>
<!-- Node7&#45;&gt;Node3 -->
<g id="edge8" class="edge">
<title>Node7&#45;&gt;Node3</title>
<path fill="none" stroke="midnightblue" d="M282.61,-231.22C275.39,-220.11 267.27,-207.63 260.71,-197.55"/>
<polygon fill="midnightblue" stroke="midnightblue" points="279.78,-233.3 288.17,-239.77 285.65,-229.48 279.78,-233.3"/>
</g>
<!-- Node9 -->
<g id="node9" class="node">
<title>Node9</title>
<g id="a_node9"><a xlink:href="algorithm_8hpp.html" target="_top" xlink:title="Includes all beluga algorithms.">
<polygon fill="none" stroke="black" points="533.5,-240 533.5,-281 678.5,-281 678.5,-240 533.5,-240"/>
<text text-anchor="start" x="541.5" y="-269" font-family="Helvetica,sans-Serif" font-size="10.00">/home/runner/work/beluga</text>
<text text-anchor="start" x="541.5" y="-258" font-family="Helvetica,sans-Serif" font-size="10.00">/beluga/beluga/include</text>
<text text-anchor="middle" x="606" y="-247" font-family="Helvetica,sans-Serif" font-size="10.00">/beluga/algorithm.hpp</text>
</a>
</g>
</g>
<!-- Node8&#45;&gt;Node9 -->
<g id="edge10" class="edge">
<title>Node8&#45;&gt;Node9</title>
<path fill="none" stroke="midnightblue" d="M732.17,-319.27C704.75,-306.72 673.45,-292.38 648.88,-281.13"/>
<polygon fill="midnightblue" stroke="midnightblue" points="730.75,-322.47 741.3,-323.45 733.66,-316.11 730.75,-322.47"/>
</g>
<!-- Node10 -->
<g id="node10" class="node">
<title>Node10</title>
<g id="a_node10"><a xlink:href="on__effective__size__drop_8hpp.html" target="_top" xlink:title="Defines a policy for triggering an action based on the Effective Sample Size (ESS) metric.">
<polygon fill="none" stroke="black" points="697,-234.5 697,-286.5 853,-286.5 853,-234.5 697,-234.5"/>
<text text-anchor="start" x="705" y="-274.5" font-family="Helvetica,sans-Serif" font-size="10.00">/home/runner/work/beluga</text>
<text text-anchor="start" x="705" y="-263.5" font-family="Helvetica,sans-Serif" font-size="10.00">/beluga/beluga/include</text>
<text text-anchor="start" x="705" y="-252.5" font-family="Helvetica,sans-Serif" font-size="10.00">/beluga/policies/on_effective</text>
<text text-anchor="middle" x="775" y="-241.5" font-family="Helvetica,sans-Serif" font-size="10.00">_size_drop.hpp</text>
</a>
</g>
</g>
<!-- Node8&#45;&gt;Node10 -->
<g id="edge12" class="edge">
<title>Node8&#45;&gt;Node10</title>
<path fill="none" stroke="midnightblue" d="M787.55,-313.48C785.38,-304.49 783.08,-294.99 781.06,-286.61"/>
<polygon fill="midnightblue" stroke="midnightblue" points="784.18,-314.44 789.93,-323.34 790.98,-312.79 784.18,-314.44"/>
</g>
<!-- Node9&#45;&gt;Node4 -->
<g id="edge11" class="edge">
<title>Node9&#45;&gt;Node4</title>
<path fill="none" stroke="midnightblue" d="M618.13,-230.63C631.61,-198.53 653.03,-147.55 664.72,-119.72"/>
<polygon fill="midnightblue" stroke="midnightblue" points="614.86,-229.37 614.22,-239.94 621.32,-232.08 614.86,-229.37"/>
</g>
<!-- Node11 -->
<g id="node11" class="node">
<title>Node11</title>
<g id="a_node11"><a xlink:href="policies_8hpp.html" target="_top" xlink:title="Implementation of useful policies.">
<polygon fill="none" stroke="black" points="685.5,-156.5 685.5,-197.5 830.5,-197.5 830.5,-156.5 685.5,-156.5"/>
<text text-anchor="start" x="693.5" y="-185.5" font-family="Helvetica,sans-Serif" font-size="10.00">/home/runner/work/beluga</text>
<text text-anchor="start" x="693.5" y="-174.5" font-family="Helvetica,sans-Serif" font-size="10.00">/beluga/beluga/include</text>
<text text-anchor="middle" x="758" y="-163.5" font-family="Helvetica,sans-Serif" font-size="10.00">/beluga/policies.hpp</text>
</a>
</g>
</g>
<!-- Node10&#45;&gt;Node11 -->
<g id="edge13" class="edge">
<title>Node10&#45;&gt;Node11</title>
<path fill="none" stroke="midnightblue" d="M767.63,-224.15C765.73,-215.05 763.76,-205.6 762.09,-197.63"/>
<polygon fill="midnightblue" stroke="midnightblue" points="764.25,-225.09 769.71,-234.16 771.1,-223.66 764.25,-225.09"/>
</g>
<!-- Node11&#45;&gt;Node4 -->
<g id="edge14" class="edge">
<title>Node11&#45;&gt;Node4</title>
<path fill="none" stroke="midnightblue" d="M728.35,-149.49C717.32,-139.63 705.02,-128.63 694.82,-119.51"/>
<polygon fill="midnightblue" stroke="midnightblue" points="726.32,-152.37 736.11,-156.43 730.99,-147.15 726.32,-152.37"/>
</g>
<!-- Node12&#45;&gt;Node9 -->
<g id="edge16" class="edge">
<title>Node12&#45;&gt;Node9</title>
<path fill="none" stroke="midnightblue" d="M606,-313.16C606,-302.21 606,-290.55 606,-281.08"/>
<polygon fill="midnightblue" stroke="midnightblue" points="602.5,-313.34 606,-323.34 609.5,-313.34 602.5,-313.34"/>
</g>
<!-- Node13&#45;&gt;Node7 -->
<g id="edge18" class="edge">
<title>Node13&#45;&gt;Node7</title>
<path fill="none" stroke="midnightblue" d="M377.68,-322.71C361.07,-309.44 341.14,-293.53 325.76,-281.26"/>
<polygon fill="midnightblue" stroke="midnightblue" points="375.54,-325.47 385.54,-328.98 379.91,-320 375.54,-325.47"/>
</g>
<!-- Node13&#45;&gt;Node14 -->
<g id="edge19" class="edge">
<title>Node13&#45;&gt;Node14</title>
<path fill="none" stroke="midnightblue" d="M483.54,-326.52C489.09,-325.22 494.62,-324.02 500,-323 658.85,-292.84 703.55,-319.17 862,-287 869.89,-285.4 878.1,-283.34 886.14,-281.08"/>
<polygon fill="midnightblue" stroke="midnightblue" points="482.45,-323.19 473.58,-328.98 484.13,-329.98 482.45,-323.19"/>
</g>
<!-- Node14&#45;&gt;Node4 -->
<g id="edge20" class="edge">
<title>Node14&#45;&gt;Node4</title>
<path fill="none" stroke="midnightblue" d="M922.45,-231.83C903.1,-208.66 872.76,-176.24 840,-156 811.25,-138.24 776.21,-125.38 745.66,-116.5"/>
<polygon fill="midnightblue" stroke="midnightblue" points="919.77,-234.09 928.82,-239.6 925.19,-229.65 919.77,-234.09"/>
</g>
<!-- Node15&#45;&gt;Node14 -->
<g id="edge22" class="edge">
<title>Node15&#45;&gt;Node14</title>
<path fill="none" stroke="midnightblue" d="M981.17,-320.3C973.09,-307.52 963.74,-292.72 956.43,-281.16"/>
<polygon fill="midnightblue" stroke="midnightblue" points="978.22,-322.18 986.52,-328.76 984.13,-318.44 978.22,-322.18"/>
</g>
</g>
</svg>
        <g id="navigator" transform="translate(0 0)" fill="#404254">
                <rect fill="#f2f5e9" fill-opacity="0.5" stroke="#606060" stroke-width=".5" x="0" y="0" width="60" height="60"/>
                <use id="zoomplus" xlink:href="#zoomPlus" x="17" y="9" onmousedown="handleZoom(evt,'in')"/>
                <use id="zoomminus" xlink:href="#zoomMin" x="42" y="9" onmousedown="handleZoom(evt,'out')"/>
                <use id="reset" xlink:href="#resetDef" x="30" y="36" onmousedown="handleReset()"/>
                <g id="arrowUp" xlink:href="#dirArrow" transform="translate(30 24)" onmousedown="handlePan(0,-1)">
                  <use xlink:href="#rim" fill="#404040">
                        <set attributeName="fill" to="#808080" begin="arrowUp.mouseover" end="arrowUp.mouseout"/>
                  </use>
                  <path fill="none" stroke="white" stroke-width="1.5" d="M0,-3.0v7 M-2.5,-0.5L0,-3.0L2.5,-0.5"/>
                </g>
                <g id="arrowRight" xlink:href="#dirArrow" transform="rotate(90) translate(36 -43)" onmousedown="handlePan(1,0)">
                  <use xlink:href="#rim" fill="#404040">
                        <set attributeName="fill" to="#808080" begin="arrowRight.mouseover" end="arrowRight.mouseout"/>
                  </use>
                  <path fill="none" stroke="white" stroke-width="1.5" d="M0,-3.0v7 M-2.5,-0.5L0,-3.0L2.5,-0.5"/>
                </g>
                <g id="arrowDown" xlink:href="#dirArrow" transform="rotate(180) translate(-30 -48)" onmousedown="handlePan(0,1)">
                  <use xlink:href="#rim" fill="#404040">
                        <set attributeName="fill" to="#808080" begin="arrowDown.mouseover" end="arrowDown.mouseout"/>
                  </use>
                  <path fill="none" stroke="white" stroke-width="1.5" d="M0,-3.0v7 M-2.5,-0.5L0,-3.0L2.5,-0.5"/>
                </g>
                <g id="arrowLeft" xlink:href="#dirArrow" transform="rotate(270) translate(-36 17)" onmousedown="handlePan(-1,0)">
                  <use xlink:href="#rim" fill="#404040">
                        <set attributeName="fill" to="#808080" begin="arrowLeft.mouseover" end="arrowLeft.mouseout"/>
                  </use>
                  <path fill="none" stroke="white" stroke-width="1.5" d="M0,-3.0v7 M-2.5,-0.5L0,-3.0L2.5,-0.5"/>
                </g>
        </g>
        <svg viewBox="0 0 15 15" width="100%" height="30px" preserveAspectRatio="xMaxYMin meet">
         <g id="arrow_out" transform="scale(0.3 0.3)">
          <a xlink:href="particles_8hpp__dep__incl_org.svg" target="_base">
           <rect id="button" ry="5" rx="5" y="6" x="6" height="38" width="38"
                fill="#f2f5e9" fill-opacity="0.5" stroke="#606060" stroke-width="1.0"/>
           <path id="arrow"
             d="M 11.500037,31.436501 C 11.940474,20.09759 22.043105,11.32322 32.158766,21.979434 L 37.068811,17.246167 C 37.068811,17.246167 37.088388,32 37.088388,32 L 22.160133,31.978069 C 22.160133,31.978069 26.997745,27.140456 26.997745,27.140456 C 18.528582,18.264221 13.291696,25.230495 11.500037,31.436501 z"
             style="fill:#404040;"/>
          </a>
         </g>
        </svg>
</svg>
