<?xml version="1.0" encoding="UTF-8" standalone="no"?>
<!DOCTYPE svg PUBLIC "-//W3C//DTD SVG 1.1//EN"
 "http://www.w3.org/Graphics/SVG/1.1/DTD/svg11.dtd">
<!-- Generated by graphviz version 2.43.0 (0)
 -->
<!-- Title: /home/runner/work/beluga/beluga/beluga/include/beluga/views/particles.hpp Pages: 1 -->
<svg width="1092pt" height="462pt"
 viewBox="0.00 0.00 1092.06 462.00" xmlns="http://www.w3.org/2000/svg" xmlns:xlink="http://www.w3.org/1999/xlink">
<g id="graph0" class="graph" transform="scale(1 1) rotate(0) translate(4 458)">
<title>/home/runner/work/beluga/beluga/beluga/include/beluga/views/particles.hpp</title>
<!-- Node1 -->
<g id="node1" class="node">
<title>Node1</title>
<g id="a_node1"><a xlink:title="Implementation of views related to particle ranges.">
<polygon fill="#bfbfbf" stroke="black" points="562,-412.5 562,-453.5 712,-453.5 712,-412.5 562,-412.5"/>
<text text-anchor="start" x="570" y="-441.5" font-family="Helvetica,sans-Serif" font-size="10.00">/home/runner/work/beluga</text>
<text text-anchor="start" x="570" y="-430.5" font-family="Helvetica,sans-Serif" font-size="10.00">/beluga/beluga/include</text>
<text text-anchor="middle" x="637" y="-419.5" font-family="Helvetica,sans-Serif" font-size="10.00">/beluga/views/particles.hpp</text>
</a>
</g>
</g>
<!-- Node2 -->
<g id="node2" class="node">
<title>Node2</title>
<g id="a_node2"><a xlink:href="normalize_8hpp.html" target="_top" xlink:title="Implementation of the normalize range adaptor object.">
<polygon fill="none" stroke="black" points="0,-329 0,-370 164,-370 164,-329 0,-329"/>
<text text-anchor="start" x="8" y="-358" font-family="Helvetica,sans-Serif" font-size="10.00">/home/runner/work/beluga</text>
<text text-anchor="start" x="8" y="-347" font-family="Helvetica,sans-Serif" font-size="10.00">/beluga/beluga/include</text>
<text text-anchor="middle" x="82" y="-336" font-family="Helvetica,sans-Serif" font-size="10.00">/beluga/actions/normalize.hpp</text>
</a>
</g>
</g>
<!-- Node1&#45;&gt;Node2 -->
<g id="edge1" class="edge">
<title>Node1&#45;&gt;Node2</title>
<path fill="none" stroke="midnightblue" d="M551.72,-425.65C458.17,-417.77 303.91,-402.08 173,-376 164.63,-374.33 155.91,-372.29 147.32,-370.1"/>
<polygon fill="midnightblue" stroke="midnightblue" points="551.45,-429.14 561.7,-426.48 552.03,-422.16 551.45,-429.14"/>
</g>
<!-- Node6 -->
<g id="node6" class="node">
<title>Node6</title>
<g id="a_node6"><a xlink:href="propagate_8hpp.html" target="_top" xlink:title="Implementation of the propagate range adaptor object.">
<polygon fill="none" stroke="black" points="182,-329 182,-370 346,-370 346,-329 182,-329"/>
<text text-anchor="start" x="190" y="-358" font-family="Helvetica,sans-Serif" font-size="10.00">/home/runner/work/beluga</text>
<text text-anchor="start" x="190" y="-347" font-family="Helvetica,sans-Serif" font-size="10.00">/beluga/beluga/include</text>
<text text-anchor="middle" x="264" y="-336" font-family="Helvetica,sans-Serif" font-size="10.00">/beluga/actions/propagate.hpp</text>
</a>
</g>
</g>
<!-- Node1&#45;&gt;Node6 -->
<g id="edge5" class="edge">
<title>Node1&#45;&gt;Node6</title>
<path fill="none" stroke="midnightblue" d="M551.94,-416.88C495.79,-406.46 420.72,-391.71 355,-376 347.34,-374.17 339.35,-372.13 331.43,-370.02"/>
<polygon fill="midnightblue" stroke="midnightblue" points="551.38,-420.33 561.85,-418.71 552.65,-413.45 551.38,-420.33"/>
</g>
<!-- Node7 -->
<g id="node7" class="node">
<title>Node7</title>
<g id="a_node7"><a xlink:href="reweight_8hpp.html" target="_top" xlink:title="Implementation of the reweight range adaptor object.">
<polygon fill="none" stroke="black" points="364,-329 364,-370 522,-370 522,-329 364,-329"/>
<text text-anchor="start" x="372" y="-358" font-family="Helvetica,sans-Serif" font-size="10.00">/home/runner/work/beluga</text>
<text text-anchor="start" x="372" y="-347" font-family="Helvetica,sans-Serif" font-size="10.00">/beluga/beluga/include</text>
<text text-anchor="middle" x="443" y="-336" font-family="Helvetica,sans-Serif" font-size="10.00">/beluga/actions/reweight.hpp</text>
</a>
</g>
</g>
<!-- Node1&#45;&gt;Node7 -->
<g id="edge7" class="edge">
<title>Node1&#45;&gt;Node7</title>
<path fill="none" stroke="midnightblue" d="M580.94,-408.45C551.92,-396.26 516.91,-381.55 489.42,-370"/>
<polygon fill="midnightblue" stroke="midnightblue" points="579.96,-411.83 590.53,-412.48 582.67,-405.38 579.96,-411.83"/>
</g>
<!-- Node8 -->
<g id="node8" class="node">
<title>Node8</title>
<g id="a_node8"><a xlink:href="effective__sample__size_8hpp.html" target="_top" xlink:title="Implementation of an algorithm to calculate the effective sample size (ESS).">
<polygon fill="none" stroke="black" points="752.5,-323.5 752.5,-375.5 901.5,-375.5 901.5,-323.5 752.5,-323.5"/>
<text text-anchor="start" x="760.5" y="-363.5" font-family="Helvetica,sans-Serif" font-size="10.00">/home/runner/work/beluga</text>
<text text-anchor="start" x="760.5" y="-352.5" font-family="Helvetica,sans-Serif" font-size="10.00">/beluga/beluga/include</text>
<text text-anchor="start" x="760.5" y="-341.5" font-family="Helvetica,sans-Serif" font-size="10.00">/beluga/algorithm/effective</text>
<text text-anchor="middle" x="827" y="-330.5" font-family="Helvetica,sans-Serif" font-size="10.00">_sample_size.hpp</text>
</a>
</g>
</g>
<!-- Node1&#45;&gt;Node8 -->
<g id="edge9" class="edge">
<title>Node1&#45;&gt;Node8</title>
<path fill="none" stroke="midnightblue" d="M691.84,-408.48C715.87,-398.17 744.11,-386.06 768.54,-375.58"/>
<polygon fill="midnightblue" stroke="midnightblue" points="690.32,-405.32 682.51,-412.48 693.08,-411.75 690.32,-405.32"/>
</g>
<!-- Node12 -->
<g id="node12" class="node">
<title>Node12</title>
<g id="a_node12"><a xlink:href="thrun__recovery__probability__estimator_8hpp_source.html" target="_top" xlink:title=" ">
<polygon fill="none" stroke="black" points="539.5,-323.5 539.5,-375.5 734.5,-375.5 734.5,-323.5 539.5,-323.5"/>
<text text-anchor="start" x="547.5" y="-363.5" font-family="Helvetica,sans-Serif" font-size="10.00">/home/runner/work/beluga</text>
<text text-anchor="start" x="547.5" y="-352.5" font-family="Helvetica,sans-Serif" font-size="10.00">/beluga/beluga/include</text>
<text text-anchor="start" x="547.5" y="-341.5" font-family="Helvetica,sans-Serif" font-size="10.00">/beluga/algorithm/thrun</text>
<text text-anchor="middle" x="637" y="-330.5" font-family="Helvetica,sans-Serif" font-size="10.00">_recovery_probability_estimator.hpp</text>
</a>
</g>
</g>
<!-- Node1&#45;&gt;Node12 -->
<g id="edge15" class="edge">
<title>Node1&#45;&gt;Node12</title>
<path fill="none" stroke="midnightblue" d="M637,-402.12C637,-393.41 637,-383.99 637,-375.61"/>
<polygon fill="midnightblue" stroke="midnightblue" points="633.5,-402.27 637,-412.27 640.5,-402.27 633.5,-402.27"/>
</g>
<!-- Node13 -->
<g id="node13" class="node">
<title>Node13</title>
<g id="a_node13"><a xlink:href="sample_8hpp.html" target="_top" xlink:title="Implementation of a sample (with replacement) range adaptor object.">
<polygon fill="none" stroke="black" points="919.5,-329 919.5,-370 1064.5,-370 1064.5,-329 919.5,-329"/>
<text text-anchor="start" x="927.5" y="-358" font-family="Helvetica,sans-Serif" font-size="10.00">/home/runner/work/beluga</text>
<text text-anchor="start" x="927.5" y="-347" font-family="Helvetica,sans-Serif" font-size="10.00">/beluga/beluga/include</text>
<text text-anchor="middle" x="992" y="-336" font-family="Helvetica,sans-Serif" font-size="10.00">/beluga/views/sample.hpp</text>
</a>
</g>
</g>
<!-- Node1&#45;&gt;Node13 -->
<g id="edge17" class="edge">
<title>Node1&#45;&gt;Node13</title>
<path fill="none" stroke="midnightblue" d="M722.09,-416.8C776.21,-406.57 847.58,-392.06 910,-376 916.93,-374.22 924.14,-372.21 931.29,-370.11"/>
<polygon fill="midnightblue" stroke="midnightblue" points="721.38,-413.37 712.2,-418.65 722.67,-420.25 721.38,-413.37"/>
</g>
<!-- Node14 -->
<g id="node14" class="node">
<title>Node14</title>
<g id="a_node14"><a xlink:href="views_8hpp.html" target="_top" xlink:title="Implementation of useful container views.">
<polygon fill="none" stroke="black" points="921.5,-240 921.5,-281 1066.5,-281 1066.5,-240 921.5,-240"/>
<text text-anchor="start" x="929.5" y="-269" font-family="Helvetica,sans-Serif" font-size="10.00">/home/runner/work/beluga</text>
<text text-anchor="start" x="929.5" y="-258" font-family="Helvetica,sans-Serif" font-size="10.00">/beluga/beluga/include</text>
<text text-anchor="middle" x="994" y="-247" font-family="Helvetica,sans-Serif" font-size="10.00">/beluga/views.hpp</text>
</a>
</g>
</g>
<!-- Node1&#45;&gt;Node14 -->
<g id="edge20" class="edge">
<title>Node1&#45;&gt;Node14</title>
<path fill="none" stroke="midnightblue" d="M722.68,-427.02C843.33,-419.12 1051.2,-401.91 1074,-376 1089.56,-358.32 1084.41,-344.13 1074,-323 1065.25,-305.24 1048.64,-291.18 1032.81,-281.01"/>
<polygon fill="midnightblue" stroke="midnightblue" points="722.11,-423.55 712.36,-427.69 722.57,-430.53 722.11,-423.55"/>
</g>
<!-- Node3 -->
<g id="node3" class="node">
<title>Node3</title>
<g id="a_node3"><a xlink:href="actions_8hpp.html" target="_top" xlink:title="Implementation of useful range actions.">
<polygon fill="none" stroke="black" points="281.5,-240 281.5,-281 426.5,-281 426.5,-240 281.5,-240"/>
<text text-anchor="start" x="289.5" y="-269" font-family="Helvetica,sans-Serif" font-size="10.00">/home/runner/work/beluga</text>
<text text-anchor="start" x="289.5" y="-258" font-family="Helvetica,sans-Serif" font-size="10.00">/beluga/beluga/include</text>
<text text-anchor="middle" x="354" y="-247" font-family="Helvetica,sans-Serif" font-size="10.00">/beluga/actions.hpp</text>
</a>
</g>
</g>
<!-- Node2&#45;&gt;Node3 -->
<g id="edge2" class="edge">
<title>Node2&#45;&gt;Node3</title>
<path fill="none" stroke="midnightblue" d="M152.68,-325.89C196.09,-312.01 251.13,-294.4 292.69,-281.11"/>
<polygon fill="midnightblue" stroke="midnightblue" points="151.5,-322.6 143.04,-328.98 153.63,-329.26 151.5,-322.6"/>
</g>
<!-- Node4 -->
<g id="node4" class="node">
<title>Node4</title>
<g id="a_node4"><a xlink:href="beluga_8hpp.html" target="_top" xlink:title="Includes all the Beluga API.">
<polygon fill="none" stroke="black" points="650.5,-78.5 650.5,-119.5 795.5,-119.5 795.5,-78.5 650.5,-78.5"/>
<text text-anchor="start" x="658.5" y="-107.5" font-family="Helvetica,sans-Serif" font-size="10.00">/home/runner/work/beluga</text>
<text text-anchor="start" x="658.5" y="-96.5" font-family="Helvetica,sans-Serif" font-size="10.00">/beluga/beluga/include</text>
<text text-anchor="middle" x="723" y="-85.5" font-family="Helvetica,sans-Serif" font-size="10.00">/beluga/beluga.hpp</text>
</a>
</g>
</g>
<!-- Node3&#45;&gt;Node4 -->
<g id="edge3" class="edge">
<title>Node3&#45;&gt;Node4</title>
<path fill="none" stroke="midnightblue" d="M408.74,-235.84C481.78,-204.27 609.75,-148.95 677.67,-119.59"/>
<polygon fill="midnightblue" stroke="midnightblue" points="407.04,-232.76 399.25,-239.94 409.81,-239.19 407.04,-232.76"/>
</g>
<!-- Node5 -->
<g id="node5" class="node">
<title>Node5</title>
<g id="a_node5"><a xlink:href="amcl__core_8hpp_source.html" target="_top" xlink:title=" ">
<polygon fill="none" stroke="black" points="634.5,-0.5 634.5,-41.5 811.5,-41.5 811.5,-0.5 634.5,-0.5"/>
<text text-anchor="start" x="642.5" y="-29.5" font-family="Helvetica,sans-Serif" font-size="10.00">/home/runner/work/beluga</text>
<text text-anchor="start" x="642.5" y="-18.5" font-family="Helvetica,sans-Serif" font-size="10.00">/beluga/beluga/include</text>
<text text-anchor="middle" x="723" y="-7.5" font-family="Helvetica,sans-Serif" font-size="10.00">/beluga/algorithm/amcl_core.hpp</text>
</a>
</g>
</g>
<!-- Node4&#45;&gt;Node5 -->
<g id="edge4" class="edge">
<title>Node4&#45;&gt;Node5</title>
<path fill="none" stroke="midnightblue" d="M723,-68.3C723,-59.3 723,-49.65 723,-41.51"/>
<polygon fill="midnightblue" stroke="midnightblue" points="719.5,-68.43 723,-78.43 726.5,-68.43 719.5,-68.43"/>
</g>
<!-- Node6&#45;&gt;Node3 -->
<g id="edge6" class="edge">
<title>Node6&#45;&gt;Node3</title>
<path fill="none" stroke="midnightblue" d="M291.66,-321.76C305.21,-308.66 321.25,-293.16 333.66,-281.16"/>
<polygon fill="midnightblue" stroke="midnightblue" points="289.18,-319.29 284.42,-328.76 294.04,-324.32 289.18,-319.29"/>
</g>
<!-- Node7&#45;&gt;Node3 -->
<g id="edge8" class="edge">
<title>Node7&#45;&gt;Node3</title>
<path fill="none" stroke="midnightblue" d="M415.65,-321.76C402.24,-308.66 386.39,-293.16 374.12,-281.16"/>
<polygon fill="midnightblue" stroke="midnightblue" points="413.21,-324.27 422.8,-328.76 418.1,-319.27 413.21,-324.27"/>
</g>
<!-- Node9 -->
<g id="node9" class="node">
<title>Node9</title>
<g id="a_node9"><a xlink:href="algorithm_8hpp.html" target="_top" xlink:title="Includes all beluga algorithms.">
<polygon fill="none" stroke="black" points="583.5,-240 583.5,-281 728.5,-281 728.5,-240 583.5,-240"/>
<text text-anchor="start" x="591.5" y="-269" font-family="Helvetica,sans-Serif" font-size="10.00">/home/runner/work/beluga</text>
<text text-anchor="start" x="591.5" y="-258" font-family="Helvetica,sans-Serif" font-size="10.00">/beluga/beluga/include</text>
<text text-anchor="middle" x="656" y="-247" font-family="Helvetica,sans-Serif" font-size="10.00">/beluga/algorithm.hpp</text>
</a>
</g>
</g>
<!-- Node8&#45;&gt;Node9 -->
<g id="edge10" class="edge">
<title>Node8&#45;&gt;Node9</title>
<path fill="none" stroke="midnightblue" d="M768.36,-318.66C743.94,-306.24 716.26,-292.16 694.49,-281.08"/>
<polygon fill="midnightblue" stroke="midnightblue" points="767.04,-321.92 777.54,-323.34 770.21,-315.68 767.04,-321.92"/>
</g>
<!-- Node10 -->
<g id="node10" class="node">
<title>Node10</title>
<g id="a_node10"><a xlink:href="on__effective__size__drop_8hpp.html" target="_top" xlink:title="Defines a policy for triggering an action based on the Effective Sample Size (ESS) metric.">
<polygon fill="none" stroke="black" points="747,-234.5 747,-286.5 903,-286.5 903,-234.5 747,-234.5"/>
<text text-anchor="start" x="755" y="-274.5" font-family="Helvetica,sans-Serif" font-size="10.00">/home/runner/work/beluga</text>
<text text-anchor="start" x="755" y="-263.5" font-family="Helvetica,sans-Serif" font-size="10.00">/beluga/beluga/include</text>
<text text-anchor="start" x="755" y="-252.5" font-family="Helvetica,sans-Serif" font-size="10.00">/beluga/policies/on_effective</text>
<text text-anchor="middle" x="825" y="-241.5" font-family="Helvetica,sans-Serif" font-size="10.00">_size_drop.hpp</text>
</a>
</g>
</g>
<!-- Node8&#45;&gt;Node10 -->
<g id="edge12" class="edge">
<title>Node8&#45;&gt;Node10</title>
<path fill="none" stroke="midnightblue" d="M826.19,-313.19C825.98,-304.28 825.77,-294.9 825.58,-286.61"/>
<polygon fill="midnightblue" stroke="midnightblue" points="822.69,-313.42 826.42,-323.34 829.69,-313.26 822.69,-313.42"/>
</g>
<!-- Node9&#45;&gt;Node4 -->
<g id="edge11" class="edge">
<title>Node9&#45;&gt;Node4</title>
<path fill="none" stroke="midnightblue" d="M668.13,-230.63C681.61,-198.53 703.03,-147.55 714.72,-119.72"/>
<polygon fill="midnightblue" stroke="midnightblue" points="664.86,-229.37 664.22,-239.94 671.32,-232.08 664.86,-229.37"/>
</g>
<!-- Node11 -->
<g id="node11" class="node">
<title>Node11</title>
<g id="a_node11"><a xlink:href="policies_8hpp.html" target="_top" xlink:title="Implementation of useful policies.">
<polygon fill="none" stroke="black" points="735.5,-156.5 735.5,-197.5 880.5,-197.5 880.5,-156.5 735.5,-156.5"/>
<text text-anchor="start" x="743.5" y="-185.5" font-family="Helvetica,sans-Serif" font-size="10.00">/home/runner/work/beluga</text>
<text text-anchor="start" x="743.5" y="-174.5" font-family="Helvetica,sans-Serif" font-size="10.00">/beluga/beluga/include</text>
<text text-anchor="middle" x="808" y="-163.5" font-family="Helvetica,sans-Serif" font-size="10.00">/beluga/policies.hpp</text>
</a>
</g>
</g>
<!-- Node10&#45;&gt;Node11 -->
<g id="edge13" class="edge">
<title>Node10&#45;&gt;Node11</title>
<path fill="none" stroke="midnightblue" d="M817.63,-224.15C815.73,-215.05 813.76,-205.6 812.09,-197.63"/>
<polygon fill="midnightblue" stroke="midnightblue" points="814.25,-225.09 819.71,-234.16 821.1,-223.66 814.25,-225.09"/>
</g>
<!-- Node11&#45;&gt;Node4 -->
<g id="edge14" class="edge">
<title>Node11&#45;&gt;Node4</title>
<path fill="none" stroke="midnightblue" d="M778.35,-149.49C767.32,-139.63 755.02,-128.63 744.82,-119.51"/>
<polygon fill="midnightblue" stroke="midnightblue" points="776.32,-152.37 786.11,-156.43 780.99,-147.15 776.32,-152.37"/>
</g>
<!-- Node12&#45;&gt;Node9 -->
<g id="edge16" class="edge">
<title>Node12&#45;&gt;Node9</title>
<path fill="none" stroke="midnightblue" d="M644.65,-313.49C647.06,-302.45 649.63,-290.65 651.72,-281.08"/>
<polygon fill="midnightblue" stroke="midnightblue" points="641.21,-312.82 642.5,-323.34 648.05,-314.31 641.21,-312.82"/>
</g>
<!-- Node13&#45;&gt;Node14 -->
<g id="edge18" class="edge">
<title>Node13&#45;&gt;Node14</title>
<path fill="none" stroke="midnightblue" d="M992.69,-318.44C992.97,-306.1 993.3,-292.16 993.55,-281.16"/>
<polygon fill="midnightblue" stroke="midnightblue" points="989.18,-318.68 992.45,-328.76 996.18,-318.84 989.18,-318.68"/>
</g>
<!-- Node14&#45;&gt;Node4 -->
<g id="edge19" class="edge">
<title>Node14&#45;&gt;Node4</title>
<path fill="none" stroke="midnightblue" d="M972.45,-231.83C953.1,-208.66 922.76,-176.24 890,-156 861.25,-138.24 826.21,-125.38 795.66,-116.5"/>
<polygon fill="midnightblue" stroke="midnightblue" points="969.77,-234.09 978.82,-239.6 975.19,-229.65 969.77,-234.09"/>
</g>
</g>
</svg>
