<?xml version="1.0" encoding="UTF-8" standalone="no"?>
<!DOCTYPE svg PUBLIC "-//W3C//DTD SVG 1.1//EN"
 "http://www.w3.org/Graphics/SVG/1.1/DTD/svg11.dtd">
<!-- Generated by graphviz version 2.43.0 (0)
 -->
<!-- Title: /home/runner/work/beluga/beluga/beluga/include/beluga/type_traits/particle_traits.hpp Pages: 1 -->
<svg width="1399pt" height="473pt"
 viewBox="0.00 0.00 1398.50 473.00" xmlns="http://www.w3.org/2000/svg" xmlns:xlink="http://www.w3.org/1999/xlink">
<g id="graph0" class="graph" transform="scale(1 1) rotate(0) translate(4 469)">
<title>/home/runner/work/beluga/beluga/beluga/include/beluga/type_traits/particle_traits.hpp</title>
<!-- Node1 -->
<g id="node1" class="node">
<title>Node1</title>
<g id="a_node1"><a xlink:title="Implementation of traits for particle types, see the Particle named requirements.">
<polygon fill="#bfbfbf" stroke="black" points="658,-412.5 658,-464.5 806,-464.5 806,-412.5 658,-412.5"/>
<text text-anchor="start" x="666" y="-452.5" font-family="Helvetica,sans-Serif" font-size="10.00">/home/runner/work/beluga</text>
<text text-anchor="start" x="666" y="-441.5" font-family="Helvetica,sans-Serif" font-size="10.00">/beluga/beluga/include</text>
<text text-anchor="start" x="666" y="-430.5" font-family="Helvetica,sans-Serif" font-size="10.00">/beluga/type_traits/particle</text>
<text text-anchor="middle" x="732" y="-419.5" font-family="Helvetica,sans-Serif" font-size="10.00">_traits.hpp</text>
</a>
</g>
</g>
<!-- Node2 -->
<g id="node2" class="node">
<title>Node2</title>
<g id="a_node2"><a xlink:href="normalize_8hpp.html" target="_top" xlink:title="Implementation of the normalize range adaptor object.">
<polygon fill="none" stroke="black" points="0,-329 0,-370 164,-370 164,-329 0,-329"/>
<text text-anchor="start" x="8" y="-358" font-family="Helvetica,sans-Serif" font-size="10.00">/home/runner/work/beluga</text>
<text text-anchor="start" x="8" y="-347" font-family="Helvetica,sans-Serif" font-size="10.00">/beluga/beluga/include</text>
<text text-anchor="middle" x="82" y="-336" font-family="Helvetica,sans-Serif" font-size="10.00">/beluga/actions/normalize.hpp</text>
</a>
</g>
</g>
<!-- Node1&#45;&gt;Node2 -->
<g id="edge1" class="edge">
<title>Node1&#45;&gt;Node2</title>
<path fill="none" stroke="midnightblue" d="M647.68,-432.54C537.69,-425.08 339.61,-408.28 173,-376 164.46,-374.35 155.56,-372.28 146.81,-370.05"/>
<polygon fill="midnightblue" stroke="midnightblue" points="647.51,-436.03 657.72,-433.21 647.98,-429.05 647.51,-436.03"/>
</g>
<!-- Node6 -->
<g id="node6" class="node">
<title>Node6</title>
<g id="a_node6"><a xlink:href="propagate_8hpp.html" target="_top" xlink:title="Implementation of the propagate range adaptor object.">
<polygon fill="none" stroke="black" points="182,-329 182,-370 346,-370 346,-329 182,-329"/>
<text text-anchor="start" x="190" y="-358" font-family="Helvetica,sans-Serif" font-size="10.00">/home/runner/work/beluga</text>
<text text-anchor="start" x="190" y="-347" font-family="Helvetica,sans-Serif" font-size="10.00">/beluga/beluga/include</text>
<text text-anchor="middle" x="264" y="-336" font-family="Helvetica,sans-Serif" font-size="10.00">/beluga/actions/propagate.hpp</text>
</a>
</g>
</g>
<!-- Node1&#45;&gt;Node6 -->
<g id="edge5" class="edge">
<title>Node1&#45;&gt;Node6</title>
<path fill="none" stroke="midnightblue" d="M647.76,-426.5C571.02,-415.83 454.78,-398.05 355,-376 346.99,-374.23 338.64,-372.18 330.38,-370.02"/>
<polygon fill="midnightblue" stroke="midnightblue" points="647.47,-429.99 657.85,-427.89 648.43,-423.06 647.47,-429.99"/>
</g>
<!-- Node7 -->
<g id="node7" class="node">
<title>Node7</title>
<g id="a_node7"><a xlink:href="reweight_8hpp.html" target="_top" xlink:title="Implementation of the reweight range adaptor object.">
<polygon fill="none" stroke="black" points="364,-329 364,-370 522,-370 522,-329 364,-329"/>
<text text-anchor="start" x="372" y="-358" font-family="Helvetica,sans-Serif" font-size="10.00">/home/runner/work/beluga</text>
<text text-anchor="start" x="372" y="-347" font-family="Helvetica,sans-Serif" font-size="10.00">/beluga/beluga/include</text>
<text text-anchor="middle" x="443" y="-336" font-family="Helvetica,sans-Serif" font-size="10.00">/beluga/actions/reweight.hpp</text>
</a>
</g>
</g>
<!-- Node1&#45;&gt;Node7 -->
<g id="edge7" class="edge">
<title>Node1&#45;&gt;Node7</title>
<path fill="none" stroke="midnightblue" d="M648.28,-412.3C603.61,-398.85 549.47,-382.55 508,-370.07"/>
<polygon fill="midnightblue" stroke="midnightblue" points="647.37,-415.68 657.95,-415.21 649.38,-408.97 647.37,-415.68"/>
</g>
<!-- Node8 -->
<g id="node8" class="node">
<title>Node8</title>
<g id="a_node8"><a xlink:href="effective__sample__size_8hpp.html" target="_top" xlink:title="Implementation of an algorithm to calculate the effective sample size (ESS).">
<polygon fill="none" stroke="black" points="752.5,-323.5 752.5,-375.5 901.5,-375.5 901.5,-323.5 752.5,-323.5"/>
<text text-anchor="start" x="760.5" y="-363.5" font-family="Helvetica,sans-Serif" font-size="10.00">/home/runner/work/beluga</text>
<text text-anchor="start" x="760.5" y="-352.5" font-family="Helvetica,sans-Serif" font-size="10.00">/beluga/beluga/include</text>
<text text-anchor="start" x="760.5" y="-341.5" font-family="Helvetica,sans-Serif" font-size="10.00">/beluga/algorithm/effective</text>
<text text-anchor="middle" x="827" y="-330.5" font-family="Helvetica,sans-Serif" font-size="10.00">_sample_size.hpp</text>
</a>
</g>
</g>
<!-- Node1&#45;&gt;Node8 -->
<g id="edge9" class="edge">
<title>Node1&#45;&gt;Node8</title>
<path fill="none" stroke="midnightblue" d="M767.09,-405.36C777.82,-395.54 789.45,-384.89 799.58,-375.61"/>
<polygon fill="midnightblue" stroke="midnightblue" points="764.49,-403 759.48,-412.34 769.22,-408.16 764.49,-403"/>
</g>
<!-- Node12 -->
<g id="node12" class="node">
<title>Node12</title>
<g id="a_node12"><a xlink:href="thrun__recovery__probability__estimator_8hpp_source.html" target="_top" xlink:title=" ">
<polygon fill="none" stroke="black" points="539.5,-323.5 539.5,-375.5 734.5,-375.5 734.5,-323.5 539.5,-323.5"/>
<text text-anchor="start" x="547.5" y="-363.5" font-family="Helvetica,sans-Serif" font-size="10.00">/home/runner/work/beluga</text>
<text text-anchor="start" x="547.5" y="-352.5" font-family="Helvetica,sans-Serif" font-size="10.00">/beluga/beluga/include</text>
<text text-anchor="start" x="547.5" y="-341.5" font-family="Helvetica,sans-Serif" font-size="10.00">/beluga/algorithm/thrun</text>
<text text-anchor="middle" x="637" y="-330.5" font-family="Helvetica,sans-Serif" font-size="10.00">_recovery_probability_estimator.hpp</text>
</a>
</g>
</g>
<!-- Node1&#45;&gt;Node12 -->
<g id="edge15" class="edge">
<title>Node1&#45;&gt;Node12</title>
<path fill="none" stroke="midnightblue" d="M696.91,-405.36C686.18,-395.54 674.55,-384.89 664.42,-375.61"/>
<polygon fill="midnightblue" stroke="midnightblue" points="694.78,-408.16 704.52,-412.34 699.51,-403 694.78,-408.16"/>
</g>
<!-- Node13 -->
<g id="node13" class="node">
<title>Node13</title>
<g id="a_node13"><a xlink:href="type__traits_8hpp.html" target="_top" xlink:title="Includes all Beluga type traits.">
<polygon fill="none" stroke="black" points="919.5,-329 919.5,-370 1064.5,-370 1064.5,-329 919.5,-329"/>
<text text-anchor="start" x="927.5" y="-358" font-family="Helvetica,sans-Serif" font-size="10.00">/home/runner/work/beluga</text>
<text text-anchor="start" x="927.5" y="-347" font-family="Helvetica,sans-Serif" font-size="10.00">/beluga/beluga/include</text>
<text text-anchor="middle" x="992" y="-336" font-family="Helvetica,sans-Serif" font-size="10.00">/beluga/type_traits.hpp</text>
</a>
</g>
</g>
<!-- Node1&#45;&gt;Node13 -->
<g id="edge17" class="edge">
<title>Node1&#45;&gt;Node13</title>
<path fill="none" stroke="midnightblue" d="M815.77,-409.47C854.16,-396.62 898.72,-381.71 933.44,-370.1"/>
<polygon fill="midnightblue" stroke="midnightblue" points="814.53,-406.19 806.16,-412.69 816.75,-412.83 814.53,-406.19"/>
</g>
<!-- Node16 -->
<g id="node16" class="node">
<title>Node16</title>
<g id="a_node16"><a xlink:href="sample_8hpp.html" target="_top" xlink:title="Implementation of a sample (with replacement) range adaptor object.">
<polygon fill="none" stroke="black" points="1082.5,-329 1082.5,-370 1227.5,-370 1227.5,-329 1082.5,-329"/>
<text text-anchor="start" x="1090.5" y="-358" font-family="Helvetica,sans-Serif" font-size="10.00">/home/runner/work/beluga</text>
<text text-anchor="start" x="1090.5" y="-347" font-family="Helvetica,sans-Serif" font-size="10.00">/beluga/beluga/include</text>
<text text-anchor="middle" x="1155" y="-336" font-family="Helvetica,sans-Serif" font-size="10.00">/beluga/views/sample.hpp</text>
</a>
</g>
</g>
<!-- Node1&#45;&gt;Node16 -->
<g id="edge22" class="edge">
<title>Node1&#45;&gt;Node16</title>
<path fill="none" stroke="midnightblue" d="M816.33,-425.4C885.93,-414.67 987.04,-397.41 1074,-376 1081.16,-374.24 1088.61,-372.19 1095.97,-370.04"/>
<polygon fill="midnightblue" stroke="midnightblue" points="815.65,-421.96 806.29,-426.93 816.7,-428.88 815.65,-421.96"/>
</g>
<!-- Node18 -->
<g id="node18" class="node">
<title>Node18</title>
<g id="a_node18"><a xlink:href="take__while__kld_8hpp.html" target="_top" xlink:title="Implementation of a take_while_kld range adaptor object.">
<polygon fill="none" stroke="black" points="1245.5,-323.5 1245.5,-375.5 1390.5,-375.5 1390.5,-323.5 1245.5,-323.5"/>
<text text-anchor="start" x="1253.5" y="-363.5" font-family="Helvetica,sans-Serif" font-size="10.00">/home/runner/work/beluga</text>
<text text-anchor="start" x="1253.5" y="-352.5" font-family="Helvetica,sans-Serif" font-size="10.00">/beluga/beluga/include</text>
<text text-anchor="start" x="1253.5" y="-341.5" font-family="Helvetica,sans-Serif" font-size="10.00">/beluga/views/take_while</text>
<text text-anchor="middle" x="1318" y="-330.5" font-family="Helvetica,sans-Serif" font-size="10.00">_kld.hpp</text>
</a>
</g>
</g>
<!-- Node1&#45;&gt;Node18 -->
<g id="edge25" class="edge">
<title>Node1&#45;&gt;Node18</title>
<path fill="none" stroke="midnightblue" d="M816.44,-431.98C917.37,-424.29 1090.95,-407.6 1237,-376 1239.74,-375.41 1242.52,-374.76 1245.31,-374.08"/>
<polygon fill="midnightblue" stroke="midnightblue" points="816.02,-428.5 806.31,-432.74 816.54,-435.48 816.02,-428.5"/>
</g>
<!-- Node3 -->
<g id="node3" class="node">
<title>Node3</title>
<g id="a_node3"><a xlink:href="actions_8hpp.html" target="_top" xlink:title="Implementation of useful range actions.">
<polygon fill="none" stroke="black" points="281.5,-240 281.5,-281 426.5,-281 426.5,-240 281.5,-240"/>
<text text-anchor="start" x="289.5" y="-269" font-family="Helvetica,sans-Serif" font-size="10.00">/home/runner/work/beluga</text>
<text text-anchor="start" x="289.5" y="-258" font-family="Helvetica,sans-Serif" font-size="10.00">/beluga/beluga/include</text>
<text text-anchor="middle" x="354" y="-247" font-family="Helvetica,sans-Serif" font-size="10.00">/beluga/actions.hpp</text>
</a>
</g>
</g>
<!-- Node2&#45;&gt;Node3 -->
<g id="edge2" class="edge">
<title>Node2&#45;&gt;Node3</title>
<path fill="none" stroke="midnightblue" d="M152.68,-325.89C196.09,-312.01 251.13,-294.4 292.69,-281.11"/>
<polygon fill="midnightblue" stroke="midnightblue" points="151.5,-322.6 143.04,-328.98 153.63,-329.26 151.5,-322.6"/>
</g>
<!-- Node4 -->
<g id="node4" class="node">
<title>Node4</title>
<g id="a_node4"><a xlink:href="beluga_8hpp.html" target="_top" xlink:title="Includes all the Beluga API.">
<polygon fill="none" stroke="black" points="798.5,-78.5 798.5,-119.5 943.5,-119.5 943.5,-78.5 798.5,-78.5"/>
<text text-anchor="start" x="806.5" y="-107.5" font-family="Helvetica,sans-Serif" font-size="10.00">/home/runner/work/beluga</text>
<text text-anchor="start" x="806.5" y="-96.5" font-family="Helvetica,sans-Serif" font-size="10.00">/beluga/beluga/include</text>
<text text-anchor="middle" x="871" y="-85.5" font-family="Helvetica,sans-Serif" font-size="10.00">/beluga/beluga.hpp</text>
</a>
</g>
</g>
<!-- Node3&#45;&gt;Node4 -->
<g id="edge3" class="edge">
<title>Node3&#45;&gt;Node4</title>
<path fill="none" stroke="midnightblue" d="M427.03,-236.91C494.88,-215.93 598.77,-183.82 689,-156 728.33,-143.87 772.45,-130.3 807.4,-119.55"/>
<polygon fill="midnightblue" stroke="midnightblue" points="425.8,-233.63 417.28,-239.93 427.87,-240.31 425.8,-233.63"/>
</g>
<!-- Node5 -->
<g id="node5" class="node">
<title>Node5</title>
<g id="a_node5"><a xlink:href="amcl__core_8hpp_source.html" target="_top" xlink:title=" ">
<polygon fill="none" stroke="black" points="782.5,-0.5 782.5,-41.5 959.5,-41.5 959.5,-0.5 782.5,-0.5"/>
<text text-anchor="start" x="790.5" y="-29.5" font-family="Helvetica,sans-Serif" font-size="10.00">/home/runner/work/beluga</text>
<text text-anchor="start" x="790.5" y="-18.5" font-family="Helvetica,sans-Serif" font-size="10.00">/beluga/beluga/include</text>
<text text-anchor="middle" x="871" y="-7.5" font-family="Helvetica,sans-Serif" font-size="10.00">/beluga/algorithm/amcl_core.hpp</text>
</a>
</g>
</g>
<!-- Node4&#45;&gt;Node5 -->
<g id="edge4" class="edge">
<title>Node4&#45;&gt;Node5</title>
<path fill="none" stroke="midnightblue" d="M871,-68.3C871,-59.3 871,-49.65 871,-41.51"/>
<polygon fill="midnightblue" stroke="midnightblue" points="867.5,-68.43 871,-78.43 874.5,-68.43 867.5,-68.43"/>
</g>
<!-- Node6&#45;&gt;Node3 -->
<g id="edge6" class="edge">
<title>Node6&#45;&gt;Node3</title>
<path fill="none" stroke="midnightblue" d="M291.66,-321.76C305.21,-308.66 321.25,-293.16 333.66,-281.16"/>
<polygon fill="midnightblue" stroke="midnightblue" points="289.18,-319.29 284.42,-328.76 294.04,-324.32 289.18,-319.29"/>
</g>
<!-- Node7&#45;&gt;Node3 -->
<g id="edge8" class="edge">
<title>Node7&#45;&gt;Node3</title>
<path fill="none" stroke="midnightblue" d="M415.65,-321.76C402.24,-308.66 386.39,-293.16 374.12,-281.16"/>
<polygon fill="midnightblue" stroke="midnightblue" points="413.21,-324.27 422.8,-328.76 418.1,-319.27 413.21,-324.27"/>
</g>
<!-- Node9 -->
<g id="node9" class="node">
<title>Node9</title>
<g id="a_node9"><a xlink:href="algorithm_8hpp.html" target="_top" xlink:title="Includes all beluga algorithms.">
<polygon fill="none" stroke="black" points="574.5,-240 574.5,-281 719.5,-281 719.5,-240 574.5,-240"/>
<text text-anchor="start" x="582.5" y="-269" font-family="Helvetica,sans-Serif" font-size="10.00">/home/runner/work/beluga</text>
<text text-anchor="start" x="582.5" y="-258" font-family="Helvetica,sans-Serif" font-size="10.00">/beluga/beluga/include</text>
<text text-anchor="middle" x="647" y="-247" font-family="Helvetica,sans-Serif" font-size="10.00">/beluga/algorithm.hpp</text>
</a>
</g>
</g>
<!-- Node8&#45;&gt;Node9 -->
<g id="edge10" class="edge">
<title>Node8&#45;&gt;Node9</title>
<path fill="none" stroke="midnightblue" d="M765.61,-318.83C739.82,-306.36 710.53,-292.21 687.51,-281.08"/>
<polygon fill="midnightblue" stroke="midnightblue" points="764.41,-322.14 774.94,-323.34 767.46,-315.83 764.41,-322.14"/>
</g>
<!-- Node10 -->
<g id="node10" class="node">
<title>Node10</title>
<g id="a_node10"><a xlink:href="on__effective__size__drop_8hpp.html" target="_top" xlink:title="Defines a policy for triggering an action based on the Effective Sample Size (ESS) metric.">
<polygon fill="none" stroke="black" points="738,-234.5 738,-286.5 894,-286.5 894,-234.5 738,-234.5"/>
<text text-anchor="start" x="746" y="-274.5" font-family="Helvetica,sans-Serif" font-size="10.00">/home/runner/work/beluga</text>
<text text-anchor="start" x="746" y="-263.5" font-family="Helvetica,sans-Serif" font-size="10.00">/beluga/beluga/include</text>
<text text-anchor="start" x="746" y="-252.5" font-family="Helvetica,sans-Serif" font-size="10.00">/beluga/policies/on_effective</text>
<text text-anchor="middle" x="816" y="-241.5" font-family="Helvetica,sans-Serif" font-size="10.00">_size_drop.hpp</text>
</a>
</g>
</g>
<!-- Node8&#45;&gt;Node10 -->
<g id="edge12" class="edge">
<title>Node8&#45;&gt;Node10</title>
<path fill="none" stroke="midnightblue" d="M822.54,-313.19C821.41,-304.28 820.22,-294.9 819.17,-286.61"/>
<polygon fill="midnightblue" stroke="midnightblue" points="819.09,-313.85 823.82,-323.34 826.04,-312.98 819.09,-313.85"/>
</g>
<!-- Node9&#45;&gt;Node4 -->
<g id="edge11" class="edge">
<title>Node9&#45;&gt;Node4</title>
<path fill="none" stroke="midnightblue" d="M665.38,-231.62C681.65,-208.74 707.24,-176.83 736,-156 757.27,-140.59 783.41,-128.49 807,-119.54"/>
<polygon fill="midnightblue" stroke="midnightblue" points="662.45,-229.7 659.61,-239.9 668.2,-233.7 662.45,-229.7"/>
</g>
<!-- Node11 -->
<g id="node11" class="node">
<title>Node11</title>
<g id="a_node11"><a xlink:href="policies_8hpp.html" target="_top" xlink:title="Implementation of useful policies.">
<polygon fill="none" stroke="black" points="745.5,-156.5 745.5,-197.5 890.5,-197.5 890.5,-156.5 745.5,-156.5"/>
<text text-anchor="start" x="753.5" y="-185.5" font-family="Helvetica,sans-Serif" font-size="10.00">/home/runner/work/beluga</text>
<text text-anchor="start" x="753.5" y="-174.5" font-family="Helvetica,sans-Serif" font-size="10.00">/beluga/beluga/include</text>
<text text-anchor="middle" x="818" y="-163.5" font-family="Helvetica,sans-Serif" font-size="10.00">/beluga/policies.hpp</text>
</a>
</g>
</g>
<!-- Node10&#45;&gt;Node11 -->
<g id="edge13" class="edge">
<title>Node10&#45;&gt;Node11</title>
<path fill="none" stroke="midnightblue" d="M816.87,-224.15C817.09,-215.05 817.32,-205.6 817.52,-197.63"/>
<polygon fill="midnightblue" stroke="midnightblue" points="813.37,-224.08 816.62,-234.16 820.37,-224.25 813.37,-224.08"/>
</g>
<!-- Node11&#45;&gt;Node4 -->
<g id="edge14" class="edge">
<title>Node11&#45;&gt;Node4</title>
<path fill="none" stroke="midnightblue" d="M837.49,-148.05C844.11,-138.57 851.34,-128.18 857.4,-119.51"/>
<polygon fill="midnightblue" stroke="midnightblue" points="834.5,-146.22 831.65,-156.43 840.24,-150.23 834.5,-146.22"/>
</g>
<!-- Node12&#45;&gt;Node9 -->
<g id="edge16" class="edge">
<title>Node12&#45;&gt;Node9</title>
<path fill="none" stroke="midnightblue" d="M641.06,-313.16C642.32,-302.21 643.66,-290.55 644.75,-281.08"/>
<polygon fill="midnightblue" stroke="midnightblue" points="637.56,-313 639.89,-323.34 644.51,-313.8 637.56,-313"/>
</g>
<!-- Node13&#45;&gt;Node4 -->
<g id="edge18" class="edge">
<title>Node13&#45;&gt;Node4</title>
<path fill="none" stroke="midnightblue" d="M965.54,-321.2C956.8,-311.07 947.63,-299.09 941,-287 911.62,-233.38 922.07,-212.62 899,-156 893.95,-143.62 887.29,-130.21 881.73,-119.61"/>
<polygon fill="midnightblue" stroke="midnightblue" points="963.13,-323.75 972.4,-328.89 968.36,-319.09 963.13,-323.75"/>
</g>
<!-- Node14 -->
<g id="node14" class="node">
<title>Node14</title>
<g id="a_node14"><a xlink:href="tuple__vector_8hpp.html" target="_top" xlink:title="Implementation of a tuple of containers.">
<polygon fill="none" stroke="black" points="950.5,-234.5 950.5,-286.5 1095.5,-286.5 1095.5,-234.5 950.5,-234.5"/>
<text text-anchor="start" x="958.5" y="-274.5" font-family="Helvetica,sans-Serif" font-size="10.00">/home/runner/work/beluga</text>
<text text-anchor="start" x="958.5" y="-263.5" font-family="Helvetica,sans-Serif" font-size="10.00">/beluga/beluga/include</text>
<text text-anchor="start" x="958.5" y="-252.5" font-family="Helvetica,sans-Serif" font-size="10.00">/beluga/containers/tuple</text>
<text text-anchor="middle" x="1023" y="-241.5" font-family="Helvetica,sans-Serif" font-size="10.00">_vector.hpp</text>
</a>
</g>
</g>
<!-- Node13&#45;&gt;Node14 -->
<g id="edge19" class="edge">
<title>Node13&#45;&gt;Node14</title>
<path fill="none" stroke="midnightblue" d="M1002.45,-319.16C1006.2,-308.66 1010.38,-296.92 1013.99,-286.79"/>
<polygon fill="midnightblue" stroke="midnightblue" points="999.09,-318.16 999.03,-328.76 1005.69,-320.51 999.09,-318.16"/>
</g>
<!-- Node15 -->
<g id="node15" class="node">
<title>Node15</title>
<g id="a_node15"><a xlink:href="containers_8hpp.html" target="_top" xlink:title="Implementation of efficient containers.">
<polygon fill="none" stroke="black" points="950.5,-156.5 950.5,-197.5 1095.5,-197.5 1095.5,-156.5 950.5,-156.5"/>
<text text-anchor="start" x="958.5" y="-185.5" font-family="Helvetica,sans-Serif" font-size="10.00">/home/runner/work/beluga</text>
<text text-anchor="start" x="958.5" y="-174.5" font-family="Helvetica,sans-Serif" font-size="10.00">/beluga/beluga/include</text>
<text text-anchor="middle" x="1023" y="-163.5" font-family="Helvetica,sans-Serif" font-size="10.00">/beluga/containers.hpp</text>
</a>
</g>
</g>
<!-- Node14&#45;&gt;Node15 -->
<g id="edge20" class="edge">
<title>Node14&#45;&gt;Node15</title>
<path fill="none" stroke="midnightblue" d="M1023,-224.15C1023,-215.05 1023,-205.6 1023,-197.63"/>
<polygon fill="midnightblue" stroke="midnightblue" points="1019.5,-224.16 1023,-234.16 1026.5,-224.16 1019.5,-224.16"/>
</g>
<!-- Node15&#45;&gt;Node4 -->
<g id="edge21" class="edge">
<title>Node15&#45;&gt;Node4</title>
<path fill="none" stroke="midnightblue" d="M974.82,-151.91C953.92,-141.46 929.76,-129.38 910.01,-119.51"/>
<polygon fill="midnightblue" stroke="midnightblue" points="973.35,-155.09 983.86,-156.43 976.48,-148.83 973.35,-155.09"/>
</g>
<!-- Node17 -->
<g id="node17" class="node">
<title>Node17</title>
<g id="a_node17"><a xlink:href="views_8hpp.html" target="_top" xlink:title="Implementation of useful container views.">
<polygon fill="none" stroke="black" points="1113.5,-240 1113.5,-281 1258.5,-281 1258.5,-240 1113.5,-240"/>
<text text-anchor="start" x="1121.5" y="-269" font-family="Helvetica,sans-Serif" font-size="10.00">/home/runner/work/beluga</text>
<text text-anchor="start" x="1121.5" y="-258" font-family="Helvetica,sans-Serif" font-size="10.00">/beluga/beluga/include</text>
<text text-anchor="middle" x="1186" y="-247" font-family="Helvetica,sans-Serif" font-size="10.00">/beluga/views.hpp</text>
</a>
</g>
</g>
<!-- Node16&#45;&gt;Node17 -->
<g id="edge23" class="edge">
<title>Node16&#45;&gt;Node17</title>
<path fill="none" stroke="midnightblue" d="M1165.45,-319.19C1169.91,-306.67 1175,-292.38 1178.99,-281.16"/>
<polygon fill="midnightblue" stroke="midnightblue" points="1162.09,-318.16 1162.03,-328.76 1168.69,-320.51 1162.09,-318.16"/>
</g>
<!-- Node17&#45;&gt;Node4 -->
<g id="edge24" class="edge">
<title>Node17&#45;&gt;Node4</title>
<path fill="none" stroke="midnightblue" d="M1170.92,-230.93C1156.95,-207.26 1133.98,-174.61 1105,-156 1056.58,-124.91 992.52,-111.06 943.67,-104.91"/>
<polygon fill="midnightblue" stroke="midnightblue" points="1168,-232.87 1176,-239.82 1174.08,-229.4 1168,-232.87"/>
</g>
<!-- Node18&#45;&gt;Node17 -->
<g id="edge26" class="edge">
<title>Node18&#45;&gt;Node17</title>
<path fill="none" stroke="midnightblue" d="M1271.23,-317.68C1252.76,-305.5 1232.07,-291.87 1215.71,-281.08"/>
<polygon fill="midnightblue" stroke="midnightblue" points="1269.54,-320.76 1279.82,-323.34 1273.4,-314.91 1269.54,-320.76"/>
</g>
</g>
</svg>
