<?xml version="1.0" encoding="UTF-8" standalone="no"?>
<!DOCTYPE svg PUBLIC "-//W3C//DTD SVG 1.1//EN"
 "http://www.w3.org/Graphics/SVG/1.1/DTD/svg11.dtd">
<!-- Generated by graphviz version 2.43.0 (0)
 -->
<!-- Title: /home/runner/work/beluga/beluga/beluga/include/beluga/policies.hpp Pages: 1 -->
<!--zoomable 430 -->
<svg id="main" version="1.1" xmlns="http://www.w3.org/2000/svg" xmlns:xlink="http://www.w3.org/1999/xlink" xml:space="preserve" onload="init(evt)">
<style type="text/css"><![CDATA[
.edge:hover path { stroke: red; }
.edge:hover polygon { stroke: red; fill: red; }
]]></style>
<script type="text/javascript"><![CDATA[
var edges = document.getElementsByTagName('g');
if (edges && edges.length) {
  for (var i=0;i<edges.length;i++) {
    if (edges[i].id.substr(0,4)=='edge') {
      edges[i].setAttribute('class','edge');
    }
  }
}
]]></script>
        <defs>
                <circle id="rim" cx="0" cy="0" r="7"/>
                <circle id="rim2" cx="0" cy="0" r="3.5"/>
                <g id="zoomPlus">
                        <use xlink:href="#rim" fill="#404040">
                                <set attributeName="fill" to="#808080" begin="zoomplus.mouseover" end="zoomplus.mouseout"/>
                        </use>
                        <path d="M-4,0h8M0,-4v8" fill="none" stroke="white" stroke-width="1.5" pointer-events="none"/>
                </g>
                <g id="zoomMin">
                        <use xlink:href="#rim" fill="#404040">
                                <set attributeName="fill" to="#808080" begin="zoomminus.mouseover" end="zoomminus.mouseout"/>
                        </use>
                        <path d="M-4,0h8" fill="none" stroke="white" stroke-width="1.5" pointer-events="none"/>
                </g>
                <g id="dirArrow">
                        <path fill="none" stroke="white" stroke-width="1.5" d="M0,-3.0v7 M-2.5,-0.5L0,-3.0L2.5,-0.5"/>
                </g>
               <g id="resetDef">
                       <use xlink:href="#rim2" fill="#404040">
                               <set attributeName="fill" to="#808080" begin="reset.mouseover" end="reset.mouseout"/>
                       </use>
               </g>
        </defs>

<script type="text/javascript">
var viewWidth = 975;
var viewHeight = 430;
var sectionId = 'dynsection-0';
</script>
<script xlink:href="svgpan.js"/>
<svg id="graph" class="graph">
<g id="viewport">
<title>/home/runner/work/beluga/beluga/beluga/include/beluga/policies.hpp</title>
<!-- Node1 -->
<g id="node1" class="node">
<title>Node1</title>
<g id="a_node1"><a xlink:title="Implementation of useful policies.">
<polygon fill="#bfbfbf" stroke="black" points="494.5,-380.5 494.5,-421.5 639.5,-421.5 639.5,-380.5 494.5,-380.5"/>
<text text-anchor="start" x="502.5" y="-409.5" font-family="Helvetica,sans-Serif" font-size="10.00">/home/runner/work/beluga</text>
<text text-anchor="start" x="502.5" y="-398.5" font-family="Helvetica,sans-Serif" font-size="10.00">/beluga/beluga/include</text>
<text text-anchor="middle" x="567" y="-387.5" font-family="Helvetica,sans-Serif" font-size="10.00">/beluga/policies.hpp</text>
</a>
</g>
</g>
<!-- Node2 -->
<g id="node2" class="node">
<title>Node2</title>
<g id="a_node2"><a xlink:href="every__n_8hpp.html" target="_top" xlink:title="Defines a policy for triggering an action every N calls.">
<polygon fill="none" stroke="black" points="462.5,-313.5 462.5,-343.5 583.5,-343.5 583.5,-313.5 462.5,-313.5"/>
<text text-anchor="start" x="470.5" y="-331.5" font-family="Helvetica,sans-Serif" font-size="10.00">beluga/policies/every</text>
<text text-anchor="middle" x="523" y="-320.5" font-family="Helvetica,sans-Serif" font-size="10.00">_n.hpp</text>
</a>
</g>
</g>
<!-- Node1&#45;&gt;Node2 -->
<g id="edge1" class="edge">
<title>Node1&#45;&gt;Node2</title>
<path fill="none" stroke="midnightblue" d="M554.74,-380.36C549.33,-371.68 542.92,-361.42 537.29,-352.4"/>
<polygon fill="midnightblue" stroke="midnightblue" points="540.25,-350.52 531.98,-343.89 534.31,-354.23 540.25,-350.52"/>
</g>
<!-- Node3 -->
<g id="node3" class="node">
<title>Node3</title>
<g id="a_node3"><a xlink:href="policy_8hpp_source.html" target="_top" xlink:title=" ">
<polygon fill="none" stroke="black" points="473,-252 473,-271 615,-271 615,-252 473,-252"/>
<text text-anchor="middle" x="544" y="-259" font-family="Helvetica,sans-Serif" font-size="10.00">beluga/policies/policy.hpp</text>
</a>
</g>
</g>
<!-- Node1&#45;&gt;Node3 -->
<g id="edge32" class="edge">
<title>Node1&#45;&gt;Node3</title>
<path fill="none" stroke="midnightblue" d="M580.02,-380.28C590.11,-362.39 600.98,-335.48 592,-313 586.41,-299 574.88,-286.65 564.52,-277.68"/>
<polygon fill="midnightblue" stroke="midnightblue" points="566.57,-274.83 556.6,-271.23 562.15,-280.26 566.57,-274.83"/>
</g>
<!-- Node5 -->
<g id="node5" class="node">
<title>Node5</title>
<g id="a_node5"><a xlink:href="on__effective__size__drop_8hpp.html" target="_top" xlink:title="Defines a policy for triggering an action based on the Effective Sample Size (ESS) metric.">
<polygon fill="none" stroke="black" points="307.5,-313.5 307.5,-343.5 444.5,-343.5 444.5,-313.5 307.5,-313.5"/>
<text text-anchor="start" x="315.5" y="-331.5" font-family="Helvetica,sans-Serif" font-size="10.00">beluga/policies/on</text>
<text text-anchor="middle" x="376" y="-320.5" font-family="Helvetica,sans-Serif" font-size="10.00">_effective_size_drop.hpp</text>
</a>
</g>
</g>
<!-- Node1&#45;&gt;Node5 -->
<g id="edge4" class="edge">
<title>Node1&#45;&gt;Node5</title>
<path fill="none" stroke="midnightblue" d="M514.05,-380.46C485.71,-369.99 451.08,-357.21 423.59,-347.07"/>
<polygon fill="midnightblue" stroke="midnightblue" points="424.78,-343.78 414.19,-343.6 422.36,-350.34 424.78,-343.78"/>
</g>
<!-- Node21 -->
<g id="node21" class="node">
<title>Node21</title>
<g id="a_node21"><a xlink:href="on__motion_8hpp.html" target="_top" xlink:title="Defines a policy for triggering an action based on motion.">
<polygon fill="none" stroke="black" points="640.5,-313.5 640.5,-343.5 745.5,-343.5 745.5,-313.5 640.5,-313.5"/>
<text text-anchor="start" x="648.5" y="-331.5" font-family="Helvetica,sans-Serif" font-size="10.00">beluga/policies/on</text>
<text text-anchor="middle" x="693" y="-320.5" font-family="Helvetica,sans-Serif" font-size="10.00">_motion.hpp</text>
</a>
</g>
</g>
<!-- Node1&#45;&gt;Node21 -->
<g id="edge27" class="edge">
<title>Node1&#45;&gt;Node21</title>
<path fill="none" stroke="midnightblue" d="M602.1,-380.36C619.83,-370.44 641.26,-358.45 658.86,-348.6"/>
<polygon fill="midnightblue" stroke="midnightblue" points="660.66,-351.61 667.67,-343.67 657.24,-345.5 660.66,-351.61"/>
</g>
<!-- Node2&#45;&gt;Node3 -->
<g id="edge2" class="edge">
<title>Node2&#45;&gt;Node3</title>
<path fill="none" stroke="midnightblue" d="M527.56,-313.4C530.64,-303.86 534.73,-291.18 538.07,-280.86"/>
<polygon fill="midnightblue" stroke="midnightblue" points="541.45,-281.79 541.19,-271.19 534.79,-279.63 541.45,-281.79"/>
</g>
<!-- Node4 -->
<g id="node4" class="node">
<title>Node4</title>
<g id="a_node4"><a xlink:title=" ">
<polygon fill="none" stroke="#bfbfbf" points="444.5,-0.5 444.5,-19.5 513.5,-19.5 513.5,-0.5 444.5,-0.5"/>
<text text-anchor="middle" x="479" y="-7.5" font-family="Helvetica,sans-Serif" font-size="10.00">type_traits</text>
</a>
</g>
</g>
<!-- Node3&#45;&gt;Node4 -->
<g id="edge3" class="edge">
<title>Node3&#45;&gt;Node4</title>
<path fill="none" stroke="midnightblue" d="M542.26,-251.76C537.86,-229.92 525.75,-171.26 513,-123 504.21,-89.72 492.17,-51.45 485.02,-29.36"/>
<polygon fill="midnightblue" stroke="midnightblue" points="488.29,-28.08 481.86,-19.65 481.63,-30.24 488.29,-28.08"/>
</g>
<!-- Node5&#45;&gt;Node3 -->
<g id="edge26" class="edge">
<title>Node5&#45;&gt;Node3</title>
<path fill="none" stroke="midnightblue" d="M412.45,-313.4C442.32,-301.84 484.15,-285.66 512.56,-274.66"/>
<polygon fill="midnightblue" stroke="midnightblue" points="513.95,-277.88 522.01,-271.01 511.42,-271.35 513.95,-277.88"/>
</g>
<!-- Node6 -->
<g id="node6" class="node">
<title>Node6</title>
<g id="a_node6"><a xlink:title=" ">
<polygon fill="none" stroke="#bfbfbf" points="297,-252 297,-271 455,-271 455,-252 297,-252"/>
<text text-anchor="middle" x="376" y="-259" font-family="Helvetica,sans-Serif" font-size="10.00">range/v3/range/concepts.hpp</text>
</a>
</g>
</g>
<!-- Node5&#45;&gt;Node6 -->
<g id="edge5" class="edge">
<title>Node5&#45;&gt;Node6</title>
<path fill="none" stroke="midnightblue" d="M376,-313.4C376,-304.06 376,-291.71 376,-281.52"/>
<polygon fill="midnightblue" stroke="midnightblue" points="379.5,-281.19 376,-271.19 372.5,-281.19 379.5,-281.19"/>
</g>
<!-- Node7 -->
<g id="node7" class="node">
<title>Node7</title>
<g id="a_node7"><a xlink:href="effective__sample__size_8hpp.html" target="_top" xlink:title="Implementation of an algorithm to calculate the effective sample size (ESS).">
<polygon fill="none" stroke="black" points="133,-246.5 133,-276.5 279,-276.5 279,-246.5 133,-246.5"/>
<text text-anchor="start" x="141" y="-264.5" font-family="Helvetica,sans-Serif" font-size="10.00">beluga/algorithm/effective</text>
<text text-anchor="middle" x="206" y="-253.5" font-family="Helvetica,sans-Serif" font-size="10.00">_sample_size.hpp</text>
</a>
</g>
</g>
<!-- Node5&#45;&gt;Node7 -->
<g id="edge6" class="edge">
<title>Node5&#45;&gt;Node7</title>
<path fill="none" stroke="midnightblue" d="M339.11,-313.4C313.61,-303.64 279.48,-290.59 252.17,-280.15"/>
<polygon fill="midnightblue" stroke="midnightblue" points="253.41,-276.88 242.82,-276.58 250.91,-283.42 253.41,-276.88"/>
</g>
<!-- Node8 -->
<g id="node8" class="node">
<title>Node8</title>
<g id="a_node8"><a xlink:href="particle__traits_8hpp.html" target="_top" xlink:title="Implementation of traits for particle types, see the Particle named requirements.">
<polygon fill="none" stroke="black" points="0,-179.5 0,-209.5 108,-209.5 108,-179.5 0,-179.5"/>
<text text-anchor="start" x="8" y="-197.5" font-family="Helvetica,sans-Serif" font-size="10.00">beluga/type_traits</text>
<text text-anchor="middle" x="54" y="-186.5" font-family="Helvetica,sans-Serif" font-size="10.00">/particle_traits.hpp</text>
</a>
</g>
</g>
<!-- Node7&#45;&gt;Node8 -->
<g id="edge7" class="edge">
<title>Node7&#45;&gt;Node8</title>
<path fill="none" stroke="midnightblue" d="M173.02,-246.4C150.51,-236.77 120.5,-223.94 96.24,-213.56"/>
<polygon fill="midnightblue" stroke="midnightblue" points="97.49,-210.29 86.92,-209.58 94.74,-216.73 97.49,-210.29"/>
</g>
<!-- Node18 -->
<g id="node18" class="node">
<title>Node18</title>
<g id="a_node18"><a xlink:href="particles_8hpp.html" target="_top" xlink:title="Implementation of views related to particle ranges.">
<polygon fill="none" stroke="black" points="327.5,-185 327.5,-204 474.5,-204 474.5,-185 327.5,-185"/>
<text text-anchor="middle" x="401" y="-192" font-family="Helvetica,sans-Serif" font-size="10.00">beluga/views/particles.hpp</text>
</a>
</g>
</g>
<!-- Node7&#45;&gt;Node18 -->
<g id="edge22" class="edge">
<title>Node7&#45;&gt;Node18</title>
<path fill="none" stroke="midnightblue" d="M248.31,-246.4C283.44,-234.69 332.81,-218.23 365.8,-207.23"/>
<polygon fill="midnightblue" stroke="midnightblue" points="367.1,-210.49 375.48,-204.01 364.89,-203.85 367.1,-210.49"/>
</g>
<!-- Node20 -->
<g id="node20" class="node">
<title>Node20</title>
<g id="a_node20"><a xlink:title=" ">
<polygon fill="none" stroke="#bfbfbf" points="126.5,-185 126.5,-204 309.5,-204 309.5,-185 126.5,-185"/>
<text text-anchor="middle" x="218" y="-192" font-family="Helvetica,sans-Serif" font-size="10.00">range/v3/numeric/accumulate.hpp</text>
</a>
</g>
</g>
<!-- Node7&#45;&gt;Node20 -->
<g id="edge25" class="edge">
<title>Node7&#45;&gt;Node20</title>
<path fill="none" stroke="midnightblue" d="M208.6,-246.4C210.35,-236.96 212.66,-224.45 214.55,-214.19"/>
<polygon fill="midnightblue" stroke="midnightblue" points="218.02,-214.66 216.39,-204.19 211.14,-213.39 218.02,-214.66"/>
</g>
<!-- Node9 -->
<g id="node9" class="node">
<title>Node9</title>
<g id="a_node9"><a xlink:href="primitives_8hpp.html" target="_top" xlink:title="Implementation of library primitives to abstract member access.">
<polygon fill="none" stroke="black" points="204.5,-123.5 204.5,-142.5 327.5,-142.5 327.5,-123.5 204.5,-123.5"/>
<text text-anchor="middle" x="266" y="-130.5" font-family="Helvetica,sans-Serif" font-size="10.00">beluga/primitives.hpp</text>
</a>
</g>
</g>
<!-- Node8&#45;&gt;Node9 -->
<g id="edge8" class="edge">
<title>Node8&#45;&gt;Node9</title>
<path fill="none" stroke="midnightblue" d="M103.97,-179.47C141.19,-169.03 191.33,-154.96 225.93,-145.25"/>
<polygon fill="midnightblue" stroke="midnightblue" points="227.01,-148.58 235.69,-142.51 225.12,-141.84 227.01,-148.58"/>
</g>
<!-- Node14 -->
<g id="node14" class="node">
<title>Node14</title>
<g id="a_node14"><a xlink:href="tuple__traits_8hpp.html" target="_top" xlink:title="Implementation of traits for tuple&#45;like types.">
<polygon fill="none" stroke="black" points="132.5,-56.5 132.5,-86.5 237.5,-86.5 237.5,-56.5 132.5,-56.5"/>
<text text-anchor="start" x="140.5" y="-74.5" font-family="Helvetica,sans-Serif" font-size="10.00">beluga/type_traits</text>
<text text-anchor="middle" x="185" y="-63.5" font-family="Helvetica,sans-Serif" font-size="10.00">/tuple_traits.hpp</text>
</a>
</g>
</g>
<!-- Node8&#45;&gt;Node14 -->
<g id="edge20" class="edge">
<title>Node8&#45;&gt;Node14</title>
<path fill="none" stroke="midnightblue" d="M44.34,-179.24C35.34,-164 24.99,-139.79 37,-123 56.46,-95.8 91.45,-83.09 122.53,-77.21"/>
<polygon fill="midnightblue" stroke="midnightblue" points="123.18,-80.65 132.46,-75.54 122.01,-73.75 123.18,-80.65"/>
</g>
<!-- Node17 -->
<g id="node17" class="node">
<title>Node17</title>
<g id="a_node17"><a xlink:title=" ">
<polygon fill="none" stroke="#bfbfbf" points="46,-123.5 46,-142.5 186,-142.5 186,-123.5 46,-123.5"/>
<text text-anchor="middle" x="116" y="-130.5" font-family="Helvetica,sans-Serif" font-size="10.00">range/v3/range/traits.hpp</text>
</a>
</g>
</g>
<!-- Node8&#45;&gt;Node17 -->
<g id="edge21" class="edge">
<title>Node8&#45;&gt;Node17</title>
<path fill="none" stroke="midnightblue" d="M68.69,-179.4C77.98,-170.49 90,-158.95 99.6,-149.74"/>
<polygon fill="midnightblue" stroke="midnightblue" points="102.19,-152.11 106.98,-142.66 97.34,-147.06 102.19,-152.11"/>
</g>
<!-- Node9&#45;&gt;Node4 -->
<g id="edge10" class="edge">
<title>Node9&#45;&gt;Node4</title>
<path fill="none" stroke="midnightblue" d="M327.58,-124.5C358.95,-118.34 396.4,-107.18 425,-87 446.23,-72.02 462.06,-45.95 470.92,-28.59"/>
<polygon fill="midnightblue" stroke="midnightblue" points="474.11,-30.04 475.32,-19.52 467.81,-26.99 474.11,-30.04"/>
</g>
<!-- Node10 -->
<g id="node10" class="node">
<title>Node10</title>
<g id="a_node10"><a xlink:title=" ">
<polygon fill="none" stroke="#bfbfbf" points="235.5,-0.5 235.5,-19.5 276.5,-19.5 276.5,-0.5 235.5,-0.5"/>
<text text-anchor="middle" x="256" y="-7.5" font-family="Helvetica,sans-Serif" font-size="10.00">tuple</text>
</a>
</g>
</g>
<!-- Node9&#45;&gt;Node10 -->
<g id="edge9" class="edge">
<title>Node9&#45;&gt;Node10</title>
<path fill="none" stroke="midnightblue" d="M265.28,-123.3C263.67,-103.85 259.76,-56.49 257.56,-29.9"/>
<polygon fill="midnightblue" stroke="midnightblue" points="261.02,-29.3 256.71,-19.62 254.05,-29.88 261.02,-29.3"/>
</g>
<!-- Node11 -->
<g id="node11" class="node">
<title>Node11</title>
<g id="a_node11"><a xlink:href="strongly__typed__numeric_8hpp.html" target="_top" xlink:title="Implementation of a strongly typed numeric helper.">
<polygon fill="none" stroke="black" points="560,-56.5 560,-86.5 718,-86.5 718,-56.5 560,-56.5"/>
<text text-anchor="start" x="568" y="-74.5" font-family="Helvetica,sans-Serif" font-size="10.00">beluga/type_traits</text>
<text text-anchor="middle" x="639" y="-63.5" font-family="Helvetica,sans-Serif" font-size="10.00">/strongly_typed_numeric.hpp</text>
</a>
</g>
</g>
<!-- Node9&#45;&gt;Node11 -->
<g id="edge11" class="edge">
<title>Node9&#45;&gt;Node11</title>
<path fill="none" stroke="midnightblue" d="M319.44,-123.48C379.56,-113.88 478.18,-98.15 549.98,-86.7"/>
<polygon fill="midnightblue" stroke="midnightblue" points="550.61,-90.14 559.93,-85.11 549.5,-83.23 550.61,-90.14"/>
</g>
<!-- Node9&#45;&gt;Node14 -->
<g id="edge15" class="edge">
<title>Node9&#45;&gt;Node14</title>
<path fill="none" stroke="midnightblue" d="M254.39,-123.48C243.42,-115.42 226.55,-103.02 212.19,-92.47"/>
<polygon fill="midnightblue" stroke="midnightblue" points="214.22,-89.62 204.09,-86.52 210.08,-95.26 214.22,-89.62"/>
</g>
<!-- Node16 -->
<g id="node16" class="node">
<title>Node16</title>
<g id="a_node16"><a xlink:href="forward__like_8hpp_source.html" target="_top" xlink:title=" ">
<polygon fill="none" stroke="black" points="294,-56.5 294,-86.5 416,-86.5 416,-56.5 294,-56.5"/>
<text text-anchor="start" x="302" y="-74.5" font-family="Helvetica,sans-Serif" font-size="10.00">beluga/utility/forward</text>
<text text-anchor="middle" x="355" y="-63.5" font-family="Helvetica,sans-Serif" font-size="10.00">_like.hpp</text>
</a>
</g>
</g>
<!-- Node9&#45;&gt;Node16 -->
<g id="edge19" class="edge">
<title>Node9&#45;&gt;Node16</title>
<path fill="none" stroke="midnightblue" d="M278.75,-123.48C290.92,-115.34 309.69,-102.79 325.56,-92.18"/>
<polygon fill="midnightblue" stroke="midnightblue" points="327.66,-94.99 334.02,-86.52 323.77,-89.17 327.66,-94.99"/>
</g>
<!-- Node11&#45;&gt;Node4 -->
<g id="edge14" class="edge">
<title>Node11&#45;&gt;Node4</title>
<path fill="none" stroke="midnightblue" d="M601.08,-56.4C573.88,-46.28 537.6,-32.79 511.67,-23.15"/>
<polygon fill="midnightblue" stroke="midnightblue" points="512.87,-19.86 502.28,-19.66 510.43,-26.42 512.87,-19.86"/>
</g>
<!-- Node12 -->
<g id="node12" class="node">
<title>Node12</title>
<g id="a_node12"><a xlink:title=" ">
<polygon fill="none" stroke="#bfbfbf" points="642.5,-0.5 642.5,-19.5 707.5,-19.5 707.5,-0.5 642.5,-0.5"/>
<text text-anchor="middle" x="675" y="-7.5" font-family="Helvetica,sans-Serif" font-size="10.00">functional</text>
</a>
</g>
</g>
<!-- Node11&#45;&gt;Node12 -->
<g id="edge12" class="edge">
<title>Node11&#45;&gt;Node12</title>
<path fill="none" stroke="midnightblue" d="M647.53,-56.4C652.6,-48.02 659.07,-37.33 664.46,-28.42"/>
<polygon fill="midnightblue" stroke="midnightblue" points="667.58,-30.03 669.76,-19.66 661.59,-26.4 667.58,-30.03"/>
</g>
<!-- Node13 -->
<g id="node13" class="node">
<title>Node13</title>
<g id="a_node13"><a xlink:title=" ">
<polygon fill="none" stroke="#bfbfbf" points="580,-0.5 580,-19.5 624,-19.5 624,-0.5 580,-0.5"/>
<text text-anchor="middle" x="602" y="-7.5" font-family="Helvetica,sans-Serif" font-size="10.00">limits</text>
</a>
</g>
</g>
<!-- Node11&#45;&gt;Node13 -->
<g id="edge13" class="edge">
<title>Node11&#45;&gt;Node13</title>
<path fill="none" stroke="midnightblue" d="M630.23,-56.4C625.02,-48.02 618.37,-37.33 612.83,-28.42"/>
<polygon fill="midnightblue" stroke="midnightblue" points="615.64,-26.3 607.38,-19.66 609.69,-30 615.64,-26.3"/>
</g>
<!-- Node14&#45;&gt;Node4 -->
<g id="edge17" class="edge">
<title>Node14&#45;&gt;Node4</title>
<path fill="none" stroke="midnightblue" d="M237.56,-59.86C293.61,-48.52 381.44,-30.74 434.29,-20.05"/>
<polygon fill="midnightblue" stroke="midnightblue" points="435.26,-23.42 444.37,-18.01 433.87,-16.56 435.26,-23.42"/>
</g>
<!-- Node14&#45;&gt;Node10 -->
<g id="edge16" class="edge">
<title>Node14&#45;&gt;Node10</title>
<path fill="none" stroke="midnightblue" d="M201.83,-56.4C212.67,-47.31 226.78,-35.49 237.87,-26.19"/>
<polygon fill="midnightblue" stroke="midnightblue" points="240.25,-28.76 245.67,-19.66 235.76,-23.4 240.25,-28.76"/>
</g>
<!-- Node15 -->
<g id="node15" class="node">
<title>Node15</title>
<g id="a_node15"><a xlink:title=" ">
<polygon fill="none" stroke="#bfbfbf" points="162.5,-0.5 162.5,-19.5 207.5,-19.5 207.5,-0.5 162.5,-0.5"/>
<text text-anchor="middle" x="185" y="-7.5" font-family="Helvetica,sans-Serif" font-size="10.00">utility</text>
</a>
</g>
</g>
<!-- Node14&#45;&gt;Node15 -->
<g id="edge18" class="edge">
<title>Node14&#45;&gt;Node15</title>
<path fill="none" stroke="midnightblue" d="M185,-56.4C185,-48.47 185,-38.46 185,-29.86"/>
<polygon fill="midnightblue" stroke="midnightblue" points="188.5,-29.66 185,-19.66 181.5,-29.66 188.5,-29.66"/>
</g>
<!-- Node18&#45;&gt;Node9 -->
<g id="edge23" class="edge">
<title>Node18&#45;&gt;Node9</title>
<path fill="none" stroke="midnightblue" d="M381.66,-184.98C358.9,-174.95 320.91,-158.2 294.71,-146.65"/>
<polygon fill="midnightblue" stroke="midnightblue" points="295.87,-143.34 285.31,-142.51 293.05,-149.74 295.87,-143.34"/>
</g>
<!-- Node19 -->
<g id="node19" class="node">
<title>Node19</title>
<g id="a_node19"><a xlink:title=" ">
<polygon fill="none" stroke="#bfbfbf" points="346,-123.5 346,-142.5 504,-142.5 504,-123.5 346,-123.5"/>
<text text-anchor="middle" x="425" y="-130.5" font-family="Helvetica,sans-Serif" font-size="10.00">range/v3/view/transform.hpp</text>
</a>
</g>
</g>
<!-- Node18&#45;&gt;Node19 -->
<g id="edge24" class="edge">
<title>Node18&#45;&gt;Node19</title>
<path fill="none" stroke="midnightblue" d="M404.44,-184.98C407.9,-176.4 413.33,-162.93 417.75,-151.98"/>
<polygon fill="midnightblue" stroke="midnightblue" points="421.07,-153.09 421.57,-142.51 414.58,-150.47 421.07,-153.09"/>
</g>
<!-- Node21&#45;&gt;Node3 -->
<g id="edge29" class="edge">
<title>Node21&#45;&gt;Node3</title>
<path fill="none" stroke="midnightblue" d="M660.67,-313.4C634.53,-301.99 598.05,-286.08 572.88,-275.1"/>
<polygon fill="midnightblue" stroke="midnightblue" points="574.07,-271.8 563.5,-271.01 571.27,-278.21 574.07,-271.8"/>
</g>
<!-- Node22 -->
<g id="node22" class="node">
<title>Node22</title>
<g id="a_node22"><a xlink:title=" ">
<polygon fill="none" stroke="#bfbfbf" points="633.5,-246.5 633.5,-276.5 746.5,-276.5 746.5,-246.5 633.5,-246.5"/>
<text text-anchor="start" x="641.5" y="-264.5" font-family="Helvetica,sans-Serif" font-size="10.00">Eigen/src/Geometry</text>
<text text-anchor="middle" x="690" y="-253.5" font-family="Helvetica,sans-Serif" font-size="10.00">/AngleAxis.h</text>
</a>
</g>
</g>
<!-- Node21&#45;&gt;Node22 -->
<g id="edge28" class="edge">
<title>Node21&#45;&gt;Node22</title>
<path fill="none" stroke="midnightblue" d="M692.35,-313.4C691.99,-305.64 691.54,-295.81 691.12,-286.86"/>
<polygon fill="midnightblue" stroke="midnightblue" points="694.61,-286.4 690.65,-276.58 687.61,-286.73 694.61,-286.4"/>
</g>
<!-- Node23 -->
<g id="node23" class="node">
<title>Node23</title>
<g id="a_node23"><a xlink:title=" ">
<polygon fill="none" stroke="#bfbfbf" points="765,-252 765,-271 857,-271 857,-252 765,-252"/>
<text text-anchor="middle" x="811" y="-259" font-family="Helvetica,sans-Serif" font-size="10.00">sophus/se2.hpp</text>
</a>
</g>
</g>
<!-- Node21&#45;&gt;Node23 -->
<g id="edge30" class="edge">
<title>Node21&#45;&gt;Node23</title>
<path fill="none" stroke="midnightblue" d="M718.6,-313.4C738.85,-302.24 766.92,-286.78 786.79,-275.83"/>
<polygon fill="midnightblue" stroke="midnightblue" points="788.49,-278.9 795.56,-271.01 785.11,-272.77 788.49,-278.9"/>
</g>
<!-- Node24 -->
<g id="node24" class="node">
<title>Node24</title>
<g id="a_node24"><a xlink:title=" ">
<polygon fill="none" stroke="#bfbfbf" points="875,-252 875,-271 967,-271 967,-252 875,-252"/>
<text text-anchor="middle" x="921" y="-259" font-family="Helvetica,sans-Serif" font-size="10.00">sophus/se3.hpp</text>
</a>
</g>
</g>
<!-- Node21&#45;&gt;Node24 -->
<g id="edge31" class="edge">
<title>Node21&#45;&gt;Node24</title>
<path fill="none" stroke="midnightblue" d="M742.19,-313.48C783.77,-301.62 842.57,-284.86 881.23,-273.84"/>
<polygon fill="midnightblue" stroke="midnightblue" points="882.43,-277.14 891.08,-271.03 880.51,-270.4 882.43,-277.14"/>
</g>
</g>
</svg>
        <g id="navigator" transform="translate(0 0)" fill="#404254">
                <rect fill="#f2f5e9" fill-opacity="0.5" stroke="#606060" stroke-width=".5" x="0" y="0" width="60" height="60"/>
                <use id="zoomplus" xlink:href="#zoomPlus" x="17" y="9" onmousedown="handleZoom(evt,'in')"/>
                <use id="zoomminus" xlink:href="#zoomMin" x="42" y="9" onmousedown="handleZoom(evt,'out')"/>
                <use id="reset" xlink:href="#resetDef" x="30" y="36" onmousedown="handleReset()"/>
                <g id="arrowUp" xlink:href="#dirArrow" transform="translate(30 24)" onmousedown="handlePan(0,-1)">
                  <use xlink:href="#rim" fill="#404040">
                        <set attributeName="fill" to="#808080" begin="arrowUp.mouseover" end="arrowUp.mouseout"/>
                  </use>
                  <path fill="none" stroke="white" stroke-width="1.5" d="M0,-3.0v7 M-2.5,-0.5L0,-3.0L2.5,-0.5"/>
                </g>
                <g id="arrowRight" xlink:href="#dirArrow" transform="rotate(90) translate(36 -43)" onmousedown="handlePan(1,0)">
                  <use xlink:href="#rim" fill="#404040">
                        <set attributeName="fill" to="#808080" begin="arrowRight.mouseover" end="arrowRight.mouseout"/>
                  </use>
                  <path fill="none" stroke="white" stroke-width="1.5" d="M0,-3.0v7 M-2.5,-0.5L0,-3.0L2.5,-0.5"/>
                </g>
                <g id="arrowDown" xlink:href="#dirArrow" transform="rotate(180) translate(-30 -48)" onmousedown="handlePan(0,1)">
                  <use xlink:href="#rim" fill="#404040">
                        <set attributeName="fill" to="#808080" begin="arrowDown.mouseover" end="arrowDown.mouseout"/>
                  </use>
                  <path fill="none" stroke="white" stroke-width="1.5" d="M0,-3.0v7 M-2.5,-0.5L0,-3.0L2.5,-0.5"/>
                </g>
                <g id="arrowLeft" xlink:href="#dirArrow" transform="rotate(270) translate(-36 17)" onmousedown="handlePan(-1,0)">
                  <use xlink:href="#rim" fill="#404040">
                        <set attributeName="fill" to="#808080" begin="arrowLeft.mouseover" end="arrowLeft.mouseout"/>
                  </use>
                  <path fill="none" stroke="white" stroke-width="1.5" d="M0,-3.0v7 M-2.5,-0.5L0,-3.0L2.5,-0.5"/>
                </g>
        </g>
        <svg viewBox="0 0 15 15" width="100%" height="30px" preserveAspectRatio="xMaxYMin meet">
         <g id="arrow_out" transform="scale(0.3 0.3)">
          <a xlink:href="policies_8hpp__incl_org.svg" target="_base">
           <rect id="button" ry="5" rx="5" y="6" x="6" height="38" width="38"
                fill="#f2f5e9" fill-opacity="0.5" stroke="#606060" stroke-width="1.0"/>
           <path id="arrow"
             d="M 11.500037,31.436501 C 11.940474,20.09759 22.043105,11.32322 32.158766,21.979434 L 37.068811,17.246167 C 37.068811,17.246167 37.088388,32 37.088388,32 L 22.160133,31.978069 C 22.160133,31.978069 26.997745,27.140456 26.997745,27.140456 C 18.528582,18.264221 13.291696,25.230495 11.500037,31.436501 z"
             style="fill:#404040;"/>
          </a>
         </g>
        </svg>
</svg>
