<?xml version="1.0" encoding="UTF-8" standalone="no"?>
<!DOCTYPE svg PUBLIC "-//W3C//DTD SVG 1.1//EN"
 "http://www.w3.org/Graphics/SVG/1.1/DTD/svg11.dtd">
<!-- Generated by graphviz version 2.43.0 (0)
 -->
<!-- Title: /home/runner/work/beluga/beluga/beluga/include/beluga/primitives.hpp Pages: 1 -->
<svg width="507pt" height="173pt"
 viewBox="0.00 0.00 506.50 173.00" xmlns="http://www.w3.org/2000/svg" xmlns:xlink="http://www.w3.org/1999/xlink">
<g id="graph0" class="graph" transform="scale(1 1) rotate(0) translate(4 169)">
<title>/home/runner/work/beluga/beluga/beluga/include/beluga/primitives.hpp</title>
<!-- Node1 -->
<g id="node1" class="node">
<title>Node1</title>
<g id="a_node1"><a xlink:title="Implementation of library primitives to abstract member access.">
<polygon fill="#bfbfbf" stroke="black" points="100,-123.5 100,-164.5 245,-164.5 245,-123.5 100,-123.5"/>
<text text-anchor="start" x="108" y="-152.5" font-family="Helvetica,sans-Serif" font-size="10.00">/home/runner/work/beluga</text>
<text text-anchor="start" x="108" y="-141.5" font-family="Helvetica,sans-Serif" font-size="10.00">/beluga/beluga/include</text>
<text text-anchor="middle" x="172.5" y="-130.5" font-family="Helvetica,sans-Serif" font-size="10.00">/beluga/primitives.hpp</text>
</a>
</g>
</g>
<!-- Node2 -->
<g id="node2" class="node">
<title>Node2</title>
<g id="a_node2"><a xlink:title=" ">
<polygon fill="none" stroke="#bfbfbf" points="0,-0.5 0,-19.5 41,-19.5 41,-0.5 0,-0.5"/>
<text text-anchor="middle" x="20.5" y="-7.5" font-family="Helvetica,sans-Serif" font-size="10.00">tuple</text>
</a>
</g>
</g>
<!-- Node1&#45;&gt;Node2 -->
<g id="edge1" class="edge">
<title>Node1&#45;&gt;Node2</title>
<path fill="none" stroke="midnightblue" d="M99.8,-130.66C73.75,-122.56 46.61,-109.16 29.5,-87 16.96,-70.77 16.27,-46.48 17.7,-29.75"/>
<polygon fill="midnightblue" stroke="midnightblue" points="21.21,-29.91 18.91,-19.57 14.26,-29.08 21.21,-29.91"/>
</g>
<!-- Node3 -->
<g id="node3" class="node">
<title>Node3</title>
<g id="a_node3"><a xlink:title=" ">
<polygon fill="none" stroke="#bfbfbf" points="138,-0.5 138,-19.5 207,-19.5 207,-0.5 138,-0.5"/>
<text text-anchor="middle" x="172.5" y="-7.5" font-family="Helvetica,sans-Serif" font-size="10.00">type_traits</text>
</a>
</g>
</g>
<!-- Node1&#45;&gt;Node3 -->
<g id="edge2" class="edge">
<title>Node1&#45;&gt;Node3</title>
<path fill="none" stroke="midnightblue" d="M172.5,-123.24C172.5,-98.03 172.5,-54.74 172.5,-29.93"/>
<polygon fill="midnightblue" stroke="midnightblue" points="176,-29.69 172.5,-19.69 169,-29.69 176,-29.69"/>
</g>
<!-- Node4 -->
<g id="node4" class="node">
<title>Node4</title>
<g id="a_node4"><a xlink:href="strongly__typed__numeric_8hpp.html" target="_top" xlink:title="Implementation of a strongly typed numeric helper.">
<polygon fill="none" stroke="black" points="200.5,-56.5 200.5,-86.5 358.5,-86.5 358.5,-56.5 200.5,-56.5"/>
<text text-anchor="start" x="208.5" y="-74.5" font-family="Helvetica,sans-Serif" font-size="10.00">beluga/type_traits</text>
<text text-anchor="middle" x="279.5" y="-63.5" font-family="Helvetica,sans-Serif" font-size="10.00">/strongly_typed_numeric.hpp</text>
</a>
</g>
</g>
<!-- Node1&#45;&gt;Node4 -->
<g id="edge3" class="edge">
<title>Node1&#45;&gt;Node4</title>
<path fill="none" stroke="midnightblue" d="M202.31,-123.36C216.95,-113.71 234.57,-102.11 249.27,-92.42"/>
<polygon fill="midnightblue" stroke="midnightblue" points="251.57,-95.09 257.99,-86.67 247.72,-89.25 251.57,-95.09"/>
</g>
<!-- Node7 -->
<g id="node7" class="node">
<title>Node7</title>
<g id="a_node7"><a xlink:href="tuple__traits_8hpp.html" target="_top" xlink:title="Implementation of traits for tuple&#45;like types.">
<polygon fill="none" stroke="black" points="39,-56.5 39,-86.5 144,-86.5 144,-56.5 39,-56.5"/>
<text text-anchor="start" x="47" y="-74.5" font-family="Helvetica,sans-Serif" font-size="10.00">beluga/type_traits</text>
<text text-anchor="middle" x="91.5" y="-63.5" font-family="Helvetica,sans-Serif" font-size="10.00">/tuple_traits.hpp</text>
</a>
</g>
</g>
<!-- Node1&#45;&gt;Node7 -->
<g id="edge7" class="edge">
<title>Node1&#45;&gt;Node7</title>
<path fill="none" stroke="midnightblue" d="M149.94,-123.36C139.16,-113.99 126.27,-102.76 115.34,-93.25"/>
<polygon fill="midnightblue" stroke="midnightblue" points="117.62,-90.6 107.78,-86.67 113.03,-95.88 117.62,-90.6"/>
</g>
<!-- Node9 -->
<g id="node9" class="node">
<title>Node9</title>
<g id="a_node9"><a xlink:href="forward__like_8hpp_source.html" target="_top" xlink:title=" ">
<polygon fill="none" stroke="black" points="376.5,-56.5 376.5,-86.5 498.5,-86.5 498.5,-56.5 376.5,-56.5"/>
<text text-anchor="start" x="384.5" y="-74.5" font-family="Helvetica,sans-Serif" font-size="10.00">beluga/utility/forward</text>
<text text-anchor="middle" x="437.5" y="-63.5" font-family="Helvetica,sans-Serif" font-size="10.00">_like.hpp</text>
</a>
</g>
</g>
<!-- Node1&#45;&gt;Node9 -->
<g id="edge11" class="edge">
<title>Node1&#45;&gt;Node9</title>
<path fill="none" stroke="midnightblue" d="M245.26,-123.64C285.77,-112.87 335.7,-99.58 374.52,-89.25"/>
<polygon fill="midnightblue" stroke="midnightblue" points="375.89,-92.51 384.65,-86.56 374.09,-85.75 375.89,-92.51"/>
</g>
<!-- Node4&#45;&gt;Node3 -->
<g id="edge6" class="edge">
<title>Node4&#45;&gt;Node3</title>
<path fill="none" stroke="midnightblue" d="M254.14,-56.4C236.83,-46.77 214.02,-34.09 196.92,-24.58"/>
<polygon fill="midnightblue" stroke="midnightblue" points="198.51,-21.46 188.07,-19.66 195.11,-27.58 198.51,-21.46"/>
</g>
<!-- Node5 -->
<g id="node5" class="node">
<title>Node5</title>
<g id="a_node5"><a xlink:title=" ">
<polygon fill="none" stroke="#bfbfbf" points="304,-0.5 304,-19.5 369,-19.5 369,-0.5 304,-0.5"/>
<text text-anchor="middle" x="336.5" y="-7.5" font-family="Helvetica,sans-Serif" font-size="10.00">functional</text>
</a>
</g>
</g>
<!-- Node4&#45;&gt;Node5 -->
<g id="edge4" class="edge">
<title>Node4&#45;&gt;Node5</title>
<path fill="none" stroke="midnightblue" d="M293.01,-56.4C301.46,-47.58 312.38,-36.18 321.16,-27.02"/>
<polygon fill="midnightblue" stroke="midnightblue" points="323.82,-29.3 328.21,-19.66 318.76,-24.46 323.82,-29.3"/>
</g>
<!-- Node6 -->
<g id="node6" class="node">
<title>Node6</title>
<g id="a_node6"><a xlink:title=" ">
<polygon fill="none" stroke="#bfbfbf" points="241.5,-0.5 241.5,-19.5 285.5,-19.5 285.5,-0.5 241.5,-0.5"/>
<text text-anchor="middle" x="263.5" y="-7.5" font-family="Helvetica,sans-Serif" font-size="10.00">limits</text>
</a>
</g>
</g>
<!-- Node4&#45;&gt;Node6 -->
<g id="edge5" class="edge">
<title>Node4&#45;&gt;Node6</title>
<path fill="none" stroke="midnightblue" d="M275.71,-56.4C273.55,-48.38 270.82,-38.23 268.49,-29.57"/>
<polygon fill="midnightblue" stroke="midnightblue" points="271.8,-28.41 265.83,-19.66 265.05,-30.22 271.8,-28.41"/>
</g>
<!-- Node7&#45;&gt;Node2 -->
<g id="edge8" class="edge">
<title>Node7&#45;&gt;Node2</title>
<path fill="none" stroke="midnightblue" d="M74.67,-56.4C63.83,-47.31 49.72,-35.49 38.63,-26.19"/>
<polygon fill="midnightblue" stroke="midnightblue" points="40.74,-23.4 30.83,-19.66 36.25,-28.76 40.74,-23.4"/>
</g>
<!-- Node7&#45;&gt;Node3 -->
<g id="edge9" class="edge">
<title>Node7&#45;&gt;Node3</title>
<path fill="none" stroke="midnightblue" d="M110.7,-56.4C123.32,-47.13 139.79,-35.03 152.56,-25.65"/>
<polygon fill="midnightblue" stroke="midnightblue" points="154.73,-28.4 160.71,-19.66 150.58,-22.76 154.73,-28.4"/>
</g>
<!-- Node8 -->
<g id="node8" class="node">
<title>Node8</title>
<g id="a_node8"><a xlink:title=" ">
<polygon fill="none" stroke="#bfbfbf" points="69,-0.5 69,-19.5 114,-19.5 114,-0.5 69,-0.5"/>
<text text-anchor="middle" x="91.5" y="-7.5" font-family="Helvetica,sans-Serif" font-size="10.00">utility</text>
</a>
</g>
</g>
<!-- Node7&#45;&gt;Node8 -->
<g id="edge10" class="edge">
<title>Node7&#45;&gt;Node8</title>
<path fill="none" stroke="midnightblue" d="M91.5,-56.4C91.5,-48.47 91.5,-38.46 91.5,-29.86"/>
<polygon fill="midnightblue" stroke="midnightblue" points="95,-29.66 91.5,-19.66 88,-29.66 95,-29.66"/>
</g>
</g>
</svg>
