<?xml version="1.0" encoding="UTF-8" standalone="no"?>
<!DOCTYPE svg PUBLIC "-//W3C//DTD SVG 1.1//EN"
 "http://www.w3.org/Graphics/SVG/1.1/DTD/svg11.dtd">
<!-- Generated by graphviz version 2.43.0 (0)
 -->
<!-- Title: /home/runner/work/beluga/beluga/beluga/include/beluga/actions/propagate.hpp Pages: 1 -->
<!--zoomable 296 -->
<svg id="main" version="1.1" xmlns="http://www.w3.org/2000/svg" xmlns:xlink="http://www.w3.org/1999/xlink" xml:space="preserve" onload="init(evt)">
<style type="text/css"><![CDATA[
.edge:hover path { stroke: red; }
.edge:hover polygon { stroke: red; fill: red; }
]]></style>
<script type="text/javascript"><![CDATA[
var edges = document.getElementsByTagName('g');
if (edges && edges.length) {
  for (var i=0;i<edges.length;i++) {
    if (edges[i].id.substr(0,4)=='edge') {
      edges[i].setAttribute('class','edge');
    }
  }
}
]]></script>
        <defs>
                <circle id="rim" cx="0" cy="0" r="7"/>
                <circle id="rim2" cx="0" cy="0" r="3.5"/>
                <g id="zoomPlus">
                        <use xlink:href="#rim" fill="#404040">
                                <set attributeName="fill" to="#808080" begin="zoomplus.mouseover" end="zoomplus.mouseout"/>
                        </use>
                        <path d="M-4,0h8M0,-4v8" fill="none" stroke="white" stroke-width="1.5" pointer-events="none"/>
                </g>
                <g id="zoomMin">
                        <use xlink:href="#rim" fill="#404040">
                                <set attributeName="fill" to="#808080" begin="zoomminus.mouseover" end="zoomminus.mouseout"/>
                        </use>
                        <path d="M-4,0h8" fill="none" stroke="white" stroke-width="1.5" pointer-events="none"/>
                </g>
                <g id="dirArrow">
                        <path fill="none" stroke="white" stroke-width="1.5" d="M0,-3.0v7 M-2.5,-0.5L0,-3.0L2.5,-0.5"/>
                </g>
               <g id="resetDef">
                       <use xlink:href="#rim2" fill="#404040">
                               <set attributeName="fill" to="#808080" begin="reset.mouseover" end="reset.mouseout"/>
                       </use>
               </g>
        </defs>

<script type="text/javascript">
var viewWidth = 1021;
var viewHeight = 296;
var sectionId = 'dynsection-0';
</script>
<script xlink:href="svgpan.js"/>
<svg id="graph" class="graph">
<g id="viewport">
<title>/home/runner/work/beluga/beluga/beluga/include/beluga/actions/propagate.hpp</title>
<!-- Node1 -->
<g id="node1" class="node">
<title>Node1</title>
<g id="a_node1"><a xlink:title="Implementation of the propagate range adaptor object.">
<polygon fill="#bfbfbf" stroke="black" points="365.43,-246.5 365.43,-287.5 529.43,-287.5 529.43,-246.5 365.43,-246.5"/>
<text text-anchor="start" x="373.43" y="-275.5" font-family="Helvetica,sans-Serif" font-size="10.00">/home/runner/work/beluga</text>
<text text-anchor="start" x="373.43" y="-264.5" font-family="Helvetica,sans-Serif" font-size="10.00">/beluga/beluga/include</text>
<text text-anchor="middle" x="447.43" y="-253.5" font-family="Helvetica,sans-Serif" font-size="10.00">/beluga/actions/propagate.hpp</text>
</a>
</g>
</g>
<!-- Node2 -->
<g id="node2" class="node">
<title>Node2</title>
<g id="a_node2"><a xlink:title=" ">
<polygon fill="none" stroke="#bfbfbf" points="25.43,-185 25.43,-204 89.43,-204 89.43,-185 25.43,-185"/>
<text text-anchor="middle" x="57.43" y="-192" font-family="Helvetica,sans-Serif" font-size="10.00">algorithm</text>
</a>
</g>
</g>
<!-- Node1&#45;&gt;Node2 -->
<g id="edge1" class="edge">
<title>Node1&#45;&gt;Node2</title>
<path fill="none" stroke="midnightblue" d="M365.13,-257.06C293.86,-248.3 188.37,-232.92 98.43,-210 95.39,-209.22 92.24,-208.32 89.12,-207.34"/>
<polygon fill="midnightblue" stroke="midnightblue" points="89.93,-203.92 79.34,-204.07 87.71,-210.56 89.93,-203.92"/>
</g>
<!-- Node3 -->
<g id="node3" class="node">
<title>Node3</title>
<g id="a_node3"><a xlink:title=" ">
<polygon fill="none" stroke="#bfbfbf" points="107.43,-185 107.43,-204 171.43,-204 171.43,-185 107.43,-185"/>
<text text-anchor="middle" x="139.43" y="-192" font-family="Helvetica,sans-Serif" font-size="10.00">execution</text>
</a>
</g>
</g>
<!-- Node1&#45;&gt;Node3 -->
<g id="edge2" class="edge">
<title>Node1&#45;&gt;Node3</title>
<path fill="none" stroke="midnightblue" d="M365.25,-251.7C312.1,-241.73 241.66,-227.16 180.43,-210 177.48,-209.17 174.42,-208.24 171.38,-207.26"/>
<polygon fill="midnightblue" stroke="midnightblue" points="172.41,-203.91 161.82,-204.02 170.17,-210.54 172.41,-203.91"/>
</g>
<!-- Node4 -->
<g id="node4" class="node">
<title>Node4</title>
<g id="a_node4"><a xlink:title=" ">
<polygon fill="none" stroke="#bfbfbf" points="406.93,-0.5 406.93,-19.5 475.93,-19.5 475.93,-0.5 406.93,-0.5"/>
<text text-anchor="middle" x="441.43" y="-7.5" font-family="Helvetica,sans-Serif" font-size="10.00">type_traits</text>
</a>
</g>
</g>
<!-- Node1&#45;&gt;Node4 -->
<g id="edge3" class="edge">
<title>Node1&#45;&gt;Node4</title>
<path fill="none" stroke="midnightblue" d="M461,-246.45C467.45,-236.1 474.59,-222.88 478.43,-210 489.51,-172.89 490.34,-161.11 483.43,-123 477.16,-88.41 460.82,-50.59 450.46,-28.94"/>
<polygon fill="midnightblue" stroke="midnightblue" points="453.48,-27.13 445.93,-19.69 447.19,-30.21 453.48,-27.13"/>
</g>
<!-- Node5 -->
<g id="node5" class="node">
<title>Node5</title>
<g id="a_node5"><a xlink:href="particle__traits_8hpp.html" target="_top" xlink:title="Implementation of traits for particle types, see the Particle named requirements.">
<polygon fill="none" stroke="black" points="189.43,-179.5 189.43,-209.5 297.43,-209.5 297.43,-179.5 189.43,-179.5"/>
<text text-anchor="start" x="197.43" y="-197.5" font-family="Helvetica,sans-Serif" font-size="10.00">beluga/type_traits</text>
<text text-anchor="middle" x="243.43" y="-186.5" font-family="Helvetica,sans-Serif" font-size="10.00">/particle_traits.hpp</text>
</a>
</g>
</g>
<!-- Node1&#45;&gt;Node5 -->
<g id="edge4" class="edge">
<title>Node1&#45;&gt;Node5</title>
<path fill="none" stroke="midnightblue" d="M390.88,-246.46C360.47,-235.95 323.3,-223.1 293.88,-212.93"/>
<polygon fill="midnightblue" stroke="midnightblue" points="294.82,-209.56 284.22,-209.6 292.53,-216.17 294.82,-209.56"/>
</g>
<!-- Node15 -->
<g id="node15" class="node">
<title>Node15</title>
<g id="a_node15"><a xlink:href="particles_8hpp.html" target="_top" xlink:title="Implementation of views related to particle ranges.">
<polygon fill="none" stroke="black" points="321.93,-185 321.93,-204 468.93,-204 468.93,-185 321.93,-185"/>
<text text-anchor="middle" x="395.43" y="-192" font-family="Helvetica,sans-Serif" font-size="10.00">beluga/views/particles.hpp</text>
</a>
</g>
</g>
<!-- Node1&#45;&gt;Node15 -->
<g id="edge19" class="edge">
<title>Node1&#45;&gt;Node15</title>
<path fill="none" stroke="midnightblue" d="M432.95,-246.36C425.05,-235.65 415.36,-222.52 407.82,-212.29"/>
<polygon fill="midnightblue" stroke="midnightblue" points="410.58,-210.14 401.83,-204.17 404.95,-214.3 410.58,-210.14"/>
</g>
<!-- Node17 -->
<g id="node17" class="node">
<title>Node17</title>
<g id="a_node17"><a xlink:title=" ">
<polygon fill="none" stroke="#bfbfbf" points="527.43,-185 527.43,-204 673.43,-204 673.43,-185 527.43,-185"/>
<text text-anchor="middle" x="600.43" y="-192" font-family="Helvetica,sans-Serif" font-size="10.00">range/v3/action/action.hpp</text>
</a>
</g>
</g>
<!-- Node1&#45;&gt;Node17 -->
<g id="edge22" class="edge">
<title>Node1&#45;&gt;Node17</title>
<path fill="none" stroke="midnightblue" d="M490.05,-246.36C516.36,-234.24 549.36,-219.03 572.4,-208.42"/>
<polygon fill="midnightblue" stroke="midnightblue" points="573.99,-211.54 581.61,-204.17 571.06,-205.18 573.99,-211.54"/>
</g>
<!-- Node18 -->
<g id="node18" class="node">
<title>Node18</title>
<g id="a_node18"><a xlink:title=" ">
<polygon fill="none" stroke="#bfbfbf" points="691.43,-185 691.43,-204 843.43,-204 843.43,-185 691.43,-185"/>
<text text-anchor="middle" x="767.43" y="-192" font-family="Helvetica,sans-Serif" font-size="10.00">range/v3/utility/random.hpp</text>
</a>
</g>
</g>
<!-- Node1&#45;&gt;Node18 -->
<g id="edge23" class="edge">
<title>Node1&#45;&gt;Node18</title>
<path fill="none" stroke="midnightblue" d="M529.84,-247.84C589.61,-234.68 668.44,-217.31 718.55,-206.27"/>
<polygon fill="midnightblue" stroke="midnightblue" points="719.47,-209.65 728.48,-204.08 717.96,-202.81 719.47,-209.65"/>
</g>
<!-- Node19 -->
<g id="node19" class="node">
<title>Node19</title>
<g id="a_node19"><a xlink:title=" ">
<polygon fill="none" stroke="#bfbfbf" points="861.43,-185 861.43,-204 1013.43,-204 1013.43,-185 861.43,-185"/>
<text text-anchor="middle" x="937.43" y="-192" font-family="Helvetica,sans-Serif" font-size="10.00">range/v3/view/common.hpp</text>
</a>
</g>
</g>
<!-- Node1&#45;&gt;Node19 -->
<g id="edge24" class="edge">
<title>Node1&#45;&gt;Node19</title>
<path fill="none" stroke="midnightblue" d="M529.77,-255.39C611.68,-244.65 740.89,-227.22 852.43,-210 861.03,-208.67 870.11,-207.2 879,-205.72"/>
<polygon fill="midnightblue" stroke="midnightblue" points="879.65,-209.16 888.93,-204.05 878.49,-202.25 879.65,-209.16"/>
</g>
<!-- Node6 -->
<g id="node6" class="node">
<title>Node6</title>
<g id="a_node6"><a xlink:href="primitives_8hpp.html" target="_top" xlink:title="Implementation of library primitives to abstract member access.">
<polygon fill="none" stroke="black" points="174.93,-123.5 174.93,-142.5 297.93,-142.5 297.93,-123.5 174.93,-123.5"/>
<text text-anchor="middle" x="236.43" y="-130.5" font-family="Helvetica,sans-Serif" font-size="10.00">beluga/primitives.hpp</text>
</a>
</g>
</g>
<!-- Node5&#45;&gt;Node6 -->
<g id="edge5" class="edge">
<title>Node5&#45;&gt;Node6</title>
<path fill="none" stroke="midnightblue" d="M241.77,-179.4C240.84,-171.47 239.66,-161.46 238.65,-152.86"/>
<polygon fill="midnightblue" stroke="midnightblue" points="242.1,-152.18 237.45,-142.66 235.14,-153 242.1,-152.18"/>
</g>
<!-- Node11 -->
<g id="node11" class="node">
<title>Node11</title>
<g id="a_node11"><a xlink:href="tuple__traits_8hpp.html" target="_top" xlink:title="Implementation of traits for tuple&#45;like types.">
<polygon fill="none" stroke="black" points="102.93,-56.5 102.93,-86.5 207.93,-86.5 207.93,-56.5 102.93,-56.5"/>
<text text-anchor="start" x="110.93" y="-74.5" font-family="Helvetica,sans-Serif" font-size="10.00">beluga/type_traits</text>
<text text-anchor="middle" x="155.43" y="-63.5" font-family="Helvetica,sans-Serif" font-size="10.00">/tuple_traits.hpp</text>
</a>
</g>
</g>
<!-- Node5&#45;&gt;Node11 -->
<g id="edge17" class="edge">
<title>Node5&#45;&gt;Node11</title>
<path fill="none" stroke="midnightblue" d="M189.15,-180.93C186.2,-180.27 183.28,-179.62 180.43,-179 103.72,-162.19 56.99,-203.93 7.43,-143 -20.66,-108.46 40.83,-89.81 92.92,-80.53"/>
<polygon fill="midnightblue" stroke="midnightblue" points="93.57,-83.97 102.85,-78.85 92.41,-77.06 93.57,-83.97"/>
</g>
<!-- Node14 -->
<g id="node14" class="node">
<title>Node14</title>
<g id="a_node14"><a xlink:title=" ">
<polygon fill="none" stroke="#bfbfbf" points="16.43,-123.5 16.43,-142.5 156.43,-142.5 156.43,-123.5 16.43,-123.5"/>
<text text-anchor="middle" x="86.43" y="-130.5" font-family="Helvetica,sans-Serif" font-size="10.00">range/v3/range/traits.hpp</text>
</a>
</g>
</g>
<!-- Node5&#45;&gt;Node14 -->
<g id="edge18" class="edge">
<title>Node5&#45;&gt;Node14</title>
<path fill="none" stroke="midnightblue" d="M206.23,-179.4C179.65,-169.33 144.24,-155.91 118.83,-146.28"/>
<polygon fill="midnightblue" stroke="midnightblue" points="119.87,-142.93 109.28,-142.66 117.39,-149.47 119.87,-142.93"/>
</g>
<!-- Node6&#45;&gt;Node4 -->
<g id="edge7" class="edge">
<title>Node6&#45;&gt;Node4</title>
<path fill="none" stroke="midnightblue" d="M279.8,-123.47C320.35,-114.83 377.29,-100.82 395.43,-87 414.94,-72.14 427.96,-46.42 435.03,-29.06"/>
<polygon fill="midnightblue" stroke="midnightblue" points="438.38,-30.1 438.66,-19.51 431.83,-27.61 438.38,-30.1"/>
</g>
<!-- Node7 -->
<g id="node7" class="node">
<title>Node7</title>
<g id="a_node7"><a xlink:title=" ">
<polygon fill="none" stroke="#bfbfbf" points="205.93,-0.5 205.93,-19.5 246.93,-19.5 246.93,-0.5 205.93,-0.5"/>
<text text-anchor="middle" x="226.43" y="-7.5" font-family="Helvetica,sans-Serif" font-size="10.00">tuple</text>
</a>
</g>
</g>
<!-- Node6&#45;&gt;Node7 -->
<g id="edge6" class="edge">
<title>Node6&#45;&gt;Node7</title>
<path fill="none" stroke="midnightblue" d="M235.71,-123.3C234.11,-103.85 230.19,-56.49 228,-29.9"/>
<polygon fill="midnightblue" stroke="midnightblue" points="231.46,-29.3 227.15,-19.62 224.48,-29.88 231.46,-29.3"/>
</g>
<!-- Node8 -->
<g id="node8" class="node">
<title>Node8</title>
<g id="a_node8"><a xlink:href="strongly__typed__numeric_8hpp.html" target="_top" xlink:title="Implementation of a strongly typed numeric helper.">
<polygon fill="none" stroke="black" points="530.43,-56.5 530.43,-86.5 688.43,-86.5 688.43,-56.5 530.43,-56.5"/>
<text text-anchor="start" x="538.43" y="-74.5" font-family="Helvetica,sans-Serif" font-size="10.00">beluga/type_traits</text>
<text text-anchor="middle" x="609.43" y="-63.5" font-family="Helvetica,sans-Serif" font-size="10.00">/strongly_typed_numeric.hpp</text>
</a>
</g>
</g>
<!-- Node6&#45;&gt;Node8 -->
<g id="edge8" class="edge">
<title>Node6&#45;&gt;Node8</title>
<path fill="none" stroke="midnightblue" d="M289.87,-123.48C350,-113.88 448.61,-98.15 520.42,-86.7"/>
<polygon fill="midnightblue" stroke="midnightblue" points="521.04,-90.14 530.36,-85.11 519.94,-83.23 521.04,-90.14"/>
</g>
<!-- Node6&#45;&gt;Node11 -->
<g id="edge12" class="edge">
<title>Node6&#45;&gt;Node11</title>
<path fill="none" stroke="midnightblue" d="M224.83,-123.48C213.86,-115.42 196.99,-103.02 182.62,-92.47"/>
<polygon fill="midnightblue" stroke="midnightblue" points="184.65,-89.62 174.52,-86.52 180.51,-95.26 184.65,-89.62"/>
</g>
<!-- Node13 -->
<g id="node13" class="node">
<title>Node13</title>
<g id="a_node13"><a xlink:href="forward__like_8hpp_source.html" target="_top" xlink:title=" ">
<polygon fill="none" stroke="black" points="264.43,-56.5 264.43,-86.5 386.43,-86.5 386.43,-56.5 264.43,-56.5"/>
<text text-anchor="start" x="272.43" y="-74.5" font-family="Helvetica,sans-Serif" font-size="10.00">beluga/utility/forward</text>
<text text-anchor="middle" x="325.43" y="-63.5" font-family="Helvetica,sans-Serif" font-size="10.00">_like.hpp</text>
</a>
</g>
</g>
<!-- Node6&#45;&gt;Node13 -->
<g id="edge16" class="edge">
<title>Node6&#45;&gt;Node13</title>
<path fill="none" stroke="midnightblue" d="M249.18,-123.48C261.35,-115.34 280.12,-102.79 296,-92.18"/>
<polygon fill="midnightblue" stroke="midnightblue" points="298.09,-94.99 304.46,-86.52 294.2,-89.17 298.09,-94.99"/>
</g>
<!-- Node8&#45;&gt;Node4 -->
<g id="edge11" class="edge">
<title>Node8&#45;&gt;Node4</title>
<path fill="none" stroke="midnightblue" d="M569.62,-56.4C540.93,-46.24 502.62,-32.67 475.38,-23.02"/>
<polygon fill="midnightblue" stroke="midnightblue" points="476.47,-19.7 465.88,-19.66 474.14,-26.3 476.47,-19.7"/>
</g>
<!-- Node9 -->
<g id="node9" class="node">
<title>Node9</title>
<g id="a_node9"><a xlink:title=" ">
<polygon fill="none" stroke="#bfbfbf" points="539.93,-0.5 539.93,-19.5 604.93,-19.5 604.93,-0.5 539.93,-0.5"/>
<text text-anchor="middle" x="572.43" y="-7.5" font-family="Helvetica,sans-Serif" font-size="10.00">functional</text>
</a>
</g>
</g>
<!-- Node8&#45;&gt;Node9 -->
<g id="edge9" class="edge">
<title>Node8&#45;&gt;Node9</title>
<path fill="none" stroke="midnightblue" d="M600.66,-56.4C595.45,-48.02 588.8,-37.33 583.27,-28.42"/>
<polygon fill="midnightblue" stroke="midnightblue" points="586.07,-26.3 577.82,-19.66 580.13,-30 586.07,-26.3"/>
</g>
<!-- Node10 -->
<g id="node10" class="node">
<title>Node10</title>
<g id="a_node10"><a xlink:title=" ">
<polygon fill="none" stroke="#bfbfbf" points="623.43,-0.5 623.43,-19.5 667.43,-19.5 667.43,-0.5 623.43,-0.5"/>
<text text-anchor="middle" x="645.43" y="-7.5" font-family="Helvetica,sans-Serif" font-size="10.00">limits</text>
</a>
</g>
</g>
<!-- Node8&#45;&gt;Node10 -->
<g id="edge10" class="edge">
<title>Node8&#45;&gt;Node10</title>
<path fill="none" stroke="midnightblue" d="M617.96,-56.4C623.03,-48.02 629.5,-37.33 634.89,-28.42"/>
<polygon fill="midnightblue" stroke="midnightblue" points="638.01,-30.03 640.19,-19.66 632.02,-26.4 638.01,-30.03"/>
</g>
<!-- Node11&#45;&gt;Node4 -->
<g id="edge14" class="edge">
<title>Node11&#45;&gt;Node4</title>
<path fill="none" stroke="midnightblue" d="M208.22,-59.52C262.43,-48.24 345.87,-30.88 396.87,-20.27"/>
<polygon fill="midnightblue" stroke="midnightblue" points="397.85,-23.64 406.93,-18.18 396.42,-16.79 397.85,-23.64"/>
</g>
<!-- Node11&#45;&gt;Node7 -->
<g id="edge13" class="edge">
<title>Node11&#45;&gt;Node7</title>
<path fill="none" stroke="midnightblue" d="M172.26,-56.4C183.11,-47.31 197.21,-35.49 208.31,-26.19"/>
<polygon fill="midnightblue" stroke="midnightblue" points="210.69,-28.76 216.1,-19.66 206.19,-23.4 210.69,-28.76"/>
</g>
<!-- Node12 -->
<g id="node12" class="node">
<title>Node12</title>
<g id="a_node12"><a xlink:title=" ">
<polygon fill="none" stroke="#bfbfbf" points="132.93,-0.5 132.93,-19.5 177.93,-19.5 177.93,-0.5 132.93,-0.5"/>
<text text-anchor="middle" x="155.43" y="-7.5" font-family="Helvetica,sans-Serif" font-size="10.00">utility</text>
</a>
</g>
</g>
<!-- Node11&#45;&gt;Node12 -->
<g id="edge15" class="edge">
<title>Node11&#45;&gt;Node12</title>
<path fill="none" stroke="midnightblue" d="M155.43,-56.4C155.43,-48.47 155.43,-38.46 155.43,-29.86"/>
<polygon fill="midnightblue" stroke="midnightblue" points="158.93,-29.66 155.43,-19.66 151.93,-29.66 158.93,-29.66"/>
</g>
<!-- Node15&#45;&gt;Node6 -->
<g id="edge20" class="edge">
<title>Node15&#45;&gt;Node6</title>
<path fill="none" stroke="midnightblue" d="M372.65,-184.98C345.38,-174.77 299.52,-157.61 268.63,-146.05"/>
<polygon fill="midnightblue" stroke="midnightblue" points="269.76,-142.74 259.17,-142.51 267.31,-149.29 269.76,-142.74"/>
</g>
<!-- Node16 -->
<g id="node16" class="node">
<title>Node16</title>
<g id="a_node16"><a xlink:title=" ">
<polygon fill="none" stroke="#bfbfbf" points="316.43,-123.5 316.43,-142.5 474.43,-142.5 474.43,-123.5 316.43,-123.5"/>
<text text-anchor="middle" x="395.43" y="-130.5" font-family="Helvetica,sans-Serif" font-size="10.00">range/v3/view/transform.hpp</text>
</a>
</g>
</g>
<!-- Node15&#45;&gt;Node16 -->
<g id="edge21" class="edge">
<title>Node15&#45;&gt;Node16</title>
<path fill="none" stroke="midnightblue" d="M395.43,-184.98C395.43,-176.58 395.43,-163.48 395.43,-152.66"/>
<polygon fill="midnightblue" stroke="midnightblue" points="398.93,-152.51 395.43,-142.51 391.93,-152.51 398.93,-152.51"/>
</g>
</g>
</svg>
        <g id="navigator" transform="translate(0 0)" fill="#404254">
                <rect fill="#f2f5e9" fill-opacity="0.5" stroke="#606060" stroke-width=".5" x="0" y="0" width="60" height="60"/>
                <use id="zoomplus" xlink:href="#zoomPlus" x="17" y="9" onmousedown="handleZoom(evt,'in')"/>
                <use id="zoomminus" xlink:href="#zoomMin" x="42" y="9" onmousedown="handleZoom(evt,'out')"/>
                <use id="reset" xlink:href="#resetDef" x="30" y="36" onmousedown="handleReset()"/>
                <g id="arrowUp" xlink:href="#dirArrow" transform="translate(30 24)" onmousedown="handlePan(0,-1)">
                  <use xlink:href="#rim" fill="#404040">
                        <set attributeName="fill" to="#808080" begin="arrowUp.mouseover" end="arrowUp.mouseout"/>
                  </use>
                  <path fill="none" stroke="white" stroke-width="1.5" d="M0,-3.0v7 M-2.5,-0.5L0,-3.0L2.5,-0.5"/>
                </g>
                <g id="arrowRight" xlink:href="#dirArrow" transform="rotate(90) translate(36 -43)" onmousedown="handlePan(1,0)">
                  <use xlink:href="#rim" fill="#404040">
                        <set attributeName="fill" to="#808080" begin="arrowRight.mouseover" end="arrowRight.mouseout"/>
                  </use>
                  <path fill="none" stroke="white" stroke-width="1.5" d="M0,-3.0v7 M-2.5,-0.5L0,-3.0L2.5,-0.5"/>
                </g>
                <g id="arrowDown" xlink:href="#dirArrow" transform="rotate(180) translate(-30 -48)" onmousedown="handlePan(0,1)">
                  <use xlink:href="#rim" fill="#404040">
                        <set attributeName="fill" to="#808080" begin="arrowDown.mouseover" end="arrowDown.mouseout"/>
                  </use>
                  <path fill="none" stroke="white" stroke-width="1.5" d="M0,-3.0v7 M-2.5,-0.5L0,-3.0L2.5,-0.5"/>
                </g>
                <g id="arrowLeft" xlink:href="#dirArrow" transform="rotate(270) translate(-36 17)" onmousedown="handlePan(-1,0)">
                  <use xlink:href="#rim" fill="#404040">
                        <set attributeName="fill" to="#808080" begin="arrowLeft.mouseover" end="arrowLeft.mouseout"/>
                  </use>
                  <path fill="none" stroke="white" stroke-width="1.5" d="M0,-3.0v7 M-2.5,-0.5L0,-3.0L2.5,-0.5"/>
                </g>
        </g>
        <svg viewBox="0 0 15 15" width="100%" height="30px" preserveAspectRatio="xMaxYMin meet">
         <g id="arrow_out" transform="scale(0.3 0.3)">
          <a xlink:href="propagate_8hpp__incl_org.svg" target="_base">
           <rect id="button" ry="5" rx="5" y="6" x="6" height="38" width="38"
                fill="#f2f5e9" fill-opacity="0.5" stroke="#606060" stroke-width="1.0"/>
           <path id="arrow"
             d="M 11.500037,31.436501 C 11.940474,20.09759 22.043105,11.32322 32.158766,21.979434 L 37.068811,17.246167 C 37.068811,17.246167 37.088388,32 37.088388,32 L 22.160133,31.978069 C 22.160133,31.978069 26.997745,27.140456 26.997745,27.140456 C 18.528582,18.264221 13.291696,25.230495 11.500037,31.436501 z"
             style="fill:#404040;"/>
          </a>
         </g>
        </svg>
</svg>
