<?xml version="1.0" encoding="UTF-8" standalone="no"?>
<!DOCTYPE svg PUBLIC "-//W3C//DTD SVG 1.1//EN"
 "http://www.w3.org/Graphics/SVG/1.1/DTD/svg11.dtd">
<!-- Generated by graphviz version 2.43.0 (0)
 -->
<!-- Title: /home/runner/work/beluga/beluga/beluga/include/beluga/random.hpp Pages: 1 -->
<svg width="1302pt" height="508pt"
 viewBox="0.00 0.00 1301.98 508.00" xmlns="http://www.w3.org/2000/svg" xmlns:xlink="http://www.w3.org/1999/xlink">
<g id="graph0" class="graph" transform="scale(1 1) rotate(0) translate(4 504)">
<title>/home/runner/work/beluga/beluga/beluga/include/beluga/random.hpp</title>
<!-- Node1 -->
<g id="node1" class="node">
<title>Node1</title>
<g id="a_node1"><a xlink:title="Includes all Beluga random distributions.">
<polygon fill="#bfbfbf" stroke="black" points="193,-458.5 193,-499.5 338,-499.5 338,-458.5 193,-458.5"/>
<text text-anchor="start" x="201" y="-487.5" font-family="Helvetica,sans-Serif" font-size="10.00">/home/runner/work/beluga</text>
<text text-anchor="start" x="201" y="-476.5" font-family="Helvetica,sans-Serif" font-size="10.00">/beluga/beluga/include</text>
<text text-anchor="middle" x="265.5" y="-465.5" font-family="Helvetica,sans-Serif" font-size="10.00">/beluga/random.hpp</text>
</a>
</g>
</g>
<!-- Node2 -->
<g id="node2" class="node">
<title>Node2</title>
<g id="a_node2"><a xlink:href="multivariate__normal__distribution_8hpp.html" target="_top" xlink:title="Implementation of a multivariate normal distribution.">
<polygon fill="none" stroke="black" points="104,-391.5 104,-421.5 257,-421.5 257,-391.5 104,-391.5"/>
<text text-anchor="start" x="112" y="-409.5" font-family="Helvetica,sans-Serif" font-size="10.00">beluga/random/multivariate</text>
<text text-anchor="middle" x="180.5" y="-398.5" font-family="Helvetica,sans-Serif" font-size="10.00">_normal_distribution.hpp</text>
</a>
</g>
</g>
<!-- Node1&#45;&gt;Node2 -->
<g id="edge1" class="edge">
<title>Node1&#45;&gt;Node2</title>
<path fill="none" stroke="midnightblue" d="M241.82,-458.36C230.52,-448.99 216.99,-437.76 205.51,-428.25"/>
<polygon fill="midnightblue" stroke="midnightblue" points="207.52,-425.36 197.58,-421.67 203.05,-430.75 207.52,-425.36"/>
</g>
<!-- Node10 -->
<g id="node10" class="node">
<title>Node10</title>
<g id="a_node10"><a xlink:href="multivariate__uniform__distribution_8hpp.html" target="_top" xlink:title="Implementation of a multivariate uniform distribution for SE(2) and SE(3) spaces.">
<polygon fill="none" stroke="black" points="278,-391.5 278,-421.5 431,-421.5 431,-391.5 278,-391.5"/>
<text text-anchor="start" x="286" y="-409.5" font-family="Helvetica,sans-Serif" font-size="10.00">beluga/random/multivariate</text>
<text text-anchor="middle" x="354.5" y="-398.5" font-family="Helvetica,sans-Serif" font-size="10.00">_uniform_distribution.hpp</text>
</a>
</g>
</g>
<!-- Node1&#45;&gt;Node10 -->
<g id="edge9" class="edge">
<title>Node1&#45;&gt;Node10</title>
<path fill="none" stroke="midnightblue" d="M290.29,-458.36C302.24,-448.89 316.57,-437.54 328.66,-427.97"/>
<polygon fill="midnightblue" stroke="midnightblue" points="330.95,-430.62 336.61,-421.67 326.6,-425.14 330.95,-430.62"/>
</g>
<!-- Node3 -->
<g id="node3" class="node">
<title>Node3</title>
<g id="a_node3"><a xlink:title=" ">
<polygon fill="none" stroke="#bfbfbf" points="234.5,-330 234.5,-349 288.5,-349 288.5,-330 234.5,-330"/>
<text text-anchor="middle" x="261.5" y="-337" font-family="Helvetica,sans-Serif" font-size="10.00">random</text>
</a>
</g>
</g>
<!-- Node2&#45;&gt;Node3 -->
<g id="edge2" class="edge">
<title>Node2&#45;&gt;Node3</title>
<path fill="none" stroke="midnightblue" d="M198.08,-391.4C211.21,-380.86 229.13,-366.48 242.57,-355.69"/>
<polygon fill="midnightblue" stroke="midnightblue" points="245.06,-358.18 250.67,-349.19 240.68,-352.72 245.06,-358.18"/>
</g>
<!-- Node4 -->
<g id="node4" class="node">
<title>Node4</title>
<g id="a_node4"><a xlink:title=" ">
<polygon fill="none" stroke="#bfbfbf" points="0,-330 0,-349 45,-349 45,-330 0,-330"/>
<text text-anchor="middle" x="22.5" y="-337" font-family="Helvetica,sans-Serif" font-size="10.00">utility</text>
</a>
</g>
</g>
<!-- Node2&#45;&gt;Node4 -->
<g id="edge3" class="edge">
<title>Node2&#45;&gt;Node4</title>
<path fill="none" stroke="midnightblue" d="M143.58,-391.48C118.11,-381.65 83.56,-367.99 53.5,-355 52.3,-354.48 51.08,-353.95 49.86,-353.4"/>
<polygon fill="midnightblue" stroke="midnightblue" points="51,-350.08 40.45,-349.12 48.1,-356.45 51,-350.08"/>
</g>
<!-- Node5 -->
<g id="node5" class="node">
<title>Node5</title>
<g id="a_node5"><a xlink:href="multivariate__distribution__traits_8hpp.html" target="_top" xlink:title="Implementation of multivariate distribution traits.">
<polygon fill="none" stroke="black" points="63,-324.5 63,-354.5 216,-354.5 216,-324.5 63,-324.5"/>
<text text-anchor="start" x="71" y="-342.5" font-family="Helvetica,sans-Serif" font-size="10.00">beluga/random/multivariate</text>
<text text-anchor="middle" x="139.5" y="-331.5" font-family="Helvetica,sans-Serif" font-size="10.00">_distribution_traits.hpp</text>
</a>
</g>
</g>
<!-- Node2&#45;&gt;Node5 -->
<g id="edge4" class="edge">
<title>Node2&#45;&gt;Node5</title>
<path fill="none" stroke="midnightblue" d="M171.6,-391.4C166.39,-383.13 159.69,-372.51 153.76,-363.1"/>
<polygon fill="midnightblue" stroke="midnightblue" points="156.67,-361.17 148.38,-354.58 150.75,-364.9 156.67,-361.17"/>
</g>
<!-- Node6 -->
<g id="node6" class="node">
<title>Node6</title>
<g id="a_node6"><a xlink:title=" ">
<polygon fill="none" stroke="#bfbfbf" points="401,-62 401,-81 470,-81 470,-62 401,-62"/>
<text text-anchor="middle" x="435.5" y="-69" font-family="Helvetica,sans-Serif" font-size="10.00">Eigen/Core</text>
</a>
</g>
</g>
<!-- Node5&#45;&gt;Node6 -->
<g id="edge5" class="edge">
<title>Node5&#45;&gt;Node6</title>
<path fill="none" stroke="midnightblue" d="M139.71,-324.26C140.62,-306.92 144.35,-277.42 158.5,-257 221.2,-166.54 343.95,-108.55 402.68,-84.79"/>
<polygon fill="midnightblue" stroke="midnightblue" points="404.2,-87.96 412.2,-81.02 401.62,-81.45 404.2,-87.96"/>
</g>
<!-- Node7 -->
<g id="node7" class="node">
<title>Node7</title>
<g id="a_node7"><a xlink:title=" ">
<polygon fill="none" stroke="#bfbfbf" points="167.5,-263 167.5,-282 259.5,-282 259.5,-263 167.5,-263"/>
<text text-anchor="middle" x="213.5" y="-270" font-family="Helvetica,sans-Serif" font-size="10.00">sophus/se2.hpp</text>
</a>
</g>
</g>
<!-- Node5&#45;&gt;Node7 -->
<g id="edge6" class="edge">
<title>Node5&#45;&gt;Node7</title>
<path fill="none" stroke="midnightblue" d="M155.56,-324.4C167.44,-313.96 183.61,-299.75 195.86,-289"/>
<polygon fill="midnightblue" stroke="midnightblue" points="198.4,-291.42 203.6,-282.19 193.78,-286.16 198.4,-291.42"/>
</g>
<!-- Node8 -->
<g id="node8" class="node">
<title>Node8</title>
<g id="a_node8"><a xlink:title=" ">
<polygon fill="none" stroke="#bfbfbf" points="277.5,-263 277.5,-282 369.5,-282 369.5,-263 277.5,-263"/>
<text text-anchor="middle" x="323.5" y="-270" font-family="Helvetica,sans-Serif" font-size="10.00">sophus/se3.hpp</text>
</a>
</g>
</g>
<!-- Node5&#45;&gt;Node8 -->
<g id="edge7" class="edge">
<title>Node5&#45;&gt;Node8</title>
<path fill="none" stroke="midnightblue" d="M179.43,-324.4C212.42,-312.74 258.75,-296.37 289.88,-285.38"/>
<polygon fill="midnightblue" stroke="midnightblue" points="291.16,-288.64 299.42,-282.01 288.82,-282.04 291.16,-288.64"/>
</g>
<!-- Node9 -->
<g id="node9" class="node">
<title>Node9</title>
<g id="a_node9"><a xlink:title=" ">
<polygon fill="none" stroke="#bfbfbf" points="19.5,-263 19.5,-282 111.5,-282 111.5,-263 19.5,-263"/>
<text text-anchor="middle" x="65.5" y="-270" font-family="Helvetica,sans-Serif" font-size="10.00">sophus/so3.hpp</text>
</a>
</g>
</g>
<!-- Node5&#45;&gt;Node9 -->
<g id="edge8" class="edge">
<title>Node5&#45;&gt;Node9</title>
<path fill="none" stroke="midnightblue" d="M123.44,-324.4C111.56,-313.96 95.39,-299.75 83.14,-289"/>
<polygon fill="midnightblue" stroke="midnightblue" points="85.22,-286.16 75.4,-282.19 80.6,-291.42 85.22,-286.16"/>
</g>
<!-- Node10&#45;&gt;Node3 -->
<g id="edge10" class="edge">
<title>Node10&#45;&gt;Node3</title>
<path fill="none" stroke="midnightblue" d="M334.32,-391.4C318.87,-380.6 297.64,-365.76 282.08,-354.89"/>
<polygon fill="midnightblue" stroke="midnightblue" points="283.87,-351.87 273.67,-349.01 279.86,-357.6 283.87,-351.87"/>
</g>
<!-- Node10&#45;&gt;Node7 -->
<g id="edge11" class="edge">
<title>Node10&#45;&gt;Node7</title>
<path fill="none" stroke="midnightblue" d="M347.13,-391.48C337.48,-374.09 319.21,-344.26 297.5,-324 281.02,-308.62 259.1,-295.64 241.79,-286.69"/>
<polygon fill="midnightblue" stroke="midnightblue" points="243.22,-283.49 232.71,-282.14 240.08,-289.74 243.22,-283.49"/>
</g>
<!-- Node10&#45;&gt;Node8 -->
<g id="edge12" class="edge">
<title>Node10&#45;&gt;Node8</title>
<path fill="none" stroke="midnightblue" d="M402.62,-391.38C420.24,-383.63 438.33,-372.01 448.5,-355 455.57,-343.17 456.2,-335.42 448.5,-324 438.71,-309.49 397.71,-294.7 365.3,-284.91"/>
<polygon fill="midnightblue" stroke="midnightblue" points="366.14,-281.51 355.56,-282.04 364.16,-288.22 366.14,-281.51"/>
</g>
<!-- Node11 -->
<g id="node11" class="node">
<title>Node11</title>
<g id="a_node11"><a xlink:title=" ">
<polygon fill="none" stroke="#bfbfbf" points="345,-330 345,-349 440,-349 440,-330 345,-330"/>
<text text-anchor="middle" x="392.5" y="-337" font-family="Helvetica,sans-Serif" font-size="10.00">Eigen/Geometry</text>
</a>
</g>
</g>
<!-- Node10&#45;&gt;Node11 -->
<g id="edge13" class="edge">
<title>Node10&#45;&gt;Node11</title>
<path fill="none" stroke="midnightblue" d="M362.75,-391.4C368.49,-381.56 376.2,-368.38 382.33,-357.89"/>
<polygon fill="midnightblue" stroke="midnightblue" points="385.39,-359.59 387.42,-349.19 379.35,-356.06 385.39,-359.59"/>
</g>
<!-- Node12 -->
<g id="node12" class="node">
<title>Node12</title>
<g id="a_node12"><a xlink:href="occupancy__grid_8hpp.html" target="_top" xlink:title="Concepts and abstract implementations of occupancy grids.">
<polygon fill="none" stroke="black" points="675.5,-324.5 675.5,-354.5 791.5,-354.5 791.5,-324.5 675.5,-324.5"/>
<text text-anchor="start" x="683.5" y="-342.5" font-family="Helvetica,sans-Serif" font-size="10.00">beluga/sensor/data</text>
<text text-anchor="middle" x="733.5" y="-331.5" font-family="Helvetica,sans-Serif" font-size="10.00">/occupancy_grid.hpp</text>
</a>
</g>
</g>
<!-- Node10&#45;&gt;Node12 -->
<g id="edge14" class="edge">
<title>Node10&#45;&gt;Node12</title>
<path fill="none" stroke="midnightblue" d="M431.2,-392.35C499.91,-380.56 599.74,-363.44 665.62,-352.14"/>
<polygon fill="midnightblue" stroke="midnightblue" points="666.22,-355.59 675.49,-350.45 665.04,-348.69 666.22,-355.59"/>
</g>
<!-- Node12&#45;&gt;Node6 -->
<g id="edge40" class="edge">
<title>Node12&#45;&gt;Node6</title>
<path fill="none" stroke="midnightblue" d="M675.32,-337.15C597.7,-333.99 466.53,-323.4 436.5,-288 388.07,-230.9 414.74,-131.39 428.7,-90.66"/>
<polygon fill="midnightblue" stroke="midnightblue" points="432,-91.82 432.07,-81.22 425.41,-89.46 432,-91.82"/>
</g>
<!-- Node13 -->
<g id="node13" class="node">
<title>Node13</title>
<g id="a_node13"><a xlink:title=" ">
<polygon fill="none" stroke="#bfbfbf" points="1219.5,-196 1219.5,-215 1269.5,-215 1269.5,-196 1219.5,-196"/>
<text text-anchor="middle" x="1244.5" y="-203" font-family="Helvetica,sans-Serif" font-size="10.00">cstdint</text>
</a>
</g>
</g>
<!-- Node12&#45;&gt;Node13 -->
<g id="edge15" class="edge">
<title>Node12&#45;&gt;Node13</title>
<path fill="none" stroke="midnightblue" d="M791.72,-337.09C919.86,-333.38 1217.35,-321.26 1247.5,-288 1262.84,-271.08 1257.66,-243.11 1251.72,-224.75"/>
<polygon fill="midnightblue" stroke="midnightblue" points="1254.97,-223.43 1248.29,-215.2 1248.38,-225.79 1254.97,-223.43"/>
</g>
<!-- Node14 -->
<g id="node14" class="node">
<title>Node14</title>
<g id="a_node14"><a xlink:title=" ">
<polygon fill="none" stroke="#bfbfbf" points="464,-263 464,-282 505,-282 505,-263 464,-263"/>
<text text-anchor="middle" x="484.5" y="-270" font-family="Helvetica,sans-Serif" font-size="10.00">tuple</text>
</a>
</g>
</g>
<!-- Node12&#45;&gt;Node14 -->
<g id="edge16" class="edge">
<title>Node12&#45;&gt;Node14</title>
<path fill="none" stroke="midnightblue" d="M675.32,-328.76C630.6,-320.4 567.68,-306.72 514.5,-288 512.89,-287.43 511.25,-286.8 509.61,-286.13"/>
<polygon fill="midnightblue" stroke="midnightblue" points="510.97,-282.91 500.41,-282.01 508.1,-289.29 510.97,-282.91"/>
</g>
<!-- Node15 -->
<g id="node15" class="node">
<title>Node15</title>
<g id="a_node15"><a xlink:title=" ">
<polygon fill="none" stroke="#bfbfbf" points="1160,-129 1160,-148 1207,-148 1207,-129 1160,-129"/>
<text text-anchor="middle" x="1183.5" y="-136" font-family="Helvetica,sans-Serif" font-size="10.00">vector</text>
</a>
</g>
</g>
<!-- Node12&#45;&gt;Node15 -->
<g id="edge17" class="edge">
<title>Node12&#45;&gt;Node15</title>
<path fill="none" stroke="midnightblue" d="M791.98,-336.89C923.16,-332.72 1232.14,-319.63 1266.5,-288 1298.79,-258.28 1301.1,-227.61 1278.5,-190 1265.15,-167.79 1238.37,-154.82 1216.63,-147.6"/>
<polygon fill="midnightblue" stroke="midnightblue" points="1217.65,-144.25 1207.06,-144.67 1215.6,-150.94 1217.65,-144.25"/>
</g>
<!-- Node16 -->
<g id="node16" class="node">
<title>Node16</title>
<g id="a_node16"><a xlink:href="linear__grid_8hpp.html" target="_top" xlink:title="Concepts and abstract implementations of linear (ie. contiguous storage) grids.">
<polygon fill="none" stroke="black" points="1128.5,-257.5 1128.5,-287.5 1238.5,-287.5 1238.5,-257.5 1128.5,-257.5"/>
<text text-anchor="start" x="1136.5" y="-275.5" font-family="Helvetica,sans-Serif" font-size="10.00">beluga/sensor/data</text>
<text text-anchor="middle" x="1183.5" y="-264.5" font-family="Helvetica,sans-Serif" font-size="10.00">/linear_grid.hpp</text>
</a>
</g>
</g>
<!-- Node12&#45;&gt;Node16 -->
<g id="edge18" class="edge">
<title>Node12&#45;&gt;Node16</title>
<path fill="none" stroke="midnightblue" d="M791.63,-332.59C865.41,-324.72 996.74,-309.45 1118.54,-288.07"/>
<polygon fill="midnightblue" stroke="midnightblue" points="1119.17,-291.51 1128.41,-286.32 1117.95,-284.62 1119.17,-291.51"/>
</g>
<!-- Node21 -->
<g id="node21" class="node">
<title>Node21</title>
<g id="a_node21"><a xlink:title=" ">
<polygon fill="none" stroke="#bfbfbf" points="587.5,-62 587.5,-81 745.5,-81 745.5,-62 587.5,-62"/>
<text text-anchor="middle" x="666.5" y="-69" font-family="Helvetica,sans-Serif" font-size="10.00">range/v3/view/transform.hpp</text>
</a>
</g>
</g>
<!-- Node12&#45;&gt;Node21 -->
<g id="edge39" class="edge">
<title>Node12&#45;&gt;Node21</title>
<path fill="none" stroke="midnightblue" d="M675.36,-336.44C602.01,-332.48 482.07,-321.01 454.5,-288 385.6,-205.5 562.63,-117.08 636.19,-85.01"/>
<polygon fill="midnightblue" stroke="midnightblue" points="637.63,-88.2 645.44,-81.04 634.87,-81.77 637.63,-88.2"/>
</g>
<!-- Node25 -->
<g id="node25" class="node">
<title>Node25</title>
<g id="a_node25"><a xlink:title=" ">
<polygon fill="none" stroke="#bfbfbf" points="523.5,-257.5 523.5,-287.5 633.5,-287.5 633.5,-257.5 523.5,-257.5"/>
<text text-anchor="start" x="531.5" y="-275.5" font-family="Helvetica,sans-Serif" font-size="10.00">range/v3/algorithm</text>
<text text-anchor="middle" x="578.5" y="-264.5" font-family="Helvetica,sans-Serif" font-size="10.00">/any_of.hpp</text>
</a>
</g>
</g>
<!-- Node12&#45;&gt;Node25 -->
<g id="edge35" class="edge">
<title>Node12&#45;&gt;Node25</title>
<path fill="none" stroke="midnightblue" d="M699.87,-324.4C676.92,-314.77 646.31,-301.94 621.58,-291.56"/>
<polygon fill="midnightblue" stroke="midnightblue" points="622.64,-288.22 612.07,-287.58 619.94,-294.67 622.64,-288.22"/>
</g>
<!-- Node26 -->
<g id="node26" class="node">
<title>Node26</title>
<g id="a_node26"><a xlink:title=" ">
<polygon fill="none" stroke="#bfbfbf" points="652,-263 652,-282 815,-282 815,-263 652,-263"/>
<text text-anchor="middle" x="733.5" y="-270" font-family="Helvetica,sans-Serif" font-size="10.00">range/v3/view/enumerate.hpp</text>
</a>
</g>
</g>
<!-- Node12&#45;&gt;Node26 -->
<g id="edge36" class="edge">
<title>Node12&#45;&gt;Node26</title>
<path fill="none" stroke="midnightblue" d="M733.5,-324.4C733.5,-315.06 733.5,-302.71 733.5,-292.52"/>
<polygon fill="midnightblue" stroke="midnightblue" points="737,-292.19 733.5,-282.19 730,-292.19 737,-292.19"/>
</g>
<!-- Node27 -->
<g id="node27" class="node">
<title>Node27</title>
<g id="a_node27"><a xlink:title=" ">
<polygon fill="none" stroke="#bfbfbf" points="833,-263 833,-282 964,-282 964,-263 833,-263"/>
<text text-anchor="middle" x="898.5" y="-270" font-family="Helvetica,sans-Serif" font-size="10.00">range/v3/view/filter.hpp</text>
</a>
</g>
</g>
<!-- Node12&#45;&gt;Node27 -->
<g id="edge37" class="edge">
<title>Node12&#45;&gt;Node27</title>
<path fill="none" stroke="midnightblue" d="M769.3,-324.4C798.51,-312.89 839.36,-296.8 867.26,-285.81"/>
<polygon fill="midnightblue" stroke="midnightblue" points="868.88,-288.93 876.91,-282.01 866.32,-282.42 868.88,-288.93"/>
</g>
<!-- Node28 -->
<g id="node28" class="node">
<title>Node28</title>
<g id="a_node28"><a xlink:title=" ">
<polygon fill="none" stroke="#bfbfbf" points="982.5,-263 982.5,-282 1110.5,-282 1110.5,-263 982.5,-263"/>
<text text-anchor="middle" x="1046.5" y="-270" font-family="Helvetica,sans-Serif" font-size="10.00">range/v3/view/iota.hpp</text>
</a>
</g>
</g>
<!-- Node12&#45;&gt;Node28 -->
<g id="edge38" class="edge">
<title>Node12&#45;&gt;Node28</title>
<path fill="none" stroke="midnightblue" d="M791.64,-326.43C850.06,-314.29 939.22,-295.78 995.12,-284.17"/>
<polygon fill="midnightblue" stroke="midnightblue" points="996.07,-287.55 1005.15,-282.09 994.65,-280.69 996.07,-287.55"/>
</g>
<!-- Node16&#45;&gt;Node6 -->
<g id="edge34" class="edge">
<title>Node16&#45;&gt;Node6</title>
<path fill="none" stroke="midnightblue" d="M1128.38,-258.84C1125.38,-258.2 1122.4,-257.59 1119.5,-257 1029.68,-238.87 1005.56,-242.56 916.5,-221 745.99,-179.73 547.14,-111.87 469.23,-84.5"/>
<polygon fill="midnightblue" stroke="midnightblue" points="470.07,-81.09 459.48,-81.07 467.75,-87.69 470.07,-81.09"/>
</g>
<!-- Node16&#45;&gt;Node13 -->
<g id="edge19" class="edge">
<title>Node16&#45;&gt;Node13</title>
<path fill="none" stroke="midnightblue" d="M1196.74,-257.4C1206.34,-247.16 1219.35,-233.3 1229.37,-222.62"/>
<polygon fill="midnightblue" stroke="midnightblue" points="1232.05,-224.88 1236.34,-215.19 1226.95,-220.09 1232.05,-224.88"/>
</g>
<!-- Node16&#45;&gt;Node15 -->
<g id="edge21" class="edge">
<title>Node16&#45;&gt;Node15</title>
<path fill="none" stroke="midnightblue" d="M1183.5,-257.37C1183.5,-233.5 1183.5,-185.18 1183.5,-158.41"/>
<polygon fill="midnightblue" stroke="midnightblue" points="1187,-158.1 1183.5,-148.1 1180,-158.1 1187,-158.1"/>
</g>
<!-- Node17 -->
<g id="node17" class="node">
<title>Node17</title>
<g id="a_node17"><a xlink:title=" ">
<polygon fill="none" stroke="#bfbfbf" points="820.5,-129 820.5,-148 876.5,-148 876.5,-129 820.5,-129"/>
<text text-anchor="middle" x="848.5" y="-136" font-family="Helvetica,sans-Serif" font-size="10.00">optional</text>
</a>
</g>
</g>
<!-- Node16&#45;&gt;Node17 -->
<g id="edge20" class="edge">
<title>Node16&#45;&gt;Node17</title>
<path fill="none" stroke="midnightblue" d="M1128.41,-258.6C1069.23,-244.67 982.64,-224.06 975.5,-221 934.07,-203.27 890.97,-172.57 867.16,-154.33"/>
<polygon fill="midnightblue" stroke="midnightblue" points="869.06,-151.38 859.02,-148.01 864.77,-156.91 869.06,-151.38"/>
</g>
<!-- Node18 -->
<g id="node18" class="node">
<title>Node18</title>
<g id="a_node18"><a xlink:href="dense__grid_8hpp.html" target="_top" xlink:title="Concepts and abstract implementations of dense grids.">
<polygon fill="none" stroke="black" points="984.5,-190.5 984.5,-220.5 1094.5,-220.5 1094.5,-190.5 984.5,-190.5"/>
<text text-anchor="start" x="992.5" y="-208.5" font-family="Helvetica,sans-Serif" font-size="10.00">beluga/sensor/data</text>
<text text-anchor="middle" x="1039.5" y="-197.5" font-family="Helvetica,sans-Serif" font-size="10.00">/dense_grid.hpp</text>
</a>
</g>
</g>
<!-- Node16&#45;&gt;Node18 -->
<g id="edge22" class="edge">
<title>Node16&#45;&gt;Node18</title>
<path fill="none" stroke="midnightblue" d="M1152.25,-257.4C1131.03,-247.81 1102.75,-235.05 1079.82,-224.7"/>
<polygon fill="midnightblue" stroke="midnightblue" points="1081.24,-221.5 1070.68,-220.58 1078.36,-227.88 1081.24,-221.5"/>
</g>
<!-- Node18&#45;&gt;Node6 -->
<g id="edge32" class="edge">
<title>Node18&#45;&gt;Node6</title>
<path fill="none" stroke="midnightblue" d="M1000.04,-190.43C976.96,-181.46 947.69,-168.75 923.5,-154 904.89,-142.66 905.59,-131.45 885.5,-123 876.2,-119.09 592.3,-88.96 480.3,-77.19"/>
<polygon fill="midnightblue" stroke="midnightblue" points="480.64,-73.71 470.33,-76.14 479.91,-80.67 480.64,-73.71"/>
</g>
<!-- Node18&#45;&gt;Node15 -->
<g id="edge24" class="edge">
<title>Node18&#45;&gt;Node15</title>
<path fill="none" stroke="midnightblue" d="M1070.75,-190.4C1095.9,-179.04 1130.95,-163.22 1155.27,-152.24"/>
<polygon fill="midnightblue" stroke="midnightblue" points="1156.98,-155.31 1164.65,-148.01 1154.1,-148.93 1156.98,-155.31"/>
</g>
<!-- Node18&#45;&gt;Node17 -->
<g id="edge23" class="edge">
<title>Node18&#45;&gt;Node17</title>
<path fill="none" stroke="midnightblue" d="M997.73,-190.41C967.85,-180.32 926.68,-166.38 890.5,-154 888.07,-153.17 885.57,-152.31 883.05,-151.44"/>
<polygon fill="midnightblue" stroke="midnightblue" points="883.96,-148.06 873.37,-148.11 881.68,-154.68 883.96,-148.06"/>
</g>
<!-- Node19 -->
<g id="node19" class="node">
<title>Node19</title>
<g id="a_node19"><a xlink:href="regular__grid_8hpp.html" target="_top" xlink:title="Concepts and abstract implementations of regular grids.">
<polygon fill="none" stroke="black" points="932.5,-123.5 932.5,-153.5 1042.5,-153.5 1042.5,-123.5 932.5,-123.5"/>
<text text-anchor="start" x="940.5" y="-141.5" font-family="Helvetica,sans-Serif" font-size="10.00">beluga/sensor/data</text>
<text text-anchor="middle" x="987.5" y="-130.5" font-family="Helvetica,sans-Serif" font-size="10.00">/regular_grid.hpp</text>
</a>
</g>
</g>
<!-- Node18&#45;&gt;Node19 -->
<g id="edge25" class="edge">
<title>Node18&#45;&gt;Node19</title>
<path fill="none" stroke="midnightblue" d="M1028.22,-190.4C1021.47,-181.96 1012.75,-171.07 1005.12,-161.52"/>
<polygon fill="midnightblue" stroke="midnightblue" points="1007.74,-159.2 998.76,-153.58 1002.28,-163.57 1007.74,-159.2"/>
</g>
<!-- Node22 -->
<g id="node22" class="node">
<title>Node22</title>
<g id="a_node22"><a xlink:href="eigen__compatibility_8hpp_source.html" target="_top" xlink:title=" ">
<polygon fill="none" stroke="black" points="1018,-62 1018,-81 1187,-81 1187,-62 1018,-62"/>
<text text-anchor="middle" x="1102.5" y="-69" font-family="Helvetica,sans-Serif" font-size="10.00">beluga/eigen_compatibility.hpp</text>
</a>
</g>
</g>
<!-- Node18&#45;&gt;Node22 -->
<g id="edge33" class="edge">
<title>Node18&#45;&gt;Node22</title>
<path fill="none" stroke="midnightblue" d="M1046.24,-190.37C1057.79,-166.18 1081.32,-116.88 1093.98,-90.35"/>
<polygon fill="midnightblue" stroke="midnightblue" points="1097.25,-91.63 1098.4,-81.1 1090.93,-88.61 1097.25,-91.63"/>
</g>
<!-- Node19&#45;&gt;Node6 -->
<g id="edge28" class="edge">
<title>Node19&#45;&gt;Node6</title>
<path fill="none" stroke="midnightblue" d="M932.23,-125.36C927.6,-124.5 922.97,-123.7 918.5,-123 897.02,-119.63 596.47,-88.89 480.6,-77.09"/>
<polygon fill="midnightblue" stroke="midnightblue" points="480.61,-73.57 470.3,-76.04 479.9,-80.53 480.61,-73.57"/>
</g>
<!-- Node20 -->
<g id="node20" class="node">
<title>Node20</title>
<g id="a_node20"><a xlink:title=" ">
<polygon fill="none" stroke="#bfbfbf" points="953,-62 953,-81 1000,-81 1000,-62 953,-62"/>
<text text-anchor="middle" x="976.5" y="-69" font-family="Helvetica,sans-Serif" font-size="10.00">cmath</text>
</a>
</g>
</g>
<!-- Node19&#45;&gt;Node20 -->
<g id="edge26" class="edge">
<title>Node19&#45;&gt;Node20</title>
<path fill="none" stroke="midnightblue" d="M985.11,-123.4C983.52,-113.96 981.4,-101.45 979.66,-91.19"/>
<polygon fill="midnightblue" stroke="midnightblue" points="983.09,-90.47 977.97,-81.19 976.19,-91.64 983.09,-90.47"/>
</g>
<!-- Node19&#45;&gt;Node21 -->
<g id="edge27" class="edge">
<title>Node19&#45;&gt;Node21</title>
<path fill="none" stroke="midnightblue" d="M932.15,-125.82C927.53,-124.86 922.94,-123.91 918.5,-123 849.86,-108.91 770.61,-93.11 719.59,-82.99"/>
<polygon fill="midnightblue" stroke="midnightblue" points="720.27,-79.56 709.78,-81.05 718.91,-86.42 720.27,-79.56"/>
</g>
<!-- Node19&#45;&gt;Node22 -->
<g id="edge29" class="edge">
<title>Node19&#45;&gt;Node22</title>
<path fill="none" stroke="midnightblue" d="M1012.45,-123.4C1032.1,-112.29 1059.29,-96.92 1078.65,-85.98"/>
<polygon fill="midnightblue" stroke="midnightblue" points="1080.47,-88.97 1087.45,-81.01 1077.02,-82.88 1080.47,-88.97"/>
</g>
<!-- Node24 -->
<g id="node24" class="node">
<title>Node24</title>
<g id="a_node24"><a xlink:href="enable__self_8hpp.html" target="_top" xlink:title="Implementation of a CRTP utility to enable downcasting to the most derived class.">
<polygon fill="none" stroke="black" points="812.5,-56.5 812.5,-86.5 934.5,-86.5 934.5,-56.5 812.5,-56.5"/>
<text text-anchor="start" x="820.5" y="-74.5" font-family="Helvetica,sans-Serif" font-size="10.00">beluga/mixins/enable</text>
<text text-anchor="middle" x="873.5" y="-63.5" font-family="Helvetica,sans-Serif" font-size="10.00">_self.hpp</text>
</a>
</g>
</g>
<!-- Node19&#45;&gt;Node24 -->
<g id="edge31" class="edge">
<title>Node19&#45;&gt;Node24</title>
<path fill="none" stroke="midnightblue" d="M962.76,-123.4C946.48,-114.11 924.96,-101.84 907.13,-91.67"/>
<polygon fill="midnightblue" stroke="midnightblue" points="908.61,-88.49 898.19,-86.58 905.14,-94.57 908.61,-88.49"/>
</g>
<!-- Node23 -->
<g id="node23" class="node">
<title>Node23</title>
<g id="a_node23"><a xlink:title=" ">
<polygon fill="none" stroke="#bfbfbf" points="1064,-0.5 1064,-19.5 1141,-19.5 1141,-0.5 1064,-0.5"/>
<text text-anchor="middle" x="1102.5" y="-7.5" font-family="Helvetica,sans-Serif" font-size="10.00">Eigen/Dense</text>
</a>
</g>
</g>
<!-- Node22&#45;&gt;Node23 -->
<g id="edge30" class="edge">
<title>Node22&#45;&gt;Node23</title>
<path fill="none" stroke="midnightblue" d="M1102.5,-61.98C1102.5,-53.58 1102.5,-40.48 1102.5,-29.66"/>
<polygon fill="midnightblue" stroke="midnightblue" points="1106,-29.51 1102.5,-19.51 1099,-29.51 1106,-29.51"/>
</g>
</g>
</svg>
