<?xml version="1.0" encoding="UTF-8" standalone="no"?>
<!DOCTYPE svg PUBLIC "-//W3C//DTD SVG 1.1//EN"
 "http://www.w3.org/Graphics/SVG/1.1/DTD/svg11.dtd">
<!-- Generated by graphviz version 2.43.0 (0)
 -->
<!-- Title: /home/runner/work/beluga/beluga/beluga/include/beluga/random.hpp Pages: 1 -->
<!--zoomable 508 -->
<svg id="main" version="1.1" xmlns="http://www.w3.org/2000/svg" xmlns:xlink="http://www.w3.org/1999/xlink" xml:space="preserve" onload="init(evt)">
<style type="text/css"><![CDATA[
.edge:hover path { stroke: red; }
.edge:hover polygon { stroke: red; fill: red; }
]]></style>
<script type="text/javascript"><![CDATA[
var edges = document.getElementsByTagName('g');
if (edges && edges.length) {
  for (var i=0;i<edges.length;i++) {
    if (edges[i].id.substr(0,4)=='edge') {
      edges[i].setAttribute('class','edge');
    }
  }
}
]]></script>
        <defs>
                <circle id="rim" cx="0" cy="0" r="7"/>
                <circle id="rim2" cx="0" cy="0" r="3.5"/>
                <g id="zoomPlus">
                        <use xlink:href="#rim" fill="#404040">
                                <set attributeName="fill" to="#808080" begin="zoomplus.mouseover" end="zoomplus.mouseout"/>
                        </use>
                        <path d="M-4,0h8M0,-4v8" fill="none" stroke="white" stroke-width="1.5" pointer-events="none"/>
                </g>
                <g id="zoomMin">
                        <use xlink:href="#rim" fill="#404040">
                                <set attributeName="fill" to="#808080" begin="zoomminus.mouseover" end="zoomminus.mouseout"/>
                        </use>
                        <path d="M-4,0h8" fill="none" stroke="white" stroke-width="1.5" pointer-events="none"/>
                </g>
                <g id="dirArrow">
                        <path fill="none" stroke="white" stroke-width="1.5" d="M0,-3.0v7 M-2.5,-0.5L0,-3.0L2.5,-0.5"/>
                </g>
               <g id="resetDef">
                       <use xlink:href="#rim2" fill="#404040">
                               <set attributeName="fill" to="#808080" begin="reset.mouseover" end="reset.mouseout"/>
                       </use>
               </g>
        </defs>

<script type="text/javascript">
var viewWidth = 1443;
var viewHeight = 508;
var sectionId = 'dynsection-0';
</script>
<script xlink:href="svgpan.js"/>
<svg id="graph" class="graph">
<g id="viewport">
<title>/home/runner/work/beluga/beluga/beluga/include/beluga/random.hpp</title>
<!-- Node1 -->
<g id="node1" class="node">
<title>Node1</title>
<g id="a_node1"><a xlink:title="Includes all Beluga random distributions.">
<polygon fill="#bfbfbf" stroke="black" points="320.5,-458.5 320.5,-499.5 465.5,-499.5 465.5,-458.5 320.5,-458.5"/>
<text text-anchor="start" x="328.5" y="-487.5" font-family="Helvetica,sans-Serif" font-size="10.00">/home/runner/work/beluga</text>
<text text-anchor="start" x="328.5" y="-476.5" font-family="Helvetica,sans-Serif" font-size="10.00">/beluga/beluga/include</text>
<text text-anchor="middle" x="393" y="-465.5" font-family="Helvetica,sans-Serif" font-size="10.00">/beluga/random.hpp</text>
</a>
</g>
</g>
<!-- Node2 -->
<g id="node2" class="node">
<title>Node2</title>
<g id="a_node2"><a xlink:href="multivariate__normal__distribution_8hpp.html" target="_top" xlink:title="Implementation of a multivariate normal distribution.">
<polygon fill="none" stroke="black" points="231.5,-391.5 231.5,-421.5 384.5,-421.5 384.5,-391.5 231.5,-391.5"/>
<text text-anchor="start" x="239.5" y="-409.5" font-family="Helvetica,sans-Serif" font-size="10.00">beluga/random/multivariate</text>
<text text-anchor="middle" x="308" y="-398.5" font-family="Helvetica,sans-Serif" font-size="10.00">_normal_distribution.hpp</text>
</a>
</g>
</g>
<!-- Node1&#45;&gt;Node2 -->
<g id="edge1" class="edge">
<title>Node1&#45;&gt;Node2</title>
<path fill="none" stroke="midnightblue" d="M369.32,-458.36C358.02,-448.99 344.49,-437.76 333.01,-428.25"/>
<polygon fill="midnightblue" stroke="midnightblue" points="335.02,-425.36 325.08,-421.67 330.55,-430.75 335.02,-425.36"/>
</g>
<!-- Node11 -->
<g id="node11" class="node">
<title>Node11</title>
<g id="a_node11"><a xlink:href="multivariate__uniform__distribution_8hpp.html" target="_top" xlink:title="Implementation of a multivariate uniform distribution for SE(2) and SE(3) spaces.">
<polygon fill="none" stroke="black" points="402.5,-391.5 402.5,-421.5 555.5,-421.5 555.5,-391.5 402.5,-391.5"/>
<text text-anchor="start" x="410.5" y="-409.5" font-family="Helvetica,sans-Serif" font-size="10.00">beluga/random/multivariate</text>
<text text-anchor="middle" x="479" y="-398.5" font-family="Helvetica,sans-Serif" font-size="10.00">_uniform_distribution.hpp</text>
</a>
</g>
</g>
<!-- Node1&#45;&gt;Node11 -->
<g id="edge10" class="edge">
<title>Node1&#45;&gt;Node11</title>
<path fill="none" stroke="midnightblue" d="M416.96,-458.36C428.39,-448.99 442.09,-437.76 453.69,-428.25"/>
<polygon fill="midnightblue" stroke="midnightblue" points="456.2,-430.72 461.71,-421.67 451.76,-425.3 456.2,-430.72"/>
</g>
<!-- Node3 -->
<g id="node3" class="node">
<title>Node3</title>
<g id="a_node3"><a xlink:title=" ">
<polygon fill="none" stroke="#bfbfbf" points="359,-330 359,-349 413,-349 413,-330 359,-330"/>
<text text-anchor="middle" x="386" y="-337" font-family="Helvetica,sans-Serif" font-size="10.00">random</text>
</a>
</g>
</g>
<!-- Node2&#45;&gt;Node3 -->
<g id="edge2" class="edge">
<title>Node2&#45;&gt;Node3</title>
<path fill="none" stroke="midnightblue" d="M324.92,-391.4C337.57,-380.86 354.83,-366.48 367.77,-355.69"/>
<polygon fill="midnightblue" stroke="midnightblue" points="370.12,-358.29 375.57,-349.19 365.64,-352.91 370.12,-358.29"/>
</g>
<!-- Node4 -->
<g id="node4" class="node">
<title>Node4</title>
<g id="a_node4"><a xlink:title=" ">
<polygon fill="none" stroke="#bfbfbf" points="295.5,-330 295.5,-349 340.5,-349 340.5,-330 295.5,-330"/>
<text text-anchor="middle" x="318" y="-337" font-family="Helvetica,sans-Serif" font-size="10.00">utility</text>
</a>
</g>
</g>
<!-- Node2&#45;&gt;Node4 -->
<g id="edge3" class="edge">
<title>Node2&#45;&gt;Node4</title>
<path fill="none" stroke="midnightblue" d="M310.17,-391.4C311.62,-381.96 313.55,-369.45 315.12,-359.19"/>
<polygon fill="midnightblue" stroke="midnightblue" points="318.6,-359.61 316.66,-349.19 311.68,-358.55 318.6,-359.61"/>
</g>
<!-- Node5 -->
<g id="node5" class="node">
<title>Node5</title>
<g id="a_node5"><a xlink:title=" ">
<polygon fill="none" stroke="#bfbfbf" points="0,-330 0,-349 106,-349 106,-330 0,-330"/>
<text text-anchor="middle" x="53" y="-337" font-family="Helvetica,sans-Serif" font-size="10.00">Eigen/Eigenvalues</text>
</a>
</g>
</g>
<!-- Node2&#45;&gt;Node5 -->
<g id="edge4" class="edge">
<title>Node2&#45;&gt;Node5</title>
<path fill="none" stroke="midnightblue" d="M252.98,-391.48C206.08,-379.52 139.59,-362.57 96.38,-351.56"/>
<polygon fill="midnightblue" stroke="midnightblue" points="97.01,-348.11 86.46,-349.03 95.28,-354.89 97.01,-348.11"/>
</g>
<!-- Node6 -->
<g id="node6" class="node">
<title>Node6</title>
<g id="a_node6"><a xlink:href="multivariate__distribution__traits_8hpp.html" target="_top" xlink:title="Implementation of multivariate distribution traits.">
<polygon fill="none" stroke="black" points="124.5,-324.5 124.5,-354.5 277.5,-354.5 277.5,-324.5 124.5,-324.5"/>
<text text-anchor="start" x="132.5" y="-342.5" font-family="Helvetica,sans-Serif" font-size="10.00">beluga/random/multivariate</text>
<text text-anchor="middle" x="201" y="-331.5" font-family="Helvetica,sans-Serif" font-size="10.00">_distribution_traits.hpp</text>
</a>
</g>
</g>
<!-- Node2&#45;&gt;Node6 -->
<g id="edge5" class="edge">
<title>Node2&#45;&gt;Node6</title>
<path fill="none" stroke="midnightblue" d="M284.78,-391.4C269.64,-382.2 249.67,-370.07 233.03,-359.95"/>
<polygon fill="midnightblue" stroke="midnightblue" points="234.54,-356.78 224.17,-354.58 230.9,-362.76 234.54,-356.78"/>
</g>
<!-- Node7 -->
<g id="node7" class="node">
<title>Node7</title>
<g id="a_node7"><a xlink:title=" ">
<polygon fill="none" stroke="#bfbfbf" points="668.5,-62 668.5,-81 737.5,-81 737.5,-62 668.5,-62"/>
<text text-anchor="middle" x="703" y="-69" font-family="Helvetica,sans-Serif" font-size="10.00">Eigen/Core</text>
</a>
</g>
</g>
<!-- Node6&#45;&gt;Node7 -->
<g id="edge6" class="edge">
<title>Node6&#45;&gt;Node7</title>
<path fill="none" stroke="midnightblue" d="M180.02,-324.47C158.14,-308.08 129.21,-280.25 146,-257 208.08,-171.04 537.54,-102.87 658.46,-80.41"/>
<polygon fill="midnightblue" stroke="midnightblue" points="659.29,-83.82 668.49,-78.56 658.02,-76.93 659.29,-83.82"/>
</g>
<!-- Node8 -->
<g id="node8" class="node">
<title>Node8</title>
<g id="a_node8"><a xlink:title=" ">
<polygon fill="none" stroke="#bfbfbf" points="265,-263 265,-282 357,-282 357,-263 265,-263"/>
<text text-anchor="middle" x="311" y="-270" font-family="Helvetica,sans-Serif" font-size="10.00">sophus/se2.hpp</text>
</a>
</g>
</g>
<!-- Node6&#45;&gt;Node8 -->
<g id="edge7" class="edge">
<title>Node6&#45;&gt;Node8</title>
<path fill="none" stroke="midnightblue" d="M224.87,-324.4C243.57,-313.34 269.44,-298.06 287.93,-287.13"/>
<polygon fill="midnightblue" stroke="midnightblue" points="289.77,-290.11 296.6,-282.01 286.21,-284.08 289.77,-290.11"/>
</g>
<!-- Node9 -->
<g id="node9" class="node">
<title>Node9</title>
<g id="a_node9"><a xlink:title=" ">
<polygon fill="none" stroke="#bfbfbf" points="375,-263 375,-282 467,-282 467,-263 375,-263"/>
<text text-anchor="middle" x="421" y="-270" font-family="Helvetica,sans-Serif" font-size="10.00">sophus/se3.hpp</text>
</a>
</g>
</g>
<!-- Node6&#45;&gt;Node9 -->
<g id="edge8" class="edge">
<title>Node6&#45;&gt;Node9</title>
<path fill="none" stroke="midnightblue" d="M248.47,-324.48C288.42,-312.67 344.84,-296 382.15,-284.98"/>
<polygon fill="midnightblue" stroke="midnightblue" points="383.54,-288.22 392.13,-282.03 381.55,-281.51 383.54,-288.22"/>
</g>
<!-- Node10 -->
<g id="node10" class="node">
<title>Node10</title>
<g id="a_node10"><a xlink:title=" ">
<polygon fill="none" stroke="#bfbfbf" points="155,-263 155,-282 247,-282 247,-263 155,-263"/>
<text text-anchor="middle" x="201" y="-270" font-family="Helvetica,sans-Serif" font-size="10.00">sophus/so3.hpp</text>
</a>
</g>
</g>
<!-- Node6&#45;&gt;Node10 -->
<g id="edge9" class="edge">
<title>Node6&#45;&gt;Node10</title>
<path fill="none" stroke="midnightblue" d="M201,-324.4C201,-315.06 201,-302.71 201,-292.52"/>
<polygon fill="midnightblue" stroke="midnightblue" points="204.5,-292.19 201,-282.19 197.5,-292.19 204.5,-292.19"/>
</g>
<!-- Node11&#45;&gt;Node3 -->
<g id="edge11" class="edge">
<title>Node11&#45;&gt;Node3</title>
<path fill="none" stroke="midnightblue" d="M458.82,-391.4C443.37,-380.6 422.14,-365.76 406.58,-354.89"/>
<polygon fill="midnightblue" stroke="midnightblue" points="408.37,-351.87 398.17,-349.01 404.36,-357.6 408.37,-351.87"/>
</g>
<!-- Node11&#45;&gt;Node8 -->
<g id="edge12" class="edge">
<title>Node11&#45;&gt;Node8</title>
<path fill="none" stroke="midnightblue" d="M472.15,-391.38C462.92,-373.6 444.97,-343.1 422,-324 400.87,-306.43 372.64,-293.69 349.93,-285.41"/>
<polygon fill="midnightblue" stroke="midnightblue" points="350.85,-282.02 340.25,-282.02 348.53,-288.63 350.85,-282.02"/>
</g>
<!-- Node11&#45;&gt;Node9 -->
<g id="edge13" class="edge">
<title>Node11&#45;&gt;Node9</title>
<path fill="none" stroke="midnightblue" d="M476.24,-391.48C472.67,-374.85 465.61,-346.56 455,-324 449.41,-312.11 441.24,-299.87 434.3,-290.41"/>
<polygon fill="midnightblue" stroke="midnightblue" points="436.99,-288.16 428.16,-282.3 431.41,-292.39 436.99,-288.16"/>
</g>
<!-- Node12 -->
<g id="node12" class="node">
<title>Node12</title>
<g id="a_node12"><a xlink:title=" ">
<polygon fill="none" stroke="#bfbfbf" points="507.5,-330 507.5,-349 602.5,-349 602.5,-330 507.5,-330"/>
<text text-anchor="middle" x="555" y="-337" font-family="Helvetica,sans-Serif" font-size="10.00">Eigen/Geometry</text>
</a>
</g>
</g>
<!-- Node11&#45;&gt;Node12 -->
<g id="edge14" class="edge">
<title>Node11&#45;&gt;Node12</title>
<path fill="none" stroke="midnightblue" d="M495.49,-391.4C507.69,-380.96 524.31,-366.75 536.88,-356"/>
<polygon fill="midnightblue" stroke="midnightblue" points="539.51,-358.35 544.83,-349.19 534.96,-353.03 539.51,-358.35"/>
</g>
<!-- Node13 -->
<g id="node13" class="node">
<title>Node13</title>
<g id="a_node13"><a xlink:href="occupancy__grid_8hpp.html" target="_top" xlink:title="Concepts and abstract implementations of occupancy grids.">
<polygon fill="none" stroke="black" points="910,-324.5 910,-354.5 1026,-354.5 1026,-324.5 910,-324.5"/>
<text text-anchor="start" x="918" y="-342.5" font-family="Helvetica,sans-Serif" font-size="10.00">beluga/sensor/data</text>
<text text-anchor="middle" x="968" y="-331.5" font-family="Helvetica,sans-Serif" font-size="10.00">/occupancy_grid.hpp</text>
</a>
</g>
</g>
<!-- Node11&#45;&gt;Node13 -->
<g id="edge15" class="edge">
<title>Node11&#45;&gt;Node13</title>
<path fill="none" stroke="midnightblue" d="M555.68,-395.31C650.14,-382.75 809.2,-361.61 899.67,-349.58"/>
<polygon fill="midnightblue" stroke="midnightblue" points="900.36,-353.02 909.81,-348.23 899.44,-346.08 900.36,-353.02"/>
</g>
<!-- Node13&#45;&gt;Node7 -->
<g id="edge41" class="edge">
<title>Node13&#45;&gt;Node7</title>
<path fill="none" stroke="midnightblue" d="M909.84,-329.18C878.07,-321.92 839.34,-309.36 810,-288 752.4,-246.07 748.67,-220.07 722,-154 713.69,-133.42 708.54,-108.38 705.73,-91.54"/>
<polygon fill="midnightblue" stroke="midnightblue" points="709.13,-90.68 704.15,-81.33 702.22,-91.75 709.13,-90.68"/>
</g>
<!-- Node14 -->
<g id="node14" class="node">
<title>Node14</title>
<g id="a_node14"><a xlink:title=" ">
<polygon fill="none" stroke="#bfbfbf" points="985,-196 985,-215 1035,-215 1035,-196 985,-196"/>
<text text-anchor="middle" x="1010" y="-203" font-family="Helvetica,sans-Serif" font-size="10.00">cstdint</text>
</a>
</g>
</g>
<!-- Node13&#45;&gt;Node14 -->
<g id="edge16" class="edge">
<title>Node13&#45;&gt;Node14</title>
<path fill="none" stroke="midnightblue" d="M978.54,-324.23C985.18,-314.51 993.36,-301.07 998,-288 1005.31,-267.41 1008.17,-242.38 1009.29,-225.53"/>
<polygon fill="midnightblue" stroke="midnightblue" points="1012.79,-225.5 1009.81,-215.33 1005.8,-225.14 1012.79,-225.5"/>
</g>
<!-- Node15 -->
<g id="node15" class="node">
<title>Node15</title>
<g id="a_node15"><a xlink:title=" ">
<polygon fill="none" stroke="#bfbfbf" points="947.5,-263 947.5,-282 988.5,-282 988.5,-263 947.5,-263"/>
<text text-anchor="middle" x="968" y="-270" font-family="Helvetica,sans-Serif" font-size="10.00">tuple</text>
</a>
</g>
</g>
<!-- Node13&#45;&gt;Node15 -->
<g id="edge17" class="edge">
<title>Node13&#45;&gt;Node15</title>
<path fill="none" stroke="midnightblue" d="M968,-324.4C968,-315.06 968,-302.71 968,-292.52"/>
<polygon fill="midnightblue" stroke="midnightblue" points="971.5,-292.19 968,-282.19 964.5,-292.19 971.5,-292.19"/>
</g>
<!-- Node16 -->
<g id="node16" class="node">
<title>Node16</title>
<g id="a_node16"><a xlink:title=" ">
<polygon fill="none" stroke="#bfbfbf" points="1039.5,-129 1039.5,-148 1086.5,-148 1086.5,-129 1039.5,-129"/>
<text text-anchor="middle" x="1063" y="-136" font-family="Helvetica,sans-Serif" font-size="10.00">vector</text>
</a>
</g>
</g>
<!-- Node13&#45;&gt;Node16 -->
<g id="edge18" class="edge">
<title>Node13&#45;&gt;Node16</title>
<path fill="none" stroke="midnightblue" d="M983.87,-324.18C993.75,-314.64 1006.22,-301.43 1015,-288 1042.22,-246.36 1055.09,-188.05 1060.19,-158.41"/>
<polygon fill="midnightblue" stroke="midnightblue" points="1063.69,-158.66 1061.82,-148.23 1056.78,-157.55 1063.69,-158.66"/>
</g>
<!-- Node17 -->
<g id="node17" class="node">
<title>Node17</title>
<g id="a_node17"><a xlink:href="linear__grid_8hpp.html" target="_top" xlink:title="Concepts and abstract implementations of linear (ie. contiguous storage) grids.">
<polygon fill="none" stroke="black" points="819,-257.5 819,-287.5 929,-287.5 929,-257.5 819,-257.5"/>
<text text-anchor="start" x="827" y="-275.5" font-family="Helvetica,sans-Serif" font-size="10.00">beluga/sensor/data</text>
<text text-anchor="middle" x="874" y="-264.5" font-family="Helvetica,sans-Serif" font-size="10.00">/linear_grid.hpp</text>
</a>
</g>
</g>
<!-- Node13&#45;&gt;Node17 -->
<g id="edge19" class="edge">
<title>Node13&#45;&gt;Node17</title>
<path fill="none" stroke="midnightblue" d="M947.6,-324.4C934.55,-315.37 917.4,-303.51 902.95,-293.52"/>
<polygon fill="midnightblue" stroke="midnightblue" points="904.57,-290.39 894.36,-287.58 900.59,-296.14 904.57,-290.39"/>
</g>
<!-- Node22 -->
<g id="node22" class="node">
<title>Node22</title>
<g id="a_node22"><a xlink:title=" ">
<polygon fill="none" stroke="#bfbfbf" points="1148,-62 1148,-81 1306,-81 1306,-62 1148,-62"/>
<text text-anchor="middle" x="1227" y="-69" font-family="Helvetica,sans-Serif" font-size="10.00">range/v3/view/transform.hpp</text>
</a>
</g>
</g>
<!-- Node13&#45;&gt;Node22 -->
<g id="edge40" class="edge">
<title>Node13&#45;&gt;Node22</title>
<path fill="none" stroke="midnightblue" d="M989.41,-324.31C1003.26,-314.73 1021.37,-301.42 1036,-288 1109.68,-220.43 1184.79,-126.93 1214.14,-89.24"/>
<polygon fill="midnightblue" stroke="midnightblue" points="1216.94,-91.34 1220.3,-81.29 1211.41,-87.06 1216.94,-91.34"/>
</g>
<!-- Node26 -->
<g id="node26" class="node">
<title>Node26</title>
<g id="a_node26"><a xlink:title=" ">
<polygon fill="none" stroke="#bfbfbf" points="1143,-257.5 1143,-287.5 1253,-287.5 1253,-257.5 1143,-257.5"/>
<text text-anchor="start" x="1151" y="-275.5" font-family="Helvetica,sans-Serif" font-size="10.00">range/v3/algorithm</text>
<text text-anchor="middle" x="1198" y="-264.5" font-family="Helvetica,sans-Serif" font-size="10.00">/any_of.hpp</text>
</a>
</g>
</g>
<!-- Node13&#45;&gt;Node26 -->
<g id="edge36" class="edge">
<title>Node13&#45;&gt;Node26</title>
<path fill="none" stroke="midnightblue" d="M1017.62,-324.48C1053.02,-314.47 1100.79,-300.97 1138.28,-290.38"/>
<polygon fill="midnightblue" stroke="midnightblue" points="1139.4,-293.7 1148.07,-287.61 1137.49,-286.96 1139.4,-293.7"/>
</g>
<!-- Node27 -->
<g id="node27" class="node">
<title>Node27</title>
<g id="a_node27"><a xlink:title=" ">
<polygon fill="none" stroke="#bfbfbf" points="1271.5,-263 1271.5,-282 1434.5,-282 1434.5,-263 1271.5,-263"/>
<text text-anchor="middle" x="1353" y="-270" font-family="Helvetica,sans-Serif" font-size="10.00">range/v3/view/enumerate.hpp</text>
</a>
</g>
</g>
<!-- Node13&#45;&gt;Node27 -->
<g id="edge37" class="edge">
<title>Node13&#45;&gt;Node27</title>
<path fill="none" stroke="midnightblue" d="M1026.06,-328.7C1097.88,-316.57 1219.58,-296.03 1292.51,-283.71"/>
<polygon fill="midnightblue" stroke="midnightblue" points="1293.19,-287.15 1302.47,-282.03 1292.03,-280.24 1293.19,-287.15"/>
</g>
<!-- Node28 -->
<g id="node28" class="node">
<title>Node28</title>
<g id="a_node28"><a xlink:title=" ">
<polygon fill="none" stroke="#bfbfbf" points="485.5,-263 485.5,-282 616.5,-282 616.5,-263 485.5,-263"/>
<text text-anchor="middle" x="551" y="-270" font-family="Helvetica,sans-Serif" font-size="10.00">range/v3/view/filter.hpp</text>
</a>
</g>
</g>
<!-- Node13&#45;&gt;Node28 -->
<g id="edge38" class="edge">
<title>Node13&#45;&gt;Node28</title>
<path fill="none" stroke="midnightblue" d="M909.78,-330.71C841.62,-321.39 725.4,-304.94 626,-288 618.64,-286.75 610.88,-285.34 603.27,-283.91"/>
<polygon fill="midnightblue" stroke="midnightblue" points="603.86,-280.46 593.38,-282.03 602.55,-287.34 603.86,-280.46"/>
</g>
<!-- Node29 -->
<g id="node29" class="node">
<title>Node29</title>
<g id="a_node29"><a xlink:title=" ">
<polygon fill="none" stroke="#bfbfbf" points="635,-263 635,-282 763,-282 763,-263 635,-263"/>
<text text-anchor="middle" x="699" y="-270" font-family="Helvetica,sans-Serif" font-size="10.00">range/v3/view/iota.hpp</text>
</a>
</g>
</g>
<!-- Node13&#45;&gt;Node29 -->
<g id="edge39" class="edge">
<title>Node13&#45;&gt;Node29</title>
<path fill="none" stroke="midnightblue" d="M909.96,-324.48C860.28,-312.47 789.75,-295.43 744.19,-284.42"/>
<polygon fill="midnightblue" stroke="midnightblue" points="744.84,-280.98 734.3,-282.03 743.19,-287.78 744.84,-280.98"/>
</g>
<!-- Node17&#45;&gt;Node7 -->
<g id="edge35" class="edge">
<title>Node17&#45;&gt;Node7</title>
<path fill="none" stroke="midnightblue" d="M844.31,-257.34C827.87,-248.49 807.82,-235.94 793,-221 753.31,-180.98 723.59,-120.21 710.45,-90.35"/>
<polygon fill="midnightblue" stroke="midnightblue" points="713.66,-88.96 706.5,-81.15 707.23,-91.72 713.66,-88.96"/>
</g>
<!-- Node17&#45;&gt;Node14 -->
<g id="edge20" class="edge">
<title>Node17&#45;&gt;Node14</title>
<path fill="none" stroke="midnightblue" d="M903.51,-257.4C927.16,-246.09 960.08,-230.36 983.03,-219.39"/>
<polygon fill="midnightblue" stroke="midnightblue" points="984.69,-222.48 992.2,-215.01 981.67,-216.16 984.69,-222.48"/>
</g>
<!-- Node17&#45;&gt;Node16 -->
<g id="edge22" class="edge">
<title>Node17&#45;&gt;Node16</title>
<path fill="none" stroke="midnightblue" d="M891.99,-257.43C904.85,-247.34 922.54,-233.4 938,-221 955,-207.36 958.07,-202.4 976,-190 995.88,-176.25 1019.68,-162.61 1037.37,-152.98"/>
<polygon fill="midnightblue" stroke="midnightblue" points="1039.35,-155.89 1046.49,-148.07 1036.03,-149.72 1039.35,-155.89"/>
</g>
<!-- Node18 -->
<g id="node18" class="node">
<title>Node18</title>
<g id="a_node18"><a xlink:title=" ">
<polygon fill="none" stroke="#bfbfbf" points="761,-129 761,-148 817,-148 817,-129 761,-129"/>
<text text-anchor="middle" x="789" y="-136" font-family="Helvetica,sans-Serif" font-size="10.00">optional</text>
</a>
</g>
</g>
<!-- Node17&#45;&gt;Node18 -->
<g id="edge21" class="edge">
<title>Node17&#45;&gt;Node18</title>
<path fill="none" stroke="midnightblue" d="M849.1,-257.43C835.64,-248.61 819.81,-236.06 810,-221 797.5,-201.82 792.44,-175.59 790.39,-158.12"/>
<polygon fill="midnightblue" stroke="midnightblue" points="793.86,-157.69 789.43,-148.07 786.89,-158.36 793.86,-157.69"/>
</g>
<!-- Node19 -->
<g id="node19" class="node">
<title>Node19</title>
<g id="a_node19"><a xlink:href="dense__grid_8hpp.html" target="_top" xlink:title="Concepts and abstract implementations of dense grids.">
<polygon fill="none" stroke="black" points="819,-190.5 819,-220.5 929,-220.5 929,-190.5 819,-190.5"/>
<text text-anchor="start" x="827" y="-208.5" font-family="Helvetica,sans-Serif" font-size="10.00">beluga/sensor/data</text>
<text text-anchor="middle" x="874" y="-197.5" font-family="Helvetica,sans-Serif" font-size="10.00">/dense_grid.hpp</text>
</a>
</g>
</g>
<!-- Node17&#45;&gt;Node19 -->
<g id="edge23" class="edge">
<title>Node17&#45;&gt;Node19</title>
<path fill="none" stroke="midnightblue" d="M874,-257.4C874,-249.64 874,-239.81 874,-230.86"/>
<polygon fill="midnightblue" stroke="midnightblue" points="877.5,-230.58 874,-220.58 870.5,-230.58 877.5,-230.58"/>
</g>
<!-- Node19&#45;&gt;Node7 -->
<g id="edge33" class="edge">
<title>Node19&#45;&gt;Node7</title>
<path fill="none" stroke="midnightblue" d="M868.9,-190.22C861.84,-172.28 847.47,-141.6 826,-123 812.46,-111.27 770.13,-95.2 738.89,-84.37"/>
<polygon fill="midnightblue" stroke="midnightblue" points="739.79,-80.97 729.19,-81.04 737.52,-87.59 739.79,-80.97"/>
</g>
<!-- Node19&#45;&gt;Node16 -->
<g id="edge25" class="edge">
<title>Node19&#45;&gt;Node16</title>
<path fill="none" stroke="midnightblue" d="M921.53,-190.48C952.66,-180.96 994.08,-167.67 1030,-154 1031.61,-153.39 1033.25,-152.74 1034.9,-152.07"/>
<polygon fill="midnightblue" stroke="midnightblue" points="1036.44,-155.22 1044.29,-148.11 1033.71,-148.77 1036.44,-155.22"/>
</g>
<!-- Node19&#45;&gt;Node18 -->
<g id="edge24" class="edge">
<title>Node19&#45;&gt;Node18</title>
<path fill="none" stroke="midnightblue" d="M855.56,-190.4C841.65,-179.76 822.61,-165.2 808.46,-154.38"/>
<polygon fill="midnightblue" stroke="midnightblue" points="810.44,-151.49 800.37,-148.19 806.19,-157.05 810.44,-151.49"/>
</g>
<!-- Node20 -->
<g id="node20" class="node">
<title>Node20</title>
<g id="a_node20"><a xlink:href="regular__grid_8hpp.html" target="_top" xlink:title="Concepts and abstract implementations of regular grids.">
<polygon fill="none" stroke="black" points="911,-123.5 911,-153.5 1021,-153.5 1021,-123.5 911,-123.5"/>
<text text-anchor="start" x="919" y="-141.5" font-family="Helvetica,sans-Serif" font-size="10.00">beluga/sensor/data</text>
<text text-anchor="middle" x="966" y="-130.5" font-family="Helvetica,sans-Serif" font-size="10.00">/regular_grid.hpp</text>
</a>
</g>
</g>
<!-- Node19&#45;&gt;Node20 -->
<g id="edge26" class="edge">
<title>Node19&#45;&gt;Node20</title>
<path fill="none" stroke="midnightblue" d="M893.96,-190.4C906.74,-181.37 923.52,-169.51 937.67,-159.52"/>
<polygon fill="midnightblue" stroke="midnightblue" points="939.93,-162.21 946.08,-153.58 935.89,-156.49 939.93,-162.21"/>
</g>
<!-- Node23 -->
<g id="node23" class="node">
<title>Node23</title>
<g id="a_node23"><a xlink:href="eigen__compatibility_8hpp_source.html" target="_top" xlink:title=" ">
<polygon fill="none" stroke="black" points="755.5,-62 755.5,-81 924.5,-81 924.5,-62 755.5,-62"/>
<text text-anchor="middle" x="840" y="-69" font-family="Helvetica,sans-Serif" font-size="10.00">beluga/eigen_compatibility.hpp</text>
</a>
</g>
</g>
<!-- Node19&#45;&gt;Node23 -->
<g id="edge34" class="edge">
<title>Node19&#45;&gt;Node23</title>
<path fill="none" stroke="midnightblue" d="M872.19,-190.49C869.91,-174.11 865.47,-146.29 859,-123 855.98,-112.11 851.58,-100.28 847.78,-90.8"/>
<polygon fill="midnightblue" stroke="midnightblue" points="850.9,-89.19 843.85,-81.28 844.44,-91.86 850.9,-89.19"/>
</g>
<!-- Node20&#45;&gt;Node7 -->
<g id="edge29" class="edge">
<title>Node20&#45;&gt;Node7</title>
<path fill="none" stroke="midnightblue" d="M910.75,-126.23C866.25,-116.8 802.24,-102.44 747,-87 743.82,-86.11 740.54,-85.14 737.26,-84.13"/>
<polygon fill="midnightblue" stroke="midnightblue" points="738.14,-80.73 727.55,-81.03 736.01,-87.4 738.14,-80.73"/>
</g>
<!-- Node21 -->
<g id="node21" class="node">
<title>Node21</title>
<g id="a_node21"><a xlink:title=" ">
<polygon fill="none" stroke="#bfbfbf" points="942.5,-62 942.5,-81 989.5,-81 989.5,-62 942.5,-62"/>
<text text-anchor="middle" x="966" y="-69" font-family="Helvetica,sans-Serif" font-size="10.00">cmath</text>
</a>
</g>
</g>
<!-- Node20&#45;&gt;Node21 -->
<g id="edge27" class="edge">
<title>Node20&#45;&gt;Node21</title>
<path fill="none" stroke="midnightblue" d="M966,-123.4C966,-114.06 966,-101.71 966,-91.52"/>
<polygon fill="midnightblue" stroke="midnightblue" points="969.5,-91.19 966,-81.19 962.5,-91.19 969.5,-91.19"/>
</g>
<!-- Node20&#45;&gt;Node22 -->
<g id="edge28" class="edge">
<title>Node20&#45;&gt;Node22</title>
<path fill="none" stroke="midnightblue" d="M1021.03,-123.79C1069.18,-111.8 1138.21,-94.61 1182.82,-83.5"/>
<polygon fill="midnightblue" stroke="midnightblue" points="1183.93,-86.83 1192.78,-81.02 1182.23,-80.04 1183.93,-86.83"/>
</g>
<!-- Node20&#45;&gt;Node23 -->
<g id="edge30" class="edge">
<title>Node20&#45;&gt;Node23</title>
<path fill="none" stroke="midnightblue" d="M938.66,-123.4C916.94,-112.19 886.8,-96.64 865.56,-85.69"/>
<polygon fill="midnightblue" stroke="midnightblue" points="866.98,-82.48 856.49,-81.01 863.77,-88.7 866.98,-82.48"/>
</g>
<!-- Node25 -->
<g id="node25" class="node">
<title>Node25</title>
<g id="a_node25"><a xlink:href="enable__self_8hpp.html" target="_top" xlink:title="Implementation of a CRTP utility to enable downcasting to the most derived class.">
<polygon fill="none" stroke="black" points="1008,-56.5 1008,-86.5 1130,-86.5 1130,-56.5 1008,-56.5"/>
<text text-anchor="start" x="1016" y="-74.5" font-family="Helvetica,sans-Serif" font-size="10.00">beluga/mixins/enable</text>
<text text-anchor="middle" x="1069" y="-63.5" font-family="Helvetica,sans-Serif" font-size="10.00">_self.hpp</text>
</a>
</g>
</g>
<!-- Node20&#45;&gt;Node25 -->
<g id="edge32" class="edge">
<title>Node20&#45;&gt;Node25</title>
<path fill="none" stroke="midnightblue" d="M988.35,-123.4C1002.93,-114.2 1022.15,-102.07 1038.17,-91.95"/>
<polygon fill="midnightblue" stroke="midnightblue" points="1040.11,-94.87 1046.69,-86.58 1036.37,-88.95 1040.11,-94.87"/>
</g>
<!-- Node24 -->
<g id="node24" class="node">
<title>Node24</title>
<g id="a_node24"><a xlink:title=" ">
<polygon fill="none" stroke="#bfbfbf" points="801.5,-0.5 801.5,-19.5 878.5,-19.5 878.5,-0.5 801.5,-0.5"/>
<text text-anchor="middle" x="840" y="-7.5" font-family="Helvetica,sans-Serif" font-size="10.00">Eigen/Dense</text>
</a>
</g>
</g>
<!-- Node23&#45;&gt;Node24 -->
<g id="edge31" class="edge">
<title>Node23&#45;&gt;Node24</title>
<path fill="none" stroke="midnightblue" d="M840,-61.98C840,-53.58 840,-40.48 840,-29.66"/>
<polygon fill="midnightblue" stroke="midnightblue" points="843.5,-29.51 840,-19.51 836.5,-29.51 843.5,-29.51"/>
</g>
</g>
</svg>
        <g id="navigator" transform="translate(0 0)" fill="#404254">
                <rect fill="#f2f5e9" fill-opacity="0.5" stroke="#606060" stroke-width=".5" x="0" y="0" width="60" height="60"/>
                <use id="zoomplus" xlink:href="#zoomPlus" x="17" y="9" onmousedown="handleZoom(evt,'in')"/>
                <use id="zoomminus" xlink:href="#zoomMin" x="42" y="9" onmousedown="handleZoom(evt,'out')"/>
                <use id="reset" xlink:href="#resetDef" x="30" y="36" onmousedown="handleReset()"/>
                <g id="arrowUp" xlink:href="#dirArrow" transform="translate(30 24)" onmousedown="handlePan(0,-1)">
                  <use xlink:href="#rim" fill="#404040">
                        <set attributeName="fill" to="#808080" begin="arrowUp.mouseover" end="arrowUp.mouseout"/>
                  </use>
                  <path fill="none" stroke="white" stroke-width="1.5" d="M0,-3.0v7 M-2.5,-0.5L0,-3.0L2.5,-0.5"/>
                </g>
                <g id="arrowRight" xlink:href="#dirArrow" transform="rotate(90) translate(36 -43)" onmousedown="handlePan(1,0)">
                  <use xlink:href="#rim" fill="#404040">
                        <set attributeName="fill" to="#808080" begin="arrowRight.mouseover" end="arrowRight.mouseout"/>
                  </use>
                  <path fill="none" stroke="white" stroke-width="1.5" d="M0,-3.0v7 M-2.5,-0.5L0,-3.0L2.5,-0.5"/>
                </g>
                <g id="arrowDown" xlink:href="#dirArrow" transform="rotate(180) translate(-30 -48)" onmousedown="handlePan(0,1)">
                  <use xlink:href="#rim" fill="#404040">
                        <set attributeName="fill" to="#808080" begin="arrowDown.mouseover" end="arrowDown.mouseout"/>
                  </use>
                  <path fill="none" stroke="white" stroke-width="1.5" d="M0,-3.0v7 M-2.5,-0.5L0,-3.0L2.5,-0.5"/>
                </g>
                <g id="arrowLeft" xlink:href="#dirArrow" transform="rotate(270) translate(-36 17)" onmousedown="handlePan(-1,0)">
                  <use xlink:href="#rim" fill="#404040">
                        <set attributeName="fill" to="#808080" begin="arrowLeft.mouseover" end="arrowLeft.mouseout"/>
                  </use>
                  <path fill="none" stroke="white" stroke-width="1.5" d="M0,-3.0v7 M-2.5,-0.5L0,-3.0L2.5,-0.5"/>
                </g>
        </g>
        <svg viewBox="0 0 15 15" width="100%" height="30px" preserveAspectRatio="xMaxYMin meet">
         <g id="arrow_out" transform="scale(0.3 0.3)">
          <a xlink:href="random_8hpp__incl_org.svg" target="_base">
           <rect id="button" ry="5" rx="5" y="6" x="6" height="38" width="38"
                fill="#f2f5e9" fill-opacity="0.5" stroke="#606060" stroke-width="1.0"/>
           <path id="arrow"
             d="M 11.500037,31.436501 C 11.940474,20.09759 22.043105,11.32322 32.158766,21.979434 L 37.068811,17.246167 C 37.068811,17.246167 37.088388,32 37.088388,32 L 22.160133,31.978069 C 22.160133,31.978069 26.997745,27.140456 26.997745,27.140456 C 18.528582,18.264221 13.291696,25.230495 11.500037,31.436501 z"
             style="fill:#404040;"/>
          </a>
         </g>
        </svg>
</svg>
