<?xml version="1.0" encoding="UTF-8" standalone="no"?>
<!DOCTYPE svg PUBLIC "-//W3C//DTD SVG 1.1//EN"
 "http://www.w3.org/Graphics/SVG/1.1/DTD/svg11.dtd">
<!-- Generated by graphviz version 2.43.0 (0)
 -->
<!-- Title: /home/runner/work/beluga/beluga/beluga/include/beluga/random.hpp Pages: 1 -->
<!--zoomable 441 -->
<svg id="main" version="1.1" xmlns="http://www.w3.org/2000/svg" xmlns:xlink="http://www.w3.org/1999/xlink" xml:space="preserve" onload="init(evt)">
<style type="text/css"><![CDATA[
.edge:hover path { stroke: red; }
.edge:hover polygon { stroke: red; fill: red; }
]]></style>
<script type="text/javascript"><![CDATA[
var edges = document.getElementsByTagName('g');
if (edges && edges.length) {
  for (var i=0;i<edges.length;i++) {
    if (edges[i].id.substr(0,4)=='edge') {
      edges[i].setAttribute('class','edge');
    }
  }
}
]]></script>
        <defs>
                <circle id="rim" cx="0" cy="0" r="7"/>
                <circle id="rim2" cx="0" cy="0" r="3.5"/>
                <g id="zoomPlus">
                        <use xlink:href="#rim" fill="#404040">
                                <set attributeName="fill" to="#808080" begin="zoomplus.mouseover" end="zoomplus.mouseout"/>
                        </use>
                        <path d="M-4,0h8M0,-4v8" fill="none" stroke="white" stroke-width="1.5" pointer-events="none"/>
                </g>
                <g id="zoomMin">
                        <use xlink:href="#rim" fill="#404040">
                                <set attributeName="fill" to="#808080" begin="zoomminus.mouseover" end="zoomminus.mouseout"/>
                        </use>
                        <path d="M-4,0h8" fill="none" stroke="white" stroke-width="1.5" pointer-events="none"/>
                </g>
                <g id="dirArrow">
                        <path fill="none" stroke="white" stroke-width="1.5" d="M0,-3.0v7 M-2.5,-0.5L0,-3.0L2.5,-0.5"/>
                </g>
               <g id="resetDef">
                       <use xlink:href="#rim2" fill="#404040">
                               <set attributeName="fill" to="#808080" begin="reset.mouseover" end="reset.mouseout"/>
                       </use>
               </g>
        </defs>

<script type="text/javascript">
var viewWidth = 957;
var viewHeight = 441;
var sectionId = 'dynsection-0';
</script>
<script xlink:href="svgpan.js"/>
<svg id="graph" class="graph">
<g id="viewport">
<title>/home/runner/work/beluga/beluga/beluga/include/beluga/random.hpp</title>
<!-- Node1 -->
<g id="node1" class="node">
<title>Node1</title>
<g id="a_node1"><a xlink:title="Includes all Beluga random distributions.">
<polygon fill="#bfbfbf" stroke="black" points="192,-391.5 192,-432.5 337,-432.5 337,-391.5 192,-391.5"/>
<text text-anchor="start" x="200" y="-420.5" font-family="Helvetica,sans-Serif" font-size="10.00">/home/runner/work/beluga</text>
<text text-anchor="start" x="200" y="-409.5" font-family="Helvetica,sans-Serif" font-size="10.00">/beluga/beluga/include</text>
<text text-anchor="middle" x="264.5" y="-398.5" font-family="Helvetica,sans-Serif" font-size="10.00">/beluga/random.hpp</text>
</a>
</g>
</g>
<!-- Node2 -->
<g id="node2" class="node">
<title>Node2</title>
<g id="a_node2"><a xlink:href="multivariate__normal__distribution_8hpp.html" target="_top" xlink:title="Implementation of a multivariate normal distribution.">
<polygon fill="none" stroke="black" points="103,-324.5 103,-354.5 256,-354.5 256,-324.5 103,-324.5"/>
<text text-anchor="start" x="111" y="-342.5" font-family="Helvetica,sans-Serif" font-size="10.00">beluga/random/multivariate</text>
<text text-anchor="middle" x="179.5" y="-331.5" font-family="Helvetica,sans-Serif" font-size="10.00">_normal_distribution.hpp</text>
</a>
</g>
</g>
<!-- Node1&#45;&gt;Node2 -->
<g id="edge1" class="edge">
<title>Node1&#45;&gt;Node2</title>
<path fill="none" stroke="midnightblue" d="M240.82,-391.36C229.52,-381.99 215.99,-370.76 204.51,-361.25"/>
<polygon fill="midnightblue" stroke="midnightblue" points="206.52,-358.36 196.58,-354.67 202.05,-363.75 206.52,-358.36"/>
</g>
<!-- Node8 -->
<g id="node8" class="node">
<title>Node8</title>
<g id="a_node8"><a xlink:href="multivariate__uniform__distribution_8hpp.html" target="_top" xlink:title="Implementation of a multivariate uniform distribution for SE(2) and SE(3) spaces.">
<polygon fill="none" stroke="black" points="277,-324.5 277,-354.5 430,-354.5 430,-324.5 277,-324.5"/>
<text text-anchor="start" x="285" y="-342.5" font-family="Helvetica,sans-Serif" font-size="10.00">beluga/random/multivariate</text>
<text text-anchor="middle" x="353.5" y="-331.5" font-family="Helvetica,sans-Serif" font-size="10.00">_uniform_distribution.hpp</text>
</a>
</g>
</g>
<!-- Node1&#45;&gt;Node8 -->
<g id="edge7" class="edge">
<title>Node1&#45;&gt;Node8</title>
<path fill="none" stroke="midnightblue" d="M289.29,-391.36C301.24,-381.89 315.57,-370.54 327.66,-360.97"/>
<polygon fill="midnightblue" stroke="midnightblue" points="329.95,-363.62 335.61,-354.67 325.6,-358.14 329.95,-363.62"/>
</g>
<!-- Node3 -->
<g id="node3" class="node">
<title>Node3</title>
<g id="a_node3"><a xlink:title=" ">
<polygon fill="none" stroke="#bfbfbf" points="234.5,-263 234.5,-282 288.5,-282 288.5,-263 234.5,-263"/>
<text text-anchor="middle" x="261.5" y="-270" font-family="Helvetica,sans-Serif" font-size="10.00">random</text>
</a>
</g>
</g>
<!-- Node2&#45;&gt;Node3 -->
<g id="edge2" class="edge">
<title>Node2&#45;&gt;Node3</title>
<path fill="none" stroke="midnightblue" d="M197.29,-324.4C210.58,-313.86 228.73,-299.48 242.34,-288.69"/>
<polygon fill="midnightblue" stroke="midnightblue" points="244.87,-291.15 250.53,-282.19 240.52,-285.66 244.87,-291.15"/>
</g>
<!-- Node4 -->
<g id="node4" class="node">
<title>Node4</title>
<g id="a_node4"><a xlink:title=" ">
<polygon fill="none" stroke="#bfbfbf" points="0,-263 0,-282 45,-282 45,-263 0,-263"/>
<text text-anchor="middle" x="22.5" y="-270" font-family="Helvetica,sans-Serif" font-size="10.00">utility</text>
</a>
</g>
</g>
<!-- Node2&#45;&gt;Node4 -->
<g id="edge3" class="edge">
<title>Node2&#45;&gt;Node4</title>
<path fill="none" stroke="midnightblue" d="M142.88,-324.45C117.62,-314.61 83.33,-300.94 53.5,-288 52.3,-287.48 51.09,-286.94 49.86,-286.4"/>
<polygon fill="midnightblue" stroke="midnightblue" points="51,-283.07 40.45,-282.11 48.1,-289.44 51,-283.07"/>
</g>
<!-- Node5 -->
<g id="node5" class="node">
<title>Node5</title>
<g id="a_node5"><a xlink:href="multivariate__distribution__traits_8hpp.html" target="_top" xlink:title="Implementation of multivariate distribution traits.">
<polygon fill="none" stroke="black" points="63,-257.5 63,-287.5 216,-287.5 216,-257.5 63,-257.5"/>
<text text-anchor="start" x="71" y="-275.5" font-family="Helvetica,sans-Serif" font-size="10.00">beluga/random/multivariate</text>
<text text-anchor="middle" x="139.5" y="-264.5" font-family="Helvetica,sans-Serif" font-size="10.00">_distribution_traits.hpp</text>
</a>
</g>
</g>
<!-- Node2&#45;&gt;Node5 -->
<g id="edge4" class="edge">
<title>Node2&#45;&gt;Node5</title>
<path fill="none" stroke="midnightblue" d="M170.82,-324.4C165.74,-316.13 159.2,-305.51 153.41,-296.1"/>
<polygon fill="midnightblue" stroke="midnightblue" points="156.38,-294.26 148.16,-287.58 150.42,-297.93 156.38,-294.26"/>
</g>
<!-- Node6 -->
<g id="node6" class="node">
<title>Node6</title>
<g id="a_node6"><a xlink:title=" ">
<polygon fill="none" stroke="#bfbfbf" points="461,-0.5 461,-19.5 530,-19.5 530,-0.5 461,-0.5"/>
<text text-anchor="middle" x="495.5" y="-7.5" font-family="Helvetica,sans-Serif" font-size="10.00">Eigen/Core</text>
</a>
</g>
</g>
<!-- Node5&#45;&gt;Node6 -->
<g id="edge5" class="edge">
<title>Node5&#45;&gt;Node6</title>
<path fill="none" stroke="midnightblue" d="M130.76,-257.4C121.48,-240.45 109.66,-211.6 121.5,-190 188.26,-68.2 366.85,-28.32 450.77,-16.06"/>
<polygon fill="midnightblue" stroke="midnightblue" points="451.34,-19.52 460.76,-14.67 450.37,-12.58 451.34,-19.52"/>
</g>
<!-- Node7 -->
<g id="node7" class="node">
<title>Node7</title>
<g id="a_node7"><a xlink:title=" ">
<polygon fill="none" stroke="#bfbfbf" points="130.5,-196 130.5,-215 222.5,-215 222.5,-196 130.5,-196"/>
<text text-anchor="middle" x="176.5" y="-203" font-family="Helvetica,sans-Serif" font-size="10.00">sophus/se2.hpp</text>
</a>
</g>
</g>
<!-- Node5&#45;&gt;Node7 -->
<g id="edge6" class="edge">
<title>Node5&#45;&gt;Node7</title>
<path fill="none" stroke="midnightblue" d="M147.53,-257.4C153.13,-247.56 160.63,-234.38 166.6,-223.89"/>
<polygon fill="midnightblue" stroke="midnightblue" points="169.65,-225.62 171.55,-215.19 163.56,-222.15 169.65,-225.62"/>
</g>
<!-- Node8&#45;&gt;Node3 -->
<g id="edge8" class="edge">
<title>Node8&#45;&gt;Node3</title>
<path fill="none" stroke="midnightblue" d="M333.54,-324.4C318.25,-313.6 297.25,-298.76 281.86,-287.89"/>
<polygon fill="midnightblue" stroke="midnightblue" points="283.73,-284.92 273.54,-282.01 279.69,-290.64 283.73,-284.92"/>
</g>
<!-- Node8&#45;&gt;Node7 -->
<g id="edge9" class="edge">
<title>Node8&#45;&gt;Node7</title>
<path fill="none" stroke="midnightblue" d="M346.93,-324.26C338.02,-306.36 320.56,-275.72 297.5,-257 274.98,-238.71 244.9,-226.12 220.36,-218.08"/>
<polygon fill="midnightblue" stroke="midnightblue" points="221.16,-214.66 210.57,-215.01 219.06,-221.34 221.16,-214.66"/>
</g>
<!-- Node9 -->
<g id="node9" class="node">
<title>Node9</title>
<g id="a_node9"><a xlink:title=" ">
<polygon fill="none" stroke="#bfbfbf" points="344.5,-263 344.5,-282 436.5,-282 436.5,-263 344.5,-263"/>
<text text-anchor="middle" x="390.5" y="-270" font-family="Helvetica,sans-Serif" font-size="10.00">sophus/se3.hpp</text>
</a>
</g>
</g>
<!-- Node8&#45;&gt;Node9 -->
<g id="edge10" class="edge">
<title>Node8&#45;&gt;Node9</title>
<path fill="none" stroke="midnightblue" d="M361.53,-324.4C367.13,-314.56 374.63,-301.38 380.6,-290.89"/>
<polygon fill="midnightblue" stroke="midnightblue" points="383.65,-292.62 385.55,-282.19 377.56,-289.15 383.65,-292.62"/>
</g>
<!-- Node10 -->
<g id="node10" class="node">
<title>Node10</title>
<g id="a_node10"><a xlink:title=" ">
<polygon fill="none" stroke="#bfbfbf" points="455,-263 455,-282 550,-282 550,-263 455,-263"/>
<text text-anchor="middle" x="502.5" y="-270" font-family="Helvetica,sans-Serif" font-size="10.00">Eigen/Geometry</text>
</a>
</g>
</g>
<!-- Node8&#45;&gt;Node10 -->
<g id="edge11" class="edge">
<title>Node8&#45;&gt;Node10</title>
<path fill="none" stroke="midnightblue" d="M385.83,-324.4C411.97,-312.99 448.45,-297.08 473.62,-286.1"/>
<polygon fill="midnightblue" stroke="midnightblue" points="475.23,-289.21 483,-282.01 472.43,-282.8 475.23,-289.21"/>
</g>
<!-- Node11 -->
<g id="node11" class="node">
<title>Node11</title>
<g id="a_node11"><a xlink:href="occupancy__grid_8hpp.html" target="_top" xlink:title="Concepts and abstract implementations of occupancy grids.">
<polygon fill="none" stroke="black" points="606.5,-257.5 606.5,-287.5 722.5,-287.5 722.5,-257.5 606.5,-257.5"/>
<text text-anchor="start" x="614.5" y="-275.5" font-family="Helvetica,sans-Serif" font-size="10.00">beluga/sensor/data</text>
<text text-anchor="middle" x="664.5" y="-264.5" font-family="Helvetica,sans-Serif" font-size="10.00">/occupancy_grid.hpp</text>
</a>
</g>
</g>
<!-- Node8&#45;&gt;Node11 -->
<g id="edge12" class="edge">
<title>Node8&#45;&gt;Node11</title>
<path fill="none" stroke="midnightblue" d="M420.6,-324.48C472.6,-313.61 544.36,-298.61 596.57,-287.7"/>
<polygon fill="midnightblue" stroke="midnightblue" points="597.34,-291.11 606.41,-285.64 595.91,-284.26 597.34,-291.11"/>
</g>
<!-- Node11&#45;&gt;Node6 -->
<g id="edge33" class="edge">
<title>Node11&#45;&gt;Node6</title>
<path fill="none" stroke="midnightblue" d="M606.48,-263.43C590.9,-261.3 574.06,-259.03 558.5,-257 494.33,-248.61 312.34,-269.51 269.5,-221 197.08,-139 384.11,-54.16 462.67,-23.22"/>
<polygon fill="midnightblue" stroke="midnightblue" points="464.07,-26.43 472.12,-19.55 461.53,-19.9 464.07,-26.43"/>
</g>
<!-- Node12 -->
<g id="node12" class="node">
<title>Node12</title>
<g id="a_node12"><a xlink:title=" ">
<polygon fill="none" stroke="#bfbfbf" points="745.5,-129 745.5,-148 795.5,-148 795.5,-129 745.5,-129"/>
<text text-anchor="middle" x="770.5" y="-136" font-family="Helvetica,sans-Serif" font-size="10.00">cstdint</text>
</a>
</g>
</g>
<!-- Node11&#45;&gt;Node12 -->
<g id="edge13" class="edge">
<title>Node11&#45;&gt;Node12</title>
<path fill="none" stroke="midnightblue" d="M686.94,-257.37C700.23,-248.2 716.71,-235.31 728.5,-221 744.51,-201.57 756.77,-175.04 763.8,-157.6"/>
<polygon fill="midnightblue" stroke="midnightblue" points="767.15,-158.65 767.49,-148.06 760.62,-156.12 767.15,-158.65"/>
</g>
<!-- Node13 -->
<g id="node13" class="node">
<title>Node13</title>
<g id="a_node13"><a xlink:title=" ">
<polygon fill="none" stroke="#bfbfbf" points="776,-196 776,-215 817,-215 817,-196 776,-196"/>
<text text-anchor="middle" x="796.5" y="-203" font-family="Helvetica,sans-Serif" font-size="10.00">tuple</text>
</a>
</g>
</g>
<!-- Node11&#45;&gt;Node13 -->
<g id="edge14" class="edge">
<title>Node11&#45;&gt;Node13</title>
<path fill="none" stroke="midnightblue" d="M693.14,-257.4C716,-246.14 747.76,-230.5 770.02,-219.54"/>
<polygon fill="midnightblue" stroke="midnightblue" points="771.8,-222.56 779.22,-215.01 768.71,-216.28 771.8,-222.56"/>
</g>
<!-- Node14 -->
<g id="node14" class="node">
<title>Node14</title>
<g id="a_node14"><a xlink:title=" ">
<polygon fill="none" stroke="#bfbfbf" points="764,-62 764,-81 811,-81 811,-62 764,-62"/>
<text text-anchor="middle" x="787.5" y="-69" font-family="Helvetica,sans-Serif" font-size="10.00">vector</text>
</a>
</g>
</g>
<!-- Node11&#45;&gt;Node14 -->
<g id="edge15" class="edge">
<title>Node11&#45;&gt;Node14</title>
<path fill="none" stroke="midnightblue" d="M722.71,-269.68C758.6,-265.18 802.09,-252.88 825.5,-221 855.21,-180.55 820.52,-119.11 800.2,-89.55"/>
<polygon fill="midnightblue" stroke="midnightblue" points="802.86,-87.26 794.2,-81.15 797.16,-91.32 802.86,-87.26"/>
</g>
<!-- Node15 -->
<g id="node15" class="node">
<title>Node15</title>
<g id="a_node15"><a xlink:href="linear__grid_8hpp.html" target="_top" xlink:title="Concepts and abstract implementations of linear (ie. contiguous storage) grids.">
<polygon fill="none" stroke="black" points="609.5,-190.5 609.5,-220.5 719.5,-220.5 719.5,-190.5 609.5,-190.5"/>
<text text-anchor="start" x="617.5" y="-208.5" font-family="Helvetica,sans-Serif" font-size="10.00">beluga/sensor/data</text>
<text text-anchor="middle" x="664.5" y="-197.5" font-family="Helvetica,sans-Serif" font-size="10.00">/linear_grid.hpp</text>
</a>
</g>
</g>
<!-- Node11&#45;&gt;Node15 -->
<g id="edge16" class="edge">
<title>Node11&#45;&gt;Node15</title>
<path fill="none" stroke="midnightblue" d="M664.5,-257.4C664.5,-249.64 664.5,-239.81 664.5,-230.86"/>
<polygon fill="midnightblue" stroke="midnightblue" points="668,-230.58 664.5,-220.58 661,-230.58 668,-230.58"/>
</g>
<!-- Node21 -->
<g id="node21" class="node">
<title>Node21</title>
<g id="a_node21"><a xlink:title=" ">
<polygon fill="none" stroke="#bfbfbf" points="790.5,-0.5 790.5,-19.5 948.5,-19.5 948.5,-0.5 790.5,-0.5"/>
<text text-anchor="middle" x="869.5" y="-7.5" font-family="Helvetica,sans-Serif" font-size="10.00">range/v3/view/transform.hpp</text>
</a>
</g>
</g>
<!-- Node11&#45;&gt;Node21 -->
<g id="edge32" class="edge">
<title>Node11&#45;&gt;Node21</title>
<path fill="none" stroke="midnightblue" d="M722.8,-262.44C769.41,-253.94 829.51,-239.74 845.5,-221 892.74,-165.62 881.18,-69.99 873.58,-29.73"/>
<polygon fill="midnightblue" stroke="midnightblue" points="877.01,-29.02 871.6,-19.92 870.15,-30.41 877.01,-29.02"/>
</g>
<!-- Node22 -->
<g id="node22" class="node">
<title>Node22</title>
<g id="a_node22"><a xlink:title=" ">
<polygon fill="none" stroke="#bfbfbf" points="279,-196 279,-215 442,-215 442,-196 279,-196"/>
<text text-anchor="middle" x="360.5" y="-203" font-family="Helvetica,sans-Serif" font-size="10.00">range/v3/view/enumerate.hpp</text>
</a>
</g>
</g>
<!-- Node11&#45;&gt;Node22 -->
<g id="edge30" class="edge">
<title>Node11&#45;&gt;Node22</title>
<path fill="none" stroke="midnightblue" d="M606.25,-259.04C549.56,-246.92 464.33,-228.7 410.6,-217.21"/>
<polygon fill="midnightblue" stroke="midnightblue" points="411.13,-213.75 400.62,-215.08 409.66,-220.59 411.13,-213.75"/>
</g>
<!-- Node23 -->
<g id="node23" class="node">
<title>Node23</title>
<g id="a_node23"><a xlink:title=" ">
<polygon fill="none" stroke="#bfbfbf" points="460,-196 460,-215 591,-215 591,-196 460,-196"/>
<text text-anchor="middle" x="525.5" y="-203" font-family="Helvetica,sans-Serif" font-size="10.00">range/v3/view/filter.hpp</text>
</a>
</g>
</g>
<!-- Node11&#45;&gt;Node23 -->
<g id="edge31" class="edge">
<title>Node11&#45;&gt;Node23</title>
<path fill="none" stroke="midnightblue" d="M634.34,-257.4C610.06,-246.04 576.22,-230.22 552.75,-219.24"/>
<polygon fill="midnightblue" stroke="midnightblue" points="554.23,-216.07 543.69,-215.01 551.27,-222.41 554.23,-216.07"/>
</g>
<!-- Node15&#45;&gt;Node6 -->
<g id="edge29" class="edge">
<title>Node15&#45;&gt;Node6</title>
<path fill="none" stroke="midnightblue" d="M616.49,-190.46C595.07,-182.39 570.63,-170.53 552.5,-154 515.72,-120.47 502.29,-60.06 497.7,-29.61"/>
<polygon fill="midnightblue" stroke="midnightblue" points="501.14,-28.97 496.34,-19.53 494.21,-29.91 501.14,-28.97"/>
</g>
<!-- Node15&#45;&gt;Node12 -->
<g id="edge17" class="edge">
<title>Node15&#45;&gt;Node12</title>
<path fill="none" stroke="midnightblue" d="M687.5,-190.4C705.44,-179.39 730.22,-164.2 748.02,-153.28"/>
<polygon fill="midnightblue" stroke="midnightblue" points="749.93,-156.22 756.63,-148.01 746.27,-150.25 749.93,-156.22"/>
</g>
<!-- Node15&#45;&gt;Node14 -->
<g id="edge19" class="edge">
<title>Node15&#45;&gt;Node14</title>
<path fill="none" stroke="midnightblue" d="M676.45,-190.4C690.52,-173.95 714.72,-146.06 736.5,-123 747.71,-111.14 760.8,-98.19 770.91,-88.38"/>
<polygon fill="midnightblue" stroke="midnightblue" points="773.52,-90.72 778.29,-81.26 768.66,-85.68 773.52,-90.72"/>
</g>
<!-- Node16 -->
<g id="node16" class="node">
<title>Node16</title>
<g id="a_node16"><a xlink:title=" ">
<polygon fill="none" stroke="#bfbfbf" points="523.5,-62 523.5,-81 579.5,-81 579.5,-62 523.5,-62"/>
<text text-anchor="middle" x="551.5" y="-69" font-family="Helvetica,sans-Serif" font-size="10.00">optional</text>
</a>
</g>
</g>
<!-- Node15&#45;&gt;Node16 -->
<g id="edge18" class="edge">
<title>Node15&#45;&gt;Node16</title>
<path fill="none" stroke="midnightblue" d="M621.19,-190.39C603.03,-182.41 583.23,-170.62 570.5,-154 556.52,-135.74 552.57,-108.92 551.58,-91.09"/>
<polygon fill="midnightblue" stroke="midnightblue" points="555.08,-90.97 551.29,-81.08 548.08,-91.18 555.08,-90.97"/>
</g>
<!-- Node17 -->
<g id="node17" class="node">
<title>Node17</title>
<g id="a_node17"><a xlink:href="dense__grid_8hpp.html" target="_top" xlink:title="Concepts and abstract implementations of dense grids.">
<polygon fill="none" stroke="black" points="579.5,-123.5 579.5,-153.5 689.5,-153.5 689.5,-123.5 579.5,-123.5"/>
<text text-anchor="start" x="587.5" y="-141.5" font-family="Helvetica,sans-Serif" font-size="10.00">beluga/sensor/data</text>
<text text-anchor="middle" x="634.5" y="-130.5" font-family="Helvetica,sans-Serif" font-size="10.00">/dense_grid.hpp</text>
</a>
</g>
</g>
<!-- Node15&#45;&gt;Node17 -->
<g id="edge20" class="edge">
<title>Node15&#45;&gt;Node17</title>
<path fill="none" stroke="midnightblue" d="M657.99,-190.4C654.26,-182.3 649.47,-171.94 645.2,-162.69"/>
<polygon fill="midnightblue" stroke="midnightblue" points="648.37,-161.19 641,-153.58 642.01,-164.12 648.37,-161.19"/>
</g>
<!-- Node17&#45;&gt;Node6 -->
<g id="edge28" class="edge">
<title>Node17&#45;&gt;Node6</title>
<path fill="none" stroke="midnightblue" d="M629.59,-123.42C622.8,-105.69 608.99,-75.24 588.5,-56 572.87,-41.33 551.56,-30.55 533.29,-23.22"/>
<polygon fill="midnightblue" stroke="midnightblue" points="534.37,-19.89 523.78,-19.61 531.88,-26.43 534.37,-19.89"/>
</g>
<!-- Node17&#45;&gt;Node14 -->
<g id="edge22" class="edge">
<title>Node17&#45;&gt;Node14</title>
<path fill="none" stroke="midnightblue" d="M668.18,-123.49C692.27,-113.43 725.43,-99.5 754.5,-87 755.87,-86.41 757.26,-85.81 758.67,-85.2"/>
<polygon fill="midnightblue" stroke="midnightblue" points="760.21,-88.34 767.98,-81.14 757.41,-81.93 760.21,-88.34"/>
</g>
<!-- Node17&#45;&gt;Node16 -->
<g id="edge21" class="edge">
<title>Node17&#45;&gt;Node16</title>
<path fill="none" stroke="midnightblue" d="M616.49,-123.4C602.91,-112.76 584.32,-98.2 570.5,-87.38"/>
<polygon fill="midnightblue" stroke="midnightblue" points="572.63,-84.6 562.6,-81.19 568.32,-90.12 572.63,-84.6"/>
</g>
<!-- Node18 -->
<g id="node18" class="node">
<title>Node18</title>
<g id="a_node18"><a xlink:href="regular__grid_8hpp.html" target="_top" xlink:title="Concepts and abstract implementations of regular grids.">
<polygon fill="none" stroke="black" points="635.5,-56.5 635.5,-86.5 745.5,-86.5 745.5,-56.5 635.5,-56.5"/>
<text text-anchor="start" x="643.5" y="-74.5" font-family="Helvetica,sans-Serif" font-size="10.00">beluga/sensor/data</text>
<text text-anchor="middle" x="690.5" y="-63.5" font-family="Helvetica,sans-Serif" font-size="10.00">/regular_grid.hpp</text>
</a>
</g>
</g>
<!-- Node17&#45;&gt;Node18 -->
<g id="edge23" class="edge">
<title>Node17&#45;&gt;Node18</title>
<path fill="none" stroke="midnightblue" d="M646.65,-123.4C653.99,-114.88 663.49,-103.85 671.78,-94.23"/>
<polygon fill="midnightblue" stroke="midnightblue" points="674.5,-96.44 678.37,-86.58 669.19,-91.87 674.5,-96.44"/>
</g>
<!-- Node18&#45;&gt;Node6 -->
<g id="edge27" class="edge">
<title>Node18&#45;&gt;Node6</title>
<path fill="none" stroke="midnightblue" d="M644.29,-56.4C610.45,-46.07 565.08,-32.23 533.37,-22.56"/>
<polygon fill="midnightblue" stroke="midnightblue" points="534.18,-19.14 523.59,-19.57 532.13,-25.84 534.18,-19.14"/>
</g>
<!-- Node19 -->
<g id="node19" class="node">
<title>Node19</title>
<g id="a_node19"><a xlink:title=" ">
<polygon fill="none" stroke="#bfbfbf" points="713,-0.5 713,-19.5 760,-19.5 760,-0.5 713,-0.5"/>
<text text-anchor="middle" x="736.5" y="-7.5" font-family="Helvetica,sans-Serif" font-size="10.00">cmath</text>
</a>
</g>
</g>
<!-- Node18&#45;&gt;Node19 -->
<g id="edge24" class="edge">
<title>Node18&#45;&gt;Node19</title>
<path fill="none" stroke="midnightblue" d="M701.4,-56.4C708.09,-47.75 716.68,-36.64 723.68,-27.58"/>
<polygon fill="midnightblue" stroke="midnightblue" points="726.46,-29.71 729.81,-19.66 720.92,-25.43 726.46,-29.71"/>
</g>
<!-- Node20 -->
<g id="node20" class="node">
<title>Node20</title>
<g id="a_node20"><a xlink:href="ciabatta_8hpp_source.html" target="_top" xlink:title=" ">
<polygon fill="none" stroke="black" points="574.5,-0.5 574.5,-19.5 694.5,-19.5 694.5,-0.5 574.5,-0.5"/>
<text text-anchor="middle" x="634.5" y="-7.5" font-family="Helvetica,sans-Serif" font-size="10.00">ciabatta/ciabatta.hpp</text>
</a>
</g>
</g>
<!-- Node18&#45;&gt;Node20 -->
<g id="edge25" class="edge">
<title>Node18&#45;&gt;Node20</title>
<path fill="none" stroke="midnightblue" d="M677.23,-56.4C668.92,-47.58 658.2,-36.18 649.58,-27.02"/>
<polygon fill="midnightblue" stroke="midnightblue" points="652.05,-24.54 642.65,-19.66 646.95,-29.34 652.05,-24.54"/>
</g>
<!-- Node18&#45;&gt;Node21 -->
<g id="edge26" class="edge">
<title>Node18&#45;&gt;Node21</title>
<path fill="none" stroke="midnightblue" d="M732.92,-56.4C763.72,-46.16 804.91,-32.47 833.98,-22.81"/>
<polygon fill="midnightblue" stroke="midnightblue" points="835.33,-26.05 843.72,-19.57 833.12,-19.4 835.33,-26.05"/>
</g>
</g>
</svg>
        <g id="navigator" transform="translate(0 0)" fill="#404254">
                <rect fill="#f2f5e9" fill-opacity="0.5" stroke="#606060" stroke-width=".5" x="0" y="0" width="60" height="60"/>
                <use id="zoomplus" xlink:href="#zoomPlus" x="17" y="9" onmousedown="handleZoom(evt,'in')"/>
                <use id="zoomminus" xlink:href="#zoomMin" x="42" y="9" onmousedown="handleZoom(evt,'out')"/>
                <use id="reset" xlink:href="#resetDef" x="30" y="36" onmousedown="handleReset()"/>
                <g id="arrowUp" xlink:href="#dirArrow" transform="translate(30 24)" onmousedown="handlePan(0,-1)">
                  <use xlink:href="#rim" fill="#404040">
                        <set attributeName="fill" to="#808080" begin="arrowUp.mouseover" end="arrowUp.mouseout"/>
                  </use>
                  <path fill="none" stroke="white" stroke-width="1.5" d="M0,-3.0v7 M-2.5,-0.5L0,-3.0L2.5,-0.5"/>
                </g>
                <g id="arrowRight" xlink:href="#dirArrow" transform="rotate(90) translate(36 -43)" onmousedown="handlePan(1,0)">
                  <use xlink:href="#rim" fill="#404040">
                        <set attributeName="fill" to="#808080" begin="arrowRight.mouseover" end="arrowRight.mouseout"/>
                  </use>
                  <path fill="none" stroke="white" stroke-width="1.5" d="M0,-3.0v7 M-2.5,-0.5L0,-3.0L2.5,-0.5"/>
                </g>
                <g id="arrowDown" xlink:href="#dirArrow" transform="rotate(180) translate(-30 -48)" onmousedown="handlePan(0,1)">
                  <use xlink:href="#rim" fill="#404040">
                        <set attributeName="fill" to="#808080" begin="arrowDown.mouseover" end="arrowDown.mouseout"/>
                  </use>
                  <path fill="none" stroke="white" stroke-width="1.5" d="M0,-3.0v7 M-2.5,-0.5L0,-3.0L2.5,-0.5"/>
                </g>
                <g id="arrowLeft" xlink:href="#dirArrow" transform="rotate(270) translate(-36 17)" onmousedown="handlePan(-1,0)">
                  <use xlink:href="#rim" fill="#404040">
                        <set attributeName="fill" to="#808080" begin="arrowLeft.mouseover" end="arrowLeft.mouseout"/>
                  </use>
                  <path fill="none" stroke="white" stroke-width="1.5" d="M0,-3.0v7 M-2.5,-0.5L0,-3.0L2.5,-0.5"/>
                </g>
        </g>
        <svg viewBox="0 0 15 15" width="100%" height="30px" preserveAspectRatio="xMaxYMin meet">
         <g id="arrow_out" transform="scale(0.3 0.3)">
          <a xlink:href="random_8hpp__incl_org.svg" target="_base">
           <rect id="button" ry="5" rx="5" y="6" x="6" height="38" width="38"
                fill="#f2f5e9" fill-opacity="0.5" stroke="#606060" stroke-width="1.0"/>
           <path id="arrow"
             d="M 11.500037,31.436501 C 11.940474,20.09759 22.043105,11.32322 32.158766,21.979434 L 37.068811,17.246167 C 37.068811,17.246167 37.088388,32 37.088388,32 L 22.160133,31.978069 C 22.160133,31.978069 26.997745,27.140456 26.997745,27.140456 C 18.528582,18.264221 13.291696,25.230495 11.500037,31.436501 z"
             style="fill:#404040;"/>
          </a>
         </g>
        </svg>
</svg>
