<?xml version="1.0" encoding="UTF-8" standalone="no"?>
<!DOCTYPE svg PUBLIC "-//W3C//DTD SVG 1.1//EN"
 "http://www.w3.org/Graphics/SVG/1.1/DTD/svg11.dtd">
<!-- Generated by graphviz version 2.43.0 (0)
 -->
<!-- Title: /home/runner/work/beluga/beluga/beluga/include/beluga/random.hpp Pages: 1 -->
<svg width="1026pt" height="508pt"
 viewBox="0.00 0.00 1026.00 508.00" xmlns="http://www.w3.org/2000/svg" xmlns:xlink="http://www.w3.org/1999/xlink">
<g id="graph0" class="graph" transform="scale(1 1) rotate(0) translate(4 504)">
<title>/home/runner/work/beluga/beluga/beluga/include/beluga/random.hpp</title>
<!-- Node1 -->
<g id="node1" class="node">
<title>Node1</title>
<g id="a_node1"><a xlink:title="Includes all Beluga random distributions.">
<polygon fill="#bfbfbf" stroke="black" points="193,-458.5 193,-499.5 338,-499.5 338,-458.5 193,-458.5"/>
<text text-anchor="start" x="201" y="-487.5" font-family="Helvetica,sans-Serif" font-size="10.00">/home/runner/work/beluga</text>
<text text-anchor="start" x="201" y="-476.5" font-family="Helvetica,sans-Serif" font-size="10.00">/beluga/beluga/include</text>
<text text-anchor="middle" x="265.5" y="-465.5" font-family="Helvetica,sans-Serif" font-size="10.00">/beluga/random.hpp</text>
</a>
</g>
</g>
<!-- Node2 -->
<g id="node2" class="node">
<title>Node2</title>
<g id="a_node2"><a xlink:href="multivariate__normal__distribution_8hpp.html" target="_top" xlink:title="Implementation of a multivariate normal distribution.">
<polygon fill="none" stroke="black" points="104,-391.5 104,-421.5 257,-421.5 257,-391.5 104,-391.5"/>
<text text-anchor="start" x="112" y="-409.5" font-family="Helvetica,sans-Serif" font-size="10.00">beluga/random/multivariate</text>
<text text-anchor="middle" x="180.5" y="-398.5" font-family="Helvetica,sans-Serif" font-size="10.00">_normal_distribution.hpp</text>
</a>
</g>
</g>
<!-- Node1&#45;&gt;Node2 -->
<g id="edge1" class="edge">
<title>Node1&#45;&gt;Node2</title>
<path fill="none" stroke="midnightblue" d="M241.82,-458.36C230.52,-448.99 216.99,-437.76 205.51,-428.25"/>
<polygon fill="midnightblue" stroke="midnightblue" points="207.52,-425.36 197.58,-421.67 203.05,-430.75 207.52,-425.36"/>
</g>
<!-- Node10 -->
<g id="node10" class="node">
<title>Node10</title>
<g id="a_node10"><a xlink:href="multivariate__uniform__distribution_8hpp.html" target="_top" xlink:title="Implementation of a multivariate uniform distribution for SE(2) and SE(3) spaces.">
<polygon fill="none" stroke="black" points="278,-391.5 278,-421.5 431,-421.5 431,-391.5 278,-391.5"/>
<text text-anchor="start" x="286" y="-409.5" font-family="Helvetica,sans-Serif" font-size="10.00">beluga/random/multivariate</text>
<text text-anchor="middle" x="354.5" y="-398.5" font-family="Helvetica,sans-Serif" font-size="10.00">_uniform_distribution.hpp</text>
</a>
</g>
</g>
<!-- Node1&#45;&gt;Node10 -->
<g id="edge9" class="edge">
<title>Node1&#45;&gt;Node10</title>
<path fill="none" stroke="midnightblue" d="M290.29,-458.36C302.24,-448.89 316.57,-437.54 328.66,-427.97"/>
<polygon fill="midnightblue" stroke="midnightblue" points="330.95,-430.62 336.61,-421.67 326.6,-425.14 330.95,-430.62"/>
</g>
<!-- Node3 -->
<g id="node3" class="node">
<title>Node3</title>
<g id="a_node3"><a xlink:title=" ">
<polygon fill="none" stroke="#bfbfbf" points="234.5,-330 234.5,-349 288.5,-349 288.5,-330 234.5,-330"/>
<text text-anchor="middle" x="261.5" y="-337" font-family="Helvetica,sans-Serif" font-size="10.00">random</text>
</a>
</g>
</g>
<!-- Node2&#45;&gt;Node3 -->
<g id="edge2" class="edge">
<title>Node2&#45;&gt;Node3</title>
<path fill="none" stroke="midnightblue" d="M198.08,-391.4C211.21,-380.86 229.13,-366.48 242.57,-355.69"/>
<polygon fill="midnightblue" stroke="midnightblue" points="245.06,-358.18 250.67,-349.19 240.68,-352.72 245.06,-358.18"/>
</g>
<!-- Node4 -->
<g id="node4" class="node">
<title>Node4</title>
<g id="a_node4"><a xlink:title=" ">
<polygon fill="none" stroke="#bfbfbf" points="0,-330 0,-349 45,-349 45,-330 0,-330"/>
<text text-anchor="middle" x="22.5" y="-337" font-family="Helvetica,sans-Serif" font-size="10.00">utility</text>
</a>
</g>
</g>
<!-- Node2&#45;&gt;Node4 -->
<g id="edge3" class="edge">
<title>Node2&#45;&gt;Node4</title>
<path fill="none" stroke="midnightblue" d="M143.58,-391.48C118.11,-381.65 83.56,-367.99 53.5,-355 52.3,-354.48 51.08,-353.95 49.86,-353.4"/>
<polygon fill="midnightblue" stroke="midnightblue" points="51,-350.08 40.45,-349.12 48.1,-356.45 51,-350.08"/>
</g>
<!-- Node5 -->
<g id="node5" class="node">
<title>Node5</title>
<g id="a_node5"><a xlink:href="multivariate__distribution__traits_8hpp.html" target="_top" xlink:title="Implementation of multivariate distribution traits.">
<polygon fill="none" stroke="black" points="63,-324.5 63,-354.5 216,-354.5 216,-324.5 63,-324.5"/>
<text text-anchor="start" x="71" y="-342.5" font-family="Helvetica,sans-Serif" font-size="10.00">beluga/random/multivariate</text>
<text text-anchor="middle" x="139.5" y="-331.5" font-family="Helvetica,sans-Serif" font-size="10.00">_distribution_traits.hpp</text>
</a>
</g>
</g>
<!-- Node2&#45;&gt;Node5 -->
<g id="edge4" class="edge">
<title>Node2&#45;&gt;Node5</title>
<path fill="none" stroke="midnightblue" d="M171.6,-391.4C166.39,-383.13 159.69,-372.51 153.76,-363.1"/>
<polygon fill="midnightblue" stroke="midnightblue" points="156.67,-361.17 148.38,-354.58 150.75,-364.9 156.67,-361.17"/>
</g>
<!-- Node6 -->
<g id="node6" class="node">
<title>Node6</title>
<g id="a_node6"><a xlink:title=" ">
<polygon fill="none" stroke="#bfbfbf" points="380,-62 380,-81 449,-81 449,-62 380,-62"/>
<text text-anchor="middle" x="414.5" y="-69" font-family="Helvetica,sans-Serif" font-size="10.00">Eigen/Core</text>
</a>
</g>
</g>
<!-- Node5&#45;&gt;Node6 -->
<g id="edge5" class="edge">
<title>Node5&#45;&gt;Node6</title>
<path fill="none" stroke="midnightblue" d="M139.84,-324.35C140.88,-307.09 144.73,-277.68 158.5,-257 216.55,-169.87 330.59,-110.01 384.68,-85.26"/>
<polygon fill="midnightblue" stroke="midnightblue" points="386.37,-88.34 394.05,-81.05 383.5,-81.95 386.37,-88.34"/>
</g>
<!-- Node7 -->
<g id="node7" class="node">
<title>Node7</title>
<g id="a_node7"><a xlink:title=" ">
<polygon fill="none" stroke="#bfbfbf" points="167.5,-263 167.5,-282 259.5,-282 259.5,-263 167.5,-263"/>
<text text-anchor="middle" x="213.5" y="-270" font-family="Helvetica,sans-Serif" font-size="10.00">sophus/se2.hpp</text>
</a>
</g>
</g>
<!-- Node5&#45;&gt;Node7 -->
<g id="edge6" class="edge">
<title>Node5&#45;&gt;Node7</title>
<path fill="none" stroke="midnightblue" d="M155.56,-324.4C167.44,-313.96 183.61,-299.75 195.86,-289"/>
<polygon fill="midnightblue" stroke="midnightblue" points="198.4,-291.42 203.6,-282.19 193.78,-286.16 198.4,-291.42"/>
</g>
<!-- Node8 -->
<g id="node8" class="node">
<title>Node8</title>
<g id="a_node8"><a xlink:title=" ">
<polygon fill="none" stroke="#bfbfbf" points="277.5,-263 277.5,-282 369.5,-282 369.5,-263 277.5,-263"/>
<text text-anchor="middle" x="323.5" y="-270" font-family="Helvetica,sans-Serif" font-size="10.00">sophus/se3.hpp</text>
</a>
</g>
</g>
<!-- Node5&#45;&gt;Node8 -->
<g id="edge7" class="edge">
<title>Node5&#45;&gt;Node8</title>
<path fill="none" stroke="midnightblue" d="M179.43,-324.4C212.42,-312.74 258.75,-296.37 289.88,-285.38"/>
<polygon fill="midnightblue" stroke="midnightblue" points="291.16,-288.64 299.42,-282.01 288.82,-282.04 291.16,-288.64"/>
</g>
<!-- Node9 -->
<g id="node9" class="node">
<title>Node9</title>
<g id="a_node9"><a xlink:title=" ">
<polygon fill="none" stroke="#bfbfbf" points="19.5,-263 19.5,-282 111.5,-282 111.5,-263 19.5,-263"/>
<text text-anchor="middle" x="65.5" y="-270" font-family="Helvetica,sans-Serif" font-size="10.00">sophus/so3.hpp</text>
</a>
</g>
</g>
<!-- Node5&#45;&gt;Node9 -->
<g id="edge8" class="edge">
<title>Node5&#45;&gt;Node9</title>
<path fill="none" stroke="midnightblue" d="M123.44,-324.4C111.56,-313.96 95.39,-299.75 83.14,-289"/>
<polygon fill="midnightblue" stroke="midnightblue" points="85.22,-286.16 75.4,-282.19 80.6,-291.42 85.22,-286.16"/>
</g>
<!-- Node10&#45;&gt;Node3 -->
<g id="edge10" class="edge">
<title>Node10&#45;&gt;Node3</title>
<path fill="none" stroke="midnightblue" d="M334.32,-391.4C318.87,-380.6 297.64,-365.76 282.08,-354.89"/>
<polygon fill="midnightblue" stroke="midnightblue" points="283.87,-351.87 273.67,-349.01 279.86,-357.6 283.87,-351.87"/>
</g>
<!-- Node10&#45;&gt;Node7 -->
<g id="edge11" class="edge">
<title>Node10&#45;&gt;Node7</title>
<path fill="none" stroke="midnightblue" d="M347.13,-391.48C337.48,-374.09 319.21,-344.26 297.5,-324 281.02,-308.62 259.1,-295.64 241.79,-286.69"/>
<polygon fill="midnightblue" stroke="midnightblue" points="243.22,-283.49 232.71,-282.14 240.08,-289.74 243.22,-283.49"/>
</g>
<!-- Node10&#45;&gt;Node8 -->
<g id="edge12" class="edge">
<title>Node10&#45;&gt;Node8</title>
<path fill="none" stroke="midnightblue" d="M402.62,-391.38C420.24,-383.63 438.33,-372.01 448.5,-355 455.57,-343.17 456.2,-335.42 448.5,-324 438.71,-309.49 397.71,-294.7 365.3,-284.91"/>
<polygon fill="midnightblue" stroke="midnightblue" points="366.14,-281.51 355.56,-282.04 364.16,-288.22 366.14,-281.51"/>
</g>
<!-- Node11 -->
<g id="node11" class="node">
<title>Node11</title>
<g id="a_node11"><a xlink:title=" ">
<polygon fill="none" stroke="#bfbfbf" points="345,-330 345,-349 440,-349 440,-330 345,-330"/>
<text text-anchor="middle" x="392.5" y="-337" font-family="Helvetica,sans-Serif" font-size="10.00">Eigen/Geometry</text>
</a>
</g>
</g>
<!-- Node10&#45;&gt;Node11 -->
<g id="edge13" class="edge">
<title>Node10&#45;&gt;Node11</title>
<path fill="none" stroke="midnightblue" d="M362.75,-391.4C368.49,-381.56 376.2,-368.38 382.33,-357.89"/>
<polygon fill="midnightblue" stroke="midnightblue" points="385.39,-359.59 387.42,-349.19 379.35,-356.06 385.39,-359.59"/>
</g>
<!-- Node12 -->
<g id="node12" class="node">
<title>Node12</title>
<g id="a_node12"><a xlink:href="occupancy__grid_8hpp.html" target="_top" xlink:title="Concepts and abstract implementations of occupancy grids.">
<polygon fill="none" stroke="black" points="546.5,-324.5 546.5,-354.5 662.5,-354.5 662.5,-324.5 546.5,-324.5"/>
<text text-anchor="start" x="554.5" y="-342.5" font-family="Helvetica,sans-Serif" font-size="10.00">beluga/sensor/data</text>
<text text-anchor="middle" x="604.5" y="-331.5" font-family="Helvetica,sans-Serif" font-size="10.00">/occupancy_grid.hpp</text>
</a>
</g>
</g>
<!-- Node10&#45;&gt;Node12 -->
<g id="edge14" class="edge">
<title>Node10&#45;&gt;Node12</title>
<path fill="none" stroke="midnightblue" d="M408.44,-391.48C447.16,-381.41 499.5,-367.8 540.37,-357.17"/>
<polygon fill="midnightblue" stroke="midnightblue" points="541.43,-360.51 550.23,-354.61 539.67,-353.74 541.43,-360.51"/>
</g>
<!-- Node12&#45;&gt;Node6 -->
<g id="edge38" class="edge">
<title>Node12&#45;&gt;Node6</title>
<path fill="none" stroke="midnightblue" d="M546.12,-336.34C509.56,-331.71 464.58,-319.4 438.5,-288 390.57,-230.3 402.71,-131.86 410.45,-91.06"/>
<polygon fill="midnightblue" stroke="midnightblue" points="413.9,-91.66 412.46,-81.16 407.04,-90.26 413.9,-91.66"/>
</g>
<!-- Node13 -->
<g id="node13" class="node">
<title>Node13</title>
<g id="a_node13"><a xlink:title=" ">
<polygon fill="none" stroke="#bfbfbf" points="944.5,-196 944.5,-215 994.5,-215 994.5,-196 944.5,-196"/>
<text text-anchor="middle" x="969.5" y="-203" font-family="Helvetica,sans-Serif" font-size="10.00">cstdint</text>
</a>
</g>
</g>
<!-- Node12&#45;&gt;Node13 -->
<g id="edge15" class="edge">
<title>Node12&#45;&gt;Node13</title>
<path fill="none" stroke="midnightblue" d="M662.78,-339.38C756.2,-339.39 933.03,-333.26 972.5,-288 987.44,-270.87 982.47,-243.19 976.68,-224.91"/>
<polygon fill="midnightblue" stroke="midnightblue" points="979.95,-223.66 973.32,-215.39 973.34,-225.99 979.95,-223.66"/>
</g>
<!-- Node14 -->
<g id="node14" class="node">
<title>Node14</title>
<g id="a_node14"><a xlink:title=" ">
<polygon fill="none" stroke="#bfbfbf" points="464,-263 464,-282 505,-282 505,-263 464,-263"/>
<text text-anchor="middle" x="484.5" y="-270" font-family="Helvetica,sans-Serif" font-size="10.00">tuple</text>
</a>
</g>
</g>
<!-- Node12&#45;&gt;Node14 -->
<g id="edge16" class="edge">
<title>Node12&#45;&gt;Node14</title>
<path fill="none" stroke="midnightblue" d="M578.46,-324.4C557.87,-313.24 529.33,-297.78 509.12,-286.83"/>
<polygon fill="midnightblue" stroke="midnightblue" points="510.67,-283.69 500.21,-282.01 507.33,-289.85 510.67,-283.69"/>
</g>
<!-- Node15 -->
<g id="node15" class="node">
<title>Node15</title>
<g id="a_node15"><a xlink:title=" ">
<polygon fill="none" stroke="#bfbfbf" points="919,-129 919,-148 966,-148 966,-129 919,-129"/>
<text text-anchor="middle" x="942.5" y="-136" font-family="Helvetica,sans-Serif" font-size="10.00">vector</text>
</a>
</g>
</g>
<!-- Node12&#45;&gt;Node15 -->
<g id="edge17" class="edge">
<title>Node12&#45;&gt;Node15</title>
<path fill="none" stroke="midnightblue" d="M662.71,-338.91C758.73,-338.32 944.34,-331.4 990.5,-288 1022.51,-257.9 1022.2,-229.76 1003.5,-190 996.18,-174.43 981.44,-162.02 968.29,-153.4"/>
<polygon fill="midnightblue" stroke="midnightblue" points="969.9,-150.28 959.54,-148.04 966.24,-156.25 969.9,-150.28"/>
</g>
<!-- Node16 -->
<g id="node16" class="node">
<title>Node16</title>
<g id="a_node16"><a xlink:href="linear__grid_8hpp.html" target="_top" xlink:title="Concepts and abstract implementations of linear (ie. contiguous storage) grids.">
<polygon fill="none" stroke="black" points="853.5,-257.5 853.5,-287.5 963.5,-287.5 963.5,-257.5 853.5,-257.5"/>
<text text-anchor="start" x="861.5" y="-275.5" font-family="Helvetica,sans-Serif" font-size="10.00">beluga/sensor/data</text>
<text text-anchor="middle" x="908.5" y="-264.5" font-family="Helvetica,sans-Serif" font-size="10.00">/linear_grid.hpp</text>
</a>
</g>
</g>
<!-- Node12&#45;&gt;Node16 -->
<g id="edge18" class="edge">
<title>Node12&#45;&gt;Node16</title>
<path fill="none" stroke="midnightblue" d="M662.75,-326.51C709.11,-316.9 775.9,-302.93 843.39,-288.22"/>
<polygon fill="midnightblue" stroke="midnightblue" points="844.33,-291.6 853.35,-286.05 842.84,-284.76 844.33,-291.6"/>
</g>
<!-- Node21 -->
<g id="node21" class="node">
<title>Node21</title>
<g id="a_node21"><a xlink:title=" ">
<polygon fill="none" stroke="#bfbfbf" points="467.5,-62 467.5,-81 625.5,-81 625.5,-62 467.5,-62"/>
<text text-anchor="middle" x="546.5" y="-69" font-family="Helvetica,sans-Serif" font-size="10.00">range/v3/view/transform.hpp</text>
</a>
</g>
</g>
<!-- Node12&#45;&gt;Node21 -->
<g id="edge37" class="edge">
<title>Node12&#45;&gt;Node21</title>
<path fill="none" stroke="midnightblue" d="M546.41,-334.92C513.7,-329.58 475.34,-317.01 454.5,-288 406.63,-221.38 491.26,-126 529.35,-88.5"/>
<polygon fill="midnightblue" stroke="midnightblue" points="531.94,-90.87 536.71,-81.41 527.08,-85.83 531.94,-90.87"/>
</g>
<!-- Node25 -->
<g id="node25" class="node">
<title>Node25</title>
<g id="a_node25"><a xlink:title=" ">
<polygon fill="none" stroke="#bfbfbf" points="523,-263 523,-282 686,-282 686,-263 523,-263"/>
<text text-anchor="middle" x="604.5" y="-270" font-family="Helvetica,sans-Serif" font-size="10.00">range/v3/view/enumerate.hpp</text>
</a>
</g>
</g>
<!-- Node12&#45;&gt;Node25 -->
<g id="edge35" class="edge">
<title>Node12&#45;&gt;Node25</title>
<path fill="none" stroke="midnightblue" d="M604.5,-324.4C604.5,-315.06 604.5,-302.71 604.5,-292.52"/>
<polygon fill="midnightblue" stroke="midnightblue" points="608,-292.19 604.5,-282.19 601,-292.19 608,-292.19"/>
</g>
<!-- Node26 -->
<g id="node26" class="node">
<title>Node26</title>
<g id="a_node26"><a xlink:title=" ">
<polygon fill="none" stroke="#bfbfbf" points="704,-263 704,-282 835,-282 835,-263 704,-263"/>
<text text-anchor="middle" x="769.5" y="-270" font-family="Helvetica,sans-Serif" font-size="10.00">range/v3/view/filter.hpp</text>
</a>
</g>
</g>
<!-- Node12&#45;&gt;Node26 -->
<g id="edge36" class="edge">
<title>Node12&#45;&gt;Node26</title>
<path fill="none" stroke="midnightblue" d="M640.3,-324.4C669.51,-312.89 710.36,-296.8 738.26,-285.81"/>
<polygon fill="midnightblue" stroke="midnightblue" points="739.88,-288.93 747.91,-282.01 737.32,-282.42 739.88,-288.93"/>
</g>
<!-- Node16&#45;&gt;Node6 -->
<g id="edge34" class="edge">
<title>Node16&#45;&gt;Node6</title>
<path fill="none" stroke="midnightblue" d="M853.15,-258.7C804.38,-247.17 737.22,-230.6 711.5,-221 605.17,-181.31 486.73,-114.84 437.69,-86.25"/>
<polygon fill="midnightblue" stroke="midnightblue" points="439.23,-83.1 428.84,-81.06 435.69,-89.14 439.23,-83.1"/>
</g>
<!-- Node16&#45;&gt;Node13 -->
<g id="edge19" class="edge">
<title>Node16&#45;&gt;Node13</title>
<path fill="none" stroke="midnightblue" d="M921.74,-257.4C931.34,-247.16 944.35,-233.3 954.37,-222.62"/>
<polygon fill="midnightblue" stroke="midnightblue" points="957.05,-224.88 961.34,-215.19 951.95,-220.09 957.05,-224.88"/>
</g>
<!-- Node16&#45;&gt;Node15 -->
<g id="edge21" class="edge">
<title>Node16&#45;&gt;Node15</title>
<path fill="none" stroke="midnightblue" d="M912.14,-257.37C918.31,-233.4 930.85,-184.75 937.72,-158.06"/>
<polygon fill="midnightblue" stroke="midnightblue" points="941.18,-158.65 940.29,-148.1 934.4,-156.91 941.18,-158.65"/>
</g>
<!-- Node17 -->
<g id="node17" class="node">
<title>Node17</title>
<g id="a_node17"><a xlink:title=" ">
<polygon fill="none" stroke="#bfbfbf" points="640.5,-129 640.5,-148 696.5,-148 696.5,-129 640.5,-129"/>
<text text-anchor="middle" x="668.5" y="-136" font-family="Helvetica,sans-Serif" font-size="10.00">optional</text>
</a>
</g>
</g>
<!-- Node16&#45;&gt;Node17 -->
<g id="edge20" class="edge">
<title>Node16&#45;&gt;Node17</title>
<path fill="none" stroke="midnightblue" d="M857.79,-257.48C820.08,-246.57 772.2,-231.56 754.5,-221 725.35,-203.62 698.05,-174.78 682.32,-156.48"/>
<polygon fill="midnightblue" stroke="midnightblue" points="684.69,-153.85 675.58,-148.44 679.32,-158.35 684.69,-153.85"/>
</g>
<!-- Node18 -->
<g id="node18" class="node">
<title>Node18</title>
<g id="a_node18"><a xlink:href="dense__grid_8hpp.html" target="_top" xlink:title="Concepts and abstract implementations of dense grids.">
<polygon fill="none" stroke="black" points="763.5,-190.5 763.5,-220.5 873.5,-220.5 873.5,-190.5 763.5,-190.5"/>
<text text-anchor="start" x="771.5" y="-208.5" font-family="Helvetica,sans-Serif" font-size="10.00">beluga/sensor/data</text>
<text text-anchor="middle" x="818.5" y="-197.5" font-family="Helvetica,sans-Serif" font-size="10.00">/dense_grid.hpp</text>
</a>
</g>
</g>
<!-- Node16&#45;&gt;Node18 -->
<g id="edge22" class="edge">
<title>Node16&#45;&gt;Node18</title>
<path fill="none" stroke="midnightblue" d="M888.97,-257.4C876.47,-248.37 860.06,-236.51 846.22,-226.52"/>
<polygon fill="midnightblue" stroke="midnightblue" points="848.15,-223.59 837.99,-220.58 844.05,-229.27 848.15,-223.59"/>
</g>
<!-- Node18&#45;&gt;Node6 -->
<g id="edge32" class="edge">
<title>Node18&#45;&gt;Node6</title>
<path fill="none" stroke="midnightblue" d="M796.47,-190.43C781.33,-180.58 760.9,-166.91 743.5,-154 726,-141.01 725.45,-131.78 705.5,-123 603.96,-78.32 566.48,-112.46 458.5,-87 455.03,-86.18 451.44,-85.21 447.88,-84.17"/>
<polygon fill="midnightblue" stroke="midnightblue" points="448.62,-80.73 438.03,-81.09 446.53,-87.41 448.62,-80.73"/>
</g>
<!-- Node18&#45;&gt;Node15 -->
<g id="edge24" class="edge">
<title>Node18&#45;&gt;Node15</title>
<path fill="none" stroke="midnightblue" d="M845.41,-190.4C866.78,-179.19 896.45,-163.64 917.35,-152.69"/>
<polygon fill="midnightblue" stroke="midnightblue" points="919.04,-155.75 926.27,-148.01 915.79,-149.55 919.04,-155.75"/>
</g>
<!-- Node18&#45;&gt;Node17 -->
<g id="edge23" class="edge">
<title>Node18&#45;&gt;Node17</title>
<path fill="none" stroke="midnightblue" d="M785.95,-190.4C759.63,-178.99 722.91,-163.08 697.57,-152.1"/>
<polygon fill="midnightblue" stroke="midnightblue" points="698.7,-148.77 688.13,-148.01 695.92,-155.19 698.7,-148.77"/>
</g>
<!-- Node19 -->
<g id="node19" class="node">
<title>Node19</title>
<g id="a_node19"><a xlink:href="regular__grid_8hpp.html" target="_top" xlink:title="Concepts and abstract implementations of regular grids.">
<polygon fill="none" stroke="black" points="752.5,-123.5 752.5,-153.5 862.5,-153.5 862.5,-123.5 752.5,-123.5"/>
<text text-anchor="start" x="760.5" y="-141.5" font-family="Helvetica,sans-Serif" font-size="10.00">beluga/sensor/data</text>
<text text-anchor="middle" x="807.5" y="-130.5" font-family="Helvetica,sans-Serif" font-size="10.00">/regular_grid.hpp</text>
</a>
</g>
</g>
<!-- Node18&#45;&gt;Node19 -->
<g id="edge25" class="edge">
<title>Node18&#45;&gt;Node19</title>
<path fill="none" stroke="midnightblue" d="M816.11,-190.4C814.79,-182.56 813.1,-172.6 811.57,-163.57"/>
<polygon fill="midnightblue" stroke="midnightblue" points="815,-162.85 809.88,-153.58 808.1,-164.02 815,-162.85"/>
</g>
<!-- Node22 -->
<g id="node22" class="node">
<title>Node22</title>
<g id="a_node22"><a xlink:href="eigen__compatibility_8hpp_source.html" target="_top" xlink:title=" ">
<polygon fill="none" stroke="black" points="849,-62 849,-81 1018,-81 1018,-62 849,-62"/>
<text text-anchor="middle" x="933.5" y="-69" font-family="Helvetica,sans-Serif" font-size="10.00">beluga/eigen_compatibility.hpp</text>
</a>
</g>
</g>
<!-- Node18&#45;&gt;Node22 -->
<g id="edge33" class="edge">
<title>Node18&#45;&gt;Node22</title>
<path fill="none" stroke="midnightblue" d="M834.92,-190.1C845.74,-180.33 859.97,-166.88 871.5,-154 890.3,-132.98 909.61,-106.72 921.58,-89.78"/>
<polygon fill="midnightblue" stroke="midnightblue" points="924.56,-91.63 927.42,-81.42 918.82,-87.62 924.56,-91.63"/>
</g>
<!-- Node19&#45;&gt;Node6 -->
<g id="edge28" class="edge">
<title>Node19&#45;&gt;Node6</title>
<path fill="none" stroke="midnightblue" d="M752.21,-125.48C747.58,-124.59 742.97,-123.76 738.5,-123 614.79,-102.08 580.86,-114.76 458.5,-87 454.83,-86.17 451.04,-85.16 447.28,-84.06"/>
<polygon fill="midnightblue" stroke="midnightblue" points="448.15,-80.66 437.56,-81.01 446.06,-87.34 448.15,-80.66"/>
</g>
<!-- Node20 -->
<g id="node20" class="node">
<title>Node20</title>
<g id="a_node20"><a xlink:title=" ">
<polygon fill="none" stroke="#bfbfbf" points="784,-62 784,-81 831,-81 831,-62 784,-62"/>
<text text-anchor="middle" x="807.5" y="-69" font-family="Helvetica,sans-Serif" font-size="10.00">cmath</text>
</a>
</g>
</g>
<!-- Node19&#45;&gt;Node20 -->
<g id="edge26" class="edge">
<title>Node19&#45;&gt;Node20</title>
<path fill="none" stroke="midnightblue" d="M807.5,-123.4C807.5,-114.06 807.5,-101.71 807.5,-91.52"/>
<polygon fill="midnightblue" stroke="midnightblue" points="811,-91.19 807.5,-81.19 804,-91.19 811,-91.19"/>
</g>
<!-- Node19&#45;&gt;Node21 -->
<g id="edge27" class="edge">
<title>Node19&#45;&gt;Node21</title>
<path fill="none" stroke="midnightblue" d="M752.47,-123.79C704.32,-111.8 635.29,-94.61 590.68,-83.5"/>
<polygon fill="midnightblue" stroke="midnightblue" points="591.27,-80.04 580.72,-81.02 589.57,-86.83 591.27,-80.04"/>
</g>
<!-- Node19&#45;&gt;Node22 -->
<g id="edge29" class="edge">
<title>Node19&#45;&gt;Node22</title>
<path fill="none" stroke="midnightblue" d="M834.84,-123.4C856.56,-112.19 886.7,-96.64 907.94,-85.69"/>
<polygon fill="midnightblue" stroke="midnightblue" points="909.73,-88.7 917.01,-81.01 906.52,-82.48 909.73,-88.7"/>
</g>
<!-- Node24 -->
<g id="node24" class="node">
<title>Node24</title>
<g id="a_node24"><a xlink:href="enable__self_8hpp.html" target="_top" xlink:title="Implementation of a CRTP utility to enable downcasting to the most derived class.">
<polygon fill="none" stroke="black" points="643.5,-56.5 643.5,-86.5 765.5,-86.5 765.5,-56.5 643.5,-56.5"/>
<text text-anchor="start" x="651.5" y="-74.5" font-family="Helvetica,sans-Serif" font-size="10.00">beluga/mixins/enable</text>
<text text-anchor="middle" x="704.5" y="-63.5" font-family="Helvetica,sans-Serif" font-size="10.00">_self.hpp</text>
</a>
</g>
</g>
<!-- Node19&#45;&gt;Node24 -->
<g id="edge31" class="edge">
<title>Node19&#45;&gt;Node24</title>
<path fill="none" stroke="midnightblue" d="M785.15,-123.4C770.57,-114.2 751.35,-102.07 735.33,-91.95"/>
<polygon fill="midnightblue" stroke="midnightblue" points="737.13,-88.95 726.81,-86.58 733.39,-94.87 737.13,-88.95"/>
</g>
<!-- Node23 -->
<g id="node23" class="node">
<title>Node23</title>
<g id="a_node23"><a xlink:title=" ">
<polygon fill="none" stroke="#bfbfbf" points="895,-0.5 895,-19.5 972,-19.5 972,-0.5 895,-0.5"/>
<text text-anchor="middle" x="933.5" y="-7.5" font-family="Helvetica,sans-Serif" font-size="10.00">Eigen/Dense</text>
</a>
</g>
</g>
<!-- Node22&#45;&gt;Node23 -->
<g id="edge30" class="edge">
<title>Node22&#45;&gt;Node23</title>
<path fill="none" stroke="midnightblue" d="M933.5,-61.98C933.5,-53.58 933.5,-40.48 933.5,-29.66"/>
<polygon fill="midnightblue" stroke="midnightblue" points="937,-29.51 933.5,-19.51 930,-29.51 937,-29.51"/>
</g>
</g>
</svg>
