<?xml version="1.0" encoding="UTF-8" standalone="no"?>
<!DOCTYPE svg PUBLIC "-//W3C//DTD SVG 1.1//EN"
 "http://www.w3.org/Graphics/SVG/1.1/DTD/svg11.dtd">
<!-- Generated by graphviz version 2.43.0 (0)
 -->
<!-- Title: /home/runner/work/beluga/beluga/beluga/include/beluga/views/random_intersperse.hpp Pages: 1 -->
<svg width="771pt" height="117pt"
 viewBox="0.00 0.00 770.50 117.00" xmlns="http://www.w3.org/2000/svg" xmlns:xlink="http://www.w3.org/1999/xlink">
<g id="graph0" class="graph" transform="scale(1 1) rotate(0) translate(4 113)">
<title>/home/runner/work/beluga/beluga/beluga/include/beluga/views/random_intersperse.hpp</title>
<!-- Node1 -->
<g id="node1" class="node">
<title>Node1</title>
<g id="a_node1"><a xlink:title="Implementation of a random_intersperse range adaptor object.">
<polygon fill="#bfbfbf" stroke="black" points="161.5,-67.5 161.5,-108.5 367.5,-108.5 367.5,-67.5 161.5,-67.5"/>
<text text-anchor="start" x="169.5" y="-96.5" font-family="Helvetica,sans-Serif" font-size="10.00">/home/runner/work/beluga</text>
<text text-anchor="start" x="169.5" y="-85.5" font-family="Helvetica,sans-Serif" font-size="10.00">/beluga/beluga/include</text>
<text text-anchor="middle" x="264.5" y="-74.5" font-family="Helvetica,sans-Serif" font-size="10.00">/beluga/views/random_intersperse.hpp</text>
</a>
</g>
</g>
<!-- Node2 -->
<g id="node2" class="node">
<title>Node2</title>
<g id="a_node2"><a xlink:title=" ">
<polygon fill="none" stroke="#bfbfbf" points="0,-6 0,-25 65,-25 65,-6 0,-6"/>
<text text-anchor="middle" x="32.5" y="-13" font-family="Helvetica,sans-Serif" font-size="10.00">functional</text>
</a>
</g>
</g>
<!-- Node1&#45;&gt;Node2 -->
<g id="edge1" class="edge">
<title>Node1&#45;&gt;Node2</title>
<path fill="none" stroke="midnightblue" d="M195.23,-67.41C159.12,-56.99 114.3,-43.73 74.5,-31 71.9,-30.17 69.22,-29.29 66.53,-28.4"/>
<polygon fill="midnightblue" stroke="midnightblue" points="67.46,-25.02 56.87,-25.12 65.22,-31.65 67.46,-25.02"/>
</g>
<!-- Node3 -->
<g id="node3" class="node">
<title>Node3</title>
<g id="a_node3"><a xlink:title=" ">
<polygon fill="none" stroke="#bfbfbf" points="83.5,-6 83.5,-25 139.5,-25 139.5,-6 83.5,-6"/>
<text text-anchor="middle" x="111.5" y="-13" font-family="Helvetica,sans-Serif" font-size="10.00">optional</text>
</a>
</g>
</g>
<!-- Node1&#45;&gt;Node3 -->
<g id="edge2" class="edge">
<title>Node1&#45;&gt;Node3</title>
<path fill="none" stroke="midnightblue" d="M221.88,-67.36C195.58,-55.24 162.57,-40.03 139.54,-29.42"/>
<polygon fill="midnightblue" stroke="midnightblue" points="140.87,-26.18 130.32,-25.17 137.94,-32.54 140.87,-26.18"/>
</g>
<!-- Node4 -->
<g id="node4" class="node">
<title>Node4</title>
<g id="a_node4"><a xlink:title=" ">
<polygon fill="none" stroke="#bfbfbf" points="157.5,-6 157.5,-25 211.5,-25 211.5,-6 157.5,-6"/>
<text text-anchor="middle" x="184.5" y="-13" font-family="Helvetica,sans-Serif" font-size="10.00">random</text>
</a>
</g>
</g>
<!-- Node1&#45;&gt;Node4 -->
<g id="edge3" class="edge">
<title>Node1&#45;&gt;Node4</title>
<path fill="none" stroke="midnightblue" d="M242.22,-67.36C229.57,-56.21 213.96,-42.46 202.16,-32.06"/>
<polygon fill="midnightblue" stroke="midnightblue" points="204.16,-29.16 194.34,-25.17 199.53,-34.41 204.16,-29.16"/>
</g>
<!-- Node5 -->
<g id="node5" class="node">
<title>Node5</title>
<g id="a_node5"><a xlink:title=" ">
<polygon fill="none" stroke="#bfbfbf" points="230,-6 230,-25 299,-25 299,-6 230,-6"/>
<text text-anchor="middle" x="264.5" y="-13" font-family="Helvetica,sans-Serif" font-size="10.00">type_traits</text>
</a>
</g>
</g>
<!-- Node1&#45;&gt;Node5 -->
<g id="edge4" class="edge">
<title>Node1&#45;&gt;Node5</title>
<path fill="none" stroke="midnightblue" d="M264.5,-67.36C264.5,-57.3 264.5,-45.1 264.5,-35.18"/>
<polygon fill="midnightblue" stroke="midnightblue" points="268,-35.17 264.5,-25.17 261,-35.17 268,-35.17"/>
</g>
<!-- Node6 -->
<g id="node6" class="node">
<title>Node6</title>
<g id="a_node6"><a xlink:title=" ">
<polygon fill="none" stroke="#bfbfbf" points="317,-0.5 317,-30.5 428,-30.5 428,-0.5 317,-0.5"/>
<text text-anchor="start" x="325" y="-18.5" font-family="Helvetica,sans-Serif" font-size="10.00">range/v3/functional</text>
<text text-anchor="middle" x="372.5" y="-7.5" font-family="Helvetica,sans-Serif" font-size="10.00">/bind_back.hpp</text>
</a>
</g>
</g>
<!-- Node1&#45;&gt;Node6 -->
<g id="edge5" class="edge">
<title>Node1&#45;&gt;Node6</title>
<path fill="none" stroke="midnightblue" d="M294.58,-67.36C309.51,-57.62 327.48,-45.89 342.4,-36.15"/>
<polygon fill="midnightblue" stroke="midnightblue" points="344.33,-39.07 350.79,-30.67 340.51,-33.21 344.33,-39.07"/>
</g>
<!-- Node7 -->
<g id="node7" class="node">
<title>Node7</title>
<g id="a_node7"><a xlink:title=" ">
<polygon fill="none" stroke="#bfbfbf" points="446.5,-6 446.5,-25 598.5,-25 598.5,-6 446.5,-6"/>
<text text-anchor="middle" x="522.5" y="-13" font-family="Helvetica,sans-Serif" font-size="10.00">range/v3/utility/random.hpp</text>
</a>
</g>
</g>
<!-- Node1&#45;&gt;Node7 -->
<g id="edge6" class="edge">
<title>Node1&#45;&gt;Node7</title>
<path fill="none" stroke="midnightblue" d="M336.02,-67.46C382.84,-54.66 442.36,-38.4 481.39,-27.73"/>
<polygon fill="midnightblue" stroke="midnightblue" points="482.62,-31.03 491.35,-25.01 480.78,-24.27 482.62,-31.03"/>
</g>
<!-- Node8 -->
<g id="node8" class="node">
<title>Node8</title>
<g id="a_node8"><a xlink:title=" ">
<polygon fill="none" stroke="#bfbfbf" points="616.5,-6 616.5,-25 762.5,-25 762.5,-6 616.5,-6"/>
<text text-anchor="middle" x="689.5" y="-13" font-family="Helvetica,sans-Serif" font-size="10.00">range/v3/view/adaptor.hpp</text>
</a>
</g>
</g>
<!-- Node1&#45;&gt;Node8 -->
<g id="edge7" class="edge">
<title>Node1&#45;&gt;Node8</title>
<path fill="none" stroke="midnightblue" d="M367.75,-70.51C435.87,-59.54 527.05,-44.68 607.5,-31 615.4,-29.66 623.73,-28.21 631.93,-26.78"/>
<polygon fill="midnightblue" stroke="midnightblue" points="632.58,-30.22 641.82,-25.04 631.37,-23.32 632.58,-30.22"/>
</g>
</g>
</svg>
