<?xml version="1.0" encoding="UTF-8" standalone="no"?>
<!DOCTYPE svg PUBLIC "-//W3C//DTD SVG 1.1//EN"
 "http://www.w3.org/Graphics/SVG/1.1/DTD/svg11.dtd">
<!-- Generated by graphviz version 2.43.0 (0)
 -->
<!-- Title: /home/runner/work/beluga/beluga/beluga/include/beluga/random.hpp Pages: 1 -->
<!--zoomable 497 -->
<svg id="main" version="1.1" xmlns="http://www.w3.org/2000/svg" xmlns:xlink="http://www.w3.org/1999/xlink" xml:space="preserve" onload="init(evt)">
<style type="text/css"><![CDATA[
.edge:hover path { stroke: red; }
.edge:hover polygon { stroke: red; fill: red; }
]]></style>
<script type="text/javascript"><![CDATA[
var edges = document.getElementsByTagName('g');
if (edges && edges.length) {
  for (var i=0;i<edges.length;i++) {
    if (edges[i].id.substr(0,4)=='edge') {
      edges[i].setAttribute('class','edge');
    }
  }
}
]]></script>
        <defs>
                <circle id="rim" cx="0" cy="0" r="7"/>
                <circle id="rim2" cx="0" cy="0" r="3.5"/>
                <g id="zoomPlus">
                        <use xlink:href="#rim" fill="#404040">
                                <set attributeName="fill" to="#808080" begin="zoomplus.mouseover" end="zoomplus.mouseout"/>
                        </use>
                        <path d="M-4,0h8M0,-4v8" fill="none" stroke="white" stroke-width="1.5" pointer-events="none"/>
                </g>
                <g id="zoomMin">
                        <use xlink:href="#rim" fill="#404040">
                                <set attributeName="fill" to="#808080" begin="zoomminus.mouseover" end="zoomminus.mouseout"/>
                        </use>
                        <path d="M-4,0h8" fill="none" stroke="white" stroke-width="1.5" pointer-events="none"/>
                </g>
                <g id="dirArrow">
                        <path fill="none" stroke="white" stroke-width="1.5" d="M0,-3.0v7 M-2.5,-0.5L0,-3.0L2.5,-0.5"/>
                </g>
               <g id="resetDef">
                       <use xlink:href="#rim2" fill="#404040">
                               <set attributeName="fill" to="#808080" begin="reset.mouseover" end="reset.mouseout"/>
                       </use>
               </g>
        </defs>

<script type="text/javascript">
var viewWidth = 1025;
var viewHeight = 497;
var sectionId = 'dynsection-0';
</script>
<script xlink:href="svgpan.js"/>
<svg id="graph" class="graph">
<g id="viewport">
<title>/home/runner/work/beluga/beluga/beluga/include/beluga/random.hpp</title>
<!-- Node1 -->
<g id="node1" class="node">
<title>Node1</title>
<g id="a_node1"><a xlink:title="Includes all Beluga random distributions.">
<polygon fill="#bfbfbf" stroke="black" points="193,-447.5 193,-488.5 338,-488.5 338,-447.5 193,-447.5"/>
<text text-anchor="start" x="201" y="-476.5" font-family="Helvetica,sans-Serif" font-size="10.00">/home/runner/work/beluga</text>
<text text-anchor="start" x="201" y="-465.5" font-family="Helvetica,sans-Serif" font-size="10.00">/beluga/beluga/include</text>
<text text-anchor="middle" x="265.5" y="-454.5" font-family="Helvetica,sans-Serif" font-size="10.00">/beluga/random.hpp</text>
</a>
</g>
</g>
<!-- Node2 -->
<g id="node2" class="node">
<title>Node2</title>
<g id="a_node2"><a xlink:href="multivariate__normal__distribution_8hpp.html" target="_top" xlink:title="Implementation of a multivariate normal distribution.">
<polygon fill="none" stroke="black" points="104,-380.5 104,-410.5 257,-410.5 257,-380.5 104,-380.5"/>
<text text-anchor="start" x="112" y="-398.5" font-family="Helvetica,sans-Serif" font-size="10.00">beluga/random/multivariate</text>
<text text-anchor="middle" x="180.5" y="-387.5" font-family="Helvetica,sans-Serif" font-size="10.00">_normal_distribution.hpp</text>
</a>
</g>
</g>
<!-- Node1&#45;&gt;Node2 -->
<g id="edge1" class="edge">
<title>Node1&#45;&gt;Node2</title>
<path fill="none" stroke="midnightblue" d="M241.82,-447.36C230.52,-437.99 216.99,-426.76 205.51,-417.25"/>
<polygon fill="midnightblue" stroke="midnightblue" points="207.52,-414.36 197.58,-410.67 203.05,-419.75 207.52,-414.36"/>
</g>
<!-- Node10 -->
<g id="node10" class="node">
<title>Node10</title>
<g id="a_node10"><a xlink:href="multivariate__uniform__distribution_8hpp.html" target="_top" xlink:title="Implementation of a multivariate uniform distribution for SE(2) and SE(3) spaces.">
<polygon fill="none" stroke="black" points="278,-380.5 278,-410.5 431,-410.5 431,-380.5 278,-380.5"/>
<text text-anchor="start" x="286" y="-398.5" font-family="Helvetica,sans-Serif" font-size="10.00">beluga/random/multivariate</text>
<text text-anchor="middle" x="354.5" y="-387.5" font-family="Helvetica,sans-Serif" font-size="10.00">_uniform_distribution.hpp</text>
</a>
</g>
</g>
<!-- Node1&#45;&gt;Node10 -->
<g id="edge9" class="edge">
<title>Node1&#45;&gt;Node10</title>
<path fill="none" stroke="midnightblue" d="M290.29,-447.36C302.24,-437.89 316.57,-426.54 328.66,-416.97"/>
<polygon fill="midnightblue" stroke="midnightblue" points="330.95,-419.62 336.61,-410.67 326.6,-414.14 330.95,-419.62"/>
</g>
<!-- Node3 -->
<g id="node3" class="node">
<title>Node3</title>
<g id="a_node3"><a xlink:title=" ">
<polygon fill="none" stroke="#bfbfbf" points="234.5,-319 234.5,-338 288.5,-338 288.5,-319 234.5,-319"/>
<text text-anchor="middle" x="261.5" y="-326" font-family="Helvetica,sans-Serif" font-size="10.00">random</text>
</a>
</g>
</g>
<!-- Node2&#45;&gt;Node3 -->
<g id="edge2" class="edge">
<title>Node2&#45;&gt;Node3</title>
<path fill="none" stroke="midnightblue" d="M198.08,-380.4C211.21,-369.86 229.13,-355.48 242.57,-344.69"/>
<polygon fill="midnightblue" stroke="midnightblue" points="245.06,-347.18 250.67,-338.19 240.68,-341.72 245.06,-347.18"/>
</g>
<!-- Node4 -->
<g id="node4" class="node">
<title>Node4</title>
<g id="a_node4"><a xlink:title=" ">
<polygon fill="none" stroke="#bfbfbf" points="0,-319 0,-338 45,-338 45,-319 0,-319"/>
<text text-anchor="middle" x="22.5" y="-326" font-family="Helvetica,sans-Serif" font-size="10.00">utility</text>
</a>
</g>
</g>
<!-- Node2&#45;&gt;Node4 -->
<g id="edge3" class="edge">
<title>Node2&#45;&gt;Node4</title>
<path fill="none" stroke="midnightblue" d="M143.58,-380.48C118.11,-370.65 83.56,-356.99 53.5,-344 52.3,-343.48 51.08,-342.95 49.86,-342.4"/>
<polygon fill="midnightblue" stroke="midnightblue" points="51,-339.08 40.45,-338.12 48.1,-345.45 51,-339.08"/>
</g>
<!-- Node5 -->
<g id="node5" class="node">
<title>Node5</title>
<g id="a_node5"><a xlink:href="multivariate__distribution__traits_8hpp.html" target="_top" xlink:title="Implementation of multivariate distribution traits.">
<polygon fill="none" stroke="black" points="63,-313.5 63,-343.5 216,-343.5 216,-313.5 63,-313.5"/>
<text text-anchor="start" x="71" y="-331.5" font-family="Helvetica,sans-Serif" font-size="10.00">beluga/random/multivariate</text>
<text text-anchor="middle" x="139.5" y="-320.5" font-family="Helvetica,sans-Serif" font-size="10.00">_distribution_traits.hpp</text>
</a>
</g>
</g>
<!-- Node2&#45;&gt;Node5 -->
<g id="edge4" class="edge">
<title>Node2&#45;&gt;Node5</title>
<path fill="none" stroke="midnightblue" d="M171.6,-380.4C166.39,-372.13 159.69,-361.51 153.76,-352.1"/>
<polygon fill="midnightblue" stroke="midnightblue" points="156.67,-350.17 148.38,-343.58 150.75,-353.9 156.67,-350.17"/>
</g>
<!-- Node6 -->
<g id="node6" class="node">
<title>Node6</title>
<g id="a_node6"><a xlink:title=" ">
<polygon fill="none" stroke="#bfbfbf" points="381,-56.5 381,-75.5 450,-75.5 450,-56.5 381,-56.5"/>
<text text-anchor="middle" x="415.5" y="-63.5" font-family="Helvetica,sans-Serif" font-size="10.00">Eigen/Core</text>
</a>
</g>
</g>
<!-- Node5&#45;&gt;Node6 -->
<g id="edge5" class="edge">
<title>Node5&#45;&gt;Node6</title>
<path fill="none" stroke="midnightblue" d="M139.78,-313.31C140.77,-296.02 144.56,-266.56 158.5,-246 216.38,-160.62 329.59,-103.49 384.36,-79.62"/>
<polygon fill="midnightblue" stroke="midnightblue" points="386.06,-82.7 393.87,-75.55 383.3,-76.27 386.06,-82.7"/>
</g>
<!-- Node7 -->
<g id="node7" class="node">
<title>Node7</title>
<g id="a_node7"><a xlink:title=" ">
<polygon fill="none" stroke="#bfbfbf" points="167.5,-252 167.5,-271 259.5,-271 259.5,-252 167.5,-252"/>
<text text-anchor="middle" x="213.5" y="-259" font-family="Helvetica,sans-Serif" font-size="10.00">sophus/se2.hpp</text>
</a>
</g>
</g>
<!-- Node5&#45;&gt;Node7 -->
<g id="edge6" class="edge">
<title>Node5&#45;&gt;Node7</title>
<path fill="none" stroke="midnightblue" d="M155.56,-313.4C167.44,-302.96 183.61,-288.75 195.86,-278"/>
<polygon fill="midnightblue" stroke="midnightblue" points="198.4,-280.42 203.6,-271.19 193.78,-275.16 198.4,-280.42"/>
</g>
<!-- Node8 -->
<g id="node8" class="node">
<title>Node8</title>
<g id="a_node8"><a xlink:title=" ">
<polygon fill="none" stroke="#bfbfbf" points="277.5,-252 277.5,-271 369.5,-271 369.5,-252 277.5,-252"/>
<text text-anchor="middle" x="323.5" y="-259" font-family="Helvetica,sans-Serif" font-size="10.00">sophus/se3.hpp</text>
</a>
</g>
</g>
<!-- Node5&#45;&gt;Node8 -->
<g id="edge7" class="edge">
<title>Node5&#45;&gt;Node8</title>
<path fill="none" stroke="midnightblue" d="M179.43,-313.4C212.42,-301.74 258.75,-285.37 289.88,-274.38"/>
<polygon fill="midnightblue" stroke="midnightblue" points="291.16,-277.64 299.42,-271.01 288.82,-271.04 291.16,-277.64"/>
</g>
<!-- Node9 -->
<g id="node9" class="node">
<title>Node9</title>
<g id="a_node9"><a xlink:title=" ">
<polygon fill="none" stroke="#bfbfbf" points="19.5,-252 19.5,-271 111.5,-271 111.5,-252 19.5,-252"/>
<text text-anchor="middle" x="65.5" y="-259" font-family="Helvetica,sans-Serif" font-size="10.00">sophus/so3.hpp</text>
</a>
</g>
</g>
<!-- Node5&#45;&gt;Node9 -->
<g id="edge8" class="edge">
<title>Node5&#45;&gt;Node9</title>
<path fill="none" stroke="midnightblue" d="M123.44,-313.4C111.56,-302.96 95.39,-288.75 83.14,-278"/>
<polygon fill="midnightblue" stroke="midnightblue" points="85.22,-275.16 75.4,-271.19 80.6,-280.42 85.22,-275.16"/>
</g>
<!-- Node10&#45;&gt;Node3 -->
<g id="edge10" class="edge">
<title>Node10&#45;&gt;Node3</title>
<path fill="none" stroke="midnightblue" d="M334.32,-380.4C318.87,-369.6 297.64,-354.76 282.08,-343.89"/>
<polygon fill="midnightblue" stroke="midnightblue" points="283.87,-340.87 273.67,-338.01 279.86,-346.6 283.87,-340.87"/>
</g>
<!-- Node10&#45;&gt;Node7 -->
<g id="edge11" class="edge">
<title>Node10&#45;&gt;Node7</title>
<path fill="none" stroke="midnightblue" d="M347.13,-380.48C337.48,-363.09 319.21,-333.26 297.5,-313 281.02,-297.62 259.1,-284.64 241.79,-275.69"/>
<polygon fill="midnightblue" stroke="midnightblue" points="243.22,-272.49 232.71,-271.14 240.08,-278.74 243.22,-272.49"/>
</g>
<!-- Node10&#45;&gt;Node8 -->
<g id="edge12" class="edge">
<title>Node10&#45;&gt;Node8</title>
<path fill="none" stroke="midnightblue" d="M402.62,-380.38C420.24,-372.63 438.33,-361.01 448.5,-344 455.57,-332.17 456.2,-324.42 448.5,-313 438.71,-298.49 397.71,-283.7 365.3,-273.91"/>
<polygon fill="midnightblue" stroke="midnightblue" points="366.14,-270.51 355.56,-271.04 364.16,-277.22 366.14,-270.51"/>
</g>
<!-- Node11 -->
<g id="node11" class="node">
<title>Node11</title>
<g id="a_node11"><a xlink:title=" ">
<polygon fill="none" stroke="#bfbfbf" points="345,-319 345,-338 440,-338 440,-319 345,-319"/>
<text text-anchor="middle" x="392.5" y="-326" font-family="Helvetica,sans-Serif" font-size="10.00">Eigen/Geometry</text>
</a>
</g>
</g>
<!-- Node10&#45;&gt;Node11 -->
<g id="edge13" class="edge">
<title>Node10&#45;&gt;Node11</title>
<path fill="none" stroke="midnightblue" d="M362.75,-380.4C368.49,-370.56 376.2,-357.38 382.33,-346.89"/>
<polygon fill="midnightblue" stroke="midnightblue" points="385.39,-348.59 387.42,-338.19 379.35,-345.06 385.39,-348.59"/>
</g>
<!-- Node12 -->
<g id="node12" class="node">
<title>Node12</title>
<g id="a_node12"><a xlink:href="occupancy__grid_8hpp.html" target="_top" xlink:title="Concepts and abstract implementations of occupancy grids.">
<polygon fill="none" stroke="black" points="546.5,-313.5 546.5,-343.5 662.5,-343.5 662.5,-313.5 546.5,-313.5"/>
<text text-anchor="start" x="554.5" y="-331.5" font-family="Helvetica,sans-Serif" font-size="10.00">beluga/sensor/data</text>
<text text-anchor="middle" x="604.5" y="-320.5" font-family="Helvetica,sans-Serif" font-size="10.00">/occupancy_grid.hpp</text>
</a>
</g>
</g>
<!-- Node10&#45;&gt;Node12 -->
<g id="edge14" class="edge">
<title>Node10&#45;&gt;Node12</title>
<path fill="none" stroke="midnightblue" d="M408.44,-380.48C447.16,-370.41 499.5,-356.8 540.37,-346.17"/>
<polygon fill="midnightblue" stroke="midnightblue" points="541.43,-349.51 550.23,-343.61 539.67,-342.74 541.43,-349.51"/>
</g>
<!-- Node12&#45;&gt;Node6 -->
<g id="edge38" class="edge">
<title>Node12&#45;&gt;Node6</title>
<path fill="none" stroke="midnightblue" d="M546.1,-325.35C509.53,-320.73 464.55,-308.42 438.5,-277 392.16,-221.12 403.73,-126.12 411.36,-85.89"/>
<polygon fill="midnightblue" stroke="midnightblue" points="414.83,-86.37 413.4,-75.87 407.98,-84.97 414.83,-86.37"/>
</g>
<!-- Node13 -->
<g id="node13" class="node">
<title>Node13</title>
<g id="a_node13"><a xlink:title=" ">
<polygon fill="none" stroke="#bfbfbf" points="944.5,-185 944.5,-204 994.5,-204 994.5,-185 944.5,-185"/>
<text text-anchor="middle" x="969.5" y="-192" font-family="Helvetica,sans-Serif" font-size="10.00">cstdint</text>
</a>
</g>
</g>
<!-- Node12&#45;&gt;Node13 -->
<g id="edge15" class="edge">
<title>Node12&#45;&gt;Node13</title>
<path fill="none" stroke="midnightblue" d="M662.78,-328.38C756.2,-328.39 933.03,-322.26 972.5,-277 987.44,-259.87 982.47,-232.19 976.68,-213.91"/>
<polygon fill="midnightblue" stroke="midnightblue" points="979.95,-212.66 973.32,-204.39 973.34,-214.99 979.95,-212.66"/>
</g>
<!-- Node14 -->
<g id="node14" class="node">
<title>Node14</title>
<g id="a_node14"><a xlink:title=" ">
<polygon fill="none" stroke="#bfbfbf" points="464,-252 464,-271 505,-271 505,-252 464,-252"/>
<text text-anchor="middle" x="484.5" y="-259" font-family="Helvetica,sans-Serif" font-size="10.00">tuple</text>
</a>
</g>
</g>
<!-- Node12&#45;&gt;Node14 -->
<g id="edge16" class="edge">
<title>Node12&#45;&gt;Node14</title>
<path fill="none" stroke="midnightblue" d="M578.46,-313.4C557.87,-302.24 529.33,-286.78 509.12,-275.83"/>
<polygon fill="midnightblue" stroke="midnightblue" points="510.67,-272.69 500.21,-271.01 507.33,-278.85 510.67,-272.69"/>
</g>
<!-- Node15 -->
<g id="node15" class="node">
<title>Node15</title>
<g id="a_node15"><a xlink:title=" ">
<polygon fill="none" stroke="#bfbfbf" points="918,-118 918,-137 965,-137 965,-118 918,-118"/>
<text text-anchor="middle" x="941.5" y="-125" font-family="Helvetica,sans-Serif" font-size="10.00">vector</text>
</a>
</g>
</g>
<!-- Node12&#45;&gt;Node15 -->
<g id="edge17" class="edge">
<title>Node12&#45;&gt;Node15</title>
<path fill="none" stroke="midnightblue" d="M662.71,-327.91C758.73,-327.32 944.34,-320.4 990.5,-277 1022.51,-246.9 1022.36,-218.68 1003.5,-179 996.09,-163.41 981.26,-151.06 967.96,-142.47"/>
<polygon fill="midnightblue" stroke="midnightblue" points="969.48,-139.3 959.11,-137.13 965.86,-145.29 969.48,-139.3"/>
</g>
<!-- Node16 -->
<g id="node16" class="node">
<title>Node16</title>
<g id="a_node16"><a xlink:href="linear__grid_8hpp.html" target="_top" xlink:title="Concepts and abstract implementations of linear (ie. contiguous storage) grids.">
<polygon fill="none" stroke="black" points="853.5,-246.5 853.5,-276.5 963.5,-276.5 963.5,-246.5 853.5,-246.5"/>
<text text-anchor="start" x="861.5" y="-264.5" font-family="Helvetica,sans-Serif" font-size="10.00">beluga/sensor/data</text>
<text text-anchor="middle" x="908.5" y="-253.5" font-family="Helvetica,sans-Serif" font-size="10.00">/linear_grid.hpp</text>
</a>
</g>
</g>
<!-- Node12&#45;&gt;Node16 -->
<g id="edge18" class="edge">
<title>Node12&#45;&gt;Node16</title>
<path fill="none" stroke="midnightblue" d="M662.75,-315.51C709.11,-305.9 775.9,-291.93 843.39,-277.22"/>
<polygon fill="midnightblue" stroke="midnightblue" points="844.33,-280.6 853.35,-275.05 842.84,-273.76 844.33,-280.6"/>
</g>
<!-- Node22 -->
<g id="node22" class="node">
<title>Node22</title>
<g id="a_node22"><a xlink:title=" ">
<polygon fill="none" stroke="#bfbfbf" points="468.5,-56.5 468.5,-75.5 626.5,-75.5 626.5,-56.5 468.5,-56.5"/>
<text text-anchor="middle" x="547.5" y="-63.5" font-family="Helvetica,sans-Serif" font-size="10.00">range/v3/view/transform.hpp</text>
</a>
</g>
</g>
<!-- Node12&#45;&gt;Node22 -->
<g id="edge37" class="edge">
<title>Node12&#45;&gt;Node22</title>
<path fill="none" stroke="midnightblue" d="M546.41,-323.92C513.7,-318.58 475.34,-306.01 454.5,-277 407.58,-211.7 492.29,-118.97 530.36,-82.54"/>
<polygon fill="midnightblue" stroke="midnightblue" points="532.81,-85.05 537.72,-75.66 528.03,-79.94 532.81,-85.05"/>
</g>
<!-- Node25 -->
<g id="node25" class="node">
<title>Node25</title>
<g id="a_node25"><a xlink:title=" ">
<polygon fill="none" stroke="#bfbfbf" points="523,-252 523,-271 686,-271 686,-252 523,-252"/>
<text text-anchor="middle" x="604.5" y="-259" font-family="Helvetica,sans-Serif" font-size="10.00">range/v3/view/enumerate.hpp</text>
</a>
</g>
</g>
<!-- Node12&#45;&gt;Node25 -->
<g id="edge35" class="edge">
<title>Node12&#45;&gt;Node25</title>
<path fill="none" stroke="midnightblue" d="M604.5,-313.4C604.5,-304.06 604.5,-291.71 604.5,-281.52"/>
<polygon fill="midnightblue" stroke="midnightblue" points="608,-281.19 604.5,-271.19 601,-281.19 608,-281.19"/>
</g>
<!-- Node26 -->
<g id="node26" class="node">
<title>Node26</title>
<g id="a_node26"><a xlink:title=" ">
<polygon fill="none" stroke="#bfbfbf" points="704,-252 704,-271 835,-271 835,-252 704,-252"/>
<text text-anchor="middle" x="769.5" y="-259" font-family="Helvetica,sans-Serif" font-size="10.00">range/v3/view/filter.hpp</text>
</a>
</g>
</g>
<!-- Node12&#45;&gt;Node26 -->
<g id="edge36" class="edge">
<title>Node12&#45;&gt;Node26</title>
<path fill="none" stroke="midnightblue" d="M640.3,-313.4C669.51,-301.89 710.36,-285.8 738.26,-274.81"/>
<polygon fill="midnightblue" stroke="midnightblue" points="739.88,-277.93 747.91,-271.01 737.32,-271.42 739.88,-277.93"/>
</g>
<!-- Node16&#45;&gt;Node6 -->
<g id="edge34" class="edge">
<title>Node16&#45;&gt;Node6</title>
<path fill="none" stroke="midnightblue" d="M853.36,-247.75C804.33,-236.18 736.49,-219.5 710.5,-210 605.76,-171.7 488.54,-108.26 439.3,-80.6"/>
<polygon fill="midnightblue" stroke="midnightblue" points="440.81,-77.43 430.38,-75.56 437.37,-83.53 440.81,-77.43"/>
</g>
<!-- Node16&#45;&gt;Node13 -->
<g id="edge19" class="edge">
<title>Node16&#45;&gt;Node13</title>
<path fill="none" stroke="midnightblue" d="M921.74,-246.4C931.34,-236.16 944.35,-222.3 954.37,-211.62"/>
<polygon fill="midnightblue" stroke="midnightblue" points="957.05,-213.88 961.34,-204.19 951.95,-209.09 957.05,-213.88"/>
</g>
<!-- Node16&#45;&gt;Node15 -->
<g id="edge21" class="edge">
<title>Node16&#45;&gt;Node15</title>
<path fill="none" stroke="midnightblue" d="M912.03,-246.37C918.03,-222.4 930.19,-173.75 936.86,-147.06"/>
<polygon fill="midnightblue" stroke="midnightblue" points="940.32,-147.65 939.35,-137.1 933.53,-145.95 940.32,-147.65"/>
</g>
<!-- Node17 -->
<g id="node17" class="node">
<title>Node17</title>
<g id="a_node17"><a xlink:title=" ">
<polygon fill="none" stroke="#bfbfbf" points="639.5,-118 639.5,-137 695.5,-137 695.5,-118 639.5,-118"/>
<text text-anchor="middle" x="667.5" y="-125" font-family="Helvetica,sans-Serif" font-size="10.00">optional</text>
</a>
</g>
</g>
<!-- Node16&#45;&gt;Node17 -->
<g id="edge20" class="edge">
<title>Node16&#45;&gt;Node17</title>
<path fill="none" stroke="midnightblue" d="M857.07,-246.39C819.17,-235.5 771.26,-220.56 753.5,-210 724.18,-192.55 696.75,-163.5 681.07,-145.21"/>
<polygon fill="midnightblue" stroke="midnightblue" points="683.46,-142.61 674.36,-137.19 678.1,-147.11 683.46,-142.61"/>
</g>
<!-- Node18 -->
<g id="node18" class="node">
<title>Node18</title>
<g id="a_node18"><a xlink:href="dense__grid_8hpp.html" target="_top" xlink:title="Concepts and abstract implementations of dense grids.">
<polygon fill="none" stroke="black" points="762.5,-179.5 762.5,-209.5 872.5,-209.5 872.5,-179.5 762.5,-179.5"/>
<text text-anchor="start" x="770.5" y="-197.5" font-family="Helvetica,sans-Serif" font-size="10.00">beluga/sensor/data</text>
<text text-anchor="middle" x="817.5" y="-186.5" font-family="Helvetica,sans-Serif" font-size="10.00">/dense_grid.hpp</text>
</a>
</g>
</g>
<!-- Node16&#45;&gt;Node18 -->
<g id="edge22" class="edge">
<title>Node16&#45;&gt;Node18</title>
<path fill="none" stroke="midnightblue" d="M888.75,-246.4C876.11,-237.37 859.52,-225.51 845.53,-215.52"/>
<polygon fill="midnightblue" stroke="midnightblue" points="847.38,-212.54 837.21,-209.58 843.31,-218.24 847.38,-212.54"/>
</g>
<!-- Node18&#45;&gt;Node6 -->
<g id="edge32" class="edge">
<title>Node18&#45;&gt;Node6</title>
<path fill="none" stroke="midnightblue" d="M795.47,-179.43C780.33,-169.58 759.9,-155.91 742.5,-143 725,-130.01 724.44,-120.79 704.5,-112 606.74,-68.92 570.06,-93.49 460.2,-75.96"/>
<polygon fill="midnightblue" stroke="midnightblue" points="460.49,-72.46 450.05,-74.26 459.33,-79.37 460.49,-72.46"/>
</g>
<!-- Node18&#45;&gt;Node15 -->
<g id="edge24" class="edge">
<title>Node18&#45;&gt;Node15</title>
<path fill="none" stroke="midnightblue" d="M844.41,-179.4C865.78,-168.19 895.45,-152.64 916.35,-141.69"/>
<polygon fill="midnightblue" stroke="midnightblue" points="918.04,-144.75 925.27,-137.01 914.79,-138.55 918.04,-144.75"/>
</g>
<!-- Node18&#45;&gt;Node17 -->
<g id="edge23" class="edge">
<title>Node18&#45;&gt;Node17</title>
<path fill="none" stroke="midnightblue" d="M784.95,-179.4C758.63,-167.99 721.91,-152.08 696.57,-141.1"/>
<polygon fill="midnightblue" stroke="midnightblue" points="697.7,-137.77 687.13,-137.01 694.92,-144.19 697.7,-137.77"/>
</g>
<!-- Node19 -->
<g id="node19" class="node">
<title>Node19</title>
<g id="a_node19"><a xlink:href="regular__grid_8hpp.html" target="_top" xlink:title="Concepts and abstract implementations of regular grids.">
<polygon fill="none" stroke="black" points="751.5,-112.5 751.5,-142.5 861.5,-142.5 861.5,-112.5 751.5,-112.5"/>
<text text-anchor="start" x="759.5" y="-130.5" font-family="Helvetica,sans-Serif" font-size="10.00">beluga/sensor/data</text>
<text text-anchor="middle" x="806.5" y="-119.5" font-family="Helvetica,sans-Serif" font-size="10.00">/regular_grid.hpp</text>
</a>
</g>
</g>
<!-- Node18&#45;&gt;Node19 -->
<g id="edge25" class="edge">
<title>Node18&#45;&gt;Node19</title>
<path fill="none" stroke="midnightblue" d="M815.11,-179.4C813.79,-171.56 812.1,-161.6 810.57,-152.57"/>
<polygon fill="midnightblue" stroke="midnightblue" points="814,-151.85 808.88,-142.58 807.1,-153.02 814,-151.85"/>
</g>
<!-- Node23 -->
<g id="node23" class="node">
<title>Node23</title>
<g id="a_node23"><a xlink:href="eigen__compatibility_8hpp_source.html" target="_top" xlink:title=" ">
<polygon fill="none" stroke="black" points="848,-56.5 848,-75.5 1017,-75.5 1017,-56.5 848,-56.5"/>
<text text-anchor="middle" x="932.5" y="-63.5" font-family="Helvetica,sans-Serif" font-size="10.00">beluga/eigen_compatibility.hpp</text>
</a>
</g>
</g>
<!-- Node18&#45;&gt;Node23 -->
<g id="edge33" class="edge">
<title>Node18&#45;&gt;Node23</title>
<path fill="none" stroke="midnightblue" d="M833.31,-179.41C844.11,-169.54 858.58,-155.87 870.5,-143 888.49,-123.57 907.5,-99.71 919.65,-83.96"/>
<polygon fill="midnightblue" stroke="midnightblue" points="922.66,-85.79 925.95,-75.73 917.1,-81.54 922.66,-85.79"/>
</g>
<!-- Node19&#45;&gt;Node6 -->
<g id="edge29" class="edge">
<title>Node19&#45;&gt;Node6</title>
<path fill="none" stroke="midnightblue" d="M751.21,-114.48C746.58,-113.6 741.97,-112.76 737.5,-112 617.78,-91.7 584.09,-96.24 459.93,-75.95"/>
<polygon fill="midnightblue" stroke="midnightblue" points="460.48,-72.49 450.04,-74.31 459.34,-79.4 460.48,-72.49"/>
</g>
<!-- Node20 -->
<g id="node20" class="node">
<title>Node20</title>
<g id="a_node20"><a xlink:title=" ">
<polygon fill="none" stroke="#bfbfbf" points="783,-56.5 783,-75.5 830,-75.5 830,-56.5 783,-56.5"/>
<text text-anchor="middle" x="806.5" y="-63.5" font-family="Helvetica,sans-Serif" font-size="10.00">cmath</text>
</a>
</g>
</g>
<!-- Node19&#45;&gt;Node20 -->
<g id="edge26" class="edge">
<title>Node19&#45;&gt;Node20</title>
<path fill="none" stroke="midnightblue" d="M806.5,-112.4C806.5,-104.47 806.5,-94.46 806.5,-85.86"/>
<polygon fill="midnightblue" stroke="midnightblue" points="810,-85.66 806.5,-75.66 803,-85.66 810,-85.66"/>
</g>
<!-- Node21 -->
<g id="node21" class="node">
<title>Node21</title>
<g id="a_node21"><a xlink:href="ciabatta_8hpp_source.html" target="_top" xlink:title=" ">
<polygon fill="none" stroke="black" points="644.5,-56.5 644.5,-75.5 764.5,-75.5 764.5,-56.5 644.5,-56.5"/>
<text text-anchor="middle" x="704.5" y="-63.5" font-family="Helvetica,sans-Serif" font-size="10.00">ciabatta/ciabatta.hpp</text>
</a>
</g>
</g>
<!-- Node19&#45;&gt;Node21 -->
<g id="edge27" class="edge">
<title>Node19&#45;&gt;Node21</title>
<path fill="none" stroke="midnightblue" d="M782.33,-112.4C765.98,-102.86 744.49,-90.32 728.23,-80.84"/>
<polygon fill="midnightblue" stroke="midnightblue" points="729.74,-77.67 719.34,-75.66 726.22,-83.72 729.74,-77.67"/>
</g>
<!-- Node19&#45;&gt;Node22 -->
<g id="edge28" class="edge">
<title>Node19&#45;&gt;Node22</title>
<path fill="none" stroke="midnightblue" d="M751.26,-113.81C704.67,-103.11 638.72,-87.96 594.6,-77.82"/>
<polygon fill="midnightblue" stroke="midnightblue" points="595.23,-74.37 584.7,-75.55 593.67,-81.2 595.23,-74.37"/>
</g>
<!-- Node19&#45;&gt;Node23 -->
<g id="edge30" class="edge">
<title>Node19&#45;&gt;Node23</title>
<path fill="none" stroke="midnightblue" d="M836.36,-112.4C857.12,-102.59 884.6,-89.62 904.86,-80.05"/>
<polygon fill="midnightblue" stroke="midnightblue" points="906.62,-83.09 914.17,-75.66 903.63,-76.76 906.62,-83.09"/>
</g>
<!-- Node24 -->
<g id="node24" class="node">
<title>Node24</title>
<g id="a_node24"><a xlink:title=" ">
<polygon fill="none" stroke="#bfbfbf" points="894,-0.5 894,-19.5 971,-19.5 971,-0.5 894,-0.5"/>
<text text-anchor="middle" x="932.5" y="-7.5" font-family="Helvetica,sans-Serif" font-size="10.00">Eigen/Dense</text>
</a>
</g>
</g>
<!-- Node23&#45;&gt;Node24 -->
<g id="edge31" class="edge">
<title>Node23&#45;&gt;Node24</title>
<path fill="none" stroke="midnightblue" d="M932.5,-56.08C932.5,-49.01 932.5,-38.86 932.5,-29.99"/>
<polygon fill="midnightblue" stroke="midnightblue" points="936,-29.75 932.5,-19.75 929,-29.75 936,-29.75"/>
</g>
</g>
</svg>
        <g id="navigator" transform="translate(0 0)" fill="#404254">
                <rect fill="#f2f5e9" fill-opacity="0.5" stroke="#606060" stroke-width=".5" x="0" y="0" width="60" height="60"/>
                <use id="zoomplus" xlink:href="#zoomPlus" x="17" y="9" onmousedown="handleZoom(evt,'in')"/>
                <use id="zoomminus" xlink:href="#zoomMin" x="42" y="9" onmousedown="handleZoom(evt,'out')"/>
                <use id="reset" xlink:href="#resetDef" x="30" y="36" onmousedown="handleReset()"/>
                <g id="arrowUp" xlink:href="#dirArrow" transform="translate(30 24)" onmousedown="handlePan(0,-1)">
                  <use xlink:href="#rim" fill="#404040">
                        <set attributeName="fill" to="#808080" begin="arrowUp.mouseover" end="arrowUp.mouseout"/>
                  </use>
                  <path fill="none" stroke="white" stroke-width="1.5" d="M0,-3.0v7 M-2.5,-0.5L0,-3.0L2.5,-0.5"/>
                </g>
                <g id="arrowRight" xlink:href="#dirArrow" transform="rotate(90) translate(36 -43)" onmousedown="handlePan(1,0)">
                  <use xlink:href="#rim" fill="#404040">
                        <set attributeName="fill" to="#808080" begin="arrowRight.mouseover" end="arrowRight.mouseout"/>
                  </use>
                  <path fill="none" stroke="white" stroke-width="1.5" d="M0,-3.0v7 M-2.5,-0.5L0,-3.0L2.5,-0.5"/>
                </g>
                <g id="arrowDown" xlink:href="#dirArrow" transform="rotate(180) translate(-30 -48)" onmousedown="handlePan(0,1)">
                  <use xlink:href="#rim" fill="#404040">
                        <set attributeName="fill" to="#808080" begin="arrowDown.mouseover" end="arrowDown.mouseout"/>
                  </use>
                  <path fill="none" stroke="white" stroke-width="1.5" d="M0,-3.0v7 M-2.5,-0.5L0,-3.0L2.5,-0.5"/>
                </g>
                <g id="arrowLeft" xlink:href="#dirArrow" transform="rotate(270) translate(-36 17)" onmousedown="handlePan(-1,0)">
                  <use xlink:href="#rim" fill="#404040">
                        <set attributeName="fill" to="#808080" begin="arrowLeft.mouseover" end="arrowLeft.mouseout"/>
                  </use>
                  <path fill="none" stroke="white" stroke-width="1.5" d="M0,-3.0v7 M-2.5,-0.5L0,-3.0L2.5,-0.5"/>
                </g>
        </g>
        <svg viewBox="0 0 15 15" width="100%" height="30px" preserveAspectRatio="xMaxYMin meet">
         <g id="arrow_out" transform="scale(0.3 0.3)">
          <a xlink:href="random_8hpp__incl_org.svg" target="_base">
           <rect id="button" ry="5" rx="5" y="6" x="6" height="38" width="38"
                fill="#f2f5e9" fill-opacity="0.5" stroke="#606060" stroke-width="1.0"/>
           <path id="arrow"
             d="M 11.500037,31.436501 C 11.940474,20.09759 22.043105,11.32322 32.158766,21.979434 L 37.068811,17.246167 C 37.068811,17.246167 37.088388,32 37.088388,32 L 22.160133,31.978069 C 22.160133,31.978069 26.997745,27.140456 26.997745,27.140456 C 18.528582,18.264221 13.291696,25.230495 11.500037,31.436501 z"
             style="fill:#404040;"/>
          </a>
         </g>
        </svg>
</svg>
