<?xml version="1.0" encoding="UTF-8" standalone="no"?>
<!DOCTYPE svg PUBLIC "-//W3C//DTD SVG 1.1//EN"
 "http://www.w3.org/Graphics/SVG/1.1/DTD/svg11.dtd">
<!-- Generated by graphviz version 2.43.0 (0)
 -->
<!-- Title: /home/runner/work/beluga/beluga/beluga/include/beluga/algorithm/raycasting.hpp Pages: 1 -->
<svg width="652pt" height="184pt"
 viewBox="0.00 0.00 652.00 184.00" xmlns="http://www.w3.org/2000/svg" xmlns:xlink="http://www.w3.org/1999/xlink">
<g id="graph0" class="graph" transform="scale(1 1) rotate(0) translate(4 180)">
<title>/home/runner/work/beluga/beluga/beluga/include/beluga/algorithm/raycasting.hpp</title>
<!-- Node1 -->
<g id="node1" class="node">
<title>Node1</title>
<g id="a_node1"><a xlink:title="Implementation of raycasting algorithms.">
<polygon fill="#bfbfbf" stroke="black" points="167,-134.5 167,-175.5 345,-175.5 345,-134.5 167,-134.5"/>
<text text-anchor="start" x="175" y="-163.5" font-family="Helvetica,sans-Serif" font-size="10.00">/home/runner/work/beluga</text>
<text text-anchor="start" x="175" y="-152.5" font-family="Helvetica,sans-Serif" font-size="10.00">/beluga/beluga/include</text>
<text text-anchor="middle" x="256" y="-141.5" font-family="Helvetica,sans-Serif" font-size="10.00">/beluga/algorithm/raycasting.hpp</text>
</a>
</g>
</g>
<!-- Node2 -->
<g id="node2" class="node">
<title>Node2</title>
<g id="a_node2"><a xlink:title=" ">
<polygon fill="none" stroke="#bfbfbf" points="0,-73 0,-92 64,-92 64,-73 0,-73"/>
<text text-anchor="middle" x="32" y="-80" font-family="Helvetica,sans-Serif" font-size="10.00">algorithm</text>
</a>
</g>
</g>
<!-- Node1&#45;&gt;Node2 -->
<g id="edge1" class="edge">
<title>Node1&#45;&gt;Node2</title>
<path fill="none" stroke="midnightblue" d="M189.71,-134.46C154.86,-124 111.5,-110.69 73,-98 70.55,-97.19 68.03,-96.34 65.49,-95.48"/>
<polygon fill="midnightblue" stroke="midnightblue" points="66.38,-92.08 55.79,-92.11 64.09,-98.69 66.38,-92.08"/>
</g>
<!-- Node3 -->
<g id="node3" class="node">
<title>Node3</title>
<g id="a_node3"><a xlink:title=" ">
<polygon fill="none" stroke="#bfbfbf" points="82,-73 82,-92 138,-92 138,-73 82,-73"/>
<text text-anchor="middle" x="110" y="-80" font-family="Helvetica,sans-Serif" font-size="10.00">optional</text>
</a>
</g>
</g>
<!-- Node1&#45;&gt;Node3 -->
<g id="edge2" class="edge">
<title>Node1&#45;&gt;Node3</title>
<path fill="none" stroke="midnightblue" d="M215.33,-134.36C190.34,-122.29 159.02,-107.17 137.05,-96.56"/>
<polygon fill="midnightblue" stroke="midnightblue" points="138.49,-93.37 127.96,-92.17 135.45,-99.67 138.49,-93.37"/>
</g>
<!-- Node4 -->
<g id="node4" class="node">
<title>Node4</title>
<g id="a_node4"><a xlink:title=" ">
<polygon fill="none" stroke="#bfbfbf" points="79.5,-6 79.5,-25 124.5,-25 124.5,-6 79.5,-6"/>
<text text-anchor="middle" x="102" y="-13" font-family="Helvetica,sans-Serif" font-size="10.00">utility</text>
</a>
</g>
</g>
<!-- Node1&#45;&gt;Node4 -->
<g id="edge3" class="edge">
<title>Node1&#45;&gt;Node4</title>
<path fill="none" stroke="midnightblue" d="M233.94,-134.3C203.03,-106.71 147.5,-57.12 119.36,-32"/>
<polygon fill="midnightblue" stroke="midnightblue" points="121.35,-29.09 111.56,-25.04 116.69,-34.31 121.35,-29.09"/>
</g>
<!-- Node5 -->
<g id="node5" class="node">
<title>Node5</title>
<g id="a_node5"><a xlink:href="bresenham_8hpp.html" target="_top" xlink:title="Implementation of Bresenham&#45;like raytracing algorithms.">
<polygon fill="none" stroke="black" points="232,-67.5 232,-97.5 386,-97.5 386,-67.5 232,-67.5"/>
<text text-anchor="start" x="240" y="-85.5" font-family="Helvetica,sans-Serif" font-size="10.00">beluga/algorithm/raycasting</text>
<text text-anchor="middle" x="309" y="-74.5" font-family="Helvetica,sans-Serif" font-size="10.00">/bresenham.hpp</text>
</a>
</g>
</g>
<!-- Node1&#45;&gt;Node5 -->
<g id="edge4" class="edge">
<title>Node1&#45;&gt;Node5</title>
<path fill="none" stroke="midnightblue" d="M270.76,-134.36C277.36,-125.59 285.16,-115.21 292,-106.12"/>
<polygon fill="midnightblue" stroke="midnightblue" points="294.97,-107.99 298.18,-97.89 289.37,-103.78 294.97,-107.99"/>
</g>
<!-- Node6 -->
<g id="node6" class="node">
<title>Node6</title>
<g id="a_node6"><a xlink:title=" ">
<polygon fill="none" stroke="#bfbfbf" points="143,-6 143,-25 265,-25 265,-6 143,-6"/>
<text text-anchor="middle" x="204" y="-13" font-family="Helvetica,sans-Serif" font-size="10.00">range/v3/view/all.hpp</text>
</a>
</g>
</g>
<!-- Node1&#45;&gt;Node6 -->
<g id="edge9" class="edge">
<title>Node1&#45;&gt;Node6</title>
<path fill="none" stroke="midnightblue" d="M242.38,-134.28C235.72,-123.88 228.07,-110.68 223,-98 214.75,-77.4 209.58,-52.36 206.75,-35.52"/>
<polygon fill="midnightblue" stroke="midnightblue" points="210.16,-34.67 205.16,-25.33 203.25,-35.75 210.16,-34.67"/>
</g>
<!-- Node7 -->
<g id="node7" class="node">
<title>Node7</title>
<g id="a_node7"><a xlink:title=" ">
<polygon fill="none" stroke="#bfbfbf" points="371,-0.5 371,-30.5 481,-30.5 481,-0.5 371,-0.5"/>
<text text-anchor="start" x="379" y="-18.5" font-family="Helvetica,sans-Serif" font-size="10.00">range/v3/view/take</text>
<text text-anchor="middle" x="426" y="-7.5" font-family="Helvetica,sans-Serif" font-size="10.00">_while.hpp</text>
</a>
</g>
</g>
<!-- Node1&#45;&gt;Node7 -->
<g id="edge10" class="edge">
<title>Node1&#45;&gt;Node7</title>
<path fill="none" stroke="midnightblue" d="M336.31,-134.42C357.54,-126.07 378.97,-114.35 395,-98 410.26,-82.44 418.16,-58.61 422.15,-40.73"/>
<polygon fill="midnightblue" stroke="midnightblue" points="425.62,-41.24 424.12,-30.75 418.75,-39.88 425.62,-41.24"/>
</g>
<!-- Node9 -->
<g id="node9" class="node">
<title>Node9</title>
<g id="a_node9"><a xlink:title=" ">
<polygon fill="none" stroke="#bfbfbf" points="442,-73 442,-92 534,-92 534,-73 442,-73"/>
<text text-anchor="middle" x="488" y="-80" font-family="Helvetica,sans-Serif" font-size="10.00">sophus/se2.hpp</text>
</a>
</g>
</g>
<!-- Node1&#45;&gt;Node9 -->
<g id="edge11" class="edge">
<title>Node1&#45;&gt;Node9</title>
<path fill="none" stroke="midnightblue" d="M320.32,-134.46C362.06,-121.77 415.02,-105.68 450.14,-95.01"/>
<polygon fill="midnightblue" stroke="midnightblue" points="451.44,-98.27 459.99,-92.01 449.4,-91.57 451.44,-98.27"/>
</g>
<!-- Node10 -->
<g id="node10" class="node">
<title>Node10</title>
<g id="a_node10"><a xlink:title=" ">
<polygon fill="none" stroke="#bfbfbf" points="552,-73 552,-92 644,-92 644,-73 552,-73"/>
<text text-anchor="middle" x="598" y="-80" font-family="Helvetica,sans-Serif" font-size="10.00">sophus/so2.hpp</text>
</a>
</g>
</g>
<!-- Node1&#45;&gt;Node10 -->
<g id="edge12" class="edge">
<title>Node1&#45;&gt;Node10</title>
<path fill="none" stroke="midnightblue" d="M345.2,-138.14C402.01,-127.66 477.06,-113.11 543,-98 547.63,-96.94 552.46,-95.77 557.25,-94.56"/>
<polygon fill="midnightblue" stroke="midnightblue" points="558.15,-97.94 566.96,-92.06 556.41,-91.16 558.15,-97.94"/>
</g>
<!-- Node5&#45;&gt;Node4 -->
<g id="edge5" class="edge">
<title>Node5&#45;&gt;Node4</title>
<path fill="none" stroke="midnightblue" d="M252.77,-67.49C218.12,-58.31 173.02,-45.38 134,-31 132.39,-30.41 130.74,-29.77 129.09,-29.1"/>
<polygon fill="midnightblue" stroke="midnightblue" points="130.32,-25.82 119.75,-25.09 127.56,-32.25 130.32,-25.82"/>
</g>
<!-- Node5&#45;&gt;Node6 -->
<g id="edge6" class="edge">
<title>Node5&#45;&gt;Node6</title>
<path fill="none" stroke="midnightblue" d="M286.22,-67.4C268.45,-56.39 243.9,-41.2 226.26,-30.28"/>
<polygon fill="midnightblue" stroke="midnightblue" points="228.09,-27.29 217.74,-25.01 224.4,-33.25 228.09,-27.29"/>
</g>
<!-- Node5&#45;&gt;Node7 -->
<g id="edge7" class="edge">
<title>Node5&#45;&gt;Node7</title>
<path fill="none" stroke="midnightblue" d="M334.39,-67.4C351.18,-58.07 373.39,-45.73 391.74,-35.53"/>
<polygon fill="midnightblue" stroke="midnightblue" points="393.62,-38.49 400.66,-30.58 390.22,-32.37 393.62,-38.49"/>
</g>
<!-- Node8 -->
<g id="node8" class="node">
<title>Node8</title>
<g id="a_node8"><a xlink:title=" ">
<polygon fill="none" stroke="#bfbfbf" points="283.5,-6 283.5,-25 352.5,-25 352.5,-6 283.5,-6"/>
<text text-anchor="middle" x="318" y="-13" font-family="Helvetica,sans-Serif" font-size="10.00">Eigen/Core</text>
</a>
</g>
</g>
<!-- Node5&#45;&gt;Node8 -->
<g id="edge8" class="edge">
<title>Node5&#45;&gt;Node8</title>
<path fill="none" stroke="midnightblue" d="M310.95,-67.4C312.26,-57.96 313.99,-45.45 315.41,-35.19"/>
<polygon fill="midnightblue" stroke="midnightblue" points="318.89,-35.58 316.8,-25.19 311.96,-34.62 318.89,-35.58"/>
</g>
</g>
</svg>
