<?xml version="1.0" encoding="UTF-8" standalone="no"?>
<!DOCTYPE svg PUBLIC "-//W3C//DTD SVG 1.1//EN"
 "http://www.w3.org/Graphics/SVG/1.1/DTD/svg11.dtd">
<!-- Generated by graphviz version 2.43.0 (0)
 -->
<!-- Title: /home/runner/work/beluga/beluga/beluga/include/beluga/algorithm/raycasting.hpp Pages: 1 -->
<svg width="652pt" height="184pt"
 viewBox="0.00 0.00 652.00 184.00" xmlns="http://www.w3.org/2000/svg" xmlns:xlink="http://www.w3.org/1999/xlink">
<g id="graph0" class="graph" transform="scale(1 1) rotate(0) translate(4 180)">
<title>/home/runner/work/beluga/beluga/beluga/include/beluga/algorithm/raycasting.hpp</title>
<!-- Node1 -->
<g id="node1" class="node">
<title>Node1</title>
<g id="a_node1"><a xlink:title="Implementation of raycasting algorithms.">
<polygon fill="#bfbfbf" stroke="black" points="234,-134.5 234,-175.5 412,-175.5 412,-134.5 234,-134.5"/>
<text text-anchor="start" x="242" y="-163.5" font-family="Helvetica,sans-Serif" font-size="10.00">/home/runner/work/beluga</text>
<text text-anchor="start" x="242" y="-152.5" font-family="Helvetica,sans-Serif" font-size="10.00">/beluga/beluga/include</text>
<text text-anchor="middle" x="323" y="-141.5" font-family="Helvetica,sans-Serif" font-size="10.00">/beluga/algorithm/raycasting.hpp</text>
</a>
</g>
</g>
<!-- Node2 -->
<g id="node2" class="node">
<title>Node2</title>
<g id="a_node2"><a xlink:title=" ">
<polygon fill="none" stroke="#bfbfbf" points="0,-73 0,-92 64,-92 64,-73 0,-73"/>
<text text-anchor="middle" x="32" y="-80" font-family="Helvetica,sans-Serif" font-size="10.00">algorithm</text>
</a>
</g>
</g>
<!-- Node1&#45;&gt;Node2 -->
<g id="edge1" class="edge">
<title>Node1&#45;&gt;Node2</title>
<path fill="none" stroke="midnightblue" d="M233.84,-136.73C185.83,-126.76 125.79,-113.19 73,-98 70.21,-97.2 67.34,-96.31 64.46,-95.38"/>
<polygon fill="midnightblue" stroke="midnightblue" points="65.42,-92.01 54.83,-92.12 63.18,-98.64 65.42,-92.01"/>
</g>
<!-- Node3 -->
<g id="node3" class="node">
<title>Node3</title>
<g id="a_node3"><a xlink:title=" ">
<polygon fill="none" stroke="#bfbfbf" points="82,-73 82,-92 138,-92 138,-73 82,-73"/>
<text text-anchor="middle" x="110" y="-80" font-family="Helvetica,sans-Serif" font-size="10.00">optional</text>
</a>
</g>
</g>
<!-- Node1&#45;&gt;Node3 -->
<g id="edge2" class="edge">
<title>Node1&#45;&gt;Node3</title>
<path fill="none" stroke="midnightblue" d="M262.38,-134.41C229.65,-123.76 188.57,-110.3 152,-98 149.57,-97.18 147.06,-96.33 144.54,-95.47"/>
<polygon fill="midnightblue" stroke="midnightblue" points="145.45,-92.08 134.85,-92.15 143.18,-98.71 145.45,-92.08"/>
</g>
<!-- Node4 -->
<g id="node4" class="node">
<title>Node4</title>
<g id="a_node4"><a xlink:title=" ">
<polygon fill="none" stroke="#bfbfbf" points="95.5,-6 95.5,-25 140.5,-25 140.5,-6 95.5,-6"/>
<text text-anchor="middle" x="118" y="-13" font-family="Helvetica,sans-Serif" font-size="10.00">utility</text>
</a>
</g>
</g>
<!-- Node1&#45;&gt;Node4 -->
<g id="edge3" class="edge">
<title>Node1&#45;&gt;Node4</title>
<path fill="none" stroke="midnightblue" d="M255.98,-134.42C232.21,-125.57 206.14,-113.55 185,-98 161.1,-80.42 140.61,-52.45 128.8,-34.28"/>
<polygon fill="midnightblue" stroke="midnightblue" points="131.45,-31.92 123.16,-25.33 125.52,-35.65 131.45,-31.92"/>
</g>
<!-- Node5 -->
<g id="node5" class="node">
<title>Node5</title>
<g id="a_node5"><a xlink:href="bresenham_8hpp.html" target="_top" xlink:title="Implementation of Bresenham&#45;like raytracing algorithms.">
<polygon fill="none" stroke="black" points="194,-67.5 194,-97.5 348,-97.5 348,-67.5 194,-67.5"/>
<text text-anchor="start" x="202" y="-85.5" font-family="Helvetica,sans-Serif" font-size="10.00">beluga/algorithm/raycasting</text>
<text text-anchor="middle" x="271" y="-74.5" font-family="Helvetica,sans-Serif" font-size="10.00">/bresenham.hpp</text>
</a>
</g>
</g>
<!-- Node1&#45;&gt;Node5 -->
<g id="edge4" class="edge">
<title>Node1&#45;&gt;Node5</title>
<path fill="none" stroke="midnightblue" d="M308.52,-134.36C302.05,-125.59 294.39,-115.21 287.68,-106.12"/>
<polygon fill="midnightblue" stroke="midnightblue" points="290.37,-103.86 281.62,-97.89 284.73,-108.02 290.37,-103.86"/>
</g>
<!-- Node7 -->
<g id="node7" class="node">
<title>Node7</title>
<g id="a_node7"><a xlink:title=" ">
<polygon fill="none" stroke="#bfbfbf" points="314,-6 314,-25 436,-25 436,-6 314,-6"/>
<text text-anchor="middle" x="375" y="-13" font-family="Helvetica,sans-Serif" font-size="10.00">range/v3/view/all.hpp</text>
</a>
</g>
</g>
<!-- Node1&#45;&gt;Node7 -->
<g id="edge10" class="edge">
<title>Node1&#45;&gt;Node7</title>
<path fill="none" stroke="midnightblue" d="M337.12,-134.36C344,-123.98 351.88,-110.77 357,-98 365.24,-77.46 370.06,-52.41 372.6,-35.55"/>
<polygon fill="midnightblue" stroke="midnightblue" points="376.11,-35.73 374.01,-25.34 369.17,-34.77 376.11,-35.73"/>
</g>
<!-- Node8 -->
<g id="node8" class="node">
<title>Node8</title>
<g id="a_node8"><a xlink:title=" ">
<polygon fill="none" stroke="#bfbfbf" points="454,-0.5 454,-30.5 564,-30.5 564,-0.5 454,-0.5"/>
<text text-anchor="start" x="462" y="-18.5" font-family="Helvetica,sans-Serif" font-size="10.00">range/v3/view/take</text>
<text text-anchor="middle" x="509" y="-7.5" font-family="Helvetica,sans-Serif" font-size="10.00">_while.hpp</text>
</a>
</g>
</g>
<!-- Node1&#45;&gt;Node8 -->
<g id="edge11" class="edge">
<title>Node1&#45;&gt;Node8</title>
<path fill="none" stroke="midnightblue" d="M346.59,-134.41C368.57,-116.39 402.46,-89.17 433,-67 447.51,-56.47 464.05,-45.37 477.99,-36.28"/>
<polygon fill="midnightblue" stroke="midnightblue" points="480.24,-38.99 486.72,-30.61 476.43,-33.12 480.24,-38.99"/>
</g>
<!-- Node10 -->
<g id="node10" class="node">
<title>Node10</title>
<g id="a_node10"><a xlink:title=" ">
<polygon fill="none" stroke="#bfbfbf" points="442,-73 442,-92 534,-92 534,-73 442,-73"/>
<text text-anchor="middle" x="488" y="-80" font-family="Helvetica,sans-Serif" font-size="10.00">sophus/se2.hpp</text>
</a>
</g>
</g>
<!-- Node1&#45;&gt;Node10 -->
<g id="edge12" class="edge">
<title>Node1&#45;&gt;Node10</title>
<path fill="none" stroke="midnightblue" d="M368.96,-134.36C397.58,-122.13 433.56,-106.76 458.43,-96.14"/>
<polygon fill="midnightblue" stroke="midnightblue" points="459.88,-99.32 467.7,-92.17 457.13,-92.88 459.88,-99.32"/>
</g>
<!-- Node11 -->
<g id="node11" class="node">
<title>Node11</title>
<g id="a_node11"><a xlink:title=" ">
<polygon fill="none" stroke="#bfbfbf" points="552,-73 552,-92 644,-92 644,-73 552,-73"/>
<text text-anchor="middle" x="598" y="-80" font-family="Helvetica,sans-Serif" font-size="10.00">sophus/so2.hpp</text>
</a>
</g>
</g>
<!-- Node1&#45;&gt;Node11 -->
<g id="edge13" class="edge">
<title>Node1&#45;&gt;Node11</title>
<path fill="none" stroke="midnightblue" d="M400.42,-134.46C442.6,-123.78 495.69,-110.26 543,-98 547.14,-96.93 551.45,-95.8 555.76,-94.67"/>
<polygon fill="midnightblue" stroke="midnightblue" points="556.95,-97.98 565.73,-92.06 555.17,-91.21 556.95,-97.98"/>
</g>
<!-- Node5&#45;&gt;Node4 -->
<g id="edge6" class="edge">
<title>Node5&#45;&gt;Node4</title>
<path fill="none" stroke="midnightblue" d="M235.85,-67.44C211.38,-57.53 178.05,-43.8 149,-31 147.81,-30.47 146.59,-29.93 145.36,-29.38"/>
<polygon fill="midnightblue" stroke="midnightblue" points="146.52,-26.06 135.97,-25.07 143.6,-32.42 146.52,-26.06"/>
</g>
<!-- Node6 -->
<g id="node6" class="node">
<title>Node6</title>
<g id="a_node6"><a xlink:title=" ">
<polygon fill="none" stroke="#bfbfbf" points="246,-6 246,-25 296,-25 296,-6 246,-6"/>
<text text-anchor="middle" x="271" y="-13" font-family="Helvetica,sans-Serif" font-size="10.00">cstdint</text>
</a>
</g>
</g>
<!-- Node5&#45;&gt;Node6 -->
<g id="edge5" class="edge">
<title>Node5&#45;&gt;Node6</title>
<path fill="none" stroke="midnightblue" d="M271,-67.4C271,-58.06 271,-45.71 271,-35.52"/>
<polygon fill="midnightblue" stroke="midnightblue" points="274.5,-35.19 271,-25.19 267.5,-35.19 274.5,-35.19"/>
</g>
<!-- Node5&#45;&gt;Node7 -->
<g id="edge7" class="edge">
<title>Node5&#45;&gt;Node7</title>
<path fill="none" stroke="midnightblue" d="M293.57,-67.4C311.01,-56.5 335.03,-41.48 352.47,-30.58"/>
<polygon fill="midnightblue" stroke="midnightblue" points="354.76,-33.28 361.39,-25.01 351.05,-27.34 354.76,-33.28"/>
</g>
<!-- Node5&#45;&gt;Node8 -->
<g id="edge8" class="edge">
<title>Node5&#45;&gt;Node8</title>
<path fill="none" stroke="midnightblue" d="M322.35,-67.48C358.98,-57.47 408.41,-43.97 447.2,-33.38"/>
<polygon fill="midnightblue" stroke="midnightblue" points="448.61,-36.62 457.33,-30.61 446.76,-29.87 448.61,-36.62"/>
</g>
<!-- Node9 -->
<g id="node9" class="node">
<title>Node9</title>
<g id="a_node9"><a xlink:title=" ">
<polygon fill="none" stroke="#bfbfbf" points="158.5,-6 158.5,-25 227.5,-25 227.5,-6 158.5,-6"/>
<text text-anchor="middle" x="193" y="-13" font-family="Helvetica,sans-Serif" font-size="10.00">Eigen/Core</text>
</a>
</g>
</g>
<!-- Node5&#45;&gt;Node9 -->
<g id="edge9" class="edge">
<title>Node5&#45;&gt;Node9</title>
<path fill="none" stroke="midnightblue" d="M254.08,-67.4C241.43,-56.86 224.17,-42.48 211.23,-31.69"/>
<polygon fill="midnightblue" stroke="midnightblue" points="213.36,-28.91 203.43,-25.19 208.88,-34.29 213.36,-28.91"/>
</g>
</g>
</svg>
