<?xml version="1.0" encoding="UTF-8" standalone="no"?>
<!DOCTYPE svg PUBLIC "-//W3C//DTD SVG 1.1//EN"
 "http://www.w3.org/Graphics/SVG/1.1/DTD/svg11.dtd">
<!-- Generated by graphviz version 2.43.0 (0)
 -->
<!-- Title: /home/runner/work/beluga/beluga/beluga/include/beluga/sensor/data/regular_grid.hpp Pages: 1 -->
<!--zoomable 651 -->
<svg id="main" version="1.1" xmlns="http://www.w3.org/2000/svg" xmlns:xlink="http://www.w3.org/1999/xlink" xml:space="preserve" onload="init(evt)">
<style type="text/css"><![CDATA[
.edge:hover path { stroke: red; }
.edge:hover polygon { stroke: red; fill: red; }
]]></style>
<script type="text/javascript"><![CDATA[
var edges = document.getElementsByTagName('g');
if (edges && edges.length) {
  for (var i=0;i<edges.length;i++) {
    if (edges[i].id.substr(0,4)=='edge') {
      edges[i].setAttribute('class','edge');
    }
  }
}
]]></script>
        <defs>
                <circle id="rim" cx="0" cy="0" r="7"/>
                <circle id="rim2" cx="0" cy="0" r="3.5"/>
                <g id="zoomPlus">
                        <use xlink:href="#rim" fill="#404040">
                                <set attributeName="fill" to="#808080" begin="zoomplus.mouseover" end="zoomplus.mouseout"/>
                        </use>
                        <path d="M-4,0h8M0,-4v8" fill="none" stroke="white" stroke-width="1.5" pointer-events="none"/>
                </g>
                <g id="zoomMin">
                        <use xlink:href="#rim" fill="#404040">
                                <set attributeName="fill" to="#808080" begin="zoomminus.mouseover" end="zoomminus.mouseout"/>
                        </use>
                        <path d="M-4,0h8" fill="none" stroke="white" stroke-width="1.5" pointer-events="none"/>
                </g>
                <g id="dirArrow">
                        <path fill="none" stroke="white" stroke-width="1.5" d="M0,-3.0v7 M-2.5,-0.5L0,-3.0L2.5,-0.5"/>
                </g>
               <g id="resetDef">
                       <use xlink:href="#rim2" fill="#404040">
                               <set attributeName="fill" to="#808080" begin="reset.mouseover" end="reset.mouseout"/>
                       </use>
               </g>
        </defs>

<script type="text/javascript">
var viewWidth = 501;
var viewHeight = 651;
var sectionId = 'dynsection-1';
</script>
<script xlink:href="svgpan.js"/>
<svg id="graph" class="graph">
<g id="viewport">
<title>/home/runner/work/beluga/beluga/beluga/include/beluga/sensor/data/regular_grid.hpp</title>
<!-- Node1 -->
<g id="node1" class="node">
<title>Node1</title>
<g id="a_node1"><a xlink:title="Concepts and abstract implementations of regular grids.">
<polygon fill="#bfbfbf" stroke="black" points="212.5,-590.5 212.5,-642.5 362.5,-642.5 362.5,-590.5 212.5,-590.5"/>
<text text-anchor="start" x="220.5" y="-630.5" font-family="Helvetica,sans-Serif" font-size="10.00">/home/runner/work/beluga</text>
<text text-anchor="start" x="220.5" y="-619.5" font-family="Helvetica,sans-Serif" font-size="10.00">/beluga/beluga/include</text>
<text text-anchor="start" x="220.5" y="-608.5" font-family="Helvetica,sans-Serif" font-size="10.00">/beluga/sensor/data/regular</text>
<text text-anchor="middle" x="287.5" y="-597.5" font-family="Helvetica,sans-Serif" font-size="10.00">_grid.hpp</text>
</a>
</g>
</g>
<!-- Node2 -->
<g id="node2" class="node">
<title>Node2</title>
<g id="a_node2"><a xlink:href="dense__grid_8hpp.html" target="_top" xlink:title="Concepts and abstract implementations of dense grids.">
<polygon fill="none" stroke="black" points="133,-501.5 133,-553.5 278,-553.5 278,-501.5 133,-501.5"/>
<text text-anchor="start" x="141" y="-541.5" font-family="Helvetica,sans-Serif" font-size="10.00">/home/runner/work/beluga</text>
<text text-anchor="start" x="141" y="-530.5" font-family="Helvetica,sans-Serif" font-size="10.00">/beluga/beluga/include</text>
<text text-anchor="start" x="141" y="-519.5" font-family="Helvetica,sans-Serif" font-size="10.00">/beluga/sensor/data/dense</text>
<text text-anchor="middle" x="205.5" y="-508.5" font-family="Helvetica,sans-Serif" font-size="10.00">_grid.hpp</text>
</a>
</g>
</g>
<!-- Node1&#45;&gt;Node2 -->
<g id="edge1" class="edge">
<title>Node1&#45;&gt;Node2</title>
<path fill="none" stroke="midnightblue" d="M256.67,-582.79C247.56,-573.13 237.74,-562.71 229.16,-553.61"/>
<polygon fill="midnightblue" stroke="midnightblue" points="254.38,-585.46 263.78,-590.34 259.47,-580.66 254.38,-585.46"/>
</g>
<!-- Node12 -->
<g id="node12" class="node">
<title>Node12</title>
<g id="a_node12"><a xlink:href="sparse__value__grid_8hpp.html" target="_top" xlink:title="Implementation of generic sparse value regular grid.">
<polygon fill="none" stroke="black" points="296.5,-501.5 296.5,-553.5 444.5,-553.5 444.5,-501.5 296.5,-501.5"/>
<text text-anchor="start" x="304.5" y="-541.5" font-family="Helvetica,sans-Serif" font-size="10.00">/home/runner/work/beluga</text>
<text text-anchor="start" x="304.5" y="-530.5" font-family="Helvetica,sans-Serif" font-size="10.00">/beluga/beluga/include</text>
<text text-anchor="start" x="304.5" y="-519.5" font-family="Helvetica,sans-Serif" font-size="10.00">/beluga/sensor/data/sparse</text>
<text text-anchor="middle" x="370.5" y="-508.5" font-family="Helvetica,sans-Serif" font-size="10.00">_value_grid.hpp</text>
</a>
</g>
</g>
<!-- Node1&#45;&gt;Node12 -->
<g id="edge13" class="edge">
<title>Node1&#45;&gt;Node12</title>
<path fill="none" stroke="midnightblue" d="M318.43,-583.08C327.73,-573.34 337.78,-562.8 346.55,-553.61"/>
<polygon fill="midnightblue" stroke="midnightblue" points="315.88,-580.68 311.51,-590.34 320.94,-585.52 315.88,-580.68"/>
</g>
<!-- Node3 -->
<g id="node3" class="node">
<title>Node3</title>
<g id="a_node3"><a xlink:href="linear__grid_8hpp.html" target="_top" xlink:title="Concepts and abstract implementations of linear (ie. contiguous storage) grids.">
<polygon fill="none" stroke="black" points="133,-412.5 133,-464.5 278,-464.5 278,-412.5 133,-412.5"/>
<text text-anchor="start" x="141" y="-452.5" font-family="Helvetica,sans-Serif" font-size="10.00">/home/runner/work/beluga</text>
<text text-anchor="start" x="141" y="-441.5" font-family="Helvetica,sans-Serif" font-size="10.00">/beluga/beluga/include</text>
<text text-anchor="start" x="141" y="-430.5" font-family="Helvetica,sans-Serif" font-size="10.00">/beluga/sensor/data/linear</text>
<text text-anchor="middle" x="205.5" y="-419.5" font-family="Helvetica,sans-Serif" font-size="10.00">_grid.hpp</text>
</a>
</g>
</g>
<!-- Node2&#45;&gt;Node3 -->
<g id="edge2" class="edge">
<title>Node2&#45;&gt;Node3</title>
<path fill="none" stroke="midnightblue" d="M205.5,-491.19C205.5,-482.28 205.5,-472.9 205.5,-464.61"/>
<polygon fill="midnightblue" stroke="midnightblue" points="202,-491.34 205.5,-501.34 209,-491.34 202,-491.34"/>
</g>
<!-- Node4 -->
<g id="node4" class="node">
<title>Node4</title>
<g id="a_node4"><a xlink:href="occupancy__grid_8hpp.html" target="_top" xlink:title="Concepts and abstract implementations of occupancy grids.">
<polygon fill="none" stroke="black" points="0,-323.5 0,-375.5 167,-375.5 167,-323.5 0,-323.5"/>
<text text-anchor="start" x="8" y="-363.5" font-family="Helvetica,sans-Serif" font-size="10.00">/home/runner/work/beluga</text>
<text text-anchor="start" x="8" y="-352.5" font-family="Helvetica,sans-Serif" font-size="10.00">/beluga/beluga/include</text>
<text text-anchor="start" x="8" y="-341.5" font-family="Helvetica,sans-Serif" font-size="10.00">/beluga/sensor/data/occupancy</text>
<text text-anchor="middle" x="83.5" y="-330.5" font-family="Helvetica,sans-Serif" font-size="10.00">_grid.hpp</text>
</a>
</g>
</g>
<!-- Node3&#45;&gt;Node4 -->
<g id="edge3" class="edge">
<title>Node3&#45;&gt;Node4</title>
<path fill="none" stroke="midnightblue" d="M162.03,-406.5C147.83,-396.37 132.23,-385.25 118.71,-375.61"/>
<polygon fill="midnightblue" stroke="midnightblue" points="160.04,-409.38 170.21,-412.34 164.1,-403.68 160.04,-409.38"/>
</g>
<!-- Node11 -->
<g id="node11" class="node">
<title>Node11</title>
<g id="a_node11"><a xlink:href="value__grid_8hpp.html" target="_top" xlink:title="Implementation of generic value grid.">
<polygon fill="none" stroke="black" points="185,-323.5 185,-375.5 330,-375.5 330,-323.5 185,-323.5"/>
<text text-anchor="start" x="193" y="-363.5" font-family="Helvetica,sans-Serif" font-size="10.00">/home/runner/work/beluga</text>
<text text-anchor="start" x="193" y="-352.5" font-family="Helvetica,sans-Serif" font-size="10.00">/beluga/beluga/include</text>
<text text-anchor="start" x="193" y="-341.5" font-family="Helvetica,sans-Serif" font-size="10.00">/beluga/sensor/data/value</text>
<text text-anchor="middle" x="257.5" y="-330.5" font-family="Helvetica,sans-Serif" font-size="10.00">_grid.hpp</text>
</a>
</g>
</g>
<!-- Node3&#45;&gt;Node11 -->
<g id="edge11" class="edge">
<title>Node3&#45;&gt;Node11</title>
<path fill="none" stroke="midnightblue" d="M225.74,-403.64C231.32,-394.31 237.27,-384.35 242.49,-375.61"/>
<polygon fill="midnightblue" stroke="midnightblue" points="222.67,-401.96 220.54,-412.34 228.68,-405.55 222.67,-401.96"/>
</g>
<!-- Node5 -->
<g id="node5" class="node">
<title>Node5</title>
<g id="a_node5"><a xlink:href="multivariate__uniform__distribution_8hpp.html" target="_top" xlink:title="Implementation of a multivariate uniform distribution for SE(2) and SE(3) spaces.">
<polygon fill="none" stroke="black" points="7.5,-234.5 7.5,-286.5 163.5,-286.5 163.5,-234.5 7.5,-234.5"/>
<text text-anchor="start" x="15.5" y="-274.5" font-family="Helvetica,sans-Serif" font-size="10.00">/home/runner/work/beluga</text>
<text text-anchor="start" x="15.5" y="-263.5" font-family="Helvetica,sans-Serif" font-size="10.00">/beluga/beluga/include</text>
<text text-anchor="start" x="15.5" y="-252.5" font-family="Helvetica,sans-Serif" font-size="10.00">/beluga/random/multivariate</text>
<text text-anchor="middle" x="85.5" y="-241.5" font-family="Helvetica,sans-Serif" font-size="10.00">_uniform_distribution.hpp</text>
</a>
</g>
</g>
<!-- Node4&#45;&gt;Node5 -->
<g id="edge4" class="edge">
<title>Node4&#45;&gt;Node5</title>
<path fill="none" stroke="midnightblue" d="M84.31,-313.19C84.52,-304.28 84.73,-294.9 84.92,-286.61"/>
<polygon fill="midnightblue" stroke="midnightblue" points="80.81,-313.26 84.08,-323.34 87.81,-313.42 80.81,-313.26"/>
</g>
<!-- Node9 -->
<g id="node9" class="node">
<title>Node9</title>
<g id="a_node9"><a xlink:href="likelihood__field__model_8hpp.html" target="_top" xlink:title="Implementation of a likelihood field sensor model for range finders.">
<polygon fill="none" stroke="black" points="183,-234.5 183,-286.5 328,-286.5 328,-234.5 183,-234.5"/>
<text text-anchor="start" x="191" y="-274.5" font-family="Helvetica,sans-Serif" font-size="10.00">/home/runner/work/beluga</text>
<text text-anchor="start" x="191" y="-263.5" font-family="Helvetica,sans-Serif" font-size="10.00">/beluga/beluga/include</text>
<text text-anchor="start" x="191" y="-252.5" font-family="Helvetica,sans-Serif" font-size="10.00">/beluga/sensor/likelihood</text>
<text text-anchor="middle" x="255.5" y="-241.5" font-family="Helvetica,sans-Serif" font-size="10.00">_field_model.hpp</text>
</a>
</g>
</g>
<!-- Node4&#45;&gt;Node9 -->
<g id="edge8" class="edge">
<title>Node4&#45;&gt;Node9</title>
<path fill="none" stroke="midnightblue" d="M142.26,-318.78C162.96,-308.31 186,-296.66 205.86,-286.61"/>
<polygon fill="midnightblue" stroke="midnightblue" points="140.59,-315.7 133.25,-323.34 143.75,-321.95 140.59,-315.7"/>
</g>
<!-- Node6 -->
<g id="node6" class="node">
<title>Node6</title>
<g id="a_node6"><a xlink:href="random_8hpp.html" target="_top" xlink:title="Includes all Beluga random distributions.">
<polygon fill="none" stroke="black" points="17,-156.5 17,-197.5 162,-197.5 162,-156.5 17,-156.5"/>
<text text-anchor="start" x="25" y="-185.5" font-family="Helvetica,sans-Serif" font-size="10.00">/home/runner/work/beluga</text>
<text text-anchor="start" x="25" y="-174.5" font-family="Helvetica,sans-Serif" font-size="10.00">/beluga/beluga/include</text>
<text text-anchor="middle" x="89.5" y="-163.5" font-family="Helvetica,sans-Serif" font-size="10.00">/beluga/random.hpp</text>
</a>
</g>
</g>
<!-- Node5&#45;&gt;Node6 -->
<g id="edge5" class="edge">
<title>Node5&#45;&gt;Node6</title>
<path fill="none" stroke="midnightblue" d="M87.24,-224.15C87.68,-215.05 88.15,-205.6 88.54,-197.63"/>
<polygon fill="midnightblue" stroke="midnightblue" points="83.74,-224 86.74,-234.16 90.73,-224.34 83.74,-224"/>
</g>
<!-- Node7 -->
<g id="node7" class="node">
<title>Node7</title>
<g id="a_node7"><a xlink:href="beluga_8hpp.html" target="_top" xlink:title="Includes all the Beluga API.">
<polygon fill="none" stroke="black" points="98,-78.5 98,-119.5 243,-119.5 243,-78.5 98,-78.5"/>
<text text-anchor="start" x="106" y="-107.5" font-family="Helvetica,sans-Serif" font-size="10.00">/home/runner/work/beluga</text>
<text text-anchor="start" x="106" y="-96.5" font-family="Helvetica,sans-Serif" font-size="10.00">/beluga/beluga/include</text>
<text text-anchor="middle" x="170.5" y="-85.5" font-family="Helvetica,sans-Serif" font-size="10.00">/beluga/beluga.hpp</text>
</a>
</g>
</g>
<!-- Node6&#45;&gt;Node7 -->
<g id="edge6" class="edge">
<title>Node6&#45;&gt;Node7</title>
<path fill="none" stroke="midnightblue" d="M117.75,-149.49C128.26,-139.63 139.99,-128.63 149.71,-119.51"/>
<polygon fill="midnightblue" stroke="midnightblue" points="115.26,-147.03 110.36,-156.43 120.05,-152.14 115.26,-147.03"/>
</g>
<!-- Node8 -->
<g id="node8" class="node">
<title>Node8</title>
<g id="a_node8"><a xlink:href="amcl__core_8hpp_source.html" target="_top" xlink:title=" ">
<polygon fill="none" stroke="black" points="82,-0.5 82,-41.5 259,-41.5 259,-0.5 82,-0.5"/>
<text text-anchor="start" x="90" y="-29.5" font-family="Helvetica,sans-Serif" font-size="10.00">/home/runner/work/beluga</text>
<text text-anchor="start" x="90" y="-18.5" font-family="Helvetica,sans-Serif" font-size="10.00">/beluga/beluga/include</text>
<text text-anchor="middle" x="170.5" y="-7.5" font-family="Helvetica,sans-Serif" font-size="10.00">/beluga/algorithm/amcl_core.hpp</text>
</a>
</g>
</g>
<!-- Node7&#45;&gt;Node8 -->
<g id="edge7" class="edge">
<title>Node7&#45;&gt;Node8</title>
<path fill="none" stroke="midnightblue" d="M170.5,-68.3C170.5,-59.3 170.5,-49.65 170.5,-41.51"/>
<polygon fill="midnightblue" stroke="midnightblue" points="167,-68.43 170.5,-78.43 174,-68.43 167,-68.43"/>
</g>
<!-- Node10 -->
<g id="node10" class="node">
<title>Node10</title>
<g id="a_node10"><a xlink:href="sensor_8hpp.html" target="_top" xlink:title="Includes all Beluga sensor models and their interfaces.">
<polygon fill="none" stroke="black" points="183,-156.5 183,-197.5 328,-197.5 328,-156.5 183,-156.5"/>
<text text-anchor="start" x="191" y="-185.5" font-family="Helvetica,sans-Serif" font-size="10.00">/home/runner/work/beluga</text>
<text text-anchor="start" x="191" y="-174.5" font-family="Helvetica,sans-Serif" font-size="10.00">/beluga/beluga/include</text>
<text text-anchor="middle" x="255.5" y="-163.5" font-family="Helvetica,sans-Serif" font-size="10.00">/beluga/sensor.hpp</text>
</a>
</g>
</g>
<!-- Node9&#45;&gt;Node10 -->
<g id="edge9" class="edge">
<title>Node9&#45;&gt;Node10</title>
<path fill="none" stroke="midnightblue" d="M255.5,-224.15C255.5,-215.05 255.5,-205.6 255.5,-197.63"/>
<polygon fill="midnightblue" stroke="midnightblue" points="252,-224.16 255.5,-234.16 259,-224.16 252,-224.16"/>
</g>
<!-- Node10&#45;&gt;Node7 -->
<g id="edge10" class="edge">
<title>Node10&#45;&gt;Node7</title>
<path fill="none" stroke="midnightblue" d="M225.85,-149.49C214.82,-139.63 202.52,-128.63 192.32,-119.51"/>
<polygon fill="midnightblue" stroke="midnightblue" points="223.82,-152.37 233.61,-156.43 228.49,-147.15 223.82,-152.37"/>
</g>
<!-- Node11&#45;&gt;Node9 -->
<g id="edge12" class="edge">
<title>Node11&#45;&gt;Node9</title>
<path fill="none" stroke="midnightblue" d="M256.69,-313.19C256.48,-304.28 256.27,-294.9 256.08,-286.61"/>
<polygon fill="midnightblue" stroke="midnightblue" points="253.19,-313.42 256.92,-323.34 260.19,-313.26 253.19,-313.42"/>
</g>
<!-- Node13 -->
<g id="node13" class="node">
<title>Node13</title>
<g id="a_node13"><a xlink:href="ndt__cell_8hpp_source.html" target="_top" xlink:title=" ">
<polygon fill="none" stroke="black" points="297,-412.5 297,-464.5 442,-464.5 442,-412.5 297,-412.5"/>
<text text-anchor="start" x="305" y="-452.5" font-family="Helvetica,sans-Serif" font-size="10.00">/home/runner/work/beluga</text>
<text text-anchor="start" x="305" y="-441.5" font-family="Helvetica,sans-Serif" font-size="10.00">/beluga/beluga/include</text>
<text text-anchor="start" x="305" y="-430.5" font-family="Helvetica,sans-Serif" font-size="10.00">/beluga/sensor/data/ndt</text>
<text text-anchor="middle" x="369.5" y="-419.5" font-family="Helvetica,sans-Serif" font-size="10.00">_cell.hpp</text>
</a>
</g>
</g>
<!-- Node12&#45;&gt;Node13 -->
<g id="edge14" class="edge">
<title>Node12&#45;&gt;Node13</title>
<path fill="none" stroke="midnightblue" d="M370.09,-491.19C369.99,-482.28 369.88,-472.9 369.79,-464.61"/>
<polygon fill="midnightblue" stroke="midnightblue" points="366.6,-491.38 370.21,-501.34 373.6,-491.3 366.6,-491.38"/>
</g>
<!-- Node14 -->
<g id="node14" class="node">
<title>Node14</title>
<g id="a_node14"><a xlink:href="ndt__sensor__model_8hpp_source.html" target="_top" xlink:title=" ">
<polygon fill="none" stroke="black" points="348,-323.5 348,-375.5 493,-375.5 493,-323.5 348,-323.5"/>
<text text-anchor="start" x="356" y="-363.5" font-family="Helvetica,sans-Serif" font-size="10.00">/home/runner/work/beluga</text>
<text text-anchor="start" x="356" y="-352.5" font-family="Helvetica,sans-Serif" font-size="10.00">/beluga/beluga/include</text>
<text text-anchor="start" x="356" y="-341.5" font-family="Helvetica,sans-Serif" font-size="10.00">/beluga/sensor/ndt_sensor</text>
<text text-anchor="middle" x="420.5" y="-330.5" font-family="Helvetica,sans-Serif" font-size="10.00">_model.hpp</text>
</a>
</g>
</g>
<!-- Node12&#45;&gt;Node14 -->
<g id="edge17" class="edge">
<title>Node12&#45;&gt;Node14</title>
<path fill="none" stroke="midnightblue" d="M426.26,-495.23C436.45,-486.81 445.68,-476.72 451.5,-465 465.87,-436.04 450.96,-399.53 437.27,-375.63"/>
<polygon fill="midnightblue" stroke="midnightblue" points="424.11,-492.47 418.32,-501.34 428.38,-498.01 424.11,-492.47"/>
</g>
<!-- Node13&#45;&gt;Node14 -->
<g id="edge15" class="edge">
<title>Node13&#45;&gt;Node14</title>
<path fill="none" stroke="midnightblue" d="M389.35,-403.64C394.82,-394.31 400.66,-384.35 405.78,-375.61"/>
<polygon fill="midnightblue" stroke="midnightblue" points="386.29,-401.94 384.25,-412.34 392.33,-405.48 386.29,-401.94"/>
</g>
<!-- Node14&#45;&gt;Node10 -->
<g id="edge16" class="edge">
<title>Node14&#45;&gt;Node10</title>
<path fill="none" stroke="midnightblue" d="M400.17,-314.92C384.57,-290.79 361.53,-258.34 336.5,-234 322.28,-220.17 304.32,-207.38 288.92,-197.52"/>
<polygon fill="midnightblue" stroke="midnightblue" points="397.24,-316.85 405.56,-323.41 403.15,-313.1 397.24,-316.85"/>
</g>
</g>
</svg>
        <g id="navigator" transform="translate(0 0)" fill="#404254">
                <rect fill="#f2f5e9" fill-opacity="0.5" stroke="#606060" stroke-width=".5" x="0" y="0" width="60" height="60"/>
                <use id="zoomplus" xlink:href="#zoomPlus" x="17" y="9" onmousedown="handleZoom(evt,'in')"/>
                <use id="zoomminus" xlink:href="#zoomMin" x="42" y="9" onmousedown="handleZoom(evt,'out')"/>
                <use id="reset" xlink:href="#resetDef" x="30" y="36" onmousedown="handleReset()"/>
                <g id="arrowUp" xlink:href="#dirArrow" transform="translate(30 24)" onmousedown="handlePan(0,-1)">
                  <use xlink:href="#rim" fill="#404040">
                        <set attributeName="fill" to="#808080" begin="arrowUp.mouseover" end="arrowUp.mouseout"/>
                  </use>
                  <path fill="none" stroke="white" stroke-width="1.5" d="M0,-3.0v7 M-2.5,-0.5L0,-3.0L2.5,-0.5"/>
                </g>
                <g id="arrowRight" xlink:href="#dirArrow" transform="rotate(90) translate(36 -43)" onmousedown="handlePan(1,0)">
                  <use xlink:href="#rim" fill="#404040">
                        <set attributeName="fill" to="#808080" begin="arrowRight.mouseover" end="arrowRight.mouseout"/>
                  </use>
                  <path fill="none" stroke="white" stroke-width="1.5" d="M0,-3.0v7 M-2.5,-0.5L0,-3.0L2.5,-0.5"/>
                </g>
                <g id="arrowDown" xlink:href="#dirArrow" transform="rotate(180) translate(-30 -48)" onmousedown="handlePan(0,1)">
                  <use xlink:href="#rim" fill="#404040">
                        <set attributeName="fill" to="#808080" begin="arrowDown.mouseover" end="arrowDown.mouseout"/>
                  </use>
                  <path fill="none" stroke="white" stroke-width="1.5" d="M0,-3.0v7 M-2.5,-0.5L0,-3.0L2.5,-0.5"/>
                </g>
                <g id="arrowLeft" xlink:href="#dirArrow" transform="rotate(270) translate(-36 17)" onmousedown="handlePan(-1,0)">
                  <use xlink:href="#rim" fill="#404040">
                        <set attributeName="fill" to="#808080" begin="arrowLeft.mouseover" end="arrowLeft.mouseout"/>
                  </use>
                  <path fill="none" stroke="white" stroke-width="1.5" d="M0,-3.0v7 M-2.5,-0.5L0,-3.0L2.5,-0.5"/>
                </g>
        </g>
        <svg viewBox="0 0 15 15" width="100%" height="30px" preserveAspectRatio="xMaxYMin meet">
         <g id="arrow_out" transform="scale(0.3 0.3)">
          <a xlink:href="regular__grid_8hpp__dep__incl_org.svg" target="_base">
           <rect id="button" ry="5" rx="5" y="6" x="6" height="38" width="38"
                fill="#f2f5e9" fill-opacity="0.5" stroke="#606060" stroke-width="1.0"/>
           <path id="arrow"
             d="M 11.500037,31.436501 C 11.940474,20.09759 22.043105,11.32322 32.158766,21.979434 L 37.068811,17.246167 C 37.068811,17.246167 37.088388,32 37.088388,32 L 22.160133,31.978069 C 22.160133,31.978069 26.997745,27.140456 26.997745,27.140456 C 18.528582,18.264221 13.291696,25.230495 11.500037,31.436501 z"
             style="fill:#404040;"/>
          </a>
         </g>
        </svg>
</svg>
