<?xml version="1.0" encoding="UTF-8" standalone="no"?>
<!DOCTYPE svg PUBLIC "-//W3C//DTD SVG 1.1//EN"
 "http://www.w3.org/Graphics/SVG/1.1/DTD/svg11.dtd">
<!-- Generated by graphviz version 2.43.0 (0)
 -->
<!-- Title: /home/runner/work/beluga/beluga/beluga/include/beluga/sensor/data/regular_grid.hpp Pages: 1 -->
<svg width="644pt" height="173pt"
 viewBox="0.00 0.00 644.00 173.00" xmlns="http://www.w3.org/2000/svg" xmlns:xlink="http://www.w3.org/1999/xlink">
<g id="graph0" class="graph" transform="scale(1 1) rotate(0) translate(4 169)">
<title>/home/runner/work/beluga/beluga/beluga/include/beluga/sensor/data/regular_grid.hpp</title>
<!-- Node1 -->
<g id="node1" class="node">
<title>Node1</title>
<g id="a_node1"><a xlink:title="Concepts and abstract implementations of regular grids.">
<polygon fill="#bfbfbf" stroke="black" points="207.5,-112.5 207.5,-164.5 357.5,-164.5 357.5,-112.5 207.5,-112.5"/>
<text text-anchor="start" x="215.5" y="-152.5" font-family="Helvetica,sans-Serif" font-size="10.00">/home/runner/work/beluga</text>
<text text-anchor="start" x="215.5" y="-141.5" font-family="Helvetica,sans-Serif" font-size="10.00">/beluga/beluga/include</text>
<text text-anchor="start" x="215.5" y="-130.5" font-family="Helvetica,sans-Serif" font-size="10.00">/beluga/sensor/data/regular</text>
<text text-anchor="middle" x="282.5" y="-119.5" font-family="Helvetica,sans-Serif" font-size="10.00">_grid.hpp</text>
</a>
</g>
</g>
<!-- Node2 -->
<g id="node2" class="node">
<title>Node2</title>
<g id="a_node2"><a xlink:title=" ">
<polygon fill="none" stroke="#bfbfbf" points="0,-56.5 0,-75.5 47,-75.5 47,-56.5 0,-56.5"/>
<text text-anchor="middle" x="23.5" y="-63.5" font-family="Helvetica,sans-Serif" font-size="10.00">cmath</text>
</a>
</g>
</g>
<!-- Node1&#45;&gt;Node2 -->
<g id="edge1" class="edge">
<title>Node1&#45;&gt;Node2</title>
<path fill="none" stroke="midnightblue" d="M207.42,-117.08C165.84,-105.77 112.97,-91.38 57.03,-76.14"/>
<polygon fill="midnightblue" stroke="midnightblue" points="57.86,-72.74 47.29,-73.49 56.02,-79.5 57.86,-72.74"/>
</g>
<!-- Node3 -->
<g id="node3" class="node">
<title>Node3</title>
<g id="a_node3"><a xlink:href="ciabatta_8hpp_source.html" target="_top" xlink:title=" ">
<polygon fill="none" stroke="black" points="65.5,-56.5 65.5,-75.5 185.5,-75.5 185.5,-56.5 65.5,-56.5"/>
<text text-anchor="middle" x="125.5" y="-63.5" font-family="Helvetica,sans-Serif" font-size="10.00">ciabatta/ciabatta.hpp</text>
</a>
</g>
</g>
<!-- Node1&#45;&gt;Node3 -->
<g id="edge2" class="edge">
<title>Node1&#45;&gt;Node3</title>
<path fill="none" stroke="midnightblue" d="M226.71,-112.45C202.01,-101.36 174.04,-88.8 153.77,-79.7"/>
<polygon fill="midnightblue" stroke="midnightblue" points="155.05,-76.43 144.49,-75.53 152.18,-82.82 155.05,-76.43"/>
</g>
<!-- Node4 -->
<g id="node4" class="node">
<title>Node4</title>
<g id="a_node4"><a xlink:title=" ">
<polygon fill="none" stroke="#bfbfbf" points="203.5,-56.5 203.5,-75.5 361.5,-75.5 361.5,-56.5 203.5,-56.5"/>
<text text-anchor="middle" x="282.5" y="-63.5" font-family="Helvetica,sans-Serif" font-size="10.00">range/v3/view/transform.hpp</text>
</a>
</g>
</g>
<!-- Node1&#45;&gt;Node4 -->
<g id="edge3" class="edge">
<title>Node1&#45;&gt;Node4</title>
<path fill="none" stroke="midnightblue" d="M282.5,-112.45C282.5,-103.73 282.5,-94.1 282.5,-85.96"/>
<polygon fill="midnightblue" stroke="midnightblue" points="286,-85.7 282.5,-75.7 279,-85.7 286,-85.7"/>
</g>
<!-- Node5 -->
<g id="node5" class="node">
<title>Node5</title>
<g id="a_node5"><a xlink:title=" ">
<polygon fill="none" stroke="#bfbfbf" points="380,-56.5 380,-75.5 449,-75.5 449,-56.5 380,-56.5"/>
<text text-anchor="middle" x="414.5" y="-63.5" font-family="Helvetica,sans-Serif" font-size="10.00">Eigen/Core</text>
</a>
</g>
</g>
<!-- Node1&#45;&gt;Node5 -->
<g id="edge4" class="edge">
<title>Node1&#45;&gt;Node5</title>
<path fill="none" stroke="midnightblue" d="M329.41,-112.45C349.6,-101.66 372.41,-89.48 389.32,-80.45"/>
<polygon fill="midnightblue" stroke="midnightblue" points="391.36,-83.33 398.53,-75.53 388.06,-77.15 391.36,-83.33"/>
</g>
<!-- Node6 -->
<g id="node6" class="node">
<title>Node6</title>
<g id="a_node6"><a xlink:href="eigen__compatibility_8hpp_source.html" target="_top" xlink:title=" ">
<polygon fill="none" stroke="black" points="467,-56.5 467,-75.5 636,-75.5 636,-56.5 467,-56.5"/>
<text text-anchor="middle" x="551.5" y="-63.5" font-family="Helvetica,sans-Serif" font-size="10.00">beluga/eigen_compatibility.hpp</text>
</a>
</g>
</g>
<!-- Node1&#45;&gt;Node6 -->
<g id="edge5" class="edge">
<title>Node1&#45;&gt;Node6</title>
<path fill="none" stroke="midnightblue" d="M357.79,-117.77C406.65,-104.96 468.54,-88.74 509.03,-78.13"/>
<polygon fill="midnightblue" stroke="midnightblue" points="510.06,-81.48 518.85,-75.56 508.29,-74.71 510.06,-81.48"/>
</g>
<!-- Node7 -->
<g id="node7" class="node">
<title>Node7</title>
<g id="a_node7"><a xlink:title=" ">
<polygon fill="none" stroke="#bfbfbf" points="513,-0.5 513,-19.5 590,-19.5 590,-0.5 513,-0.5"/>
<text text-anchor="middle" x="551.5" y="-7.5" font-family="Helvetica,sans-Serif" font-size="10.00">Eigen/Dense</text>
</a>
</g>
</g>
<!-- Node6&#45;&gt;Node7 -->
<g id="edge6" class="edge">
<title>Node6&#45;&gt;Node7</title>
<path fill="none" stroke="midnightblue" d="M551.5,-56.08C551.5,-49.01 551.5,-38.86 551.5,-29.99"/>
<polygon fill="midnightblue" stroke="midnightblue" points="555,-29.75 551.5,-19.75 548,-29.75 555,-29.75"/>
</g>
</g>
</svg>
