<?xml version="1.0" encoding="UTF-8" standalone="no"?>
<!DOCTYPE svg PUBLIC "-//W3C//DTD SVG 1.1//EN"
 "http://www.w3.org/Graphics/SVG/1.1/DTD/svg11.dtd">
<!-- Generated by graphviz version 2.43.0 (0)
 -->
<!-- Title: /home/runner/work/beluga/beluga/beluga/include/beluga/actions/reweight.hpp Pages: 1 -->
<svg width="908pt" height="296pt"
 viewBox="0.00 0.00 908.00 296.00" xmlns="http://www.w3.org/2000/svg" xmlns:xlink="http://www.w3.org/1999/xlink">
<g id="graph0" class="graph" transform="scale(1 1) rotate(0) translate(4 292)">
<title>/home/runner/work/beluga/beluga/beluga/include/beluga/actions/reweight.hpp</title>
<!-- Node1 -->
<g id="node1" class="node">
<title>Node1</title>
<g id="a_node1"><a xlink:title="Implementation of the reweight range adaptor object.">
<polygon fill="#bfbfbf" stroke="black" points="285,-246.5 285,-287.5 443,-287.5 443,-246.5 285,-246.5"/>
<text text-anchor="start" x="293" y="-275.5" font-family="Helvetica,sans-Serif" font-size="10.00">/home/runner/work/beluga</text>
<text text-anchor="start" x="293" y="-264.5" font-family="Helvetica,sans-Serif" font-size="10.00">/beluga/beluga/include</text>
<text text-anchor="middle" x="364" y="-253.5" font-family="Helvetica,sans-Serif" font-size="10.00">/beluga/actions/reweight.hpp</text>
</a>
</g>
</g>
<!-- Node2 -->
<g id="node2" class="node">
<title>Node2</title>
<g id="a_node2"><a xlink:title=" ">
<polygon fill="none" stroke="#bfbfbf" points="0,-185 0,-204 64,-204 64,-185 0,-185"/>
<text text-anchor="middle" x="32" y="-192" font-family="Helvetica,sans-Serif" font-size="10.00">algorithm</text>
</a>
</g>
</g>
<!-- Node1&#45;&gt;Node2 -->
<g id="edge1" class="edge">
<title>Node1&#45;&gt;Node2</title>
<path fill="none" stroke="midnightblue" d="M284.84,-254.06C225.9,-244.38 143.75,-229.2 73,-210 70.04,-209.2 66.98,-208.28 63.93,-207.31"/>
<polygon fill="midnightblue" stroke="midnightblue" points="64.96,-203.96 54.37,-204.09 62.73,-210.6 64.96,-203.96"/>
</g>
<!-- Node3 -->
<g id="node3" class="node">
<title>Node3</title>
<g id="a_node3"><a xlink:title=" ">
<polygon fill="none" stroke="#bfbfbf" points="82,-185 82,-204 146,-204 146,-185 82,-185"/>
<text text-anchor="middle" x="114" y="-192" font-family="Helvetica,sans-Serif" font-size="10.00">execution</text>
</a>
</g>
</g>
<!-- Node1&#45;&gt;Node3 -->
<g id="edge2" class="edge">
<title>Node1&#45;&gt;Node3</title>
<path fill="none" stroke="midnightblue" d="M285.18,-246.43C245.86,-236.28 197.69,-223.25 155,-210 152.39,-209.19 149.69,-208.32 146.99,-207.42"/>
<polygon fill="midnightblue" stroke="midnightblue" points="147.91,-204.03 137.31,-204.1 145.63,-210.65 147.91,-204.03"/>
</g>
<!-- Node4 -->
<g id="node4" class="node">
<title>Node4</title>
<g id="a_node4"><a xlink:href="particle__traits_8hpp.html" target="_top" xlink:title="Implementation of traits for particle types, see the Particle named requirements.">
<polygon fill="none" stroke="black" points="164,-179.5 164,-209.5 272,-209.5 272,-179.5 164,-179.5"/>
<text text-anchor="start" x="172" y="-197.5" font-family="Helvetica,sans-Serif" font-size="10.00">beluga/type_traits</text>
<text text-anchor="middle" x="218" y="-186.5" font-family="Helvetica,sans-Serif" font-size="10.00">/particle_traits.hpp</text>
</a>
</g>
</g>
<!-- Node1&#45;&gt;Node4 -->
<g id="edge3" class="edge">
<title>Node1&#45;&gt;Node4</title>
<path fill="none" stroke="midnightblue" d="M323.33,-246.36C302.4,-236.26 277.04,-224.01 256.44,-214.06"/>
<polygon fill="midnightblue" stroke="midnightblue" points="257.87,-210.87 247.34,-209.67 254.83,-217.17 257.87,-210.87"/>
</g>
<!-- Node15 -->
<g id="node15" class="node">
<title>Node15</title>
<g id="a_node15"><a xlink:href="particles_8hpp.html" target="_top" xlink:title="Implementation of views related to particle ranges.">
<polygon fill="none" stroke="black" points="290.5,-185 290.5,-204 437.5,-204 437.5,-185 290.5,-185"/>
<text text-anchor="middle" x="364" y="-192" font-family="Helvetica,sans-Serif" font-size="10.00">beluga/views/particles.hpp</text>
</a>
</g>
</g>
<!-- Node1&#45;&gt;Node15 -->
<g id="edge18" class="edge">
<title>Node1&#45;&gt;Node15</title>
<path fill="none" stroke="midnightblue" d="M364,-246.36C364,-236.3 364,-224.1 364,-214.18"/>
<polygon fill="midnightblue" stroke="midnightblue" points="367.5,-214.17 364,-204.17 360.5,-214.17 367.5,-214.17"/>
</g>
<!-- Node17 -->
<g id="node17" class="node">
<title>Node17</title>
<g id="a_node17"><a xlink:title=" ">
<polygon fill="none" stroke="#bfbfbf" points="456,-185 456,-204 602,-204 602,-185 456,-185"/>
<text text-anchor="middle" x="529" y="-192" font-family="Helvetica,sans-Serif" font-size="10.00">range/v3/action/action.hpp</text>
</a>
</g>
</g>
<!-- Node1&#45;&gt;Node17 -->
<g id="edge21" class="edge">
<title>Node1&#45;&gt;Node17</title>
<path fill="none" stroke="midnightblue" d="M409.96,-246.36C438.58,-234.13 474.56,-218.76 499.43,-208.14"/>
<polygon fill="midnightblue" stroke="midnightblue" points="500.88,-211.32 508.7,-204.17 498.13,-204.88 500.88,-211.32"/>
</g>
<!-- Node18 -->
<g id="node18" class="node">
<title>Node18</title>
<g id="a_node18"><a xlink:title=" ">
<polygon fill="none" stroke="#bfbfbf" points="620,-179.5 620,-209.5 730,-209.5 730,-179.5 620,-179.5"/>
<text text-anchor="start" x="628" y="-197.5" font-family="Helvetica,sans-Serif" font-size="10.00">range/v3/algorithm</text>
<text text-anchor="middle" x="675" y="-186.5" font-family="Helvetica,sans-Serif" font-size="10.00">/max_element.hpp</text>
</a>
</g>
</g>
<!-- Node1&#45;&gt;Node18 -->
<g id="edge22" class="edge">
<title>Node1&#45;&gt;Node18</title>
<path fill="none" stroke="midnightblue" d="M443.28,-248.03C494.97,-236.31 561.59,-221.21 610.11,-210.21"/>
<polygon fill="midnightblue" stroke="midnightblue" points="610.9,-213.62 619.88,-208 609.35,-206.79 610.9,-213.62"/>
</g>
<!-- Node19 -->
<g id="node19" class="node">
<title>Node19</title>
<g id="a_node19"><a xlink:title=" ">
<polygon fill="none" stroke="#bfbfbf" points="748,-185 748,-204 900,-204 900,-185 748,-185"/>
<text text-anchor="middle" x="824" y="-192" font-family="Helvetica,sans-Serif" font-size="10.00">range/v3/view/common.hpp</text>
</a>
</g>
</g>
<!-- Node1&#45;&gt;Node19 -->
<g id="edge23" class="edge">
<title>Node1&#45;&gt;Node19</title>
<path fill="none" stroke="midnightblue" d="M443.08,-254.68C519.03,-243.69 636.95,-226.32 739,-210 747.39,-208.66 756.25,-207.2 764.94,-205.74"/>
<polygon fill="midnightblue" stroke="midnightblue" points="765.76,-209.15 775.04,-204.03 764.59,-202.25 765.76,-209.15"/>
</g>
<!-- Node5 -->
<g id="node5" class="node">
<title>Node5</title>
<g id="a_node5"><a xlink:href="primitives_8hpp.html" target="_top" xlink:title="Implementation of library primitives to abstract member access.">
<polygon fill="none" stroke="black" points="302.5,-123.5 302.5,-142.5 425.5,-142.5 425.5,-123.5 302.5,-123.5"/>
<text text-anchor="middle" x="364" y="-130.5" font-family="Helvetica,sans-Serif" font-size="10.00">beluga/primitives.hpp</text>
</a>
</g>
</g>
<!-- Node4&#45;&gt;Node5 -->
<g id="edge4" class="edge">
<title>Node4&#45;&gt;Node5</title>
<path fill="none" stroke="midnightblue" d="M252.6,-179.4C277.1,-169.42 309.66,-156.15 333.25,-146.53"/>
<polygon fill="midnightblue" stroke="midnightblue" points="334.82,-149.67 342.76,-142.66 332.17,-143.19 334.82,-149.67"/>
</g>
<!-- Node11 -->
<g id="node11" class="node">
<title>Node11</title>
<g id="a_node11"><a xlink:href="tuple__traits_8hpp.html" target="_top" xlink:title="Implementation of traits for tuple&#45;like types.">
<polygon fill="none" stroke="black" points="102.5,-56.5 102.5,-86.5 207.5,-86.5 207.5,-56.5 102.5,-56.5"/>
<text text-anchor="start" x="110.5" y="-74.5" font-family="Helvetica,sans-Serif" font-size="10.00">beluga/type_traits</text>
<text text-anchor="middle" x="155" y="-63.5" font-family="Helvetica,sans-Serif" font-size="10.00">/tuple_traits.hpp</text>
</a>
</g>
</g>
<!-- Node4&#45;&gt;Node11 -->
<g id="edge16" class="edge">
<title>Node4&#45;&gt;Node11</title>
<path fill="none" stroke="midnightblue" d="M177.98,-179.38C161.61,-171.4 144.34,-159.62 135,-143 126.72,-128.26 132.42,-109.83 139.83,-95.51"/>
<polygon fill="midnightblue" stroke="midnightblue" points="142.89,-97.19 144.81,-86.77 136.81,-93.72 142.89,-97.19"/>
</g>
<!-- Node14 -->
<g id="node14" class="node">
<title>Node14</title>
<g id="a_node14"><a xlink:title=" ">
<polygon fill="none" stroke="#bfbfbf" points="144,-123.5 144,-142.5 284,-142.5 284,-123.5 144,-123.5"/>
<text text-anchor="middle" x="214" y="-130.5" font-family="Helvetica,sans-Serif" font-size="10.00">range/v3/range/traits.hpp</text>
</a>
</g>
</g>
<!-- Node4&#45;&gt;Node14 -->
<g id="edge17" class="edge">
<title>Node4&#45;&gt;Node14</title>
<path fill="none" stroke="midnightblue" d="M217.05,-179.4C216.52,-171.47 215.85,-161.46 215.27,-152.86"/>
<polygon fill="midnightblue" stroke="midnightblue" points="218.74,-152.4 214.58,-142.66 211.76,-152.87 218.74,-152.4"/>
</g>
<!-- Node6 -->
<g id="node6" class="node">
<title>Node6</title>
<g id="a_node6"><a xlink:title=" ">
<polygon fill="none" stroke="#bfbfbf" points="205.5,-0.5 205.5,-19.5 246.5,-19.5 246.5,-0.5 205.5,-0.5"/>
<text text-anchor="middle" x="226" y="-7.5" font-family="Helvetica,sans-Serif" font-size="10.00">tuple</text>
</a>
</g>
</g>
<!-- Node5&#45;&gt;Node6 -->
<g id="edge5" class="edge">
<title>Node5&#45;&gt;Node6</title>
<path fill="none" stroke="midnightblue" d="M322.68,-123.43C300.1,-116.85 273.14,-105.63 255,-87 239.79,-71.38 232.38,-46.96 228.89,-30.04"/>
<polygon fill="midnightblue" stroke="midnightblue" points="232.25,-28.95 227.06,-19.72 225.36,-30.17 232.25,-28.95"/>
</g>
<!-- Node7 -->
<g id="node7" class="node">
<title>Node7</title>
<g id="a_node7"><a xlink:title=" ">
<polygon fill="none" stroke="#bfbfbf" points="379.5,-0.5 379.5,-19.5 448.5,-19.5 448.5,-0.5 379.5,-0.5"/>
<text text-anchor="middle" x="414" y="-7.5" font-family="Helvetica,sans-Serif" font-size="10.00">type_traits</text>
</a>
</g>
</g>
<!-- Node5&#45;&gt;Node7 -->
<g id="edge6" class="edge">
<title>Node5&#45;&gt;Node7</title>
<path fill="none" stroke="midnightblue" d="M371.44,-123.27C378.47,-114.6 388.83,-100.66 395,-87 403.38,-68.45 408.45,-45.61 411.22,-29.84"/>
<polygon fill="midnightblue" stroke="midnightblue" points="414.71,-30.2 412.85,-19.77 407.8,-29.08 414.71,-30.2"/>
</g>
<!-- Node8 -->
<g id="node8" class="node">
<title>Node8</title>
<g id="a_node8"><a xlink:href="strongly__typed__numeric_8hpp.html" target="_top" xlink:title="Implementation of a strongly typed numeric helper.">
<polygon fill="none" stroke="black" points="442,-56.5 442,-86.5 600,-86.5 600,-56.5 442,-56.5"/>
<text text-anchor="start" x="450" y="-74.5" font-family="Helvetica,sans-Serif" font-size="10.00">beluga/type_traits</text>
<text text-anchor="middle" x="521" y="-63.5" font-family="Helvetica,sans-Serif" font-size="10.00">/strongly_typed_numeric.hpp</text>
</a>
</g>
</g>
<!-- Node5&#45;&gt;Node8 -->
<g id="edge7" class="edge">
<title>Node5&#45;&gt;Node8</title>
<path fill="none" stroke="midnightblue" d="M386.49,-123.48C409.35,-114.81 445.41,-101.15 474.45,-90.14"/>
<polygon fill="midnightblue" stroke="midnightblue" points="475.89,-93.34 484,-86.52 473.41,-86.79 475.89,-93.34"/>
</g>
<!-- Node5&#45;&gt;Node11 -->
<g id="edge11" class="edge">
<title>Node5&#45;&gt;Node11</title>
<path fill="none" stroke="midnightblue" d="M334.06,-123.48C302.84,-114.59 253.1,-100.43 213.96,-89.29"/>
<polygon fill="midnightblue" stroke="midnightblue" points="214.83,-85.89 204.26,-86.52 212.92,-92.63 214.83,-85.89"/>
</g>
<!-- Node13 -->
<g id="node13" class="node">
<title>Node13</title>
<g id="a_node13"><a xlink:href="forward__like_8hpp_source.html" target="_top" xlink:title=" ">
<polygon fill="none" stroke="black" points="264,-56.5 264,-86.5 386,-86.5 386,-56.5 264,-56.5"/>
<text text-anchor="start" x="272" y="-74.5" font-family="Helvetica,sans-Serif" font-size="10.00">beluga/utility/forward</text>
<text text-anchor="middle" x="325" y="-63.5" font-family="Helvetica,sans-Serif" font-size="10.00">_like.hpp</text>
</a>
</g>
</g>
<!-- Node5&#45;&gt;Node13 -->
<g id="edge15" class="edge">
<title>Node5&#45;&gt;Node13</title>
<path fill="none" stroke="midnightblue" d="M358.41,-123.48C353.57,-116.09 346.35,-105.08 339.86,-95.17"/>
<polygon fill="midnightblue" stroke="midnightblue" points="342.6,-92.97 334.19,-86.52 336.75,-96.81 342.6,-92.97"/>
</g>
<!-- Node8&#45;&gt;Node7 -->
<g id="edge10" class="edge">
<title>Node8&#45;&gt;Node7</title>
<path fill="none" stroke="midnightblue" d="M495.64,-56.4C478.33,-46.77 455.52,-34.09 438.42,-24.58"/>
<polygon fill="midnightblue" stroke="midnightblue" points="440.01,-21.46 429.57,-19.66 436.61,-27.58 440.01,-21.46"/>
</g>
<!-- Node9 -->
<g id="node9" class="node">
<title>Node9</title>
<g id="a_node9"><a xlink:title=" ">
<polygon fill="none" stroke="#bfbfbf" points="545.5,-0.5 545.5,-19.5 610.5,-19.5 610.5,-0.5 545.5,-0.5"/>
<text text-anchor="middle" x="578" y="-7.5" font-family="Helvetica,sans-Serif" font-size="10.00">functional</text>
</a>
</g>
</g>
<!-- Node8&#45;&gt;Node9 -->
<g id="edge8" class="edge">
<title>Node8&#45;&gt;Node9</title>
<path fill="none" stroke="midnightblue" d="M534.51,-56.4C542.96,-47.58 553.88,-36.18 562.66,-27.02"/>
<polygon fill="midnightblue" stroke="midnightblue" points="565.32,-29.3 569.71,-19.66 560.26,-24.46 565.32,-29.3"/>
</g>
<!-- Node10 -->
<g id="node10" class="node">
<title>Node10</title>
<g id="a_node10"><a xlink:title=" ">
<polygon fill="none" stroke="#bfbfbf" points="483,-0.5 483,-19.5 527,-19.5 527,-0.5 483,-0.5"/>
<text text-anchor="middle" x="505" y="-7.5" font-family="Helvetica,sans-Serif" font-size="10.00">limits</text>
</a>
</g>
</g>
<!-- Node8&#45;&gt;Node10 -->
<g id="edge9" class="edge">
<title>Node8&#45;&gt;Node10</title>
<path fill="none" stroke="midnightblue" d="M517.21,-56.4C515.05,-48.38 512.32,-38.23 509.99,-29.57"/>
<polygon fill="midnightblue" stroke="midnightblue" points="513.3,-28.41 507.33,-19.66 506.55,-30.22 513.3,-28.41"/>
</g>
<!-- Node11&#45;&gt;Node6 -->
<g id="edge12" class="edge">
<title>Node11&#45;&gt;Node6</title>
<path fill="none" stroke="midnightblue" d="M171.83,-56.4C182.67,-47.31 196.78,-35.49 207.87,-26.19"/>
<polygon fill="midnightblue" stroke="midnightblue" points="210.25,-28.76 215.67,-19.66 205.76,-23.4 210.25,-28.76"/>
</g>
<!-- Node11&#45;&gt;Node7 -->
<g id="edge13" class="edge">
<title>Node11&#45;&gt;Node7</title>
<path fill="none" stroke="midnightblue" d="M207.72,-58.39C255.3,-47.46 324.52,-31.56 369.4,-21.25"/>
<polygon fill="midnightblue" stroke="midnightblue" points="370.19,-24.66 379.15,-19.01 368.62,-17.83 370.19,-24.66"/>
</g>
<!-- Node12 -->
<g id="node12" class="node">
<title>Node12</title>
<g id="a_node12"><a xlink:title=" ">
<polygon fill="none" stroke="#bfbfbf" points="132.5,-0.5 132.5,-19.5 177.5,-19.5 177.5,-0.5 132.5,-0.5"/>
<text text-anchor="middle" x="155" y="-7.5" font-family="Helvetica,sans-Serif" font-size="10.00">utility</text>
</a>
</g>
</g>
<!-- Node11&#45;&gt;Node12 -->
<g id="edge14" class="edge">
<title>Node11&#45;&gt;Node12</title>
<path fill="none" stroke="midnightblue" d="M155,-56.4C155,-48.47 155,-38.46 155,-29.86"/>
<polygon fill="midnightblue" stroke="midnightblue" points="158.5,-29.66 155,-19.66 151.5,-29.66 158.5,-29.66"/>
</g>
<!-- Node15&#45;&gt;Node5 -->
<g id="edge19" class="edge">
<title>Node15&#45;&gt;Node5</title>
<path fill="none" stroke="midnightblue" d="M364,-184.98C364,-176.58 364,-163.48 364,-152.66"/>
<polygon fill="midnightblue" stroke="midnightblue" points="367.5,-152.51 364,-142.51 360.5,-152.51 367.5,-152.51"/>
</g>
<!-- Node16 -->
<g id="node16" class="node">
<title>Node16</title>
<g id="a_node16"><a xlink:title=" ">
<polygon fill="none" stroke="#bfbfbf" points="444,-123.5 444,-142.5 602,-142.5 602,-123.5 444,-123.5"/>
<text text-anchor="middle" x="523" y="-130.5" font-family="Helvetica,sans-Serif" font-size="10.00">range/v3/view/transform.hpp</text>
</a>
</g>
</g>
<!-- Node15&#45;&gt;Node16 -->
<g id="edge20" class="edge">
<title>Node15&#45;&gt;Node16</title>
<path fill="none" stroke="midnightblue" d="M386.78,-184.98C414.05,-174.77 459.91,-157.61 490.8,-146.05"/>
<polygon fill="midnightblue" stroke="midnightblue" points="492.12,-149.29 500.26,-142.51 489.67,-142.74 492.12,-149.29"/>
</g>
</g>
</svg>
