<?xml version="1.0" encoding="UTF-8" standalone="no"?>
<!DOCTYPE svg PUBLIC "-//W3C//DTD SVG 1.1//EN"
 "http://www.w3.org/Graphics/SVG/1.1/DTD/svg11.dtd">
<!-- Generated by graphviz version 2.43.0 (0)
 -->
<!-- Title: /home/runner/work/beluga/beluga/beluga/include/beluga/testing/sophus_matchers.hpp Pages: 1 -->
<svg width="444pt" height="106pt"
 viewBox="0.00 0.00 443.50 106.00" xmlns="http://www.w3.org/2000/svg" xmlns:xlink="http://www.w3.org/1999/xlink">
<g id="graph0" class="graph" transform="scale(1 1) rotate(0) translate(4 102)">
<title>/home/runner/work/beluga/beluga/beluga/include/beluga/testing/sophus_matchers.hpp</title>
<!-- Node1 -->
<g id="node1" class="node">
<title>Node1</title>
<g id="a_node1"><a xlink:title="Implements GTest matchers for Sophus/Eigen types.">
<polygon fill="#bfbfbf" stroke="black" points="115,-56.5 115,-97.5 314,-97.5 314,-56.5 115,-56.5"/>
<text text-anchor="start" x="123" y="-85.5" font-family="Helvetica,sans-Serif" font-size="10.00">/home/runner/work/beluga</text>
<text text-anchor="start" x="123" y="-74.5" font-family="Helvetica,sans-Serif" font-size="10.00">/beluga/beluga/include</text>
<text text-anchor="middle" x="214.5" y="-63.5" font-family="Helvetica,sans-Serif" font-size="10.00">/beluga/testing/sophus_matchers.hpp</text>
</a>
</g>
</g>
<!-- Node2 -->
<g id="node2" class="node">
<title>Node2</title>
<g id="a_node2"><a xlink:title=" ">
<polygon fill="none" stroke="#bfbfbf" points="0,-0.5 0,-19.5 95,-19.5 95,-0.5 0,-0.5"/>
<text text-anchor="middle" x="47.5" y="-7.5" font-family="Helvetica,sans-Serif" font-size="10.00">gmock/gmock.h</text>
</a>
</g>
</g>
<!-- Node1&#45;&gt;Node2 -->
<g id="edge1" class="edge">
<title>Node1&#45;&gt;Node2</title>
<path fill="none" stroke="midnightblue" d="M164.39,-56.5C136.7,-45.72 103.13,-32.65 79.09,-23.29"/>
<polygon fill="midnightblue" stroke="midnightblue" points="80.32,-20.02 69.73,-19.65 77.78,-26.54 80.32,-20.02"/>
</g>
<!-- Node3 -->
<g id="node3" class="node">
<title>Node3</title>
<g id="a_node3"><a xlink:title=" ">
<polygon fill="none" stroke="#bfbfbf" points="113.5,-0.5 113.5,-19.5 205.5,-19.5 205.5,-0.5 113.5,-0.5"/>
<text text-anchor="middle" x="159.5" y="-7.5" font-family="Helvetica,sans-Serif" font-size="10.00">sophus/se2.hpp</text>
</a>
</g>
</g>
<!-- Node1&#45;&gt;Node3 -->
<g id="edge2" class="edge">
<title>Node1&#45;&gt;Node3</title>
<path fill="none" stroke="midnightblue" d="M198,-56.5C190.13,-47.2 180.83,-36.21 173.34,-27.36"/>
<polygon fill="midnightblue" stroke="midnightblue" points="175.95,-25.03 166.82,-19.65 170.61,-29.55 175.95,-25.03"/>
</g>
<!-- Node4 -->
<g id="node4" class="node">
<title>Node4</title>
<g id="a_node4"><a xlink:title=" ">
<polygon fill="none" stroke="#bfbfbf" points="223.5,-0.5 223.5,-19.5 315.5,-19.5 315.5,-0.5 223.5,-0.5"/>
<text text-anchor="middle" x="269.5" y="-7.5" font-family="Helvetica,sans-Serif" font-size="10.00">sophus/so2.hpp</text>
</a>
</g>
</g>
<!-- Node1&#45;&gt;Node4 -->
<g id="edge3" class="edge">
<title>Node1&#45;&gt;Node4</title>
<path fill="none" stroke="midnightblue" d="M231,-56.5C238.87,-47.2 248.17,-36.21 255.66,-27.36"/>
<polygon fill="midnightblue" stroke="midnightblue" points="258.39,-29.55 262.18,-19.65 253.05,-25.03 258.39,-29.55"/>
</g>
<!-- Node5 -->
<g id="node5" class="node">
<title>Node5</title>
<g id="a_node5"><a xlink:title=" ">
<polygon fill="none" stroke="#bfbfbf" points="333.5,-0.5 333.5,-19.5 435.5,-19.5 435.5,-0.5 333.5,-0.5"/>
<text text-anchor="middle" x="384.5" y="-7.5" font-family="Helvetica,sans-Serif" font-size="10.00">sophus/types.hpp</text>
</a>
</g>
</g>
<!-- Node1&#45;&gt;Node5 -->
<g id="edge4" class="edge">
<title>Node1&#45;&gt;Node5</title>
<path fill="none" stroke="midnightblue" d="M265.51,-56.5C293.7,-45.72 327.87,-32.65 352.35,-23.29"/>
<polygon fill="midnightblue" stroke="midnightblue" points="353.78,-26.49 361.87,-19.65 351.28,-19.95 353.78,-26.49"/>
</g>
</g>
</svg>
