<?xml version="1.0" encoding="UTF-8" standalone="no"?>
<!DOCTYPE svg PUBLIC "-//W3C//DTD SVG 1.1//EN"
 "http://www.w3.org/Graphics/SVG/1.1/DTD/svg11.dtd">
<!-- Generated by graphviz version 2.43.0 (0)
 -->
<!-- Title: /home/runner/work/beluga/beluga/beluga/include/beluga/sensor/data/sparse_value_grid.hpp Pages: 1 -->
<svg width="644pt" height="240pt"
 viewBox="0.00 0.00 643.50 240.00" xmlns="http://www.w3.org/2000/svg" xmlns:xlink="http://www.w3.org/1999/xlink">
<g id="graph0" class="graph" transform="scale(1 1) rotate(0) translate(4 236)">
<title>/home/runner/work/beluga/beluga/beluga/include/beluga/sensor/data/sparse_value_grid.hpp</title>
<!-- Node1 -->
<g id="node1" class="node">
<title>Node1</title>
<g id="a_node1"><a xlink:title="Implementation of generic sparse value regular grid.">
<polygon fill="#bfbfbf" stroke="black" points="180.5,-179.5 180.5,-231.5 328.5,-231.5 328.5,-179.5 180.5,-179.5"/>
<text text-anchor="start" x="188.5" y="-219.5" font-family="Helvetica,sans-Serif" font-size="10.00">/home/runner/work/beluga</text>
<text text-anchor="start" x="188.5" y="-208.5" font-family="Helvetica,sans-Serif" font-size="10.00">/beluga/beluga/include</text>
<text text-anchor="start" x="188.5" y="-197.5" font-family="Helvetica,sans-Serif" font-size="10.00">/beluga/sensor/data/sparse</text>
<text text-anchor="middle" x="254.5" y="-186.5" font-family="Helvetica,sans-Serif" font-size="10.00">_value_grid.hpp</text>
</a>
</g>
</g>
<!-- Node2 -->
<g id="node2" class="node">
<title>Node2</title>
<g id="a_node2"><a xlink:title=" ">
<polygon fill="none" stroke="#bfbfbf" points="0,-56.5 0,-75.5 69,-75.5 69,-56.5 0,-56.5"/>
<text text-anchor="middle" x="34.5" y="-63.5" font-family="Helvetica,sans-Serif" font-size="10.00">Eigen/Core</text>
</a>
</g>
</g>
<!-- Node1&#45;&gt;Node2 -->
<g id="edge1" class="edge">
<title>Node1&#45;&gt;Node2</title>
<path fill="none" stroke="midnightblue" d="M214.4,-179.44C168.25,-150.59 94.05,-104.22 57.03,-81.08"/>
<polygon fill="midnightblue" stroke="midnightblue" points="58.79,-78.05 48.45,-75.72 55.08,-83.99 58.79,-78.05"/>
</g>
<!-- Node3 -->
<g id="node3" class="node">
<title>Node3</title>
<g id="a_node3"><a xlink:title=" ">
<polygon fill="none" stroke="#bfbfbf" points="327.5,-118 327.5,-137 383.5,-137 383.5,-118 327.5,-118"/>
<text text-anchor="middle" x="355.5" y="-125" font-family="Helvetica,sans-Serif" font-size="10.00">optional</text>
</a>
</g>
</g>
<!-- Node1&#45;&gt;Node3 -->
<g id="edge2" class="edge">
<title>Node1&#45;&gt;Node3</title>
<path fill="none" stroke="midnightblue" d="M287.85,-179.4C303.69,-167.49 322.08,-153.65 335.68,-143.41"/>
<polygon fill="midnightblue" stroke="midnightblue" points="337.97,-146.07 343.86,-137.26 333.76,-140.48 337.97,-146.07"/>
</g>
<!-- Node4 -->
<g id="node4" class="node">
<title>Node4</title>
<g id="a_node4"><a xlink:title=" ">
<polygon fill="none" stroke="#bfbfbf" points="402,-118 402,-137 471,-137 471,-118 402,-118"/>
<text text-anchor="middle" x="436.5" y="-125" font-family="Helvetica,sans-Serif" font-size="10.00">type_traits</text>
</a>
</g>
</g>
<!-- Node1&#45;&gt;Node4 -->
<g id="edge3" class="edge">
<title>Node1&#45;&gt;Node4</title>
<path fill="none" stroke="midnightblue" d="M314.6,-179.4C345.49,-166.5 381.78,-151.35 406.68,-140.95"/>
<polygon fill="midnightblue" stroke="midnightblue" points="408.08,-144.16 415.96,-137.08 405.38,-137.7 408.08,-144.16"/>
</g>
<!-- Node5 -->
<g id="node5" class="node">
<title>Node5</title>
<g id="a_node5"><a xlink:href="eigen__compatibility_8hpp_source.html" target="_top" xlink:title=" ">
<polygon fill="none" stroke="black" points="87,-56.5 87,-75.5 256,-75.5 256,-56.5 87,-56.5"/>
<text text-anchor="middle" x="171.5" y="-63.5" font-family="Helvetica,sans-Serif" font-size="10.00">beluga/eigen_compatibility.hpp</text>
</a>
</g>
</g>
<!-- Node1&#45;&gt;Node5 -->
<g id="edge4" class="edge">
<title>Node1&#45;&gt;Node5</title>
<path fill="none" stroke="midnightblue" d="M221.44,-179.27C210.14,-169.13 198.38,-156.6 190.5,-143 180.18,-125.2 175.43,-101.9 173.26,-85.81"/>
<polygon fill="midnightblue" stroke="midnightblue" points="176.7,-85.1 172.1,-75.56 169.74,-85.89 176.7,-85.1"/>
</g>
<!-- Node7 -->
<g id="node7" class="node">
<title>Node7</title>
<g id="a_node7"><a xlink:href="regular__grid_8hpp.html" target="_top" xlink:title="Concepts and abstract implementations of regular grids.">
<polygon fill="none" stroke="black" points="199.5,-112.5 199.5,-142.5 309.5,-142.5 309.5,-112.5 199.5,-112.5"/>
<text text-anchor="start" x="207.5" y="-130.5" font-family="Helvetica,sans-Serif" font-size="10.00">beluga/sensor/data</text>
<text text-anchor="middle" x="254.5" y="-119.5" font-family="Helvetica,sans-Serif" font-size="10.00">/regular_grid.hpp</text>
</a>
</g>
</g>
<!-- Node1&#45;&gt;Node7 -->
<g id="edge6" class="edge">
<title>Node1&#45;&gt;Node7</title>
<path fill="none" stroke="midnightblue" d="M254.5,-179.19C254.5,-170.79 254.5,-161.44 254.5,-153.09"/>
<polygon fill="midnightblue" stroke="midnightblue" points="258,-152.85 254.5,-142.85 251,-152.85 258,-152.85"/>
</g>
<!-- Node6 -->
<g id="node6" class="node">
<title>Node6</title>
<g id="a_node6"><a xlink:title=" ">
<polygon fill="none" stroke="#bfbfbf" points="133,-0.5 133,-19.5 210,-19.5 210,-0.5 133,-0.5"/>
<text text-anchor="middle" x="171.5" y="-7.5" font-family="Helvetica,sans-Serif" font-size="10.00">Eigen/Dense</text>
</a>
</g>
</g>
<!-- Node5&#45;&gt;Node6 -->
<g id="edge5" class="edge">
<title>Node5&#45;&gt;Node6</title>
<path fill="none" stroke="midnightblue" d="M171.5,-56.08C171.5,-49.01 171.5,-38.86 171.5,-29.99"/>
<polygon fill="midnightblue" stroke="midnightblue" points="175,-29.75 171.5,-19.75 168,-29.75 175,-29.75"/>
</g>
<!-- Node7&#45;&gt;Node2 -->
<g id="edge10" class="edge">
<title>Node7&#45;&gt;Node2</title>
<path fill="none" stroke="midnightblue" d="M202.64,-112.47C163.86,-101.99 111.54,-87.84 75.62,-78.12"/>
<polygon fill="midnightblue" stroke="midnightblue" points="76.52,-74.74 65.95,-75.51 74.69,-81.5 76.52,-74.74"/>
</g>
<!-- Node7&#45;&gt;Node5 -->
<g id="edge11" class="edge">
<title>Node7&#45;&gt;Node5</title>
<path fill="none" stroke="midnightblue" d="M234.83,-112.4C221.9,-103.13 205.01,-91.03 191.93,-81.65"/>
<polygon fill="midnightblue" stroke="midnightblue" points="193.74,-78.64 183.58,-75.66 189.67,-84.33 193.74,-78.64"/>
</g>
<!-- Node8 -->
<g id="node8" class="node">
<title>Node8</title>
<g id="a_node8"><a xlink:title=" ">
<polygon fill="none" stroke="#bfbfbf" points="274,-56.5 274,-75.5 321,-75.5 321,-56.5 274,-56.5"/>
<text text-anchor="middle" x="297.5" y="-63.5" font-family="Helvetica,sans-Serif" font-size="10.00">cmath</text>
</a>
</g>
</g>
<!-- Node7&#45;&gt;Node8 -->
<g id="edge7" class="edge">
<title>Node7&#45;&gt;Node8</title>
<path fill="none" stroke="midnightblue" d="M264.69,-112.4C270.87,-103.84 278.8,-92.87 285.32,-83.86"/>
<polygon fill="midnightblue" stroke="midnightblue" points="288.22,-85.81 291.24,-75.66 282.55,-81.71 288.22,-85.81"/>
</g>
<!-- Node9 -->
<g id="node9" class="node">
<title>Node9</title>
<g id="a_node9"><a xlink:href="ciabatta_8hpp_source.html" target="_top" xlink:title=" ">
<polygon fill="none" stroke="black" points="339.5,-56.5 339.5,-75.5 459.5,-75.5 459.5,-56.5 339.5,-56.5"/>
<text text-anchor="middle" x="399.5" y="-63.5" font-family="Helvetica,sans-Serif" font-size="10.00">ciabatta/ciabatta.hpp</text>
</a>
</g>
</g>
<!-- Node7&#45;&gt;Node9 -->
<g id="edge8" class="edge">
<title>Node7&#45;&gt;Node9</title>
<path fill="none" stroke="midnightblue" d="M288.86,-112.4C313.19,-102.42 345.53,-89.15 368.96,-79.53"/>
<polygon fill="midnightblue" stroke="midnightblue" points="370.48,-82.69 378.4,-75.66 367.82,-76.22 370.48,-82.69"/>
</g>
<!-- Node10 -->
<g id="node10" class="node">
<title>Node10</title>
<g id="a_node10"><a xlink:title=" ">
<polygon fill="none" stroke="#bfbfbf" points="477.5,-56.5 477.5,-75.5 635.5,-75.5 635.5,-56.5 477.5,-56.5"/>
<text text-anchor="middle" x="556.5" y="-63.5" font-family="Helvetica,sans-Serif" font-size="10.00">range/v3/view/transform.hpp</text>
</a>
</g>
</g>
<!-- Node7&#45;&gt;Node10 -->
<g id="edge9" class="edge">
<title>Node7&#45;&gt;Node10</title>
<path fill="none" stroke="midnightblue" d="M309.63,-113.88C312.63,-113.23 315.6,-112.6 318.5,-112 379.81,-99.26 450.32,-86.12 498.58,-77.35"/>
<polygon fill="midnightblue" stroke="midnightblue" points="499.32,-80.77 508.53,-75.55 498.07,-73.89 499.32,-80.77"/>
</g>
</g>
</svg>
