<?xml version="1.0" encoding="UTF-8" standalone="no"?>
<!DOCTYPE svg PUBLIC "-//W3C//DTD SVG 1.1//EN"
 "http://www.w3.org/Graphics/SVG/1.1/DTD/svg11.dtd">
<!-- Generated by graphviz version 2.43.0 (0)
 -->
<!-- Title: /home/runner/work/beluga/beluga/beluga/include/beluga/sensor/data/sparse_value_grid.hpp Pages: 1 -->
<svg width="490pt" height="184pt"
 viewBox="0.00 0.00 489.50 184.00" xmlns="http://www.w3.org/2000/svg" xmlns:xlink="http://www.w3.org/1999/xlink">
<g id="graph0" class="graph" transform="scale(1 1) rotate(0) translate(4 180)">
<title>/home/runner/work/beluga/beluga/beluga/include/beluga/sensor/data/sparse_value_grid.hpp</title>
<!-- Node1 -->
<g id="node1" class="node">
<title>Node1</title>
<g id="a_node1"><a xlink:title="Implementation of generic sparse value regular grid.">
<polygon fill="#bfbfbf" stroke="black" points="22.5,-123.5 22.5,-175.5 170.5,-175.5 170.5,-123.5 22.5,-123.5"/>
<text text-anchor="start" x="30.5" y="-163.5" font-family="Helvetica,sans-Serif" font-size="10.00">/home/runner/work/beluga</text>
<text text-anchor="start" x="30.5" y="-152.5" font-family="Helvetica,sans-Serif" font-size="10.00">/beluga/beluga/include</text>
<text text-anchor="start" x="30.5" y="-141.5" font-family="Helvetica,sans-Serif" font-size="10.00">/beluga/sensor/data/sparse</text>
<text text-anchor="middle" x="96.5" y="-130.5" font-family="Helvetica,sans-Serif" font-size="10.00">_value_grid.hpp</text>
</a>
</g>
</g>
<!-- Node2 -->
<g id="node2" class="node">
<title>Node2</title>
<g id="a_node2"><a xlink:title=" ">
<polygon fill="none" stroke="#bfbfbf" points="0,-0.5 0,-19.5 69,-19.5 69,-0.5 0,-0.5"/>
<text text-anchor="middle" x="34.5" y="-7.5" font-family="Helvetica,sans-Serif" font-size="10.00">Eigen/Core</text>
</a>
</g>
</g>
<!-- Node1&#45;&gt;Node2 -->
<g id="edge1" class="edge">
<title>Node1&#45;&gt;Node2</title>
<path fill="none" stroke="midnightblue" d="M51.4,-123.2C38.71,-113.63 26.47,-101.49 19.5,-87 10.6,-68.51 17.64,-45.06 24.78,-29.14"/>
<polygon fill="midnightblue" stroke="midnightblue" points="28.05,-30.4 29.32,-19.88 21.77,-27.32 28.05,-30.4"/>
</g>
<!-- Node3 -->
<g id="node3" class="node">
<title>Node3</title>
<g id="a_node3"><a xlink:title=" ">
<polygon fill="none" stroke="#bfbfbf" points="28.5,-62 28.5,-81 84.5,-81 84.5,-62 28.5,-62"/>
<text text-anchor="middle" x="56.5" y="-69" font-family="Helvetica,sans-Serif" font-size="10.00">optional</text>
</a>
</g>
</g>
<!-- Node1&#45;&gt;Node3 -->
<g id="edge2" class="edge">
<title>Node1&#45;&gt;Node3</title>
<path fill="none" stroke="midnightblue" d="M83.18,-123.19C77.51,-112.42 71.04,-100.12 65.88,-90.33"/>
<polygon fill="midnightblue" stroke="midnightblue" points="68.84,-88.43 61.08,-81.21 62.64,-91.69 68.84,-88.43"/>
</g>
<!-- Node4 -->
<g id="node4" class="node">
<title>Node4</title>
<g id="a_node4"><a xlink:title=" ">
<polygon fill="none" stroke="#bfbfbf" points="103,-62 103,-81 172,-81 172,-62 103,-62"/>
<text text-anchor="middle" x="137.5" y="-69" font-family="Helvetica,sans-Serif" font-size="10.00">type_traits</text>
</a>
</g>
</g>
<!-- Node1&#45;&gt;Node4 -->
<g id="edge3" class="edge">
<title>Node1&#45;&gt;Node4</title>
<path fill="none" stroke="midnightblue" d="M110.15,-123.19C116.02,-112.31 122.74,-99.86 128.05,-90.02"/>
<polygon fill="midnightblue" stroke="midnightblue" points="131.13,-91.67 132.8,-81.21 124.97,-88.35 131.13,-91.67"/>
</g>
<!-- Node5 -->
<g id="node5" class="node">
<title>Node5</title>
<g id="a_node5"><a xlink:href="regular__grid_8hpp.html" target="_top" xlink:title="Concepts and abstract implementations of regular grids.">
<polygon fill="none" stroke="black" points="190.5,-56.5 190.5,-86.5 300.5,-86.5 300.5,-56.5 190.5,-56.5"/>
<text text-anchor="start" x="198.5" y="-74.5" font-family="Helvetica,sans-Serif" font-size="10.00">beluga/sensor/data</text>
<text text-anchor="middle" x="245.5" y="-63.5" font-family="Helvetica,sans-Serif" font-size="10.00">/regular_grid.hpp</text>
</a>
</g>
</g>
<!-- Node1&#45;&gt;Node5 -->
<g id="edge4" class="edge">
<title>Node1&#45;&gt;Node5</title>
<path fill="none" stroke="midnightblue" d="M145.7,-123.4C166.24,-112.93 189.7,-100.96 208.71,-91.27"/>
<polygon fill="midnightblue" stroke="midnightblue" points="210.33,-94.37 217.65,-86.71 207.15,-88.13 210.33,-94.37"/>
</g>
<!-- Node5&#45;&gt;Node2 -->
<g id="edge8" class="edge">
<title>Node5&#45;&gt;Node2</title>
<path fill="none" stroke="midnightblue" d="M195.76,-56.47C158.73,-46.03 108.82,-31.96 74.38,-22.25"/>
<polygon fill="midnightblue" stroke="midnightblue" points="75.24,-18.85 64.67,-19.51 73.34,-25.59 75.24,-18.85"/>
</g>
<!-- Node6 -->
<g id="node6" class="node">
<title>Node6</title>
<g id="a_node6"><a xlink:title=" ">
<polygon fill="none" stroke="#bfbfbf" points="120,-0.5 120,-19.5 167,-19.5 167,-0.5 120,-0.5"/>
<text text-anchor="middle" x="143.5" y="-7.5" font-family="Helvetica,sans-Serif" font-size="10.00">cmath</text>
</a>
</g>
</g>
<!-- Node5&#45;&gt;Node6 -->
<g id="edge5" class="edge">
<title>Node5&#45;&gt;Node6</title>
<path fill="none" stroke="midnightblue" d="M221.33,-56.4C204.98,-46.86 183.49,-34.32 167.23,-24.84"/>
<polygon fill="midnightblue" stroke="midnightblue" points="168.74,-21.67 158.34,-19.66 165.22,-27.72 168.74,-21.67"/>
</g>
<!-- Node7 -->
<g id="node7" class="node">
<title>Node7</title>
<g id="a_node7"><a xlink:href="ciabatta_8hpp_source.html" target="_top" xlink:title=" ">
<polygon fill="none" stroke="black" points="185.5,-0.5 185.5,-19.5 305.5,-19.5 305.5,-0.5 185.5,-0.5"/>
<text text-anchor="middle" x="245.5" y="-7.5" font-family="Helvetica,sans-Serif" font-size="10.00">ciabatta/ciabatta.hpp</text>
</a>
</g>
</g>
<!-- Node5&#45;&gt;Node7 -->
<g id="edge6" class="edge">
<title>Node5&#45;&gt;Node7</title>
<path fill="none" stroke="midnightblue" d="M245.5,-56.4C245.5,-48.47 245.5,-38.46 245.5,-29.86"/>
<polygon fill="midnightblue" stroke="midnightblue" points="249,-29.66 245.5,-19.66 242,-29.66 249,-29.66"/>
</g>
<!-- Node8 -->
<g id="node8" class="node">
<title>Node8</title>
<g id="a_node8"><a xlink:title=" ">
<polygon fill="none" stroke="#bfbfbf" points="323.5,-0.5 323.5,-19.5 481.5,-19.5 481.5,-0.5 323.5,-0.5"/>
<text text-anchor="middle" x="402.5" y="-7.5" font-family="Helvetica,sans-Serif" font-size="10.00">range/v3/view/transform.hpp</text>
</a>
</g>
</g>
<!-- Node5&#45;&gt;Node8 -->
<g id="edge7" class="edge">
<title>Node5&#45;&gt;Node8</title>
<path fill="none" stroke="midnightblue" d="M282.71,-56.4C309.28,-46.33 344.69,-32.91 370.11,-23.28"/>
<polygon fill="midnightblue" stroke="midnightblue" points="371.54,-26.47 379.66,-19.66 369.06,-19.93 371.54,-26.47"/>
</g>
</g>
</svg>
