<?xml version="1.0" encoding="UTF-8" standalone="no"?>
<!DOCTYPE svg PUBLIC "-//W3C//DTD SVG 1.1//EN"
 "http://www.w3.org/Graphics/SVG/1.1/DTD/svg11.dtd">
<!-- Generated by graphviz version 2.43.0 (0)
 -->
<!-- Title: /home/runner/work/beluga/beluga/beluga/include/beluga/sensor/data/sparse_point_cloud.hpp Pages: 1 -->
<svg width="314pt" height="117pt"
 viewBox="0.00 0.00 313.50 117.00" xmlns="http://www.w3.org/2000/svg" xmlns:xlink="http://www.w3.org/1999/xlink">
<g id="graph0" class="graph" transform="scale(1 1) rotate(0) translate(4 113)">
<title>/home/runner/work/beluga/beluga/beluga/include/beluga/sensor/data/sparse_point_cloud.hpp</title>
<!-- Node1 -->
<g id="node1" class="node">
<title>Node1</title>
<g id="a_node1"><a xlink:title="Implementation of a sparse point cloud interface without memory&#45;aligned data.">
<polygon fill="#bfbfbf" stroke="black" points="51.5,-56.5 51.5,-108.5 199.5,-108.5 199.5,-56.5 51.5,-56.5"/>
<text text-anchor="start" x="59.5" y="-96.5" font-family="Helvetica,sans-Serif" font-size="10.00">/home/runner/work/beluga</text>
<text text-anchor="start" x="59.5" y="-85.5" font-family="Helvetica,sans-Serif" font-size="10.00">/beluga/beluga/include</text>
<text text-anchor="start" x="59.5" y="-74.5" font-family="Helvetica,sans-Serif" font-size="10.00">/beluga/sensor/data/sparse</text>
<text text-anchor="middle" x="125.5" y="-63.5" font-family="Helvetica,sans-Serif" font-size="10.00">_point_cloud.hpp</text>
</a>
</g>
</g>
<!-- Node2 -->
<g id="node2" class="node">
<title>Node2</title>
<g id="a_node2"><a xlink:title=" ">
<polygon fill="none" stroke="#bfbfbf" points="0,-0.5 0,-19.5 47,-19.5 47,-0.5 0,-0.5"/>
<text text-anchor="middle" x="23.5" y="-7.5" font-family="Helvetica,sans-Serif" font-size="10.00">cmath</text>
</a>
</g>
</g>
<!-- Node1&#45;&gt;Node2 -->
<g id="edge1" class="edge">
<title>Node1&#45;&gt;Node2</title>
<path fill="none" stroke="midnightblue" d="M89.25,-56.45C74.32,-46.13 57.55,-34.53 44.68,-25.64"/>
<polygon fill="midnightblue" stroke="midnightblue" points="46.3,-22.5 36.08,-19.7 42.32,-28.26 46.3,-22.5"/>
</g>
<!-- Node3 -->
<g id="node3" class="node">
<title>Node3</title>
<g id="a_node3"><a xlink:href="ciabatta_8hpp_source.html" target="_top" xlink:title=" ">
<polygon fill="none" stroke="black" points="65.5,-0.5 65.5,-19.5 185.5,-19.5 185.5,-0.5 65.5,-0.5"/>
<text text-anchor="middle" x="125.5" y="-7.5" font-family="Helvetica,sans-Serif" font-size="10.00">ciabatta/ciabatta.hpp</text>
</a>
</g>
</g>
<!-- Node1&#45;&gt;Node3 -->
<g id="edge2" class="edge">
<title>Node1&#45;&gt;Node3</title>
<path fill="none" stroke="midnightblue" d="M125.5,-56.45C125.5,-47.73 125.5,-38.1 125.5,-29.96"/>
<polygon fill="midnightblue" stroke="midnightblue" points="129,-29.7 125.5,-19.7 122,-29.7 129,-29.7"/>
</g>
<!-- Node4 -->
<g id="node4" class="node">
<title>Node4</title>
<g id="a_node4"><a xlink:title=" ">
<polygon fill="none" stroke="#bfbfbf" points="203.5,-0.5 203.5,-19.5 305.5,-19.5 305.5,-0.5 203.5,-0.5"/>
<text text-anchor="middle" x="254.5" y="-7.5" font-family="Helvetica,sans-Serif" font-size="10.00">sophus/types.hpp</text>
</a>
</g>
</g>
<!-- Node1&#45;&gt;Node4 -->
<g id="edge3" class="edge">
<title>Node1&#45;&gt;Node4</title>
<path fill="none" stroke="midnightblue" d="M171.34,-56.45C191.08,-45.66 213.36,-33.48 229.89,-24.45"/>
<polygon fill="midnightblue" stroke="midnightblue" points="231.8,-27.39 238.9,-19.53 228.44,-21.25 231.8,-27.39"/>
</g>
</g>
</svg>
