<?xml version="1.0" encoding="UTF-8" standalone="no"?>
<!DOCTYPE svg PUBLIC "-//W3C//DTD SVG 1.1//EN"
 "http://www.w3.org/Graphics/SVG/1.1/DTD/svg11.dtd">
<!-- Generated by graphviz version 2.43.0 (0)
 -->
<!-- Title: /home/runner/work/beluga/beluga/beluga/include/beluga/sensor/data/sparse_value_grid.hpp Pages: 1 -->
<svg width="219pt" height="473pt"
 viewBox="0.00 0.00 219.00 473.00" xmlns="http://www.w3.org/2000/svg" xmlns:xlink="http://www.w3.org/1999/xlink">
<g id="graph0" class="graph" transform="scale(1 1) rotate(0) translate(4 469)">
<title>/home/runner/work/beluga/beluga/beluga/include/beluga/sensor/data/sparse_value_grid.hpp</title>
<!-- Node1 -->
<g id="node1" class="node">
<title>Node1</title>
<g id="a_node1"><a xlink:title="Implementation of generic sparse value regular grid.">
<polygon fill="#bfbfbf" stroke="black" points="48.5,-412.5 48.5,-464.5 196.5,-464.5 196.5,-412.5 48.5,-412.5"/>
<text text-anchor="start" x="56.5" y="-452.5" font-family="Helvetica,sans-Serif" font-size="10.00">/home/runner/work/beluga</text>
<text text-anchor="start" x="56.5" y="-441.5" font-family="Helvetica,sans-Serif" font-size="10.00">/beluga/beluga/include</text>
<text text-anchor="start" x="56.5" y="-430.5" font-family="Helvetica,sans-Serif" font-size="10.00">/beluga/sensor/data/sparse</text>
<text text-anchor="middle" x="122.5" y="-419.5" font-family="Helvetica,sans-Serif" font-size="10.00">_value_grid.hpp</text>
</a>
</g>
</g>
<!-- Node2 -->
<g id="node2" class="node">
<title>Node2</title>
<g id="a_node2"><a xlink:href="ndt__cell_8hpp_source.html" target="_top" xlink:title=" ">
<polygon fill="none" stroke="black" points="0,-323.5 0,-375.5 145,-375.5 145,-323.5 0,-323.5"/>
<text text-anchor="start" x="8" y="-363.5" font-family="Helvetica,sans-Serif" font-size="10.00">/home/runner/work/beluga</text>
<text text-anchor="start" x="8" y="-352.5" font-family="Helvetica,sans-Serif" font-size="10.00">/beluga/beluga/include</text>
<text text-anchor="start" x="8" y="-341.5" font-family="Helvetica,sans-Serif" font-size="10.00">/beluga/sensor/data/ndt</text>
<text text-anchor="middle" x="72.5" y="-330.5" font-family="Helvetica,sans-Serif" font-size="10.00">_cell.hpp</text>
</a>
</g>
</g>
<!-- Node1&#45;&gt;Node2 -->
<g id="edge1" class="edge">
<title>Node1&#45;&gt;Node2</title>
<path fill="none" stroke="midnightblue" d="M103.04,-403.64C97.68,-394.31 91.95,-384.35 86.93,-375.61"/>
<polygon fill="midnightblue" stroke="midnightblue" points="100.02,-405.41 108.04,-412.34 106.09,-401.92 100.02,-405.41"/>
</g>
<!-- Node3 -->
<g id="node3" class="node">
<title>Node3</title>
<g id="a_node3"><a xlink:href="ndt__sensor__model_8hpp_source.html" target="_top" xlink:title=" ">
<polygon fill="none" stroke="black" points="50,-234.5 50,-286.5 195,-286.5 195,-234.5 50,-234.5"/>
<text text-anchor="start" x="58" y="-274.5" font-family="Helvetica,sans-Serif" font-size="10.00">/home/runner/work/beluga</text>
<text text-anchor="start" x="58" y="-263.5" font-family="Helvetica,sans-Serif" font-size="10.00">/beluga/beluga/include</text>
<text text-anchor="start" x="58" y="-252.5" font-family="Helvetica,sans-Serif" font-size="10.00">/beluga/sensor/ndt_sensor</text>
<text text-anchor="middle" x="122.5" y="-241.5" font-family="Helvetica,sans-Serif" font-size="10.00">_model.hpp</text>
</a>
</g>
</g>
<!-- Node1&#45;&gt;Node3 -->
<g id="edge6" class="edge">
<title>Node1&#45;&gt;Node3</title>
<path fill="none" stroke="midnightblue" d="M143.95,-403.3C148.3,-394.7 152.23,-385.27 154.5,-376 160.1,-353.12 160.1,-345.88 154.5,-323 151.41,-310.37 145.23,-297.45 139.12,-286.74"/>
<polygon fill="midnightblue" stroke="midnightblue" points="140.78,-401.8 139.12,-412.26 146.95,-405.12 140.78,-401.8"/>
</g>
<!-- Node2&#45;&gt;Node3 -->
<g id="edge2" class="edge">
<title>Node2&#45;&gt;Node3</title>
<path fill="none" stroke="midnightblue" d="M91.96,-314.64C97.32,-305.31 103.05,-295.35 108.07,-286.61"/>
<polygon fill="midnightblue" stroke="midnightblue" points="88.91,-312.92 86.96,-323.34 94.98,-316.41 88.91,-312.92"/>
</g>
<!-- Node4 -->
<g id="node4" class="node">
<title>Node4</title>
<g id="a_node4"><a xlink:href="sensor_8hpp.html" target="_top" xlink:title="Includes all Beluga sensor models and their interfaces.">
<polygon fill="none" stroke="black" points="50,-156.5 50,-197.5 195,-197.5 195,-156.5 50,-156.5"/>
<text text-anchor="start" x="58" y="-185.5" font-family="Helvetica,sans-Serif" font-size="10.00">/home/runner/work/beluga</text>
<text text-anchor="start" x="58" y="-174.5" font-family="Helvetica,sans-Serif" font-size="10.00">/beluga/beluga/include</text>
<text text-anchor="middle" x="122.5" y="-163.5" font-family="Helvetica,sans-Serif" font-size="10.00">/beluga/sensor.hpp</text>
</a>
</g>
</g>
<!-- Node3&#45;&gt;Node4 -->
<g id="edge3" class="edge">
<title>Node3&#45;&gt;Node4</title>
<path fill="none" stroke="midnightblue" d="M122.5,-224.15C122.5,-215.05 122.5,-205.6 122.5,-197.63"/>
<polygon fill="midnightblue" stroke="midnightblue" points="119,-224.16 122.5,-234.16 126,-224.16 119,-224.16"/>
</g>
<!-- Node5 -->
<g id="node5" class="node">
<title>Node5</title>
<g id="a_node5"><a xlink:href="beluga_8hpp.html" target="_top" xlink:title="Includes all the Beluga API.">
<polygon fill="none" stroke="black" points="50,-78.5 50,-119.5 195,-119.5 195,-78.5 50,-78.5"/>
<text text-anchor="start" x="58" y="-107.5" font-family="Helvetica,sans-Serif" font-size="10.00">/home/runner/work/beluga</text>
<text text-anchor="start" x="58" y="-96.5" font-family="Helvetica,sans-Serif" font-size="10.00">/beluga/beluga/include</text>
<text text-anchor="middle" x="122.5" y="-85.5" font-family="Helvetica,sans-Serif" font-size="10.00">/beluga/beluga.hpp</text>
</a>
</g>
</g>
<!-- Node4&#45;&gt;Node5 -->
<g id="edge4" class="edge">
<title>Node4&#45;&gt;Node5</title>
<path fill="none" stroke="midnightblue" d="M122.5,-146.3C122.5,-137.3 122.5,-127.65 122.5,-119.51"/>
<polygon fill="midnightblue" stroke="midnightblue" points="119,-146.43 122.5,-156.43 126,-146.43 119,-146.43"/>
</g>
<!-- Node6 -->
<g id="node6" class="node">
<title>Node6</title>
<g id="a_node6"><a xlink:href="amcl__core_8hpp_source.html" target="_top" xlink:title=" ">
<polygon fill="none" stroke="black" points="34,-0.5 34,-41.5 211,-41.5 211,-0.5 34,-0.5"/>
<text text-anchor="start" x="42" y="-29.5" font-family="Helvetica,sans-Serif" font-size="10.00">/home/runner/work/beluga</text>
<text text-anchor="start" x="42" y="-18.5" font-family="Helvetica,sans-Serif" font-size="10.00">/beluga/beluga/include</text>
<text text-anchor="middle" x="122.5" y="-7.5" font-family="Helvetica,sans-Serif" font-size="10.00">/beluga/algorithm/amcl_core.hpp</text>
</a>
</g>
</g>
<!-- Node5&#45;&gt;Node6 -->
<g id="edge5" class="edge">
<title>Node5&#45;&gt;Node6</title>
<path fill="none" stroke="midnightblue" d="M122.5,-68.3C122.5,-59.3 122.5,-49.65 122.5,-41.51"/>
<polygon fill="midnightblue" stroke="midnightblue" points="119,-68.43 122.5,-78.43 126,-68.43 119,-68.43"/>
</g>
</g>
</svg>
