<?xml version="1.0" encoding="UTF-8" standalone="no"?>
<!DOCTYPE svg PUBLIC "-//W3C//DTD SVG 1.1//EN"
 "http://www.w3.org/Graphics/SVG/1.1/DTD/svg11.dtd">
<!-- Generated by graphviz version 2.43.0 (0)
 -->
<!-- Title: /home/runner/work/beluga/beluga/beluga/include/beluga/algorithm/spatial_hash.hpp Pages: 1 -->
<svg width="219pt" height="384pt"
 viewBox="0.00 0.00 219.00 384.00" xmlns="http://www.w3.org/2000/svg" xmlns:xlink="http://www.w3.org/1999/xlink">
<g id="graph0" class="graph" transform="scale(1 1) rotate(0) translate(4 380)">
<title>/home/runner/work/beluga/beluga/beluga/include/beluga/algorithm/spatial_hash.hpp</title>
<!-- Node1 -->
<g id="node1" class="node">
<title>Node1</title>
<g id="a_node1"><a xlink:title="Implementation of a spatial hash for N dimensional states.">
<polygon fill="#bfbfbf" stroke="black" points="50,-323.5 50,-375.5 195,-375.5 195,-323.5 50,-323.5"/>
<text text-anchor="start" x="58" y="-363.5" font-family="Helvetica,sans-Serif" font-size="10.00">/home/runner/work/beluga</text>
<text text-anchor="start" x="58" y="-352.5" font-family="Helvetica,sans-Serif" font-size="10.00">/beluga/beluga/include</text>
<text text-anchor="start" x="58" y="-341.5" font-family="Helvetica,sans-Serif" font-size="10.00">/beluga/algorithm/spatial</text>
<text text-anchor="middle" x="122.5" y="-330.5" font-family="Helvetica,sans-Serif" font-size="10.00">_hash.hpp</text>
</a>
</g>
</g>
<!-- Node2 -->
<g id="node2" class="node">
<title>Node2</title>
<g id="a_node2"><a xlink:href="cluster__based__estimation_8hpp.html" target="_top" xlink:title="Implementation of a cluster&#45;based estimation algorithm.">
<polygon fill="none" stroke="black" points="0,-234.5 0,-286.5 145,-286.5 145,-234.5 0,-234.5"/>
<text text-anchor="start" x="8" y="-274.5" font-family="Helvetica,sans-Serif" font-size="10.00">/home/runner/work/beluga</text>
<text text-anchor="start" x="8" y="-263.5" font-family="Helvetica,sans-Serif" font-size="10.00">/beluga/beluga/include</text>
<text text-anchor="start" x="8" y="-252.5" font-family="Helvetica,sans-Serif" font-size="10.00">/beluga/algorithm/cluster</text>
<text text-anchor="middle" x="72.5" y="-241.5" font-family="Helvetica,sans-Serif" font-size="10.00">_based_estimation.hpp</text>
</a>
</g>
</g>
<!-- Node1&#45;&gt;Node2 -->
<g id="edge1" class="edge">
<title>Node1&#45;&gt;Node2</title>
<path fill="none" stroke="midnightblue" d="M103.04,-314.64C97.68,-305.31 91.95,-295.35 86.93,-286.61"/>
<polygon fill="midnightblue" stroke="midnightblue" points="100.02,-316.41 108.04,-323.34 106.09,-312.92 100.02,-316.41"/>
</g>
<!-- Node3 -->
<g id="node3" class="node">
<title>Node3</title>
<g id="a_node3"><a xlink:href="algorithm_8hpp.html" target="_top" xlink:title="Includes all beluga algorithms.">
<polygon fill="none" stroke="black" points="50,-156.5 50,-197.5 195,-197.5 195,-156.5 50,-156.5"/>
<text text-anchor="start" x="58" y="-185.5" font-family="Helvetica,sans-Serif" font-size="10.00">/home/runner/work/beluga</text>
<text text-anchor="start" x="58" y="-174.5" font-family="Helvetica,sans-Serif" font-size="10.00">/beluga/beluga/include</text>
<text text-anchor="middle" x="122.5" y="-163.5" font-family="Helvetica,sans-Serif" font-size="10.00">/beluga/algorithm.hpp</text>
</a>
</g>
</g>
<!-- Node1&#45;&gt;Node3 -->
<g id="edge5" class="edge">
<title>Node1&#45;&gt;Node3</title>
<path fill="none" stroke="midnightblue" d="M143.95,-314.3C148.3,-305.7 152.23,-296.27 154.5,-287 160.1,-264.12 160.55,-256.77 154.5,-234 151.05,-221.01 143.8,-207.9 137.08,-197.63"/>
<polygon fill="midnightblue" stroke="midnightblue" points="140.78,-312.8 139.12,-323.26 146.95,-316.12 140.78,-312.8"/>
</g>
<!-- Node2&#45;&gt;Node3 -->
<g id="edge2" class="edge">
<title>Node2&#45;&gt;Node3</title>
<path fill="none" stroke="midnightblue" d="M93.29,-225.61C99.14,-216.08 105.31,-206.03 110.46,-197.63"/>
<polygon fill="midnightblue" stroke="midnightblue" points="90.29,-223.81 88.05,-234.16 96.26,-227.47 90.29,-223.81"/>
</g>
<!-- Node4 -->
<g id="node4" class="node">
<title>Node4</title>
<g id="a_node4"><a xlink:href="beluga_8hpp.html" target="_top" xlink:title="Includes all the Beluga API.">
<polygon fill="none" stroke="black" points="50,-78.5 50,-119.5 195,-119.5 195,-78.5 50,-78.5"/>
<text text-anchor="start" x="58" y="-107.5" font-family="Helvetica,sans-Serif" font-size="10.00">/home/runner/work/beluga</text>
<text text-anchor="start" x="58" y="-96.5" font-family="Helvetica,sans-Serif" font-size="10.00">/beluga/beluga/include</text>
<text text-anchor="middle" x="122.5" y="-85.5" font-family="Helvetica,sans-Serif" font-size="10.00">/beluga/beluga.hpp</text>
</a>
</g>
</g>
<!-- Node3&#45;&gt;Node4 -->
<g id="edge3" class="edge">
<title>Node3&#45;&gt;Node4</title>
<path fill="none" stroke="midnightblue" d="M122.5,-146.3C122.5,-137.3 122.5,-127.65 122.5,-119.51"/>
<polygon fill="midnightblue" stroke="midnightblue" points="119,-146.43 122.5,-156.43 126,-146.43 119,-146.43"/>
</g>
<!-- Node5 -->
<g id="node5" class="node">
<title>Node5</title>
<g id="a_node5"><a xlink:href="amcl__core_8hpp_source.html" target="_top" xlink:title=" ">
<polygon fill="none" stroke="black" points="34,-0.5 34,-41.5 211,-41.5 211,-0.5 34,-0.5"/>
<text text-anchor="start" x="42" y="-29.5" font-family="Helvetica,sans-Serif" font-size="10.00">/home/runner/work/beluga</text>
<text text-anchor="start" x="42" y="-18.5" font-family="Helvetica,sans-Serif" font-size="10.00">/beluga/beluga/include</text>
<text text-anchor="middle" x="122.5" y="-7.5" font-family="Helvetica,sans-Serif" font-size="10.00">/beluga/algorithm/amcl_core.hpp</text>
</a>
</g>
</g>
<!-- Node4&#45;&gt;Node5 -->
<g id="edge4" class="edge">
<title>Node4&#45;&gt;Node5</title>
<path fill="none" stroke="midnightblue" d="M122.5,-68.3C122.5,-59.3 122.5,-49.65 122.5,-41.51"/>
<polygon fill="midnightblue" stroke="midnightblue" points="119,-68.43 122.5,-78.43 126,-68.43 119,-68.43"/>
</g>
</g>
</svg>
