<?xml version="1.0" encoding="UTF-8" standalone="no"?>
<!DOCTYPE svg PUBLIC "-//W3C//DTD SVG 1.1//EN"
 "http://www.w3.org/Graphics/SVG/1.1/DTD/svg11.dtd">
<!-- Generated by graphviz version 2.43.0 (0)
 -->
<!-- Title: /home/runner/work/beluga/beluga/beluga/include/beluga/type_traits/strongly_typed_numeric.hpp Pages: 1 -->
<!--zoomable 640 -->
<svg id="main" version="1.1" xmlns="http://www.w3.org/2000/svg" xmlns:xlink="http://www.w3.org/1999/xlink" xml:space="preserve" onload="init(evt)">
<style type="text/css"><![CDATA[
.edge:hover path { stroke: red; }
.edge:hover polygon { stroke: red; fill: red; }
]]></style>
<script type="text/javascript"><![CDATA[
var edges = document.getElementsByTagName('g');
if (edges && edges.length) {
  for (var i=0;i<edges.length;i++) {
    if (edges[i].id.substr(0,4)=='edge') {
      edges[i].setAttribute('class','edge');
    }
  }
}
]]></script>
        <defs>
                <circle id="rim" cx="0" cy="0" r="7"/>
                <circle id="rim2" cx="0" cy="0" r="3.5"/>
                <g id="zoomPlus">
                        <use xlink:href="#rim" fill="#404040">
                                <set attributeName="fill" to="#808080" begin="zoomplus.mouseover" end="zoomplus.mouseout"/>
                        </use>
                        <path d="M-4,0h8M0,-4v8" fill="none" stroke="white" stroke-width="1.5" pointer-events="none"/>
                </g>
                <g id="zoomMin">
                        <use xlink:href="#rim" fill="#404040">
                                <set attributeName="fill" to="#808080" begin="zoomminus.mouseover" end="zoomminus.mouseout"/>
                        </use>
                        <path d="M-4,0h8" fill="none" stroke="white" stroke-width="1.5" pointer-events="none"/>
                </g>
                <g id="dirArrow">
                        <path fill="none" stroke="white" stroke-width="1.5" d="M0,-3.0v7 M-2.5,-0.5L0,-3.0L2.5,-0.5"/>
                </g>
               <g id="resetDef">
                       <use xlink:href="#rim2" fill="#404040">
                               <set attributeName="fill" to="#808080" begin="reset.mouseover" end="reset.mouseout"/>
                       </use>
               </g>
        </defs>

<script type="text/javascript">
var viewWidth = 1546;
var viewHeight = 640;
var sectionId = 'dynsection-1';
</script>
<script xlink:href="svgpan.js"/>
<svg id="graph" class="graph">
<g id="viewport">
<title>/home/runner/work/beluga/beluga/beluga/include/beluga/type_traits/strongly_typed_numeric.hpp</title>
<!-- Node1 -->
<g id="node1" class="node">
<title>Node1</title>
<g id="a_node1"><a xlink:title="Implementation of a strongly typed numeric helper.">
<polygon fill="#bfbfbf" stroke="black" points="480.5,-579.5 480.5,-631.5 631.5,-631.5 631.5,-579.5 480.5,-579.5"/>
<text text-anchor="start" x="488.5" y="-619.5" font-family="Helvetica,sans-Serif" font-size="10.00">/home/runner/work/beluga</text>
<text text-anchor="start" x="488.5" y="-608.5" font-family="Helvetica,sans-Serif" font-size="10.00">/beluga/beluga/include</text>
<text text-anchor="start" x="488.5" y="-597.5" font-family="Helvetica,sans-Serif" font-size="10.00">/beluga/type_traits/strongly</text>
<text text-anchor="middle" x="556" y="-586.5" font-family="Helvetica,sans-Serif" font-size="10.00">_typed_numeric.hpp</text>
</a>
</g>
</g>
<!-- Node2 -->
<g id="node2" class="node">
<title>Node2</title>
<g id="a_node2"><a xlink:href="primitives_8hpp.html" target="_top" xlink:title="Implementation of library primitives to abstract member access.">
<polygon fill="none" stroke="black" points="483.5,-501.5 483.5,-542.5 628.5,-542.5 628.5,-501.5 483.5,-501.5"/>
<text text-anchor="start" x="491.5" y="-530.5" font-family="Helvetica,sans-Serif" font-size="10.00">/home/runner/work/beluga</text>
<text text-anchor="start" x="491.5" y="-519.5" font-family="Helvetica,sans-Serif" font-size="10.00">/beluga/beluga/include</text>
<text text-anchor="middle" x="556" y="-508.5" font-family="Helvetica,sans-Serif" font-size="10.00">/beluga/primitives.hpp</text>
</a>
</g>
</g>
<!-- Node1&#45;&gt;Node2 -->
<g id="edge1" class="edge">
<title>Node1&#45;&gt;Node2</title>
<path fill="none" stroke="midnightblue" d="M556,-569.15C556,-560.05 556,-550.6 556,-542.63"/>
<polygon fill="midnightblue" stroke="midnightblue" points="552.5,-569.16 556,-579.16 559.5,-569.16 552.5,-569.16"/>
</g>
<!-- Node3 -->
<g id="node3" class="node">
<title>Node3</title>
<g id="a_node3"><a xlink:href="beluga_8hpp.html" target="_top" xlink:title="Includes all the Beluga API.">
<polygon fill="none" stroke="black" points="976.5,-78.5 976.5,-119.5 1121.5,-119.5 1121.5,-78.5 976.5,-78.5"/>
<text text-anchor="start" x="984.5" y="-107.5" font-family="Helvetica,sans-Serif" font-size="10.00">/home/runner/work/beluga</text>
<text text-anchor="start" x="984.5" y="-96.5" font-family="Helvetica,sans-Serif" font-size="10.00">/beluga/beluga/include</text>
<text text-anchor="middle" x="1049" y="-85.5" font-family="Helvetica,sans-Serif" font-size="10.00">/beluga/beluga.hpp</text>
</a>
</g>
</g>
<!-- Node2&#45;&gt;Node3 -->
<g id="edge2" class="edge">
<title>Node2&#45;&gt;Node3</title>
<path fill="none" stroke="midnightblue" d="M473.35,-513.01C318.46,-495.73 0,-448.31 0,-350.5 0,-350.5 0,-350.5 0,-259.5 0,-160.54 739.04,-115.34 976.48,-103.36"/>
<polygon fill="midnightblue" stroke="midnightblue" points="472.99,-516.49 483.31,-514.1 473.75,-509.53 472.99,-516.49"/>
</g>
<!-- Node5 -->
<g id="node5" class="node">
<title>Node5</title>
<g id="a_node5"><a xlink:href="particle__traits_8hpp.html" target="_top" xlink:title="Implementation of traits for particle types, see the Particle named requirements.">
<polygon fill="none" stroke="black" points="801,-412.5 801,-464.5 949,-464.5 949,-412.5 801,-412.5"/>
<text text-anchor="start" x="809" y="-452.5" font-family="Helvetica,sans-Serif" font-size="10.00">/home/runner/work/beluga</text>
<text text-anchor="start" x="809" y="-441.5" font-family="Helvetica,sans-Serif" font-size="10.00">/beluga/beluga/include</text>
<text text-anchor="start" x="809" y="-430.5" font-family="Helvetica,sans-Serif" font-size="10.00">/beluga/type_traits/particle</text>
<text text-anchor="middle" x="875" y="-419.5" font-family="Helvetica,sans-Serif" font-size="10.00">_traits.hpp</text>
</a>
</g>
</g>
<!-- Node2&#45;&gt;Node5 -->
<g id="edge4" class="edge">
<title>Node2&#45;&gt;Node5</title>
<path fill="none" stroke="midnightblue" d="M638.63,-499.89C688.81,-487.07 752.32,-470.84 800.87,-458.44"/>
<polygon fill="midnightblue" stroke="midnightblue" points="637.61,-496.54 628.79,-502.4 639.34,-503.32 637.61,-496.54"/>
</g>
<!-- Node21 -->
<g id="node21" class="node">
<title>Node21</title>
<g id="a_node21"><a xlink:href="particles_8hpp.html" target="_top" xlink:title="Implementation of views related to particle ranges.">
<polygon fill="none" stroke="black" points="481,-418 481,-459 631,-459 631,-418 481,-418"/>
<text text-anchor="start" x="489" y="-447" font-family="Helvetica,sans-Serif" font-size="10.00">/home/runner/work/beluga</text>
<text text-anchor="start" x="489" y="-436" font-family="Helvetica,sans-Serif" font-size="10.00">/beluga/beluga/include</text>
<text text-anchor="middle" x="556" y="-425" font-family="Helvetica,sans-Serif" font-size="10.00">/beluga/views/particles.hpp</text>
</a>
</g>
</g>
<!-- Node2&#45;&gt;Node21 -->
<g id="edge30" class="edge">
<title>Node2&#45;&gt;Node21</title>
<path fill="none" stroke="midnightblue" d="M556,-491.06C556,-480.38 556,-468.63 556,-459.05"/>
<polygon fill="midnightblue" stroke="midnightblue" points="552.5,-491.27 556,-501.27 559.5,-491.27 552.5,-491.27"/>
</g>
<!-- Node4 -->
<g id="node4" class="node">
<title>Node4</title>
<g id="a_node4"><a xlink:href="amcl__core_8hpp_source.html" target="_top" xlink:title=" ">
<polygon fill="none" stroke="black" points="960.5,-0.5 960.5,-41.5 1137.5,-41.5 1137.5,-0.5 960.5,-0.5"/>
<text text-anchor="start" x="968.5" y="-29.5" font-family="Helvetica,sans-Serif" font-size="10.00">/home/runner/work/beluga</text>
<text text-anchor="start" x="968.5" y="-18.5" font-family="Helvetica,sans-Serif" font-size="10.00">/beluga/beluga/include</text>
<text text-anchor="middle" x="1049" y="-7.5" font-family="Helvetica,sans-Serif" font-size="10.00">/beluga/algorithm/amcl_core.hpp</text>
</a>
</g>
</g>
<!-- Node3&#45;&gt;Node4 -->
<g id="edge3" class="edge">
<title>Node3&#45;&gt;Node4</title>
<path fill="none" stroke="midnightblue" d="M1049,-68.3C1049,-59.3 1049,-49.65 1049,-41.51"/>
<polygon fill="midnightblue" stroke="midnightblue" points="1045.5,-68.43 1049,-78.43 1052.5,-68.43 1045.5,-68.43"/>
</g>
<!-- Node6 -->
<g id="node6" class="node">
<title>Node6</title>
<g id="a_node6"><a xlink:href="normalize_8hpp.html" target="_top" xlink:title="Implementation of the normalize range adaptor object.">
<polygon fill="none" stroke="black" points="611,-329 611,-370 775,-370 775,-329 611,-329"/>
<text text-anchor="start" x="619" y="-358" font-family="Helvetica,sans-Serif" font-size="10.00">/home/runner/work/beluga</text>
<text text-anchor="start" x="619" y="-347" font-family="Helvetica,sans-Serif" font-size="10.00">/beluga/beluga/include</text>
<text text-anchor="middle" x="693" y="-336" font-family="Helvetica,sans-Serif" font-size="10.00">/beluga/actions/normalize.hpp</text>
</a>
</g>
</g>
<!-- Node5&#45;&gt;Node6 -->
<g id="edge5" class="edge">
<title>Node5&#45;&gt;Node6</title>
<path fill="none" stroke="midnightblue" d="M813.27,-407.99C787.11,-395.49 757.34,-381.26 733.96,-370.08"/>
<polygon fill="midnightblue" stroke="midnightblue" points="811.83,-411.18 822.36,-412.34 814.85,-404.87 811.83,-411.18"/>
</g>
<!-- Node8 -->
<g id="node8" class="node">
<title>Node8</title>
<g id="a_node8"><a xlink:href="propagate_8hpp.html" target="_top" xlink:title="Implementation of the propagate range adaptor object.">
<polygon fill="none" stroke="black" points="793,-329 793,-370 957,-370 957,-329 793,-329"/>
<text text-anchor="start" x="801" y="-358" font-family="Helvetica,sans-Serif" font-size="10.00">/home/runner/work/beluga</text>
<text text-anchor="start" x="801" y="-347" font-family="Helvetica,sans-Serif" font-size="10.00">/beluga/beluga/include</text>
<text text-anchor="middle" x="875" y="-336" font-family="Helvetica,sans-Serif" font-size="10.00">/beluga/actions/propagate.hpp</text>
</a>
</g>
</g>
<!-- Node5&#45;&gt;Node8 -->
<g id="edge8" class="edge">
<title>Node5&#45;&gt;Node8</title>
<path fill="none" stroke="midnightblue" d="M875,-402.16C875,-391.21 875,-379.55 875,-370.08"/>
<polygon fill="midnightblue" stroke="midnightblue" points="871.5,-402.34 875,-412.34 878.5,-402.34 871.5,-402.34"/>
</g>
<!-- Node9 -->
<g id="node9" class="node">
<title>Node9</title>
<g id="a_node9"><a xlink:href="reweight_8hpp.html" target="_top" xlink:title="Implementation of the reweight range adaptor object.">
<polygon fill="none" stroke="black" points="433,-240 433,-281 591,-281 591,-240 433,-240"/>
<text text-anchor="start" x="441" y="-269" font-family="Helvetica,sans-Serif" font-size="10.00">/home/runner/work/beluga</text>
<text text-anchor="start" x="441" y="-258" font-family="Helvetica,sans-Serif" font-size="10.00">/beluga/beluga/include</text>
<text text-anchor="middle" x="512" y="-247" font-family="Helvetica,sans-Serif" font-size="10.00">/beluga/actions/reweight.hpp</text>
</a>
</g>
</g>
<!-- Node5&#45;&gt;Node9 -->
<g id="edge10" class="edge">
<title>Node5&#45;&gt;Node9</title>
<path fill="none" stroke="midnightblue" d="M959.59,-432.89C1071.46,-423.82 1246.99,-397.55 1179,-323 1159.42,-301.53 763.82,-276.1 591.3,-265.98"/>
<polygon fill="midnightblue" stroke="midnightblue" points="959,-429.42 949.3,-433.69 959.55,-436.4 959,-429.42"/>
</g>
<!-- Node10 -->
<g id="node10" class="node">
<title>Node10</title>
<g id="a_node10"><a xlink:href="effective__sample__size_8hpp.html" target="_top" xlink:title="Implementation of an algorithm to calculate the effective sample size (ESS).">
<polygon fill="none" stroke="black" points="1225.5,-323.5 1225.5,-375.5 1374.5,-375.5 1374.5,-323.5 1225.5,-323.5"/>
<text text-anchor="start" x="1233.5" y="-363.5" font-family="Helvetica,sans-Serif" font-size="10.00">/home/runner/work/beluga</text>
<text text-anchor="start" x="1233.5" y="-352.5" font-family="Helvetica,sans-Serif" font-size="10.00">/beluga/beluga/include</text>
<text text-anchor="start" x="1233.5" y="-341.5" font-family="Helvetica,sans-Serif" font-size="10.00">/beluga/algorithm/effective</text>
<text text-anchor="middle" x="1300" y="-330.5" font-family="Helvetica,sans-Serif" font-size="10.00">_sample_size.hpp</text>
</a>
</g>
</g>
<!-- Node5&#45;&gt;Node10 -->
<g id="edge12" class="edge">
<title>Node5&#45;&gt;Node10</title>
<path fill="none" stroke="midnightblue" d="M958.95,-424.61C1027.43,-413.52 1126.48,-396.14 1212,-376 1216.34,-374.98 1220.77,-373.88 1225.24,-372.72"/>
<polygon fill="midnightblue" stroke="midnightblue" points="958.39,-421.16 949.08,-426.2 959.51,-428.07 958.39,-421.16"/>
</g>
<!-- Node14 -->
<g id="node14" class="node">
<title>Node14</title>
<g id="a_node14"><a xlink:href="thrun__recovery__probability__estimator_8hpp_source.html" target="_top" xlink:title=" ">
<polygon fill="none" stroke="black" points="975.5,-323.5 975.5,-375.5 1170.5,-375.5 1170.5,-323.5 975.5,-323.5"/>
<text text-anchor="start" x="983.5" y="-363.5" font-family="Helvetica,sans-Serif" font-size="10.00">/home/runner/work/beluga</text>
<text text-anchor="start" x="983.5" y="-352.5" font-family="Helvetica,sans-Serif" font-size="10.00">/beluga/beluga/include</text>
<text text-anchor="start" x="983.5" y="-341.5" font-family="Helvetica,sans-Serif" font-size="10.00">/beluga/algorithm/thrun</text>
<text text-anchor="middle" x="1073" y="-330.5" font-family="Helvetica,sans-Serif" font-size="10.00">_recovery_probability_estimator.hpp</text>
</a>
</g>
</g>
<!-- Node5&#45;&gt;Node14 -->
<g id="edge18" class="edge">
<title>Node5&#45;&gt;Node14</title>
<path fill="none" stroke="midnightblue" d="M941.47,-408.29C965.66,-397.67 992.76,-385.76 1016.06,-375.52"/>
<polygon fill="midnightblue" stroke="midnightblue" points="939.75,-405.23 932,-412.45 942.57,-411.63 939.75,-405.23"/>
</g>
<!-- Node15 -->
<g id="node15" class="node">
<title>Node15</title>
<g id="a_node15"><a xlink:href="type__traits_8hpp.html" target="_top" xlink:title="Includes all Beluga type traits.">
<polygon fill="none" stroke="black" points="1392.5,-329 1392.5,-370 1537.5,-370 1537.5,-329 1392.5,-329"/>
<text text-anchor="start" x="1400.5" y="-358" font-family="Helvetica,sans-Serif" font-size="10.00">/home/runner/work/beluga</text>
<text text-anchor="start" x="1400.5" y="-347" font-family="Helvetica,sans-Serif" font-size="10.00">/beluga/beluga/include</text>
<text text-anchor="middle" x="1465" y="-336" font-family="Helvetica,sans-Serif" font-size="10.00">/beluga/type_traits.hpp</text>
</a>
</g>
</g>
<!-- Node5&#45;&gt;Node15 -->
<g id="edge20" class="edge">
<title>Node5&#45;&gt;Node15</title>
<path fill="none" stroke="midnightblue" d="M959.49,-431.97C1060.94,-424.26 1235.82,-407.52 1383,-376 1390.73,-374.35 1398.77,-372.28 1406.66,-370.05"/>
<polygon fill="midnightblue" stroke="midnightblue" points="959.02,-428.5 949.3,-432.74 959.54,-435.48 959.02,-428.5"/>
</g>
<!-- Node18 -->
<g id="node18" class="node">
<title>Node18</title>
<g id="a_node18"><a xlink:href="sample_8hpp.html" target="_top" xlink:title="Implementation of a sample (with replacement) range adaptor object.">
<polygon fill="none" stroke="black" points="66.5,-329 66.5,-370 211.5,-370 211.5,-329 66.5,-329"/>
<text text-anchor="start" x="74.5" y="-358" font-family="Helvetica,sans-Serif" font-size="10.00">/home/runner/work/beluga</text>
<text text-anchor="start" x="74.5" y="-347" font-family="Helvetica,sans-Serif" font-size="10.00">/beluga/beluga/include</text>
<text text-anchor="middle" x="139" y="-336" font-family="Helvetica,sans-Serif" font-size="10.00">/beluga/views/sample.hpp</text>
</a>
</g>
</g>
<!-- Node5&#45;&gt;Node18 -->
<g id="edge25" class="edge">
<title>Node5&#45;&gt;Node18</title>
<path fill="none" stroke="midnightblue" d="M790.99,-427.92C746.2,-422.93 690.13,-416.87 640,-412 453.53,-393.89 403.79,-412.35 220,-376 212.05,-374.43 203.77,-372.35 195.68,-370.07"/>
<polygon fill="midnightblue" stroke="midnightblue" points="790.63,-431.4 800.96,-429.03 791.41,-424.44 790.63,-431.4"/>
</g>
<!-- Node20 -->
<g id="node20" class="node">
<title>Node20</title>
<g id="a_node20"><a xlink:href="take__while__kld_8hpp.html" target="_top" xlink:title="Implementation of a take_while_kld range adaptor object.">
<polygon fill="none" stroke="black" points="447.5,-323.5 447.5,-375.5 592.5,-375.5 592.5,-323.5 447.5,-323.5"/>
<text text-anchor="start" x="455.5" y="-363.5" font-family="Helvetica,sans-Serif" font-size="10.00">/home/runner/work/beluga</text>
<text text-anchor="start" x="455.5" y="-352.5" font-family="Helvetica,sans-Serif" font-size="10.00">/beluga/beluga/include</text>
<text text-anchor="start" x="455.5" y="-341.5" font-family="Helvetica,sans-Serif" font-size="10.00">/beluga/views/take_while</text>
<text text-anchor="middle" x="520" y="-330.5" font-family="Helvetica,sans-Serif" font-size="10.00">_kld.hpp</text>
</a>
</g>
</g>
<!-- Node5&#45;&gt;Node20 -->
<g id="edge28" class="edge">
<title>Node5&#45;&gt;Node20</title>
<path fill="none" stroke="midnightblue" d="M790.84,-420.36C736.65,-408.87 664.85,-392.82 602,-376 598.98,-375.19 595.9,-374.34 592.79,-373.47"/>
<polygon fill="midnightblue" stroke="midnightblue" points="790.24,-423.81 800.74,-422.45 791.68,-416.96 790.24,-423.81"/>
</g>
<!-- Node7 -->
<g id="node7" class="node">
<title>Node7</title>
<g id="a_node7"><a xlink:href="actions_8hpp.html" target="_top" xlink:title="Implementation of useful range actions.">
<polygon fill="none" stroke="black" points="721.5,-156.5 721.5,-197.5 866.5,-197.5 866.5,-156.5 721.5,-156.5"/>
<text text-anchor="start" x="729.5" y="-185.5" font-family="Helvetica,sans-Serif" font-size="10.00">/home/runner/work/beluga</text>
<text text-anchor="start" x="729.5" y="-174.5" font-family="Helvetica,sans-Serif" font-size="10.00">/beluga/beluga/include</text>
<text text-anchor="middle" x="794" y="-163.5" font-family="Helvetica,sans-Serif" font-size="10.00">/beluga/actions.hpp</text>
</a>
</g>
</g>
<!-- Node6&#45;&gt;Node7 -->
<g id="edge6" class="edge">
<title>Node6&#45;&gt;Node7</title>
<path fill="none" stroke="midnightblue" d="M709.74,-320.24C730.27,-285.58 764.54,-227.72 782.39,-197.59"/>
<polygon fill="midnightblue" stroke="midnightblue" points="706.67,-318.55 704.59,-328.94 712.69,-322.12 706.67,-318.55"/>
</g>
<!-- Node7&#45;&gt;Node3 -->
<g id="edge7" class="edge">
<title>Node7&#45;&gt;Node3</title>
<path fill="none" stroke="midnightblue" d="M869.69,-153.44C905.88,-142.66 948.79,-129.87 983.55,-119.51"/>
<polygon fill="midnightblue" stroke="midnightblue" points="868.25,-150.22 859.67,-156.43 870.25,-156.93 868.25,-150.22"/>
</g>
<!-- Node8&#45;&gt;Node7 -->
<g id="edge9" class="edge">
<title>Node8&#45;&gt;Node7</title>
<path fill="none" stroke="midnightblue" d="M861.36,-319.8C844.87,-285.09 817.56,-227.6 803.31,-197.59"/>
<polygon fill="midnightblue" stroke="midnightblue" points="858.26,-321.41 865.71,-328.94 864.58,-318.41 858.26,-321.41"/>
</g>
<!-- Node9&#45;&gt;Node7 -->
<g id="edge11" class="edge">
<title>Node9&#45;&gt;Node7</title>
<path fill="none" stroke="midnightblue" d="M589.39,-237.13C632.34,-224.72 685.26,-209.43 726.52,-197.5"/>
<polygon fill="midnightblue" stroke="midnightblue" points="588.18,-233.84 579.55,-239.98 590.12,-240.56 588.18,-233.84"/>
</g>
<!-- Node11 -->
<g id="node11" class="node">
<title>Node11</title>
<g id="a_node11"><a xlink:href="algorithm_8hpp.html" target="_top" xlink:title="Includes all beluga algorithms.">
<polygon fill="none" stroke="black" points="976.5,-240 976.5,-281 1121.5,-281 1121.5,-240 976.5,-240"/>
<text text-anchor="start" x="984.5" y="-269" font-family="Helvetica,sans-Serif" font-size="10.00">/home/runner/work/beluga</text>
<text text-anchor="start" x="984.5" y="-258" font-family="Helvetica,sans-Serif" font-size="10.00">/beluga/beluga/include</text>
<text text-anchor="middle" x="1049" y="-247" font-family="Helvetica,sans-Serif" font-size="10.00">/beluga/algorithm.hpp</text>
</a>
</g>
</g>
<!-- Node10&#45;&gt;Node11 -->
<g id="edge13" class="edge">
<title>Node10&#45;&gt;Node11</title>
<path fill="none" stroke="midnightblue" d="M1218.03,-320.09C1181.26,-307.34 1138.81,-292.63 1105.64,-281.13"/>
<polygon fill="midnightblue" stroke="midnightblue" points="1217.14,-323.48 1227.74,-323.45 1219.43,-316.87 1217.14,-323.48"/>
</g>
<!-- Node12 -->
<g id="node12" class="node">
<title>Node12</title>
<g id="a_node12"><a xlink:href="on__effective__size__drop_8hpp.html" target="_top" xlink:title="Defines a policy for triggering an action based on the Effective Sample Size (ESS) metric.">
<polygon fill="none" stroke="black" points="1140,-234.5 1140,-286.5 1296,-286.5 1296,-234.5 1140,-234.5"/>
<text text-anchor="start" x="1148" y="-274.5" font-family="Helvetica,sans-Serif" font-size="10.00">/home/runner/work/beluga</text>
<text text-anchor="start" x="1148" y="-263.5" font-family="Helvetica,sans-Serif" font-size="10.00">/beluga/beluga/include</text>
<text text-anchor="start" x="1148" y="-252.5" font-family="Helvetica,sans-Serif" font-size="10.00">/beluga/policies/on_effective</text>
<text text-anchor="middle" x="1218" y="-241.5" font-family="Helvetica,sans-Serif" font-size="10.00">_size_drop.hpp</text>
</a>
</g>
</g>
<!-- Node10&#45;&gt;Node12 -->
<g id="edge15" class="edge">
<title>Node10&#45;&gt;Node12</title>
<path fill="none" stroke="midnightblue" d="M1269.17,-315.79C1260.06,-306.13 1250.24,-295.71 1241.66,-286.61"/>
<polygon fill="midnightblue" stroke="midnightblue" points="1266.88,-318.46 1276.28,-323.34 1271.97,-313.66 1266.88,-318.46"/>
</g>
<!-- Node11&#45;&gt;Node3 -->
<g id="edge14" class="edge">
<title>Node11&#45;&gt;Node3</title>
<path fill="none" stroke="midnightblue" d="M1049,-229.8C1049,-197.66 1049,-147.31 1049,-119.72"/>
<polygon fill="midnightblue" stroke="midnightblue" points="1045.5,-229.94 1049,-239.94 1052.5,-229.94 1045.5,-229.94"/>
</g>
<!-- Node13 -->
<g id="node13" class="node">
<title>Node13</title>
<g id="a_node13"><a xlink:href="policies_8hpp.html" target="_top" xlink:title="Implementation of useful policies.">
<polygon fill="none" stroke="black" points="1111.5,-156.5 1111.5,-197.5 1256.5,-197.5 1256.5,-156.5 1111.5,-156.5"/>
<text text-anchor="start" x="1119.5" y="-185.5" font-family="Helvetica,sans-Serif" font-size="10.00">/home/runner/work/beluga</text>
<text text-anchor="start" x="1119.5" y="-174.5" font-family="Helvetica,sans-Serif" font-size="10.00">/beluga/beluga/include</text>
<text text-anchor="middle" x="1184" y="-163.5" font-family="Helvetica,sans-Serif" font-size="10.00">/beluga/policies.hpp</text>
</a>
</g>
</g>
<!-- Node12&#45;&gt;Node13 -->
<g id="edge16" class="edge">
<title>Node12&#45;&gt;Node13</title>
<path fill="none" stroke="midnightblue" d="M1203.5,-224.73C1199.63,-215.46 1195.58,-205.77 1192.19,-197.63"/>
<polygon fill="midnightblue" stroke="midnightblue" points="1200.35,-226.28 1207.43,-234.16 1206.81,-223.58 1200.35,-226.28"/>
</g>
<!-- Node13&#45;&gt;Node3 -->
<g id="edge17" class="edge">
<title>Node13&#45;&gt;Node3</title>
<path fill="none" stroke="midnightblue" d="M1140.45,-151.49C1122.07,-141.13 1100.95,-129.25 1083.65,-119.51"/>
<polygon fill="midnightblue" stroke="midnightblue" points="1138.8,-154.57 1149.23,-156.43 1142.24,-148.47 1138.8,-154.57"/>
</g>
<!-- Node14&#45;&gt;Node11 -->
<g id="edge19" class="edge">
<title>Node14&#45;&gt;Node11</title>
<path fill="none" stroke="midnightblue" d="M1063.34,-313.49C1060.3,-302.45 1057.04,-290.65 1054.4,-281.08"/>
<polygon fill="midnightblue" stroke="midnightblue" points="1060.02,-314.63 1066.06,-323.34 1066.77,-312.77 1060.02,-314.63"/>
</g>
<!-- Node15&#45;&gt;Node3 -->
<g id="edge21" class="edge">
<title>Node15&#45;&gt;Node3</title>
<path fill="none" stroke="midnightblue" d="M1473.12,-319.09C1483.01,-276.01 1493.28,-196.49 1448,-156 1401.14,-114.09 1223.37,-103.43 1121.63,-100.79"/>
<polygon fill="midnightblue" stroke="midnightblue" points="1469.68,-318.41 1470.71,-328.96 1476.48,-320.07 1469.68,-318.41"/>
</g>
<!-- Node16 -->
<g id="node16" class="node">
<title>Node16</title>
<g id="a_node16"><a xlink:href="tuple__vector_8hpp.html" target="_top" xlink:title="Implementation of a tuple of containers.">
<polygon fill="none" stroke="black" points="1314.5,-234.5 1314.5,-286.5 1459.5,-286.5 1459.5,-234.5 1314.5,-234.5"/>
<text text-anchor="start" x="1322.5" y="-274.5" font-family="Helvetica,sans-Serif" font-size="10.00">/home/runner/work/beluga</text>
<text text-anchor="start" x="1322.5" y="-263.5" font-family="Helvetica,sans-Serif" font-size="10.00">/beluga/beluga/include</text>
<text text-anchor="start" x="1322.5" y="-252.5" font-family="Helvetica,sans-Serif" font-size="10.00">/beluga/containers/tuple</text>
<text text-anchor="middle" x="1387" y="-241.5" font-family="Helvetica,sans-Serif" font-size="10.00">_vector.hpp</text>
</a>
</g>
</g>
<!-- Node15&#45;&gt;Node16 -->
<g id="edge22" class="edge">
<title>Node15&#45;&gt;Node16</title>
<path fill="none" stroke="midnightblue" d="M1440.43,-321.09C1430.59,-310.12 1419.32,-297.55 1409.67,-286.79"/>
<polygon fill="midnightblue" stroke="midnightblue" points="1438.02,-323.65 1447.3,-328.76 1443.23,-318.98 1438.02,-323.65"/>
</g>
<!-- Node17 -->
<g id="node17" class="node">
<title>Node17</title>
<g id="a_node17"><a xlink:href="containers_8hpp.html" target="_top" xlink:title="Implementation of efficient containers.">
<polygon fill="none" stroke="black" points="1294.5,-156.5 1294.5,-197.5 1439.5,-197.5 1439.5,-156.5 1294.5,-156.5"/>
<text text-anchor="start" x="1302.5" y="-185.5" font-family="Helvetica,sans-Serif" font-size="10.00">/home/runner/work/beluga</text>
<text text-anchor="start" x="1302.5" y="-174.5" font-family="Helvetica,sans-Serif" font-size="10.00">/beluga/beluga/include</text>
<text text-anchor="middle" x="1367" y="-163.5" font-family="Helvetica,sans-Serif" font-size="10.00">/beluga/containers.hpp</text>
</a>
</g>
</g>
<!-- Node16&#45;&gt;Node17 -->
<g id="edge23" class="edge">
<title>Node16&#45;&gt;Node17</title>
<path fill="none" stroke="midnightblue" d="M1378.4,-224.44C1376.14,-215.26 1373.79,-205.68 1371.82,-197.63"/>
<polygon fill="midnightblue" stroke="midnightblue" points="1375,-225.28 1380.78,-234.16 1381.8,-223.61 1375,-225.28"/>
</g>
<!-- Node17&#45;&gt;Node3 -->
<g id="edge24" class="edge">
<title>Node17&#45;&gt;Node3</title>
<path fill="none" stroke="midnightblue" d="M1284.54,-156.29C1234.06,-144.23 1170.06,-128.93 1121.52,-117.33"/>
<polygon fill="midnightblue" stroke="midnightblue" points="1283.9,-159.74 1294.44,-158.66 1285.53,-152.93 1283.9,-159.74"/>
</g>
<!-- Node19 -->
<g id="node19" class="node">
<title>Node19</title>
<g id="a_node19"><a xlink:href="views_8hpp.html" target="_top" xlink:title="Implementation of useful container views.">
<polygon fill="none" stroke="black" points="237.5,-240 237.5,-281 382.5,-281 382.5,-240 237.5,-240"/>
<text text-anchor="start" x="245.5" y="-269" font-family="Helvetica,sans-Serif" font-size="10.00">/home/runner/work/beluga</text>
<text text-anchor="start" x="245.5" y="-258" font-family="Helvetica,sans-Serif" font-size="10.00">/beluga/beluga/include</text>
<text text-anchor="middle" x="310" y="-247" font-family="Helvetica,sans-Serif" font-size="10.00">/beluga/views.hpp</text>
</a>
</g>
</g>
<!-- Node18&#45;&gt;Node19 -->
<g id="edge26" class="edge">
<title>Node18&#45;&gt;Node19</title>
<path fill="none" stroke="midnightblue" d="M186.56,-324.3C213.33,-310.68 246.32,-293.9 271.46,-281.11"/>
<polygon fill="midnightblue" stroke="midnightblue" points="184.7,-321.32 177.38,-328.98 187.88,-327.56 184.7,-321.32"/>
</g>
<!-- Node19&#45;&gt;Node3 -->
<g id="edge27" class="edge">
<title>Node19&#45;&gt;Node3</title>
<path fill="none" stroke="midnightblue" d="M388.29,-237.18C468.96,-214.69 598.57,-179.98 712,-156 802.52,-136.86 907.86,-120.26 976.34,-110.2"/>
<polygon fill="midnightblue" stroke="midnightblue" points="386.9,-233.93 378.21,-240 388.79,-240.67 386.9,-233.93"/>
</g>
<!-- Node20&#45;&gt;Node19 -->
<g id="edge29" class="edge">
<title>Node20&#45;&gt;Node19</title>
<path fill="none" stroke="midnightblue" d="M450.24,-319.6C419.75,-306.97 384.78,-292.48 357.39,-281.13"/>
<polygon fill="midnightblue" stroke="midnightblue" points="448.96,-322.86 459.54,-323.45 451.64,-316.39 448.96,-322.86"/>
</g>
<!-- Node21&#45;&gt;Node6 -->
<g id="edge31" class="edge">
<title>Node21&#45;&gt;Node6</title>
<path fill="none" stroke="midnightblue" d="M595.2,-412.61C616.36,-399.17 642.12,-382.81 661.88,-370.26"/>
<polygon fill="midnightblue" stroke="midnightblue" points="593.31,-409.66 586.75,-417.98 597.06,-415.57 593.31,-409.66"/>
</g>
<!-- Node21&#45;&gt;Node8 -->
<g id="edge32" class="edge">
<title>Node21&#45;&gt;Node8</title>
<path fill="none" stroke="midnightblue" d="M639.11,-415.29C682.35,-403.68 736.05,-389.19 784,-376 790.96,-374.09 798.22,-372.08 805.46,-370.06"/>
<polygon fill="midnightblue" stroke="midnightblue" points="637.96,-411.98 629.21,-417.95 639.78,-418.74 637.96,-411.98"/>
</g>
<!-- Node21&#45;&gt;Node9 -->
<g id="edge33" class="edge">
<title>Node21&#45;&gt;Node9</title>
<path fill="none" stroke="midnightblue" d="M480.08,-413.28C463.4,-404.28 447.8,-392.17 438,-376 425.78,-355.86 427.99,-344.33 438,-323 446.16,-305.61 461.92,-291.43 476.81,-281.09"/>
<polygon fill="midnightblue" stroke="midnightblue" points="478.93,-416.62 489.43,-417.97 482.06,-410.36 478.93,-416.62"/>
</g>
<!-- Node21&#45;&gt;Node10 -->
<g id="edge34" class="edge">
<title>Node21&#45;&gt;Node10</title>
<path fill="none" stroke="midnightblue" d="M641.15,-427.99C686.01,-423.06 741.97,-417.03 792,-412 963.88,-394.72 1008.2,-401.85 1179,-376 1194.07,-373.72 1210.09,-370.74 1225.37,-367.63"/>
<polygon fill="midnightblue" stroke="midnightblue" points="640.72,-424.52 631.17,-429.09 641.49,-431.47 640.72,-424.52"/>
</g>
<!-- Node21&#45;&gt;Node14 -->
<g id="edge35" class="edge">
<title>Node21&#45;&gt;Node14</title>
<path fill="none" stroke="midnightblue" d="M641.3,-426.86C724.49,-415.97 854.41,-397.62 966,-376 969.09,-375.4 972.23,-374.77 975.4,-374.12"/>
<polygon fill="midnightblue" stroke="midnightblue" points="640.61,-423.42 631.14,-428.18 641.51,-430.36 640.61,-423.42"/>
</g>
<!-- Node21&#45;&gt;Node18 -->
<g id="edge39" class="edge">
<title>Node21&#45;&gt;Node18</title>
<path fill="none" stroke="midnightblue" d="M470.42,-424.84C402.15,-414.02 304.31,-396.9 220,-376 212.85,-374.23 205.4,-372.17 198.04,-370.02"/>
<polygon fill="midnightblue" stroke="midnightblue" points="470.28,-428.36 480.7,-426.46 471.37,-421.44 470.28,-428.36"/>
</g>
<!-- Node21&#45;&gt;Node19 -->
<g id="edge40" class="edge">
<title>Node21&#45;&gt;Node19</title>
<path fill="none" stroke="midnightblue" d="M470.57,-433.04C335.2,-425.1 83.89,-406.41 57,-376 41.4,-358.35 42.44,-341.52 57,-323 79.14,-294.84 170.85,-277.97 237.49,-269.21"/>
<polygon fill="midnightblue" stroke="midnightblue" points="470.72,-436.56 480.91,-433.64 471.13,-429.57 470.72,-436.56"/>
</g>
<!-- Node22 -->
<g id="node22" class="node">
<title>Node22</title>
<g id="a_node22"><a xlink:href="likelihoods_8hpp.html" target="_top" xlink:title="Implementation of the likelihoods range adaptor object.">
<polygon fill="none" stroke="black" points="229.5,-329 229.5,-370 390.5,-370 390.5,-329 229.5,-329"/>
<text text-anchor="start" x="237.5" y="-358" font-family="Helvetica,sans-Serif" font-size="10.00">/home/runner/work/beluga</text>
<text text-anchor="start" x="237.5" y="-347" font-family="Helvetica,sans-Serif" font-size="10.00">/beluga/beluga/include</text>
<text text-anchor="middle" x="310" y="-336" font-family="Helvetica,sans-Serif" font-size="10.00">/beluga/views/likelihoods.hpp</text>
</a>
</g>
</g>
<!-- Node21&#45;&gt;Node22 -->
<g id="edge36" class="edge">
<title>Node21&#45;&gt;Node22</title>
<path fill="none" stroke="midnightblue" d="M491.08,-414.54C451.98,-400.71 402.72,-383.29 365.45,-370.11"/>
<polygon fill="midnightblue" stroke="midnightblue" points="490.2,-417.94 500.79,-417.98 492.53,-411.34 490.2,-417.94"/>
</g>
<!-- Node22&#45;&gt;Node9 -->
<g id="edge37" class="edge">
<title>Node22&#45;&gt;Node9</title>
<path fill="none" stroke="midnightblue" d="M364.53,-325.01C396.44,-311.27 436.25,-294.12 466.47,-281.11"/>
<polygon fill="midnightblue" stroke="midnightblue" points="363.13,-321.81 355.33,-328.98 365.9,-328.23 363.13,-321.81"/>
</g>
<!-- Node22&#45;&gt;Node19 -->
<g id="edge38" class="edge">
<title>Node22&#45;&gt;Node19</title>
<path fill="none" stroke="midnightblue" d="M310,-318.44C310,-306.1 310,-292.16 310,-281.16"/>
<polygon fill="midnightblue" stroke="midnightblue" points="306.5,-318.76 310,-328.76 313.5,-318.76 306.5,-318.76"/>
</g>
</g>
</svg>
        <g id="navigator" transform="translate(0 0)" fill="#404254">
                <rect fill="#f2f5e9" fill-opacity="0.5" stroke="#606060" stroke-width=".5" x="0" y="0" width="60" height="60"/>
                <use id="zoomplus" xlink:href="#zoomPlus" x="17" y="9" onmousedown="handleZoom(evt,'in')"/>
                <use id="zoomminus" xlink:href="#zoomMin" x="42" y="9" onmousedown="handleZoom(evt,'out')"/>
                <use id="reset" xlink:href="#resetDef" x="30" y="36" onmousedown="handleReset()"/>
                <g id="arrowUp" xlink:href="#dirArrow" transform="translate(30 24)" onmousedown="handlePan(0,-1)">
                  <use xlink:href="#rim" fill="#404040">
                        <set attributeName="fill" to="#808080" begin="arrowUp.mouseover" end="arrowUp.mouseout"/>
                  </use>
                  <path fill="none" stroke="white" stroke-width="1.5" d="M0,-3.0v7 M-2.5,-0.5L0,-3.0L2.5,-0.5"/>
                </g>
                <g id="arrowRight" xlink:href="#dirArrow" transform="rotate(90) translate(36 -43)" onmousedown="handlePan(1,0)">
                  <use xlink:href="#rim" fill="#404040">
                        <set attributeName="fill" to="#808080" begin="arrowRight.mouseover" end="arrowRight.mouseout"/>
                  </use>
                  <path fill="none" stroke="white" stroke-width="1.5" d="M0,-3.0v7 M-2.5,-0.5L0,-3.0L2.5,-0.5"/>
                </g>
                <g id="arrowDown" xlink:href="#dirArrow" transform="rotate(180) translate(-30 -48)" onmousedown="handlePan(0,1)">
                  <use xlink:href="#rim" fill="#404040">
                        <set attributeName="fill" to="#808080" begin="arrowDown.mouseover" end="arrowDown.mouseout"/>
                  </use>
                  <path fill="none" stroke="white" stroke-width="1.5" d="M0,-3.0v7 M-2.5,-0.5L0,-3.0L2.5,-0.5"/>
                </g>
                <g id="arrowLeft" xlink:href="#dirArrow" transform="rotate(270) translate(-36 17)" onmousedown="handlePan(-1,0)">
                  <use xlink:href="#rim" fill="#404040">
                        <set attributeName="fill" to="#808080" begin="arrowLeft.mouseover" end="arrowLeft.mouseout"/>
                  </use>
                  <path fill="none" stroke="white" stroke-width="1.5" d="M0,-3.0v7 M-2.5,-0.5L0,-3.0L2.5,-0.5"/>
                </g>
        </g>
        <svg viewBox="0 0 15 15" width="100%" height="30px" preserveAspectRatio="xMaxYMin meet">
         <g id="arrow_out" transform="scale(0.3 0.3)">
          <a xlink:href="strongly__typed__numeric_8hpp__dep__incl_org.svg" target="_base">
           <rect id="button" ry="5" rx="5" y="6" x="6" height="38" width="38"
                fill="#f2f5e9" fill-opacity="0.5" stroke="#606060" stroke-width="1.0"/>
           <path id="arrow"
             d="M 11.500037,31.436501 C 11.940474,20.09759 22.043105,11.32322 32.158766,21.979434 L 37.068811,17.246167 C 37.068811,17.246167 37.088388,32 37.088388,32 L 22.160133,31.978069 C 22.160133,31.978069 26.997745,27.140456 26.997745,27.140456 C 18.528582,18.264221 13.291696,25.230495 11.500037,31.436501 z"
             style="fill:#404040;"/>
          </a>
         </g>
        </svg>
</svg>
