<?xml version="1.0" encoding="UTF-8" standalone="no"?>
<!DOCTYPE svg PUBLIC "-//W3C//DTD SVG 1.1//EN"
 "http://www.w3.org/Graphics/SVG/1.1/DTD/svg11.dtd">
<!-- Generated by graphviz version 2.43.0 (0)
 -->
<!-- Title: /home/runner/work/beluga/beluga/beluga/include/beluga/type_traits/strongly_typed_numeric.hpp Pages: 1 -->
<svg width="1466pt" height="640pt"
 viewBox="0.00 0.00 1465.50 640.00" xmlns="http://www.w3.org/2000/svg" xmlns:xlink="http://www.w3.org/1999/xlink">
<g id="graph0" class="graph" transform="scale(1 1) rotate(0) translate(4 636)">
<title>/home/runner/work/beluga/beluga/beluga/include/beluga/type_traits/strongly_typed_numeric.hpp</title>
<!-- Node1 -->
<g id="node1" class="node">
<title>Node1</title>
<g id="a_node1"><a xlink:title="Implementation of a strongly typed numeric helper.">
<polygon fill="#bfbfbf" stroke="black" points="509.5,-579.5 509.5,-631.5 660.5,-631.5 660.5,-579.5 509.5,-579.5"/>
<text text-anchor="start" x="517.5" y="-619.5" font-family="Helvetica,sans-Serif" font-size="10.00">/home/runner/work/beluga</text>
<text text-anchor="start" x="517.5" y="-608.5" font-family="Helvetica,sans-Serif" font-size="10.00">/beluga/beluga/include</text>
<text text-anchor="start" x="517.5" y="-597.5" font-family="Helvetica,sans-Serif" font-size="10.00">/beluga/type_traits/strongly</text>
<text text-anchor="middle" x="585" y="-586.5" font-family="Helvetica,sans-Serif" font-size="10.00">_typed_numeric.hpp</text>
</a>
</g>
</g>
<!-- Node2 -->
<g id="node2" class="node">
<title>Node2</title>
<g id="a_node2"><a xlink:href="primitives_8hpp.html" target="_top" xlink:title="Implementation of library primitives to abstract member access.">
<polygon fill="none" stroke="black" points="512.5,-501.5 512.5,-542.5 657.5,-542.5 657.5,-501.5 512.5,-501.5"/>
<text text-anchor="start" x="520.5" y="-530.5" font-family="Helvetica,sans-Serif" font-size="10.00">/home/runner/work/beluga</text>
<text text-anchor="start" x="520.5" y="-519.5" font-family="Helvetica,sans-Serif" font-size="10.00">/beluga/beluga/include</text>
<text text-anchor="middle" x="585" y="-508.5" font-family="Helvetica,sans-Serif" font-size="10.00">/beluga/primitives.hpp</text>
</a>
</g>
</g>
<!-- Node1&#45;&gt;Node2 -->
<g id="edge1" class="edge">
<title>Node1&#45;&gt;Node2</title>
<path fill="none" stroke="midnightblue" d="M585,-569.15C585,-560.05 585,-550.6 585,-542.63"/>
<polygon fill="midnightblue" stroke="midnightblue" points="581.5,-569.16 585,-579.16 588.5,-569.16 581.5,-569.16"/>
</g>
<!-- Node3 -->
<g id="node3" class="node">
<title>Node3</title>
<g id="a_node3"><a xlink:href="beluga_8hpp.html" target="_top" xlink:title="Includes all the Beluga API.">
<polygon fill="none" stroke="black" points="596.5,-78.5 596.5,-119.5 741.5,-119.5 741.5,-78.5 596.5,-78.5"/>
<text text-anchor="start" x="604.5" y="-107.5" font-family="Helvetica,sans-Serif" font-size="10.00">/home/runner/work/beluga</text>
<text text-anchor="start" x="604.5" y="-96.5" font-family="Helvetica,sans-Serif" font-size="10.00">/beluga/beluga/include</text>
<text text-anchor="middle" x="669" y="-85.5" font-family="Helvetica,sans-Serif" font-size="10.00">/beluga/beluga.hpp</text>
</a>
</g>
</g>
<!-- Node2&#45;&gt;Node3 -->
<g id="edge2" class="edge">
<title>Node2&#45;&gt;Node3</title>
<path fill="none" stroke="midnightblue" d="M502.02,-514.22C340.6,-498.74 0,-453.82 0,-350.5 0,-350.5 0,-350.5 0,-259.5 0,-231.39 8.02,-204.99 137,-156 219.15,-124.8 470.58,-109.12 596.11,-103.07"/>
<polygon fill="midnightblue" stroke="midnightblue" points="502.1,-517.74 512.39,-515.2 502.76,-510.77 502.1,-517.74"/>
</g>
<!-- Node5 -->
<g id="node5" class="node">
<title>Node5</title>
<g id="a_node5"><a xlink:href="particle__traits_8hpp.html" target="_top" xlink:title="Implementation of traits for particle types, see the Particle named requirements.">
<polygon fill="none" stroke="black" points="678,-412.5 678,-464.5 826,-464.5 826,-412.5 678,-412.5"/>
<text text-anchor="start" x="686" y="-452.5" font-family="Helvetica,sans-Serif" font-size="10.00">/home/runner/work/beluga</text>
<text text-anchor="start" x="686" y="-441.5" font-family="Helvetica,sans-Serif" font-size="10.00">/beluga/beluga/include</text>
<text text-anchor="start" x="686" y="-430.5" font-family="Helvetica,sans-Serif" font-size="10.00">/beluga/type_traits/particle</text>
<text text-anchor="middle" x="752" y="-419.5" font-family="Helvetica,sans-Serif" font-size="10.00">_traits.hpp</text>
</a>
</g>
</g>
<!-- Node2&#45;&gt;Node5 -->
<g id="edge4" class="edge">
<title>Node2&#45;&gt;Node5</title>
<path fill="none" stroke="midnightblue" d="M634.04,-497.07C654.98,-486.85 679.43,-474.92 700.62,-464.58"/>
<polygon fill="midnightblue" stroke="midnightblue" points="632.45,-493.95 625,-501.48 635.52,-500.24 632.45,-493.95"/>
</g>
<!-- Node21 -->
<g id="node21" class="node">
<title>Node21</title>
<g id="a_node21"><a xlink:href="particles_8hpp.html" target="_top" xlink:title="Implementation of views related to particle ranges.">
<polygon fill="none" stroke="black" points="510,-418 510,-459 660,-459 660,-418 510,-418"/>
<text text-anchor="start" x="518" y="-447" font-family="Helvetica,sans-Serif" font-size="10.00">/home/runner/work/beluga</text>
<text text-anchor="start" x="518" y="-436" font-family="Helvetica,sans-Serif" font-size="10.00">/beluga/beluga/include</text>
<text text-anchor="middle" x="585" y="-425" font-family="Helvetica,sans-Serif" font-size="10.00">/beluga/views/particles.hpp</text>
</a>
</g>
</g>
<!-- Node2&#45;&gt;Node21 -->
<g id="edge30" class="edge">
<title>Node2&#45;&gt;Node21</title>
<path fill="none" stroke="midnightblue" d="M585,-491.06C585,-480.38 585,-468.63 585,-459.05"/>
<polygon fill="midnightblue" stroke="midnightblue" points="581.5,-491.27 585,-501.27 588.5,-491.27 581.5,-491.27"/>
</g>
<!-- Node4 -->
<g id="node4" class="node">
<title>Node4</title>
<g id="a_node4"><a xlink:href="amcl__core_8hpp_source.html" target="_top" xlink:title=" ">
<polygon fill="none" stroke="black" points="580.5,-0.5 580.5,-41.5 757.5,-41.5 757.5,-0.5 580.5,-0.5"/>
<text text-anchor="start" x="588.5" y="-29.5" font-family="Helvetica,sans-Serif" font-size="10.00">/home/runner/work/beluga</text>
<text text-anchor="start" x="588.5" y="-18.5" font-family="Helvetica,sans-Serif" font-size="10.00">/beluga/beluga/include</text>
<text text-anchor="middle" x="669" y="-7.5" font-family="Helvetica,sans-Serif" font-size="10.00">/beluga/algorithm/amcl_core.hpp</text>
</a>
</g>
</g>
<!-- Node3&#45;&gt;Node4 -->
<g id="edge3" class="edge">
<title>Node3&#45;&gt;Node4</title>
<path fill="none" stroke="midnightblue" d="M669,-68.3C669,-59.3 669,-49.65 669,-41.51"/>
<polygon fill="midnightblue" stroke="midnightblue" points="665.5,-68.43 669,-78.43 672.5,-68.43 665.5,-68.43"/>
</g>
<!-- Node6 -->
<g id="node6" class="node">
<title>Node6</title>
<g id="a_node6"><a xlink:href="normalize_8hpp.html" target="_top" xlink:title="Implementation of the normalize range adaptor object.">
<polygon fill="none" stroke="black" points="804,-329 804,-370 968,-370 968,-329 804,-329"/>
<text text-anchor="start" x="812" y="-358" font-family="Helvetica,sans-Serif" font-size="10.00">/home/runner/work/beluga</text>
<text text-anchor="start" x="812" y="-347" font-family="Helvetica,sans-Serif" font-size="10.00">/beluga/beluga/include</text>
<text text-anchor="middle" x="886" y="-336" font-family="Helvetica,sans-Serif" font-size="10.00">/beluga/actions/normalize.hpp</text>
</a>
</g>
</g>
<!-- Node5&#45;&gt;Node6 -->
<g id="edge5" class="edge">
<title>Node5&#45;&gt;Node6</title>
<path fill="none" stroke="midnightblue" d="M799.22,-406.84C818.04,-394.62 839.15,-380.92 855.84,-370.08"/>
<polygon fill="midnightblue" stroke="midnightblue" points="797.24,-403.95 790.76,-412.34 801.05,-409.83 797.24,-403.95"/>
</g>
<!-- Node8 -->
<g id="node8" class="node">
<title>Node8</title>
<g id="a_node8"><a xlink:href="propagate_8hpp.html" target="_top" xlink:title="Implementation of the propagate range adaptor object.">
<polygon fill="none" stroke="black" points="408,-329 408,-370 572,-370 572,-329 408,-329"/>
<text text-anchor="start" x="416" y="-358" font-family="Helvetica,sans-Serif" font-size="10.00">/home/runner/work/beluga</text>
<text text-anchor="start" x="416" y="-347" font-family="Helvetica,sans-Serif" font-size="10.00">/beluga/beluga/include</text>
<text text-anchor="middle" x="490" y="-336" font-family="Helvetica,sans-Serif" font-size="10.00">/beluga/actions/propagate.hpp</text>
</a>
</g>
</g>
<!-- Node5&#45;&gt;Node8 -->
<g id="edge8" class="edge">
<title>Node5&#45;&gt;Node8</title>
<path fill="none" stroke="midnightblue" d="M668.24,-409.69C629.37,-396.78 584.09,-381.74 548.9,-370.06"/>
<polygon fill="midnightblue" stroke="midnightblue" points="667.38,-413.09 677.97,-412.92 669.58,-406.45 667.38,-413.09"/>
</g>
<!-- Node9 -->
<g id="node9" class="node">
<title>Node9</title>
<g id="a_node9"><a xlink:href="reweight_8hpp.html" target="_top" xlink:title="Implementation of the reweight range adaptor object.">
<polygon fill="none" stroke="black" points="590,-329 590,-370 748,-370 748,-329 590,-329"/>
<text text-anchor="start" x="598" y="-358" font-family="Helvetica,sans-Serif" font-size="10.00">/home/runner/work/beluga</text>
<text text-anchor="start" x="598" y="-347" font-family="Helvetica,sans-Serif" font-size="10.00">/beluga/beluga/include</text>
<text text-anchor="middle" x="669" y="-336" font-family="Helvetica,sans-Serif" font-size="10.00">/beluga/actions/reweight.hpp</text>
</a>
</g>
</g>
<!-- Node5&#45;&gt;Node9 -->
<g id="edge10" class="edge">
<title>Node5&#45;&gt;Node9</title>
<path fill="none" stroke="midnightblue" d="M720.85,-404.85C709.69,-393.15 697.46,-380.33 687.68,-370.08"/>
<polygon fill="midnightblue" stroke="midnightblue" points="718.56,-407.52 727.99,-412.34 723.62,-402.68 718.56,-407.52"/>
</g>
<!-- Node10 -->
<g id="node10" class="node">
<title>Node10</title>
<g id="a_node10"><a xlink:href="effective__sample__size_8hpp.html" target="_top" xlink:title="Implementation of an algorithm to calculate the effective sample size (ESS).">
<polygon fill="none" stroke="black" points="27.5,-323.5 27.5,-375.5 176.5,-375.5 176.5,-323.5 27.5,-323.5"/>
<text text-anchor="start" x="35.5" y="-363.5" font-family="Helvetica,sans-Serif" font-size="10.00">/home/runner/work/beluga</text>
<text text-anchor="start" x="35.5" y="-352.5" font-family="Helvetica,sans-Serif" font-size="10.00">/beluga/beluga/include</text>
<text text-anchor="start" x="35.5" y="-341.5" font-family="Helvetica,sans-Serif" font-size="10.00">/beluga/algorithm/effective</text>
<text text-anchor="middle" x="102" y="-330.5" font-family="Helvetica,sans-Serif" font-size="10.00">_sample_size.hpp</text>
</a>
</g>
</g>
<!-- Node5&#45;&gt;Node10 -->
<g id="edge12" class="edge">
<title>Node5&#45;&gt;Node10</title>
<path fill="none" stroke="midnightblue" d="M668.07,-412.03C455.17,-373.38 393.77,-415.32 185,-376 182.33,-375.5 179.63,-374.94 176.91,-374.34"/>
<polygon fill="midnightblue" stroke="midnightblue" points="667.52,-415.48 677.99,-413.87 668.8,-408.6 667.52,-415.48"/>
</g>
<!-- Node14 -->
<g id="node14" class="node">
<title>Node14</title>
<g id="a_node14"><a xlink:href="thrun__recovery__probability__estimator_8hpp_source.html" target="_top" xlink:title=" ">
<polygon fill="none" stroke="black" points="194.5,-323.5 194.5,-375.5 389.5,-375.5 389.5,-323.5 194.5,-323.5"/>
<text text-anchor="start" x="202.5" y="-363.5" font-family="Helvetica,sans-Serif" font-size="10.00">/home/runner/work/beluga</text>
<text text-anchor="start" x="202.5" y="-352.5" font-family="Helvetica,sans-Serif" font-size="10.00">/beluga/beluga/include</text>
<text text-anchor="start" x="202.5" y="-341.5" font-family="Helvetica,sans-Serif" font-size="10.00">/beluga/algorithm/thrun</text>
<text text-anchor="middle" x="292" y="-330.5" font-family="Helvetica,sans-Serif" font-size="10.00">_recovery_probability_estimator.hpp</text>
</a>
</g>
</g>
<!-- Node5&#45;&gt;Node14 -->
<g id="edge18" class="edge">
<title>Node5&#45;&gt;Node14</title>
<path fill="none" stroke="midnightblue" d="M668.08,-411.96C548.95,-386.74 514.9,-397.48 399,-376 395.9,-375.43 392.76,-374.82 389.59,-374.19"/>
<polygon fill="midnightblue" stroke="midnightblue" points="667.44,-415.4 677.95,-414.08 668.91,-408.55 667.44,-415.4"/>
</g>
<!-- Node15 -->
<g id="node15" class="node">
<title>Node15</title>
<g id="a_node15"><a xlink:href="type__traits_8hpp.html" target="_top" xlink:title="Includes all Beluga type traits.">
<polygon fill="none" stroke="black" points="1312.5,-329 1312.5,-370 1457.5,-370 1457.5,-329 1312.5,-329"/>
<text text-anchor="start" x="1320.5" y="-358" font-family="Helvetica,sans-Serif" font-size="10.00">/home/runner/work/beluga</text>
<text text-anchor="start" x="1320.5" y="-347" font-family="Helvetica,sans-Serif" font-size="10.00">/beluga/beluga/include</text>
<text text-anchor="middle" x="1385" y="-336" font-family="Helvetica,sans-Serif" font-size="10.00">/beluga/type_traits.hpp</text>
</a>
</g>
</g>
<!-- Node5&#45;&gt;Node15 -->
<g id="edge20" class="edge">
<title>Node5&#45;&gt;Node15</title>
<path fill="none" stroke="midnightblue" d="M836.67,-433.18C945.7,-426.45 1140.62,-410.48 1304,-376 1311.79,-374.36 1319.9,-372.27 1327.84,-370"/>
<polygon fill="midnightblue" stroke="midnightblue" points="836.16,-429.7 826.39,-433.8 836.58,-436.69 836.16,-429.7"/>
</g>
<!-- Node18 -->
<g id="node18" class="node">
<title>Node18</title>
<g id="a_node18"><a xlink:href="sample_8hpp.html" target="_top" xlink:title="Implementation of a sample (with replacement) range adaptor object.">
<polygon fill="none" stroke="black" points="986.5,-329 986.5,-370 1131.5,-370 1131.5,-329 986.5,-329"/>
<text text-anchor="start" x="994.5" y="-358" font-family="Helvetica,sans-Serif" font-size="10.00">/home/runner/work/beluga</text>
<text text-anchor="start" x="994.5" y="-347" font-family="Helvetica,sans-Serif" font-size="10.00">/beluga/beluga/include</text>
<text text-anchor="middle" x="1059" y="-336" font-family="Helvetica,sans-Serif" font-size="10.00">/beluga/views/sample.hpp</text>
</a>
</g>
</g>
<!-- Node5&#45;&gt;Node18 -->
<g id="edge25" class="edge">
<title>Node5&#45;&gt;Node18</title>
<path fill="none" stroke="midnightblue" d="M835.88,-415.31C878.28,-403.91 930.48,-389.59 977,-376 983.44,-374.12 990.15,-372.11 996.83,-370.08"/>
<polygon fill="midnightblue" stroke="midnightblue" points="834.91,-411.95 826.16,-417.92 836.72,-418.71 834.91,-411.95"/>
</g>
<!-- Node20 -->
<g id="node20" class="node">
<title>Node20</title>
<g id="a_node20"><a xlink:href="take__while__kld_8hpp.html" target="_top" xlink:title="Implementation of a take_while_kld range adaptor object.">
<polygon fill="none" stroke="black" points="1149.5,-323.5 1149.5,-375.5 1294.5,-375.5 1294.5,-323.5 1149.5,-323.5"/>
<text text-anchor="start" x="1157.5" y="-363.5" font-family="Helvetica,sans-Serif" font-size="10.00">/home/runner/work/beluga</text>
<text text-anchor="start" x="1157.5" y="-352.5" font-family="Helvetica,sans-Serif" font-size="10.00">/beluga/beluga/include</text>
<text text-anchor="start" x="1157.5" y="-341.5" font-family="Helvetica,sans-Serif" font-size="10.00">/beluga/views/take_while</text>
<text text-anchor="middle" x="1222" y="-330.5" font-family="Helvetica,sans-Serif" font-size="10.00">_kld.hpp</text>
</a>
</g>
</g>
<!-- Node5&#45;&gt;Node20 -->
<g id="edge28" class="edge">
<title>Node5&#45;&gt;Node20</title>
<path fill="none" stroke="midnightblue" d="M836.05,-427.87C915.31,-417.92 1037.12,-400.42 1141,-376 1143.73,-375.36 1146.5,-374.67 1149.28,-373.95"/>
<polygon fill="midnightblue" stroke="midnightblue" points="835.61,-424.39 826.12,-429.1 836.48,-431.34 835.61,-424.39"/>
</g>
<!-- Node7 -->
<g id="node7" class="node">
<title>Node7</title>
<g id="a_node7"><a xlink:href="actions_8hpp.html" target="_top" xlink:title="Implementation of useful range actions.">
<polygon fill="none" stroke="black" points="596.5,-240 596.5,-281 741.5,-281 741.5,-240 596.5,-240"/>
<text text-anchor="start" x="604.5" y="-269" font-family="Helvetica,sans-Serif" font-size="10.00">/home/runner/work/beluga</text>
<text text-anchor="start" x="604.5" y="-258" font-family="Helvetica,sans-Serif" font-size="10.00">/beluga/beluga/include</text>
<text text-anchor="middle" x="669" y="-247" font-family="Helvetica,sans-Serif" font-size="10.00">/beluga/actions.hpp</text>
</a>
</g>
</g>
<!-- Node6&#45;&gt;Node7 -->
<g id="edge6" class="edge">
<title>Node6&#45;&gt;Node7</title>
<path fill="none" stroke="midnightblue" d="M827.86,-325.19C793.51,-311.42 750.51,-294.18 717.91,-281.11"/>
<polygon fill="midnightblue" stroke="midnightblue" points="826.72,-328.5 837.3,-328.98 829.32,-322.01 826.72,-328.5"/>
</g>
<!-- Node7&#45;&gt;Node3 -->
<g id="edge7" class="edge">
<title>Node7&#45;&gt;Node3</title>
<path fill="none" stroke="midnightblue" d="M669,-229.8C669,-197.66 669,-147.31 669,-119.72"/>
<polygon fill="midnightblue" stroke="midnightblue" points="665.5,-229.94 669,-239.94 672.5,-229.94 665.5,-229.94"/>
</g>
<!-- Node8&#45;&gt;Node7 -->
<g id="edge9" class="edge">
<title>Node8&#45;&gt;Node7</title>
<path fill="none" stroke="midnightblue" d="M539.42,-324.48C567.5,-310.83 602.22,-293.96 628.65,-281.11"/>
<polygon fill="midnightblue" stroke="midnightblue" points="537.64,-321.46 530.17,-328.98 540.7,-327.75 537.64,-321.46"/>
</g>
<!-- Node9&#45;&gt;Node7 -->
<g id="edge11" class="edge">
<title>Node9&#45;&gt;Node7</title>
<path fill="none" stroke="midnightblue" d="M669,-318.44C669,-306.1 669,-292.16 669,-281.16"/>
<polygon fill="midnightblue" stroke="midnightblue" points="665.5,-318.76 669,-328.76 672.5,-318.76 665.5,-318.76"/>
</g>
<!-- Node11 -->
<g id="node11" class="node">
<title>Node11</title>
<g id="a_node11"><a xlink:href="algorithm_8hpp.html" target="_top" xlink:title="Includes all beluga algorithms.">
<polygon fill="none" stroke="black" points="219.5,-240 219.5,-281 364.5,-281 364.5,-240 219.5,-240"/>
<text text-anchor="start" x="227.5" y="-269" font-family="Helvetica,sans-Serif" font-size="10.00">/home/runner/work/beluga</text>
<text text-anchor="start" x="227.5" y="-258" font-family="Helvetica,sans-Serif" font-size="10.00">/beluga/beluga/include</text>
<text text-anchor="middle" x="292" y="-247" font-family="Helvetica,sans-Serif" font-size="10.00">/beluga/algorithm.hpp</text>
</a>
</g>
</g>
<!-- Node10&#45;&gt;Node11 -->
<g id="edge13" class="edge">
<title>Node10&#45;&gt;Node11</title>
<path fill="none" stroke="midnightblue" d="M165.83,-319.27C193.25,-306.72 224.55,-292.38 249.12,-281.13"/>
<polygon fill="midnightblue" stroke="midnightblue" points="164.34,-316.11 156.7,-323.45 167.25,-322.47 164.34,-316.11"/>
</g>
<!-- Node12 -->
<g id="node12" class="node">
<title>Node12</title>
<g id="a_node12"><a xlink:href="on__effective__size__drop_8hpp.html" target="_top" xlink:title="Defines a policy for triggering an action based on the Effective Sample Size (ESS) metric.">
<polygon fill="none" stroke="black" points="37,-234.5 37,-286.5 193,-286.5 193,-234.5 37,-234.5"/>
<text text-anchor="start" x="45" y="-274.5" font-family="Helvetica,sans-Serif" font-size="10.00">/home/runner/work/beluga</text>
<text text-anchor="start" x="45" y="-263.5" font-family="Helvetica,sans-Serif" font-size="10.00">/beluga/beluga/include</text>
<text text-anchor="start" x="45" y="-252.5" font-family="Helvetica,sans-Serif" font-size="10.00">/beluga/policies/on_effective</text>
<text text-anchor="middle" x="115" y="-241.5" font-family="Helvetica,sans-Serif" font-size="10.00">_size_drop.hpp</text>
</a>
</g>
</g>
<!-- Node10&#45;&gt;Node12 -->
<g id="edge15" class="edge">
<title>Node10&#45;&gt;Node12</title>
<path fill="none" stroke="midnightblue" d="M107.28,-313.19C108.61,-304.28 110.01,-294.9 111.25,-286.61"/>
<polygon fill="midnightblue" stroke="midnightblue" points="103.78,-312.93 105.76,-323.34 110.7,-313.96 103.78,-312.93"/>
</g>
<!-- Node11&#45;&gt;Node3 -->
<g id="edge14" class="edge">
<title>Node11&#45;&gt;Node3</title>
<path fill="none" stroke="midnightblue" d="M347.47,-236.03C422.01,-204.49 553.16,-149.01 622.69,-119.59"/>
<polygon fill="midnightblue" stroke="midnightblue" points="346.07,-232.82 338.23,-239.94 348.8,-239.27 346.07,-232.82"/>
</g>
<!-- Node13 -->
<g id="node13" class="node">
<title>Node13</title>
<g id="a_node13"><a xlink:href="policies_8hpp.html" target="_top" xlink:title="Implementation of useful policies.">
<polygon fill="none" stroke="black" points="146.5,-156.5 146.5,-197.5 291.5,-197.5 291.5,-156.5 146.5,-156.5"/>
<text text-anchor="start" x="154.5" y="-185.5" font-family="Helvetica,sans-Serif" font-size="10.00">/home/runner/work/beluga</text>
<text text-anchor="start" x="154.5" y="-174.5" font-family="Helvetica,sans-Serif" font-size="10.00">/beluga/beluga/include</text>
<text text-anchor="middle" x="219" y="-163.5" font-family="Helvetica,sans-Serif" font-size="10.00">/beluga/policies.hpp</text>
</a>
</g>
</g>
<!-- Node12&#45;&gt;Node13 -->
<g id="edge16" class="edge">
<title>Node12&#45;&gt;Node13</title>
<path fill="none" stroke="midnightblue" d="M155.01,-228.15C168.06,-217.92 182.17,-206.86 193.82,-197.73"/>
<polygon fill="midnightblue" stroke="midnightblue" points="152.76,-225.46 147.05,-234.38 157.08,-230.97 152.76,-225.46"/>
</g>
<!-- Node13&#45;&gt;Node3 -->
<g id="edge17" class="edge">
<title>Node13&#45;&gt;Node3</title>
<path fill="none" stroke="midnightblue" d="M301.61,-162.05C385.95,-147.8 515.62,-125.9 596.22,-112.29"/>
<polygon fill="midnightblue" stroke="midnightblue" points="300.83,-158.63 291.55,-163.75 301.99,-165.53 300.83,-158.63"/>
</g>
<!-- Node14&#45;&gt;Node11 -->
<g id="edge19" class="edge">
<title>Node14&#45;&gt;Node11</title>
<path fill="none" stroke="midnightblue" d="M292,-313.16C292,-302.21 292,-290.55 292,-281.08"/>
<polygon fill="midnightblue" stroke="midnightblue" points="288.5,-313.34 292,-323.34 295.5,-313.34 288.5,-313.34"/>
</g>
<!-- Node15&#45;&gt;Node3 -->
<g id="edge21" class="edge">
<title>Node15&#45;&gt;Node3</title>
<path fill="none" stroke="midnightblue" d="M1363.03,-320.72C1342.67,-296.08 1310.68,-260.06 1278,-234 1224.12,-191.04 1209.36,-177.82 1144,-156 1006.95,-110.24 836.77,-100.82 741.8,-99.47"/>
<polygon fill="midnightblue" stroke="midnightblue" points="1360.44,-323.08 1369.48,-328.61 1365.86,-318.65 1360.44,-323.08"/>
</g>
<!-- Node16 -->
<g id="node16" class="node">
<title>Node16</title>
<g id="a_node16"><a xlink:href="tuple__vector_8hpp.html" target="_top" xlink:title="Implementation of a tuple of containers.">
<polygon fill="none" stroke="black" points="1123.5,-234.5 1123.5,-286.5 1268.5,-286.5 1268.5,-234.5 1123.5,-234.5"/>
<text text-anchor="start" x="1131.5" y="-274.5" font-family="Helvetica,sans-Serif" font-size="10.00">/home/runner/work/beluga</text>
<text text-anchor="start" x="1131.5" y="-263.5" font-family="Helvetica,sans-Serif" font-size="10.00">/beluga/beluga/include</text>
<text text-anchor="start" x="1131.5" y="-252.5" font-family="Helvetica,sans-Serif" font-size="10.00">/beluga/containers/tuple</text>
<text text-anchor="middle" x="1196" y="-241.5" font-family="Helvetica,sans-Serif" font-size="10.00">_vector.hpp</text>
</a>
</g>
</g>
<!-- Node15&#45;&gt;Node16 -->
<g id="edge22" class="edge">
<title>Node15&#45;&gt;Node16</title>
<path fill="none" stroke="midnightblue" d="M1333.38,-324.74C1307.67,-312.9 1276.59,-298.59 1250.49,-286.58"/>
<polygon fill="midnightblue" stroke="midnightblue" points="1332.04,-327.97 1342.58,-328.98 1334.96,-321.61 1332.04,-327.97"/>
</g>
<!-- Node17 -->
<g id="node17" class="node">
<title>Node17</title>
<g id="a_node17"><a xlink:href="containers_8hpp.html" target="_top" xlink:title="Implementation of efficient containers.">
<polygon fill="none" stroke="black" points="989.5,-156.5 989.5,-197.5 1134.5,-197.5 1134.5,-156.5 989.5,-156.5"/>
<text text-anchor="start" x="997.5" y="-185.5" font-family="Helvetica,sans-Serif" font-size="10.00">/home/runner/work/beluga</text>
<text text-anchor="start" x="997.5" y="-174.5" font-family="Helvetica,sans-Serif" font-size="10.00">/beluga/beluga/include</text>
<text text-anchor="middle" x="1062" y="-163.5" font-family="Helvetica,sans-Serif" font-size="10.00">/beluga/containers.hpp</text>
</a>
</g>
</g>
<!-- Node16&#45;&gt;Node17 -->
<g id="edge23" class="edge">
<title>Node16&#45;&gt;Node17</title>
<path fill="none" stroke="midnightblue" d="M1145.88,-229.01C1128.67,-218.55 1109.87,-207.12 1094.45,-197.73"/>
<polygon fill="midnightblue" stroke="midnightblue" points="1144.34,-232.18 1154.7,-234.38 1147.98,-226.2 1144.34,-232.18"/>
</g>
<!-- Node17&#45;&gt;Node3 -->
<g id="edge24" class="edge">
<title>Node17&#45;&gt;Node3</title>
<path fill="none" stroke="midnightblue" d="M979.31,-160.01C909.02,-146.42 809.08,-127.09 741.78,-114.07"/>
<polygon fill="midnightblue" stroke="midnightblue" points="978.98,-163.51 989.46,-161.97 980.31,-156.64 978.98,-163.51"/>
</g>
<!-- Node19 -->
<g id="node19" class="node">
<title>Node19</title>
<g id="a_node19"><a xlink:href="views_8hpp.html" target="_top" xlink:title="Implementation of useful container views.">
<polygon fill="none" stroke="black" points="872.5,-240 872.5,-281 1017.5,-281 1017.5,-240 872.5,-240"/>
<text text-anchor="start" x="880.5" y="-269" font-family="Helvetica,sans-Serif" font-size="10.00">/home/runner/work/beluga</text>
<text text-anchor="start" x="880.5" y="-258" font-family="Helvetica,sans-Serif" font-size="10.00">/beluga/beluga/include</text>
<text text-anchor="middle" x="945" y="-247" font-family="Helvetica,sans-Serif" font-size="10.00">/beluga/views.hpp</text>
</a>
</g>
</g>
<!-- Node18&#45;&gt;Node19 -->
<g id="edge26" class="edge">
<title>Node18&#45;&gt;Node19</title>
<path fill="none" stroke="midnightblue" d="M1025.2,-322.71C1007.82,-309.44 986.98,-293.53 970.89,-281.26"/>
<polygon fill="midnightblue" stroke="midnightblue" points="1023.34,-325.69 1033.42,-328.98 1027.59,-320.13 1023.34,-325.69"/>
</g>
<!-- Node19&#45;&gt;Node3 -->
<g id="edge27" class="edge">
<title>Node19&#45;&gt;Node3</title>
<path fill="none" stroke="midnightblue" d="M902.38,-234.87C847.57,-203.2 753.46,-148.81 703.12,-119.72"/>
<polygon fill="midnightblue" stroke="midnightblue" points="900.75,-237.97 911.16,-239.94 904.25,-231.91 900.75,-237.97"/>
</g>
<!-- Node20&#45;&gt;Node19 -->
<g id="edge29" class="edge">
<title>Node20&#45;&gt;Node19</title>
<path fill="none" stroke="midnightblue" d="M1139.57,-322.55C1090.19,-307.03 1043.43,-292.36 1007.24,-281.01"/>
<polygon fill="midnightblue" stroke="midnightblue" points="1138.55,-325.9 1149.14,-325.56 1140.65,-319.22 1138.55,-325.9"/>
</g>
<!-- Node21&#45;&gt;Node6 -->
<g id="edge31" class="edge">
<title>Node21&#45;&gt;Node6</title>
<path fill="none" stroke="midnightblue" d="M658.87,-414.99C662.29,-413.97 665.68,-412.97 669,-412 717.84,-397.67 773.04,-382.03 815.54,-370.11"/>
<polygon fill="midnightblue" stroke="midnightblue" points="657.75,-411.67 649.17,-417.89 659.75,-418.38 657.75,-411.67"/>
</g>
<!-- Node21&#45;&gt;Node8 -->
<g id="edge32" class="edge">
<title>Node21&#45;&gt;Node8</title>
<path fill="none" stroke="midnightblue" d="M555.8,-410.76C541.5,-397.66 524.57,-382.16 511.47,-370.16"/>
<polygon fill="midnightblue" stroke="midnightblue" points="553.7,-413.59 563.44,-417.76 558.43,-408.42 553.7,-413.59"/>
</g>
<!-- Node21&#45;&gt;Node9 -->
<g id="edge33" class="edge">
<title>Node21&#45;&gt;Node9</title>
<path fill="none" stroke="midnightblue" d="M611.17,-410.4C623.74,-397.37 638.54,-382.05 650.01,-370.16"/>
<polygon fill="midnightblue" stroke="midnightblue" points="608.49,-408.13 604.06,-417.76 613.52,-413 608.49,-408.13"/>
</g>
<!-- Node21&#45;&gt;Node10 -->
<g id="edge34" class="edge">
<title>Node21&#45;&gt;Node10</title>
<path fill="none" stroke="midnightblue" d="M499.72,-428.04C418.28,-418.15 292.38,-400.61 185,-376 182.21,-375.36 179.37,-374.67 176.52,-373.95"/>
<polygon fill="midnightblue" stroke="midnightblue" points="499.58,-431.55 509.93,-429.27 500.42,-424.6 499.58,-431.55"/>
</g>
<!-- Node21&#45;&gt;Node14 -->
<g id="edge35" class="edge">
<title>Node21&#45;&gt;Node14</title>
<path fill="none" stroke="midnightblue" d="M509.63,-415.12C468.82,-403 418.3,-388 376.21,-375.5"/>
<polygon fill="midnightblue" stroke="midnightblue" points="508.66,-418.48 519.25,-417.98 510.66,-411.77 508.66,-418.48"/>
</g>
<!-- Node21&#45;&gt;Node18 -->
<g id="edge36" class="edge">
<title>Node21&#45;&gt;Node18</title>
<path fill="none" stroke="midnightblue" d="M654.67,-415.32C659.49,-414.1 664.3,-412.98 669,-412 803.92,-383.87 842.18,-404.59 977,-376 984.73,-374.36 992.77,-372.31 1000.67,-370.08"/>
<polygon fill="midnightblue" stroke="midnightblue" points="653.55,-412 644.77,-417.94 655.34,-418.76 653.55,-412"/>
</g>
<!-- Node21&#45;&gt;Node19 -->
<g id="edge37" class="edge">
<title>Node21&#45;&gt;Node19</title>
<path fill="none" stroke="midnightblue" d="M654.6,-414.8C698.38,-400.15 748.21,-382.63 757,-376 780.14,-358.55 772.26,-340.97 795,-323 818.4,-304.5 848.14,-290.77 874.96,-281.04"/>
<polygon fill="midnightblue" stroke="midnightblue" points="653.46,-411.49 645.08,-417.98 655.68,-418.13 653.46,-411.49"/>
</g>
</g>
</svg>
