<?xml version="1.0" encoding="UTF-8" standalone="no"?>
<!DOCTYPE svg PUBLIC "-//W3C//DTD SVG 1.1//EN"
 "http://www.w3.org/Graphics/SVG/1.1/DTD/svg11.dtd">
<!-- Generated by graphviz version 2.43.0 (0)
 -->
<!-- Title: beluga::policy_base Pages: 1 -->
<svg width="306pt" height="127pt"
 viewBox="0.00 0.00 306.00 126.50" xmlns="http://www.w3.org/2000/svg" xmlns:xlink="http://www.w3.org/1999/xlink">
<g id="graph0" class="graph" transform="scale(1 1) rotate(0) translate(4 122.5)">
<title>beluga::policy_base</title>
<!-- Node1 -->
<g id="node1" class="node">
<title>Node1</title>
<g id="a_node1"><a xlink:title="Implementation detail for a policy base object.">
<polygon fill="#bfbfbf" stroke="black" points="0,-44.5 0,-63.5 113,-63.5 113,-44.5 0,-44.5"/>
<text text-anchor="middle" x="56.5" y="-51.5" font-family="Helvetica,sans-Serif" font-size="10.00">beluga::policy_base</text>
</a>
</g>
</g>
<!-- Node2 -->
<g id="node2" class="node">
<title>Node2</title>
<g id="a_node2"><a xlink:href="structbeluga_1_1policy.html" target="_top" xlink:title=" ">
<polygon fill="none" stroke="black" points="163,-88 163,-118 284,-118 284,-88 163,-88"/>
<text text-anchor="start" x="171" y="-106" font-family="Helvetica,sans-Serif" font-size="10.00">beluga::policy&lt; state</text>
<text text-anchor="middle" x="223.5" y="-95" font-family="Helvetica,sans-Serif" font-size="10.00">_type &gt;</text>
</a>
</g>
</g>
<!-- Node1&#45;&gt;Node2 -->
<g id="edge1" class="edge">
<title>Node1&#45;&gt;Node2</title>
<path fill="none" stroke="midnightblue" d="M99.44,-66.45C121.48,-73 148.66,-81.07 171.87,-87.96"/>
<polygon fill="midnightblue" stroke="midnightblue" points="100.29,-63.06 89.71,-63.56 98.3,-69.77 100.29,-63.06"/>
</g>
<!-- Node3 -->
<g id="node3" class="node">
<title>Node3</title>
<g id="a_node3"><a xlink:href="structbeluga_1_1policy.html" target="_top" xlink:title=" ">
<polygon fill="none" stroke="black" points="154.5,-39 154.5,-69 292.5,-69 292.5,-39 154.5,-39"/>
<text text-anchor="start" x="162.5" y="-57" font-family="Helvetica,sans-Serif" font-size="10.00">beluga::policy&lt; decltype</text>
<text text-anchor="middle" x="223.5" y="-46" font-family="Helvetica,sans-Serif" font-size="10.00">(particles_)&gt;</text>
</a>
</g>
</g>
<!-- Node1&#45;&gt;Node3 -->
<g id="edge2" class="edge">
<title>Node1&#45;&gt;Node3</title>
<path fill="none" stroke="midnightblue" d="M123.41,-54C133.61,-54 144.16,-54 154.4,-54"/>
<polygon fill="midnightblue" stroke="midnightblue" points="123.36,-50.5 113.36,-54 123.36,-57.5 123.36,-50.5"/>
</g>
<!-- Node4 -->
<g id="node4" class="node">
<title>Node4</title>
<g id="a_node4"><a xlink:href="structbeluga_1_1policy.html" target="_top" xlink:title="Forward declaration of policy.">
<polygon fill="none" stroke="black" points="149,-0.5 149,-19.5 298,-19.5 298,-0.5 149,-0.5"/>
<text text-anchor="middle" x="223.5" y="-7.5" font-family="Helvetica,sans-Serif" font-size="10.00">beluga::policy&lt; PolicyFn &gt;</text>
</a>
</g>
</g>
<!-- Node1&#45;&gt;Node4 -->
<g id="edge3" class="edge">
<title>Node1&#45;&gt;Node4</title>
<path fill="none" stroke="midnightblue" d="M103.08,-41.85C129.48,-34.8 162.24,-26.07 186.77,-19.53"/>
<polygon fill="midnightblue" stroke="midnightblue" points="102.06,-38.49 93.3,-44.45 103.87,-45.26 102.06,-38.49"/>
</g>
</g>
</svg>
