<?xml version="1.0" encoding="UTF-8" standalone="no"?>
<!DOCTYPE svg PUBLIC "-//W3C//DTD SVG 1.1//EN"
 "http://www.w3.org/Graphics/SVG/1.1/DTD/svg11.dtd">
<!-- Generated by graphviz version 2.43.0 (0)
 -->
<!-- Title: /home/runner/work/beluga/beluga/beluga/include/beluga/views/take_while_kld.hpp Pages: 1 -->
<!--zoomable 307 -->
<svg id="main" version="1.1" xmlns="http://www.w3.org/2000/svg" xmlns:xlink="http://www.w3.org/1999/xlink" xml:space="preserve" onload="init(evt)">
<style type="text/css"><![CDATA[
.edge:hover path { stroke: red; }
.edge:hover polygon { stroke: red; fill: red; }
]]></style>
<script type="text/javascript"><![CDATA[
var edges = document.getElementsByTagName('g');
if (edges && edges.length) {
  for (var i=0;i<edges.length;i++) {
    if (edges[i].id.substr(0,4)=='edge') {
      edges[i].setAttribute('class','edge');
    }
  }
}
]]></script>
        <defs>
                <circle id="rim" cx="0" cy="0" r="7"/>
                <circle id="rim2" cx="0" cy="0" r="3.5"/>
                <g id="zoomPlus">
                        <use xlink:href="#rim" fill="#404040">
                                <set attributeName="fill" to="#808080" begin="zoomplus.mouseover" end="zoomplus.mouseout"/>
                        </use>
                        <path d="M-4,0h8M0,-4v8" fill="none" stroke="white" stroke-width="1.5" pointer-events="none"/>
                </g>
                <g id="zoomMin">
                        <use xlink:href="#rim" fill="#404040">
                                <set attributeName="fill" to="#808080" begin="zoomminus.mouseover" end="zoomminus.mouseout"/>
                        </use>
                        <path d="M-4,0h8" fill="none" stroke="white" stroke-width="1.5" pointer-events="none"/>
                </g>
                <g id="dirArrow">
                        <path fill="none" stroke="white" stroke-width="1.5" d="M0,-3.0v7 M-2.5,-0.5L0,-3.0L2.5,-0.5"/>
                </g>
               <g id="resetDef">
                       <use xlink:href="#rim2" fill="#404040">
                               <set attributeName="fill" to="#808080" begin="reset.mouseover" end="reset.mouseout"/>
                       </use>
               </g>
        </defs>

<script type="text/javascript">
var viewWidth = 806;
var viewHeight = 307;
var sectionId = 'dynsection-0';
</script>
<script xlink:href="svgpan.js"/>
<svg id="graph" class="graph">
<g id="viewport">
<title>/home/runner/work/beluga/beluga/beluga/include/beluga/views/take_while_kld.hpp</title>
<!-- Node1 -->
<g id="node1" class="node">
<title>Node1</title>
<g id="a_node1"><a xlink:title="Implementation of a take_while_kld range adaptor object.">
<polygon fill="#bfbfbf" stroke="black" points="163,-246.5 163,-298.5 308,-298.5 308,-246.5 163,-246.5"/>
<text text-anchor="start" x="171" y="-286.5" font-family="Helvetica,sans-Serif" font-size="10.00">/home/runner/work/beluga</text>
<text text-anchor="start" x="171" y="-275.5" font-family="Helvetica,sans-Serif" font-size="10.00">/beluga/beluga/include</text>
<text text-anchor="start" x="171" y="-264.5" font-family="Helvetica,sans-Serif" font-size="10.00">/beluga/views/take_while</text>
<text text-anchor="middle" x="235.5" y="-253.5" font-family="Helvetica,sans-Serif" font-size="10.00">_kld.hpp</text>
</a>
</g>
</g>
<!-- Node2 -->
<g id="node2" class="node">
<title>Node2</title>
<g id="a_node2"><a xlink:title=" ">
<polygon fill="none" stroke="#bfbfbf" points="0,-185 0,-204 47,-204 47,-185 0,-185"/>
<text text-anchor="middle" x="23.5" y="-192" font-family="Helvetica,sans-Serif" font-size="10.00">cmath</text>
</a>
</g>
</g>
<!-- Node1&#45;&gt;Node2 -->
<g id="edge1" class="edge">
<title>Node1&#45;&gt;Node2</title>
<path fill="none" stroke="midnightblue" d="M162.71,-248.02C130.01,-237.08 91.09,-223.51 56.5,-210 54.9,-209.37 53.26,-208.71 51.61,-208.04"/>
<polygon fill="midnightblue" stroke="midnightblue" points="52.81,-204.74 42.23,-204.05 50.07,-211.19 52.81,-204.74"/>
</g>
<!-- Node3 -->
<g id="node3" class="node">
<title>Node3</title>
<g id="a_node3"><a xlink:title=" ">
<polygon fill="none" stroke="#bfbfbf" points="65.5,-185 65.5,-204 151.5,-204 151.5,-185 65.5,-185"/>
<text text-anchor="middle" x="108.5" y="-192" font-family="Helvetica,sans-Serif" font-size="10.00">unordered_set</text>
</a>
</g>
</g>
<!-- Node1&#45;&gt;Node3 -->
<g id="edge2" class="edge">
<title>Node1&#45;&gt;Node3</title>
<path fill="none" stroke="midnightblue" d="M193.56,-246.4C172.96,-234.07 148.92,-219.69 131.66,-209.36"/>
<polygon fill="midnightblue" stroke="midnightblue" points="133.21,-206.21 122.83,-204.08 129.62,-212.22 133.21,-206.21"/>
</g>
<!-- Node4 -->
<g id="node4" class="node">
<title>Node4</title>
<g id="a_node4"><a xlink:title=" ">
<polygon fill="none" stroke="#bfbfbf" points="170,-185 170,-204 301,-204 301,-185 170,-185"/>
<text text-anchor="middle" x="235.5" y="-192" font-family="Helvetica,sans-Serif" font-size="10.00">range/v3/view/take.hpp</text>
</a>
</g>
</g>
<!-- Node1&#45;&gt;Node4 -->
<g id="edge3" class="edge">
<title>Node1&#45;&gt;Node4</title>
<path fill="none" stroke="midnightblue" d="M235.5,-246.19C235.5,-235.76 235.5,-223.9 235.5,-214.27"/>
<polygon fill="midnightblue" stroke="midnightblue" points="239,-214.21 235.5,-204.21 232,-214.21 239,-214.21"/>
</g>
<!-- Node5 -->
<g id="node5" class="node">
<title>Node5</title>
<g id="a_node5"><a xlink:title=" ">
<polygon fill="none" stroke="#bfbfbf" points="319.5,-179.5 319.5,-209.5 429.5,-209.5 429.5,-179.5 319.5,-179.5"/>
<text text-anchor="start" x="327.5" y="-197.5" font-family="Helvetica,sans-Serif" font-size="10.00">range/v3/view/take</text>
<text text-anchor="middle" x="374.5" y="-186.5" font-family="Helvetica,sans-Serif" font-size="10.00">_while.hpp</text>
</a>
</g>
</g>
<!-- Node1&#45;&gt;Node5 -->
<g id="edge4" class="edge">
<title>Node1&#45;&gt;Node5</title>
<path fill="none" stroke="midnightblue" d="M281.4,-246.4C300.39,-236.02 322.05,-224.18 339.69,-214.53"/>
<polygon fill="midnightblue" stroke="midnightblue" points="341.42,-217.57 348.52,-209.71 338.06,-211.43 341.42,-217.57"/>
</g>
<!-- Node6 -->
<g id="node6" class="node">
<title>Node6</title>
<g id="a_node6"><a xlink:href="particle__traits_8hpp.html" target="_top" xlink:title="Implementation of traits for particle types, see the Particle named requirements.">
<polygon fill="none" stroke="black" points="447.5,-179.5 447.5,-209.5 555.5,-209.5 555.5,-179.5 447.5,-179.5"/>
<text text-anchor="start" x="455.5" y="-197.5" font-family="Helvetica,sans-Serif" font-size="10.00">beluga/type_traits</text>
<text text-anchor="middle" x="501.5" y="-186.5" font-family="Helvetica,sans-Serif" font-size="10.00">/particle_traits.hpp</text>
</a>
</g>
</g>
<!-- Node1&#45;&gt;Node6 -->
<g id="edge5" class="edge">
<title>Node1&#45;&gt;Node6</title>
<path fill="none" stroke="midnightblue" d="M308.19,-250.73C350.44,-238.66 403.01,-223.64 442.65,-212.31"/>
<polygon fill="midnightblue" stroke="midnightblue" points="443.79,-215.63 452.44,-209.52 441.86,-208.9 443.79,-215.63"/>
</g>
<!-- Node7 -->
<g id="node7" class="node">
<title>Node7</title>
<g id="a_node7"><a xlink:href="primitives_8hpp.html" target="_top" xlink:title="Implementation of library primitives to abstract member access.">
<polygon fill="none" stroke="black" points="440,-123.5 440,-142.5 563,-142.5 563,-123.5 440,-123.5"/>
<text text-anchor="middle" x="501.5" y="-130.5" font-family="Helvetica,sans-Serif" font-size="10.00">beluga/primitives.hpp</text>
</a>
</g>
</g>
<!-- Node6&#45;&gt;Node7 -->
<g id="edge6" class="edge">
<title>Node6&#45;&gt;Node7</title>
<path fill="none" stroke="midnightblue" d="M501.5,-179.4C501.5,-171.47 501.5,-161.46 501.5,-152.86"/>
<polygon fill="midnightblue" stroke="midnightblue" points="505,-152.66 501.5,-142.66 498,-152.66 505,-152.66"/>
</g>
<!-- Node13 -->
<g id="node13" class="node">
<title>Node13</title>
<g id="a_node13"><a xlink:href="tuple__traits_8hpp.html" target="_top" xlink:title="Implementation of traits for tuple&#45;like types.">
<polygon fill="none" stroke="black" points="328,-56.5 328,-86.5 433,-86.5 433,-56.5 328,-56.5"/>
<text text-anchor="start" x="336" y="-74.5" font-family="Helvetica,sans-Serif" font-size="10.00">beluga/type_traits</text>
<text text-anchor="middle" x="380.5" y="-63.5" font-family="Helvetica,sans-Serif" font-size="10.00">/tuple_traits.hpp</text>
</a>
</g>
</g>
<!-- Node6&#45;&gt;Node13 -->
<g id="edge18" class="edge">
<title>Node6&#45;&gt;Node13</title>
<path fill="none" stroke="midnightblue" d="M477.59,-179.38C463.04,-170.11 444.61,-157.13 430.5,-143 416.24,-128.72 403.16,-109.98 393.95,-95.41"/>
<polygon fill="midnightblue" stroke="midnightblue" points="396.71,-93.21 388.49,-86.52 390.75,-96.88 396.71,-93.21"/>
</g>
<!-- Node16 -->
<g id="node16" class="node">
<title>Node16</title>
<g id="a_node16"><a xlink:title=" ">
<polygon fill="none" stroke="#bfbfbf" points="581.5,-123.5 581.5,-142.5 721.5,-142.5 721.5,-123.5 581.5,-123.5"/>
<text text-anchor="middle" x="651.5" y="-130.5" font-family="Helvetica,sans-Serif" font-size="10.00">range/v3/range/traits.hpp</text>
</a>
</g>
</g>
<!-- Node6&#45;&gt;Node16 -->
<g id="edge19" class="edge">
<title>Node6&#45;&gt;Node16</title>
<path fill="none" stroke="midnightblue" d="M537.05,-179.4C562.33,-169.37 595.97,-156.03 620.23,-146.4"/>
<polygon fill="midnightblue" stroke="midnightblue" points="621.67,-149.6 629.67,-142.66 619.09,-143.09 621.67,-149.6"/>
</g>
<!-- Node8 -->
<g id="node8" class="node">
<title>Node8</title>
<g id="a_node8"><a xlink:title=" ">
<polygon fill="none" stroke="#bfbfbf" points="289,-0.5 289,-19.5 330,-19.5 330,-0.5 289,-0.5"/>
<text text-anchor="middle" x="309.5" y="-7.5" font-family="Helvetica,sans-Serif" font-size="10.00">tuple</text>
</a>
</g>
</g>
<!-- Node7&#45;&gt;Node8 -->
<g id="edge7" class="edge">
<title>Node7&#45;&gt;Node8</title>
<path fill="none" stroke="midnightblue" d="M439.83,-124.42C393.19,-117.35 334.53,-105.14 318.5,-87 304.92,-71.63 304.44,-47.16 306.21,-30.16"/>
<polygon fill="midnightblue" stroke="midnightblue" points="309.74,-30.17 307.65,-19.78 302.81,-29.2 309.74,-30.17"/>
</g>
<!-- Node9 -->
<g id="node9" class="node">
<title>Node9</title>
<g id="a_node9"><a xlink:title=" ">
<polygon fill="none" stroke="#bfbfbf" points="567,-0.5 567,-19.5 636,-19.5 636,-0.5 567,-0.5"/>
<text text-anchor="middle" x="601.5" y="-7.5" font-family="Helvetica,sans-Serif" font-size="10.00">type_traits</text>
</a>
</g>
</g>
<!-- Node7&#45;&gt;Node9 -->
<g id="edge8" class="edge">
<title>Node7&#45;&gt;Node9</title>
<path fill="none" stroke="midnightblue" d="M528.65,-123.36C546.51,-116.31 568.99,-104.61 582.5,-87 595.14,-70.52 599.46,-46.65 600.89,-30.07"/>
<polygon fill="midnightblue" stroke="midnightblue" points="604.39,-30.13 601.48,-19.94 597.41,-29.72 604.39,-30.13"/>
</g>
<!-- Node10 -->
<g id="node10" class="node">
<title>Node10</title>
<g id="a_node10"><a xlink:href="strongly__typed__numeric_8hpp.html" target="_top" xlink:title="Implementation of a strongly typed numeric helper.">
<polygon fill="none" stroke="black" points="629.5,-56.5 629.5,-86.5 787.5,-86.5 787.5,-56.5 629.5,-56.5"/>
<text text-anchor="start" x="637.5" y="-74.5" font-family="Helvetica,sans-Serif" font-size="10.00">beluga/type_traits</text>
<text text-anchor="middle" x="708.5" y="-63.5" font-family="Helvetica,sans-Serif" font-size="10.00">/strongly_typed_numeric.hpp</text>
</a>
</g>
</g>
<!-- Node7&#45;&gt;Node10 -->
<g id="edge9" class="edge">
<title>Node7&#45;&gt;Node10</title>
<path fill="none" stroke="midnightblue" d="M531.16,-123.48C562.08,-114.59 611.34,-100.43 650.1,-89.29"/>
<polygon fill="midnightblue" stroke="midnightblue" points="651.07,-92.65 659.71,-86.52 649.14,-85.92 651.07,-92.65"/>
</g>
<!-- Node7&#45;&gt;Node13 -->
<g id="edge13" class="edge">
<title>Node7&#45;&gt;Node13</title>
<path fill="none" stroke="midnightblue" d="M484.16,-123.48C467.01,-115.04 440.2,-101.86 418.14,-91.01"/>
<polygon fill="midnightblue" stroke="midnightblue" points="419.54,-87.79 409.02,-86.52 416.45,-94.08 419.54,-87.79"/>
</g>
<!-- Node15 -->
<g id="node15" class="node">
<title>Node15</title>
<g id="a_node15"><a xlink:href="forward__like_8hpp_source.html" target="_top" xlink:title=" ">
<polygon fill="none" stroke="black" points="451.5,-56.5 451.5,-86.5 573.5,-86.5 573.5,-56.5 451.5,-56.5"/>
<text text-anchor="start" x="459.5" y="-74.5" font-family="Helvetica,sans-Serif" font-size="10.00">beluga/utility/forward</text>
<text text-anchor="middle" x="512.5" y="-63.5" font-family="Helvetica,sans-Serif" font-size="10.00">_like.hpp</text>
</a>
</g>
</g>
<!-- Node7&#45;&gt;Node15 -->
<g id="edge17" class="edge">
<title>Node7&#45;&gt;Node15</title>
<path fill="none" stroke="midnightblue" d="M503.08,-123.48C504.38,-116.4 506.31,-105.97 508.08,-96.39"/>
<polygon fill="midnightblue" stroke="midnightblue" points="511.53,-96.99 509.91,-86.52 504.65,-95.72 511.53,-96.99"/>
</g>
<!-- Node10&#45;&gt;Node9 -->
<g id="edge12" class="edge">
<title>Node10&#45;&gt;Node9</title>
<path fill="none" stroke="midnightblue" d="M683.14,-56.4C665.83,-46.77 643.02,-34.09 625.92,-24.58"/>
<polygon fill="midnightblue" stroke="midnightblue" points="627.51,-21.46 617.07,-19.66 624.11,-27.58 627.51,-21.46"/>
</g>
<!-- Node11 -->
<g id="node11" class="node">
<title>Node11</title>
<g id="a_node11"><a xlink:title=" ">
<polygon fill="none" stroke="#bfbfbf" points="733,-0.5 733,-19.5 798,-19.5 798,-0.5 733,-0.5"/>
<text text-anchor="middle" x="765.5" y="-7.5" font-family="Helvetica,sans-Serif" font-size="10.00">functional</text>
</a>
</g>
</g>
<!-- Node10&#45;&gt;Node11 -->
<g id="edge10" class="edge">
<title>Node10&#45;&gt;Node11</title>
<path fill="none" stroke="midnightblue" d="M722.01,-56.4C730.46,-47.58 741.38,-36.18 750.16,-27.02"/>
<polygon fill="midnightblue" stroke="midnightblue" points="752.82,-29.3 757.21,-19.66 747.76,-24.46 752.82,-29.3"/>
</g>
<!-- Node12 -->
<g id="node12" class="node">
<title>Node12</title>
<g id="a_node12"><a xlink:title=" ">
<polygon fill="none" stroke="#bfbfbf" points="670.5,-0.5 670.5,-19.5 714.5,-19.5 714.5,-0.5 670.5,-0.5"/>
<text text-anchor="middle" x="692.5" y="-7.5" font-family="Helvetica,sans-Serif" font-size="10.00">limits</text>
</a>
</g>
</g>
<!-- Node10&#45;&gt;Node12 -->
<g id="edge11" class="edge">
<title>Node10&#45;&gt;Node12</title>
<path fill="none" stroke="midnightblue" d="M704.71,-56.4C702.55,-48.38 699.82,-38.23 697.49,-29.57"/>
<polygon fill="midnightblue" stroke="midnightblue" points="700.8,-28.41 694.83,-19.66 694.05,-30.22 700.8,-28.41"/>
</g>
<!-- Node13&#45;&gt;Node8 -->
<g id="edge14" class="edge">
<title>Node13&#45;&gt;Node8</title>
<path fill="none" stroke="midnightblue" d="M363.67,-56.4C352.83,-47.31 338.72,-35.49 327.63,-26.19"/>
<polygon fill="midnightblue" stroke="midnightblue" points="329.74,-23.4 319.83,-19.66 325.25,-28.76 329.74,-23.4"/>
</g>
<!-- Node13&#45;&gt;Node9 -->
<g id="edge15" class="edge">
<title>Node13&#45;&gt;Node9</title>
<path fill="none" stroke="midnightblue" d="M432.59,-56.47C471.55,-45.99 524.11,-31.84 560.19,-22.12"/>
<polygon fill="midnightblue" stroke="midnightblue" points="561.16,-25.49 569.9,-19.51 559.34,-18.73 561.16,-25.49"/>
</g>
<!-- Node14 -->
<g id="node14" class="node">
<title>Node14</title>
<g id="a_node14"><a xlink:title=" ">
<polygon fill="none" stroke="#bfbfbf" points="358,-0.5 358,-19.5 403,-19.5 403,-0.5 358,-0.5"/>
<text text-anchor="middle" x="380.5" y="-7.5" font-family="Helvetica,sans-Serif" font-size="10.00">utility</text>
</a>
</g>
</g>
<!-- Node13&#45;&gt;Node14 -->
<g id="edge16" class="edge">
<title>Node13&#45;&gt;Node14</title>
<path fill="none" stroke="midnightblue" d="M380.5,-56.4C380.5,-48.47 380.5,-38.46 380.5,-29.86"/>
<polygon fill="midnightblue" stroke="midnightblue" points="384,-29.66 380.5,-19.66 377,-29.66 384,-29.66"/>
</g>
</g>
</svg>
        <g id="navigator" transform="translate(0 0)" fill="#404254">
                <rect fill="#f2f5e9" fill-opacity="0.5" stroke="#606060" stroke-width=".5" x="0" y="0" width="60" height="60"/>
                <use id="zoomplus" xlink:href="#zoomPlus" x="17" y="9" onmousedown="handleZoom(evt,'in')"/>
                <use id="zoomminus" xlink:href="#zoomMin" x="42" y="9" onmousedown="handleZoom(evt,'out')"/>
                <use id="reset" xlink:href="#resetDef" x="30" y="36" onmousedown="handleReset()"/>
                <g id="arrowUp" xlink:href="#dirArrow" transform="translate(30 24)" onmousedown="handlePan(0,-1)">
                  <use xlink:href="#rim" fill="#404040">
                        <set attributeName="fill" to="#808080" begin="arrowUp.mouseover" end="arrowUp.mouseout"/>
                  </use>
                  <path fill="none" stroke="white" stroke-width="1.5" d="M0,-3.0v7 M-2.5,-0.5L0,-3.0L2.5,-0.5"/>
                </g>
                <g id="arrowRight" xlink:href="#dirArrow" transform="rotate(90) translate(36 -43)" onmousedown="handlePan(1,0)">
                  <use xlink:href="#rim" fill="#404040">
                        <set attributeName="fill" to="#808080" begin="arrowRight.mouseover" end="arrowRight.mouseout"/>
                  </use>
                  <path fill="none" stroke="white" stroke-width="1.5" d="M0,-3.0v7 M-2.5,-0.5L0,-3.0L2.5,-0.5"/>
                </g>
                <g id="arrowDown" xlink:href="#dirArrow" transform="rotate(180) translate(-30 -48)" onmousedown="handlePan(0,1)">
                  <use xlink:href="#rim" fill="#404040">
                        <set attributeName="fill" to="#808080" begin="arrowDown.mouseover" end="arrowDown.mouseout"/>
                  </use>
                  <path fill="none" stroke="white" stroke-width="1.5" d="M0,-3.0v7 M-2.5,-0.5L0,-3.0L2.5,-0.5"/>
                </g>
                <g id="arrowLeft" xlink:href="#dirArrow" transform="rotate(270) translate(-36 17)" onmousedown="handlePan(-1,0)">
                  <use xlink:href="#rim" fill="#404040">
                        <set attributeName="fill" to="#808080" begin="arrowLeft.mouseover" end="arrowLeft.mouseout"/>
                  </use>
                  <path fill="none" stroke="white" stroke-width="1.5" d="M0,-3.0v7 M-2.5,-0.5L0,-3.0L2.5,-0.5"/>
                </g>
        </g>
        <svg viewBox="0 0 15 15" width="100%" height="30px" preserveAspectRatio="xMaxYMin meet">
         <g id="arrow_out" transform="scale(0.3 0.3)">
          <a xlink:href="take__while__kld_8hpp__incl_org.svg" target="_base">
           <rect id="button" ry="5" rx="5" y="6" x="6" height="38" width="38"
                fill="#f2f5e9" fill-opacity="0.5" stroke="#606060" stroke-width="1.0"/>
           <path id="arrow"
             d="M 11.500037,31.436501 C 11.940474,20.09759 22.043105,11.32322 32.158766,21.979434 L 37.068811,17.246167 C 37.068811,17.246167 37.088388,32 37.088388,32 L 22.160133,31.978069 C 22.160133,31.978069 26.997745,27.140456 26.997745,27.140456 C 18.528582,18.264221 13.291696,25.230495 11.500037,31.436501 z"
             style="fill:#404040;"/>
          </a>
         </g>
        </svg>
</svg>
