<?xml version="1.0" encoding="UTF-8" standalone="no"?>
<!DOCTYPE svg PUBLIC "-//W3C//DTD SVG 1.1//EN"
 "http://www.w3.org/Graphics/SVG/1.1/DTD/svg11.dtd">
<!-- Generated by graphviz version 2.43.0 (0)
 -->
<!-- Title: /home/runner/work/beluga/beluga/beluga/include/beluga/views/take_while_kld.hpp Pages: 1 -->
<svg width="564pt" height="307pt"
 viewBox="0.00 0.00 563.50 307.00" xmlns="http://www.w3.org/2000/svg" xmlns:xlink="http://www.w3.org/1999/xlink">
<g id="graph0" class="graph" transform="scale(1 1) rotate(0) translate(4 303)">
<title>/home/runner/work/beluga/beluga/beluga/include/beluga/views/take_while_kld.hpp</title>
<!-- Node1 -->
<g id="node1" class="node">
<title>Node1</title>
<g id="a_node1"><a xlink:title="Implementation of a take_while_kld range adaptor object.">
<polygon fill="#bfbfbf" stroke="black" points="151,-246.5 151,-298.5 296,-298.5 296,-246.5 151,-246.5"/>
<text text-anchor="start" x="159" y="-286.5" font-family="Helvetica,sans-Serif" font-size="10.00">/home/runner/work/beluga</text>
<text text-anchor="start" x="159" y="-275.5" font-family="Helvetica,sans-Serif" font-size="10.00">/beluga/beluga/include</text>
<text text-anchor="start" x="159" y="-264.5" font-family="Helvetica,sans-Serif" font-size="10.00">/beluga/views/take_while</text>
<text text-anchor="middle" x="223.5" y="-253.5" font-family="Helvetica,sans-Serif" font-size="10.00">_kld.hpp</text>
</a>
</g>
</g>
<!-- Node2 -->
<g id="node2" class="node">
<title>Node2</title>
<g id="a_node2"><a xlink:title=" ">
<polygon fill="none" stroke="#bfbfbf" points="0,-185 0,-204 47,-204 47,-185 0,-185"/>
<text text-anchor="middle" x="23.5" y="-192" font-family="Helvetica,sans-Serif" font-size="10.00">cmath</text>
</a>
</g>
</g>
<!-- Node1&#45;&gt;Node2 -->
<g id="edge1" class="edge">
<title>Node1&#45;&gt;Node2</title>
<path fill="none" stroke="midnightblue" d="M152.44,-246.42C122.64,-235.62 87.73,-222.6 56.5,-210 55.09,-209.43 53.64,-208.84 52.19,-208.23"/>
<polygon fill="midnightblue" stroke="midnightblue" points="53.18,-204.85 42.61,-204.13 50.43,-211.28 53.18,-204.85"/>
</g>
<!-- Node3 -->
<g id="node3" class="node">
<title>Node3</title>
<g id="a_node3"><a xlink:title=" ">
<polygon fill="none" stroke="#bfbfbf" points="65.5,-185 65.5,-204 151.5,-204 151.5,-185 65.5,-185"/>
<text text-anchor="middle" x="108.5" y="-192" font-family="Helvetica,sans-Serif" font-size="10.00">unordered_set</text>
</a>
</g>
</g>
<!-- Node1&#45;&gt;Node3 -->
<g id="edge2" class="edge">
<title>Node1&#45;&gt;Node3</title>
<path fill="none" stroke="midnightblue" d="M185.53,-246.4C167.04,-234.19 145.5,-219.95 129.91,-209.65"/>
<polygon fill="midnightblue" stroke="midnightblue" points="131.75,-206.67 121.48,-204.08 127.89,-212.51 131.75,-206.67"/>
</g>
<!-- Node4 -->
<g id="node4" class="node">
<title>Node4</title>
<g id="a_node4"><a xlink:href="particle__traits_8hpp.html" target="_top" xlink:title="Implementation of traits for particle types, see the Particle named requirements.">
<polygon fill="none" stroke="black" points="169.5,-179.5 169.5,-209.5 277.5,-209.5 277.5,-179.5 169.5,-179.5"/>
<text text-anchor="start" x="177.5" y="-197.5" font-family="Helvetica,sans-Serif" font-size="10.00">beluga/type_traits</text>
<text text-anchor="middle" x="223.5" y="-186.5" font-family="Helvetica,sans-Serif" font-size="10.00">/particle_traits.hpp</text>
</a>
</g>
</g>
<!-- Node1&#45;&gt;Node4 -->
<g id="edge3" class="edge">
<title>Node1&#45;&gt;Node4</title>
<path fill="none" stroke="midnightblue" d="M223.5,-246.19C223.5,-237.79 223.5,-228.44 223.5,-220.09"/>
<polygon fill="midnightblue" stroke="midnightblue" points="227,-219.85 223.5,-209.85 220,-219.85 227,-219.85"/>
</g>
<!-- Node15 -->
<g id="node15" class="node">
<title>Node15</title>
<g id="a_node15"><a xlink:title=" ">
<polygon fill="none" stroke="#bfbfbf" points="296,-185 296,-204 427,-204 427,-185 296,-185"/>
<text text-anchor="middle" x="361.5" y="-192" font-family="Helvetica,sans-Serif" font-size="10.00">range/v3/view/take.hpp</text>
</a>
</g>
</g>
<!-- Node1&#45;&gt;Node15 -->
<g id="edge18" class="edge">
<title>Node1&#45;&gt;Node15</title>
<path fill="none" stroke="midnightblue" d="M269.07,-246.4C291.77,-233.9 318.31,-219.29 337.11,-208.93"/>
<polygon fill="midnightblue" stroke="midnightblue" points="338.85,-211.97 345.92,-204.08 335.48,-205.84 338.85,-211.97"/>
</g>
<!-- Node16 -->
<g id="node16" class="node">
<title>Node16</title>
<g id="a_node16"><a xlink:title=" ">
<polygon fill="none" stroke="#bfbfbf" points="445.5,-179.5 445.5,-209.5 555.5,-209.5 555.5,-179.5 445.5,-179.5"/>
<text text-anchor="start" x="453.5" y="-197.5" font-family="Helvetica,sans-Serif" font-size="10.00">range/v3/view/take</text>
<text text-anchor="middle" x="500.5" y="-186.5" font-family="Helvetica,sans-Serif" font-size="10.00">_while.hpp</text>
</a>
</g>
</g>
<!-- Node1&#45;&gt;Node16 -->
<g id="edge19" class="edge">
<title>Node1&#45;&gt;Node16</title>
<path fill="none" stroke="midnightblue" d="M296.28,-251.53C340.8,-239.32 397.11,-223.87 439.32,-212.29"/>
<polygon fill="midnightblue" stroke="midnightblue" points="440.47,-215.6 449.19,-209.58 438.62,-208.85 440.47,-215.6"/>
</g>
<!-- Node5 -->
<g id="node5" class="node">
<title>Node5</title>
<g id="a_node5"><a xlink:href="primitives_8hpp.html" target="_top" xlink:title="Implementation of library primitives to abstract member access.">
<polygon fill="none" stroke="black" points="162,-123.5 162,-142.5 285,-142.5 285,-123.5 162,-123.5"/>
<text text-anchor="middle" x="223.5" y="-130.5" font-family="Helvetica,sans-Serif" font-size="10.00">beluga/primitives.hpp</text>
</a>
</g>
</g>
<!-- Node4&#45;&gt;Node5 -->
<g id="edge4" class="edge">
<title>Node4&#45;&gt;Node5</title>
<path fill="none" stroke="midnightblue" d="M223.5,-179.4C223.5,-171.47 223.5,-161.46 223.5,-152.86"/>
<polygon fill="midnightblue" stroke="midnightblue" points="227,-152.66 223.5,-142.66 220,-152.66 227,-152.66"/>
</g>
<!-- Node11 -->
<g id="node11" class="node">
<title>Node11</title>
<g id="a_node11"><a xlink:href="tuple__traits_8hpp.html" target="_top" xlink:title="Implementation of traits for tuple&#45;like types.">
<polygon fill="none" stroke="black" points="50,-56.5 50,-86.5 155,-86.5 155,-56.5 50,-56.5"/>
<text text-anchor="start" x="58" y="-74.5" font-family="Helvetica,sans-Serif" font-size="10.00">beluga/type_traits</text>
<text text-anchor="middle" x="102.5" y="-63.5" font-family="Helvetica,sans-Serif" font-size="10.00">/tuple_traits.hpp</text>
</a>
</g>
</g>
<!-- Node4&#45;&gt;Node11 -->
<g id="edge16" class="edge">
<title>Node4&#45;&gt;Node11</title>
<path fill="none" stroke="midnightblue" d="M199.59,-179.38C185.04,-170.11 166.61,-157.13 152.5,-143 138.24,-128.72 125.16,-109.98 115.95,-95.41"/>
<polygon fill="midnightblue" stroke="midnightblue" points="118.71,-93.21 110.49,-86.52 112.75,-96.88 118.71,-93.21"/>
</g>
<!-- Node14 -->
<g id="node14" class="node">
<title>Node14</title>
<g id="a_node14"><a xlink:title=" ">
<polygon fill="none" stroke="#bfbfbf" points="303.5,-123.5 303.5,-142.5 443.5,-142.5 443.5,-123.5 303.5,-123.5"/>
<text text-anchor="middle" x="373.5" y="-130.5" font-family="Helvetica,sans-Serif" font-size="10.00">range/v3/range/traits.hpp</text>
</a>
</g>
</g>
<!-- Node4&#45;&gt;Node14 -->
<g id="edge17" class="edge">
<title>Node4&#45;&gt;Node14</title>
<path fill="none" stroke="midnightblue" d="M259.05,-179.4C284.33,-169.37 317.97,-156.03 342.23,-146.4"/>
<polygon fill="midnightblue" stroke="midnightblue" points="343.67,-149.6 351.67,-142.66 341.09,-143.09 343.67,-149.6"/>
</g>
<!-- Node6 -->
<g id="node6" class="node">
<title>Node6</title>
<g id="a_node6"><a xlink:title=" ">
<polygon fill="none" stroke="#bfbfbf" points="11,-0.5 11,-19.5 52,-19.5 52,-0.5 11,-0.5"/>
<text text-anchor="middle" x="31.5" y="-7.5" font-family="Helvetica,sans-Serif" font-size="10.00">tuple</text>
</a>
</g>
</g>
<!-- Node5&#45;&gt;Node6 -->
<g id="edge5" class="edge">
<title>Node5&#45;&gt;Node6</title>
<path fill="none" stroke="midnightblue" d="M161.83,-124.42C115.19,-117.35 56.53,-105.14 40.5,-87 26.92,-71.63 26.44,-47.16 28.21,-30.16"/>
<polygon fill="midnightblue" stroke="midnightblue" points="31.74,-30.17 29.65,-19.78 24.81,-29.2 31.74,-30.17"/>
</g>
<!-- Node7 -->
<g id="node7" class="node">
<title>Node7</title>
<g id="a_node7"><a xlink:title=" ">
<polygon fill="none" stroke="#bfbfbf" points="289,-0.5 289,-19.5 358,-19.5 358,-0.5 289,-0.5"/>
<text text-anchor="middle" x="323.5" y="-7.5" font-family="Helvetica,sans-Serif" font-size="10.00">type_traits</text>
</a>
</g>
</g>
<!-- Node5&#45;&gt;Node7 -->
<g id="edge6" class="edge">
<title>Node5&#45;&gt;Node7</title>
<path fill="none" stroke="midnightblue" d="M250.65,-123.36C268.51,-116.31 290.99,-104.61 304.5,-87 317.14,-70.52 321.46,-46.65 322.89,-30.07"/>
<polygon fill="midnightblue" stroke="midnightblue" points="326.39,-30.13 323.48,-19.94 319.41,-29.72 326.39,-30.13"/>
</g>
<!-- Node8 -->
<g id="node8" class="node">
<title>Node8</title>
<g id="a_node8"><a xlink:href="strongly__typed__numeric_8hpp.html" target="_top" xlink:title="Implementation of a strongly typed numeric helper.">
<polygon fill="none" stroke="black" points="351.5,-56.5 351.5,-86.5 509.5,-86.5 509.5,-56.5 351.5,-56.5"/>
<text text-anchor="start" x="359.5" y="-74.5" font-family="Helvetica,sans-Serif" font-size="10.00">beluga/type_traits</text>
<text text-anchor="middle" x="430.5" y="-63.5" font-family="Helvetica,sans-Serif" font-size="10.00">/strongly_typed_numeric.hpp</text>
</a>
</g>
</g>
<!-- Node5&#45;&gt;Node8 -->
<g id="edge7" class="edge">
<title>Node5&#45;&gt;Node8</title>
<path fill="none" stroke="midnightblue" d="M253.16,-123.48C284.08,-114.59 333.34,-100.43 372.1,-89.29"/>
<polygon fill="midnightblue" stroke="midnightblue" points="373.07,-92.65 381.71,-86.52 371.14,-85.92 373.07,-92.65"/>
</g>
<!-- Node5&#45;&gt;Node11 -->
<g id="edge11" class="edge">
<title>Node5&#45;&gt;Node11</title>
<path fill="none" stroke="midnightblue" d="M206.16,-123.48C189.01,-115.04 162.2,-101.86 140.14,-91.01"/>
<polygon fill="midnightblue" stroke="midnightblue" points="141.54,-87.79 131.02,-86.52 138.45,-94.08 141.54,-87.79"/>
</g>
<!-- Node13 -->
<g id="node13" class="node">
<title>Node13</title>
<g id="a_node13"><a xlink:href="forward__like_8hpp_source.html" target="_top" xlink:title=" ">
<polygon fill="none" stroke="black" points="173.5,-56.5 173.5,-86.5 295.5,-86.5 295.5,-56.5 173.5,-56.5"/>
<text text-anchor="start" x="181.5" y="-74.5" font-family="Helvetica,sans-Serif" font-size="10.00">beluga/utility/forward</text>
<text text-anchor="middle" x="234.5" y="-63.5" font-family="Helvetica,sans-Serif" font-size="10.00">_like.hpp</text>
</a>
</g>
</g>
<!-- Node5&#45;&gt;Node13 -->
<g id="edge15" class="edge">
<title>Node5&#45;&gt;Node13</title>
<path fill="none" stroke="midnightblue" d="M225.08,-123.48C226.38,-116.4 228.31,-105.97 230.08,-96.39"/>
<polygon fill="midnightblue" stroke="midnightblue" points="233.53,-96.99 231.91,-86.52 226.65,-95.72 233.53,-96.99"/>
</g>
<!-- Node8&#45;&gt;Node7 -->
<g id="edge10" class="edge">
<title>Node8&#45;&gt;Node7</title>
<path fill="none" stroke="midnightblue" d="M405.14,-56.4C387.83,-46.77 365.02,-34.09 347.92,-24.58"/>
<polygon fill="midnightblue" stroke="midnightblue" points="349.51,-21.46 339.07,-19.66 346.11,-27.58 349.51,-21.46"/>
</g>
<!-- Node9 -->
<g id="node9" class="node">
<title>Node9</title>
<g id="a_node9"><a xlink:title=" ">
<polygon fill="none" stroke="#bfbfbf" points="455,-0.5 455,-19.5 520,-19.5 520,-0.5 455,-0.5"/>
<text text-anchor="middle" x="487.5" y="-7.5" font-family="Helvetica,sans-Serif" font-size="10.00">functional</text>
</a>
</g>
</g>
<!-- Node8&#45;&gt;Node9 -->
<g id="edge8" class="edge">
<title>Node8&#45;&gt;Node9</title>
<path fill="none" stroke="midnightblue" d="M444.01,-56.4C452.46,-47.58 463.38,-36.18 472.16,-27.02"/>
<polygon fill="midnightblue" stroke="midnightblue" points="474.82,-29.3 479.21,-19.66 469.76,-24.46 474.82,-29.3"/>
</g>
<!-- Node10 -->
<g id="node10" class="node">
<title>Node10</title>
<g id="a_node10"><a xlink:title=" ">
<polygon fill="none" stroke="#bfbfbf" points="392.5,-0.5 392.5,-19.5 436.5,-19.5 436.5,-0.5 392.5,-0.5"/>
<text text-anchor="middle" x="414.5" y="-7.5" font-family="Helvetica,sans-Serif" font-size="10.00">limits</text>
</a>
</g>
</g>
<!-- Node8&#45;&gt;Node10 -->
<g id="edge9" class="edge">
<title>Node8&#45;&gt;Node10</title>
<path fill="none" stroke="midnightblue" d="M426.71,-56.4C424.55,-48.38 421.82,-38.23 419.49,-29.57"/>
<polygon fill="midnightblue" stroke="midnightblue" points="422.8,-28.41 416.83,-19.66 416.05,-30.22 422.8,-28.41"/>
</g>
<!-- Node11&#45;&gt;Node6 -->
<g id="edge12" class="edge">
<title>Node11&#45;&gt;Node6</title>
<path fill="none" stroke="midnightblue" d="M85.67,-56.4C74.83,-47.31 60.72,-35.49 49.63,-26.19"/>
<polygon fill="midnightblue" stroke="midnightblue" points="51.74,-23.4 41.83,-19.66 47.25,-28.76 51.74,-23.4"/>
</g>
<!-- Node11&#45;&gt;Node7 -->
<g id="edge13" class="edge">
<title>Node11&#45;&gt;Node7</title>
<path fill="none" stroke="midnightblue" d="M154.59,-56.47C193.55,-45.99 246.11,-31.84 282.19,-22.12"/>
<polygon fill="midnightblue" stroke="midnightblue" points="283.16,-25.49 291.9,-19.51 281.34,-18.73 283.16,-25.49"/>
</g>
<!-- Node12 -->
<g id="node12" class="node">
<title>Node12</title>
<g id="a_node12"><a xlink:title=" ">
<polygon fill="none" stroke="#bfbfbf" points="80,-0.5 80,-19.5 125,-19.5 125,-0.5 80,-0.5"/>
<text text-anchor="middle" x="102.5" y="-7.5" font-family="Helvetica,sans-Serif" font-size="10.00">utility</text>
</a>
</g>
</g>
<!-- Node11&#45;&gt;Node12 -->
<g id="edge14" class="edge">
<title>Node11&#45;&gt;Node12</title>
<path fill="none" stroke="midnightblue" d="M102.5,-56.4C102.5,-48.47 102.5,-38.46 102.5,-29.86"/>
<polygon fill="midnightblue" stroke="midnightblue" points="106,-29.66 102.5,-19.66 99,-29.66 106,-29.66"/>
</g>
</g>
</svg>
