<?xml version="1.0" encoding="UTF-8" standalone="no"?>
<!DOCTYPE svg PUBLIC "-//W3C//DTD SVG 1.1//EN"
 "http://www.w3.org/Graphics/SVG/1.1/DTD/svg11.dtd">
<!-- Generated by graphviz version 2.43.0 (0)
 -->
<!-- Title: /home/runner/work/beluga/beluga/beluga/include/beluga/type_traits/tuple_traits.hpp Pages: 1 -->
<!--zoomable 651 -->
<svg id="main" version="1.1" xmlns="http://www.w3.org/2000/svg" xmlns:xlink="http://www.w3.org/1999/xlink" xml:space="preserve" onload="init(evt)">
<style type="text/css"><![CDATA[
.edge:hover path { stroke: red; }
.edge:hover polygon { stroke: red; fill: red; }
]]></style>
<script type="text/javascript"><![CDATA[
var edges = document.getElementsByTagName('g');
if (edges && edges.length) {
  for (var i=0;i<edges.length;i++) {
    if (edges[i].id.substr(0,4)=='edge') {
      edges[i].setAttribute('class','edge');
    }
  }
}
]]></script>
        <defs>
                <circle id="rim" cx="0" cy="0" r="7"/>
                <circle id="rim2" cx="0" cy="0" r="3.5"/>
                <g id="zoomPlus">
                        <use xlink:href="#rim" fill="#404040">
                                <set attributeName="fill" to="#808080" begin="zoomplus.mouseover" end="zoomplus.mouseout"/>
                        </use>
                        <path d="M-4,0h8M0,-4v8" fill="none" stroke="white" stroke-width="1.5" pointer-events="none"/>
                </g>
                <g id="zoomMin">
                        <use xlink:href="#rim" fill="#404040">
                                <set attributeName="fill" to="#808080" begin="zoomminus.mouseover" end="zoomminus.mouseout"/>
                        </use>
                        <path d="M-4,0h8" fill="none" stroke="white" stroke-width="1.5" pointer-events="none"/>
                </g>
                <g id="dirArrow">
                        <path fill="none" stroke="white" stroke-width="1.5" d="M0,-3.0v7 M-2.5,-0.5L0,-3.0L2.5,-0.5"/>
                </g>
               <g id="resetDef">
                       <use xlink:href="#rim2" fill="#404040">
                               <set attributeName="fill" to="#808080" begin="reset.mouseover" end="reset.mouseout"/>
                       </use>
               </g>
        </defs>

<script type="text/javascript">
var viewWidth = 1576;
var viewHeight = 651;
var sectionId = 'dynsection-1';
</script>
<script xlink:href="svgpan.js"/>
<svg id="graph" class="graph">
<g id="viewport">
<title>/home/runner/work/beluga/beluga/beluga/include/beluga/type_traits/tuple_traits.hpp</title>
<!-- Node1 -->
<g id="node1" class="node">
<title>Node1</title>
<g id="a_node1"><a xlink:title="Implementation of traits for tuple&#45;like types.">
<polygon fill="#bfbfbf" stroke="black" points="452,-590.5 452,-642.5 597,-642.5 597,-590.5 452,-590.5"/>
<text text-anchor="start" x="460" y="-630.5" font-family="Helvetica,sans-Serif" font-size="10.00">/home/runner/work/beluga</text>
<text text-anchor="start" x="460" y="-619.5" font-family="Helvetica,sans-Serif" font-size="10.00">/beluga/beluga/include</text>
<text text-anchor="start" x="460" y="-608.5" font-family="Helvetica,sans-Serif" font-size="10.00">/beluga/type_traits/tuple</text>
<text text-anchor="middle" x="524.5" y="-597.5" font-family="Helvetica,sans-Serif" font-size="10.00">_traits.hpp</text>
</a>
</g>
</g>
<!-- Node2 -->
<g id="node2" class="node">
<title>Node2</title>
<g id="a_node2"><a xlink:href="differential__drive__model_8hpp.html" target="_top" xlink:title="Implementation of a differential drive odometry motion model.">
<polygon fill="none" stroke="black" points="10.5,-501.5 10.5,-553.5 156.5,-553.5 156.5,-501.5 10.5,-501.5"/>
<text text-anchor="start" x="18.5" y="-541.5" font-family="Helvetica,sans-Serif" font-size="10.00">/home/runner/work/beluga</text>
<text text-anchor="start" x="18.5" y="-530.5" font-family="Helvetica,sans-Serif" font-size="10.00">/beluga/beluga/include</text>
<text text-anchor="start" x="18.5" y="-519.5" font-family="Helvetica,sans-Serif" font-size="10.00">/beluga/motion/differential</text>
<text text-anchor="middle" x="83.5" y="-508.5" font-family="Helvetica,sans-Serif" font-size="10.00">_drive_model.hpp</text>
</a>
</g>
</g>
<!-- Node1&#45;&gt;Node2 -->
<g id="edge1" class="edge">
<title>Node1&#45;&gt;Node2</title>
<path fill="none" stroke="midnightblue" d="M441.88,-603.85C369.79,-593.05 262.62,-575.43 170.5,-554 166.05,-552.97 161.5,-551.84 156.92,-550.65"/>
<polygon fill="midnightblue" stroke="midnightblue" points="441.41,-607.32 451.81,-605.33 442.44,-600.4 441.41,-607.32"/>
</g>
<!-- Node6 -->
<g id="node6" class="node">
<title>Node6</title>
<g id="a_node6"><a xlink:href="omnidirectional__drive__model_8hpp.html" target="_top" xlink:title="Implementation of an omnidirectional drive odometry motion model.">
<polygon fill="none" stroke="black" points="179.5,-501.5 179.5,-553.5 349.5,-553.5 349.5,-501.5 179.5,-501.5"/>
<text text-anchor="start" x="187.5" y="-541.5" font-family="Helvetica,sans-Serif" font-size="10.00">/home/runner/work/beluga</text>
<text text-anchor="start" x="187.5" y="-530.5" font-family="Helvetica,sans-Serif" font-size="10.00">/beluga/beluga/include</text>
<text text-anchor="start" x="187.5" y="-519.5" font-family="Helvetica,sans-Serif" font-size="10.00">/beluga/motion/omnidirectional</text>
<text text-anchor="middle" x="264.5" y="-508.5" font-family="Helvetica,sans-Serif" font-size="10.00">_drive_model.hpp</text>
</a>
</g>
</g>
<!-- Node1&#45;&gt;Node6 -->
<g id="edge5" class="edge">
<title>Node1&#45;&gt;Node6</title>
<path fill="none" stroke="midnightblue" d="M442.14,-587.94C409.25,-576.93 371.64,-564.35 339.52,-553.6"/>
<polygon fill="midnightblue" stroke="midnightblue" points="441.14,-591.3 451.73,-591.15 443.36,-584.66 441.14,-591.3"/>
</g>
<!-- Node7 -->
<g id="node7" class="node">
<title>Node7</title>
<g id="a_node7"><a xlink:href="stationary__model_8hpp.html" target="_top" xlink:title="Implementation of a stationary motion model.">
<polygon fill="none" stroke="black" points="371,-501.5 371,-553.5 516,-553.5 516,-501.5 371,-501.5"/>
<text text-anchor="start" x="379" y="-541.5" font-family="Helvetica,sans-Serif" font-size="10.00">/home/runner/work/beluga</text>
<text text-anchor="start" x="379" y="-530.5" font-family="Helvetica,sans-Serif" font-size="10.00">/beluga/beluga/include</text>
<text text-anchor="start" x="379" y="-519.5" font-family="Helvetica,sans-Serif" font-size="10.00">/beluga/motion/stationary</text>
<text text-anchor="middle" x="443.5" y="-508.5" font-family="Helvetica,sans-Serif" font-size="10.00">_model.hpp</text>
</a>
</g>
</g>
<!-- Node1&#45;&gt;Node7 -->
<g id="edge7" class="edge">
<title>Node1&#45;&gt;Node7</title>
<path fill="none" stroke="midnightblue" d="M494.05,-582.79C485.05,-573.13 475.35,-562.71 466.88,-553.61"/>
<polygon fill="midnightblue" stroke="midnightblue" points="491.7,-585.4 501.07,-590.34 496.82,-580.63 491.7,-585.4"/>
</g>
<!-- Node8 -->
<g id="node8" class="node">
<title>Node8</title>
<g id="a_node8"><a xlink:href="primitives_8hpp.html" target="_top" xlink:title="Implementation of library primitives to abstract member access.">
<polygon fill="none" stroke="black" points="535,-507 535,-548 680,-548 680,-507 535,-507"/>
<text text-anchor="start" x="543" y="-536" font-family="Helvetica,sans-Serif" font-size="10.00">/home/runner/work/beluga</text>
<text text-anchor="start" x="543" y="-525" font-family="Helvetica,sans-Serif" font-size="10.00">/beluga/beluga/include</text>
<text text-anchor="middle" x="607.5" y="-514" font-family="Helvetica,sans-Serif" font-size="10.00">/beluga/primitives.hpp</text>
</a>
</g>
</g>
<!-- Node1&#45;&gt;Node8 -->
<g id="edge9" class="edge">
<title>Node1&#45;&gt;Node8</title>
<path fill="none" stroke="midnightblue" d="M555.65,-582.85C566.81,-571.15 579.04,-558.33 588.82,-548.08"/>
<polygon fill="midnightblue" stroke="midnightblue" points="552.88,-580.68 548.51,-590.34 557.94,-585.52 552.88,-580.68"/>
</g>
<!-- Node9 -->
<g id="node9" class="node">
<title>Node9</title>
<g id="a_node9"><a xlink:href="particle__traits_8hpp.html" target="_top" xlink:title="Implementation of traits for particle types, see the Particle named requirements.">
<polygon fill="none" stroke="black" points="701.5,-412.5 701.5,-464.5 849.5,-464.5 849.5,-412.5 701.5,-412.5"/>
<text text-anchor="start" x="709.5" y="-452.5" font-family="Helvetica,sans-Serif" font-size="10.00">/home/runner/work/beluga</text>
<text text-anchor="start" x="709.5" y="-441.5" font-family="Helvetica,sans-Serif" font-size="10.00">/beluga/beluga/include</text>
<text text-anchor="start" x="709.5" y="-430.5" font-family="Helvetica,sans-Serif" font-size="10.00">/beluga/type_traits/particle</text>
<text text-anchor="middle" x="775.5" y="-419.5" font-family="Helvetica,sans-Serif" font-size="10.00">_traits.hpp</text>
</a>
</g>
</g>
<!-- Node1&#45;&gt;Node9 -->
<g id="edge45" class="edge">
<title>Node1&#45;&gt;Node9</title>
<path fill="none" stroke="midnightblue" d="M606.95,-595C634.91,-585.5 665.18,-572.17 689.5,-554 721.76,-529.89 747.63,-490.45 762.28,-464.73"/>
<polygon fill="midnightblue" stroke="midnightblue" points="605.59,-591.77 597.18,-598.21 607.77,-598.42 605.59,-591.77"/>
</g>
<!-- Node19 -->
<g id="node19" class="node">
<title>Node19</title>
<g id="a_node19"><a xlink:href="type__traits_8hpp.html" target="_top" xlink:title="Includes all Beluga type traits.">
<polygon fill="none" stroke="black" points="1423,-329 1423,-370 1568,-370 1568,-329 1423,-329"/>
<text text-anchor="start" x="1431" y="-358" font-family="Helvetica,sans-Serif" font-size="10.00">/home/runner/work/beluga</text>
<text text-anchor="start" x="1431" y="-347" font-family="Helvetica,sans-Serif" font-size="10.00">/beluga/beluga/include</text>
<text text-anchor="middle" x="1495.5" y="-336" font-family="Helvetica,sans-Serif" font-size="10.00">/beluga/type_traits.hpp</text>
</a>
</g>
</g>
<!-- Node1&#45;&gt;Node19 -->
<g id="edge46" class="edge">
<title>Node1&#45;&gt;Node19</title>
<path fill="none" stroke="midnightblue" d="M607.28,-594.47C764.94,-554.13 1118.96,-462.24 1414.5,-376 1420.87,-374.14 1427.5,-372.15 1434.11,-370.13"/>
<polygon fill="midnightblue" stroke="midnightblue" points="606,-591.18 597.18,-597.05 607.73,-597.96 606,-591.18"/>
</g>
<!-- Node3 -->
<g id="node3" class="node">
<title>Node3</title>
<g id="a_node3"><a xlink:href="motion_8hpp.html" target="_top" xlink:title="Includes all Beluga motion models.">
<polygon fill="none" stroke="black" points="0,-418 0,-459 145,-459 145,-418 0,-418"/>
<text text-anchor="start" x="8" y="-447" font-family="Helvetica,sans-Serif" font-size="10.00">/home/runner/work/beluga</text>
<text text-anchor="start" x="8" y="-436" font-family="Helvetica,sans-Serif" font-size="10.00">/beluga/beluga/include</text>
<text text-anchor="middle" x="72.5" y="-425" font-family="Helvetica,sans-Serif" font-size="10.00">/beluga/motion.hpp</text>
</a>
</g>
</g>
<!-- Node2&#45;&gt;Node3 -->
<g id="edge2" class="edge">
<title>Node2&#45;&gt;Node3</title>
<path fill="none" stroke="midnightblue" d="M79.03,-491.16C77.65,-480.21 76.17,-468.55 74.98,-459.08"/>
<polygon fill="midnightblue" stroke="midnightblue" points="75.59,-491.85 80.32,-501.34 82.54,-490.98 75.59,-491.85"/>
</g>
<!-- Node4 -->
<g id="node4" class="node">
<title>Node4</title>
<g id="a_node4"><a xlink:href="beluga_8hpp.html" target="_top" xlink:title="Includes all the Beluga API.">
<polygon fill="none" stroke="black" points="826,-78.5 826,-119.5 971,-119.5 971,-78.5 826,-78.5"/>
<text text-anchor="start" x="834" y="-107.5" font-family="Helvetica,sans-Serif" font-size="10.00">/home/runner/work/beluga</text>
<text text-anchor="start" x="834" y="-96.5" font-family="Helvetica,sans-Serif" font-size="10.00">/beluga/beluga/include</text>
<text text-anchor="middle" x="898.5" y="-85.5" font-family="Helvetica,sans-Serif" font-size="10.00">/beluga/beluga.hpp</text>
</a>
</g>
</g>
<!-- Node3&#45;&gt;Node4 -->
<g id="edge3" class="edge">
<title>Node3&#45;&gt;Node4</title>
<path fill="none" stroke="midnightblue" d="M64.2,-408.07C49.97,-350.53 28.56,-222.9 96.5,-156 147.84,-105.44 638.19,-100.01 825.9,-99.8"/>
<polygon fill="midnightblue" stroke="midnightblue" points="60.87,-409.16 66.75,-417.97 67.64,-407.41 60.87,-409.16"/>
</g>
<!-- Node5 -->
<g id="node5" class="node">
<title>Node5</title>
<g id="a_node5"><a xlink:href="amcl__core_8hpp_source.html" target="_top" xlink:title=" ">
<polygon fill="none" stroke="black" points="810,-0.5 810,-41.5 987,-41.5 987,-0.5 810,-0.5"/>
<text text-anchor="start" x="818" y="-29.5" font-family="Helvetica,sans-Serif" font-size="10.00">/home/runner/work/beluga</text>
<text text-anchor="start" x="818" y="-18.5" font-family="Helvetica,sans-Serif" font-size="10.00">/beluga/beluga/include</text>
<text text-anchor="middle" x="898.5" y="-7.5" font-family="Helvetica,sans-Serif" font-size="10.00">/beluga/algorithm/amcl_core.hpp</text>
</a>
</g>
</g>
<!-- Node4&#45;&gt;Node5 -->
<g id="edge4" class="edge">
<title>Node4&#45;&gt;Node5</title>
<path fill="none" stroke="midnightblue" d="M898.5,-68.3C898.5,-59.3 898.5,-49.65 898.5,-41.51"/>
<polygon fill="midnightblue" stroke="midnightblue" points="895,-68.43 898.5,-78.43 902,-68.43 895,-68.43"/>
</g>
<!-- Node6&#45;&gt;Node3 -->
<g id="edge6" class="edge">
<title>Node6&#45;&gt;Node3</title>
<path fill="none" stroke="midnightblue" d="M200,-497.27C172.29,-484.72 140.66,-470.38 115.83,-459.13"/>
<polygon fill="midnightblue" stroke="midnightblue" points="198.67,-500.51 209.22,-501.45 201.56,-494.14 198.67,-500.51"/>
</g>
<!-- Node7&#45;&gt;Node3 -->
<g id="edge8" class="edge">
<title>Node7&#45;&gt;Node3</title>
<path fill="none" stroke="midnightblue" d="M360.78,-501.55C360.02,-501.37 359.26,-501.18 358.5,-501 271.09,-480.05 246.97,-485.67 159.5,-465 151.99,-463.23 144.17,-461.2 136.44,-459.08"/>
<polygon fill="midnightblue" stroke="midnightblue" points="360.29,-505.04 370.85,-504.12 362.02,-498.26 360.29,-505.04"/>
</g>
<!-- Node8&#45;&gt;Node4 -->
<g id="edge10" class="edge">
<title>Node8&#45;&gt;Node4</title>
<path fill="none" stroke="midnightblue" d="M535.39,-503.94C402.03,-462.21 130.28,-377.06 129.5,-376 115.57,-357.01 115.62,-342.03 129.5,-323 212.93,-208.57 650.68,-135.03 825.9,-109.78"/>
<polygon fill="midnightblue" stroke="midnightblue" points="534.54,-507.35 545.13,-506.99 536.63,-500.66 534.54,-507.35"/>
</g>
<!-- Node8&#45;&gt;Node9 -->
<g id="edge11" class="edge">
<title>Node8&#45;&gt;Node9</title>
<path fill="none" stroke="midnightblue" d="M654.29,-502.27C676.97,-490.53 704.17,-476.44 727.06,-464.58"/>
<polygon fill="midnightblue" stroke="midnightblue" points="652.47,-499.27 645.2,-506.98 655.69,-505.48 652.47,-499.27"/>
</g>
<!-- Node25 -->
<g id="node25" class="node">
<title>Node25</title>
<g id="a_node25"><a xlink:href="particles_8hpp.html" target="_top" xlink:title="Implementation of views related to particle ranges.">
<polygon fill="none" stroke="black" points="532.5,-418 532.5,-459 682.5,-459 682.5,-418 532.5,-418"/>
<text text-anchor="start" x="540.5" y="-447" font-family="Helvetica,sans-Serif" font-size="10.00">/home/runner/work/beluga</text>
<text text-anchor="start" x="540.5" y="-436" font-family="Helvetica,sans-Serif" font-size="10.00">/beluga/beluga/include</text>
<text text-anchor="middle" x="607.5" y="-425" font-family="Helvetica,sans-Serif" font-size="10.00">/beluga/views/particles.hpp</text>
</a>
</g>
</g>
<!-- Node8&#45;&gt;Node25 -->
<g id="edge37" class="edge">
<title>Node8&#45;&gt;Node25</title>
<path fill="none" stroke="midnightblue" d="M607.5,-496.44C607.5,-484.1 607.5,-470.16 607.5,-459.16"/>
<polygon fill="midnightblue" stroke="midnightblue" points="604,-496.76 607.5,-506.76 611,-496.76 604,-496.76"/>
</g>
<!-- Node10 -->
<g id="node10" class="node">
<title>Node10</title>
<g id="a_node10"><a xlink:href="normalize_8hpp.html" target="_top" xlink:title="Implementation of the normalize range adaptor object.">
<polygon fill="none" stroke="black" points="496.5,-329 496.5,-370 660.5,-370 660.5,-329 496.5,-329"/>
<text text-anchor="start" x="504.5" y="-358" font-family="Helvetica,sans-Serif" font-size="10.00">/home/runner/work/beluga</text>
<text text-anchor="start" x="504.5" y="-347" font-family="Helvetica,sans-Serif" font-size="10.00">/beluga/beluga/include</text>
<text text-anchor="middle" x="578.5" y="-336" font-family="Helvetica,sans-Serif" font-size="10.00">/beluga/actions/normalize.hpp</text>
</a>
</g>
</g>
<!-- Node9&#45;&gt;Node10 -->
<g id="edge12" class="edge">
<title>Node9&#45;&gt;Node10</title>
<path fill="none" stroke="midnightblue" d="M709.32,-408.27C680.89,-395.72 648.43,-381.38 622.96,-370.13"/>
<polygon fill="midnightblue" stroke="midnightblue" points="708.22,-411.61 718.78,-412.45 711.05,-405.21 708.22,-411.61"/>
</g>
<!-- Node12 -->
<g id="node12" class="node">
<title>Node12</title>
<g id="a_node12"><a xlink:href="propagate_8hpp.html" target="_top" xlink:title="Implementation of the propagate range adaptor object.">
<polygon fill="none" stroke="black" points="138.5,-329 138.5,-370 302.5,-370 302.5,-329 138.5,-329"/>
<text text-anchor="start" x="146.5" y="-358" font-family="Helvetica,sans-Serif" font-size="10.00">/home/runner/work/beluga</text>
<text text-anchor="start" x="146.5" y="-347" font-family="Helvetica,sans-Serif" font-size="10.00">/beluga/beluga/include</text>
<text text-anchor="middle" x="220.5" y="-336" font-family="Helvetica,sans-Serif" font-size="10.00">/beluga/actions/propagate.hpp</text>
</a>
</g>
</g>
<!-- Node9&#45;&gt;Node12 -->
<g id="edge15" class="edge">
<title>Node9&#45;&gt;Node12</title>
<path fill="none" stroke="midnightblue" d="M691.13,-412.13C523.23,-380.23 475.11,-406.42 311.5,-376 302.79,-374.38 293.7,-372.31 284.79,-370.05"/>
<polygon fill="midnightblue" stroke="midnightblue" points="690.56,-415.58 701.04,-414.05 691.89,-408.71 690.56,-415.58"/>
</g>
<!-- Node13 -->
<g id="node13" class="node">
<title>Node13</title>
<g id="a_node13"><a xlink:href="reweight_8hpp.html" target="_top" xlink:title="Implementation of the reweight range adaptor object.">
<polygon fill="none" stroke="black" points="320.5,-329 320.5,-370 478.5,-370 478.5,-329 320.5,-329"/>
<text text-anchor="start" x="328.5" y="-358" font-family="Helvetica,sans-Serif" font-size="10.00">/home/runner/work/beluga</text>
<text text-anchor="start" x="328.5" y="-347" font-family="Helvetica,sans-Serif" font-size="10.00">/beluga/beluga/include</text>
<text text-anchor="middle" x="399.5" y="-336" font-family="Helvetica,sans-Serif" font-size="10.00">/beluga/actions/reweight.hpp</text>
</a>
</g>
</g>
<!-- Node9&#45;&gt;Node13 -->
<g id="edge17" class="edge">
<title>Node9&#45;&gt;Node13</title>
<path fill="none" stroke="midnightblue" d="M691.81,-412.07C691.7,-412.05 691.6,-412.02 691.5,-412 601.96,-390.59 577.18,-396.84 487.5,-376 479.91,-374.24 472,-372.21 464.17,-370.09"/>
<polygon fill="midnightblue" stroke="midnightblue" points="690.88,-415.45 701.43,-414.49 692.58,-408.66 690.88,-415.45"/>
</g>
<!-- Node14 -->
<g id="node14" class="node">
<title>Node14</title>
<g id="a_node14"><a xlink:href="effective__sample__size_8hpp.html" target="_top" xlink:title="Implementation of an algorithm to calculate the effective sample size (ESS).">
<polygon fill="none" stroke="black" points="892,-323.5 892,-375.5 1041,-375.5 1041,-323.5 892,-323.5"/>
<text text-anchor="start" x="900" y="-363.5" font-family="Helvetica,sans-Serif" font-size="10.00">/home/runner/work/beluga</text>
<text text-anchor="start" x="900" y="-352.5" font-family="Helvetica,sans-Serif" font-size="10.00">/beluga/beluga/include</text>
<text text-anchor="start" x="900" y="-341.5" font-family="Helvetica,sans-Serif" font-size="10.00">/beluga/algorithm/effective</text>
<text text-anchor="middle" x="966.5" y="-330.5" font-family="Helvetica,sans-Serif" font-size="10.00">_sample_size.hpp</text>
</a>
</g>
</g>
<!-- Node9&#45;&gt;Node14 -->
<g id="edge19" class="edge">
<title>Node9&#45;&gt;Node14</title>
<path fill="none" stroke="midnightblue" d="M839.62,-408.29C862.95,-397.67 889.1,-385.76 911.57,-375.52"/>
<polygon fill="midnightblue" stroke="midnightblue" points="838.14,-405.12 830.49,-412.45 841.04,-411.49 838.14,-405.12"/>
</g>
<!-- Node18 -->
<g id="node18" class="node">
<title>Node18</title>
<g id="a_node18"><a xlink:href="thrun__recovery__probability__estimator_8hpp_source.html" target="_top" xlink:title=" ">
<polygon fill="none" stroke="black" points="679,-323.5 679,-375.5 874,-375.5 874,-323.5 679,-323.5"/>
<text text-anchor="start" x="687" y="-363.5" font-family="Helvetica,sans-Serif" font-size="10.00">/home/runner/work/beluga</text>
<text text-anchor="start" x="687" y="-352.5" font-family="Helvetica,sans-Serif" font-size="10.00">/beluga/beluga/include</text>
<text text-anchor="start" x="687" y="-341.5" font-family="Helvetica,sans-Serif" font-size="10.00">/beluga/algorithm/thrun</text>
<text text-anchor="middle" x="776.5" y="-330.5" font-family="Helvetica,sans-Serif" font-size="10.00">_recovery_probability_estimator.hpp</text>
</a>
</g>
</g>
<!-- Node9&#45;&gt;Node18 -->
<g id="edge25" class="edge">
<title>Node9&#45;&gt;Node18</title>
<path fill="none" stroke="midnightblue" d="M775.91,-402.19C776.01,-393.28 776.12,-383.9 776.21,-375.61"/>
<polygon fill="midnightblue" stroke="midnightblue" points="772.4,-402.3 775.79,-412.34 779.4,-402.38 772.4,-402.3"/>
</g>
<!-- Node9&#45;&gt;Node19 -->
<g id="edge27" class="edge">
<title>Node9&#45;&gt;Node19</title>
<path fill="none" stroke="midnightblue" d="M859.73,-431.59C1008.21,-420.81 1310.6,-397.11 1414.5,-376 1422.3,-374.41 1430.42,-372.36 1438.36,-370.11"/>
<polygon fill="midnightblue" stroke="midnightblue" points="859.47,-428.1 849.75,-432.31 859.97,-435.08 859.47,-428.1"/>
</g>
<!-- Node22 -->
<g id="node22" class="node">
<title>Node22</title>
<g id="a_node22"><a xlink:href="sample_8hpp.html" target="_top" xlink:title="Implementation of a sample (with replacement) range adaptor object.">
<polygon fill="none" stroke="black" points="1097,-329 1097,-370 1242,-370 1242,-329 1097,-329"/>
<text text-anchor="start" x="1105" y="-358" font-family="Helvetica,sans-Serif" font-size="10.00">/home/runner/work/beluga</text>
<text text-anchor="start" x="1105" y="-347" font-family="Helvetica,sans-Serif" font-size="10.00">/beluga/beluga/include</text>
<text text-anchor="middle" x="1169.5" y="-336" font-family="Helvetica,sans-Serif" font-size="10.00">/beluga/views/sample.hpp</text>
</a>
</g>
</g>
<!-- Node9&#45;&gt;Node22 -->
<g id="edge32" class="edge">
<title>Node9&#45;&gt;Node22</title>
<path fill="none" stroke="midnightblue" d="M859.83,-422.66C921.76,-411.27 1007.75,-394.4 1082.5,-376 1089.84,-374.19 1097.48,-372.17 1105.06,-370.07"/>
<polygon fill="midnightblue" stroke="midnightblue" points="858.93,-419.27 849.72,-424.51 860.19,-426.15 858.93,-419.27"/>
</g>
<!-- Node24 -->
<g id="node24" class="node">
<title>Node24</title>
<g id="a_node24"><a xlink:href="take__while__kld_8hpp.html" target="_top" xlink:title="Implementation of a take_while_kld range adaptor object.">
<polygon fill="none" stroke="black" points="1260,-323.5 1260,-375.5 1405,-375.5 1405,-323.5 1260,-323.5"/>
<text text-anchor="start" x="1268" y="-363.5" font-family="Helvetica,sans-Serif" font-size="10.00">/home/runner/work/beluga</text>
<text text-anchor="start" x="1268" y="-352.5" font-family="Helvetica,sans-Serif" font-size="10.00">/beluga/beluga/include</text>
<text text-anchor="start" x="1268" y="-341.5" font-family="Helvetica,sans-Serif" font-size="10.00">/beluga/views/take_while</text>
<text text-anchor="middle" x="1332.5" y="-330.5" font-family="Helvetica,sans-Serif" font-size="10.00">_kld.hpp</text>
</a>
</g>
</g>
<!-- Node9&#45;&gt;Node24 -->
<g id="edge35" class="edge">
<title>Node9&#45;&gt;Node24</title>
<path fill="none" stroke="midnightblue" d="M859.79,-431.14C955.53,-422.86 1116.06,-405.82 1251.5,-376 1254.24,-375.4 1257.01,-374.74 1259.81,-374.05"/>
<polygon fill="midnightblue" stroke="midnightblue" points="859.25,-427.67 849.58,-432.01 859.85,-434.64 859.25,-427.67"/>
</g>
<!-- Node11 -->
<g id="node11" class="node">
<title>Node11</title>
<g id="a_node11"><a xlink:href="actions_8hpp.html" target="_top" xlink:title="Implementation of useful range actions.">
<polygon fill="none" stroke="black" points="416,-240 416,-281 561,-281 561,-240 416,-240"/>
<text text-anchor="start" x="424" y="-269" font-family="Helvetica,sans-Serif" font-size="10.00">/home/runner/work/beluga</text>
<text text-anchor="start" x="424" y="-258" font-family="Helvetica,sans-Serif" font-size="10.00">/beluga/beluga/include</text>
<text text-anchor="middle" x="488.5" y="-247" font-family="Helvetica,sans-Serif" font-size="10.00">/beluga/actions.hpp</text>
</a>
</g>
</g>
<!-- Node10&#45;&gt;Node11 -->
<g id="edge13" class="edge">
<title>Node10&#45;&gt;Node11</title>
<path fill="none" stroke="midnightblue" d="M550.84,-321.76C537.29,-308.66 521.25,-293.16 508.84,-281.16"/>
<polygon fill="midnightblue" stroke="midnightblue" points="548.46,-324.32 558.08,-328.76 553.32,-319.29 548.46,-324.32"/>
</g>
<!-- Node11&#45;&gt;Node4 -->
<g id="edge14" class="edge">
<title>Node11&#45;&gt;Node4</title>
<path fill="none" stroke="midnightblue" d="M548.33,-236.22C629.31,-204.72 772.36,-149.07 848.14,-119.59"/>
<polygon fill="midnightblue" stroke="midnightblue" points="546.82,-233.05 538.77,-239.94 549.36,-239.58 546.82,-233.05"/>
</g>
<!-- Node12&#45;&gt;Node11 -->
<g id="edge16" class="edge">
<title>Node12&#45;&gt;Node11</title>
<path fill="none" stroke="midnightblue" d="M290.41,-325.81C333.14,-311.94 387.23,-294.37 428.09,-281.11"/>
<polygon fill="midnightblue" stroke="midnightblue" points="289.08,-322.56 280.64,-328.98 291.24,-329.22 289.08,-322.56"/>
</g>
<!-- Node13&#45;&gt;Node11 -->
<g id="edge18" class="edge">
<title>Node13&#45;&gt;Node11</title>
<path fill="none" stroke="midnightblue" d="M426.85,-321.76C440.26,-308.66 456.11,-293.16 468.38,-281.16"/>
<polygon fill="midnightblue" stroke="midnightblue" points="424.4,-319.27 419.7,-328.76 429.29,-324.27 424.4,-319.27"/>
</g>
<!-- Node15 -->
<g id="node15" class="node">
<title>Node15</title>
<g id="a_node15"><a xlink:href="algorithm_8hpp.html" target="_top" xlink:title="Includes all beluga algorithms.">
<polygon fill="none" stroke="black" points="725,-240 725,-281 870,-281 870,-240 725,-240"/>
<text text-anchor="start" x="733" y="-269" font-family="Helvetica,sans-Serif" font-size="10.00">/home/runner/work/beluga</text>
<text text-anchor="start" x="733" y="-258" font-family="Helvetica,sans-Serif" font-size="10.00">/beluga/beluga/include</text>
<text text-anchor="middle" x="797.5" y="-247" font-family="Helvetica,sans-Serif" font-size="10.00">/beluga/algorithm.hpp</text>
</a>
</g>
</g>
<!-- Node14&#45;&gt;Node15 -->
<g id="edge20" class="edge">
<title>Node14&#45;&gt;Node15</title>
<path fill="none" stroke="midnightblue" d="M908.54,-318.66C884.41,-306.24 857.06,-292.16 835.54,-281.08"/>
<polygon fill="midnightblue" stroke="midnightblue" points="907.13,-321.87 917.62,-323.34 910.33,-315.65 907.13,-321.87"/>
</g>
<!-- Node16 -->
<g id="node16" class="node">
<title>Node16</title>
<g id="a_node16"><a xlink:href="on__effective__size__drop_8hpp.html" target="_top" xlink:title="Defines a policy for triggering an action based on the Effective Sample Size (ESS) metric.">
<polygon fill="none" stroke="black" points="888.5,-234.5 888.5,-286.5 1044.5,-286.5 1044.5,-234.5 888.5,-234.5"/>
<text text-anchor="start" x="896.5" y="-274.5" font-family="Helvetica,sans-Serif" font-size="10.00">/home/runner/work/beluga</text>
<text text-anchor="start" x="896.5" y="-263.5" font-family="Helvetica,sans-Serif" font-size="10.00">/beluga/beluga/include</text>
<text text-anchor="start" x="896.5" y="-252.5" font-family="Helvetica,sans-Serif" font-size="10.00">/beluga/policies/on_effective</text>
<text text-anchor="middle" x="966.5" y="-241.5" font-family="Helvetica,sans-Serif" font-size="10.00">_size_drop.hpp</text>
</a>
</g>
</g>
<!-- Node14&#45;&gt;Node16 -->
<g id="edge22" class="edge">
<title>Node14&#45;&gt;Node16</title>
<path fill="none" stroke="midnightblue" d="M966.5,-313.19C966.5,-304.28 966.5,-294.9 966.5,-286.61"/>
<polygon fill="midnightblue" stroke="midnightblue" points="963,-313.34 966.5,-323.34 970,-313.34 963,-313.34"/>
</g>
<!-- Node15&#45;&gt;Node4 -->
<g id="edge21" class="edge">
<title>Node15&#45;&gt;Node4</title>
<path fill="none" stroke="midnightblue" d="M810.52,-230.54C820.59,-209.24 835.47,-179.96 851.5,-156 860.04,-143.23 871.01,-130.03 880.2,-119.64"/>
<polygon fill="midnightblue" stroke="midnightblue" points="807.3,-229.17 806.25,-239.71 813.64,-232.12 807.3,-229.17"/>
</g>
<!-- Node17 -->
<g id="node17" class="node">
<title>Node17</title>
<g id="a_node17"><a xlink:href="policies_8hpp.html" target="_top" xlink:title="Implementation of useful policies.">
<polygon fill="none" stroke="black" points="860,-156.5 860,-197.5 1005,-197.5 1005,-156.5 860,-156.5"/>
<text text-anchor="start" x="868" y="-185.5" font-family="Helvetica,sans-Serif" font-size="10.00">/home/runner/work/beluga</text>
<text text-anchor="start" x="868" y="-174.5" font-family="Helvetica,sans-Serif" font-size="10.00">/beluga/beluga/include</text>
<text text-anchor="middle" x="932.5" y="-163.5" font-family="Helvetica,sans-Serif" font-size="10.00">/beluga/policies.hpp</text>
</a>
</g>
</g>
<!-- Node16&#45;&gt;Node17 -->
<g id="edge23" class="edge">
<title>Node16&#45;&gt;Node17</title>
<path fill="none" stroke="midnightblue" d="M952,-224.73C948.13,-215.46 944.08,-205.77 940.69,-197.63"/>
<polygon fill="midnightblue" stroke="midnightblue" points="948.85,-226.28 955.93,-234.16 955.31,-223.58 948.85,-226.28"/>
</g>
<!-- Node17&#45;&gt;Node4 -->
<g id="edge24" class="edge">
<title>Node17&#45;&gt;Node4</title>
<path fill="none" stroke="midnightblue" d="M919.6,-147.17C915.47,-137.93 910.99,-127.92 907.23,-119.51"/>
<polygon fill="midnightblue" stroke="midnightblue" points="916.47,-148.73 923.74,-156.43 922.86,-145.87 916.47,-148.73"/>
</g>
<!-- Node18&#45;&gt;Node15 -->
<g id="edge26" class="edge">
<title>Node18&#45;&gt;Node15</title>
<path fill="none" stroke="midnightblue" d="M784.95,-313.49C787.62,-302.45 790.46,-290.65 792.77,-281.08"/>
<polygon fill="midnightblue" stroke="midnightblue" points="781.52,-312.79 782.57,-323.34 788.32,-314.44 781.52,-312.79"/>
</g>
<!-- Node19&#45;&gt;Node4 -->
<g id="edge28" class="edge">
<title>Node19&#45;&gt;Node4</title>
<path fill="none" stroke="midnightblue" d="M1444.49,-324.58C1363.33,-286.86 1199.47,-212.1 1057.5,-156 1024.7,-143.04 987.55,-129.87 957.41,-119.56"/>
<polygon fill="midnightblue" stroke="midnightblue" points="1443.42,-327.94 1453.97,-328.99 1446.38,-321.6 1443.42,-327.94"/>
</g>
<!-- Node20 -->
<g id="node20" class="node">
<title>Node20</title>
<g id="a_node20"><a xlink:href="tuple__vector_8hpp.html" target="_top" xlink:title="Implementation of a tuple of containers.">
<polygon fill="none" stroke="black" points="1411,-234.5 1411,-286.5 1556,-286.5 1556,-234.5 1411,-234.5"/>
<text text-anchor="start" x="1419" y="-274.5" font-family="Helvetica,sans-Serif" font-size="10.00">/home/runner/work/beluga</text>
<text text-anchor="start" x="1419" y="-263.5" font-family="Helvetica,sans-Serif" font-size="10.00">/beluga/beluga/include</text>
<text text-anchor="start" x="1419" y="-252.5" font-family="Helvetica,sans-Serif" font-size="10.00">/beluga/containers/tuple</text>
<text text-anchor="middle" x="1483.5" y="-241.5" font-family="Helvetica,sans-Serif" font-size="10.00">_vector.hpp</text>
</a>
</g>
</g>
<!-- Node19&#45;&gt;Node20 -->
<g id="edge29" class="edge">
<title>Node19&#45;&gt;Node20</title>
<path fill="none" stroke="midnightblue" d="M1491.41,-318.84C1489.97,-308.42 1488.37,-296.81 1486.99,-286.79"/>
<polygon fill="midnightblue" stroke="midnightblue" points="1487.94,-319.33 1492.78,-328.76 1494.88,-318.37 1487.94,-319.33"/>
</g>
<!-- Node21 -->
<g id="node21" class="node">
<title>Node21</title>
<g id="a_node21"><a xlink:href="containers_8hpp.html" target="_top" xlink:title="Implementation of efficient containers.">
<polygon fill="none" stroke="black" points="1332,-156.5 1332,-197.5 1477,-197.5 1477,-156.5 1332,-156.5"/>
<text text-anchor="start" x="1340" y="-185.5" font-family="Helvetica,sans-Serif" font-size="10.00">/home/runner/work/beluga</text>
<text text-anchor="start" x="1340" y="-174.5" font-family="Helvetica,sans-Serif" font-size="10.00">/beluga/beluga/include</text>
<text text-anchor="middle" x="1404.5" y="-163.5" font-family="Helvetica,sans-Serif" font-size="10.00">/beluga/containers.hpp</text>
</a>
</g>
</g>
<!-- Node20&#45;&gt;Node21 -->
<g id="edge30" class="edge">
<title>Node20&#45;&gt;Node21</title>
<path fill="none" stroke="midnightblue" d="M1451.78,-226.78C1442.21,-216.9 1432,-206.37 1423.53,-197.63"/>
<polygon fill="midnightblue" stroke="midnightblue" points="1449.46,-229.42 1458.94,-234.16 1454.49,-224.54 1449.46,-229.42"/>
</g>
<!-- Node21&#45;&gt;Node4 -->
<g id="edge31" class="edge">
<title>Node21&#45;&gt;Node4</title>
<path fill="none" stroke="midnightblue" d="M1321.96,-162.76C1307.48,-160.48 1292.55,-158.15 1278.5,-156 1171.55,-139.63 1047.53,-121.52 971.03,-110.44"/>
<polygon fill="midnightblue" stroke="midnightblue" points="1321.47,-166.23 1331.9,-164.33 1322.57,-159.32 1321.47,-166.23"/>
</g>
<!-- Node23 -->
<g id="node23" class="node">
<title>Node23</title>
<g id="a_node23"><a xlink:href="views_8hpp.html" target="_top" xlink:title="Implementation of useful container views.">
<polygon fill="none" stroke="black" points="1080,-240 1080,-281 1225,-281 1225,-240 1080,-240"/>
<text text-anchor="start" x="1088" y="-269" font-family="Helvetica,sans-Serif" font-size="10.00">/home/runner/work/beluga</text>
<text text-anchor="start" x="1088" y="-258" font-family="Helvetica,sans-Serif" font-size="10.00">/beluga/beluga/include</text>
<text text-anchor="middle" x="1152.5" y="-247" font-family="Helvetica,sans-Serif" font-size="10.00">/beluga/views.hpp</text>
</a>
</g>
</g>
<!-- Node22&#45;&gt;Node23 -->
<g id="edge33" class="edge">
<title>Node22&#45;&gt;Node23</title>
<path fill="none" stroke="midnightblue" d="M1163.7,-318.81C1161.27,-306.38 1158.51,-292.27 1156.34,-281.16"/>
<polygon fill="midnightblue" stroke="midnightblue" points="1160.29,-319.62 1165.64,-328.76 1167.16,-318.27 1160.29,-319.62"/>
</g>
<!-- Node23&#45;&gt;Node4 -->
<g id="edge34" class="edge">
<title>Node23&#45;&gt;Node4</title>
<path fill="none" stroke="midnightblue" d="M1121.09,-233.16C1093.9,-211.06 1052.99,-179.42 1014.5,-156 992.15,-142.4 966,-129.53 944.19,-119.57"/>
<polygon fill="midnightblue" stroke="midnightblue" points="1119.12,-236.07 1129.07,-239.7 1123.55,-230.66 1119.12,-236.07"/>
</g>
<!-- Node24&#45;&gt;Node23 -->
<g id="edge36" class="edge">
<title>Node24&#45;&gt;Node23</title>
<path fill="none" stroke="midnightblue" d="M1271.11,-318.83C1245.32,-306.36 1216.03,-292.21 1193.01,-281.08"/>
<polygon fill="midnightblue" stroke="midnightblue" points="1269.91,-322.14 1280.44,-323.34 1272.96,-315.83 1269.91,-322.14"/>
</g>
<!-- Node25&#45;&gt;Node10 -->
<g id="edge38" class="edge">
<title>Node25&#45;&gt;Node10</title>
<path fill="none" stroke="midnightblue" d="M597.73,-408.19C593.56,-395.67 588.79,-381.38 585.05,-370.16"/>
<polygon fill="midnightblue" stroke="midnightblue" points="594.44,-409.38 600.92,-417.76 601.08,-407.16 594.44,-409.38"/>
</g>
<!-- Node25&#45;&gt;Node12 -->
<g id="edge39" class="edge">
<title>Node25&#45;&gt;Node12</title>
<path fill="none" stroke="midnightblue" d="M522.29,-421.4C462.96,-409.8 382.12,-393.21 311.5,-376 304.01,-374.17 296.2,-372.16 288.44,-370.09"/>
<polygon fill="midnightblue" stroke="midnightblue" points="521.88,-424.89 532.37,-423.36 523.22,-418.01 521.88,-424.89"/>
</g>
<!-- Node25&#45;&gt;Node13 -->
<g id="edge40" class="edge">
<title>Node25&#45;&gt;Node13</title>
<path fill="none" stroke="midnightblue" d="M551.35,-414.01C518.49,-400.27 477.5,-383.12 446.38,-370.11"/>
<polygon fill="midnightblue" stroke="midnightblue" points="550.24,-417.35 560.82,-417.98 552.95,-410.89 550.24,-417.35"/>
</g>
<!-- Node25&#45;&gt;Node14 -->
<g id="edge41" class="edge">
<title>Node25&#45;&gt;Node14</title>
<path fill="none" stroke="midnightblue" d="M679.9,-415.22C684.15,-414.09 688.37,-413 692.5,-412 776.43,-391.56 799.64,-396.72 883.5,-376 886.28,-375.31 889.11,-374.59 891.95,-373.83"/>
<polygon fill="midnightblue" stroke="midnightblue" points="678.68,-411.93 669.96,-417.95 680.53,-418.68 678.68,-411.93"/>
</g>
<!-- Node25&#45;&gt;Node18 -->
<g id="edge42" class="edge">
<title>Node25&#45;&gt;Node18</title>
<path fill="none" stroke="midnightblue" d="M654.57,-413.27C677.38,-401.53 704.75,-387.44 727.77,-375.58"/>
<polygon fill="midnightblue" stroke="midnightblue" points="652.72,-410.29 645.43,-417.98 655.92,-416.51 652.72,-410.29"/>
</g>
<!-- Node25&#45;&gt;Node22 -->
<g id="edge43" class="edge">
<title>Node25&#45;&gt;Node22</title>
<path fill="none" stroke="midnightblue" d="M677.31,-415.36C682.42,-414.11 687.52,-412.97 692.5,-412 863.38,-378.83 911.52,-408.63 1082.5,-376 1090.85,-374.41 1099.55,-372.35 1108.07,-370.1"/>
<polygon fill="midnightblue" stroke="midnightblue" points="676.3,-412 667.49,-417.89 678.05,-418.78 676.3,-412"/>
</g>
<!-- Node25&#45;&gt;Node23 -->
<g id="edge44" class="edge">
<title>Node25&#45;&gt;Node23</title>
<path fill="none" stroke="midnightblue" d="M677.32,-415.4C682.43,-414.14 687.53,-412.99 692.5,-412 770.93,-396.44 981.29,-416.04 1050.5,-376 1075.59,-361.49 1069.53,-344.91 1088.5,-323 1101.41,-308.09 1117.41,-292.71 1130.18,-281.07"/>
<polygon fill="midnightblue" stroke="midnightblue" points="676.31,-412.05 667.51,-417.95 678.07,-418.83 676.31,-412.05"/>
</g>
</g>
</svg>
        <g id="navigator" transform="translate(0 0)" fill="#404254">
                <rect fill="#f2f5e9" fill-opacity="0.5" stroke="#606060" stroke-width=".5" x="0" y="0" width="60" height="60"/>
                <use id="zoomplus" xlink:href="#zoomPlus" x="17" y="9" onmousedown="handleZoom(evt,'in')"/>
                <use id="zoomminus" xlink:href="#zoomMin" x="42" y="9" onmousedown="handleZoom(evt,'out')"/>
                <use id="reset" xlink:href="#resetDef" x="30" y="36" onmousedown="handleReset()"/>
                <g id="arrowUp" xlink:href="#dirArrow" transform="translate(30 24)" onmousedown="handlePan(0,-1)">
                  <use xlink:href="#rim" fill="#404040">
                        <set attributeName="fill" to="#808080" begin="arrowUp.mouseover" end="arrowUp.mouseout"/>
                  </use>
                  <path fill="none" stroke="white" stroke-width="1.5" d="M0,-3.0v7 M-2.5,-0.5L0,-3.0L2.5,-0.5"/>
                </g>
                <g id="arrowRight" xlink:href="#dirArrow" transform="rotate(90) translate(36 -43)" onmousedown="handlePan(1,0)">
                  <use xlink:href="#rim" fill="#404040">
                        <set attributeName="fill" to="#808080" begin="arrowRight.mouseover" end="arrowRight.mouseout"/>
                  </use>
                  <path fill="none" stroke="white" stroke-width="1.5" d="M0,-3.0v7 M-2.5,-0.5L0,-3.0L2.5,-0.5"/>
                </g>
                <g id="arrowDown" xlink:href="#dirArrow" transform="rotate(180) translate(-30 -48)" onmousedown="handlePan(0,1)">
                  <use xlink:href="#rim" fill="#404040">
                        <set attributeName="fill" to="#808080" begin="arrowDown.mouseover" end="arrowDown.mouseout"/>
                  </use>
                  <path fill="none" stroke="white" stroke-width="1.5" d="M0,-3.0v7 M-2.5,-0.5L0,-3.0L2.5,-0.5"/>
                </g>
                <g id="arrowLeft" xlink:href="#dirArrow" transform="rotate(270) translate(-36 17)" onmousedown="handlePan(-1,0)">
                  <use xlink:href="#rim" fill="#404040">
                        <set attributeName="fill" to="#808080" begin="arrowLeft.mouseover" end="arrowLeft.mouseout"/>
                  </use>
                  <path fill="none" stroke="white" stroke-width="1.5" d="M0,-3.0v7 M-2.5,-0.5L0,-3.0L2.5,-0.5"/>
                </g>
        </g>
        <svg viewBox="0 0 15 15" width="100%" height="30px" preserveAspectRatio="xMaxYMin meet">
         <g id="arrow_out" transform="scale(0.3 0.3)">
          <a xlink:href="tuple__traits_8hpp__dep__incl_org.svg" target="_base">
           <rect id="button" ry="5" rx="5" y="6" x="6" height="38" width="38"
                fill="#f2f5e9" fill-opacity="0.5" stroke="#606060" stroke-width="1.0"/>
           <path id="arrow"
             d="M 11.500037,31.436501 C 11.940474,20.09759 22.043105,11.32322 32.158766,21.979434 L 37.068811,17.246167 C 37.068811,17.246167 37.088388,32 37.088388,32 L 22.160133,31.978069 C 22.160133,31.978069 26.997745,27.140456 26.997745,27.140456 C 18.528582,18.264221 13.291696,25.230495 11.500037,31.436501 z"
             style="fill:#404040;"/>
          </a>
         </g>
        </svg>
</svg>
