<?xml version="1.0" encoding="UTF-8" standalone="no"?>
<!DOCTYPE svg PUBLIC "-//W3C//DTD SVG 1.1//EN"
 "http://www.w3.org/Graphics/SVG/1.1/DTD/svg11.dtd">
<!-- Generated by graphviz version 2.43.0 (0)
 -->
<!-- Title: /home/runner/work/beluga/beluga/beluga/include/beluga/type_traits/tuple_traits.hpp Pages: 1 -->
<!--zoomable 651 -->
<svg id="main" version="1.1" xmlns="http://www.w3.org/2000/svg" xmlns:xlink="http://www.w3.org/1999/xlink" xml:space="preserve" onload="init(evt)">
<style type="text/css"><![CDATA[
.edge:hover path { stroke: red; }
.edge:hover polygon { stroke: red; fill: red; }
]]></style>
<script type="text/javascript"><![CDATA[
var edges = document.getElementsByTagName('g');
if (edges && edges.length) {
  for (var i=0;i<edges.length;i++) {
    if (edges[i].id.substr(0,4)=='edge') {
      edges[i].setAttribute('class','edge');
    }
  }
}
]]></script>
        <defs>
                <circle id="rim" cx="0" cy="0" r="7"/>
                <circle id="rim2" cx="0" cy="0" r="3.5"/>
                <g id="zoomPlus">
                        <use xlink:href="#rim" fill="#404040">
                                <set attributeName="fill" to="#808080" begin="zoomplus.mouseover" end="zoomplus.mouseout"/>
                        </use>
                        <path d="M-4,0h8M0,-4v8" fill="none" stroke="white" stroke-width="1.5" pointer-events="none"/>
                </g>
                <g id="zoomMin">
                        <use xlink:href="#rim" fill="#404040">
                                <set attributeName="fill" to="#808080" begin="zoomminus.mouseover" end="zoomminus.mouseout"/>
                        </use>
                        <path d="M-4,0h8" fill="none" stroke="white" stroke-width="1.5" pointer-events="none"/>
                </g>
                <g id="dirArrow">
                        <path fill="none" stroke="white" stroke-width="1.5" d="M0,-3.0v7 M-2.5,-0.5L0,-3.0L2.5,-0.5"/>
                </g>
               <g id="resetDef">
                       <use xlink:href="#rim2" fill="#404040">
                               <set attributeName="fill" to="#808080" begin="reset.mouseover" end="reset.mouseout"/>
                       </use>
               </g>
        </defs>

<script type="text/javascript">
var viewWidth = 1700;
var viewHeight = 651;
var sectionId = 'dynsection-1';
</script>
<script xlink:href="svgpan.js"/>
<svg id="graph" class="graph">
<g id="viewport">
<title>/home/runner/work/beluga/beluga/beluga/include/beluga/type_traits/tuple_traits.hpp</title>
<!-- Node1 -->
<g id="node1" class="node">
<title>Node1</title>
<g id="a_node1"><a xlink:title="Implementation of traits for tuple&#45;like types.">
<polygon fill="#bfbfbf" stroke="black" points="433.5,-590.5 433.5,-642.5 578.5,-642.5 578.5,-590.5 433.5,-590.5"/>
<text text-anchor="start" x="441.5" y="-630.5" font-family="Helvetica,sans-Serif" font-size="10.00">/home/runner/work/beluga</text>
<text text-anchor="start" x="441.5" y="-619.5" font-family="Helvetica,sans-Serif" font-size="10.00">/beluga/beluga/include</text>
<text text-anchor="start" x="441.5" y="-608.5" font-family="Helvetica,sans-Serif" font-size="10.00">/beluga/type_traits/tuple</text>
<text text-anchor="middle" x="506" y="-597.5" font-family="Helvetica,sans-Serif" font-size="10.00">_traits.hpp</text>
</a>
</g>
</g>
<!-- Node2 -->
<g id="node2" class="node">
<title>Node2</title>
<g id="a_node2"><a xlink:href="differential__drive__model_8hpp.html" target="_top" xlink:title="Implementation of a differential drive odometry motion model.">
<polygon fill="none" stroke="black" points="0,-501.5 0,-553.5 146,-553.5 146,-501.5 0,-501.5"/>
<text text-anchor="start" x="8" y="-541.5" font-family="Helvetica,sans-Serif" font-size="10.00">/home/runner/work/beluga</text>
<text text-anchor="start" x="8" y="-530.5" font-family="Helvetica,sans-Serif" font-size="10.00">/beluga/beluga/include</text>
<text text-anchor="start" x="8" y="-519.5" font-family="Helvetica,sans-Serif" font-size="10.00">/beluga/motion/differential</text>
<text text-anchor="middle" x="73" y="-508.5" font-family="Helvetica,sans-Serif" font-size="10.00">_drive_model.hpp</text>
</a>
</g>
</g>
<!-- Node1&#45;&gt;Node2 -->
<g id="edge1" class="edge">
<title>Node1&#45;&gt;Node2</title>
<path fill="none" stroke="midnightblue" d="M422.88,-604C351.36,-593.39 245.69,-575.95 155,-554 152.1,-553.3 149.16,-552.55 146.19,-551.77"/>
<polygon fill="midnightblue" stroke="midnightblue" points="422.77,-607.53 433.18,-605.52 423.79,-600.6 422.77,-607.53"/>
</g>
<!-- Node6 -->
<g id="node6" class="node">
<title>Node6</title>
<g id="a_node6"><a xlink:href="omnidirectional__drive__model_8hpp.html" target="_top" xlink:title="Implementation of an omnidirectional drive odometry motion model.">
<polygon fill="none" stroke="black" points="164,-501.5 164,-553.5 334,-553.5 334,-501.5 164,-501.5"/>
<text text-anchor="start" x="172" y="-541.5" font-family="Helvetica,sans-Serif" font-size="10.00">/home/runner/work/beluga</text>
<text text-anchor="start" x="172" y="-530.5" font-family="Helvetica,sans-Serif" font-size="10.00">/beluga/beluga/include</text>
<text text-anchor="start" x="172" y="-519.5" font-family="Helvetica,sans-Serif" font-size="10.00">/beluga/motion/omnidirectional</text>
<text text-anchor="middle" x="249" y="-508.5" font-family="Helvetica,sans-Serif" font-size="10.00">_drive_model.hpp</text>
</a>
</g>
</g>
<!-- Node1&#45;&gt;Node6 -->
<g id="edge5" class="edge">
<title>Node1&#45;&gt;Node6</title>
<path fill="none" stroke="midnightblue" d="M423.53,-587.58C391.3,-576.67 354.61,-564.25 323.22,-553.63"/>
<polygon fill="midnightblue" stroke="midnightblue" points="422.79,-591.03 433.38,-590.92 425.03,-584.4 422.79,-591.03"/>
</g>
<!-- Node7 -->
<g id="node7" class="node">
<title>Node7</title>
<g id="a_node7"><a xlink:href="stationary__model_8hpp.html" target="_top" xlink:title="Implementation of a stationary motion model.">
<polygon fill="none" stroke="black" points="352.5,-501.5 352.5,-553.5 497.5,-553.5 497.5,-501.5 352.5,-501.5"/>
<text text-anchor="start" x="360.5" y="-541.5" font-family="Helvetica,sans-Serif" font-size="10.00">/home/runner/work/beluga</text>
<text text-anchor="start" x="360.5" y="-530.5" font-family="Helvetica,sans-Serif" font-size="10.00">/beluga/beluga/include</text>
<text text-anchor="start" x="360.5" y="-519.5" font-family="Helvetica,sans-Serif" font-size="10.00">/beluga/motion/stationary</text>
<text text-anchor="middle" x="425" y="-508.5" font-family="Helvetica,sans-Serif" font-size="10.00">_model.hpp</text>
</a>
</g>
</g>
<!-- Node1&#45;&gt;Node7 -->
<g id="edge7" class="edge">
<title>Node1&#45;&gt;Node7</title>
<path fill="none" stroke="midnightblue" d="M475.55,-582.79C466.55,-573.13 456.85,-562.71 448.38,-553.61"/>
<polygon fill="midnightblue" stroke="midnightblue" points="473.2,-585.4 482.57,-590.34 478.32,-580.63 473.2,-585.4"/>
</g>
<!-- Node8 -->
<g id="node8" class="node">
<title>Node8</title>
<g id="a_node8"><a xlink:href="primitives_8hpp.html" target="_top" xlink:title="Implementation of library primitives to abstract member access.">
<polygon fill="none" stroke="black" points="515.5,-507 515.5,-548 660.5,-548 660.5,-507 515.5,-507"/>
<text text-anchor="start" x="523.5" y="-536" font-family="Helvetica,sans-Serif" font-size="10.00">/home/runner/work/beluga</text>
<text text-anchor="start" x="523.5" y="-525" font-family="Helvetica,sans-Serif" font-size="10.00">/beluga/beluga/include</text>
<text text-anchor="middle" x="588" y="-514" font-family="Helvetica,sans-Serif" font-size="10.00">/beluga/primitives.hpp</text>
</a>
</g>
</g>
<!-- Node1&#45;&gt;Node8 -->
<g id="edge9" class="edge">
<title>Node1&#45;&gt;Node8</title>
<path fill="none" stroke="midnightblue" d="M536.78,-582.85C547.8,-571.15 559.88,-558.33 569.54,-548.08"/>
<polygon fill="midnightblue" stroke="midnightblue" points="534.03,-580.66 529.72,-590.34 539.12,-585.46 534.03,-580.66"/>
</g>
<!-- Node9 -->
<g id="node9" class="node">
<title>Node9</title>
<g id="a_node9"><a xlink:href="particle__traits_8hpp.html" target="_top" xlink:title="Implementation of traits for particle types, see the Particle named requirements.">
<polygon fill="none" stroke="black" points="864,-412.5 864,-464.5 1012,-464.5 1012,-412.5 864,-412.5"/>
<text text-anchor="start" x="872" y="-452.5" font-family="Helvetica,sans-Serif" font-size="10.00">/home/runner/work/beluga</text>
<text text-anchor="start" x="872" y="-441.5" font-family="Helvetica,sans-Serif" font-size="10.00">/beluga/beluga/include</text>
<text text-anchor="start" x="872" y="-430.5" font-family="Helvetica,sans-Serif" font-size="10.00">/beluga/type_traits/particle</text>
<text text-anchor="middle" x="938" y="-419.5" font-family="Helvetica,sans-Serif" font-size="10.00">_traits.hpp</text>
</a>
</g>
</g>
<!-- Node1&#45;&gt;Node9 -->
<g id="edge48" class="edge">
<title>Node1&#45;&gt;Node9</title>
<path fill="none" stroke="midnightblue" d="M584.36,-586.93C611.58,-576.79 642.23,-565.13 670,-554 743.5,-524.54 827.29,-488.31 881.32,-464.59"/>
<polygon fill="midnightblue" stroke="midnightblue" points="583.04,-583.69 574.89,-590.45 585.48,-590.25 583.04,-583.69"/>
</g>
<!-- Node19 -->
<g id="node19" class="node">
<title>Node19</title>
<g id="a_node19"><a xlink:href="type__traits_8hpp.html" target="_top" xlink:title="Includes all Beluga type traits.">
<polygon fill="none" stroke="black" points="1546.5,-329 1546.5,-370 1691.5,-370 1691.5,-329 1546.5,-329"/>
<text text-anchor="start" x="1554.5" y="-358" font-family="Helvetica,sans-Serif" font-size="10.00">/home/runner/work/beluga</text>
<text text-anchor="start" x="1554.5" y="-347" font-family="Helvetica,sans-Serif" font-size="10.00">/beluga/beluga/include</text>
<text text-anchor="middle" x="1619" y="-336" font-family="Helvetica,sans-Serif" font-size="10.00">/beluga/type_traits.hpp</text>
</a>
</g>
</g>
<!-- Node1&#45;&gt;Node19 -->
<g id="edge49" class="edge">
<title>Node1&#45;&gt;Node19</title>
<path fill="none" stroke="midnightblue" d="M588.69,-598.57C764.49,-562.08 1187.93,-471.57 1538,-376 1544.68,-374.18 1551.64,-372.16 1558.55,-370.09"/>
<polygon fill="midnightblue" stroke="midnightblue" points="587.82,-595.18 578.73,-600.63 589.24,-602.03 587.82,-595.18"/>
</g>
<!-- Node3 -->
<g id="node3" class="node">
<title>Node3</title>
<g id="a_node3"><a xlink:href="motion_8hpp.html" target="_top" xlink:title="Includes all Beluga motion models.">
<polygon fill="none" stroke="black" points="0.5,-418 0.5,-459 145.5,-459 145.5,-418 0.5,-418"/>
<text text-anchor="start" x="8.5" y="-447" font-family="Helvetica,sans-Serif" font-size="10.00">/home/runner/work/beluga</text>
<text text-anchor="start" x="8.5" y="-436" font-family="Helvetica,sans-Serif" font-size="10.00">/beluga/beluga/include</text>
<text text-anchor="middle" x="73" y="-425" font-family="Helvetica,sans-Serif" font-size="10.00">/beluga/motion.hpp</text>
</a>
</g>
</g>
<!-- Node2&#45;&gt;Node3 -->
<g id="edge2" class="edge">
<title>Node2&#45;&gt;Node3</title>
<path fill="none" stroke="midnightblue" d="M73,-491.16C73,-480.21 73,-468.55 73,-459.08"/>
<polygon fill="midnightblue" stroke="midnightblue" points="69.5,-491.34 73,-501.34 76.5,-491.34 69.5,-491.34"/>
</g>
<!-- Node4 -->
<g id="node4" class="node">
<title>Node4</title>
<g id="a_node4"><a xlink:href="beluga_8hpp.html" target="_top" xlink:title="Includes all the Beluga API.">
<polygon fill="none" stroke="black" points="1029.5,-78.5 1029.5,-119.5 1174.5,-119.5 1174.5,-78.5 1029.5,-78.5"/>
<text text-anchor="start" x="1037.5" y="-107.5" font-family="Helvetica,sans-Serif" font-size="10.00">/home/runner/work/beluga</text>
<text text-anchor="start" x="1037.5" y="-96.5" font-family="Helvetica,sans-Serif" font-size="10.00">/beluga/beluga/include</text>
<text text-anchor="middle" x="1102" y="-85.5" font-family="Helvetica,sans-Serif" font-size="10.00">/beluga/beluga.hpp</text>
</a>
</g>
</g>
<!-- Node3&#45;&gt;Node4 -->
<g id="edge3" class="edge">
<title>Node3&#45;&gt;Node4</title>
<path fill="none" stroke="midnightblue" d="M69.8,-407.77C65.35,-349.15 64.98,-218.89 140,-156 207.59,-99.34 816.58,-98.03 1029.17,-99.33"/>
<polygon fill="midnightblue" stroke="midnightblue" points="66.33,-408.19 70.67,-417.85 73.3,-407.59 66.33,-408.19"/>
</g>
<!-- Node5 -->
<g id="node5" class="node">
<title>Node5</title>
<g id="a_node5"><a xlink:href="amcl__core_8hpp_source.html" target="_top" xlink:title=" ">
<polygon fill="none" stroke="black" points="1013.5,-0.5 1013.5,-41.5 1190.5,-41.5 1190.5,-0.5 1013.5,-0.5"/>
<text text-anchor="start" x="1021.5" y="-29.5" font-family="Helvetica,sans-Serif" font-size="10.00">/home/runner/work/beluga</text>
<text text-anchor="start" x="1021.5" y="-18.5" font-family="Helvetica,sans-Serif" font-size="10.00">/beluga/beluga/include</text>
<text text-anchor="middle" x="1102" y="-7.5" font-family="Helvetica,sans-Serif" font-size="10.00">/beluga/algorithm/amcl_core.hpp</text>
</a>
</g>
</g>
<!-- Node4&#45;&gt;Node5 -->
<g id="edge4" class="edge">
<title>Node4&#45;&gt;Node5</title>
<path fill="none" stroke="midnightblue" d="M1102,-68.3C1102,-59.3 1102,-49.65 1102,-41.51"/>
<polygon fill="midnightblue" stroke="midnightblue" points="1098.5,-68.43 1102,-78.43 1105.5,-68.43 1098.5,-68.43"/>
</g>
<!-- Node6&#45;&gt;Node3 -->
<g id="edge6" class="edge">
<title>Node6&#45;&gt;Node3</title>
<path fill="none" stroke="midnightblue" d="M188.98,-496.83C163.76,-484.36 135.12,-470.21 112.61,-459.08"/>
<polygon fill="midnightblue" stroke="midnightblue" points="187.58,-500.04 198.09,-501.34 190.68,-493.77 187.58,-500.04"/>
</g>
<!-- Node7&#45;&gt;Node3 -->
<g id="edge8" class="edge">
<title>Node7&#45;&gt;Node3</title>
<path fill="none" stroke="midnightblue" d="M342.54,-501C260.92,-480.93 237.53,-483.95 160,-465 152.66,-463.21 145.02,-461.19 137.44,-459.09"/>
<polygon fill="midnightblue" stroke="midnightblue" points="341.69,-504.4 352.24,-503.43 343.39,-497.61 341.69,-504.4"/>
</g>
<!-- Node8&#45;&gt;Node4 -->
<g id="edge10" class="edge">
<title>Node8&#45;&gt;Node4</title>
<path fill="none" stroke="midnightblue" d="M516.41,-503.87C408.57,-469.08 214.96,-403.59 196,-376 182.66,-356.59 183.44,-342.93 196,-323 286.02,-180.13 830.39,-122.06 1029.3,-105.43"/>
<polygon fill="midnightblue" stroke="midnightblue" points="515.34,-507.21 525.93,-506.94 517.48,-500.54 515.34,-507.21"/>
</g>
<!-- Node8&#45;&gt;Node9 -->
<g id="edge11" class="edge">
<title>Node8&#45;&gt;Node9</title>
<path fill="none" stroke="midnightblue" d="M670.49,-506C729.09,-491.43 807.11,-472.04 863.76,-457.95"/>
<polygon fill="midnightblue" stroke="midnightblue" points="669.38,-502.66 660.52,-508.47 671.07,-509.46 669.38,-502.66"/>
</g>
<!-- Node25 -->
<g id="node25" class="node">
<title>Node25</title>
<g id="a_node25"><a xlink:href="particles_8hpp.html" target="_top" xlink:title="Implementation of views related to particle ranges.">
<polygon fill="none" stroke="black" points="513,-418 513,-459 663,-459 663,-418 513,-418"/>
<text text-anchor="start" x="521" y="-447" font-family="Helvetica,sans-Serif" font-size="10.00">/home/runner/work/beluga</text>
<text text-anchor="start" x="521" y="-436" font-family="Helvetica,sans-Serif" font-size="10.00">/beluga/beluga/include</text>
<text text-anchor="middle" x="588" y="-425" font-family="Helvetica,sans-Serif" font-size="10.00">/beluga/views/particles.hpp</text>
</a>
</g>
</g>
<!-- Node8&#45;&gt;Node25 -->
<g id="edge37" class="edge">
<title>Node8&#45;&gt;Node25</title>
<path fill="none" stroke="midnightblue" d="M588,-496.44C588,-484.1 588,-470.16 588,-459.16"/>
<polygon fill="midnightblue" stroke="midnightblue" points="584.5,-496.76 588,-506.76 591.5,-496.76 584.5,-496.76"/>
</g>
<!-- Node10 -->
<g id="node10" class="node">
<title>Node10</title>
<g id="a_node10"><a xlink:href="normalize_8hpp.html" target="_top" xlink:title="Implementation of the normalize range adaptor object.">
<polygon fill="none" stroke="black" points="765,-329 765,-370 929,-370 929,-329 765,-329"/>
<text text-anchor="start" x="773" y="-358" font-family="Helvetica,sans-Serif" font-size="10.00">/home/runner/work/beluga</text>
<text text-anchor="start" x="773" y="-347" font-family="Helvetica,sans-Serif" font-size="10.00">/beluga/beluga/include</text>
<text text-anchor="middle" x="847" y="-336" font-family="Helvetica,sans-Serif" font-size="10.00">/beluga/actions/normalize.hpp</text>
</a>
</g>
</g>
<!-- Node9&#45;&gt;Node10 -->
<g id="edge12" class="edge">
<title>Node9&#45;&gt;Node10</title>
<path fill="none" stroke="midnightblue" d="M904.2,-405.18C891.86,-393.39 878.3,-380.43 867.48,-370.08"/>
<polygon fill="midnightblue" stroke="midnightblue" points="902.03,-407.96 911.68,-412.34 906.87,-402.9 902.03,-407.96"/>
</g>
<!-- Node12 -->
<g id="node12" class="node">
<title>Node12</title>
<g id="a_node12"><a xlink:href="propagate_8hpp.html" target="_top" xlink:title="Implementation of the propagate range adaptor object.">
<polygon fill="none" stroke="black" points="947,-329 947,-370 1111,-370 1111,-329 947,-329"/>
<text text-anchor="start" x="955" y="-358" font-family="Helvetica,sans-Serif" font-size="10.00">/home/runner/work/beluga</text>
<text text-anchor="start" x="955" y="-347" font-family="Helvetica,sans-Serif" font-size="10.00">/beluga/beluga/include</text>
<text text-anchor="middle" x="1029" y="-336" font-family="Helvetica,sans-Serif" font-size="10.00">/beluga/actions/propagate.hpp</text>
</a>
</g>
</g>
<!-- Node9&#45;&gt;Node12 -->
<g id="edge15" class="edge">
<title>Node9&#45;&gt;Node12</title>
<path fill="none" stroke="midnightblue" d="M971.8,-405.18C984.14,-393.39 997.7,-380.43 1008.52,-370.08"/>
<polygon fill="midnightblue" stroke="midnightblue" points="969.13,-402.9 964.32,-412.34 973.97,-407.96 969.13,-402.9"/>
</g>
<!-- Node13 -->
<g id="node13" class="node">
<title>Node13</title>
<g id="a_node13"><a xlink:href="reweight_8hpp.html" target="_top" xlink:title="Implementation of the reweight range adaptor object.">
<polygon fill="none" stroke="black" points="644,-240 644,-281 802,-281 802,-240 644,-240"/>
<text text-anchor="start" x="652" y="-269" font-family="Helvetica,sans-Serif" font-size="10.00">/home/runner/work/beluga</text>
<text text-anchor="start" x="652" y="-258" font-family="Helvetica,sans-Serif" font-size="10.00">/beluga/beluga/include</text>
<text text-anchor="middle" x="723" y="-247" font-family="Helvetica,sans-Serif" font-size="10.00">/beluga/actions/reweight.hpp</text>
</a>
</g>
</g>
<!-- Node9&#45;&gt;Node13 -->
<g id="edge17" class="edge">
<title>Node9&#45;&gt;Node13</title>
<path fill="none" stroke="midnightblue" d="M1022.25,-436.75C1126.38,-433.82 1294.68,-421.89 1334,-376 1349.33,-358.11 1349.8,-340.47 1334,-323 1316.38,-303.52 963.61,-277.57 802.29,-266.67"/>
<polygon fill="midnightblue" stroke="midnightblue" points="1021.97,-433.25 1012.07,-437.01 1022.16,-440.25 1021.97,-433.25"/>
</g>
<!-- Node14 -->
<g id="node14" class="node">
<title>Node14</title>
<g id="a_node14"><a xlink:href="effective__sample__size_8hpp.html" target="_top" xlink:title="Implementation of an algorithm to calculate the effective sample size (ESS).">
<polygon fill="none" stroke="black" points="1379.5,-323.5 1379.5,-375.5 1528.5,-375.5 1528.5,-323.5 1379.5,-323.5"/>
<text text-anchor="start" x="1387.5" y="-363.5" font-family="Helvetica,sans-Serif" font-size="10.00">/home/runner/work/beluga</text>
<text text-anchor="start" x="1387.5" y="-352.5" font-family="Helvetica,sans-Serif" font-size="10.00">/beluga/beluga/include</text>
<text text-anchor="start" x="1387.5" y="-341.5" font-family="Helvetica,sans-Serif" font-size="10.00">/beluga/algorithm/effective</text>
<text text-anchor="middle" x="1454" y="-330.5" font-family="Helvetica,sans-Serif" font-size="10.00">_sample_size.hpp</text>
</a>
</g>
</g>
<!-- Node9&#45;&gt;Node14 -->
<g id="edge19" class="edge">
<title>Node9&#45;&gt;Node14</title>
<path fill="none" stroke="midnightblue" d="M1022.07,-428.92C1108.82,-419.26 1247.77,-401.5 1366,-376 1370.35,-375.06 1374.81,-374.02 1379.29,-372.92"/>
<polygon fill="midnightblue" stroke="midnightblue" points="1021.57,-425.46 1012.02,-430.03 1022.34,-432.42 1021.57,-425.46"/>
</g>
<!-- Node18 -->
<g id="node18" class="node">
<title>Node18</title>
<g id="a_node18"><a xlink:href="thrun__recovery__probability__estimator_8hpp_source.html" target="_top" xlink:title=" ">
<polygon fill="none" stroke="black" points="1129.5,-323.5 1129.5,-375.5 1324.5,-375.5 1324.5,-323.5 1129.5,-323.5"/>
<text text-anchor="start" x="1137.5" y="-363.5" font-family="Helvetica,sans-Serif" font-size="10.00">/home/runner/work/beluga</text>
<text text-anchor="start" x="1137.5" y="-352.5" font-family="Helvetica,sans-Serif" font-size="10.00">/beluga/beluga/include</text>
<text text-anchor="start" x="1137.5" y="-341.5" font-family="Helvetica,sans-Serif" font-size="10.00">/beluga/algorithm/thrun</text>
<text text-anchor="middle" x="1227" y="-330.5" font-family="Helvetica,sans-Serif" font-size="10.00">_recovery_probability_estimator.hpp</text>
</a>
</g>
</g>
<!-- Node9&#45;&gt;Node18 -->
<g id="edge25" class="edge">
<title>Node9&#45;&gt;Node18</title>
<path fill="none" stroke="midnightblue" d="M1021.64,-412.32C1060.01,-400.77 1105.38,-387.11 1143.7,-375.57"/>
<polygon fill="midnightblue" stroke="midnightblue" points="1020.62,-408.97 1012.05,-415.21 1022.63,-415.68 1020.62,-408.97"/>
</g>
<!-- Node9&#45;&gt;Node19 -->
<g id="edge27" class="edge">
<title>Node9&#45;&gt;Node19</title>
<path fill="none" stroke="midnightblue" d="M1022.47,-434.24C1139.37,-428.51 1356.58,-413.45 1538,-376 1545.8,-374.39 1553.91,-372.33 1561.86,-370.07"/>
<polygon fill="midnightblue" stroke="midnightblue" points="1021.98,-430.76 1012.16,-434.73 1022.32,-437.75 1021.98,-430.76"/>
</g>
<!-- Node22 -->
<g id="node22" class="node">
<title>Node22</title>
<g id="a_node22"><a xlink:href="sample_8hpp.html" target="_top" xlink:title="Implementation of a sample (with replacement) range adaptor object.">
<polygon fill="none" stroke="black" points="220.5,-329 220.5,-370 365.5,-370 365.5,-329 220.5,-329"/>
<text text-anchor="start" x="228.5" y="-358" font-family="Helvetica,sans-Serif" font-size="10.00">/home/runner/work/beluga</text>
<text text-anchor="start" x="228.5" y="-347" font-family="Helvetica,sans-Serif" font-size="10.00">/beluga/beluga/include</text>
<text text-anchor="middle" x="293" y="-336" font-family="Helvetica,sans-Serif" font-size="10.00">/beluga/views/sample.hpp</text>
</a>
</g>
</g>
<!-- Node9&#45;&gt;Node22 -->
<g id="edge32" class="edge">
<title>Node9&#45;&gt;Node22</title>
<path fill="none" stroke="midnightblue" d="M853.58,-429.22C707.74,-414.77 419.75,-385.6 374,-376 366.21,-374.37 358.1,-372.29 350.15,-370.02"/>
<polygon fill="midnightblue" stroke="midnightblue" points="853.54,-432.73 863.83,-430.23 854.22,-425.77 853.54,-432.73"/>
</g>
<!-- Node24 -->
<g id="node24" class="node">
<title>Node24</title>
<g id="a_node24"><a xlink:href="take__while__kld_8hpp.html" target="_top" xlink:title="Implementation of a take_while_kld range adaptor object.">
<polygon fill="none" stroke="black" points="601.5,-323.5 601.5,-375.5 746.5,-375.5 746.5,-323.5 601.5,-323.5"/>
<text text-anchor="start" x="609.5" y="-363.5" font-family="Helvetica,sans-Serif" font-size="10.00">/home/runner/work/beluga</text>
<text text-anchor="start" x="609.5" y="-352.5" font-family="Helvetica,sans-Serif" font-size="10.00">/beluga/beluga/include</text>
<text text-anchor="start" x="609.5" y="-341.5" font-family="Helvetica,sans-Serif" font-size="10.00">/beluga/views/take_while</text>
<text text-anchor="middle" x="674" y="-330.5" font-family="Helvetica,sans-Serif" font-size="10.00">_kld.hpp</text>
</a>
</g>
</g>
<!-- Node9&#45;&gt;Node24 -->
<g id="edge35" class="edge">
<title>Node9&#45;&gt;Node24</title>
<path fill="none" stroke="midnightblue" d="M854.17,-409.87C819.65,-398.5 780.05,-385.45 746.77,-374.48"/>
<polygon fill="midnightblue" stroke="midnightblue" points="853.17,-413.23 863.76,-413.03 855.36,-406.58 853.17,-413.23"/>
</g>
<!-- Node11 -->
<g id="node11" class="node">
<title>Node11</title>
<g id="a_node11"><a xlink:href="actions_8hpp.html" target="_top" xlink:title="Implementation of useful range actions.">
<polygon fill="none" stroke="black" points="839.5,-156.5 839.5,-197.5 984.5,-197.5 984.5,-156.5 839.5,-156.5"/>
<text text-anchor="start" x="847.5" y="-185.5" font-family="Helvetica,sans-Serif" font-size="10.00">/home/runner/work/beluga</text>
<text text-anchor="start" x="847.5" y="-174.5" font-family="Helvetica,sans-Serif" font-size="10.00">/beluga/beluga/include</text>
<text text-anchor="middle" x="912" y="-163.5" font-family="Helvetica,sans-Serif" font-size="10.00">/beluga/actions.hpp</text>
</a>
</g>
</g>
<!-- Node10&#45;&gt;Node11 -->
<g id="edge13" class="edge">
<title>Node10&#45;&gt;Node11</title>
<path fill="none" stroke="midnightblue" d="M858.11,-319.35C871.36,-284.6 893.14,-227.47 904.53,-197.59"/>
<polygon fill="midnightblue" stroke="midnightblue" points="854.75,-318.35 854.46,-328.94 861.29,-320.84 854.75,-318.35"/>
</g>
<!-- Node11&#45;&gt;Node4 -->
<g id="edge14" class="edge">
<title>Node11&#45;&gt;Node4</title>
<path fill="none" stroke="midnightblue" d="M970.48,-152.61C997,-142 1028,-129.6 1053.24,-119.51"/>
<polygon fill="midnightblue" stroke="midnightblue" points="968.91,-149.46 960.93,-156.43 971.51,-155.96 968.91,-149.46"/>
</g>
<!-- Node12&#45;&gt;Node11 -->
<g id="edge16" class="edge">
<title>Node12&#45;&gt;Node11</title>
<path fill="none" stroke="midnightblue" d="M1009.91,-320.68C986.16,-286.07 946.21,-227.85 925.44,-197.59"/>
<polygon fill="midnightblue" stroke="midnightblue" points="1007.03,-322.68 1015.58,-328.94 1012.81,-318.72 1007.03,-322.68"/>
</g>
<!-- Node13&#45;&gt;Node11 -->
<g id="edge18" class="edge">
<title>Node13&#45;&gt;Node11</title>
<path fill="none" stroke="midnightblue" d="M777.62,-235.95C805.89,-223.76 839.99,-209.05 866.77,-197.5"/>
<polygon fill="midnightblue" stroke="midnightblue" points="776.07,-232.81 768.27,-239.98 778.84,-239.23 776.07,-232.81"/>
</g>
<!-- Node15 -->
<g id="node15" class="node">
<title>Node15</title>
<g id="a_node15"><a xlink:href="algorithm_8hpp.html" target="_top" xlink:title="Includes all beluga algorithms.">
<polygon fill="none" stroke="black" points="1154.5,-240 1154.5,-281 1299.5,-281 1299.5,-240 1154.5,-240"/>
<text text-anchor="start" x="1162.5" y="-269" font-family="Helvetica,sans-Serif" font-size="10.00">/home/runner/work/beluga</text>
<text text-anchor="start" x="1162.5" y="-258" font-family="Helvetica,sans-Serif" font-size="10.00">/beluga/beluga/include</text>
<text text-anchor="middle" x="1227" y="-247" font-family="Helvetica,sans-Serif" font-size="10.00">/beluga/algorithm.hpp</text>
</a>
</g>
</g>
<!-- Node14&#45;&gt;Node15 -->
<g id="edge20" class="edge">
<title>Node14&#45;&gt;Node15</title>
<path fill="none" stroke="midnightblue" d="M1379.02,-319.76C1345.96,-307.09 1307.97,-292.53 1278.23,-281.13"/>
<polygon fill="midnightblue" stroke="midnightblue" points="1378.06,-323.14 1388.65,-323.45 1380.56,-316.61 1378.06,-323.14"/>
</g>
<!-- Node16 -->
<g id="node16" class="node">
<title>Node16</title>
<g id="a_node16"><a xlink:href="on__effective__size__drop_8hpp.html" target="_top" xlink:title="Defines a policy for triggering an action based on the Effective Sample Size (ESS) metric.">
<polygon fill="none" stroke="black" points="1320,-234.5 1320,-286.5 1476,-286.5 1476,-234.5 1320,-234.5"/>
<text text-anchor="start" x="1328" y="-274.5" font-family="Helvetica,sans-Serif" font-size="10.00">/home/runner/work/beluga</text>
<text text-anchor="start" x="1328" y="-263.5" font-family="Helvetica,sans-Serif" font-size="10.00">/beluga/beluga/include</text>
<text text-anchor="start" x="1328" y="-252.5" font-family="Helvetica,sans-Serif" font-size="10.00">/beluga/policies/on_effective</text>
<text text-anchor="middle" x="1398" y="-241.5" font-family="Helvetica,sans-Serif" font-size="10.00">_size_drop.hpp</text>
</a>
</g>
</g>
<!-- Node14&#45;&gt;Node16 -->
<g id="edge22" class="edge">
<title>Node14&#45;&gt;Node16</title>
<path fill="none" stroke="midnightblue" d="M1432.39,-314.93C1426.33,-305.51 1419.85,-295.44 1414.16,-286.61"/>
<polygon fill="midnightblue" stroke="midnightblue" points="1429.45,-316.82 1437.8,-323.34 1435.33,-313.03 1429.45,-316.82"/>
</g>
<!-- Node15&#45;&gt;Node4 -->
<g id="edge21" class="edge">
<title>Node15&#45;&gt;Node4</title>
<path fill="none" stroke="midnightblue" d="M1205.35,-231.87C1180.26,-199.86 1139.55,-147.91 1117.45,-119.72"/>
<polygon fill="midnightblue" stroke="midnightblue" points="1202.75,-234.23 1211.67,-239.94 1208.26,-229.91 1202.75,-234.23"/>
</g>
<!-- Node17 -->
<g id="node17" class="node">
<title>Node17</title>
<g id="a_node17"><a xlink:href="policies_8hpp.html" target="_top" xlink:title="Implementation of useful policies.">
<polygon fill="none" stroke="black" points="1244.5,-156.5 1244.5,-197.5 1389.5,-197.5 1389.5,-156.5 1244.5,-156.5"/>
<text text-anchor="start" x="1252.5" y="-185.5" font-family="Helvetica,sans-Serif" font-size="10.00">/home/runner/work/beluga</text>
<text text-anchor="start" x="1252.5" y="-174.5" font-family="Helvetica,sans-Serif" font-size="10.00">/beluga/beluga/include</text>
<text text-anchor="middle" x="1317" y="-163.5" font-family="Helvetica,sans-Serif" font-size="10.00">/beluga/policies.hpp</text>
</a>
</g>
</g>
<!-- Node16&#45;&gt;Node17 -->
<g id="edge23" class="edge">
<title>Node16&#45;&gt;Node17</title>
<path fill="none" stroke="midnightblue" d="M1365.76,-227.07C1355.87,-217.11 1345.28,-206.45 1336.51,-197.63"/>
<polygon fill="midnightblue" stroke="midnightblue" points="1363.28,-229.53 1372.82,-234.16 1368.25,-224.6 1363.28,-229.53"/>
</g>
<!-- Node17&#45;&gt;Node4 -->
<g id="edge24" class="edge">
<title>Node17&#45;&gt;Node4</title>
<path fill="none" stroke="midnightblue" d="M1252.01,-153.03C1221.74,-142.33 1186.12,-129.73 1157.18,-119.51"/>
<polygon fill="midnightblue" stroke="midnightblue" points="1251.04,-156.4 1261.63,-156.43 1253.37,-149.8 1251.04,-156.4"/>
</g>
<!-- Node18&#45;&gt;Node15 -->
<g id="edge26" class="edge">
<title>Node18&#45;&gt;Node15</title>
<path fill="none" stroke="midnightblue" d="M1227,-313.16C1227,-302.21 1227,-290.55 1227,-281.08"/>
<polygon fill="midnightblue" stroke="midnightblue" points="1223.5,-313.34 1227,-323.34 1230.5,-313.34 1223.5,-313.34"/>
</g>
<!-- Node19&#45;&gt;Node4 -->
<g id="edge28" class="edge">
<title>Node19&#45;&gt;Node4</title>
<path fill="none" stroke="midnightblue" d="M1582.22,-322.75C1567.74,-312.15 1551.21,-299.45 1537,-287 1473.38,-231.29 1474.72,-193.66 1399,-156 1327.94,-120.66 1237.17,-107.53 1174.79,-102.7"/>
<polygon fill="midnightblue" stroke="midnightblue" points="1580.32,-325.7 1590.47,-328.73 1584.43,-320.03 1580.32,-325.7"/>
</g>
<!-- Node20 -->
<g id="node20" class="node">
<title>Node20</title>
<g id="a_node20"><a xlink:href="tuple__vector_8hpp.html" target="_top" xlink:title="Implementation of a tuple of containers.">
<polygon fill="none" stroke="black" points="1545.5,-234.5 1545.5,-286.5 1690.5,-286.5 1690.5,-234.5 1545.5,-234.5"/>
<text text-anchor="start" x="1553.5" y="-274.5" font-family="Helvetica,sans-Serif" font-size="10.00">/home/runner/work/beluga</text>
<text text-anchor="start" x="1553.5" y="-263.5" font-family="Helvetica,sans-Serif" font-size="10.00">/beluga/beluga/include</text>
<text text-anchor="start" x="1553.5" y="-252.5" font-family="Helvetica,sans-Serif" font-size="10.00">/beluga/containers/tuple</text>
<text text-anchor="middle" x="1618" y="-241.5" font-family="Helvetica,sans-Serif" font-size="10.00">_vector.hpp</text>
</a>
</g>
</g>
<!-- Node19&#45;&gt;Node20 -->
<g id="edge29" class="edge">
<title>Node19&#45;&gt;Node20</title>
<path fill="none" stroke="midnightblue" d="M1618.66,-318.51C1618.54,-308.17 1618.4,-296.71 1618.29,-286.79"/>
<polygon fill="midnightblue" stroke="midnightblue" points="1615.16,-318.8 1618.77,-328.76 1622.16,-318.72 1615.16,-318.8"/>
</g>
<!-- Node21 -->
<g id="node21" class="node">
<title>Node21</title>
<g id="a_node21"><a xlink:href="containers_8hpp.html" target="_top" xlink:title="Implementation of efficient containers.">
<polygon fill="none" stroke="black" points="1537.5,-156.5 1537.5,-197.5 1682.5,-197.5 1682.5,-156.5 1537.5,-156.5"/>
<text text-anchor="start" x="1545.5" y="-185.5" font-family="Helvetica,sans-Serif" font-size="10.00">/home/runner/work/beluga</text>
<text text-anchor="start" x="1545.5" y="-174.5" font-family="Helvetica,sans-Serif" font-size="10.00">/beluga/beluga/include</text>
<text text-anchor="middle" x="1610" y="-163.5" font-family="Helvetica,sans-Serif" font-size="10.00">/beluga/containers.hpp</text>
</a>
</g>
</g>
<!-- Node20&#45;&gt;Node21 -->
<g id="edge30" class="edge">
<title>Node20&#45;&gt;Node21</title>
<path fill="none" stroke="midnightblue" d="M1614.53,-224.15C1613.64,-215.05 1612.71,-205.6 1611.93,-197.63"/>
<polygon fill="midnightblue" stroke="midnightblue" points="1611.05,-224.55 1615.51,-234.16 1618.02,-223.87 1611.05,-224.55"/>
</g>
<!-- Node21&#45;&gt;Node4 -->
<g id="edge31" class="edge">
<title>Node21&#45;&gt;Node4</title>
<path fill="none" stroke="midnightblue" d="M1527.12,-157.48C1524.38,-156.97 1521.67,-156.47 1519,-156 1398.88,-134.77 1258.02,-117.41 1174.6,-107.9"/>
<polygon fill="midnightblue" stroke="midnightblue" points="1526.61,-160.95 1537.09,-159.42 1527.94,-154.08 1526.61,-160.95"/>
</g>
<!-- Node23 -->
<g id="node23" class="node">
<title>Node23</title>
<g id="a_node23"><a xlink:href="views_8hpp.html" target="_top" xlink:title="Implementation of useful container views.">
<polygon fill="none" stroke="black" points="391.5,-240 391.5,-281 536.5,-281 536.5,-240 391.5,-240"/>
<text text-anchor="start" x="399.5" y="-269" font-family="Helvetica,sans-Serif" font-size="10.00">/home/runner/work/beluga</text>
<text text-anchor="start" x="399.5" y="-258" font-family="Helvetica,sans-Serif" font-size="10.00">/beluga/beluga/include</text>
<text text-anchor="middle" x="464" y="-247" font-family="Helvetica,sans-Serif" font-size="10.00">/beluga/views.hpp</text>
</a>
</g>
</g>
<!-- Node22&#45;&gt;Node23 -->
<g id="edge33" class="edge">
<title>Node22&#45;&gt;Node23</title>
<path fill="none" stroke="midnightblue" d="M340.56,-324.3C367.33,-310.68 400.32,-293.9 425.46,-281.11"/>
<polygon fill="midnightblue" stroke="midnightblue" points="338.7,-321.32 331.38,-328.98 341.88,-327.56 338.7,-321.32"/>
</g>
<!-- Node23&#45;&gt;Node4 -->
<g id="edge34" class="edge">
<title>Node23&#45;&gt;Node4</title>
<path fill="none" stroke="midnightblue" d="M537.62,-237.07C611.43,-214.98 728.52,-181.01 831,-156 897.74,-139.71 974.48,-124.15 1029.22,-113.58"/>
<polygon fill="midnightblue" stroke="midnightblue" points="536.51,-233.75 527.94,-239.97 538.53,-240.45 536.51,-233.75"/>
</g>
<!-- Node24&#45;&gt;Node23 -->
<g id="edge36" class="edge">
<title>Node24&#45;&gt;Node23</title>
<path fill="none" stroke="midnightblue" d="M604.24,-319.6C573.75,-306.97 538.78,-292.48 511.39,-281.13"/>
<polygon fill="midnightblue" stroke="midnightblue" points="602.96,-322.86 613.54,-323.45 605.64,-316.39 602.96,-322.86"/>
</g>
<!-- Node25&#45;&gt;Node10 -->
<g id="edge38" class="edge">
<title>Node25&#45;&gt;Node10</title>
<path fill="none" stroke="midnightblue" d="M655.82,-414.72C697.07,-400.86 749.22,-383.35 788.62,-370.11"/>
<polygon fill="midnightblue" stroke="midnightblue" points="654.49,-411.47 646.12,-417.98 656.72,-418.11 654.49,-411.47"/>
</g>
<!-- Node25&#45;&gt;Node12 -->
<g id="edge39" class="edge">
<title>Node25&#45;&gt;Node12</title>
<path fill="none" stroke="midnightblue" d="M673.45,-424.91C744.61,-413.85 848.41,-396.37 938,-376 945.84,-374.22 954.01,-372.18 962.1,-370.06"/>
<polygon fill="midnightblue" stroke="midnightblue" points="672.54,-421.51 663.19,-426.5 673.61,-428.43 672.54,-421.51"/>
</g>
<!-- Node25&#45;&gt;Node13 -->
<g id="edge40" class="edge">
<title>Node25&#45;&gt;Node13</title>
<path fill="none" stroke="midnightblue" d="M581.41,-407.9C577.62,-383.13 576.43,-347.94 593,-323 605.85,-303.66 626.52,-290.25 647.63,-281.02"/>
<polygon fill="midnightblue" stroke="midnightblue" points="577.97,-408.57 583.15,-417.81 584.87,-407.36 577.97,-408.57"/>
</g>
<!-- Node25&#45;&gt;Node14 -->
<g id="edge41" class="edge">
<title>Node25&#45;&gt;Node14</title>
<path fill="none" stroke="midnightblue" d="M673.32,-428.91C725.71,-423.74 794.21,-417.19 855,-412 1067.72,-393.85 1122.67,-406.26 1334,-376 1348.76,-373.89 1364.42,-371.02 1379.38,-367.98"/>
<polygon fill="midnightblue" stroke="midnightblue" points="672.67,-425.46 663.06,-429.92 673.35,-432.42 672.67,-425.46"/>
</g>
<!-- Node25&#45;&gt;Node18 -->
<g id="edge42" class="edge">
<title>Node25&#45;&gt;Node18</title>
<path fill="none" stroke="midnightblue" d="M673.34,-428.88C801.2,-415.76 1036.37,-390.75 1120,-376 1123.1,-375.45 1126.25,-374.87 1129.42,-374.26"/>
<polygon fill="midnightblue" stroke="midnightblue" points="672.79,-425.42 663.2,-429.92 673.5,-432.39 672.79,-425.42"/>
</g>
<!-- Node25&#45;&gt;Node22 -->
<g id="edge46" class="edge">
<title>Node25&#45;&gt;Node22</title>
<path fill="none" stroke="midnightblue" d="M508.69,-415.22C468.3,-403.74 418.45,-389.38 374,-376 367.65,-374.09 361.03,-372.06 354.42,-370.02"/>
<polygon fill="midnightblue" stroke="midnightblue" points="507.9,-418.64 518.48,-418 509.81,-411.9 507.9,-418.64"/>
</g>
<!-- Node25&#45;&gt;Node23 -->
<g id="edge47" class="edge">
<title>Node25&#45;&gt;Node23</title>
<path fill="none" stroke="midnightblue" d="M502.85,-435.94C403.38,-432.11 247.7,-419.17 211,-376 195.74,-358.05 196.44,-341.52 211,-323 233.14,-294.84 324.85,-277.97 391.49,-269.21"/>
<polygon fill="midnightblue" stroke="midnightblue" points="502.77,-439.44 512.89,-436.31 503.03,-432.45 502.77,-439.44"/>
</g>
<!-- Node26 -->
<g id="node26" class="node">
<title>Node26</title>
<g id="a_node26"><a xlink:href="likelihoods_8hpp.html" target="_top" xlink:title="Implementation of the likelihoods range adaptor object.">
<polygon fill="none" stroke="black" points="383.5,-329 383.5,-370 544.5,-370 544.5,-329 383.5,-329"/>
<text text-anchor="start" x="391.5" y="-358" font-family="Helvetica,sans-Serif" font-size="10.00">/home/runner/work/beluga</text>
<text text-anchor="start" x="391.5" y="-347" font-family="Helvetica,sans-Serif" font-size="10.00">/beluga/beluga/include</text>
<text text-anchor="middle" x="464" y="-336" font-family="Helvetica,sans-Serif" font-size="10.00">/beluga/views/likelihoods.hpp</text>
</a>
</g>
</g>
<!-- Node25&#45;&gt;Node26 -->
<g id="edge43" class="edge">
<title>Node25&#45;&gt;Node26</title>
<path fill="none" stroke="midnightblue" d="M551.75,-412.07C532.75,-398.73 509.82,-382.65 492.16,-370.26"/>
<polygon fill="midnightblue" stroke="midnightblue" points="549.98,-415.1 560.17,-417.98 554,-409.37 549.98,-415.1"/>
</g>
<!-- Node26&#45;&gt;Node13 -->
<g id="edge44" class="edge">
<title>Node26&#45;&gt;Node13</title>
<path fill="none" stroke="midnightblue" d="M531.82,-325.72C573.07,-311.86 625.22,-294.35 664.62,-281.11"/>
<polygon fill="midnightblue" stroke="midnightblue" points="530.49,-322.47 522.12,-328.98 532.72,-329.11 530.49,-322.47"/>
</g>
<!-- Node26&#45;&gt;Node23 -->
<g id="edge45" class="edge">
<title>Node26&#45;&gt;Node23</title>
<path fill="none" stroke="midnightblue" d="M464,-318.44C464,-306.1 464,-292.16 464,-281.16"/>
<polygon fill="midnightblue" stroke="midnightblue" points="460.5,-318.76 464,-328.76 467.5,-318.76 460.5,-318.76"/>
</g>
</g>
</svg>
        <g id="navigator" transform="translate(0 0)" fill="#404254">
                <rect fill="#f2f5e9" fill-opacity="0.5" stroke="#606060" stroke-width=".5" x="0" y="0" width="60" height="60"/>
                <use id="zoomplus" xlink:href="#zoomPlus" x="17" y="9" onmousedown="handleZoom(evt,'in')"/>
                <use id="zoomminus" xlink:href="#zoomMin" x="42" y="9" onmousedown="handleZoom(evt,'out')"/>
                <use id="reset" xlink:href="#resetDef" x="30" y="36" onmousedown="handleReset()"/>
                <g id="arrowUp" xlink:href="#dirArrow" transform="translate(30 24)" onmousedown="handlePan(0,-1)">
                  <use xlink:href="#rim" fill="#404040">
                        <set attributeName="fill" to="#808080" begin="arrowUp.mouseover" end="arrowUp.mouseout"/>
                  </use>
                  <path fill="none" stroke="white" stroke-width="1.5" d="M0,-3.0v7 M-2.5,-0.5L0,-3.0L2.5,-0.5"/>
                </g>
                <g id="arrowRight" xlink:href="#dirArrow" transform="rotate(90) translate(36 -43)" onmousedown="handlePan(1,0)">
                  <use xlink:href="#rim" fill="#404040">
                        <set attributeName="fill" to="#808080" begin="arrowRight.mouseover" end="arrowRight.mouseout"/>
                  </use>
                  <path fill="none" stroke="white" stroke-width="1.5" d="M0,-3.0v7 M-2.5,-0.5L0,-3.0L2.5,-0.5"/>
                </g>
                <g id="arrowDown" xlink:href="#dirArrow" transform="rotate(180) translate(-30 -48)" onmousedown="handlePan(0,1)">
                  <use xlink:href="#rim" fill="#404040">
                        <set attributeName="fill" to="#808080" begin="arrowDown.mouseover" end="arrowDown.mouseout"/>
                  </use>
                  <path fill="none" stroke="white" stroke-width="1.5" d="M0,-3.0v7 M-2.5,-0.5L0,-3.0L2.5,-0.5"/>
                </g>
                <g id="arrowLeft" xlink:href="#dirArrow" transform="rotate(270) translate(-36 17)" onmousedown="handlePan(-1,0)">
                  <use xlink:href="#rim" fill="#404040">
                        <set attributeName="fill" to="#808080" begin="arrowLeft.mouseover" end="arrowLeft.mouseout"/>
                  </use>
                  <path fill="none" stroke="white" stroke-width="1.5" d="M0,-3.0v7 M-2.5,-0.5L0,-3.0L2.5,-0.5"/>
                </g>
        </g>
        <svg viewBox="0 0 15 15" width="100%" height="30px" preserveAspectRatio="xMaxYMin meet">
         <g id="arrow_out" transform="scale(0.3 0.3)">
          <a xlink:href="tuple__traits_8hpp__dep__incl_org.svg" target="_base">
           <rect id="button" ry="5" rx="5" y="6" x="6" height="38" width="38"
                fill="#f2f5e9" fill-opacity="0.5" stroke="#606060" stroke-width="1.0"/>
           <path id="arrow"
             d="M 11.500037,31.436501 C 11.940474,20.09759 22.043105,11.32322 32.158766,21.979434 L 37.068811,17.246167 C 37.068811,17.246167 37.088388,32 37.088388,32 L 22.160133,31.978069 C 22.160133,31.978069 26.997745,27.140456 26.997745,27.140456 C 18.528582,18.264221 13.291696,25.230495 11.500037,31.436501 z"
             style="fill:#404040;"/>
          </a>
         </g>
        </svg>
</svg>
