<?xml version="1.0" encoding="UTF-8" standalone="no"?>
<!DOCTYPE svg PUBLIC "-//W3C//DTD SVG 1.1//EN"
 "http://www.w3.org/Graphics/SVG/1.1/DTD/svg11.dtd">
<!-- Generated by graphviz version 2.43.0 (0)
 -->
<!-- Title: /home/runner/work/beluga/beluga/beluga/include/beluga/type_traits/tuple_traits.hpp Pages: 1 -->
<svg width="199pt" height="117pt"
 viewBox="0.00 0.00 199.00 117.00" xmlns="http://www.w3.org/2000/svg" xmlns:xlink="http://www.w3.org/1999/xlink">
<g id="graph0" class="graph" transform="scale(1 1) rotate(0) translate(4 113)">
<title>/home/runner/work/beluga/beluga/beluga/include/beluga/type_traits/tuple_traits.hpp</title>
<!-- Node1 -->
<g id="node1" class="node">
<title>Node1</title>
<g id="a_node1"><a xlink:title="Implementation of traits for tuple&#45;like types.">
<polygon fill="#bfbfbf" stroke="black" points="21,-56.5 21,-108.5 166,-108.5 166,-56.5 21,-56.5"/>
<text text-anchor="start" x="29" y="-96.5" font-family="Helvetica,sans-Serif" font-size="10.00">/home/runner/work/beluga</text>
<text text-anchor="start" x="29" y="-85.5" font-family="Helvetica,sans-Serif" font-size="10.00">/beluga/beluga/include</text>
<text text-anchor="start" x="29" y="-74.5" font-family="Helvetica,sans-Serif" font-size="10.00">/beluga/type_traits/tuple</text>
<text text-anchor="middle" x="93.5" y="-63.5" font-family="Helvetica,sans-Serif" font-size="10.00">_traits.hpp</text>
</a>
</g>
</g>
<!-- Node2 -->
<g id="node2" class="node">
<title>Node2</title>
<g id="a_node2"><a xlink:title=" ">
<polygon fill="none" stroke="#bfbfbf" points="0,-0.5 0,-19.5 41,-19.5 41,-0.5 0,-0.5"/>
<text text-anchor="middle" x="20.5" y="-7.5" font-family="Helvetica,sans-Serif" font-size="10.00">tuple</text>
</a>
</g>
</g>
<!-- Node1&#45;&gt;Node2 -->
<g id="edge1" class="edge">
<title>Node1&#45;&gt;Node2</title>
<path fill="none" stroke="midnightblue" d="M67.56,-56.45C57.29,-46.53 45.8,-35.43 36.74,-26.69"/>
<polygon fill="midnightblue" stroke="midnightblue" points="39.13,-24.12 29.5,-19.7 34.27,-29.16 39.13,-24.12"/>
</g>
<!-- Node3 -->
<g id="node3" class="node">
<title>Node3</title>
<g id="a_node3"><a xlink:title=" ">
<polygon fill="none" stroke="#bfbfbf" points="59,-0.5 59,-19.5 128,-19.5 128,-0.5 59,-0.5"/>
<text text-anchor="middle" x="93.5" y="-7.5" font-family="Helvetica,sans-Serif" font-size="10.00">type_traits</text>
</a>
</g>
</g>
<!-- Node1&#45;&gt;Node3 -->
<g id="edge2" class="edge">
<title>Node1&#45;&gt;Node3</title>
<path fill="none" stroke="midnightblue" d="M93.5,-56.45C93.5,-47.73 93.5,-38.1 93.5,-29.96"/>
<polygon fill="midnightblue" stroke="midnightblue" points="97,-29.7 93.5,-19.7 90,-29.7 97,-29.7"/>
</g>
<!-- Node4 -->
<g id="node4" class="node">
<title>Node4</title>
<g id="a_node4"><a xlink:title=" ">
<polygon fill="none" stroke="#bfbfbf" points="146,-0.5 146,-19.5 191,-19.5 191,-0.5 146,-0.5"/>
<text text-anchor="middle" x="168.5" y="-7.5" font-family="Helvetica,sans-Serif" font-size="10.00">utility</text>
</a>
</g>
</g>
<!-- Node1&#45;&gt;Node4 -->
<g id="edge3" class="edge">
<title>Node1&#45;&gt;Node4</title>
<path fill="none" stroke="midnightblue" d="M120.15,-56.45C130.7,-46.53 142.51,-35.43 151.81,-26.69"/>
<polygon fill="midnightblue" stroke="midnightblue" points="154.36,-29.09 159.25,-19.7 149.57,-23.99 154.36,-29.09"/>
</g>
</g>
</svg>
