<?xml version="1.0" encoding="UTF-8" standalone="no"?>
<!DOCTYPE svg PUBLIC "-//W3C//DTD SVG 1.1//EN"
 "http://www.w3.org/Graphics/SVG/1.1/DTD/svg11.dtd">
<!-- Generated by graphviz version 2.43.0 (0)
 -->
<!-- Title: /home/runner/work/beluga/beluga/beluga/include/beluga/type_traits.hpp Pages: 1 -->
<svg width="220pt" height="373pt"
 viewBox="0.00 0.00 220.00 373.00" xmlns="http://www.w3.org/2000/svg" xmlns:xlink="http://www.w3.org/1999/xlink">
<g id="graph0" class="graph" transform="scale(1 1) rotate(0) translate(4 369)">
<title>/home/runner/work/beluga/beluga/beluga/include/beluga/type_traits.hpp</title>
<!-- Node1 -->
<g id="node1" class="node">
<title>Node1</title>
<g id="a_node1"><a xlink:title="Includes all Beluga type traits.">
<polygon fill="#bfbfbf" stroke="black" points="16,-323.5 16,-364.5 161,-364.5 161,-323.5 16,-323.5"/>
<text text-anchor="start" x="24" y="-352.5" font-family="Helvetica,sans-Serif" font-size="10.00">/home/runner/work/beluga</text>
<text text-anchor="start" x="24" y="-341.5" font-family="Helvetica,sans-Serif" font-size="10.00">/beluga/beluga/include</text>
<text text-anchor="middle" x="88.5" y="-330.5" font-family="Helvetica,sans-Serif" font-size="10.00">/beluga/type_traits.hpp</text>
</a>
</g>
</g>
<!-- Node2 -->
<g id="node2" class="node">
<title>Node2</title>
<g id="a_node2"><a xlink:href="beluga_8hpp.html" target="_top" xlink:title="Includes all the Beluga API.">
<polygon fill="none" stroke="black" points="16,-78.5 16,-119.5 161,-119.5 161,-78.5 16,-78.5"/>
<text text-anchor="start" x="24" y="-107.5" font-family="Helvetica,sans-Serif" font-size="10.00">/home/runner/work/beluga</text>
<text text-anchor="start" x="24" y="-96.5" font-family="Helvetica,sans-Serif" font-size="10.00">/beluga/beluga/include</text>
<text text-anchor="middle" x="88.5" y="-85.5" font-family="Helvetica,sans-Serif" font-size="10.00">/beluga/beluga.hpp</text>
</a>
</g>
</g>
<!-- Node1&#45;&gt;Node2 -->
<g id="edge1" class="edge">
<title>Node1&#45;&gt;Node2</title>
<path fill="none" stroke="midnightblue" d="M69.77,-314.5C65.16,-306 60.87,-296.43 58.5,-287 44.33,-230.53 44.33,-212.47 58.5,-156 61.72,-143.16 68.52,-130.06 74.82,-119.75"/>
<polygon fill="midnightblue" stroke="midnightblue" points="66.79,-316.34 74.82,-323.25 72.85,-312.84 66.79,-316.34"/>
</g>
<!-- Node4 -->
<g id="node4" class="node">
<title>Node4</title>
<g id="a_node4"><a xlink:href="tuple__vector_8hpp.html" target="_top" xlink:title="Implementation of a tuple of containers.">
<polygon fill="none" stroke="black" points="67,-234.5 67,-286.5 212,-286.5 212,-234.5 67,-234.5"/>
<text text-anchor="start" x="75" y="-274.5" font-family="Helvetica,sans-Serif" font-size="10.00">/home/runner/work/beluga</text>
<text text-anchor="start" x="75" y="-263.5" font-family="Helvetica,sans-Serif" font-size="10.00">/beluga/beluga/include</text>
<text text-anchor="start" x="75" y="-252.5" font-family="Helvetica,sans-Serif" font-size="10.00">/beluga/containers/tuple</text>
<text text-anchor="middle" x="139.5" y="-241.5" font-family="Helvetica,sans-Serif" font-size="10.00">_vector.hpp</text>
</a>
</g>
</g>
<!-- Node1&#45;&gt;Node4 -->
<g id="edge3" class="edge">
<title>Node1&#45;&gt;Node4</title>
<path fill="none" stroke="midnightblue" d="M106.3,-314.55C112,-305.45 118.26,-295.45 123.79,-286.61"/>
<polygon fill="midnightblue" stroke="midnightblue" points="103.18,-312.94 100.85,-323.27 109.12,-316.65 103.18,-312.94"/>
</g>
<!-- Node3 -->
<g id="node3" class="node">
<title>Node3</title>
<g id="a_node3"><a xlink:href="amcl__core_8hpp_source.html" target="_top" xlink:title=" ">
<polygon fill="none" stroke="black" points="0,-0.5 0,-41.5 177,-41.5 177,-0.5 0,-0.5"/>
<text text-anchor="start" x="8" y="-29.5" font-family="Helvetica,sans-Serif" font-size="10.00">/home/runner/work/beluga</text>
<text text-anchor="start" x="8" y="-18.5" font-family="Helvetica,sans-Serif" font-size="10.00">/beluga/beluga/include</text>
<text text-anchor="middle" x="88.5" y="-7.5" font-family="Helvetica,sans-Serif" font-size="10.00">/beluga/algorithm/amcl_core.hpp</text>
</a>
</g>
</g>
<!-- Node2&#45;&gt;Node3 -->
<g id="edge2" class="edge">
<title>Node2&#45;&gt;Node3</title>
<path fill="none" stroke="midnightblue" d="M88.5,-68.3C88.5,-59.3 88.5,-49.65 88.5,-41.51"/>
<polygon fill="midnightblue" stroke="midnightblue" points="85,-68.43 88.5,-78.43 92,-68.43 85,-68.43"/>
</g>
<!-- Node5 -->
<g id="node5" class="node">
<title>Node5</title>
<g id="a_node5"><a xlink:href="containers_8hpp.html" target="_top" xlink:title="Implementation of efficient containers.">
<polygon fill="none" stroke="black" points="67,-156.5 67,-197.5 212,-197.5 212,-156.5 67,-156.5"/>
<text text-anchor="start" x="75" y="-185.5" font-family="Helvetica,sans-Serif" font-size="10.00">/home/runner/work/beluga</text>
<text text-anchor="start" x="75" y="-174.5" font-family="Helvetica,sans-Serif" font-size="10.00">/beluga/beluga/include</text>
<text text-anchor="middle" x="139.5" y="-163.5" font-family="Helvetica,sans-Serif" font-size="10.00">/beluga/containers.hpp</text>
</a>
</g>
</g>
<!-- Node4&#45;&gt;Node5 -->
<g id="edge4" class="edge">
<title>Node4&#45;&gt;Node5</title>
<path fill="none" stroke="midnightblue" d="M139.5,-224.15C139.5,-215.05 139.5,-205.6 139.5,-197.63"/>
<polygon fill="midnightblue" stroke="midnightblue" points="136,-224.16 139.5,-234.16 143,-224.16 136,-224.16"/>
</g>
<!-- Node5&#45;&gt;Node2 -->
<g id="edge5" class="edge">
<title>Node5&#45;&gt;Node2</title>
<path fill="none" stroke="midnightblue" d="M120.74,-148.05C114.38,-138.57 107.41,-128.18 101.59,-119.51"/>
<polygon fill="midnightblue" stroke="midnightblue" points="117.89,-150.07 126.37,-156.43 123.7,-146.17 117.89,-150.07"/>
</g>
</g>
</svg>
