<?xml version="1.0" encoding="UTF-8" standalone="no"?>
<!DOCTYPE svg PUBLIC "-//W3C//DTD SVG 1.1//EN"
 "http://www.w3.org/Graphics/SVG/1.1/DTD/svg11.dtd">
<!-- Generated by graphviz version 2.43.0 (0)
 -->
<!-- Title: /home/runner/work/beluga/beluga/beluga/include/beluga/sensor/data/value_grid.hpp Pages: 1 -->
<svg width="643pt" height="374pt"
 viewBox="0.00 0.00 642.50 374.00" xmlns="http://www.w3.org/2000/svg" xmlns:xlink="http://www.w3.org/1999/xlink">
<g id="graph0" class="graph" transform="scale(1 1) rotate(0) translate(4 370)">
<title>/home/runner/work/beluga/beluga/beluga/include/beluga/sensor/data/value_grid.hpp</title>
<!-- Node1 -->
<g id="node1" class="node">
<title>Node1</title>
<g id="a_node1"><a xlink:title="Implementation of generic value grid.">
<polygon fill="#bfbfbf" stroke="black" points="297.5,-313.5 297.5,-365.5 442.5,-365.5 442.5,-313.5 297.5,-313.5"/>
<text text-anchor="start" x="305.5" y="-353.5" font-family="Helvetica,sans-Serif" font-size="10.00">/home/runner/work/beluga</text>
<text text-anchor="start" x="305.5" y="-342.5" font-family="Helvetica,sans-Serif" font-size="10.00">/beluga/beluga/include</text>
<text text-anchor="start" x="305.5" y="-331.5" font-family="Helvetica,sans-Serif" font-size="10.00">/beluga/sensor/data/value</text>
<text text-anchor="middle" x="370" y="-320.5" font-family="Helvetica,sans-Serif" font-size="10.00">_grid.hpp</text>
</a>
</g>
</g>
<!-- Node2 -->
<g id="node2" class="node">
<title>Node2</title>
<g id="a_node2"><a xlink:title=" ">
<polygon fill="none" stroke="#bfbfbf" points="304,-185 304,-204 354,-204 354,-185 304,-185"/>
<text text-anchor="middle" x="329" y="-192" font-family="Helvetica,sans-Serif" font-size="10.00">cstdint</text>
</a>
</g>
</g>
<!-- Node1&#45;&gt;Node2 -->
<g id="edge1" class="edge">
<title>Node1&#45;&gt;Node2</title>
<path fill="none" stroke="midnightblue" d="M360.24,-313.28C356.16,-302.24 351.55,-289.07 348,-277 341.73,-255.71 336.18,-230.81 332.72,-214.19"/>
<polygon fill="midnightblue" stroke="midnightblue" points="336.1,-213.25 330.68,-204.15 329.24,-214.65 336.1,-213.25"/>
</g>
<!-- Node3 -->
<g id="node3" class="node">
<title>Node3</title>
<g id="a_node3"><a xlink:title=" ">
<polygon fill="none" stroke="#bfbfbf" points="485.5,-252 485.5,-271 530.5,-271 530.5,-252 485.5,-252"/>
<text text-anchor="middle" x="508" y="-259" font-family="Helvetica,sans-Serif" font-size="10.00">utility</text>
</a>
</g>
</g>
<!-- Node1&#45;&gt;Node3 -->
<g id="edge2" class="edge">
<title>Node1&#45;&gt;Node3</title>
<path fill="none" stroke="midnightblue" d="M415.57,-313.4C438.27,-300.9 464.81,-286.29 483.61,-275.93"/>
<polygon fill="midnightblue" stroke="midnightblue" points="485.35,-278.97 492.42,-271.08 481.98,-272.84 485.35,-278.97"/>
</g>
<!-- Node4 -->
<g id="node4" class="node">
<title>Node4</title>
<g id="a_node4"><a xlink:title=" ">
<polygon fill="none" stroke="#bfbfbf" points="252.5,-118 252.5,-137 299.5,-137 299.5,-118 252.5,-118"/>
<text text-anchor="middle" x="276" y="-125" font-family="Helvetica,sans-Serif" font-size="10.00">vector</text>
</a>
</g>
</g>
<!-- Node1&#45;&gt;Node4 -->
<g id="edge3" class="edge">
<title>Node1&#45;&gt;Node4</title>
<path fill="none" stroke="midnightblue" d="M352.08,-313.1C335.12,-287.98 310.09,-247.92 295,-210 286.8,-189.38 281.62,-164.35 278.78,-147.52"/>
<polygon fill="midnightblue" stroke="midnightblue" points="282.18,-146.66 277.17,-137.32 275.27,-147.75 282.18,-146.66"/>
</g>
<!-- Node5 -->
<g id="node5" class="node">
<title>Node5</title>
<g id="a_node5"><a xlink:href="linear__grid_8hpp.html" target="_top" xlink:title="Concepts and abstract implementations of linear (ie. contiguous storage) grids.">
<polygon fill="none" stroke="black" points="357,-246.5 357,-276.5 467,-276.5 467,-246.5 357,-246.5"/>
<text text-anchor="start" x="365" y="-264.5" font-family="Helvetica,sans-Serif" font-size="10.00">beluga/sensor/data</text>
<text text-anchor="middle" x="412" y="-253.5" font-family="Helvetica,sans-Serif" font-size="10.00">/linear_grid.hpp</text>
</a>
</g>
</g>
<!-- Node1&#45;&gt;Node5 -->
<g id="edge4" class="edge">
<title>Node1&#45;&gt;Node5</title>
<path fill="none" stroke="midnightblue" d="M383.99,-313.19C388.89,-304.31 394.38,-294.39 399.18,-285.69"/>
<polygon fill="midnightblue" stroke="midnightblue" points="402.3,-287.29 404.07,-276.85 396.17,-283.9 402.3,-287.29"/>
</g>
<!-- Node5&#45;&gt;Node2 -->
<g id="edge5" class="edge">
<title>Node5&#45;&gt;Node2</title>
<path fill="none" stroke="midnightblue" d="M393.99,-246.4C380.41,-235.76 361.82,-221.2 348,-210.38"/>
<polygon fill="midnightblue" stroke="midnightblue" points="350.13,-207.6 340.1,-204.19 345.82,-213.12 350.13,-207.6"/>
</g>
<!-- Node5&#45;&gt;Node4 -->
<g id="edge7" class="edge">
<title>Node5&#45;&gt;Node4</title>
<path fill="none" stroke="midnightblue" d="M406.17,-246.37C398.4,-228.87 383.23,-198.92 363,-179 353.42,-169.56 323.88,-153.21 301.87,-141.67"/>
<polygon fill="midnightblue" stroke="midnightblue" points="303.46,-138.55 292.97,-137.05 300.23,-144.77 303.46,-138.55"/>
</g>
<!-- Node6 -->
<g id="node6" class="node">
<title>Node6</title>
<g id="a_node6"><a xlink:title=" ">
<polygon fill="none" stroke="#bfbfbf" points="522,-118 522,-137 578,-137 578,-118 522,-118"/>
<text text-anchor="middle" x="550" y="-125" font-family="Helvetica,sans-Serif" font-size="10.00">optional</text>
</a>
</g>
</g>
<!-- Node5&#45;&gt;Node6 -->
<g id="edge6" class="edge">
<title>Node5&#45;&gt;Node6</title>
<path fill="none" stroke="midnightblue" d="M467.02,-248.11C489.13,-240.52 513.11,-228.58 529,-210 544.03,-192.43 548.5,-165.44 549.73,-147.39"/>
<polygon fill="midnightblue" stroke="midnightblue" points="553.23,-147.37 550.14,-137.24 546.24,-147.09 553.23,-147.37"/>
</g>
<!-- Node7 -->
<g id="node7" class="node">
<title>Node7</title>
<g id="a_node7"><a xlink:href="dense__grid_8hpp.html" target="_top" xlink:title="Concepts and abstract implementations of dense grids.">
<polygon fill="none" stroke="black" points="410,-179.5 410,-209.5 520,-209.5 520,-179.5 410,-179.5"/>
<text text-anchor="start" x="418" y="-197.5" font-family="Helvetica,sans-Serif" font-size="10.00">beluga/sensor/data</text>
<text text-anchor="middle" x="465" y="-186.5" font-family="Helvetica,sans-Serif" font-size="10.00">/dense_grid.hpp</text>
</a>
</g>
</g>
<!-- Node5&#45;&gt;Node7 -->
<g id="edge8" class="edge">
<title>Node5&#45;&gt;Node7</title>
<path fill="none" stroke="midnightblue" d="M423.5,-246.4C430.38,-237.96 439.26,-227.07 447.04,-217.52"/>
<polygon fill="midnightblue" stroke="midnightblue" points="449.92,-219.54 453.52,-209.58 444.49,-215.11 449.92,-219.54"/>
</g>
<!-- Node12 -->
<g id="node12" class="node">
<title>Node12</title>
<g id="a_node12"><a xlink:title=" ">
<polygon fill="none" stroke="#bfbfbf" points="565.5,-56.5 565.5,-75.5 634.5,-75.5 634.5,-56.5 565.5,-56.5"/>
<text text-anchor="middle" x="600" y="-63.5" font-family="Helvetica,sans-Serif" font-size="10.00">Eigen/Core</text>
</a>
</g>
</g>
<!-- Node5&#45;&gt;Node12 -->
<g id="edge20" class="edge">
<title>Node5&#45;&gt;Node12</title>
<path fill="none" stroke="midnightblue" d="M461.94,-246.47C495.95,-236.16 537.21,-221.93 551,-210 587.96,-178.03 597.08,-116.91 599.3,-85.96"/>
<polygon fill="midnightblue" stroke="midnightblue" points="602.81,-85.88 599.86,-75.7 595.82,-85.49 602.81,-85.88"/>
</g>
<!-- Node7&#45;&gt;Node4 -->
<g id="edge10" class="edge">
<title>Node7&#45;&gt;Node4</title>
<path fill="none" stroke="midnightblue" d="M417.47,-179.48C386.34,-169.96 344.92,-156.67 309,-143 307.39,-142.39 305.75,-141.74 304.1,-141.07"/>
<polygon fill="midnightblue" stroke="midnightblue" points="305.29,-137.77 294.71,-137.11 302.56,-144.22 305.29,-137.77"/>
</g>
<!-- Node7&#45;&gt;Node6 -->
<g id="edge9" class="edge">
<title>Node7&#45;&gt;Node6</title>
<path fill="none" stroke="midnightblue" d="M483.44,-179.4C497.35,-168.76 516.39,-154.2 530.54,-143.38"/>
<polygon fill="midnightblue" stroke="midnightblue" points="532.81,-146.05 538.63,-137.19 528.56,-140.49 532.81,-146.05"/>
</g>
<!-- Node8 -->
<g id="node8" class="node">
<title>Node8</title>
<g id="a_node8"><a xlink:href="regular__grid_8hpp.html" target="_top" xlink:title="Concepts and abstract implementations of regular grids.">
<polygon fill="none" stroke="black" points="318,-112.5 318,-142.5 428,-142.5 428,-112.5 318,-112.5"/>
<text text-anchor="start" x="326" y="-130.5" font-family="Helvetica,sans-Serif" font-size="10.00">beluga/sensor/data</text>
<text text-anchor="middle" x="373" y="-119.5" font-family="Helvetica,sans-Serif" font-size="10.00">/regular_grid.hpp</text>
</a>
</g>
</g>
<!-- Node7&#45;&gt;Node8 -->
<g id="edge11" class="edge">
<title>Node7&#45;&gt;Node8</title>
<path fill="none" stroke="midnightblue" d="M445.04,-179.4C432.26,-170.37 415.48,-158.51 401.33,-148.52"/>
<polygon fill="midnightblue" stroke="midnightblue" points="403.11,-145.49 392.92,-142.58 399.07,-151.21 403.11,-145.49"/>
</g>
<!-- Node7&#45;&gt;Node12 -->
<g id="edge18" class="edge">
<title>Node7&#45;&gt;Node12</title>
<path fill="none" stroke="midnightblue" d="M470.49,-179.21C477.87,-161.53 492.49,-131.42 513,-112 527.87,-97.93 547.99,-87.14 565.14,-79.66"/>
<polygon fill="midnightblue" stroke="midnightblue" points="566.93,-82.7 574.83,-75.64 564.25,-76.24 566.93,-82.7"/>
</g>
<!-- Node13 -->
<g id="node13" class="node">
<title>Node13</title>
<g id="a_node13"><a xlink:href="eigen__compatibility_8hpp_source.html" target="_top" xlink:title=" ">
<polygon fill="none" stroke="black" points="378.5,-56.5 378.5,-75.5 547.5,-75.5 547.5,-56.5 378.5,-56.5"/>
<text text-anchor="middle" x="463" y="-63.5" font-family="Helvetica,sans-Serif" font-size="10.00">beluga/eigen_compatibility.hpp</text>
</a>
</g>
</g>
<!-- Node7&#45;&gt;Node13 -->
<g id="edge19" class="edge">
<title>Node7&#45;&gt;Node13</title>
<path fill="none" stroke="midnightblue" d="M464.78,-179.48C464.42,-156.72 463.71,-111.7 463.3,-86.06"/>
<polygon fill="midnightblue" stroke="midnightblue" points="466.8,-85.73 463.14,-75.79 459.8,-85.84 466.8,-85.73"/>
</g>
<!-- Node9 -->
<g id="node9" class="node">
<title>Node9</title>
<g id="a_node9"><a xlink:title=" ">
<polygon fill="none" stroke="#bfbfbf" points="313.5,-56.5 313.5,-75.5 360.5,-75.5 360.5,-56.5 313.5,-56.5"/>
<text text-anchor="middle" x="337" y="-63.5" font-family="Helvetica,sans-Serif" font-size="10.00">cmath</text>
</a>
</g>
</g>
<!-- Node8&#45;&gt;Node9 -->
<g id="edge12" class="edge">
<title>Node8&#45;&gt;Node9</title>
<path fill="none" stroke="midnightblue" d="M364.47,-112.4C359.4,-104.02 352.93,-93.33 347.54,-84.42"/>
<polygon fill="midnightblue" stroke="midnightblue" points="350.41,-82.4 342.24,-75.66 344.42,-86.03 350.41,-82.4"/>
</g>
<!-- Node10 -->
<g id="node10" class="node">
<title>Node10</title>
<g id="a_node10"><a xlink:href="ciabatta_8hpp_source.html" target="_top" xlink:title=" ">
<polygon fill="none" stroke="black" points="0,-56.5 0,-75.5 120,-75.5 120,-56.5 0,-56.5"/>
<text text-anchor="middle" x="60" y="-63.5" font-family="Helvetica,sans-Serif" font-size="10.00">ciabatta/ciabatta.hpp</text>
</a>
</g>
</g>
<!-- Node8&#45;&gt;Node10 -->
<g id="edge13" class="edge">
<title>Node8&#45;&gt;Node10</title>
<path fill="none" stroke="midnightblue" d="M317.71,-114.01C314.43,-113.32 311.17,-112.64 308,-112 244.2,-99.1 170.81,-86 120.52,-77.28"/>
<polygon fill="midnightblue" stroke="midnightblue" points="120.91,-73.8 110.46,-75.55 119.72,-80.7 120.91,-73.8"/>
</g>
<!-- Node11 -->
<g id="node11" class="node">
<title>Node11</title>
<g id="a_node11"><a xlink:title=" ">
<polygon fill="none" stroke="#bfbfbf" points="138,-56.5 138,-75.5 296,-75.5 296,-56.5 138,-56.5"/>
<text text-anchor="middle" x="217" y="-63.5" font-family="Helvetica,sans-Serif" font-size="10.00">range/v3/view/transform.hpp</text>
</a>
</g>
</g>
<!-- Node8&#45;&gt;Node11 -->
<g id="edge14" class="edge">
<title>Node8&#45;&gt;Node11</title>
<path fill="none" stroke="midnightblue" d="M336.03,-112.4C309.62,-102.33 274.44,-88.91 249.19,-79.28"/>
<polygon fill="midnightblue" stroke="midnightblue" points="250.29,-75.95 239.7,-75.66 247.8,-82.49 250.29,-75.95"/>
</g>
<!-- Node8&#45;&gt;Node12 -->
<g id="edge15" class="edge">
<title>Node8&#45;&gt;Node12</title>
<path fill="none" stroke="midnightblue" d="M426.51,-112.47C466.53,-101.99 520.51,-87.84 557.57,-78.12"/>
<polygon fill="midnightblue" stroke="midnightblue" points="558.76,-81.43 567.55,-75.51 556.99,-74.66 558.76,-81.43"/>
</g>
<!-- Node8&#45;&gt;Node13 -->
<g id="edge16" class="edge">
<title>Node8&#45;&gt;Node13</title>
<path fill="none" stroke="midnightblue" d="M394.33,-112.4C408.49,-103.04 427.01,-90.79 441.25,-81.38"/>
<polygon fill="midnightblue" stroke="midnightblue" points="443.49,-84.09 449.9,-75.66 439.63,-78.25 443.49,-84.09"/>
</g>
<!-- Node14 -->
<g id="node14" class="node">
<title>Node14</title>
<g id="a_node14"><a xlink:title=" ">
<polygon fill="none" stroke="#bfbfbf" points="424.5,-0.5 424.5,-19.5 501.5,-19.5 501.5,-0.5 424.5,-0.5"/>
<text text-anchor="middle" x="463" y="-7.5" font-family="Helvetica,sans-Serif" font-size="10.00">Eigen/Dense</text>
</a>
</g>
</g>
<!-- Node13&#45;&gt;Node14 -->
<g id="edge17" class="edge">
<title>Node13&#45;&gt;Node14</title>
<path fill="none" stroke="midnightblue" d="M463,-56.08C463,-49.01 463,-38.86 463,-29.99"/>
<polygon fill="midnightblue" stroke="midnightblue" points="466.5,-29.75 463,-19.75 459.5,-29.75 466.5,-29.75"/>
</g>
</g>
</svg>
