<?xml version="1.0" encoding="UTF-8" standalone="no"?>
<!DOCTYPE svg PUBLIC "-//W3C//DTD SVG 1.1//EN"
 "http://www.w3.org/Graphics/SVG/1.1/DTD/svg11.dtd">
<!-- Generated by graphviz version 2.43.0 (0)
 -->
<!-- Title: /home/runner/work/beluga/beluga/beluga/include/beluga/sensor/data/value_grid.hpp Pages: 1 -->
<svg width="502pt" height="318pt"
 viewBox="0.00 0.00 501.50 318.00" xmlns="http://www.w3.org/2000/svg" xmlns:xlink="http://www.w3.org/1999/xlink">
<g id="graph0" class="graph" transform="scale(1 1) rotate(0) translate(4 314)">
<title>/home/runner/work/beluga/beluga/beluga/include/beluga/sensor/data/value_grid.hpp</title>
<!-- Node1 -->
<g id="node1" class="node">
<title>Node1</title>
<g id="a_node1"><a xlink:title="Implementation of generic value grid.">
<polygon fill="#bfbfbf" stroke="black" points="305.5,-257.5 305.5,-309.5 450.5,-309.5 450.5,-257.5 305.5,-257.5"/>
<text text-anchor="start" x="313.5" y="-297.5" font-family="Helvetica,sans-Serif" font-size="10.00">/home/runner/work/beluga</text>
<text text-anchor="start" x="313.5" y="-286.5" font-family="Helvetica,sans-Serif" font-size="10.00">/beluga/beluga/include</text>
<text text-anchor="start" x="313.5" y="-275.5" font-family="Helvetica,sans-Serif" font-size="10.00">/beluga/sensor/data/value</text>
<text text-anchor="middle" x="378" y="-264.5" font-family="Helvetica,sans-Serif" font-size="10.00">_grid.hpp</text>
</a>
</g>
</g>
<!-- Node2 -->
<g id="node2" class="node">
<title>Node2</title>
<g id="a_node2"><a xlink:title=" ">
<polygon fill="none" stroke="#bfbfbf" points="138,-129 138,-148 188,-148 188,-129 138,-129"/>
<text text-anchor="middle" x="163" y="-136" font-family="Helvetica,sans-Serif" font-size="10.00">cstdint</text>
</a>
</g>
</g>
<!-- Node1&#45;&gt;Node2 -->
<g id="edge1" class="edge">
<title>Node1&#45;&gt;Node2</title>
<path fill="none" stroke="midnightblue" d="M319.4,-257.43C298.1,-247.3 274.29,-234.75 254,-221 224.92,-201.3 195.37,-172.97 178.14,-155.43"/>
<polygon fill="midnightblue" stroke="midnightblue" points="180.61,-152.95 171.13,-148.2 175.58,-157.82 180.61,-152.95"/>
</g>
<!-- Node3 -->
<g id="node3" class="node">
<title>Node3</title>
<g id="a_node3"><a xlink:title=" ">
<polygon fill="none" stroke="#bfbfbf" points="448.5,-196 448.5,-215 493.5,-215 493.5,-196 448.5,-196"/>
<text text-anchor="middle" x="471" y="-203" font-family="Helvetica,sans-Serif" font-size="10.00">utility</text>
</a>
</g>
</g>
<!-- Node1&#45;&gt;Node3 -->
<g id="edge2" class="edge">
<title>Node1&#45;&gt;Node3</title>
<path fill="none" stroke="midnightblue" d="M408.71,-257.4C423.15,-245.6 439.9,-231.91 452.39,-221.7"/>
<polygon fill="midnightblue" stroke="midnightblue" points="454.75,-224.3 460.28,-215.26 450.32,-218.88 454.75,-224.3"/>
</g>
<!-- Node4 -->
<g id="node4" class="node">
<title>Node4</title>
<g id="a_node4"><a xlink:title=" ">
<polygon fill="none" stroke="#bfbfbf" points="389.5,-62 389.5,-81 436.5,-81 436.5,-62 389.5,-62"/>
<text text-anchor="middle" x="413" y="-69" font-family="Helvetica,sans-Serif" font-size="10.00">vector</text>
</a>
</g>
</g>
<!-- Node1&#45;&gt;Node4 -->
<g id="edge3" class="edge">
<title>Node1&#45;&gt;Node4</title>
<path fill="none" stroke="midnightblue" d="M382.22,-257.17C389.34,-214.46 403.57,-129.09 409.87,-91.27"/>
<polygon fill="midnightblue" stroke="midnightblue" points="413.36,-91.6 411.56,-81.17 406.46,-90.45 413.36,-91.6"/>
</g>
<!-- Node5 -->
<g id="node5" class="node">
<title>Node5</title>
<g id="a_node5"><a xlink:href="linear__grid_8hpp.html" target="_top" xlink:title="Concepts and abstract implementations of linear (ie. contiguous storage) grids.">
<polygon fill="none" stroke="black" points="263,-190.5 263,-220.5 373,-220.5 373,-190.5 263,-190.5"/>
<text text-anchor="start" x="271" y="-208.5" font-family="Helvetica,sans-Serif" font-size="10.00">beluga/sensor/data</text>
<text text-anchor="middle" x="318" y="-197.5" font-family="Helvetica,sans-Serif" font-size="10.00">/linear_grid.hpp</text>
</a>
</g>
</g>
<!-- Node1&#45;&gt;Node5 -->
<g id="edge4" class="edge">
<title>Node1&#45;&gt;Node5</title>
<path fill="none" stroke="midnightblue" d="M358.02,-257.19C350.79,-248.03 342.68,-237.76 335.66,-228.86"/>
<polygon fill="midnightblue" stroke="midnightblue" points="338.27,-226.53 329.33,-220.85 332.77,-230.86 338.27,-226.53"/>
</g>
<!-- Node5&#45;&gt;Node2 -->
<g id="edge5" class="edge">
<title>Node5&#45;&gt;Node2</title>
<path fill="none" stroke="midnightblue" d="M284.37,-190.4C257.05,-178.94 218.89,-162.94 192.69,-151.95"/>
<polygon fill="midnightblue" stroke="midnightblue" points="193.86,-148.65 183.29,-148.01 191.15,-155.1 193.86,-148.65"/>
</g>
<!-- Node5&#45;&gt;Node4 -->
<g id="edge7" class="edge">
<title>Node5&#45;&gt;Node4</title>
<path fill="none" stroke="midnightblue" d="M331.71,-190.49C341.01,-180.67 353.33,-167.01 363,-154 378.56,-133.06 393.86,-107.12 403.35,-90.2"/>
<polygon fill="midnightblue" stroke="midnightblue" points="406.45,-91.84 408.23,-81.39 400.32,-88.45 406.45,-91.84"/>
</g>
<!-- Node6 -->
<g id="node6" class="node">
<title>Node6</title>
<g id="a_node6"><a xlink:title=" ">
<polygon fill="none" stroke="#bfbfbf" points="149,-62 149,-81 205,-81 205,-62 149,-62"/>
<text text-anchor="middle" x="177" y="-69" font-family="Helvetica,sans-Serif" font-size="10.00">optional</text>
</a>
</g>
</g>
<!-- Node5&#45;&gt;Node6 -->
<g id="edge6" class="edge">
<title>Node5&#45;&gt;Node6</title>
<path fill="none" stroke="midnightblue" d="M288.75,-190.49C271.88,-181.53 250.93,-168.82 235,-154 214.7,-135.11 197.16,-108.08 186.84,-90.41"/>
<polygon fill="midnightblue" stroke="midnightblue" points="189.6,-88.19 181.62,-81.22 183.51,-91.65 189.6,-88.19"/>
</g>
<!-- Node7 -->
<g id="node7" class="node">
<title>Node7</title>
<g id="a_node7"><a xlink:href="dense__grid_8hpp.html" target="_top" xlink:title="Concepts and abstract implementations of dense grids.">
<polygon fill="none" stroke="black" points="244,-123.5 244,-153.5 354,-153.5 354,-123.5 244,-123.5"/>
<text text-anchor="start" x="252" y="-141.5" font-family="Helvetica,sans-Serif" font-size="10.00">beluga/sensor/data</text>
<text text-anchor="middle" x="299" y="-130.5" font-family="Helvetica,sans-Serif" font-size="10.00">/dense_grid.hpp</text>
</a>
</g>
</g>
<!-- Node5&#45;&gt;Node7 -->
<g id="edge8" class="edge">
<title>Node5&#45;&gt;Node7</title>
<path fill="none" stroke="midnightblue" d="M313.88,-190.4C311.56,-182.47 308.61,-172.38 305.95,-163.27"/>
<polygon fill="midnightblue" stroke="midnightblue" points="309.28,-162.19 303.11,-153.58 302.56,-164.16 309.28,-162.19"/>
</g>
<!-- Node12 -->
<g id="node12" class="node">
<title>Node12</title>
<g id="a_node12"><a xlink:title=" ">
<polygon fill="none" stroke="#bfbfbf" points="378.5,-0.5 378.5,-19.5 447.5,-19.5 447.5,-0.5 378.5,-0.5"/>
<text text-anchor="middle" x="413" y="-7.5" font-family="Helvetica,sans-Serif" font-size="10.00">Eigen/Core</text>
</a>
</g>
</g>
<!-- Node5&#45;&gt;Node12 -->
<g id="edge17" class="edge">
<title>Node5&#45;&gt;Node12</title>
<path fill="none" stroke="midnightblue" d="M344.73,-190.39C376.63,-171.74 427.93,-135.48 446,-87 450.81,-74.09 450.29,-69.09 446,-56 442.51,-45.34 435.43,-35.12 428.71,-27.12"/>
<polygon fill="midnightblue" stroke="midnightblue" points="431.3,-24.76 422.02,-19.66 426.1,-29.44 431.3,-24.76"/>
</g>
<!-- Node7&#45;&gt;Node4 -->
<g id="edge10" class="edge">
<title>Node7&#45;&gt;Node4</title>
<path fill="none" stroke="midnightblue" d="M323.74,-123.4C343.21,-112.29 370.17,-96.92 389.35,-85.98"/>
<polygon fill="midnightblue" stroke="midnightblue" points="391.13,-89 398.08,-81.01 387.66,-82.92 391.13,-89"/>
</g>
<!-- Node7&#45;&gt;Node6 -->
<g id="edge9" class="edge">
<title>Node7&#45;&gt;Node6</title>
<path fill="none" stroke="midnightblue" d="M272.53,-123.4C251.6,-112.24 222.57,-96.78 202.03,-85.83"/>
<polygon fill="midnightblue" stroke="midnightblue" points="203.44,-82.62 192.97,-81.01 200.15,-88.8 203.44,-82.62"/>
</g>
<!-- Node8 -->
<g id="node8" class="node">
<title>Node8</title>
<g id="a_node8"><a xlink:href="regular__grid_8hpp.html" target="_top" xlink:title="Concepts and abstract implementations of regular grids.">
<polygon fill="none" stroke="black" points="223,-56.5 223,-86.5 333,-86.5 333,-56.5 223,-56.5"/>
<text text-anchor="start" x="231" y="-74.5" font-family="Helvetica,sans-Serif" font-size="10.00">beluga/sensor/data</text>
<text text-anchor="middle" x="278" y="-63.5" font-family="Helvetica,sans-Serif" font-size="10.00">/regular_grid.hpp</text>
</a>
</g>
</g>
<!-- Node7&#45;&gt;Node8 -->
<g id="edge11" class="edge">
<title>Node7&#45;&gt;Node8</title>
<path fill="none" stroke="midnightblue" d="M294.44,-123.4C291.88,-115.47 288.62,-105.38 285.68,-96.27"/>
<polygon fill="midnightblue" stroke="midnightblue" points="288.95,-95.02 282.55,-86.58 282.29,-97.17 288.95,-95.02"/>
</g>
<!-- Node7&#45;&gt;Node12 -->
<g id="edge16" class="edge">
<title>Node7&#45;&gt;Node12</title>
<path fill="none" stroke="midnightblue" d="M311.64,-123.48C332.89,-99.9 375.66,-52.43 398.25,-27.36"/>
<polygon fill="midnightblue" stroke="midnightblue" points="400.99,-29.56 405.08,-19.79 395.79,-24.87 400.99,-29.56"/>
</g>
<!-- Node9 -->
<g id="node9" class="node">
<title>Node9</title>
<g id="a_node9"><a xlink:title=" ">
<polygon fill="none" stroke="#bfbfbf" points="313.5,-0.5 313.5,-19.5 360.5,-19.5 360.5,-0.5 313.5,-0.5"/>
<text text-anchor="middle" x="337" y="-7.5" font-family="Helvetica,sans-Serif" font-size="10.00">cmath</text>
</a>
</g>
</g>
<!-- Node8&#45;&gt;Node9 -->
<g id="edge12" class="edge">
<title>Node8&#45;&gt;Node9</title>
<path fill="none" stroke="midnightblue" d="M291.98,-56.4C300.73,-47.58 312.03,-36.18 321.12,-27.02"/>
<polygon fill="midnightblue" stroke="midnightblue" points="323.86,-29.22 328.41,-19.66 318.89,-24.29 323.86,-29.22"/>
</g>
<!-- Node10 -->
<g id="node10" class="node">
<title>Node10</title>
<g id="a_node10"><a xlink:href="ciabatta_8hpp_source.html" target="_top" xlink:title=" ">
<polygon fill="none" stroke="black" points="0,-0.5 0,-19.5 120,-19.5 120,-0.5 0,-0.5"/>
<text text-anchor="middle" x="60" y="-7.5" font-family="Helvetica,sans-Serif" font-size="10.00">ciabatta/ciabatta.hpp</text>
</a>
</g>
</g>
<!-- Node8&#45;&gt;Node10 -->
<g id="edge13" class="edge">
<title>Node8&#45;&gt;Node10</title>
<path fill="none" stroke="midnightblue" d="M226.61,-56.47C188.35,-46.03 136.79,-31.96 101.21,-22.25"/>
<polygon fill="midnightblue" stroke="midnightblue" points="101.73,-18.76 91.17,-19.51 99.89,-25.52 101.73,-18.76"/>
</g>
<!-- Node11 -->
<g id="node11" class="node">
<title>Node11</title>
<g id="a_node11"><a xlink:title=" ">
<polygon fill="none" stroke="#bfbfbf" points="138,-0.5 138,-19.5 296,-19.5 296,-0.5 138,-0.5"/>
<text text-anchor="middle" x="217" y="-7.5" font-family="Helvetica,sans-Serif" font-size="10.00">range/v3/view/transform.hpp</text>
</a>
</g>
</g>
<!-- Node8&#45;&gt;Node11 -->
<g id="edge14" class="edge">
<title>Node8&#45;&gt;Node11</title>
<path fill="none" stroke="midnightblue" d="M263.54,-56.4C254.41,-47.49 242.58,-35.95 233.14,-26.74"/>
<polygon fill="midnightblue" stroke="midnightblue" points="235.48,-24.13 225.88,-19.66 230.59,-29.15 235.48,-24.13"/>
</g>
<!-- Node8&#45;&gt;Node12 -->
<g id="edge15" class="edge">
<title>Node8&#45;&gt;Node12</title>
<path fill="none" stroke="midnightblue" d="M309.99,-56.4C332.44,-46.51 362.21,-33.38 383.98,-23.79"/>
<polygon fill="midnightblue" stroke="midnightblue" points="385.62,-26.89 393.36,-19.66 382.79,-20.49 385.62,-26.89"/>
</g>
</g>
</svg>
