<?xml version="1.0" encoding="UTF-8" standalone="no"?>
<!DOCTYPE svg PUBLIC "-//W3C//DTD SVG 1.1//EN"
 "http://www.w3.org/Graphics/SVG/1.1/DTD/svg11.dtd">
<!-- Generated by graphviz version 2.43.0 (0)
 -->
<!-- Title: /home/runner/work/beluga/beluga/beluga/include/beluga/views.hpp Pages: 1 -->
<!--zoomable 363 -->
<svg id="main" version="1.1" xmlns="http://www.w3.org/2000/svg" xmlns:xlink="http://www.w3.org/1999/xlink" xml:space="preserve" onload="init(evt)">
<style type="text/css"><![CDATA[
.edge:hover path { stroke: red; }
.edge:hover polygon { stroke: red; fill: red; }
]]></style>
<script type="text/javascript"><![CDATA[
var edges = document.getElementsByTagName('g');
if (edges && edges.length) {
  for (var i=0;i<edges.length;i++) {
    if (edges[i].id.substr(0,4)=='edge') {
      edges[i].setAttribute('class','edge');
    }
  }
}
]]></script>
        <defs>
                <circle id="rim" cx="0" cy="0" r="7"/>
                <circle id="rim2" cx="0" cy="0" r="3.5"/>
                <g id="zoomPlus">
                        <use xlink:href="#rim" fill="#404040">
                                <set attributeName="fill" to="#808080" begin="zoomplus.mouseover" end="zoomplus.mouseout"/>
                        </use>
                        <path d="M-4,0h8M0,-4v8" fill="none" stroke="white" stroke-width="1.5" pointer-events="none"/>
                </g>
                <g id="zoomMin">
                        <use xlink:href="#rim" fill="#404040">
                                <set attributeName="fill" to="#808080" begin="zoomminus.mouseover" end="zoomminus.mouseout"/>
                        </use>
                        <path d="M-4,0h8" fill="none" stroke="white" stroke-width="1.5" pointer-events="none"/>
                </g>
                <g id="dirArrow">
                        <path fill="none" stroke="white" stroke-width="1.5" d="M0,-3.0v7 M-2.5,-0.5L0,-3.0L2.5,-0.5"/>
                </g>
               <g id="resetDef">
                       <use xlink:href="#rim2" fill="#404040">
                               <set attributeName="fill" to="#808080" begin="reset.mouseover" end="reset.mouseout"/>
                       </use>
               </g>
        </defs>

<script type="text/javascript">
var viewWidth = 2634;
var viewHeight = 363;
var sectionId = 'dynsection-0';
</script>
<script xlink:href="svgpan.js"/>
<svg id="graph" class="graph">
<g id="viewport">
<title>/home/runner/work/beluga/beluga/beluga/include/beluga/views.hpp</title>
<!-- Node1 -->
<g id="node1" class="node">
<title>Node1</title>
<g id="a_node1"><a xlink:title="Implementation of useful container views.">
<polygon fill="#bfbfbf" stroke="black" points="1082.5,-313.5 1082.5,-354.5 1227.5,-354.5 1227.5,-313.5 1082.5,-313.5"/>
<text text-anchor="start" x="1090.5" y="-342.5" font-family="Helvetica,sans-Serif" font-size="10.00">/home/runner/work/beluga</text>
<text text-anchor="start" x="1090.5" y="-331.5" font-family="Helvetica,sans-Serif" font-size="10.00">/beluga/beluga/include</text>
<text text-anchor="middle" x="1155" y="-320.5" font-family="Helvetica,sans-Serif" font-size="10.00">/beluga/views.hpp</text>
</a>
</g>
</g>
<!-- Node2 -->
<g id="node2" class="node">
<title>Node2</title>
<g id="a_node2"><a xlink:href="elements_8hpp.html" target="_top" xlink:title="Implementation of the C++20&#39;s std::views::elements view.">
<polygon fill="none" stroke="black" points="1250.5,-185 1250.5,-204 1401.5,-204 1401.5,-185 1250.5,-185"/>
<text text-anchor="middle" x="1326" y="-192" font-family="Helvetica,sans-Serif" font-size="10.00">beluga/views/elements.hpp</text>
</a>
</g>
</g>
<!-- Node1&#45;&gt;Node2 -->
<g id="edge1" class="edge">
<title>Node1&#45;&gt;Node2</title>
<path fill="none" stroke="midnightblue" d="M1179.5,-313.3C1214.11,-285.47 1276.54,-235.27 1307.53,-210.35"/>
<polygon fill="midnightblue" stroke="midnightblue" points="1309.78,-213.03 1315.38,-204.04 1305.4,-207.58 1309.78,-213.03"/>
</g>
<!-- Node5 -->
<g id="node5" class="node">
<title>Node5</title>
<g id="a_node5"><a xlink:href="likelihoods_8hpp.html" target="_top" xlink:title="Implementation of the likelihoods range adaptor object.">
<polygon fill="none" stroke="black" points="0,-252 0,-271 158,-271 158,-252 0,-252"/>
<text text-anchor="middle" x="79" y="-259" font-family="Helvetica,sans-Serif" font-size="10.00">beluga/views/likelihoods.hpp</text>
</a>
</g>
</g>
<!-- Node1&#45;&gt;Node5 -->
<g id="edge4" class="edge">
<title>Node1&#45;&gt;Node5</title>
<path fill="none" stroke="midnightblue" d="M1082.31,-328.24C891.5,-315.74 376.72,-282.01 168.36,-268.35"/>
<polygon fill="midnightblue" stroke="midnightblue" points="168.28,-264.84 158.07,-267.68 167.82,-271.83 168.28,-264.84"/>
</g>
<!-- Node7 -->
<g id="node7" class="node">
<title>Node7</title>
<g id="a_node7"><a xlink:href="particles_8hpp.html" target="_top" xlink:title="Implementation of views related to particle ranges.">
<polygon fill="none" stroke="black" points="56.5,-185 56.5,-204 203.5,-204 203.5,-185 56.5,-185"/>
<text text-anchor="middle" x="130" y="-192" font-family="Helvetica,sans-Serif" font-size="10.00">beluga/views/particles.hpp</text>
</a>
</g>
</g>
<!-- Node1&#45;&gt;Node7 -->
<g id="edge21" class="edge">
<title>Node1&#45;&gt;Node7</title>
<path fill="none" stroke="midnightblue" d="M1082.43,-330.7C957.05,-325.92 692.05,-312.25 471,-277 360.25,-259.34 232.29,-224.88 169.25,-206.96"/>
<polygon fill="midnightblue" stroke="midnightblue" points="169.92,-203.51 159.34,-204.12 167.99,-210.24 169.92,-203.51"/>
</g>
<!-- Node15 -->
<g id="node15" class="node">
<title>Node15</title>
<g id="a_node15"><a xlink:href="random__intersperse_8hpp.html" target="_top" xlink:title="Implementation of a random_intersperse range adaptor object.">
<polygon fill="none" stroke="black" points="480,-246.5 480,-276.5 602,-276.5 602,-246.5 480,-246.5"/>
<text text-anchor="start" x="488" y="-264.5" font-family="Helvetica,sans-Serif" font-size="10.00">beluga/views/random</text>
<text text-anchor="middle" x="541" y="-253.5" font-family="Helvetica,sans-Serif" font-size="10.00">_intersperse.hpp</text>
</a>
</g>
</g>
<!-- Node1&#45;&gt;Node15 -->
<g id="edge22" class="edge">
<title>Node1&#45;&gt;Node15</title>
<path fill="none" stroke="midnightblue" d="M1082.46,-324.67C963.9,-311.06 730.05,-284.21 612.3,-270.69"/>
<polygon fill="midnightblue" stroke="midnightblue" points="612.64,-267.2 602.31,-269.54 611.84,-274.16 612.64,-267.2"/>
</g>
<!-- Node21 -->
<g id="node21" class="node">
<title>Node21</title>
<g id="a_node21"><a xlink:href="sample_8hpp.html" target="_top" xlink:title="Implementation of a sample (with replacement) range adaptor object.">
<polygon fill="none" stroke="black" points="914.5,-252 914.5,-271 1055.5,-271 1055.5,-252 914.5,-252"/>
<text text-anchor="middle" x="985" y="-259" font-family="Helvetica,sans-Serif" font-size="10.00">beluga/views/sample.hpp</text>
</a>
</g>
</g>
<!-- Node1&#45;&gt;Node21 -->
<g id="edge30" class="edge">
<title>Node1&#45;&gt;Node21</title>
<path fill="none" stroke="midnightblue" d="M1107.65,-313.36C1078.16,-301.13 1041.09,-285.76 1015.47,-275.14"/>
<polygon fill="midnightblue" stroke="midnightblue" points="1016.49,-271.77 1005.91,-271.17 1013.81,-278.24 1016.49,-271.77"/>
</g>
<!-- Node26 -->
<g id="node26" class="node">
<title>Node26</title>
<g id="a_node26"><a xlink:href="take__evenly_8hpp.html" target="_top" xlink:title="Implementation of a take_evenly range adaptor object.">
<polygon fill="none" stroke="black" points="1410.5,-252 1410.5,-271 1573.5,-271 1573.5,-252 1410.5,-252"/>
<text text-anchor="middle" x="1492" y="-259" font-family="Helvetica,sans-Serif" font-size="10.00">beluga/views/take_evenly.hpp</text>
</a>
</g>
</g>
<!-- Node1&#45;&gt;Node26 -->
<g id="edge40" class="edge">
<title>Node1&#45;&gt;Node26</title>
<path fill="none" stroke="midnightblue" d="M1227.71,-317.79C1292.14,-304.31 1384.56,-284.98 1441.31,-273.11"/>
<polygon fill="midnightblue" stroke="midnightblue" points="1442.06,-276.52 1451.13,-271.05 1440.62,-269.67 1442.06,-276.52"/>
</g>
<!-- Node30 -->
<g id="node30" class="node">
<title>Node30</title>
<g id="a_node30"><a xlink:href="take__while__kld_8hpp.html" target="_top" xlink:title="Implementation of a take_while_kld range adaptor object.">
<polygon fill="none" stroke="black" points="2076.5,-246.5 2076.5,-276.5 2213.5,-276.5 2213.5,-246.5 2076.5,-246.5"/>
<text text-anchor="start" x="2084.5" y="-264.5" font-family="Helvetica,sans-Serif" font-size="10.00">beluga/views/take_while</text>
<text text-anchor="middle" x="2145" y="-253.5" font-family="Helvetica,sans-Serif" font-size="10.00">_kld.hpp</text>
</a>
</g>
</g>
<!-- Node1&#45;&gt;Node30 -->
<g id="edge45" class="edge">
<title>Node1&#45;&gt;Node30</title>
<path fill="none" stroke="midnightblue" d="M1227.8,-327.82C1409,-314.91 1879.1,-281.44 2066.35,-268.1"/>
<polygon fill="midnightblue" stroke="midnightblue" points="2066.67,-271.59 2076.4,-267.39 2066.17,-264.6 2066.67,-271.59"/>
</g>
<!-- Node35 -->
<g id="node35" class="node">
<title>Node35</title>
<g id="a_node35"><a xlink:href="zip_8hpp.html" target="_top" xlink:title="Implementation of a zip range adaptor object.">
<polygon fill="none" stroke="black" points="2489.5,-252 2489.5,-271 2608.5,-271 2608.5,-252 2489.5,-252"/>
<text text-anchor="middle" x="2549" y="-259" font-family="Helvetica,sans-Serif" font-size="10.00">beluga/views/zip.hpp</text>
</a>
</g>
</g>
<!-- Node1&#45;&gt;Node35 -->
<g id="edge51" class="edge">
<title>Node1&#45;&gt;Node35</title>
<path fill="none" stroke="midnightblue" d="M1227.98,-329.31C1469.62,-317.09 2241.69,-278.04 2478.96,-266.04"/>
<polygon fill="midnightblue" stroke="midnightblue" points="2479.37,-269.53 2489.18,-265.53 2479.02,-262.53 2479.37,-269.53"/>
</g>
<!-- Node3 -->
<g id="node3" class="node">
<title>Node3</title>
<g id="a_node3"><a xlink:title=" ">
<polygon fill="none" stroke="#bfbfbf" points="1093.5,-0.5 1093.5,-19.5 1134.5,-19.5 1134.5,-0.5 1093.5,-0.5"/>
<text text-anchor="middle" x="1114" y="-7.5" font-family="Helvetica,sans-Serif" font-size="10.00">tuple</text>
</a>
</g>
</g>
<!-- Node2&#45;&gt;Node3 -->
<g id="edge2" class="edge">
<title>Node2&#45;&gt;Node3</title>
<path fill="none" stroke="midnightblue" d="M1316.06,-184.94C1282.75,-156.27 1174.78,-63.32 1131.84,-26.36"/>
<polygon fill="midnightblue" stroke="midnightblue" points="1134.03,-23.62 1124.17,-19.75 1129.46,-28.93 1134.03,-23.62"/>
</g>
<!-- Node4 -->
<g id="node4" class="node">
<title>Node4</title>
<g id="a_node4"><a xlink:title=" ">
<polygon fill="none" stroke="#bfbfbf" points="46,-123.5 46,-142.5 204,-142.5 204,-123.5 46,-123.5"/>
<text text-anchor="middle" x="125" y="-130.5" font-family="Helvetica,sans-Serif" font-size="10.00">range/v3/view/transform.hpp</text>
</a>
</g>
</g>
<!-- Node2&#45;&gt;Node4 -->
<g id="edge3" class="edge">
<title>Node2&#45;&gt;Node4</title>
<path fill="none" stroke="midnightblue" d="M1282.47,-184.97C1269.21,-182.67 1254.55,-180.42 1241,-179 1042.64,-158.17 442.45,-141.76 214.31,-136.12"/>
<polygon fill="midnightblue" stroke="midnightblue" points="214.14,-132.61 204.05,-135.86 213.96,-139.61 214.14,-132.61"/>
</g>
<!-- Node5&#45;&gt;Node4 -->
<g id="edge20" class="edge">
<title>Node5&#45;&gt;Node4</title>
<path fill="none" stroke="midnightblue" d="M70.4,-251.54C56.66,-236.1 32.71,-203.75 47,-179 55.68,-163.98 71.49,-153.52 86.62,-146.5"/>
<polygon fill="midnightblue" stroke="midnightblue" points="88.05,-149.69 95.88,-142.56 85.31,-143.25 88.05,-149.69"/>
</g>
<!-- Node6 -->
<g id="node6" class="node">
<title>Node6</title>
<g id="a_node6"><a xlink:title=" ">
<polygon fill="none" stroke="#bfbfbf" points="588.5,-0.5 588.5,-19.5 633.5,-19.5 633.5,-0.5 588.5,-0.5"/>
<text text-anchor="middle" x="611" y="-7.5" font-family="Helvetica,sans-Serif" font-size="10.00">utility</text>
</a>
</g>
</g>
<!-- Node5&#45;&gt;Node6 -->
<g id="edge5" class="edge">
<title>Node5&#45;&gt;Node6</title>
<path fill="none" stroke="midnightblue" d="M69.29,-251.96C59.58,-242.72 45.21,-227.02 39,-210 25.74,-173.67 11.13,-151.75 37,-123 87.82,-66.52 302.69,-102.82 377,-87 451.61,-71.12 536,-40.41 580.22,-23.29"/>
<polygon fill="midnightblue" stroke="midnightblue" points="581.75,-26.45 589.79,-19.55 579.21,-19.93 581.75,-26.45"/>
</g>
<!-- Node5&#45;&gt;Node7 -->
<g id="edge6" class="edge">
<title>Node5&#45;&gt;Node7</title>
<path fill="none" stroke="midnightblue" d="M85.88,-251.73C93.83,-241.6 107.1,-224.69 117.01,-212.06"/>
<polygon fill="midnightblue" stroke="midnightblue" points="119.81,-214.16 123.23,-204.13 114.3,-209.83 119.81,-214.16"/>
</g>
<!-- Node7&#45;&gt;Node4 -->
<g id="edge19" class="edge">
<title>Node7&#45;&gt;Node4</title>
<path fill="none" stroke="midnightblue" d="M129.28,-184.98C128.58,-176.58 127.48,-163.48 126.57,-152.66"/>
<polygon fill="midnightblue" stroke="midnightblue" points="130.04,-152.18 125.72,-142.51 123.06,-152.77 130.04,-152.18"/>
</g>
<!-- Node8 -->
<g id="node8" class="node">
<title>Node8</title>
<g id="a_node8"><a xlink:href="primitives_8hpp.html" target="_top" xlink:title="Implementation of library primitives to abstract member access.">
<polygon fill="none" stroke="black" points="499.5,-123.5 499.5,-142.5 622.5,-142.5 622.5,-123.5 499.5,-123.5"/>
<text text-anchor="middle" x="561" y="-130.5" font-family="Helvetica,sans-Serif" font-size="10.00">beluga/primitives.hpp</text>
</a>
</g>
</g>
<!-- Node7&#45;&gt;Node8 -->
<g id="edge7" class="edge">
<title>Node7&#45;&gt;Node8</title>
<path fill="none" stroke="midnightblue" d="M191.75,-184.98C270.4,-174.12 406.07,-155.39 489.24,-143.91"/>
<polygon fill="midnightblue" stroke="midnightblue" points="489.94,-147.34 499.36,-142.51 488.98,-140.41 489.94,-147.34"/>
</g>
<!-- Node8&#45;&gt;Node3 -->
<g id="edge8" class="edge">
<title>Node8&#45;&gt;Node3</title>
<path fill="none" stroke="midnightblue" d="M599.89,-123.49C704.28,-100.65 989.14,-38.32 1083.32,-17.71"/>
<polygon fill="midnightblue" stroke="midnightblue" points="1084.32,-21.08 1093.34,-15.52 1082.82,-14.24 1084.32,-21.08"/>
</g>
<!-- Node9 -->
<g id="node9" class="node">
<title>Node9</title>
<g id="a_node9"><a xlink:title=" ">
<polygon fill="none" stroke="#bfbfbf" points="418.5,-0.5 418.5,-19.5 487.5,-19.5 487.5,-0.5 418.5,-0.5"/>
<text text-anchor="middle" x="453" y="-7.5" font-family="Helvetica,sans-Serif" font-size="10.00">type_traits</text>
</a>
</g>
</g>
<!-- Node8&#45;&gt;Node9 -->
<g id="edge9" class="edge">
<title>Node8&#45;&gt;Node9</title>
<path fill="none" stroke="midnightblue" d="M542.07,-123.38C526.73,-115.63 505.38,-103.02 491,-87 475.8,-70.07 465.12,-45.96 459.04,-29.46"/>
<polygon fill="midnightblue" stroke="midnightblue" points="462.29,-28.16 455.7,-19.87 455.68,-30.46 462.29,-28.16"/>
</g>
<!-- Node10 -->
<g id="node10" class="node">
<title>Node10</title>
<g id="a_node10"><a xlink:href="strongly__typed__numeric_8hpp.html" target="_top" xlink:title="Implementation of a strongly typed numeric helper.">
<polygon fill="none" stroke="black" points="210,-56.5 210,-86.5 368,-86.5 368,-56.5 210,-56.5"/>
<text text-anchor="start" x="218" y="-74.5" font-family="Helvetica,sans-Serif" font-size="10.00">beluga/type_traits</text>
<text text-anchor="middle" x="289" y="-63.5" font-family="Helvetica,sans-Serif" font-size="10.00">/strongly_typed_numeric.hpp</text>
</a>
</g>
</g>
<!-- Node8&#45;&gt;Node10 -->
<g id="edge10" class="edge">
<title>Node8&#45;&gt;Node10</title>
<path fill="none" stroke="midnightblue" d="M522.03,-123.48C480.71,-114.44 414.47,-99.95 363.16,-88.72"/>
<polygon fill="midnightblue" stroke="midnightblue" points="363.62,-85.24 353.11,-86.52 362.13,-92.08 363.62,-85.24"/>
</g>
<!-- Node13 -->
<g id="node13" class="node">
<title>Node13</title>
<g id="a_node13"><a xlink:href="tuple__traits_8hpp.html" target="_top" xlink:title="Implementation of traits for tuple&#45;like types.">
<polygon fill="none" stroke="black" points="640.5,-56.5 640.5,-86.5 745.5,-86.5 745.5,-56.5 640.5,-56.5"/>
<text text-anchor="start" x="648.5" y="-74.5" font-family="Helvetica,sans-Serif" font-size="10.00">beluga/type_traits</text>
<text text-anchor="middle" x="693" y="-63.5" font-family="Helvetica,sans-Serif" font-size="10.00">/tuple_traits.hpp</text>
</a>
</g>
</g>
<!-- Node8&#45;&gt;Node13 -->
<g id="edge14" class="edge">
<title>Node8&#45;&gt;Node13</title>
<path fill="none" stroke="midnightblue" d="M579.91,-123.48C598.79,-114.96 628.4,-101.62 652.58,-90.72"/>
<polygon fill="midnightblue" stroke="midnightblue" points="654.21,-93.82 661.89,-86.52 651.34,-87.44 654.21,-93.82"/>
</g>
<!-- Node14 -->
<g id="node14" class="node">
<title>Node14</title>
<g id="a_node14"><a xlink:href="forward__like_8hpp_source.html" target="_top" xlink:title=" ">
<polygon fill="none" stroke="black" points="500,-56.5 500,-86.5 622,-86.5 622,-56.5 500,-56.5"/>
<text text-anchor="start" x="508" y="-74.5" font-family="Helvetica,sans-Serif" font-size="10.00">beluga/utility/forward</text>
<text text-anchor="middle" x="561" y="-63.5" font-family="Helvetica,sans-Serif" font-size="10.00">_like.hpp</text>
</a>
</g>
</g>
<!-- Node8&#45;&gt;Node14 -->
<g id="edge18" class="edge">
<title>Node8&#45;&gt;Node14</title>
<path fill="none" stroke="midnightblue" d="M561,-123.48C561,-116.47 561,-106.19 561,-96.7"/>
<polygon fill="midnightblue" stroke="midnightblue" points="564.5,-96.52 561,-86.52 557.5,-96.52 564.5,-96.52"/>
</g>
<!-- Node10&#45;&gt;Node9 -->
<g id="edge13" class="edge">
<title>Node10&#45;&gt;Node9</title>
<path fill="none" stroke="midnightblue" d="M327.87,-56.4C355.75,-46.28 392.94,-32.79 419.51,-23.15"/>
<polygon fill="midnightblue" stroke="midnightblue" points="420.93,-26.36 429.14,-19.66 418.54,-19.78 420.93,-26.36"/>
</g>
<!-- Node11 -->
<g id="node11" class="node">
<title>Node11</title>
<g id="a_node11"><a xlink:title=" ">
<polygon fill="none" stroke="#bfbfbf" points="166.5,-0.5 166.5,-19.5 231.5,-19.5 231.5,-0.5 166.5,-0.5"/>
<text text-anchor="middle" x="199" y="-7.5" font-family="Helvetica,sans-Serif" font-size="10.00">functional</text>
</a>
</g>
</g>
<!-- Node10&#45;&gt;Node11 -->
<g id="edge11" class="edge">
<title>Node10&#45;&gt;Node11</title>
<path fill="none" stroke="midnightblue" d="M267.67,-56.4C253.51,-47.04 234.99,-34.79 220.75,-25.38"/>
<polygon fill="midnightblue" stroke="midnightblue" points="222.37,-22.25 212.1,-19.66 218.51,-28.09 222.37,-22.25"/>
</g>
<!-- Node12 -->
<g id="node12" class="node">
<title>Node12</title>
<g id="a_node12"><a xlink:title=" ">
<polygon fill="none" stroke="#bfbfbf" points="267,-0.5 267,-19.5 311,-19.5 311,-0.5 267,-0.5"/>
<text text-anchor="middle" x="289" y="-7.5" font-family="Helvetica,sans-Serif" font-size="10.00">limits</text>
</a>
</g>
</g>
<!-- Node10&#45;&gt;Node12 -->
<g id="edge12" class="edge">
<title>Node10&#45;&gt;Node12</title>
<path fill="none" stroke="midnightblue" d="M289,-56.4C289,-48.47 289,-38.46 289,-29.86"/>
<polygon fill="midnightblue" stroke="midnightblue" points="292.5,-29.66 289,-19.66 285.5,-29.66 292.5,-29.66"/>
</g>
<!-- Node13&#45;&gt;Node3 -->
<g id="edge15" class="edge">
<title>Node13&#45;&gt;Node3</title>
<path fill="none" stroke="midnightblue" d="M745.89,-63.02C834.96,-50.44 1012.11,-25.4 1083.31,-15.34"/>
<polygon fill="midnightblue" stroke="midnightblue" points="1084,-18.77 1093.41,-13.91 1083.02,-11.84 1084,-18.77"/>
</g>
<!-- Node13&#45;&gt;Node6 -->
<g id="edge17" class="edge">
<title>Node13&#45;&gt;Node6</title>
<path fill="none" stroke="midnightblue" d="M673.57,-56.4C660.79,-47.13 644.11,-35.03 631.19,-25.65"/>
<polygon fill="midnightblue" stroke="midnightblue" points="633.08,-22.7 622.93,-19.66 628.97,-28.36 633.08,-22.7"/>
</g>
<!-- Node13&#45;&gt;Node9 -->
<g id="edge16" class="edge">
<title>Node13&#45;&gt;Node9</title>
<path fill="none" stroke="midnightblue" d="M640.33,-57.44C597.46,-46.81 537.65,-31.99 497.23,-21.97"/>
<polygon fill="midnightblue" stroke="midnightblue" points="497.95,-18.54 487.4,-19.53 496.26,-25.33 497.95,-18.54"/>
</g>
<!-- Node15&#45;&gt;Node9 -->
<g id="edge26" class="edge">
<title>Node15&#45;&gt;Node9</title>
<path fill="none" stroke="midnightblue" d="M497.25,-246.32C480.32,-238.45 462.71,-226.77 453,-210 419.27,-151.75 436.88,-66.89 447.22,-29.67"/>
<polygon fill="midnightblue" stroke="midnightblue" points="450.68,-30.31 450.14,-19.73 443.97,-28.34 450.68,-30.31"/>
</g>
<!-- Node15&#45;&gt;Node11 -->
<g id="edge23" class="edge">
<title>Node15&#45;&gt;Node11</title>
<path fill="none" stroke="midnightblue" d="M479.89,-253.05C400.13,-242.85 268.58,-224.17 251,-210 245.26,-205.37 202.51,-94.22 201,-87 196.99,-67.85 196.96,-45.4 197.63,-29.89"/>
<polygon fill="midnightblue" stroke="midnightblue" points="201.15,-29.74 198.24,-19.55 194.16,-29.33 201.15,-29.74"/>
</g>
<!-- Node16 -->
<g id="node16" class="node">
<title>Node16</title>
<g id="a_node16"><a xlink:title=" ">
<polygon fill="none" stroke="#bfbfbf" points="462,-185 462,-204 518,-204 518,-185 462,-185"/>
<text text-anchor="middle" x="490" y="-192" font-family="Helvetica,sans-Serif" font-size="10.00">optional</text>
</a>
</g>
</g>
<!-- Node15&#45;&gt;Node16 -->
<g id="edge24" class="edge">
<title>Node15&#45;&gt;Node16</title>
<path fill="none" stroke="midnightblue" d="M529.93,-246.4C522.06,-236.36 511.45,-222.84 503.15,-212.25"/>
<polygon fill="midnightblue" stroke="midnightblue" points="505.75,-209.9 496.82,-204.19 500.24,-214.22 505.75,-209.9"/>
</g>
<!-- Node17 -->
<g id="node17" class="node">
<title>Node17</title>
<g id="a_node17"><a xlink:title=" ">
<polygon fill="none" stroke="#bfbfbf" points="836,-185 836,-204 890,-204 890,-185 836,-185"/>
<text text-anchor="middle" x="863" y="-192" font-family="Helvetica,sans-Serif" font-size="10.00">random</text>
</a>
</g>
</g>
<!-- Node15&#45;&gt;Node17 -->
<g id="edge25" class="edge">
<title>Node15&#45;&gt;Node17</title>
<path fill="none" stroke="midnightblue" d="M602.09,-253.46C660.57,-245.85 750.9,-231.79 827,-210 829.44,-209.3 831.94,-208.5 834.42,-207.63"/>
<polygon fill="midnightblue" stroke="midnightblue" points="835.71,-210.89 843.83,-204.08 833.24,-204.34 835.71,-210.89"/>
</g>
<!-- Node18 -->
<g id="node18" class="node">
<title>Node18</title>
<g id="a_node18"><a xlink:title=" ">
<polygon fill="none" stroke="#bfbfbf" points="536.5,-179.5 536.5,-209.5 647.5,-209.5 647.5,-179.5 536.5,-179.5"/>
<text text-anchor="start" x="544.5" y="-197.5" font-family="Helvetica,sans-Serif" font-size="10.00">range/v3/functional</text>
<text text-anchor="middle" x="592" y="-186.5" font-family="Helvetica,sans-Serif" font-size="10.00">/bind_back.hpp</text>
</a>
</g>
</g>
<!-- Node15&#45;&gt;Node18 -->
<g id="edge27" class="edge">
<title>Node15&#45;&gt;Node18</title>
<path fill="none" stroke="midnightblue" d="M552.07,-246.4C558.68,-237.96 567.23,-227.07 574.72,-217.52"/>
<polygon fill="midnightblue" stroke="midnightblue" points="577.54,-219.6 580.96,-209.58 572.03,-215.28 577.54,-219.6"/>
</g>
<!-- Node19 -->
<g id="node19" class="node">
<title>Node19</title>
<g id="a_node19"><a xlink:title=" ">
<polygon fill="none" stroke="#bfbfbf" points="666,-185 666,-204 818,-204 818,-185 666,-185"/>
<text text-anchor="middle" x="742" y="-192" font-family="Helvetica,sans-Serif" font-size="10.00">range/v3/utility/random.hpp</text>
</a>
</g>
</g>
<!-- Node15&#45;&gt;Node19 -->
<g id="edge28" class="edge">
<title>Node15&#45;&gt;Node19</title>
<path fill="none" stroke="midnightblue" d="M584.61,-246.4C620.97,-234.64 672.15,-218.09 706.16,-207.09"/>
<polygon fill="midnightblue" stroke="midnightblue" points="707.26,-210.41 715.69,-204.01 705.1,-203.75 707.26,-210.41"/>
</g>
<!-- Node20 -->
<g id="node20" class="node">
<title>Node20</title>
<g id="a_node20"><a xlink:title=" ">
<polygon fill="none" stroke="#bfbfbf" points="260,-185 260,-204 406,-204 406,-185 260,-185"/>
<text text-anchor="middle" x="333" y="-192" font-family="Helvetica,sans-Serif" font-size="10.00">range/v3/view/adaptor.hpp</text>
</a>
</g>
</g>
<!-- Node15&#45;&gt;Node20 -->
<g id="edge29" class="edge">
<title>Node15&#45;&gt;Node20</title>
<path fill="none" stroke="midnightblue" d="M496.12,-246.48C458.51,-234.72 405.46,-218.14 370.19,-207.12"/>
<polygon fill="midnightblue" stroke="midnightblue" points="370.88,-203.67 360.29,-204.03 368.79,-210.35 370.88,-203.67"/>
</g>
<!-- Node21&#45;&gt;Node7 -->
<g id="edge39" class="edge">
<title>Node21&#45;&gt;Node7</title>
<path fill="none" stroke="midnightblue" d="M914.3,-256.83C783.31,-249.76 494.05,-232.91 251,-210 236.45,-208.63 220.95,-206.94 206.06,-205.21"/>
<polygon fill="midnightblue" stroke="midnightblue" points="206.22,-201.7 195.87,-204.01 205.39,-208.66 206.22,-201.7"/>
</g>
<!-- Node21&#45;&gt;Node17 -->
<g id="edge31" class="edge">
<title>Node21&#45;&gt;Node17</title>
<path fill="none" stroke="midnightblue" d="M968.8,-251.87C948.2,-240.89 912.41,-221.82 888.22,-208.94"/>
<polygon fill="midnightblue" stroke="midnightblue" points="889.74,-205.78 879.27,-204.17 886.45,-211.96 889.74,-205.78"/>
</g>
<!-- Node21&#45;&gt;Node19 -->
<g id="edge32" class="edge">
<title>Node21&#45;&gt;Node19</title>
<path fill="none" stroke="midnightblue" d="M952.98,-251.94C909.55,-240.32 831.88,-219.54 783.86,-206.7"/>
<polygon fill="midnightblue" stroke="midnightblue" points="784.65,-203.29 774.09,-204.08 782.84,-210.05 784.65,-203.29"/>
</g>
<!-- Node22 -->
<g id="node22" class="node">
<title>Node22</title>
<g id="a_node22"><a xlink:title=" ">
<polygon fill="none" stroke="#bfbfbf" points="1080,-185 1080,-204 1232,-204 1232,-185 1080,-185"/>
<text text-anchor="middle" x="1156" y="-192" font-family="Helvetica,sans-Serif" font-size="10.00">range/v3/view/common.hpp</text>
</a>
</g>
</g>
<!-- Node21&#45;&gt;Node22 -->
<g id="edge33" class="edge">
<title>Node21&#45;&gt;Node22</title>
<path fill="none" stroke="midnightblue" d="M1007.71,-251.87C1037.56,-240.52 1090.17,-220.52 1124.03,-207.65"/>
<polygon fill="midnightblue" stroke="midnightblue" points="1125.37,-210.89 1133.47,-204.06 1122.88,-204.35 1125.37,-210.89"/>
</g>
<!-- Node23 -->
<g id="node23" class="node">
<title>Node23</title>
<g id="a_node23"><a xlink:title=" ">
<polygon fill="none" stroke="#bfbfbf" points="908.5,-185 908.5,-204 1061.5,-204 1061.5,-185 908.5,-185"/>
<text text-anchor="middle" x="985" y="-192" font-family="Helvetica,sans-Serif" font-size="10.00">range/v3/view/generate.hpp</text>
</a>
</g>
</g>
<!-- Node21&#45;&gt;Node23 -->
<g id="edge34" class="edge">
<title>Node21&#45;&gt;Node23</title>
<path fill="none" stroke="midnightblue" d="M985,-251.73C985,-242.18 985,-226.62 985,-214.28"/>
<polygon fill="midnightblue" stroke="midnightblue" points="988.5,-214.13 985,-204.13 981.5,-214.13 988.5,-214.13"/>
</g>
<!-- Node24 -->
<g id="node24" class="node">
<title>Node24</title>
<g id="a_node24"><a xlink:href="particle__traits_8hpp.html" target="_top" xlink:title="Implementation of traits for particle types, see the Particle named requirements.">
<polygon fill="none" stroke="black" points="1582,-179.5 1582,-209.5 1690,-209.5 1690,-179.5 1582,-179.5"/>
<text text-anchor="start" x="1590" y="-197.5" font-family="Helvetica,sans-Serif" font-size="10.00">beluga/type_traits</text>
<text text-anchor="middle" x="1636" y="-186.5" font-family="Helvetica,sans-Serif" font-size="10.00">/particle_traits.hpp</text>
</a>
</g>
</g>
<!-- Node21&#45;&gt;Node24 -->
<g id="edge35" class="edge">
<title>Node21&#45;&gt;Node24</title>
<path fill="none" stroke="midnightblue" d="M1055.53,-257.65C1164.4,-252.54 1379.99,-239.61 1571.81,-210.04"/>
<polygon fill="midnightblue" stroke="midnightblue" points="1572.46,-213.48 1581.8,-208.48 1571.38,-206.57 1572.46,-213.48"/>
</g>
<!-- Node24&#45;&gt;Node8 -->
<g id="edge36" class="edge">
<title>Node24&#45;&gt;Node8</title>
<path fill="none" stroke="midnightblue" d="M1581.82,-180.37C1578.85,-179.86 1575.89,-179.39 1573,-179 1480.74,-166.44 848.54,-143.86 632.89,-136.44"/>
<polygon fill="midnightblue" stroke="midnightblue" points="632.75,-132.93 622.64,-136.09 632.51,-139.93 632.75,-132.93"/>
</g>
<!-- Node24&#45;&gt;Node13 -->
<g id="edge37" class="edge">
<title>Node24&#45;&gt;Node13</title>
<path fill="none" stroke="midnightblue" d="M1581.78,-180.64C1578.81,-180.05 1575.87,-179.5 1573,-179 1268.79,-125.74 900.75,-90.53 755.9,-77.81"/>
<polygon fill="midnightblue" stroke="midnightblue" points="756.12,-74.31 745.86,-76.93 755.51,-81.29 756.12,-74.31"/>
</g>
<!-- Node25 -->
<g id="node25" class="node">
<title>Node25</title>
<g id="a_node25"><a xlink:title=" ">
<polygon fill="none" stroke="#bfbfbf" points="1566,-123.5 1566,-142.5 1706,-142.5 1706,-123.5 1566,-123.5"/>
<text text-anchor="middle" x="1636" y="-130.5" font-family="Helvetica,sans-Serif" font-size="10.00">range/v3/range/traits.hpp</text>
</a>
</g>
</g>
<!-- Node24&#45;&gt;Node25 -->
<g id="edge38" class="edge">
<title>Node24&#45;&gt;Node25</title>
<path fill="none" stroke="midnightblue" d="M1636,-179.4C1636,-171.47 1636,-161.46 1636,-152.86"/>
<polygon fill="midnightblue" stroke="midnightblue" points="1639.5,-152.66 1636,-142.66 1632.5,-152.66 1639.5,-152.66"/>
</g>
<!-- Node26&#45;&gt;Node2 -->
<g id="edge41" class="edge">
<title>Node26&#45;&gt;Node2</title>
<path fill="none" stroke="midnightblue" d="M1469.96,-251.87C1441.1,-240.57 1390.35,-220.7 1357.46,-207.82"/>
<polygon fill="midnightblue" stroke="midnightblue" points="1358.46,-204.45 1347.87,-204.06 1355.91,-210.97 1358.46,-204.45"/>
</g>
<!-- Node27 -->
<g id="node27" class="node">
<title>Node27</title>
<g id="a_node27"><a xlink:title=" ">
<polygon fill="none" stroke="#bfbfbf" points="1420,-185 1420,-204 1564,-204 1564,-185 1420,-185"/>
<text text-anchor="middle" x="1492" y="-192" font-family="Helvetica,sans-Serif" font-size="10.00">range/v3/view/cache1.hpp</text>
</a>
</g>
</g>
<!-- Node26&#45;&gt;Node27 -->
<g id="edge42" class="edge">
<title>Node26&#45;&gt;Node27</title>
<path fill="none" stroke="midnightblue" d="M1492,-251.73C1492,-242.18 1492,-226.62 1492,-214.28"/>
<polygon fill="midnightblue" stroke="midnightblue" points="1495.5,-214.13 1492,-204.13 1488.5,-214.13 1495.5,-214.13"/>
</g>
<!-- Node28 -->
<g id="node28" class="node">
<title>Node28</title>
<g id="a_node28"><a xlink:title=" ">
<polygon fill="none" stroke="#bfbfbf" points="1708.5,-185 1708.5,-204 1871.5,-204 1871.5,-185 1708.5,-185"/>
<text text-anchor="middle" x="1790" y="-192" font-family="Helvetica,sans-Serif" font-size="10.00">range/v3/view/enumerate.hpp</text>
</a>
</g>
</g>
<!-- Node26&#45;&gt;Node28 -->
<g id="edge43" class="edge">
<title>Node26&#45;&gt;Node28</title>
<path fill="none" stroke="midnightblue" d="M1531.26,-251.94C1585.2,-240.17 1682.18,-219.02 1740.86,-206.22"/>
<polygon fill="midnightblue" stroke="midnightblue" points="1741.62,-209.63 1750.65,-204.08 1740.13,-202.8 1741.62,-209.63"/>
</g>
<!-- Node29 -->
<g id="node29" class="node">
<title>Node29</title>
<g id="a_node29"><a xlink:title=" ">
<polygon fill="none" stroke="#bfbfbf" points="1889.5,-185 1889.5,-204 2020.5,-204 2020.5,-185 1889.5,-185"/>
<text text-anchor="middle" x="1955" y="-192" font-family="Helvetica,sans-Serif" font-size="10.00">range/v3/view/filter.hpp</text>
</a>
</g>
</g>
<!-- Node26&#45;&gt;Node29 -->
<g id="edge44" class="edge">
<title>Node26&#45;&gt;Node29</title>
<path fill="none" stroke="midnightblue" d="M1568.97,-251.99C1647.6,-242.95 1773.12,-227.55 1881,-210 1888.46,-208.79 1896.31,-207.38 1904.01,-205.94"/>
<polygon fill="midnightblue" stroke="midnightblue" points="1904.82,-209.35 1913.99,-204.02 1903.51,-202.47 1904.82,-209.35"/>
</g>
<!-- Node30&#45;&gt;Node24 -->
<g id="edge50" class="edge">
<title>Node30&#45;&gt;Node24</title>
<path fill="none" stroke="midnightblue" d="M2076.44,-255.07C1988.77,-247.59 1832.43,-232.45 1700,-210 1699.9,-209.98 1699.8,-209.97 1699.69,-209.95"/>
<polygon fill="midnightblue" stroke="midnightblue" points="1700.51,-206.54 1690.04,-208.18 1699.25,-213.42 1700.51,-206.54"/>
</g>
<!-- Node31 -->
<g id="node31" class="node">
<title>Node31</title>
<g id="a_node31"><a xlink:title=" ">
<polygon fill="none" stroke="#bfbfbf" points="2421.5,-185 2421.5,-204 2468.5,-204 2468.5,-185 2421.5,-185"/>
<text text-anchor="middle" x="2445" y="-192" font-family="Helvetica,sans-Serif" font-size="10.00">cmath</text>
</a>
</g>
</g>
<!-- Node30&#45;&gt;Node31 -->
<g id="edge46" class="edge">
<title>Node30&#45;&gt;Node31</title>
<path fill="none" stroke="midnightblue" d="M2213.52,-251.91C2268.09,-244.04 2345.98,-230.45 2412,-210 2413.93,-209.4 2415.89,-208.73 2417.86,-208"/>
<polygon fill="midnightblue" stroke="midnightblue" points="2419.53,-211.1 2427.47,-204.08 2416.89,-204.61 2419.53,-211.1"/>
</g>
<!-- Node32 -->
<g id="node32" class="node">
<title>Node32</title>
<g id="a_node32"><a xlink:title=" ">
<polygon fill="none" stroke="#bfbfbf" points="2039,-185 2039,-204 2125,-204 2125,-185 2039,-185"/>
<text text-anchor="middle" x="2082" y="-192" font-family="Helvetica,sans-Serif" font-size="10.00">unordered_set</text>
</a>
</g>
</g>
<!-- Node30&#45;&gt;Node32 -->
<g id="edge47" class="edge">
<title>Node30&#45;&gt;Node32</title>
<path fill="none" stroke="midnightblue" d="M2131.33,-246.4C2121.41,-236.16 2107.97,-222.3 2097.63,-211.62"/>
<polygon fill="midnightblue" stroke="midnightblue" points="2099.9,-208.94 2090.43,-204.19 2094.87,-213.81 2099.9,-208.94"/>
</g>
<!-- Node33 -->
<g id="node33" class="node">
<title>Node33</title>
<g id="a_node33"><a xlink:title=" ">
<polygon fill="none" stroke="#bfbfbf" points="2143.5,-185 2143.5,-204 2274.5,-204 2274.5,-185 2143.5,-185"/>
<text text-anchor="middle" x="2209" y="-192" font-family="Helvetica,sans-Serif" font-size="10.00">range/v3/view/take.hpp</text>
</a>
</g>
</g>
<!-- Node30&#45;&gt;Node33 -->
<g id="edge48" class="edge">
<title>Node30&#45;&gt;Node33</title>
<path fill="none" stroke="midnightblue" d="M2158.89,-246.4C2168.96,-236.16 2182.62,-222.3 2193.13,-211.62"/>
<polygon fill="midnightblue" stroke="midnightblue" points="2195.92,-213.78 2200.44,-204.19 2190.93,-208.86 2195.92,-213.78"/>
</g>
<!-- Node34 -->
<g id="node34" class="node">
<title>Node34</title>
<g id="a_node34"><a xlink:title=" ">
<polygon fill="none" stroke="#bfbfbf" points="2293,-179.5 2293,-209.5 2403,-209.5 2403,-179.5 2293,-179.5"/>
<text text-anchor="start" x="2301" y="-197.5" font-family="Helvetica,sans-Serif" font-size="10.00">range/v3/view/take</text>
<text text-anchor="middle" x="2348" y="-186.5" font-family="Helvetica,sans-Serif" font-size="10.00">_while.hpp</text>
</a>
</g>
</g>
<!-- Node30&#45;&gt;Node34 -->
<g id="edge49" class="edge">
<title>Node30&#45;&gt;Node34</title>
<path fill="none" stroke="midnightblue" d="M2189.05,-246.4C2219.91,-236.52 2261.33,-223.25 2294.15,-212.74"/>
<polygon fill="midnightblue" stroke="midnightblue" points="2295.58,-215.96 2304.04,-209.58 2293.45,-209.29 2295.58,-215.96"/>
</g>
<!-- Node35&#45;&gt;Node3 -->
<g id="edge52" class="edge">
<title>Node35&#45;&gt;Node3</title>
<path fill="none" stroke="midnightblue" d="M2566.35,-251.87C2594.21,-236.92 2643.52,-205.29 2620,-179 2517.63,-64.57 1349.61,-19.13 1144.62,-12.02"/>
<polygon fill="midnightblue" stroke="midnightblue" points="1144.67,-8.52 1134.55,-11.67 1144.43,-15.51 1144.67,-8.52"/>
</g>
<!-- Node36 -->
<g id="node36" class="node">
<title>Node36</title>
<g id="a_node36"><a xlink:title=" ">
<polygon fill="none" stroke="#bfbfbf" points="2487,-185 2487,-204 2611,-204 2611,-185 2487,-185"/>
<text text-anchor="middle" x="2549" y="-192" font-family="Helvetica,sans-Serif" font-size="10.00">range/v3/view/zip.hpp</text>
</a>
</g>
</g>
<!-- Node35&#45;&gt;Node36 -->
<g id="edge53" class="edge">
<title>Node35&#45;&gt;Node36</title>
<path fill="none" stroke="midnightblue" d="M2549,-251.73C2549,-242.18 2549,-226.62 2549,-214.28"/>
<polygon fill="midnightblue" stroke="midnightblue" points="2552.5,-214.13 2549,-204.13 2545.5,-214.13 2552.5,-214.13"/>
</g>
</g>
</svg>
        <g id="navigator" transform="translate(0 0)" fill="#404254">
                <rect fill="#f2f5e9" fill-opacity="0.5" stroke="#606060" stroke-width=".5" x="0" y="0" width="60" height="60"/>
                <use id="zoomplus" xlink:href="#zoomPlus" x="17" y="9" onmousedown="handleZoom(evt,'in')"/>
                <use id="zoomminus" xlink:href="#zoomMin" x="42" y="9" onmousedown="handleZoom(evt,'out')"/>
                <use id="reset" xlink:href="#resetDef" x="30" y="36" onmousedown="handleReset()"/>
                <g id="arrowUp" xlink:href="#dirArrow" transform="translate(30 24)" onmousedown="handlePan(0,-1)">
                  <use xlink:href="#rim" fill="#404040">
                        <set attributeName="fill" to="#808080" begin="arrowUp.mouseover" end="arrowUp.mouseout"/>
                  </use>
                  <path fill="none" stroke="white" stroke-width="1.5" d="M0,-3.0v7 M-2.5,-0.5L0,-3.0L2.5,-0.5"/>
                </g>
                <g id="arrowRight" xlink:href="#dirArrow" transform="rotate(90) translate(36 -43)" onmousedown="handlePan(1,0)">
                  <use xlink:href="#rim" fill="#404040">
                        <set attributeName="fill" to="#808080" begin="arrowRight.mouseover" end="arrowRight.mouseout"/>
                  </use>
                  <path fill="none" stroke="white" stroke-width="1.5" d="M0,-3.0v7 M-2.5,-0.5L0,-3.0L2.5,-0.5"/>
                </g>
                <g id="arrowDown" xlink:href="#dirArrow" transform="rotate(180) translate(-30 -48)" onmousedown="handlePan(0,1)">
                  <use xlink:href="#rim" fill="#404040">
                        <set attributeName="fill" to="#808080" begin="arrowDown.mouseover" end="arrowDown.mouseout"/>
                  </use>
                  <path fill="none" stroke="white" stroke-width="1.5" d="M0,-3.0v7 M-2.5,-0.5L0,-3.0L2.5,-0.5"/>
                </g>
                <g id="arrowLeft" xlink:href="#dirArrow" transform="rotate(270) translate(-36 17)" onmousedown="handlePan(-1,0)">
                  <use xlink:href="#rim" fill="#404040">
                        <set attributeName="fill" to="#808080" begin="arrowLeft.mouseover" end="arrowLeft.mouseout"/>
                  </use>
                  <path fill="none" stroke="white" stroke-width="1.5" d="M0,-3.0v7 M-2.5,-0.5L0,-3.0L2.5,-0.5"/>
                </g>
        </g>
        <svg viewBox="0 0 15 15" width="100%" height="30px" preserveAspectRatio="xMaxYMin meet">
         <g id="arrow_out" transform="scale(0.3 0.3)">
          <a xlink:href="views_8hpp__incl_org.svg" target="_base">
           <rect id="button" ry="5" rx="5" y="6" x="6" height="38" width="38"
                fill="#f2f5e9" fill-opacity="0.5" stroke="#606060" stroke-width="1.0"/>
           <path id="arrow"
             d="M 11.500037,31.436501 C 11.940474,20.09759 22.043105,11.32322 32.158766,21.979434 L 37.068811,17.246167 C 37.068811,17.246167 37.088388,32 37.088388,32 L 22.160133,31.978069 C 22.160133,31.978069 26.997745,27.140456 26.997745,27.140456 C 18.528582,18.264221 13.291696,25.230495 11.500037,31.436501 z"
             style="fill:#404040;"/>
          </a>
         </g>
        </svg>
</svg>
