<?xml version="1.0" encoding="UTF-8" standalone="no"?>
<!DOCTYPE svg PUBLIC "-//W3C//DTD SVG 1.1//EN"
 "http://www.w3.org/Graphics/SVG/1.1/DTD/svg11.dtd">
<!-- Generated by graphviz version 2.43.0 (0)
 -->
<!-- Title: /home/runner/work/beluga/beluga/beluga/include/beluga/views.hpp Pages: 1 -->
<svg width="2577pt" height="363pt"
 viewBox="0.00 0.00 2577.13 363.00" xmlns="http://www.w3.org/2000/svg" xmlns:xlink="http://www.w3.org/1999/xlink">
<g id="graph0" class="graph" transform="scale(1 1) rotate(0) translate(4 359)">
<title>/home/runner/work/beluga/beluga/beluga/include/beluga/views.hpp</title>
<!-- Node1 -->
<g id="node1" class="node">
<title>Node1</title>
<g id="a_node1"><a xlink:title="Implementation of useful container views.">
<polygon fill="#bfbfbf" stroke="black" points="1534.5,-313.5 1534.5,-354.5 1679.5,-354.5 1679.5,-313.5 1534.5,-313.5"/>
<text text-anchor="start" x="1542.5" y="-342.5" font-family="Helvetica,sans-Serif" font-size="10.00">/home/runner/work/beluga</text>
<text text-anchor="start" x="1542.5" y="-331.5" font-family="Helvetica,sans-Serif" font-size="10.00">/beluga/beluga/include</text>
<text text-anchor="middle" x="1607" y="-320.5" font-family="Helvetica,sans-Serif" font-size="10.00">/beluga/views.hpp</text>
</a>
</g>
</g>
<!-- Node2 -->
<g id="node2" class="node">
<title>Node2</title>
<g id="a_node2"><a xlink:href="elements_8hpp.html" target="_top" xlink:title="Implementation of the C++20&#39;s std::views::elements view.">
<polygon fill="none" stroke="black" points="1812.5,-185 1812.5,-204 1963.5,-204 1963.5,-185 1812.5,-185"/>
<text text-anchor="middle" x="1888" y="-192" font-family="Helvetica,sans-Serif" font-size="10.00">beluga/views/elements.hpp</text>
</a>
</g>
</g>
<!-- Node1&#45;&gt;Node2 -->
<g id="edge1" class="edge">
<title>Node1&#45;&gt;Node2</title>
<path fill="none" stroke="midnightblue" d="M1646.96,-313.45C1705.2,-284.95 1811.85,-232.76 1861.39,-208.52"/>
<polygon fill="midnightblue" stroke="midnightblue" points="1863.07,-211.6 1870.51,-204.06 1859.99,-205.31 1863.07,-211.6"/>
</g>
<!-- Node5 -->
<g id="node5" class="node">
<title>Node5</title>
<g id="a_node5"><a xlink:href="particles_8hpp.html" target="_top" xlink:title="Implementation of views related to particle ranges.">
<polygon fill="none" stroke="black" points="686.5,-185 686.5,-204 833.5,-204 833.5,-185 686.5,-185"/>
<text text-anchor="middle" x="760" y="-192" font-family="Helvetica,sans-Serif" font-size="10.00">beluga/views/particles.hpp</text>
</a>
</g>
</g>
<!-- Node1&#45;&gt;Node5 -->
<g id="edge4" class="edge">
<title>Node1&#45;&gt;Node5</title>
<path fill="none" stroke="midnightblue" d="M1534.43,-333.69C1369.21,-334.3 969.92,-330.04 848,-277 815.55,-262.88 787.39,-231.58 772.14,-212.14"/>
<polygon fill="midnightblue" stroke="midnightblue" points="774.9,-210 766.07,-204.15 769.33,-214.23 774.9,-210"/>
</g>
<!-- Node14 -->
<g id="node14" class="node">
<title>Node14</title>
<g id="a_node14"><a xlink:href="random__intersperse_8hpp.html" target="_top" xlink:title="Implementation of a random_intersperse range adaptor object.">
<polygon fill="none" stroke="black" points="336,-246.5 336,-276.5 458,-276.5 458,-246.5 336,-246.5"/>
<text text-anchor="start" x="344" y="-264.5" font-family="Helvetica,sans-Serif" font-size="10.00">beluga/views/random</text>
<text text-anchor="middle" x="397" y="-253.5" font-family="Helvetica,sans-Serif" font-size="10.00">_intersperse.hpp</text>
</a>
</g>
</g>
<!-- Node1&#45;&gt;Node14 -->
<g id="edge18" class="edge">
<title>Node1&#45;&gt;Node14</title>
<path fill="none" stroke="midnightblue" d="M1534.48,-328.77C1318.78,-316.21 682.89,-279.16 468.5,-266.67"/>
<polygon fill="midnightblue" stroke="midnightblue" points="468.5,-263.16 458.31,-266.07 468.09,-270.15 468.5,-263.16"/>
</g>
<!-- Node20 -->
<g id="node20" class="node">
<title>Node20</title>
<g id="a_node20"><a xlink:href="sample_8hpp.html" target="_top" xlink:title="Implementation of a sample (with replacement) range adaptor object.">
<polygon fill="none" stroke="black" points="857.5,-252 857.5,-271 998.5,-271 998.5,-252 857.5,-252"/>
<text text-anchor="middle" x="928" y="-259" font-family="Helvetica,sans-Serif" font-size="10.00">beluga/views/sample.hpp</text>
</a>
</g>
</g>
<!-- Node1&#45;&gt;Node20 -->
<g id="edge26" class="edge">
<title>Node1&#45;&gt;Node20</title>
<path fill="none" stroke="midnightblue" d="M1534.34,-325.46C1406.46,-312.18 1142.17,-284.74 1008.77,-270.89"/>
<polygon fill="midnightblue" stroke="midnightblue" points="1008.92,-267.38 998.61,-269.83 1008.2,-274.35 1008.92,-267.38"/>
</g>
<!-- Node25 -->
<g id="node25" class="node">
<title>Node25</title>
<g id="a_node25"><a xlink:href="take__evenly_8hpp.html" target="_top" xlink:title="Implementation of a take_evenly range adaptor object.">
<polygon fill="none" stroke="black" points="1525.5,-252 1525.5,-271 1688.5,-271 1688.5,-252 1525.5,-252"/>
<text text-anchor="middle" x="1607" y="-259" font-family="Helvetica,sans-Serif" font-size="10.00">beluga/views/take_evenly.hpp</text>
</a>
</g>
</g>
<!-- Node1&#45;&gt;Node25 -->
<g id="edge36" class="edge">
<title>Node1&#45;&gt;Node25</title>
<path fill="none" stroke="midnightblue" d="M1607,-313.36C1607,-303.3 1607,-291.1 1607,-281.18"/>
<polygon fill="midnightblue" stroke="midnightblue" points="1610.5,-281.17 1607,-271.17 1603.5,-281.17 1610.5,-281.17"/>
</g>
<!-- Node29 -->
<g id="node29" class="node">
<title>Node29</title>
<g id="a_node29"><a xlink:href="take__while__kld_8hpp.html" target="_top" xlink:title="Implementation of a take_while_kld range adaptor object.">
<polygon fill="none" stroke="black" points="2016.5,-246.5 2016.5,-276.5 2153.5,-276.5 2153.5,-246.5 2016.5,-246.5"/>
<text text-anchor="start" x="2024.5" y="-264.5" font-family="Helvetica,sans-Serif" font-size="10.00">beluga/views/take_while</text>
<text text-anchor="middle" x="2085" y="-253.5" font-family="Helvetica,sans-Serif" font-size="10.00">_kld.hpp</text>
</a>
</g>
</g>
<!-- Node1&#45;&gt;Node29 -->
<g id="edge41" class="edge">
<title>Node1&#45;&gt;Node29</title>
<path fill="none" stroke="midnightblue" d="M1679.6,-322.29C1767.7,-309.3 1915.71,-287.47 2006.42,-274.09"/>
<polygon fill="midnightblue" stroke="midnightblue" points="2007,-277.54 2016.38,-272.62 2005.98,-270.62 2007,-277.54"/>
</g>
<!-- Node34 -->
<g id="node34" class="node">
<title>Node34</title>
<g id="a_node34"><a xlink:href="zip_8hpp.html" target="_top" xlink:title="Implementation of a zip range adaptor object.">
<polygon fill="none" stroke="black" points="2432.5,-252 2432.5,-271 2551.5,-271 2551.5,-252 2432.5,-252"/>
<text text-anchor="middle" x="2492" y="-259" font-family="Helvetica,sans-Serif" font-size="10.00">beluga/views/zip.hpp</text>
</a>
</g>
</g>
<!-- Node1&#45;&gt;Node34 -->
<g id="edge47" class="edge">
<title>Node1&#45;&gt;Node34</title>
<path fill="none" stroke="midnightblue" d="M1679.8,-327.2C1847.27,-313.86 2258.03,-281.14 2422.37,-268.05"/>
<polygon fill="midnightblue" stroke="midnightblue" points="2422.68,-271.53 2432.37,-267.25 2422.12,-264.56 2422.68,-271.53"/>
</g>
<!-- Node3 -->
<g id="node3" class="node">
<title>Node3</title>
<g id="a_node3"><a xlink:title=" ">
<polygon fill="none" stroke="#bfbfbf" points="1558.5,-0.5 1558.5,-19.5 1599.5,-19.5 1599.5,-0.5 1558.5,-0.5"/>
<text text-anchor="middle" x="1579" y="-7.5" font-family="Helvetica,sans-Serif" font-size="10.00">tuple</text>
</a>
</g>
</g>
<!-- Node2&#45;&gt;Node3 -->
<g id="edge2" class="edge">
<title>Node2&#45;&gt;Node3</title>
<path fill="none" stroke="midnightblue" d="M1873.51,-184.94C1824.24,-155.84 1662.9,-60.55 1602.29,-24.75"/>
<polygon fill="midnightblue" stroke="midnightblue" points="1603.85,-21.61 1593.46,-19.54 1600.29,-27.64 1603.85,-21.61"/>
</g>
<!-- Node4 -->
<g id="node4" class="node">
<title>Node4</title>
<g id="a_node4"><a xlink:title=" ">
<polygon fill="none" stroke="#bfbfbf" points="890,-123.5 890,-142.5 1048,-142.5 1048,-123.5 890,-123.5"/>
<text text-anchor="middle" x="969" y="-130.5" font-family="Helvetica,sans-Serif" font-size="10.00">range/v3/view/transform.hpp</text>
</a>
</g>
</g>
<!-- Node2&#45;&gt;Node4 -->
<g id="edge3" class="edge">
<title>Node2&#45;&gt;Node4</title>
<path fill="none" stroke="midnightblue" d="M1844.02,-184.97C1830.87,-182.69 1816.39,-180.47 1803,-179 1478.77,-143.51 1395.39,-165.48 1070,-143 1066.11,-142.73 1062.14,-142.44 1058.13,-142.14"/>
<polygon fill="midnightblue" stroke="midnightblue" points="1058.34,-138.64 1048.1,-141.35 1057.79,-145.62 1058.34,-138.64"/>
</g>
<!-- Node5&#45;&gt;Node4 -->
<g id="edge17" class="edge">
<title>Node5&#45;&gt;Node4</title>
<path fill="none" stroke="midnightblue" d="M789.94,-184.98C826.57,-174.55 888.7,-156.86 929.28,-145.31"/>
<polygon fill="midnightblue" stroke="midnightblue" points="930.45,-148.61 939.11,-142.51 928.53,-141.88 930.45,-148.61"/>
</g>
<!-- Node6 -->
<g id="node6" class="node">
<title>Node6</title>
<g id="a_node6"><a xlink:href="primitives_8hpp.html" target="_top" xlink:title="Implementation of library primitives to abstract member access.">
<polygon fill="none" stroke="black" points="722.5,-123.5 722.5,-142.5 845.5,-142.5 845.5,-123.5 722.5,-123.5"/>
<text text-anchor="middle" x="784" y="-130.5" font-family="Helvetica,sans-Serif" font-size="10.00">beluga/primitives.hpp</text>
</a>
</g>
</g>
<!-- Node5&#45;&gt;Node6 -->
<g id="edge5" class="edge">
<title>Node5&#45;&gt;Node6</title>
<path fill="none" stroke="midnightblue" d="M763.44,-184.98C766.9,-176.4 772.33,-162.93 776.75,-151.98"/>
<polygon fill="midnightblue" stroke="midnightblue" points="780.07,-153.09 780.57,-142.51 773.58,-150.47 780.07,-153.09"/>
</g>
<!-- Node6&#45;&gt;Node3 -->
<g id="edge6" class="edge">
<title>Node6&#45;&gt;Node3</title>
<path fill="none" stroke="midnightblue" d="M844.92,-123.49C908.02,-114.62 1009.46,-100.19 1097,-87 1267.81,-61.26 1472.32,-28.31 1548.47,-15.96"/>
<polygon fill="midnightblue" stroke="midnightblue" points="1549.03,-19.42 1558.34,-14.36 1547.91,-12.51 1549.03,-19.42"/>
</g>
<!-- Node7 -->
<g id="node7" class="node">
<title>Node7</title>
<g id="a_node7"><a xlink:title=" ">
<polygon fill="none" stroke="#bfbfbf" points="653.5,-0.5 653.5,-19.5 722.5,-19.5 722.5,-0.5 653.5,-0.5"/>
<text text-anchor="middle" x="688" y="-7.5" font-family="Helvetica,sans-Serif" font-size="10.00">type_traits</text>
</a>
</g>
</g>
<!-- Node6&#45;&gt;Node7 -->
<g id="edge7" class="edge">
<title>Node6&#45;&gt;Node7</title>
<path fill="none" stroke="midnightblue" d="M783.94,-123.09C783.4,-107.85 780.34,-76.46 765,-56 754.15,-41.54 737.18,-30.9 721.93,-23.62"/>
<polygon fill="midnightblue" stroke="midnightblue" points="723.28,-20.39 712.73,-19.51 720.43,-26.78 723.28,-20.39"/>
</g>
<!-- Node8 -->
<g id="node8" class="node">
<title>Node8</title>
<g id="a_node8"><a xlink:href="strongly__typed__numeric_8hpp.html" target="_top" xlink:title="Implementation of a strongly typed numeric helper.">
<polygon fill="none" stroke="black" points="406,-56.5 406,-86.5 564,-86.5 564,-56.5 406,-56.5"/>
<text text-anchor="start" x="414" y="-74.5" font-family="Helvetica,sans-Serif" font-size="10.00">beluga/type_traits</text>
<text text-anchor="middle" x="485" y="-63.5" font-family="Helvetica,sans-Serif" font-size="10.00">/strongly_typed_numeric.hpp</text>
</a>
</g>
</g>
<!-- Node6&#45;&gt;Node8 -->
<g id="edge8" class="edge">
<title>Node6&#45;&gt;Node8</title>
<path fill="none" stroke="midnightblue" d="M741.16,-123.48C695.46,-114.38 622.02,-99.77 565.46,-88.51"/>
<polygon fill="midnightblue" stroke="midnightblue" points="565.96,-85.04 555.47,-86.52 564.59,-91.91 565.96,-85.04"/>
</g>
<!-- Node11 -->
<g id="node11" class="node">
<title>Node11</title>
<g id="a_node11"><a xlink:href="tuple__traits_8hpp.html" target="_top" xlink:title="Implementation of traits for tuple&#45;like types.">
<polygon fill="none" stroke="black" points="983.5,-56.5 983.5,-86.5 1088.5,-86.5 1088.5,-56.5 983.5,-56.5"/>
<text text-anchor="start" x="991.5" y="-74.5" font-family="Helvetica,sans-Serif" font-size="10.00">beluga/type_traits</text>
<text text-anchor="middle" x="1036" y="-63.5" font-family="Helvetica,sans-Serif" font-size="10.00">/tuple_traits.hpp</text>
</a>
</g>
</g>
<!-- Node6&#45;&gt;Node11 -->
<g id="edge12" class="edge">
<title>Node6&#45;&gt;Node11</title>
<path fill="none" stroke="midnightblue" d="M820.11,-123.48C860,-114.06 924.99,-98.71 973.25,-87.32"/>
<polygon fill="midnightblue" stroke="midnightblue" points="974.35,-90.65 983.28,-84.95 972.75,-83.84 974.35,-90.65"/>
</g>
<!-- Node13 -->
<g id="node13" class="node">
<title>Node13</title>
<g id="a_node13"><a xlink:href="forward__like_8hpp_source.html" target="_top" xlink:title=" ">
<polygon fill="none" stroke="black" points="634,-56.5 634,-86.5 756,-86.5 756,-56.5 634,-56.5"/>
<text text-anchor="start" x="642" y="-74.5" font-family="Helvetica,sans-Serif" font-size="10.00">beluga/utility/forward</text>
<text text-anchor="middle" x="695" y="-63.5" font-family="Helvetica,sans-Serif" font-size="10.00">_like.hpp</text>
</a>
</g>
</g>
<!-- Node6&#45;&gt;Node13 -->
<g id="edge16" class="edge">
<title>Node6&#45;&gt;Node13</title>
<path fill="none" stroke="midnightblue" d="M771.25,-123.48C759.08,-115.34 740.31,-102.79 724.44,-92.18"/>
<polygon fill="midnightblue" stroke="midnightblue" points="726.23,-89.17 715.98,-86.52 722.34,-94.99 726.23,-89.17"/>
</g>
<!-- Node8&#45;&gt;Node7 -->
<g id="edge11" class="edge">
<title>Node8&#45;&gt;Node7</title>
<path fill="none" stroke="midnightblue" d="M532.85,-56.47C568.33,-46.08 616.09,-32.08 649.2,-22.37"/>
<polygon fill="midnightblue" stroke="midnightblue" points="650.37,-25.68 658.98,-19.51 648.4,-18.96 650.37,-25.68"/>
</g>
<!-- Node9 -->
<g id="node9" class="node">
<title>Node9</title>
<g id="a_node9"><a xlink:title=" ">
<polygon fill="none" stroke="#bfbfbf" points="362.5,-0.5 362.5,-19.5 427.5,-19.5 427.5,-0.5 362.5,-0.5"/>
<text text-anchor="middle" x="395" y="-7.5" font-family="Helvetica,sans-Serif" font-size="10.00">functional</text>
</a>
</g>
</g>
<!-- Node8&#45;&gt;Node9 -->
<g id="edge9" class="edge">
<title>Node8&#45;&gt;Node9</title>
<path fill="none" stroke="midnightblue" d="M463.67,-56.4C449.51,-47.04 430.99,-34.79 416.75,-25.38"/>
<polygon fill="midnightblue" stroke="midnightblue" points="418.37,-22.25 408.1,-19.66 414.51,-28.09 418.37,-22.25"/>
</g>
<!-- Node10 -->
<g id="node10" class="node">
<title>Node10</title>
<g id="a_node10"><a xlink:title=" ">
<polygon fill="none" stroke="#bfbfbf" points="463,-0.5 463,-19.5 507,-19.5 507,-0.5 463,-0.5"/>
<text text-anchor="middle" x="485" y="-7.5" font-family="Helvetica,sans-Serif" font-size="10.00">limits</text>
</a>
</g>
</g>
<!-- Node8&#45;&gt;Node10 -->
<g id="edge10" class="edge">
<title>Node8&#45;&gt;Node10</title>
<path fill="none" stroke="midnightblue" d="M485,-56.4C485,-48.47 485,-38.46 485,-29.86"/>
<polygon fill="midnightblue" stroke="midnightblue" points="488.5,-29.66 485,-19.66 481.5,-29.66 488.5,-29.66"/>
</g>
<!-- Node11&#45;&gt;Node3 -->
<g id="edge13" class="edge">
<title>Node11&#45;&gt;Node3</title>
<path fill="none" stroke="midnightblue" d="M1088.56,-64.74C1200.45,-52.48 1459.26,-24.12 1548.27,-14.37"/>
<polygon fill="midnightblue" stroke="midnightblue" points="1548.71,-17.84 1558.27,-13.27 1547.94,-10.88 1548.71,-17.84"/>
</g>
<!-- Node11&#45;&gt;Node7 -->
<g id="edge14" class="edge">
<title>Node11&#45;&gt;Node7</title>
<path fill="none" stroke="midnightblue" d="M983.15,-61.46C914.88,-49.79 797.23,-29.68 733.02,-18.7"/>
<polygon fill="midnightblue" stroke="midnightblue" points="733.26,-15.19 722.81,-16.95 732.08,-22.09 733.26,-15.19"/>
</g>
<!-- Node12 -->
<g id="node12" class="node">
<title>Node12</title>
<g id="a_node12"><a xlink:title=" ">
<polygon fill="none" stroke="#bfbfbf" points="1013.5,-0.5 1013.5,-19.5 1058.5,-19.5 1058.5,-0.5 1013.5,-0.5"/>
<text text-anchor="middle" x="1036" y="-7.5" font-family="Helvetica,sans-Serif" font-size="10.00">utility</text>
</a>
</g>
</g>
<!-- Node11&#45;&gt;Node12 -->
<g id="edge15" class="edge">
<title>Node11&#45;&gt;Node12</title>
<path fill="none" stroke="midnightblue" d="M1036,-56.4C1036,-48.47 1036,-38.46 1036,-29.86"/>
<polygon fill="midnightblue" stroke="midnightblue" points="1039.5,-29.66 1036,-19.66 1032.5,-29.66 1039.5,-29.66"/>
</g>
<!-- Node14&#45;&gt;Node7 -->
<g id="edge22" class="edge">
<title>Node14&#45;&gt;Node7</title>
<path fill="none" stroke="midnightblue" d="M401.03,-246.2C406.48,-228.8 417.59,-199.24 435,-179 436.13,-177.69 605.22,-65.76 666.31,-25.35"/>
<polygon fill="midnightblue" stroke="midnightblue" points="668.41,-28.15 674.82,-19.72 664.55,-22.31 668.41,-28.15"/>
</g>
<!-- Node14&#45;&gt;Node9 -->
<g id="edge19" class="edge">
<title>Node14&#45;&gt;Node9</title>
<path fill="none" stroke="midnightblue" d="M396.89,-246.37C396.55,-204.09 395.54,-78.49 395.15,-30.21"/>
<polygon fill="midnightblue" stroke="midnightblue" points="398.65,-29.9 395.07,-19.93 391.65,-29.96 398.65,-29.9"/>
</g>
<!-- Node15 -->
<g id="node15" class="node">
<title>Node15</title>
<g id="a_node15"><a xlink:title=" ">
<polygon fill="none" stroke="#bfbfbf" points="0,-185 0,-204 56,-204 56,-185 0,-185"/>
<text text-anchor="middle" x="28" y="-192" font-family="Helvetica,sans-Serif" font-size="10.00">optional</text>
</a>
</g>
</g>
<!-- Node14&#45;&gt;Node15 -->
<g id="edge20" class="edge">
<title>Node14&#45;&gt;Node15</title>
<path fill="none" stroke="midnightblue" d="M335.89,-255.32C268.64,-248.67 157.77,-234.9 65,-210 62.34,-209.29 59.62,-208.44 56.91,-207.53"/>
<polygon fill="midnightblue" stroke="midnightblue" points="57.91,-204.17 47.31,-204 55.49,-210.74 57.91,-204.17"/>
</g>
<!-- Node16 -->
<g id="node16" class="node">
<title>Node16</title>
<g id="a_node16"><a xlink:title=" ">
<polygon fill="none" stroke="#bfbfbf" points="614,-185 614,-204 668,-204 668,-185 614,-185"/>
<text text-anchor="middle" x="641" y="-192" font-family="Helvetica,sans-Serif" font-size="10.00">random</text>
</a>
</g>
</g>
<!-- Node14&#45;&gt;Node16 -->
<g id="edge21" class="edge">
<title>Node14&#45;&gt;Node16</title>
<path fill="none" stroke="midnightblue" d="M458.17,-248.09C499.95,-239.02 556.35,-225.61 605,-210 607.14,-209.31 609.33,-208.56 611.52,-207.77"/>
<polygon fill="midnightblue" stroke="midnightblue" points="612.91,-210.99 621.01,-204.15 610.42,-204.45 612.91,-210.99"/>
</g>
<!-- Node17 -->
<g id="node17" class="node">
<title>Node17</title>
<g id="a_node17"><a xlink:title=" ">
<polygon fill="none" stroke="#bfbfbf" points="74.5,-179.5 74.5,-209.5 185.5,-209.5 185.5,-179.5 74.5,-179.5"/>
<text text-anchor="start" x="82.5" y="-197.5" font-family="Helvetica,sans-Serif" font-size="10.00">range/v3/functional</text>
<text text-anchor="middle" x="130" y="-186.5" font-family="Helvetica,sans-Serif" font-size="10.00">/bind_back.hpp</text>
</a>
</g>
</g>
<!-- Node14&#45;&gt;Node17 -->
<g id="edge23" class="edge">
<title>Node14&#45;&gt;Node17</title>
<path fill="none" stroke="midnightblue" d="M339.39,-246.48C297.06,-236.17 239.49,-222.16 195.43,-211.43"/>
<polygon fill="midnightblue" stroke="midnightblue" points="196.22,-208.02 185.67,-209.05 194.56,-214.82 196.22,-208.02"/>
</g>
<!-- Node18 -->
<g id="node18" class="node">
<title>Node18</title>
<g id="a_node18"><a xlink:title=" ">
<polygon fill="none" stroke="#bfbfbf" points="444,-185 444,-204 596,-204 596,-185 444,-185"/>
<text text-anchor="middle" x="520" y="-192" font-family="Helvetica,sans-Serif" font-size="10.00">range/v3/utility/random.hpp</text>
</a>
</g>
</g>
<!-- Node14&#45;&gt;Node18 -->
<g id="edge24" class="edge">
<title>Node14&#45;&gt;Node18</title>
<path fill="none" stroke="midnightblue" d="M423.69,-246.4C444.89,-235.19 474.32,-219.64 495.05,-208.69"/>
<polygon fill="midnightblue" stroke="midnightblue" points="496.7,-211.77 503.9,-204.01 493.43,-205.58 496.7,-211.77"/>
</g>
<!-- Node19 -->
<g id="node19" class="node">
<title>Node19</title>
<g id="a_node19"><a xlink:title=" ">
<polygon fill="none" stroke="#bfbfbf" points="204,-185 204,-204 350,-204 350,-185 204,-185"/>
<text text-anchor="middle" x="277" y="-192" font-family="Helvetica,sans-Serif" font-size="10.00">range/v3/view/adaptor.hpp</text>
</a>
</g>
</g>
<!-- Node14&#45;&gt;Node19 -->
<g id="edge25" class="edge">
<title>Node14&#45;&gt;Node19</title>
<path fill="none" stroke="midnightblue" d="M370.96,-246.4C350.37,-235.24 321.83,-219.78 301.62,-208.83"/>
<polygon fill="midnightblue" stroke="midnightblue" points="303.17,-205.69 292.71,-204.01 299.83,-211.85 303.17,-205.69"/>
</g>
<!-- Node20&#45;&gt;Node5 -->
<g id="edge35" class="edge">
<title>Node20&#45;&gt;Node5</title>
<path fill="none" stroke="midnightblue" d="M905.69,-251.87C876.49,-240.57 825.12,-220.7 791.84,-207.82"/>
<polygon fill="midnightblue" stroke="midnightblue" points="792.72,-204.41 782.13,-204.06 790.2,-210.94 792.72,-204.41"/>
</g>
<!-- Node20&#45;&gt;Node16 -->
<g id="edge27" class="edge">
<title>Node20&#45;&gt;Node16</title>
<path fill="none" stroke="midnightblue" d="M870.19,-251.98C818.83,-243.68 742.05,-229.46 677,-210 674.71,-209.32 672.37,-208.54 670.03,-207.72"/>
<polygon fill="midnightblue" stroke="midnightblue" points="671.16,-204.41 660.57,-204.14 668.69,-210.95 671.16,-204.41"/>
</g>
<!-- Node20&#45;&gt;Node18 -->
<g id="edge28" class="edge">
<title>Node20&#45;&gt;Node18</title>
<path fill="none" stroke="midnightblue" d="M871.94,-251.98C807.5,-242.12 698.54,-225.29 605,-210 596.72,-208.65 587.99,-207.19 579.4,-205.74"/>
<polygon fill="midnightblue" stroke="midnightblue" points="579.87,-202.27 569.42,-204.05 578.7,-209.17 579.87,-202.27"/>
</g>
<!-- Node21 -->
<g id="node21" class="node">
<title>Node21</title>
<g id="a_node21"><a xlink:title=" ">
<polygon fill="none" stroke="#bfbfbf" points="1023,-185 1023,-204 1175,-204 1175,-185 1023,-185"/>
<text text-anchor="middle" x="1099" y="-192" font-family="Helvetica,sans-Serif" font-size="10.00">range/v3/view/common.hpp</text>
</a>
</g>
</g>
<!-- Node20&#45;&gt;Node21 -->
<g id="edge29" class="edge">
<title>Node20&#45;&gt;Node21</title>
<path fill="none" stroke="midnightblue" d="M950.71,-251.87C980.56,-240.52 1033.17,-220.52 1067.03,-207.65"/>
<polygon fill="midnightblue" stroke="midnightblue" points="1068.37,-210.89 1076.47,-204.06 1065.88,-204.35 1068.37,-210.89"/>
</g>
<!-- Node22 -->
<g id="node22" class="node">
<title>Node22</title>
<g id="a_node22"><a xlink:title=" ">
<polygon fill="none" stroke="#bfbfbf" points="851.5,-185 851.5,-204 1004.5,-204 1004.5,-185 851.5,-185"/>
<text text-anchor="middle" x="928" y="-192" font-family="Helvetica,sans-Serif" font-size="10.00">range/v3/view/generate.hpp</text>
</a>
</g>
</g>
<!-- Node20&#45;&gt;Node22 -->
<g id="edge30" class="edge">
<title>Node20&#45;&gt;Node22</title>
<path fill="none" stroke="midnightblue" d="M928,-251.73C928,-242.18 928,-226.62 928,-214.28"/>
<polygon fill="midnightblue" stroke="midnightblue" points="931.5,-214.13 928,-204.13 924.5,-214.13 931.5,-214.13"/>
</g>
<!-- Node23 -->
<g id="node23" class="node">
<title>Node23</title>
<g id="a_node23"><a xlink:href="particle__traits_8hpp.html" target="_top" xlink:title="Implementation of traits for particle types, see the Particle named requirements.">
<polygon fill="none" stroke="black" points="1193,-179.5 1193,-209.5 1301,-209.5 1301,-179.5 1193,-179.5"/>
<text text-anchor="start" x="1201" y="-197.5" font-family="Helvetica,sans-Serif" font-size="10.00">beluga/type_traits</text>
<text text-anchor="middle" x="1247" y="-186.5" font-family="Helvetica,sans-Serif" font-size="10.00">/particle_traits.hpp</text>
</a>
</g>
</g>
<!-- Node20&#45;&gt;Node23 -->
<g id="edge31" class="edge">
<title>Node20&#45;&gt;Node23</title>
<path fill="none" stroke="midnightblue" d="M973.41,-251.99C1022.55,-242.68 1103.48,-227.06 1182.59,-210.27"/>
<polygon fill="midnightblue" stroke="midnightblue" points="1183.68,-213.61 1192.73,-208.11 1182.22,-206.77 1183.68,-213.61"/>
</g>
<!-- Node23&#45;&gt;Node6 -->
<g id="edge32" class="edge">
<title>Node23&#45;&gt;Node6</title>
<path fill="none" stroke="midnightblue" d="M1192.78,-180.61C1189.82,-180.03 1186.88,-179.49 1184,-179 1122.71,-168.53 953.35,-150.87 855.78,-141.08"/>
<polygon fill="midnightblue" stroke="midnightblue" points="855.99,-137.58 845.7,-140.07 855.3,-144.55 855.99,-137.58"/>
</g>
<!-- Node23&#45;&gt;Node11 -->
<g id="edge33" class="edge">
<title>Node23&#45;&gt;Node11</title>
<path fill="none" stroke="midnightblue" d="M1247.15,-179.27C1246.53,-163.38 1243.01,-137.92 1228,-123 1194.12,-89.33 1140.67,-77.31 1098.75,-73.38"/>
<polygon fill="midnightblue" stroke="midnightblue" points="1098.88,-69.87 1088.63,-72.56 1098.32,-76.85 1098.88,-69.87"/>
</g>
<!-- Node24 -->
<g id="node24" class="node">
<title>Node24</title>
<g id="a_node24"><a xlink:title=" ">
<polygon fill="none" stroke="#bfbfbf" points="1079,-123.5 1079,-142.5 1219,-142.5 1219,-123.5 1079,-123.5"/>
<text text-anchor="middle" x="1149" y="-130.5" font-family="Helvetica,sans-Serif" font-size="10.00">range/v3/range/traits.hpp</text>
</a>
</g>
</g>
<!-- Node23&#45;&gt;Node24 -->
<g id="edge34" class="edge">
<title>Node23&#45;&gt;Node24</title>
<path fill="none" stroke="midnightblue" d="M1223.78,-179.4C1208.21,-169.95 1187.8,-157.56 1172.24,-148.11"/>
<polygon fill="midnightblue" stroke="midnightblue" points="1173.62,-144.86 1163.26,-142.66 1169.99,-150.84 1173.62,-144.86"/>
</g>
<!-- Node25&#45;&gt;Node2 -->
<g id="edge37" class="edge">
<title>Node25&#45;&gt;Node2</title>
<path fill="none" stroke="midnightblue" d="M1644.02,-251.94C1694.67,-240.22 1785.58,-219.19 1840.98,-206.38"/>
<polygon fill="midnightblue" stroke="midnightblue" points="1841.94,-209.75 1850.89,-204.08 1840.36,-202.93 1841.94,-209.75"/>
</g>
<!-- Node26 -->
<g id="node26" class="node">
<title>Node26</title>
<g id="a_node26"><a xlink:title=" ">
<polygon fill="none" stroke="#bfbfbf" points="1650,-185 1650,-204 1794,-204 1794,-185 1650,-185"/>
<text text-anchor="middle" x="1722" y="-192" font-family="Helvetica,sans-Serif" font-size="10.00">range/v3/view/cache1.hpp</text>
</a>
</g>
</g>
<!-- Node25&#45;&gt;Node26 -->
<g id="edge38" class="edge">
<title>Node25&#45;&gt;Node26</title>
<path fill="none" stroke="midnightblue" d="M1622.51,-251.73C1641.91,-240.77 1675.33,-221.88 1698.03,-209.05"/>
<polygon fill="midnightblue" stroke="midnightblue" points="1699.75,-212.09 1706.74,-204.13 1696.31,-206 1699.75,-212.09"/>
</g>
<!-- Node27 -->
<g id="node27" class="node">
<title>Node27</title>
<g id="a_node27"><a xlink:title=" ">
<polygon fill="none" stroke="#bfbfbf" points="1468.5,-185 1468.5,-204 1631.5,-204 1631.5,-185 1468.5,-185"/>
<text text-anchor="middle" x="1550" y="-192" font-family="Helvetica,sans-Serif" font-size="10.00">range/v3/view/enumerate.hpp</text>
</a>
</g>
</g>
<!-- Node25&#45;&gt;Node27 -->
<g id="edge39" class="edge">
<title>Node25&#45;&gt;Node27</title>
<path fill="none" stroke="midnightblue" d="M1599.31,-251.73C1590.34,-241.5 1575.31,-224.36 1564.2,-211.69"/>
<polygon fill="midnightblue" stroke="midnightblue" points="1566.79,-209.34 1557.57,-204.13 1561.53,-213.95 1566.79,-209.34"/>
</g>
<!-- Node28 -->
<g id="node28" class="node">
<title>Node28</title>
<g id="a_node28"><a xlink:title=" ">
<polygon fill="none" stroke="#bfbfbf" points="1319.5,-185 1319.5,-204 1450.5,-204 1450.5,-185 1319.5,-185"/>
<text text-anchor="middle" x="1385" y="-192" font-family="Helvetica,sans-Serif" font-size="10.00">range/v3/view/filter.hpp</text>
</a>
</g>
</g>
<!-- Node25&#45;&gt;Node28 -->
<g id="edge40" class="edge">
<title>Node25&#45;&gt;Node28</title>
<path fill="none" stroke="midnightblue" d="M1577.52,-251.87C1538.02,-240.3 1467.82,-219.75 1423.98,-206.91"/>
<polygon fill="midnightblue" stroke="midnightblue" points="1424.83,-203.51 1414.25,-204.06 1422.86,-210.23 1424.83,-203.51"/>
</g>
<!-- Node29&#45;&gt;Node23 -->
<g id="edge46" class="edge">
<title>Node29&#45;&gt;Node23</title>
<path fill="none" stroke="midnightblue" d="M2016.21,-257.44C1856.55,-250.12 1463.51,-230.75 1311.3,-209.99"/>
<polygon fill="midnightblue" stroke="midnightblue" points="1311.58,-206.49 1301.19,-208.56 1310.6,-213.43 1311.58,-206.49"/>
</g>
<!-- Node30 -->
<g id="node30" class="node">
<title>Node30</title>
<g id="a_node30"><a xlink:title=" ">
<polygon fill="none" stroke="#bfbfbf" points="2110.5,-185 2110.5,-204 2157.5,-204 2157.5,-185 2110.5,-185"/>
<text text-anchor="middle" x="2134" y="-192" font-family="Helvetica,sans-Serif" font-size="10.00">cmath</text>
</a>
</g>
</g>
<!-- Node29&#45;&gt;Node30 -->
<g id="edge42" class="edge">
<title>Node29&#45;&gt;Node30</title>
<path fill="none" stroke="midnightblue" d="M2095.63,-246.4C2103.2,-236.36 2113.39,-222.84 2121.37,-212.25"/>
<polygon fill="midnightblue" stroke="midnightblue" points="2124.22,-214.29 2127.45,-204.19 2118.63,-210.07 2124.22,-214.29"/>
</g>
<!-- Node31 -->
<g id="node31" class="node">
<title>Node31</title>
<g id="a_node31"><a xlink:title=" ">
<polygon fill="none" stroke="#bfbfbf" points="2176,-185 2176,-204 2262,-204 2262,-185 2176,-185"/>
<text text-anchor="middle" x="2219" y="-192" font-family="Helvetica,sans-Serif" font-size="10.00">unordered_set</text>
</a>
</g>
</g>
<!-- Node29&#45;&gt;Node31 -->
<g id="edge43" class="edge">
<title>Node29&#45;&gt;Node31</title>
<path fill="none" stroke="midnightblue" d="M2114.08,-246.4C2137.38,-235.09 2169.81,-219.36 2192.43,-208.39"/>
<polygon fill="midnightblue" stroke="midnightblue" points="2193.99,-211.52 2201.46,-204.01 2190.94,-205.22 2193.99,-211.52"/>
</g>
<!-- Node32 -->
<g id="node32" class="node">
<title>Node32</title>
<g id="a_node32"><a xlink:title=" ">
<polygon fill="none" stroke="#bfbfbf" points="2280.5,-185 2280.5,-204 2411.5,-204 2411.5,-185 2280.5,-185"/>
<text text-anchor="middle" x="2346" y="-192" font-family="Helvetica,sans-Serif" font-size="10.00">range/v3/view/take.hpp</text>
</a>
</g>
</g>
<!-- Node29&#45;&gt;Node32 -->
<g id="edge44" class="edge">
<title>Node29&#45;&gt;Node32</title>
<path fill="none" stroke="midnightblue" d="M2141.31,-246.48C2189.42,-234.5 2257.66,-217.5 2301.88,-206.49"/>
<polygon fill="midnightblue" stroke="midnightblue" points="2302.9,-209.84 2311.75,-204.03 2301.2,-203.05 2302.9,-209.84"/>
</g>
<!-- Node33 -->
<g id="node33" class="node">
<title>Node33</title>
<g id="a_node33"><a xlink:title=" ">
<polygon fill="none" stroke="#bfbfbf" points="1982,-179.5 1982,-209.5 2092,-209.5 2092,-179.5 1982,-179.5"/>
<text text-anchor="start" x="1990" y="-197.5" font-family="Helvetica,sans-Serif" font-size="10.00">range/v3/view/take</text>
<text text-anchor="middle" x="2037" y="-186.5" font-family="Helvetica,sans-Serif" font-size="10.00">_while.hpp</text>
</a>
</g>
</g>
<!-- Node29&#45;&gt;Node33 -->
<g id="edge45" class="edge">
<title>Node29&#45;&gt;Node33</title>
<path fill="none" stroke="midnightblue" d="M2074.58,-246.4C2068.42,-238.05 2060.47,-227.29 2053.48,-217.81"/>
<polygon fill="midnightblue" stroke="midnightblue" points="2056.15,-215.54 2047.39,-209.58 2050.52,-219.7 2056.15,-215.54"/>
</g>
<!-- Node34&#45;&gt;Node3 -->
<g id="edge48" class="edge">
<title>Node34&#45;&gt;Node3</title>
<path fill="none" stroke="midnightblue" d="M2509.63,-251.77C2537.31,-236.94 2585.63,-205.82 2563,-179 2436.4,-28.95 1763.17,-12.91 1610.02,-11.2"/>
<polygon fill="midnightblue" stroke="midnightblue" points="1609.94,-7.7 1599.91,-11.1 1609.87,-14.7 1609.94,-7.7"/>
</g>
<!-- Node35 -->
<g id="node35" class="node">
<title>Node35</title>
<g id="a_node35"><a xlink:title=" ">
<polygon fill="none" stroke="#bfbfbf" points="2430,-185 2430,-204 2554,-204 2554,-185 2430,-185"/>
<text text-anchor="middle" x="2492" y="-192" font-family="Helvetica,sans-Serif" font-size="10.00">range/v3/view/zip.hpp</text>
</a>
</g>
</g>
<!-- Node34&#45;&gt;Node35 -->
<g id="edge49" class="edge">
<title>Node34&#45;&gt;Node35</title>
<path fill="none" stroke="midnightblue" d="M2492,-251.73C2492,-242.18 2492,-226.62 2492,-214.28"/>
<polygon fill="midnightblue" stroke="midnightblue" points="2495.5,-214.13 2492,-204.13 2488.5,-214.13 2495.5,-214.13"/>
</g>
</g>
</svg>
