<?xml version="1.0" encoding="UTF-8" standalone="no"?>
<!DOCTYPE svg PUBLIC "-//W3C//DTD SVG 1.1//EN"
 "http://www.w3.org/Graphics/SVG/1.1/DTD/svg11.dtd">
<!-- Generated by graphviz version 2.43.0 (0)
 -->
<!-- Title: /home/runner/work/beluga/beluga/beluga_ros/include/beluga_ros/amcl.hpp Pages: 1 -->
<!--zoomable 195 -->
<svg id="main" version="1.1" xmlns="http://www.w3.org/2000/svg" xmlns:xlink="http://www.w3.org/1999/xlink" xml:space="preserve" onload="init(evt)">
<style type="text/css"><![CDATA[
.edge:hover path { stroke: red; }
.edge:hover polygon { stroke: red; fill: red; }
]]></style>
<script type="text/javascript"><![CDATA[
var edges = document.getElementsByTagName('g');
if (edges && edges.length) {
  for (var i=0;i<edges.length;i++) {
    if (edges[i].id.substr(0,4)=='edge') {
      edges[i].setAttribute('class','edge');
    }
  }
}
]]></script>
        <defs>
                <circle id="rim" cx="0" cy="0" r="7"/>
                <circle id="rim2" cx="0" cy="0" r="3.5"/>
                <g id="zoomPlus">
                        <use xlink:href="#rim" fill="#404040">
                                <set attributeName="fill" to="#808080" begin="zoomplus.mouseover" end="zoomplus.mouseout"/>
                        </use>
                        <path d="M-4,0h8M0,-4v8" fill="none" stroke="white" stroke-width="1.5" pointer-events="none"/>
                </g>
                <g id="zoomMin">
                        <use xlink:href="#rim" fill="#404040">
                                <set attributeName="fill" to="#808080" begin="zoomminus.mouseover" end="zoomminus.mouseout"/>
                        </use>
                        <path d="M-4,0h8" fill="none" stroke="white" stroke-width="1.5" pointer-events="none"/>
                </g>
                <g id="dirArrow">
                        <path fill="none" stroke="white" stroke-width="1.5" d="M0,-3.0v7 M-2.5,-0.5L0,-3.0L2.5,-0.5"/>
                </g>
               <g id="resetDef">
                       <use xlink:href="#rim2" fill="#404040">
                               <set attributeName="fill" to="#808080" begin="reset.mouseover" end="reset.mouseout"/>
                       </use>
               </g>
        </defs>

<script type="text/javascript">
var viewWidth = 2492;
var viewHeight = 195;
var sectionId = 'dynsection-0';
</script>
<script xlink:href="svgpan.js"/>
<svg id="graph" class="graph">
<g id="viewport">
<title>/home/runner/work/beluga/beluga/beluga_ros/include/beluga_ros/amcl.hpp</title>
<!-- Node1 -->
<g id="node1" class="node">
<title>Node1</title>
<g id="a_node1"><a xlink:title="Generic two&#45;dimensional implementation of the Adaptive Monte Carlo Localization (AMCL) algorithm in 2...">
<polygon fill="#bfbfbf" stroke="black" points="1314.5,-145.5 1314.5,-186.5 1461.5,-186.5 1461.5,-145.5 1314.5,-145.5"/>
<text text-anchor="start" x="1322.5" y="-174.5" font-family="Helvetica,sans-Serif" font-size="10.00">/home/runner/work/beluga</text>
<text text-anchor="start" x="1322.5" y="-163.5" font-family="Helvetica,sans-Serif" font-size="10.00">/beluga/beluga_ros/include</text>
<text text-anchor="middle" x="1388" y="-152.5" font-family="Helvetica,sans-Serif" font-size="10.00">/beluga_ros/amcl.hpp</text>
</a>
</g>
</g>
<!-- Node2 -->
<g id="node2" class="node">
<title>Node2</title>
<g id="a_node2"><a xlink:title=" ">
<polygon fill="none" stroke="#bfbfbf" points="355,-78.5 355,-97.5 411,-97.5 411,-78.5 355,-78.5"/>
<text text-anchor="middle" x="383" y="-85.5" font-family="Helvetica,sans-Serif" font-size="10.00">optional</text>
</a>
</g>
</g>
<!-- Node1&#45;&gt;Node2 -->
<g id="edge1" class="edge">
<title>Node1&#45;&gt;Node2</title>
<path fill="none" stroke="midnightblue" d="M1314.32,-164.86C1118.34,-163.85 587.8,-156.65 420,-109 414.78,-107.52 409.47,-105.21 404.56,-102.68"/>
<polygon fill="midnightblue" stroke="midnightblue" points="406.18,-99.58 395.76,-97.7 402.74,-105.67 406.18,-99.58"/>
</g>
<!-- Node3 -->
<g id="node3" class="node">
<title>Node3</title>
<g id="a_node3"><a xlink:title=" ">
<polygon fill="none" stroke="#bfbfbf" points="727.5,-6 727.5,-25 772.5,-25 772.5,-6 727.5,-6"/>
<text text-anchor="middle" x="750" y="-13" font-family="Helvetica,sans-Serif" font-size="10.00">utility</text>
</a>
</g>
</g>
<!-- Node1&#45;&gt;Node3 -->
<g id="edge2" class="edge">
<title>Node1&#45;&gt;Node3</title>
<path fill="none" stroke="midnightblue" d="M1314.26,-164.09C1183.11,-161.42 915.35,-150.83 833,-109 799.64,-92.05 773.38,-55.61 759.92,-33.87"/>
<polygon fill="midnightblue" stroke="midnightblue" points="762.78,-31.83 754.65,-25.04 756.77,-35.42 762.78,-31.83"/>
</g>
<!-- Node4 -->
<g id="node4" class="node">
<title>Node4</title>
<g id="a_node4"><a xlink:title=" ">
<polygon fill="none" stroke="#bfbfbf" points="1008.5,-78.5 1008.5,-97.5 1059.5,-97.5 1059.5,-78.5 1008.5,-78.5"/>
<text text-anchor="middle" x="1034" y="-85.5" font-family="Helvetica,sans-Serif" font-size="10.00">variant</text>
</a>
</g>
</g>
<!-- Node1&#45;&gt;Node4 -->
<g id="edge3" class="edge">
<title>Node1&#45;&gt;Node4</title>
<path fill="none" stroke="midnightblue" d="M1314.25,-159.32C1248.38,-152.56 1150.05,-138.26 1069,-109 1064.43,-107.35 1059.77,-105.13 1055.4,-102.76"/>
<polygon fill="midnightblue" stroke="midnightblue" points="1056.85,-99.55 1046.45,-97.52 1053.31,-105.59 1056.85,-99.55"/>
</g>
<!-- Node5 -->
<g id="node5" class="node">
<title>Node5</title>
<g id="a_node5"><a xlink:title=" ">
<polygon fill="none" stroke="#bfbfbf" points="1077.5,-78.5 1077.5,-97.5 1244.5,-97.5 1244.5,-78.5 1077.5,-78.5"/>
<text text-anchor="middle" x="1161" y="-85.5" font-family="Helvetica,sans-Serif" font-size="10.00">range/v3/range/conversion.hpp</text>
</a>
</g>
</g>
<!-- Node1&#45;&gt;Node5 -->
<g id="edge4" class="edge">
<title>Node1&#45;&gt;Node5</title>
<path fill="none" stroke="midnightblue" d="M1329.54,-145.43C1287.46,-131.34 1232.05,-112.79 1196.47,-100.87"/>
<polygon fill="midnightblue" stroke="midnightblue" points="1197.14,-97.41 1186.54,-97.55 1194.92,-104.05 1197.14,-97.41"/>
</g>
<!-- Node6 -->
<g id="node6" class="node">
<title>Node6</title>
<g id="a_node6"><a xlink:title=" ">
<polygon fill="none" stroke="#bfbfbf" points="1263,-73 1263,-103 1373,-103 1373,-73 1263,-73"/>
<text text-anchor="start" x="1271" y="-91" font-family="Helvetica,sans-Serif" font-size="10.00">range/v3/view/take</text>
<text text-anchor="middle" x="1318" y="-80" font-family="Helvetica,sans-Serif" font-size="10.00">_exactly.hpp</text>
</a>
</g>
</g>
<!-- Node1&#45;&gt;Node6 -->
<g id="edge5" class="edge">
<title>Node1&#45;&gt;Node6</title>
<path fill="none" stroke="midnightblue" d="M1369.97,-145.43C1360.19,-134.81 1348.08,-121.66 1338.01,-110.73"/>
<polygon fill="midnightblue" stroke="midnightblue" points="1340.45,-108.21 1331.1,-103.23 1335.3,-112.95 1340.45,-108.21"/>
</g>
<!-- Node7 -->
<g id="node7" class="node">
<title>Node7</title>
<g id="a_node7"><a xlink:title=" ">
<polygon fill="none" stroke="#bfbfbf" points="791,-6 791,-25 883,-25 883,-6 791,-6"/>
<text text-anchor="middle" x="837" y="-13" font-family="Helvetica,sans-Serif" font-size="10.00">sophus/se2.hpp</text>
</a>
</g>
</g>
<!-- Node1&#45;&gt;Node7 -->
<g id="edge6" class="edge">
<title>Node1&#45;&gt;Node7</title>
<path fill="none" stroke="midnightblue" d="M1314.47,-161.97C1176.67,-155.62 890.37,-138.95 857,-109 836.48,-90.58 834.27,-56.55 835.18,-35.3"/>
<polygon fill="midnightblue" stroke="midnightblue" points="838.68,-35.47 835.89,-25.25 831.69,-34.98 838.68,-35.47"/>
</g>
<!-- Node8 -->
<g id="node8" class="node">
<title>Node8</title>
<g id="a_node8"><a target="_parent" xlink:href="../../../../../../beluga/docs/_doxygen/generated/reference/html/spatial__hash_8hpp.html.html" xlink:title=" ">
<polygon fill="none" stroke="black" points="1391,-73 1391,-103 1527,-103 1527,-73 1391,-73"/>
<text text-anchor="start" x="1399" y="-91" font-family="Helvetica,sans-Serif" font-size="10.00">beluga/algorithm/spatial</text>
<text text-anchor="middle" x="1459" y="-80" font-family="Helvetica,sans-Serif" font-size="10.00">_hash.hpp</text>
</a>
</g>
</g>
<!-- Node1&#45;&gt;Node8 -->
<g id="edge7" class="edge">
<title>Node1&#45;&gt;Node8</title>
<path fill="none" stroke="midnightblue" d="M1406.28,-145.43C1416.2,-134.81 1428.49,-121.66 1438.7,-110.73"/>
<polygon fill="midnightblue" stroke="midnightblue" points="1441.44,-112.92 1445.71,-103.23 1436.33,-108.14 1441.44,-112.92"/>
</g>
<!-- Node9 -->
<g id="node9" class="node">
<title>Node9</title>
<g id="a_node9"><a xlink:title=" ">
<polygon fill="none" stroke="#bfbfbf" points="1545,-67.5 1545,-108.5 1673,-108.5 1673,-67.5 1545,-67.5"/>
<text text-anchor="start" x="1553" y="-96.5" font-family="Helvetica,sans-Serif" font-size="10.00">beluga/algorithm/thrun</text>
<text text-anchor="start" x="1553" y="-85.5" font-family="Helvetica,sans-Serif" font-size="10.00">_recovery_probability</text>
<text text-anchor="middle" x="1609" y="-74.5" font-family="Helvetica,sans-Serif" font-size="10.00">_estimator.hpp</text>
</a>
</g>
</g>
<!-- Node1&#45;&gt;Node9 -->
<g id="edge8" class="edge">
<title>Node1&#45;&gt;Node9</title>
<path fill="none" stroke="midnightblue" d="M1444.91,-145.43C1474.82,-135.14 1511.63,-122.49 1542.8,-111.77"/>
<polygon fill="midnightblue" stroke="midnightblue" points="1543.96,-115.07 1552.28,-108.51 1541.69,-108.45 1543.96,-115.07"/>
</g>
<!-- Node10 -->
<g id="node10" class="node">
<title>Node10</title>
<g id="a_node10"><a target="_parent" xlink:href="../../../../../../beluga/docs/_doxygen/generated/reference/html/containers_8hpp.html.html" xlink:title=" ">
<polygon fill="none" stroke="black" points="1691.5,-78.5 1691.5,-97.5 1816.5,-97.5 1816.5,-78.5 1691.5,-78.5"/>
<text text-anchor="middle" x="1754" y="-85.5" font-family="Helvetica,sans-Serif" font-size="10.00">beluga/containers.hpp</text>
</a>
</g>
</g>
<!-- Node1&#45;&gt;Node10 -->
<g id="edge9" class="edge">
<title>Node1&#45;&gt;Node10</title>
<path fill="none" stroke="midnightblue" d="M1461.75,-152.7C1521.43,-142.32 1607.5,-126.41 1682,-109 1693.03,-106.42 1704.9,-103.28 1715.77,-100.25"/>
<polygon fill="midnightblue" stroke="midnightblue" points="1716.74,-103.62 1725.41,-97.53 1714.84,-96.88 1716.74,-103.62"/>
</g>
<!-- Node11 -->
<g id="node11" class="node">
<title>Node11</title>
<g id="a_node11"><a target="_parent" xlink:href="../../../../../../beluga/docs/_doxygen/generated/reference/html/motion_8hpp.html.html" xlink:title=" ">
<polygon fill="none" stroke="black" points="1835,-78.5 1835,-97.5 1943,-97.5 1943,-78.5 1835,-78.5"/>
<text text-anchor="middle" x="1889" y="-85.5" font-family="Helvetica,sans-Serif" font-size="10.00">beluga/motion.hpp</text>
</a>
</g>
</g>
<!-- Node1&#45;&gt;Node11 -->
<g id="edge10" class="edge">
<title>Node1&#45;&gt;Node11</title>
<path fill="none" stroke="midnightblue" d="M1461.54,-159.67C1549.13,-152.39 1699.49,-136.93 1826,-109 1835.9,-106.82 1846.46,-103.76 1856.06,-100.69"/>
<polygon fill="midnightblue" stroke="midnightblue" points="1857.24,-103.98 1865.64,-97.52 1855.05,-97.34 1857.24,-103.98"/>
</g>
<!-- Node12 -->
<g id="node12" class="node">
<title>Node12</title>
<g id="a_node12"><a target="_parent" xlink:href="../../../../../../beluga/docs/_doxygen/generated/reference/html/policies_8hpp.html.html" xlink:title=" ">
<polygon fill="none" stroke="black" points="1961.5,-78.5 1961.5,-97.5 2072.5,-97.5 2072.5,-78.5 1961.5,-78.5"/>
<text text-anchor="middle" x="2017" y="-85.5" font-family="Helvetica,sans-Serif" font-size="10.00">beluga/policies.hpp</text>
</a>
</g>
</g>
<!-- Node1&#45;&gt;Node12 -->
<g id="edge11" class="edge">
<title>Node1&#45;&gt;Node12</title>
<path fill="none" stroke="midnightblue" d="M1461.7,-162.37C1570.07,-157.45 1778.37,-143.97 1952,-109 1962.42,-106.9 1973.54,-103.81 1983.59,-100.68"/>
<polygon fill="midnightblue" stroke="midnightblue" points="1984.78,-103.97 1993.22,-97.57 1982.63,-97.31 1984.78,-103.97"/>
</g>
<!-- Node13 -->
<g id="node13" class="node">
<title>Node13</title>
<g id="a_node13"><a target="_parent" xlink:href="../../../../../../beluga/docs/_doxygen/generated/reference/html/random_8hpp.html.html" xlink:title=" ">
<polygon fill="none" stroke="black" points="2090.5,-78.5 2090.5,-97.5 2201.5,-97.5 2201.5,-78.5 2090.5,-78.5"/>
<text text-anchor="middle" x="2146" y="-85.5" font-family="Helvetica,sans-Serif" font-size="10.00">beluga/random.hpp</text>
</a>
</g>
</g>
<!-- Node1&#45;&gt;Node13 -->
<g id="edge12" class="edge">
<title>Node1&#45;&gt;Node13</title>
<path fill="none" stroke="midnightblue" d="M1461.66,-164.41C1589.21,-162.2 1858.91,-152.3 2082,-109 2092.37,-106.99 2103.43,-103.89 2113.39,-100.73"/>
<polygon fill="midnightblue" stroke="midnightblue" points="2114.52,-104.04 2122.91,-97.58 2112.32,-97.39 2114.52,-104.04"/>
</g>
<!-- Node14 -->
<g id="node14" class="node">
<title>Node14</title>
<g id="a_node14"><a target="_parent" xlink:href="../../../../../../beluga/docs/_doxygen/generated/reference/html/sensor_8hpp.html.html" xlink:title=" ">
<polygon fill="none" stroke="black" points="2219.5,-78.5 2219.5,-97.5 2324.5,-97.5 2324.5,-78.5 2219.5,-78.5"/>
<text text-anchor="middle" x="2272" y="-85.5" font-family="Helvetica,sans-Serif" font-size="10.00">beluga/sensor.hpp</text>
</a>
</g>
</g>
<!-- Node1&#45;&gt;Node14 -->
<g id="edge13" class="edge">
<title>Node1&#45;&gt;Node14</title>
<path fill="none" stroke="midnightblue" d="M1461.52,-162.34C1635.49,-155.67 2068.5,-136.76 2211,-109 2220.8,-107.09 2231.21,-104.07 2240.61,-100.95"/>
<polygon fill="midnightblue" stroke="midnightblue" points="2242.03,-104.16 2250.33,-97.57 2239.73,-97.54 2242.03,-104.16"/>
</g>
<!-- Node15 -->
<g id="node15" class="node">
<title>Node15</title>
<g id="a_node15"><a target="_parent" xlink:href="../../../../../../beluga/docs/_doxygen/generated/reference/html/sample_8hpp.html.html" xlink:title=" ">
<polygon fill="none" stroke="black" points="2342.5,-78.5 2342.5,-97.5 2483.5,-97.5 2483.5,-78.5 2342.5,-78.5"/>
<text text-anchor="middle" x="2413" y="-85.5" font-family="Helvetica,sans-Serif" font-size="10.00">beluga/views/sample.hpp</text>
</a>
</g>
</g>
<!-- Node1&#45;&gt;Node15 -->
<g id="edge14" class="edge">
<title>Node1&#45;&gt;Node15</title>
<path fill="none" stroke="midnightblue" d="M1461.8,-165.35C1621.73,-165.08 2011.87,-158.85 2334,-109 2347.46,-106.92 2361.97,-103.57 2374.83,-100.21"/>
<polygon fill="midnightblue" stroke="midnightblue" points="2376,-103.52 2384.75,-97.53 2374.18,-96.76 2376,-103.52"/>
</g>
<!-- Node16 -->
<g id="node16" class="node">
<title>Node16</title>
<g id="a_node16"><a xlink:href="laser__scan_8hpp.html" target="_top" xlink:title="Implementation of sensor_msgs/LaserScan wrapper type.">
<polygon fill="none" stroke="black" points="429,-78.5 429,-97.5 575,-97.5 575,-78.5 429,-78.5"/>
<text text-anchor="middle" x="502" y="-85.5" font-family="Helvetica,sans-Serif" font-size="10.00">beluga_ros/laser_scan.hpp</text>
</a>
</g>
</g>
<!-- Node1&#45;&gt;Node16 -->
<g id="edge15" class="edge">
<title>Node1&#45;&gt;Node16</title>
<path fill="none" stroke="midnightblue" d="M1314.36,-158.68C1150.69,-144.64 757.59,-110.92 585.29,-96.14"/>
<polygon fill="midnightblue" stroke="midnightblue" points="585.53,-92.65 575.26,-95.28 584.93,-99.63 585.53,-92.65"/>
</g>
<!-- Node22 -->
<g id="node22" class="node">
<title>Node22</title>
<g id="a_node22"><a xlink:href="occupancy__grid_8hpp.html" target="_top" xlink:title="Implementation of nav_msgs/OccupancyGrid wrapper type.">
<polygon fill="none" stroke="black" points="865.5,-73 865.5,-103 990.5,-103 990.5,-73 865.5,-73"/>
<text text-anchor="start" x="873.5" y="-91" font-family="Helvetica,sans-Serif" font-size="10.00">beluga_ros/occupancy</text>
<text text-anchor="middle" x="928" y="-80" font-family="Helvetica,sans-Serif" font-size="10.00">_grid.hpp</text>
</a>
</g>
</g>
<!-- Node1&#45;&gt;Node22 -->
<g id="edge21" class="edge">
<title>Node1&#45;&gt;Node22</title>
<path fill="none" stroke="midnightblue" d="M1314.21,-157.19C1235.79,-148.23 1108.4,-131.78 1000,-109 995.25,-108 990.35,-106.87 985.45,-105.66"/>
<polygon fill="midnightblue" stroke="midnightblue" points="985.98,-102.18 975.43,-103.1 984.25,-108.97 985.98,-102.18"/>
</g>
<!-- Node17 -->
<g id="node17" class="node">
<title>Node17</title>
<g id="a_node17"><a xlink:title=" ">
<polygon fill="none" stroke="#bfbfbf" points="0,-6 0,-25 128,-25 128,-6 0,-6"/>
<text text-anchor="middle" x="64" y="-13" font-family="Helvetica,sans-Serif" font-size="10.00">range/v3/view/iota.hpp</text>
</a>
</g>
</g>
<!-- Node16&#45;&gt;Node17 -->
<g id="edge16" class="edge">
<title>Node16&#45;&gt;Node17</title>
<path fill="none" stroke="midnightblue" d="M470.64,-78.47C455.44,-74.56 436.86,-70.12 420,-67 295.32,-43.94 262.15,-51.36 137,-31 129.64,-29.8 121.89,-28.41 114.3,-26.97"/>
<polygon fill="midnightblue" stroke="midnightblue" points="114.94,-23.53 104.45,-25.06 113.6,-30.4 114.94,-23.53"/>
</g>
<!-- Node18 -->
<g id="node18" class="node">
<title>Node18</title>
<g id="a_node18"><a target="_parent" xlink:href="../../../../../../beluga/docs/_doxygen/generated/reference/html/laser__scan_8hpp.html.html" xlink:title=" ">
<polygon fill="none" stroke="black" points="146,-0.5 146,-30.5 256,-30.5 256,-0.5 146,-0.5"/>
<text text-anchor="start" x="154" y="-18.5" font-family="Helvetica,sans-Serif" font-size="10.00">beluga/sensor/data</text>
<text text-anchor="middle" x="201" y="-7.5" font-family="Helvetica,sans-Serif" font-size="10.00">/laser_scan.hpp</text>
</a>
</g>
</g>
<!-- Node16&#45;&gt;Node18 -->
<g id="edge17" class="edge">
<title>Node16&#45;&gt;Node18</title>
<path fill="none" stroke="midnightblue" d="M467.31,-78.44C452.71,-74.86 435.54,-70.69 420,-67 368.4,-54.76 309.86,-41.28 266.3,-31.33"/>
<polygon fill="midnightblue" stroke="midnightblue" points="266.93,-27.88 256.4,-29.07 265.37,-34.71 266.93,-27.88"/>
</g>
<!-- Node19 -->
<g id="node19" class="node">
<title>Node19</title>
<g id="a_node19"><a target="_parent" xlink:href="../../../../../../beluga/docs/_doxygen/generated/reference/html/take__evenly_8hpp.html.html" xlink:title=" ">
<polygon fill="none" stroke="black" points="274.5,-6 274.5,-25 437.5,-25 437.5,-6 274.5,-6"/>
<text text-anchor="middle" x="356" y="-13" font-family="Helvetica,sans-Serif" font-size="10.00">beluga/views/take_evenly.hpp</text>
</a>
</g>
</g>
<!-- Node16&#45;&gt;Node19 -->
<g id="edge18" class="edge">
<title>Node16&#45;&gt;Node19</title>
<path fill="none" stroke="midnightblue" d="M484.39,-78.5C459.18,-66.32 412.58,-43.82 383,-29.54"/>
<polygon fill="midnightblue" stroke="midnightblue" points="384.2,-26.23 373.67,-25.03 381.16,-32.53 384.2,-26.23"/>
</g>
<!-- Node20 -->
<g id="node20" class="node">
<title>Node20</title>
<g id="a_node20"><a xlink:href="messages_8hpp_source.html" target="_top" xlink:title=" ">
<polygon fill="none" stroke="black" points="566.5,-6 566.5,-25 709.5,-25 709.5,-6 566.5,-6"/>
<text text-anchor="middle" x="638" y="-13" font-family="Helvetica,sans-Serif" font-size="10.00">beluga_ros/messages.hpp</text>
</a>
</g>
</g>
<!-- Node16&#45;&gt;Node20 -->
<g id="edge19" class="edge">
<title>Node16&#45;&gt;Node20</title>
<path fill="none" stroke="midnightblue" d="M518.4,-78.5C541.79,-66.37 584.92,-44.02 612.49,-29.72"/>
<polygon fill="midnightblue" stroke="midnightblue" points="614.27,-32.74 621.54,-25.03 611.05,-26.53 614.27,-32.74"/>
</g>
<!-- Node21 -->
<g id="node21" class="node">
<title>Node21</title>
<g id="a_node21"><a xlink:title=" ">
<polygon fill="none" stroke="#bfbfbf" points="456,-6 456,-25 548,-25 548,-6 456,-6"/>
<text text-anchor="middle" x="502" y="-13" font-family="Helvetica,sans-Serif" font-size="10.00">sophus/se3.hpp</text>
</a>
</g>
</g>
<!-- Node16&#45;&gt;Node21 -->
<g id="edge20" class="edge">
<title>Node16&#45;&gt;Node21</title>
<path fill="none" stroke="midnightblue" d="M502,-78.36C502,-67.68 502,-49.22 502,-35.23"/>
<polygon fill="midnightblue" stroke="midnightblue" points="505.5,-35.22 502,-25.22 498.5,-35.22 505.5,-35.22"/>
</g>
<!-- Node22&#45;&gt;Node3 -->
<g id="edge24" class="edge">
<title>Node22&#45;&gt;Node3</title>
<path fill="none" stroke="midnightblue" d="M889.64,-72.99C860.05,-62.02 818.19,-46.13 782,-31 780.63,-30.43 779.23,-29.83 777.82,-29.22"/>
<polygon fill="midnightblue" stroke="midnightblue" points="779.09,-25.96 768.53,-25.12 776.26,-32.36 779.09,-25.96"/>
</g>
<!-- Node22&#45;&gt;Node7 -->
<g id="edge26" class="edge">
<title>Node22&#45;&gt;Node7</title>
<path fill="none" stroke="midnightblue" d="M909.58,-72.73C894.07,-60.72 871.96,-43.58 856.22,-31.39"/>
<polygon fill="midnightblue" stroke="midnightblue" points="858.27,-28.55 848.22,-25.19 853.98,-34.08 858.27,-28.55"/>
</g>
<!-- Node22&#45;&gt;Node20 -->
<g id="edge30" class="edge">
<title>Node22&#45;&gt;Node20</title>
<path fill="none" stroke="midnightblue" d="M870.36,-72.99C815.34,-59.61 733.58,-39.74 683.15,-27.48"/>
<polygon fill="midnightblue" stroke="midnightblue" points="683.73,-24.02 673.19,-25.05 682.08,-30.82 683.73,-24.02"/>
</g>
<!-- Node23 -->
<g id="node23" class="node">
<title>Node23</title>
<g id="a_node23"><a xlink:title=" ">
<polygon fill="none" stroke="#bfbfbf" points="1117.5,-6 1117.5,-25 1164.5,-25 1164.5,-6 1117.5,-6"/>
<text text-anchor="middle" x="1141" y="-13" font-family="Helvetica,sans-Serif" font-size="10.00">cmath</text>
</a>
</g>
</g>
<!-- Node22&#45;&gt;Node23 -->
<g id="edge22" class="edge">
<title>Node22&#45;&gt;Node23</title>
<path fill="none" stroke="midnightblue" d="M978.56,-72.92C1014.92,-62.4 1064.93,-47.1 1108,-31 1109.61,-30.4 1111.26,-29.76 1112.91,-29.09"/>
<polygon fill="midnightblue" stroke="midnightblue" points="1114.44,-32.25 1122.3,-25.15 1111.73,-25.8 1114.44,-32.25"/>
</g>
<!-- Node24 -->
<g id="node24" class="node">
<title>Node24</title>
<g id="a_node24"><a xlink:title=" ">
<polygon fill="none" stroke="#bfbfbf" points="1183,-6 1183,-25 1241,-25 1241,-6 1183,-6"/>
<text text-anchor="middle" x="1212" y="-13" font-family="Helvetica,sans-Serif" font-size="10.00">memory</text>
</a>
</g>
</g>
<!-- Node22&#45;&gt;Node24 -->
<g id="edge23" class="edge">
<title>Node22&#45;&gt;Node24</title>
<path fill="none" stroke="midnightblue" d="M977.07,-72.9C984.73,-70.83 992.56,-68.8 1000,-67 1076.75,-48.42 1098.2,-53.15 1174,-31 1176.58,-30.25 1179.23,-29.4 1181.88,-28.49"/>
<polygon fill="midnightblue" stroke="midnightblue" points="1183.09,-31.78 1191.3,-25.09 1180.7,-25.2 1183.09,-31.78"/>
</g>
<!-- Node25 -->
<g id="node25" class="node">
<title>Node25</title>
<g id="a_node25"><a xlink:title=" ">
<polygon fill="none" stroke="#bfbfbf" points="1259.5,-6 1259.5,-25 1306.5,-25 1306.5,-6 1259.5,-6"/>
<text text-anchor="middle" x="1283" y="-13" font-family="Helvetica,sans-Serif" font-size="10.00">vector</text>
</a>
</g>
</g>
<!-- Node22&#45;&gt;Node25 -->
<g id="edge25" class="edge">
<title>Node22&#45;&gt;Node25</title>
<path fill="none" stroke="midnightblue" d="M975.43,-72.9C983.58,-70.74 992,-68.68 1000,-67 1109.86,-43.93 1142.07,-61.86 1250,-31 1252.15,-30.38 1254.34,-29.66 1256.53,-28.86"/>
<polygon fill="midnightblue" stroke="midnightblue" points="1257.91,-32.08 1265.86,-25.08 1255.28,-25.6 1257.91,-32.08"/>
</g>
<!-- Node26 -->
<g id="node26" class="node">
<title>Node26</title>
<g id="a_node26"><a xlink:title=" ">
<polygon fill="none" stroke="#bfbfbf" points="1325,-6 1325,-25 1417,-25 1417,-6 1325,-6"/>
<text text-anchor="middle" x="1371" y="-13" font-family="Helvetica,sans-Serif" font-size="10.00">sophus/so2.hpp</text>
</a>
</g>
</g>
<!-- Node22&#45;&gt;Node26 -->
<g id="edge27" class="edge">
<title>Node22&#45;&gt;Node26</title>
<path fill="none" stroke="midnightblue" d="M974.61,-72.9C983.01,-70.69 991.72,-68.61 1000,-67 1138.75,-40 1177.07,-57.09 1316,-31 1321.15,-30.03 1326.52,-28.85 1331.8,-27.57"/>
<polygon fill="midnightblue" stroke="midnightblue" points="1332.94,-30.89 1341.78,-25.04 1331.22,-24.11 1332.94,-30.89"/>
</g>
<!-- Node27 -->
<g id="node27" class="node">
<title>Node27</title>
<g id="a_node27"><a xlink:title=" ">
<polygon fill="none" stroke="#bfbfbf" points="901.5,-6 901.5,-25 964.5,-25 964.5,-6 901.5,-6"/>
<text text-anchor="middle" x="933" y="-13" font-family="Helvetica,sans-Serif" font-size="10.00">tf2/utils.h</text>
</a>
</g>
</g>
<!-- Node22&#45;&gt;Node27 -->
<g id="edge28" class="edge">
<title>Node22&#45;&gt;Node27</title>
<path fill="none" stroke="midnightblue" d="M929.01,-72.73C929.77,-62 930.82,-47.19 931.66,-35.46"/>
<polygon fill="midnightblue" stroke="midnightblue" points="935.15,-35.62 932.37,-25.39 928.17,-35.12 935.15,-35.62"/>
</g>
<!-- Node28 -->
<g id="node28" class="node">
<title>Node28</title>
<g id="a_node28"><a target="_parent" xlink:href="../../../../../../beluga/docs/_doxygen/generated/reference/html/occupancy__grid_8hpp.html.html" xlink:title=" ">
<polygon fill="none" stroke="black" points="983,-0.5 983,-30.5 1099,-30.5 1099,-0.5 983,-0.5"/>
<text text-anchor="start" x="991" y="-18.5" font-family="Helvetica,sans-Serif" font-size="10.00">beluga/sensor/data</text>
<text text-anchor="middle" x="1041" y="-7.5" font-family="Helvetica,sans-Serif" font-size="10.00">/occupancy_grid.hpp</text>
</a>
</g>
</g>
<!-- Node22&#45;&gt;Node28 -->
<g id="edge29" class="edge">
<title>Node22&#45;&gt;Node28</title>
<path fill="none" stroke="midnightblue" d="M950.6,-72.9C967.61,-62.29 991.13,-47.61 1009.92,-35.89"/>
<polygon fill="midnightblue" stroke="midnightblue" points="1011.81,-38.84 1018.44,-30.57 1008.11,-32.9 1011.81,-38.84"/>
</g>
</g>
</svg>
        <g id="navigator" transform="translate(0 0)" fill="#404254">
                <rect fill="#f2f5e9" fill-opacity="0.5" stroke="#606060" stroke-width=".5" x="0" y="0" width="60" height="60"/>
                <use id="zoomplus" xlink:href="#zoomPlus" x="17" y="9" onmousedown="handleZoom(evt,'in')"/>
                <use id="zoomminus" xlink:href="#zoomMin" x="42" y="9" onmousedown="handleZoom(evt,'out')"/>
                <use id="reset" xlink:href="#resetDef" x="30" y="36" onmousedown="handleReset()"/>
                <g id="arrowUp" xlink:href="#dirArrow" transform="translate(30 24)" onmousedown="handlePan(0,-1)">
                  <use xlink:href="#rim" fill="#404040">
                        <set attributeName="fill" to="#808080" begin="arrowUp.mouseover" end="arrowUp.mouseout"/>
                  </use>
                  <path fill="none" stroke="white" stroke-width="1.5" d="M0,-3.0v7 M-2.5,-0.5L0,-3.0L2.5,-0.5"/>
                </g>
                <g id="arrowRight" xlink:href="#dirArrow" transform="rotate(90) translate(36 -43)" onmousedown="handlePan(1,0)">
                  <use xlink:href="#rim" fill="#404040">
                        <set attributeName="fill" to="#808080" begin="arrowRight.mouseover" end="arrowRight.mouseout"/>
                  </use>
                  <path fill="none" stroke="white" stroke-width="1.5" d="M0,-3.0v7 M-2.5,-0.5L0,-3.0L2.5,-0.5"/>
                </g>
                <g id="arrowDown" xlink:href="#dirArrow" transform="rotate(180) translate(-30 -48)" onmousedown="handlePan(0,1)">
                  <use xlink:href="#rim" fill="#404040">
                        <set attributeName="fill" to="#808080" begin="arrowDown.mouseover" end="arrowDown.mouseout"/>
                  </use>
                  <path fill="none" stroke="white" stroke-width="1.5" d="M0,-3.0v7 M-2.5,-0.5L0,-3.0L2.5,-0.5"/>
                </g>
                <g id="arrowLeft" xlink:href="#dirArrow" transform="rotate(270) translate(-36 17)" onmousedown="handlePan(-1,0)">
                  <use xlink:href="#rim" fill="#404040">
                        <set attributeName="fill" to="#808080" begin="arrowLeft.mouseover" end="arrowLeft.mouseout"/>
                  </use>
                  <path fill="none" stroke="white" stroke-width="1.5" d="M0,-3.0v7 M-2.5,-0.5L0,-3.0L2.5,-0.5"/>
                </g>
        </g>
        <svg viewBox="0 0 15 15" width="100%" height="30px" preserveAspectRatio="xMaxYMin meet">
         <g id="arrow_out" transform="scale(0.3 0.3)">
          <a xlink:href="amcl_8hpp__incl_org.svg" target="_base">
           <rect id="button" ry="5" rx="5" y="6" x="6" height="38" width="38"
                fill="#f2f5e9" fill-opacity="0.5" stroke="#606060" stroke-width="1.0"/>
           <path id="arrow"
             d="M 11.500037,31.436501 C 11.940474,20.09759 22.043105,11.32322 32.158766,21.979434 L 37.068811,17.246167 C 37.068811,17.246167 37.088388,32 37.088388,32 L 22.160133,31.978069 C 22.160133,31.978069 26.997745,27.140456 26.997745,27.140456 C 18.528582,18.264221 13.291696,25.230495 11.500037,31.436501 z"
             style="fill:#404040;"/>
          </a>
         </g>
        </svg>
</svg>
