<?xml version="1.0" encoding="UTF-8" standalone="no"?>
<!DOCTYPE svg PUBLIC "-//W3C//DTD SVG 1.1//EN"
 "http://www.w3.org/Graphics/SVG/1.1/DTD/svg11.dtd">
<!-- Generated by graphviz version 2.43.0 (0)
 -->
<!-- Title: /home/runner/work/beluga/beluga/beluga_ros/include/beluga_ros/amcl.hpp Pages: 1 -->
<svg width="2492pt" height="195pt"
 viewBox="0.00 0.00 2491.50 195.00" xmlns="http://www.w3.org/2000/svg" xmlns:xlink="http://www.w3.org/1999/xlink">
<g id="graph0" class="graph" transform="scale(1 1) rotate(0) translate(4 191)">
<title>/home/runner/work/beluga/beluga/beluga_ros/include/beluga_ros/amcl.hpp</title>
<!-- Node1 -->
<g id="node1" class="node">
<title>Node1</title>
<g id="a_node1"><a xlink:title="Generic two&#45;dimensional implementation of the Adaptive Monte Carlo Localization (AMCL) algorithm in 2...">
<polygon fill="#bfbfbf" stroke="black" points="1314.5,-145.5 1314.5,-186.5 1461.5,-186.5 1461.5,-145.5 1314.5,-145.5"/>
<text text-anchor="start" x="1322.5" y="-174.5" font-family="Helvetica,sans-Serif" font-size="10.00">/home/runner/work/beluga</text>
<text text-anchor="start" x="1322.5" y="-163.5" font-family="Helvetica,sans-Serif" font-size="10.00">/beluga/beluga_ros/include</text>
<text text-anchor="middle" x="1388" y="-152.5" font-family="Helvetica,sans-Serif" font-size="10.00">/beluga_ros/amcl.hpp</text>
</a>
</g>
</g>
<!-- Node2 -->
<g id="node2" class="node">
<title>Node2</title>
<g id="a_node2"><a xlink:title=" ">
<polygon fill="none" stroke="#bfbfbf" points="355,-78.5 355,-97.5 411,-97.5 411,-78.5 355,-78.5"/>
<text text-anchor="middle" x="383" y="-85.5" font-family="Helvetica,sans-Serif" font-size="10.00">optional</text>
</a>
</g>
</g>
<!-- Node1&#45;&gt;Node2 -->
<g id="edge1" class="edge">
<title>Node1&#45;&gt;Node2</title>
<path fill="none" stroke="midnightblue" d="M1314.32,-164.86C1118.34,-163.85 587.8,-156.65 420,-109 414.78,-107.52 409.47,-105.21 404.56,-102.68"/>
<polygon fill="midnightblue" stroke="midnightblue" points="406.18,-99.58 395.76,-97.7 402.74,-105.67 406.18,-99.58"/>
</g>
<!-- Node3 -->
<g id="node3" class="node">
<title>Node3</title>
<g id="a_node3"><a xlink:title=" ">
<polygon fill="none" stroke="#bfbfbf" points="727.5,-6 727.5,-25 772.5,-25 772.5,-6 727.5,-6"/>
<text text-anchor="middle" x="750" y="-13" font-family="Helvetica,sans-Serif" font-size="10.00">utility</text>
</a>
</g>
</g>
<!-- Node1&#45;&gt;Node3 -->
<g id="edge2" class="edge">
<title>Node1&#45;&gt;Node3</title>
<path fill="none" stroke="midnightblue" d="M1314.26,-164.09C1183.11,-161.42 915.35,-150.83 833,-109 799.64,-92.05 773.38,-55.61 759.92,-33.87"/>
<polygon fill="midnightblue" stroke="midnightblue" points="762.78,-31.83 754.65,-25.04 756.77,-35.42 762.78,-31.83"/>
</g>
<!-- Node4 -->
<g id="node4" class="node">
<title>Node4</title>
<g id="a_node4"><a xlink:title=" ">
<polygon fill="none" stroke="#bfbfbf" points="1008.5,-78.5 1008.5,-97.5 1059.5,-97.5 1059.5,-78.5 1008.5,-78.5"/>
<text text-anchor="middle" x="1034" y="-85.5" font-family="Helvetica,sans-Serif" font-size="10.00">variant</text>
</a>
</g>
</g>
<!-- Node1&#45;&gt;Node4 -->
<g id="edge3" class="edge">
<title>Node1&#45;&gt;Node4</title>
<path fill="none" stroke="midnightblue" d="M1314.25,-159.32C1248.38,-152.56 1150.05,-138.26 1069,-109 1064.43,-107.35 1059.77,-105.13 1055.4,-102.76"/>
<polygon fill="midnightblue" stroke="midnightblue" points="1056.85,-99.55 1046.45,-97.52 1053.31,-105.59 1056.85,-99.55"/>
</g>
<!-- Node5 -->
<g id="node5" class="node">
<title>Node5</title>
<g id="a_node5"><a xlink:title=" ">
<polygon fill="none" stroke="#bfbfbf" points="1077.5,-78.5 1077.5,-97.5 1244.5,-97.5 1244.5,-78.5 1077.5,-78.5"/>
<text text-anchor="middle" x="1161" y="-85.5" font-family="Helvetica,sans-Serif" font-size="10.00">range/v3/range/conversion.hpp</text>
</a>
</g>
</g>
<!-- Node1&#45;&gt;Node5 -->
<g id="edge4" class="edge">
<title>Node1&#45;&gt;Node5</title>
<path fill="none" stroke="midnightblue" d="M1329.54,-145.43C1287.46,-131.34 1232.05,-112.79 1196.47,-100.87"/>
<polygon fill="midnightblue" stroke="midnightblue" points="1197.14,-97.41 1186.54,-97.55 1194.92,-104.05 1197.14,-97.41"/>
</g>
<!-- Node6 -->
<g id="node6" class="node">
<title>Node6</title>
<g id="a_node6"><a xlink:title=" ">
<polygon fill="none" stroke="#bfbfbf" points="1263,-73 1263,-103 1373,-103 1373,-73 1263,-73"/>
<text text-anchor="start" x="1271" y="-91" font-family="Helvetica,sans-Serif" font-size="10.00">range/v3/view/take</text>
<text text-anchor="middle" x="1318" y="-80" font-family="Helvetica,sans-Serif" font-size="10.00">_exactly.hpp</text>
</a>
</g>
</g>
<!-- Node1&#45;&gt;Node6 -->
<g id="edge5" class="edge">
<title>Node1&#45;&gt;Node6</title>
<path fill="none" stroke="midnightblue" d="M1369.97,-145.43C1360.19,-134.81 1348.08,-121.66 1338.01,-110.73"/>
<polygon fill="midnightblue" stroke="midnightblue" points="1340.45,-108.21 1331.1,-103.23 1335.3,-112.95 1340.45,-108.21"/>
</g>
<!-- Node7 -->
<g id="node7" class="node">
<title>Node7</title>
<g id="a_node7"><a xlink:title=" ">
<polygon fill="none" stroke="#bfbfbf" points="791,-6 791,-25 883,-25 883,-6 791,-6"/>
<text text-anchor="middle" x="837" y="-13" font-family="Helvetica,sans-Serif" font-size="10.00">sophus/se2.hpp</text>
</a>
</g>
</g>
<!-- Node1&#45;&gt;Node7 -->
<g id="edge6" class="edge">
<title>Node1&#45;&gt;Node7</title>
<path fill="none" stroke="midnightblue" d="M1314.47,-161.97C1176.67,-155.62 890.37,-138.95 857,-109 836.48,-90.58 834.27,-56.55 835.18,-35.3"/>
<polygon fill="midnightblue" stroke="midnightblue" points="838.68,-35.47 835.89,-25.25 831.69,-34.98 838.68,-35.47"/>
</g>
<!-- Node8 -->
<g id="node8" class="node">
<title>Node8</title>
<g id="a_node8"><a target="_parent" xlink:href="../../../../../../beluga/docs/_doxygen/generated/reference/html/spatial__hash_8hpp.html.html" xlink:title=" ">
<polygon fill="none" stroke="black" points="1391,-73 1391,-103 1527,-103 1527,-73 1391,-73"/>
<text text-anchor="start" x="1399" y="-91" font-family="Helvetica,sans-Serif" font-size="10.00">beluga/algorithm/spatial</text>
<text text-anchor="middle" x="1459" y="-80" font-family="Helvetica,sans-Serif" font-size="10.00">_hash.hpp</text>
</a>
</g>
</g>
<!-- Node1&#45;&gt;Node8 -->
<g id="edge7" class="edge">
<title>Node1&#45;&gt;Node8</title>
<path fill="none" stroke="midnightblue" d="M1406.28,-145.43C1416.2,-134.81 1428.49,-121.66 1438.7,-110.73"/>
<polygon fill="midnightblue" stroke="midnightblue" points="1441.44,-112.92 1445.71,-103.23 1436.33,-108.14 1441.44,-112.92"/>
</g>
<!-- Node9 -->
<g id="node9" class="node">
<title>Node9</title>
<g id="a_node9"><a xlink:title=" ">
<polygon fill="none" stroke="#bfbfbf" points="1545,-67.5 1545,-108.5 1673,-108.5 1673,-67.5 1545,-67.5"/>
<text text-anchor="start" x="1553" y="-96.5" font-family="Helvetica,sans-Serif" font-size="10.00">beluga/algorithm/thrun</text>
<text text-anchor="start" x="1553" y="-85.5" font-family="Helvetica,sans-Serif" font-size="10.00">_recovery_probability</text>
<text text-anchor="middle" x="1609" y="-74.5" font-family="Helvetica,sans-Serif" font-size="10.00">_estimator.hpp</text>
</a>
</g>
</g>
<!-- Node1&#45;&gt;Node9 -->
<g id="edge8" class="edge">
<title>Node1&#45;&gt;Node9</title>
<path fill="none" stroke="midnightblue" d="M1444.91,-145.43C1474.82,-135.14 1511.63,-122.49 1542.8,-111.77"/>
<polygon fill="midnightblue" stroke="midnightblue" points="1543.96,-115.07 1552.28,-108.51 1541.69,-108.45 1543.96,-115.07"/>
</g>
<!-- Node10 -->
<g id="node10" class="node">
<title>Node10</title>
<g id="a_node10"><a target="_parent" xlink:href="../../../../../../beluga/docs/_doxygen/generated/reference/html/containers_8hpp.html.html" xlink:title=" ">
<polygon fill="none" stroke="black" points="1691.5,-78.5 1691.5,-97.5 1816.5,-97.5 1816.5,-78.5 1691.5,-78.5"/>
<text text-anchor="middle" x="1754" y="-85.5" font-family="Helvetica,sans-Serif" font-size="10.00">beluga/containers.hpp</text>
</a>
</g>
</g>
<!-- Node1&#45;&gt;Node10 -->
<g id="edge9" class="edge">
<title>Node1&#45;&gt;Node10</title>
<path fill="none" stroke="midnightblue" d="M1461.75,-152.7C1521.43,-142.32 1607.5,-126.41 1682,-109 1693.03,-106.42 1704.9,-103.28 1715.77,-100.25"/>
<polygon fill="midnightblue" stroke="midnightblue" points="1716.74,-103.62 1725.41,-97.53 1714.84,-96.88 1716.74,-103.62"/>
</g>
<!-- Node11 -->
<g id="node11" class="node">
<title>Node11</title>
<g id="a_node11"><a target="_parent" xlink:href="../../../../../../beluga/docs/_doxygen/generated/reference/html/motion_8hpp.html.html" xlink:title=" ">
<polygon fill="none" stroke="black" points="1835,-78.5 1835,-97.5 1943,-97.5 1943,-78.5 1835,-78.5"/>
<text text-anchor="middle" x="1889" y="-85.5" font-family="Helvetica,sans-Serif" font-size="10.00">beluga/motion.hpp</text>
</a>
</g>
</g>
<!-- Node1&#45;&gt;Node11 -->
<g id="edge10" class="edge">
<title>Node1&#45;&gt;Node11</title>
<path fill="none" stroke="midnightblue" d="M1461.54,-159.67C1549.13,-152.39 1699.49,-136.93 1826,-109 1835.9,-106.82 1846.46,-103.76 1856.06,-100.69"/>
<polygon fill="midnightblue" stroke="midnightblue" points="1857.24,-103.98 1865.64,-97.52 1855.05,-97.34 1857.24,-103.98"/>
</g>
<!-- Node12 -->
<g id="node12" class="node">
<title>Node12</title>
<g id="a_node12"><a target="_parent" xlink:href="../../../../../../beluga/docs/_doxygen/generated/reference/html/policies_8hpp.html.html" xlink:title=" ">
<polygon fill="none" stroke="black" points="1961.5,-78.5 1961.5,-97.5 2072.5,-97.5 2072.5,-78.5 1961.5,-78.5"/>
<text text-anchor="middle" x="2017" y="-85.5" font-family="Helvetica,sans-Serif" font-size="10.00">beluga/policies.hpp</text>
</a>
</g>
</g>
<!-- Node1&#45;&gt;Node12 -->
<g id="edge11" class="edge">
<title>Node1&#45;&gt;Node12</title>
<path fill="none" stroke="midnightblue" d="M1461.7,-162.37C1570.07,-157.45 1778.37,-143.97 1952,-109 1962.42,-106.9 1973.54,-103.81 1983.59,-100.68"/>
<polygon fill="midnightblue" stroke="midnightblue" points="1984.78,-103.97 1993.22,-97.57 1982.63,-97.31 1984.78,-103.97"/>
</g>
<!-- Node13 -->
<g id="node13" class="node">
<title>Node13</title>
<g id="a_node13"><a target="_parent" xlink:href="../../../../../../beluga/docs/_doxygen/generated/reference/html/random_8hpp.html.html" xlink:title=" ">
<polygon fill="none" stroke="black" points="2090.5,-78.5 2090.5,-97.5 2201.5,-97.5 2201.5,-78.5 2090.5,-78.5"/>
<text text-anchor="middle" x="2146" y="-85.5" font-family="Helvetica,sans-Serif" font-size="10.00">beluga/random.hpp</text>
</a>
</g>
</g>
<!-- Node1&#45;&gt;Node13 -->
<g id="edge12" class="edge">
<title>Node1&#45;&gt;Node13</title>
<path fill="none" stroke="midnightblue" d="M1461.66,-164.41C1589.21,-162.2 1858.91,-152.3 2082,-109 2092.37,-106.99 2103.43,-103.89 2113.39,-100.73"/>
<polygon fill="midnightblue" stroke="midnightblue" points="2114.52,-104.04 2122.91,-97.58 2112.32,-97.39 2114.52,-104.04"/>
</g>
<!-- Node14 -->
<g id="node14" class="node">
<title>Node14</title>
<g id="a_node14"><a target="_parent" xlink:href="../../../../../../beluga/docs/_doxygen/generated/reference/html/sensor_8hpp.html.html" xlink:title=" ">
<polygon fill="none" stroke="black" points="2219.5,-78.5 2219.5,-97.5 2324.5,-97.5 2324.5,-78.5 2219.5,-78.5"/>
<text text-anchor="middle" x="2272" y="-85.5" font-family="Helvetica,sans-Serif" font-size="10.00">beluga/sensor.hpp</text>
</a>
</g>
</g>
<!-- Node1&#45;&gt;Node14 -->
<g id="edge13" class="edge">
<title>Node1&#45;&gt;Node14</title>
<path fill="none" stroke="midnightblue" d="M1461.52,-162.34C1635.49,-155.67 2068.5,-136.76 2211,-109 2220.8,-107.09 2231.21,-104.07 2240.61,-100.95"/>
<polygon fill="midnightblue" stroke="midnightblue" points="2242.03,-104.16 2250.33,-97.57 2239.73,-97.54 2242.03,-104.16"/>
</g>
<!-- Node15 -->
<g id="node15" class="node">
<title>Node15</title>
<g id="a_node15"><a target="_parent" xlink:href="../../../../../../beluga/docs/_doxygen/generated/reference/html/sample_8hpp.html.html" xlink:title=" ">
<polygon fill="none" stroke="black" points="2342.5,-78.5 2342.5,-97.5 2483.5,-97.5 2483.5,-78.5 2342.5,-78.5"/>
<text text-anchor="middle" x="2413" y="-85.5" font-family="Helvetica,sans-Serif" font-size="10.00">beluga/views/sample.hpp</text>
</a>
</g>
</g>
<!-- Node1&#45;&gt;Node15 -->
<g id="edge14" class="edge">
<title>Node1&#45;&gt;Node15</title>
<path fill="none" stroke="midnightblue" d="M1461.8,-165.35C1621.73,-165.08 2011.87,-158.85 2334,-109 2347.46,-106.92 2361.97,-103.57 2374.83,-100.21"/>
<polygon fill="midnightblue" stroke="midnightblue" points="2376,-103.52 2384.75,-97.53 2374.18,-96.76 2376,-103.52"/>
</g>
<!-- Node16 -->
<g id="node16" class="node">
<title>Node16</title>
<g id="a_node16"><a xlink:href="laser__scan_8hpp.html" target="_top" xlink:title="Implementation of sensor_msgs/LaserScan wrapper type.">
<polygon fill="none" stroke="black" points="429,-78.5 429,-97.5 575,-97.5 575,-78.5 429,-78.5"/>
<text text-anchor="middle" x="502" y="-85.5" font-family="Helvetica,sans-Serif" font-size="10.00">beluga_ros/laser_scan.hpp</text>
</a>
</g>
</g>
<!-- Node1&#45;&gt;Node16 -->
<g id="edge15" class="edge">
<title>Node1&#45;&gt;Node16</title>
<path fill="none" stroke="midnightblue" d="M1314.36,-158.68C1150.69,-144.64 757.59,-110.92 585.29,-96.14"/>
<polygon fill="midnightblue" stroke="midnightblue" points="585.53,-92.65 575.26,-95.28 584.93,-99.63 585.53,-92.65"/>
</g>
<!-- Node22 -->
<g id="node22" class="node">
<title>Node22</title>
<g id="a_node22"><a xlink:href="occupancy__grid_8hpp.html" target="_top" xlink:title="Implementation of nav_msgs/OccupancyGrid wrapper type.">
<polygon fill="none" stroke="black" points="865.5,-73 865.5,-103 990.5,-103 990.5,-73 865.5,-73"/>
<text text-anchor="start" x="873.5" y="-91" font-family="Helvetica,sans-Serif" font-size="10.00">beluga_ros/occupancy</text>
<text text-anchor="middle" x="928" y="-80" font-family="Helvetica,sans-Serif" font-size="10.00">_grid.hpp</text>
</a>
</g>
</g>
<!-- Node1&#45;&gt;Node22 -->
<g id="edge21" class="edge">
<title>Node1&#45;&gt;Node22</title>
<path fill="none" stroke="midnightblue" d="M1314.21,-157.19C1235.79,-148.23 1108.4,-131.78 1000,-109 995.25,-108 990.35,-106.87 985.45,-105.66"/>
<polygon fill="midnightblue" stroke="midnightblue" points="985.98,-102.18 975.43,-103.1 984.25,-108.97 985.98,-102.18"/>
</g>
<!-- Node17 -->
<g id="node17" class="node">
<title>Node17</title>
<g id="a_node17"><a xlink:title=" ">
<polygon fill="none" stroke="#bfbfbf" points="0,-6 0,-25 128,-25 128,-6 0,-6"/>
<text text-anchor="middle" x="64" y="-13" font-family="Helvetica,sans-Serif" font-size="10.00">range/v3/view/iota.hpp</text>
</a>
</g>
</g>
<!-- Node16&#45;&gt;Node17 -->
<g id="edge16" class="edge">
<title>Node16&#45;&gt;Node17</title>
<path fill="none" stroke="midnightblue" d="M470.64,-78.47C455.44,-74.56 436.86,-70.12 420,-67 295.32,-43.94 262.15,-51.36 137,-31 129.64,-29.8 121.89,-28.41 114.3,-26.97"/>
<polygon fill="midnightblue" stroke="midnightblue" points="114.94,-23.53 104.45,-25.06 113.6,-30.4 114.94,-23.53"/>
</g>
<!-- Node18 -->
<g id="node18" class="node">
<title>Node18</title>
<g id="a_node18"><a target="_parent" xlink:href="../../../../../../beluga/docs/_doxygen/generated/reference/html/laser__scan_8hpp.html.html" xlink:title=" ">
<polygon fill="none" stroke="black" points="146,-0.5 146,-30.5 256,-30.5 256,-0.5 146,-0.5"/>
<text text-anchor="start" x="154" y="-18.5" font-family="Helvetica,sans-Serif" font-size="10.00">beluga/sensor/data</text>
<text text-anchor="middle" x="201" y="-7.5" font-family="Helvetica,sans-Serif" font-size="10.00">/laser_scan.hpp</text>
</a>
</g>
</g>
<!-- Node16&#45;&gt;Node18 -->
<g id="edge17" class="edge">
<title>Node16&#45;&gt;Node18</title>
<path fill="none" stroke="midnightblue" d="M467.31,-78.44C452.71,-74.86 435.54,-70.69 420,-67 368.4,-54.76 309.86,-41.28 266.3,-31.33"/>
<polygon fill="midnightblue" stroke="midnightblue" points="266.93,-27.88 256.4,-29.07 265.37,-34.71 266.93,-27.88"/>
</g>
<!-- Node19 -->
<g id="node19" class="node">
<title>Node19</title>
<g id="a_node19"><a target="_parent" xlink:href="../../../../../../beluga/docs/_doxygen/generated/reference/html/take__evenly_8hpp.html.html" xlink:title=" ">
<polygon fill="none" stroke="black" points="274.5,-6 274.5,-25 437.5,-25 437.5,-6 274.5,-6"/>
<text text-anchor="middle" x="356" y="-13" font-family="Helvetica,sans-Serif" font-size="10.00">beluga/views/take_evenly.hpp</text>
</a>
</g>
</g>
<!-- Node16&#45;&gt;Node19 -->
<g id="edge18" class="edge">
<title>Node16&#45;&gt;Node19</title>
<path fill="none" stroke="midnightblue" d="M484.39,-78.5C459.18,-66.32 412.58,-43.82 383,-29.54"/>
<polygon fill="midnightblue" stroke="midnightblue" points="384.2,-26.23 373.67,-25.03 381.16,-32.53 384.2,-26.23"/>
</g>
<!-- Node20 -->
<g id="node20" class="node">
<title>Node20</title>
<g id="a_node20"><a xlink:href="messages_8hpp_source.html" target="_top" xlink:title=" ">
<polygon fill="none" stroke="black" points="566.5,-6 566.5,-25 709.5,-25 709.5,-6 566.5,-6"/>
<text text-anchor="middle" x="638" y="-13" font-family="Helvetica,sans-Serif" font-size="10.00">beluga_ros/messages.hpp</text>
</a>
</g>
</g>
<!-- Node16&#45;&gt;Node20 -->
<g id="edge19" class="edge">
<title>Node16&#45;&gt;Node20</title>
<path fill="none" stroke="midnightblue" d="M518.4,-78.5C541.79,-66.37 584.92,-44.02 612.49,-29.72"/>
<polygon fill="midnightblue" stroke="midnightblue" points="614.27,-32.74 621.54,-25.03 611.05,-26.53 614.27,-32.74"/>
</g>
<!-- Node21 -->
<g id="node21" class="node">
<title>Node21</title>
<g id="a_node21"><a xlink:title=" ">
<polygon fill="none" stroke="#bfbfbf" points="456,-6 456,-25 548,-25 548,-6 456,-6"/>
<text text-anchor="middle" x="502" y="-13" font-family="Helvetica,sans-Serif" font-size="10.00">sophus/se3.hpp</text>
</a>
</g>
</g>
<!-- Node16&#45;&gt;Node21 -->
<g id="edge20" class="edge">
<title>Node16&#45;&gt;Node21</title>
<path fill="none" stroke="midnightblue" d="M502,-78.36C502,-67.68 502,-49.22 502,-35.23"/>
<polygon fill="midnightblue" stroke="midnightblue" points="505.5,-35.22 502,-25.22 498.5,-35.22 505.5,-35.22"/>
</g>
<!-- Node22&#45;&gt;Node3 -->
<g id="edge24" class="edge">
<title>Node22&#45;&gt;Node3</title>
<path fill="none" stroke="midnightblue" d="M889.64,-72.99C860.05,-62.02 818.19,-46.13 782,-31 780.63,-30.43 779.23,-29.83 777.82,-29.22"/>
<polygon fill="midnightblue" stroke="midnightblue" points="779.09,-25.96 768.53,-25.12 776.26,-32.36 779.09,-25.96"/>
</g>
<!-- Node22&#45;&gt;Node7 -->
<g id="edge26" class="edge">
<title>Node22&#45;&gt;Node7</title>
<path fill="none" stroke="midnightblue" d="M909.58,-72.73C894.07,-60.72 871.96,-43.58 856.22,-31.39"/>
<polygon fill="midnightblue" stroke="midnightblue" points="858.27,-28.55 848.22,-25.19 853.98,-34.08 858.27,-28.55"/>
</g>
<!-- Node22&#45;&gt;Node20 -->
<g id="edge30" class="edge">
<title>Node22&#45;&gt;Node20</title>
<path fill="none" stroke="midnightblue" d="M870.36,-72.99C815.34,-59.61 733.58,-39.74 683.15,-27.48"/>
<polygon fill="midnightblue" stroke="midnightblue" points="683.73,-24.02 673.19,-25.05 682.08,-30.82 683.73,-24.02"/>
</g>
<!-- Node23 -->
<g id="node23" class="node">
<title>Node23</title>
<g id="a_node23"><a xlink:title=" ">
<polygon fill="none" stroke="#bfbfbf" points="1128.5,-6 1128.5,-25 1175.5,-25 1175.5,-6 1128.5,-6"/>
<text text-anchor="middle" x="1152" y="-13" font-family="Helvetica,sans-Serif" font-size="10.00">cmath</text>
</a>
</g>
</g>
<!-- Node22&#45;&gt;Node23 -->
<g id="edge22" class="edge">
<title>Node22&#45;&gt;Node23</title>
<path fill="none" stroke="midnightblue" d="M978.82,-72.9C1026.18,-59.61 1093.27,-40.38 1119,-31 1120.66,-30.4 1122.35,-29.75 1124.05,-29.08"/>
<polygon fill="midnightblue" stroke="midnightblue" points="1125.79,-32.14 1133.67,-25.05 1123.09,-25.68 1125.79,-32.14"/>
</g>
<!-- Node24 -->
<g id="node24" class="node">
<title>Node24</title>
<g id="a_node24"><a xlink:title=" ">
<polygon fill="none" stroke="#bfbfbf" points="1194,-6 1194,-25 1252,-25 1252,-6 1194,-6"/>
<text text-anchor="middle" x="1223" y="-13" font-family="Helvetica,sans-Serif" font-size="10.00">memory</text>
</a>
</g>
</g>
<!-- Node22&#45;&gt;Node24 -->
<g id="edge23" class="edge">
<title>Node22&#45;&gt;Node24</title>
<path fill="none" stroke="midnightblue" d="M976.67,-72.92C984.44,-70.83 992.42,-68.79 1000,-67 1081.53,-47.78 1104.46,-54.02 1185,-31 1187.58,-30.26 1190.24,-29.42 1192.89,-28.53"/>
<polygon fill="midnightblue" stroke="midnightblue" points="1194.09,-31.82 1202.31,-25.13 1191.72,-25.23 1194.09,-31.82"/>
</g>
<!-- Node25 -->
<g id="node25" class="node">
<title>Node25</title>
<g id="a_node25"><a xlink:title=" ">
<polygon fill="none" stroke="#bfbfbf" points="1270.5,-6 1270.5,-25 1317.5,-25 1317.5,-6 1270.5,-6"/>
<text text-anchor="middle" x="1294" y="-13" font-family="Helvetica,sans-Serif" font-size="10.00">vector</text>
</a>
</g>
</g>
<!-- Node22&#45;&gt;Node25 -->
<g id="edge25" class="edge">
<title>Node22&#45;&gt;Node25</title>
<path fill="none" stroke="midnightblue" d="M975.03,-72.96C983.3,-70.77 991.87,-68.68 1000,-67 1114.67,-43.28 1148.32,-62.86 1261,-31 1263.15,-30.39 1265.35,-29.67 1267.53,-28.88"/>
<polygon fill="midnightblue" stroke="midnightblue" points="1268.91,-32.1 1276.86,-25.1 1266.28,-25.61 1268.91,-32.1"/>
</g>
<!-- Node26 -->
<g id="node26" class="node">
<title>Node26</title>
<g id="a_node26"><a xlink:title=" ">
<polygon fill="none" stroke="#bfbfbf" points="1336,-6 1336,-25 1428,-25 1428,-6 1336,-6"/>
<text text-anchor="middle" x="1382" y="-13" font-family="Helvetica,sans-Serif" font-size="10.00">sophus/so2.hpp</text>
</a>
</g>
</g>
<!-- Node22&#45;&gt;Node26 -->
<g id="edge27" class="edge">
<title>Node22&#45;&gt;Node26</title>
<path fill="none" stroke="midnightblue" d="M974.22,-72.98C982.73,-70.73 991.59,-68.62 1000,-67 1143.57,-39.34 1183.25,-57.71 1327,-31 1332.15,-30.04 1337.52,-28.86 1342.81,-27.59"/>
<polygon fill="midnightblue" stroke="midnightblue" points="1343.95,-30.91 1352.78,-25.06 1342.23,-24.12 1343.95,-30.91"/>
</g>
<!-- Node27 -->
<g id="node27" class="node">
<title>Node27</title>
<g id="a_node27"><a xlink:title=" ">
<polygon fill="none" stroke="#bfbfbf" points="901.5,-6 901.5,-25 976.5,-25 976.5,-6 901.5,-6"/>
<text text-anchor="middle" x="939" y="-13" font-family="Helvetica,sans-Serif" font-size="10.00">tf2/utils.hpp</text>
</a>
</g>
</g>
<!-- Node22&#45;&gt;Node27 -->
<g id="edge28" class="edge">
<title>Node22&#45;&gt;Node27</title>
<path fill="none" stroke="midnightblue" d="M930.23,-72.73C931.9,-62 934.21,-47.19 936.04,-35.46"/>
<polygon fill="midnightblue" stroke="midnightblue" points="939.53,-35.81 937.61,-25.39 932.61,-34.73 939.53,-35.81"/>
</g>
<!-- Node28 -->
<g id="node28" class="node">
<title>Node28</title>
<g id="a_node28"><a target="_parent" xlink:href="../../../../../../beluga/docs/_doxygen/generated/reference/html/occupancy__grid_8hpp.html.html" xlink:title=" ">
<polygon fill="none" stroke="black" points="994,-0.5 994,-30.5 1110,-30.5 1110,-0.5 994,-0.5"/>
<text text-anchor="start" x="1002" y="-18.5" font-family="Helvetica,sans-Serif" font-size="10.00">beluga/sensor/data</text>
<text text-anchor="middle" x="1052" y="-7.5" font-family="Helvetica,sans-Serif" font-size="10.00">/occupancy_grid.hpp</text>
</a>
</g>
</g>
<!-- Node22&#45;&gt;Node28 -->
<g id="edge29" class="edge">
<title>Node22&#45;&gt;Node28</title>
<path fill="none" stroke="midnightblue" d="M952.8,-72.9C971.63,-62.19 997.75,-47.35 1018.45,-35.57"/>
<polygon fill="midnightblue" stroke="midnightblue" points="1020.28,-38.56 1027.25,-30.57 1016.82,-32.47 1020.28,-38.56"/>
</g>
</g>
</svg>
