<?xml version="1.0" encoding="UTF-8" standalone="no"?>
<!DOCTYPE svg PUBLIC "-//W3C//DTD SVG 1.1//EN"
 "http://www.w3.org/Graphics/SVG/1.1/DTD/svg11.dtd">
<!-- Generated by graphviz version 2.43.0 (0)
 -->
<!-- Title: /home/runner/work/beluga/beluga/beluga_ros/include/beluga_ros/amcl.hpp Pages: 1 -->
<svg width="2797pt" height="195pt"
 viewBox="0.00 0.00 2796.50 195.00" xmlns="http://www.w3.org/2000/svg" xmlns:xlink="http://www.w3.org/1999/xlink">
<g id="graph0" class="graph" transform="scale(1 1) rotate(0) translate(4 191)">
<title>/home/runner/work/beluga/beluga/beluga_ros/include/beluga_ros/amcl.hpp</title>
<!-- Node1 -->
<g id="node1" class="node">
<title>Node1</title>
<g id="a_node1"><a xlink:title="Generic two&#45;dimensional implementation of the Adaptive Monte Carlo Localization (AMCL) algorithm in 2...">
<polygon fill="#bfbfbf" stroke="black" points="1460.5,-145.5 1460.5,-186.5 1607.5,-186.5 1607.5,-145.5 1460.5,-145.5"/>
<text text-anchor="start" x="1468.5" y="-174.5" font-family="Helvetica,sans-Serif" font-size="10.00">/home/runner/work/beluga</text>
<text text-anchor="start" x="1468.5" y="-163.5" font-family="Helvetica,sans-Serif" font-size="10.00">/beluga/beluga_ros/include</text>
<text text-anchor="middle" x="1534" y="-152.5" font-family="Helvetica,sans-Serif" font-size="10.00">/beluga_ros/amcl.hpp</text>
</a>
</g>
</g>
<!-- Node2 -->
<g id="node2" class="node">
<title>Node2</title>
<g id="a_node2"><a xlink:title=" ">
<polygon fill="none" stroke="#bfbfbf" points="355,-78.5 355,-97.5 411,-97.5 411,-78.5 355,-78.5"/>
<text text-anchor="middle" x="383" y="-85.5" font-family="Helvetica,sans-Serif" font-size="10.00">optional</text>
</a>
</g>
</g>
<!-- Node1&#45;&gt;Node2 -->
<g id="edge1" class="edge">
<title>Node1&#45;&gt;Node2</title>
<path fill="none" stroke="midnightblue" d="M1460.31,-165.52C1244.46,-166.39 616.5,-164 420,-109 414.69,-107.51 409.29,-105.16 404.31,-102.58"/>
<polygon fill="midnightblue" stroke="midnightblue" points="405.84,-99.42 395.41,-97.52 402.37,-105.51 405.84,-99.42"/>
</g>
<!-- Node3 -->
<g id="node3" class="node">
<title>Node3</title>
<g id="a_node3"><a xlink:title=" ">
<polygon fill="none" stroke="#bfbfbf" points="727.5,-6 727.5,-25 772.5,-25 772.5,-6 727.5,-6"/>
<text text-anchor="middle" x="750" y="-13" font-family="Helvetica,sans-Serif" font-size="10.00">utility</text>
</a>
</g>
</g>
<!-- Node1&#45;&gt;Node3 -->
<g id="edge2" class="edge">
<title>Node1&#45;&gt;Node3</title>
<path fill="none" stroke="midnightblue" d="M1460.34,-162.2C1291.77,-155.36 888.19,-136.32 833,-109 799.46,-92.4 773.27,-55.84 759.87,-33.98"/>
<polygon fill="midnightblue" stroke="midnightblue" points="762.72,-31.93 754.63,-25.09 756.69,-35.49 762.72,-31.93"/>
</g>
<!-- Node4 -->
<g id="node4" class="node">
<title>Node4</title>
<g id="a_node4"><a xlink:title=" ">
<polygon fill="none" stroke="#bfbfbf" points="1008.5,-78.5 1008.5,-97.5 1059.5,-97.5 1059.5,-78.5 1008.5,-78.5"/>
<text text-anchor="middle" x="1034" y="-85.5" font-family="Helvetica,sans-Serif" font-size="10.00">variant</text>
</a>
</g>
</g>
<!-- Node1&#45;&gt;Node4 -->
<g id="edge3" class="edge">
<title>Node1&#45;&gt;Node4</title>
<path fill="none" stroke="midnightblue" d="M1460.36,-165.07C1367,-163.17 1202.17,-153.06 1069,-109 1064.39,-107.48 1059.71,-105.31 1055.33,-102.96"/>
<polygon fill="midnightblue" stroke="midnightblue" points="1056.78,-99.75 1046.39,-97.7 1053.24,-105.79 1056.78,-99.75"/>
</g>
<!-- Node5 -->
<g id="node5" class="node">
<title>Node5</title>
<g id="a_node5"><a xlink:title=" ">
<polygon fill="none" stroke="#bfbfbf" points="1077.5,-78.5 1077.5,-97.5 1244.5,-97.5 1244.5,-78.5 1077.5,-78.5"/>
<text text-anchor="middle" x="1161" y="-85.5" font-family="Helvetica,sans-Serif" font-size="10.00">range/v3/range/conversion.hpp</text>
</a>
</g>
</g>
<!-- Node1&#45;&gt;Node5 -->
<g id="edge4" class="edge">
<title>Node1&#45;&gt;Node5</title>
<path fill="none" stroke="midnightblue" d="M1460.25,-150.55C1403.75,-139.41 1323.9,-123.5 1254,-109 1239.82,-106.06 1224.44,-102.78 1210.34,-99.75"/>
<polygon fill="midnightblue" stroke="midnightblue" points="1210.86,-96.28 1200.34,-97.59 1209.38,-103.12 1210.86,-96.28"/>
</g>
<!-- Node6 -->
<g id="node6" class="node">
<title>Node6</title>
<g id="a_node6"><a xlink:title=" ">
<polygon fill="none" stroke="#bfbfbf" points="1263,-73 1263,-103 1373,-103 1373,-73 1263,-73"/>
<text text-anchor="start" x="1271" y="-91" font-family="Helvetica,sans-Serif" font-size="10.00">range/v3/view/take</text>
<text text-anchor="middle" x="1318" y="-80" font-family="Helvetica,sans-Serif" font-size="10.00">_exactly.hpp</text>
</a>
</g>
</g>
<!-- Node1&#45;&gt;Node6 -->
<g id="edge5" class="edge">
<title>Node1&#45;&gt;Node6</title>
<path fill="none" stroke="midnightblue" d="M1478.37,-145.43C1444.13,-133.38 1400.62,-118.07 1367.56,-106.44"/>
<polygon fill="midnightblue" stroke="midnightblue" points="1368.69,-103.12 1358.09,-103.11 1366.36,-109.73 1368.69,-103.12"/>
</g>
<!-- Node7 -->
<g id="node7" class="node">
<title>Node7</title>
<g id="a_node7"><a xlink:title=" ">
<polygon fill="none" stroke="#bfbfbf" points="791,-6 791,-25 883,-25 883,-6 791,-6"/>
<text text-anchor="middle" x="837" y="-13" font-family="Helvetica,sans-Serif" font-size="10.00">sophus/se2.hpp</text>
</a>
</g>
</g>
<!-- Node1&#45;&gt;Node7 -->
<g id="edge6" class="edge">
<title>Node1&#45;&gt;Node7</title>
<path fill="none" stroke="midnightblue" d="M1460.47,-163.78C1294.47,-160.35 901.6,-148.13 857,-109 836.17,-90.72 834.11,-56.37 835.12,-35.06"/>
<polygon fill="midnightblue" stroke="midnightblue" points="838.62,-35.24 835.88,-25.01 831.64,-34.72 838.62,-35.24"/>
</g>
<!-- Node8 -->
<g id="node8" class="node">
<title>Node8</title>
<g id="a_node8"><a target="_parent" xlink:href="../../../../../../beluga/docs/_doxygen/generated/reference/html/spatial__hash_8hpp.html.html" xlink:title=" ">
<polygon fill="none" stroke="black" points="1391,-73 1391,-103 1527,-103 1527,-73 1391,-73"/>
<text text-anchor="start" x="1399" y="-91" font-family="Helvetica,sans-Serif" font-size="10.00">beluga/algorithm/spatial</text>
<text text-anchor="middle" x="1459" y="-80" font-family="Helvetica,sans-Serif" font-size="10.00">_hash.hpp</text>
</a>
</g>
</g>
<!-- Node1&#45;&gt;Node8 -->
<g id="edge7" class="edge">
<title>Node1&#45;&gt;Node8</title>
<path fill="none" stroke="midnightblue" d="M1514.69,-145.43C1504.11,-134.71 1490.98,-121.41 1480.13,-110.41"/>
<polygon fill="midnightblue" stroke="midnightblue" points="1482.55,-107.88 1473.04,-103.23 1477.57,-112.8 1482.55,-107.88"/>
</g>
<!-- Node9 -->
<g id="node9" class="node">
<title>Node9</title>
<g id="a_node9"><a xlink:title=" ">
<polygon fill="none" stroke="#bfbfbf" points="1545,-67.5 1545,-108.5 1673,-108.5 1673,-67.5 1545,-67.5"/>
<text text-anchor="start" x="1553" y="-96.5" font-family="Helvetica,sans-Serif" font-size="10.00">beluga/algorithm/thrun</text>
<text text-anchor="start" x="1553" y="-85.5" font-family="Helvetica,sans-Serif" font-size="10.00">_recovery_probability</text>
<text text-anchor="middle" x="1609" y="-74.5" font-family="Helvetica,sans-Serif" font-size="10.00">_estimator.hpp</text>
</a>
</g>
</g>
<!-- Node1&#45;&gt;Node9 -->
<g id="edge8" class="edge">
<title>Node1&#45;&gt;Node9</title>
<path fill="none" stroke="midnightblue" d="M1553.31,-145.43C1562.24,-136.39 1572.97,-125.51 1582.63,-115.72"/>
<polygon fill="midnightblue" stroke="midnightblue" points="1585.22,-118.08 1589.75,-108.51 1580.24,-113.16 1585.22,-118.08"/>
</g>
<!-- Node10 -->
<g id="node10" class="node">
<title>Node10</title>
<g id="a_node10"><a target="_parent" xlink:href="../../../../../../beluga/docs/_doxygen/generated/reference/html/containers_8hpp.html.html" xlink:title=" ">
<polygon fill="none" stroke="black" points="1691.5,-78.5 1691.5,-97.5 1816.5,-97.5 1816.5,-78.5 1691.5,-78.5"/>
<text text-anchor="middle" x="1754" y="-85.5" font-family="Helvetica,sans-Serif" font-size="10.00">beluga/containers.hpp</text>
</a>
</g>
</g>
<!-- Node1&#45;&gt;Node10 -->
<g id="edge9" class="edge">
<title>Node1&#45;&gt;Node10</title>
<path fill="none" stroke="midnightblue" d="M1590.66,-145.43C1631.44,-131.34 1685.14,-112.79 1719.63,-100.87"/>
<polygon fill="midnightblue" stroke="midnightblue" points="1720.94,-104.13 1729.24,-97.55 1718.65,-97.51 1720.94,-104.13"/>
</g>
<!-- Node11 -->
<g id="node11" class="node">
<title>Node11</title>
<g id="a_node11"><a target="_parent" xlink:href="../../../../../../beluga/docs/_doxygen/generated/reference/html/motion_8hpp.html.html" xlink:title=" ">
<polygon fill="none" stroke="black" points="1835,-78.5 1835,-97.5 1943,-97.5 1943,-78.5 1835,-78.5"/>
<text text-anchor="middle" x="1889" y="-85.5" font-family="Helvetica,sans-Serif" font-size="10.00">beluga/motion.hpp</text>
</a>
</g>
</g>
<!-- Node1&#45;&gt;Node11 -->
<g id="edge10" class="edge">
<title>Node1&#45;&gt;Node11</title>
<path fill="none" stroke="midnightblue" d="M1607.73,-153.34C1667.09,-143.35 1752.45,-127.66 1826,-109 1835.39,-106.62 1845.45,-103.63 1854.7,-100.7"/>
<polygon fill="midnightblue" stroke="midnightblue" points="1855.93,-103.98 1864.36,-97.57 1853.77,-97.32 1855.93,-103.98"/>
</g>
<!-- Node12 -->
<g id="node12" class="node">
<title>Node12</title>
<g id="a_node12"><a target="_parent" xlink:href="../../../../../../beluga/docs/_doxygen/generated/reference/html/policies_8hpp.html.html" xlink:title=" ">
<polygon fill="none" stroke="black" points="1961.5,-78.5 1961.5,-97.5 2072.5,-97.5 2072.5,-78.5 1961.5,-78.5"/>
<text text-anchor="middle" x="2017" y="-85.5" font-family="Helvetica,sans-Serif" font-size="10.00">beluga/policies.hpp</text>
</a>
</g>
</g>
<!-- Node1&#45;&gt;Node12 -->
<g id="edge11" class="edge">
<title>Node1&#45;&gt;Node12</title>
<path fill="none" stroke="midnightblue" d="M1607.51,-158.86C1691.5,-150.99 1832.74,-135.15 1952,-109 1962.1,-106.79 1972.9,-103.75 1982.73,-100.7"/>
<polygon fill="midnightblue" stroke="midnightblue" points="1984.1,-103.94 1992.56,-97.57 1981.97,-97.27 1984.1,-103.94"/>
</g>
<!-- Node13 -->
<g id="node13" class="node">
<title>Node13</title>
<g id="a_node13"><a target="_parent" xlink:href="../../../../../../beluga/docs/_doxygen/generated/reference/html/random_8hpp.html.html" xlink:title=" ">
<polygon fill="none" stroke="black" points="2090.5,-78.5 2090.5,-97.5 2201.5,-97.5 2201.5,-78.5 2090.5,-78.5"/>
<text text-anchor="middle" x="2146" y="-85.5" font-family="Helvetica,sans-Serif" font-size="10.00">beluga/random.hpp</text>
</a>
</g>
</g>
<!-- Node1&#45;&gt;Node13 -->
<g id="edge12" class="edge">
<title>Node1&#45;&gt;Node13</title>
<path fill="none" stroke="midnightblue" d="M1607.84,-162.17C1713.76,-157.04 1914.54,-143.36 2082,-109 2092.16,-106.92 2102.99,-103.86 2112.81,-100.76"/>
<polygon fill="midnightblue" stroke="midnightblue" points="2114.18,-104 2122.59,-97.56 2112,-97.35 2114.18,-104"/>
</g>
<!-- Node14 -->
<g id="node14" class="node">
<title>Node14</title>
<g id="a_node14"><a target="_parent" xlink:href="../../../../../../beluga/docs/_doxygen/generated/reference/html/sensor_8hpp.html.html" xlink:title=" ">
<polygon fill="none" stroke="black" points="2219.5,-78.5 2219.5,-97.5 2324.5,-97.5 2324.5,-78.5 2219.5,-78.5"/>
<text text-anchor="middle" x="2272" y="-85.5" font-family="Helvetica,sans-Serif" font-size="10.00">beluga/sensor.hpp</text>
</a>
</g>
</g>
<!-- Node1&#45;&gt;Node14 -->
<g id="edge13" class="edge">
<title>Node1&#45;&gt;Node14</title>
<path fill="none" stroke="midnightblue" d="M1607.67,-164.53C1732.89,-162.47 1994.7,-152.77 2211,-109 2220.71,-107.04 2231.02,-104.03 2240.36,-100.93"/>
<polygon fill="midnightblue" stroke="midnightblue" points="2241.72,-104.16 2250.03,-97.59 2239.43,-97.55 2241.72,-104.16"/>
</g>
<!-- Node15 -->
<g id="node15" class="node">
<title>Node15</title>
<g id="a_node15"><a target="_parent" xlink:href="../../../../../../beluga/docs/_doxygen/generated/reference/html/value__grid_8hpp.html.html" xlink:title=" ">
<polygon fill="none" stroke="black" points="2343,-73 2343,-103 2453,-103 2453,-73 2343,-73"/>
<text text-anchor="start" x="2351" y="-91" font-family="Helvetica,sans-Serif" font-size="10.00">beluga/sensor/data</text>
<text text-anchor="middle" x="2398" y="-80" font-family="Helvetica,sans-Serif" font-size="10.00">/value_grid.hpp</text>
</a>
</g>
</g>
<!-- Node1&#45;&gt;Node15 -->
<g id="edge14" class="edge">
<title>Node1&#45;&gt;Node15</title>
<path fill="none" stroke="midnightblue" d="M1607.53,-165.54C1749.33,-165.34 2069.94,-158.79 2334,-109 2338.69,-108.12 2343.51,-107 2348.31,-105.76"/>
<polygon fill="midnightblue" stroke="midnightblue" points="2349.38,-109.09 2358.08,-103.04 2347.5,-102.35 2349.38,-109.09"/>
</g>
<!-- Node16 -->
<g id="node16" class="node">
<title>Node16</title>
<g id="a_node16"><a xlink:title=" ">
<polygon fill="none" stroke="#bfbfbf" points="2471,-78.5 2471,-97.5 2629,-97.5 2629,-78.5 2471,-78.5"/>
<text text-anchor="middle" x="2550" y="-85.5" font-family="Helvetica,sans-Serif" font-size="10.00">beluga/sensor/primitives.hpp</text>
</a>
</g>
</g>
<!-- Node1&#45;&gt;Node16 -->
<g id="edge15" class="edge">
<title>Node1&#45;&gt;Node16</title>
<path fill="none" stroke="midnightblue" d="M1607.79,-164.62C1765.44,-162.93 2146.43,-154.07 2462,-109 2477.25,-106.82 2493.76,-103.37 2508.32,-99.94"/>
<polygon fill="midnightblue" stroke="midnightblue" points="2509.16,-103.34 2518.05,-97.58 2507.51,-96.53 2509.16,-103.34"/>
</g>
<!-- Node17 -->
<g id="node17" class="node">
<title>Node17</title>
<g id="a_node17"><a target="_parent" xlink:href="../../../../../../beluga/docs/_doxygen/generated/reference/html/sample_8hpp.html.html" xlink:title=" ">
<polygon fill="none" stroke="black" points="2647.5,-78.5 2647.5,-97.5 2788.5,-97.5 2788.5,-78.5 2647.5,-78.5"/>
<text text-anchor="middle" x="2718" y="-85.5" font-family="Helvetica,sans-Serif" font-size="10.00">beluga/views/sample.hpp</text>
</a>
</g>
</g>
<!-- Node1&#45;&gt;Node17 -->
<g id="edge16" class="edge">
<title>Node1&#45;&gt;Node17</title>
<path fill="none" stroke="midnightblue" d="M1607.67,-163.13C1821.28,-157.42 2438.33,-138.73 2638,-109 2651.63,-106.97 2666.32,-103.64 2679.35,-100.27"/>
<polygon fill="midnightblue" stroke="midnightblue" points="2680.63,-103.55 2689.39,-97.59 2678.82,-96.79 2680.63,-103.55"/>
</g>
<!-- Node18 -->
<g id="node18" class="node">
<title>Node18</title>
<g id="a_node18"><a xlink:href="laser__scan_8hpp.html" target="_top" xlink:title="Implementation of sensor_msgs/LaserScan wrapper type.">
<polygon fill="none" stroke="black" points="429,-78.5 429,-97.5 575,-97.5 575,-78.5 429,-78.5"/>
<text text-anchor="middle" x="502" y="-85.5" font-family="Helvetica,sans-Serif" font-size="10.00">beluga_ros/laser_scan.hpp</text>
</a>
</g>
</g>
<!-- Node1&#45;&gt;Node18 -->
<g id="edge17" class="edge">
<title>Node1&#45;&gt;Node18</title>
<path fill="none" stroke="midnightblue" d="M1460.35,-159.8C1322.76,-150.05 1017.28,-128.28 760,-109 701.64,-104.63 635.86,-99.52 585.33,-95.57"/>
<polygon fill="midnightblue" stroke="midnightblue" points="585.35,-92.06 575.11,-94.77 584.81,-99.04 585.35,-92.06"/>
</g>
<!-- Node24 -->
<g id="node24" class="node">
<title>Node24</title>
<g id="a_node24"><a xlink:href="occupancy__grid_8hpp.html" target="_top" xlink:title="Implementation of nav_msgs/OccupancyGrid wrapper type.">
<polygon fill="none" stroke="black" points="865.5,-73 865.5,-103 990.5,-103 990.5,-73 865.5,-73"/>
<text text-anchor="start" x="873.5" y="-91" font-family="Helvetica,sans-Serif" font-size="10.00">beluga_ros/occupancy</text>
<text text-anchor="middle" x="928" y="-80" font-family="Helvetica,sans-Serif" font-size="10.00">_grid.hpp</text>
</a>
</g>
</g>
<!-- Node1&#45;&gt;Node24 -->
<g id="edge23" class="edge">
<title>Node1&#45;&gt;Node24</title>
<path fill="none" stroke="midnightblue" d="M1460.45,-161.17C1356.96,-154.9 1162.78,-139.92 1000,-109 994.87,-108.03 989.58,-106.86 984.3,-105.6"/>
<polygon fill="midnightblue" stroke="midnightblue" points="984.76,-102.11 974.21,-103.06 983.05,-108.89 984.76,-102.11"/>
</g>
<!-- Node19 -->
<g id="node19" class="node">
<title>Node19</title>
<g id="a_node19"><a xlink:title=" ">
<polygon fill="none" stroke="#bfbfbf" points="0,-6 0,-25 128,-25 128,-6 0,-6"/>
<text text-anchor="middle" x="64" y="-13" font-family="Helvetica,sans-Serif" font-size="10.00">range/v3/view/iota.hpp</text>
</a>
</g>
</g>
<!-- Node18&#45;&gt;Node19 -->
<g id="edge18" class="edge">
<title>Node18&#45;&gt;Node19</title>
<path fill="none" stroke="midnightblue" d="M470.64,-78.47C455.44,-74.56 436.86,-70.12 420,-67 295.32,-43.94 262.15,-51.36 137,-31 129.64,-29.8 121.89,-28.41 114.3,-26.97"/>
<polygon fill="midnightblue" stroke="midnightblue" points="114.94,-23.53 104.45,-25.06 113.6,-30.4 114.94,-23.53"/>
</g>
<!-- Node20 -->
<g id="node20" class="node">
<title>Node20</title>
<g id="a_node20"><a target="_parent" xlink:href="../../../../../../beluga/docs/_doxygen/generated/reference/html/laser__scan_8hpp.html.html" xlink:title=" ">
<polygon fill="none" stroke="black" points="146,-0.5 146,-30.5 256,-30.5 256,-0.5 146,-0.5"/>
<text text-anchor="start" x="154" y="-18.5" font-family="Helvetica,sans-Serif" font-size="10.00">beluga/sensor/data</text>
<text text-anchor="middle" x="201" y="-7.5" font-family="Helvetica,sans-Serif" font-size="10.00">/laser_scan.hpp</text>
</a>
</g>
</g>
<!-- Node18&#45;&gt;Node20 -->
<g id="edge19" class="edge">
<title>Node18&#45;&gt;Node20</title>
<path fill="none" stroke="midnightblue" d="M467.31,-78.44C452.71,-74.86 435.54,-70.69 420,-67 368.4,-54.76 309.86,-41.28 266.3,-31.33"/>
<polygon fill="midnightblue" stroke="midnightblue" points="266.93,-27.88 256.4,-29.07 265.37,-34.71 266.93,-27.88"/>
</g>
<!-- Node21 -->
<g id="node21" class="node">
<title>Node21</title>
<g id="a_node21"><a target="_parent" xlink:href="../../../../../../beluga/docs/_doxygen/generated/reference/html/take__evenly_8hpp.html.html" xlink:title=" ">
<polygon fill="none" stroke="black" points="274.5,-6 274.5,-25 437.5,-25 437.5,-6 274.5,-6"/>
<text text-anchor="middle" x="356" y="-13" font-family="Helvetica,sans-Serif" font-size="10.00">beluga/views/take_evenly.hpp</text>
</a>
</g>
</g>
<!-- Node18&#45;&gt;Node21 -->
<g id="edge20" class="edge">
<title>Node18&#45;&gt;Node21</title>
<path fill="none" stroke="midnightblue" d="M484.39,-78.5C459.18,-66.32 412.58,-43.82 383,-29.54"/>
<polygon fill="midnightblue" stroke="midnightblue" points="384.2,-26.23 373.67,-25.03 381.16,-32.53 384.2,-26.23"/>
</g>
<!-- Node22 -->
<g id="node22" class="node">
<title>Node22</title>
<g id="a_node22"><a xlink:href="messages_8hpp_source.html" target="_top" xlink:title=" ">
<polygon fill="none" stroke="black" points="566.5,-6 566.5,-25 709.5,-25 709.5,-6 566.5,-6"/>
<text text-anchor="middle" x="638" y="-13" font-family="Helvetica,sans-Serif" font-size="10.00">beluga_ros/messages.hpp</text>
</a>
</g>
</g>
<!-- Node18&#45;&gt;Node22 -->
<g id="edge21" class="edge">
<title>Node18&#45;&gt;Node22</title>
<path fill="none" stroke="midnightblue" d="M518.4,-78.5C541.79,-66.37 584.92,-44.02 612.49,-29.72"/>
<polygon fill="midnightblue" stroke="midnightblue" points="614.27,-32.74 621.54,-25.03 611.05,-26.53 614.27,-32.74"/>
</g>
<!-- Node23 -->
<g id="node23" class="node">
<title>Node23</title>
<g id="a_node23"><a xlink:title=" ">
<polygon fill="none" stroke="#bfbfbf" points="456,-6 456,-25 548,-25 548,-6 456,-6"/>
<text text-anchor="middle" x="502" y="-13" font-family="Helvetica,sans-Serif" font-size="10.00">sophus/se3.hpp</text>
</a>
</g>
</g>
<!-- Node18&#45;&gt;Node23 -->
<g id="edge22" class="edge">
<title>Node18&#45;&gt;Node23</title>
<path fill="none" stroke="midnightblue" d="M502,-78.36C502,-67.68 502,-49.22 502,-35.23"/>
<polygon fill="midnightblue" stroke="midnightblue" points="505.5,-35.22 502,-25.22 498.5,-35.22 505.5,-35.22"/>
</g>
<!-- Node24&#45;&gt;Node3 -->
<g id="edge26" class="edge">
<title>Node24&#45;&gt;Node3</title>
<path fill="none" stroke="midnightblue" d="M889.64,-72.99C860.05,-62.02 818.19,-46.13 782,-31 780.63,-30.43 779.23,-29.83 777.82,-29.22"/>
<polygon fill="midnightblue" stroke="midnightblue" points="779.09,-25.96 768.53,-25.12 776.26,-32.36 779.09,-25.96"/>
</g>
<!-- Node24&#45;&gt;Node7 -->
<g id="edge28" class="edge">
<title>Node24&#45;&gt;Node7</title>
<path fill="none" stroke="midnightblue" d="M909.58,-72.73C894.07,-60.72 871.96,-43.58 856.22,-31.39"/>
<polygon fill="midnightblue" stroke="midnightblue" points="858.27,-28.55 848.22,-25.19 853.98,-34.08 858.27,-28.55"/>
</g>
<!-- Node24&#45;&gt;Node22 -->
<g id="edge32" class="edge">
<title>Node24&#45;&gt;Node22</title>
<path fill="none" stroke="midnightblue" d="M870.36,-72.99C815.34,-59.61 733.58,-39.74 683.15,-27.48"/>
<polygon fill="midnightblue" stroke="midnightblue" points="683.73,-24.02 673.19,-25.05 682.08,-30.82 683.73,-24.02"/>
</g>
<!-- Node25 -->
<g id="node25" class="node">
<title>Node25</title>
<g id="a_node25"><a xlink:title=" ">
<polygon fill="none" stroke="#bfbfbf" points="1128.5,-6 1128.5,-25 1175.5,-25 1175.5,-6 1128.5,-6"/>
<text text-anchor="middle" x="1152" y="-13" font-family="Helvetica,sans-Serif" font-size="10.00">cmath</text>
</a>
</g>
</g>
<!-- Node24&#45;&gt;Node25 -->
<g id="edge24" class="edge">
<title>Node24&#45;&gt;Node25</title>
<path fill="none" stroke="midnightblue" d="M978.82,-72.9C1026.18,-59.61 1093.27,-40.38 1119,-31 1120.66,-30.4 1122.35,-29.75 1124.05,-29.08"/>
<polygon fill="midnightblue" stroke="midnightblue" points="1125.79,-32.14 1133.67,-25.05 1123.09,-25.68 1125.79,-32.14"/>
</g>
<!-- Node26 -->
<g id="node26" class="node">
<title>Node26</title>
<g id="a_node26"><a xlink:title=" ">
<polygon fill="none" stroke="#bfbfbf" points="1194,-6 1194,-25 1252,-25 1252,-6 1194,-6"/>
<text text-anchor="middle" x="1223" y="-13" font-family="Helvetica,sans-Serif" font-size="10.00">memory</text>
</a>
</g>
</g>
<!-- Node24&#45;&gt;Node26 -->
<g id="edge25" class="edge">
<title>Node24&#45;&gt;Node26</title>
<path fill="none" stroke="midnightblue" d="M976.67,-72.92C984.44,-70.83 992.42,-68.79 1000,-67 1081.53,-47.78 1104.46,-54.02 1185,-31 1187.58,-30.26 1190.24,-29.42 1192.89,-28.53"/>
<polygon fill="midnightblue" stroke="midnightblue" points="1194.09,-31.82 1202.31,-25.13 1191.72,-25.23 1194.09,-31.82"/>
</g>
<!-- Node27 -->
<g id="node27" class="node">
<title>Node27</title>
<g id="a_node27"><a xlink:title=" ">
<polygon fill="none" stroke="#bfbfbf" points="1270.5,-6 1270.5,-25 1317.5,-25 1317.5,-6 1270.5,-6"/>
<text text-anchor="middle" x="1294" y="-13" font-family="Helvetica,sans-Serif" font-size="10.00">vector</text>
</a>
</g>
</g>
<!-- Node24&#45;&gt;Node27 -->
<g id="edge27" class="edge">
<title>Node24&#45;&gt;Node27</title>
<path fill="none" stroke="midnightblue" d="M975.03,-72.96C983.3,-70.77 991.87,-68.68 1000,-67 1114.67,-43.28 1148.32,-62.86 1261,-31 1263.15,-30.39 1265.35,-29.67 1267.53,-28.88"/>
<polygon fill="midnightblue" stroke="midnightblue" points="1268.91,-32.1 1276.86,-25.1 1266.28,-25.61 1268.91,-32.1"/>
</g>
<!-- Node28 -->
<g id="node28" class="node">
<title>Node28</title>
<g id="a_node28"><a xlink:title=" ">
<polygon fill="none" stroke="#bfbfbf" points="1336,-6 1336,-25 1428,-25 1428,-6 1336,-6"/>
<text text-anchor="middle" x="1382" y="-13" font-family="Helvetica,sans-Serif" font-size="10.00">sophus/so2.hpp</text>
</a>
</g>
</g>
<!-- Node24&#45;&gt;Node28 -->
<g id="edge29" class="edge">
<title>Node24&#45;&gt;Node28</title>
<path fill="none" stroke="midnightblue" d="M974.22,-72.98C982.73,-70.73 991.59,-68.62 1000,-67 1143.57,-39.34 1183.25,-57.71 1327,-31 1332.15,-30.04 1337.52,-28.86 1342.81,-27.59"/>
<polygon fill="midnightblue" stroke="midnightblue" points="1343.95,-30.91 1352.78,-25.06 1342.23,-24.12 1343.95,-30.91"/>
</g>
<!-- Node29 -->
<g id="node29" class="node">
<title>Node29</title>
<g id="a_node29"><a xlink:title=" ">
<polygon fill="none" stroke="#bfbfbf" points="901.5,-6 901.5,-25 976.5,-25 976.5,-6 901.5,-6"/>
<text text-anchor="middle" x="939" y="-13" font-family="Helvetica,sans-Serif" font-size="10.00">tf2/utils.hpp</text>
</a>
</g>
</g>
<!-- Node24&#45;&gt;Node29 -->
<g id="edge30" class="edge">
<title>Node24&#45;&gt;Node29</title>
<path fill="none" stroke="midnightblue" d="M930.23,-72.73C931.9,-62 934.21,-47.19 936.04,-35.46"/>
<polygon fill="midnightblue" stroke="midnightblue" points="939.53,-35.81 937.61,-25.39 932.61,-34.73 939.53,-35.81"/>
</g>
<!-- Node30 -->
<g id="node30" class="node">
<title>Node30</title>
<g id="a_node30"><a target="_parent" xlink:href="../../../../../../beluga/docs/_doxygen/generated/reference/html/occupancy__grid_8hpp.html.html" xlink:title=" ">
<polygon fill="none" stroke="black" points="994,-0.5 994,-30.5 1110,-30.5 1110,-0.5 994,-0.5"/>
<text text-anchor="start" x="1002" y="-18.5" font-family="Helvetica,sans-Serif" font-size="10.00">beluga/sensor/data</text>
<text text-anchor="middle" x="1052" y="-7.5" font-family="Helvetica,sans-Serif" font-size="10.00">/occupancy_grid.hpp</text>
</a>
</g>
</g>
<!-- Node24&#45;&gt;Node30 -->
<g id="edge31" class="edge">
<title>Node24&#45;&gt;Node30</title>
<path fill="none" stroke="midnightblue" d="M952.8,-72.9C971.63,-62.19 997.75,-47.35 1018.45,-35.57"/>
<polygon fill="midnightblue" stroke="midnightblue" points="1020.28,-38.56 1027.25,-30.57 1016.82,-32.47 1020.28,-38.56"/>
</g>
</g>
</svg>
