<?xml version="1.0" encoding="UTF-8" standalone="no"?>
<!DOCTYPE svg PUBLIC "-//W3C//DTD SVG 1.1//EN"
 "http://www.w3.org/Graphics/SVG/1.1/DTD/svg11.dtd">
<!-- Generated by graphviz version 2.43.0 (0)
 -->
<!-- Title: /home/runner/work/beluga/beluga/beluga_ros/include/beluga_ros/amcl.hpp Pages: 1 -->
<svg width="1424pt" height="184pt"
 viewBox="0.00 0.00 1424.00 184.00" xmlns="http://www.w3.org/2000/svg" xmlns:xlink="http://www.w3.org/1999/xlink">
<g id="graph0" class="graph" transform="scale(1 1) rotate(0) translate(4 180)">
<title>/home/runner/work/beluga/beluga/beluga_ros/include/beluga_ros/amcl.hpp</title>
<!-- Node1 -->
<g id="node1" class="node">
<title>Node1</title>
<g id="a_node1"><a xlink:title="Generic two&#45;dimensional implementation of the Adaptive Monte Carlo Localization (AMCL) algorithm in 2...">
<polygon fill="#bfbfbf" stroke="black" points="599.5,-134.5 599.5,-175.5 746.5,-175.5 746.5,-134.5 599.5,-134.5"/>
<text text-anchor="start" x="607.5" y="-163.5" font-family="Helvetica,sans-Serif" font-size="10.00">/home/runner/work/beluga</text>
<text text-anchor="start" x="607.5" y="-152.5" font-family="Helvetica,sans-Serif" font-size="10.00">/beluga/beluga_ros/include</text>
<text text-anchor="middle" x="673" y="-141.5" font-family="Helvetica,sans-Serif" font-size="10.00">/beluga_ros/amcl.hpp</text>
</a>
</g>
</g>
<!-- Node2 -->
<g id="node2" class="node">
<title>Node2</title>
<g id="a_node2"><a xlink:title=" ">
<polygon fill="none" stroke="#bfbfbf" points="312,-73 312,-92 368,-92 368,-73 312,-73"/>
<text text-anchor="middle" x="340" y="-80" font-family="Helvetica,sans-Serif" font-size="10.00">optional</text>
</a>
</g>
</g>
<!-- Node1&#45;&gt;Node2 -->
<g id="edge1" class="edge">
<title>Node1&#45;&gt;Node2</title>
<path fill="none" stroke="midnightblue" d="M599.43,-143.99C538.99,-134.83 451.51,-119.45 377,-98 374.42,-97.26 371.76,-96.4 369.12,-95.49"/>
<polygon fill="midnightblue" stroke="midnightblue" points="370.33,-92.21 359.74,-92.02 367.9,-98.77 370.33,-92.21"/>
</g>
<!-- Node3 -->
<g id="node3" class="node">
<title>Node3</title>
<g id="a_node3"><a xlink:title=" ">
<polygon fill="none" stroke="#bfbfbf" points="726.5,-6 726.5,-25 771.5,-25 771.5,-6 726.5,-6"/>
<text text-anchor="middle" x="749" y="-13" font-family="Helvetica,sans-Serif" font-size="10.00">utility</text>
</a>
</g>
</g>
<!-- Node1&#45;&gt;Node3 -->
<g id="edge2" class="edge">
<title>Node1&#45;&gt;Node3</title>
<path fill="none" stroke="midnightblue" d="M702.9,-134.42C715.08,-124.89 728.13,-112.37 736,-98 746.63,-78.6 749.16,-52.96 749.5,-35.66"/>
<polygon fill="midnightblue" stroke="midnightblue" points="753,-35.18 749.46,-25.2 746,-35.21 753,-35.18"/>
</g>
<!-- Node4 -->
<g id="node4" class="node">
<title>Node4</title>
<g id="a_node4"><a xlink:title=" ">
<polygon fill="none" stroke="#bfbfbf" points="550.5,-73 550.5,-92 601.5,-92 601.5,-73 550.5,-73"/>
<text text-anchor="middle" x="576" y="-80" font-family="Helvetica,sans-Serif" font-size="10.00">variant</text>
</a>
</g>
</g>
<!-- Node1&#45;&gt;Node4 -->
<g id="edge3" class="edge">
<title>Node1&#45;&gt;Node4</title>
<path fill="none" stroke="midnightblue" d="M645.98,-134.36C630.2,-122.89 610.61,-108.65 596.17,-98.16"/>
<polygon fill="midnightblue" stroke="midnightblue" points="598.08,-95.22 587.93,-92.17 593.97,-100.88 598.08,-95.22"/>
</g>
<!-- Node5 -->
<g id="node5" class="node">
<title>Node5</title>
<g id="a_node5"><a target="_parent" xlink:href="../../../../../../beluga/docs/_doxygen/generated/reference/html/beluga_8hpp.html.html" xlink:title=" ">
<polygon fill="none" stroke="black" points="619.5,-73 619.5,-92 726.5,-92 726.5,-73 619.5,-73"/>
<text text-anchor="middle" x="673" y="-80" font-family="Helvetica,sans-Serif" font-size="10.00">beluga/beluga.hpp</text>
</a>
</g>
</g>
<!-- Node1&#45;&gt;Node5 -->
<g id="edge4" class="edge">
<title>Node1&#45;&gt;Node5</title>
<path fill="none" stroke="midnightblue" d="M673,-134.36C673,-124.3 673,-112.1 673,-102.18"/>
<polygon fill="midnightblue" stroke="midnightblue" points="676.5,-102.17 673,-92.17 669.5,-102.17 676.5,-102.17"/>
</g>
<!-- Node6 -->
<g id="node6" class="node">
<title>Node6</title>
<g id="a_node6"><a xlink:href="laser__scan_8hpp.html" target="_top" xlink:title="Implementation of sensor_msgs/LaserScan wrapper type.">
<polygon fill="none" stroke="black" points="386,-73 386,-92 532,-92 532,-73 386,-73"/>
<text text-anchor="middle" x="459" y="-80" font-family="Helvetica,sans-Serif" font-size="10.00">beluga_ros/laser_scan.hpp</text>
</a>
</g>
</g>
<!-- Node1&#45;&gt;Node6 -->
<g id="edge5" class="edge">
<title>Node1&#45;&gt;Node6</title>
<path fill="none" stroke="midnightblue" d="M613.67,-134.46C575.34,-121.83 526.73,-105.81 494.34,-95.14"/>
<polygon fill="midnightblue" stroke="midnightblue" points="495.43,-91.82 484.84,-92.01 493.24,-98.47 495.43,-91.82"/>
</g>
<!-- Node12 -->
<g id="node12" class="node">
<title>Node12</title>
<g id="a_node12"><a xlink:href="occupancy__grid_8hpp.html" target="_top" xlink:title="Implementation of nav_msgs/OccupancyGrid wrapper type.">
<polygon fill="none" stroke="black" points="869.5,-67.5 869.5,-97.5 994.5,-97.5 994.5,-67.5 869.5,-67.5"/>
<text text-anchor="start" x="877.5" y="-85.5" font-family="Helvetica,sans-Serif" font-size="10.00">beluga_ros/occupancy</text>
<text text-anchor="middle" x="932" y="-74.5" font-family="Helvetica,sans-Serif" font-size="10.00">_grid.hpp</text>
</a>
</g>
</g>
<!-- Node1&#45;&gt;Node12 -->
<g id="edge11" class="edge">
<title>Node1&#45;&gt;Node12</title>
<path fill="none" stroke="midnightblue" d="M744.8,-134.46C784.24,-123.72 832.66,-110.54 870.37,-100.28"/>
<polygon fill="midnightblue" stroke="midnightblue" points="871.48,-103.6 880.21,-97.6 869.64,-96.85 871.48,-103.6"/>
</g>
<!-- Node20 -->
<g id="node20" class="node">
<title>Node20</title>
<g id="a_node20"><a xlink:title=" ">
<polygon fill="none" stroke="#bfbfbf" points="1013,-67.5 1013,-97.5 1123,-97.5 1123,-67.5 1013,-67.5"/>
<text text-anchor="start" x="1021" y="-85.5" font-family="Helvetica,sans-Serif" font-size="10.00">range/v3/view/take</text>
<text text-anchor="middle" x="1068" y="-74.5" font-family="Helvetica,sans-Serif" font-size="10.00">_exactly.hpp</text>
</a>
</g>
</g>
<!-- Node1&#45;&gt;Node20 -->
<g id="edge21" class="edge">
<title>Node1&#45;&gt;Node20</title>
<path fill="none" stroke="midnightblue" d="M746.51,-142.76C811.43,-132.55 908.87,-116.58 1002.91,-98.16"/>
<polygon fill="midnightblue" stroke="midnightblue" points="1003.75,-101.56 1012.88,-96.19 1002.4,-94.69 1003.75,-101.56"/>
</g>
<!-- Node7 -->
<g id="node7" class="node">
<title>Node7</title>
<g id="a_node7"><a xlink:title=" ">
<polygon fill="none" stroke="#bfbfbf" points="110,-6 110,-25 238,-25 238,-6 110,-6"/>
<text text-anchor="middle" x="174" y="-13" font-family="Helvetica,sans-Serif" font-size="10.00">range/v3/view/iota.hpp</text>
</a>
</g>
</g>
<!-- Node6&#45;&gt;Node7 -->
<g id="edge6" class="edge">
<title>Node6&#45;&gt;Node7</title>
<path fill="none" stroke="midnightblue" d="M421.45,-72.94C370.08,-61.22 277.88,-40.19 221.69,-27.38"/>
<polygon fill="midnightblue" stroke="midnightblue" points="222.16,-23.89 211.64,-25.08 220.61,-30.72 222.16,-23.89"/>
</g>
<!-- Node8 -->
<g id="node8" class="node">
<title>Node8</title>
<g id="a_node8"><a target="_parent" xlink:href="../../../../../../beluga/docs/_doxygen/generated/reference/html/laser__scan_8hpp.html.html" xlink:title=" ">
<polygon fill="none" stroke="black" points="256,-0.5 256,-30.5 366,-30.5 366,-0.5 256,-0.5"/>
<text text-anchor="start" x="264" y="-18.5" font-family="Helvetica,sans-Serif" font-size="10.00">beluga/sensor/data</text>
<text text-anchor="middle" x="311" y="-7.5" font-family="Helvetica,sans-Serif" font-size="10.00">/laser_scan.hpp</text>
</a>
</g>
</g>
<!-- Node6&#45;&gt;Node8 -->
<g id="edge7" class="edge">
<title>Node6&#45;&gt;Node8</title>
<path fill="none" stroke="midnightblue" d="M439.35,-72.87C417.23,-63.16 380.69,-47.11 352.25,-34.61"/>
<polygon fill="midnightblue" stroke="midnightblue" points="353.5,-31.34 342.94,-30.53 350.69,-37.75 353.5,-31.34"/>
</g>
<!-- Node9 -->
<g id="node9" class="node">
<title>Node9</title>
<g id="a_node9"><a target="_parent" xlink:href="../../../../../../beluga/docs/_doxygen/generated/reference/html/take__evenly_8hpp.html.html" xlink:title=" ">
<polygon fill="none" stroke="black" points="384.5,-6 384.5,-25 547.5,-25 547.5,-6 384.5,-6"/>
<text text-anchor="middle" x="466" y="-13" font-family="Helvetica,sans-Serif" font-size="10.00">beluga/views/take_evenly.hpp</text>
</a>
</g>
</g>
<!-- Node6&#45;&gt;Node9 -->
<g id="edge8" class="edge">
<title>Node6&#45;&gt;Node9</title>
<path fill="none" stroke="midnightblue" d="M459.94,-72.73C460.97,-63.18 462.65,-47.62 463.98,-35.28"/>
<polygon fill="midnightblue" stroke="midnightblue" points="467.48,-35.44 465.07,-25.13 460.52,-34.7 467.48,-35.44"/>
</g>
<!-- Node10 -->
<g id="node10" class="node">
<title>Node10</title>
<g id="a_node10"><a xlink:href="messages_8hpp_source.html" target="_top" xlink:title=" ">
<polygon fill="none" stroke="black" points="565.5,-6 565.5,-25 708.5,-25 708.5,-6 565.5,-6"/>
<text text-anchor="middle" x="637" y="-13" font-family="Helvetica,sans-Serif" font-size="10.00">beluga_ros/messages.hpp</text>
</a>
</g>
</g>
<!-- Node6&#45;&gt;Node10 -->
<g id="edge9" class="edge">
<title>Node6&#45;&gt;Node10</title>
<path fill="none" stroke="midnightblue" d="M482.64,-72.87C513.71,-61.52 568.47,-41.52 603.72,-28.65"/>
<polygon fill="midnightblue" stroke="midnightblue" points="605.36,-31.78 613.55,-25.06 602.95,-25.21 605.36,-31.78"/>
</g>
<!-- Node11 -->
<g id="node11" class="node">
<title>Node11</title>
<g id="a_node11"><a xlink:title=" ">
<polygon fill="none" stroke="#bfbfbf" points="0,-6 0,-25 92,-25 92,-6 0,-6"/>
<text text-anchor="middle" x="46" y="-13" font-family="Helvetica,sans-Serif" font-size="10.00">sophus/se3.hpp</text>
</a>
</g>
</g>
<!-- Node6&#45;&gt;Node11 -->
<g id="edge10" class="edge">
<title>Node6&#45;&gt;Node11</title>
<path fill="none" stroke="midnightblue" d="M412.66,-72.93C401.03,-70.88 388.57,-68.78 377,-67 254.73,-48.22 222.39,-54.82 101,-31 95.92,-30 90.62,-28.81 85.39,-27.54"/>
<polygon fill="midnightblue" stroke="midnightblue" points="86.08,-24.1 75.52,-25.03 84.35,-30.88 86.08,-24.1"/>
</g>
<!-- Node12&#45;&gt;Node3 -->
<g id="edge14" class="edge">
<title>Node12&#45;&gt;Node3</title>
<path fill="none" stroke="midnightblue" d="M885.97,-67.46C855.83,-57.93 815.74,-44.64 781,-31 779.58,-30.44 778.13,-29.86 776.68,-29.25"/>
<polygon fill="midnightblue" stroke="midnightblue" points="777.7,-25.88 767.14,-25.11 774.92,-32.3 777.7,-25.88"/>
</g>
<!-- Node12&#45;&gt;Node10 -->
<g id="edge20" class="edge">
<title>Node12&#45;&gt;Node10</title>
<path fill="none" stroke="midnightblue" d="M869.44,-67.72C814.69,-55.65 736.26,-38.37 685.98,-27.29"/>
<polygon fill="midnightblue" stroke="midnightblue" points="686.52,-23.83 676,-25.09 685.02,-30.66 686.52,-23.83"/>
</g>
<!-- Node13 -->
<g id="node13" class="node">
<title>Node13</title>
<g id="a_node13"><a xlink:title=" ">
<polygon fill="none" stroke="#bfbfbf" points="1116.5,-6 1116.5,-25 1163.5,-25 1163.5,-6 1116.5,-6"/>
<text text-anchor="middle" x="1140" y="-13" font-family="Helvetica,sans-Serif" font-size="10.00">cmath</text>
</a>
</g>
</g>
<!-- Node12&#45;&gt;Node13 -->
<g id="edge12" class="edge">
<title>Node12&#45;&gt;Node13</title>
<path fill="none" stroke="midnightblue" d="M987.78,-67.44C1022.45,-58.2 1067.75,-45.21 1107,-31 1108.66,-30.4 1110.35,-29.76 1112.05,-29.08"/>
<polygon fill="midnightblue" stroke="midnightblue" points="1113.79,-32.15 1121.68,-25.07 1111.1,-25.69 1113.79,-32.15"/>
</g>
<!-- Node14 -->
<g id="node14" class="node">
<title>Node14</title>
<g id="a_node14"><a xlink:title=" ">
<polygon fill="none" stroke="#bfbfbf" points="1182,-6 1182,-25 1240,-25 1240,-6 1182,-6"/>
<text text-anchor="middle" x="1211" y="-13" font-family="Helvetica,sans-Serif" font-size="10.00">memory</text>
</a>
</g>
</g>
<!-- Node12&#45;&gt;Node14 -->
<g id="edge13" class="edge">
<title>Node12&#45;&gt;Node14</title>
<path fill="none" stroke="midnightblue" d="M994.8,-68.6C1063.29,-54.49 1164.39,-33.53 1173,-31 1175.58,-30.24 1178.23,-29.39 1180.88,-28.49"/>
<polygon fill="midnightblue" stroke="midnightblue" points="1182.08,-31.77 1190.3,-25.08 1179.7,-25.19 1182.08,-31.77"/>
</g>
<!-- Node15 -->
<g id="node15" class="node">
<title>Node15</title>
<g id="a_node15"><a xlink:title=" ">
<polygon fill="none" stroke="#bfbfbf" points="1258.5,-6 1258.5,-25 1305.5,-25 1305.5,-6 1258.5,-6"/>
<text text-anchor="middle" x="1282" y="-13" font-family="Helvetica,sans-Serif" font-size="10.00">vector</text>
</a>
</g>
</g>
<!-- Node12&#45;&gt;Node15 -->
<g id="edge15" class="edge">
<title>Node12&#45;&gt;Node15</title>
<path fill="none" stroke="midnightblue" d="M994.79,-68.65C997.9,-68.08 1000.99,-67.52 1004,-67 1112.43,-48.13 1143.23,-61.41 1249,-31 1251.15,-30.38 1253.34,-29.65 1255.53,-28.86"/>
<polygon fill="midnightblue" stroke="midnightblue" points="1256.91,-32.08 1264.86,-25.07 1254.27,-25.59 1256.91,-32.08"/>
</g>
<!-- Node16 -->
<g id="node16" class="node">
<title>Node16</title>
<g id="a_node16"><a xlink:title=" ">
<polygon fill="none" stroke="#bfbfbf" points="1324,-6 1324,-25 1416,-25 1416,-6 1324,-6"/>
<text text-anchor="middle" x="1370" y="-13" font-family="Helvetica,sans-Serif" font-size="10.00">sophus/se2.hpp</text>
</a>
</g>
</g>
<!-- Node12&#45;&gt;Node16 -->
<g id="edge16" class="edge">
<title>Node12&#45;&gt;Node16</title>
<path fill="none" stroke="midnightblue" d="M994.77,-68.54C997.89,-67.99 1000.98,-67.48 1004,-67 1141.43,-45.25 1178.27,-56.8 1315,-31 1320.14,-30.03 1325.52,-28.84 1330.8,-27.56"/>
<polygon fill="midnightblue" stroke="midnightblue" points="1331.94,-30.88 1340.78,-25.03 1330.22,-24.1 1331.94,-30.88"/>
</g>
<!-- Node17 -->
<g id="node17" class="node">
<title>Node17</title>
<g id="a_node17"><a xlink:title=" ">
<polygon fill="none" stroke="#bfbfbf" points="790,-6 790,-25 882,-25 882,-6 790,-6"/>
<text text-anchor="middle" x="836" y="-13" font-family="Helvetica,sans-Serif" font-size="10.00">sophus/so2.hpp</text>
</a>
</g>
</g>
<!-- Node12&#45;&gt;Node17 -->
<g id="edge17" class="edge">
<title>Node12&#45;&gt;Node17</title>
<path fill="none" stroke="midnightblue" d="M911.17,-67.4C895.22,-56.6 873.3,-41.76 857.25,-30.89"/>
<polygon fill="midnightblue" stroke="midnightblue" points="858.81,-27.72 848.56,-25.01 854.88,-33.51 858.81,-27.72"/>
</g>
<!-- Node18 -->
<g id="node18" class="node">
<title>Node18</title>
<g id="a_node18"><a xlink:title=" ">
<polygon fill="none" stroke="#bfbfbf" points="900.5,-6 900.5,-25 963.5,-25 963.5,-6 900.5,-6"/>
<text text-anchor="middle" x="932" y="-13" font-family="Helvetica,sans-Serif" font-size="10.00">tf2/utils.h</text>
</a>
</g>
</g>
<!-- Node12&#45;&gt;Node18 -->
<g id="edge18" class="edge">
<title>Node12&#45;&gt;Node18</title>
<path fill="none" stroke="midnightblue" d="M932,-67.4C932,-58.06 932,-45.71 932,-35.52"/>
<polygon fill="midnightblue" stroke="midnightblue" points="935.5,-35.19 932,-25.19 928.5,-35.19 935.5,-35.19"/>
</g>
<!-- Node19 -->
<g id="node19" class="node">
<title>Node19</title>
<g id="a_node19"><a target="_parent" xlink:href="../../../../../../beluga/docs/_doxygen/generated/reference/html/occupancy__grid_8hpp.html.html" xlink:title=" ">
<polygon fill="none" stroke="black" points="982,-0.5 982,-30.5 1098,-30.5 1098,-0.5 982,-0.5"/>
<text text-anchor="start" x="990" y="-18.5" font-family="Helvetica,sans-Serif" font-size="10.00">beluga/sensor/data</text>
<text text-anchor="middle" x="1040" y="-7.5" font-family="Helvetica,sans-Serif" font-size="10.00">/occupancy_grid.hpp</text>
</a>
</g>
</g>
<!-- Node12&#45;&gt;Node19 -->
<g id="edge19" class="edge">
<title>Node12&#45;&gt;Node19</title>
<path fill="none" stroke="midnightblue" d="M955.43,-67.4C970.72,-58.2 990.88,-46.07 1007.68,-35.95"/>
<polygon fill="midnightblue" stroke="midnightblue" points="1009.85,-38.73 1016.61,-30.58 1006.24,-32.73 1009.85,-38.73"/>
</g>
</g>
</svg>
