<?xml version="1.0" encoding="UTF-8" standalone="no"?>
<!DOCTYPE svg PUBLIC "-//W3C//DTD SVG 1.1//EN"
 "http://www.w3.org/Graphics/SVG/1.1/DTD/svg11.dtd">
<!-- Generated by graphviz version 2.43.0 (0)
 -->
<!-- Title: /home/runner/work/beluga/beluga/beluga_ros/include/beluga_ros/amcl.hpp Pages: 1 -->
<!--zoomable 262 -->
<svg id="main" version="1.1" xmlns="http://www.w3.org/2000/svg" xmlns:xlink="http://www.w3.org/1999/xlink" xml:space="preserve" onload="init(evt)">
<style type="text/css"><![CDATA[
.edge:hover path { stroke: red; }
.edge:hover polygon { stroke: red; fill: red; }
]]></style>
<script type="text/javascript"><![CDATA[
var edges = document.getElementsByTagName('g');
if (edges && edges.length) {
  for (var i=0;i<edges.length;i++) {
    if (edges[i].id.substr(0,4)=='edge') {
      edges[i].setAttribute('class','edge');
    }
  }
}
]]></script>
        <defs>
                <circle id="rim" cx="0" cy="0" r="7"/>
                <circle id="rim2" cx="0" cy="0" r="3.5"/>
                <g id="zoomPlus">
                        <use xlink:href="#rim" fill="#404040">
                                <set attributeName="fill" to="#808080" begin="zoomplus.mouseover" end="zoomplus.mouseout"/>
                        </use>
                        <path d="M-4,0h8M0,-4v8" fill="none" stroke="white" stroke-width="1.5" pointer-events="none"/>
                </g>
                <g id="zoomMin">
                        <use xlink:href="#rim" fill="#404040">
                                <set attributeName="fill" to="#808080" begin="zoomminus.mouseover" end="zoomminus.mouseout"/>
                        </use>
                        <path d="M-4,0h8" fill="none" stroke="white" stroke-width="1.5" pointer-events="none"/>
                </g>
                <g id="dirArrow">
                        <path fill="none" stroke="white" stroke-width="1.5" d="M0,-3.0v7 M-2.5,-0.5L0,-3.0L2.5,-0.5"/>
                </g>
               <g id="resetDef">
                       <use xlink:href="#rim2" fill="#404040">
                               <set attributeName="fill" to="#808080" begin="reset.mouseover" end="reset.mouseout"/>
                       </use>
               </g>
        </defs>

<script type="text/javascript">
var viewWidth = 3516;
var viewHeight = 262;
var sectionId = 'dynsection-0';
</script>
<script xlink:href="svgpan.js"/>
<svg id="graph" class="graph">
<g id="viewport">
<title>/home/runner/work/beluga/beluga/beluga_ros/include/beluga_ros/amcl.hpp</title>
<!-- Node1 -->
<g id="node1" class="node">
<title>Node1</title>
<g id="a_node1"><a xlink:title="Generic two&#45;dimensional implementation of the Adaptive Monte Carlo Localization (AMCL) algorithm in 2...">
<polygon fill="#bfbfbf" stroke="black" points="1208,-212.5 1208,-253.5 1355,-253.5 1355,-212.5 1208,-212.5"/>
<text text-anchor="start" x="1216" y="-241.5" font-family="Helvetica,sans-Serif" font-size="10.00">/home/runner/work/beluga</text>
<text text-anchor="start" x="1216" y="-230.5" font-family="Helvetica,sans-Serif" font-size="10.00">/beluga/beluga_ros/include</text>
<text text-anchor="middle" x="1281.5" y="-219.5" font-family="Helvetica,sans-Serif" font-size="10.00">/beluga_ros/amcl.hpp</text>
</a>
</g>
</g>
<!-- Node2 -->
<g id="node2" class="node">
<title>Node2</title>
<g id="a_node2"><a xlink:title=" ">
<polygon fill="none" stroke="#bfbfbf" points="242.5,-145.5 242.5,-164.5 298.5,-164.5 298.5,-145.5 242.5,-145.5"/>
<text text-anchor="middle" x="270.5" y="-152.5" font-family="Helvetica,sans-Serif" font-size="10.00">optional</text>
</a>
</g>
</g>
<!-- Node1&#45;&gt;Node2 -->
<g id="edge1" class="edge">
<title>Node1&#45;&gt;Node2</title>
<path fill="none" stroke="midnightblue" d="M1207.87,-231.4C1012.01,-229.23 481.64,-219.38 312.5,-176 306.39,-174.43 300.09,-171.96 294.29,-169.28"/>
<polygon fill="midnightblue" stroke="midnightblue" points="295.64,-166.04 285.13,-164.69 292.51,-172.3 295.64,-166.04"/>
</g>
<!-- Node3 -->
<g id="node3" class="node">
<title>Node3</title>
<g id="a_node3"><a xlink:title=" ">
<polygon fill="none" stroke="#bfbfbf" points="0,-73 0,-92 45,-92 45,-73 0,-73"/>
<text text-anchor="middle" x="22.5" y="-80" font-family="Helvetica,sans-Serif" font-size="10.00">utility</text>
</a>
</g>
</g>
<!-- Node1&#45;&gt;Node3 -->
<g id="edge2" class="edge">
<title>Node1&#45;&gt;Node3</title>
<path fill="none" stroke="midnightblue" d="M1207.9,-231.07C999.68,-227.97 416.54,-215.79 340.5,-176 319.47,-164.99 328.06,-145.86 307.5,-134 209.11,-77.26 163.55,-129.76 54.5,-98 52.57,-97.44 50.6,-96.78 48.64,-96.06"/>
<polygon fill="midnightblue" stroke="midnightblue" points="49.68,-92.7 39.1,-92.1 46.99,-99.16 49.68,-92.7"/>
</g>
<!-- Node4 -->
<g id="node4" class="node">
<title>Node4</title>
<g id="a_node4"><a xlink:title=" ">
<polygon fill="none" stroke="#bfbfbf" points="536,-145.5 536,-164.5 587,-164.5 587,-145.5 536,-145.5"/>
<text text-anchor="middle" x="561.5" y="-152.5" font-family="Helvetica,sans-Serif" font-size="10.00">variant</text>
</a>
</g>
</g>
<!-- Node1&#45;&gt;Node4 -->
<g id="edge3" class="edge">
<title>Node1&#45;&gt;Node4</title>
<path fill="none" stroke="midnightblue" d="M1207.74,-230.13C1054.77,-225.59 707.93,-211.59 595.5,-176 590.9,-174.54 586.25,-172.37 581.93,-169.99"/>
<polygon fill="midnightblue" stroke="midnightblue" points="583.51,-166.85 573.15,-164.63 579.86,-172.83 583.51,-166.85"/>
</g>
<!-- Node5 -->
<g id="node5" class="node">
<title>Node5</title>
<g id="a_node5"><a xlink:title=" ">
<polygon fill="none" stroke="#bfbfbf" points="605,-145.5 605,-164.5 772,-164.5 772,-145.5 605,-145.5"/>
<text text-anchor="middle" x="688.5" y="-152.5" font-family="Helvetica,sans-Serif" font-size="10.00">range/v3/range/conversion.hpp</text>
</a>
</g>
</g>
<!-- Node1&#45;&gt;Node5 -->
<g id="edge4" class="edge">
<title>Node1&#45;&gt;Node5</title>
<path fill="none" stroke="midnightblue" d="M1207.9,-226.08C1110.11,-217.69 932.15,-200.57 781.5,-176 766.01,-173.47 749.19,-170.06 734.18,-166.78"/>
<polygon fill="midnightblue" stroke="midnightblue" points="734.63,-163.29 724.11,-164.53 733.11,-170.13 734.63,-163.29"/>
</g>
<!-- Node6 -->
<g id="node6" class="node">
<title>Node6</title>
<g id="a_node6"><a xlink:title=" ">
<polygon fill="none" stroke="#bfbfbf" points="790.5,-140 790.5,-170 900.5,-170 900.5,-140 790.5,-140"/>
<text text-anchor="start" x="798.5" y="-158" font-family="Helvetica,sans-Serif" font-size="10.00">range/v3/view/take</text>
<text text-anchor="middle" x="845.5" y="-147" font-family="Helvetica,sans-Serif" font-size="10.00">_exactly.hpp</text>
</a>
</g>
</g>
<!-- Node1&#45;&gt;Node6 -->
<g id="edge5" class="edge">
<title>Node1&#45;&gt;Node6</title>
<path fill="none" stroke="midnightblue" d="M1207.82,-224.29C1132.31,-215.6 1011.81,-199.54 909.5,-176 905.42,-175.06 901.21,-173.99 897.01,-172.84"/>
<polygon fill="midnightblue" stroke="midnightblue" points="897.82,-169.44 887.25,-170.06 895.9,-176.17 897.82,-169.44"/>
</g>
<!-- Node7 -->
<g id="node7" class="node">
<title>Node7</title>
<g id="a_node7"><a xlink:title=" ">
<polygon fill="none" stroke="#bfbfbf" points="63.5,-73 63.5,-92 155.5,-92 155.5,-73 63.5,-73"/>
<text text-anchor="middle" x="109.5" y="-80" font-family="Helvetica,sans-Serif" font-size="10.00">sophus/se2.hpp</text>
</a>
</g>
</g>
<!-- Node1&#45;&gt;Node7 -->
<g id="edge6" class="edge">
<title>Node1&#45;&gt;Node7</title>
<path fill="none" stroke="midnightblue" d="M1207.91,-230.34C1006.79,-225.41 457.91,-209.05 383.5,-176 359.08,-165.16 364.1,-146.52 340.5,-134 269.97,-96.59 242.24,-116.18 164.5,-98 159.88,-96.92 155.05,-95.73 150.26,-94.52"/>
<polygon fill="midnightblue" stroke="midnightblue" points="151.1,-91.12 140.55,-92.01 149.35,-97.9 151.1,-91.12"/>
</g>
<!-- Node8 -->
<g id="node8" class="node">
<title>Node8</title>
<g id="a_node8"><a target="_parent" xlink:href="../../../../../../beluga/docs/_doxygen/generated/reference/html/spatial__hash_8hpp.html.html" xlink:title=" ">
<polygon fill="none" stroke="black" points="918.5,-140 918.5,-170 1054.5,-170 1054.5,-140 918.5,-140"/>
<text text-anchor="start" x="926.5" y="-158" font-family="Helvetica,sans-Serif" font-size="10.00">beluga/algorithm/spatial</text>
<text text-anchor="middle" x="986.5" y="-147" font-family="Helvetica,sans-Serif" font-size="10.00">_hash.hpp</text>
</a>
</g>
</g>
<!-- Node1&#45;&gt;Node8 -->
<g id="edge7" class="edge">
<title>Node1&#45;&gt;Node8</title>
<path fill="none" stroke="midnightblue" d="M1207.82,-213.13C1165.58,-202.29 1111.55,-188.41 1063.5,-176 1059.17,-174.88 1054.7,-173.73 1050.21,-172.56"/>
<polygon fill="midnightblue" stroke="midnightblue" points="1050.9,-169.13 1040.35,-170.01 1049.15,-175.9 1050.9,-169.13"/>
</g>
<!-- Node9 -->
<g id="node9" class="node">
<title>Node9</title>
<g id="a_node9"><a xlink:title=" ">
<polygon fill="none" stroke="#bfbfbf" points="1072.5,-134.5 1072.5,-175.5 1200.5,-175.5 1200.5,-134.5 1072.5,-134.5"/>
<text text-anchor="start" x="1080.5" y="-163.5" font-family="Helvetica,sans-Serif" font-size="10.00">beluga/algorithm/thrun</text>
<text text-anchor="start" x="1080.5" y="-152.5" font-family="Helvetica,sans-Serif" font-size="10.00">_recovery_probability</text>
<text text-anchor="middle" x="1136.5" y="-141.5" font-family="Helvetica,sans-Serif" font-size="10.00">_estimator.hpp</text>
</a>
</g>
</g>
<!-- Node1&#45;&gt;Node9 -->
<g id="edge8" class="edge">
<title>Node1&#45;&gt;Node9</title>
<path fill="none" stroke="midnightblue" d="M1244.16,-212.43C1225.39,-202.59 1202.46,-190.57 1182.6,-180.16"/>
<polygon fill="midnightblue" stroke="midnightblue" points="1184.2,-177.05 1173.71,-175.51 1180.95,-183.25 1184.2,-177.05"/>
</g>
<!-- Node10 -->
<g id="node10" class="node">
<title>Node10</title>
<g id="a_node10"><a target="_parent" xlink:href="../../../../../../beluga/docs/_doxygen/generated/reference/html/containers_8hpp.html.html" xlink:title=" ">
<polygon fill="none" stroke="black" points="1219,-145.5 1219,-164.5 1344,-164.5 1344,-145.5 1219,-145.5"/>
<text text-anchor="middle" x="1281.5" y="-152.5" font-family="Helvetica,sans-Serif" font-size="10.00">beluga/containers.hpp</text>
</a>
</g>
</g>
<!-- Node1&#45;&gt;Node10 -->
<g id="edge9" class="edge">
<title>Node1&#45;&gt;Node10</title>
<path fill="none" stroke="midnightblue" d="M1281.5,-212.43C1281.5,-200.82 1281.5,-186.18 1281.5,-174.72"/>
<polygon fill="midnightblue" stroke="midnightblue" points="1285,-174.55 1281.5,-164.55 1278,-174.55 1285,-174.55"/>
</g>
<!-- Node11 -->
<g id="node11" class="node">
<title>Node11</title>
<g id="a_node11"><a target="_parent" xlink:href="../../../../../../beluga/docs/_doxygen/generated/reference/html/motion_8hpp.html.html" xlink:title=" ">
<polygon fill="none" stroke="black" points="1362.5,-145.5 1362.5,-164.5 1470.5,-164.5 1470.5,-145.5 1362.5,-145.5"/>
<text text-anchor="middle" x="1416.5" y="-152.5" font-family="Helvetica,sans-Serif" font-size="10.00">beluga/motion.hpp</text>
</a>
</g>
</g>
<!-- Node1&#45;&gt;Node11 -->
<g id="edge10" class="edge">
<title>Node1&#45;&gt;Node11</title>
<path fill="none" stroke="midnightblue" d="M1316.27,-212.43C1340.11,-199 1371.15,-181.53 1392.33,-169.61"/>
<polygon fill="midnightblue" stroke="midnightblue" points="1394.31,-172.51 1401.31,-164.55 1390.88,-166.41 1394.31,-172.51"/>
</g>
<!-- Node12 -->
<g id="node12" class="node">
<title>Node12</title>
<g id="a_node12"><a target="_parent" xlink:href="../../../../../../beluga/docs/_doxygen/generated/reference/html/policies_8hpp.html.html" xlink:title=" ">
<polygon fill="none" stroke="black" points="1489,-145.5 1489,-164.5 1600,-164.5 1600,-145.5 1489,-145.5"/>
<text text-anchor="middle" x="1544.5" y="-152.5" font-family="Helvetica,sans-Serif" font-size="10.00">beluga/policies.hpp</text>
</a>
</g>
</g>
<!-- Node1&#45;&gt;Node12 -->
<g id="edge11" class="edge">
<title>Node1&#45;&gt;Node12</title>
<path fill="none" stroke="midnightblue" d="M1352.17,-212.43C1390,-201.85 1437.36,-188.44 1479.5,-176 1488.65,-173.3 1498.49,-170.31 1507.69,-167.49"/>
<polygon fill="midnightblue" stroke="midnightblue" points="1508.82,-170.8 1517.34,-164.51 1506.76,-164.11 1508.82,-170.8"/>
</g>
<!-- Node13 -->
<g id="node13" class="node">
<title>Node13</title>
<g id="a_node13"><a target="_parent" xlink:href="../../../../../../beluga/docs/_doxygen/generated/reference/html/random_8hpp.html.html" xlink:title=" ">
<polygon fill="none" stroke="black" points="1618,-145.5 1618,-164.5 1729,-164.5 1729,-145.5 1618,-145.5"/>
<text text-anchor="middle" x="1673.5" y="-152.5" font-family="Helvetica,sans-Serif" font-size="10.00">beluga/random.hpp</text>
</a>
</g>
</g>
<!-- Node1&#45;&gt;Node13 -->
<g id="edge12" class="edge">
<title>Node1&#45;&gt;Node13</title>
<path fill="none" stroke="midnightblue" d="M1355.1,-222.16C1421.74,-212.61 1522.36,-196.54 1608.5,-176 1618.39,-173.64 1628.98,-170.61 1638.68,-167.62"/>
<polygon fill="midnightblue" stroke="midnightblue" points="1639.91,-170.9 1648.4,-164.55 1637.81,-164.22 1639.91,-170.9"/>
</g>
<!-- Node14 -->
<g id="node14" class="node">
<title>Node14</title>
<g id="a_node14"><a target="_parent" xlink:href="../../../../../../beluga/docs/_doxygen/generated/reference/html/sensor_8hpp.html.html" xlink:title=" ">
<polygon fill="none" stroke="black" points="1747,-145.5 1747,-164.5 1852,-164.5 1852,-145.5 1747,-145.5"/>
<text text-anchor="middle" x="1799.5" y="-152.5" font-family="Helvetica,sans-Serif" font-size="10.00">beluga/sensor.hpp</text>
</a>
</g>
</g>
<!-- Node1&#45;&gt;Node14 -->
<g id="edge13" class="edge">
<title>Node1&#45;&gt;Node14</title>
<path fill="none" stroke="midnightblue" d="M1355.28,-227.27C1446.06,-220.45 1604.5,-205.34 1737.5,-176 1747.15,-173.87 1757.44,-170.86 1766.8,-167.83"/>
<polygon fill="midnightblue" stroke="midnightblue" points="1768.16,-171.06 1776.53,-164.56 1765.93,-164.43 1768.16,-171.06"/>
</g>
<!-- Node15 -->
<g id="node15" class="node">
<title>Node15</title>
<g id="a_node15"><a target="_parent" xlink:href="../../../../../../beluga/docs/_doxygen/generated/reference/html/value__grid_8hpp.html.html" xlink:title=" ">
<polygon fill="none" stroke="black" points="1870.5,-140 1870.5,-170 1980.5,-170 1980.5,-140 1870.5,-140"/>
<text text-anchor="start" x="1878.5" y="-158" font-family="Helvetica,sans-Serif" font-size="10.00">beluga/sensor/data</text>
<text text-anchor="middle" x="1925.5" y="-147" font-family="Helvetica,sans-Serif" font-size="10.00">/value_grid.hpp</text>
</a>
</g>
</g>
<!-- Node1&#45;&gt;Node15 -->
<g id="edge14" class="edge">
<title>Node1&#45;&gt;Node15</title>
<path fill="none" stroke="midnightblue" d="M1355.32,-229.63C1466.04,-225.01 1681.26,-211.86 1860.5,-176 1864.98,-175.1 1869.6,-174.02 1874.2,-172.83"/>
<polygon fill="midnightblue" stroke="midnightblue" points="1875.5,-176.1 1884.21,-170.07 1873.64,-169.35 1875.5,-176.1"/>
</g>
<!-- Node16 -->
<g id="node16" class="node">
<title>Node16</title>
<g id="a_node16"><a xlink:title=" ">
<polygon fill="none" stroke="#bfbfbf" points="1998.5,-145.5 1998.5,-164.5 2156.5,-164.5 2156.5,-145.5 1998.5,-145.5"/>
<text text-anchor="middle" x="2077.5" y="-152.5" font-family="Helvetica,sans-Serif" font-size="10.00">beluga/sensor/primitives.hpp</text>
</a>
</g>
</g>
<!-- Node1&#45;&gt;Node16 -->
<g id="edge15" class="edge">
<title>Node1&#45;&gt;Node16</title>
<path fill="none" stroke="midnightblue" d="M1355.03,-229.68C1484.1,-224.84 1759.58,-211.03 1989.5,-176 2004.46,-173.72 2020.65,-170.32 2035.02,-166.96"/>
<polygon fill="midnightblue" stroke="midnightblue" points="2036.21,-170.27 2045.12,-164.54 2034.58,-163.47 2036.21,-170.27"/>
</g>
<!-- Node17 -->
<g id="node17" class="node">
<title>Node17</title>
<g id="a_node17"><a target="_parent" xlink:href="../../../../../../beluga/docs/_doxygen/generated/reference/html/sample_8hpp.html.html" xlink:title=" ">
<polygon fill="none" stroke="black" points="2175,-145.5 2175,-164.5 2316,-164.5 2316,-145.5 2175,-145.5"/>
<text text-anchor="middle" x="2245.5" y="-152.5" font-family="Helvetica,sans-Serif" font-size="10.00">beluga/views/sample.hpp</text>
</a>
</g>
</g>
<!-- Node1&#45;&gt;Node17 -->
<g id="edge16" class="edge">
<title>Node1&#45;&gt;Node17</title>
<path fill="none" stroke="midnightblue" d="M1355.04,-231.84C1507.25,-230.53 1867.47,-222.3 2165.5,-176 2179.01,-173.9 2193.57,-170.59 2206.51,-167.25"/>
<polygon fill="midnightblue" stroke="midnightblue" points="2207.74,-170.55 2216.5,-164.6 2205.94,-163.79 2207.74,-170.55"/>
</g>
<!-- Node18 -->
<g id="node18" class="node">
<title>Node18</title>
<g id="a_node18"><a xlink:href="laser__scan_8hpp.html" target="_top" xlink:title="Implementation of sensor_msgs/LaserScan wrapper type.">
<polygon fill="none" stroke="black" points="2950.5,-145.5 2950.5,-164.5 3096.5,-164.5 3096.5,-145.5 2950.5,-145.5"/>
<text text-anchor="middle" x="3023.5" y="-152.5" font-family="Helvetica,sans-Serif" font-size="10.00">beluga_ros/laser_scan.hpp</text>
</a>
</g>
</g>
<!-- Node1&#45;&gt;Node18 -->
<g id="edge17" class="edge">
<title>Node1&#45;&gt;Node18</title>
<path fill="none" stroke="midnightblue" d="M1355.24,-228.78C1636.68,-216.5 2642.31,-172.63 2939.94,-159.65"/>
<polygon fill="midnightblue" stroke="midnightblue" points="2940.39,-163.13 2950.23,-159.2 2940.08,-156.14 2940.39,-163.13"/>
</g>
<!-- Node27 -->
<g id="node27" class="node">
<title>Node27</title>
<g id="a_node27"><a xlink:href="occupancy__grid_8hpp.html" target="_top" xlink:title="Implementation of nav_msgs/OccupancyGrid wrapper type.">
<polygon fill="none" stroke="black" points="393,-140 393,-170 518,-170 518,-140 393,-140"/>
<text text-anchor="start" x="401" y="-158" font-family="Helvetica,sans-Serif" font-size="10.00">beluga_ros/occupancy</text>
<text text-anchor="middle" x="455.5" y="-147" font-family="Helvetica,sans-Serif" font-size="10.00">_grid.hpp</text>
</a>
</g>
</g>
<!-- Node1&#45;&gt;Node27 -->
<g id="edge26" class="edge">
<title>Node1&#45;&gt;Node27</title>
<path fill="none" stroke="midnightblue" d="M1207.75,-231.42C1071.94,-229.27 773.58,-219.51 526.5,-176 521.14,-175.06 515.6,-173.87 510.09,-172.56"/>
<polygon fill="midnightblue" stroke="midnightblue" points="510.81,-169.13 500.26,-170.07 509.09,-175.92 510.81,-169.13"/>
</g>
<!-- Node36 -->
<g id="node36" class="node">
<title>Node36</title>
<g id="a_node36"><a xlink:href="sparse__point__cloud_8hpp.html" target="_top" xlink:title="Implementation of sensor_msgs/PointCloud2 wrapper type for messages without alignment constraints on ...">
<polygon fill="none" stroke="black" points="2334,-140 2334,-170 2469,-170 2469,-140 2334,-140"/>
<text text-anchor="start" x="2342" y="-158" font-family="Helvetica,sans-Serif" font-size="10.00">beluga_ros/sparse_point</text>
<text text-anchor="middle" x="2401.5" y="-147" font-family="Helvetica,sans-Serif" font-size="10.00">_cloud.hpp</text>
</a>
</g>
</g>
<!-- Node1&#45;&gt;Node36 -->
<g id="edge37" class="edge">
<title>Node1&#45;&gt;Node36</title>
<path fill="none" stroke="midnightblue" d="M1355.12,-229.97C1560.56,-223.99 2137.24,-205.05 2324.5,-176 2330.68,-175.04 2337.08,-173.8 2343.44,-172.4"/>
<polygon fill="midnightblue" stroke="midnightblue" points="2344.4,-175.77 2353.34,-170.09 2342.81,-168.95 2344.4,-175.77"/>
</g>
<!-- Node19 -->
<g id="node19" class="node">
<title>Node19</title>
<g id="a_node19"><a xlink:title=" ">
<polygon fill="none" stroke="#bfbfbf" points="2649.5,-73 2649.5,-92 2777.5,-92 2777.5,-73 2649.5,-73"/>
<text text-anchor="middle" x="2713.5" y="-80" font-family="Helvetica,sans-Serif" font-size="10.00">range/v3/view/iota.hpp</text>
</a>
</g>
</g>
<!-- Node18&#45;&gt;Node19 -->
<g id="edge18" class="edge">
<title>Node18&#45;&gt;Node19</title>
<path fill="none" stroke="midnightblue" d="M2986.11,-145.5C2929.67,-132.66 2822.75,-108.35 2760.92,-94.28"/>
<polygon fill="midnightblue" stroke="midnightblue" points="2761.55,-90.84 2751.03,-92.03 2760,-97.66 2761.55,-90.84"/>
</g>
<!-- Node20 -->
<g id="node20" class="node">
<title>Node20</title>
<g id="a_node20"><a target="_parent" xlink:href="../../../../../../beluga/docs/_doxygen/generated/reference/html/laser__scan_8hpp.html.html" xlink:title=" ">
<polygon fill="none" stroke="black" points="3087.5,-67.5 3087.5,-97.5 3197.5,-97.5 3197.5,-67.5 3087.5,-67.5"/>
<text text-anchor="start" x="3095.5" y="-85.5" font-family="Helvetica,sans-Serif" font-size="10.00">beluga/sensor/data</text>
<text text-anchor="middle" x="3142.5" y="-74.5" font-family="Helvetica,sans-Serif" font-size="10.00">/laser_scan.hpp</text>
</a>
</g>
</g>
<!-- Node18&#45;&gt;Node20 -->
<g id="edge19" class="edge">
<title>Node18&#45;&gt;Node20</title>
<path fill="none" stroke="midnightblue" d="M3038.09,-145.36C3055.92,-134.79 3086.62,-116.61 3110.12,-102.68"/>
<polygon fill="midnightblue" stroke="midnightblue" points="3111.92,-105.68 3118.74,-97.58 3108.35,-99.66 3111.92,-105.68"/>
</g>
<!-- Node21 -->
<g id="node21" class="node">
<title>Node21</title>
<g id="a_node21"><a target="_parent" xlink:href="../../../../../../beluga/docs/_doxygen/generated/reference/html/take__evenly_8hpp.html.html" xlink:title=" ">
<polygon fill="none" stroke="black" points="2796,-73 2796,-92 2959,-92 2959,-73 2796,-73"/>
<text text-anchor="middle" x="2877.5" y="-80" font-family="Helvetica,sans-Serif" font-size="10.00">beluga/views/take_evenly.hpp</text>
</a>
</g>
</g>
<!-- Node18&#45;&gt;Node21 -->
<g id="edge20" class="edge">
<title>Node18&#45;&gt;Node21</title>
<path fill="none" stroke="midnightblue" d="M3005.89,-145.5C2980.68,-133.32 2934.08,-110.82 2904.5,-96.54"/>
<polygon fill="midnightblue" stroke="midnightblue" points="2905.7,-93.23 2895.17,-92.03 2902.66,-99.53 2905.7,-93.23"/>
</g>
<!-- Node22 -->
<g id="node22" class="node">
<title>Node22</title>
<g id="a_node22"><a xlink:href="messages_8hpp_source.html" target="_top" xlink:title=" ">
<polygon fill="none" stroke="black" points="3216,-73 3216,-92 3359,-92 3359,-73 3216,-73"/>
<text text-anchor="middle" x="3287.5" y="-80" font-family="Helvetica,sans-Serif" font-size="10.00">beluga_ros/messages.hpp</text>
</a>
</g>
</g>
<!-- Node18&#45;&gt;Node22 -->
<g id="edge21" class="edge">
<title>Node18&#45;&gt;Node22</title>
<path fill="none" stroke="midnightblue" d="M3055.34,-145.5C3103.01,-132.77 3192.96,-108.75 3245.81,-94.63"/>
<polygon fill="midnightblue" stroke="midnightblue" points="3246.78,-98 3255.54,-92.03 3244.98,-91.23 3246.78,-98"/>
</g>
<!-- Node25 -->
<g id="node25" class="node">
<title>Node25</title>
<g id="a_node25"><a xlink:title=" ">
<polygon fill="none" stroke="#bfbfbf" points="2977.5,-73 2977.5,-92 3069.5,-92 3069.5,-73 2977.5,-73"/>
<text text-anchor="middle" x="3023.5" y="-80" font-family="Helvetica,sans-Serif" font-size="10.00">sophus/se3.hpp</text>
</a>
</g>
</g>
<!-- Node18&#45;&gt;Node25 -->
<g id="edge24" class="edge">
<title>Node18&#45;&gt;Node25</title>
<path fill="none" stroke="midnightblue" d="M3023.5,-145.36C3023.5,-134.68 3023.5,-116.22 3023.5,-102.23"/>
<polygon fill="midnightblue" stroke="midnightblue" points="3027,-102.22 3023.5,-92.22 3020,-102.22 3027,-102.22"/>
</g>
<!-- Node26 -->
<g id="node26" class="node">
<title>Node26</title>
<g id="a_node26"><a xlink:title=" ">
<polygon fill="none" stroke="#bfbfbf" points="3377,-67.5 3377,-97.5 3508,-97.5 3508,-67.5 3377,-67.5"/>
<text text-anchor="start" x="3385" y="-85.5" font-family="Helvetica,sans-Serif" font-size="10.00">sensor_msgs/msg/laser</text>
<text text-anchor="middle" x="3442.5" y="-74.5" font-family="Helvetica,sans-Serif" font-size="10.00">_scan.hpp</text>
</a>
</g>
</g>
<!-- Node18&#45;&gt;Node26 -->
<g id="edge25" class="edge">
<title>Node18&#45;&gt;Node26</title>
<path fill="none" stroke="midnightblue" d="M3079.47,-145.49C3145.72,-135.29 3259.65,-117.34 3366.75,-98.29"/>
<polygon fill="midnightblue" stroke="midnightblue" points="3367.52,-101.7 3376.75,-96.5 3366.29,-94.81 3367.52,-101.7"/>
</g>
<!-- Node23 -->
<g id="node23" class="node">
<title>Node23</title>
<g id="a_node23"><a xlink:title=" ">
<polygon fill="none" stroke="#bfbfbf" points="3159.5,-0.5 3159.5,-30.5 3287.5,-30.5 3287.5,-0.5 3159.5,-0.5"/>
<text text-anchor="start" x="3167.5" y="-18.5" font-family="Helvetica,sans-Serif" font-size="10.00">visualization_msgs</text>
<text text-anchor="middle" x="3223.5" y="-7.5" font-family="Helvetica,sans-Serif" font-size="10.00">/msg/marker_array.hpp</text>
</a>
</g>
</g>
<!-- Node22&#45;&gt;Node23 -->
<g id="edge22" class="edge">
<title>Node22&#45;&gt;Node23</title>
<path fill="none" stroke="midnightblue" d="M3278.87,-72.73C3270.14,-63.86 3256.3,-49.81 3244.64,-37.97"/>
<polygon fill="midnightblue" stroke="midnightblue" points="3246.88,-35.26 3237.37,-30.59 3241.89,-40.17 3246.88,-35.26"/>
</g>
<!-- Node24 -->
<g id="node24" class="node">
<title>Node24</title>
<g id="a_node24"><a xlink:title=" ">
<polygon fill="none" stroke="#bfbfbf" points="3305.5,-6 3305.5,-25 3397.5,-25 3397.5,-6 3305.5,-6"/>
<text text-anchor="middle" x="3351.5" y="-13" font-family="Helvetica,sans-Serif" font-size="10.00">rclcpp/time.hpp</text>
</a>
</g>
</g>
<!-- Node22&#45;&gt;Node24 -->
<g id="edge23" class="edge">
<title>Node22&#45;&gt;Node24</title>
<path fill="none" stroke="midnightblue" d="M3296.13,-72.73C3306.3,-62.4 3323.4,-45.04 3335.91,-32.33"/>
<polygon fill="midnightblue" stroke="midnightblue" points="3338.48,-34.71 3343.01,-25.13 3333.5,-29.8 3338.48,-34.71"/>
</g>
<!-- Node27&#45;&gt;Node3 -->
<g id="edge29" class="edge">
<title>Node27&#45;&gt;Node3</title>
<path fill="none" stroke="midnightblue" d="M392.92,-142.57C375.94,-139.61 357.54,-136.55 340.5,-134 213.8,-115.02 177.79,-132.83 54.5,-98 52.35,-97.39 50.17,-96.66 48,-95.86"/>
<polygon fill="midnightblue" stroke="midnightblue" points="49.33,-92.62 38.75,-92 46.63,-99.08 49.33,-92.62"/>
</g>
<!-- Node27&#45;&gt;Node7 -->
<g id="edge31" class="edge">
<title>Node27&#45;&gt;Node7</title>
<path fill="none" stroke="midnightblue" d="M403.87,-139.93C395.42,-137.82 386.74,-135.76 378.5,-134 284.18,-113.86 258.78,-118.31 164.5,-98 159.74,-96.97 154.78,-95.81 149.86,-94.59"/>
<polygon fill="midnightblue" stroke="midnightblue" points="150.48,-91.14 139.93,-92.05 148.75,-97.92 150.48,-91.14"/>
</g>
<!-- Node28 -->
<g id="node28" class="node">
<title>Node28</title>
<g id="a_node28"><a xlink:title=" ">
<polygon fill="none" stroke="#bfbfbf" points="621,-73 621,-92 668,-92 668,-73 621,-73"/>
<text text-anchor="middle" x="644.5" y="-80" font-family="Helvetica,sans-Serif" font-size="10.00">cmath</text>
</a>
</g>
</g>
<!-- Node27&#45;&gt;Node28 -->
<g id="edge27" class="edge">
<title>Node27&#45;&gt;Node28</title>
<path fill="none" stroke="midnightblue" d="M497.18,-139.92C528.77,-129.03 573.14,-113.29 611.5,-98 613.1,-97.36 614.73,-96.7 616.38,-96.01"/>
<polygon fill="midnightblue" stroke="midnightblue" points="617.93,-99.16 625.75,-92.01 615.18,-92.72 617.93,-99.16"/>
</g>
<!-- Node29 -->
<g id="node29" class="node">
<title>Node29</title>
<g id="a_node29"><a xlink:title=" ">
<polygon fill="none" stroke="#bfbfbf" points="686.5,-73 686.5,-92 744.5,-92 744.5,-73 686.5,-73"/>
<text text-anchor="middle" x="715.5" y="-80" font-family="Helvetica,sans-Serif" font-size="10.00">memory</text>
</a>
</g>
</g>
<!-- Node27&#45;&gt;Node29 -->
<g id="edge28" class="edge">
<title>Node27&#45;&gt;Node29</title>
<path fill="none" stroke="midnightblue" d="M504.32,-139.98C511.74,-137.93 519.31,-135.87 526.5,-134 592.84,-116.7 610.92,-117.98 676.5,-98 679.07,-97.22 681.71,-96.36 684.36,-95.46"/>
<polygon fill="midnightblue" stroke="midnightblue" points="685.55,-98.75 693.79,-92.1 683.2,-92.15 685.55,-98.75"/>
</g>
<!-- Node30 -->
<g id="node30" class="node">
<title>Node30</title>
<g id="a_node30"><a xlink:title=" ">
<polygon fill="none" stroke="#bfbfbf" points="763,-73 763,-92 810,-92 810,-73 763,-73"/>
<text text-anchor="middle" x="786.5" y="-80" font-family="Helvetica,sans-Serif" font-size="10.00">vector</text>
</a>
</g>
</g>
<!-- Node27&#45;&gt;Node30 -->
<g id="edge30" class="edge">
<title>Node27&#45;&gt;Node30</title>
<path fill="none" stroke="midnightblue" d="M502.28,-139.98C510.32,-137.82 518.62,-135.73 526.5,-134 626.28,-112.11 655.49,-126.78 753.5,-98 755.65,-97.37 757.84,-96.63 760.02,-95.83"/>
<polygon fill="midnightblue" stroke="midnightblue" points="761.4,-99.05 769.34,-92.03 758.76,-92.56 761.4,-99.05"/>
</g>
<!-- Node31 -->
<g id="node31" class="node">
<title>Node31</title>
<g id="a_node31"><a xlink:title=" ">
<polygon fill="none" stroke="#bfbfbf" points="828.5,-73 828.5,-92 920.5,-92 920.5,-73 828.5,-73"/>
<text text-anchor="middle" x="874.5" y="-80" font-family="Helvetica,sans-Serif" font-size="10.00">sophus/so2.hpp</text>
</a>
</g>
</g>
<!-- Node27&#45;&gt;Node31 -->
<g id="edge32" class="edge">
<title>Node27&#45;&gt;Node31</title>
<path fill="none" stroke="midnightblue" d="M501.47,-139.96C509.75,-137.74 518.34,-135.64 526.5,-134 654.69,-108.2 690.04,-122.44 818.5,-98 823.67,-97.02 829.07,-95.83 834.39,-94.56"/>
<polygon fill="midnightblue" stroke="midnightblue" points="835.58,-97.87 844.44,-92.05 833.89,-91.08 835.58,-97.87"/>
</g>
<!-- Node32 -->
<g id="node32" class="node">
<title>Node32</title>
<g id="a_node32"><a xlink:title=" ">
<polygon fill="none" stroke="#bfbfbf" points="939,-73 939,-92 1014,-92 1014,-73 939,-73"/>
<text text-anchor="middle" x="976.5" y="-80" font-family="Helvetica,sans-Serif" font-size="10.00">tf2/utils.hpp</text>
</a>
</g>
</g>
<!-- Node27&#45;&gt;Node32 -->
<g id="edge33" class="edge">
<title>Node27&#45;&gt;Node32</title>
<path fill="none" stroke="midnightblue" d="M500.66,-139.93C509.18,-137.66 518.06,-135.55 526.5,-134 703.36,-101.48 753.05,-132.7 929.5,-98 933.74,-97.17 938.14,-96.09 942.48,-94.91"/>
<polygon fill="midnightblue" stroke="midnightblue" points="943.75,-98.19 952.35,-92.01 941.77,-91.47 943.75,-98.19"/>
</g>
<!-- Node33 -->
<g id="node33" class="node">
<title>Node33</title>
<g id="a_node33"><a xlink:title=" ">
<polygon fill="none" stroke="#bfbfbf" points="174,-67.5 174,-97.5 305,-97.5 305,-67.5 174,-67.5"/>
<text text-anchor="start" x="182" y="-85.5" font-family="Helvetica,sans-Serif" font-size="10.00">tf2_geometry_msgs/tf2</text>
<text text-anchor="middle" x="239.5" y="-74.5" font-family="Helvetica,sans-Serif" font-size="10.00">_geometry_msgs.hpp</text>
</a>
</g>
</g>
<!-- Node27&#45;&gt;Node33 -->
<g id="edge34" class="edge">
<title>Node27&#45;&gt;Node33</title>
<path fill="none" stroke="midnightblue" d="M412.57,-139.99C378.01,-128.71 329.28,-112.8 292.33,-100.74"/>
<polygon fill="midnightblue" stroke="midnightblue" points="293.31,-97.38 282.72,-97.61 291.14,-104.04 293.31,-97.38"/>
</g>
<!-- Node34 -->
<g id="node34" class="node">
<title>Node34</title>
<g id="a_node34"><a target="_parent" xlink:href="../../../../../../beluga/docs/_doxygen/generated/reference/html/occupancy__grid_8hpp.html.html" xlink:title=" ">
<polygon fill="none" stroke="black" points="323.5,-67.5 323.5,-97.5 439.5,-97.5 439.5,-67.5 323.5,-67.5"/>
<text text-anchor="start" x="331.5" y="-85.5" font-family="Helvetica,sans-Serif" font-size="10.00">beluga/sensor/data</text>
<text text-anchor="middle" x="381.5" y="-74.5" font-family="Helvetica,sans-Serif" font-size="10.00">/occupancy_grid.hpp</text>
</a>
</g>
</g>
<!-- Node27&#45;&gt;Node34 -->
<g id="edge35" class="edge">
<title>Node27&#45;&gt;Node34</title>
<path fill="none" stroke="midnightblue" d="M440.52,-139.73C429.99,-129.7 415.72,-116.1 403.84,-104.79"/>
<polygon fill="midnightblue" stroke="midnightblue" points="406.11,-102.11 396.45,-97.75 401.28,-107.18 406.11,-102.11"/>
</g>
<!-- Node35 -->
<g id="node35" class="node">
<title>Node35</title>
<g id="a_node35"><a xlink:title=" ">
<polygon fill="none" stroke="#bfbfbf" points="458,-67.5 458,-97.5 603,-97.5 603,-67.5 458,-67.5"/>
<text text-anchor="start" x="466" y="-85.5" font-family="Helvetica,sans-Serif" font-size="10.00">nav_msgs/msg/occupancy</text>
<text text-anchor="middle" x="530.5" y="-74.5" font-family="Helvetica,sans-Serif" font-size="10.00">_grid.hpp</text>
</a>
</g>
</g>
<!-- Node27&#45;&gt;Node35 -->
<g id="edge36" class="edge">
<title>Node27&#45;&gt;Node35</title>
<path fill="none" stroke="midnightblue" d="M470.68,-139.73C481.42,-129.63 496.01,-115.92 508.09,-104.57"/>
<polygon fill="midnightblue" stroke="midnightblue" points="510.71,-106.9 515.6,-97.5 505.92,-101.8 510.71,-106.9"/>
</g>
<!-- Node36&#45;&gt;Node19 -->
<g id="edge43" class="edge">
<title>Node36&#45;&gt;Node19</title>
<path fill="none" stroke="midnightblue" d="M2463.51,-139.99C2522.95,-126.56 2611.4,-106.57 2665.6,-94.32"/>
<polygon fill="midnightblue" stroke="midnightblue" points="2666.66,-97.67 2675.64,-92.05 2665.11,-90.85 2666.66,-97.67"/>
</g>
<!-- Node36&#45;&gt;Node21 -->
<g id="edge41" class="edge">
<title>Node36&#45;&gt;Node21</title>
<path fill="none" stroke="midnightblue" d="M2469,-144.46C2545.91,-133.53 2675.32,-114.94 2786.5,-98 2795.56,-96.62 2805.12,-95.13 2814.51,-93.65"/>
<polygon fill="midnightblue" stroke="midnightblue" points="2815.26,-97.08 2824.59,-92.06 2814.16,-90.16 2815.26,-97.08"/>
</g>
<!-- Node36&#45;&gt;Node25 -->
<g id="edge44" class="edge">
<title>Node36&#45;&gt;Node25</title>
<path fill="none" stroke="midnightblue" d="M2469.05,-150.7C2575.65,-144.74 2789.1,-129.72 2967.5,-98 2972.94,-97.03 2978.62,-95.81 2984.2,-94.49"/>
<polygon fill="midnightblue" stroke="midnightblue" points="2985.19,-97.85 2994.04,-92.04 2983.49,-91.06 2985.19,-97.85"/>
</g>
<!-- Node37 -->
<g id="node37" class="node">
<title>Node37</title>
<g id="a_node37"><a xlink:title=" ">
<polygon fill="none" stroke="#bfbfbf" points="1727,-73 1727,-92 1804,-92 1804,-73 1727,-73"/>
<text text-anchor="middle" x="1765.5" y="-80" font-family="Helvetica,sans-Serif" font-size="10.00">Eigen/Dense</text>
</a>
</g>
</g>
<!-- Node36&#45;&gt;Node37 -->
<g id="edge38" class="edge">
<title>Node36&#45;&gt;Node37</title>
<path fill="none" stroke="midnightblue" d="M2352.91,-139.94C2343.55,-137.64 2333.77,-135.52 2324.5,-134 2099.38,-97.17 2036.74,-139.9 1812.5,-98 1808.25,-97.21 1803.84,-96.16 1799.51,-94.99"/>
<polygon fill="midnightblue" stroke="midnightblue" points="1800.21,-91.55 1789.63,-92.1 1798.24,-98.27 1800.21,-91.55"/>
</g>
<!-- Node38 -->
<g id="node38" class="node">
<title>Node38</title>
<g id="a_node38"><a xlink:title=" ">
<polygon fill="none" stroke="#bfbfbf" points="1822,-73 1822,-92 1991,-92 1991,-73 1822,-73"/>
<text text-anchor="middle" x="1906.5" y="-80" font-family="Helvetica,sans-Serif" font-size="10.00">beluga/eigen_compatibility.hpp</text>
</a>
</g>
</g>
<!-- Node36&#45;&gt;Node38 -->
<g id="edge39" class="edge">
<title>Node36&#45;&gt;Node38</title>
<path fill="none" stroke="midnightblue" d="M2351.61,-139.93C2342.64,-137.72 2333.33,-135.63 2324.5,-134 2182.02,-107.72 2144.13,-117.05 2000.5,-98 1990.33,-96.65 1979.56,-95.1 1969.07,-93.53"/>
<polygon fill="midnightblue" stroke="midnightblue" points="1969.55,-90.06 1959.14,-92.02 1968.5,-96.98 1969.55,-90.06"/>
</g>
<!-- Node39 -->
<g id="node39" class="node">
<title>Node39</title>
<g id="a_node39"><a target="_parent" xlink:href="../../../../../../beluga/docs/_doxygen/generated/reference/html/sparse__point__cloud_8hpp.html.html" xlink:title=" ">
<polygon fill="none" stroke="black" points="2009.5,-67.5 2009.5,-97.5 2143.5,-97.5 2143.5,-67.5 2009.5,-67.5"/>
<text text-anchor="start" x="2017.5" y="-85.5" font-family="Helvetica,sans-Serif" font-size="10.00">beluga/sensor/data</text>
<text text-anchor="middle" x="2076.5" y="-74.5" font-family="Helvetica,sans-Serif" font-size="10.00">/sparse_point_cloud.hpp</text>
</a>
</g>
</g>
<!-- Node36&#45;&gt;Node39 -->
<g id="edge40" class="edge">
<title>Node36&#45;&gt;Node39</title>
<path fill="none" stroke="midnightblue" d="M2348.99,-139.96C2340.81,-137.89 2332.44,-135.84 2324.5,-134 2292.62,-126.62 2213.87,-110.73 2153.6,-98.73"/>
<polygon fill="midnightblue" stroke="midnightblue" points="2154.2,-95.28 2143.71,-96.77 2152.84,-102.15 2154.2,-95.28"/>
</g>
<!-- Node40 -->
<g id="node40" class="node">
<title>Node40</title>
<g id="a_node40"><a xlink:title=" ">
<polygon fill="none" stroke="#bfbfbf" points="2162,-73 2162,-92 2317,-92 2317,-73 2162,-73"/>
<text text-anchor="middle" x="2239.5" y="-80" font-family="Helvetica,sans-Serif" font-size="10.00">range/v3/view/any_view.hpp</text>
</a>
</g>
</g>
<!-- Node36&#45;&gt;Node40 -->
<g id="edge42" class="edge">
<title>Node36&#45;&gt;Node40</title>
<path fill="none" stroke="midnightblue" d="M2369.11,-139.9C2339.7,-127.11 2296.74,-108.41 2268.45,-96.1"/>
<polygon fill="midnightblue" stroke="midnightblue" points="2269.68,-92.81 2259.11,-92.03 2266.88,-99.23 2269.68,-92.81"/>
</g>
<!-- Node41 -->
<g id="node41" class="node">
<title>Node41</title>
<g id="a_node41"><a xlink:title=" ">
<polygon fill="none" stroke="#bfbfbf" points="2335.5,-67.5 2335.5,-97.5 2467.5,-97.5 2467.5,-67.5 2335.5,-67.5"/>
<text text-anchor="start" x="2343.5" y="-85.5" font-family="Helvetica,sans-Serif" font-size="10.00">sensor_msgs/msg/point</text>
<text text-anchor="middle" x="2401.5" y="-74.5" font-family="Helvetica,sans-Serif" font-size="10.00">_cloud2.hpp</text>
</a>
</g>
</g>
<!-- Node36&#45;&gt;Node41 -->
<g id="edge45" class="edge">
<title>Node36&#45;&gt;Node41</title>
<path fill="none" stroke="midnightblue" d="M2401.5,-139.73C2401.5,-130.66 2401.5,-118.66 2401.5,-108.08"/>
<polygon fill="midnightblue" stroke="midnightblue" points="2405,-107.75 2401.5,-97.75 2398,-107.75 2405,-107.75"/>
</g>
<!-- Node42 -->
<g id="node42" class="node">
<title>Node42</title>
<g id="a_node42"><a xlink:title=" ">
<polygon fill="none" stroke="#bfbfbf" points="2485.5,-67.5 2485.5,-97.5 2631.5,-97.5 2631.5,-67.5 2485.5,-67.5"/>
<text text-anchor="start" x="2493.5" y="-85.5" font-family="Helvetica,sans-Serif" font-size="10.00">sensor_msgs/point_cloud2</text>
<text text-anchor="middle" x="2558.5" y="-74.5" font-family="Helvetica,sans-Serif" font-size="10.00">_iterator.hpp</text>
</a>
</g>
</g>
<!-- Node36&#45;&gt;Node42 -->
<g id="edge46" class="edge">
<title>Node36&#45;&gt;Node42</title>
<path fill="none" stroke="midnightblue" d="M2432.89,-139.9C2457.28,-128.95 2491.29,-113.68 2517.78,-101.79"/>
<polygon fill="midnightblue" stroke="midnightblue" points="2519.47,-104.86 2527.16,-97.57 2516.6,-98.48 2519.47,-104.86"/>
</g>
<!-- Node43 -->
<g id="node43" class="node">
<title>Node43</title>
<g id="a_node43"><a xlink:title=" ">
<polygon fill="none" stroke="#bfbfbf" points="1574.5,-67.5 1574.5,-97.5 1708.5,-97.5 1708.5,-67.5 1574.5,-67.5"/>
<text text-anchor="start" x="1582.5" y="-85.5" font-family="Helvetica,sans-Serif" font-size="10.00">sensor_msgs/point_field</text>
<text text-anchor="middle" x="1641.5" y="-74.5" font-family="Helvetica,sans-Serif" font-size="10.00">_conversion.hpp</text>
</a>
</g>
</g>
<!-- Node36&#45;&gt;Node43 -->
<g id="edge47" class="edge">
<title>Node36&#45;&gt;Node43</title>
<path fill="none" stroke="midnightblue" d="M2353.33,-139.96C2343.85,-137.63 2333.91,-135.49 2324.5,-134 2060.82,-92.34 1987.46,-130.44 1718.62,-98.02"/>
<polygon fill="midnightblue" stroke="midnightblue" points="1718.91,-94.53 1708.56,-96.78 1718.06,-101.47 1718.91,-94.53"/>
</g>
</g>
</svg>
        <g id="navigator" transform="translate(0 0)" fill="#404254">
                <rect fill="#f2f5e9" fill-opacity="0.5" stroke="#606060" stroke-width=".5" x="0" y="0" width="60" height="60"/>
                <use id="zoomplus" xlink:href="#zoomPlus" x="17" y="9" onmousedown="handleZoom(evt,'in')"/>
                <use id="zoomminus" xlink:href="#zoomMin" x="42" y="9" onmousedown="handleZoom(evt,'out')"/>
                <use id="reset" xlink:href="#resetDef" x="30" y="36" onmousedown="handleReset()"/>
                <g id="arrowUp" xlink:href="#dirArrow" transform="translate(30 24)" onmousedown="handlePan(0,-1)">
                  <use xlink:href="#rim" fill="#404040">
                        <set attributeName="fill" to="#808080" begin="arrowUp.mouseover" end="arrowUp.mouseout"/>
                  </use>
                  <path fill="none" stroke="white" stroke-width="1.5" d="M0,-3.0v7 M-2.5,-0.5L0,-3.0L2.5,-0.5"/>
                </g>
                <g id="arrowRight" xlink:href="#dirArrow" transform="rotate(90) translate(36 -43)" onmousedown="handlePan(1,0)">
                  <use xlink:href="#rim" fill="#404040">
                        <set attributeName="fill" to="#808080" begin="arrowRight.mouseover" end="arrowRight.mouseout"/>
                  </use>
                  <path fill="none" stroke="white" stroke-width="1.5" d="M0,-3.0v7 M-2.5,-0.5L0,-3.0L2.5,-0.5"/>
                </g>
                <g id="arrowDown" xlink:href="#dirArrow" transform="rotate(180) translate(-30 -48)" onmousedown="handlePan(0,1)">
                  <use xlink:href="#rim" fill="#404040">
                        <set attributeName="fill" to="#808080" begin="arrowDown.mouseover" end="arrowDown.mouseout"/>
                  </use>
                  <path fill="none" stroke="white" stroke-width="1.5" d="M0,-3.0v7 M-2.5,-0.5L0,-3.0L2.5,-0.5"/>
                </g>
                <g id="arrowLeft" xlink:href="#dirArrow" transform="rotate(270) translate(-36 17)" onmousedown="handlePan(-1,0)">
                  <use xlink:href="#rim" fill="#404040">
                        <set attributeName="fill" to="#808080" begin="arrowLeft.mouseover" end="arrowLeft.mouseout"/>
                  </use>
                  <path fill="none" stroke="white" stroke-width="1.5" d="M0,-3.0v7 M-2.5,-0.5L0,-3.0L2.5,-0.5"/>
                </g>
        </g>
        <svg viewBox="0 0 15 15" width="100%" height="30px" preserveAspectRatio="xMaxYMin meet">
         <g id="arrow_out" transform="scale(0.3 0.3)">
          <a xlink:href="amcl_8hpp__incl_org.svg" target="_base">
           <rect id="button" ry="5" rx="5" y="6" x="6" height="38" width="38"
                fill="#f2f5e9" fill-opacity="0.5" stroke="#606060" stroke-width="1.0"/>
           <path id="arrow"
             d="M 11.500037,31.436501 C 11.940474,20.09759 22.043105,11.32322 32.158766,21.979434 L 37.068811,17.246167 C 37.068811,17.246167 37.088388,32 37.088388,32 L 22.160133,31.978069 C 22.160133,31.978069 26.997745,27.140456 26.997745,27.140456 C 18.528582,18.264221 13.291696,25.230495 11.500037,31.436501 z"
             style="fill:#404040;"/>
          </a>
         </g>
        </svg>
</svg>
