<?xml version="1.0" encoding="UTF-8" standalone="no"?>
<!DOCTYPE svg PUBLIC "-//W3C//DTD SVG 1.1//EN"
 "http://www.w3.org/Graphics/SVG/1.1/DTD/svg11.dtd">
<!-- Generated by graphviz version 2.43.0 (0)
 -->
<!-- Title: /home/runner/work/beluga/beluga/beluga_ros/include/beluga_ros/beluga_ros.hpp Pages: 1 -->
<svg width="2375pt" height="251pt"
 viewBox="0.00 0.00 2374.50 251.00" xmlns="http://www.w3.org/2000/svg" xmlns:xlink="http://www.w3.org/1999/xlink">
<g id="graph0" class="graph" transform="scale(1 1) rotate(0) translate(4 247)">
<title>/home/runner/work/beluga/beluga/beluga_ros/include/beluga_ros/beluga_ros.hpp</title>
<!-- Node1 -->
<g id="node1" class="node">
<title>Node1</title>
<g id="a_node1"><a xlink:title="Includes all the Beluga ROS API.">
<polygon fill="#bfbfbf" stroke="black" points="1125.5,-201.5 1125.5,-242.5 1275.5,-242.5 1275.5,-201.5 1125.5,-201.5"/>
<text text-anchor="start" x="1133.5" y="-230.5" font-family="Helvetica,sans-Serif" font-size="10.00">/home/runner/work/beluga</text>
<text text-anchor="start" x="1133.5" y="-219.5" font-family="Helvetica,sans-Serif" font-size="10.00">/beluga/beluga_ros/include</text>
<text text-anchor="middle" x="1200.5" y="-208.5" font-family="Helvetica,sans-Serif" font-size="10.00">/beluga_ros/beluga_ros.hpp</text>
</a>
</g>
</g>
<!-- Node2 -->
<g id="node2" class="node">
<title>Node2</title>
<g id="a_node2"><a xlink:href="amcl_8hpp.html" target="_top" xlink:title="Generic two&#45;dimensional implementation of the Adaptive Monte Carlo Localization (AMCL) algorithm in 2...">
<polygon fill="none" stroke="black" points="528.5,-140 528.5,-159 646.5,-159 646.5,-140 528.5,-140"/>
<text text-anchor="middle" x="587.5" y="-147" font-family="Helvetica,sans-Serif" font-size="10.00">beluga_ros/amcl.hpp</text>
</a>
</g>
</g>
<!-- Node1&#45;&gt;Node2 -->
<g id="edge1" class="edge">
<title>Node1&#45;&gt;Node2</title>
<path fill="none" stroke="midnightblue" d="M1125.33,-212.36C1005.54,-198.58 773.04,-171.84 656.95,-158.49"/>
<polygon fill="midnightblue" stroke="midnightblue" points="657.1,-154.98 646.76,-157.32 656.3,-161.94 657.1,-154.98"/>
</g>
<!-- Node7 -->
<g id="node7" class="node">
<title>Node7</title>
<g id="a_node7"><a xlink:href="laser__scan_8hpp.html" target="_top" xlink:title="Implementation of sensor_msgs/LaserScan wrapper type.">
<polygon fill="none" stroke="black" points="172.5,-73 172.5,-92 318.5,-92 318.5,-73 172.5,-73"/>
<text text-anchor="middle" x="245.5" y="-80" font-family="Helvetica,sans-Serif" font-size="10.00">beluga_ros/laser_scan.hpp</text>
</a>
</g>
</g>
<!-- Node1&#45;&gt;Node7 -->
<g id="edge23" class="edge">
<title>Node1&#45;&gt;Node7</title>
<path fill="none" stroke="midnightblue" d="M1125.26,-219.89C999,-216.89 736.94,-205.82 519.5,-165 430.1,-148.22 328.27,-113.69 277.63,-95.43"/>
<polygon fill="midnightblue" stroke="midnightblue" points="278.79,-92.13 268.2,-92 276.4,-98.71 278.79,-92.13"/>
</g>
<!-- Node13 -->
<g id="node13" class="node">
<title>Node13</title>
<g id="a_node13"><a xlink:href="occupancy__grid_8hpp.html" target="_top" xlink:title="Implementation of nav_msgs/OccupancyGrid wrapper type.">
<polygon fill="none" stroke="black" points="644,-67.5 644,-97.5 769,-97.5 769,-67.5 644,-67.5"/>
<text text-anchor="start" x="652" y="-85.5" font-family="Helvetica,sans-Serif" font-size="10.00">beluga_ros/occupancy</text>
<text text-anchor="middle" x="706.5" y="-74.5" font-family="Helvetica,sans-Serif" font-size="10.00">_grid.hpp</text>
</a>
</g>
</g>
<!-- Node1&#45;&gt;Node13 -->
<g id="edge24" class="edge">
<title>Node1&#45;&gt;Node13</title>
<path fill="none" stroke="midnightblue" d="M1130.25,-201.45C1032.84,-174.33 858.42,-125.79 766.68,-100.25"/>
<polygon fill="midnightblue" stroke="midnightblue" points="767.56,-96.86 756.99,-97.55 765.68,-103.61 767.56,-96.86"/>
</g>
<!-- Node22 -->
<g id="node22" class="node">
<title>Node22</title>
<g id="a_node22"><a xlink:href="particle__cloud_8hpp.html" target="_top" xlink:title="Utilities for particle cloud I/O over ROS interfaces.">
<polygon fill="none" stroke="black" points="1310.5,-134.5 1310.5,-164.5 1420.5,-164.5 1420.5,-134.5 1310.5,-134.5"/>
<text text-anchor="start" x="1318.5" y="-152.5" font-family="Helvetica,sans-Serif" font-size="10.00">beluga_ros/particle</text>
<text text-anchor="middle" x="1365.5" y="-141.5" font-family="Helvetica,sans-Serif" font-size="10.00">_cloud.hpp</text>
</a>
</g>
</g>
<!-- Node1&#45;&gt;Node22 -->
<g id="edge25" class="edge">
<title>Node1&#45;&gt;Node22</title>
<path fill="none" stroke="midnightblue" d="M1246.46,-201.36C1270.51,-191.08 1299.76,-178.59 1323.24,-168.55"/>
<polygon fill="midnightblue" stroke="midnightblue" points="1324.77,-171.71 1332.59,-164.56 1322.02,-165.27 1324.77,-171.71"/>
</g>
<!-- Node31 -->
<g id="node31" class="node">
<title>Node31</title>
<g id="a_node31"><a xlink:href="tf2__eigen_8hpp.html" target="_top" xlink:title="Message conversion API overloads for Eigen types.">
<polygon fill="none" stroke="black" points="2226.5,-73 2226.5,-92 2366.5,-92 2366.5,-73 2226.5,-73"/>
<text text-anchor="middle" x="2296.5" y="-80" font-family="Helvetica,sans-Serif" font-size="10.00">beluga_ros/tf2_eigen.hpp</text>
</a>
</g>
</g>
<!-- Node1&#45;&gt;Node31 -->
<g id="edge50" class="edge">
<title>Node1&#45;&gt;Node31</title>
<path fill="none" stroke="midnightblue" d="M1275.58,-212.34C1368.56,-201.55 1531.77,-182.42 1671.5,-165 1870.98,-140.14 2106.01,-108.99 2222.85,-93.38"/>
<polygon fill="midnightblue" stroke="midnightblue" points="2223.65,-96.8 2233.1,-92.01 2222.72,-89.86 2223.65,-96.8"/>
</g>
<!-- Node33 -->
<g id="node33" class="node">
<title>Node33</title>
<g id="a_node33"><a xlink:href="tf2__sophus_8hpp.html" target="_top" xlink:title="Message conversion API overloads for Sophus types.">
<polygon fill="none" stroke="black" points="1985,-73 1985,-92 2132,-92 2132,-73 1985,-73"/>
<text text-anchor="middle" x="2058.5" y="-80" font-family="Helvetica,sans-Serif" font-size="10.00">beluga_ros/tf2_sophus.hpp</text>
</a>
</g>
</g>
<!-- Node1&#45;&gt;Node33 -->
<g id="edge51" class="edge">
<title>Node1&#45;&gt;Node33</title>
<path fill="none" stroke="midnightblue" d="M1275.76,-209.53C1414.45,-188.28 1719.72,-141.05 1976.5,-98 1984.51,-96.66 1992.95,-95.21 2001.25,-93.76"/>
<polygon fill="midnightblue" stroke="midnightblue" points="2002.02,-97.18 2011.26,-92 2000.81,-90.28 2002.02,-97.18"/>
</g>
<!-- Node3 -->
<g id="node3" class="node">
<title>Node3</title>
<g id="a_node3"><a xlink:title=" ">
<polygon fill="none" stroke="#bfbfbf" points="531.5,-73 531.5,-92 587.5,-92 587.5,-73 531.5,-73"/>
<text text-anchor="middle" x="559.5" y="-80" font-family="Helvetica,sans-Serif" font-size="10.00">optional</text>
</a>
</g>
</g>
<!-- Node2&#45;&gt;Node3 -->
<g id="edge2" class="edge">
<title>Node2&#45;&gt;Node3</title>
<path fill="none" stroke="midnightblue" d="M583.72,-139.73C579.53,-129.99 572.63,-113.98 567.27,-101.53"/>
<polygon fill="midnightblue" stroke="midnightblue" points="570.39,-99.93 563.22,-92.13 563.96,-102.7 570.39,-99.93"/>
</g>
<!-- Node4 -->
<g id="node4" class="node">
<title>Node4</title>
<g id="a_node4"><a xlink:title=" ">
<polygon fill="none" stroke="#bfbfbf" points="532,-6 532,-25 577,-25 577,-6 532,-6"/>
<text text-anchor="middle" x="554.5" y="-13" font-family="Helvetica,sans-Serif" font-size="10.00">utility</text>
</a>
</g>
</g>
<!-- Node2&#45;&gt;Node4 -->
<g id="edge3" class="edge">
<title>Node2&#45;&gt;Node4</title>
<path fill="none" stroke="midnightblue" d="M590.99,-139.63C596.48,-124.32 605.6,-92.17 596.5,-67 591.7,-53.73 581.73,-41.49 572.7,-32.38"/>
<polygon fill="midnightblue" stroke="midnightblue" points="574.84,-29.58 565.17,-25.24 570.02,-34.66 574.84,-29.58"/>
</g>
<!-- Node5 -->
<g id="node5" class="node">
<title>Node5</title>
<g id="a_node5"><a xlink:title=" ">
<polygon fill="none" stroke="#bfbfbf" points="337,-73 337,-92 388,-92 388,-73 337,-73"/>
<text text-anchor="middle" x="362.5" y="-80" font-family="Helvetica,sans-Serif" font-size="10.00">variant</text>
</a>
</g>
</g>
<!-- Node2&#45;&gt;Node5 -->
<g id="edge4" class="edge">
<title>Node2&#45;&gt;Node5</title>
<path fill="none" stroke="midnightblue" d="M548.6,-139.96C509.65,-131 448.24,-115.77 396.5,-98 394.63,-97.36 392.73,-96.66 390.81,-95.93"/>
<polygon fill="midnightblue" stroke="midnightblue" points="391.96,-92.62 381.37,-92.12 389.33,-99.11 391.96,-92.62"/>
</g>
<!-- Node6 -->
<g id="node6" class="node">
<title>Node6</title>
<g id="a_node6"><a target="_parent" xlink:href="../../../../../../beluga/docs/_doxygen/generated/reference/html/beluga_8hpp.html.html" xlink:title=" ">
<polygon fill="none" stroke="black" points="406,-73 406,-92 513,-92 513,-73 406,-73"/>
<text text-anchor="middle" x="459.5" y="-80" font-family="Helvetica,sans-Serif" font-size="10.00">beluga/beluga.hpp</text>
</a>
</g>
</g>
<!-- Node2&#45;&gt;Node6 -->
<g id="edge5" class="edge">
<title>Node2&#45;&gt;Node6</title>
<path fill="none" stroke="midnightblue" d="M570.5,-139.87C548.79,-128.84 511.01,-109.66 485.63,-96.77"/>
<polygon fill="midnightblue" stroke="midnightblue" points="487.07,-93.57 476.57,-92.17 483.9,-99.82 487.07,-93.57"/>
</g>
<!-- Node2&#45;&gt;Node7 -->
<g id="edge6" class="edge">
<title>Node2&#45;&gt;Node7</title>
<path fill="none" stroke="midnightblue" d="M542.44,-139.94C480.07,-128.08 367.55,-106.7 300.36,-93.93"/>
<polygon fill="midnightblue" stroke="midnightblue" points="300.87,-90.46 290.39,-92.03 299.56,-97.34 300.87,-90.46"/>
</g>
<!-- Node2&#45;&gt;Node13 -->
<g id="edge12" class="edge">
<title>Node2&#45;&gt;Node13</title>
<path fill="none" stroke="midnightblue" d="M603.55,-139.73C620.95,-130.23 649.24,-114.78 671.77,-102.47"/>
<polygon fill="midnightblue" stroke="midnightblue" points="673.61,-105.45 680.71,-97.59 670.25,-99.31 673.61,-105.45"/>
</g>
<!-- Node21 -->
<g id="node21" class="node">
<title>Node21</title>
<g id="a_node21"><a xlink:title=" ">
<polygon fill="none" stroke="#bfbfbf" points="787.5,-67.5 787.5,-97.5 897.5,-97.5 897.5,-67.5 787.5,-67.5"/>
<text text-anchor="start" x="795.5" y="-85.5" font-family="Helvetica,sans-Serif" font-size="10.00">range/v3/view/take</text>
<text text-anchor="middle" x="842.5" y="-74.5" font-family="Helvetica,sans-Serif" font-size="10.00">_exactly.hpp</text>
</a>
</g>
</g>
<!-- Node2&#45;&gt;Node21 -->
<g id="edge22" class="edge">
<title>Node2&#45;&gt;Node21</title>
<path fill="none" stroke="midnightblue" d="M621.1,-139.94C660.78,-129.82 727.7,-112.76 777.6,-100.04"/>
<polygon fill="midnightblue" stroke="midnightblue" points="778.52,-103.42 787.34,-97.56 776.79,-96.64 778.52,-103.42"/>
</g>
<!-- Node8 -->
<g id="node8" class="node">
<title>Node8</title>
<g id="a_node8"><a xlink:title=" ">
<polygon fill="none" stroke="#bfbfbf" points="181.5,-6 181.5,-25 309.5,-25 309.5,-6 181.5,-6"/>
<text text-anchor="middle" x="245.5" y="-13" font-family="Helvetica,sans-Serif" font-size="10.00">range/v3/view/iota.hpp</text>
</a>
</g>
</g>
<!-- Node7&#45;&gt;Node8 -->
<g id="edge7" class="edge">
<title>Node7&#45;&gt;Node8</title>
<path fill="none" stroke="midnightblue" d="M245.5,-72.73C245.5,-63.18 245.5,-47.62 245.5,-35.28"/>
<polygon fill="midnightblue" stroke="midnightblue" points="249,-35.13 245.5,-25.13 242,-35.13 249,-35.13"/>
</g>
<!-- Node9 -->
<g id="node9" class="node">
<title>Node9</title>
<g id="a_node9"><a target="_parent" xlink:href="../../../../../../beluga/docs/_doxygen/generated/reference/html/laser__scan_8hpp.html.html" xlink:title=" ">
<polygon fill="none" stroke="black" points="327.5,-0.5 327.5,-30.5 437.5,-30.5 437.5,-0.5 327.5,-0.5"/>
<text text-anchor="start" x="335.5" y="-18.5" font-family="Helvetica,sans-Serif" font-size="10.00">beluga/sensor/data</text>
<text text-anchor="middle" x="382.5" y="-7.5" font-family="Helvetica,sans-Serif" font-size="10.00">/laser_scan.hpp</text>
</a>
</g>
</g>
<!-- Node7&#45;&gt;Node9 -->
<g id="edge8" class="edge">
<title>Node7&#45;&gt;Node9</title>
<path fill="none" stroke="midnightblue" d="M263.69,-72.87C283.98,-63.24 317.4,-47.39 343.63,-34.94"/>
<polygon fill="midnightblue" stroke="midnightblue" points="345.4,-37.98 352.93,-30.53 342.4,-31.65 345.4,-37.98"/>
</g>
<!-- Node10 -->
<g id="node10" class="node">
<title>Node10</title>
<g id="a_node10"><a target="_parent" xlink:href="../../../../../../beluga/docs/_doxygen/generated/reference/html/take__evenly_8hpp.html.html" xlink:title=" ">
<polygon fill="none" stroke="black" points="0,-6 0,-25 163,-25 163,-6 0,-6"/>
<text text-anchor="middle" x="81.5" y="-13" font-family="Helvetica,sans-Serif" font-size="10.00">beluga/views/take_evenly.hpp</text>
</a>
</g>
</g>
<!-- Node7&#45;&gt;Node10 -->
<g id="edge9" class="edge">
<title>Node7&#45;&gt;Node10</title>
<path fill="none" stroke="midnightblue" d="M223.72,-72.87C195.22,-61.57 145.07,-41.7 112.58,-28.82"/>
<polygon fill="midnightblue" stroke="midnightblue" points="113.69,-25.49 103.11,-25.06 111.11,-32 113.69,-25.49"/>
</g>
<!-- Node11 -->
<g id="node11" class="node">
<title>Node11</title>
<g id="a_node11"><a xlink:href="messages_8hpp_source.html" target="_top" xlink:title=" ">
<polygon fill="none" stroke="black" points="1986,-6 1986,-25 2129,-25 2129,-6 1986,-6"/>
<text text-anchor="middle" x="2057.5" y="-13" font-family="Helvetica,sans-Serif" font-size="10.00">beluga_ros/messages.hpp</text>
</a>
</g>
</g>
<!-- Node7&#45;&gt;Node11 -->
<g id="edge10" class="edge">
<title>Node7&#45;&gt;Node11</title>
<path fill="none" stroke="midnightblue" d="M286.62,-72.96C299.64,-70.6 314.12,-68.32 327.5,-67 1057.46,5.07 1247.7,-104.64 1977.5,-31 1987.19,-30.02 1997.48,-28.52 2007.32,-26.84"/>
<polygon fill="midnightblue" stroke="midnightblue" points="2008.16,-30.25 2017.39,-25.05 2006.93,-23.36 2008.16,-30.25"/>
</g>
<!-- Node12 -->
<g id="node12" class="node">
<title>Node12</title>
<g id="a_node12"><a xlink:title=" ">
<polygon fill="none" stroke="#bfbfbf" points="1099.5,-6 1099.5,-25 1191.5,-25 1191.5,-6 1099.5,-6"/>
<text text-anchor="middle" x="1145.5" y="-13" font-family="Helvetica,sans-Serif" font-size="10.00">sophus/se3.hpp</text>
</a>
</g>
</g>
<!-- Node7&#45;&gt;Node12 -->
<g id="edge11" class="edge">
<title>Node7&#45;&gt;Node12</title>
<path fill="none" stroke="midnightblue" d="M287.91,-72.95C300.6,-70.68 314.57,-68.45 327.5,-67 653.39,-30.37 738.64,-67.97 1064.5,-31 1073.98,-29.92 1084.03,-28.42 1093.7,-26.79"/>
<polygon fill="midnightblue" stroke="midnightblue" points="1094.36,-30.23 1103.61,-25.06 1093.16,-23.33 1094.36,-30.23"/>
</g>
<!-- Node13&#45;&gt;Node4 -->
<g id="edge15" class="edge">
<title>Node13&#45;&gt;Node4</title>
<path fill="none" stroke="midnightblue" d="M672.52,-67.49C648.43,-57.48 615.39,-43.62 586.5,-31 585.14,-30.4 583.74,-29.79 582.34,-29.17"/>
<polygon fill="midnightblue" stroke="midnightblue" points="583.63,-25.91 573.08,-25.02 580.77,-32.3 583.63,-25.91"/>
</g>
<!-- Node13&#45;&gt;Node11 -->
<g id="edge21" class="edge">
<title>Node13&#45;&gt;Node11</title>
<path fill="none" stroke="midnightblue" d="M769.23,-68.22C772.36,-67.76 775.46,-67.35 778.5,-67 1308.15,-6.16 1447.29,-86.7 1977.5,-31 1987.09,-29.99 1997.25,-28.49 2007,-26.83"/>
<polygon fill="midnightblue" stroke="midnightblue" points="2007.74,-30.26 2016.97,-25.06 2006.51,-23.36 2007.74,-30.26"/>
</g>
<!-- Node14 -->
<g id="node14" class="node">
<title>Node14</title>
<g id="a_node14"><a xlink:title=" ">
<polygon fill="none" stroke="#bfbfbf" points="905,-6 905,-25 952,-25 952,-6 905,-6"/>
<text text-anchor="middle" x="928.5" y="-13" font-family="Helvetica,sans-Serif" font-size="10.00">cmath</text>
</a>
</g>
</g>
<!-- Node13&#45;&gt;Node14 -->
<g id="edge13" class="edge">
<title>Node13&#45;&gt;Node14</title>
<path fill="none" stroke="midnightblue" d="M768.51,-67.47C805.75,-58.42 853.84,-45.62 895.5,-31 897.16,-30.42 898.86,-29.78 900.57,-29.12"/>
<polygon fill="midnightblue" stroke="midnightblue" points="902.3,-32.19 910.2,-25.13 899.62,-25.73 902.3,-32.19"/>
</g>
<!-- Node15 -->
<g id="node15" class="node">
<title>Node15</title>
<g id="a_node15"><a xlink:title=" ">
<polygon fill="none" stroke="#bfbfbf" points="997.5,-6 997.5,-25 1055.5,-25 1055.5,-6 997.5,-6"/>
<text text-anchor="middle" x="1026.5" y="-13" font-family="Helvetica,sans-Serif" font-size="10.00">memory</text>
</a>
</g>
</g>
<!-- Node13&#45;&gt;Node15 -->
<g id="edge14" class="edge">
<title>Node13&#45;&gt;Node15</title>
<path fill="none" stroke="midnightblue" d="M769.33,-68.83C772.43,-68.21 775.5,-67.6 778.5,-67 859.8,-50.82 880.38,-48.03 961.5,-31 969.96,-29.22 979.02,-27.25 987.61,-25.34"/>
<polygon fill="midnightblue" stroke="midnightblue" points="988.42,-28.75 997.41,-23.15 986.89,-21.92 988.42,-28.75"/>
</g>
<!-- Node16 -->
<g id="node16" class="node">
<title>Node16</title>
<g id="a_node16"><a xlink:title=" ">
<polygon fill="none" stroke="#bfbfbf" points="595,-6 595,-25 642,-25 642,-6 595,-6"/>
<text text-anchor="middle" x="618.5" y="-13" font-family="Helvetica,sans-Serif" font-size="10.00">vector</text>
</a>
</g>
</g>
<!-- Node13&#45;&gt;Node16 -->
<g id="edge16" class="edge">
<title>Node13&#45;&gt;Node16</title>
<path fill="none" stroke="midnightblue" d="M687.41,-67.4C672.92,-56.7 653.07,-42.03 638.39,-31.19"/>
<polygon fill="midnightblue" stroke="midnightblue" points="640.14,-28.13 630.02,-25.01 635.98,-33.76 640.14,-28.13"/>
</g>
<!-- Node17 -->
<g id="node17" class="node">
<title>Node17</title>
<g id="a_node17"><a xlink:title=" ">
<polygon fill="none" stroke="#bfbfbf" points="1319.5,-6 1319.5,-25 1411.5,-25 1411.5,-6 1319.5,-6"/>
<text text-anchor="middle" x="1365.5" y="-13" font-family="Helvetica,sans-Serif" font-size="10.00">sophus/se2.hpp</text>
</a>
</g>
</g>
<!-- Node13&#45;&gt;Node17 -->
<g id="edge17" class="edge">
<title>Node13&#45;&gt;Node17</title>
<path fill="none" stroke="midnightblue" d="M769.26,-68.42C772.38,-67.91 775.47,-67.43 778.5,-67 964.84,-40.38 1012.97,-47.24 1200.5,-31 1236.69,-27.87 1277.34,-24.29 1309.24,-21.48"/>
<polygon fill="midnightblue" stroke="midnightblue" points="1309.62,-24.96 1319.27,-20.59 1309,-17.99 1309.62,-24.96"/>
</g>
<!-- Node18 -->
<g id="node18" class="node">
<title>Node18</title>
<g id="a_node18"><a xlink:title=" ">
<polygon fill="none" stroke="#bfbfbf" points="660.5,-6 660.5,-25 752.5,-25 752.5,-6 660.5,-6"/>
<text text-anchor="middle" x="706.5" y="-13" font-family="Helvetica,sans-Serif" font-size="10.00">sophus/so2.hpp</text>
</a>
</g>
</g>
<!-- Node13&#45;&gt;Node18 -->
<g id="edge18" class="edge">
<title>Node13&#45;&gt;Node18</title>
<path fill="none" stroke="midnightblue" d="M706.5,-67.4C706.5,-58.06 706.5,-45.71 706.5,-35.52"/>
<polygon fill="midnightblue" stroke="midnightblue" points="710,-35.19 706.5,-25.19 703,-35.19 710,-35.19"/>
</g>
<!-- Node19 -->
<g id="node19" class="node">
<title>Node19</title>
<g id="a_node19"><a xlink:title=" ">
<polygon fill="none" stroke="#bfbfbf" points="1619,-6 1619,-25 1682,-25 1682,-6 1619,-6"/>
<text text-anchor="middle" x="1650.5" y="-13" font-family="Helvetica,sans-Serif" font-size="10.00">tf2/utils.h</text>
</a>
</g>
</g>
<!-- Node13&#45;&gt;Node19 -->
<g id="edge19" class="edge">
<title>Node13&#45;&gt;Node19</title>
<path fill="none" stroke="midnightblue" d="M769.24,-68.32C772.37,-67.83 775.46,-67.39 778.5,-67 1061.97,-30.7 1135.22,-47.99 1420.5,-31 1486.27,-27.08 1562.59,-22.21 1608.68,-19.22"/>
<polygon fill="midnightblue" stroke="midnightblue" points="1609.13,-22.7 1618.88,-18.56 1608.68,-15.72 1609.13,-22.7"/>
</g>
<!-- Node20 -->
<g id="node20" class="node">
<title>Node20</title>
<g id="a_node20"><a target="_parent" xlink:href="../../../../../../beluga/docs/_doxygen/generated/reference/html/occupancy__grid_8hpp.html.html" xlink:title=" ">
<polygon fill="none" stroke="black" points="770.5,-0.5 770.5,-30.5 886.5,-30.5 886.5,-0.5 770.5,-0.5"/>
<text text-anchor="start" x="778.5" y="-18.5" font-family="Helvetica,sans-Serif" font-size="10.00">beluga/sensor/data</text>
<text text-anchor="middle" x="828.5" y="-7.5" font-family="Helvetica,sans-Serif" font-size="10.00">/occupancy_grid.hpp</text>
</a>
</g>
</g>
<!-- Node13&#45;&gt;Node20 -->
<g id="edge20" class="edge">
<title>Node13&#45;&gt;Node20</title>
<path fill="none" stroke="midnightblue" d="M732.97,-67.4C750.56,-58.03 773.85,-45.62 793.04,-35.39"/>
<polygon fill="midnightblue" stroke="midnightblue" points="794.9,-38.37 802.08,-30.58 791.61,-32.19 794.9,-38.37"/>
</g>
<!-- Node22&#45;&gt;Node11 -->
<g id="edge39" class="edge">
<title>Node22&#45;&gt;Node11</title>
<path fill="none" stroke="midnightblue" d="M1420.52,-146.96C1593.59,-141.85 2116.86,-124.29 2141.5,-98 2165.15,-72.76 2120.22,-45.06 2087.45,-29.32"/>
<polygon fill="midnightblue" stroke="midnightblue" points="2088.72,-26.06 2078.18,-25.03 2085.78,-32.41 2088.72,-26.06"/>
</g>
<!-- Node22&#45;&gt;Node12 -->
<g id="edge33" class="edge">
<title>Node22&#45;&gt;Node12</title>
<path fill="none" stroke="midnightblue" d="M1310.42,-141.18C1258.15,-133.12 1184.68,-118.53 1164.5,-98 1148.22,-81.44 1144.86,-53.79 1144.64,-35.35"/>
<polygon fill="midnightblue" stroke="midnightblue" points="1148.14,-35.3 1144.81,-25.25 1141.14,-35.18 1148.14,-35.3"/>
</g>
<!-- Node22&#45;&gt;Node14 -->
<g id="edge26" class="edge">
<title>Node22&#45;&gt;Node14</title>
<path fill="none" stroke="midnightblue" d="M1310.49,-145.47C1202.49,-139.02 970.87,-122.48 944.5,-98 927.44,-82.17 925.53,-53.9 926.45,-35.17"/>
<polygon fill="midnightblue" stroke="midnightblue" points="929.94,-35.42 927.25,-25.18 922.97,-34.87 929.94,-35.42"/>
</g>
<!-- Node22&#45;&gt;Node15 -->
<g id="edge28" class="edge">
<title>Node22&#45;&gt;Node15</title>
<path fill="none" stroke="midnightblue" d="M1310.08,-141.79C1264.23,-134.85 1198.17,-121.62 1144.5,-98 1105.47,-80.83 1065.85,-50.15 1043.9,-31.73"/>
<polygon fill="midnightblue" stroke="midnightblue" points="1046.01,-28.93 1036.13,-25.1 1041.47,-34.26 1046.01,-28.93"/>
</g>
<!-- Node22&#45;&gt;Node17 -->
<g id="edge32" class="edge">
<title>Node22&#45;&gt;Node17</title>
<path fill="none" stroke="midnightblue" d="M1365.5,-134.37C1365.5,-110.5 1365.5,-62.18 1365.5,-35.41"/>
<polygon fill="midnightblue" stroke="midnightblue" points="1369,-35.1 1365.5,-25.1 1362,-35.1 1369,-35.1"/>
</g>
<!-- Node22&#45;&gt;Node21 -->
<g id="edge31" class="edge">
<title>Node22&#45;&gt;Node21</title>
<path fill="none" stroke="midnightblue" d="M1310.41,-144.1C1224.75,-136.86 1054.6,-120.94 911.5,-98 910.24,-97.8 908.97,-97.59 907.69,-97.37"/>
<polygon fill="midnightblue" stroke="midnightblue" points="908.23,-93.91 897.77,-95.6 907,-100.81 908.23,-93.91"/>
</g>
<!-- Node23 -->
<g id="node23" class="node">
<title>Node23</title>
<g id="a_node23"><a xlink:title=" ">
<polygon fill="none" stroke="#bfbfbf" points="953.5,-73 953.5,-92 991.5,-92 991.5,-73 953.5,-73"/>
<text text-anchor="middle" x="972.5" y="-80" font-family="Helvetica,sans-Serif" font-size="10.00">map</text>
</a>
</g>
</g>
<!-- Node22&#45;&gt;Node23 -->
<g id="edge27" class="edge">
<title>Node22&#45;&gt;Node23</title>
<path fill="none" stroke="midnightblue" d="M1310.33,-146.41C1237.96,-142.43 1107.68,-130.93 1001.5,-98 999.87,-97.5 998.23,-96.91 996.59,-96.26"/>
<polygon fill="midnightblue" stroke="midnightblue" points="998.02,-93.07 987.46,-92.14 995.14,-99.45 998.02,-93.07"/>
</g>
<!-- Node24 -->
<g id="node24" class="node">
<title>Node24</title>
<g id="a_node24"><a xlink:title=" ">
<polygon fill="none" stroke="#bfbfbf" points="1010,-73 1010,-92 1079,-92 1079,-73 1010,-73"/>
<text text-anchor="middle" x="1044.5" y="-80" font-family="Helvetica,sans-Serif" font-size="10.00">type_traits</text>
</a>
</g>
</g>
<!-- Node22&#45;&gt;Node24 -->
<g id="edge29" class="edge">
<title>Node22&#45;&gt;Node24</title>
<path fill="none" stroke="midnightblue" d="M1310.44,-140.01C1255.25,-131.09 1167.99,-115.88 1093.5,-98 1089.58,-97.06 1085.52,-96 1081.47,-94.89"/>
<polygon fill="midnightblue" stroke="midnightblue" points="1082.15,-91.44 1071.58,-92.06 1080.23,-98.17 1082.15,-91.44"/>
</g>
<!-- Node25 -->
<g id="node25" class="node">
<title>Node25</title>
<g id="a_node25"><a xlink:title=" ">
<polygon fill="none" stroke="#bfbfbf" points="1173.5,-73 1173.5,-92 1337.5,-92 1337.5,-73 1173.5,-73"/>
<text text-anchor="middle" x="1255.5" y="-80" font-family="Helvetica,sans-Serif" font-size="10.00">range/v3/range/primitives.hpp</text>
</a>
</g>
</g>
<!-- Node22&#45;&gt;Node25 -->
<g id="edge30" class="edge">
<title>Node22&#45;&gt;Node25</title>
<path fill="none" stroke="midnightblue" d="M1341.63,-134.4C1322.93,-123.34 1297.06,-108.06 1278.57,-97.13"/>
<polygon fill="midnightblue" stroke="midnightblue" points="1280.29,-94.08 1269.9,-92.01 1276.73,-100.11 1280.29,-94.08"/>
</g>
<!-- Node26 -->
<g id="node26" class="node">
<title>Node26</title>
<g id="a_node26"><a xlink:title=" ">
<polygon fill="none" stroke="#bfbfbf" points="2147.5,-6 2147.5,-25 2249.5,-25 2249.5,-6 2147.5,-6"/>
<text text-anchor="middle" x="2198.5" y="-13" font-family="Helvetica,sans-Serif" font-size="10.00">sophus/types.hpp</text>
</a>
</g>
</g>
<!-- Node22&#45;&gt;Node26 -->
<g id="edge34" class="edge">
<title>Node22&#45;&gt;Node26</title>
<path fill="none" stroke="midnightblue" d="M1420.53,-148.15C1590.2,-146.65 2097.49,-138.77 2158.5,-98 2179.97,-83.65 2190.34,-54.29 2195.03,-35"/>
<polygon fill="midnightblue" stroke="midnightblue" points="2198.5,-35.52 2197.17,-25 2191.65,-34.05 2198.5,-35.52"/>
</g>
<!-- Node27 -->
<g id="node27" class="node">
<title>Node27</title>
<g id="a_node27"><a target="_parent" xlink:href="../../../../../../beluga/docs/_doxygen/generated/reference/html/spatial__hash_8hpp.html.html" xlink:title=" ">
<polygon fill="none" stroke="black" points="1393.5,-67.5 1393.5,-97.5 1529.5,-97.5 1529.5,-67.5 1393.5,-67.5"/>
<text text-anchor="start" x="1401.5" y="-85.5" font-family="Helvetica,sans-Serif" font-size="10.00">beluga/algorithm/spatial</text>
<text text-anchor="middle" x="1461.5" y="-74.5" font-family="Helvetica,sans-Serif" font-size="10.00">_hash.hpp</text>
</a>
</g>
</g>
<!-- Node22&#45;&gt;Node27 -->
<g id="edge35" class="edge">
<title>Node22&#45;&gt;Node27</title>
<path fill="none" stroke="midnightblue" d="M1386.33,-134.4C1399.79,-125.28 1417.5,-113.29 1432.35,-103.24"/>
<polygon fill="midnightblue" stroke="midnightblue" points="1434.39,-106.08 1440.71,-97.58 1430.47,-100.28 1434.39,-106.08"/>
</g>
<!-- Node28 -->
<g id="node28" class="node">
<title>Node28</title>
<g id="a_node28"><a target="_parent" xlink:href="../../../../../../beluga/docs/_doxygen/generated/reference/html/primitives_8hpp.html.html" xlink:title=" ">
<polygon fill="none" stroke="black" points="1548,-73 1548,-92 1671,-92 1671,-73 1548,-73"/>
<text text-anchor="middle" x="1609.5" y="-80" font-family="Helvetica,sans-Serif" font-size="10.00">beluga/primitives.hpp</text>
</a>
</g>
</g>
<!-- Node22&#45;&gt;Node28 -->
<g id="edge36" class="edge">
<title>Node22&#45;&gt;Node28</title>
<path fill="none" stroke="midnightblue" d="M1418.14,-134.48C1462.92,-122.55 1526.37,-105.64 1567.73,-94.63"/>
<polygon fill="midnightblue" stroke="midnightblue" points="1568.72,-97.98 1577.48,-92.03 1566.92,-91.22 1568.72,-97.98"/>
</g>
<!-- Node29 -->
<g id="node29" class="node">
<title>Node29</title>
<g id="a_node29"><a target="_parent" xlink:href="../../../../../../beluga/docs/_doxygen/generated/reference/html/sample_8hpp.html.html" xlink:title=" ">
<polygon fill="none" stroke="black" points="1689,-73 1689,-92 1830,-92 1830,-73 1689,-73"/>
<text text-anchor="middle" x="1759.5" y="-80" font-family="Helvetica,sans-Serif" font-size="10.00">beluga/views/sample.hpp</text>
</a>
</g>
</g>
<!-- Node22&#45;&gt;Node29 -->
<g id="edge37" class="edge">
<title>Node22&#45;&gt;Node29</title>
<path fill="none" stroke="midnightblue" d="M1420.76,-140.03C1483.7,-130.29 1589.62,-113.62 1680.5,-98 1688.13,-96.69 1696.17,-95.26 1704.09,-93.83"/>
<polygon fill="midnightblue" stroke="midnightblue" points="1704.78,-97.26 1714,-92.03 1703.53,-90.38 1704.78,-97.26"/>
</g>
<!-- Node30 -->
<g id="node30" class="node">
<title>Node30</title>
<g id="a_node30"><a target="_parent" xlink:href="../../../../../../beluga/docs/_doxygen/generated/reference/html/zip_8hpp.html.html" xlink:title=" ">
<polygon fill="none" stroke="black" points="1848,-73 1848,-92 1967,-92 1967,-73 1848,-73"/>
<text text-anchor="middle" x="1907.5" y="-80" font-family="Helvetica,sans-Serif" font-size="10.00">beluga/views/zip.hpp</text>
</a>
</g>
</g>
<!-- Node22&#45;&gt;Node30 -->
<g id="edge38" class="edge">
<title>Node22&#45;&gt;Node30</title>
<path fill="none" stroke="midnightblue" d="M1420.85,-144.48C1509.56,-137.62 1688.92,-122.01 1839.5,-98 1846.39,-96.9 1853.63,-95.56 1860.72,-94.14"/>
<polygon fill="midnightblue" stroke="midnightblue" points="1861.85,-97.48 1870.93,-92.03 1860.43,-90.63 1861.85,-97.48"/>
</g>
<!-- Node22&#45;&gt;Node31 -->
<g id="edge40" class="edge">
<title>Node22&#45;&gt;Node31</title>
<path fill="none" stroke="midnightblue" d="M1420.68,-147.34C1556.02,-144.02 1915.08,-132.43 2212.5,-98 2222.21,-96.88 2232.5,-95.37 2242.43,-93.75"/>
<polygon fill="midnightblue" stroke="midnightblue" points="2243.32,-97.14 2252.6,-92.03 2242.16,-90.24 2243.32,-97.14"/>
</g>
<!-- Node22&#45;&gt;Node33 -->
<g id="edge43" class="edge">
<title>Node22&#45;&gt;Node33</title>
<path fill="none" stroke="midnightblue" d="M1420.87,-145.64C1528.32,-139.72 1772.51,-124.41 1976.5,-98 1985.66,-96.81 1995.36,-95.32 2004.75,-93.74"/>
<polygon fill="midnightblue" stroke="midnightblue" points="2005.53,-97.16 2014.78,-92 2004.33,-90.26 2005.53,-97.16"/>
</g>
<!-- Node31&#45;&gt;Node11 -->
<g id="edge41" class="edge">
<title>Node31&#45;&gt;Node11</title>
<path fill="none" stroke="midnightblue" d="M2264.76,-72.87C2222.06,-61.25 2146.02,-40.58 2098.88,-27.75"/>
<polygon fill="midnightblue" stroke="midnightblue" points="2099.56,-24.31 2088.99,-25.06 2097.72,-31.07 2099.56,-24.31"/>
</g>
<!-- Node32 -->
<g id="node32" class="node">
<title>Node32</title>
<g id="a_node32"><a xlink:title=" ">
<polygon fill="none" stroke="#bfbfbf" points="2268,-6 2268,-25 2337,-25 2337,-6 2268,-6"/>
<text text-anchor="middle" x="2302.5" y="-13" font-family="Helvetica,sans-Serif" font-size="10.00">Eigen/Core</text>
</a>
</g>
</g>
<!-- Node31&#45;&gt;Node32 -->
<g id="edge42" class="edge">
<title>Node31&#45;&gt;Node32</title>
<path fill="none" stroke="midnightblue" d="M2297.31,-72.73C2298.19,-63.18 2299.63,-47.62 2300.77,-35.28"/>
<polygon fill="midnightblue" stroke="midnightblue" points="2304.27,-35.41 2301.7,-25.13 2297.3,-34.76 2304.27,-35.41"/>
</g>
<!-- Node33&#45;&gt;Node11 -->
<g id="edge49" class="edge">
<title>Node33&#45;&gt;Node11</title>
<path fill="none" stroke="midnightblue" d="M2058.37,-72.73C2058.22,-63.18 2057.98,-47.62 2057.79,-35.28"/>
<polygon fill="midnightblue" stroke="midnightblue" points="2061.29,-35.07 2057.63,-25.13 2054.29,-35.18 2061.29,-35.07"/>
</g>
<!-- Node33&#45;&gt;Node12 -->
<g id="edge47" class="edge">
<title>Node33&#45;&gt;Node12</title>
<path fill="none" stroke="midnightblue" d="M2016.08,-72.99C2003.4,-70.72 1989.43,-68.49 1976.5,-67 1682.01,-33.13 1606.19,-51.98 1310.5,-31 1274.26,-28.43 1233.61,-24.86 1201.72,-21.91"/>
<polygon fill="midnightblue" stroke="midnightblue" points="1201.98,-18.42 1191.7,-20.98 1201.33,-25.39 1201.98,-18.42"/>
</g>
<!-- Node33&#45;&gt;Node17 -->
<g id="edge46" class="edge">
<title>Node33&#45;&gt;Node17</title>
<path fill="none" stroke="midnightblue" d="M2014.78,-73C2002.44,-70.81 1988.97,-68.61 1976.5,-67 1773.01,-40.66 1529.5,-25.35 1421.65,-19.4"/>
<polygon fill="midnightblue" stroke="midnightblue" points="1421.82,-15.9 1411.64,-18.85 1421.44,-22.89 1421.82,-15.9"/>
</g>
<!-- Node33&#45;&gt;Node19 -->
<g id="edge45" class="edge">
<title>Node33&#45;&gt;Node19</title>
<path fill="none" stroke="midnightblue" d="M2011.27,-72.97C1999.89,-70.96 1987.77,-68.87 1976.5,-67 1874.49,-50.08 1754.21,-31.91 1692.17,-22.66"/>
<polygon fill="midnightblue" stroke="midnightblue" points="1692.41,-19.16 1682.01,-21.15 1691.38,-26.09 1692.41,-19.16"/>
</g>
<!-- Node33&#45;&gt;Node26 -->
<g id="edge48" class="edge">
<title>Node33&#45;&gt;Node26</title>
<path fill="none" stroke="midnightblue" d="M2077.09,-72.87C2101.04,-61.75 2142.89,-42.32 2170.65,-29.43"/>
<polygon fill="midnightblue" stroke="midnightblue" points="2172.24,-32.55 2179.83,-25.17 2169.29,-26.2 2172.24,-32.55"/>
</g>
<!-- Node34 -->
<g id="node34" class="node">
<title>Node34</title>
<g id="a_node34"><a xlink:title=" ">
<polygon fill="none" stroke="#bfbfbf" points="1889,-6 1889,-25 1968,-25 1968,-6 1889,-6"/>
<text text-anchor="middle" x="1928.5" y="-13" font-family="Helvetica,sans-Serif" font-size="10.00">tf2/convert.h</text>
</a>
</g>
</g>
<!-- Node33&#45;&gt;Node34 -->
<g id="edge44" class="edge">
<title>Node33&#45;&gt;Node34</title>
<path fill="none" stroke="midnightblue" d="M2041.24,-72.87C2019.19,-61.84 1980.81,-42.66 1955.04,-29.77"/>
<polygon fill="midnightblue" stroke="midnightblue" points="1956.34,-26.51 1945.83,-25.17 1953.21,-32.77 1956.34,-26.51"/>
</g>
</g>
</svg>
