<?xml version="1.0" encoding="UTF-8" standalone="no"?>
<!DOCTYPE svg PUBLIC "-//W3C//DTD SVG 1.1//EN"
 "http://www.w3.org/Graphics/SVG/1.1/DTD/svg11.dtd">
<!-- Generated by graphviz version 2.43.0 (0)
 -->
<!-- Title: /home/runner/work/beluga/beluga/beluga_ros/include/beluga_ros/beluga_ros.hpp Pages: 1 -->
<!--zoomable 251 -->
<svg id="main" version="1.1" xmlns="http://www.w3.org/2000/svg" xmlns:xlink="http://www.w3.org/1999/xlink" xml:space="preserve" onload="init(evt)">
<style type="text/css"><![CDATA[
.edge:hover path { stroke: red; }
.edge:hover polygon { stroke: red; fill: red; }
]]></style>
<script type="text/javascript"><![CDATA[
var edges = document.getElementsByTagName('g');
if (edges && edges.length) {
  for (var i=0;i<edges.length;i++) {
    if (edges[i].id.substr(0,4)=='edge') {
      edges[i].setAttribute('class','edge');
    }
  }
}
]]></script>
        <defs>
                <circle id="rim" cx="0" cy="0" r="7"/>
                <circle id="rim2" cx="0" cy="0" r="3.5"/>
                <g id="zoomPlus">
                        <use xlink:href="#rim" fill="#404040">
                                <set attributeName="fill" to="#808080" begin="zoomplus.mouseover" end="zoomplus.mouseout"/>
                        </use>
                        <path d="M-4,0h8M0,-4v8" fill="none" stroke="white" stroke-width="1.5" pointer-events="none"/>
                </g>
                <g id="zoomMin">
                        <use xlink:href="#rim" fill="#404040">
                                <set attributeName="fill" to="#808080" begin="zoomminus.mouseover" end="zoomminus.mouseout"/>
                        </use>
                        <path d="M-4,0h8" fill="none" stroke="white" stroke-width="1.5" pointer-events="none"/>
                </g>
                <g id="dirArrow">
                        <path fill="none" stroke="white" stroke-width="1.5" d="M0,-3.0v7 M-2.5,-0.5L0,-3.0L2.5,-0.5"/>
                </g>
               <g id="resetDef">
                       <use xlink:href="#rim2" fill="#404040">
                               <set attributeName="fill" to="#808080" begin="reset.mouseover" end="reset.mouseout"/>
                       </use>
               </g>
        </defs>

<script type="text/javascript">
var viewWidth = 2525;
var viewHeight = 251;
var sectionId = 'dynsection-0';
</script>
<script xlink:href="svgpan.js"/>
<svg id="graph" class="graph">
<g id="viewport">
<title>/home/runner/work/beluga/beluga/beluga_ros/include/beluga_ros/beluga_ros.hpp</title>
<!-- Node1 -->
<g id="node1" class="node">
<title>Node1</title>
<g id="a_node1"><a xlink:title="Includes all the Beluga ROS API.">
<polygon fill="#bfbfbf" stroke="black" points="842.5,-201.5 842.5,-242.5 992.5,-242.5 992.5,-201.5 842.5,-201.5"/>
<text text-anchor="start" x="850.5" y="-230.5" font-family="Helvetica,sans-Serif" font-size="10.00">/home/runner/work/beluga</text>
<text text-anchor="start" x="850.5" y="-219.5" font-family="Helvetica,sans-Serif" font-size="10.00">/beluga/beluga_ros/include</text>
<text text-anchor="middle" x="917.5" y="-208.5" font-family="Helvetica,sans-Serif" font-size="10.00">/beluga_ros/beluga_ros.hpp</text>
</a>
</g>
</g>
<!-- Node2 -->
<g id="node2" class="node">
<title>Node2</title>
<g id="a_node2"><a xlink:href="amcl_8hpp.html" target="_top" xlink:title="Generic two&#45;dimensional implementation of the Adaptive Monte Carlo Localization (AMCL) algorithm in 2...">
<polygon fill="none" stroke="black" points="467.5,-140 467.5,-159 585.5,-159 585.5,-140 467.5,-140"/>
<text text-anchor="middle" x="526.5" y="-147" font-family="Helvetica,sans-Serif" font-size="10.00">beluga_ros/amcl.hpp</text>
</a>
</g>
</g>
<!-- Node1&#45;&gt;Node2 -->
<g id="edge1" class="edge">
<title>Node1&#45;&gt;Node2</title>
<path fill="none" stroke="midnightblue" d="M842.11,-207.41C766.65,-193.8 652.21,-173.17 583.85,-160.84"/>
<polygon fill="midnightblue" stroke="midnightblue" points="584.16,-157.34 573.7,-159.01 582.92,-164.23 584.16,-157.34"/>
</g>
<!-- Node7 -->
<g id="node7" class="node">
<title>Node7</title>
<g id="a_node7"><a xlink:href="laser__scan_8hpp.html" target="_top" xlink:title="Implementation of sensor_msgs/LaserScan wrapper type.">
<polygon fill="none" stroke="black" points="175.5,-73 175.5,-92 321.5,-92 321.5,-73 175.5,-73"/>
<text text-anchor="middle" x="248.5" y="-80" font-family="Helvetica,sans-Serif" font-size="10.00">beluga_ros/laser_scan.hpp</text>
</a>
</g>
</g>
<!-- Node1&#45;&gt;Node7 -->
<g id="edge23" class="edge">
<title>Node1&#45;&gt;Node7</title>
<path fill="none" stroke="midnightblue" d="M842.12,-217.55C750.31,-212.05 591.07,-198.26 458.5,-165 390.31,-147.89 314.34,-114.62 275.14,-96.33"/>
<polygon fill="midnightblue" stroke="midnightblue" points="276.53,-93.11 265.99,-92.02 273.54,-99.44 276.53,-93.11"/>
</g>
<!-- Node13 -->
<g id="node13" class="node">
<title>Node13</title>
<g id="a_node13"><a xlink:href="occupancy__grid_8hpp.html" target="_top" xlink:title="Implementation of nav_msgs/OccupancyGrid wrapper type.">
<polygon fill="none" stroke="black" points="646,-67.5 646,-97.5 771,-97.5 771,-67.5 646,-67.5"/>
<text text-anchor="start" x="654" y="-85.5" font-family="Helvetica,sans-Serif" font-size="10.00">beluga_ros/occupancy</text>
<text text-anchor="middle" x="708.5" y="-74.5" font-family="Helvetica,sans-Serif" font-size="10.00">_grid.hpp</text>
</a>
</g>
</g>
<!-- Node1&#45;&gt;Node13 -->
<g id="edge24" class="edge">
<title>Node1&#45;&gt;Node13</title>
<path fill="none" stroke="midnightblue" d="M887.56,-201.3C847.78,-175.13 777.95,-129.19 738.27,-103.09"/>
<polygon fill="midnightblue" stroke="midnightblue" points="740.09,-100.09 729.81,-97.52 736.24,-105.94 740.09,-100.09"/>
</g>
<!-- Node22 -->
<g id="node22" class="node">
<title>Node22</title>
<g id="a_node22"><a xlink:href="particle__cloud_8hpp.html" target="_top" xlink:title="Utilities for particle cloud I/O over ROS interfaces.">
<polygon fill="none" stroke="black" points="1229.5,-134.5 1229.5,-164.5 1339.5,-164.5 1339.5,-134.5 1229.5,-134.5"/>
<text text-anchor="start" x="1237.5" y="-152.5" font-family="Helvetica,sans-Serif" font-size="10.00">beluga_ros/particle</text>
<text text-anchor="middle" x="1284.5" y="-141.5" font-family="Helvetica,sans-Serif" font-size="10.00">_cloud.hpp</text>
</a>
</g>
</g>
<!-- Node1&#45;&gt;Node22 -->
<g id="edge25" class="edge">
<title>Node1&#45;&gt;Node22</title>
<path fill="none" stroke="midnightblue" d="M992.65,-206.56C1059.44,-193.73 1156.05,-175.17 1219.55,-162.98"/>
<polygon fill="midnightblue" stroke="midnightblue" points="1220.29,-166.4 1229.45,-161.08 1218.97,-159.52 1220.29,-166.4"/>
</g>
<!-- Node31 -->
<g id="node31" class="node">
<title>Node31</title>
<g id="a_node31"><a xlink:href="tf2__eigen_8hpp.html" target="_top" xlink:title="Message conversion API overloads for Eigen types.">
<polygon fill="none" stroke="black" points="917.5,-73 917.5,-92 1057.5,-92 1057.5,-73 917.5,-73"/>
<text text-anchor="middle" x="987.5" y="-80" font-family="Helvetica,sans-Serif" font-size="10.00">beluga_ros/tf2_eigen.hpp</text>
</a>
</g>
</g>
<!-- Node1&#45;&gt;Node31 -->
<g id="edge54" class="edge">
<title>Node1&#45;&gt;Node31</title>
<path fill="none" stroke="midnightblue" d="M927.53,-201.3C941.21,-174.42 965.52,-126.67 978.59,-101"/>
<polygon fill="midnightblue" stroke="midnightblue" points="981.74,-102.54 983.15,-92.04 975.5,-99.36 981.74,-102.54"/>
</g>
<!-- Node33 -->
<g id="node33" class="node">
<title>Node33</title>
<g id="a_node33"><a xlink:href="tf2__sophus_8hpp.html" target="_top" xlink:title="Message conversion API overloads for Sophus types.">
<polygon fill="none" stroke="black" points="2183,-73 2183,-92 2330,-92 2330,-73 2183,-73"/>
<text text-anchor="middle" x="2256.5" y="-80" font-family="Helvetica,sans-Serif" font-size="10.00">beluga_ros/tf2_sophus.hpp</text>
</a>
</g>
</g>
<!-- Node1&#45;&gt;Node33 -->
<g id="edge55" class="edge">
<title>Node1&#45;&gt;Node33</title>
<path fill="none" stroke="midnightblue" d="M992.83,-215.68C1188.38,-201.41 1728.08,-159.22 2174.5,-98 2183.35,-96.79 2192.7,-95.32 2201.79,-93.78"/>
<polygon fill="midnightblue" stroke="midnightblue" points="2202.66,-97.18 2211.91,-92.03 2201.46,-90.29 2202.66,-97.18"/>
</g>
<!-- Node3 -->
<g id="node3" class="node">
<title>Node3</title>
<g id="a_node3"><a xlink:title=" ">
<polygon fill="none" stroke="#bfbfbf" points="377.5,-73 377.5,-92 433.5,-92 433.5,-73 377.5,-73"/>
<text text-anchor="middle" x="405.5" y="-80" font-family="Helvetica,sans-Serif" font-size="10.00">optional</text>
</a>
</g>
</g>
<!-- Node2&#45;&gt;Node3 -->
<g id="edge2" class="edge">
<title>Node2&#45;&gt;Node3</title>
<path fill="none" stroke="midnightblue" d="M510.18,-139.73C489.68,-128.72 454.3,-109.71 430.41,-96.88"/>
<polygon fill="midnightblue" stroke="midnightblue" points="432.03,-93.78 421.56,-92.13 428.71,-99.94 432.03,-93.78"/>
</g>
<!-- Node4 -->
<g id="node4" class="node">
<title>Node4</title>
<g id="a_node4"><a xlink:title=" ">
<polygon fill="none" stroke="#bfbfbf" points="456,-6 456,-25 501,-25 501,-6 456,-6"/>
<text text-anchor="middle" x="478.5" y="-13" font-family="Helvetica,sans-Serif" font-size="10.00">utility</text>
</a>
</g>
</g>
<!-- Node2&#45;&gt;Node4 -->
<g id="edge3" class="edge">
<title>Node2&#45;&gt;Node4</title>
<path fill="none" stroke="midnightblue" d="M467.38,-146.1C432.54,-141.26 391,-128.82 368.5,-98 360.37,-86.87 361.06,-78.6 368.5,-67 368.8,-66.53 417.42,-44.32 449.92,-29.51"/>
<polygon fill="midnightblue" stroke="midnightblue" points="451.76,-32.52 459.41,-25.19 448.86,-26.15 451.76,-32.52"/>
</g>
<!-- Node5 -->
<g id="node5" class="node">
<title>Node5</title>
<g id="a_node5"><a xlink:title=" ">
<polygon fill="none" stroke="#bfbfbf" points="452,-73 452,-92 503,-92 503,-73 452,-73"/>
<text text-anchor="middle" x="477.5" y="-80" font-family="Helvetica,sans-Serif" font-size="10.00">variant</text>
</a>
</g>
</g>
<!-- Node2&#45;&gt;Node5 -->
<g id="edge4" class="edge">
<title>Node2&#45;&gt;Node5</title>
<path fill="none" stroke="midnightblue" d="M519.89,-139.73C512.32,-129.7 499.75,-113.01 490.26,-100.42"/>
<polygon fill="midnightblue" stroke="midnightblue" points="492.82,-98.01 484,-92.13 487.23,-102.22 492.82,-98.01"/>
</g>
<!-- Node6 -->
<g id="node6" class="node">
<title>Node6</title>
<g id="a_node6"><a target="_parent" xlink:href="../../../../../../beluga/docs/_doxygen/generated/reference/html/beluga_8hpp.html.html" xlink:title=" ">
<polygon fill="none" stroke="black" points="521,-73 521,-92 628,-92 628,-73 521,-73"/>
<text text-anchor="middle" x="574.5" y="-80" font-family="Helvetica,sans-Serif" font-size="10.00">beluga/beluga.hpp</text>
</a>
</g>
</g>
<!-- Node2&#45;&gt;Node6 -->
<g id="edge5" class="edge">
<title>Node2&#45;&gt;Node6</title>
<path fill="none" stroke="midnightblue" d="M532.97,-139.73C540.39,-129.7 552.7,-113.01 562,-100.42"/>
<polygon fill="midnightblue" stroke="midnightblue" points="565,-102.25 568.13,-92.13 559.37,-98.09 565,-102.25"/>
</g>
<!-- Node2&#45;&gt;Node7 -->
<g id="edge6" class="edge">
<title>Node2&#45;&gt;Node7</title>
<path fill="none" stroke="midnightblue" d="M489.87,-139.94C439.76,-128.22 349.83,-107.19 295.02,-94.38"/>
<polygon fill="midnightblue" stroke="midnightblue" points="295.74,-90.95 285.21,-92.08 294.15,-97.77 295.74,-90.95"/>
</g>
<!-- Node2&#45;&gt;Node13 -->
<g id="edge12" class="edge">
<title>Node2&#45;&gt;Node13</title>
<path fill="none" stroke="midnightblue" d="M550.67,-139.87C578.33,-129.99 624.36,-113.55 659.59,-100.97"/>
<polygon fill="midnightblue" stroke="midnightblue" points="660.98,-104.19 669.22,-97.53 658.63,-97.6 660.98,-104.19"/>
</g>
<!-- Node21 -->
<g id="node21" class="node">
<title>Node21</title>
<g id="a_node21"><a xlink:title=" ">
<polygon fill="none" stroke="#bfbfbf" points="789.5,-67.5 789.5,-97.5 899.5,-97.5 899.5,-67.5 789.5,-67.5"/>
<text text-anchor="start" x="797.5" y="-85.5" font-family="Helvetica,sans-Serif" font-size="10.00">range/v3/view/take</text>
<text text-anchor="middle" x="844.5" y="-74.5" font-family="Helvetica,sans-Serif" font-size="10.00">_exactly.hpp</text>
</a>
</g>
</g>
<!-- Node2&#45;&gt;Node21 -->
<g id="edge22" class="edge">
<title>Node2&#45;&gt;Node21</title>
<path fill="none" stroke="midnightblue" d="M571.54,-139.92C620.29,-130.55 700.57,-114.88 779.28,-98.23"/>
<polygon fill="midnightblue" stroke="midnightblue" points="780.31,-101.59 789.36,-96.09 778.85,-94.74 780.31,-101.59"/>
</g>
<!-- Node8 -->
<g id="node8" class="node">
<title>Node8</title>
<g id="a_node8"><a xlink:title=" ">
<polygon fill="none" stroke="#bfbfbf" points="181.5,-6 181.5,-25 309.5,-25 309.5,-6 181.5,-6"/>
<text text-anchor="middle" x="245.5" y="-13" font-family="Helvetica,sans-Serif" font-size="10.00">range/v3/view/iota.hpp</text>
</a>
</g>
</g>
<!-- Node7&#45;&gt;Node8 -->
<g id="edge7" class="edge">
<title>Node7&#45;&gt;Node8</title>
<path fill="none" stroke="midnightblue" d="M248.1,-72.73C247.65,-63.18 246.94,-47.62 246.37,-35.28"/>
<polygon fill="midnightblue" stroke="midnightblue" points="249.86,-34.96 245.9,-25.13 242.86,-35.28 249.86,-34.96"/>
</g>
<!-- Node9 -->
<g id="node9" class="node">
<title>Node9</title>
<g id="a_node9"><a target="_parent" xlink:href="../../../../../../beluga/docs/_doxygen/generated/reference/html/laser__scan_8hpp.html.html" xlink:title=" ">
<polygon fill="none" stroke="black" points="327.5,-0.5 327.5,-30.5 437.5,-30.5 437.5,-0.5 327.5,-0.5"/>
<text text-anchor="start" x="335.5" y="-18.5" font-family="Helvetica,sans-Serif" font-size="10.00">beluga/sensor/data</text>
<text text-anchor="middle" x="382.5" y="-7.5" font-family="Helvetica,sans-Serif" font-size="10.00">/laser_scan.hpp</text>
</a>
</g>
</g>
<!-- Node7&#45;&gt;Node9 -->
<g id="edge8" class="edge">
<title>Node7&#45;&gt;Node9</title>
<path fill="none" stroke="midnightblue" d="M266.29,-72.87C286.14,-63.24 318.82,-47.39 344.48,-34.94"/>
<polygon fill="midnightblue" stroke="midnightblue" points="346.11,-38.04 353.58,-30.53 343.06,-31.74 346.11,-38.04"/>
</g>
<!-- Node10 -->
<g id="node10" class="node">
<title>Node10</title>
<g id="a_node10"><a target="_parent" xlink:href="../../../../../../beluga/docs/_doxygen/generated/reference/html/take__evenly_8hpp.html.html" xlink:title=" ">
<polygon fill="none" stroke="black" points="0,-6 0,-25 163,-25 163,-6 0,-6"/>
<text text-anchor="middle" x="81.5" y="-13" font-family="Helvetica,sans-Serif" font-size="10.00">beluga/views/take_evenly.hpp</text>
</a>
</g>
</g>
<!-- Node7&#45;&gt;Node10 -->
<g id="edge9" class="edge">
<title>Node7&#45;&gt;Node10</title>
<path fill="none" stroke="midnightblue" d="M226.32,-72.87C197.3,-61.57 146.23,-41.7 113.15,-28.82"/>
<polygon fill="midnightblue" stroke="midnightblue" points="114.09,-25.43 103.5,-25.06 111.55,-31.95 114.09,-25.43"/>
</g>
<!-- Node11 -->
<g id="node11" class="node">
<title>Node11</title>
<g id="a_node11"><a xlink:href="messages_8hpp_source.html" target="_top" xlink:title=" ">
<polygon fill="none" stroke="black" points="916,-6 916,-25 1059,-25 1059,-6 916,-6"/>
<text text-anchor="middle" x="987.5" y="-13" font-family="Helvetica,sans-Serif" font-size="10.00">beluga_ros/messages.hpp</text>
</a>
</g>
</g>
<!-- Node7&#45;&gt;Node11 -->
<g id="edge10" class="edge">
<title>Node7&#45;&gt;Node11</title>
<path fill="none" stroke="midnightblue" d="M313.83,-72.96C331.55,-70.82 350.74,-68.66 368.5,-67 607.54,-44.59 669.22,-60.46 907.5,-31 916.55,-29.88 926.13,-28.4 935.4,-26.82"/>
<polygon fill="midnightblue" stroke="midnightblue" points="936.05,-30.26 945.29,-25.07 934.83,-23.36 936.05,-30.26"/>
</g>
<!-- Node12 -->
<g id="node12" class="node">
<title>Node12</title>
<g id="a_node12"><a xlink:title=" ">
<polygon fill="none" stroke="#bfbfbf" points="1153.5,-6 1153.5,-25 1245.5,-25 1245.5,-6 1153.5,-6"/>
<text text-anchor="middle" x="1199.5" y="-13" font-family="Helvetica,sans-Serif" font-size="10.00">sophus/se3.hpp</text>
</a>
</g>
</g>
<!-- Node7&#45;&gt;Node12 -->
<g id="edge11" class="edge">
<title>Node7&#45;&gt;Node12</title>
<path fill="none" stroke="midnightblue" d="M311.62,-72.99C329.94,-70.76 349.99,-68.55 368.5,-67 712.56,-38.27 803.22,-83.3 1144.5,-31 1150.11,-30.14 1155.98,-28.93 1161.7,-27.58"/>
<polygon fill="midnightblue" stroke="midnightblue" points="1162.93,-30.88 1171.76,-25.03 1161.21,-24.1 1162.93,-30.88"/>
</g>
<!-- Node13&#45;&gt;Node4 -->
<g id="edge15" class="edge">
<title>Node13&#45;&gt;Node4</title>
<path fill="none" stroke="midnightblue" d="M645.68,-68.45C606.33,-59.55 554.85,-46.57 510.5,-31 508.84,-30.42 507.14,-29.78 505.45,-29.11"/>
<polygon fill="midnightblue" stroke="midnightblue" points="506.45,-25.73 495.88,-25.04 503.71,-32.18 506.45,-25.73"/>
</g>
<!-- Node13&#45;&gt;Node11 -->
<g id="edge21" class="edge">
<title>Node13&#45;&gt;Node11</title>
<path fill="none" stroke="midnightblue" d="M768.7,-67.48C820.33,-55.45 893.68,-38.36 940.93,-27.35"/>
<polygon fill="midnightblue" stroke="midnightblue" points="941.95,-30.71 950.89,-25.03 940.36,-23.89 941.95,-30.71"/>
</g>
<!-- Node14 -->
<g id="node14" class="node">
<title>Node14</title>
<g id="a_node14"><a xlink:title=" ">
<polygon fill="none" stroke="#bfbfbf" points="1264,-6 1264,-25 1311,-25 1311,-6 1264,-6"/>
<text text-anchor="middle" x="1287.5" y="-13" font-family="Helvetica,sans-Serif" font-size="10.00">cmath</text>
</a>
</g>
</g>
<!-- Node13&#45;&gt;Node14 -->
<g id="edge13" class="edge">
<title>Node13&#45;&gt;Node14</title>
<path fill="none" stroke="midnightblue" d="M771.25,-68.39C774.37,-67.89 777.47,-67.42 780.5,-67 989.79,-38.09 1049.53,-82.23 1254.5,-31 1256.86,-30.41 1259.26,-29.67 1261.63,-28.83"/>
<polygon fill="midnightblue" stroke="midnightblue" points="1263.14,-32 1271.1,-25.01 1260.52,-25.51 1263.14,-32"/>
</g>
<!-- Node15 -->
<g id="node15" class="node">
<title>Node15</title>
<g id="a_node15"><a xlink:title=" ">
<polygon fill="none" stroke="#bfbfbf" points="1077.5,-6 1077.5,-25 1135.5,-25 1135.5,-6 1077.5,-6"/>
<text text-anchor="middle" x="1106.5" y="-13" font-family="Helvetica,sans-Serif" font-size="10.00">memory</text>
</a>
</g>
</g>
<!-- Node13&#45;&gt;Node15 -->
<g id="edge14" class="edge">
<title>Node13&#45;&gt;Node15</title>
<path fill="none" stroke="midnightblue" d="M771.28,-68.57C774.39,-68.02 777.48,-67.49 780.5,-67 907.82,-46.25 943.34,-62.22 1068.5,-31 1071.33,-30.3 1074.23,-29.44 1077.11,-28.5"/>
<polygon fill="midnightblue" stroke="midnightblue" points="1078.43,-31.75 1086.67,-25.09 1076.08,-25.16 1078.43,-31.75"/>
</g>
<!-- Node16 -->
<g id="node16" class="node">
<title>Node16</title>
<g id="a_node16"><a xlink:title=" ">
<polygon fill="none" stroke="#bfbfbf" points="764,-6 764,-25 811,-25 811,-6 764,-6"/>
<text text-anchor="middle" x="787.5" y="-13" font-family="Helvetica,sans-Serif" font-size="10.00">vector</text>
</a>
</g>
</g>
<!-- Node13&#45;&gt;Node16 -->
<g id="edge16" class="edge">
<title>Node13&#45;&gt;Node16</title>
<path fill="none" stroke="midnightblue" d="M725.64,-67.4C738.45,-56.86 755.93,-42.48 769.04,-31.69"/>
<polygon fill="midnightblue" stroke="midnightblue" points="771.43,-34.25 776.93,-25.19 766.99,-28.85 771.43,-34.25"/>
</g>
<!-- Node17 -->
<g id="node17" class="node">
<title>Node17</title>
<g id="a_node17"><a xlink:title=" ">
<polygon fill="none" stroke="#bfbfbf" points="1329.5,-6 1329.5,-25 1421.5,-25 1421.5,-6 1329.5,-6"/>
<text text-anchor="middle" x="1375.5" y="-13" font-family="Helvetica,sans-Serif" font-size="10.00">sophus/se2.hpp</text>
</a>
</g>
</g>
<!-- Node13&#45;&gt;Node17 -->
<g id="edge17" class="edge">
<title>Node13&#45;&gt;Node17</title>
<path fill="none" stroke="midnightblue" d="M771.25,-68.36C774.37,-67.86 777.47,-67.4 780.5,-67 1018.92,-35.19 1083.12,-69.84 1320.5,-31 1325.98,-30.1 1331.71,-28.9 1337.31,-27.57"/>
<polygon fill="midnightblue" stroke="midnightblue" points="1338.34,-30.92 1347.18,-25.07 1336.62,-24.13 1338.34,-30.92"/>
</g>
<!-- Node18 -->
<g id="node18" class="node">
<title>Node18</title>
<g id="a_node18"><a xlink:title=" ">
<polygon fill="none" stroke="#bfbfbf" points="519.5,-6 519.5,-25 611.5,-25 611.5,-6 519.5,-6"/>
<text text-anchor="middle" x="565.5" y="-13" font-family="Helvetica,sans-Serif" font-size="10.00">sophus/so2.hpp</text>
</a>
</g>
</g>
<!-- Node13&#45;&gt;Node18 -->
<g id="edge18" class="edge">
<title>Node13&#45;&gt;Node18</title>
<path fill="none" stroke="midnightblue" d="M677.47,-67.4C652.49,-56.04 617.68,-40.22 593.54,-29.24"/>
<polygon fill="midnightblue" stroke="midnightblue" points="594.77,-25.96 584.22,-25.01 591.87,-32.33 594.77,-25.96"/>
</g>
<!-- Node19 -->
<g id="node19" class="node">
<title>Node19</title>
<g id="a_node19"><a xlink:title=" ">
<polygon fill="none" stroke="#bfbfbf" points="1632,-6 1632,-25 1695,-25 1695,-6 1632,-6"/>
<text text-anchor="middle" x="1663.5" y="-13" font-family="Helvetica,sans-Serif" font-size="10.00">tf2/utils.h</text>
</a>
</g>
</g>
<!-- Node13&#45;&gt;Node19 -->
<g id="edge19" class="edge">
<title>Node13&#45;&gt;Node19</title>
<path fill="none" stroke="midnightblue" d="M771.24,-68.31C774.37,-67.83 777.46,-67.39 780.5,-67 1067.5,-30.35 1141.67,-47.99 1430.5,-31 1497.45,-27.06 1575.21,-22.16 1621.82,-19.18"/>
<polygon fill="midnightblue" stroke="midnightblue" points="1622.09,-22.67 1631.85,-18.54 1621.64,-15.68 1622.09,-22.67"/>
</g>
<!-- Node20 -->
<g id="node20" class="node">
<title>Node20</title>
<g id="a_node20"><a target="_parent" xlink:href="../../../../../../beluga/docs/_doxygen/generated/reference/html/occupancy__grid_8hpp.html.html" xlink:title=" ">
<polygon fill="none" stroke="black" points="629.5,-0.5 629.5,-30.5 745.5,-30.5 745.5,-0.5 629.5,-0.5"/>
<text text-anchor="start" x="637.5" y="-18.5" font-family="Helvetica,sans-Serif" font-size="10.00">beluga/sensor/data</text>
<text text-anchor="middle" x="687.5" y="-7.5" font-family="Helvetica,sans-Serif" font-size="10.00">/occupancy_grid.hpp</text>
</a>
</g>
</g>
<!-- Node13&#45;&gt;Node20 -->
<g id="edge20" class="edge">
<title>Node13&#45;&gt;Node20</title>
<path fill="none" stroke="midnightblue" d="M703.94,-67.4C701.38,-59.47 698.12,-49.38 695.18,-40.27"/>
<polygon fill="midnightblue" stroke="midnightblue" points="698.45,-39.02 692.05,-30.58 691.79,-41.17 698.45,-39.02"/>
</g>
<!-- Node22&#45;&gt;Node11 -->
<g id="edge39" class="edge">
<title>Node22&#45;&gt;Node11</title>
<path fill="none" stroke="midnightblue" d="M1247.27,-134.47C1221.81,-124.68 1187.39,-111.09 1157.5,-98 1105.93,-75.42 1046.9,-46.38 1013.73,-29.77"/>
<polygon fill="midnightblue" stroke="midnightblue" points="1015.2,-26.59 1004.69,-25.23 1012.06,-32.84 1015.2,-26.59"/>
</g>
<!-- Node22&#45;&gt;Node12 -->
<g id="edge33" class="edge">
<title>Node22&#45;&gt;Node12</title>
<path fill="none" stroke="midnightblue" d="M1255.43,-134.39C1240.9,-125.84 1224.35,-113.58 1214.5,-98 1202.45,-78.95 1199.53,-52.69 1199.08,-35.18"/>
<polygon fill="midnightblue" stroke="midnightblue" points="1202.58,-35.1 1199.07,-25.1 1195.58,-35.11 1202.58,-35.1"/>
</g>
<!-- Node22&#45;&gt;Node14 -->
<g id="edge26" class="edge">
<title>Node22&#45;&gt;Node14</title>
<path fill="none" stroke="midnightblue" d="M1258.36,-134.37C1245.29,-125.76 1230.76,-113.43 1223.5,-98 1217.64,-85.53 1217.49,-79.4 1223.5,-67 1231.2,-51.12 1246.58,-38.73 1260.33,-30.2"/>
<polygon fill="midnightblue" stroke="midnightblue" points="1262.15,-33.19 1269.04,-25.15 1258.63,-27.14 1262.15,-33.19"/>
</g>
<!-- Node22&#45;&gt;Node15 -->
<g id="edge28" class="edge">
<title>Node22&#45;&gt;Node15</title>
<path fill="none" stroke="midnightblue" d="M1257.31,-134.31C1239.96,-124.83 1217.28,-111.63 1198.5,-98 1170.05,-77.35 1140.11,-49.52 1122.39,-32.31"/>
<polygon fill="midnightblue" stroke="midnightblue" points="1124.74,-29.71 1115.15,-25.21 1119.84,-34.71 1124.74,-29.71"/>
</g>
<!-- Node22&#45;&gt;Node17 -->
<g id="edge32" class="edge">
<title>Node22&#45;&gt;Node17</title>
<path fill="none" stroke="midnightblue" d="M1272.39,-134.27C1259.42,-117.19 1242.46,-88.21 1256.5,-67 1265.78,-52.98 1304.94,-38.08 1335.84,-28.13"/>
<polygon fill="midnightblue" stroke="midnightblue" points="1337.04,-31.42 1345.53,-25.08 1334.94,-24.74 1337.04,-31.42"/>
</g>
<!-- Node22&#45;&gt;Node21 -->
<g id="edge31" class="edge">
<title>Node22&#45;&gt;Node21</title>
<path fill="none" stroke="midnightblue" d="M1229.46,-142.67C1158,-134.75 1029.22,-119.3 909.65,-98.11"/>
<polygon fill="midnightblue" stroke="midnightblue" points="910.05,-94.63 899.59,-96.31 908.82,-101.52 910.05,-94.63"/>
</g>
<!-- Node23 -->
<g id="node23" class="node">
<title>Node23</title>
<g id="a_node23"><a xlink:title=" ">
<polygon fill="none" stroke="#bfbfbf" points="1265.5,-73 1265.5,-92 1303.5,-92 1303.5,-73 1265.5,-73"/>
<text text-anchor="middle" x="1284.5" y="-80" font-family="Helvetica,sans-Serif" font-size="10.00">map</text>
</a>
</g>
</g>
<!-- Node22&#45;&gt;Node23 -->
<g id="edge27" class="edge">
<title>Node22&#45;&gt;Node23</title>
<path fill="none" stroke="midnightblue" d="M1284.5,-134.4C1284.5,-125.06 1284.5,-112.71 1284.5,-102.52"/>
<polygon fill="midnightblue" stroke="midnightblue" points="1288,-102.19 1284.5,-92.19 1281,-102.19 1288,-102.19"/>
</g>
<!-- Node24 -->
<g id="node24" class="node">
<title>Node24</title>
<g id="a_node24"><a xlink:title=" ">
<polygon fill="none" stroke="#bfbfbf" points="1322,-73 1322,-92 1391,-92 1391,-73 1322,-73"/>
<text text-anchor="middle" x="1356.5" y="-80" font-family="Helvetica,sans-Serif" font-size="10.00">type_traits</text>
</a>
</g>
</g>
<!-- Node22&#45;&gt;Node24 -->
<g id="edge29" class="edge">
<title>Node22&#45;&gt;Node24</title>
<path fill="none" stroke="midnightblue" d="M1300.12,-134.4C1311.68,-123.96 1327.42,-109.75 1339.33,-99"/>
<polygon fill="midnightblue" stroke="midnightblue" points="1341.79,-101.49 1346.87,-92.19 1337.1,-96.3 1341.79,-101.49"/>
</g>
<!-- Node25 -->
<g id="node25" class="node">
<title>Node25</title>
<g id="a_node25"><a xlink:title=" ">
<polygon fill="none" stroke="#bfbfbf" points="1409.5,-73 1409.5,-92 1573.5,-92 1573.5,-73 1409.5,-73"/>
<text text-anchor="middle" x="1491.5" y="-80" font-family="Helvetica,sans-Serif" font-size="10.00">range/v3/range/primitives.hpp</text>
</a>
</g>
</g>
<!-- Node22&#45;&gt;Node25 -->
<g id="edge30" class="edge">
<title>Node22&#45;&gt;Node25</title>
<path fill="none" stroke="midnightblue" d="M1329.16,-134.48C1366.59,-122.72 1419.39,-106.14 1454.49,-95.12"/>
<polygon fill="midnightblue" stroke="midnightblue" points="1455.85,-98.36 1464.34,-92.03 1453.75,-91.69 1455.85,-98.36"/>
</g>
<!-- Node26 -->
<g id="node26" class="node">
<title>Node26</title>
<g id="a_node26"><a xlink:title=" ">
<polygon fill="none" stroke="#bfbfbf" points="2414.5,-6 2414.5,-25 2516.5,-25 2516.5,-6 2414.5,-6"/>
<text text-anchor="middle" x="2465.5" y="-13" font-family="Helvetica,sans-Serif" font-size="10.00">sophus/types.hpp</text>
</a>
</g>
</g>
<!-- Node22&#45;&gt;Node26 -->
<g id="edge34" class="edge">
<title>Node22&#45;&gt;Node26</title>
<path fill="none" stroke="midnightblue" d="M1339.64,-147.54C1543.01,-143.77 2244.14,-128.65 2339.5,-98 2382.61,-84.15 2425.26,-51.54 2448.2,-32.03"/>
<polygon fill="midnightblue" stroke="midnightblue" points="2450.74,-34.46 2455.99,-25.26 2446.15,-29.18 2450.74,-34.46"/>
</g>
<!-- Node27 -->
<g id="node27" class="node">
<title>Node27</title>
<g id="a_node27"><a target="_parent" xlink:href="../../../../../../beluga/docs/_doxygen/generated/reference/html/spatial__hash_8hpp.html.html" xlink:title=" ">
<polygon fill="none" stroke="black" points="1591.5,-67.5 1591.5,-97.5 1727.5,-97.5 1727.5,-67.5 1591.5,-67.5"/>
<text text-anchor="start" x="1599.5" y="-85.5" font-family="Helvetica,sans-Serif" font-size="10.00">beluga/algorithm/spatial</text>
<text text-anchor="middle" x="1659.5" y="-74.5" font-family="Helvetica,sans-Serif" font-size="10.00">_hash.hpp</text>
</a>
</g>
</g>
<!-- Node22&#45;&gt;Node27 -->
<g id="edge35" class="edge">
<title>Node22&#45;&gt;Node27</title>
<path fill="none" stroke="midnightblue" d="M1339.75,-139.45C1397.51,-129.91 1491.05,-114.28 1581.61,-98.14"/>
<polygon fill="midnightblue" stroke="midnightblue" points="1582.26,-101.58 1591.49,-96.38 1581.03,-94.69 1582.26,-101.58"/>
</g>
<!-- Node28 -->
<g id="node28" class="node">
<title>Node28</title>
<g id="a_node28"><a target="_parent" xlink:href="../../../../../../beluga/docs/_doxygen/generated/reference/html/primitives_8hpp.html.html" xlink:title=" ">
<polygon fill="none" stroke="black" points="1746,-73 1746,-92 1869,-92 1869,-73 1746,-73"/>
<text text-anchor="middle" x="1807.5" y="-80" font-family="Helvetica,sans-Serif" font-size="10.00">beluga/primitives.hpp</text>
</a>
</g>
</g>
<!-- Node22&#45;&gt;Node28 -->
<g id="edge36" class="edge">
<title>Node22&#45;&gt;Node28</title>
<path fill="none" stroke="midnightblue" d="M1339.68,-143.95C1425.05,-136.55 1594.16,-120.44 1736.5,-98 1743.76,-96.86 1751.41,-95.48 1758.89,-94.03"/>
<polygon fill="midnightblue" stroke="midnightblue" points="1759.8,-97.42 1768.92,-92.04 1758.43,-90.55 1759.8,-97.42"/>
</g>
<!-- Node29 -->
<g id="node29" class="node">
<title>Node29</title>
<g id="a_node29"><a target="_parent" xlink:href="../../../../../../beluga/docs/_doxygen/generated/reference/html/sample_8hpp.html.html" xlink:title=" ">
<polygon fill="none" stroke="black" points="1887,-73 1887,-92 2028,-92 2028,-73 1887,-73"/>
<text text-anchor="middle" x="1957.5" y="-80" font-family="Helvetica,sans-Serif" font-size="10.00">beluga/views/sample.hpp</text>
</a>
</g>
</g>
<!-- Node22&#45;&gt;Node29 -->
<g id="edge37" class="edge">
<title>Node22&#45;&gt;Node29</title>
<path fill="none" stroke="midnightblue" d="M1339.56,-145.6C1444.67,-139.68 1681.03,-124.45 1878.5,-98 1887.24,-96.83 1896.47,-95.35 1905.43,-93.79"/>
<polygon fill="midnightblue" stroke="midnightblue" points="1906.17,-97.22 1915.39,-92.01 1904.93,-90.33 1906.17,-97.22"/>
</g>
<!-- Node30 -->
<g id="node30" class="node">
<title>Node30</title>
<g id="a_node30"><a target="_parent" xlink:href="../../../../../../beluga/docs/_doxygen/generated/reference/html/zip_8hpp.html.html" xlink:title=" ">
<polygon fill="none" stroke="black" points="2046,-73 2046,-92 2165,-92 2165,-73 2046,-73"/>
<text text-anchor="middle" x="2105.5" y="-80" font-family="Helvetica,sans-Serif" font-size="10.00">beluga/views/zip.hpp</text>
</a>
</g>
</g>
<!-- Node22&#45;&gt;Node30 -->
<g id="edge38" class="edge">
<title>Node22&#45;&gt;Node30</title>
<path fill="none" stroke="midnightblue" d="M1339.58,-147.5C1464.36,-144.65 1777.96,-134.18 2037.5,-98 2044.82,-96.98 2052.52,-95.62 2060.01,-94.14"/>
<polygon fill="midnightblue" stroke="midnightblue" points="2060.94,-97.52 2070.03,-92.07 2059.52,-90.66 2060.94,-97.52"/>
</g>
<!-- Node22&#45;&gt;Node31 -->
<g id="edge40" class="edge">
<title>Node22&#45;&gt;Node31</title>
<path fill="none" stroke="midnightblue" d="M1229.33,-136.43C1174.02,-124.32 1089.64,-105.85 1036.58,-94.24"/>
<polygon fill="midnightblue" stroke="midnightblue" points="1037.25,-90.81 1026.73,-92.09 1035.75,-97.64 1037.25,-90.81"/>
</g>
<!-- Node22&#45;&gt;Node33 -->
<g id="edge43" class="edge">
<title>Node22&#45;&gt;Node33</title>
<path fill="none" stroke="midnightblue" d="M1339.64,-147.64C1479.62,-144.96 1859.94,-134.61 2174.5,-98 2183.99,-96.9 2194.04,-95.4 2203.73,-93.78"/>
<polygon fill="midnightblue" stroke="midnightblue" points="2204.4,-97.21 2213.66,-92.06 2203.21,-90.32 2204.4,-97.21"/>
</g>
<!-- Node31&#45;&gt;Node11 -->
<g id="edge41" class="edge">
<title>Node31&#45;&gt;Node11</title>
<path fill="none" stroke="midnightblue" d="M987.5,-72.73C987.5,-63.18 987.5,-47.62 987.5,-35.28"/>
<polygon fill="midnightblue" stroke="midnightblue" points="991,-35.13 987.5,-25.13 984,-35.13 991,-35.13"/>
</g>
<!-- Node32 -->
<g id="node32" class="node">
<title>Node32</title>
<g id="a_node32"><a xlink:title=" ">
<polygon fill="none" stroke="#bfbfbf" points="829,-6 829,-25 898,-25 898,-6 829,-6"/>
<text text-anchor="middle" x="863.5" y="-13" font-family="Helvetica,sans-Serif" font-size="10.00">Eigen/Core</text>
</a>
</g>
</g>
<!-- Node31&#45;&gt;Node32 -->
<g id="edge42" class="edge">
<title>Node31&#45;&gt;Node32</title>
<path fill="none" stroke="midnightblue" d="M971.03,-72.87C950.1,-61.89 913.72,-42.82 889.14,-29.94"/>
<polygon fill="midnightblue" stroke="midnightblue" points="890.52,-26.71 880.03,-25.17 887.27,-32.91 890.52,-26.71"/>
</g>
<!-- Node33&#45;&gt;Node11 -->
<g id="edge53" class="edge">
<title>Node33&#45;&gt;Node11</title>
<path fill="none" stroke="midnightblue" d="M2214.95,-72.97C2202.04,-70.64 2187.73,-68.38 2174.5,-67 1685.33,-16.05 1557.62,-82.47 1068.5,-31 1058.8,-29.98 1048.51,-28.47 1038.64,-26.81"/>
<polygon fill="midnightblue" stroke="midnightblue" points="1039,-23.32 1028.54,-25.03 1037.79,-30.21 1039,-23.32"/>
</g>
<!-- Node33&#45;&gt;Node12 -->
<g id="edge51" class="edge">
<title>Node33&#45;&gt;Node12</title>
<path fill="none" stroke="midnightblue" d="M2214.52,-72.95C2201.72,-70.64 2187.58,-68.41 2174.5,-67 1768.08,-23.31 1659.89,-90.57 1255.5,-31 1249.64,-30.14 1243.52,-28.9 1237.55,-27.51"/>
<polygon fill="midnightblue" stroke="midnightblue" points="1238.3,-24.09 1227.75,-25.07 1236.6,-30.89 1238.3,-24.09"/>
</g>
<!-- Node33&#45;&gt;Node14 -->
<g id="edge48" class="edge">
<title>Node33&#45;&gt;Node14</title>
<path fill="none" stroke="midnightblue" d="M2214.52,-72.97C2201.72,-70.67 2187.58,-68.43 2174.5,-67 1985.67,-46.42 1505.53,-73.95 1320.5,-31 1318.13,-30.45 1315.73,-29.73 1313.35,-28.92"/>
<polygon fill="midnightblue" stroke="midnightblue" points="1314.46,-25.59 1303.87,-25.13 1311.86,-32.09 1314.46,-25.59"/>
</g>
<!-- Node33&#45;&gt;Node17 -->
<g id="edge50" class="edge">
<title>Node33&#45;&gt;Node17</title>
<path fill="none" stroke="midnightblue" d="M2213.65,-72.99C2201.08,-70.75 2187.28,-68.53 2174.5,-67 2137.71,-62.6 1607.78,-30.49 1431.82,-19.89"/>
<polygon fill="midnightblue" stroke="midnightblue" points="1431.92,-16.39 1421.73,-19.28 1431.5,-23.37 1431.92,-16.39"/>
</g>
<!-- Node33&#45;&gt;Node19 -->
<g id="edge45" class="edge">
<title>Node33&#45;&gt;Node19</title>
<path fill="none" stroke="midnightblue" d="M2211.91,-72.98C2199.8,-70.84 2186.67,-68.68 2174.5,-67 2151.35,-63.81 1823.34,-31.97 1705.37,-20.55"/>
<polygon fill="midnightblue" stroke="midnightblue" points="1705.57,-17.05 1695.28,-19.57 1704.9,-24.02 1705.57,-17.05"/>
</g>
<!-- Node33&#45;&gt;Node26 -->
<g id="edge52" class="edge">
<title>Node33&#45;&gt;Node26</title>
<path fill="none" stroke="midnightblue" d="M2284.25,-72.87C2321.29,-61.35 2386.97,-40.92 2428.28,-28.08"/>
<polygon fill="midnightblue" stroke="midnightblue" points="2429.46,-31.38 2437.96,-25.06 2427.38,-24.69 2429.46,-31.38"/>
</g>
<!-- Node34 -->
<g id="node34" class="node">
<title>Node34</title>
<g id="a_node34"><a xlink:title=" ">
<polygon fill="none" stroke="#bfbfbf" points="1823,-6 1823,-25 1902,-25 1902,-6 1823,-6"/>
<text text-anchor="middle" x="1862.5" y="-13" font-family="Helvetica,sans-Serif" font-size="10.00">tf2/convert.h</text>
</a>
</g>
</g>
<!-- Node33&#45;&gt;Node34 -->
<g id="edge44" class="edge">
<title>Node33&#45;&gt;Node34</title>
<path fill="none" stroke="midnightblue" d="M2210.15,-72.98C2198.53,-70.93 2186.07,-68.81 2174.5,-67 2057.95,-48.72 2026.84,-55.81 1911.5,-31 1907.3,-30.1 1902.94,-29.02 1898.63,-27.86"/>
<polygon fill="midnightblue" stroke="midnightblue" points="1899.33,-24.42 1888.76,-25.07 1897.43,-31.16 1899.33,-24.42"/>
</g>
<!-- Node35 -->
<g id="node35" class="node">
<title>Node35</title>
<g id="a_node35"><a xlink:title=" ">
<polygon fill="none" stroke="#bfbfbf" points="1920,-0.5 1920,-30.5 2073,-30.5 2073,-0.5 1920,-0.5"/>
<text text-anchor="start" x="1928" y="-18.5" font-family="Helvetica,sans-Serif" font-size="10.00">beluga/algorithm/unscented</text>
<text text-anchor="middle" x="1996.5" y="-7.5" font-family="Helvetica,sans-Serif" font-size="10.00">_transform.hpp</text>
</a>
</g>
</g>
<!-- Node33&#45;&gt;Node35 -->
<g id="edge46" class="edge">
<title>Node33&#45;&gt;Node35</title>
<path fill="none" stroke="midnightblue" d="M2222.24,-72.94C2181.78,-62.82 2113.55,-45.76 2062.67,-33.04"/>
<polygon fill="midnightblue" stroke="midnightblue" points="2063.29,-29.59 2052.74,-30.56 2061.59,-36.38 2063.29,-29.59"/>
</g>
<!-- Node36 -->
<g id="node36" class="node">
<title>Node36</title>
<g id="a_node36"><a xlink:title=" ">
<polygon fill="none" stroke="#bfbfbf" points="2091,-6 2091,-25 2260,-25 2260,-6 2091,-6"/>
<text text-anchor="middle" x="2175.5" y="-13" font-family="Helvetica,sans-Serif" font-size="10.00">beluga/eigen_compatibility.hpp</text>
</a>
</g>
</g>
<!-- Node33&#45;&gt;Node36 -->
<g id="edge47" class="edge">
<title>Node33&#45;&gt;Node36</title>
<path fill="none" stroke="midnightblue" d="M2245.58,-72.73C2232.46,-62.21 2210.24,-44.38 2194.34,-31.62"/>
<polygon fill="midnightblue" stroke="midnightblue" points="2196.24,-28.66 2186.25,-25.13 2191.86,-34.12 2196.24,-28.66"/>
</g>
<!-- Node37 -->
<g id="node37" class="node">
<title>Node37</title>
<g id="a_node37"><a xlink:title=" ">
<polygon fill="none" stroke="#bfbfbf" points="2278.5,-6 2278.5,-25 2396.5,-25 2396.5,-6 2278.5,-6"/>
<text text-anchor="middle" x="2337.5" y="-13" font-family="Helvetica,sans-Serif" font-size="10.00">sophus/common.hpp</text>
</a>
</g>
</g>
<!-- Node33&#45;&gt;Node37 -->
<g id="edge49" class="edge">
<title>Node33&#45;&gt;Node37</title>
<path fill="none" stroke="midnightblue" d="M2267.42,-72.73C2280.54,-62.21 2302.76,-44.38 2318.66,-31.62"/>
<polygon fill="midnightblue" stroke="midnightblue" points="2321.14,-34.12 2326.75,-25.13 2316.76,-28.66 2321.14,-34.12"/>
</g>
</g>
</svg>
        <g id="navigator" transform="translate(0 0)" fill="#404254">
                <rect fill="#f2f5e9" fill-opacity="0.5" stroke="#606060" stroke-width=".5" x="0" y="0" width="60" height="60"/>
                <use id="zoomplus" xlink:href="#zoomPlus" x="17" y="9" onmousedown="handleZoom(evt,'in')"/>
                <use id="zoomminus" xlink:href="#zoomMin" x="42" y="9" onmousedown="handleZoom(evt,'out')"/>
                <use id="reset" xlink:href="#resetDef" x="30" y="36" onmousedown="handleReset()"/>
                <g id="arrowUp" xlink:href="#dirArrow" transform="translate(30 24)" onmousedown="handlePan(0,-1)">
                  <use xlink:href="#rim" fill="#404040">
                        <set attributeName="fill" to="#808080" begin="arrowUp.mouseover" end="arrowUp.mouseout"/>
                  </use>
                  <path fill="none" stroke="white" stroke-width="1.5" d="M0,-3.0v7 M-2.5,-0.5L0,-3.0L2.5,-0.5"/>
                </g>
                <g id="arrowRight" xlink:href="#dirArrow" transform="rotate(90) translate(36 -43)" onmousedown="handlePan(1,0)">
                  <use xlink:href="#rim" fill="#404040">
                        <set attributeName="fill" to="#808080" begin="arrowRight.mouseover" end="arrowRight.mouseout"/>
                  </use>
                  <path fill="none" stroke="white" stroke-width="1.5" d="M0,-3.0v7 M-2.5,-0.5L0,-3.0L2.5,-0.5"/>
                </g>
                <g id="arrowDown" xlink:href="#dirArrow" transform="rotate(180) translate(-30 -48)" onmousedown="handlePan(0,1)">
                  <use xlink:href="#rim" fill="#404040">
                        <set attributeName="fill" to="#808080" begin="arrowDown.mouseover" end="arrowDown.mouseout"/>
                  </use>
                  <path fill="none" stroke="white" stroke-width="1.5" d="M0,-3.0v7 M-2.5,-0.5L0,-3.0L2.5,-0.5"/>
                </g>
                <g id="arrowLeft" xlink:href="#dirArrow" transform="rotate(270) translate(-36 17)" onmousedown="handlePan(-1,0)">
                  <use xlink:href="#rim" fill="#404040">
                        <set attributeName="fill" to="#808080" begin="arrowLeft.mouseover" end="arrowLeft.mouseout"/>
                  </use>
                  <path fill="none" stroke="white" stroke-width="1.5" d="M0,-3.0v7 M-2.5,-0.5L0,-3.0L2.5,-0.5"/>
                </g>
        </g>
        <svg viewBox="0 0 15 15" width="100%" height="30px" preserveAspectRatio="xMaxYMin meet">
         <g id="arrow_out" transform="scale(0.3 0.3)">
          <a xlink:href="beluga__ros_8hpp__incl_org.svg" target="_base">
           <rect id="button" ry="5" rx="5" y="6" x="6" height="38" width="38"
                fill="#f2f5e9" fill-opacity="0.5" stroke="#606060" stroke-width="1.0"/>
           <path id="arrow"
             d="M 11.500037,31.436501 C 11.940474,20.09759 22.043105,11.32322 32.158766,21.979434 L 37.068811,17.246167 C 37.068811,17.246167 37.088388,32 37.088388,32 L 22.160133,31.978069 C 22.160133,31.978069 26.997745,27.140456 26.997745,27.140456 C 18.528582,18.264221 13.291696,25.230495 11.500037,31.436501 z"
             style="fill:#404040;"/>
          </a>
         </g>
        </svg>
</svg>
