<?xml version="1.0" encoding="UTF-8" standalone="no"?>
<!DOCTYPE svg PUBLIC "-//W3C//DTD SVG 1.1//EN"
 "http://www.w3.org/Graphics/SVG/1.1/DTD/svg11.dtd">
<!-- Generated by graphviz version 2.43.0 (0)
 -->
<!-- Title: /home/runner/work/beluga/beluga/beluga_ros/include/beluga_ros/beluga_ros.hpp Pages: 1 -->
<!--zoomable 240 -->
<svg id="main" version="1.1" xmlns="http://www.w3.org/2000/svg" xmlns:xlink="http://www.w3.org/1999/xlink" xml:space="preserve" onload="init(evt)">
<style type="text/css"><![CDATA[
.edge:hover path { stroke: red; }
.edge:hover polygon { stroke: red; fill: red; }
]]></style>
<script type="text/javascript"><![CDATA[
var edges = document.getElementsByTagName('g');
if (edges && edges.length) {
  for (var i=0;i<edges.length;i++) {
    if (edges[i].id.substr(0,4)=='edge') {
      edges[i].setAttribute('class','edge');
    }
  }
}
]]></script>
        <defs>
                <circle id="rim" cx="0" cy="0" r="7"/>
                <circle id="rim2" cx="0" cy="0" r="3.5"/>
                <g id="zoomPlus">
                        <use xlink:href="#rim" fill="#404040">
                                <set attributeName="fill" to="#808080" begin="zoomplus.mouseover" end="zoomplus.mouseout"/>
                        </use>
                        <path d="M-4,0h8M0,-4v8" fill="none" stroke="white" stroke-width="1.5" pointer-events="none"/>
                </g>
                <g id="zoomMin">
                        <use xlink:href="#rim" fill="#404040">
                                <set attributeName="fill" to="#808080" begin="zoomminus.mouseover" end="zoomminus.mouseout"/>
                        </use>
                        <path d="M-4,0h8" fill="none" stroke="white" stroke-width="1.5" pointer-events="none"/>
                </g>
                <g id="dirArrow">
                        <path fill="none" stroke="white" stroke-width="1.5" d="M0,-3.0v7 M-2.5,-0.5L0,-3.0L2.5,-0.5"/>
                </g>
               <g id="resetDef">
                       <use xlink:href="#rim2" fill="#404040">
                               <set attributeName="fill" to="#808080" begin="reset.mouseover" end="reset.mouseout"/>
                       </use>
               </g>
        </defs>

<script type="text/javascript">
var viewWidth = 1689;
var viewHeight = 240;
var sectionId = 'dynsection-0';
</script>
<script xlink:href="svgpan.js"/>
<svg id="graph" class="graph">
<g id="viewport">
<title>/home/runner/work/beluga/beluga/beluga_ros/include/beluga_ros/beluga_ros.hpp</title>
<!-- Node1 -->
<g id="node1" class="node">
<title>Node1</title>
<g id="a_node1"><a xlink:title="Includes all the Beluga ROS API.">
<polygon fill="#bfbfbf" stroke="black" points="995,-190.5 995,-231.5 1145,-231.5 1145,-190.5 995,-190.5"/>
<text text-anchor="start" x="1003" y="-219.5" font-family="Helvetica,sans-Serif" font-size="10.00">/home/runner/work/beluga</text>
<text text-anchor="start" x="1003" y="-208.5" font-family="Helvetica,sans-Serif" font-size="10.00">/beluga/beluga_ros/include</text>
<text text-anchor="middle" x="1070" y="-197.5" font-family="Helvetica,sans-Serif" font-size="10.00">/beluga_ros/beluga_ros.hpp</text>
</a>
</g>
</g>
<!-- Node2 -->
<g id="node2" class="node">
<title>Node2</title>
<g id="a_node2"><a xlink:href="amcl_8hpp.html" target="_top" xlink:title="Generic two&#45;dimensional implementation of the Adaptive Monte Carlo Localization (AMCL) algorithm in 2...">
<polygon fill="none" stroke="black" points="1310,-134.5 1310,-153.5 1428,-153.5 1428,-134.5 1310,-134.5"/>
<text text-anchor="middle" x="1369" y="-141.5" font-family="Helvetica,sans-Serif" font-size="10.00">beluga_ros/amcl.hpp</text>
</a>
</g>
</g>
<!-- Node1&#45;&gt;Node2 -->
<g id="edge1" class="edge">
<title>Node1&#45;&gt;Node2</title>
<path fill="none" stroke="midnightblue" d="M1145.06,-193.68C1199.7,-181.8 1272.14,-166.06 1319.63,-155.73"/>
<polygon fill="midnightblue" stroke="midnightblue" points="1320.63,-159.1 1329.66,-153.55 1319.15,-152.26 1320.63,-159.1"/>
</g>
<!-- Node7 -->
<g id="node7" class="node">
<title>Node7</title>
<g id="a_node7"><a xlink:href="laser__scan_8hpp.html" target="_top" xlink:title="Implementation of sensor_msgs/LaserScan wrapper type.">
<polygon fill="none" stroke="black" points="809,-73 809,-92 955,-92 955,-73 809,-73"/>
<text text-anchor="middle" x="882" y="-80" font-family="Helvetica,sans-Serif" font-size="10.00">beluga_ros/laser_scan.hpp</text>
</a>
</g>
</g>
<!-- Node1&#45;&gt;Node7 -->
<g id="edge23" class="edge">
<title>Node1&#45;&gt;Node7</title>
<path fill="none" stroke="midnightblue" d="M1040.62,-190.23C1002.68,-164.7 937.5,-120.84 903.72,-98.11"/>
<polygon fill="midnightblue" stroke="midnightblue" points="905.32,-94.97 895.07,-92.29 901.41,-100.78 905.32,-94.97"/>
</g>
<!-- Node13 -->
<g id="node13" class="node">
<title>Node13</title>
<g id="a_node13"><a xlink:href="occupancy__grid_8hpp.html" target="_top" xlink:title="Implementation of nav_msgs/OccupancyGrid wrapper type.">
<polygon fill="none" stroke="black" points="1120.5,-67.5 1120.5,-97.5 1245.5,-97.5 1245.5,-67.5 1120.5,-67.5"/>
<text text-anchor="start" x="1128.5" y="-85.5" font-family="Helvetica,sans-Serif" font-size="10.00">beluga_ros/occupancy</text>
<text text-anchor="middle" x="1183" y="-74.5" font-family="Helvetica,sans-Serif" font-size="10.00">_grid.hpp</text>
</a>
</g>
</g>
<!-- Node1&#45;&gt;Node13 -->
<g id="edge24" class="edge">
<title>Node1&#45;&gt;Node13</title>
<path fill="none" stroke="midnightblue" d="M1087.66,-190.23C1108.29,-167.13 1142.32,-129.04 1163.66,-105.16"/>
<polygon fill="midnightblue" stroke="midnightblue" points="1166.31,-107.43 1170.37,-97.64 1161.09,-102.77 1166.31,-107.43"/>
</g>
<!-- Node22 -->
<g id="node22" class="node">
<title>Node22</title>
<g id="a_node22"><a xlink:href="tf2__sophus_8hpp.html" target="_top" xlink:title="Message conversion API overloads for Sophus types.">
<polygon fill="none" stroke="black" points="472.5,-73 472.5,-92 619.5,-92 619.5,-73 472.5,-73"/>
<text text-anchor="middle" x="546" y="-80" font-family="Helvetica,sans-Serif" font-size="10.00">beluga_ros/tf2_sophus.hpp</text>
</a>
</g>
</g>
<!-- Node1&#45;&gt;Node22 -->
<g id="edge25" class="edge">
<title>Node1&#45;&gt;Node22</title>
<path fill="none" stroke="midnightblue" d="M994.92,-191.88C884.43,-165.2 681.38,-116.18 591.21,-94.41"/>
<polygon fill="midnightblue" stroke="midnightblue" points="591.84,-90.97 581.3,-92.02 590.19,-97.77 591.84,-90.97"/>
</g>
<!-- Node3 -->
<g id="node3" class="node">
<title>Node3</title>
<g id="a_node3"><a xlink:title=" ">
<polygon fill="none" stroke="#bfbfbf" points="1392,-73 1392,-92 1448,-92 1448,-73 1392,-73"/>
<text text-anchor="middle" x="1420" y="-80" font-family="Helvetica,sans-Serif" font-size="10.00">optional</text>
</a>
</g>
</g>
<!-- Node2&#45;&gt;Node3 -->
<g id="edge2" class="edge">
<title>Node2&#45;&gt;Node3</title>
<path fill="none" stroke="midnightblue" d="M1376.31,-134.48C1384.03,-125.46 1396.41,-111.02 1406.02,-99.81"/>
<polygon fill="midnightblue" stroke="midnightblue" points="1408.86,-101.88 1412.71,-92.01 1403.54,-97.32 1408.86,-101.88"/>
</g>
<!-- Node4 -->
<g id="node4" class="node">
<title>Node4</title>
<g id="a_node4"><a xlink:title=" ">
<polygon fill="none" stroke="#bfbfbf" points="1589.5,-6 1589.5,-25 1634.5,-25 1634.5,-6 1589.5,-6"/>
<text text-anchor="middle" x="1612" y="-13" font-family="Helvetica,sans-Serif" font-size="10.00">utility</text>
</a>
</g>
</g>
<!-- Node2&#45;&gt;Node4 -->
<g id="edge3" class="edge">
<title>Node2&#45;&gt;Node4</title>
<path fill="none" stroke="midnightblue" d="M1388.49,-134.4C1406.74,-126.03 1434.49,-112.49 1457,-98 1475.62,-86.01 1476.99,-78.35 1496,-67 1530.87,-46.18 1542.83,-47.38 1580,-31 1581.19,-30.47 1582.41,-29.94 1583.64,-29.39"/>
<polygon fill="midnightblue" stroke="midnightblue" points="1585.39,-32.44 1593.08,-25.15 1582.52,-26.05 1585.39,-32.44"/>
</g>
<!-- Node5 -->
<g id="node5" class="node">
<title>Node5</title>
<g id="a_node5"><a xlink:title=" ">
<polygon fill="none" stroke="#bfbfbf" points="1504.5,-73 1504.5,-92 1555.5,-92 1555.5,-73 1504.5,-73"/>
<text text-anchor="middle" x="1530" y="-80" font-family="Helvetica,sans-Serif" font-size="10.00">variant</text>
</a>
</g>
</g>
<!-- Node2&#45;&gt;Node5 -->
<g id="edge4" class="edge">
<title>Node2&#45;&gt;Node5</title>
<path fill="none" stroke="midnightblue" d="M1392.07,-134.48C1419.68,-124.27 1466.12,-107.11 1497.4,-95.55"/>
<polygon fill="midnightblue" stroke="midnightblue" points="1498.81,-98.76 1506.98,-92.01 1496.38,-92.19 1498.81,-98.76"/>
</g>
<!-- Node6 -->
<g id="node6" class="node">
<title>Node6</title>
<g id="a_node6"><a target="_parent" xlink:href="../../../../../../beluga/docs/_doxygen/generated/reference/html/beluga_8hpp.html.html" xlink:title=" ">
<polygon fill="none" stroke="black" points="1573.5,-73 1573.5,-92 1680.5,-92 1680.5,-73 1573.5,-73"/>
<text text-anchor="middle" x="1627" y="-80" font-family="Helvetica,sans-Serif" font-size="10.00">beluga/beluga.hpp</text>
</a>
</g>
</g>
<!-- Node2&#45;&gt;Node6 -->
<g id="edge5" class="edge">
<title>Node2&#45;&gt;Node6</title>
<path fill="none" stroke="midnightblue" d="M1406.58,-134.42C1446.05,-125.4 1509.9,-110.77 1565,-98 1570.05,-96.83 1575.34,-95.6 1580.6,-94.37"/>
<polygon fill="midnightblue" stroke="midnightblue" points="1581.67,-97.72 1590.62,-92.04 1580.08,-90.9 1581.67,-97.72"/>
</g>
<!-- Node2&#45;&gt;Node7 -->
<g id="edge6" class="edge">
<title>Node2&#45;&gt;Node7</title>
<path fill="none" stroke="midnightblue" d="M1309.77,-135.76C1222.61,-125.11 1059.6,-105.2 961.92,-93.26"/>
<polygon fill="midnightblue" stroke="midnightblue" points="962.15,-89.77 951.8,-92.03 961.31,-96.72 962.15,-89.77"/>
</g>
<!-- Node2&#45;&gt;Node13 -->
<g id="edge12" class="edge">
<title>Node2&#45;&gt;Node13</title>
<path fill="none" stroke="midnightblue" d="M1342.35,-134.48C1314.81,-125.66 1271.06,-111.67 1236.36,-100.57"/>
<polygon fill="midnightblue" stroke="midnightblue" points="1237.43,-97.24 1226.84,-97.52 1235.29,-103.9 1237.43,-97.24"/>
</g>
<!-- Node21 -->
<g id="node21" class="node">
<title>Node21</title>
<g id="a_node21"><a xlink:title=" ">
<polygon fill="none" stroke="#bfbfbf" points="1264,-67.5 1264,-97.5 1374,-97.5 1374,-67.5 1264,-67.5"/>
<text text-anchor="start" x="1272" y="-85.5" font-family="Helvetica,sans-Serif" font-size="10.00">range/v3/view/take</text>
<text text-anchor="middle" x="1319" y="-74.5" font-family="Helvetica,sans-Serif" font-size="10.00">_exactly.hpp</text>
</a>
</g>
</g>
<!-- Node2&#45;&gt;Node21 -->
<g id="edge22" class="edge">
<title>Node2&#45;&gt;Node21</title>
<path fill="none" stroke="midnightblue" d="M1361.84,-134.48C1355.44,-126.87 1345.81,-115.4 1337.29,-105.26"/>
<polygon fill="midnightblue" stroke="midnightblue" points="1339.9,-102.93 1330.78,-97.52 1334.54,-107.43 1339.9,-102.93"/>
</g>
<!-- Node8 -->
<g id="node8" class="node">
<title>Node8</title>
<g id="a_node8"><a xlink:title=" ">
<polygon fill="none" stroke="#bfbfbf" points="328,-6 328,-25 456,-25 456,-6 328,-6"/>
<text text-anchor="middle" x="392" y="-13" font-family="Helvetica,sans-Serif" font-size="10.00">range/v3/view/iota.hpp</text>
</a>
</g>
</g>
<!-- Node7&#45;&gt;Node8 -->
<g id="edge7" class="edge">
<title>Node7&#45;&gt;Node8</title>
<path fill="none" stroke="midnightblue" d="M808.7,-74.32C725.23,-65.75 584.9,-50.14 465,-31 457.55,-29.81 449.7,-28.41 442.01,-26.95"/>
<polygon fill="midnightblue" stroke="midnightblue" points="442.55,-23.49 432.06,-25.02 441.21,-30.36 442.55,-23.49"/>
</g>
<!-- Node9 -->
<g id="node9" class="node">
<title>Node9</title>
<g id="a_node9"><a target="_parent" xlink:href="../../../../../../beluga/docs/_doxygen/generated/reference/html/laser__scan_8hpp.html.html" xlink:title=" ">
<polygon fill="none" stroke="black" points="827,-0.5 827,-30.5 937,-30.5 937,-0.5 827,-0.5"/>
<text text-anchor="start" x="835" y="-18.5" font-family="Helvetica,sans-Serif" font-size="10.00">beluga/sensor/data</text>
<text text-anchor="middle" x="882" y="-7.5" font-family="Helvetica,sans-Serif" font-size="10.00">/laser_scan.hpp</text>
</a>
</g>
</g>
<!-- Node7&#45;&gt;Node9 -->
<g id="edge8" class="edge">
<title>Node7&#45;&gt;Node9</title>
<path fill="none" stroke="midnightblue" d="M882,-72.73C882,-64.54 882,-51.92 882,-40.71"/>
<polygon fill="midnightblue" stroke="midnightblue" points="885.5,-40.59 882,-30.59 878.5,-40.59 885.5,-40.59"/>
</g>
<!-- Node10 -->
<g id="node10" class="node">
<title>Node10</title>
<g id="a_node10"><a target="_parent" xlink:href="../../../../../../beluga/docs/_doxygen/generated/reference/html/take__evenly_8hpp.html.html" xlink:title=" ">
<polygon fill="none" stroke="black" points="955.5,-6 955.5,-25 1118.5,-25 1118.5,-6 955.5,-6"/>
<text text-anchor="middle" x="1037" y="-13" font-family="Helvetica,sans-Serif" font-size="10.00">beluga/views/take_evenly.hpp</text>
</a>
</g>
</g>
<!-- Node7&#45;&gt;Node10 -->
<g id="edge9" class="edge">
<title>Node7&#45;&gt;Node10</title>
<path fill="none" stroke="midnightblue" d="M902.58,-72.87C929.33,-61.65 976.25,-41.98 1006.97,-29.09"/>
<polygon fill="midnightblue" stroke="midnightblue" points="1008.46,-32.26 1016.33,-25.17 1005.76,-25.81 1008.46,-32.26"/>
</g>
<!-- Node11 -->
<g id="node11" class="node">
<title>Node11</title>
<g id="a_node11"><a xlink:href="messages_8hpp_source.html" target="_top" xlink:title=" ">
<polygon fill="none" stroke="black" points="474.5,-6 474.5,-25 617.5,-25 617.5,-6 474.5,-6"/>
<text text-anchor="middle" x="546" y="-13" font-family="Helvetica,sans-Serif" font-size="10.00">beluga_ros/messages.hpp</text>
</a>
</g>
</g>
<!-- Node7&#45;&gt;Node11 -->
<g id="edge10" class="edge">
<title>Node7&#45;&gt;Node11</title>
<path fill="none" stroke="midnightblue" d="M837.73,-72.94C776.58,-61.11 666.36,-39.78 600.31,-27.01"/>
<polygon fill="midnightblue" stroke="midnightblue" points="600.59,-23.49 590.1,-25.03 599.26,-30.37 600.59,-23.49"/>
</g>
<!-- Node12 -->
<g id="node12" class="node">
<title>Node12</title>
<g id="a_node12"><a xlink:title=" ">
<polygon fill="none" stroke="#bfbfbf" points="218,-6 218,-25 310,-25 310,-6 218,-6"/>
<text text-anchor="middle" x="264" y="-13" font-family="Helvetica,sans-Serif" font-size="10.00">sophus/se3.hpp</text>
</a>
</g>
</g>
<!-- Node7&#45;&gt;Node12 -->
<g id="edge11" class="edge">
<title>Node7&#45;&gt;Node12</title>
<path fill="none" stroke="midnightblue" d="M808.89,-76.48C678.57,-67.28 411.19,-47.17 319,-31 313.59,-30.05 307.93,-28.83 302.39,-27.5"/>
<polygon fill="midnightblue" stroke="midnightblue" points="303.18,-24.09 292.63,-25.02 301.46,-30.87 303.18,-24.09"/>
</g>
<!-- Node13&#45;&gt;Node4 -->
<g id="edge16" class="edge">
<title>Node13&#45;&gt;Node4</title>
<path fill="none" stroke="midnightblue" d="M1245.77,-68.52C1248.89,-67.98 1251.98,-67.47 1255,-67 1398.6,-44.63 1439.86,-69.47 1580,-31 1582.15,-30.41 1584.34,-29.69 1586.51,-28.9"/>
<polygon fill="midnightblue" stroke="midnightblue" points="1587.87,-32.12 1595.76,-25.05 1585.18,-25.66 1587.87,-32.12"/>
</g>
<!-- Node13&#45;&gt;Node11 -->
<g id="edge19" class="edge">
<title>Node13&#45;&gt;Node11</title>
<path fill="none" stroke="midnightblue" d="M1120.15,-77.63C1016.76,-70.85 804.48,-55.22 626,-31 617.26,-29.81 608.02,-28.34 599.05,-26.8"/>
<polygon fill="midnightblue" stroke="midnightblue" points="599.52,-23.33 589.07,-25.03 598.3,-30.22 599.52,-23.33"/>
</g>
<!-- Node14 -->
<g id="node14" class="node">
<title>Node14</title>
<g id="a_node14"><a xlink:title=" ">
<polygon fill="none" stroke="#bfbfbf" points="635.5,-6 635.5,-25 698.5,-25 698.5,-6 635.5,-6"/>
<text text-anchor="middle" x="667" y="-13" font-family="Helvetica,sans-Serif" font-size="10.00">tf2/utils.h</text>
</a>
</g>
</g>
<!-- Node13&#45;&gt;Node14 -->
<g id="edge13" class="edge">
<title>Node13&#45;&gt;Node14</title>
<path fill="none" stroke="midnightblue" d="M1120.32,-76.67C1009.86,-67.85 784.94,-48.44 708,-31 704.76,-30.27 701.42,-29.36 698.12,-28.35"/>
<polygon fill="midnightblue" stroke="midnightblue" points="699.02,-24.96 688.42,-25.14 696.82,-31.61 699.02,-24.96"/>
</g>
<!-- Node15 -->
<g id="node15" class="node">
<title>Node15</title>
<g id="a_node15"><a xlink:title=" ">
<polygon fill="none" stroke="#bfbfbf" points="1247.5,-6 1247.5,-25 1294.5,-25 1294.5,-6 1247.5,-6"/>
<text text-anchor="middle" x="1271" y="-13" font-family="Helvetica,sans-Serif" font-size="10.00">cmath</text>
</a>
</g>
</g>
<!-- Node13&#45;&gt;Node15 -->
<g id="edge14" class="edge">
<title>Node13&#45;&gt;Node15</title>
<path fill="none" stroke="midnightblue" d="M1202.09,-67.4C1216.58,-56.7 1236.43,-42.03 1251.11,-31.19"/>
<polygon fill="midnightblue" stroke="midnightblue" points="1253.52,-33.76 1259.48,-25.01 1249.36,-28.13 1253.52,-33.76"/>
</g>
<!-- Node16 -->
<g id="node16" class="node">
<title>Node16</title>
<g id="a_node16"><a xlink:title=" ">
<polygon fill="none" stroke="#bfbfbf" points="1313,-6 1313,-25 1371,-25 1371,-6 1313,-6"/>
<text text-anchor="middle" x="1342" y="-13" font-family="Helvetica,sans-Serif" font-size="10.00">memory</text>
</a>
</g>
</g>
<!-- Node13&#45;&gt;Node16 -->
<g id="edge15" class="edge">
<title>Node13&#45;&gt;Node16</title>
<path fill="none" stroke="midnightblue" d="M1217.5,-67.4C1245.65,-55.89 1285.01,-39.8 1311.89,-28.81"/>
<polygon fill="midnightblue" stroke="midnightblue" points="1313.26,-32.03 1321.19,-25.01 1310.61,-25.55 1313.26,-32.03"/>
</g>
<!-- Node17 -->
<g id="node17" class="node">
<title>Node17</title>
<g id="a_node17"><a xlink:title=" ">
<polygon fill="none" stroke="#bfbfbf" points="1389.5,-6 1389.5,-25 1436.5,-25 1436.5,-6 1389.5,-6"/>
<text text-anchor="middle" x="1413" y="-13" font-family="Helvetica,sans-Serif" font-size="10.00">vector</text>
</a>
</g>
</g>
<!-- Node13&#45;&gt;Node17 -->
<g id="edge17" class="edge">
<title>Node13&#45;&gt;Node17</title>
<path fill="none" stroke="midnightblue" d="M1245.88,-68.14C1284.95,-59.16 1335.95,-46.21 1380,-31 1381.86,-30.36 1383.77,-29.65 1385.67,-28.91"/>
<polygon fill="midnightblue" stroke="midnightblue" points="1387.16,-32.08 1395.06,-25.02 1384.48,-25.62 1387.16,-32.08"/>
</g>
<!-- Node18 -->
<g id="node18" class="node">
<title>Node18</title>
<g id="a_node18"><a target="_parent" xlink:href="../../../../../../beluga/docs/_doxygen/generated/reference/html/occupancy__grid_8hpp.html.html" xlink:title=" ">
<polygon fill="none" stroke="black" points="1455,-0.5 1455,-30.5 1571,-30.5 1571,-0.5 1455,-0.5"/>
<text text-anchor="start" x="1463" y="-18.5" font-family="Helvetica,sans-Serif" font-size="10.00">beluga/sensor/data</text>
<text text-anchor="middle" x="1513" y="-7.5" font-family="Helvetica,sans-Serif" font-size="10.00">/occupancy_grid.hpp</text>
</a>
</g>
</g>
<!-- Node13&#45;&gt;Node18 -->
<g id="edge18" class="edge">
<title>Node13&#45;&gt;Node18</title>
<path fill="none" stroke="midnightblue" d="M1245.82,-68.8C1248.92,-68.19 1252,-67.59 1255,-67 1336.72,-51.07 1359.69,-48.32 1445.05,-31.16"/>
<polygon fill="midnightblue" stroke="midnightblue" points="1445.81,-34.58 1454.92,-29.17 1444.42,-27.72 1445.81,-34.58"/>
</g>
<!-- Node19 -->
<g id="node19" class="node">
<title>Node19</title>
<g id="a_node19"><a xlink:title=" ">
<polygon fill="none" stroke="#bfbfbf" points="717,-6 717,-25 809,-25 809,-6 717,-6"/>
<text text-anchor="middle" x="763" y="-13" font-family="Helvetica,sans-Serif" font-size="10.00">sophus/se2.hpp</text>
</a>
</g>
</g>
<!-- Node13&#45;&gt;Node19 -->
<g id="edge20" class="edge">
<title>Node13&#45;&gt;Node19</title>
<path fill="none" stroke="midnightblue" d="M1120.29,-75.15C1047.27,-67.21 923.22,-52.07 818,-31 812.98,-30 807.75,-28.8 802.58,-27.54"/>
<polygon fill="midnightblue" stroke="midnightblue" points="803.37,-24.13 792.82,-25.06 801.65,-30.92 803.37,-24.13"/>
</g>
<!-- Node20 -->
<g id="node20" class="node">
<title>Node20</title>
<g id="a_node20"><a xlink:title=" ">
<polygon fill="none" stroke="#bfbfbf" points="1137,-6 1137,-25 1229,-25 1229,-6 1137,-6"/>
<text text-anchor="middle" x="1183" y="-13" font-family="Helvetica,sans-Serif" font-size="10.00">sophus/so2.hpp</text>
</a>
</g>
</g>
<!-- Node13&#45;&gt;Node20 -->
<g id="edge21" class="edge">
<title>Node13&#45;&gt;Node20</title>
<path fill="none" stroke="midnightblue" d="M1183,-67.4C1183,-58.06 1183,-45.71 1183,-35.52"/>
<polygon fill="midnightblue" stroke="midnightblue" points="1186.5,-35.19 1183,-25.19 1179.5,-35.19 1186.5,-35.19"/>
</g>
<!-- Node22&#45;&gt;Node11 -->
<g id="edge28" class="edge">
<title>Node22&#45;&gt;Node11</title>
<path fill="none" stroke="midnightblue" d="M546,-72.73C546,-63.18 546,-47.62 546,-35.28"/>
<polygon fill="midnightblue" stroke="midnightblue" points="549.5,-35.13 546,-25.13 542.5,-35.13 549.5,-35.13"/>
</g>
<!-- Node22&#45;&gt;Node12 -->
<g id="edge30" class="edge">
<title>Node22&#45;&gt;Node12</title>
<path fill="none" stroke="midnightblue" d="M505.29,-72.94C459.78,-63.26 383.93,-46.77 319,-31 314.62,-29.94 310.05,-28.79 305.5,-27.62"/>
<polygon fill="midnightblue" stroke="midnightblue" points="306.21,-24.19 295.65,-25.07 304.45,-30.97 306.21,-24.19"/>
</g>
<!-- Node22&#45;&gt;Node14 -->
<g id="edge27" class="edge">
<title>Node22&#45;&gt;Node14</title>
<path fill="none" stroke="midnightblue" d="M562.32,-72.73C582.82,-61.72 618.2,-42.71 642.09,-29.88"/>
<polygon fill="midnightblue" stroke="midnightblue" points="643.79,-32.94 650.94,-25.13 640.47,-26.78 643.79,-32.94"/>
</g>
<!-- Node22&#45;&gt;Node19 -->
<g id="edge29" class="edge">
<title>Node22&#45;&gt;Node19</title>
<path fill="none" stroke="midnightblue" d="M574.82,-72.87C613.35,-61.33 681.76,-40.84 724.62,-28"/>
<polygon fill="midnightblue" stroke="midnightblue" points="725.84,-31.29 734.41,-25.06 723.83,-24.58 725.84,-31.29"/>
</g>
<!-- Node23 -->
<g id="node23" class="node">
<title>Node23</title>
<g id="a_node23"><a xlink:title=" ">
<polygon fill="none" stroke="#bfbfbf" points="120.5,-6 120.5,-25 199.5,-25 199.5,-6 120.5,-6"/>
<text text-anchor="middle" x="160" y="-13" font-family="Helvetica,sans-Serif" font-size="10.00">tf2/convert.h</text>
</a>
</g>
</g>
<!-- Node22&#45;&gt;Node23 -->
<g id="edge26" class="edge">
<title>Node22&#45;&gt;Node23</title>
<path fill="none" stroke="midnightblue" d="M472.49,-73.47C403.86,-65.27 298.81,-50.92 209,-31 204.81,-30.07 200.45,-28.98 196.14,-27.81"/>
<polygon fill="midnightblue" stroke="midnightblue" points="196.85,-24.37 186.27,-25.01 194.94,-31.1 196.85,-24.37"/>
</g>
<!-- Node24 -->
<g id="node24" class="node">
<title>Node24</title>
<g id="a_node24"><a xlink:title=" ">
<polygon fill="none" stroke="#bfbfbf" points="0,-6 0,-25 102,-25 102,-6 0,-6"/>
<text text-anchor="middle" x="51" y="-13" font-family="Helvetica,sans-Serif" font-size="10.00">sophus/types.hpp</text>
</a>
</g>
</g>
<!-- Node22&#45;&gt;Node24 -->
<g id="edge31" class="edge">
<title>Node22&#45;&gt;Node24</title>
<path fill="none" stroke="midnightblue" d="M472.48,-75.71C385.67,-68.24 237.12,-53.47 111,-31 105.19,-29.96 99.1,-28.7 93.12,-27.36"/>
<polygon fill="midnightblue" stroke="midnightblue" points="93.77,-23.92 83.23,-25.05 92.17,-30.73 93.77,-23.92"/>
</g>
</g>
</svg>
        <g id="navigator" transform="translate(0 0)" fill="#404254">
                <rect fill="#f2f5e9" fill-opacity="0.5" stroke="#606060" stroke-width=".5" x="0" y="0" width="60" height="60"/>
                <use id="zoomplus" xlink:href="#zoomPlus" x="17" y="9" onmousedown="handleZoom(evt,'in')"/>
                <use id="zoomminus" xlink:href="#zoomMin" x="42" y="9" onmousedown="handleZoom(evt,'out')"/>
                <use id="reset" xlink:href="#resetDef" x="30" y="36" onmousedown="handleReset()"/>
                <g id="arrowUp" xlink:href="#dirArrow" transform="translate(30 24)" onmousedown="handlePan(0,-1)">
                  <use xlink:href="#rim" fill="#404040">
                        <set attributeName="fill" to="#808080" begin="arrowUp.mouseover" end="arrowUp.mouseout"/>
                  </use>
                  <path fill="none" stroke="white" stroke-width="1.5" d="M0,-3.0v7 M-2.5,-0.5L0,-3.0L2.5,-0.5"/>
                </g>
                <g id="arrowRight" xlink:href="#dirArrow" transform="rotate(90) translate(36 -43)" onmousedown="handlePan(1,0)">
                  <use xlink:href="#rim" fill="#404040">
                        <set attributeName="fill" to="#808080" begin="arrowRight.mouseover" end="arrowRight.mouseout"/>
                  </use>
                  <path fill="none" stroke="white" stroke-width="1.5" d="M0,-3.0v7 M-2.5,-0.5L0,-3.0L2.5,-0.5"/>
                </g>
                <g id="arrowDown" xlink:href="#dirArrow" transform="rotate(180) translate(-30 -48)" onmousedown="handlePan(0,1)">
                  <use xlink:href="#rim" fill="#404040">
                        <set attributeName="fill" to="#808080" begin="arrowDown.mouseover" end="arrowDown.mouseout"/>
                  </use>
                  <path fill="none" stroke="white" stroke-width="1.5" d="M0,-3.0v7 M-2.5,-0.5L0,-3.0L2.5,-0.5"/>
                </g>
                <g id="arrowLeft" xlink:href="#dirArrow" transform="rotate(270) translate(-36 17)" onmousedown="handlePan(-1,0)">
                  <use xlink:href="#rim" fill="#404040">
                        <set attributeName="fill" to="#808080" begin="arrowLeft.mouseover" end="arrowLeft.mouseout"/>
                  </use>
                  <path fill="none" stroke="white" stroke-width="1.5" d="M0,-3.0v7 M-2.5,-0.5L0,-3.0L2.5,-0.5"/>
                </g>
        </g>
        <svg viewBox="0 0 15 15" width="100%" height="30px" preserveAspectRatio="xMaxYMin meet">
         <g id="arrow_out" transform="scale(0.3 0.3)">
          <a xlink:href="beluga__ros_8hpp__incl_org.svg" target="_base">
           <rect id="button" ry="5" rx="5" y="6" x="6" height="38" width="38"
                fill="#f2f5e9" fill-opacity="0.5" stroke="#606060" stroke-width="1.0"/>
           <path id="arrow"
             d="M 11.500037,31.436501 C 11.940474,20.09759 22.043105,11.32322 32.158766,21.979434 L 37.068811,17.246167 C 37.068811,17.246167 37.088388,32 37.088388,32 L 22.160133,31.978069 C 22.160133,31.978069 26.997745,27.140456 26.997745,27.140456 C 18.528582,18.264221 13.291696,25.230495 11.500037,31.436501 z"
             style="fill:#404040;"/>
          </a>
         </g>
        </svg>
</svg>
