<?xml version="1.0" encoding="UTF-8" standalone="no"?>
<!DOCTYPE svg PUBLIC "-//W3C//DTD SVG 1.1//EN"
 "http://www.w3.org/Graphics/SVG/1.1/DTD/svg11.dtd">
<!-- Generated by graphviz version 2.43.0 (0)
 -->
<!-- Title: beluga_ros::LaserScan Pages: 1 -->
<svg width="142pt" height="151pt"
 viewBox="0.00 0.00 142.00 151.00" xmlns="http://www.w3.org/2000/svg" xmlns:xlink="http://www.w3.org/1999/xlink">
<g id="graph0" class="graph" transform="scale(1 1) rotate(0) translate(4 147)">
<title>beluga_ros::LaserScan</title>
<!-- Node1 -->
<g id="node1" class="node">
<title>Node1</title>
<g id="a_node1"><a xlink:title="Thin wrapper type for 2D sensor_msgs/LaserScan messages.">
<polygon fill="#bfbfbf" stroke="black" points="4.5,-0.5 4.5,-19.5 129.5,-19.5 129.5,-0.5 4.5,-0.5"/>
<text text-anchor="middle" x="67" y="-7.5" font-family="Helvetica,sans-Serif" font-size="10.00">beluga_ros::LaserScan</text>
</a>
</g>
</g>
<!-- Node2 -->
<g id="node2" class="node">
<title>Node2</title>
<g id="a_node2"><a target="_parent" xlink:href="../../../../../../beluga/docs/_doxygen/generated/reference/html/classbeluga_1_1BaseLaserScan.html" xlink:title=" ">
<polygon fill="none" stroke="black" points="2.5,-56.5 2.5,-86.5 131.5,-86.5 131.5,-56.5 2.5,-56.5"/>
<text text-anchor="start" x="10.5" y="-74.5" font-family="Helvetica,sans-Serif" font-size="10.00">beluga::BaseLaserScan</text>
<text text-anchor="middle" x="67" y="-63.5" font-family="Helvetica,sans-Serif" font-size="10.00">&lt; LaserScan &gt;</text>
</a>
</g>
</g>
<!-- Node2&#45;&gt;Node1 -->
<g id="edge1" class="edge">
<title>Node2&#45;&gt;Node1</title>
<path fill="none" stroke="midnightblue" d="M67,-46.29C67,-36.86 67,-26.65 67,-19.66"/>
<polygon fill="midnightblue" stroke="midnightblue" points="63.5,-46.4 67,-56.4 70.5,-46.4 63.5,-46.4"/>
</g>
<!-- Node3 -->
<g id="node3" class="node">
<title>Node3</title>
<g id="a_node3"><a target="_parent" xlink:href="../../../../../../beluga/docs/_doxygen/generated/reference/html/structbeluga_1_1enable__self.html" xlink:title=" ">
<polygon fill="none" stroke="black" points="0,-123.5 0,-142.5 134,-142.5 134,-123.5 0,-123.5"/>
<text text-anchor="middle" x="67" y="-130.5" font-family="Helvetica,sans-Serif" font-size="10.00">enable_self&lt; Derived &gt;</text>
</a>
</g>
</g>
<!-- Node3&#45;&gt;Node2 -->
<g id="edge2" class="edge">
<title>Node3&#45;&gt;Node2</title>
<path fill="none" stroke="midnightblue" d="M67,-113.23C67,-104.59 67,-94.5 67,-86.52"/>
<polygon fill="midnightblue" stroke="midnightblue" points="63.5,-113.48 67,-123.48 70.5,-113.48 63.5,-113.48"/>
</g>
</g>
</svg>
