<?xml version="1.0" encoding="UTF-8" standalone="no"?>
<!DOCTYPE svg PUBLIC "-//W3C//DTD SVG 1.1//EN"
 "http://www.w3.org/Graphics/SVG/1.1/DTD/svg11.dtd">
<!-- Generated by graphviz version 2.43.0 (0)
 -->
<!-- Title: beluga_ros::PointCloud3&lt; T, Strict &gt; Pages: 1 -->
<svg width="142pt" height="162pt"
 viewBox="0.00 0.00 142.00 162.00" xmlns="http://www.w3.org/2000/svg" xmlns:xlink="http://www.w3.org/1999/xlink">
<g id="graph0" class="graph" transform="scale(1 1) rotate(0) translate(4 158)">
<title>beluga_ros::PointCloud3&lt; T, Strict &gt;</title>
<!-- Node1 -->
<g id="node1" class="node">
<title>Node1</title>
<g id="a_node1"><a xlink:title="Thin wrapper type for 3D sensor_msgs/PointCloud2 messages with dense layouts.">
<polygon fill="#bfbfbf" stroke="black" points="0,-0.5 0,-30.5 134,-30.5 134,-0.5 0,-0.5"/>
<text text-anchor="start" x="8" y="-18.5" font-family="Helvetica,sans-Serif" font-size="10.00">beluga_ros::PointCloud3</text>
<text text-anchor="middle" x="67" y="-7.5" font-family="Helvetica,sans-Serif" font-size="10.00">&lt; T, Strict &gt;</text>
</a>
</g>
</g>
<!-- Node2 -->
<g id="node2" class="node">
<title>Node2</title>
<g id="a_node2"><a target="_parent" xlink:href="../../../../../../beluga/docs/_doxygen/generated/reference/html/classbeluga_1_1BasePointCloud.html" xlink:title=" ">
<polygon fill="none" stroke="black" points="1,-67.5 1,-97.5 133,-97.5 133,-67.5 1,-67.5"/>
<text text-anchor="start" x="9" y="-85.5" font-family="Helvetica,sans-Serif" font-size="10.00">beluga::BasePointCloud</text>
<text text-anchor="middle" x="67" y="-74.5" font-family="Helvetica,sans-Serif" font-size="10.00">&lt; PointCloud3&lt; T &gt; &gt;</text>
</a>
</g>
</g>
<!-- Node2&#45;&gt;Node1 -->
<g id="edge1" class="edge">
<title>Node2&#45;&gt;Node1</title>
<path fill="none" stroke="midnightblue" d="M67,-57.11C67,-48.15 67,-38.32 67,-30.58"/>
<polygon fill="midnightblue" stroke="midnightblue" points="63.5,-57.4 67,-67.4 70.5,-57.4 63.5,-57.4"/>
</g>
<!-- Node3 -->
<g id="node3" class="node">
<title>Node3</title>
<g id="a_node3"><a target="_parent" xlink:href="../../../../../../beluga/docs/_doxygen/generated/reference/html/structbeluga_1_1enable__self.html" xlink:title=" ">
<polygon fill="none" stroke="black" points="0,-134.5 0,-153.5 134,-153.5 134,-134.5 0,-134.5"/>
<text text-anchor="middle" x="67" y="-141.5" font-family="Helvetica,sans-Serif" font-size="10.00">enable_self&lt; Derived &gt;</text>
</a>
</g>
</g>
<!-- Node3&#45;&gt;Node2 -->
<g id="edge2" class="edge">
<title>Node3&#45;&gt;Node2</title>
<path fill="none" stroke="midnightblue" d="M67,-124.23C67,-115.59 67,-105.5 67,-97.52"/>
<polygon fill="midnightblue" stroke="midnightblue" points="63.5,-124.48 67,-134.48 70.5,-124.48 63.5,-124.48"/>
</g>
</g>
</svg>
