<?xml version="1.0" encoding="UTF-8" standalone="no"?>
<!DOCTYPE svg PUBLIC "-//W3C//DTD SVG 1.1//EN"
 "http://www.w3.org/Graphics/SVG/1.1/DTD/svg11.dtd">
<!-- Generated by graphviz version 2.43.0 (0)
 -->
<!-- Title: beluga_ros::OccupancyGrid Pages: 1 -->
<svg width="167pt" height="296pt"
 viewBox="0.00 0.00 167.00 296.00" xmlns="http://www.w3.org/2000/svg" xmlns:xlink="http://www.w3.org/1999/xlink">
<g id="graph0" class="graph" transform="scale(1 1) rotate(0) translate(4 292)">
<title>beluga_ros::OccupancyGrid</title>
<!-- Node1 -->
<g id="node1" class="node">
<title>Node1</title>
<g id="a_node1"><a xlink:title="Thin wrapper type for 2D nav_msgs/OccupancyGrid messages.">
<polygon fill="#bfbfbf" stroke="black" points="5,-0.5 5,-19.5 154,-19.5 154,-0.5 5,-0.5"/>
<text text-anchor="middle" x="79.5" y="-7.5" font-family="Helvetica,sans-Serif" font-size="10.00">beluga_ros::OccupancyGrid</text>
</a>
</g>
</g>
<!-- Node2 -->
<g id="node2" class="node">
<title>Node2</title>
<g id="a_node2"><a target="_parent" xlink:href="../../../../../../beluga/docs/_doxygen/generated/reference/html/classbeluga_1_1BaseOccupancyGrid2.html" xlink:title=" ">
<polygon fill="none" stroke="black" points="0,-56.5 0,-86.5 159,-86.5 159,-56.5 0,-56.5"/>
<text text-anchor="start" x="8" y="-74.5" font-family="Helvetica,sans-Serif" font-size="10.00">beluga::BaseOccupancyGrid2</text>
<text text-anchor="middle" x="79.5" y="-63.5" font-family="Helvetica,sans-Serif" font-size="10.00">&lt; OccupancyGrid &gt;</text>
</a>
</g>
</g>
<!-- Node2&#45;&gt;Node1 -->
<g id="edge1" class="edge">
<title>Node2&#45;&gt;Node1</title>
<path fill="none" stroke="midnightblue" d="M79.5,-46.29C79.5,-36.86 79.5,-26.65 79.5,-19.66"/>
<polygon fill="midnightblue" stroke="midnightblue" points="76,-46.4 79.5,-56.4 83,-46.4 76,-46.4"/>
</g>
<!-- Node3 -->
<g id="node3" class="node">
<title>Node3</title>
<g id="a_node3"><a target="_parent" xlink:href="../../../../../../beluga/docs/_doxygen/generated/reference/html/classbeluga_1_1BaseLinearGrid2.html" xlink:title=" ">
<polygon fill="none" stroke="black" points="11.5,-123.5 11.5,-153.5 147.5,-153.5 147.5,-123.5 11.5,-123.5"/>
<text text-anchor="start" x="19.5" y="-141.5" font-family="Helvetica,sans-Serif" font-size="10.00">beluga::BaseLinearGrid2</text>
<text text-anchor="middle" x="79.5" y="-130.5" font-family="Helvetica,sans-Serif" font-size="10.00">&lt; class &gt;</text>
</a>
</g>
</g>
<!-- Node3&#45;&gt;Node2 -->
<g id="edge2" class="edge">
<title>Node3&#45;&gt;Node2</title>
<path fill="none" stroke="midnightblue" d="M79.5,-113.11C79.5,-104.15 79.5,-94.32 79.5,-86.58"/>
<polygon fill="midnightblue" stroke="midnightblue" points="76,-113.4 79.5,-123.4 83,-113.4 76,-113.4"/>
</g>
<!-- Node4 -->
<g id="node4" class="node">
<title>Node4</title>
<g id="a_node4"><a target="_parent" xlink:href="../../../../../../beluga/docs/_doxygen/generated/reference/html/classbeluga_1_1BaseDenseGrid2.html" xlink:title=" ">
<polygon fill="none" stroke="black" points="11,-190.5 11,-220.5 148,-220.5 148,-190.5 11,-190.5"/>
<text text-anchor="start" x="19" y="-208.5" font-family="Helvetica,sans-Serif" font-size="10.00">beluga::BaseDenseGrid2</text>
<text text-anchor="middle" x="79.5" y="-197.5" font-family="Helvetica,sans-Serif" font-size="10.00">&lt; class &gt;</text>
</a>
</g>
</g>
<!-- Node4&#45;&gt;Node3 -->
<g id="edge3" class="edge">
<title>Node4&#45;&gt;Node3</title>
<path fill="none" stroke="midnightblue" d="M79.5,-180.11C79.5,-171.15 79.5,-161.32 79.5,-153.58"/>
<polygon fill="midnightblue" stroke="midnightblue" points="76,-180.4 79.5,-190.4 83,-180.4 76,-180.4"/>
</g>
<!-- Node5 -->
<g id="node5" class="node">
<title>Node5</title>
<g id="a_node5"><a target="_parent" xlink:href="../../../../../../beluga/docs/_doxygen/generated/reference/html/classbeluga_1_1BaseRegularGrid2.html" xlink:title=" ">
<polygon fill="none" stroke="black" points="8,-257.5 8,-287.5 151,-287.5 151,-257.5 8,-257.5"/>
<text text-anchor="start" x="16" y="-275.5" font-family="Helvetica,sans-Serif" font-size="10.00">beluga::BaseRegularGrid2</text>
<text text-anchor="middle" x="79.5" y="-264.5" font-family="Helvetica,sans-Serif" font-size="10.00">&lt; class &gt;</text>
</a>
</g>
</g>
<!-- Node5&#45;&gt;Node4 -->
<g id="edge4" class="edge">
<title>Node5&#45;&gt;Node4</title>
<path fill="none" stroke="midnightblue" d="M79.5,-247.11C79.5,-238.15 79.5,-228.32 79.5,-220.58"/>
<polygon fill="midnightblue" stroke="midnightblue" points="76,-247.4 79.5,-257.4 83,-247.4 76,-247.4"/>
</g>
</g>
</svg>
