<?xml version="1.0" encoding="UTF-8" standalone="no"?>
<!DOCTYPE svg PUBLIC "-//W3C//DTD SVG 1.1//EN"
 "http://www.w3.org/Graphics/SVG/1.1/DTD/svg11.dtd">
<!-- Generated by graphviz version 2.43.0 (0)
 -->
<!-- Title: Graphical Class Hierarchy Pages: 1 -->
<svg width="870pt" height="39pt"
 viewBox="0.00 0.00 870.00 39.00" xmlns="http://www.w3.org/2000/svg" xmlns:xlink="http://www.w3.org/1999/xlink">
<g id="graph0" class="graph" transform="scale(1 1) rotate(0) translate(4 35)">
<title>Graphical Class Hierarchy</title>
<!-- Node0 -->
<g id="node1" class="node">
<title>Node0</title>
<g id="a_node1"><a target="_parent" xlink:href="../../../../../../beluga/docs/_doxygen/generated/reference/html/classbeluga_1_1BaseRegularGrid.html" xlink:title=" ">
<polygon fill="none" stroke="black" points="0,-0.5 0,-30.5 137,-30.5 137,-0.5 0,-0.5"/>
<text text-anchor="start" x="8" y="-18.5" font-family="Helvetica,sans-Serif" font-size="10.00">beluga::BaseRegularGrid</text>
<text text-anchor="middle" x="68.5" y="-7.5" font-family="Helvetica,sans-Serif" font-size="10.00">&lt; class, NDim &gt;</text>
</a>
</g>
</g>
<!-- Node1 -->
<g id="node2" class="node">
<title>Node1</title>
<g id="a_node2"><a target="_parent" xlink:href="../../../../../../beluga/docs/_doxygen/generated/reference/html/classbeluga_1_1BaseDenseGrid2.html" xlink:title=" ">
<polygon fill="none" stroke="black" points="173,-0.5 173,-30.5 310,-30.5 310,-0.5 173,-0.5"/>
<text text-anchor="start" x="181" y="-18.5" font-family="Helvetica,sans-Serif" font-size="10.00">beluga::BaseDenseGrid2</text>
<text text-anchor="middle" x="241.5" y="-7.5" font-family="Helvetica,sans-Serif" font-size="10.00">&lt; class &gt;</text>
</a>
</g>
</g>
<!-- Node0&#45;&gt;Node1 -->
<g id="edge1" class="edge">
<title>Node0&#45;&gt;Node1</title>
<path fill="none" stroke="midnightblue" d="M147.1,-15.5C155.69,-15.5 164.39,-15.5 172.85,-15.5"/>
<polygon fill="midnightblue" stroke="midnightblue" points="147.08,-12 137.08,-15.5 147.08,-19 147.08,-12"/>
</g>
<!-- Node2 -->
<g id="node3" class="node">
<title>Node2</title>
<g id="a_node3"><a target="_parent" xlink:href="../../../../../../beluga/docs/_doxygen/generated/reference/html/classbeluga_1_1BaseLinearGrid2.html" xlink:title=" ">
<polygon fill="none" stroke="black" points="346,-0.5 346,-30.5 482,-30.5 482,-0.5 346,-0.5"/>
<text text-anchor="start" x="354" y="-18.5" font-family="Helvetica,sans-Serif" font-size="10.00">beluga::BaseLinearGrid2</text>
<text text-anchor="middle" x="414" y="-7.5" font-family="Helvetica,sans-Serif" font-size="10.00">&lt; class &gt;</text>
</a>
</g>
</g>
<!-- Node1&#45;&gt;Node2 -->
<g id="edge2" class="edge">
<title>Node1&#45;&gt;Node2</title>
<path fill="none" stroke="midnightblue" d="M320.61,-15.5C329.07,-15.5 337.61,-15.5 345.91,-15.5"/>
<polygon fill="midnightblue" stroke="midnightblue" points="320.38,-12 310.38,-15.5 320.38,-19 320.38,-12"/>
</g>
<!-- Node3 -->
<g id="node4" class="node">
<title>Node3</title>
<g id="a_node4"><a target="_parent" xlink:href="../../../../../../beluga/docs/_doxygen/generated/reference/html/classbeluga_1_1BaseOccupancyGrid2.html" xlink:title=" ">
<polygon fill="none" stroke="black" points="518,-0.5 518,-30.5 677,-30.5 677,-0.5 518,-0.5"/>
<text text-anchor="start" x="526" y="-18.5" font-family="Helvetica,sans-Serif" font-size="10.00">beluga::BaseOccupancyGrid2</text>
<text text-anchor="middle" x="597.5" y="-7.5" font-family="Helvetica,sans-Serif" font-size="10.00">&lt; OccupancyGrid &gt;</text>
</a>
</g>
</g>
<!-- Node2&#45;&gt;Node3 -->
<g id="edge3" class="edge">
<title>Node2&#45;&gt;Node3</title>
<path fill="none" stroke="midnightblue" d="M492.26,-15.5C500.69,-15.5 509.29,-15.5 517.74,-15.5"/>
<polygon fill="midnightblue" stroke="midnightblue" points="492.07,-12 482.07,-15.5 492.07,-19 492.07,-12"/>
</g>
<!-- Node4 -->
<g id="node5" class="node">
<title>Node4</title>
<g id="a_node5"><a xlink:href="classbeluga__ros_1_1OccupancyGrid.html" target="_top" xlink:title="Thin wrapper type for 2D nav_msgs/OccupancyGrid messages.">
<polygon fill="none" stroke="black" points="713,-6 713,-25 862,-25 862,-6 713,-6"/>
<text text-anchor="middle" x="787.5" y="-13" font-family="Helvetica,sans-Serif" font-size="10.00">beluga_ros::OccupancyGrid</text>
</a>
</g>
</g>
<!-- Node3&#45;&gt;Node4 -->
<g id="edge4" class="edge">
<title>Node3&#45;&gt;Node4</title>
<path fill="none" stroke="midnightblue" d="M687.22,-15.5C695.84,-15.5 704.53,-15.5 712.98,-15.5"/>
<polygon fill="midnightblue" stroke="midnightblue" points="687.14,-12 677.14,-15.5 687.14,-19 687.14,-12"/>
</g>
</g>
</svg>
