<?xml version="1.0" encoding="UTF-8" standalone="no"?>
<!DOCTYPE svg PUBLIC "-//W3C//DTD SVG 1.1//EN"
 "http://www.w3.org/Graphics/SVG/1.1/DTD/svg11.dtd">
<!-- Generated by graphviz version 2.43.0 (0)
 -->
<!-- Title: Graphical Class Hierarchy Pages: 1 -->
<svg width="1098pt" height="186pt"
 viewBox="0.00 0.00 1098.00 186.00" xmlns="http://www.w3.org/2000/svg" xmlns:xlink="http://www.w3.org/1999/xlink">
<g id="graph0" class="graph" transform="scale(1 1) rotate(0) translate(4 182)">
<title>Graphical Class Hierarchy</title>
<!-- Node0 -->
<g id="node1" class="node">
<title>Node0</title>
<g id="a_node1"><a target="_parent" xlink:href="../../../../../../beluga/docs/_doxygen/generated/reference/html/structbeluga_1_1enable__self.html" xlink:title=" ">
<polygon fill="none" stroke="black" points="0,-79 0,-98 134,-98 134,-79 0,-79"/>
<text text-anchor="middle" x="67" y="-86" font-family="Helvetica,sans-Serif" font-size="10.00">enable_self&lt; Derived &gt;</text>
</a>
</g>
</g>
<!-- Node1 -->
<g id="node2" class="node">
<title>Node1</title>
<g id="a_node2"><a target="_parent" xlink:href="../../../../../../beluga/docs/_doxygen/generated/reference/html/classbeluga_1_1BaseLaserScan.html" xlink:title=" ">
<polygon fill="none" stroke="black" points="188,-147.5 188,-177.5 317,-177.5 317,-147.5 188,-147.5"/>
<text text-anchor="start" x="196" y="-165.5" font-family="Helvetica,sans-Serif" font-size="10.00">beluga::BaseLaserScan</text>
<text text-anchor="middle" x="252.5" y="-154.5" font-family="Helvetica,sans-Serif" font-size="10.00">&lt; LaserScan &gt;</text>
</a>
</g>
</g>
<!-- Node0&#45;&gt;Node1 -->
<g id="edge1" class="edge">
<title>Node0&#45;&gt;Node1</title>
<path fill="none" stroke="midnightblue" d="M94.22,-102.89C114.5,-113.63 143.5,-128.19 170,-138.5 178.25,-141.71 187.11,-144.73 195.84,-147.48"/>
<polygon fill="midnightblue" stroke="midnightblue" points="95.75,-99.74 85.28,-98.1 92.44,-105.91 95.75,-99.74"/>
</g>
<!-- Node3 -->
<g id="node4" class="node">
<title>Node3</title>
<g id="a_node4"><a target="_parent" xlink:href="../../../../../../beluga/docs/_doxygen/generated/reference/html/classbeluga_1_1BasePointCloud.html" xlink:title=" ">
<polygon fill="none" stroke="black" points="186.5,-98.5 186.5,-128.5 318.5,-128.5 318.5,-98.5 186.5,-98.5"/>
<text text-anchor="start" x="194.5" y="-116.5" font-family="Helvetica,sans-Serif" font-size="10.00">beluga::BasePointCloud</text>
<text text-anchor="middle" x="252.5" y="-105.5" font-family="Helvetica,sans-Serif" font-size="10.00">&lt; PointCloud3&lt; T &gt; &gt;</text>
</a>
</g>
</g>
<!-- Node0&#45;&gt;Node3 -->
<g id="edge3" class="edge">
<title>Node0&#45;&gt;Node3</title>
<path fill="none" stroke="midnightblue" d="M144.3,-98.89C158.25,-100.79 172.68,-102.76 186.27,-104.61"/>
<polygon fill="midnightblue" stroke="midnightblue" points="144.63,-95.41 134.25,-97.53 143.68,-102.34 144.63,-95.41"/>
</g>
<!-- Node5 -->
<g id="node6" class="node">
<title>Node5</title>
<g id="a_node6"><a target="_parent" xlink:href="../../../../../../beluga/docs/_doxygen/generated/reference/html/classbeluga_1_1BaseSparsePointCloud.html" xlink:title=" ">
<polygon fill="none" stroke="black" points="170,-49.5 170,-79.5 335,-79.5 335,-49.5 170,-49.5"/>
<text text-anchor="start" x="178" y="-67.5" font-family="Helvetica,sans-Serif" font-size="10.00">beluga::BaseSparsePointCloud</text>
<text text-anchor="middle" x="252.5" y="-56.5" font-family="Helvetica,sans-Serif" font-size="10.00">&lt; SparsePointCloud3&lt; T &gt; &gt;</text>
</a>
</g>
</g>
<!-- Node0&#45;&gt;Node5 -->
<g id="edge5" class="edge">
<title>Node0&#45;&gt;Node5</title>
<path fill="none" stroke="midnightblue" d="M144.44,-78.5C152.88,-77.4 161.5,-76.27 170,-75.16"/>
<polygon fill="midnightblue" stroke="midnightblue" points="143.71,-75.07 134.25,-79.84 144.62,-82.01 143.71,-75.07"/>
</g>
<!-- Node7 -->
<g id="node8" class="node">
<title>Node7</title>
<g id="a_node8"><a target="_parent" xlink:href="../../../../../../beluga/docs/_doxygen/generated/reference/html/classbeluga_1_1BaseRegularGrid.html" xlink:title=" ">
<polygon fill="none" stroke="black" points="184,-0.5 184,-30.5 321,-30.5 321,-0.5 184,-0.5"/>
<text text-anchor="start" x="192" y="-18.5" font-family="Helvetica,sans-Serif" font-size="10.00">beluga::BaseRegularGrid</text>
<text text-anchor="middle" x="252.5" y="-7.5" font-family="Helvetica,sans-Serif" font-size="10.00">&lt; class, NDim &gt;</text>
</a>
</g>
</g>
<!-- Node0&#45;&gt;Node7 -->
<g id="edge7" class="edge">
<title>Node0&#45;&gt;Node7</title>
<path fill="none" stroke="midnightblue" d="M94.62,-74.25C114.9,-63.75 143.72,-49.6 170,-39.5 178.26,-36.32 187.13,-33.32 195.86,-30.58"/>
<polygon fill="midnightblue" stroke="midnightblue" points="92.91,-71.19 85.67,-78.93 96.15,-77.4 92.91,-71.19"/>
</g>
<!-- Node2 -->
<g id="node3" class="node">
<title>Node2</title>
<g id="a_node3"><a xlink:href="classbeluga__ros_1_1LaserScan.html" target="_top" xlink:title="Thin wrapper type for 2D sensor_msgs/LaserScan messages.">
<polygon fill="none" stroke="black" points="392,-153 392,-172 517,-172 517,-153 392,-153"/>
<text text-anchor="middle" x="454.5" y="-160" font-family="Helvetica,sans-Serif" font-size="10.00">beluga_ros::LaserScan</text>
</a>
</g>
</g>
<!-- Node1&#45;&gt;Node2 -->
<g id="edge2" class="edge">
<title>Node1&#45;&gt;Node2</title>
<path fill="none" stroke="midnightblue" d="M327.31,-162.5C348.52,-162.5 371.42,-162.5 391.82,-162.5"/>
<polygon fill="midnightblue" stroke="midnightblue" points="327.06,-159 317.06,-162.5 327.06,-166 327.06,-159"/>
</g>
<!-- Node4 -->
<g id="node5" class="node">
<title>Node4</title>
<g id="a_node5"><a xlink:href="classbeluga__ros_1_1PointCloud3.html" target="_top" xlink:title="Thin wrapper type for 3D sensor_msgs/PointCloud2 messages with dense layouts.">
<polygon fill="none" stroke="black" points="387.5,-98.5 387.5,-128.5 521.5,-128.5 521.5,-98.5 387.5,-98.5"/>
<text text-anchor="start" x="395.5" y="-116.5" font-family="Helvetica,sans-Serif" font-size="10.00">beluga_ros::PointCloud3</text>
<text text-anchor="middle" x="454.5" y="-105.5" font-family="Helvetica,sans-Serif" font-size="10.00">&lt; T, Strict &gt;</text>
</a>
</g>
</g>
<!-- Node3&#45;&gt;Node4 -->
<g id="edge4" class="edge">
<title>Node3&#45;&gt;Node4</title>
<path fill="none" stroke="midnightblue" d="M328.93,-113.5C348.14,-113.5 368.64,-113.5 387.35,-113.5"/>
<polygon fill="midnightblue" stroke="midnightblue" points="328.71,-110 318.71,-113.5 328.71,-117 328.71,-110"/>
</g>
<!-- Node6 -->
<g id="node7" class="node">
<title>Node6</title>
<g id="a_node7"><a xlink:href="classbeluga__ros_1_1SparsePointCloud3.html" target="_top" xlink:title="Thin wrapper for 3D sensor_msgs/PointCloud2 messages with potentially sparse layouts.">
<polygon fill="none" stroke="black" points="371,-49.5 371,-79.5 538,-79.5 538,-49.5 371,-49.5"/>
<text text-anchor="start" x="379" y="-67.5" font-family="Helvetica,sans-Serif" font-size="10.00">beluga_ros::SparsePointCloud3</text>
<text text-anchor="middle" x="454.5" y="-56.5" font-family="Helvetica,sans-Serif" font-size="10.00">&lt; T, Strict &gt;</text>
</a>
</g>
</g>
<!-- Node5&#45;&gt;Node6 -->
<g id="edge6" class="edge">
<title>Node5&#45;&gt;Node6</title>
<path fill="none" stroke="midnightblue" d="M345.14,-64.5C353.7,-64.5 362.35,-64.5 370.83,-64.5"/>
<polygon fill="midnightblue" stroke="midnightblue" points="345.14,-61 335.14,-64.5 345.14,-68 345.14,-61"/>
</g>
<!-- Node8 -->
<g id="node9" class="node">
<title>Node8</title>
<g id="a_node9"><a target="_parent" xlink:href="../../../../../../beluga/docs/_doxygen/generated/reference/html/classbeluga_1_1BaseDenseGrid2.html" xlink:title=" ">
<polygon fill="none" stroke="black" points="386,-0.5 386,-30.5 523,-30.5 523,-0.5 386,-0.5"/>
<text text-anchor="start" x="394" y="-18.5" font-family="Helvetica,sans-Serif" font-size="10.00">beluga::BaseDenseGrid2</text>
<text text-anchor="middle" x="454.5" y="-7.5" font-family="Helvetica,sans-Serif" font-size="10.00">&lt; class &gt;</text>
</a>
</g>
</g>
<!-- Node7&#45;&gt;Node8 -->
<g id="edge8" class="edge">
<title>Node7&#45;&gt;Node8</title>
<path fill="none" stroke="midnightblue" d="M331.37,-15.5C349.36,-15.5 368.35,-15.5 385.86,-15.5"/>
<polygon fill="midnightblue" stroke="midnightblue" points="331.21,-12 321.21,-15.5 331.21,-19 331.21,-12"/>
</g>
<!-- Node9 -->
<g id="node10" class="node">
<title>Node9</title>
<g id="a_node10"><a target="_parent" xlink:href="../../../../../../beluga/docs/_doxygen/generated/reference/html/classbeluga_1_1BaseLinearGrid2.html" xlink:title=" ">
<polygon fill="none" stroke="black" points="574,-0.5 574,-30.5 710,-30.5 710,-0.5 574,-0.5"/>
<text text-anchor="start" x="582" y="-18.5" font-family="Helvetica,sans-Serif" font-size="10.00">beluga::BaseLinearGrid2</text>
<text text-anchor="middle" x="642" y="-7.5" font-family="Helvetica,sans-Serif" font-size="10.00">&lt; class &gt;</text>
</a>
</g>
</g>
<!-- Node8&#45;&gt;Node9 -->
<g id="edge9" class="edge">
<title>Node8&#45;&gt;Node9</title>
<path fill="none" stroke="midnightblue" d="M533.41,-15.5C546.81,-15.5 560.64,-15.5 573.74,-15.5"/>
<polygon fill="midnightblue" stroke="midnightblue" points="533.26,-12 523.26,-15.5 533.26,-19 533.26,-12"/>
</g>
<!-- Node10 -->
<g id="node11" class="node">
<title>Node10</title>
<g id="a_node11"><a target="_parent" xlink:href="../../../../../../beluga/docs/_doxygen/generated/reference/html/classbeluga_1_1BaseOccupancyGrid2.html" xlink:title=" ">
<polygon fill="none" stroke="black" points="746,-0.5 746,-30.5 905,-30.5 905,-0.5 746,-0.5"/>
<text text-anchor="start" x="754" y="-18.5" font-family="Helvetica,sans-Serif" font-size="10.00">beluga::BaseOccupancyGrid2</text>
<text text-anchor="middle" x="825.5" y="-7.5" font-family="Helvetica,sans-Serif" font-size="10.00">&lt; OccupancyGrid &gt;</text>
</a>
</g>
</g>
<!-- Node9&#45;&gt;Node10 -->
<g id="edge10" class="edge">
<title>Node9&#45;&gt;Node10</title>
<path fill="none" stroke="midnightblue" d="M720.26,-15.5C728.69,-15.5 737.29,-15.5 745.74,-15.5"/>
<polygon fill="midnightblue" stroke="midnightblue" points="720.07,-12 710.07,-15.5 720.07,-19 720.07,-12"/>
</g>
<!-- Node11 -->
<g id="node12" class="node">
<title>Node11</title>
<g id="a_node12"><a xlink:href="classbeluga__ros_1_1OccupancyGrid.html" target="_top" xlink:title="Thin wrapper type for 2D nav_msgs/OccupancyGrid messages.">
<polygon fill="none" stroke="black" points="941,-6 941,-25 1090,-25 1090,-6 941,-6"/>
<text text-anchor="middle" x="1015.5" y="-13" font-family="Helvetica,sans-Serif" font-size="10.00">beluga_ros::OccupancyGrid</text>
</a>
</g>
</g>
<!-- Node10&#45;&gt;Node11 -->
<g id="edge11" class="edge">
<title>Node10&#45;&gt;Node11</title>
<path fill="none" stroke="midnightblue" d="M915.22,-15.5C923.84,-15.5 932.53,-15.5 940.98,-15.5"/>
<polygon fill="midnightblue" stroke="midnightblue" points="915.14,-12 905.14,-15.5 915.14,-19 915.14,-12"/>
</g>
</g>
</svg>
