<?xml version="1.0" encoding="UTF-8" standalone="no"?>
<!DOCTYPE svg PUBLIC "-//W3C//DTD SVG 1.1//EN"
 "http://www.w3.org/Graphics/SVG/1.1/DTD/svg11.dtd">
<!-- Generated by graphviz version 2.43.0 (0)
 -->
<!-- Title: /home/runner/work/beluga/beluga/beluga_ros/include/beluga_ros/laser_scan.hpp Pages: 1 -->
<svg width="867pt" height="184pt"
 viewBox="0.00 0.00 866.50 184.00" xmlns="http://www.w3.org/2000/svg" xmlns:xlink="http://www.w3.org/1999/xlink">
<g id="graph0" class="graph" transform="scale(1 1) rotate(0) translate(4 180)">
<title>/home/runner/work/beluga/beluga/beluga_ros/include/beluga_ros/laser_scan.hpp</title>
<!-- Node1 -->
<g id="node1" class="node">
<title>Node1</title>
<g id="a_node1"><a xlink:title="Implementation of sensor_msgs/LaserScan wrapper type.">
<polygon fill="#bfbfbf" stroke="black" points="366.5,-134.5 366.5,-175.5 515.5,-175.5 515.5,-134.5 366.5,-134.5"/>
<text text-anchor="start" x="374.5" y="-163.5" font-family="Helvetica,sans-Serif" font-size="10.00">/home/runner/work/beluga</text>
<text text-anchor="start" x="374.5" y="-152.5" font-family="Helvetica,sans-Serif" font-size="10.00">/beluga/beluga_ros/include</text>
<text text-anchor="middle" x="441" y="-141.5" font-family="Helvetica,sans-Serif" font-size="10.00">/beluga_ros/laser_scan.hpp</text>
</a>
</g>
</g>
<!-- Node2 -->
<g id="node2" class="node">
<title>Node2</title>
<g id="a_node2"><a xlink:title=" ">
<polygon fill="none" stroke="#bfbfbf" points="0,-73 0,-92 128,-92 128,-73 0,-73"/>
<text text-anchor="middle" x="64" y="-80" font-family="Helvetica,sans-Serif" font-size="10.00">range/v3/view/iota.hpp</text>
</a>
</g>
</g>
<!-- Node1&#45;&gt;Node2 -->
<g id="edge1" class="edge">
<title>Node1&#45;&gt;Node2</title>
<path fill="none" stroke="midnightblue" d="M366.3,-140.54C304.73,-129.37 215.14,-112.96 137,-98 130.35,-96.73 123.36,-95.37 116.46,-94.01"/>
<polygon fill="midnightblue" stroke="midnightblue" points="116.93,-90.54 106.44,-92.03 115.57,-97.4 116.93,-90.54"/>
</g>
<!-- Node3 -->
<g id="node3" class="node">
<title>Node3</title>
<g id="a_node3"><a target="_parent" xlink:href="../../../../../../beluga/docs/_doxygen/generated/reference/html/laser__scan_8hpp.html.html" xlink:title=" ">
<polygon fill="none" stroke="black" points="146,-67.5 146,-97.5 256,-97.5 256,-67.5 146,-67.5"/>
<text text-anchor="start" x="154" y="-85.5" font-family="Helvetica,sans-Serif" font-size="10.00">beluga/sensor/data</text>
<text text-anchor="middle" x="201" y="-74.5" font-family="Helvetica,sans-Serif" font-size="10.00">/laser_scan.hpp</text>
</a>
</g>
</g>
<!-- Node1&#45;&gt;Node3 -->
<g id="edge2" class="edge">
<title>Node1&#45;&gt;Node3</title>
<path fill="none" stroke="midnightblue" d="M374.47,-134.46C338.23,-123.81 293.82,-110.76 259,-100.54"/>
<polygon fill="midnightblue" stroke="midnightblue" points="259.57,-97.06 248.99,-97.6 257.6,-103.77 259.57,-97.06"/>
</g>
<!-- Node4 -->
<g id="node4" class="node">
<title>Node4</title>
<g id="a_node4"><a target="_parent" xlink:href="../../../../../../beluga/docs/_doxygen/generated/reference/html/take__evenly_8hpp.html.html" xlink:title=" ">
<polygon fill="none" stroke="black" points="274.5,-73 274.5,-92 437.5,-92 437.5,-73 274.5,-73"/>
<text text-anchor="middle" x="356" y="-80" font-family="Helvetica,sans-Serif" font-size="10.00">beluga/views/take_evenly.hpp</text>
</a>
</g>
</g>
<!-- Node1&#45;&gt;Node4 -->
<g id="edge3" class="edge">
<title>Node1&#45;&gt;Node4</title>
<path fill="none" stroke="midnightblue" d="M417.32,-134.36C403.75,-123.11 386.97,-109.19 374.4,-98.76"/>
<polygon fill="midnightblue" stroke="midnightblue" points="376.39,-95.86 366.46,-92.17 371.92,-101.25 376.39,-95.86"/>
</g>
<!-- Node5 -->
<g id="node5" class="node">
<title>Node5</title>
<g id="a_node5"><a xlink:href="messages_8hpp_source.html" target="_top" xlink:title=" ">
<polygon fill="none" stroke="black" points="455.5,-73 455.5,-92 598.5,-92 598.5,-73 455.5,-73"/>
<text text-anchor="middle" x="527" y="-80" font-family="Helvetica,sans-Serif" font-size="10.00">beluga_ros/messages.hpp</text>
</a>
</g>
</g>
<!-- Node1&#45;&gt;Node5 -->
<g id="edge4" class="edge">
<title>Node1&#45;&gt;Node5</title>
<path fill="none" stroke="midnightblue" d="M464.96,-134.36C478.69,-123.11 495.66,-109.19 508.38,-98.76"/>
<polygon fill="midnightblue" stroke="midnightblue" points="510.91,-101.22 516.42,-92.17 506.47,-95.81 510.91,-101.22"/>
</g>
<!-- Node8 -->
<g id="node8" class="node">
<title>Node8</title>
<g id="a_node8"><a xlink:title=" ">
<polygon fill="none" stroke="#bfbfbf" points="617,-73 617,-92 709,-92 709,-73 617,-73"/>
<text text-anchor="middle" x="663" y="-80" font-family="Helvetica,sans-Serif" font-size="10.00">sophus/se3.hpp</text>
</a>
</g>
</g>
<!-- Node1&#45;&gt;Node8 -->
<g id="edge7" class="edge">
<title>Node1&#45;&gt;Node8</title>
<path fill="none" stroke="midnightblue" d="M502.54,-134.46C542.32,-121.83 592.73,-105.81 626.34,-95.14"/>
<polygon fill="midnightblue" stroke="midnightblue" points="627.72,-98.38 636.19,-92.01 625.6,-91.7 627.72,-98.38"/>
</g>
<!-- Node9 -->
<g id="node9" class="node">
<title>Node9</title>
<g id="a_node9"><a xlink:title=" ">
<polygon fill="none" stroke="#bfbfbf" points="727.5,-67.5 727.5,-97.5 858.5,-97.5 858.5,-67.5 727.5,-67.5"/>
<text text-anchor="start" x="735.5" y="-85.5" font-family="Helvetica,sans-Serif" font-size="10.00">sensor_msgs/msg/laser</text>
<text text-anchor="middle" x="793" y="-74.5" font-family="Helvetica,sans-Serif" font-size="10.00">_scan.hpp</text>
</a>
</g>
</g>
<!-- Node1&#45;&gt;Node9 -->
<g id="edge8" class="edge">
<title>Node1&#45;&gt;Node9</title>
<path fill="none" stroke="midnightblue" d="M515.65,-139.05C574.98,-127.17 657.62,-110.61 717.24,-98.67"/>
<polygon fill="midnightblue" stroke="midnightblue" points="718.23,-102.05 727.35,-96.65 716.85,-95.18 718.23,-102.05"/>
</g>
<!-- Node6 -->
<g id="node6" class="node">
<title>Node6</title>
<g id="a_node6"><a xlink:title=" ">
<polygon fill="none" stroke="#bfbfbf" points="399,-0.5 399,-30.5 527,-30.5 527,-0.5 399,-0.5"/>
<text text-anchor="start" x="407" y="-18.5" font-family="Helvetica,sans-Serif" font-size="10.00">visualization_msgs</text>
<text text-anchor="middle" x="463" y="-7.5" font-family="Helvetica,sans-Serif" font-size="10.00">/msg/marker_array.hpp</text>
</a>
</g>
</g>
<!-- Node5&#45;&gt;Node6 -->
<g id="edge5" class="edge">
<title>Node5&#45;&gt;Node6</title>
<path fill="none" stroke="midnightblue" d="M518.37,-72.73C509.64,-63.86 495.8,-49.81 484.14,-37.97"/>
<polygon fill="midnightblue" stroke="midnightblue" points="486.38,-35.26 476.87,-30.59 481.39,-40.17 486.38,-35.26"/>
</g>
<!-- Node7 -->
<g id="node7" class="node">
<title>Node7</title>
<g id="a_node7"><a xlink:title=" ">
<polygon fill="none" stroke="#bfbfbf" points="545,-6 545,-25 637,-25 637,-6 545,-6"/>
<text text-anchor="middle" x="591" y="-13" font-family="Helvetica,sans-Serif" font-size="10.00">rclcpp/time.hpp</text>
</a>
</g>
</g>
<!-- Node5&#45;&gt;Node7 -->
<g id="edge6" class="edge">
<title>Node5&#45;&gt;Node7</title>
<path fill="none" stroke="midnightblue" d="M535.63,-72.73C545.8,-62.4 562.9,-45.04 575.41,-32.33"/>
<polygon fill="midnightblue" stroke="midnightblue" points="577.98,-34.71 582.51,-25.13 573,-29.8 577.98,-34.71"/>
</g>
</g>
</svg>
