<?xml version="1.0" encoding="UTF-8" standalone="no"?>
<!DOCTYPE svg PUBLIC "-//W3C//DTD SVG 1.1//EN"
 "http://www.w3.org/Graphics/SVG/1.1/DTD/svg11.dtd">
<!-- Generated by graphviz version 2.43.0 (0)
 -->
<!-- Title: /home/runner/work/beluga/beluga/beluga_ros/include/beluga_ros/laser_scan.hpp Pages: 1 -->
<svg width="208pt" height="206pt"
 viewBox="0.00 0.00 207.50 206.00" xmlns="http://www.w3.org/2000/svg" xmlns:xlink="http://www.w3.org/1999/xlink">
<g id="graph0" class="graph" transform="scale(1 1) rotate(0) translate(4 202)">
<title>/home/runner/work/beluga/beluga/beluga_ros/include/beluga_ros/laser_scan.hpp</title>
<!-- Node1 -->
<g id="node1" class="node">
<title>Node1</title>
<g id="a_node1"><a xlink:title="Implementation of sensor_msgs/LaserScan wrapper type.">
<polygon fill="#bfbfbf" stroke="black" points="50,-156.5 50,-197.5 199,-197.5 199,-156.5 50,-156.5"/>
<text text-anchor="start" x="58" y="-185.5" font-family="Helvetica,sans-Serif" font-size="10.00">/home/runner/work/beluga</text>
<text text-anchor="start" x="58" y="-174.5" font-family="Helvetica,sans-Serif" font-size="10.00">/beluga/beluga_ros/include</text>
<text text-anchor="middle" x="124.5" y="-163.5" font-family="Helvetica,sans-Serif" font-size="10.00">/beluga_ros/laser_scan.hpp</text>
</a>
</g>
</g>
<!-- Node2 -->
<g id="node2" class="node">
<title>Node2</title>
<g id="a_node2"><a xlink:href="amcl_8hpp.html" target="_top" xlink:title="Generic two&#45;dimensional implementation of the Adaptive Monte Carlo Localization (AMCL) algorithm in 2...">
<polygon fill="none" stroke="black" points="0,-78.5 0,-119.5 147,-119.5 147,-78.5 0,-78.5"/>
<text text-anchor="start" x="8" y="-107.5" font-family="Helvetica,sans-Serif" font-size="10.00">/home/runner/work/beluga</text>
<text text-anchor="start" x="8" y="-96.5" font-family="Helvetica,sans-Serif" font-size="10.00">/beluga/beluga_ros/include</text>
<text text-anchor="middle" x="73.5" y="-85.5" font-family="Helvetica,sans-Serif" font-size="10.00">/beluga_ros/amcl.hpp</text>
</a>
</g>
</g>
<!-- Node1&#45;&gt;Node2 -->
<g id="edge1" class="edge">
<title>Node1&#45;&gt;Node2</title>
<path fill="none" stroke="midnightblue" d="M105.74,-148.05C99.38,-138.57 92.41,-128.18 86.59,-119.51"/>
<polygon fill="midnightblue" stroke="midnightblue" points="102.89,-150.07 111.37,-156.43 108.7,-146.17 102.89,-150.07"/>
</g>
<!-- Node3 -->
<g id="node3" class="node">
<title>Node3</title>
<g id="a_node3"><a xlink:href="beluga__ros_8hpp.html" target="_top" xlink:title="Includes all the Beluga ROS API.">
<polygon fill="none" stroke="black" points="49.5,-0.5 49.5,-41.5 199.5,-41.5 199.5,-0.5 49.5,-0.5"/>
<text text-anchor="start" x="57.5" y="-29.5" font-family="Helvetica,sans-Serif" font-size="10.00">/home/runner/work/beluga</text>
<text text-anchor="start" x="57.5" y="-18.5" font-family="Helvetica,sans-Serif" font-size="10.00">/beluga/beluga_ros/include</text>
<text text-anchor="middle" x="124.5" y="-7.5" font-family="Helvetica,sans-Serif" font-size="10.00">/beluga_ros/beluga_ros.hpp</text>
</a>
</g>
</g>
<!-- Node1&#45;&gt;Node3 -->
<g id="edge3" class="edge">
<title>Node1&#45;&gt;Node3</title>
<path fill="none" stroke="midnightblue" d="M144.47,-147.64C149.39,-139.14 153.97,-129.54 156.5,-120 161.29,-101.96 161.29,-96.04 156.5,-78 153.05,-65.01 145.8,-51.9 139.08,-41.63"/>
<polygon fill="midnightblue" stroke="midnightblue" points="141.35,-146.03 139.08,-156.37 147.31,-149.7 141.35,-146.03"/>
</g>
<!-- Node2&#45;&gt;Node3 -->
<g id="edge2" class="edge">
<title>Node2&#45;&gt;Node3</title>
<path fill="none" stroke="midnightblue" d="M92.26,-70.05C98.62,-60.57 105.59,-50.18 111.41,-41.51"/>
<polygon fill="midnightblue" stroke="midnightblue" points="89.3,-68.17 86.63,-78.43 95.11,-72.07 89.3,-68.17"/>
</g>
</g>
</svg>
