<?xml version="1.0" encoding="UTF-8" standalone="no"?>
<!DOCTYPE svg PUBLIC "-//W3C//DTD SVG 1.1//EN"
 "http://www.w3.org/Graphics/SVG/1.1/DTD/svg11.dtd">
<!-- Generated by graphviz version 2.43.0 (0)
 -->
<!-- Title: /home/runner/work/beluga/beluga/beluga_ros/include/beluga_ros/likelihood_field.hpp Pages: 1 -->
<svg width="1952pt" height="184pt"
 viewBox="0.00 0.00 1952.00 184.00" xmlns="http://www.w3.org/2000/svg" xmlns:xlink="http://www.w3.org/1999/xlink">
<g id="graph0" class="graph" transform="scale(1 1) rotate(0) translate(4 180)">
<title>/home/runner/work/beluga/beluga/beluga_ros/include/beluga_ros/likelihood_field.hpp</title>
<!-- Node1 -->
<g id="node1" class="node">
<title>Node1</title>
<g id="a_node1"><a xlink:title="Utilities for likelihood data over ROS interfaces.">
<polygon fill="#bfbfbf" stroke="black" points="744.5,-134.5 744.5,-175.5 914.5,-175.5 914.5,-134.5 744.5,-134.5"/>
<text text-anchor="start" x="752.5" y="-163.5" font-family="Helvetica,sans-Serif" font-size="10.00">/home/runner/work/beluga</text>
<text text-anchor="start" x="752.5" y="-152.5" font-family="Helvetica,sans-Serif" font-size="10.00">/beluga/beluga_ros/include</text>
<text text-anchor="middle" x="829.5" y="-141.5" font-family="Helvetica,sans-Serif" font-size="10.00">/beluga_ros/likelihood_field.hpp</text>
</a>
</g>
</g>
<!-- Node2 -->
<g id="node2" class="node">
<title>Node2</title>
<g id="a_node2"><a xlink:title=" ">
<polygon fill="none" stroke="#bfbfbf" points="633.5,-73 633.5,-92 683.5,-92 683.5,-73 633.5,-73"/>
<text text-anchor="middle" x="658.5" y="-80" font-family="Helvetica,sans-Serif" font-size="10.00">cstdint</text>
</a>
</g>
</g>
<!-- Node1&#45;&gt;Node2 -->
<g id="edge1" class="edge">
<title>Node1&#45;&gt;Node2</title>
<path fill="none" stroke="midnightblue" d="M781.24,-134.48C754.96,-123.8 721.9,-110.28 692.5,-98 691.09,-97.41 689.66,-96.81 688.2,-96.2"/>
<polygon fill="midnightblue" stroke="midnightblue" points="689.19,-92.81 678.61,-92.14 686.46,-99.26 689.19,-92.81"/>
</g>
<!-- Node3 -->
<g id="node3" class="node">
<title>Node3</title>
<g id="a_node3"><a target="_parent" xlink:href="../../../../../../beluga/docs/_doxygen/generated/reference/html/value__grid_8hpp.html.html" xlink:title=" ">
<polygon fill="none" stroke="black" points="701.5,-67.5 701.5,-97.5 811.5,-97.5 811.5,-67.5 701.5,-67.5"/>
<text text-anchor="start" x="709.5" y="-85.5" font-family="Helvetica,sans-Serif" font-size="10.00">beluga/sensor/data</text>
<text text-anchor="middle" x="756.5" y="-74.5" font-family="Helvetica,sans-Serif" font-size="10.00">/value_grid.hpp</text>
</a>
</g>
</g>
<!-- Node1&#45;&gt;Node3 -->
<g id="edge2" class="edge">
<title>Node1&#45;&gt;Node3</title>
<path fill="none" stroke="midnightblue" d="M809.17,-134.36C799.71,-125.23 788.44,-114.35 778.76,-105"/>
<polygon fill="midnightblue" stroke="midnightblue" points="781.03,-102.32 771.4,-97.89 776.16,-107.36 781.03,-102.32"/>
</g>
<!-- Node4 -->
<g id="node4" class="node">
<title>Node4</title>
<g id="a_node4"><a xlink:href="tf2__sophus_8hpp.html" target="_top" xlink:title="Message conversion API overloads for Sophus types.">
<polygon fill="none" stroke="black" points="830,-73 830,-92 977,-92 977,-73 830,-73"/>
<text text-anchor="middle" x="903.5" y="-80" font-family="Helvetica,sans-Serif" font-size="10.00">beluga_ros/tf2_sophus.hpp</text>
</a>
</g>
</g>
<!-- Node1&#45;&gt;Node4 -->
<g id="edge3" class="edge">
<title>Node1&#45;&gt;Node4</title>
<path fill="none" stroke="midnightblue" d="M850.11,-134.36C861.7,-123.32 875.97,-109.72 886.85,-99.37"/>
<polygon fill="midnightblue" stroke="midnightblue" points="889.57,-101.61 894.4,-92.17 884.74,-96.54 889.57,-101.61"/>
</g>
<!-- Node19 -->
<g id="node19" class="node">
<title>Node19</title>
<g id="a_node19"><a xlink:title=" ">
<polygon fill="none" stroke="#bfbfbf" points="995,-67.5 995,-97.5 1140,-97.5 1140,-67.5 995,-67.5"/>
<text text-anchor="start" x="1003" y="-85.5" font-family="Helvetica,sans-Serif" font-size="10.00">nav_msgs/msg/occupancy</text>
<text text-anchor="middle" x="1067.5" y="-74.5" font-family="Helvetica,sans-Serif" font-size="10.00">_grid.hpp</text>
</a>
</g>
</g>
<!-- Node1&#45;&gt;Node19 -->
<g id="edge18" class="edge">
<title>Node1&#45;&gt;Node19</title>
<path fill="none" stroke="midnightblue" d="M895.48,-134.46C931.42,-123.81 975.46,-110.76 1009.98,-100.54"/>
<polygon fill="midnightblue" stroke="midnightblue" points="1011.32,-103.79 1019.91,-97.6 1009.33,-97.08 1011.32,-103.79"/>
</g>
<!-- Node5 -->
<g id="node5" class="node">
<title>Node5</title>
<g id="a_node5"><a xlink:title=" ">
<polygon fill="none" stroke="#bfbfbf" points="0,-0.5 0,-30.5 153,-30.5 153,-0.5 0,-0.5"/>
<text text-anchor="start" x="8" y="-18.5" font-family="Helvetica,sans-Serif" font-size="10.00">beluga/algorithm/unscented</text>
<text text-anchor="middle" x="76.5" y="-7.5" font-family="Helvetica,sans-Serif" font-size="10.00">_transform.hpp</text>
</a>
</g>
</g>
<!-- Node4&#45;&gt;Node5 -->
<g id="edge4" class="edge">
<title>Node4&#45;&gt;Node5</title>
<path fill="none" stroke="midnightblue" d="M860.13,-72.93C847.41,-70.68 833.43,-68.48 820.5,-67 532.34,-34.08 454.73,-63.05 163.37,-31.13"/>
<polygon fill="midnightblue" stroke="midnightblue" points="163.68,-27.64 153.35,-30.02 162.91,-34.6 163.68,-27.64"/>
</g>
<!-- Node6 -->
<g id="node6" class="node">
<title>Node6</title>
<g id="a_node6"><a xlink:title=" ">
<polygon fill="none" stroke="#bfbfbf" points="171,-6 171,-25 340,-25 340,-6 171,-6"/>
<text text-anchor="middle" x="255.5" y="-13" font-family="Helvetica,sans-Serif" font-size="10.00">beluga/eigen_compatibility.hpp</text>
</a>
</g>
</g>
<!-- Node4&#45;&gt;Node6 -->
<g id="edge5" class="edge">
<title>Node4&#45;&gt;Node6</title>
<path fill="none" stroke="midnightblue" d="M859.25,-72.95C846.76,-70.76 833.13,-68.58 820.5,-67 611.74,-40.87 557.49,-55.22 348.5,-31 337.81,-29.76 326.47,-28.2 315.52,-26.57"/>
<polygon fill="midnightblue" stroke="midnightblue" points="316.01,-23.1 305.6,-25.05 314.95,-30.02 316.01,-23.1"/>
</g>
<!-- Node7 -->
<g id="node7" class="node">
<title>Node7</title>
<g id="a_node7"><a xlink:title=" ">
<polygon fill="none" stroke="#bfbfbf" points="358,-6 358,-25 405,-25 405,-6 358,-6"/>
<text text-anchor="middle" x="381.5" y="-13" font-family="Helvetica,sans-Serif" font-size="10.00">cmath</text>
</a>
</g>
</g>
<!-- Node4&#45;&gt;Node7 -->
<g id="edge6" class="edge">
<title>Node4&#45;&gt;Node7</title>
<path fill="none" stroke="midnightblue" d="M858.81,-72.98C846.43,-70.81 832.97,-68.64 820.5,-67 640.89,-43.39 589.97,-76.03 414.5,-31 412.2,-30.41 409.85,-29.67 407.53,-28.85"/>
<polygon fill="midnightblue" stroke="midnightblue" points="408.83,-25.6 398.25,-25.12 406.22,-32.1 408.83,-25.6"/>
</g>
<!-- Node8 -->
<g id="node8" class="node">
<title>Node8</title>
<g id="a_node8"><a xlink:title=" ">
<polygon fill="none" stroke="#bfbfbf" points="423.5,-6 423.5,-25 541.5,-25 541.5,-6 423.5,-6"/>
<text text-anchor="middle" x="482.5" y="-13" font-family="Helvetica,sans-Serif" font-size="10.00">sophus/common.hpp</text>
</a>
</g>
</g>
<!-- Node4&#45;&gt;Node8 -->
<g id="edge7" class="edge">
<title>Node4&#45;&gt;Node8</title>
<path fill="none" stroke="midnightblue" d="M856.59,-72.96C844.82,-70.92 832.21,-68.8 820.5,-67 700.85,-48.58 669.79,-51.64 550.5,-31 543.79,-29.84 536.73,-28.48 529.8,-27.08"/>
<polygon fill="midnightblue" stroke="midnightblue" points="530.31,-23.61 519.81,-25 528.89,-30.46 530.31,-23.61"/>
</g>
<!-- Node9 -->
<g id="node9" class="node">
<title>Node9</title>
<g id="a_node9"><a xlink:title=" ">
<polygon fill="none" stroke="#bfbfbf" points="560,-6 560,-25 651,-25 651,-6 560,-6"/>
<text text-anchor="middle" x="605.5" y="-13" font-family="Helvetica,sans-Serif" font-size="10.00">tf2/convert.hpp</text>
</a>
</g>
</g>
<!-- Node4&#45;&gt;Node9 -->
<g id="edge8" class="edge">
<title>Node4&#45;&gt;Node9</title>
<path fill="none" stroke="midnightblue" d="M858.36,-72.97C809.25,-63.51 728.52,-47.4 659.5,-31 655.08,-29.95 650.47,-28.8 645.88,-27.62"/>
<polygon fill="midnightblue" stroke="midnightblue" points="646.54,-24.17 635.98,-25.02 644.76,-30.94 646.54,-24.17"/>
</g>
<!-- Node10 -->
<g id="node10" class="node">
<title>Node10</title>
<g id="a_node10"><a xlink:title=" ">
<polygon fill="none" stroke="#bfbfbf" points="669,-6 669,-25 744,-25 744,-6 669,-6"/>
<text text-anchor="middle" x="706.5" y="-13" font-family="Helvetica,sans-Serif" font-size="10.00">tf2/utils.hpp</text>
</a>
</g>
</g>
<!-- Node4&#45;&gt;Node10 -->
<g id="edge9" class="edge">
<title>Node4&#45;&gt;Node10</title>
<path fill="none" stroke="midnightblue" d="M877.34,-72.87C842.66,-61.42 781.3,-41.18 742.33,-28.32"/>
<polygon fill="midnightblue" stroke="midnightblue" points="743.05,-24.87 732.45,-25.06 740.85,-31.52 743.05,-24.87"/>
</g>
<!-- Node11 -->
<g id="node11" class="node">
<title>Node11</title>
<g id="a_node11"><a xlink:title=" ">
<polygon fill="none" stroke="#bfbfbf" points="762.5,-6 762.5,-25 894.5,-25 894.5,-6 762.5,-6"/>
<text text-anchor="middle" x="828.5" y="-13" font-family="Helvetica,sans-Serif" font-size="10.00">tf2_eigen/tf2_eigen.hpp</text>
</a>
</g>
</g>
<!-- Node4&#45;&gt;Node11 -->
<g id="edge10" class="edge">
<title>Node4&#45;&gt;Node11</title>
<path fill="none" stroke="midnightblue" d="M893.39,-72.73C881.35,-62.31 861.05,-44.71 846.35,-31.97"/>
<polygon fill="midnightblue" stroke="midnightblue" points="848.3,-29.03 838.45,-25.13 843.72,-34.32 848.3,-29.03"/>
</g>
<!-- Node12 -->
<g id="node12" class="node">
<title>Node12</title>
<g id="a_node12"><a xlink:title=" ">
<polygon fill="none" stroke="#bfbfbf" points="913,-0.5 913,-30.5 1044,-30.5 1044,-0.5 913,-0.5"/>
<text text-anchor="start" x="921" y="-18.5" font-family="Helvetica,sans-Serif" font-size="10.00">tf2_geometry_msgs/tf2</text>
<text text-anchor="middle" x="978.5" y="-7.5" font-family="Helvetica,sans-Serif" font-size="10.00">_geometry_msgs.hpp</text>
</a>
</g>
</g>
<!-- Node4&#45;&gt;Node12 -->
<g id="edge11" class="edge">
<title>Node4&#45;&gt;Node12</title>
<path fill="none" stroke="midnightblue" d="M913.61,-72.73C924.04,-63.7 940.68,-49.27 954.5,-37.3"/>
<polygon fill="midnightblue" stroke="midnightblue" points="956.98,-39.78 962.24,-30.59 952.39,-34.49 956.98,-39.78"/>
</g>
<!-- Node13 -->
<g id="node13" class="node">
<title>Node13</title>
<g id="a_node13"><a xlink:title=" ">
<polygon fill="none" stroke="#bfbfbf" points="1062.5,-6 1062.5,-25 1154.5,-25 1154.5,-6 1062.5,-6"/>
<text text-anchor="middle" x="1108.5" y="-13" font-family="Helvetica,sans-Serif" font-size="10.00">sophus/se2.hpp</text>
</a>
</g>
</g>
<!-- Node4&#45;&gt;Node13 -->
<g id="edge12" class="edge">
<title>Node4&#45;&gt;Node13</title>
<path fill="none" stroke="midnightblue" d="M930.72,-72.87C966.97,-61.38 1031.2,-41.01 1071.73,-28.16"/>
<polygon fill="midnightblue" stroke="midnightblue" points="1073.02,-31.42 1081.49,-25.06 1070.9,-24.75 1073.02,-31.42"/>
</g>
<!-- Node14 -->
<g id="node14" class="node">
<title>Node14</title>
<g id="a_node14"><a xlink:title=" ">
<polygon fill="none" stroke="#bfbfbf" points="1172.5,-6 1172.5,-25 1264.5,-25 1264.5,-6 1172.5,-6"/>
<text text-anchor="middle" x="1218.5" y="-13" font-family="Helvetica,sans-Serif" font-size="10.00">sophus/se3.hpp</text>
</a>
</g>
</g>
<!-- Node4&#45;&gt;Node14 -->
<g id="edge13" class="edge">
<title>Node4&#45;&gt;Node14</title>
<path fill="none" stroke="midnightblue" d="M952.58,-72.96C1005.01,-63.61 1090.43,-47.71 1163.5,-31 1168.13,-29.94 1172.96,-28.77 1177.75,-27.56"/>
<polygon fill="midnightblue" stroke="midnightblue" points="1178.65,-30.95 1187.47,-25.06 1176.91,-24.17 1178.65,-30.95"/>
</g>
<!-- Node15 -->
<g id="node15" class="node">
<title>Node15</title>
<g id="a_node15"><a xlink:title=" ">
<polygon fill="none" stroke="#bfbfbf" points="1282.5,-6 1282.5,-25 1384.5,-25 1384.5,-6 1282.5,-6"/>
<text text-anchor="middle" x="1333.5" y="-13" font-family="Helvetica,sans-Serif" font-size="10.00">sophus/types.hpp</text>
</a>
</g>
</g>
<!-- Node4&#45;&gt;Node15 -->
<g id="edge14" class="edge">
<title>Node4&#45;&gt;Node15</title>
<path fill="none" stroke="midnightblue" d="M949.97,-72.98C961.86,-70.91 974.64,-68.78 986.5,-67 1113.63,-47.93 1147.04,-54.14 1273.5,-31 1279.24,-29.95 1285.25,-28.69 1291.16,-27.36"/>
<polygon fill="midnightblue" stroke="midnightblue" points="1292,-30.76 1300.95,-25.07 1290.41,-23.94 1292,-30.76"/>
</g>
<!-- Node16 -->
<g id="node16" class="node">
<title>Node16</title>
<g id="a_node16"><a xlink:title=" ">
<polygon fill="none" stroke="#bfbfbf" points="1403,-6 1403,-25 1570,-25 1570,-6 1403,-6"/>
<text text-anchor="middle" x="1486.5" y="-13" font-family="Helvetica,sans-Serif" font-size="10.00">geometry_msgs/msg/pose.hpp</text>
</a>
</g>
</g>
<!-- Node4&#45;&gt;Node16 -->
<g id="edge15" class="edge">
<title>Node4&#45;&gt;Node16</title>
<path fill="none" stroke="midnightblue" d="M948.19,-72.98C960.57,-70.81 974.03,-68.64 986.5,-67 1166.55,-43.35 1213.24,-53 1393.5,-31 1403.95,-29.72 1415.03,-28.17 1425.76,-26.57"/>
<polygon fill="midnightblue" stroke="midnightblue" points="1426.55,-29.98 1435.9,-25.01 1425.49,-23.07 1426.55,-29.98"/>
</g>
<!-- Node17 -->
<g id="node17" class="node">
<title>Node17</title>
<g id="a_node17"><a xlink:title=" ">
<polygon fill="none" stroke="#bfbfbf" points="1588.5,-0.5 1588.5,-30.5 1734.5,-30.5 1734.5,-0.5 1588.5,-0.5"/>
<text text-anchor="start" x="1596.5" y="-18.5" font-family="Helvetica,sans-Serif" font-size="10.00">geometry_msgs/msg/pose</text>
<text text-anchor="middle" x="1661.5" y="-7.5" font-family="Helvetica,sans-Serif" font-size="10.00">_with_covariance.hpp</text>
</a>
</g>
</g>
<!-- Node4&#45;&gt;Node17 -->
<g id="edge16" class="edge">
<title>Node4&#45;&gt;Node17</title>
<path fill="none" stroke="midnightblue" d="M946.87,-72.98C959.6,-70.73 973.57,-68.52 986.5,-67 1245.41,-36.62 1315.52,-61.39 1578.02,-31.08"/>
<polygon fill="midnightblue" stroke="midnightblue" points="1578.72,-34.52 1588.24,-29.88 1577.9,-27.57 1578.72,-34.52"/>
</g>
<!-- Node18 -->
<g id="node18" class="node">
<title>Node18</title>
<g id="a_node18"><a xlink:title=" ">
<polygon fill="none" stroke="#bfbfbf" points="1753,-6 1753,-25 1944,-25 1944,-6 1753,-6"/>
<text text-anchor="middle" x="1848.5" y="-13" font-family="Helvetica,sans-Serif" font-size="10.00">geometry_msgs/msg/transform.hpp</text>
</a>
</g>
</g>
<!-- Node4&#45;&gt;Node18 -->
<g id="edge17" class="edge">
<title>Node4&#45;&gt;Node18</title>
<path fill="none" stroke="midnightblue" d="M946.43,-72.94C959.27,-70.67 973.41,-68.45 986.5,-67 1321.28,-29.94 1408.11,-62.07 1743.5,-31 1756.5,-29.8 1770.35,-28.15 1783.59,-26.39"/>
<polygon fill="midnightblue" stroke="midnightblue" points="1784.13,-29.85 1793.57,-25.03 1783.19,-22.91 1784.13,-29.85"/>
</g>
</g>
</svg>
