<?xml version="1.0" encoding="UTF-8" standalone="no"?>
<!DOCTYPE svg PUBLIC "-//W3C//DTD SVG 1.1//EN"
 "http://www.w3.org/Graphics/SVG/1.1/DTD/svg11.dtd">
<!-- Generated by graphviz version 2.43.0 (0)
 -->
<!-- Title: /home/runner/work/beluga/beluga/beluga_ros/include/beluga_ros/likelihood_field.hpp Pages: 1 -->
<svg width="1254pt" height="184pt"
 viewBox="0.00 0.00 1254.00 184.00" xmlns="http://www.w3.org/2000/svg" xmlns:xlink="http://www.w3.org/1999/xlink">
<g id="graph0" class="graph" transform="scale(1 1) rotate(0) translate(4 180)">
<title>/home/runner/work/beluga/beluga/beluga_ros/include/beluga_ros/likelihood_field.hpp</title>
<!-- Node1 -->
<g id="node1" class="node">
<title>Node1</title>
<g id="a_node1"><a xlink:title="Utilities for likelihood data over ROS interfaces.">
<polygon fill="#bfbfbf" stroke="black" points="496.5,-134.5 496.5,-175.5 666.5,-175.5 666.5,-134.5 496.5,-134.5"/>
<text text-anchor="start" x="504.5" y="-163.5" font-family="Helvetica,sans-Serif" font-size="10.00">/home/runner/work/beluga</text>
<text text-anchor="start" x="504.5" y="-152.5" font-family="Helvetica,sans-Serif" font-size="10.00">/beluga/beluga_ros/include</text>
<text text-anchor="middle" x="581.5" y="-141.5" font-family="Helvetica,sans-Serif" font-size="10.00">/beluga_ros/likelihood_field.hpp</text>
</a>
</g>
</g>
<!-- Node2 -->
<g id="node2" class="node">
<title>Node2</title>
<g id="a_node2"><a xlink:title=" ">
<polygon fill="none" stroke="#bfbfbf" points="385.5,-73 385.5,-92 435.5,-92 435.5,-73 385.5,-73"/>
<text text-anchor="middle" x="410.5" y="-80" font-family="Helvetica,sans-Serif" font-size="10.00">cstdint</text>
</a>
</g>
</g>
<!-- Node1&#45;&gt;Node2 -->
<g id="edge1" class="edge">
<title>Node1&#45;&gt;Node2</title>
<path fill="none" stroke="midnightblue" d="M533.24,-134.48C506.96,-123.8 473.9,-110.28 444.5,-98 443.09,-97.41 441.66,-96.81 440.2,-96.2"/>
<polygon fill="midnightblue" stroke="midnightblue" points="441.19,-92.81 430.61,-92.14 438.46,-99.26 441.19,-92.81"/>
</g>
<!-- Node3 -->
<g id="node3" class="node">
<title>Node3</title>
<g id="a_node3"><a target="_parent" xlink:href="../../../../../../beluga/docs/_doxygen/generated/reference/html/value__grid_8hpp.html.html" xlink:title=" ">
<polygon fill="none" stroke="black" points="453.5,-67.5 453.5,-97.5 563.5,-97.5 563.5,-67.5 453.5,-67.5"/>
<text text-anchor="start" x="461.5" y="-85.5" font-family="Helvetica,sans-Serif" font-size="10.00">beluga/sensor/data</text>
<text text-anchor="middle" x="508.5" y="-74.5" font-family="Helvetica,sans-Serif" font-size="10.00">/value_grid.hpp</text>
</a>
</g>
</g>
<!-- Node1&#45;&gt;Node3 -->
<g id="edge2" class="edge">
<title>Node1&#45;&gt;Node3</title>
<path fill="none" stroke="midnightblue" d="M561.17,-134.36C551.71,-125.23 540.44,-114.35 530.76,-105"/>
<polygon fill="midnightblue" stroke="midnightblue" points="533.03,-102.32 523.4,-97.89 528.16,-107.36 533.03,-102.32"/>
</g>
<!-- Node4 -->
<g id="node4" class="node">
<title>Node4</title>
<g id="a_node4"><a xlink:href="tf2__sophus_8hpp.html" target="_top" xlink:title="Message conversion API overloads for Sophus types.">
<polygon fill="none" stroke="black" points="582,-73 582,-92 729,-92 729,-73 582,-73"/>
<text text-anchor="middle" x="655.5" y="-80" font-family="Helvetica,sans-Serif" font-size="10.00">beluga_ros/tf2_sophus.hpp</text>
</a>
</g>
</g>
<!-- Node1&#45;&gt;Node4 -->
<g id="edge3" class="edge">
<title>Node1&#45;&gt;Node4</title>
<path fill="none" stroke="midnightblue" d="M602.11,-134.36C613.7,-123.32 627.97,-109.72 638.85,-99.37"/>
<polygon fill="midnightblue" stroke="midnightblue" points="641.57,-101.61 646.4,-92.17 636.74,-96.54 641.57,-101.61"/>
</g>
<!-- Node15 -->
<g id="node15" class="node">
<title>Node15</title>
<g id="a_node15"><a xlink:title=" ">
<polygon fill="none" stroke="#bfbfbf" points="747,-67.5 747,-97.5 892,-97.5 892,-67.5 747,-67.5"/>
<text text-anchor="start" x="755" y="-85.5" font-family="Helvetica,sans-Serif" font-size="10.00">nav_msgs/msg/occupancy</text>
<text text-anchor="middle" x="819.5" y="-74.5" font-family="Helvetica,sans-Serif" font-size="10.00">_grid.hpp</text>
</a>
</g>
</g>
<!-- Node1&#45;&gt;Node15 -->
<g id="edge14" class="edge">
<title>Node1&#45;&gt;Node15</title>
<path fill="none" stroke="midnightblue" d="M647.48,-134.46C683.42,-123.81 727.46,-110.76 761.98,-100.54"/>
<polygon fill="midnightblue" stroke="midnightblue" points="763.32,-103.79 771.91,-97.6 761.33,-97.08 763.32,-103.79"/>
</g>
<!-- Node5 -->
<g id="node5" class="node">
<title>Node5</title>
<g id="a_node5"><a xlink:title=" ">
<polygon fill="none" stroke="#bfbfbf" points="0,-0.5 0,-30.5 153,-30.5 153,-0.5 0,-0.5"/>
<text text-anchor="start" x="8" y="-18.5" font-family="Helvetica,sans-Serif" font-size="10.00">beluga/algorithm/unscented</text>
<text text-anchor="middle" x="76.5" y="-7.5" font-family="Helvetica,sans-Serif" font-size="10.00">_transform.hpp</text>
</a>
</g>
</g>
<!-- Node4&#45;&gt;Node5 -->
<g id="edge4" class="edge">
<title>Node4&#45;&gt;Node5</title>
<path fill="none" stroke="midnightblue" d="M610.81,-72.97C598.43,-70.8 584.97,-68.63 572.5,-67 393.97,-43.63 345.12,-54.04 163.53,-31.2"/>
<polygon fill="midnightblue" stroke="midnightblue" points="163.73,-27.69 153.37,-29.9 162.85,-34.64 163.73,-27.69"/>
</g>
<!-- Node6 -->
<g id="node6" class="node">
<title>Node6</title>
<g id="a_node6"><a xlink:title=" ">
<polygon fill="none" stroke="#bfbfbf" points="171,-6 171,-25 340,-25 340,-6 171,-6"/>
<text text-anchor="middle" x="255.5" y="-13" font-family="Helvetica,sans-Serif" font-size="10.00">beluga/eigen_compatibility.hpp</text>
</a>
</g>
</g>
<!-- Node4&#45;&gt;Node6 -->
<g id="edge5" class="edge">
<title>Node4&#45;&gt;Node6</title>
<path fill="none" stroke="midnightblue" d="M607.24,-72.94C595.86,-70.96 583.75,-68.88 572.5,-67 525.15,-59.09 397.99,-38.96 319.86,-26.64"/>
<polygon fill="midnightblue" stroke="midnightblue" points="320.07,-23.13 309.65,-25.03 318.98,-30.04 320.07,-23.13"/>
</g>
<!-- Node7 -->
<g id="node7" class="node">
<title>Node7</title>
<g id="a_node7"><a xlink:title=" ">
<polygon fill="none" stroke="#bfbfbf" points="358,-6 358,-25 405,-25 405,-6 358,-6"/>
<text text-anchor="middle" x="381.5" y="-13" font-family="Helvetica,sans-Serif" font-size="10.00">cmath</text>
</a>
</g>
</g>
<!-- Node4&#45;&gt;Node7 -->
<g id="edge6" class="edge">
<title>Node4&#45;&gt;Node7</title>
<path fill="none" stroke="midnightblue" d="M609.08,-72.96C549.66,-61.83 450.12,-42.42 414.5,-31 412.58,-30.38 410.62,-29.69 408.66,-28.96"/>
<polygon fill="midnightblue" stroke="midnightblue" points="409.63,-25.57 399.05,-25.02 406.97,-32.05 409.63,-25.57"/>
</g>
<!-- Node8 -->
<g id="node8" class="node">
<title>Node8</title>
<g id="a_node8"><a xlink:title=" ">
<polygon fill="none" stroke="#bfbfbf" points="423.5,-6 423.5,-25 541.5,-25 541.5,-6 423.5,-6"/>
<text text-anchor="middle" x="482.5" y="-13" font-family="Helvetica,sans-Serif" font-size="10.00">sophus/common.hpp</text>
</a>
</g>
</g>
<!-- Node4&#45;&gt;Node8 -->
<g id="edge7" class="edge">
<title>Node4&#45;&gt;Node8</title>
<path fill="none" stroke="midnightblue" d="M632.53,-72.87C602.33,-61.52 549.1,-41.52 514.84,-28.65"/>
<polygon fill="midnightblue" stroke="midnightblue" points="515.88,-25.3 505.29,-25.06 513.42,-31.86 515.88,-25.3"/>
</g>
<!-- Node9 -->
<g id="node9" class="node">
<title>Node9</title>
<g id="a_node9"><a xlink:title=" ">
<polygon fill="none" stroke="#bfbfbf" points="560,-6 560,-25 651,-25 651,-6 560,-6"/>
<text text-anchor="middle" x="605.5" y="-13" font-family="Helvetica,sans-Serif" font-size="10.00">tf2/convert.hpp</text>
</a>
</g>
</g>
<!-- Node4&#45;&gt;Node9 -->
<g id="edge8" class="edge">
<title>Node4&#45;&gt;Node9</title>
<path fill="none" stroke="midnightblue" d="M648.76,-72.73C640.96,-62.6 627.95,-45.69 618.24,-33.06"/>
<polygon fill="midnightblue" stroke="midnightblue" points="621.01,-30.92 612.14,-25.13 615.46,-35.19 621.01,-30.92"/>
</g>
<!-- Node10 -->
<g id="node10" class="node">
<title>Node10</title>
<g id="a_node10"><a xlink:title=" ">
<polygon fill="none" stroke="#bfbfbf" points="669,-6 669,-25 744,-25 744,-6 669,-6"/>
<text text-anchor="middle" x="706.5" y="-13" font-family="Helvetica,sans-Serif" font-size="10.00">tf2/utils.hpp</text>
</a>
</g>
</g>
<!-- Node4&#45;&gt;Node10 -->
<g id="edge9" class="edge">
<title>Node4&#45;&gt;Node10</title>
<path fill="none" stroke="midnightblue" d="M662.38,-72.73C670.33,-62.6 683.6,-45.69 693.51,-33.06"/>
<polygon fill="midnightblue" stroke="midnightblue" points="696.31,-35.16 699.73,-25.13 690.8,-30.83 696.31,-35.16"/>
</g>
<!-- Node11 -->
<g id="node11" class="node">
<title>Node11</title>
<g id="a_node11"><a xlink:title=" ">
<polygon fill="none" stroke="#bfbfbf" points="762.5,-6 762.5,-25 854.5,-25 854.5,-6 762.5,-6"/>
<text text-anchor="middle" x="808.5" y="-13" font-family="Helvetica,sans-Serif" font-size="10.00">sophus/se2.hpp</text>
</a>
</g>
</g>
<!-- Node4&#45;&gt;Node11 -->
<g id="edge10" class="edge">
<title>Node4&#45;&gt;Node11</title>
<path fill="none" stroke="midnightblue" d="M675.82,-72.87C702.22,-61.65 748.53,-41.98 778.86,-29.09"/>
<polygon fill="midnightblue" stroke="midnightblue" points="780.26,-32.3 788.1,-25.17 777.53,-25.86 780.26,-32.3"/>
</g>
<!-- Node12 -->
<g id="node12" class="node">
<title>Node12</title>
<g id="a_node12"><a xlink:title=" ">
<polygon fill="none" stroke="#bfbfbf" points="872.5,-6 872.5,-25 964.5,-25 964.5,-6 872.5,-6"/>
<text text-anchor="middle" x="918.5" y="-13" font-family="Helvetica,sans-Serif" font-size="10.00">sophus/se3.hpp</text>
</a>
</g>
</g>
<!-- Node4&#45;&gt;Node12 -->
<g id="edge11" class="edge">
<title>Node4&#45;&gt;Node12</title>
<path fill="none" stroke="midnightblue" d="M691.63,-72.96C733.16,-63.08 803.34,-46.23 863.5,-31 867.82,-29.91 872.32,-28.75 876.81,-27.58"/>
<polygon fill="midnightblue" stroke="midnightblue" points="877.75,-30.96 886.54,-25.04 875.98,-24.18 877.75,-30.96"/>
</g>
<!-- Node13 -->
<g id="node13" class="node">
<title>Node13</title>
<g id="a_node13"><a xlink:title=" ">
<polygon fill="none" stroke="#bfbfbf" points="982.5,-6 982.5,-25 1084.5,-25 1084.5,-6 982.5,-6"/>
<text text-anchor="middle" x="1033.5" y="-13" font-family="Helvetica,sans-Serif" font-size="10.00">sophus/types.hpp</text>
</a>
</g>
</g>
<!-- Node4&#45;&gt;Node13 -->
<g id="edge12" class="edge">
<title>Node4&#45;&gt;Node13</title>
<path fill="none" stroke="midnightblue" d="M703.31,-72.97C714.83,-70.97 727.1,-68.87 738.5,-67 842.77,-49.91 869.83,-51.43 973.5,-31 978.95,-29.93 984.66,-28.69 990.3,-27.41"/>
<polygon fill="midnightblue" stroke="midnightblue" points="991.35,-30.75 1000.29,-25.06 989.75,-23.94 991.35,-30.75"/>
</g>
<!-- Node14 -->
<g id="node14" class="node">
<title>Node14</title>
<g id="a_node14"><a xlink:href="messages_8hpp_source.html" target="_top" xlink:title=" ">
<polygon fill="none" stroke="black" points="1103,-6 1103,-25 1246,-25 1246,-6 1103,-6"/>
<text text-anchor="middle" x="1174.5" y="-13" font-family="Helvetica,sans-Serif" font-size="10.00">beluga_ros/messages.hpp</text>
</a>
</g>
</g>
<!-- Node4&#45;&gt;Node14 -->
<g id="edge13" class="edge">
<title>Node4&#45;&gt;Node14</title>
<path fill="none" stroke="midnightblue" d="M701.07,-72.93C713.21,-70.82 726.33,-68.68 738.5,-67 895.6,-45.34 936.44,-52.99 1093.5,-31 1102.24,-29.78 1111.47,-28.3 1120.46,-26.76"/>
<polygon fill="midnightblue" stroke="midnightblue" points="1121.21,-30.18 1130.46,-25.01 1120,-23.29 1121.21,-30.18"/>
</g>
</g>
</svg>
