<?xml version="1.0" encoding="UTF-8" standalone="no"?>
<!DOCTYPE svg PUBLIC "-//W3C//DTD SVG 1.1//EN"
 "http://www.w3.org/Graphics/SVG/1.1/DTD/svg11.dtd">
<!-- Generated by graphviz version 2.43.0 (0)
 -->
<!-- Title: /home/runner/work/beluga/beluga/beluga_ros/include/beluga_ros/occupancy_grid.hpp Pages: 1 -->
<svg width="858pt" height="117pt"
 viewBox="0.00 0.00 858.00 117.00" xmlns="http://www.w3.org/2000/svg" xmlns:xlink="http://www.w3.org/1999/xlink">
<g id="graph0" class="graph" transform="scale(1 1) rotate(0) translate(4 113)">
<title>/home/runner/work/beluga/beluga/beluga_ros/include/beluga_ros/occupancy_grid.hpp</title>
<!-- Node1 -->
<g id="node1" class="node">
<title>Node1</title>
<g id="a_node1"><a xlink:title="Implementation of nav_msgs/OccupancyGrid wrapper type.">
<polygon fill="#bfbfbf" stroke="black" points="230,-67.5 230,-108.5 403,-108.5 403,-67.5 230,-67.5"/>
<text text-anchor="start" x="238" y="-96.5" font-family="Helvetica,sans-Serif" font-size="10.00">/home/runner/work/beluga</text>
<text text-anchor="start" x="238" y="-85.5" font-family="Helvetica,sans-Serif" font-size="10.00">/beluga/beluga_ros/include</text>
<text text-anchor="middle" x="316.5" y="-74.5" font-family="Helvetica,sans-Serif" font-size="10.00">/beluga_ros/occupancy_grid.hpp</text>
</a>
</g>
</g>
<!-- Node2 -->
<g id="node2" class="node">
<title>Node2</title>
<g id="a_node2"><a xlink:title=" ">
<polygon fill="none" stroke="#bfbfbf" points="0,-6 0,-25 47,-25 47,-6 0,-6"/>
<text text-anchor="middle" x="23.5" y="-13" font-family="Helvetica,sans-Serif" font-size="10.00">cmath</text>
</a>
</g>
</g>
<!-- Node1&#45;&gt;Node2 -->
<g id="edge1" class="edge">
<title>Node1&#45;&gt;Node2</title>
<path fill="none" stroke="midnightblue" d="M229.86,-72.87C178.75,-63.42 113.17,-49.34 56.5,-31 54.62,-30.39 52.71,-29.72 50.8,-28.99"/>
<polygon fill="midnightblue" stroke="midnightblue" points="51.98,-25.7 41.4,-25.15 49.33,-32.18 51.98,-25.7"/>
</g>
<!-- Node3 -->
<g id="node3" class="node">
<title>Node3</title>
<g id="a_node3"><a xlink:title=" ">
<polygon fill="none" stroke="#bfbfbf" points="65.5,-6 65.5,-25 123.5,-25 123.5,-6 65.5,-6"/>
<text text-anchor="middle" x="94.5" y="-13" font-family="Helvetica,sans-Serif" font-size="10.00">memory</text>
</a>
</g>
</g>
<!-- Node1&#45;&gt;Node3 -->
<g id="edge2" class="edge">
<title>Node1&#45;&gt;Node3</title>
<path fill="none" stroke="midnightblue" d="M248.42,-67.5C213.56,-57.21 170.57,-44.04 132.5,-31 130.25,-30.23 127.92,-29.41 125.59,-28.56"/>
<polygon fill="midnightblue" stroke="midnightblue" points="126.7,-25.24 116.11,-25.04 124.26,-31.8 126.7,-25.24"/>
</g>
<!-- Node4 -->
<g id="node4" class="node">
<title>Node4</title>
<g id="a_node4"><a xlink:title=" ">
<polygon fill="none" stroke="#bfbfbf" points="142,-6 142,-25 187,-25 187,-6 142,-6"/>
<text text-anchor="middle" x="164.5" y="-13" font-family="Helvetica,sans-Serif" font-size="10.00">utility</text>
</a>
</g>
</g>
<!-- Node1&#45;&gt;Node4 -->
<g id="edge3" class="edge">
<title>Node1&#45;&gt;Node4</title>
<path fill="none" stroke="midnightblue" d="M274.2,-67.48C250.96,-56.73 221.63,-43.16 195.5,-31 194.35,-30.46 193.17,-29.92 191.99,-29.36"/>
<polygon fill="midnightblue" stroke="midnightblue" points="193.4,-26.16 182.85,-25.1 190.43,-32.5 193.4,-26.16"/>
</g>
<!-- Node5 -->
<g id="node5" class="node">
<title>Node5</title>
<g id="a_node5"><a xlink:title=" ">
<polygon fill="none" stroke="#bfbfbf" points="205,-6 205,-25 252,-25 252,-6 205,-6"/>
<text text-anchor="middle" x="228.5" y="-13" font-family="Helvetica,sans-Serif" font-size="10.00">vector</text>
</a>
</g>
</g>
<!-- Node1&#45;&gt;Node5 -->
<g id="edge4" class="edge">
<title>Node1&#45;&gt;Node5</title>
<path fill="none" stroke="midnightblue" d="M291.99,-67.36C277.8,-56 260.23,-41.92 247.17,-31.46"/>
<polygon fill="midnightblue" stroke="midnightblue" points="249.32,-28.69 239.33,-25.17 244.94,-34.16 249.32,-28.69"/>
</g>
<!-- Node6 -->
<g id="node6" class="node">
<title>Node6</title>
<g id="a_node6"><a xlink:title=" ">
<polygon fill="none" stroke="#bfbfbf" points="270.5,-6 270.5,-25 362.5,-25 362.5,-6 270.5,-6"/>
<text text-anchor="middle" x="316.5" y="-13" font-family="Helvetica,sans-Serif" font-size="10.00">sophus/se2.hpp</text>
</a>
</g>
</g>
<!-- Node1&#45;&gt;Node6 -->
<g id="edge5" class="edge">
<title>Node1&#45;&gt;Node6</title>
<path fill="none" stroke="midnightblue" d="M316.5,-67.36C316.5,-57.3 316.5,-45.1 316.5,-35.18"/>
<polygon fill="midnightblue" stroke="midnightblue" points="320,-35.17 316.5,-25.17 313,-35.17 320,-35.17"/>
</g>
<!-- Node7 -->
<g id="node7" class="node">
<title>Node7</title>
<g id="a_node7"><a xlink:title=" ">
<polygon fill="none" stroke="#bfbfbf" points="380.5,-6 380.5,-25 472.5,-25 472.5,-6 380.5,-6"/>
<text text-anchor="middle" x="426.5" y="-13" font-family="Helvetica,sans-Serif" font-size="10.00">sophus/so2.hpp</text>
</a>
</g>
</g>
<!-- Node1&#45;&gt;Node7 -->
<g id="edge6" class="edge">
<title>Node1&#45;&gt;Node7</title>
<path fill="none" stroke="midnightblue" d="M347.14,-67.36C365.38,-55.67 388.09,-41.12 404.54,-30.57"/>
<polygon fill="midnightblue" stroke="midnightblue" points="406.44,-33.52 412.97,-25.17 402.66,-27.62 406.44,-33.52"/>
</g>
<!-- Node8 -->
<g id="node8" class="node">
<title>Node8</title>
<g id="a_node8"><a xlink:title=" ">
<polygon fill="none" stroke="#bfbfbf" points="491,-6 491,-25 554,-25 554,-6 491,-6"/>
<text text-anchor="middle" x="522.5" y="-13" font-family="Helvetica,sans-Serif" font-size="10.00">tf2/utils.h</text>
</a>
</g>
</g>
<!-- Node1&#45;&gt;Node8 -->
<g id="edge7" class="edge">
<title>Node1&#45;&gt;Node8</title>
<path fill="none" stroke="midnightblue" d="M374.6,-67.48C406.24,-56.8 446.06,-43.28 481.5,-31 483.87,-30.18 486.32,-29.33 488.78,-28.46"/>
<polygon fill="midnightblue" stroke="midnightblue" points="489.96,-31.76 498.24,-25.14 487.64,-25.15 489.96,-31.76"/>
</g>
<!-- Node9 -->
<g id="node9" class="node">
<title>Node9</title>
<g id="a_node9"><a target="_parent" xlink:href="../../../../../../beluga/docs/_doxygen/generated/reference/html/occupancy__grid_8hpp.html.html" xlink:title=" ">
<polygon fill="none" stroke="black" points="572.5,-0.5 572.5,-30.5 688.5,-30.5 688.5,-0.5 572.5,-0.5"/>
<text text-anchor="start" x="580.5" y="-18.5" font-family="Helvetica,sans-Serif" font-size="10.00">beluga/sensor/data</text>
<text text-anchor="middle" x="630.5" y="-7.5" font-family="Helvetica,sans-Serif" font-size="10.00">/occupancy_grid.hpp</text>
</a>
</g>
</g>
<!-- Node1&#45;&gt;Node9 -->
<g id="edge8" class="edge">
<title>Node1&#45;&gt;Node9</title>
<path fill="none" stroke="midnightblue" d="M403.13,-67.55C453.36,-56.27 515.7,-42.27 562.4,-31.79"/>
<polygon fill="midnightblue" stroke="midnightblue" points="563.42,-35.15 572.41,-29.54 561.89,-28.32 563.42,-35.15"/>
</g>
<!-- Node10 -->
<g id="node10" class="node">
<title>Node10</title>
<g id="a_node10"><a xlink:href="messages_8hpp_source.html" target="_top" xlink:title=" ">
<polygon fill="none" stroke="black" points="707,-6 707,-25 850,-25 850,-6 707,-6"/>
<text text-anchor="middle" x="778.5" y="-13" font-family="Helvetica,sans-Serif" font-size="10.00">beluga_ros/messages.hpp</text>
</a>
</g>
</g>
<!-- Node1&#45;&gt;Node10 -->
<g id="edge9" class="edge">
<title>Node1&#45;&gt;Node10</title>
<path fill="none" stroke="midnightblue" d="M403.25,-75.04C480.55,-64.19 596.71,-47.42 697.5,-31 705.52,-29.69 713.97,-28.25 722.27,-26.8"/>
<polygon fill="midnightblue" stroke="midnightblue" points="723.04,-30.22 732.28,-25.03 721.82,-23.32 723.04,-30.22"/>
</g>
</g>
</svg>
