<?xml version="1.0" encoding="UTF-8" standalone="no"?>
<!DOCTYPE svg PUBLIC "-//W3C//DTD SVG 1.1//EN"
 "http://www.w3.org/Graphics/SVG/1.1/DTD/svg11.dtd">
<!-- Generated by graphviz version 2.43.0 (0)
 -->
<!-- Title: /home/runner/work/beluga/beluga/beluga_ros/include/beluga_ros/occupancy_grid.hpp Pages: 1 -->
<svg width="858pt" height="117pt"
 viewBox="0.00 0.00 857.50 117.00" xmlns="http://www.w3.org/2000/svg" xmlns:xlink="http://www.w3.org/1999/xlink">
<g id="graph0" class="graph" transform="scale(1 1) rotate(0) translate(4 113)">
<title>/home/runner/work/beluga/beluga/beluga_ros/include/beluga_ros/occupancy_grid.hpp</title>
<!-- Node1 -->
<g id="node1" class="node">
<title>Node1</title>
<g id="a_node1"><a xlink:title="Implementation of nav_msgs/OccupancyGrid wrapper type.">
<polygon fill="#bfbfbf" stroke="black" points="223,-67.5 223,-108.5 396,-108.5 396,-67.5 223,-67.5"/>
<text text-anchor="start" x="231" y="-96.5" font-family="Helvetica,sans-Serif" font-size="10.00">/home/runner/work/beluga</text>
<text text-anchor="start" x="231" y="-85.5" font-family="Helvetica,sans-Serif" font-size="10.00">/beluga/beluga_ros/include</text>
<text text-anchor="middle" x="309.5" y="-74.5" font-family="Helvetica,sans-Serif" font-size="10.00">/beluga_ros/occupancy_grid.hpp</text>
</a>
</g>
</g>
<!-- Node2 -->
<g id="node2" class="node">
<title>Node2</title>
<g id="a_node2"><a xlink:title=" ">
<polygon fill="none" stroke="#bfbfbf" points="0,-6 0,-25 63,-25 63,-6 0,-6"/>
<text text-anchor="middle" x="31.5" y="-13" font-family="Helvetica,sans-Serif" font-size="10.00">tf2/utils.h</text>
</a>
</g>
</g>
<!-- Node1&#45;&gt;Node2 -->
<g id="edge1" class="edge">
<title>Node1&#45;&gt;Node2</title>
<path fill="none" stroke="midnightblue" d="M222.93,-69.18C177.51,-59.19 121.13,-45.78 71.5,-31 68.87,-30.22 66.16,-29.36 63.45,-28.45"/>
<polygon fill="midnightblue" stroke="midnightblue" points="64.37,-25.07 53.77,-25.09 62.07,-31.68 64.37,-25.07"/>
</g>
<!-- Node3 -->
<g id="node3" class="node">
<title>Node3</title>
<g id="a_node3"><a xlink:title=" ">
<polygon fill="none" stroke="#bfbfbf" points="81,-6 81,-25 128,-25 128,-6 81,-6"/>
<text text-anchor="middle" x="104.5" y="-13" font-family="Helvetica,sans-Serif" font-size="10.00">cmath</text>
</a>
</g>
</g>
<!-- Node1&#45;&gt;Node3 -->
<g id="edge2" class="edge">
<title>Node1&#45;&gt;Node3</title>
<path fill="none" stroke="midnightblue" d="M244.44,-67.49C212.04,-57.35 172.42,-44.32 137.5,-31 135.89,-30.39 134.25,-29.74 132.6,-29.07"/>
<polygon fill="midnightblue" stroke="midnightblue" points="133.79,-25.77 123.21,-25.11 131.07,-32.22 133.79,-25.77"/>
</g>
<!-- Node4 -->
<g id="node4" class="node">
<title>Node4</title>
<g id="a_node4"><a xlink:title=" ">
<polygon fill="none" stroke="#bfbfbf" points="146.5,-6 146.5,-25 204.5,-25 204.5,-6 146.5,-6"/>
<text text-anchor="middle" x="175.5" y="-13" font-family="Helvetica,sans-Serif" font-size="10.00">memory</text>
</a>
</g>
</g>
<!-- Node1&#45;&gt;Node4 -->
<g id="edge3" class="edge">
<title>Node1&#45;&gt;Node4</title>
<path fill="none" stroke="midnightblue" d="M272.17,-67.36C249.44,-55.4 221,-40.44 200.87,-29.85"/>
<polygon fill="midnightblue" stroke="midnightblue" points="202.47,-26.73 191.99,-25.17 199.21,-32.93 202.47,-26.73"/>
</g>
<!-- Node5 -->
<g id="node5" class="node">
<title>Node5</title>
<g id="a_node5"><a xlink:title=" ">
<polygon fill="none" stroke="#bfbfbf" points="223,-6 223,-25 268,-25 268,-6 223,-6"/>
<text text-anchor="middle" x="245.5" y="-13" font-family="Helvetica,sans-Serif" font-size="10.00">utility</text>
</a>
</g>
</g>
<!-- Node1&#45;&gt;Node5 -->
<g id="edge4" class="edge">
<title>Node1&#45;&gt;Node5</title>
<path fill="none" stroke="midnightblue" d="M291.67,-67.36C281.75,-56.43 269.55,-42.99 260.18,-32.67"/>
<polygon fill="midnightblue" stroke="midnightblue" points="262.69,-30.23 253.37,-25.17 257.5,-34.93 262.69,-30.23"/>
</g>
<!-- Node6 -->
<g id="node6" class="node">
<title>Node6</title>
<g id="a_node6"><a xlink:title=" ">
<polygon fill="none" stroke="#bfbfbf" points="286,-6 286,-25 333,-25 333,-6 286,-6"/>
<text text-anchor="middle" x="309.5" y="-13" font-family="Helvetica,sans-Serif" font-size="10.00">vector</text>
</a>
</g>
</g>
<!-- Node1&#45;&gt;Node6 -->
<g id="edge5" class="edge">
<title>Node1&#45;&gt;Node6</title>
<path fill="none" stroke="midnightblue" d="M309.5,-67.36C309.5,-57.3 309.5,-45.1 309.5,-35.18"/>
<polygon fill="midnightblue" stroke="midnightblue" points="313,-35.17 309.5,-25.17 306,-35.17 313,-35.17"/>
</g>
<!-- Node7 -->
<g id="node7" class="node">
<title>Node7</title>
<g id="a_node7"><a target="_parent" xlink:href="../../../../../../beluga/docs/_doxygen/generated/reference/html/occupancy__grid_8hpp.html.html" xlink:title=" ">
<polygon fill="none" stroke="black" points="351.5,-0.5 351.5,-30.5 467.5,-30.5 467.5,-0.5 351.5,-0.5"/>
<text text-anchor="start" x="359.5" y="-18.5" font-family="Helvetica,sans-Serif" font-size="10.00">beluga/sensor/data</text>
<text text-anchor="middle" x="409.5" y="-7.5" font-family="Helvetica,sans-Serif" font-size="10.00">/occupancy_grid.hpp</text>
</a>
</g>
</g>
<!-- Node1&#45;&gt;Node7 -->
<g id="edge6" class="edge">
<title>Node1&#45;&gt;Node7</title>
<path fill="none" stroke="midnightblue" d="M337.36,-67.36C350.91,-57.8 367.19,-46.33 380.86,-36.69"/>
<polygon fill="midnightblue" stroke="midnightblue" points="383.24,-39.29 389.4,-30.67 379.21,-33.57 383.24,-39.29"/>
</g>
<!-- Node8 -->
<g id="node8" class="node">
<title>Node8</title>
<g id="a_node8"><a xlink:href="messages_8hpp_source.html" target="_top" xlink:title=" ">
<polygon fill="none" stroke="black" points="486,-6 486,-25 629,-25 629,-6 486,-6"/>
<text text-anchor="middle" x="557.5" y="-13" font-family="Helvetica,sans-Serif" font-size="10.00">beluga_ros/messages.hpp</text>
</a>
</g>
</g>
<!-- Node1&#45;&gt;Node8 -->
<g id="edge7" class="edge">
<title>Node1&#45;&gt;Node8</title>
<path fill="none" stroke="midnightblue" d="M378.25,-67.46C423.06,-54.72 479.98,-38.54 517.51,-27.87"/>
<polygon fill="midnightblue" stroke="midnightblue" points="518.89,-31.11 527.55,-25.01 516.98,-24.38 518.89,-31.11"/>
</g>
<!-- Node9 -->
<g id="node9" class="node">
<title>Node9</title>
<g id="a_node9"><a xlink:title=" ">
<polygon fill="none" stroke="#bfbfbf" points="647.5,-6 647.5,-25 739.5,-25 739.5,-6 647.5,-6"/>
<text text-anchor="middle" x="693.5" y="-13" font-family="Helvetica,sans-Serif" font-size="10.00">sophus/se2.hpp</text>
</a>
</g>
</g>
<!-- Node1&#45;&gt;Node9 -->
<g id="edge8" class="edge">
<title>Node1&#45;&gt;Node9</title>
<path fill="none" stroke="midnightblue" d="M396.15,-74.41C462.73,-64.22 556.81,-48.68 638.5,-31 643.26,-29.97 648.22,-28.8 653.13,-27.58"/>
<polygon fill="midnightblue" stroke="midnightblue" points="654.25,-30.91 663.07,-25.04 652.51,-24.13 654.25,-30.91"/>
</g>
<!-- Node10 -->
<g id="node10" class="node">
<title>Node10</title>
<g id="a_node10"><a xlink:title=" ">
<polygon fill="none" stroke="#bfbfbf" points="757.5,-6 757.5,-25 849.5,-25 849.5,-6 757.5,-6"/>
<text text-anchor="middle" x="803.5" y="-13" font-family="Helvetica,sans-Serif" font-size="10.00">sophus/so2.hpp</text>
</a>
</g>
</g>
<!-- Node1&#45;&gt;Node10 -->
<g id="edge9" class="edge">
<title>Node1&#45;&gt;Node10</title>
<path fill="none" stroke="midnightblue" d="M396.25,-79.32C485.19,-70.65 627.27,-54.61 748.5,-31 753.58,-30.01 758.88,-28.82 764.11,-27.55"/>
<polygon fill="midnightblue" stroke="midnightblue" points="765.15,-30.9 773.98,-25.04 763.42,-24.11 765.15,-30.9"/>
</g>
</g>
</svg>
