<?xml version="1.0" encoding="UTF-8" standalone="no"?>
<!DOCTYPE svg PUBLIC "-//W3C//DTD SVG 1.1//EN"
 "http://www.w3.org/Graphics/SVG/1.1/DTD/svg11.dtd">
<!-- Generated by graphviz version 2.43.0 (0)
 -->
<!-- Title: /home/runner/work/beluga/beluga/beluga_ros/include/beluga_ros/occupancy_grid.hpp Pages: 1 -->
<!--zoomable 117 -->
<svg id="main" version="1.1" xmlns="http://www.w3.org/2000/svg" xmlns:xlink="http://www.w3.org/1999/xlink" xml:space="preserve" onload="init(evt)">
<style type="text/css"><![CDATA[
.edge:hover path { stroke: red; }
.edge:hover polygon { stroke: red; fill: red; }
]]></style>
<script type="text/javascript"><![CDATA[
var edges = document.getElementsByTagName('g');
if (edges && edges.length) {
  for (var i=0;i<edges.length;i++) {
    if (edges[i].id.substr(0,4)=='edge') {
      edges[i].setAttribute('class','edge');
    }
  }
}
]]></script>
        <defs>
                <circle id="rim" cx="0" cy="0" r="7"/>
                <circle id="rim2" cx="0" cy="0" r="3.5"/>
                <g id="zoomPlus">
                        <use xlink:href="#rim" fill="#404040">
                                <set attributeName="fill" to="#808080" begin="zoomplus.mouseover" end="zoomplus.mouseout"/>
                        </use>
                        <path d="M-4,0h8M0,-4v8" fill="none" stroke="white" stroke-width="1.5" pointer-events="none"/>
                </g>
                <g id="zoomMin">
                        <use xlink:href="#rim" fill="#404040">
                                <set attributeName="fill" to="#808080" begin="zoomminus.mouseover" end="zoomminus.mouseout"/>
                        </use>
                        <path d="M-4,0h8" fill="none" stroke="white" stroke-width="1.5" pointer-events="none"/>
                </g>
                <g id="dirArrow">
                        <path fill="none" stroke="white" stroke-width="1.5" d="M0,-3.0v7 M-2.5,-0.5L0,-3.0L2.5,-0.5"/>
                </g>
               <g id="resetDef">
                       <use xlink:href="#rim2" fill="#404040">
                               <set attributeName="fill" to="#808080" begin="reset.mouseover" end="reset.mouseout"/>
                       </use>
               </g>
        </defs>

<script type="text/javascript">
var viewWidth = 1021;
var viewHeight = 117;
var sectionId = 'dynsection-0';
</script>
<script xlink:href="svgpan.js"/>
<svg id="graph" class="graph">
<g id="viewport">
<title>/home/runner/work/beluga/beluga/beluga_ros/include/beluga_ros/occupancy_grid.hpp</title>
<!-- Node1 -->
<g id="node1" class="node">
<title>Node1</title>
<g id="a_node1"><a xlink:title="Implementation of nav_msgs/OccupancyGrid wrapper type.">
<polygon fill="#bfbfbf" stroke="black" points="285,-67.5 285,-108.5 458,-108.5 458,-67.5 285,-67.5"/>
<text text-anchor="start" x="293" y="-96.5" font-family="Helvetica,sans-Serif" font-size="10.00">/home/runner/work/beluga</text>
<text text-anchor="start" x="293" y="-85.5" font-family="Helvetica,sans-Serif" font-size="10.00">/beluga/beluga_ros/include</text>
<text text-anchor="middle" x="371.5" y="-74.5" font-family="Helvetica,sans-Serif" font-size="10.00">/beluga_ros/occupancy_grid.hpp</text>
</a>
</g>
</g>
<!-- Node2 -->
<g id="node2" class="node">
<title>Node2</title>
<g id="a_node2"><a xlink:title=" ">
<polygon fill="none" stroke="#bfbfbf" points="0,-6 0,-25 47,-25 47,-6 0,-6"/>
<text text-anchor="middle" x="23.5" y="-13" font-family="Helvetica,sans-Serif" font-size="10.00">cmath</text>
</a>
</g>
</g>
<!-- Node1&#45;&gt;Node2 -->
<g id="edge1" class="edge">
<title>Node1&#45;&gt;Node2</title>
<path fill="none" stroke="midnightblue" d="M284.97,-77.26C220.94,-68.7 132.1,-53.97 56.5,-31 54.57,-30.41 52.6,-29.74 50.64,-29.02"/>
<polygon fill="midnightblue" stroke="midnightblue" points="51.6,-25.64 41.02,-25.12 48.97,-32.12 51.6,-25.64"/>
</g>
<!-- Node3 -->
<g id="node3" class="node">
<title>Node3</title>
<g id="a_node3"><a xlink:title=" ">
<polygon fill="none" stroke="#bfbfbf" points="65.5,-6 65.5,-25 123.5,-25 123.5,-6 65.5,-6"/>
<text text-anchor="middle" x="94.5" y="-13" font-family="Helvetica,sans-Serif" font-size="10.00">memory</text>
</a>
</g>
</g>
<!-- Node1&#45;&gt;Node3 -->
<g id="edge2" class="edge">
<title>Node1&#45;&gt;Node3</title>
<path fill="none" stroke="midnightblue" d="M284.74,-69.61C239.05,-59.72 182.31,-46.26 132.5,-31 130.08,-30.26 127.59,-29.44 125.1,-28.58"/>
<polygon fill="midnightblue" stroke="midnightblue" points="126.22,-25.26 115.63,-25.14 123.83,-31.84 126.22,-25.26"/>
</g>
<!-- Node4 -->
<g id="node4" class="node">
<title>Node4</title>
<g id="a_node4"><a xlink:title=" ">
<polygon fill="none" stroke="#bfbfbf" points="142,-6 142,-25 187,-25 187,-6 142,-6"/>
<text text-anchor="middle" x="164.5" y="-13" font-family="Helvetica,sans-Serif" font-size="10.00">utility</text>
</a>
</g>
</g>
<!-- Node1&#45;&gt;Node4 -->
<g id="edge3" class="edge">
<title>Node1&#45;&gt;Node4</title>
<path fill="none" stroke="midnightblue" d="M303.09,-67.48C270.2,-57.53 230.44,-44.66 195.5,-31 194.08,-30.45 192.64,-29.86 191.19,-29.25"/>
<polygon fill="midnightblue" stroke="midnightblue" points="192.27,-25.9 181.71,-25.03 189.42,-32.29 192.27,-25.9"/>
</g>
<!-- Node5 -->
<g id="node5" class="node">
<title>Node5</title>
<g id="a_node5"><a xlink:title=" ">
<polygon fill="none" stroke="#bfbfbf" points="205,-6 205,-25 252,-25 252,-6 205,-6"/>
<text text-anchor="middle" x="228.5" y="-13" font-family="Helvetica,sans-Serif" font-size="10.00">vector</text>
</a>
</g>
</g>
<!-- Node1&#45;&gt;Node5 -->
<g id="edge4" class="edge">
<title>Node1&#45;&gt;Node5</title>
<path fill="none" stroke="midnightblue" d="M331.67,-67.36C307.3,-55.35 276.79,-40.3 255.28,-29.7"/>
<polygon fill="midnightblue" stroke="midnightblue" points="256.61,-26.46 246.09,-25.17 253.51,-32.73 256.61,-26.46"/>
</g>
<!-- Node6 -->
<g id="node6" class="node">
<title>Node6</title>
<g id="a_node6"><a xlink:title=" ">
<polygon fill="none" stroke="#bfbfbf" points="270.5,-6 270.5,-25 362.5,-25 362.5,-6 270.5,-6"/>
<text text-anchor="middle" x="316.5" y="-13" font-family="Helvetica,sans-Serif" font-size="10.00">sophus/se2.hpp</text>
</a>
</g>
</g>
<!-- Node1&#45;&gt;Node6 -->
<g id="edge5" class="edge">
<title>Node1&#45;&gt;Node6</title>
<path fill="none" stroke="midnightblue" d="M356.18,-67.36C347.82,-56.65 337.58,-43.52 329.6,-33.29"/>
<polygon fill="midnightblue" stroke="midnightblue" points="332.18,-30.91 323.27,-25.17 326.66,-35.21 332.18,-30.91"/>
</g>
<!-- Node7 -->
<g id="node7" class="node">
<title>Node7</title>
<g id="a_node7"><a xlink:title=" ">
<polygon fill="none" stroke="#bfbfbf" points="380.5,-6 380.5,-25 472.5,-25 472.5,-6 380.5,-6"/>
<text text-anchor="middle" x="426.5" y="-13" font-family="Helvetica,sans-Serif" font-size="10.00">sophus/so2.hpp</text>
</a>
</g>
</g>
<!-- Node1&#45;&gt;Node7 -->
<g id="edge6" class="edge">
<title>Node1&#45;&gt;Node7</title>
<path fill="none" stroke="midnightblue" d="M386.82,-67.36C395.18,-56.65 405.42,-43.52 413.4,-33.29"/>
<polygon fill="midnightblue" stroke="midnightblue" points="416.34,-35.21 419.73,-25.17 410.82,-30.91 416.34,-35.21"/>
</g>
<!-- Node8 -->
<g id="node8" class="node">
<title>Node8</title>
<g id="a_node8"><a xlink:title=" ">
<polygon fill="none" stroke="#bfbfbf" points="491,-6 491,-25 566,-25 566,-6 491,-6"/>
<text text-anchor="middle" x="528.5" y="-13" font-family="Helvetica,sans-Serif" font-size="10.00">tf2/utils.hpp</text>
</a>
</g>
</g>
<!-- Node1&#45;&gt;Node8 -->
<g id="edge7" class="edge">
<title>Node1&#45;&gt;Node8</title>
<path fill="none" stroke="midnightblue" d="M415.23,-67.36C442.35,-55.19 476.39,-39.9 500.05,-29.28"/>
<polygon fill="midnightblue" stroke="midnightblue" points="501.5,-32.46 509.18,-25.17 498.63,-26.08 501.5,-32.46"/>
</g>
<!-- Node9 -->
<g id="node9" class="node">
<title>Node9</title>
<g id="a_node9"><a xlink:title=" ">
<polygon fill="none" stroke="#bfbfbf" points="584,-0.5 584,-30.5 715,-30.5 715,-0.5 584,-0.5"/>
<text text-anchor="start" x="592" y="-18.5" font-family="Helvetica,sans-Serif" font-size="10.00">tf2_geometry_msgs/tf2</text>
<text text-anchor="middle" x="649.5" y="-7.5" font-family="Helvetica,sans-Serif" font-size="10.00">_geometry_msgs.hpp</text>
</a>
</g>
</g>
<!-- Node1&#45;&gt;Node9 -->
<g id="edge8" class="edge">
<title>Node1&#45;&gt;Node9</title>
<path fill="none" stroke="midnightblue" d="M448.57,-67.46C491.17,-56.65 543.54,-43.37 584.12,-33.08"/>
<polygon fill="midnightblue" stroke="midnightblue" points="585.08,-36.45 593.91,-30.6 583.36,-29.66 585.08,-36.45"/>
</g>
<!-- Node10 -->
<g id="node10" class="node">
<title>Node10</title>
<g id="a_node10"><a target="_parent" xlink:href="../../../../../../beluga/docs/_doxygen/generated/reference/html/occupancy__grid_8hpp.html.html" xlink:title=" ">
<polygon fill="none" stroke="black" points="733.5,-0.5 733.5,-30.5 849.5,-30.5 849.5,-0.5 733.5,-0.5"/>
<text text-anchor="start" x="741.5" y="-18.5" font-family="Helvetica,sans-Serif" font-size="10.00">beluga/sensor/data</text>
<text text-anchor="middle" x="791.5" y="-7.5" font-family="Helvetica,sans-Serif" font-size="10.00">/occupancy_grid.hpp</text>
</a>
</g>
</g>
<!-- Node1&#45;&gt;Node10 -->
<g id="edge9" class="edge">
<title>Node1&#45;&gt;Node10</title>
<path fill="none" stroke="midnightblue" d="M458.05,-74.65C527.28,-64.45 627.04,-49.04 723.51,-31.13"/>
<polygon fill="midnightblue" stroke="midnightblue" points="724.25,-34.55 733.44,-29.27 722.96,-27.67 724.25,-34.55"/>
</g>
<!-- Node11 -->
<g id="node11" class="node">
<title>Node11</title>
<g id="a_node11"><a xlink:title=" ">
<polygon fill="none" stroke="#bfbfbf" points="868,-0.5 868,-30.5 1013,-30.5 1013,-0.5 868,-0.5"/>
<text text-anchor="start" x="876" y="-18.5" font-family="Helvetica,sans-Serif" font-size="10.00">nav_msgs/msg/occupancy</text>
<text text-anchor="middle" x="940.5" y="-7.5" font-family="Helvetica,sans-Serif" font-size="10.00">_grid.hpp</text>
</a>
</g>
</g>
<!-- Node1&#45;&gt;Node11 -->
<g id="edge10" class="edge">
<title>Node1&#45;&gt;Node11</title>
<path fill="none" stroke="midnightblue" d="M458.36,-78.61C553.74,-69.04 711.62,-52.13 857.62,-31.07"/>
<polygon fill="midnightblue" stroke="midnightblue" points="858.27,-34.52 867.66,-29.62 857.26,-27.59 858.27,-34.52"/>
</g>
</g>
</svg>
        <g id="navigator" transform="translate(0 0)" fill="#404254">
                <rect fill="#f2f5e9" fill-opacity="0.5" stroke="#606060" stroke-width=".5" x="0" y="0" width="60" height="60"/>
                <use id="zoomplus" xlink:href="#zoomPlus" x="17" y="9" onmousedown="handleZoom(evt,'in')"/>
                <use id="zoomminus" xlink:href="#zoomMin" x="42" y="9" onmousedown="handleZoom(evt,'out')"/>
                <use id="reset" xlink:href="#resetDef" x="30" y="36" onmousedown="handleReset()"/>
                <g id="arrowUp" xlink:href="#dirArrow" transform="translate(30 24)" onmousedown="handlePan(0,-1)">
                  <use xlink:href="#rim" fill="#404040">
                        <set attributeName="fill" to="#808080" begin="arrowUp.mouseover" end="arrowUp.mouseout"/>
                  </use>
                  <path fill="none" stroke="white" stroke-width="1.5" d="M0,-3.0v7 M-2.5,-0.5L0,-3.0L2.5,-0.5"/>
                </g>
                <g id="arrowRight" xlink:href="#dirArrow" transform="rotate(90) translate(36 -43)" onmousedown="handlePan(1,0)">
                  <use xlink:href="#rim" fill="#404040">
                        <set attributeName="fill" to="#808080" begin="arrowRight.mouseover" end="arrowRight.mouseout"/>
                  </use>
                  <path fill="none" stroke="white" stroke-width="1.5" d="M0,-3.0v7 M-2.5,-0.5L0,-3.0L2.5,-0.5"/>
                </g>
                <g id="arrowDown" xlink:href="#dirArrow" transform="rotate(180) translate(-30 -48)" onmousedown="handlePan(0,1)">
                  <use xlink:href="#rim" fill="#404040">
                        <set attributeName="fill" to="#808080" begin="arrowDown.mouseover" end="arrowDown.mouseout"/>
                  </use>
                  <path fill="none" stroke="white" stroke-width="1.5" d="M0,-3.0v7 M-2.5,-0.5L0,-3.0L2.5,-0.5"/>
                </g>
                <g id="arrowLeft" xlink:href="#dirArrow" transform="rotate(270) translate(-36 17)" onmousedown="handlePan(-1,0)">
                  <use xlink:href="#rim" fill="#404040">
                        <set attributeName="fill" to="#808080" begin="arrowLeft.mouseover" end="arrowLeft.mouseout"/>
                  </use>
                  <path fill="none" stroke="white" stroke-width="1.5" d="M0,-3.0v7 M-2.5,-0.5L0,-3.0L2.5,-0.5"/>
                </g>
        </g>
        <svg viewBox="0 0 15 15" width="100%" height="30px" preserveAspectRatio="xMaxYMin meet">
         <g id="arrow_out" transform="scale(0.3 0.3)">
          <a xlink:href="occupancy__grid_8hpp__incl_org.svg" target="_base">
           <rect id="button" ry="5" rx="5" y="6" x="6" height="38" width="38"
                fill="#f2f5e9" fill-opacity="0.5" stroke="#606060" stroke-width="1.0"/>
           <path id="arrow"
             d="M 11.500037,31.436501 C 11.940474,20.09759 22.043105,11.32322 32.158766,21.979434 L 37.068811,17.246167 C 37.068811,17.246167 37.088388,32 37.088388,32 L 22.160133,31.978069 C 22.160133,31.978069 26.997745,27.140456 26.997745,27.140456 C 18.528582,18.264221 13.291696,25.230495 11.500037,31.436501 z"
             style="fill:#404040;"/>
          </a>
         </g>
        </svg>
</svg>
