<?xml version="1.0" encoding="UTF-8" standalone="no"?>
<!DOCTYPE svg PUBLIC "-//W3C//DTD SVG 1.1//EN"
 "http://www.w3.org/Graphics/SVG/1.1/DTD/svg11.dtd">
<!-- Generated by graphviz version 2.43.0 (0)
 -->
<!-- Title: /home/runner/work/beluga/beluga/beluga_ros/include/beluga_ros/particle_cloud.hpp Pages: 1 -->
<svg width="2709pt" height="184pt"
 viewBox="0.00 0.00 2709.00 184.00" xmlns="http://www.w3.org/2000/svg" xmlns:xlink="http://www.w3.org/1999/xlink">
<g id="graph0" class="graph" transform="scale(1 1) rotate(0) translate(4 180)">
<title>/home/runner/work/beluga/beluga/beluga_ros/include/beluga_ros/particle_cloud.hpp</title>
<!-- Node1 -->
<g id="node1" class="node">
<title>Node1</title>
<g id="a_node1"><a xlink:title="Utilities for particle cloud I/O over ROS interfaces.">
<polygon fill="#bfbfbf" stroke="black" points="1246.5,-134.5 1246.5,-175.5 1411.5,-175.5 1411.5,-134.5 1246.5,-134.5"/>
<text text-anchor="start" x="1254.5" y="-163.5" font-family="Helvetica,sans-Serif" font-size="10.00">/home/runner/work/beluga</text>
<text text-anchor="start" x="1254.5" y="-152.5" font-family="Helvetica,sans-Serif" font-size="10.00">/beluga/beluga_ros/include</text>
<text text-anchor="middle" x="1329" y="-141.5" font-family="Helvetica,sans-Serif" font-size="10.00">/beluga_ros/particle_cloud.hpp</text>
</a>
</g>
</g>
<!-- Node2 -->
<g id="node2" class="node">
<title>Node2</title>
<g id="a_node2"><a xlink:title=" ">
<polygon fill="none" stroke="#bfbfbf" points="573.5,-6 573.5,-25 620.5,-25 620.5,-6 573.5,-6"/>
<text text-anchor="middle" x="597" y="-13" font-family="Helvetica,sans-Serif" font-size="10.00">cmath</text>
</a>
</g>
</g>
<!-- Node1&#45;&gt;Node2 -->
<g id="edge1" class="edge">
<title>Node1&#45;&gt;Node2</title>
<path fill="none" stroke="midnightblue" d="M1246.26,-150.07C1108.67,-142.87 838.94,-125.69 748,-98 697.82,-82.72 645.22,-49.9 617.28,-30.9"/>
<polygon fill="midnightblue" stroke="midnightblue" points="619.01,-27.84 608.79,-25.03 615.03,-33.59 619.01,-27.84"/>
</g>
<!-- Node3 -->
<g id="node3" class="node">
<title>Node3</title>
<g id="a_node3"><a xlink:title=" ">
<polygon fill="none" stroke="#bfbfbf" points="1027,-73 1027,-92 1065,-92 1065,-73 1027,-73"/>
<text text-anchor="middle" x="1046" y="-80" font-family="Helvetica,sans-Serif" font-size="10.00">map</text>
</a>
</g>
</g>
<!-- Node1&#45;&gt;Node3 -->
<g id="edge2" class="edge">
<title>Node1&#45;&gt;Node3</title>
<path fill="none" stroke="midnightblue" d="M1246.5,-141.53C1195.8,-132.49 1130.05,-118.27 1074,-98 1072.75,-97.55 1071.5,-97.06 1070.23,-96.53"/>
<polygon fill="midnightblue" stroke="midnightblue" points="1071.32,-93.17 1060.79,-92.07 1068.34,-99.5 1071.32,-93.17"/>
</g>
<!-- Node4 -->
<g id="node4" class="node">
<title>Node4</title>
<g id="a_node4"><a xlink:title=" ">
<polygon fill="none" stroke="#bfbfbf" points="1083,-73 1083,-92 1141,-92 1141,-73 1083,-73"/>
<text text-anchor="middle" x="1112" y="-80" font-family="Helvetica,sans-Serif" font-size="10.00">memory</text>
</a>
</g>
</g>
<!-- Node1&#45;&gt;Node4 -->
<g id="edge3" class="edge">
<title>Node1&#45;&gt;Node4</title>
<path fill="none" stroke="midnightblue" d="M1264.06,-134.44C1230.22,-124.03 1188.23,-110.77 1151,-98 1148.75,-97.23 1146.44,-96.42 1144.11,-95.59"/>
<polygon fill="midnightblue" stroke="midnightblue" points="1145.21,-92.26 1134.61,-92.13 1142.81,-98.84 1145.21,-92.26"/>
</g>
<!-- Node5 -->
<g id="node5" class="node">
<title>Node5</title>
<g id="a_node5"><a xlink:title=" ">
<polygon fill="none" stroke="#bfbfbf" points="1159.5,-73 1159.5,-92 1228.5,-92 1228.5,-73 1159.5,-73"/>
<text text-anchor="middle" x="1194" y="-80" font-family="Helvetica,sans-Serif" font-size="10.00">type_traits</text>
</a>
</g>
</g>
<!-- Node1&#45;&gt;Node5 -->
<g id="edge4" class="edge">
<title>Node1&#45;&gt;Node5</title>
<path fill="none" stroke="midnightblue" d="M1291.39,-134.36C1268.5,-122.4 1239.84,-107.44 1219.56,-96.85"/>
<polygon fill="midnightblue" stroke="midnightblue" points="1221.09,-93.7 1210.61,-92.17 1217.85,-99.9 1221.09,-93.7"/>
</g>
<!-- Node6 -->
<g id="node6" class="node">
<title>Node6</title>
<g id="a_node6"><a xlink:title=" ">
<polygon fill="none" stroke="#bfbfbf" points="1247,-73 1247,-92 1411,-92 1411,-73 1247,-73"/>
<text text-anchor="middle" x="1329" y="-80" font-family="Helvetica,sans-Serif" font-size="10.00">range/v3/range/primitives.hpp</text>
</a>
</g>
</g>
<!-- Node1&#45;&gt;Node6 -->
<g id="edge5" class="edge">
<title>Node1&#45;&gt;Node6</title>
<path fill="none" stroke="midnightblue" d="M1329,-134.36C1329,-124.3 1329,-112.1 1329,-102.18"/>
<polygon fill="midnightblue" stroke="midnightblue" points="1332.5,-102.17 1329,-92.17 1325.5,-102.17 1332.5,-102.17"/>
</g>
<!-- Node7 -->
<g id="node7" class="node">
<title>Node7</title>
<g id="a_node7"><a xlink:title=" ">
<polygon fill="none" stroke="#bfbfbf" points="1429,-67.5 1429,-97.5 1539,-97.5 1539,-67.5 1429,-67.5"/>
<text text-anchor="start" x="1437" y="-85.5" font-family="Helvetica,sans-Serif" font-size="10.00">range/v3/view/take</text>
<text text-anchor="middle" x="1484" y="-74.5" font-family="Helvetica,sans-Serif" font-size="10.00">_exactly.hpp</text>
</a>
</g>
</g>
<!-- Node1&#45;&gt;Node7 -->
<g id="edge6" class="edge">
<title>Node1&#45;&gt;Node7</title>
<path fill="none" stroke="midnightblue" d="M1372.18,-134.36C1394.49,-124.21 1421.57,-111.9 1443.49,-101.93"/>
<polygon fill="midnightblue" stroke="midnightblue" points="1445.19,-105 1452.85,-97.67 1442.29,-98.62 1445.19,-105"/>
</g>
<!-- Node8 -->
<g id="node8" class="node">
<title>Node8</title>
<g id="a_node8"><a xlink:title=" ">
<polygon fill="none" stroke="#bfbfbf" points="639,-6 639,-25 731,-25 731,-6 639,-6"/>
<text text-anchor="middle" x="685" y="-13" font-family="Helvetica,sans-Serif" font-size="10.00">sophus/se2.hpp</text>
</a>
</g>
</g>
<!-- Node1&#45;&gt;Node8 -->
<g id="edge7" class="edge">
<title>Node1&#45;&gt;Node8</title>
<path fill="none" stroke="midnightblue" d="M1246.46,-149.73C1121.13,-142.47 889.16,-125.73 811,-98 768.33,-82.86 725.52,-50.71 702.43,-31.63"/>
<polygon fill="midnightblue" stroke="midnightblue" points="704.49,-28.79 694.59,-25.02 699.98,-34.14 704.49,-28.79"/>
</g>
<!-- Node9 -->
<g id="node9" class="node">
<title>Node9</title>
<g id="a_node9"><a xlink:title=" ">
<polygon fill="none" stroke="#bfbfbf" points="749,-6 749,-25 841,-25 841,-6 749,-6"/>
<text text-anchor="middle" x="795" y="-13" font-family="Helvetica,sans-Serif" font-size="10.00">sophus/se3.hpp</text>
</a>
</g>
</g>
<!-- Node1&#45;&gt;Node9 -->
<g id="edge8" class="edge">
<title>Node1&#45;&gt;Node9</title>
<path fill="none" stroke="midnightblue" d="M1246.43,-153.32C1125.27,-150.87 906.69,-140.48 842,-98 819.64,-83.32 806.65,-54.07 800.2,-34.9"/>
<polygon fill="midnightblue" stroke="midnightblue" points="803.5,-33.72 797.2,-25.2 796.81,-35.79 803.5,-33.72"/>
</g>
<!-- Node10 -->
<g id="node10" class="node">
<title>Node10</title>
<g id="a_node10"><a xlink:title=" ">
<polygon fill="none" stroke="#bfbfbf" points="859,-6 859,-25 961,-25 961,-6 859,-6"/>
<text text-anchor="middle" x="910" y="-13" font-family="Helvetica,sans-Serif" font-size="10.00">sophus/types.hpp</text>
</a>
</g>
</g>
<!-- Node1&#45;&gt;Node10 -->
<g id="edge9" class="edge">
<title>Node1&#45;&gt;Node10</title>
<path fill="none" stroke="midnightblue" d="M1246.42,-150.16C1117.05,-143.29 878.64,-126.84 853,-98 833.67,-76.26 864.47,-47.84 887.79,-30.94"/>
<polygon fill="midnightblue" stroke="midnightblue" points="890.03,-33.65 896.24,-25.07 886.03,-27.9 890.03,-33.65"/>
</g>
<!-- Node11 -->
<g id="node11" class="node">
<title>Node11</title>
<g id="a_node11"><a target="_parent" xlink:href="../../../../../../beluga/docs/_doxygen/generated/reference/html/spatial__hash_8hpp.html.html" xlink:title=" ">
<polygon fill="none" stroke="black" points="1557,-67.5 1557,-97.5 1693,-97.5 1693,-67.5 1557,-67.5"/>
<text text-anchor="start" x="1565" y="-85.5" font-family="Helvetica,sans-Serif" font-size="10.00">beluga/algorithm/spatial</text>
<text text-anchor="middle" x="1625" y="-74.5" font-family="Helvetica,sans-Serif" font-size="10.00">_hash.hpp</text>
</a>
</g>
</g>
<!-- Node1&#45;&gt;Node11 -->
<g id="edge10" class="edge">
<title>Node1&#45;&gt;Node11</title>
<path fill="none" stroke="midnightblue" d="M1411.06,-134.46C1456.61,-123.61 1512.65,-110.26 1555.94,-99.95"/>
<polygon fill="midnightblue" stroke="midnightblue" points="1556.9,-103.32 1565.81,-97.6 1555.27,-96.51 1556.9,-103.32"/>
</g>
<!-- Node12 -->
<g id="node12" class="node">
<title>Node12</title>
<g id="a_node12"><a target="_parent" xlink:href="../../../../../../beluga/docs/_doxygen/generated/reference/html/primitives_8hpp.html.html" xlink:title=" ">
<polygon fill="none" stroke="black" points="1711.5,-73 1711.5,-92 1834.5,-92 1834.5,-73 1711.5,-73"/>
<text text-anchor="middle" x="1773" y="-80" font-family="Helvetica,sans-Serif" font-size="10.00">beluga/primitives.hpp</text>
</a>
</g>
</g>
<!-- Node1&#45;&gt;Node12 -->
<g id="edge11" class="edge">
<title>Node1&#45;&gt;Node12</title>
<path fill="none" stroke="midnightblue" d="M1411.8,-142.84C1487.52,-132.33 1602.54,-115.61 1702,-98 1708.74,-96.81 1715.83,-95.46 1722.8,-94.09"/>
<polygon fill="midnightblue" stroke="midnightblue" points="1723.77,-97.47 1732.89,-92.07 1722.4,-90.6 1723.77,-97.47"/>
</g>
<!-- Node13 -->
<g id="node13" class="node">
<title>Node13</title>
<g id="a_node13"><a target="_parent" xlink:href="../../../../../../beluga/docs/_doxygen/generated/reference/html/sample_8hpp.html.html" xlink:title=" ">
<polygon fill="none" stroke="black" points="1852.5,-73 1852.5,-92 1993.5,-92 1993.5,-73 1852.5,-73"/>
<text text-anchor="middle" x="1923" y="-80" font-family="Helvetica,sans-Serif" font-size="10.00">beluga/views/sample.hpp</text>
</a>
</g>
</g>
<!-- Node1&#45;&gt;Node13 -->
<g id="edge12" class="edge">
<title>Node1&#45;&gt;Node13</title>
<path fill="none" stroke="midnightblue" d="M1411.74,-146.88C1513.68,-137.68 1692.04,-120.18 1844,-98 1852.33,-96.78 1861.13,-95.34 1869.7,-93.83"/>
<polygon fill="midnightblue" stroke="midnightblue" points="1870.41,-97.26 1879.63,-92.05 1869.17,-90.37 1870.41,-97.26"/>
</g>
<!-- Node14 -->
<g id="node14" class="node">
<title>Node14</title>
<g id="a_node14"><a target="_parent" xlink:href="../../../../../../beluga/docs/_doxygen/generated/reference/html/zip_8hpp.html.html" xlink:title=" ">
<polygon fill="none" stroke="black" points="2011.5,-73 2011.5,-92 2130.5,-92 2130.5,-73 2011.5,-73"/>
<text text-anchor="middle" x="2071" y="-80" font-family="Helvetica,sans-Serif" font-size="10.00">beluga/views/zip.hpp</text>
</a>
</g>
</g>
<!-- Node1&#45;&gt;Node14 -->
<g id="edge13" class="edge">
<title>Node1&#45;&gt;Node14</title>
<path fill="none" stroke="midnightblue" d="M1411.61,-150.52C1539.08,-144.4 1791.15,-129.26 2003,-98 2010.22,-96.93 2017.83,-95.56 2025.24,-94.09"/>
<polygon fill="midnightblue" stroke="midnightblue" points="2026.08,-97.49 2035.16,-92.03 2024.66,-90.63 2026.08,-97.49"/>
</g>
<!-- Node15 -->
<g id="node15" class="node">
<title>Node15</title>
<g id="a_node15"><a xlink:href="tf2__eigen_8hpp.html" target="_top" xlink:title="Message conversion API overloads for Eigen types.">
<polygon fill="none" stroke="black" points="270,-73 270,-92 410,-92 410,-73 270,-73"/>
<text text-anchor="middle" x="340" y="-80" font-family="Helvetica,sans-Serif" font-size="10.00">beluga_ros/tf2_eigen.hpp</text>
</a>
</g>
</g>
<!-- Node1&#45;&gt;Node15 -->
<g id="edge14" class="edge">
<title>Node1&#45;&gt;Node15</title>
<path fill="none" stroke="midnightblue" d="M1246.38,-148.11C1059.34,-134.78 605.44,-102.42 420.47,-89.24"/>
<polygon fill="midnightblue" stroke="midnightblue" points="420.49,-85.73 410.27,-88.51 420,-92.71 420.49,-85.73"/>
</g>
<!-- Node20 -->
<g id="node20" class="node">
<title>Node20</title>
<g id="a_node20"><a xlink:href="tf2__sophus_8hpp.html" target="_top" xlink:title="Message conversion API overloads for Sophus types.">
<polygon fill="none" stroke="black" points="861.5,-73 861.5,-92 1008.5,-92 1008.5,-73 861.5,-73"/>
<text text-anchor="middle" x="935" y="-80" font-family="Helvetica,sans-Serif" font-size="10.00">beluga_ros/tf2_sophus.hpp</text>
</a>
</g>
</g>
<!-- Node1&#45;&gt;Node20 -->
<g id="edge19" class="edge">
<title>Node1&#45;&gt;Node20</title>
<path fill="none" stroke="midnightblue" d="M1246.4,-139.22C1170.32,-125.61 1059.39,-105.76 992.51,-93.79"/>
<polygon fill="midnightblue" stroke="midnightblue" points="993.02,-90.33 982.56,-92.01 991.79,-97.22 993.02,-90.33"/>
</g>
<!-- Node29 -->
<g id="node29" class="node">
<title>Node29</title>
<g id="a_node29"><a xlink:title=" ">
<polygon fill="none" stroke="#bfbfbf" points="2149,-67.5 2149,-97.5 2295,-97.5 2295,-67.5 2149,-67.5"/>
<text text-anchor="start" x="2157" y="-85.5" font-family="Helvetica,sans-Serif" font-size="10.00">geometry_msgs/msg/pose</text>
<text text-anchor="middle" x="2222" y="-74.5" font-family="Helvetica,sans-Serif" font-size="10.00">_array.hpp</text>
</a>
</g>
</g>
<!-- Node1&#45;&gt;Node29 -->
<g id="edge34" class="edge">
<title>Node1&#45;&gt;Node29</title>
<path fill="none" stroke="midnightblue" d="M1411.59,-151.19C1556.74,-145.62 1867.19,-130.87 2138.69,-98.08"/>
<polygon fill="midnightblue" stroke="midnightblue" points="2139.24,-101.53 2148.74,-96.85 2138.39,-94.59 2139.24,-101.53"/>
</g>
<!-- Node30 -->
<g id="node30" class="node">
<title>Node30</title>
<g id="a_node30"><a xlink:title=" ">
<polygon fill="none" stroke="#bfbfbf" points="2313,-67.5 2313,-97.5 2427,-97.5 2427,-67.5 2313,-67.5"/>
<text text-anchor="start" x="2321" y="-85.5" font-family="Helvetica,sans-Serif" font-size="10.00">std_msgs/msg/color</text>
<text text-anchor="middle" x="2370" y="-74.5" font-family="Helvetica,sans-Serif" font-size="10.00">_rgba.hpp</text>
</a>
</g>
</g>
<!-- Node1&#45;&gt;Node30 -->
<g id="edge35" class="edge">
<title>Node1&#45;&gt;Node30</title>
<path fill="none" stroke="midnightblue" d="M1411.61,-153.67C1578.45,-152.04 1967.54,-143.39 2302.47,-98.06"/>
<polygon fill="midnightblue" stroke="midnightblue" points="2303.43,-101.46 2312.86,-96.64 2302.48,-94.52 2303.43,-101.46"/>
</g>
<!-- Node31 -->
<g id="node31" class="node">
<title>Node31</title>
<g id="a_node31"><a xlink:title=" ">
<polygon fill="none" stroke="#bfbfbf" points="2445,-67.5 2445,-97.5 2555,-97.5 2555,-67.5 2445,-67.5"/>
<text text-anchor="start" x="2453" y="-85.5" font-family="Helvetica,sans-Serif" font-size="10.00">visualization_msgs</text>
<text text-anchor="middle" x="2500" y="-74.5" font-family="Helvetica,sans-Serif" font-size="10.00">/msg/marker.hpp</text>
</a>
</g>
</g>
<!-- Node1&#45;&gt;Node31 -->
<g id="edge36" class="edge">
<title>Node1&#45;&gt;Node31</title>
<path fill="none" stroke="midnightblue" d="M1411.73,-154.67C1594.84,-155.09 2048.08,-150.36 2434.96,-97.97"/>
<polygon fill="midnightblue" stroke="midnightblue" points="2435.52,-101.43 2444.95,-96.6 2434.57,-94.49 2435.52,-101.43"/>
</g>
<!-- Node32 -->
<g id="node32" class="node">
<title>Node32</title>
<g id="a_node32"><a xlink:title=" ">
<polygon fill="none" stroke="#bfbfbf" points="2573,-67.5 2573,-97.5 2701,-97.5 2701,-67.5 2573,-67.5"/>
<text text-anchor="start" x="2581" y="-85.5" font-family="Helvetica,sans-Serif" font-size="10.00">visualization_msgs</text>
<text text-anchor="middle" x="2637" y="-74.5" font-family="Helvetica,sans-Serif" font-size="10.00">/msg/marker_array.hpp</text>
</a>
</g>
</g>
<!-- Node1&#45;&gt;Node32 -->
<g id="edge37" class="edge">
<title>Node1&#45;&gt;Node32</title>
<path fill="none" stroke="midnightblue" d="M1411.74,-154.54C1609.41,-154.91 2124.66,-150.4 2562.98,-97.99"/>
<polygon fill="midnightblue" stroke="midnightblue" points="2563.48,-101.45 2572.99,-96.78 2562.65,-94.5 2563.48,-101.45"/>
</g>
<!-- Node16 -->
<g id="node16" class="node">
<title>Node16</title>
<g id="a_node16"><a xlink:title=" ">
<polygon fill="none" stroke="#bfbfbf" points="274,-6 274,-25 406,-25 406,-6 274,-6"/>
<text text-anchor="middle" x="340" y="-13" font-family="Helvetica,sans-Serif" font-size="10.00">tf2_eigen/tf2_eigen.hpp</text>
</a>
</g>
</g>
<!-- Node15&#45;&gt;Node16 -->
<g id="edge15" class="edge">
<title>Node15&#45;&gt;Node16</title>
<path fill="none" stroke="midnightblue" d="M340,-72.73C340,-63.18 340,-47.62 340,-35.28"/>
<polygon fill="midnightblue" stroke="midnightblue" points="343.5,-35.13 340,-25.13 336.5,-35.13 343.5,-35.13"/>
</g>
<!-- Node17 -->
<g id="node17" class="node">
<title>Node17</title>
<g id="a_node17"><a xlink:title=" ">
<polygon fill="none" stroke="#bfbfbf" points="424.5,-0.5 424.5,-30.5 555.5,-30.5 555.5,-0.5 424.5,-0.5"/>
<text text-anchor="start" x="432.5" y="-18.5" font-family="Helvetica,sans-Serif" font-size="10.00">tf2_geometry_msgs/tf2</text>
<text text-anchor="middle" x="490" y="-7.5" font-family="Helvetica,sans-Serif" font-size="10.00">_geometry_msgs.hpp</text>
</a>
</g>
</g>
<!-- Node15&#45;&gt;Node17 -->
<g id="edge16" class="edge">
<title>Node15&#45;&gt;Node17</title>
<path fill="none" stroke="midnightblue" d="M359.92,-72.87C382.33,-63.16 419.36,-47.11 448.2,-34.61"/>
<polygon fill="midnightblue" stroke="midnightblue" points="449.84,-37.72 457.63,-30.53 447.06,-31.29 449.84,-37.72"/>
</g>
<!-- Node18 -->
<g id="node18" class="node">
<title>Node18</title>
<g id="a_node18"><a xlink:title=" ">
<polygon fill="none" stroke="#bfbfbf" points="0,-6 0,-25 168,-25 168,-6 0,-6"/>
<text text-anchor="middle" x="84" y="-13" font-family="Helvetica,sans-Serif" font-size="10.00">geometry_msgs/msg/point.hpp</text>
</a>
</g>
</g>
<!-- Node15&#45;&gt;Node18 -->
<g id="edge17" class="edge">
<title>Node15&#45;&gt;Node18</title>
<path fill="none" stroke="midnightblue" d="M306.27,-72.94C260.41,-61.29 178.34,-40.45 127.78,-27.62"/>
<polygon fill="midnightblue" stroke="midnightblue" points="128.36,-24.15 117.81,-25.08 126.64,-30.94 128.36,-24.15"/>
</g>
<!-- Node19 -->
<g id="node19" class="node">
<title>Node19</title>
<g id="a_node19"><a xlink:title=" ">
<polygon fill="none" stroke="#bfbfbf" points="186.5,-6 186.5,-25 255.5,-25 255.5,-6 186.5,-6"/>
<text text-anchor="middle" x="221" y="-13" font-family="Helvetica,sans-Serif" font-size="10.00">Eigen/Core</text>
</a>
</g>
</g>
<!-- Node15&#45;&gt;Node19 -->
<g id="edge18" class="edge">
<title>Node15&#45;&gt;Node19</title>
<path fill="none" stroke="midnightblue" d="M323.95,-72.73C303.88,-61.77 269.3,-42.88 245.81,-30.05"/>
<polygon fill="midnightblue" stroke="midnightblue" points="247.25,-26.85 236.79,-25.13 243.89,-32.99 247.25,-26.85"/>
</g>
<!-- Node20&#45;&gt;Node2 -->
<g id="edge22" class="edge">
<title>Node20&#45;&gt;Node2</title>
<path fill="none" stroke="midnightblue" d="M861.43,-74.53C798.92,-67.39 707.3,-53.99 630,-31 627.86,-30.36 625.67,-29.62 623.49,-28.81"/>
<polygon fill="midnightblue" stroke="midnightblue" points="624.74,-25.55 614.16,-25.01 622.1,-32.03 624.74,-25.55"/>
</g>
<!-- Node20&#45;&gt;Node8 -->
<g id="edge28" class="edge">
<title>Node20&#45;&gt;Node8</title>
<path fill="none" stroke="midnightblue" d="M901.87,-72.97C863.06,-62.96 796.84,-45.85 740,-31 735.86,-29.92 731.55,-28.79 727.24,-27.66"/>
<polygon fill="midnightblue" stroke="midnightblue" points="727.84,-24.19 717.28,-25.03 726.06,-30.96 727.84,-24.19"/>
</g>
<!-- Node20&#45;&gt;Node9 -->
<g id="edge29" class="edge">
<title>Node20&#45;&gt;Node9</title>
<path fill="none" stroke="midnightblue" d="M916.41,-72.87C892.46,-61.75 850.61,-42.32 822.85,-29.43"/>
<polygon fill="midnightblue" stroke="midnightblue" points="824.21,-26.2 813.67,-25.17 821.26,-32.55 824.21,-26.2"/>
</g>
<!-- Node20&#45;&gt;Node10 -->
<g id="edge30" class="edge">
<title>Node20&#45;&gt;Node10</title>
<path fill="none" stroke="midnightblue" d="M931.63,-72.73C927.88,-62.99 921.72,-46.98 916.94,-34.53"/>
<polygon fill="midnightblue" stroke="midnightblue" points="920.17,-33.2 913.32,-25.13 913.64,-35.72 920.17,-33.2"/>
</g>
<!-- Node20&#45;&gt;Node16 -->
<g id="edge26" class="edge">
<title>Node20&#45;&gt;Node16</title>
<path fill="none" stroke="midnightblue" d="M861.11,-76.53C760.05,-69.22 573.21,-53.92 415,-31 406.98,-29.84 398.51,-28.4 390.26,-26.89"/>
<polygon fill="midnightblue" stroke="midnightblue" points="390.84,-23.44 380.36,-25.03 389.54,-30.32 390.84,-23.44"/>
</g>
<!-- Node20&#45;&gt;Node17 -->
<g id="edge27" class="edge">
<title>Node20&#45;&gt;Node17</title>
<path fill="none" stroke="midnightblue" d="M863.89,-72.98C791.46,-64.03 675.66,-48.99 565.75,-31.07"/>
<polygon fill="midnightblue" stroke="midnightblue" points="566.25,-27.6 555.81,-29.44 565.11,-34.51 566.25,-27.6"/>
</g>
<!-- Node21 -->
<g id="node21" class="node">
<title>Node21</title>
<g id="a_node21"><a xlink:title=" ">
<polygon fill="none" stroke="#bfbfbf" points="979.5,-0.5 979.5,-30.5 1132.5,-30.5 1132.5,-0.5 979.5,-0.5"/>
<text text-anchor="start" x="987.5" y="-18.5" font-family="Helvetica,sans-Serif" font-size="10.00">beluga/algorithm/unscented</text>
<text text-anchor="middle" x="1056" y="-7.5" font-family="Helvetica,sans-Serif" font-size="10.00">_transform.hpp</text>
</a>
</g>
</g>
<!-- Node20&#45;&gt;Node21 -->
<g id="edge20" class="edge">
<title>Node20&#45;&gt;Node21</title>
<path fill="none" stroke="midnightblue" d="M951.32,-72.73C969.01,-63.23 997.78,-47.78 1020.68,-35.47"/>
<polygon fill="midnightblue" stroke="midnightblue" points="1022.62,-38.4 1029.77,-30.59 1019.31,-32.24 1022.62,-38.4"/>
</g>
<!-- Node22 -->
<g id="node22" class="node">
<title>Node22</title>
<g id="a_node22"><a xlink:title=" ">
<polygon fill="none" stroke="#bfbfbf" points="1150.5,-6 1150.5,-25 1319.5,-25 1319.5,-6 1150.5,-6"/>
<text text-anchor="middle" x="1235" y="-13" font-family="Helvetica,sans-Serif" font-size="10.00">beluga/eigen_compatibility.hpp</text>
</a>
</g>
</g>
<!-- Node20&#45;&gt;Node22 -->
<g id="edge21" class="edge">
<title>Node20&#45;&gt;Node22</title>
<path fill="none" stroke="midnightblue" d="M974.53,-72.94C1028.82,-61.17 1126.46,-40.02 1185.53,-27.22"/>
<polygon fill="midnightblue" stroke="midnightblue" points="1186.35,-30.62 1195.38,-25.08 1184.87,-23.78 1186.35,-30.62"/>
</g>
<!-- Node23 -->
<g id="node23" class="node">
<title>Node23</title>
<g id="a_node23"><a xlink:title=" ">
<polygon fill="none" stroke="#bfbfbf" points="1338,-6 1338,-25 1456,-25 1456,-6 1338,-6"/>
<text text-anchor="middle" x="1397" y="-13" font-family="Helvetica,sans-Serif" font-size="10.00">sophus/common.hpp</text>
</a>
</g>
</g>
<!-- Node20&#45;&gt;Node23 -->
<g id="edge23" class="edge">
<title>Node20&#45;&gt;Node23</title>
<path fill="none" stroke="midnightblue" d="M981.02,-72.97C993.04,-70.88 1005.98,-68.74 1018,-67 1155.7,-47.02 1191.69,-53.53 1329,-31 1335.8,-29.88 1342.95,-28.54 1349.96,-27.14"/>
<polygon fill="midnightblue" stroke="midnightblue" points="1350.98,-30.5 1360.06,-25.04 1349.56,-23.64 1350.98,-30.5"/>
</g>
<!-- Node24 -->
<g id="node24" class="node">
<title>Node24</title>
<g id="a_node24"><a xlink:title=" ">
<polygon fill="none" stroke="#bfbfbf" points="1474.5,-6 1474.5,-25 1565.5,-25 1565.5,-6 1474.5,-6"/>
<text text-anchor="middle" x="1520" y="-13" font-family="Helvetica,sans-Serif" font-size="10.00">tf2/convert.hpp</text>
</a>
</g>
</g>
<!-- Node20&#45;&gt;Node24 -->
<g id="edge24" class="edge">
<title>Node20&#45;&gt;Node24</title>
<path fill="none" stroke="midnightblue" d="M979.25,-72.99C991.75,-70.8 1005.38,-68.61 1018,-67 1215.71,-41.82 1268.53,-64.54 1465,-31 1470.41,-30.08 1476.07,-28.87 1481.61,-27.55"/>
<polygon fill="midnightblue" stroke="midnightblue" points="1482.55,-30.92 1491.38,-25.07 1480.83,-24.13 1482.55,-30.92"/>
</g>
<!-- Node25 -->
<g id="node25" class="node">
<title>Node25</title>
<g id="a_node25"><a xlink:title=" ">
<polygon fill="none" stroke="#bfbfbf" points="1583.5,-6 1583.5,-25 1658.5,-25 1658.5,-6 1583.5,-6"/>
<text text-anchor="middle" x="1621" y="-13" font-family="Helvetica,sans-Serif" font-size="10.00">tf2/utils.hpp</text>
</a>
</g>
</g>
<!-- Node20&#45;&gt;Node25 -->
<g id="edge25" class="edge">
<title>Node20&#45;&gt;Node25</title>
<path fill="none" stroke="midnightblue" d="M978.81,-72.93C991.42,-70.71 1005.22,-68.53 1018,-67 1264.33,-37.61 1331.16,-76.62 1575,-31 1579.17,-30.22 1583.48,-29.18 1587.73,-28.02"/>
<polygon fill="midnightblue" stroke="midnightblue" points="1588.82,-31.35 1597.4,-25.14 1586.82,-24.64 1588.82,-31.35"/>
</g>
<!-- Node26 -->
<g id="node26" class="node">
<title>Node26</title>
<g id="a_node26"><a xlink:title=" ">
<polygon fill="none" stroke="#bfbfbf" points="1676.5,-6 1676.5,-25 1843.5,-25 1843.5,-6 1676.5,-6"/>
<text text-anchor="middle" x="1760" y="-13" font-family="Helvetica,sans-Serif" font-size="10.00">geometry_msgs/msg/pose.hpp</text>
</a>
</g>
</g>
<!-- Node20&#45;&gt;Node26 -->
<g id="edge31" class="edge">
<title>Node20&#45;&gt;Node26</title>
<path fill="none" stroke="midnightblue" d="M978.37,-72.93C991.09,-70.69 1005.07,-68.48 1018,-67 1305.45,-34.05 1380.29,-61.56 1668,-31 1678.96,-29.84 1690.6,-28.26 1701.78,-26.58"/>
<polygon fill="midnightblue" stroke="midnightblue" points="1702.55,-30.01 1711.9,-25.02 1701.48,-23.09 1702.55,-30.01"/>
</g>
<!-- Node27 -->
<g id="node27" class="node">
<title>Node27</title>
<g id="a_node27"><a xlink:title=" ">
<polygon fill="none" stroke="#bfbfbf" points="1862,-0.5 1862,-30.5 2008,-30.5 2008,-0.5 1862,-0.5"/>
<text text-anchor="start" x="1870" y="-18.5" font-family="Helvetica,sans-Serif" font-size="10.00">geometry_msgs/msg/pose</text>
<text text-anchor="middle" x="1935" y="-7.5" font-family="Helvetica,sans-Serif" font-size="10.00">_with_covariance.hpp</text>
</a>
</g>
</g>
<!-- Node20&#45;&gt;Node27 -->
<g id="edge32" class="edge">
<title>Node20&#45;&gt;Node27</title>
<path fill="none" stroke="midnightblue" d="M977.5,-72.98C990.45,-70.68 1004.77,-68.44 1018,-67 1383.95,-27.31 1481.99,-70.63 1851.58,-31.05"/>
<polygon fill="midnightblue" stroke="midnightblue" points="1852.19,-34.5 1861.75,-29.95 1851.43,-27.54 1852.19,-34.5"/>
</g>
<!-- Node28 -->
<g id="node28" class="node">
<title>Node28</title>
<g id="a_node28"><a xlink:title=" ">
<polygon fill="none" stroke="#bfbfbf" points="2026.5,-6 2026.5,-25 2217.5,-25 2217.5,-6 2026.5,-6"/>
<text text-anchor="middle" x="2122" y="-13" font-family="Helvetica,sans-Serif" font-size="10.00">geometry_msgs/msg/transform.hpp</text>
</a>
</g>
</g>
<!-- Node20&#45;&gt;Node28 -->
<g id="edge33" class="edge">
<title>Node20&#45;&gt;Node28</title>
<path fill="none" stroke="midnightblue" d="M977.49,-72.92C990.45,-70.62 1004.76,-68.39 1018,-67 1459.87,-20.66 1574.38,-69.44 2017,-31 2030.29,-29.85 2044.48,-28.18 2057.99,-26.39"/>
<polygon fill="midnightblue" stroke="midnightblue" points="2058.73,-29.82 2068.16,-25 2057.78,-22.89 2058.73,-29.82"/>
</g>
</g>
</svg>
