<?xml version="1.0" encoding="UTF-8" standalone="no"?>
<!DOCTYPE svg PUBLIC "-//W3C//DTD SVG 1.1//EN"
 "http://www.w3.org/Graphics/SVG/1.1/DTD/svg11.dtd">
<!-- Generated by graphviz version 2.43.0 (0)
 -->
<!-- Title: /home/runner/work/beluga/beluga/beluga_ros/include/beluga_ros/particle_cloud.hpp Pages: 1 -->
<svg width="1653pt" height="173pt"
 viewBox="0.00 0.00 1653.00 173.00" xmlns="http://www.w3.org/2000/svg" xmlns:xlink="http://www.w3.org/1999/xlink">
<g id="graph0" class="graph" transform="scale(1 1) rotate(0) translate(4 169)">
<title>/home/runner/work/beluga/beluga/beluga_ros/include/beluga_ros/particle_cloud.hpp</title>
<!-- Node1 -->
<g id="node1" class="node">
<title>Node1</title>
<g id="a_node1"><a xlink:title="Utilities for particle cloud I/O over ROS interfaces.">
<polygon fill="#bfbfbf" stroke="black" points="580,-123.5 580,-164.5 745,-164.5 745,-123.5 580,-123.5"/>
<text text-anchor="start" x="588" y="-152.5" font-family="Helvetica,sans-Serif" font-size="10.00">/home/runner/work/beluga</text>
<text text-anchor="start" x="588" y="-141.5" font-family="Helvetica,sans-Serif" font-size="10.00">/beluga/beluga_ros/include</text>
<text text-anchor="middle" x="662.5" y="-130.5" font-family="Helvetica,sans-Serif" font-size="10.00">/beluga_ros/particle_cloud.hpp</text>
</a>
</g>
</g>
<!-- Node2 -->
<g id="node2" class="node">
<title>Node2</title>
<g id="a_node2"><a xlink:title=" ">
<polygon fill="none" stroke="#bfbfbf" points="0,-62 0,-81 47,-81 47,-62 0,-62"/>
<text text-anchor="middle" x="23.5" y="-69" font-family="Helvetica,sans-Serif" font-size="10.00">cmath</text>
</a>
</g>
</g>
<!-- Node1&#45;&gt;Node2 -->
<g id="edge1" class="edge">
<title>Node1&#45;&gt;Node2</title>
<path fill="none" stroke="midnightblue" d="M579.71,-143.69C461.68,-142.82 239.09,-134.22 56.5,-87 54.2,-86.41 51.86,-85.67 49.53,-84.84"/>
<polygon fill="midnightblue" stroke="midnightblue" points="50.84,-81.6 40.25,-81.1 48.22,-88.09 50.84,-81.6"/>
</g>
<!-- Node3 -->
<g id="node3" class="node">
<title>Node3</title>
<g id="a_node3"><a xlink:title=" ">
<polygon fill="none" stroke="#bfbfbf" points="65.5,-62 65.5,-81 103.5,-81 103.5,-62 65.5,-62"/>
<text text-anchor="middle" x="84.5" y="-69" font-family="Helvetica,sans-Serif" font-size="10.00">map</text>
</a>
</g>
</g>
<!-- Node1&#45;&gt;Node3 -->
<g id="edge2" class="edge">
<title>Node1&#45;&gt;Node3</title>
<path fill="none" stroke="midnightblue" d="M579.75,-138.38C448.27,-130.41 197.81,-112.43 112.5,-87 111.02,-86.56 109.54,-86.04 108.05,-85.47"/>
<polygon fill="midnightblue" stroke="midnightblue" points="109.14,-82.12 98.6,-81.11 106.21,-88.47 109.14,-82.12"/>
</g>
<!-- Node4 -->
<g id="node4" class="node">
<title>Node4</title>
<g id="a_node4"><a xlink:title=" ">
<polygon fill="none" stroke="#bfbfbf" points="121.5,-62 121.5,-81 179.5,-81 179.5,-62 121.5,-62"/>
<text text-anchor="middle" x="150.5" y="-69" font-family="Helvetica,sans-Serif" font-size="10.00">memory</text>
</a>
</g>
</g>
<!-- Node1&#45;&gt;Node4 -->
<g id="edge3" class="edge">
<title>Node1&#45;&gt;Node4</title>
<path fill="none" stroke="midnightblue" d="M579.62,-139.4C484.13,-133.84 323.08,-120.09 188.5,-87 185.67,-86.3 182.77,-85.46 179.89,-84.52"/>
<polygon fill="midnightblue" stroke="midnightblue" points="180.91,-81.17 170.32,-81.12 178.57,-87.77 180.91,-81.17"/>
</g>
<!-- Node5 -->
<g id="node5" class="node">
<title>Node5</title>
<g id="a_node5"><a xlink:title=" ">
<polygon fill="none" stroke="#bfbfbf" points="198,-62 198,-81 267,-81 267,-62 198,-62"/>
<text text-anchor="middle" x="232.5" y="-69" font-family="Helvetica,sans-Serif" font-size="10.00">type_traits</text>
</a>
</g>
</g>
<!-- Node1&#45;&gt;Node5 -->
<g id="edge4" class="edge">
<title>Node1&#45;&gt;Node5</title>
<path fill="none" stroke="midnightblue" d="M579.64,-135.2C500.94,-126.81 379.65,-111.28 276.5,-87 273.03,-86.18 269.44,-85.21 265.88,-84.17"/>
<polygon fill="midnightblue" stroke="midnightblue" points="266.62,-80.74 256.03,-81.09 264.53,-87.42 266.62,-80.74"/>
</g>
<!-- Node6 -->
<g id="node6" class="node">
<title>Node6</title>
<g id="a_node6"><a xlink:title=" ">
<polygon fill="none" stroke="#bfbfbf" points="285.5,-62 285.5,-81 449.5,-81 449.5,-62 285.5,-62"/>
<text text-anchor="middle" x="367.5" y="-69" font-family="Helvetica,sans-Serif" font-size="10.00">range/v3/range/primitives.hpp</text>
</a>
</g>
</g>
<!-- Node1&#45;&gt;Node6 -->
<g id="edge5" class="edge">
<title>Node1&#45;&gt;Node6</title>
<path fill="none" stroke="midnightblue" d="M580.72,-123.46C526.62,-110.53 457.69,-94.05 413.08,-83.39"/>
<polygon fill="midnightblue" stroke="midnightblue" points="413.66,-79.93 403.12,-81.01 412.03,-86.74 413.66,-79.93"/>
</g>
<!-- Node7 -->
<g id="node7" class="node">
<title>Node7</title>
<g id="a_node7"><a xlink:title=" ">
<polygon fill="none" stroke="#bfbfbf" points="467.5,-56.5 467.5,-86.5 577.5,-86.5 577.5,-56.5 467.5,-56.5"/>
<text text-anchor="start" x="475.5" y="-74.5" font-family="Helvetica,sans-Serif" font-size="10.00">range/v3/view/take</text>
<text text-anchor="middle" x="522.5" y="-63.5" font-family="Helvetica,sans-Serif" font-size="10.00">_exactly.hpp</text>
</a>
</g>
</g>
<!-- Node1&#45;&gt;Node7 -->
<g id="edge6" class="edge">
<title>Node1&#45;&gt;Node7</title>
<path fill="none" stroke="midnightblue" d="M623.5,-123.36C603.53,-113.3 579.33,-101.12 559.63,-91.2"/>
<polygon fill="midnightblue" stroke="midnightblue" points="561.14,-88.04 550.64,-86.67 558,-94.29 561.14,-88.04"/>
</g>
<!-- Node8 -->
<g id="node8" class="node">
<title>Node8</title>
<g id="a_node8"><a xlink:title=" ">
<polygon fill="none" stroke="#bfbfbf" points="410.5,-0.5 410.5,-19.5 502.5,-19.5 502.5,-0.5 410.5,-0.5"/>
<text text-anchor="middle" x="456.5" y="-7.5" font-family="Helvetica,sans-Serif" font-size="10.00">sophus/se2.hpp</text>
</a>
</g>
</g>
<!-- Node1&#45;&gt;Node8 -->
<g id="edge7" class="edge">
<title>Node1&#45;&gt;Node8</title>
<path fill="none" stroke="midnightblue" d="M647.32,-123.37C629.51,-100.77 600.64,-65.53 586.5,-56 562.81,-40.03 532.87,-29.16 507.7,-22.11"/>
<polygon fill="midnightblue" stroke="midnightblue" points="508.52,-18.71 497.96,-19.5 506.71,-25.47 508.52,-18.71"/>
</g>
<!-- Node9 -->
<g id="node9" class="node">
<title>Node9</title>
<g id="a_node9"><a xlink:title=" ">
<polygon fill="none" stroke="#bfbfbf" points="520.5,-0.5 520.5,-19.5 612.5,-19.5 612.5,-0.5 520.5,-0.5"/>
<text text-anchor="middle" x="566.5" y="-7.5" font-family="Helvetica,sans-Serif" font-size="10.00">sophus/se3.hpp</text>
</a>
</g>
</g>
<!-- Node1&#45;&gt;Node9 -->
<g id="edge8" class="edge">
<title>Node1&#45;&gt;Node9</title>
<path fill="none" stroke="midnightblue" d="M655.49,-123.38C648.26,-104.85 635.78,-76.85 619.5,-56 610.56,-44.55 598.32,-33.93 587.85,-25.88"/>
<polygon fill="midnightblue" stroke="midnightblue" points="589.71,-22.9 579.59,-19.76 585.54,-28.52 589.71,-22.9"/>
</g>
<!-- Node10 -->
<g id="node10" class="node">
<title>Node10</title>
<g id="a_node10"><a xlink:title=" ">
<polygon fill="none" stroke="#bfbfbf" points="630.5,-0.5 630.5,-19.5 732.5,-19.5 732.5,-0.5 630.5,-0.5"/>
<text text-anchor="middle" x="681.5" y="-7.5" font-family="Helvetica,sans-Serif" font-size="10.00">sophus/types.hpp</text>
</a>
</g>
</g>
<!-- Node1&#45;&gt;Node10 -->
<g id="edge9" class="edge">
<title>Node1&#45;&gt;Node10</title>
<path fill="none" stroke="midnightblue" d="M665.34,-123.24C668.99,-97.92 675.26,-54.35 678.82,-29.6"/>
<polygon fill="midnightblue" stroke="midnightblue" points="682.29,-30.08 680.25,-19.69 675.36,-29.08 682.29,-30.08"/>
</g>
<!-- Node11 -->
<g id="node11" class="node">
<title>Node11</title>
<g id="a_node11"><a target="_parent" xlink:href="../../../../../../beluga/docs/_doxygen/generated/reference/html/spatial__hash_8hpp.html.html" xlink:title=" ">
<polygon fill="none" stroke="black" points="1071.5,-56.5 1071.5,-86.5 1207.5,-86.5 1207.5,-56.5 1071.5,-56.5"/>
<text text-anchor="start" x="1079.5" y="-74.5" font-family="Helvetica,sans-Serif" font-size="10.00">beluga/algorithm/spatial</text>
<text text-anchor="middle" x="1139.5" y="-63.5" font-family="Helvetica,sans-Serif" font-size="10.00">_hash.hpp</text>
</a>
</g>
</g>
<!-- Node1&#45;&gt;Node11 -->
<g id="edge10" class="edge">
<title>Node1&#45;&gt;Node11</title>
<path fill="none" stroke="midnightblue" d="M745.03,-132.6C823.73,-122.42 945.84,-105.93 1061.04,-87.2"/>
<polygon fill="midnightblue" stroke="midnightblue" points="1061.79,-90.62 1071.1,-85.55 1060.66,-83.71 1061.79,-90.62"/>
</g>
<!-- Node12 -->
<g id="node12" class="node">
<title>Node12</title>
<g id="a_node12"><a target="_parent" xlink:href="../../../../../../beluga/docs/_doxygen/generated/reference/html/primitives_8hpp.html.html" xlink:title=" ">
<polygon fill="none" stroke="black" points="1226,-62 1226,-81 1349,-81 1349,-62 1226,-62"/>
<text text-anchor="middle" x="1287.5" y="-69" font-family="Helvetica,sans-Serif" font-size="10.00">beluga/primitives.hpp</text>
</a>
</g>
</g>
<!-- Node1&#45;&gt;Node12 -->
<g id="edge11" class="edge">
<title>Node1&#45;&gt;Node12</title>
<path fill="none" stroke="midnightblue" d="M745.42,-137.24C854.04,-129.09 1050.21,-112.32 1216.5,-87 1223.94,-85.87 1231.77,-84.47 1239.42,-83"/>
<polygon fill="midnightblue" stroke="midnightblue" points="1240.18,-86.42 1249.3,-81.04 1238.81,-79.55 1240.18,-86.42"/>
</g>
<!-- Node13 -->
<g id="node13" class="node">
<title>Node13</title>
<g id="a_node13"><a target="_parent" xlink:href="../../../../../../beluga/docs/_doxygen/generated/reference/html/sample_8hpp.html.html" xlink:title=" ">
<polygon fill="none" stroke="black" points="1367,-62 1367,-81 1508,-81 1508,-62 1367,-62"/>
<text text-anchor="middle" x="1437.5" y="-69" font-family="Helvetica,sans-Serif" font-size="10.00">beluga/views/sample.hpp</text>
</a>
</g>
</g>
<!-- Node1&#45;&gt;Node13 -->
<g id="edge12" class="edge">
<title>Node1&#45;&gt;Node13</title>
<path fill="none" stroke="midnightblue" d="M745.02,-139.07C875.62,-132.24 1137.81,-116.06 1358.5,-87 1367.24,-85.85 1376.48,-84.38 1385.44,-82.83"/>
<polygon fill="midnightblue" stroke="midnightblue" points="1386.17,-86.25 1395.4,-81.04 1384.94,-79.36 1386.17,-86.25"/>
</g>
<!-- Node14 -->
<g id="node14" class="node">
<title>Node14</title>
<g id="a_node14"><a target="_parent" xlink:href="../../../../../../beluga/docs/_doxygen/generated/reference/html/zip_8hpp.html.html" xlink:title=" ">
<polygon fill="none" stroke="black" points="1526,-62 1526,-81 1645,-81 1645,-62 1526,-62"/>
<text text-anchor="middle" x="1585.5" y="-69" font-family="Helvetica,sans-Serif" font-size="10.00">beluga/views/zip.hpp</text>
</a>
</g>
</g>
<!-- Node1&#45;&gt;Node14 -->
<g id="edge13" class="edge">
<title>Node1&#45;&gt;Node14</title>
<path fill="none" stroke="midnightblue" d="M745.14,-141.55C898.2,-138 1235.88,-126.04 1517.5,-87 1524.98,-85.96 1532.87,-84.57 1540.52,-83.05"/>
<polygon fill="midnightblue" stroke="midnightblue" points="1541.3,-86.46 1550.38,-81 1539.88,-79.61 1541.3,-86.46"/>
</g>
<!-- Node15 -->
<g id="node15" class="node">
<title>Node15</title>
<g id="a_node15"><a xlink:href="messages_8hpp_source.html" target="_top" xlink:title=" ">
<polygon fill="none" stroke="black" points="929,-0.5 929,-19.5 1072,-19.5 1072,-0.5 929,-0.5"/>
<text text-anchor="middle" x="1000.5" y="-7.5" font-family="Helvetica,sans-Serif" font-size="10.00">beluga_ros/messages.hpp</text>
</a>
</g>
</g>
<!-- Node1&#45;&gt;Node15 -->
<g id="edge14" class="edge">
<title>Node1&#45;&gt;Node15</title>
<path fill="none" stroke="midnightblue" d="M745.33,-128.48C783.59,-119.74 828.8,-106.44 866.5,-87 885.87,-77.01 886.05,-67.6 904.5,-56 925.03,-43.09 949.85,-31.55 969.11,-23.39"/>
<polygon fill="midnightblue" stroke="midnightblue" points="970.46,-26.62 978.35,-19.55 967.77,-20.16 970.46,-26.62"/>
</g>
<!-- Node16 -->
<g id="node16" class="node">
<title>Node16</title>
<g id="a_node16"><a xlink:href="tf2__eigen_8hpp.html" target="_top" xlink:title="Message conversion API overloads for Eigen types.">
<polygon fill="none" stroke="black" points="913.5,-62 913.5,-81 1053.5,-81 1053.5,-62 913.5,-62"/>
<text text-anchor="middle" x="983.5" y="-69" font-family="Helvetica,sans-Serif" font-size="10.00">beluga_ros/tf2_eigen.hpp</text>
</a>
</g>
</g>
<!-- Node1&#45;&gt;Node16 -->
<g id="edge15" class="edge">
<title>Node1&#45;&gt;Node16</title>
<path fill="none" stroke="midnightblue" d="M745.17,-124.84C805.12,-111.68 884.2,-94.31 934.46,-83.27"/>
<polygon fill="midnightblue" stroke="midnightblue" points="935.41,-86.65 944.43,-81.08 933.91,-79.81 935.41,-86.65"/>
</g>
<!-- Node18 -->
<g id="node18" class="node">
<title>Node18</title>
<g id="a_node18"><a xlink:href="tf2__sophus_8hpp.html" target="_top" xlink:title="Message conversion API overloads for Sophus types.">
<polygon fill="none" stroke="black" points="710,-62 710,-81 857,-81 857,-62 710,-62"/>
<text text-anchor="middle" x="783.5" y="-69" font-family="Helvetica,sans-Serif" font-size="10.00">beluga_ros/tf2_sophus.hpp</text>
</a>
</g>
</g>
<!-- Node1&#45;&gt;Node18 -->
<g id="edge18" class="edge">
<title>Node1&#45;&gt;Node18</title>
<path fill="none" stroke="midnightblue" d="M696.21,-123.36C716.45,-111.57 741.71,-96.85 759.85,-86.28"/>
<polygon fill="midnightblue" stroke="midnightblue" points="761.74,-89.23 768.61,-81.17 758.21,-83.18 761.74,-89.23"/>
</g>
<!-- Node16&#45;&gt;Node15 -->
<g id="edge16" class="edge">
<title>Node16&#45;&gt;Node15</title>
<path fill="none" stroke="midnightblue" d="M985.94,-61.98C988.36,-53.49 992.16,-40.2 995.27,-29.32"/>
<polygon fill="midnightblue" stroke="midnightblue" points="998.69,-30.09 998.07,-19.51 991.96,-28.16 998.69,-30.09"/>
</g>
<!-- Node17 -->
<g id="node17" class="node">
<title>Node17</title>
<g id="a_node17"><a xlink:title=" ">
<polygon fill="none" stroke="#bfbfbf" points="1090,-0.5 1090,-19.5 1159,-19.5 1159,-0.5 1090,-0.5"/>
<text text-anchor="middle" x="1124.5" y="-7.5" font-family="Helvetica,sans-Serif" font-size="10.00">Eigen/Core</text>
</a>
</g>
</g>
<!-- Node16&#45;&gt;Node17 -->
<g id="edge17" class="edge">
<title>Node16&#45;&gt;Node17</title>
<path fill="none" stroke="midnightblue" d="M1003.7,-61.98C1027.57,-51.9 1067.5,-35.05 1094.87,-23.5"/>
<polygon fill="midnightblue" stroke="midnightblue" points="1096.48,-26.62 1104.34,-19.51 1093.76,-20.17 1096.48,-26.62"/>
</g>
<!-- Node18&#45;&gt;Node8 -->
<g id="edge21" class="edge">
<title>Node18&#45;&gt;Node8</title>
<path fill="none" stroke="midnightblue" d="M736.65,-61.98C677.6,-51.23 576.19,-32.78 512.93,-21.27"/>
<polygon fill="midnightblue" stroke="midnightblue" points="513.2,-17.76 502.74,-19.41 511.95,-24.65 513.2,-17.76"/>
</g>
<!-- Node18&#45;&gt;Node9 -->
<g id="edge22" class="edge">
<title>Node18&#45;&gt;Node9</title>
<path fill="none" stroke="midnightblue" d="M752.41,-61.98C714.22,-51.5 649.33,-33.71 607.2,-22.16"/>
<polygon fill="midnightblue" stroke="midnightblue" points="608.1,-18.78 597.53,-19.51 606.25,-25.53 608.1,-18.78"/>
</g>
<!-- Node18&#45;&gt;Node10 -->
<g id="edge23" class="edge">
<title>Node18&#45;&gt;Node10</title>
<path fill="none" stroke="midnightblue" d="M768.89,-61.98C752.15,-52.21 724.5,-36.08 704.78,-24.58"/>
<polygon fill="midnightblue" stroke="midnightblue" points="706.49,-21.52 696.09,-19.51 702.96,-27.57 706.49,-21.52"/>
</g>
<!-- Node18&#45;&gt;Node15 -->
<g id="edge24" class="edge">
<title>Node18&#45;&gt;Node15</title>
<path fill="none" stroke="midnightblue" d="M814.59,-61.98C852.78,-51.5 917.67,-33.71 959.8,-22.16"/>
<polygon fill="midnightblue" stroke="midnightblue" points="960.75,-25.53 969.47,-19.51 958.9,-18.78 960.75,-25.53"/>
</g>
<!-- Node19 -->
<g id="node19" class="node">
<title>Node19</title>
<g id="a_node19"><a xlink:title=" ">
<polygon fill="none" stroke="#bfbfbf" points="832,-0.5 832,-19.5 911,-19.5 911,-0.5 832,-0.5"/>
<text text-anchor="middle" x="871.5" y="-7.5" font-family="Helvetica,sans-Serif" font-size="10.00">tf2/convert.h</text>
</a>
</g>
</g>
<!-- Node18&#45;&gt;Node19 -->
<g id="edge19" class="edge">
<title>Node18&#45;&gt;Node19</title>
<path fill="none" stroke="midnightblue" d="M796.11,-61.98C810.22,-52.43 833.33,-36.81 850.25,-25.37"/>
<polygon fill="midnightblue" stroke="midnightblue" points="852.59,-28.01 858.92,-19.51 848.67,-22.21 852.59,-28.01"/>
</g>
<!-- Node20 -->
<g id="node20" class="node">
<title>Node20</title>
<g id="a_node20"><a xlink:title=" ">
<polygon fill="none" stroke="#bfbfbf" points="751,-0.5 751,-19.5 814,-19.5 814,-0.5 751,-0.5"/>
<text text-anchor="middle" x="782.5" y="-7.5" font-family="Helvetica,sans-Serif" font-size="10.00">tf2/utils.h</text>
</a>
</g>
</g>
<!-- Node18&#45;&gt;Node20 -->
<g id="edge20" class="edge">
<title>Node18&#45;&gt;Node20</title>
<path fill="none" stroke="midnightblue" d="M783.36,-61.98C783.22,-53.58 783,-40.48 782.81,-29.66"/>
<polygon fill="midnightblue" stroke="midnightblue" points="786.31,-29.45 782.64,-19.51 779.31,-29.57 786.31,-29.45"/>
</g>
</g>
</svg>
