<?xml version="1.0" encoding="UTF-8" standalone="no"?>
<!DOCTYPE svg PUBLIC "-//W3C//DTD SVG 1.1//EN"
 "http://www.w3.org/Graphics/SVG/1.1/DTD/svg11.dtd">
<!-- Generated by graphviz version 2.43.0 (0)
 -->
<!-- Title: /home/runner/work/beluga/beluga/beluga_ros/include/beluga_ros/particle_cloud.hpp Pages: 1 -->
<!--zoomable 184 -->
<svg id="main" version="1.1" xmlns="http://www.w3.org/2000/svg" xmlns:xlink="http://www.w3.org/1999/xlink" xml:space="preserve" onload="init(evt)">
<style type="text/css"><![CDATA[
.edge:hover path { stroke: red; }
.edge:hover polygon { stroke: red; fill: red; }
]]></style>
<script type="text/javascript"><![CDATA[
var edges = document.getElementsByTagName('g');
if (edges && edges.length) {
  for (var i=0;i<edges.length;i++) {
    if (edges[i].id.substr(0,4)=='edge') {
      edges[i].setAttribute('class','edge');
    }
  }
}
]]></script>
        <defs>
                <circle id="rim" cx="0" cy="0" r="7"/>
                <circle id="rim2" cx="0" cy="0" r="3.5"/>
                <g id="zoomPlus">
                        <use xlink:href="#rim" fill="#404040">
                                <set attributeName="fill" to="#808080" begin="zoomplus.mouseover" end="zoomplus.mouseout"/>
                        </use>
                        <path d="M-4,0h8M0,-4v8" fill="none" stroke="white" stroke-width="1.5" pointer-events="none"/>
                </g>
                <g id="zoomMin">
                        <use xlink:href="#rim" fill="#404040">
                                <set attributeName="fill" to="#808080" begin="zoomminus.mouseover" end="zoomminus.mouseout"/>
                        </use>
                        <path d="M-4,0h8" fill="none" stroke="white" stroke-width="1.5" pointer-events="none"/>
                </g>
                <g id="dirArrow">
                        <path fill="none" stroke="white" stroke-width="1.5" d="M0,-3.0v7 M-2.5,-0.5L0,-3.0L2.5,-0.5"/>
                </g>
               <g id="resetDef">
                       <use xlink:href="#rim2" fill="#404040">
                               <set attributeName="fill" to="#808080" begin="reset.mouseover" end="reset.mouseout"/>
                       </use>
               </g>
        </defs>

<script type="text/javascript">
var viewWidth = 1776;
var viewHeight = 184;
var sectionId = 'dynsection-0';
</script>
<script xlink:href="svgpan.js"/>
<svg id="graph" class="graph">
<g id="viewport">
<title>/home/runner/work/beluga/beluga/beluga_ros/include/beluga_ros/particle_cloud.hpp</title>
<!-- Node1 -->
<g id="node1" class="node">
<title>Node1</title>
<g id="a_node1"><a xlink:title="Utilities for particle cloud I/O over ROS interfaces.">
<polygon fill="#bfbfbf" stroke="black" points="634,-134.5 634,-175.5 799,-175.5 799,-134.5 634,-134.5"/>
<text text-anchor="start" x="642" y="-163.5" font-family="Helvetica,sans-Serif" font-size="10.00">/home/runner/work/beluga</text>
<text text-anchor="start" x="642" y="-152.5" font-family="Helvetica,sans-Serif" font-size="10.00">/beluga/beluga_ros/include</text>
<text text-anchor="middle" x="716.5" y="-141.5" font-family="Helvetica,sans-Serif" font-size="10.00">/beluga_ros/particle_cloud.hpp</text>
</a>
</g>
</g>
<!-- Node2 -->
<g id="node2" class="node">
<title>Node2</title>
<g id="a_node2"><a xlink:title=" ">
<polygon fill="none" stroke="#bfbfbf" points="248,-6 248,-25 295,-25 295,-6 248,-6"/>
<text text-anchor="middle" x="271.5" y="-13" font-family="Helvetica,sans-Serif" font-size="10.00">cmath</text>
</a>
</g>
</g>
<!-- Node1&#45;&gt;Node2 -->
<g id="edge1" class="edge">
<title>Node1&#45;&gt;Node2</title>
<path fill="none" stroke="midnightblue" d="M633.93,-146.91C570.9,-139.62 482.73,-125.31 409.5,-98 364.26,-81.13 316.94,-49.68 291.15,-31.17"/>
<polygon fill="midnightblue" stroke="midnightblue" points="293.11,-28.27 282.96,-25.21 288.98,-33.92 293.11,-28.27"/>
</g>
<!-- Node3 -->
<g id="node3" class="node">
<title>Node3</title>
<g id="a_node3"><a xlink:title=" ">
<polygon fill="none" stroke="#bfbfbf" points="664.5,-73 664.5,-92 702.5,-92 702.5,-73 664.5,-73"/>
<text text-anchor="middle" x="683.5" y="-80" font-family="Helvetica,sans-Serif" font-size="10.00">map</text>
</a>
</g>
</g>
<!-- Node1&#45;&gt;Node3 -->
<g id="edge2" class="edge">
<title>Node1&#45;&gt;Node3</title>
<path fill="none" stroke="midnightblue" d="M707.31,-134.36C702.5,-124.08 696.64,-111.58 691.95,-101.54"/>
<polygon fill="midnightblue" stroke="midnightblue" points="694.97,-99.75 687.56,-92.17 688.63,-102.71 694.97,-99.75"/>
</g>
<!-- Node4 -->
<g id="node4" class="node">
<title>Node4</title>
<g id="a_node4"><a xlink:title=" ">
<polygon fill="none" stroke="#bfbfbf" points="720.5,-73 720.5,-92 778.5,-92 778.5,-73 720.5,-73"/>
<text text-anchor="middle" x="749.5" y="-80" font-family="Helvetica,sans-Serif" font-size="10.00">memory</text>
</a>
</g>
</g>
<!-- Node1&#45;&gt;Node4 -->
<g id="edge3" class="edge">
<title>Node1&#45;&gt;Node4</title>
<path fill="none" stroke="midnightblue" d="M725.69,-134.36C730.5,-124.08 736.36,-111.58 741.05,-101.54"/>
<polygon fill="midnightblue" stroke="midnightblue" points="744.37,-102.71 745.44,-92.17 738.03,-99.75 744.37,-102.71"/>
</g>
<!-- Node5 -->
<g id="node5" class="node">
<title>Node5</title>
<g id="a_node5"><a xlink:title=" ">
<polygon fill="none" stroke="#bfbfbf" points="797,-73 797,-92 866,-92 866,-73 797,-73"/>
<text text-anchor="middle" x="831.5" y="-80" font-family="Helvetica,sans-Serif" font-size="10.00">type_traits</text>
</a>
</g>
</g>
<!-- Node1&#45;&gt;Node5 -->
<g id="edge4" class="edge">
<title>Node1&#45;&gt;Node5</title>
<path fill="none" stroke="midnightblue" d="M748.53,-134.36C767.6,-122.67 791.35,-108.12 808.54,-97.57"/>
<polygon fill="midnightblue" stroke="midnightblue" points="810.66,-100.38 817.35,-92.17 807,-94.42 810.66,-100.38"/>
</g>
<!-- Node6 -->
<g id="node6" class="node">
<title>Node6</title>
<g id="a_node6"><a xlink:title=" ">
<polygon fill="none" stroke="#bfbfbf" points="884.5,-73 884.5,-92 1048.5,-92 1048.5,-73 884.5,-73"/>
<text text-anchor="middle" x="966.5" y="-80" font-family="Helvetica,sans-Serif" font-size="10.00">range/v3/range/primitives.hpp</text>
</a>
</g>
</g>
<!-- Node1&#45;&gt;Node6 -->
<g id="edge5" class="edge">
<title>Node1&#45;&gt;Node6</title>
<path fill="none" stroke="midnightblue" d="M785.81,-134.46C831.17,-121.66 888.84,-105.4 926.67,-94.73"/>
<polygon fill="midnightblue" stroke="midnightblue" points="927.64,-98.1 936.31,-92.01 925.74,-91.36 927.64,-98.1"/>
</g>
<!-- Node7 -->
<g id="node7" class="node">
<title>Node7</title>
<g id="a_node7"><a xlink:title=" ">
<polygon fill="none" stroke="#bfbfbf" points="1066.5,-67.5 1066.5,-97.5 1176.5,-97.5 1176.5,-67.5 1066.5,-67.5"/>
<text text-anchor="start" x="1074.5" y="-85.5" font-family="Helvetica,sans-Serif" font-size="10.00">range/v3/view/take</text>
<text text-anchor="middle" x="1121.5" y="-74.5" font-family="Helvetica,sans-Serif" font-size="10.00">_exactly.hpp</text>
</a>
</g>
</g>
<!-- Node1&#45;&gt;Node7 -->
<g id="edge6" class="edge">
<title>Node1&#45;&gt;Node7</title>
<path fill="none" stroke="midnightblue" d="M799.09,-141.86C865.94,-131.7 962.73,-116.26 1056.45,-98.14"/>
<polygon fill="midnightblue" stroke="midnightblue" points="1057.24,-101.55 1066.39,-96.21 1055.9,-94.68 1057.24,-101.55"/>
</g>
<!-- Node8 -->
<g id="node8" class="node">
<title>Node8</title>
<g id="a_node8"><a xlink:title=" ">
<polygon fill="none" stroke="#bfbfbf" points="313.5,-6 313.5,-25 405.5,-25 405.5,-6 313.5,-6"/>
<text text-anchor="middle" x="359.5" y="-13" font-family="Helvetica,sans-Serif" font-size="10.00">sophus/se2.hpp</text>
</a>
</g>
</g>
<!-- Node1&#45;&gt;Node8 -->
<g id="edge7" class="edge">
<title>Node1&#45;&gt;Node8</title>
<path fill="none" stroke="midnightblue" d="M633.93,-145.39C582.69,-137.76 516.55,-123.66 462.5,-98 427.53,-81.4 393.65,-50.98 374.79,-32.37"/>
<polygon fill="midnightblue" stroke="midnightblue" points="377.19,-29.82 367.67,-25.19 372.22,-34.75 377.19,-29.82"/>
</g>
<!-- Node9 -->
<g id="node9" class="node">
<title>Node9</title>
<g id="a_node9"><a xlink:title=" ">
<polygon fill="none" stroke="#bfbfbf" points="423.5,-6 423.5,-25 515.5,-25 515.5,-6 423.5,-6"/>
<text text-anchor="middle" x="469.5" y="-13" font-family="Helvetica,sans-Serif" font-size="10.00">sophus/se3.hpp</text>
</a>
</g>
</g>
<!-- Node1&#45;&gt;Node9 -->
<g id="edge8" class="edge">
<title>Node1&#45;&gt;Node9</title>
<path fill="none" stroke="midnightblue" d="M633.74,-144.35C574.24,-135.64 501.03,-120.67 480.5,-98 465.26,-81.17 464.71,-53.81 466.48,-35.49"/>
<polygon fill="midnightblue" stroke="midnightblue" points="469.97,-35.79 467.77,-25.42 463.02,-34.9 469.97,-35.79"/>
</g>
<!-- Node10 -->
<g id="node10" class="node">
<title>Node10</title>
<g id="a_node10"><a xlink:title=" ">
<polygon fill="none" stroke="#bfbfbf" points="533.5,-6 533.5,-25 635.5,-25 635.5,-6 533.5,-6"/>
<text text-anchor="middle" x="584.5" y="-13" font-family="Helvetica,sans-Serif" font-size="10.00">sophus/types.hpp</text>
</a>
</g>
</g>
<!-- Node1&#45;&gt;Node10 -->
<g id="edge9" class="edge">
<title>Node1&#45;&gt;Node10</title>
<path fill="none" stroke="midnightblue" d="M633.98,-144.25C576.98,-135.62 508.34,-120.8 490.5,-98 482.01,-87.15 483.43,-78.83 490.5,-67 501.56,-48.5 521.98,-36.39 540.97,-28.67"/>
<polygon fill="midnightblue" stroke="midnightblue" points="542.29,-31.92 550.42,-25.13 539.83,-25.36 542.29,-31.92"/>
</g>
<!-- Node11 -->
<g id="node11" class="node">
<title>Node11</title>
<g id="a_node11"><a target="_parent" xlink:href="../../../../../../beluga/docs/_doxygen/generated/reference/html/spatial__hash_8hpp.html.html" xlink:title=" ">
<polygon fill="none" stroke="black" points="1194.5,-67.5 1194.5,-97.5 1330.5,-97.5 1330.5,-67.5 1194.5,-67.5"/>
<text text-anchor="start" x="1202.5" y="-85.5" font-family="Helvetica,sans-Serif" font-size="10.00">beluga/algorithm/spatial</text>
<text text-anchor="middle" x="1262.5" y="-74.5" font-family="Helvetica,sans-Serif" font-size="10.00">_hash.hpp</text>
</a>
</g>
</g>
<!-- Node1&#45;&gt;Node11 -->
<g id="edge10" class="edge">
<title>Node1&#45;&gt;Node11</title>
<path fill="none" stroke="midnightblue" d="M799.33,-145.81C891.02,-136.36 1043.4,-119.52 1184.01,-98.17"/>
<polygon fill="midnightblue" stroke="midnightblue" points="1184.75,-101.6 1194.11,-96.63 1183.69,-94.68 1184.75,-101.6"/>
</g>
<!-- Node12 -->
<g id="node12" class="node">
<title>Node12</title>
<g id="a_node12"><a target="_parent" xlink:href="../../../../../../beluga/docs/_doxygen/generated/reference/html/primitives_8hpp.html.html" xlink:title=" ">
<polygon fill="none" stroke="black" points="1349,-73 1349,-92 1472,-92 1472,-73 1349,-73"/>
<text text-anchor="middle" x="1410.5" y="-80" font-family="Helvetica,sans-Serif" font-size="10.00">beluga/primitives.hpp</text>
</a>
</g>
</g>
<!-- Node1&#45;&gt;Node12 -->
<g id="edge11" class="edge">
<title>Node1&#45;&gt;Node12</title>
<path fill="none" stroke="midnightblue" d="M799.48,-149.5C919.21,-142.34 1147.17,-126.19 1339.5,-98 1347.03,-96.9 1354.97,-95.5 1362.69,-94.02"/>
<polygon fill="midnightblue" stroke="midnightblue" points="1363.56,-97.42 1372.69,-92.04 1362.2,-90.55 1363.56,-97.42"/>
</g>
<!-- Node13 -->
<g id="node13" class="node">
<title>Node13</title>
<g id="a_node13"><a target="_parent" xlink:href="../../../../../../beluga/docs/_doxygen/generated/reference/html/sample_8hpp.html.html" xlink:title=" ">
<polygon fill="none" stroke="black" points="1490,-73 1490,-92 1631,-92 1631,-73 1490,-73"/>
<text text-anchor="middle" x="1560.5" y="-80" font-family="Helvetica,sans-Serif" font-size="10.00">beluga/views/sample.hpp</text>
</a>
</g>
</g>
<!-- Node1&#45;&gt;Node13 -->
<g id="edge12" class="edge">
<title>Node1&#45;&gt;Node13</title>
<path fill="none" stroke="midnightblue" d="M799.15,-150.89C939.76,-144.94 1234.33,-129.64 1481.5,-98 1490.34,-96.87 1499.7,-95.4 1508.76,-93.83"/>
<polygon fill="midnightblue" stroke="midnightblue" points="1509.59,-97.23 1518.81,-92.03 1508.35,-90.34 1509.59,-97.23"/>
</g>
<!-- Node14 -->
<g id="node14" class="node">
<title>Node14</title>
<g id="a_node14"><a target="_parent" xlink:href="../../../../../../beluga/docs/_doxygen/generated/reference/html/zip_8hpp.html.html" xlink:title=" ">
<polygon fill="none" stroke="black" points="1649,-73 1649,-92 1768,-92 1768,-73 1649,-73"/>
<text text-anchor="middle" x="1708.5" y="-80" font-family="Helvetica,sans-Serif" font-size="10.00">beluga/views/zip.hpp</text>
</a>
</g>
</g>
<!-- Node1&#45;&gt;Node14 -->
<g id="edge13" class="edge">
<title>Node1&#45;&gt;Node14</title>
<path fill="none" stroke="midnightblue" d="M799.11,-153.13C961.18,-150.5 1331.97,-140 1640.5,-98 1647.98,-96.98 1655.87,-95.59 1663.52,-94.08"/>
<polygon fill="midnightblue" stroke="midnightblue" points="1664.3,-97.49 1673.38,-92.04 1662.88,-90.64 1664.3,-97.49"/>
</g>
<!-- Node15 -->
<g id="node15" class="node">
<title>Node15</title>
<g id="a_node15"><a xlink:href="messages_8hpp_source.html" target="_top" xlink:title=" ">
<polygon fill="none" stroke="black" points="87,-6 87,-25 230,-25 230,-6 87,-6"/>
<text text-anchor="middle" x="158.5" y="-13" font-family="Helvetica,sans-Serif" font-size="10.00">beluga_ros/messages.hpp</text>
</a>
</g>
</g>
<!-- Node1&#45;&gt;Node15 -->
<g id="edge14" class="edge">
<title>Node1&#45;&gt;Node15</title>
<path fill="none" stroke="midnightblue" d="M633.79,-148.02C557.09,-140.98 440.38,-126.44 342.5,-98 283.01,-80.71 217.65,-48.27 183.1,-29.96"/>
<polygon fill="midnightblue" stroke="midnightblue" points="184.66,-26.83 174.2,-25.2 181.36,-33 184.66,-26.83"/>
</g>
<!-- Node16 -->
<g id="node16" class="node">
<title>Node16</title>
<g id="a_node16"><a xlink:href="tf2__eigen_8hpp.html" target="_top" xlink:title="Message conversion API overloads for Eigen types.">
<polygon fill="none" stroke="black" points="88.5,-73 88.5,-92 228.5,-92 228.5,-73 88.5,-73"/>
<text text-anchor="middle" x="158.5" y="-80" font-family="Helvetica,sans-Serif" font-size="10.00">beluga_ros/tf2_eigen.hpp</text>
</a>
</g>
</g>
<!-- Node1&#45;&gt;Node16 -->
<g id="edge15" class="edge">
<title>Node1&#45;&gt;Node16</title>
<path fill="none" stroke="midnightblue" d="M633.83,-144.26C542.62,-133.42 391.5,-115.15 261.5,-98 250.67,-96.57 239.21,-95.01 228.02,-93.45"/>
<polygon fill="midnightblue" stroke="midnightblue" points="228.23,-89.95 217.84,-92.03 227.26,-96.88 228.23,-89.95"/>
</g>
<!-- Node18 -->
<g id="node18" class="node">
<title>Node18</title>
<g id="a_node18"><a xlink:href="tf2__sophus_8hpp.html" target="_top" xlink:title="Message conversion API overloads for Sophus types.">
<polygon fill="none" stroke="black" points="499,-73 499,-92 646,-92 646,-73 499,-73"/>
<text text-anchor="middle" x="572.5" y="-80" font-family="Helvetica,sans-Serif" font-size="10.00">beluga_ros/tf2_sophus.hpp</text>
</a>
</g>
</g>
<!-- Node1&#45;&gt;Node18 -->
<g id="edge18" class="edge">
<title>Node1&#45;&gt;Node18</title>
<path fill="none" stroke="midnightblue" d="M676.39,-134.36C651.85,-122.35 621.12,-107.3 599.47,-96.7"/>
<polygon fill="midnightblue" stroke="midnightblue" points="600.74,-93.43 590.22,-92.17 597.66,-99.71 600.74,-93.43"/>
</g>
<!-- Node16&#45;&gt;Node15 -->
<g id="edge16" class="edge">
<title>Node16&#45;&gt;Node15</title>
<path fill="none" stroke="midnightblue" d="M158.5,-72.73C158.5,-63.18 158.5,-47.62 158.5,-35.28"/>
<polygon fill="midnightblue" stroke="midnightblue" points="162,-35.13 158.5,-25.13 155,-35.13 162,-35.13"/>
</g>
<!-- Node17 -->
<g id="node17" class="node">
<title>Node17</title>
<g id="a_node17"><a xlink:title=" ">
<polygon fill="none" stroke="#bfbfbf" points="0,-6 0,-25 69,-25 69,-6 0,-6"/>
<text text-anchor="middle" x="34.5" y="-13" font-family="Helvetica,sans-Serif" font-size="10.00">Eigen/Core</text>
</a>
</g>
</g>
<!-- Node16&#45;&gt;Node17 -->
<g id="edge17" class="edge">
<title>Node16&#45;&gt;Node17</title>
<path fill="none" stroke="midnightblue" d="M142.03,-72.87C121.1,-61.89 84.72,-42.82 60.14,-29.94"/>
<polygon fill="midnightblue" stroke="midnightblue" points="61.52,-26.71 51.03,-25.17 58.27,-32.91 61.52,-26.71"/>
</g>
<!-- Node18&#45;&gt;Node2 -->
<g id="edge23" class="edge">
<title>Node18&#45;&gt;Node2</title>
<path fill="none" stroke="midnightblue" d="M504,-72.98C449.22,-65.13 370.88,-51.54 304.5,-31 302.57,-30.4 300.61,-29.73 298.64,-29"/>
<polygon fill="midnightblue" stroke="midnightblue" points="299.61,-25.62 289.03,-25.09 296.97,-32.1 299.61,-25.62"/>
</g>
<!-- Node18&#45;&gt;Node8 -->
<g id="edge25" class="edge">
<title>Node18&#45;&gt;Node8</title>
<path fill="none" stroke="midnightblue" d="M544.22,-72.87C506.39,-61.33 439.25,-40.84 397.17,-28"/>
<polygon fill="midnightblue" stroke="midnightblue" points="398.15,-24.63 387.56,-25.06 396.11,-31.33 398.15,-24.63"/>
</g>
<!-- Node18&#45;&gt;Node9 -->
<g id="edge26" class="edge">
<title>Node18&#45;&gt;Node9</title>
<path fill="none" stroke="midnightblue" d="M558.61,-72.73C541.47,-61.92 512.1,-43.38 491.79,-30.57"/>
<polygon fill="midnightblue" stroke="midnightblue" points="493.5,-27.5 483.17,-25.13 489.76,-33.42 493.5,-27.5"/>
</g>
<!-- Node18&#45;&gt;Node10 -->
<g id="edge27" class="edge">
<title>Node18&#45;&gt;Node10</title>
<path fill="none" stroke="midnightblue" d="M574.12,-72.73C575.88,-63.18 578.76,-47.62 581.03,-35.28"/>
<polygon fill="midnightblue" stroke="midnightblue" points="584.53,-35.6 582.91,-25.13 577.65,-34.33 584.53,-35.6"/>
</g>
<!-- Node18&#45;&gt;Node15 -->
<g id="edge28" class="edge">
<title>Node18&#45;&gt;Node15</title>
<path fill="none" stroke="midnightblue" d="M513.17,-72.99C446.52,-63.31 335.12,-46.81 239.5,-31 231.58,-29.69 223.24,-28.26 215.04,-26.82"/>
<polygon fill="midnightblue" stroke="midnightblue" points="215.61,-23.37 205.15,-25.07 214.39,-30.26 215.61,-23.37"/>
</g>
<!-- Node19 -->
<g id="node19" class="node">
<title>Node19</title>
<g id="a_node19"><a xlink:title=" ">
<polygon fill="none" stroke="#bfbfbf" points="978,-6 978,-25 1057,-25 1057,-6 978,-6"/>
<text text-anchor="middle" x="1017.5" y="-13" font-family="Helvetica,sans-Serif" font-size="10.00">tf2/convert.h</text>
</a>
</g>
</g>
<!-- Node18&#45;&gt;Node19 -->
<g id="edge19" class="edge">
<title>Node18&#45;&gt;Node19</title>
<path fill="none" stroke="midnightblue" d="M618.52,-72.97C630.53,-70.87 643.48,-68.74 655.5,-67 794.08,-46.94 831.29,-58.97 968.5,-31 972.92,-30.1 977.52,-28.98 982.05,-27.77"/>
<polygon fill="midnightblue" stroke="midnightblue" points="983.1,-31.11 991.77,-25.02 981.2,-24.38 983.1,-31.11"/>
</g>
<!-- Node20 -->
<g id="node20" class="node">
<title>Node20</title>
<g id="a_node20"><a xlink:title=" ">
<polygon fill="none" stroke="#bfbfbf" points="1075,-6 1075,-25 1138,-25 1138,-6 1075,-6"/>
<text text-anchor="middle" x="1106.5" y="-13" font-family="Helvetica,sans-Serif" font-size="10.00">tf2/utils.h</text>
</a>
</g>
</g>
<!-- Node18&#45;&gt;Node20 -->
<g id="edge20" class="edge">
<title>Node18&#45;&gt;Node20</title>
<path fill="none" stroke="midnightblue" d="M617.19,-72.97C629.57,-70.8 643.03,-68.63 655.5,-67 837.31,-43.2 887.46,-70.58 1066.5,-31 1069.75,-30.28 1073.09,-29.37 1076.39,-28.35"/>
<polygon fill="midnightblue" stroke="midnightblue" points="1077.7,-31.6 1086.04,-25.07 1075.45,-24.97 1077.7,-31.6"/>
</g>
<!-- Node21 -->
<g id="node21" class="node">
<title>Node21</title>
<g id="a_node21"><a xlink:title=" ">
<polygon fill="none" stroke="#bfbfbf" points="1156,-0.5 1156,-30.5 1309,-30.5 1309,-0.5 1156,-0.5"/>
<text text-anchor="start" x="1164" y="-18.5" font-family="Helvetica,sans-Serif" font-size="10.00">beluga/algorithm/unscented</text>
<text text-anchor="middle" x="1232.5" y="-7.5" font-family="Helvetica,sans-Serif" font-size="10.00">_transform.hpp</text>
</a>
</g>
</g>
<!-- Node18&#45;&gt;Node21 -->
<g id="edge21" class="edge">
<title>Node18&#45;&gt;Node21</title>
<path fill="none" stroke="midnightblue" d="M616.74,-72.93C629.24,-70.74 642.87,-68.56 655.5,-67 869.8,-40.51 928.1,-56.95 1145.5,-31.17"/>
<polygon fill="midnightblue" stroke="midnightblue" points="1146.13,-34.62 1155.64,-29.95 1145.29,-27.67 1146.13,-34.62"/>
</g>
<!-- Node22 -->
<g id="node22" class="node">
<title>Node22</title>
<g id="a_node22"><a xlink:title=" ">
<polygon fill="none" stroke="#bfbfbf" points="654,-6 654,-25 823,-25 823,-6 654,-6"/>
<text text-anchor="middle" x="738.5" y="-13" font-family="Helvetica,sans-Serif" font-size="10.00">beluga/eigen_compatibility.hpp</text>
</a>
</g>
</g>
<!-- Node18&#45;&gt;Node22 -->
<g id="edge22" class="edge">
<title>Node18&#45;&gt;Node22</title>
<path fill="none" stroke="midnightblue" d="M594.54,-72.87C623.4,-61.57 674.15,-41.7 707.04,-28.82"/>
<polygon fill="midnightblue" stroke="midnightblue" points="708.59,-31.97 716.63,-25.06 706.04,-25.45 708.59,-31.97"/>
</g>
<!-- Node23 -->
<g id="node23" class="node">
<title>Node23</title>
<g id="a_node23"><a xlink:title=" ">
<polygon fill="none" stroke="#bfbfbf" points="841.5,-6 841.5,-25 959.5,-25 959.5,-6 841.5,-6"/>
<text text-anchor="middle" x="900.5" y="-13" font-family="Helvetica,sans-Serif" font-size="10.00">sophus/common.hpp</text>
</a>
</g>
</g>
<!-- Node18&#45;&gt;Node23 -->
<g id="edge24" class="edge">
<title>Node18&#45;&gt;Node23</title>
<path fill="none" stroke="midnightblue" d="M617.64,-72.99C669.54,-63.15 757.25,-46.33 832.5,-31 838.41,-29.8 844.6,-28.51 850.75,-27.22"/>
<polygon fill="midnightblue" stroke="midnightblue" points="851.91,-30.55 860.97,-25.06 850.46,-23.7 851.91,-30.55"/>
</g>
</g>
</svg>
        <g id="navigator" transform="translate(0 0)" fill="#404254">
                <rect fill="#f2f5e9" fill-opacity="0.5" stroke="#606060" stroke-width=".5" x="0" y="0" width="60" height="60"/>
                <use id="zoomplus" xlink:href="#zoomPlus" x="17" y="9" onmousedown="handleZoom(evt,'in')"/>
                <use id="zoomminus" xlink:href="#zoomMin" x="42" y="9" onmousedown="handleZoom(evt,'out')"/>
                <use id="reset" xlink:href="#resetDef" x="30" y="36" onmousedown="handleReset()"/>
                <g id="arrowUp" xlink:href="#dirArrow" transform="translate(30 24)" onmousedown="handlePan(0,-1)">
                  <use xlink:href="#rim" fill="#404040">
                        <set attributeName="fill" to="#808080" begin="arrowUp.mouseover" end="arrowUp.mouseout"/>
                  </use>
                  <path fill="none" stroke="white" stroke-width="1.5" d="M0,-3.0v7 M-2.5,-0.5L0,-3.0L2.5,-0.5"/>
                </g>
                <g id="arrowRight" xlink:href="#dirArrow" transform="rotate(90) translate(36 -43)" onmousedown="handlePan(1,0)">
                  <use xlink:href="#rim" fill="#404040">
                        <set attributeName="fill" to="#808080" begin="arrowRight.mouseover" end="arrowRight.mouseout"/>
                  </use>
                  <path fill="none" stroke="white" stroke-width="1.5" d="M0,-3.0v7 M-2.5,-0.5L0,-3.0L2.5,-0.5"/>
                </g>
                <g id="arrowDown" xlink:href="#dirArrow" transform="rotate(180) translate(-30 -48)" onmousedown="handlePan(0,1)">
                  <use xlink:href="#rim" fill="#404040">
                        <set attributeName="fill" to="#808080" begin="arrowDown.mouseover" end="arrowDown.mouseout"/>
                  </use>
                  <path fill="none" stroke="white" stroke-width="1.5" d="M0,-3.0v7 M-2.5,-0.5L0,-3.0L2.5,-0.5"/>
                </g>
                <g id="arrowLeft" xlink:href="#dirArrow" transform="rotate(270) translate(-36 17)" onmousedown="handlePan(-1,0)">
                  <use xlink:href="#rim" fill="#404040">
                        <set attributeName="fill" to="#808080" begin="arrowLeft.mouseover" end="arrowLeft.mouseout"/>
                  </use>
                  <path fill="none" stroke="white" stroke-width="1.5" d="M0,-3.0v7 M-2.5,-0.5L0,-3.0L2.5,-0.5"/>
                </g>
        </g>
        <svg viewBox="0 0 15 15" width="100%" height="30px" preserveAspectRatio="xMaxYMin meet">
         <g id="arrow_out" transform="scale(0.3 0.3)">
          <a xlink:href="particle__cloud_8hpp__incl_org.svg" target="_base">
           <rect id="button" ry="5" rx="5" y="6" x="6" height="38" width="38"
                fill="#f2f5e9" fill-opacity="0.5" stroke="#606060" stroke-width="1.0"/>
           <path id="arrow"
             d="M 11.500037,31.436501 C 11.940474,20.09759 22.043105,11.32322 32.158766,21.979434 L 37.068811,17.246167 C 37.068811,17.246167 37.088388,32 37.088388,32 L 22.160133,31.978069 C 22.160133,31.978069 26.997745,27.140456 26.997745,27.140456 C 18.528582,18.264221 13.291696,25.230495 11.500037,31.436501 z"
             style="fill:#404040;"/>
          </a>
         </g>
        </svg>
</svg>
