<?xml version="1.0" encoding="UTF-8" standalone="no"?>
<!DOCTYPE svg PUBLIC "-//W3C//DTD SVG 1.1//EN"
 "http://www.w3.org/Graphics/SVG/1.1/DTD/svg11.dtd">
<!-- Generated by graphviz version 2.43.0 (0)
 -->
<!-- Title: /home/runner/work/beluga/beluga/beluga_ros/include/beluga_ros/point_cloud.hpp Pages: 1 -->
<svg width="1466pt" height="184pt"
 viewBox="0.00 0.00 1466.00 184.00" xmlns="http://www.w3.org/2000/svg" xmlns:xlink="http://www.w3.org/1999/xlink">
<g id="graph0" class="graph" transform="scale(1 1) rotate(0) translate(4 180)">
<title>/home/runner/work/beluga/beluga/beluga_ros/include/beluga_ros/point_cloud.hpp</title>
<!-- Node1 -->
<g id="node1" class="node">
<title>Node1</title>
<g id="a_node1"><a xlink:title="Implementation of sensor_msgs/PointCloud2 wrapper type for messages with memory&#45;aligned strides.">
<polygon fill="#bfbfbf" stroke="black" points="637.5,-134.5 637.5,-175.5 790.5,-175.5 790.5,-134.5 637.5,-134.5"/>
<text text-anchor="start" x="645.5" y="-163.5" font-family="Helvetica,sans-Serif" font-size="10.00">/home/runner/work/beluga</text>
<text text-anchor="start" x="645.5" y="-152.5" font-family="Helvetica,sans-Serif" font-size="10.00">/beluga/beluga_ros/include</text>
<text text-anchor="middle" x="714" y="-141.5" font-family="Helvetica,sans-Serif" font-size="10.00">/beluga_ros/point_cloud.hpp</text>
</a>
</g>
</g>
<!-- Node2 -->
<g id="node2" class="node">
<title>Node2</title>
<g id="a_node2"><a xlink:title=" ">
<polygon fill="none" stroke="#bfbfbf" points="0,-73 0,-92 128,-92 128,-73 0,-73"/>
<text text-anchor="middle" x="64" y="-80" font-family="Helvetica,sans-Serif" font-size="10.00">range/v3/view/iota.hpp</text>
</a>
</g>
</g>
<!-- Node1&#45;&gt;Node2 -->
<g id="edge1" class="edge">
<title>Node1&#45;&gt;Node2</title>
<path fill="none" stroke="midnightblue" d="M637.17,-148.98C526.31,-141.19 315.23,-124.28 137,-98 129.27,-96.86 121.12,-95.45 113.18,-93.96"/>
<polygon fill="midnightblue" stroke="midnightblue" points="113.76,-90.51 103.28,-92.05 112.43,-97.38 113.76,-90.51"/>
</g>
<!-- Node3 -->
<g id="node3" class="node">
<title>Node3</title>
<g id="a_node3"><a target="_parent" xlink:href="../../../../../../beluga/docs/_doxygen/generated/reference/html/point__cloud_8hpp.html.html" xlink:title=" ">
<polygon fill="none" stroke="black" points="146,-67.5 146,-97.5 256,-97.5 256,-67.5 146,-67.5"/>
<text text-anchor="start" x="154" y="-85.5" font-family="Helvetica,sans-Serif" font-size="10.00">beluga/sensor/data</text>
<text text-anchor="middle" x="201" y="-74.5" font-family="Helvetica,sans-Serif" font-size="10.00">/point_cloud.hpp</text>
</a>
</g>
</g>
<!-- Node1&#45;&gt;Node3 -->
<g id="edge2" class="edge">
<title>Node1&#45;&gt;Node3</title>
<path fill="none" stroke="midnightblue" d="M637.39,-146.77C549.93,-137.99 402.41,-121.6 266.29,-98.12"/>
<polygon fill="midnightblue" stroke="midnightblue" points="266.54,-94.61 256.09,-96.34 265.34,-101.51 266.54,-94.61"/>
</g>
<!-- Node4 -->
<g id="node4" class="node">
<title>Node4</title>
<g id="a_node4"><a target="_parent" xlink:href="../../../../../../beluga/docs/_doxygen/generated/reference/html/take__evenly_8hpp.html.html" xlink:title=" ">
<polygon fill="none" stroke="black" points="274.5,-73 274.5,-92 437.5,-92 437.5,-73 274.5,-73"/>
<text text-anchor="middle" x="356" y="-80" font-family="Helvetica,sans-Serif" font-size="10.00">beluga/views/take_evenly.hpp</text>
</a>
</g>
</g>
<!-- Node1&#45;&gt;Node4 -->
<g id="edge3" class="edge">
<title>Node1&#45;&gt;Node4</title>
<path fill="none" stroke="midnightblue" d="M637.2,-138.88C568.64,-125.37 470,-105.95 409.61,-94.06"/>
<polygon fill="midnightblue" stroke="midnightblue" points="410.02,-90.57 399.53,-92.07 408.67,-97.44 410.02,-90.57"/>
</g>
<!-- Node5 -->
<g id="node5" class="node">
<title>Node5</title>
<g id="a_node5"><a xlink:href="messages_8hpp_source.html" target="_top" xlink:title=" ">
<polygon fill="none" stroke="black" points="455.5,-73 455.5,-92 598.5,-92 598.5,-73 455.5,-73"/>
<text text-anchor="middle" x="527" y="-80" font-family="Helvetica,sans-Serif" font-size="10.00">beluga_ros/messages.hpp</text>
</a>
</g>
</g>
<!-- Node1&#45;&gt;Node5 -->
<g id="edge4" class="edge">
<title>Node1&#45;&gt;Node5</title>
<path fill="none" stroke="midnightblue" d="M661.91,-134.36C629.04,-121.97 587.62,-106.35 559.4,-95.72"/>
<polygon fill="midnightblue" stroke="midnightblue" points="560.6,-92.43 550.01,-92.17 558.13,-98.98 560.6,-92.43"/>
</g>
<!-- Node8 -->
<g id="node8" class="node">
<title>Node8</title>
<g id="a_node8"><a xlink:title=" ">
<polygon fill="none" stroke="#bfbfbf" points="617,-73 617,-92 709,-92 709,-73 617,-73"/>
<text text-anchor="middle" x="663" y="-80" font-family="Helvetica,sans-Serif" font-size="10.00">sophus/se3.hpp</text>
</a>
</g>
</g>
<!-- Node1&#45;&gt;Node8 -->
<g id="edge7" class="edge">
<title>Node1&#45;&gt;Node8</title>
<path fill="none" stroke="midnightblue" d="M699.79,-134.36C692.04,-123.65 682.55,-110.52 675.15,-100.29"/>
<polygon fill="midnightblue" stroke="midnightblue" points="677.97,-98.22 669.27,-92.17 672.3,-102.33 677.97,-98.22"/>
</g>
<!-- Node9 -->
<g id="node9" class="node">
<title>Node9</title>
<g id="a_node9"><a xlink:title=" ">
<polygon fill="none" stroke="#bfbfbf" points="727.5,-73 727.5,-92 804.5,-92 804.5,-73 727.5,-73"/>
<text text-anchor="middle" x="766" y="-80" font-family="Helvetica,sans-Serif" font-size="10.00">Eigen/Dense</text>
</a>
</g>
</g>
<!-- Node1&#45;&gt;Node9 -->
<g id="edge8" class="edge">
<title>Node1&#45;&gt;Node9</title>
<path fill="none" stroke="midnightblue" d="M728.48,-134.36C736.39,-123.65 746.07,-110.52 753.62,-100.29"/>
<polygon fill="midnightblue" stroke="midnightblue" points="756.48,-102.3 759.6,-92.17 750.85,-98.14 756.48,-102.3"/>
</g>
<!-- Node10 -->
<g id="node10" class="node">
<title>Node10</title>
<g id="a_node10"><a xlink:title=" ">
<polygon fill="none" stroke="#bfbfbf" points="822.5,-73 822.5,-92 991.5,-92 991.5,-73 822.5,-73"/>
<text text-anchor="middle" x="907" y="-80" font-family="Helvetica,sans-Serif" font-size="10.00">beluga/eigen_compatibility.hpp</text>
</a>
</g>
</g>
<!-- Node1&#45;&gt;Node10 -->
<g id="edge9" class="edge">
<title>Node1&#45;&gt;Node10</title>
<path fill="none" stroke="midnightblue" d="M767.5,-134.46C801.63,-121.99 844.78,-106.23 873.98,-95.56"/>
<polygon fill="midnightblue" stroke="midnightblue" points="875.5,-98.73 883.69,-92.01 873.1,-92.16 875.5,-98.73"/>
</g>
<!-- Node11 -->
<g id="node11" class="node">
<title>Node11</title>
<g id="a_node11"><a xlink:title=" ">
<polygon fill="none" stroke="#bfbfbf" points="1010,-67.5 1010,-97.5 1142,-97.5 1142,-67.5 1010,-67.5"/>
<text text-anchor="start" x="1018" y="-85.5" font-family="Helvetica,sans-Serif" font-size="10.00">sensor_msgs/msg/point</text>
<text text-anchor="middle" x="1076" y="-74.5" font-family="Helvetica,sans-Serif" font-size="10.00">_cloud2.hpp</text>
</a>
</g>
</g>
<!-- Node1&#45;&gt;Node11 -->
<g id="edge10" class="edge">
<title>Node1&#45;&gt;Node11</title>
<path fill="none" stroke="midnightblue" d="M790.77,-139.05C852.4,-127.05 938.5,-110.28 999.94,-98.31"/>
<polygon fill="midnightblue" stroke="midnightblue" points="1000.82,-101.71 1009.97,-96.36 999.48,-94.84 1000.82,-101.71"/>
</g>
<!-- Node12 -->
<g id="node12" class="node">
<title>Node12</title>
<g id="a_node12"><a xlink:title=" ">
<polygon fill="none" stroke="#bfbfbf" points="1160,-67.5 1160,-97.5 1306,-97.5 1306,-67.5 1160,-67.5"/>
<text text-anchor="start" x="1168" y="-85.5" font-family="Helvetica,sans-Serif" font-size="10.00">sensor_msgs/point_cloud2</text>
<text text-anchor="middle" x="1233" y="-74.5" font-family="Helvetica,sans-Serif" font-size="10.00">_iterator.hpp</text>
</a>
</g>
</g>
<!-- Node1&#45;&gt;Node12 -->
<g id="edge11" class="edge">
<title>Node1&#45;&gt;Node12</title>
<path fill="none" stroke="midnightblue" d="M790.73,-145.29C875.9,-135.36 1017.67,-118.09 1149.43,-98.2"/>
<polygon fill="midnightblue" stroke="midnightblue" points="1150.35,-101.6 1159.71,-96.64 1149.3,-94.68 1150.35,-101.6"/>
</g>
<!-- Node13 -->
<g id="node13" class="node">
<title>Node13</title>
<g id="a_node13"><a xlink:title=" ">
<polygon fill="none" stroke="#bfbfbf" points="1324,-67.5 1324,-97.5 1458,-97.5 1458,-67.5 1324,-67.5"/>
<text text-anchor="start" x="1332" y="-85.5" font-family="Helvetica,sans-Serif" font-size="10.00">sensor_msgs/point_field</text>
<text text-anchor="middle" x="1391" y="-74.5" font-family="Helvetica,sans-Serif" font-size="10.00">_conversion.hpp</text>
</a>
</g>
</g>
<!-- Node1&#45;&gt;Node13 -->
<g id="edge12" class="edge">
<title>Node1&#45;&gt;Node13</title>
<path fill="none" stroke="midnightblue" d="M790.65,-149.21C903.18,-141.67 1119.89,-125.14 1313.83,-98.08"/>
<polygon fill="midnightblue" stroke="midnightblue" points="1314.51,-101.52 1323.92,-96.66 1313.53,-94.59 1314.51,-101.52"/>
</g>
<!-- Node6 -->
<g id="node6" class="node">
<title>Node6</title>
<g id="a_node6"><a xlink:title=" ">
<polygon fill="none" stroke="#bfbfbf" points="399,-0.5 399,-30.5 527,-30.5 527,-0.5 399,-0.5"/>
<text text-anchor="start" x="407" y="-18.5" font-family="Helvetica,sans-Serif" font-size="10.00">visualization_msgs</text>
<text text-anchor="middle" x="463" y="-7.5" font-family="Helvetica,sans-Serif" font-size="10.00">/msg/marker_array.hpp</text>
</a>
</g>
</g>
<!-- Node5&#45;&gt;Node6 -->
<g id="edge5" class="edge">
<title>Node5&#45;&gt;Node6</title>
<path fill="none" stroke="midnightblue" d="M518.37,-72.73C509.64,-63.86 495.8,-49.81 484.14,-37.97"/>
<polygon fill="midnightblue" stroke="midnightblue" points="486.38,-35.26 476.87,-30.59 481.39,-40.17 486.38,-35.26"/>
</g>
<!-- Node7 -->
<g id="node7" class="node">
<title>Node7</title>
<g id="a_node7"><a xlink:title=" ">
<polygon fill="none" stroke="#bfbfbf" points="545,-6 545,-25 637,-25 637,-6 545,-6"/>
<text text-anchor="middle" x="591" y="-13" font-family="Helvetica,sans-Serif" font-size="10.00">rclcpp/time.hpp</text>
</a>
</g>
</g>
<!-- Node5&#45;&gt;Node7 -->
<g id="edge6" class="edge">
<title>Node5&#45;&gt;Node7</title>
<path fill="none" stroke="midnightblue" d="M535.63,-72.73C545.8,-62.4 562.9,-45.04 575.41,-32.33"/>
<polygon fill="midnightblue" stroke="midnightblue" points="577.98,-34.71 582.51,-25.13 573,-29.8 577.98,-34.71"/>
</g>
</g>
</svg>
