<?xml version="1.0" encoding="UTF-8" standalone="no"?>
<!DOCTYPE svg PUBLIC "-//W3C//DTD SVG 1.1//EN"
 "http://www.w3.org/Graphics/SVG/1.1/DTD/svg11.dtd">
<!-- Generated by graphviz version 2.43.0 (0)
 -->
<!-- Title: /home/runner/work/beluga/beluga/beluga_ros/include/beluga_ros/point_cloud.hpp Pages: 1 -->
<svg width="1000pt" height="117pt"
 viewBox="0.00 0.00 999.50 117.00" xmlns="http://www.w3.org/2000/svg" xmlns:xlink="http://www.w3.org/1999/xlink">
<g id="graph0" class="graph" transform="scale(1 1) rotate(0) translate(4 113)">
<title>/home/runner/work/beluga/beluga/beluga_ros/include/beluga_ros/point_cloud.hpp</title>
<!-- Node1 -->
<g id="node1" class="node">
<title>Node1</title>
<g id="a_node1"><a xlink:title="Implementation of sensor_msgs/PointCloud2 wrapper type for messages with memory&#45;aligned strides.">
<polygon fill="#bfbfbf" stroke="black" points="450.5,-67.5 450.5,-108.5 603.5,-108.5 603.5,-67.5 450.5,-67.5"/>
<text text-anchor="start" x="458.5" y="-96.5" font-family="Helvetica,sans-Serif" font-size="10.00">/home/runner/work/beluga</text>
<text text-anchor="start" x="458.5" y="-85.5" font-family="Helvetica,sans-Serif" font-size="10.00">/beluga/beluga_ros/include</text>
<text text-anchor="middle" x="527" y="-74.5" font-family="Helvetica,sans-Serif" font-size="10.00">/beluga_ros/point_cloud.hpp</text>
</a>
</g>
</g>
<!-- Node2 -->
<g id="node2" class="node">
<title>Node2</title>
<g id="a_node2"><a xlink:title=" ">
<polygon fill="none" stroke="#bfbfbf" points="0,-6 0,-25 128,-25 128,-6 0,-6"/>
<text text-anchor="middle" x="64" y="-13" font-family="Helvetica,sans-Serif" font-size="10.00">range/v3/view/iota.hpp</text>
</a>
</g>
</g>
<!-- Node1&#45;&gt;Node2 -->
<g id="edge1" class="edge">
<title>Node1&#45;&gt;Node2</title>
<path fill="none" stroke="midnightblue" d="M450.22,-77.21C371.43,-66.87 245.38,-49.53 137,-31 129.82,-29.77 122.26,-28.38 114.84,-26.96"/>
<polygon fill="midnightblue" stroke="midnightblue" points="115.34,-23.49 104.85,-25.02 114,-30.36 115.34,-23.49"/>
</g>
<!-- Node3 -->
<g id="node3" class="node">
<title>Node3</title>
<g id="a_node3"><a target="_parent" xlink:href="../../../../../../beluga/docs/_doxygen/generated/reference/html/point__cloud_8hpp.html.html" xlink:title=" ">
<polygon fill="none" stroke="black" points="146,-0.5 146,-30.5 256,-30.5 256,-0.5 146,-0.5"/>
<text text-anchor="start" x="154" y="-18.5" font-family="Helvetica,sans-Serif" font-size="10.00">beluga/sensor/data</text>
<text text-anchor="middle" x="201" y="-7.5" font-family="Helvetica,sans-Serif" font-size="10.00">/point_cloud.hpp</text>
</a>
</g>
</g>
<!-- Node1&#45;&gt;Node3 -->
<g id="edge2" class="edge">
<title>Node1&#45;&gt;Node3</title>
<path fill="none" stroke="midnightblue" d="M450.42,-70.89C400.6,-60.35 333.94,-46.13 266.16,-31.24"/>
<polygon fill="midnightblue" stroke="midnightblue" points="266.67,-27.77 256.15,-29.04 265.16,-34.61 266.67,-27.77"/>
</g>
<!-- Node4 -->
<g id="node4" class="node">
<title>Node4</title>
<g id="a_node4"><a target="_parent" xlink:href="../../../../../../beluga/docs/_doxygen/generated/reference/html/take__evenly_8hpp.html.html" xlink:title=" ">
<polygon fill="none" stroke="black" points="274.5,-6 274.5,-25 437.5,-25 437.5,-6 274.5,-6"/>
<text text-anchor="middle" x="356" y="-13" font-family="Helvetica,sans-Serif" font-size="10.00">beluga/views/take_evenly.hpp</text>
</a>
</g>
</g>
<!-- Node1&#45;&gt;Node4 -->
<g id="edge3" class="edge">
<title>Node1&#45;&gt;Node4</title>
<path fill="none" stroke="midnightblue" d="M479.37,-67.36C449.57,-55.08 412.09,-39.63 386.31,-28.99"/>
<polygon fill="midnightblue" stroke="midnightblue" points="387.62,-25.75 377.04,-25.17 384.95,-32.22 387.62,-25.75"/>
</g>
<!-- Node5 -->
<g id="node5" class="node">
<title>Node5</title>
<g id="a_node5"><a xlink:href="messages_8hpp_source.html" target="_top" xlink:title=" ">
<polygon fill="none" stroke="black" points="455.5,-6 455.5,-25 598.5,-25 598.5,-6 455.5,-6"/>
<text text-anchor="middle" x="527" y="-13" font-family="Helvetica,sans-Serif" font-size="10.00">beluga_ros/messages.hpp</text>
</a>
</g>
</g>
<!-- Node1&#45;&gt;Node5 -->
<g id="edge4" class="edge">
<title>Node1&#45;&gt;Node5</title>
<path fill="none" stroke="midnightblue" d="M527,-67.36C527,-57.3 527,-45.1 527,-35.18"/>
<polygon fill="midnightblue" stroke="midnightblue" points="530.5,-35.17 527,-25.17 523.5,-35.17 530.5,-35.17"/>
</g>
<!-- Node6 -->
<g id="node6" class="node">
<title>Node6</title>
<g id="a_node6"><a xlink:title=" ">
<polygon fill="none" stroke="#bfbfbf" points="617,-6 617,-25 709,-25 709,-6 617,-6"/>
<text text-anchor="middle" x="663" y="-13" font-family="Helvetica,sans-Serif" font-size="10.00">sophus/se3.hpp</text>
</a>
</g>
</g>
<!-- Node1&#45;&gt;Node6 -->
<g id="edge5" class="edge">
<title>Node1&#45;&gt;Node6</title>
<path fill="none" stroke="midnightblue" d="M564.88,-67.36C587.95,-55.4 616.82,-40.44 637.25,-29.85"/>
<polygon fill="midnightblue" stroke="midnightblue" points="639,-32.88 646.27,-25.17 635.78,-26.67 639,-32.88"/>
</g>
<!-- Node7 -->
<g id="node7" class="node">
<title>Node7</title>
<g id="a_node7"><a xlink:title=" ">
<polygon fill="none" stroke="#bfbfbf" points="727.5,-6 727.5,-25 804.5,-25 804.5,-6 727.5,-6"/>
<text text-anchor="middle" x="766" y="-13" font-family="Helvetica,sans-Serif" font-size="10.00">Eigen/Dense</text>
</a>
</g>
</g>
<!-- Node1&#45;&gt;Node7 -->
<g id="edge6" class="edge">
<title>Node1&#45;&gt;Node7</title>
<path fill="none" stroke="midnightblue" d="M594.22,-67.44C630.84,-56.74 676.93,-43.22 718,-31 721.31,-30.01 724.75,-28.99 728.2,-27.95"/>
<polygon fill="midnightblue" stroke="midnightblue" points="729.27,-31.28 737.84,-25.05 727.25,-24.58 729.27,-31.28"/>
</g>
<!-- Node8 -->
<g id="node8" class="node">
<title>Node8</title>
<g id="a_node8"><a xlink:title=" ">
<polygon fill="none" stroke="#bfbfbf" points="822.5,-6 822.5,-25 991.5,-25 991.5,-6 822.5,-6"/>
<text text-anchor="middle" x="907" y="-13" font-family="Helvetica,sans-Serif" font-size="10.00">beluga/eigen_compatibility.hpp</text>
</a>
</g>
</g>
<!-- Node1&#45;&gt;Node8 -->
<g id="edge7" class="edge">
<title>Node1&#45;&gt;Node8</title>
<path fill="none" stroke="midnightblue" d="M603.9,-72.73C677.08,-59.16 785.46,-39.05 850.85,-26.92"/>
<polygon fill="midnightblue" stroke="midnightblue" points="851.77,-30.31 860.97,-25.04 850.49,-23.42 851.77,-30.31"/>
</g>
</g>
</svg>
