<?xml version="1.0" encoding="UTF-8" standalone="no"?>
<!DOCTYPE svg PUBLIC "-//W3C//DTD SVG 1.1//EN"
 "http://www.w3.org/Graphics/SVG/1.1/DTD/svg11.dtd">
<!-- Generated by graphviz version 2.43.0 (0)
 -->
<!-- Title: /home/runner/work/beluga/beluga/beluga_ros/include/beluga_ros/sparse_point_cloud.hpp Pages: 1 -->
<svg width="1502pt" height="117pt"
 viewBox="0.00 0.00 1501.50 117.00" xmlns="http://www.w3.org/2000/svg" xmlns:xlink="http://www.w3.org/1999/xlink">
<g id="graph0" class="graph" transform="scale(1 1) rotate(0) translate(4 113)">
<title>/home/runner/work/beluga/beluga/beluga_ros/include/beluga_ros/sparse_point_cloud.hpp</title>
<!-- Node1 -->
<g id="node1" class="node">
<title>Node1</title>
<g id="a_node1"><a xlink:title="Implementation of sensor_msgs/PointCloud2 wrapper type for messages without alignment constraints on ...">
<polygon fill="#bfbfbf" stroke="black" points="678,-67.5 678,-108.5 869,-108.5 869,-67.5 678,-67.5"/>
<text text-anchor="start" x="686" y="-96.5" font-family="Helvetica,sans-Serif" font-size="10.00">/home/runner/work/beluga</text>
<text text-anchor="start" x="686" y="-85.5" font-family="Helvetica,sans-Serif" font-size="10.00">/beluga/beluga_ros/include</text>
<text text-anchor="middle" x="773.5" y="-74.5" font-family="Helvetica,sans-Serif" font-size="10.00">/beluga_ros/sparse_point_cloud.hpp</text>
</a>
</g>
</g>
<!-- Node2 -->
<g id="node2" class="node">
<title>Node2</title>
<g id="a_node2"><a xlink:title=" ">
<polygon fill="none" stroke="#bfbfbf" points="0,-6 0,-25 77,-25 77,-6 0,-6"/>
<text text-anchor="middle" x="38.5" y="-13" font-family="Helvetica,sans-Serif" font-size="10.00">Eigen/Dense</text>
</a>
</g>
</g>
<!-- Node1&#45;&gt;Node2 -->
<g id="edge1" class="edge">
<title>Node1&#45;&gt;Node2</title>
<path fill="none" stroke="midnightblue" d="M677.74,-85.77C544,-82.57 294.23,-71.19 85.5,-31 81.26,-30.18 76.85,-29.12 72.52,-27.94"/>
<polygon fill="midnightblue" stroke="midnightblue" points="73.22,-24.5 62.64,-25.05 71.25,-31.22 73.22,-24.5"/>
</g>
<!-- Node3 -->
<g id="node3" class="node">
<title>Node3</title>
<g id="a_node3"><a xlink:title=" ">
<polygon fill="none" stroke="#bfbfbf" points="95,-6 95,-25 264,-25 264,-6 95,-6"/>
<text text-anchor="middle" x="179.5" y="-13" font-family="Helvetica,sans-Serif" font-size="10.00">beluga/eigen_compatibility.hpp</text>
</a>
</g>
</g>
<!-- Node1&#45;&gt;Node3 -->
<g id="edge2" class="edge">
<title>Node1&#45;&gt;Node3</title>
<path fill="none" stroke="midnightblue" d="M677.97,-77.49C577.24,-67.19 413.98,-49.69 273.5,-31 263.33,-29.65 252.56,-28.1 242.07,-26.52"/>
<polygon fill="midnightblue" stroke="midnightblue" points="242.56,-23.06 232.14,-25.01 241.5,-29.98 242.56,-23.06"/>
</g>
<!-- Node4 -->
<g id="node4" class="node">
<title>Node4</title>
<g id="a_node4"><a target="_parent" xlink:href="../../../../../../beluga/docs/_doxygen/generated/reference/html/sparse__point__cloud_8hpp.html.html" xlink:title=" ">
<polygon fill="none" stroke="black" points="282.5,-0.5 282.5,-30.5 416.5,-30.5 416.5,-0.5 282.5,-0.5"/>
<text text-anchor="start" x="290.5" y="-18.5" font-family="Helvetica,sans-Serif" font-size="10.00">beluga/sensor/data</text>
<text text-anchor="middle" x="349.5" y="-7.5" font-family="Helvetica,sans-Serif" font-size="10.00">/sparse_point_cloud.hpp</text>
</a>
</g>
</g>
<!-- Node1&#45;&gt;Node4 -->
<g id="edge3" class="edge">
<title>Node1&#45;&gt;Node4</title>
<path fill="none" stroke="midnightblue" d="M677.73,-72.35C610.22,-61.85 517.43,-47.05 426.54,-31.16"/>
<polygon fill="midnightblue" stroke="midnightblue" points="427.07,-27.7 416.62,-29.41 425.86,-34.59 427.07,-27.7"/>
</g>
<!-- Node5 -->
<g id="node5" class="node">
<title>Node5</title>
<g id="a_node5"><a target="_parent" xlink:href="../../../../../../beluga/docs/_doxygen/generated/reference/html/take__evenly_8hpp.html.html" xlink:title=" ">
<polygon fill="none" stroke="black" points="435,-6 435,-25 598,-25 598,-6 435,-6"/>
<text text-anchor="middle" x="516.5" y="-13" font-family="Helvetica,sans-Serif" font-size="10.00">beluga/views/take_evenly.hpp</text>
</a>
</g>
</g>
<!-- Node1&#45;&gt;Node5 -->
<g id="edge4" class="edge">
<title>Node1&#45;&gt;Node5</title>
<path fill="none" stroke="midnightblue" d="M702.25,-67.46C655.62,-54.66 596.33,-38.4 557.45,-27.73"/>
<polygon fill="midnightblue" stroke="midnightblue" points="558.1,-24.28 547.53,-25.01 556.25,-31.03 558.1,-24.28"/>
</g>
<!-- Node6 -->
<g id="node6" class="node">
<title>Node6</title>
<g id="a_node6"><a xlink:title=" ">
<polygon fill="none" stroke="#bfbfbf" points="616,-6 616,-25 771,-25 771,-6 616,-6"/>
<text text-anchor="middle" x="693.5" y="-13" font-family="Helvetica,sans-Serif" font-size="10.00">range/v3/view/any_view.hpp</text>
</a>
</g>
</g>
<!-- Node1&#45;&gt;Node6 -->
<g id="edge5" class="edge">
<title>Node1&#45;&gt;Node6</title>
<path fill="none" stroke="midnightblue" d="M751.22,-67.36C738.57,-56.21 722.96,-42.46 711.16,-32.06"/>
<polygon fill="midnightblue" stroke="midnightblue" points="713.16,-29.16 703.34,-25.17 708.53,-34.41 713.16,-29.16"/>
</g>
<!-- Node7 -->
<g id="node7" class="node">
<title>Node7</title>
<g id="a_node7"><a xlink:title=" ">
<polygon fill="none" stroke="#bfbfbf" points="789.5,-6 789.5,-25 917.5,-25 917.5,-6 789.5,-6"/>
<text text-anchor="middle" x="853.5" y="-13" font-family="Helvetica,sans-Serif" font-size="10.00">range/v3/view/iota.hpp</text>
</a>
</g>
</g>
<!-- Node1&#45;&gt;Node7 -->
<g id="edge6" class="edge">
<title>Node1&#45;&gt;Node7</title>
<path fill="none" stroke="midnightblue" d="M795.78,-67.36C808.43,-56.21 824.04,-42.46 835.84,-32.06"/>
<polygon fill="midnightblue" stroke="midnightblue" points="838.47,-34.41 843.66,-25.17 833.84,-29.16 838.47,-34.41"/>
</g>
<!-- Node8 -->
<g id="node8" class="node">
<title>Node8</title>
<g id="a_node8"><a xlink:title=" ">
<polygon fill="none" stroke="#bfbfbf" points="935.5,-6 935.5,-25 1027.5,-25 1027.5,-6 935.5,-6"/>
<text text-anchor="middle" x="981.5" y="-13" font-family="Helvetica,sans-Serif" font-size="10.00">sophus/se3.hpp</text>
</a>
</g>
</g>
<!-- Node1&#45;&gt;Node8 -->
<g id="edge7" class="edge">
<title>Node1&#45;&gt;Node8</title>
<path fill="none" stroke="midnightblue" d="M831.16,-67.46C868.27,-54.88 915.26,-38.95 946.74,-28.28"/>
<polygon fill="midnightblue" stroke="midnightblue" points="948.04,-31.54 956.38,-25.01 945.79,-24.91 948.04,-31.54"/>
</g>
<!-- Node9 -->
<g id="node9" class="node">
<title>Node9</title>
<g id="a_node9"><a xlink:title=" ">
<polygon fill="none" stroke="#bfbfbf" points="1045.5,-0.5 1045.5,-30.5 1177.5,-30.5 1177.5,-0.5 1045.5,-0.5"/>
<text text-anchor="start" x="1053.5" y="-18.5" font-family="Helvetica,sans-Serif" font-size="10.00">sensor_msgs/msg/point</text>
<text text-anchor="middle" x="1111.5" y="-7.5" font-family="Helvetica,sans-Serif" font-size="10.00">_cloud2.hpp</text>
</a>
</g>
</g>
<!-- Node1&#45;&gt;Node9 -->
<g id="edge8" class="edge">
<title>Node1&#45;&gt;Node9</title>
<path fill="none" stroke="midnightblue" d="M867.2,-67.46C920.21,-56.4 985.64,-42.75 1035.44,-32.37"/>
<polygon fill="midnightblue" stroke="midnightblue" points="1036.42,-35.73 1045.5,-30.27 1034.99,-28.88 1036.42,-35.73"/>
</g>
<!-- Node10 -->
<g id="node10" class="node">
<title>Node10</title>
<g id="a_node10"><a xlink:title=" ">
<polygon fill="none" stroke="#bfbfbf" points="1195.5,-0.5 1195.5,-30.5 1341.5,-30.5 1341.5,-0.5 1195.5,-0.5"/>
<text text-anchor="start" x="1203.5" y="-18.5" font-family="Helvetica,sans-Serif" font-size="10.00">sensor_msgs/point_cloud2</text>
<text text-anchor="middle" x="1268.5" y="-7.5" font-family="Helvetica,sans-Serif" font-size="10.00">_iterator.hpp</text>
</a>
</g>
</g>
<!-- Node1&#45;&gt;Node10 -->
<g id="edge9" class="edge">
<title>Node1&#45;&gt;Node10</title>
<path fill="none" stroke="midnightblue" d="M869.21,-75.13C950.65,-64.78 1070.97,-48.87 1185.23,-31.16"/>
<polygon fill="midnightblue" stroke="midnightblue" points="1185.86,-34.61 1195.21,-29.61 1184.79,-27.69 1185.86,-34.61"/>
</g>
<!-- Node11 -->
<g id="node11" class="node">
<title>Node11</title>
<g id="a_node11"><a xlink:title=" ">
<polygon fill="none" stroke="#bfbfbf" points="1359.5,-0.5 1359.5,-30.5 1493.5,-30.5 1493.5,-0.5 1359.5,-0.5"/>
<text text-anchor="start" x="1367.5" y="-18.5" font-family="Helvetica,sans-Serif" font-size="10.00">sensor_msgs/point_field</text>
<text text-anchor="middle" x="1426.5" y="-7.5" font-family="Helvetica,sans-Serif" font-size="10.00">_conversion.hpp</text>
</a>
</g>
</g>
<!-- Node1&#45;&gt;Node11 -->
<g id="edge10" class="edge">
<title>Node1&#45;&gt;Node11</title>
<path fill="none" stroke="midnightblue" d="M869.03,-80.43C981.6,-72.07 1174.44,-55.85 1349.51,-31.06"/>
<polygon fill="midnightblue" stroke="midnightblue" points="1350.01,-34.52 1359.42,-29.64 1349.02,-27.59 1350.01,-34.52"/>
</g>
</g>
</svg>
