<?xml version="1.0" encoding="UTF-8" standalone="no"?>
<!DOCTYPE svg PUBLIC "-//W3C//DTD SVG 1.1//EN"
 "http://www.w3.org/Graphics/SVG/1.1/DTD/svg11.dtd">
<!-- Generated by graphviz version 2.43.0 (0)
 -->
<!-- Title: /home/runner/work/beluga/beluga/beluga_ros/include/beluga_ros/sparse_point_cloud.hpp Pages: 1 -->
<svg width="1024pt" height="117pt"
 viewBox="0.00 0.00 1023.50 117.00" xmlns="http://www.w3.org/2000/svg" xmlns:xlink="http://www.w3.org/1999/xlink">
<g id="graph0" class="graph" transform="scale(1 1) rotate(0) translate(4 113)">
<title>/home/runner/work/beluga/beluga/beluga_ros/include/beluga_ros/sparse_point_cloud.hpp</title>
<!-- Node1 -->
<g id="node1" class="node">
<title>Node1</title>
<g id="a_node1"><a xlink:title="Implementation of sensor_msgs/PointCloud2 wrapper type for messages without alignment constraints on ...">
<polygon fill="#bfbfbf" stroke="black" points="455.5,-67.5 455.5,-108.5 646.5,-108.5 646.5,-67.5 455.5,-67.5"/>
<text text-anchor="start" x="463.5" y="-96.5" font-family="Helvetica,sans-Serif" font-size="10.00">/home/runner/work/beluga</text>
<text text-anchor="start" x="463.5" y="-85.5" font-family="Helvetica,sans-Serif" font-size="10.00">/beluga/beluga_ros/include</text>
<text text-anchor="middle" x="551" y="-74.5" font-family="Helvetica,sans-Serif" font-size="10.00">/beluga_ros/sparse_point_cloud.hpp</text>
</a>
</g>
</g>
<!-- Node2 -->
<g id="node2" class="node">
<title>Node2</title>
<g id="a_node2"><a xlink:title=" ">
<polygon fill="none" stroke="#bfbfbf" points="0,-6 0,-25 128,-25 128,-6 0,-6"/>
<text text-anchor="middle" x="64" y="-13" font-family="Helvetica,sans-Serif" font-size="10.00">range/v3/view/iota.hpp</text>
</a>
</g>
</g>
<!-- Node1&#45;&gt;Node2 -->
<g id="edge1" class="edge">
<title>Node1&#45;&gt;Node2</title>
<path fill="none" stroke="midnightblue" d="M455.38,-75.76C371.3,-65.48 245.74,-49.14 137,-31 129.81,-29.8 122.25,-28.43 114.83,-27.01"/>
<polygon fill="midnightblue" stroke="midnightblue" points="115.33,-23.55 104.84,-25.07 113.99,-30.42 115.33,-23.55"/>
</g>
<!-- Node3 -->
<g id="node3" class="node">
<title>Node3</title>
<g id="a_node3"><a target="_parent" xlink:href="../../../../../../beluga/docs/_doxygen/generated/reference/html/sparse__point__cloud_8hpp.html.html" xlink:title=" ">
<polygon fill="none" stroke="black" points="146,-0.5 146,-30.5 280,-30.5 280,-0.5 146,-0.5"/>
<text text-anchor="start" x="154" y="-18.5" font-family="Helvetica,sans-Serif" font-size="10.00">beluga/sensor/data</text>
<text text-anchor="middle" x="213" y="-7.5" font-family="Helvetica,sans-Serif" font-size="10.00">/sparse_point_cloud.hpp</text>
</a>
</g>
</g>
<!-- Node1&#45;&gt;Node3 -->
<g id="edge2" class="edge">
<title>Node1&#45;&gt;Node3</title>
<path fill="none" stroke="midnightblue" d="M457.3,-67.46C404.66,-56.48 339.77,-42.94 290.1,-32.58"/>
<polygon fill="midnightblue" stroke="midnightblue" points="290.56,-29.1 280.06,-30.49 289.13,-35.95 290.56,-29.1"/>
</g>
<!-- Node4 -->
<g id="node4" class="node">
<title>Node4</title>
<g id="a_node4"><a target="_parent" xlink:href="../../../../../../beluga/docs/_doxygen/generated/reference/html/take__evenly_8hpp.html.html" xlink:title=" ">
<polygon fill="none" stroke="black" points="298.5,-6 298.5,-25 461.5,-25 461.5,-6 298.5,-6"/>
<text text-anchor="middle" x="380" y="-13" font-family="Helvetica,sans-Serif" font-size="10.00">beluga/views/take_evenly.hpp</text>
</a>
</g>
</g>
<!-- Node1&#45;&gt;Node4 -->
<g id="edge3" class="edge">
<title>Node1&#45;&gt;Node4</title>
<path fill="none" stroke="midnightblue" d="M503.37,-67.36C473.57,-55.08 436.09,-39.63 410.31,-28.99"/>
<polygon fill="midnightblue" stroke="midnightblue" points="411.62,-25.75 401.04,-25.17 408.95,-32.22 411.62,-25.75"/>
</g>
<!-- Node5 -->
<g id="node5" class="node">
<title>Node5</title>
<g id="a_node5"><a xlink:href="messages_8hpp_source.html" target="_top" xlink:title=" ">
<polygon fill="none" stroke="black" points="479.5,-6 479.5,-25 622.5,-25 622.5,-6 479.5,-6"/>
<text text-anchor="middle" x="551" y="-13" font-family="Helvetica,sans-Serif" font-size="10.00">beluga_ros/messages.hpp</text>
</a>
</g>
</g>
<!-- Node1&#45;&gt;Node5 -->
<g id="edge4" class="edge">
<title>Node1&#45;&gt;Node5</title>
<path fill="none" stroke="midnightblue" d="M551,-67.36C551,-57.3 551,-45.1 551,-35.18"/>
<polygon fill="midnightblue" stroke="midnightblue" points="554.5,-35.17 551,-25.17 547.5,-35.17 554.5,-35.17"/>
</g>
<!-- Node6 -->
<g id="node6" class="node">
<title>Node6</title>
<g id="a_node6"><a xlink:title=" ">
<polygon fill="none" stroke="#bfbfbf" points="641,-6 641,-25 733,-25 733,-6 641,-6"/>
<text text-anchor="middle" x="687" y="-13" font-family="Helvetica,sans-Serif" font-size="10.00">sophus/se3.hpp</text>
</a>
</g>
</g>
<!-- Node1&#45;&gt;Node6 -->
<g id="edge5" class="edge">
<title>Node1&#45;&gt;Node6</title>
<path fill="none" stroke="midnightblue" d="M588.88,-67.36C611.95,-55.4 640.82,-40.44 661.25,-29.85"/>
<polygon fill="midnightblue" stroke="midnightblue" points="663,-32.88 670.27,-25.17 659.78,-26.67 663,-32.88"/>
</g>
<!-- Node7 -->
<g id="node7" class="node">
<title>Node7</title>
<g id="a_node7"><a xlink:title=" ">
<polygon fill="none" stroke="#bfbfbf" points="751.5,-6 751.5,-25 828.5,-25 828.5,-6 751.5,-6"/>
<text text-anchor="middle" x="790" y="-13" font-family="Helvetica,sans-Serif" font-size="10.00">Eigen/Dense</text>
</a>
</g>
</g>
<!-- Node1&#45;&gt;Node7 -->
<g id="edge6" class="edge">
<title>Node1&#45;&gt;Node7</title>
<path fill="none" stroke="midnightblue" d="M618.22,-67.44C654.84,-56.74 700.93,-43.22 742,-31 745.31,-30.01 748.75,-28.99 752.2,-27.95"/>
<polygon fill="midnightblue" stroke="midnightblue" points="753.27,-31.28 761.84,-25.05 751.25,-24.58 753.27,-31.28"/>
</g>
<!-- Node8 -->
<g id="node8" class="node">
<title>Node8</title>
<g id="a_node8"><a xlink:title=" ">
<polygon fill="none" stroke="#bfbfbf" points="846.5,-6 846.5,-25 1015.5,-25 1015.5,-6 846.5,-6"/>
<text text-anchor="middle" x="931" y="-13" font-family="Helvetica,sans-Serif" font-size="10.00">beluga/eigen_compatibility.hpp</text>
</a>
</g>
</g>
<!-- Node1&#45;&gt;Node8 -->
<g id="edge7" class="edge">
<title>Node1&#45;&gt;Node8</title>
<path fill="none" stroke="midnightblue" d="M646.89,-69.21C718.91,-55.85 815.06,-38.01 874.99,-26.89"/>
<polygon fill="midnightblue" stroke="midnightblue" points="875.82,-30.3 885.02,-25.03 874.54,-23.41 875.82,-30.3"/>
</g>
</g>
</svg>
