<?xml version="1.0" encoding="UTF-8" standalone="no"?>
<!DOCTYPE svg PUBLIC "-//W3C//DTD SVG 1.1//EN"
 "http://www.w3.org/Graphics/SVG/1.1/DTD/svg11.dtd">
<!-- Generated by graphviz version 2.43.0 (0)
 -->
<!-- Title: /home/runner/work/beluga/beluga/beluga_ros/include/beluga_ros/tf2_eigen.hpp Pages: 1 -->
<svg width="222pt" height="206pt"
 viewBox="0.00 0.00 221.50 206.00" xmlns="http://www.w3.org/2000/svg" xmlns:xlink="http://www.w3.org/1999/xlink">
<g id="graph0" class="graph" transform="scale(1 1) rotate(0) translate(4 202)">
<title>/home/runner/work/beluga/beluga/beluga_ros/include/beluga_ros/tf2_eigen.hpp</title>
<!-- Node1 -->
<g id="node1" class="node">
<title>Node1</title>
<g id="a_node1"><a xlink:title="Message conversion API overloads for Eigen types.">
<polygon fill="#bfbfbf" stroke="black" points="1.5,-156.5 1.5,-197.5 148.5,-197.5 148.5,-156.5 1.5,-156.5"/>
<text text-anchor="start" x="9.5" y="-185.5" font-family="Helvetica,sans-Serif" font-size="10.00">/home/runner/work/beluga</text>
<text text-anchor="start" x="9.5" y="-174.5" font-family="Helvetica,sans-Serif" font-size="10.00">/beluga/beluga_ros/include</text>
<text text-anchor="middle" x="75" y="-163.5" font-family="Helvetica,sans-Serif" font-size="10.00">/beluga_ros/tf2_eigen.hpp</text>
</a>
</g>
</g>
<!-- Node2 -->
<g id="node2" class="node">
<title>Node2</title>
<g id="a_node2"><a xlink:href="beluga__ros_8hpp.html" target="_top" xlink:title="Includes all the Beluga ROS API.">
<polygon fill="none" stroke="black" points="0,-0.5 0,-41.5 150,-41.5 150,-0.5 0,-0.5"/>
<text text-anchor="start" x="8" y="-29.5" font-family="Helvetica,sans-Serif" font-size="10.00">/home/runner/work/beluga</text>
<text text-anchor="start" x="8" y="-18.5" font-family="Helvetica,sans-Serif" font-size="10.00">/beluga/beluga_ros/include</text>
<text text-anchor="middle" x="75" y="-7.5" font-family="Helvetica,sans-Serif" font-size="10.00">/beluga_ros/beluga_ros.hpp</text>
</a>
</g>
</g>
<!-- Node1&#45;&gt;Node2 -->
<g id="edge1" class="edge">
<title>Node1&#45;&gt;Node2</title>
<path fill="none" stroke="midnightblue" d="M52.6,-148C47.05,-139.5 41.88,-129.79 39,-120 33.74,-102.09 33.74,-95.91 39,-78 42.88,-64.8 50.93,-51.78 58.43,-41.61"/>
<polygon fill="midnightblue" stroke="midnightblue" points="49.85,-150.18 58.43,-156.39 55.6,-146.18 49.85,-150.18"/>
</g>
<!-- Node3 -->
<g id="node3" class="node">
<title>Node3</title>
<g id="a_node3"><a xlink:href="particle__cloud_8hpp.html" target="_top" xlink:title="Utilities for particle cloud I/O over ROS interfaces.">
<polygon fill="none" stroke="black" points="48.5,-78.5 48.5,-119.5 213.5,-119.5 213.5,-78.5 48.5,-78.5"/>
<text text-anchor="start" x="56.5" y="-107.5" font-family="Helvetica,sans-Serif" font-size="10.00">/home/runner/work/beluga</text>
<text text-anchor="start" x="56.5" y="-96.5" font-family="Helvetica,sans-Serif" font-size="10.00">/beluga/beluga_ros/include</text>
<text text-anchor="middle" x="131" y="-85.5" font-family="Helvetica,sans-Serif" font-size="10.00">/beluga_ros/particle_cloud.hpp</text>
</a>
</g>
</g>
<!-- Node1&#45;&gt;Node3 -->
<g id="edge2" class="edge">
<title>Node1&#45;&gt;Node3</title>
<path fill="none" stroke="midnightblue" d="M95.38,-148.34C102.43,-138.78 110.17,-128.27 116.63,-119.51"/>
<polygon fill="midnightblue" stroke="midnightblue" points="92.54,-146.3 89.42,-156.43 98.17,-150.45 92.54,-146.3"/>
</g>
<!-- Node3&#45;&gt;Node2 -->
<g id="edge3" class="edge">
<title>Node3&#45;&gt;Node2</title>
<path fill="none" stroke="midnightblue" d="M110.62,-70.34C103.57,-60.78 95.83,-50.27 89.37,-41.51"/>
<polygon fill="midnightblue" stroke="midnightblue" points="107.83,-72.45 116.58,-78.43 113.46,-68.3 107.83,-72.45"/>
</g>
</g>
</svg>
