<?xml version="1.0" encoding="UTF-8" standalone="no"?>
<!DOCTYPE svg PUBLIC "-//W3C//DTD SVG 1.1//EN"
 "http://www.w3.org/Graphics/SVG/1.1/DTD/svg11.dtd">
<!-- Generated by graphviz version 2.43.0 (0)
 -->
<!-- Title: /home/runner/work/beluga/beluga/beluga_ros/include/beluga_ros/tf2_eigen.hpp Pages: 1 -->
<svg width="238pt" height="106pt"
 viewBox="0.00 0.00 238.00 106.00" xmlns="http://www.w3.org/2000/svg" xmlns:xlink="http://www.w3.org/1999/xlink">
<g id="graph0" class="graph" transform="scale(1 1) rotate(0) translate(4 102)">
<title>/home/runner/work/beluga/beluga/beluga_ros/include/beluga_ros/tf2_eigen.hpp</title>
<!-- Node1 -->
<g id="node1" class="node">
<title>Node1</title>
<g id="a_node1"><a xlink:title="Message conversion API overloads for Eigen types.">
<polygon fill="#bfbfbf" stroke="black" points="60,-56.5 60,-97.5 207,-97.5 207,-56.5 60,-56.5"/>
<text text-anchor="start" x="68" y="-85.5" font-family="Helvetica,sans-Serif" font-size="10.00">/home/runner/work/beluga</text>
<text text-anchor="start" x="68" y="-74.5" font-family="Helvetica,sans-Serif" font-size="10.00">/beluga/beluga_ros/include</text>
<text text-anchor="middle" x="133.5" y="-63.5" font-family="Helvetica,sans-Serif" font-size="10.00">/beluga_ros/tf2_eigen.hpp</text>
</a>
</g>
</g>
<!-- Node2 -->
<g id="node2" class="node">
<title>Node2</title>
<g id="a_node2"><a xlink:href="messages_8hpp_source.html" target="_top" xlink:title=" ">
<polygon fill="none" stroke="black" points="0,-0.5 0,-19.5 143,-19.5 143,-0.5 0,-0.5"/>
<text text-anchor="middle" x="71.5" y="-7.5" font-family="Helvetica,sans-Serif" font-size="10.00">beluga_ros/messages.hpp</text>
</a>
</g>
</g>
<!-- Node1&#45;&gt;Node2 -->
<g id="edge1" class="edge">
<title>Node1&#45;&gt;Node2</title>
<path fill="none" stroke="midnightblue" d="M114.9,-56.5C105.94,-47.11 95.33,-35.98 86.84,-27.08"/>
<polygon fill="midnightblue" stroke="midnightblue" points="89.19,-24.47 79.75,-19.65 84.12,-29.3 89.19,-24.47"/>
</g>
<!-- Node3 -->
<g id="node3" class="node">
<title>Node3</title>
<g id="a_node3"><a xlink:title=" ">
<polygon fill="none" stroke="#bfbfbf" points="161,-0.5 161,-19.5 230,-19.5 230,-0.5 161,-0.5"/>
<text text-anchor="middle" x="195.5" y="-7.5" font-family="Helvetica,sans-Serif" font-size="10.00">Eigen/Core</text>
</a>
</g>
</g>
<!-- Node1&#45;&gt;Node3 -->
<g id="edge2" class="edge">
<title>Node1&#45;&gt;Node3</title>
<path fill="none" stroke="midnightblue" d="M152.1,-56.5C161.06,-47.11 171.67,-35.98 180.16,-27.08"/>
<polygon fill="midnightblue" stroke="midnightblue" points="182.88,-29.3 187.25,-19.65 177.81,-24.47 182.88,-29.3"/>
</g>
</g>
</svg>
