<?xml version="1.0" encoding="UTF-8" standalone="no"?>
<!DOCTYPE svg PUBLIC "-//W3C//DTD SVG 1.1//EN"
 "http://www.w3.org/Graphics/SVG/1.1/DTD/svg11.dtd">
<!-- Generated by graphviz version 2.43.0 (0)
 -->
<!-- Title: /home/runner/work/beluga/beluga/beluga_ros/include/beluga_ros/tf2_sophus.hpp Pages: 1 -->
<svg width="378pt" height="206pt"
 viewBox="0.00 0.00 377.87 206.00" xmlns="http://www.w3.org/2000/svg" xmlns:xlink="http://www.w3.org/1999/xlink">
<g id="graph0" class="graph" transform="scale(1 1) rotate(0) translate(4 202)">
<title>/home/runner/work/beluga/beluga/beluga_ros/include/beluga_ros/tf2_sophus.hpp</title>
<!-- Node1 -->
<g id="node1" class="node">
<title>Node1</title>
<g id="a_node1"><a xlink:title="Message conversion API overloads for Sophus types.">
<polygon fill="#bfbfbf" stroke="black" points="26.37,-156.5 26.37,-197.5 176.37,-197.5 176.37,-156.5 26.37,-156.5"/>
<text text-anchor="start" x="34.37" y="-185.5" font-family="Helvetica,sans-Serif" font-size="10.00">/home/runner/work/beluga</text>
<text text-anchor="start" x="34.37" y="-174.5" font-family="Helvetica,sans-Serif" font-size="10.00">/beluga/beluga_ros/include</text>
<text text-anchor="middle" x="101.37" y="-163.5" font-family="Helvetica,sans-Serif" font-size="10.00">/beluga_ros/tf2_sophus.hpp</text>
</a>
</g>
</g>
<!-- Node2 -->
<g id="node2" class="node">
<title>Node2</title>
<g id="a_node2"><a xlink:href="beluga__ros_8hpp.html" target="_top" xlink:title="Includes all the Beluga ROS API.">
<polygon fill="none" stroke="black" points="62.37,-0.5 62.37,-41.5 212.37,-41.5 212.37,-0.5 62.37,-0.5"/>
<text text-anchor="start" x="70.37" y="-29.5" font-family="Helvetica,sans-Serif" font-size="10.00">/home/runner/work/beluga</text>
<text text-anchor="start" x="70.37" y="-18.5" font-family="Helvetica,sans-Serif" font-size="10.00">/beluga/beluga_ros/include</text>
<text text-anchor="middle" x="137.37" y="-7.5" font-family="Helvetica,sans-Serif" font-size="10.00">/beluga_ros/beluga_ros.hpp</text>
</a>
</g>
</g>
<!-- Node1&#45;&gt;Node2 -->
<g id="edge1" class="edge">
<title>Node1&#45;&gt;Node2</title>
<path fill="none" stroke="midnightblue" d="M38.85,-151.11C26.28,-143.11 14.69,-132.88 7.37,-120 -1.85,-103.77 -2.89,-93.59 7.37,-78 20.07,-58.7 40.97,-46.03 62.34,-37.71"/>
<polygon fill="midnightblue" stroke="midnightblue" points="37.28,-154.25 47.67,-156.3 40.83,-148.21 37.28,-154.25"/>
</g>
<!-- Node3 -->
<g id="node3" class="node">
<title>Node3</title>
<g id="a_node3"><a xlink:href="likelihood__field_8hpp.html" target="_top" xlink:title="Utilities for likelihood data over ROS interfaces.">
<polygon fill="none" stroke="black" points="16.37,-78.5 16.37,-119.5 186.37,-119.5 186.37,-78.5 16.37,-78.5"/>
<text text-anchor="start" x="24.37" y="-107.5" font-family="Helvetica,sans-Serif" font-size="10.00">/home/runner/work/beluga</text>
<text text-anchor="start" x="24.37" y="-96.5" font-family="Helvetica,sans-Serif" font-size="10.00">/beluga/beluga_ros/include</text>
<text text-anchor="middle" x="101.37" y="-85.5" font-family="Helvetica,sans-Serif" font-size="10.00">/beluga_ros/likelihood_field.hpp</text>
</a>
</g>
</g>
<!-- Node1&#45;&gt;Node3 -->
<g id="edge2" class="edge">
<title>Node1&#45;&gt;Node3</title>
<path fill="none" stroke="midnightblue" d="M101.37,-146.3C101.37,-137.3 101.37,-127.65 101.37,-119.51"/>
<polygon fill="midnightblue" stroke="midnightblue" points="97.87,-146.43 101.37,-156.43 104.87,-146.43 97.87,-146.43"/>
</g>
<!-- Node4 -->
<g id="node4" class="node">
<title>Node4</title>
<g id="a_node4"><a xlink:href="particle__cloud_8hpp.html" target="_top" xlink:title="Utilities for particle cloud I/O over ROS interfaces.">
<polygon fill="none" stroke="black" points="204.87,-78.5 204.87,-119.5 369.87,-119.5 369.87,-78.5 204.87,-78.5"/>
<text text-anchor="start" x="212.87" y="-107.5" font-family="Helvetica,sans-Serif" font-size="10.00">/home/runner/work/beluga</text>
<text text-anchor="start" x="212.87" y="-96.5" font-family="Helvetica,sans-Serif" font-size="10.00">/beluga/beluga_ros/include</text>
<text text-anchor="middle" x="287.37" y="-85.5" font-family="Helvetica,sans-Serif" font-size="10.00">/beluga_ros/particle_cloud.hpp</text>
</a>
</g>
</g>
<!-- Node1&#45;&gt;Node4 -->
<g id="edge3" class="edge">
<title>Node1&#45;&gt;Node4</title>
<path fill="none" stroke="midnightblue" d="M158.62,-152.61C184.58,-142 214.93,-129.6 239.63,-119.51"/>
<polygon fill="midnightblue" stroke="midnightblue" points="157.2,-149.41 149.27,-156.43 159.85,-155.89 157.2,-149.41"/>
</g>
<!-- Node4&#45;&gt;Node2 -->
<g id="edge4" class="edge">
<title>Node4&#45;&gt;Node2</title>
<path fill="none" stroke="midnightblue" d="M239.82,-73.91C219.2,-63.46 195.36,-51.38 175.87,-41.51"/>
<polygon fill="midnightblue" stroke="midnightblue" points="238.24,-77.03 248.74,-78.43 241.4,-70.79 238.24,-77.03"/>
</g>
</g>
</svg>
