<?xml version="1.0" encoding="UTF-8" standalone="no"?>
<!DOCTYPE svg PUBLIC "-//W3C//DTD SVG 1.1//EN"
 "http://www.w3.org/Graphics/SVG/1.1/DTD/svg11.dtd">
<!-- Generated by graphviz version 2.43.0 (0)
 -->
<!-- Title: /home/runner/work/beluga/beluga/beluga_ros/include/beluga_ros/tf2_sophus.hpp Pages: 1 -->
<svg width="1254pt" height="117pt"
 viewBox="0.00 0.00 1254.00 117.00" xmlns="http://www.w3.org/2000/svg" xmlns:xlink="http://www.w3.org/1999/xlink">
<g id="graph0" class="graph" transform="scale(1 1) rotate(0) translate(4 113)">
<title>/home/runner/work/beluga/beluga/beluga_ros/include/beluga_ros/tf2_sophus.hpp</title>
<!-- Node1 -->
<g id="node1" class="node">
<title>Node1</title>
<g id="a_node1"><a xlink:title="Message conversion API overloads for Sophus types.">
<polygon fill="#bfbfbf" stroke="black" points="580.5,-67.5 580.5,-108.5 730.5,-108.5 730.5,-67.5 580.5,-67.5"/>
<text text-anchor="start" x="588.5" y="-96.5" font-family="Helvetica,sans-Serif" font-size="10.00">/home/runner/work/beluga</text>
<text text-anchor="start" x="588.5" y="-85.5" font-family="Helvetica,sans-Serif" font-size="10.00">/beluga/beluga_ros/include</text>
<text text-anchor="middle" x="655.5" y="-74.5" font-family="Helvetica,sans-Serif" font-size="10.00">/beluga_ros/tf2_sophus.hpp</text>
</a>
</g>
</g>
<!-- Node2 -->
<g id="node2" class="node">
<title>Node2</title>
<g id="a_node2"><a xlink:title=" ">
<polygon fill="none" stroke="#bfbfbf" points="0,-0.5 0,-30.5 153,-30.5 153,-0.5 0,-0.5"/>
<text text-anchor="start" x="8" y="-18.5" font-family="Helvetica,sans-Serif" font-size="10.00">beluga/algorithm/unscented</text>
<text text-anchor="middle" x="76.5" y="-7.5" font-family="Helvetica,sans-Serif" font-size="10.00">_transform.hpp</text>
</a>
</g>
</g>
<!-- Node1&#45;&gt;Node2 -->
<g id="edge1" class="edge">
<title>Node1&#45;&gt;Node2</title>
<path fill="none" stroke="midnightblue" d="M580.43,-79.81C485.55,-70.43 316.99,-52.78 163.47,-31.24"/>
<polygon fill="midnightblue" stroke="midnightblue" points="163.77,-27.75 153.38,-29.81 162.79,-34.68 163.77,-27.75"/>
</g>
<!-- Node3 -->
<g id="node3" class="node">
<title>Node3</title>
<g id="a_node3"><a xlink:title=" ">
<polygon fill="none" stroke="#bfbfbf" points="171,-6 171,-25 340,-25 340,-6 171,-6"/>
<text text-anchor="middle" x="255.5" y="-13" font-family="Helvetica,sans-Serif" font-size="10.00">beluga/eigen_compatibility.hpp</text>
</a>
</g>
</g>
<!-- Node1&#45;&gt;Node3 -->
<g id="edge2" class="edge">
<title>Node1&#45;&gt;Node3</title>
<path fill="none" stroke="midnightblue" d="M580.26,-73.74C503.04,-60.13 384.51,-39.24 314.02,-26.81"/>
<polygon fill="midnightblue" stroke="midnightblue" points="314.44,-23.33 303.98,-25.04 313.22,-30.23 314.44,-23.33"/>
</g>
<!-- Node4 -->
<g id="node4" class="node">
<title>Node4</title>
<g id="a_node4"><a xlink:title=" ">
<polygon fill="none" stroke="#bfbfbf" points="358,-6 358,-25 405,-25 405,-6 358,-6"/>
<text text-anchor="middle" x="381.5" y="-13" font-family="Helvetica,sans-Serif" font-size="10.00">cmath</text>
</a>
</g>
</g>
<!-- Node1&#45;&gt;Node4 -->
<g id="edge3" class="edge">
<title>Node1&#45;&gt;Node4</title>
<path fill="none" stroke="midnightblue" d="M580.41,-73.29C532.35,-63.61 469.01,-49.14 414.5,-31 412.63,-30.38 410.72,-29.69 408.81,-28.96"/>
<polygon fill="midnightblue" stroke="midnightblue" points="410,-25.66 399.42,-25.09 407.33,-32.14 410,-25.66"/>
</g>
<!-- Node5 -->
<g id="node5" class="node">
<title>Node5</title>
<g id="a_node5"><a xlink:title=" ">
<polygon fill="none" stroke="#bfbfbf" points="423.5,-6 423.5,-25 541.5,-25 541.5,-6 423.5,-6"/>
<text text-anchor="middle" x="482.5" y="-13" font-family="Helvetica,sans-Serif" font-size="10.00">sophus/common.hpp</text>
</a>
</g>
</g>
<!-- Node1&#45;&gt;Node5 -->
<g id="edge4" class="edge">
<title>Node1&#45;&gt;Node5</title>
<path fill="none" stroke="midnightblue" d="M607.31,-67.36C577.17,-55.08 539.25,-39.63 513.16,-28.99"/>
<polygon fill="midnightblue" stroke="midnightblue" points="514.37,-25.71 503.78,-25.17 511.72,-32.19 514.37,-25.71"/>
</g>
<!-- Node6 -->
<g id="node6" class="node">
<title>Node6</title>
<g id="a_node6"><a xlink:title=" ">
<polygon fill="none" stroke="#bfbfbf" points="560,-6 560,-25 651,-25 651,-6 560,-6"/>
<text text-anchor="middle" x="605.5" y="-13" font-family="Helvetica,sans-Serif" font-size="10.00">tf2/convert.hpp</text>
</a>
</g>
</g>
<!-- Node1&#45;&gt;Node6 -->
<g id="edge5" class="edge">
<title>Node1&#45;&gt;Node6</title>
<path fill="none" stroke="midnightblue" d="M641.57,-67.36C634.05,-56.76 624.85,-43.79 617.63,-33.6"/>
<polygon fill="midnightblue" stroke="midnightblue" points="620.29,-31.31 611.65,-25.17 614.58,-35.35 620.29,-31.31"/>
</g>
<!-- Node7 -->
<g id="node7" class="node">
<title>Node7</title>
<g id="a_node7"><a xlink:title=" ">
<polygon fill="none" stroke="#bfbfbf" points="669,-6 669,-25 744,-25 744,-6 669,-6"/>
<text text-anchor="middle" x="706.5" y="-13" font-family="Helvetica,sans-Serif" font-size="10.00">tf2/utils.hpp</text>
</a>
</g>
</g>
<!-- Node1&#45;&gt;Node7 -->
<g id="edge6" class="edge">
<title>Node1&#45;&gt;Node7</title>
<path fill="none" stroke="midnightblue" d="M669.71,-67.36C677.46,-56.65 686.95,-43.52 694.35,-33.29"/>
<polygon fill="midnightblue" stroke="midnightblue" points="697.2,-35.33 700.23,-25.17 691.53,-31.22 697.2,-35.33"/>
</g>
<!-- Node8 -->
<g id="node8" class="node">
<title>Node8</title>
<g id="a_node8"><a xlink:title=" ">
<polygon fill="none" stroke="#bfbfbf" points="762.5,-6 762.5,-25 854.5,-25 854.5,-6 762.5,-6"/>
<text text-anchor="middle" x="808.5" y="-13" font-family="Helvetica,sans-Serif" font-size="10.00">sophus/se2.hpp</text>
</a>
</g>
</g>
<!-- Node1&#45;&gt;Node8 -->
<g id="edge7" class="edge">
<title>Node1&#45;&gt;Node8</title>
<path fill="none" stroke="midnightblue" d="M698.12,-67.36C724.42,-55.24 757.43,-40.03 780.46,-29.42"/>
<polygon fill="midnightblue" stroke="midnightblue" points="782.06,-32.54 789.68,-25.17 779.13,-26.18 782.06,-32.54"/>
</g>
<!-- Node9 -->
<g id="node9" class="node">
<title>Node9</title>
<g id="a_node9"><a xlink:title=" ">
<polygon fill="none" stroke="#bfbfbf" points="872.5,-6 872.5,-25 964.5,-25 964.5,-6 872.5,-6"/>
<text text-anchor="middle" x="918.5" y="-13" font-family="Helvetica,sans-Serif" font-size="10.00">sophus/se3.hpp</text>
</a>
</g>
</g>
<!-- Node1&#45;&gt;Node9 -->
<g id="edge8" class="edge">
<title>Node1&#45;&gt;Node9</title>
<path fill="none" stroke="midnightblue" d="M728.41,-67.46C776.24,-54.63 837.06,-38.33 876.85,-27.66"/>
<polygon fill="midnightblue" stroke="midnightblue" points="877.99,-30.98 886.74,-25.01 876.18,-24.22 877.99,-30.98"/>
</g>
<!-- Node10 -->
<g id="node10" class="node">
<title>Node10</title>
<g id="a_node10"><a xlink:title=" ">
<polygon fill="none" stroke="#bfbfbf" points="982.5,-6 982.5,-25 1084.5,-25 1084.5,-6 982.5,-6"/>
<text text-anchor="middle" x="1033.5" y="-13" font-family="Helvetica,sans-Serif" font-size="10.00">sophus/types.hpp</text>
</a>
</g>
</g>
<!-- Node1&#45;&gt;Node10 -->
<g id="edge9" class="edge">
<title>Node1&#45;&gt;Node10</title>
<path fill="none" stroke="midnightblue" d="M730.61,-75.14C795.21,-64.61 890.77,-48.26 973.5,-31 978.88,-29.88 984.5,-28.62 990.07,-27.34"/>
<polygon fill="midnightblue" stroke="midnightblue" points="991.02,-30.71 999.95,-25 989.41,-23.9 991.02,-30.71"/>
</g>
<!-- Node11 -->
<g id="node11" class="node">
<title>Node11</title>
<g id="a_node11"><a xlink:href="messages_8hpp_source.html" target="_top" xlink:title=" ">
<polygon fill="none" stroke="black" points="1103,-6 1103,-25 1246,-25 1246,-6 1103,-6"/>
<text text-anchor="middle" x="1174.5" y="-13" font-family="Helvetica,sans-Serif" font-size="10.00">beluga_ros/messages.hpp</text>
</a>
</g>
</g>
<!-- Node1&#45;&gt;Node11 -->
<g id="edge10" class="edge">
<title>Node1&#45;&gt;Node11</title>
<path fill="none" stroke="midnightblue" d="M730.84,-78.53C818.23,-68.43 966.58,-50.46 1093.5,-31 1101.82,-29.72 1110.61,-28.27 1119.2,-26.78"/>
<polygon fill="midnightblue" stroke="midnightblue" points="1119.91,-30.21 1129.16,-25.03 1118.7,-23.31 1119.91,-30.21"/>
</g>
</g>
</svg>
