<?xml version="1.0" encoding="UTF-8" standalone="no"?>
<!DOCTYPE svg PUBLIC "-//W3C//DTD SVG 1.1//EN"
 "http://www.w3.org/Graphics/SVG/1.1/DTD/svg11.dtd">
<!-- Generated by graphviz version 2.43.0 (0)
 -->
<!-- Title: /home/runner/work/beluga/beluga/beluga_ros/include/beluga_ros/tf2_eigen.hpp Pages: 1 -->
<svg width="564pt" height="117pt"
 viewBox="0.00 0.00 563.50 117.00" xmlns="http://www.w3.org/2000/svg" xmlns:xlink="http://www.w3.org/1999/xlink">
<g id="graph0" class="graph" transform="scale(1 1) rotate(0) translate(4 113)">
<title>/home/runner/work/beluga/beluga/beluga_ros/include/beluga_ros/tf2_eigen.hpp</title>
<!-- Node1 -->
<g id="node1" class="node">
<title>Node1</title>
<g id="a_node1"><a xlink:title="Message conversion API overloads for Eigen types.">
<polygon fill="#bfbfbf" stroke="black" points="226.5,-67.5 226.5,-108.5 373.5,-108.5 373.5,-67.5 226.5,-67.5"/>
<text text-anchor="start" x="234.5" y="-96.5" font-family="Helvetica,sans-Serif" font-size="10.00">/home/runner/work/beluga</text>
<text text-anchor="start" x="234.5" y="-85.5" font-family="Helvetica,sans-Serif" font-size="10.00">/beluga/beluga_ros/include</text>
<text text-anchor="middle" x="300" y="-74.5" font-family="Helvetica,sans-Serif" font-size="10.00">/beluga_ros/tf2_eigen.hpp</text>
</a>
</g>
</g>
<!-- Node2 -->
<g id="node2" class="node">
<title>Node2</title>
<g id="a_node2"><a xlink:title=" ">
<polygon fill="none" stroke="#bfbfbf" points="0,-6 0,-25 132,-25 132,-6 0,-6"/>
<text text-anchor="middle" x="66" y="-13" font-family="Helvetica,sans-Serif" font-size="10.00">tf2_eigen/tf2_eigen.hpp</text>
</a>
</g>
</g>
<!-- Node1&#45;&gt;Node2 -->
<g id="edge1" class="edge">
<title>Node1&#45;&gt;Node2</title>
<path fill="none" stroke="midnightblue" d="M235.13,-67.46C193.03,-54.77 139.61,-38.68 104.19,-28.01"/>
<polygon fill="midnightblue" stroke="midnightblue" points="104.84,-24.55 94.26,-25.01 102.82,-31.25 104.84,-24.55"/>
</g>
<!-- Node3 -->
<g id="node3" class="node">
<title>Node3</title>
<g id="a_node3"><a xlink:title=" ">
<polygon fill="none" stroke="#bfbfbf" points="150.5,-0.5 150.5,-30.5 281.5,-30.5 281.5,-0.5 150.5,-0.5"/>
<text text-anchor="start" x="158.5" y="-18.5" font-family="Helvetica,sans-Serif" font-size="10.00">tf2_geometry_msgs/tf2</text>
<text text-anchor="middle" x="216" y="-7.5" font-family="Helvetica,sans-Serif" font-size="10.00">_geometry_msgs.hpp</text>
</a>
</g>
</g>
<!-- Node1&#45;&gt;Node3 -->
<g id="edge2" class="edge">
<title>Node1&#45;&gt;Node3</title>
<path fill="none" stroke="midnightblue" d="M276.6,-67.36C265.43,-57.99 252.06,-46.76 240.72,-37.25"/>
<polygon fill="midnightblue" stroke="midnightblue" points="242.79,-34.42 232.88,-30.67 238.29,-39.78 242.79,-34.42"/>
</g>
<!-- Node4 -->
<g id="node4" class="node">
<title>Node4</title>
<g id="a_node4"><a xlink:title=" ">
<polygon fill="none" stroke="#bfbfbf" points="300,-6 300,-25 468,-25 468,-6 300,-6"/>
<text text-anchor="middle" x="384" y="-13" font-family="Helvetica,sans-Serif" font-size="10.00">geometry_msgs/msg/point.hpp</text>
</a>
</g>
</g>
<!-- Node1&#45;&gt;Node4 -->
<g id="edge3" class="edge">
<title>Node1&#45;&gt;Node4</title>
<path fill="none" stroke="midnightblue" d="M323.4,-67.36C336.81,-56.11 353.39,-42.19 365.82,-31.76"/>
<polygon fill="midnightblue" stroke="midnightblue" points="368.26,-34.28 373.67,-25.17 363.76,-28.92 368.26,-34.28"/>
</g>
<!-- Node5 -->
<g id="node5" class="node">
<title>Node5</title>
<g id="a_node5"><a xlink:title=" ">
<polygon fill="none" stroke="#bfbfbf" points="486.5,-6 486.5,-25 555.5,-25 555.5,-6 486.5,-6"/>
<text text-anchor="middle" x="521" y="-13" font-family="Helvetica,sans-Serif" font-size="10.00">Eigen/Core</text>
</a>
</g>
</g>
<!-- Node1&#45;&gt;Node5 -->
<g id="edge4" class="edge">
<title>Node1&#45;&gt;Node5</title>
<path fill="none" stroke="midnightblue" d="M362.31,-67.48C396.25,-56.8 438.97,-43.28 477,-31 479.73,-30.12 482.55,-29.2 485.38,-28.28"/>
<polygon fill="midnightblue" stroke="midnightblue" points="486.55,-31.58 494.96,-25.14 484.37,-24.93 486.55,-31.58"/>
</g>
</g>
</svg>
