<?xml version="1.0" encoding="UTF-8" standalone="no"?>
<!DOCTYPE svg PUBLIC "-//W3C//DTD SVG 1.1//EN"
 "http://www.w3.org/Graphics/SVG/1.1/DTD/svg11.dtd">
<!-- Generated by graphviz version 2.43.0 (0)
 -->
<!-- Title: /home/runner/work/beluga/beluga/beluga_ros/include/beluga_ros/tf2_sophus.hpp Pages: 1 -->
<svg width="1229pt" height="117pt"
 viewBox="0.00 0.00 1229.00 117.00" xmlns="http://www.w3.org/2000/svg" xmlns:xlink="http://www.w3.org/1999/xlink">
<g id="graph0" class="graph" transform="scale(1 1) rotate(0) translate(4 113)">
<title>/home/runner/work/beluga/beluga/beluga_ros/include/beluga_ros/tf2_sophus.hpp</title>
<!-- Node1 -->
<g id="node1" class="node">
<title>Node1</title>
<g id="a_node1"><a xlink:title="Message conversion API overloads for Sophus types.">
<polygon fill="#bfbfbf" stroke="black" points="534.5,-67.5 534.5,-108.5 684.5,-108.5 684.5,-67.5 534.5,-67.5"/>
<text text-anchor="start" x="542.5" y="-96.5" font-family="Helvetica,sans-Serif" font-size="10.00">/home/runner/work/beluga</text>
<text text-anchor="start" x="542.5" y="-85.5" font-family="Helvetica,sans-Serif" font-size="10.00">/beluga/beluga_ros/include</text>
<text text-anchor="middle" x="609.5" y="-74.5" font-family="Helvetica,sans-Serif" font-size="10.00">/beluga_ros/tf2_sophus.hpp</text>
</a>
</g>
</g>
<!-- Node2 -->
<g id="node2" class="node">
<title>Node2</title>
<g id="a_node2"><a xlink:title=" ">
<polygon fill="none" stroke="#bfbfbf" points="0,-6 0,-25 79,-25 79,-6 0,-6"/>
<text text-anchor="middle" x="39.5" y="-13" font-family="Helvetica,sans-Serif" font-size="10.00">tf2/convert.h</text>
</a>
</g>
</g>
<!-- Node1&#45;&gt;Node2 -->
<g id="edge1" class="edge">
<title>Node1&#45;&gt;Node2</title>
<path fill="none" stroke="midnightblue" d="M534.49,-83.35C432.49,-77.4 244.71,-62.89 87.5,-31 83.28,-30.14 78.89,-29.08 74.57,-27.91"/>
<polygon fill="midnightblue" stroke="midnightblue" points="75.26,-24.47 64.68,-25.07 73.33,-31.2 75.26,-24.47"/>
</g>
<!-- Node3 -->
<g id="node3" class="node">
<title>Node3</title>
<g id="a_node3"><a xlink:title=" ">
<polygon fill="none" stroke="#bfbfbf" points="97,-6 97,-25 160,-25 160,-6 97,-6"/>
<text text-anchor="middle" x="128.5" y="-13" font-family="Helvetica,sans-Serif" font-size="10.00">tf2/utils.h</text>
</a>
</g>
</g>
<!-- Node1&#45;&gt;Node3 -->
<g id="edge2" class="edge">
<title>Node1&#45;&gt;Node3</title>
<path fill="none" stroke="midnightblue" d="M534.46,-82.55C445.97,-76.14 294.91,-61.54 168.5,-31 165.44,-30.26 162.29,-29.37 159.16,-28.39"/>
<polygon fill="midnightblue" stroke="midnightblue" points="160,-24.97 149.41,-25.07 157.75,-31.6 160,-24.97"/>
</g>
<!-- Node4 -->
<g id="node4" class="node">
<title>Node4</title>
<g id="a_node4"><a xlink:title=" ">
<polygon fill="none" stroke="#bfbfbf" points="178,-0.5 178,-30.5 331,-30.5 331,-0.5 178,-0.5"/>
<text text-anchor="start" x="186" y="-18.5" font-family="Helvetica,sans-Serif" font-size="10.00">beluga/algorithm/unscented</text>
<text text-anchor="middle" x="254.5" y="-7.5" font-family="Helvetica,sans-Serif" font-size="10.00">_transform.hpp</text>
</a>
</g>
</g>
<!-- Node1&#45;&gt;Node4 -->
<g id="edge3" class="edge">
<title>Node1&#45;&gt;Node4</title>
<path fill="none" stroke="midnightblue" d="M534.21,-72.05C475.82,-60.45 395.04,-44.41 335.3,-32.55"/>
<polygon fill="midnightblue" stroke="midnightblue" points="335.64,-29.04 325.15,-30.53 334.27,-35.91 335.64,-29.04"/>
</g>
<!-- Node5 -->
<g id="node5" class="node">
<title>Node5</title>
<g id="a_node5"><a xlink:title=" ">
<polygon fill="none" stroke="#bfbfbf" points="349,-6 349,-25 518,-25 518,-6 349,-6"/>
<text text-anchor="middle" x="433.5" y="-13" font-family="Helvetica,sans-Serif" font-size="10.00">beluga/eigen_compatibility.hpp</text>
</a>
</g>
</g>
<!-- Node1&#45;&gt;Node5 -->
<g id="edge4" class="edge">
<title>Node1&#45;&gt;Node5</title>
<path fill="none" stroke="midnightblue" d="M560.47,-67.36C529.81,-55.08 491.23,-39.63 464.69,-28.99"/>
<polygon fill="midnightblue" stroke="midnightblue" points="465.74,-25.64 455.15,-25.17 463.13,-32.14 465.74,-25.64"/>
</g>
<!-- Node6 -->
<g id="node6" class="node">
<title>Node6</title>
<g id="a_node6"><a xlink:title=" ">
<polygon fill="none" stroke="#bfbfbf" points="536,-6 536,-25 583,-25 583,-6 536,-6"/>
<text text-anchor="middle" x="559.5" y="-13" font-family="Helvetica,sans-Serif" font-size="10.00">cmath</text>
</a>
</g>
</g>
<!-- Node1&#45;&gt;Node6 -->
<g id="edge5" class="edge">
<title>Node1&#45;&gt;Node6</title>
<path fill="none" stroke="midnightblue" d="M595.57,-67.36C588.05,-56.76 578.85,-43.79 571.63,-33.6"/>
<polygon fill="midnightblue" stroke="midnightblue" points="574.29,-31.31 565.65,-25.17 568.58,-35.35 574.29,-31.31"/>
</g>
<!-- Node7 -->
<g id="node7" class="node">
<title>Node7</title>
<g id="a_node7"><a xlink:title=" ">
<polygon fill="none" stroke="#bfbfbf" points="601.5,-6 601.5,-25 719.5,-25 719.5,-6 601.5,-6"/>
<text text-anchor="middle" x="660.5" y="-13" font-family="Helvetica,sans-Serif" font-size="10.00">sophus/common.hpp</text>
</a>
</g>
</g>
<!-- Node1&#45;&gt;Node7 -->
<g id="edge6" class="edge">
<title>Node1&#45;&gt;Node7</title>
<path fill="none" stroke="midnightblue" d="M623.71,-67.36C631.46,-56.65 640.95,-43.52 648.35,-33.29"/>
<polygon fill="midnightblue" stroke="midnightblue" points="651.2,-35.33 654.23,-25.17 645.53,-31.22 651.2,-35.33"/>
</g>
<!-- Node8 -->
<g id="node8" class="node">
<title>Node8</title>
<g id="a_node8"><a xlink:title=" ">
<polygon fill="none" stroke="#bfbfbf" points="737.5,-6 737.5,-25 829.5,-25 829.5,-6 737.5,-6"/>
<text text-anchor="middle" x="783.5" y="-13" font-family="Helvetica,sans-Serif" font-size="10.00">sophus/se2.hpp</text>
</a>
</g>
</g>
<!-- Node1&#45;&gt;Node8 -->
<g id="edge7" class="edge">
<title>Node1&#45;&gt;Node8</title>
<path fill="none" stroke="midnightblue" d="M657.97,-67.36C688.29,-55.08 726.42,-39.63 752.66,-28.99"/>
<polygon fill="midnightblue" stroke="midnightblue" points="754.14,-32.17 762.09,-25.17 751.51,-25.68 754.14,-32.17"/>
</g>
<!-- Node9 -->
<g id="node9" class="node">
<title>Node9</title>
<g id="a_node9"><a xlink:title=" ">
<polygon fill="none" stroke="#bfbfbf" points="847.5,-6 847.5,-25 939.5,-25 939.5,-6 847.5,-6"/>
<text text-anchor="middle" x="893.5" y="-13" font-family="Helvetica,sans-Serif" font-size="10.00">sophus/se3.hpp</text>
</a>
</g>
</g>
<!-- Node1&#45;&gt;Node9 -->
<g id="edge8" class="edge">
<title>Node1&#45;&gt;Node9</title>
<path fill="none" stroke="midnightblue" d="M684.62,-68.99C729.36,-58.17 787.23,-44.03 838.5,-31 842.82,-29.9 847.32,-28.74 851.81,-27.58"/>
<polygon fill="midnightblue" stroke="midnightblue" points="852.75,-30.95 861.53,-25.03 850.97,-24.18 852.75,-30.95"/>
</g>
<!-- Node10 -->
<g id="node10" class="node">
<title>Node10</title>
<g id="a_node10"><a xlink:title=" ">
<polygon fill="none" stroke="#bfbfbf" points="957.5,-6 957.5,-25 1059.5,-25 1059.5,-6 957.5,-6"/>
<text text-anchor="middle" x="1008.5" y="-13" font-family="Helvetica,sans-Serif" font-size="10.00">sophus/types.hpp</text>
</a>
</g>
</g>
<!-- Node1&#45;&gt;Node10 -->
<g id="edge9" class="edge">
<title>Node1&#45;&gt;Node10</title>
<path fill="none" stroke="midnightblue" d="M684.52,-76.22C753.41,-65.95 858.18,-49.35 948.5,-31 953.88,-29.91 959.51,-28.67 965.08,-27.39"/>
<polygon fill="midnightblue" stroke="midnightblue" points="966.03,-30.76 974.96,-25.07 964.42,-23.95 966.03,-30.76"/>
</g>
<!-- Node11 -->
<g id="node11" class="node">
<title>Node11</title>
<g id="a_node11"><a xlink:href="messages_8hpp_source.html" target="_top" xlink:title=" ">
<polygon fill="none" stroke="black" points="1078,-6 1078,-25 1221,-25 1221,-6 1078,-6"/>
<text text-anchor="middle" x="1149.5" y="-13" font-family="Helvetica,sans-Serif" font-size="10.00">beluga_ros/messages.hpp</text>
</a>
</g>
</g>
<!-- Node1&#45;&gt;Node11 -->
<g id="edge10" class="edge">
<title>Node1&#45;&gt;Node11</title>
<path fill="none" stroke="midnightblue" d="M684.81,-79.11C775.88,-69.28 933.74,-51.27 1068.5,-31 1076.83,-29.75 1085.61,-28.3 1094.2,-26.82"/>
<polygon fill="midnightblue" stroke="midnightblue" points="1094.92,-30.25 1104.16,-25.08 1093.71,-23.36 1094.92,-30.25"/>
</g>
</g>
</svg>
